<svg xmlns="http://www.w3.org/2000/svg" width="250" height="243">
    <g fill="none" fill-rule="evenodd">
        <path fill="#EAEFF8" d="M196 36.46S72.8 23.04 60.3 77.66c-18 78.74 59.66 60.68 59.66 60.68S14.42 183.42 25.86 78.8C33.62 7.94 172.4 25.04 196 36.46z"/>
        <path fill="#EAEFF8" d="M186 65.12s-56.1-.64-59.5 23.68c-4.87 35.04 29.4 23.9 29.4 23.9S110.2 136.8 111 90.75c.58-31.2 63.88-29.6 75-25.63z"/>
        <path fill="#EAEFF8" d="M186 51.14s-84.55-.94-89.65 35.08c-7.35 51.96 44.3 35.46 44.3 35.46S71.74 157.36 73 89.12C73.88 42.9 169.26 45.24 186 51.14z"/>
        <path fill="#F1F4F9" d="M155 112.05S110.77 136 107 95c5.46.84 10.5 1.46 15.37 1.48 2.46 30 32.63 15.57 32.63 15.57zM124.45 82.68c-.4 1.52-1.23 5-1.47 6.32-9.63-1.05-5.57-.08-15.98-1.75.07-.63.33-3.9.46-4.55C113 55.02 176.58 60.24 187 64.13c0 0-56.3-4.48-62.56 18.54z"/>
        <path fill="#F1F4F9" d="M142 122.57S74.72 158.5 69 97c8.3 1.26 15.96 2.2 23.36 2.22 3.72 45 49.64 23.35 49.64 23.35zM93.97 79.3c-.6 2.3-1.85 7.63-2.2 9.7C77.42 87.38 78.3 87.8 68 86.3c.1-.97.5-5.98.68-6.97C76.92 36.8 171.5 44.83 187 50.83c0 0-83.75-6.9-93.03 28.48z"/>
        <path fill="#F1F4F9" d="M118 137.7S16 181 16 90c11.83 3.02 22.77 5.46 33.44 6.52-.65 66.54 68.56 41.2 68.56 41.2zM55.96 65.87C54.76 69.2 52.2 76.97 51.4 80c-20.76-4.4-15.34-2.54-34.4-7.33.3-1.43 1.55-8.84 1.98-10.28C36.88.27 174.18 25.42 196 36.5c0 0-121.6-21.96-140.04 29.37z"/>
    </g>
</svg>