<svg width="256" height="256" viewBox="0 0 256 256" xmlns="http://www.w3.org/2000/svg" xmlns:xlink="http://www.w3.org/1999/xlink">
  <title>
    Artboard
  </title>
  <defs>
    <path id="path-1" d="M9.479.0537v2H.4795v-2H9.479z"/>
    <path id="path-3" d="M.6768.056h2v8.9997h-2V.056z"/>
    <path d="M129.681141 113.980815C113.621703 129.070953 92.0050047 138.315 68.229 138.315c-27.225215 0-51.6193619-12.12117-68.0802659-31.2615V.06790354H129.681141V113.980815z" id="path-5"/>
    <path d="M.14881574 106.870432C16.6130626 126.692986 41.4470077 139.315 69.229 139.315c24.2731125 0 46.295682-9.634636 62.452133-25.288333V.06958838H.14881575V106.870432z" id="path-7"/>
  </defs>
  <g id="Page-1" fill="none" fill-rule="evenodd">
    <g id="Artboard">
      <g id="User">
        <g id="Page-1">
          <g id="Group-23">
            <path d="M219.7295 137.4997c0 49.982-40.518 90.5-90.5 90.5-49.981 0-90.5-40.518-90.5-90.5 0-49.981 40.519-90.5 90.5-90.5 49.982 0 90.5 40.519 90.5 90.5" id="Fill-1" fill="#E1F2FF"/>
            <path d="M210.9971 177.3346c-.144 0-.29-.031-.429-.097-.499-.237-.711-.834-.473-1.333 5.729-12.043 8.634-24.965 8.634-38.405 0-3.253-.175-6.527-.522-9.733-.06-.549.338-1.042.887-1.102.531-.059 1.042.337 1.101.887.355 3.276.534 6.624.534 9.948 0 13.74-2.97 26.95-8.828 39.265-.172.36-.53.57-.904.57m-99.586 49.911c-.064 0-.131-.006-.197-.019-16.599-3.315-31.947-11.202-44.388-22.808-.403-.377-.426-1.01-.049-1.414.377-.403 1.01-.425 1.414-.049 12.168 11.354 27.18 19.067 43.415 22.31.541.108.893.634.785 1.176-.095.475-.513.804-.98.804m29.845.961c-.494 0-.924-.365-.99-.868-.074-.548.312-1.051.859-1.123 19.641-2.609 38.129-11.879 52.058-26.104.388-.394 1.021-.401 1.414-.015.395.386.401 1.019.015 1.414-14.241 14.544-33.142 24.021-53.223 26.687-.045.006-.089.009-.133.009" id="Fill-3" fill="#375D81"/>
            <path d="M239.9795 79.4977c-.553 0-1-.447-1-1v-7c0-.553.447-1 1-1 .553 0 1 .447 1 1v7c0 .553-.447 1-1 1" id="Fill-5" fill="#375D81"/>
            <g id="Group-9" transform="translate(235 73.944)">
              <mask id="mask-2" fill="#fff">
                <use xlink:href="#path-1"/>
              </mask>
              <path d="M8.4795 2.0537h-7c-.553 0-1-.447-1-1 0-.553.447-1 1-1h7c.553 0 1 .447 1 1 0 .553-.447 1-1 1" id="Fill-7" fill="#375D81" mask="url(#mask-2)"/>
            </g>
            <g id="Group-12" transform="translate(67 28.944)">
              <mask id="mask-4" fill="#fff">
                <use xlink:href="#path-3"/>
              </mask>
              <path d="M1.6768 9.0557c-.553 0-1-.447-1-1v-7c0-.553.447-1 1-1 .553 0 1 .447 1 1v7c0 .553-.447 1-1 1" id="Fill-10" fill="#375D81" mask="url(#mask-4)"/>
            </g>
            <path d="M72.1768 34.4997h-7c-.553 0-1-.447-1-1 0-.553.447-1 1-1h7c.553 0 1 .447 1 1 0 .553-.447 1-1 1" id="Fill-13" fill="#375D81"/>
            <path d="M13.4687 130.1276c-.276 0-.5-.224-.5-.5v-3.937c0-.277.224-.5.5-.5s.5.223.5.5v3.937c0 .276-.224.5-.5.5" id="Fill-15" fill="#375D81"/>
            <path d="M15.4375 128.1588h-3.938c-.276 0-.499-.224-.499-.5s.223-.5.499-.5h3.938c.276 0 .5.224.5.5s-.224.5-.5.5" id="Fill-17" fill="#375D81"/>
            <path d="M35.7109 215.1833c-.276 0-.5-.224-.5-.5v-3.937c0-.277.224-.5.5-.5s.5.223.5.5v3.937c0 .276-.224.5-.5.5" id="Fill-19" fill="#375D81"/>
            <path d="M37.6797 213.2145h-3.938c-.276 0-.499-.224-.499-.5s.223-.5.499-.5h3.938c.276 0 .5.224.5.5s-.224.5-.5.5" id="Fill-21" fill="#375D81"/>
          </g>
          <g id="Group-74">
            <g id="Group-26" transform="translate(61 88.944)">
              <mask id="mask-6" fill="#fff">
                <use xlink:href="#path-5"/>
              </mask>
              <path d="M129.666 217.2051c-9.016-18.303-22.424-71.359-15.555-106.607l5.437-27.892c1.783-9.15 2.565-18.469 2.331-27.788v-.001c-.098-3.883-.586-7.663-1.428-11.306-.21-.911-.442-1.813-.696-2.706-.762-2.678-1.716-5.273-2.847-7.769-.376-.832-.772-1.654-1.188-2.464-.831-1.619-1.739-3.193-2.717-4.715-.979-1.523-2.027-2.994-3.144-4.411-3.347-4.25-7.293-8.002-11.706-11.132-1.47-1.043-2.993-2.018-4.563-2.918-8.634-4.954-18.692-7.679-29.369-7.41l-9.222.231c-15.532.391-29.436 7.039-39.357 17.474-1.241 1.304-2.419 2.667-3.53 4.085-2.02 2.577-3.806 5.341-5.357 8.247-.583 1.092-1.144 2.196-1.654 3.329-.374.829-.729 1.67-1.064 2.52-1.004 2.549-1.827 5.19-2.452 7.903-.626 2.713-1.056 5.499-1.273 8.343-.144 1.895-.194 3.816-.145 5.758.098 3.872 1.755 7.337 4.356 9.811s6.146 3.955 10.018 3.858l57.585-1.447-7.46 50.2c-8.939 51.601-5.002 85.861 3.497 108.551 1.895 5.059 62.617-9.483 61.503-11.744" id="Fill-24" fill="#9ACDED" mask="url(#mask-6)"/>
            </g>
            <g id="Group-29" transform="translate(60 87.944)">
              <mask id="mask-8" fill="#fff">
                <use xlink:href="#path-7"/>
              </mask>
              <path d="M129.7666 218.6426c.001.002.002.003.002.005v-.001c0-.001-.001-.003-.002-.004zm-55.477-148.474l-7.634 51.377c-7.772 44.86-6.612 81.206 3.444 108.053.756.75 8.043 1.074 29.932-3.583 14.579-3.102 26.907-6.599 29.44-7.981-9.127-19.082-22.188-71.498-15.342-106.628l5.437-27.892c1.766-9.066 2.545-18.343 2.312-27.571-.093-3.752-.565-7.488-1.402-11.107-.204-.887-.435-1.781-.684-2.658-.74-2.602-1.68-5.17-2.796-7.63-.365-.809-.757-1.623-1.167-2.42-.81-1.579-1.708-3.136-2.667-4.631-.958-1.489-1.997-2.947-3.088-4.333-3.292-4.179-7.162-7.858-11.499-10.935-1.448-1.025-2.955-1.99-4.483-2.866-8.742-5.016-18.704-7.538-28.847-7.278l-9.221.232c-14.758.371-28.487 6.466-38.658 17.163-1.218 1.28-2.385 2.63-3.467 4.012-1.952 2.49-3.723 5.215-5.263 8.101-.661 1.238-1.178 2.278-1.624 3.27-.368.814-.716 1.64-1.045 2.475-.992 2.519-1.802 5.13-2.408 7.761-.62 2.685-1.04 5.441-1.25 8.194-.143 1.867-.19 3.77-.143 5.657.088 3.478 1.525 6.714 4.046 9.112 2.52 2.396 5.8 3.675 9.303 3.583l58.774-1.477zm-1.033 161.831c-.84 0-1.568-.038-2.172-.118-1.023-.135-2.433-.447-2.858-1.582-10.182-27.183-11.375-63.881-3.546-109.072l7.281-49-56.395 1.418c-4.03.078-7.824-1.367-10.733-4.134-2.908-2.765-4.565-6.498-4.667-10.511-.048-1.955.001-3.925.149-5.859.218-2.853.653-5.709 1.295-8.491.629-2.728 1.468-5.435 2.496-8.045.343-.869.707-1.732 1.083-2.565.466-1.033 1.001-2.11 1.683-3.388 1.594-2.989 3.429-5.813 5.453-8.394 1.121-1.431 2.33-2.83 3.591-4.157C26.4556 7.0186 40.6816.7026 55.9736.3176l9.222-.232c10.511-.246 20.834 2.346 29.892 7.543 1.582.908 3.146 1.907 4.644 2.97 4.495 3.188 8.503 6.999 11.913 11.328 1.132 1.437 2.208 2.947 3.199 4.489.996 1.549 1.926 3.164 2.766 4.799.425.827.831 1.671 1.21 2.509 1.155 2.55 2.13 5.211 2.897 7.908.259.909.497 1.836.709 2.755.866 3.749 1.356 7.62 1.453 11.505.236 9.375-.554 18.797-2.349 28.006l-5.437 27.891c-6.836 35.08 6.438 87.637 15.471 105.975v-.001c.193.393.146.853-.124 1.231-2.173 3.027-44.588 13.005-58.183 13.006z" id="Fill-27" fill="#375D81" mask="url(#mask-8)"/>
            </g>
            <path d="M86.3516 97.6764s.685-9.846 10.346-13.994c2.948-1.267 10.98-1.791 10.98-1.791s2.522 10.347-3.987 13.612c-9.368 4.7-17.339 2.173-17.339 2.173" id="Fill-30" fill="#FFF"/>
            <path d="M87.457 96.9186c2.191.457 8.59 1.301 15.785-2.309 4.729-2.373 4.028-9.263 3.625-11.654-2.131.175-7.571.698-9.775 1.646-7.476 3.21-9.24 9.952-9.635 12.317m4.406 2.447c-3.419 0-5.638-.68-5.814-.736l-.749-.237.053-.786c.031-.426.844-10.503 10.95-14.843 3.07-1.32 10.974-1.848 11.309-1.87l.838-.055.199.816c.111.453 2.628 11.161-4.51 14.743-4.69 2.353-9.025 2.968-12.276 2.968" id="Fill-32" fill="#375D81"/>
            <path d="M110.9863 92.0378s-.058-13.391 14.951-15.721c2.799-.434 6.412-.248 6.412-.248s7.454 13.883-.45 15.444c-9.717 1.919-20.913.525-20.913.525" id="Fill-34" fill="#FFF"/>
            <path d="M112.0381 91.1432c2.861.275 11.818.937 19.668-.612 1.181-.233 1.966-.792 2.399-1.709 1.419-3.001-1.031-9.095-2.376-11.775-1.107-.036-3.617-.056-5.638.258-11.916 1.85-13.767 10.917-14.053 13.838m8.079 2.39c-5.116 0-8.983-.469-9.254-.503l-.873-.109-.004-.88c-.001-.142.12-14.279 15.798-16.712 2.869-.446 6.466-.266 6.617-.259l.563.029.266.497c.204.377 4.941 9.304 2.684 14.079-.714 1.51-1.999 2.458-3.821 2.819-4.06.801-8.334 1.039-11.976 1.039" id="Fill-36" fill="#375D81"/>
            <path d="M139.5322 92.2917s1.989-14.847 15.326-10.762c5.698 1.745 8.861 6.076 8.861 6.076s-2.66 11.307-7.965 10.034c-9.264-2.222-16.222-5.348-16.222-5.348" id="Fill-38" fill="#FFF"/>
            <path d="M140.6602 91.6881c1.997.837 7.954 3.211 15.327 4.979.684.165 1.33.047 1.983-.354 2.381-1.467 4.062-6.234 4.658-8.469-.869-1.025-3.694-4.02-8.063-5.358-3.475-1.066-6.418-.85-8.742.641-3.498 2.243-4.782 6.783-5.163 8.561m15.926 7.053c-.352 0-.707-.043-1.066-.129-9.248-2.218-16.328-5.377-16.398-5.408l-.68-.306.099-.739c.04-.301 1.047-7.409 6.202-10.715 2.842-1.821 6.342-2.115 10.408-.87 5.948 1.821 9.238 6.255 9.375 6.442l.272.371-.106.447c-.075.32-1.883 7.847-5.674 10.182-.782.483-1.597.725-2.432.725" id="Fill-40" fill="#375D81"/>
            <path d="M91.1357 95.0446s.362-5.204 5.469-7.397c1.558-.67 5.804-.948 5.804-.948s1.333 5.47-2.107 7.197c-4.952 2.484-9.166 1.148-9.166 1.148" id="Fill-42" fill="#E1F2FF"/>
            <path d="M116.7695 89.5309s-.031-7.403 8.266-8.691c1.547-.241 3.546-.137 3.546-.137s4.121 7.675-.249 8.538c-5.373 1.061-11.563.29-11.563.29" id="Fill-44" fill="#E1F2FF"/>
            <path d="M144.7705 91.1549s1.088-8.123 8.386-5.888c3.117.955 4.847 3.325 4.847 3.325s-1.455 6.185-4.358 5.489c-5.068-1.216-8.875-2.926-8.875-2.926" id="Fill-46" fill="#E1F2FF"/>
            <path d="M180.3311 172.7614s-25.074 4.588-49.161-.729c-2.005 13.166-3.253 23.099-3.253 23.099s16.891 10.943 47.398 3.583c3.197-16.925 5.016-25.953 5.016-25.953" id="Fill-48" fill="#FFF"/>
            <path d="M128.9932 194.6012c3.053 1.688 19.094 9.469 45.46 3.29 2.385-12.615 3.997-20.8 4.615-23.913-5.61.851-26.667 3.513-47.069-.745-1.604 10.607-2.704 19.02-3.006 21.368m25.802 7.682c-17.413 0-26.898-5.973-27.422-6.313l-.526-.341.078-.623c.012-.099 1.272-10.096 3.256-23.125l.161-1.056 1.044.23c23.6 5.21 48.516.768 48.765.723l1.451-.266-.291 1.446c-.018.091-1.855 9.218-5.013 25.942l-.12.635-.628.151c-7.828 1.889-14.763 2.597-20.755 2.597" id="Fill-50" fill="#375D81"/>
            <path d="M137.7432 148.3434l-28.794.724c-.365-14.504 11.097-26.556 25.6-26.921l2.534-.064c7.252-.181 13.278 5.549 13.46 12.801.182 7.251-5.549 13.277-12.8 13.46" id="Fill-52" fill="#E1F2FF"/>
            <path d="M135.1836 147.9137l-25.752.647c-.286-11.394 8.719-20.863 20.113-21.149l5.365-.135c5.629-.141 10.308 4.308 10.449 9.938.145 5.764-4.41 10.554-10.175 10.699" id="Fill-54" fill="#FFF"/>
            <path d="M135.1719 128.2741c-.079 0-.158.001-.237.003l-5.365.135c-5.244.132-10.123 2.297-13.737 6.098-3.385 3.559-5.282 8.151-5.402 13.026l24.727-.622c2.522-.063 4.868-1.104 6.605-2.932 1.737-1.827 2.659-4.222 2.596-6.742-.061-2.456-1.076-4.741-2.856-6.434-1.723-1.638-3.963-2.532-6.331-2.532zm-26.715 21.312l-.025-1c-.299-11.927 9.161-21.874 21.088-22.174l5.364-.135c3.01-.044 5.831 1.018 7.998 3.08 2.167 2.061 3.401 4.843 3.477 7.832.077 3.056-1.041 5.957-3.147 8.172-2.105 2.214-4.948 3.475-8.003 3.553l-26.752.672z" id="Fill-56" fill="#375D81"/>
            <path d="M115.8027 136.5182c.079 3.182 2.724 5.696 5.906 5.617 3.183-.08 5.698-2.724 5.617-5.907-.08-3.182-2.724-5.697-5.906-5.617-3.182.08-5.697 2.724-5.617 5.907" id="Fill-58" fill="#375D81"/>
            <path d="M74.4092 155.9294c1.629-.392 3.07-1.338 4.08-2.675l1.869-2.476-4.277 1.029-2.519.607c-.97.234-1.568 1.21-1.335 2.181.235.971 1.211 1.568 2.182 1.334" id="Fill-60" fill="#375D81"/>
            <path d="M140.2129 176.6354s19.171 4.933 35.881 1.152c-2.858 12.582-4.439 16.544-4.439 16.544s-25.277-2.726-31.442-17.696" id="Fill-62" fill="#E1F2FF"/>
            <path d="M158.1406 184.7389c-11.849 0-19.71-1.863-19.819-1.89-.536-.13-.866-.671-.736-1.207.131-.538.674-.87 1.207-.736.15.036 15.172 3.587 35.009.715.541-.089 1.055.299 1.133.846.079.546-.3 1.053-.846 1.132-5.796.84-11.193 1.14-15.948 1.14" id="Fill-64" fill="#9ACDED"/>
            <path d="M163.8037 159.1022c-1.205 0-2.344-.454-3.221-1.288-.905-.86-1.421-2.023-1.452-3.272-.007-.276.212-.505.487-.512h.013c.271 0 .493.216.5.487.025.982.43 1.896 1.142 2.572.711.677 1.647 1.037 2.626 1.012 2.027-.052 3.634-1.742 3.583-3.769-.007-.276.211-.505.487-.512.3-.001.506.212.513.487.065 2.578-1.98 4.729-4.558 4.794-.04.001-.08.001-.12.001" id="Fill-66" fill="#E1F2FF"/>
            <path d="M168.084 163.1725c-1.204 0-2.344-.454-3.221-1.287-.905-.861-1.421-2.024-1.452-3.272-.007-.276.212-.505.487-.512h.013c.271 0 .493.216.5.487.025.981.43 1.895 1.142 2.571.711.677 1.647 1.034 2.626 1.012.982-.024 1.895-.43 2.572-1.142.677-.711 1.036-1.644 1.011-2.626-.007-.276.211-.505.487-.512.273.044.506.213.513.487.031 1.249-.425 2.435-1.286 3.341-.861.905-2.023 1.421-3.272 1.452-.04.001-.08.001-.12.001" id="Fill-68" fill="#E1F2FF"/>
            <path d="M157.9561 218.9489c-1.032 0-2.008-.39-2.758-1.103-.775-.737-1.217-1.732-1.244-2.802-.007-.277.211-.506.487-.513.313.003.506.212.513.487.021.803.352 1.55.934 2.104.582.554 1.35.864 2.146.826.803-.02 1.55-.352 2.103-.933.553-.582.847-1.344.827-2.147-.007-.276.211-.506.487-.513h.013c.27 0 .493.216.5.488.026 1.069-.364 2.085-1.102 2.861-.738.775-1.733 1.218-2.802 1.244-.036.001-.07.001-.104.001" id="Fill-70" fill="#E1F2FF"/>
            <path d="M73.3945 140.528c-.806 0-1.567-.304-2.153-.861-.606-.576-.951-1.354-.973-2.19-.007-.276.211-.506.487-.512h.013c.271 0 .493.215.5.487.03 1.175 1.016 2.142 2.183 2.075.568-.014 1.097-.249 1.489-.661.392-.412.6-.952.586-1.521-.007-.276.212-.505.487-.512h.013c.27 0 .493.216.5.487.02.836-.285 1.629-.861 2.235-.577.606-1.354.952-2.189.972-.027.001-.055.001-.082.001" id="Fill-72" fill="#E1F2FF"/>
          </g>
          <g id="Group-79" fill="#375D81">
            <path d="M190.2197 83.7409c-.276 0-.5-.224-.5-.5v-3.481c0-.277.224-.5.5-.5s.5.223.5.5v3.481c0 .276-.224.5-.5.5" id="Fill-75"/>
            <path d="M191.96 81.9997h-3.481c-.277 0-.5-.224-.5-.5s.223-.5.5-.5h3.481c.276 0 .5.224.5.5s-.224.5-.5.5" id="Fill-77"/>
          </g>
        </g>
      </g>
    </g>
  </g>
</svg>
