<svg width="256" height="256" viewBox="0 0 256 256" xmlns="http://www.w3.org/2000/svg" xmlns:xlink="http://www.w3.org/1999/xlink"><title>Products_Product variant</title><defs><path id="a" d="M0 2.6836v-2h10.9736v2z"/></defs><g fill="none" fill-rule="evenodd"><path d="M8.3291 236.6238c0-66.131 53.61-119.74 119.741-119.74s119.74 53.609 119.74 119.74H8.3291z" fill="#E1F2FF"/><path d="M19.9785 227.6238h36" fill="#FFF"/><path d="M55.9785 228.6238h-36c-.553 0-1-.447-1-1 0-.553.447-1 1-1h36c.553 0 1 .447 1 1 0 .553-.447 1-1 1" fill="#375D81"/><path d="M172.4307 227.2498h-4.979c-1.712 0-3.265-1.047-3.885-2.644-1.768-4.55-1.327-8.731-1.538-12.307-.392-6.625.643-10.02 1.631-15.561l7.474.174s-.636 2.752-1.059 11.011c-.131 2.556 4.091 12.818 3.893 17.853-.032.826-.71 1.474-1.537 1.474" fill="#9452BA"/><path d="M164.4902 197.7576c-.132.712-.264 1.39-.391 2.048-.773 3.997-1.384 7.155-1.073 12.434.05.839.065 1.712.079 2.614.049 2.978.099 6.057 1.394 9.39.466 1.201 1.652 2.006 2.953 2.006h4.978c.29 0 .527-.225.539-.513.108-2.755-1.263-7.43-2.364-11.186-.988-3.37-1.591-5.495-1.53-6.679.277-5.404.645-8.477.873-9.987l-5.458-.127zm7.94 30.492h-4.978c-2.119 0-4.056-1.318-4.818-3.281-1.424-3.667-1.48-7.075-1.529-10.082-.013-.873-.027-1.717-.075-2.529-.327-5.53.337-8.96 1.106-12.932.175-.904.358-1.848.539-2.863l.15-.844 9.555.222-.272 1.195c-.006.027-.624 2.82-1.035 10.838-.047.905.715 3.502 1.451 6.013 1.202 4.1 2.564 8.747 2.443 11.829-.053 1.365-1.167 2.434-2.537 2.434z" fill="#52267D"/><path d="M186.9258 203.5808l6.012-6.817 3.712.147s.52 5.671.734 8.046c.376 4.186 2.11 12.388 3.176 15.987.346 1.171.548 2.265.604 3.257.094 1.67-1.299 3.049-2.97 3.049h-4.412c-2.569 0-4.853-1.714-5.485-4.205-1.966-7.753-1.371-19.464-1.371-19.464" fill="#9452BA"/><path d="M187.9102 203.9773c-.077 1.982-.363 12.04 1.356 18.821.515 2.033 2.373 3.451 4.516 3.451h4.411c.552 0 1.085-.229 1.464-.629.357-.376.536-.861.509-1.364-.053-.921-.243-1.94-.566-3.028-1.136-3.842-2.842-12.064-3.212-16.182-.163-1.798-.5-5.487-.655-7.171l-2.36-.093-5.463 6.195zm10.283 24.272h-4.411c-3.059 0-5.714-2.039-6.455-4.959-1.98-7.809-1.425-19.276-1.4-19.76l.017-.349 6.558-7.436 5.063.201.08.873s.521 5.673.735 8.048c.354 3.942 2.05 12.115 3.138 15.793.367 1.236.582 2.408.644 3.484.06 1.058-.314 2.069-1.052 2.85-.755.797-1.817 1.255-2.917 1.255z" fill="#52267D"/><path d="M195.7246 208.9177l-.023.502.294-.265-.271-.237zm-1.511.358l1.155.444.214-.195-.469-.021.013-.288-.798-.189-.115.249zm1.262 1.02l-1.938-.744.505-1.107 1.567.371-.396-.347.33-.375 1.203 1.055-1.271 1.147z" fill="#52267D"/><path d="M195.3428 178.1941c-4.379-.089-8.483-3.105-17.42-3.518-.129-.584-.286-1.111-.486-1.544-1.617-3.501-3.9-13.592-2.434-20.222l1.16-5.245c.38-1.721.573-3.479.573-5.242 0-.733-.075-1.451-.216-2.143-.036-.173-.075-.345-.119-.515-.131-.509-.299-1.005-.501-1.481-.068-.159-.139-.317-.213-.472-.15-.309-.314-.611-.491-.903-.178-.293-.37-.576-.574-.849-.612-.819-1.34-1.547-2.159-2.16-.273-.204-.557-.395-.849-.573-1.608-.977-3.496-1.54-5.515-1.54h-1.744c-2.938 0-5.597 1.191-7.522 3.116-.24.24-.469.492-.686.755-.394.477-.744.991-1.051 1.533-.115.204-.227.41-.329.621-.074.155-.146.313-.213.472-.202.476-.37.972-.501 1.481-.131.51-.226 1.035-.28 1.572-.036.357-.055.719-.055 1.086 0 .733.297 1.396.777 1.875.48.481 1.143.778 1.875.778h10.89l-1.648 9.452c-1.935 9.71-1.353 16.203.145 20.532.334.965 2.236 4.385 2.236 4.385-5.445 8.593-13.796 12.349-22.725 13.439-7.591.927-23.979-5.996-15.529-14.003 8.449-8.008-1.761-3.029-3.264-2.015-1.503 1.014-10.193 8.522-.762 19.539 3.988 4.658 8.506 8.893 19.375 12.14 1.743.52 11.255 1.212 16.376 2.682 15.245 4.376 27.64-.383 34.585-10.446 6.917-10.024 1.023-22.552-.706-22.587" fill="#9452BA"/><path d="M195.3211 179.1941h.001-.001zm-63.846-3.574c-1.407.461-3.65 1.541-4.441 2.075-1.088.733-4.027 3.503-4.563 7.457-.46 3.395.885 6.963 4.002 10.603 3.75 4.379 8.016 8.58 18.901 11.832.577.171 2.465.409 4.463.659 3.644.457 8.636 1.083 11.902 2.02 14.082 4.04 26.287.378 33.486-10.053 3.938-5.705 3.288-11.943 2.549-15.154-.784-3.413-2.115-5.493-2.596-5.869-1.942-.065-3.793-.642-5.929-1.308-2.827-.879-6.345-1.975-11.372-2.207l-.766-.035-.165-.748c-.122-.555-.262-1.006-.417-1.34-1.679-3.635-4.018-14.004-2.503-20.858l1.16-5.245c.365-1.65.549-3.34.549-5.026 0-.655-.065-1.308-.195-1.943-.032-.153-.067-.309-.107-.465-.119-.458-.271-.908-.455-1.341-.061-.146-.127-.289-.194-.43-.134-.278-.282-.551-.443-.816-.161-.265-.334-.522-.52-.768-.554-.743-1.214-1.403-1.958-1.959-.247-.185-.504-.359-.768-.52-1.502-.912-3.231-1.394-4.996-1.394h-1.745c-2.573 0-4.994 1.003-6.814 2.823-.218.218-.426.446-.622.685-.351.425-.671.892-.952 1.388-.105.186-.206.374-.3.567-.065.135-.13.278-.191.423-.184.434-.336.884-.454 1.341-.12.466-.205.946-.254 1.424-.033.323-.049.652-.049.985 0 .442.172.856.483 1.167.314.314.728.486 1.169.486h12.079l-1.852 10.624c-1.658 8.316-1.621 15.048.105 20.033.222.643 1.446 2.934 2.165 4.226l.289.519-.318.502c-5.029 7.935-12.918 12.61-23.449 13.897-5.484.671-15.92-2.647-18.438-7.994-.852-1.81-1.18-4.621 2.1-7.728 1.266-1.201 2-2.008 2.424-2.535zm40.883 38.212c-3.578 0-7.325-.54-11.171-1.644-3.117-.894-8.019-1.509-11.599-1.958-2.352-.295-4.05-.508-4.786-.727-11.397-3.405-16.055-8.016-19.849-12.448-3.502-4.091-5.005-8.186-4.464-12.172.611-4.515 3.817-7.76 5.426-8.846.062-.041 6.354-3.948 7.843-2.093.853 1.063.012 2.492-3.332 5.662-1.963 1.861-2.508 3.636-1.665 5.425 1.958 4.157 11.183 7.486 16.385 6.861 9.685-1.183 16.977-5.384 21.682-12.488-.565-1.033-1.735-3.206-2.017-4.017-1.842-5.325-1.903-12.409-.18-21.054l1.439-8.257h-9.7c-.977 0-1.894-.38-2.583-1.071-.689-.688-1.069-1.605-1.069-2.582 0-.401.02-.796.059-1.187.06-.578.162-1.156.307-1.72.142-.553.327-1.098.549-1.623.073-.172.15-.344.231-.513.114-.235.236-.458.361-.68.338-.599.725-1.162 1.15-1.678.237-.288.488-.563.751-.826 2.198-2.198 5.121-3.409 8.228-3.409h1.745c2.131 0 4.218.583 6.034 1.685.32.195.63.404.928.626.898.673 1.693 1.468 2.362 2.364.222.297.432.607.627.928.194.319.374.649.537.988.083.171.16.343.233.516.222.524.406 1.069.549 1.622.047.184.09.371.129.559.158.77.237 1.559.237 2.348 0 1.831-.2 3.666-.595 5.457l-1.161 5.246c-1.399 6.33.829 16.259 2.366 19.588.134.292.256.625.367 1.004 4.887.311 8.335 1.384 11.131 2.255 2.129.663 3.809 1.187 5.52 1.221.327.007 1.324.027 2.696 2.704 2.154 4.207 4.328 13.459-1.187 21.451-5.621 8.144-14.377 12.483-24.514 12.483z" fill="#52267D"/><path d="M185.8838 163.7234c-.35-11.26 8.587-20.108 18.744-21.979 2.109-.388 2.794-1.049 5.101-1.049h1.767c5.951 0 10.776 4.824 10.776 10.775 0 1.483-1.202 2.687-2.687 2.687 0 0-18.119-.005-18.204-.013-.001 0-1.476.001-1.476.001.001.002 1.478.003 1.48.005-4.007 1.701-6.5 6.822-6.94 9.573-.626 3.919-.167 7.151 1.169 9.765.89 1.741.992 3.839.854 5.538 0 0-.043.014-.103.035-.063.908-.21 1.941-.48 3.12-1.707-1.189-4.36-2.979-4.845-3.234-1.047-.552-3.411-1.811-4.469-2.416-6.758-3.875-.489-6.403-.687-12.808" fill="#9452BA"/><path d="M209.7285 141.6951c-1.275 0-1.967.218-2.844.493-.568.179-1.213.381-2.075.54-8.955 1.649-18.28 9.557-17.926 20.964.081 2.641-.836 4.671-1.572 6.302-1.183 2.619-1.672 3.703 1.757 5.67.97.554 3.185 1.738 4.437 2.398.452.238 2.223 1.426 3.689 2.429.082-.518.139-1.019.173-1.499l.047-.661.094-.032c.048-1.324-.083-2.982-.785-4.356-1.478-2.891-1.905-6.382-1.266-10.378.406-2.54 2.33-6.657 5.396-9.057l-1.362-1.362 3.889-.002c.372.006 12.069.011 18.204.013.93 0 1.687-.757 1.687-1.687 0-5.39-4.385-9.775-9.775-9.775h-1.768zm-13.199 42.154l-1.216-.847c-1.923-1.339-4.359-2.969-4.74-3.171-1.088-.573-3.429-1.82-4.499-2.432-5.005-2.87-3.776-5.594-2.585-8.228.685-1.519 1.462-3.24 1.394-5.416-.388-12.524 9.789-21.194 19.564-22.994.742-.136 1.299-.312 1.838-.481.957-.301 1.861-.585 3.443-.585h1.768c6.493 0 11.775 5.282 11.775 11.775 0 2.034-1.653 3.687-3.687 3.687-13.68-.004-17.097-.008-17.976-.013-3.64 1.662-5.816 6.483-6.177 8.738-.569 3.566-.209 6.645 1.073 9.151 1.036 2.027 1.094 4.422.96 6.074l-.053.653-.108.038c-.089.831-.238 1.705-.444 2.606l-.33 1.445z" fill="#52267D"/><path d="M191.6543 176.7342c.089-1.739.354-2.632.16-3.34-1.123-4.073-1.488-5.358-1.488-9.671 0-4.285 2.482-8.52 6.148-10.772.201-.124 2.839-.311 4.91 1.199-4.006 1.701-6.5 6.822-6.94 9.573-.626 3.919-.167 7.152 1.169 9.765.891 1.742.992 3.84.854 5.538 0 0-4.916 1.846-4.813-2.292" fill="#F3E3FF"/><path d="M192.1543 176.7537c-.021.873.208 1.487.681 1.823.834.598 2.358.321 3.157.08.085-1.432-.012-3.351-.824-4.941-1.429-2.795-1.838-6.184-1.218-10.071.444-2.772 2.754-7.489 6.404-9.543-1.691-.869-3.48-.749-3.693-.689-3.515 2.17-5.835 6.231-5.835 10.311 0 4.206.334 5.416 1.44 9.427l.031.111c.145.531.083 1.094-.002 1.873-.05.443-.108.972-.141 1.619m2.082 3.181c-.687 0-1.405-.133-1.98-.541-.761-.542-1.132-1.441-1.102-2.672l.001-.013c.034-.674.095-1.223.145-1.684.077-.693.127-1.152.032-1.498l-.031-.11c-1.103-4.004-1.475-5.352-1.475-9.693 0-4.42 2.507-8.816 6.387-11.199.44-.27 3.296-.359 5.466 1.221l.713.52-.812.344c-3.619 1.538-6.184 6.327-6.642 9.193-.587 3.674-.21 6.855 1.12 9.458.984 1.924 1.036 4.219.908 5.806l-.026.316-.297.111c-.072.028-1.193.441-2.407.441" fill="#52267D"/><path d="M217.1504 142.5252s.004-1.882-1.866-2.63c-.571-.227-1.613-.652-1.613-.652s-1.114 2.356.149 2.95c1.816.854 3.33.332 3.33.332" fill="#FFF"/><path d="M213.9502 139.8963c-.214.624-.43 1.604.083 1.845 1.081.509 2.052.47 2.566.394-.107-.501-.444-1.353-1.501-1.776-.323-.129-.796-.32-1.148-.463m2.026 3.287c-.646 0-1.475-.117-2.369-.538-.366-.172-.633-.468-.772-.856-.386-1.075.304-2.591.385-2.76l.202-.428.438.179c.001 0 1.04.424 1.61.65 2.16.864 2.18 3.005 2.18 3.096l-.001.355-.336.117c-.038.012-.553.185-1.337.185" fill="#52267D"/><path d="M212.4687 141.2019s-.054-2.564-2.938-2.938c-.539-.07-1.942-.036-1.942-.036s-.647 2.713.873 2.974c1.87.321 4.007 0 4.007 0" fill="#FFF"/><path d="M208.0068 138.7215c-.073.523-.113 1.329.161 1.743.093.141.209.216.379.244 1.241.214 2.63.128 3.351.057-.162-.647-.694-1.78-2.432-2.005-.305-.041-.973-.043-1.459-.039m2.331 3.124c-.619 0-1.303-.038-1.961-.15-.439-.077-.8-.311-1.044-.68-.659-.999-.276-2.711-.23-2.903l.089-.374.385-.01c.146-.005 1.457-.033 2.018.04 2.619.339 3.352 2.388 3.374 3.423l.009.439-.435.066c-.059.008-1.012.149-2.205.149" fill="#52267D"/><path d="M206.7324 141.448s-.38-2.844-2.935-2.063c-1.091.334-1.697 1.164-1.697 1.164s.509 2.166 1.525 1.921c1.774-.424 3.107-1.022 3.107-1.022" fill="#FFF"/><path d="M202.6523 140.6746c.149.491.425 1.104.711 1.279.062.039.101.043.144.031 1.162-.278 2.135-.635 2.643-.836-.108-.366-.34-.911-.792-1.199-.371-.237-.834-.264-1.414-.086-.629.192-1.075.585-1.292.811m.815 2.315c-.217 0-.43-.062-.628-.184-.803-.494-1.162-1.871-1.225-2.143l-.053-.223.136-.186c.028-.039.718-.968 1.954-1.347.87-.264 1.626-.198 2.25.204 1.106.71 1.318 2.208 1.326 2.271l.05.37-.341.152c-.055.026-1.395.623-3.195 1.053-.091.022-.183.033-.274.033" fill="#52267D"/><path d="M199.3135 155.2527s-5.955-3.237-4.822-8.686c-.791.652-2.906 2.638-3.672 3.655 0 1.066-.195 5.302 5.653 8.138 1.029-1.066 1.895-2.396 2.841-3.107" fill="#FFF"/><path d="M191.3184 150.3943c-.004 1.268.072 4.794 5.044 7.352.299-.331.589-.682.871-1.024.42-.509.823-.997 1.243-1.405-1.387-.937-4.696-3.587-4.627-7.515-.882.816-1.978 1.903-2.531 2.592zm5.263 8.574l-.326-.158c-3.958-1.919-5.955-4.775-5.936-8.491v-.167l.101-.232c.788-1.045 2.908-3.043 3.753-3.739l1.096-.903-.289 1.39c-1.045 5.027 4.516 8.115 4.572 8.145l.684.372-.622.467c-.529.397-1.054 1.033-1.609 1.707-.373.45-.757.917-1.172 1.348l-.252.261z" fill="#52267D"/><path d="M216.5986 142.2244s.003-1.099-1.089-1.535c-.333-.133-.94-.381-.94-.381s-.651 1.375.086 1.722c1.059.499 1.943.194 1.943.194M211.6172 140.8474s-.031-1.501-1.721-1.72c-.315-.041-1.136-.021-1.136-.021s-.38 1.589.51 1.741c1.096.188 2.347 0 2.347 0M206.1025 141.3621s-.225-1.682-1.736-1.22c-.646.198-1.004.688-1.004.688s.301 1.281.902 1.137c1.049-.251 1.838-.605 1.838-.605M207.3457 152.3533h5.445c0-2.743-2.223-4.967-4.966-4.967h-.479c-1.372 0-2.483 1.113-2.483 2.484s1.111 2.483 2.483 2.483" fill="#F3E3FF"/><path d="M207.8037 152.2595h4.894c0-2.154-1.748-3.901-3.902-3.901h-.992c-1.077 0-1.95.873-1.95 1.951 0 1.077.873 1.95 1.95 1.95" fill="#FFF"/><path d="M207.8037 148.8582c-.8 0-1.45.651-1.45 1.451s.65 1.45 1.45 1.45h4.356c-.242-1.639-1.658-2.901-3.364-2.901h-.992zm5.394 3.901h-5.394c-1.351 0-2.45-1.099-2.45-2.45 0-1.351 1.099-2.451 2.45-2.451h.992c2.427 0 4.402 1.975 4.402 4.401v.5z" fill="#52267D"/><path d="M211.8105 150.2566c0 .602-.487 1.09-1.089 1.09s-1.09-.488-1.09-1.09c0-.602.488-1.09 1.09-1.09.602 0 1.089.488 1.089 1.09M219.835 153.3386c-.311-.066-.587-.238-.784-.486l-.365-.459.813.174.479.103c.184.039.302.221.262.405-.039.185-.22.303-.405.263" fill="#52267D"/><path d="M198.3076 155.3611s-4.588-2.471-4.518-7.447c-1.971 1.436-2.504 2.365-2.504 2.365s.342 2.369 1.446 3.564c1.694 1.835 3.459 2.4 5.576 1.518" fill="#EAF3FB"/><path d="M193.9648 154.4871s1.809 1.84 3.573 2.723" fill="#FFF"/><path d="M197.3145 157.657c-1.818-.91-3.63-2.742-3.706-2.819l.713-.702c.017.018 1.773 1.792 3.44 2.626l-.447.895z" fill="#52267D"/><path d="M175.9736 173.8347l1.021-2.017c3.818-9.381 4.407-14.89 2.426-23.844l-1.159-5.245c-.381-1.721-.573-3.479-.573-5.242 0-5.874 4.763-10.636 10.637-10.636h1.717c5.794 0 10.492 4.697 10.492 10.491v.302c0 1.378-1.118 2.496-2.497 2.496h-10.874l1.649 9.452c5.047 25.331 4.541 35.6-5.391 33.489" fill="#9452BA"/><path d="M185.7578 184.3513c-.78 0-1.627-.098-2.544-.292l.416-1.957c2.414.516 4.131.225 5.252-.882 3.838-3.79 1.623-18.016-1.05-31.433l-1.857-10.648h12.063c.825 0 1.496-.671 1.496-1.496v-.302c0-5.233-4.257-9.491-9.491-9.491h-1.718c-5.313 0-9.636 4.323-9.636 9.637 0 1.686.184 3.377.549 5.025l1.16 5.245c2.015 9.112 1.436 14.822-2.477 24.438l-1.056 2.092-1.783-.905 1.022-2.016c3.743-9.211 4.276-14.426 2.341-23.177l-1.16-5.245c-.395-1.789-.596-3.625-.596-5.457 0-6.417 5.219-11.637 11.636-11.637h1.718c6.336 0 11.491 5.155 11.491 11.491v.302c0 1.928-1.568 3.496-3.496 3.496h-9.684l1.444 8.28c4.037 20.263 4.176 29.584.489 33.224-1.157 1.142-2.651 1.708-4.529 1.708" fill="#52267D"/><path d="M195.292 128.1092s-.175-1.844-2.007-2.576c-.558-.224-1.434.014-1.434.014s-1.058 1.655.178 2.237c1.78.837 3.263.325 3.263.325" fill="#FFF"/><path d="M192.1768 125.9871c-.137.271-.314.729-.224 1.041.027.091.083.207.289.304 1.034.485 1.943.467 2.455.397-.161-.505-.572-1.322-1.597-1.732-.239-.094-.645-.061-.923-.01m1.965 2.777c-.635 0-1.448-.115-2.325-.528-.42-.197-.705-.52-.825-.932-.259-.899.366-1.913.438-2.026l.103-.162.187-.051c.105-.029 1.06-.274 1.751.004 2.092.836 2.31 2.905 2.319 2.993l.037.392-.372.128c-.037.012-.544.182-1.313.182" fill="#52267D"/><path d="M190.9297 127.5017s-.06-2.904-3.327-3.328c-.61-.079-1.392-.019-1.392-.019s-1.541 3.051.182 3.347c2.117.362 4.537 0 4.537 0" fill="#FFF"/><path d="M186.5361 124.6385c-.317.72-.603 1.73-.384 2.164.041.082.113.17.325.206 1.462.25 3.094.139 3.888.058-.164-.734-.75-2.127-2.827-2.397-.333-.044-.735-.038-1.002-.031m1.98 3.525c-.697 0-1.466-.042-2.208-.169-.611-.105-.908-.461-1.049-.743-.569-1.13.394-3.1.506-3.322l.126-.251.281-.021c.034-.004.843-.065 1.495.02 2.922.379 3.739 2.66 3.763 3.815l.008.439-.434.064c-.068.011-1.142.168-2.488.168" fill="#52267D"/><path d="M185.085 128.1619s-.443-2.775-2.926-1.946c-1.06.354-1.633 1.181-1.633 1.181s.552 2.109 1.541 1.845c1.728-.461 3.018-1.08 3.018-1.08" fill="#FFF"/><path d="M181.082 127.5086c.158.475.439 1.062.721 1.226.065.037.104.035.135.024 1.123-.299 2.063-.671 2.557-.882-.116-.352-.354-.872-.799-1.139-.366-.22-.815-.237-1.379-.047-.604.202-1.028.592-1.235.818m.815 2.256c-.205 0-.407-.056-.597-.167-.802-.467-1.188-1.81-1.257-2.073l-.059-.223.131-.189c.028-.04.681-.968 1.886-1.372.849-.284 1.595-.235 2.217.144 1.105.67 1.35 2.137 1.361 2.198l.059.368-.336.162c-.055.026-1.353.645-3.106 1.113-.099.026-.199.039-.299.039" fill="#52267D"/><path d="M195.1143 177.8582c-.62-.464-1.247-.731-1.787-.861" fill="#F3E3FF"/><path d="M194.8145 178.2586c-.634-.475-1.223-.684-1.604-.775l.234-.973c.678.163 1.359.491 1.97.947l-.6.801z" fill="#52267D"/><path d="M191.5137 177.8015c1.777-7.222-1.429-21.03-2.018-24.429l-2.335-13.615h-1.023c-1.296 0-2.277 1.409-2.093 2.694l1.692 11.81c.572 3.999 1.168 22.515-5.781 26.491-1.482.849-3.891.293-4.799-.14-3.303-1.579-4.252-5.696-4.976-9.015-1.498-6.87-.331-12.263.001-17.648l.348-6.737c.062-1.218-.907-2.51-2.123-2.51h-1.242l-2.236 13.616c-.672 3.878-2.403 17.322 5.52 23.626.143.113-1.927.576-1.327 1.636 2.383 4.213 9.288 4.879 10.587 6.682 5.008 6.945.318 21.741.318 21.741s5.557-2.218 9-5.303c8.046-7.212 9.067-17.658 9.104-20.733.045-3.679-.922-5.961-2.111-7.323" fill="#F3E3FF"/><path d="M179.2305 212.8592l.319-1.007c.046-.145 4.556-14.637-.246-21.298-.416-.576-1.769-1.109-3.202-1.674-2.612-1.03-5.863-2.311-7.415-5.053-.227-.402-.19-.745-.12-.964.155-.48.6-.792 1.002-1.006-7.406-6.588-5.815-19.688-5.132-23.624l2.304-14.03h1.666c.65 0 1.281.287 1.776.808.57.601.887 1.434.846 2.227l-.348 6.737c-.076 1.244-.196 2.484-.318 3.741-.409 4.205-.831 8.555.306 13.775.661 3.025 1.564 7.17 4.704 8.67.848.406 3.062.885 4.336.158 6.503-3.723 6.199-21.336 5.533-25.986l-1.692-11.81c-.118-.825.151-1.709.72-2.365.503-.581 1.166-.901 1.868-.901h1.446l2.406 14.031c.078.455.205 1.099.36 1.89 1.043 5.32 3.214 16.388 1.65 22.743l-.971-.239c1.511-6.14-.711-17.472-1.66-22.311-.158-.8-.285-1.452-.365-1.913l-2.264-13.201h-.602c-.407 0-.803.198-1.113.555-.375.434-.562 1.035-.484 1.568l1.691 11.81c.483 3.383 1.429 22.73-6.027 26.996-1.702.975-4.328.323-5.264-.123-3.581-1.711-4.545-6.132-5.248-9.359-1.172-5.373-.742-9.802-.326-14.084.121-1.246.24-2.474.316-3.701l.348-6.732c.026-.517-.194-1.087-.573-1.487-.305-.32-.678-.497-1.051-.497h-.817l-2.168 13.196c-.675 3.901-2.286 17.088 5.338 23.153l.218.174-.025.291c-.037.311-.281.423-.563.552-.218.101-.796.366-.871.602-.006.016-.019.06.039.164 1.376 2.433 4.445 3.643 6.91 4.615 1.71.674 3.06 1.206 3.647 2.02 4.377 6.07 1.666 17.624.69 21.155 1.727-.776 5.4-2.567 7.888-4.796 8.541-7.657 8.923-19.089 8.938-20.367.037-3.04-.65-5.457-1.988-6.989l.754-.658c1.523 1.745 2.275 4.322 2.234 7.658-.026 2.159-.595 13.324-9.27 21.1-3.469 3.108-8.918 5.303-9.149 5.395l-.981.391z" fill="#52267D"/><path d="M126.2002 183.826s-1.144-1.267-.501-2.967c.196-.518.902-.965.902-.965s1.783.311 1.409 1.513c-.539 1.73-1.81 2.419-1.81 2.419" fill="#FFF"/><path d="M126.707 180.4324c-.201.155-.462.397-.54.604-.343.906-.077 1.663.157 2.087.363-.308.908-.903 1.208-1.865.058-.185.019-.286-.022-.353-.142-.231-.526-.394-.803-.473zm-.614 4.021l-.264-.292c-.055-.061-1.34-1.516-.598-3.479.248-.656 1.017-1.156 1.103-1.211l.163-.102.19.033c.124.021 1.217.231 1.676.981.212.347.255.752.124 1.172-.593 1.901-1.989 2.678-2.049 2.71l-.345.188z" fill="#52267D"/><path d="M126.5781 182.0662s-.401-.444-.176-1.04c.069-.183.317-.339.317-.339s.625.109.494.53c-.19.608-.635.849-.635.849" fill="#F3E3FF"/><path d="M135.5605 192.8933s1.085-2.477-1.509-4.113c-.483-.306-1.168-.561-1.168-.561s-2.496 1.974-1.156 2.898c1.646 1.135 3.833 1.776 3.833 1.776" fill="#FFF"/><path d="M132.9756 188.7957c-.541.479-1.158 1.199-1.144 1.636.003.076.027.168.18.273 1.11.767 2.502 1.306 3.217 1.554.139-.689.156-2.046-1.443-3.056-.256-.162-.584-.311-.81-.407zm2.866 4.701l-.422-.124c-.092-.026-2.283-.677-3.976-1.845-.487-.335-.601-.763-.611-1.064-.038-1.169 1.444-2.401 1.741-2.637l.221-.174.264.098c.029.012.739.277 1.261.607 2.339 1.476 2.134 3.744 1.699 4.736l-.177.403z" fill="#52267D"/><path d="M134.6562 191.9617s.603-1.373-.836-2.281c-.268-.169-.648-.311-.648-.311s-1.384 1.095-.641 1.607c.913.63 2.125.985 2.125.985" fill="#F3E3FF"/><path d="M127.6416 184.781s-1.88 1.652-.076 3.128c.77.631 1.665.669 1.665.669s1.326-1.417.657-2.036c-1.167-1.082-2.246-1.761-2.246-1.761" fill="#FFF"/><path d="M127.7168 185.4363c-.2.252-.442.646-.434 1.066.008.363.205.697.599 1.02.414.339.879.473 1.147.524.266-.332.557-.798.547-1.062-.75-.728-1.458-1.264-1.859-1.548zm1.722 3.651l-.23-.009c-.043-.002-1.071-.054-1.96-.783-.629-.514-.954-1.112-.966-1.779-.02-1.175.986-2.073 1.029-2.111l.28-.246.316.199c.045.028 1.132.716 2.32 1.817.217.2.337.468.347.773.031.847-.81 1.791-.979 1.971l-.157.168z" fill="#52267D"/><path d="M127.916 185.9519s-.833.731-.034 1.386c.341.279.737.296.737.296s.588-.628.291-.903c-.516-.479-.994-.779-.994-.779" fill="#F3E3FF"/><path d="M144.582 194.1961s.619-2.205-1.807-3.08-3.078-.148-3.078-.148-1.343 2.26-.143 2.987c1.2.727 5.028.241 5.028.241" fill="#FFF"/><path d="M140.0811 191.3054c-.266.485-.87 1.857-.269 2.222.705.426 2.894.367 4.34.215.045-.549-.073-1.625-1.547-2.156-1.7-.615-2.368-.366-2.524-.281m1.995 3.551c-1.058 0-2.171-.104-2.781-.474-1.281-.776-.62-2.672-.027-3.67.203-.242 1.066-1.007 3.677-.067 2.265.817 2.376 2.768 2.118 3.685l-.089.32-.329.042c-.219.027-1.357.164-2.569.164" fill="#52267D"/><path d="M143.4434 193.6951s.322-1.146-.939-1.602c-1.262-.455-1.602-.076-1.602-.076s-.697 1.175-.074 1.553c.624.378 2.615.125 2.615.125" fill="#F3E3FF"/><path d="M187.6914 143.0779s-3.874 2.19-9.319.213c.374 1.689 1.135 5.084 1.135 5.084s5.045 1.547 8.936-.901c-.398-2.241-.752-4.396-.752-4.396" fill="#FFF"/><path d="M179.9297 147.9695c1.045.258 4.865 1.012 7.961-.748-.241-1.369-.46-2.667-.585-3.413-1.259.516-4.292 1.413-8.255.233.312 1.401.721 3.224.879 3.928m3.215 1.394c-2.077 0-3.665-.474-3.783-.51l-.278-.086-.064-.283s-.762-3.396-1.136-5.085l-.196-.889.855.311c5.142 1.865 8.866-.16 8.904-.179l.622-.349.116.703c0 .001.353 2.153.751 4.389l.058.332-.284.179c-1.821 1.146-3.858 1.467-5.565 1.467" fill="#52267D"/><path d="M158.7119 133.2371s.176-1.857 2.021-2.596c.564-.225 2.084-.286 2.084-.286s.427 1.967-.818 2.554c-1.793.844-3.287.328-3.287.328" fill="#FFF"/><path d="M159.3076 132.8572c.517.071 1.436.09 2.479-.4.579-.274.625-1.076.593-1.576-.54.04-1.192.117-1.461.224-1.034.414-1.449 1.244-1.611 1.752m.562 1.036c-.774 0-1.283-.171-1.321-.183l-.372-.128.037-.392c.009-.089.229-2.171 2.334-3.013.625-.251 2.085-.315 2.25-.322l.419-.017.089.411c.022.096.493 2.364-1.094 3.112-.883.416-1.703.532-2.342.532" fill="#52267D"/><path d="M163.3945 132.2879s.053-2.53 2.9-2.899c.531-.07 1.213-.017 1.213-.017s1.343 2.659-.158 2.916c-1.846.316-3.955 0-3.955 0" fill="#FFF"/><path d="M163.9619 131.8504c.713.069 2.08.153 3.303-.056.179-.03.217-.104.237-.144.176-.35-.061-1.192-.32-1.794-.228-.008-.552-.008-.823.028-1.722.223-2.241 1.331-2.397 1.966m1.536 1.079c-1.179 0-2.119-.139-2.178-.147l-.434-.065.009-.44c.021-1.024.746-3.049 3.336-3.385.575-.075 1.285-.022 1.315-.019l.281.022.127.251c.161.319.941 1.962.441 2.954-.13.258-.403.585-.961.681-.65.111-1.325.148-1.936.148" fill="#52267D"/><path d="M168.7881 132.4715s.446-2.796 2.947-1.961c1.07.357 1.647 1.19 1.647 1.19s-.557 2.125-1.554 1.859c-1.74-.464-3.04-1.088-3.04-1.088" fill="#FFF"/><path d="M169.3779 132.1863c.496.212 1.445.588 2.579.89.032.009.071.014.14-.026.285-.165.57-.759.729-1.237-.208-.229-.637-.624-1.249-.828-.568-.192-1.024-.174-1.391.048-.451.271-.691.798-.808 1.153m2.621 1.896c-.1 0-.2-.013-.3-.04-1.765-.47-3.072-1.094-3.128-1.12l-.336-.162.059-.368c.011-.062.258-1.538 1.369-2.212.63-.381 1.38-.427 2.231-.144 1.213.406 1.872 1.34 1.899 1.379l.131.19-.059.223c-.069.265-.458 1.617-1.264 2.087-.192.111-.396.167-.602.167" fill="#52267D"/><path d="M194.4521 127.7263s-.099-1.042-1.134-1.456c-.316-.127-.81.008-.81.008s-.599.934.1 1.263c1.006.474 1.844.185 1.844.185M190.0156 127.114s-.04-1.907-2.187-2.186c-.4-.052-.914-.012-.914-.012s-1.011 2.005.12 2.198c1.391.238 2.981 0 2.981 0M184.2842 127.989s-.282-1.767-1.861-1.238c-.675.225-1.04.752-1.04.752s.351 1.341.981 1.173c1.099-.292 1.92-.687 1.92-.687M159.5088 132.8445s.099-1.035 1.127-1.446c.313-.126 1.161-.159 1.161-.159s.238 1.095-.456 1.422c-.999.47-1.832.183-1.832.183M164.376 131.9197s.03-1.467 1.68-1.681c.307-.039.703-.008.703-.008s.778 1.54-.092 1.689c-1.069.184-2.291 0-2.291 0M169.5732 132.3621s.265-1.654 1.744-1.16c.632.211.974.704.974.704s-.329 1.257-.919 1.1c-1.029-.275-1.799-.644-1.799-.644" fill="#F3E3FF"/><path d="M176.1162 147.8738s-4.796.748-9.357-.371c-.445 2.478-.73 4.35-.73 4.35s3.163 2.148 9.008.902c.689-3.183 1.079-4.881 1.079-4.881" fill="#FFF"/><path d="M166.5762 151.5896c.837.436 3.614 1.604 8.041.74.398-1.831.688-3.136.854-3.871-1.456.157-4.875.39-8.312-.35-.284 1.607-.491 2.897-.583 3.481m4.916 2.056c-3.658 0-5.639-1.308-5.744-1.379l-.261-.178.048-.312s.286-1.876.731-4.362l.094-.524.518.127c4.408 1.082 9.115.37 9.161.362l.729-.113-.165.719c0 .001-.389 1.698-1.078 4.875l-.068.316-.316.067c-1.357.289-2.575.402-3.649.402" fill="#52267D"/><path d="M169.3848 143.0564h-6.646v-2.864c0-1.161.94-2.102 2.101-2.102h4.545c.708 0 1.282.574 1.282 1.282v2.402c0 .708-.574 1.282-1.282 1.282" fill="#F3E3FF"/><path d="M168.6689 142.9636h-5.837v-1.887c0-1.113.902-2.015 2.015-2.015h3.822c.556 0 1.007.451 1.007 1.007v1.887c0 .557-.451 1.008-1.007 1.008" fill="#FFF"/><path d="M163.332 142.4636h5.337c.279 0 .507-.228.507-.508v-1.887c0-.28-.228-.507-.507-.507h-3.822c-.835 0-1.515.679-1.515 1.515v1.387zm5.337 1h-6.337v-2.387c0-1.386 1.128-2.515 2.515-2.515h3.822c.831 0 1.507.676 1.507 1.507v1.887c0 .831-.676 1.508-1.507 1.508z" fill="#52267D"/><path d="M163.7178 141.8074c0 .602.488 1.09 1.09 1.09.601 0 1.09-.488 1.09-1.09 0-.602-.489-1.09-1.09-1.09-.602 0-1.09.488-1.09 1.09" fill="#52267D"/><path d="M187.0264 138.3484h5.445c0-2.743-2.223-4.966-4.966-4.966h-.479c-1.371 0-2.482 1.112-2.482 2.483 0 1.372 1.111 2.483 2.482 2.483" fill="#F3E3FF"/><path d="M187.4854 138.2547h4.893c0-2.154-1.747-3.901-3.902-3.901h-.991c-1.078 0-1.951.874-1.951 1.951s.874 1.95 1.951 1.95" fill="#FFF"/><path d="M187.4854 134.8533c-.8 0-1.451.651-1.451 1.451s.651 1.45 1.451 1.45h4.355c-.242-1.639-1.658-2.901-3.364-2.901h-.991zm5.393 3.901h-5.393c-1.352 0-2.451-1.099-2.451-2.45 0-1.351 1.099-2.451 2.451-2.451h.991c2.427 0 4.402 1.975 4.402 4.401v.5z" fill="#52267D"/><path d="M191.4922 137.0994c0 .602-.488 1.089-1.09 1.089-.601 0-1.09-.487-1.09-1.089 0-.603.489-1.09 1.09-1.09.602 0 1.09.487 1.09 1.09M156.1777 144.1902c.31-.066.587-.238.784-.486l.365-.46-.813.175-.48.102c-.184.04-.301.222-.262.406.04.185.221.302.406.263M198.1836 139.0935c-.31-.066-.587-.238-.784-.486l-.364-.459.812.174.48.103c.184.039.301.221.262.405-.04.185-.221.303-.406.263" fill="#52267D"/><path d="M187.2266 143.7849s-4.059 1.729-8.152.149c.428 2.402.811 3.627.811 3.627s2.463.145 4.094-.176c2.329-.458 3.247-1.518 3.247-3.6" fill="#EAF3FB"/><path d="M181.5791 146.864s3.693.308 6.553-1.175" fill="#FFF"/><path d="M182.4385 147.3924c-.522 0-.856-.026-.9-.03l.082-.996c.037.003 3.588.275 6.281-1.121l.461.888c-2.111 1.094-4.612 1.259-5.924 1.259" fill="#52267D"/><path d="M168.5156 148.4158s3.601 1.023 6.776.388c-.599 2.364-.918 3.105-.918 3.105s-4.763-.635-5.858-3.493" fill="#EAF3FB"/><path d="M170.4482 181.9939s.218.157.526.344" fill="#F3E3FF"/><path d="M170.8457 182.5515c-.319-.192-.544-.354-.544-.354l.293-.407c.003.003.213.155.509.333l-.258.428z" fill="#52267D"/><path d="M168.1689 149.7761s3.623.687 7.471.229" fill="#FFF"/><path d="M172.8301 150.6638c-2.624 0-4.642-.375-4.754-.396l.186-.983c.036.006 3.596.665 7.318.224l.119.992c-.993.119-1.968.163-2.869.163" fill="#52267D"/><path d="M174.1074 224.3269s.961-.783 2.238.266c1.168.959 2.046 2.44 1.523 2.589-.524.149-1.445.294-2.411.117-.842-.155-1.585.007-1.923-1.753-.157-.821.573-1.219.573-1.219" fill="#FFF"/><path d="M174.2275 224.5457c-.029.018-.567.331-.448.953.26 1.35.706 1.41 1.382 1.502.111.016.225.03.34.052 1.073.198 2.03-.035 2.298-.111.049-.202-.581-1.309-1.612-2.156-1.109-.911-1.914-.27-1.922-.265l-.038.025zm2.147 3.084c-.3 0-.626-.023-.962-.085-.109-.02-.215-.034-.319-.049-.726-.097-1.478-.2-1.804-1.903-.15-.778.374-1.301.683-1.477.17-.121 1.228-.789 2.531.284.935.766 1.885 2.051 1.757 2.67-.037.176-.154.305-.324.353-.21.06-.807.207-1.562.207z" fill="#52267D"/><path d="M174.3262 224.6121s.599-.487 1.394.166c.725.597 1.272 1.519.946 1.611-.325.093-.899.183-1.5.073-.524-.097-.986.004-1.196-1.091-.098-.511.356-.759.356-.759" fill="#EAF3FB"/><path d="M172.7432 224.3094c-.508-.068-1.239 1.035-1.155 1.371.083.337.141 1.447.963 1.567.605.089 2.764.314 3.236-.155.435-.432-.416-2.43-3.044-2.783" fill="#FFF"/><path d="M172.6973 224.5564c-.066 0-.194.056-.361.219-.318.308-.517.735-.505.849.012.05.025.121.04.204.094.531.234 1.102.716 1.172 1.073.157 2.72.215 3.024-.086.03-.03.066-.18-.023-.446-.2-.594-1.031-1.663-2.878-1.911-.004-.001-.009-.001-.013-.001m1.614 3.076c-.818 0-1.64-.114-1.797-.138-.879-.127-1.052-1.108-1.135-1.579-.013-.07-.023-.13-.035-.175-.087-.352.271-.916.533-1.209.216-.242.546-.512.899-.47 1.83.246 2.969 1.306 3.286 2.247.138.411.102.761-.098.961-.285.283-.967.363-1.653.363" fill="#52267D"/><path d="M172.6006 224.615c-.3-.04-.73.61-.682.81.05.198.084.853.569.924.357.052 1.632.185 1.91-.091.256-.256-.246-1.435-1.797-1.643" fill="#EAF3FB"/><path d="M170.5947 224.5242s.438-.229 1.307.268c.767.439 1.913 1.14 1.611 2.012-.301.872-2.726.548-3.265.364-.539-.185-.877-.772-.782-1.286.208-1.12 1.129-1.358 1.129-1.358" fill="#FFF"/><path d="M170.6592 224.7654c-.031.009-.772.222-.947 1.163-.074.403.208.862.617 1.003.631.215 2.74.391 2.947-.208.218-.63-.636-1.221-1.499-1.715-.718-.411-1.069-.261-1.074-.259l-.044.016zm1.274 2.872c-.758 0-1.516-.147-1.766-.233-.641-.22-1.066-.922-.947-1.567.217-1.173 1.126-1.499 1.289-1.549.131-.056.647-.211 1.516.287.684.391 2.107 1.205 1.724 2.311-.202.584-1.009.751-1.816.751z" fill="#52267D"/><path d="M170.4297 224.8328s.26-.136.774.159c.455.26 1.133.675.955 1.192-.179.516-1.615.324-1.934.214-.319-.109-.52-.456-.463-.76.123-.663.668-.805.668-.805" fill="#EAF3FB"/><path d="M180.7324 196.7107s-.494 5.617.935 14.447c1.329 8.22 3.686 10.799 3.513 12.93-.135 1.65-.831 3.162-2.487 3.162h-4.94c-2.307 0-4.341-1.473-5.083-3.657-.597-1.759-1.218-4.153-1.589-7.178-.38-4.116-.298-8.245-.23-10.669" fill="#9452BA"/><path d="M182.6934 228.2498h-4.94c-2.727 0-5.15-1.742-6.03-4.336-.758-2.232-1.308-4.714-1.634-7.377-.369-3.984-.321-7.873-.238-10.819l2 .056c-.082 2.89-.13 6.701.226 10.549.306 2.497.826 4.845 1.541 6.948.604 1.782 2.265 2.979 4.135 2.979h4.94c1.081 0 1.407-1.22 1.49-2.243.055-.674-.287-1.559-.805-2.899-.763-1.969-1.915-4.946-2.699-9.791-1.431-8.85-.964-14.46-.943-14.694l1.992.175c-.005.056-.463 5.618.926 14.2.75 4.638 1.812 7.384 2.588 9.389.597 1.539 1.027 2.652.935 3.782-.209 2.556-1.511 4.081-3.484 4.081" fill="#52267D"/><path d="M155.4004 200.4275c1.637 1.408 2.485 3.715 2.473 5.835-.018 2.829-1.66 6.432-.619 11.135.927 4.188 2.773 4.927 2.217 8.685-.1.679-.71 1.167-1.395 1.167h-5.506c-2.533 0-4.703-1.837-5.117-4.337-1.107-6.674-.262-12.975.628-17.81" fill="#9452BA"/><path d="M158.0762 228.2498h-5.506c-3.04 0-5.607-2.176-6.103-5.174-1.139-6.866-.261-13.308.63-18.154l1.967.361c-.862 4.686-1.712 10.906-.625 17.467.336 2.028 2.074 3.5 4.131 3.5h5.506c.202 0 .38-.138.406-.313.291-1.969-.144-2.918-.802-4.354-.451-.979-1.01-2.199-1.402-3.97-.731-3.304-.215-6.114.2-8.372.209-1.134.389-2.113.395-2.984.012-1.99-.803-3.934-2.125-5.071l1.305-1.516c1.754 1.51 2.835 4.038 2.82 6.599-.007 1.048-.211 2.159-.427 3.335-.403 2.188-.859 4.667-.215 7.578.346 1.562.834 2.627 1.266 3.567.72 1.569 1.342 2.924.964 5.48-.171 1.153-1.197 2.021-2.385 2.021" fill="#52267D"/><path fill="#52267D" d="M154.0957 207.6941l-1.787-1.141 1.741-.391.416.299-.293.406-.232-.168-.351.079.537.344.921-.454-1.04-.831-.532.178-.158-.474.79-.265 1.866 1.493"/><path d="M184.1016 224.3269s.961-.783 2.238.266c1.167.959 2.045 2.44 1.523 2.589-.524.149-1.445.294-2.411.117-.842-.155-1.585.007-1.923-1.753-.157-.821.573-1.219.573-1.219" fill="#FFF"/><path d="M184.3447 224.7635c-.072.043-.406.265-.325.688.224 1.173.541 1.216 1.169 1.301.115.016.233.032.352.054.8.148 1.528.045 1.929-.042-.156-.387-.689-1.163-1.447-1.785-.949-.781-1.598-.269-1.606-.265l-.072.049zm2.034 3.118c-.316 0-.66-.025-1.018-.091-.104-.019-.206-.033-.306-.047-.906-.123-1.684-.365-2.018-2.104-.171-.899.395-1.498.786-1.729.466-.353 1.605-.714 2.835.295.842.694 2.011 2.099 1.841 2.915-.055.266-.242.469-.499.542-.277.08-.875.219-1.621.219z" fill="#52267D"/><path d="M184.3203 224.6121s.598-.487 1.394.166c.725.597 1.272 1.519.946 1.611-.325.093-.899.183-1.5.073-.524-.097-.986.004-1.196-1.091-.098-.511.356-.759.356-.759" fill="#EAF3FB"/><path fill="#52267D" d="M176.1289 212.6111l-1.222-1.413 1.568-.87 1.48.43-.901 1.002-.371-.334.368-.41-.516-.149-.846.47.655.756 1.689-.123.202-1.413-1.764-.55.148-.477 2.171.676-.319 2.233"/><g fill="#F3E3FF"><path d="M218.1787 150.3972c-.364 0-.661-.297-.661-.661h.25c0 .226.184.411.411.411.227 0 .411-.185.411-.411h.25c0 .364-.297.661-.661.661"/><path d="M219.25 150.3972c-.364 0-.66-.297-.66-.661h.25c0 .226.183.411.41.411.227 0 .411-.185.411-.411h.25c0 .364-.297.661-.661.661"/><path d="M218.7148 150.9334c-.364 0-.661-.297-.661-.661h.25c0 .226.184.411.411.411.227 0 .41-.185.41-.411h.25c0 .364-.296.661-.66.661M197.7686 149.4783c-.069 0-.14-.008-.209-.023-.238-.056-.44-.202-.569-.409-.129-.208-.169-.453-.114-.69.056-.238.201-.44.409-.569l.13.212c-.15.093-.255.241-.295.414-.04.172-.011.35.083.501.192.312.605.408.915.213l.132.213c-.147.091-.313.138-.482.138"/><path d="M197.5156 150.5662c-.07 0-.141-.008-.21-.024-.238-.056-.439-.201-.569-.408-.129-.208-.169-.453-.114-.691.056-.237.201-.439.408-.569l.132.213c-.311.193-.408.604-.213.915.093.151.24.256.413.296.173.04.35.012.501-.083l.132.213c-.146.091-.312.138-.48.138M172.0381 168.0779c-.465 0-.844-.379-.844-.844h.25c0 .327.267.594.594.594.327 0 .594-.267.594-.594h.25c0 .465-.379.844-.844.844"/><path d="M173.4756 168.0779c-.465 0-.844-.379-.844-.844h.25c0 .327.267.594.594.594.327 0 .594-.267.594-.594h.25c0 .465-.379.844-.844.844"/><path d="M172.7568 168.7967c-.465 0-.844-.379-.844-.844h.25c0 .327.267.594.594.594.327 0 .594-.267.594-.594h.25c0 .465-.379.844-.844.844M193.502 213.6092c-.465 0-.843-.378-.843-.843h.25c0 .327.266.593.593.593.327 0 .594-.266.594-.593h.25c0 .465-.379.843-.844.843"/><path d="M194.9395 213.6092c-.465 0-.844-.378-.844-.843h.25c0 .327.267.593.594.593.327 0 .594-.266.594-.593h.25c0 .465-.379.843-.844.843"/><path d="M194.2207 214.3279c-.465 0-.844-.379-.844-.844h.25c0 .327.267.594.594.594.327 0 .594-.267.594-.594h.25c0 .465-.379.844-.844.844M173.0811 145.2449c-.505 0-.915-.41-.915-.915h.25c0 .367.298.665.665.665.366 0 .664-.298.664-.665h.25c0 .505-.41.915-.914.915"/><path d="M173.8701 146.034c-.504 0-.914-.41-.914-.914h.25c0 .366.298.664.664.664.367 0 .665-.298.665-.664h.25c0 .504-.41.914-.915.914M183.0049 159.3611c-.599 0-1.085-.486-1.085-1.084h.25c0 .46.375.834.835.834.46 0 .834-.374.834-.834h.25c0 .598-.486 1.084-1.084 1.084"/><path d="M183.9639 160.3211c-.598 0-1.084-.486-1.084-1.085h.25c0 .46.374.835.834.835.46 0 .835-.375.835-.835h.25c0 .599-.486 1.085-1.085 1.085M197.2598 135.1863c-.423 0-.767-.344-.767-.767h.25c0 .286.232.517.517.517.285 0 .517-.231.517-.517h.25c0 .423-.344.767-.767.767"/><path d="M197.9014 135.8289c-.423 0-.767-.345-.767-.768h.25c0 .286.232.518.517.518.285 0 .518-.232.518-.518h.25c0 .423-.345.768-.768.768M136.9326 199.5095c-.197 0-.396-.066-.558-.203-.175-.15-.283-.359-.301-.589-.02-.229.052-.453.201-.63l.191.162c-.106.125-.157.284-.143.448.012.164.089.312.214.417.258.22.647.186.867-.071l.189.162c-.171.201-.415.304-.66.304"/><path d="M137.0186 200.5515c-.204 0-.399-.071-.558-.204-.362-.309-.407-.855-.1-1.218l.191.162c-.219.258-.186.646.071.864.124.106.284.16.448.144.164-.013.312-.09.418-.215l.191.162c-.149.176-.358.284-.589.302-.023.002-.048.003-.072.003M166.0771 189.5554c-.141 0-.28-.029-.411-.089-.497-.227-.717-.817-.49-1.314l.227.103c-.17.372-.005.814.366.984.37.165.813.005.984-.368l.226.104c-.109.241-.306.425-.554.518-.114.041-.231.062-.348.062"/><path d="M167.6543 190.2752c-.14 0-.28-.03-.411-.091-.497-.225-.717-.814-.49-1.312l.227.103c-.083.181-.09.382-.02.568.069.185.207.333.386.414.183.084.384.09.568.02.185-.069.333-.206.416-.387l.226.104c-.109.241-.306.425-.554.518-.114.042-.231.063-.348.063"/><path d="M166.5059 190.7039c-.14 0-.279-.029-.41-.089-.497-.227-.718-.817-.491-1.314l.227.103c-.17.372-.005.813.367.984.18.081.382.087.568.019.185-.07.332-.207.415-.388l.226.104c-.109.241-.306.425-.553.518-.114.042-.232.063-.349.063"/><path d="M168.083 191.4226c-.138 0-.277-.028-.41-.09-.241-.109-.425-.306-.518-.555-.093-.248-.084-.517.026-.758l.228.103c-.083.181-.09.382-.019.568.069.185.206.334.386.416.373.168.813.004.984-.368l.226.104c-.166.364-.527.58-.903.58M165.3564 191.1326c-.137 0-.276-.029-.409-.089-.241-.11-.425-.307-.518-.556-.093-.248-.084-.517.027-.758l.227.103c-.083.181-.09.382-.019.568.069.185.206.334.386.416.372.169.814.004.984-.368l.226.104c-.166.364-.527.58-.904.58M181.0859 141.907c-.552 0-1-.448-1-1h.25c0 .413.337.75.75.75s.749-.337.749-.75h.25c0 .552-.448 1-.999 1M181.3887 174.9588c-.552 0-1-.448-1-.999h.25c0 .413.337.749.75.749s.749-.336.749-.749h.25c0 .551-.448.999-.999.999M171.6885 156.5281c-.435 0-.788-.354-.788-.788h.25c0 .297.241.538.538.538.296 0 .537-.241.537-.538h.25c0 .434-.353.788-.787.788M156.0742 141.3045c-.343 0-.622-.279-.622-.622h.25c0 .205.167.372.372.372.206 0 .373-.167.373-.372h.25c0 .343-.279.622-.623.622M151.5742 214.6336c-.057 0-.114-.005-.172-.015-.543-.094-.908-.613-.813-1.156l.246.043c-.071.407.203.796.61.867.408.076.796-.203.867-.61l.246.043c-.085.485-.507.828-.984.828M175.6367 221.3103c-.598 0-1.084-.486-1.084-1.084h.25c0 .46.374.834.834.834.46 0 .835-.374.835-.834h.25c0 .598-.486 1.084-1.085 1.084"/><path d="M176.5967 222.2703c-.599 0-1.085-.486-1.085-1.085h.25c0 .46.375.835.835.835.46 0 .834-.375.834-.835h.25c0 .599-.486 1.085-1.084 1.085"/></g><path d="M182.7373 224.3094c-.508-.068-1.239 1.035-1.155 1.371.083.337.141 1.447.963 1.567.605.089 2.764.314 3.236-.155.435-.432-.416-2.43-3.044-2.783" fill="#FFF"/><path d="M182.076 225.6295c.008 0 .021.072.035.156.079.444.189.921.506.967 1.202.177 2.573.168 2.818-.019h-.001c-.031 0-.071-.255-.292-.583-.226-.334-.914-1.128-2.445-1.342-.204.069-.596.613-.622.823 0-.001.001-.002.001-.002zm2.203 2.256c-.735 0-1.467-.093-1.806-.143-1.059-.155-1.26-1.295-1.346-1.783-.011-.064-.021-.119-.03-.16-.12-.478.313-1.128.588-1.434.367-.411.756-.611 1.119-.551 2.068.277 3.173 1.473 3.489 2.415.17.504.112.948-.159 1.218-.343.34-1.101.438-1.855.438z" fill="#52267D"/><path d="M182.5947 224.615c-.3-.04-.731.61-.682.81.049.198.083.853.569.924.357.052 1.632.185 1.909-.091.257-.256-.245-1.435-1.796-1.643" fill="#EAF3FB"/><path d="M180.9326 224.8523s.389-.202 1.156.237c.679.388 1.692 1.008 1.425 1.78-.267.771-2.41.484-2.887.321-.476-.163-.776-.682-.691-1.137.184-.99.997-1.201.997-1.201" fill="#FFF"/><path d="M181.0586 225.3367c-.079.025-.518.192-.632.808-.037.2.111.486.362.573.551.188 2.067.248 2.255-.018.141-.409-.871-.986-1.203-1.176-.481-.276-.714-.21-.717-.21l-.049.026-.016-.003zm1.057 2.542c-.754 0-1.481-.157-1.651-.216-.705-.241-1.154-.988-1.02-1.701.184-.997.901-1.457 1.324-1.583.198-.077.741-.197 1.568.277.618.353 2.064 1.178 1.65 2.376-.231.668-1.068.847-1.871.847z" fill="#52267D"/><path d="M180.7871 225.1258s.229-.12.685.14c.402.23 1.002.597.843 1.054-.157.456-1.426.286-1.71.19-.282-.097-.459-.404-.409-.673.109-.586.591-.711.591-.711" fill="#EAF3FB"/><path d="M201.2119 225.0662s.388-.202 1.155.237c.679.388 1.693 1.008 1.426 1.78-.267.771-2.411.484-2.888.321-.476-.163-.775-.682-.691-1.137.184-.99.998-1.201.998-1.201" fill="#FFF"/><path d="M201.3379 225.5506c-.079.025-.519.192-.633.808-.036.199.111.486.362.573.552.188 2.068.249 2.256-.019.141-.407-.871-.985-1.204-1.175-.483-.277-.714-.21-.715-.21l-.05.026-.016-.003zm1.057 2.542c-.755 0-1.482-.157-1.652-.216-.704-.24-1.152-.987-1.021-1.7.185-.998.903-1.458 1.326-1.584.199-.076.739-.197 1.567.277.618.353 2.065 1.179 1.651 2.376-.231.668-1.068.847-1.871.847z" fill="#52267D"/><path d="M201.0654 225.3396s.23-.12.685.14c.402.23 1.002.597.843 1.054-.157.456-1.426.286-1.709.19-.282-.097-.46-.404-.41-.673.11-.586.591-.711.591-.711" fill="#EAF3FB"/><path d="M198.8662 224.5232c-.508-.068-1.239 1.035-1.155 1.371.083.337.141 1.447.963 1.567.605.089 2.764.314 3.236-.155.435-.432-.416-2.43-3.044-2.783" fill="#FFF"/><path d="M198.2049 225.8433c.008 0 .021.072.035.156.079.444.189.921.506.967 1.202.177 2.573.168 2.818-.019h-.001c-.031 0-.071-.255-.292-.583-.226-.334-.914-1.128-2.445-1.342-.204.069-.596.613-.622.823 0-.001.001-.002.001-.002zm2.203 2.256c-.735 0-1.467-.093-1.806-.143-1.059-.155-1.26-1.295-1.346-1.783-.011-.064-.021-.119-.03-.16-.12-.478.313-1.128.588-1.434.366-.411.756-.607 1.119-.551 2.068.277 3.173 1.473 3.489 2.415.17.504.112.948-.159 1.218-.343.34-1.101.438-1.855.438z" fill="#52267D"/><path d="M198.7236 224.8289c-.3-.04-.731.61-.682.81.049.198.083.853.569.924.357.052 1.632.185 1.909-.091.257-.256-.245-1.435-1.796-1.643" fill="#EAF3FB"/><path d="M157.3711 224.3269s.962-.783 2.239.266c1.167.959 2.045 2.44 1.523 2.589-.524.149-1.445.294-2.412.117-.841-.155-1.584.007-1.922-1.753-.157-.821.572-1.219.572-1.219" fill="#FFF"/><path d="M157.4922 224.5457c-.026.015-.567.329-.448.953.26 1.35.706 1.41 1.381 1.502.111.016.225.03.34.052 1.079.2 2.033-.035 2.299-.111.048-.201-.582-1.309-1.613-2.156-1.107-.912-1.915-.27-1.922-.264l-.037.024zm2.147 3.084c-.3 0-.626-.023-.963-.085-.109-.02-.214-.034-.319-.049-.726-.097-1.477-.2-1.803-1.903-.15-.778.373-1.301.682-1.477.169-.121 1.23-.789 2.532.284.934.767 1.885 2.052 1.756 2.67-.036.176-.154.305-.323.353-.21.06-.807.207-1.562.207z" fill="#52267D"/><path d="M157.5908 224.6121s.598-.487 1.393.166c.726.597 1.273 1.519.947 1.611-.325.093-.899.183-1.5.073-.524-.097-.986.004-1.196-1.091-.099-.511.356-.759.356-.759" fill="#EAF3FB"/><path d="M156.0078 224.3094c-.508-.068-1.239 1.035-1.155 1.371.083.337.14 1.447.962 1.567.606.089 2.765.314 3.237-.155.435-.432-.417-2.43-3.044-2.783" fill="#FFF"/><path d="M155.9619 224.5564c-.066 0-.194.056-.361.219-.318.308-.517.735-.505.849.012.05.025.121.04.205.094.53.233 1.101.715 1.171 1.073.157 2.72.216 3.025-.086.03-.03.066-.18-.023-.446-.2-.593-1.031-1.663-2.878-1.911-.004-.001-.009-.001-.013-.001m1.613 3.076c-.818 0-1.64-.114-1.797-.138-.879-.127-1.051-1.107-1.134-1.578-.013-.07-.023-.131-.035-.176-.087-.352.271-.916.533-1.209.216-.242.549-.512.899-.47 1.829.246 2.969 1.306 3.286 2.248.138.41.102.761-.098.96-.285.283-.968.363-1.654.363" fill="#52267D"/><path d="M155.8652 224.615c-.3-.04-.731.61-.682.81.049.198.083.853.569.924.356.052 1.631.185 1.909-.091.257-.256-.245-1.435-1.796-1.643" fill="#EAF3FB"/><path d="M154.2031 224.8523s.388-.202 1.156.237c.679.388 1.692 1.008 1.425 1.78-.267.771-2.41.484-2.887.321-.476-.163-.776-.682-.692-1.137.184-.99.998-1.201.998-1.201" fill="#FFF"/><path d="M154.2676 225.0935c-.027.008-.666.193-.816 1.006-.064.344.177.734.527.854.534.184 2.395.339 2.569-.167.186-.537-.559-1.049-1.312-1.48-.614-.352-.922-.229-.925-.229l-.043.016zm1.112 2.539c-.674 0-1.341-.13-1.563-.206-.58-.198-.965-.835-.858-1.418.196-1.05 1.008-1.346 1.159-1.392.127-.05.591-.187 1.366.256.611.349 1.884 1.075 1.537 2.078-.184.531-.915.682-1.641.682z" fill="#52267D"/><path d="M154.0576 225.1258s.229-.12.685.14c.401.23 1.002.597.843 1.054-.158.456-1.427.286-1.71.19-.282-.097-.459-.404-.409-.673.109-.586.591-.711.591-.711" fill="#EAF3FB"/><path d="M192.1973 224.9988c-.159-.135-.349-.172-.506-.099-.583.276-2.057 1.059-1.752 2.117.237.825.74.577 1.703.594l.727.014c.15.003.283-.075.366-.213.418-.698.192-1.797-.488-2.371l-.05-.042z" fill="#FFF"/><path d="M191.8457 225.3621c-.338.178-1.62.843-1.426 1.516.077.271.075.27.647.246.175-.008.372-.018.585-.013l.727.014c.221-.46.039-1.286-.454-1.702l-.051-.042c-.017-.016-.028-.019-.028-.019m-1.044 2.77c-.532 0-1.097-.119-1.343-.978-.287-.994.431-1.956 2.019-2.706.337-.156.733-.091 1.043.169l.049.042c.863.727 1.135 2.106.594 3.01-.175.292-.492.452-.804.456l-.727-.014c-.19-.005-.365.005-.521.012-.1.004-.204.009-.31.009" fill="#52267D"/><path d="M192.1221 225.2351c-.115-.098-.254-.125-.367-.07-.424.199-1.495.768-1.274 1.537.172.599.538.419 1.238.431l.528.01c.109.003.206-.054.266-.154.303-.508.139-1.306-.355-1.723l-.036-.031z" fill="#EAF3FB"/><path d="M195.6064 224.6824s.892-.862 2.253.074c1.245.857 2.245 2.258 1.736 2.451-.509.193-1.413.415-2.392.321-.851-.082-1.578.142-2.065-1.583-.225-.804.468-1.263.468-1.263" fill="#FFF"/><path d="M195.8857 225.0965c-.068.049-.382.299-.266.714.325 1.149.642 1.165 1.276 1.196.116.006.234.012.355.024.806.081 1.525-.086 1.918-.205-.187-.373-.785-1.101-1.593-1.657-1.014-.698-1.615-.133-1.622-.127l-.068.055zm1.798 2.954c-.171 0-.348-.007-.528-.024-.106-.011-.208-.016-.309-.021-.914-.045-1.709-.221-2.19-1.925-.247-.881.267-1.526.636-1.789.436-.39 1.542-.845 2.85.053.898.618 2.182 1.919 2.083 2.748-.033.27-.202.487-.452.583-.326.123-1.114.375-2.09.375z" fill="#52267D"/><path d="M195.8486 224.948s.555-.536 1.402.047c.775.532 1.398 1.404 1.08 1.524-.316.12-.878.259-1.488.2-.53-.051-.982.088-1.285-.985-.141-.501.291-.786.291-.786" fill="#EAF3FB"/><path d="M198.1426 227.6238h-110.52c-1.246 0-2.254-1.01-2.254-2.255V63.0858c0-1.245 1.008-2.255 2.254-2.255h110.52c1.245 0 2.255 1.01 2.255 2.255v162.283c0 1.245-1.01 2.255-2.255 2.255" fill="#FFF"/><path d="M87.623 61.8308c-.692 0-1.255.562-1.255 1.255v162.283c0 .692.563 1.255 1.255 1.255h110.52c.692 0 1.254-.563 1.254-1.255V63.0858c0-.693-.562-1.255-1.254-1.255H87.623zm110.52 166.793H87.623c-1.795 0-3.255-1.46-3.255-3.255V63.0858c0-1.795 1.46-3.255 3.255-3.255h110.52c1.794 0 3.254 1.46 3.254 3.255v162.283c0 1.795-1.46 3.255-3.254 3.255z" fill="#9ACDED"/><path fill="#E1F2FF" d="M94.4512 208.4558l99.163 6.901V74.5048l-100.313-4.602"/><path d="M161.7402 113.4168c0 12.214-9.901 22.115-22.115 22.115-12.214 0-22.115-9.901-22.115-22.115 0-12.214 9.901-22.115 22.115-22.115 12.214 0 22.115 9.901 22.115 22.115" fill="#FFF"/><path d="M164.4229 108.9461c0 12.214-9.901 22.115-22.115 22.115-12.214 0-22.115-9.901-22.115-22.115 0-12.214 9.901-22.115 22.115-22.115 12.214 0 22.115 9.901 22.115 22.115" fill="#FFF"/><path d="M142.3076 87.8308c-11.643 0-21.115 9.473-21.115 21.115 0 11.643 9.472 21.115 21.115 21.115 11.643 0 21.115-9.472 21.115-21.115 0-11.642-9.472-21.115-21.115-21.115m0 44.23c-12.746 0-23.115-10.369-23.115-23.115 0-12.746 10.369-23.115 23.115-23.115 12.746 0 23.115 10.369 23.115 23.115 0 12.746-10.369 23.115-23.115 23.115" fill="#9ACDED"/><path d="M147.8047 119.8533c.093.275.175.463.199.525.008.007-.008-.003 0 0 0 0 0 .002 0 0 .001.001-.002 0-.002 0-.623-6.027 2.794-8.539 3.893-12.542.006-.059.016-.124.035-.197.022-.089.041-.182.055-.274.164-1.108-.29-2.397-1.151-3.74-.003-.007-.008-.014-.012-.021-.071-.111-.147-.224-.223-.335 0 0-.003-.002-.003-.004-.142-.204-.292-.41-.45-.617-.016-.021-.031-.043-.048-.064-.044-.056-.091-.112-.134-.168-.046-.059-.092-.117-.138-.173-.047-.058-.093-.114-.14-.169-.049-.059-.097-.117-.147-.175-.033-.039-.07-.08-.106-.121-1.35-1.556-3.108-3.093-4.942-4.43 0 0-.014-.02 0 0 .242 2.268.273 4.536.058 6.35-.26 2.186-1.042 4.732-2.127 7.039-2.541-.208-5.138-.797-7.164-1.661-1.693-.724-3.634-1.865-5.488-3.218.02.188.043.374.065.562.007.056.015.112.022.168.017.134.034.268.054.402.008.061.017.123.027.185.019.135.04.268.061.402.009.053.018.108.027.163.028.169.056.337.088.505.002.017.004.033.007.049.035.195.072.389.111.581.002.015.006.029.01.044.034.174.069.345.107.517.008.035.016.069.022.104.036.157.072.312.108.468.009.03.016.059.023.091.044.179.088.358.134.533.001.001.001.003.001.003.15.566.315 1.112.493 1.636.003.007.005.013.006.019.302.876.646 1.681 1.028 2.387.057.103.115.203.172.302.003.003.003.008.006.011l.001.001c.052.089.106.177.158.261l.002.002s.005.006.007.009c.058.093.116.183.177.269.008.012.015.022.024.034.001.001 0 .003.001.004.077.112.157.22.236.323.015.017.028.033.041.05.003.006.009.011.013.019.092.116.186.227.283.331.067.075.135.144.204.213.029.029.059.055.088.083.043.04.086.078.13.118.033.029.066.053.1.082.041.034.084.067.126.1.034.026.067.048.102.072.044.032.086.061.131.091.034.02.069.042.102.063.047.027.095.052.141.079.032.017.065.034.096.051.055.025.108.047.163.072.026.009.054.023.081.033.083.034.166.062.249.085.057.017.105.034.151.052 4.024 1.062 7.941-.622 12.855 2.891" fill="#9452BA"/><path d="M114.5488 156.6629h57.019" fill="#FFF"/><path d="M171.5674 157.6629h-57.019c-.552 0-1-.447-1-1 0-.553.448-1 1-1h57.019c.553 0 1 .447 1 1 0 .553-.447 1-1 1" fill="#9ACDED"/><path d="M114.5488 175.0457h57.019" fill="#FFF"/><path d="M171.5674 176.0457h-57.019c-.552 0-1-.447-1-1 0-.553.448-1 1-1h57.019c.553 0 1 .447 1 1 0 .553-.447 1-1 1" fill="#9ACDED"/><path d="M114.5488 194.0486h57.019" fill="#FFF"/><path d="M171.5674 195.0486h-57.019c-.552 0-1-.447-1-1 0-.553.448-1 1-1h57.019c.553 0 1 .447 1 1 0 .553-.447 1-1 1" fill="#9ACDED"/><path d="M178.0771 227.6238H60.9411c-1.246 0-2.255-1.01-2.255-2.255V53.4918c0-1.245 1.009-2.255 2.255-2.255h117.136c1.245 0 2.255 1.01 2.255 2.255v171.877c0 1.245-1.01 2.255-2.255 2.255" fill="#FFF"/><path d="M60.9414 52.2371c-.692 0-1.255.562-1.255 1.255v171.877c0 .692.563 1.255 1.255 1.255h117.136c.692 0 1.255-.563 1.255-1.255V53.4921c0-.693-.563-1.255-1.255-1.255H60.9414zm117.136 176.387H60.9414c-1.795 0-3.255-1.46-3.255-3.255V53.4921c0-1.795 1.46-3.255 3.255-3.255h117.136c1.795 0 3.255 1.46 3.255 3.255v171.877c0 1.795-1.46 3.255-3.255 3.255z" fill="#9ACDED"/><path fill="#E1F2FF" d="M68.292 207.3533l104.867 7.299V65.6973l-106.084-4.866"/><path d="M139.4512 106.8474c0 12.916-10.471 23.388-23.387 23.388-12.917 0-23.387-10.472-23.387-23.388 0-12.916 10.47-23.387 23.387-23.387 12.916 0 23.387 10.471 23.387 23.387" fill="#FFF"/><path d="M142.2881 102.1199c0 12.916-10.471 23.387-23.387 23.387-12.917 0-23.387-10.471-23.387-23.387 0-12.917 10.47-23.388 23.387-23.388 12.916 0 23.387 10.471 23.387 23.388" fill="#FFF"/><path d="M118.9014 79.7322c-12.345 0-22.388 10.043-22.388 22.388 0 12.343 10.043 22.386 22.388 22.386 12.344 0 22.387-10.043 22.387-22.386 0-12.345-10.043-22.388-22.387-22.388m0 46.774c-13.447 0-24.388-10.939-24.388-24.386 0-13.448 10.941-24.388 24.388-24.388 13.447 0 24.387 10.94 24.387 24.388 0 13.447-10.94 24.386-24.387 24.386" fill="#9ACDED"/><path d="M124.7139 113.6541c.099.291.186.49.211.556.008.006-.008-.003 0 0 0 0 0 .002 0 0 .001.002-.001 0-.001 0-.66-6.374 2.954-9.03 4.115-13.263.007-.064.019-.132.038-.209.024-.095.043-.192.058-.29.173-1.171-.308-2.534-1.217-3.954-.004-.009-.01-.016-.014-.024-.074-.118-.155-.236-.235-.354 0 0-.003-.002-.003-.004-.149-.216-.309-.434-.476-.652-.017-.022-.033-.046-.051-.068-.047-.059-.096-.118-.141-.177-.049-.063-.097-.124-.145-.184-.051-.061-.1-.119-.15-.179-.052-.061-.102-.122-.154-.184-.036-.041-.074-.085-.112-.128-1.429-1.646-3.287-3.271-5.228-4.685 0 0-.015-.022 0 0 .257 2.398.289 4.797.063 6.715-.275 2.313-1.102 5.004-2.25 7.443-2.688-.219-5.434-.842-7.577-1.756-1.79-.765-3.841-1.971-5.802-3.403.02.199.045.397.068.595.007.059.016.118.024.178.018.141.035.282.057.424.008.065.018.13.028.196.021.142.042.284.065.425.01.056.018.115.027.172.031.179.06.357.093.534.002.018.005.036.009.052.036.206.076.411.116.616.002.015.007.03.011.046.036.184.074.364.113.545.008.038.017.075.024.111.037.166.076.33.114.495.01.031.017.062.024.097.047.188.093.377.142.563.002.001.001.003.001.003.16.599.334 1.176.521 1.73.003.007.006.013.007.02.319.926.682 1.778 1.088 2.525.06.108.12.215.181.319.004.004.004.008.006.011l.001.001c.055.094.112.188.168.277l.002.002s.004.007.006.009c.061.098.123.194.188.284v.001c.008.012.016.023.026.036.001.001-.001.003.001.004.081.118.166.232.249.342.016.017.029.035.043.052.004.006.01.012.015.021.096.122.196.24.299.35.07.078.142.152.214.225.032.03.064.059.095.088.045.043.091.083.137.125.034.029.069.055.105.086.044.036.089.071.134.105.035.028.07.052.107.077.047.034.092.065.139.096.035.022.072.044.108.066.049.029.1.056.148.084.034.019.069.037.104.053.056.028.113.052.171.077.027.01.057.026.085.036.088.036.176.064.265.089.06.018.11.036.158.055 4.256 1.124 8.399-.657 13.595 3.058" fill="#9452BA"/><path d="M90.1777 152.5808h60.3" fill="#FFF"/><path d="M150.4775 153.5808h-60.3c-.553 0-1-.447-1-1 0-.553.447-1 1-1h60.3c.553 0 1 .447 1 1 0 .553-.447 1-1 1" fill="#9ACDED"/><path d="M90.1777 172.0213h60.3" fill="#FFF"/><path d="M150.4775 173.0213h-60.3c-.553 0-1-.447-1-1 0-.553.447-1 1-1h60.3c.553 0 1 .447 1 1 0 .553-.447 1-1 1" fill="#9ACDED"/><path d="M90.1777 192.117h60.3" fill="#FFF"/><path d="M150.4775 193.117h-60.3c-.553 0-1-.447-1-1 0-.553.447-1 1-1h60.3c.553 0 1 .447 1 1 0 .553-.447 1-1 1" fill="#9ACDED"/><path d="M156.8291 227.6238H32.6951c-1.245 0-2.255-1.01-2.255-2.255V43.3468c0-1.245 1.01-2.255 2.255-2.255h124.134c1.245 0 2.255 1.01 2.255 2.255v182.022c0 1.245-1.01 2.255-2.255 2.255" fill="#FFF"/><path d="M32.6953 42.0916c-.692 0-1.255.562-1.255 1.255v182.022c0 .693.563 1.255 1.255 1.255h124.134c.692 0 1.255-.562 1.255-1.255V43.3466c0-.693-.563-1.255-1.255-1.255H32.6953zm124.134 186.532H32.6953c-1.795 0-3.255-1.46-3.255-3.255V43.3466c0-1.795 1.46-3.255 3.255-3.255h124.134c1.795 0 3.255 1.46 3.255 3.255v182.022c0 1.795-1.46 3.255-3.255 3.255z" fill="#375D81"/><path fill="#EFEFF6" d="M150.2119 206.1873l-110.899 7.718V56.3823l112.185-5.145"/><path d="M115.8516 99.9002c0 13.659-11.073 24.732-24.732 24.732-13.661 0-24.733-11.073-24.733-24.732 0-13.659 11.072-24.732 24.733-24.732 13.659 0 24.732 11.073 24.732 24.732" fill="#FFF"/><path d="M118.8516 94.9002c0 13.659-11.073 24.732-24.732 24.732-13.661 0-24.733-11.073-24.733-24.732 0-13.659 11.072-24.732 24.733-24.732 13.659 0 24.732 11.073 24.732 24.732" fill="#FFF"/><path d="M94.1191 71.1678c-13.086 0-23.732 10.646-23.732 23.732 0 13.086 10.646 23.733 23.732 23.733 13.086 0 23.732-10.647 23.732-23.733s-10.646-23.732-23.732-23.732m0 49.465c-14.188 0-25.732-11.544-25.732-25.733 0-14.188 11.544-25.732 25.732-25.732 14.188 0 25.732 11.544 25.732 25.732 0 14.189-11.544 25.733-25.732 25.733" fill="#375D81"/><path d="M100.2666 107.0984c.104.309.195.519.223.588.008.008-.009-.004 0 0 0 0 0 .002 0 0 .001.002-.002 0-.002 0-.698-6.74 3.124-9.549 4.353-14.026.006-.067.019-.139.039-.22.026-.101.046-.204.062-.308.182-1.238-.325-2.68-1.287-4.181-.004-.009-.01-.017-.015-.025-.078-.125-.163-.25-.248-.374 0 0-.003-.003-.004-.005-.157-.227-.326-.458-.503-.689-.018-.024-.035-.049-.054-.072-.049-.063-.101-.125-.149-.188-.052-.065-.103-.131-.154-.194-.054-.064-.105-.126-.157-.189-.055-.065-.109-.13-.165-.195-.037-.044-.078-.09-.119-.136-1.509-1.739-3.475-3.459-5.527-4.954 0 0-.016-.023 0 0 .271 2.536.306 5.073.065 7.102-.29 2.445-1.165 5.292-2.379 7.872-2.841-.233-5.746-.892-8.011-1.859-1.894-.808-4.063-2.085-6.137-3.598.023.211.048.419.072.63.008.062.017.124.025.187.019.15.038.299.061.449.008.069.019.138.03.207.022.151.044.3.069.449.01.06.019.122.029.182.03.19.063.377.098.566.002.018.004.037.009.054.038.219.08.435.123.651.002.016.007.032.01.049.039.195.079.385.121.577.008.04.017.079.025.117.039.175.08.349.12.523.01.033.019.067.026.102.049.2.098.4.15.596.002.001.002.003.002.003.168.633.352 1.244.551 1.83.002.008.005.014.006.021.338.979.722 1.881 1.151 2.67.063.114.127.227.191.337.004.004.004.009.007.014h.001c.059.099.118.199.178.292l.002.002s.005.007.007.011c.064.103.129.203.197.299v.001c.01.014.018.025.028.038.001.001 0 .003.001.004.086.125.176.246.264.361.016.02.031.038.045.056.005.007.01.013.016.022.102.129.207.254.316.371.074.083.151.161.227.237.033.033.068.062.1.093.048.046.097.088.145.132.037.032.074.06.112.091.046.039.093.075.14.113.038.028.076.053.115.081.048.035.096.068.146.101.037.023.076.047.114.069.052.032.106.06.157.089.037.021.074.039.109.057.06.028.119.055.182.081.028.011.059.026.09.037.092.038.186.069.279.095.063.019.117.038.168.058 4.5 1.189 8.882-.695 14.377 3.234" fill="#9452BA"/><path d="M63.9102 148.6238h63.768" fill="#FFF"/><path d="M127.6777 149.6238h-63.768c-.552 0-1-.447-1-1 0-.553.448-1 1-1h63.768c.553 0 1 .447 1 1 0 .553-.447 1-1 1" fill="#375D81"/><path d="M63.376 168.823h63.768" fill="#FFF"/><path d="M127.1436 169.823h-63.768c-.552 0-1-.447-1-1 0-.553.448-1 1-1h63.768c.553 0 1 .447 1 1 0 .553-.447 1-1 1" fill="#375D81"/><path d="M63.376 190.075h63.768" fill="#FFF"/><path d="M127.1436 191.075h-63.768c-.552 0-1-.447-1-1 0-.553.448-1 1-1h63.768c.553 0 1 .447 1 1 0 .553-.447 1-1 1M232.0029 62.4529c-.553 0-1-.447-1-1v-7c0-.553.447-1 1-1 .553 0 1 .447 1 1v7c0 .553-.447 1-1 1" fill="#375D81"/><path d="M235.5029 58.9529h-7c-.553 0-1-.447-1-1 0-.553.447-1 1-1h7c.553 0 1 .447 1 1 0 .553-.447 1-1 1M13.2217 188.4207c-.276 0-.5-.224-.5-.5v-3.937c0-.277.224-.5.5-.5s.5.223.5.5v3.937c0 .276-.224.5-.5.5" fill="#375D81"/><path d="M15.1904 186.4519h-3.938c-.276 0-.499-.224-.499-.5s.223-.5.499-.5h3.938c.276 0 .5.224.5.5s-.224.5-.5.5M241.2881 169.7029c-.276 0-.5-.224-.5-.5v-3.937c0-.277.224-.5.5-.5s.5.223.5.5v3.937c0 .276-.224.5-.5.5" fill="#375D81"/><path d="M243.2568 167.7342h-3.938c-.276 0-.499-.224-.499-.5s.223-.5.499-.5h3.938c.276 0 .5.224.5.5s-.224.5-.5.5M117.7822 21.9373c-.276 0-.5-.224-.5-.5v-3.937c0-.277.224-.5.5-.5s.5.223.5.5v3.937c0 .276-.224.5-.5.5" fill="#375D81"/><path d="M119.751 19.9685h-3.938c-.276 0-.499-.224-.499-.5s.223-.5.499-.5h3.938c.276 0 .5.224.5.5s-.224.5-.5.5" fill="#375D81"/><path d="M15.1904 79.3982v8.125" fill="#FFF"/><path d="M15.1904 88.5232c-.553 0-1-.447-1-1v-8.125c0-.553.447-1 1-1 .553 0 1 .447 1 1v8.125c0 .553-.447 1-1 1" fill="#375D81"/><path d="M19.2529 83.4607h-8.125" fill="#FFF"/><path d="M19.2529 84.4607h-8.125c-.553 0-1-.447-1-1 0-.553.447-1 1-1h8.125c.553 0 1 .447 1 1 0 .553-.447 1-1 1" fill="#375D81"/><path d="M95.3828 236.699h67.186" fill="#FFF"/><path d="M162.5684 237.699h-67.186c-.552 0-1-.447-1-1 0-.553.448-1 1-1h67.186c.553 0 1 .447 1 1 0 .553-.447 1-1 1" fill="#375D81"/><path d="M171.1875 236.699h9.141" fill="#FFF"/><path d="M180.3281 237.699h-9.141c-.552 0-1-.447-1-1 0-.553.448-1 1-1h9.141c.553 0 1 .447 1 1 0 .553-.447 1-1 1" fill="#375D81"/><path d="M87.5 236.6238l-5 .075" fill="#FFF"/><path d="M82.5 237.699c-.546 0-.991-.437-1-.985-.008-.552.433-1.006.985-1.015l5-.075h.015c.546 0 .991.437 1 .985.008.552-.433 1.006-.985 1.015l-5 .075H82.5z" fill="#375D81"/><path d="M195.3193 227.6238h44" fill="#FFF"/><path d="M239.3193 228.6238h-44c-.553 0-1-.447-1-1 0-.553.447-1 1-1h44c.553 0 1 .447 1 1 0 .553-.447 1-1 1" fill="#375D81"/><path d="M246.167 227.3826h6.973" fill="#FFF"/><path d="M253.1396 228.3826h-6.973c-.552 0-1-.447-1-1 0-.553.448-1 1-1h6.973c.553 0 1 .447 1 1 0 .553-.447 1-1 1" fill="#375D81"/><path d="M3 227.3826h8.974" fill="#FFF"/><g transform="translate(2 225.7)"><mask id="b" fill="#fff"><use xlink:href="#a"/></mask><path d="M9.9736 2.6836H.9996c-.552 0-1-.447-1-1 0-.553.448-1 1-1h8.974c.553 0 1 .447 1 1 0 .553-.447 1-1 1" fill="#375D81" mask="url(#b)"/></g><path d="M124.9199 227.5623h-41.825c-1.246 0-2.255-1.01-2.255-2.255v-56.771c0-1.245 1.009-2.255 2.255-2.255h41.825c1.246 0 2.255 1.01 2.255 2.255v56.771c0 1.245-1.009 2.255-2.255 2.255" fill="#FFF"/><path d="M83.0947 167.281c-.692 0-1.255.562-1.255 1.255v56.771c0 .693.563 1.255 1.255 1.255h41.825c.693 0 1.255-.562 1.255-1.255v-56.771c0-.693-.562-1.255-1.255-1.255h-41.825zm41.825 61.281h-41.825c-1.795 0-3.255-1.46-3.255-3.255v-56.771c0-1.795 1.46-3.255 3.255-3.255h41.825c1.795 0 3.255 1.46 3.255 3.255v56.771c0 1.795-1.46 3.255-3.255 3.255z" fill="#375D81"/><path d="M90.3164 203.3162h28" fill="#FFF"/><path d="M118.3164 204.3162h-28c-.553 0-1-.447-1-1 0-.553.447-1 1-1h28c.553 0 1 .447 1 1 0 .553-.447 1-1 1" fill="#9ACDED"/><path d="M90.3164 209.4324h28" fill="#FFF"/><path d="M118.3164 210.4324h-28c-.553 0-1-.447-1-1 0-.553.447-1 1-1h28c.553 0 1 .447 1 1 0 .553-.447 1-1 1" fill="#9ACDED"/><path d="M90.3164 215.7556h28" fill="#FFF"/><path d="M118.3164 216.7556h-28c-.553 0-1-.447-1-1 0-.553.447-1 1-1h28c.553 0 1 .447 1 1 0 .553-.447 1-1 1" fill="#9ACDED"/><path d="M184.6592 227.5623h-41.825c-1.246 0-2.255-1.01-2.255-2.255v-56.771c0-1.245 1.009-2.255 2.255-2.255h41.825c1.245 0 2.255 1.01 2.255 2.255v56.771c0 1.245-1.01 2.255-2.255 2.255" fill="#FFF"/><path d="M142.834 167.281c-.692 0-1.255.562-1.255 1.255v56.771c0 .693.563 1.255 1.255 1.255h41.825c.693 0 1.255-.562 1.255-1.255v-56.771c0-.693-.562-1.255-1.255-1.255h-41.825zm41.825 61.281h-41.825c-1.795 0-3.255-1.46-3.255-3.255v-56.771c0-1.795 1.46-3.255 3.255-3.255h41.825c1.795 0 3.255 1.46 3.255 3.255v56.771c0 1.795-1.46 3.255-3.255 3.255z" fill="#375D81"/><path d="M150.0557 203.3162h28" fill="#FFF"/><path d="M178.0557 204.3162h-28c-.553 0-1-.447-1-1 0-.553.447-1 1-1h28c.553 0 1 .447 1 1 0 .553-.447 1-1 1" fill="#9ACDED"/><path d="M150.0557 209.4324h28" fill="#FFF"/><path d="M178.0557 210.4324h-28c-.553 0-1-.447-1-1 0-.553.447-1 1-1h28c.553 0 1 .447 1 1 0 .553-.447 1-1 1" fill="#9ACDED"/><path d="M150.0557 215.7556h28" fill="#FFF"/><path d="M178.0557 216.7556h-28c-.553 0-1-.447-1-1 0-.553.447-1 1-1h28c.553 0 1 .447 1 1 0 .553-.447 1-1 1" fill="#9ACDED"/><path d="M244.3984 227.5623h-41.826c-1.245 0-2.255-1.01-2.255-2.255v-56.771c0-1.245 1.01-2.255 2.255-2.255h41.826c1.245 0 2.255 1.01 2.255 2.255v56.771c0 1.245-1.01 2.255-2.255 2.255" fill="#FFF"/><path d="M202.5723 167.281c-.692 0-1.255.562-1.255 1.255v56.771c0 .693.563 1.255 1.255 1.255h41.826c.693 0 1.255-.562 1.255-1.255v-56.771c0-.693-.562-1.255-1.255-1.255h-41.826zm41.826 61.281h-41.826c-1.795 0-3.255-1.46-3.255-3.255v-56.771c0-1.795 1.46-3.255 3.255-3.255h41.826c1.795 0 3.255 1.46 3.255 3.255v56.771c0 1.795-1.46 3.255-3.255 3.255z" fill="#375D81"/><path d="M209.7949 203.3162h28" fill="#FFF"/><path d="M237.7949 204.3162h-28c-.553 0-1-.447-1-1 0-.553.447-1 1-1h28c.553 0 1 .447 1 1 0 .553-.447 1-1 1" fill="#9ACDED"/><path d="M209.7949 209.4324h28" fill="#FFF"/><path d="M237.7949 210.4324h-28c-.553 0-1-.447-1-1 0-.553.447-1 1-1h28c.553 0 1 .447 1 1 0 .553-.447 1-1 1" fill="#9ACDED"/><path d="M209.7949 215.7556h28" fill="#FFF"/><path d="M237.7949 216.7556h-28c-.553 0-1-.447-1-1 0-.553.447-1 1-1h28c.553 0 1 .447 1 1 0 .553-.447 1-1 1" fill="#9ACDED"/><path d="M112.0986 186.4627c0 5.436-4.406 9.842-9.842 9.842-5.435 0-9.842-4.406-9.842-9.842 0-5.436 4.407-9.842 9.842-9.842 5.436 0 9.842 4.406 9.842 9.842" fill="#EFEFF6"/><path d="M114.126 184.4734c0 5.436-4.406 9.842-9.842 9.842-5.435 0-9.842-4.406-9.842-9.842 0-5.436 4.407-9.842 9.842-9.842 5.436 0 9.842 4.406 9.842 9.842" fill="#FFF"/><path d="M104.2842 175.6316c-4.875 0-8.842 3.967-8.842 8.842s3.967 8.842 8.842 8.842 8.842-3.967 8.842-8.842-3.967-8.842-8.842-8.842m0 19.684c-5.979 0-10.842-4.864-10.842-10.842 0-5.979 4.863-10.842 10.842-10.842s10.842 4.863 10.842 10.842c0 5.978-4.863 10.842-10.842 10.842" fill="#9ACDED"/><path d="M106.7305 189.3269c.042.123.078.206.089.234.004.003-.003-.002 0 0-.278-2.682 1.243-3.799 1.731-5.582.003-.026.008-.054.016-.088.011-.039.018-.081.024-.122.074-.492-.129-1.066-.511-1.664-.001-.003-.004-.006-.006-.008-.031-.05-.066-.1-.099-.15l-.002-.002c-.062-.091-.13-.182-.2-.274-.007-.009-.014-.02-.021-.029-.02-.025-.041-.049-.06-.075-.021-.026-.04-.052-.061-.077-.021-.025-.042-.05-.062-.075-.023-.026-.044-.052-.066-.077-.014-.018-.031-.036-.047-.055-.601-.692-1.383-1.376-2.2-1.971 0 0-.005-.009 0 0 .109 1.009.122 2.019.027 2.826-.115.973-.464 2.106-.948 3.132-1.13-.092-2.286-.354-3.187-.739-.754-.322-1.617-.83-2.442-1.433.008.084.018.167.028.251.003.025.007.05.01.075.008.06.015.119.024.178.004.029.008.056.012.083.009.06.018.12.028.179.003.024.007.048.011.072.013.076.025.151.039.225.001.008.002.016.004.022.015.087.032.173.049.259.001.007.003.013.005.02.014.077.03.153.047.229.003.016.007.032.01.047.016.069.031.139.048.208.004.013.007.027.01.04.02.08.039.159.06.237v.002c.068.251.141.495.22.728.001.003.002.006.002.009.135.389.287.748.458 1.062.025.045.051.09.076.134.002.002.002.004.003.005.024.04.048.079.071.117l.001.001s.002.002.002.004c.027.041.052.081.079.119.004.006.007.01.011.016l.001.001c.034.05.07.098.105.144.007.007.012.015.018.022.001.003.004.006.006.009.041.051.083.101.126.147.029.033.06.064.09.095.014.012.027.024.04.037.019.017.038.035.058.053.014.012.029.023.044.036.018.015.038.029.056.045.015.01.029.021.045.032.02.014.039.026.059.04.014.009.03.018.046.027.02.013.042.024.062.036.014.008.028.015.043.023.023.011.048.021.072.031.011.005.024.011.036.016.038.014.075.027.112.037.024.008.046.015.066.023 1.791.473 3.534-.276 5.721 1.287" fill="#D4604F"/><path d="M172.5742 186.4627c0 5.436-4.406 9.842-9.842 9.842-5.435 0-9.842-4.406-9.842-9.842 0-5.436 4.407-9.842 9.842-9.842 5.436 0 9.842 4.406 9.842 9.842" fill="#EFEFF6"/><path d="M174.6025 184.4734c0 5.436-4.406 9.842-9.842 9.842-5.435 0-9.842-4.406-9.842-9.842 0-5.436 4.407-9.842 9.842-9.842 5.436 0 9.842 4.406 9.842 9.842" fill="#FFF"/><path d="M164.7607 175.6316c-4.875 0-8.842 3.967-8.842 8.842s3.967 8.842 8.842 8.842 8.842-3.967 8.842-8.842-3.967-8.842-8.842-8.842m0 19.684c-5.979 0-10.842-4.864-10.842-10.842 0-5.979 4.863-10.842 10.842-10.842s10.842 4.863 10.842 10.842c0 5.978-4.863 10.842-10.842 10.842" fill="#9ACDED"/><path d="M167.207 189.3269c.041.123.077.206.089.234.003.003-.004-.002 0 0h-.001c-.277-2.682 1.243-3.799 1.732-5.582.002-.026.007-.054.016-.088.01-.039.018-.081.024-.122.073-.492-.13-1.066-.512-1.664-.001-.003-.004-.006-.006-.008-.031-.05-.065-.1-.099-.15 0 0-.001-.001-.001-.002-.063-.091-.13-.182-.2-.274-.008-.009-.015-.02-.021-.029-.021-.025-.042-.049-.06-.075-.021-.026-.041-.052-.062-.077-.021-.025-.042-.05-.062-.075-.022-.026-.043-.052-.066-.077-.014-.018-.031-.036-.046-.055-.602-.692-1.384-1.376-2.201-1.971 0 0-.005-.009 0 0 .109 1.009.122 2.019.027 2.826-.115.973-.464 2.106-.947 3.132-1.13-.092-2.287-.354-3.188-.739-.754-.322-1.617-.83-2.442-1.433.008.084.019.167.029.251.003.025.007.05.01.075.008.06.014.119.024.178.003.029.007.056.012.083.009.06.017.12.027.179l.012.072c.012.076.024.151.039.225 0 .008.001.016.003.022.016.087.032.173.049.259.001.007.003.013.005.02.015.077.031.153.047.229.003.016.007.032.01.047.016.069.032.139.048.208.004.013.008.027.011.04.019.08.039.159.059.237v.002c.068.251.141.495.22.728l.003.009c.134.389.287.748.457 1.062.025.045.051.09.077.134.001.002.001.004.002.005h.001c.023.04.047.079.07.117l.001.001s.002.002.003.004c.026.041.052.081.078.119.004.006.007.01.012.016v.001c.034.05.071.098.105.144.007.007.012.015.018.022l.006.009c.041.051.083.101.126.147.029.033.061.064.091.095.013.012.026.024.039.037.02.017.039.035.058.053.014.012.029.023.045.036.018.015.037.029.055.045.016.01.03.021.046.032.02.014.038.026.058.04.015.009.03.018.046.027.02.013.042.024.062.036.015.008.029.015.043.023.024.011.048.021.072.031.012.005.025.011.036.016.038.014.075.027.112.037.025.008.046.015.066.023 1.791.473 3.534-.276 5.722 1.287" fill="#F9B53F"/><path d="M232.623 186.4627c0 5.436-4.407 9.842-9.843 9.842-5.434 0-9.842-4.406-9.842-9.842 0-5.436 4.408-9.842 9.842-9.842 5.436 0 9.843 4.406 9.843 9.842" fill="#EFEFF6"/><path d="M234.6504 184.4734c0 5.436-4.406 9.842-9.842 9.842-5.435 0-9.842-4.406-9.842-9.842 0-5.436 4.407-9.842 9.842-9.842 5.436 0 9.842 4.406 9.842 9.842" fill="#FFF"/><path d="M224.8086 175.6316c-4.875 0-8.842 3.967-8.842 8.842s3.967 8.842 8.842 8.842 8.842-3.967 8.842-8.842-3.967-8.842-8.842-8.842m0 19.684c-5.979 0-10.842-4.864-10.842-10.842 0-5.979 4.863-10.842 10.842-10.842s10.842 4.863 10.842 10.842c0 5.978-4.863 10.842-10.842 10.842" fill="#9ACDED"/><path d="M227.2549 189.3269c.042.123.078.206.089.234.003.003-.004-.002 0 0h-.001c-.277-2.682 1.243-3.799 1.732-5.582.003-.026.008-.054.016-.088.01-.039.018-.081.024-.122.074-.492-.129-1.066-.511-1.664l-.006-.008c-.031-.05-.066-.1-.1-.15 0 0-.001-.001-.001-.002-.062-.091-.13-.182-.2-.274-.007-.009-.014-.02-.021-.029-.02-.025-.041-.049-.06-.075-.021-.026-.041-.052-.061-.077l-.063-.075c-.022-.026-.043-.052-.065-.077-.015-.018-.031-.036-.047-.055-.601-.692-1.383-1.376-2.2-1.971 0 0-.006-.009 0 0 .108 1.009.121 2.019.027 2.826-.116.973-.464 2.106-.948 3.132-1.13-.092-2.286-.354-3.188-.739-.753-.322-1.616-.83-2.441-1.433.008.084.018.167.028.251.003.025.007.05.01.075.008.06.015.119.024.178.003.029.008.056.012.083.009.06.017.12.027.179l.012.072c.013.076.025.151.039.225.001.008.002.016.004.022.015.087.031.173.049.259.001.007.003.013.004.02.015.077.031.153.047.229.004.016.007.032.011.047.015.069.031.139.048.208.004.013.007.027.01.04.019.08.039.159.059.237.001.001.001.002.001.002.067.251.14.495.219.728.001.003.003.006.003.009.135.389.287.748.458 1.062.025.045.051.09.076.134.001.002.001.004.003.005.024.04.047.079.07.117l.001.001s.002.002.003.004c.026.041.052.081.079.119.003.006.007.01.011.016v.001c.035.05.071.098.106.144.007.007.012.015.017.022.002.003.005.006.007.009.04.051.082.101.125.147.03.033.061.064.091.095.014.012.026.024.04.037.019.017.038.035.058.053.014.012.029.023.044.036.018.015.038.029.056.045.015.01.029.021.045.032.02.014.039.026.059.04.014.009.03.018.045.027.021.013.042.024.062.036.015.008.029.015.044.023.023.011.047.021.072.031.011.005.024.011.036.016.037.014.074.027.111.037.025.008.047.015.067.023 1.79.473 3.534-.276 5.721 1.287" fill="#67B373"/></g></svg>