<svg xmlns="http://www.w3.org/2000/svg" width="256" height="256" xmlns:xlink="http://www.w3.org/1999/xlink">
  <defs>
    <path id="a" d="M.6968.555h2v8.9997h-2V.555z"/>
    <path id="c" d="M9.14.6836v2H.1661v-2H9.14z"/>
  </defs>
  <g fill="none" fill-rule="evenodd">
    <path fill="#E1F2FF" d="M8.3291 233.3698c0-66.131 53.61-119.74 119.741-119.74s119.74 53.609 119.74 119.74H8.3291z"/>
    <path fill="#FFF" d="M19.9775 224.3698h36"/>
    <path fill="#375D81" d="M55.9775 225.3698h-36c-.552 0-1-.447-1-1 0-.553.448-1 1-1h36c.552 0 1 .447 1 1 0 .553-.448 1-1 1"/>
    <path fill="#FFF" d="M228.1421 224.3698h-110.52c-1.245 0-2.254-1.01-2.254-2.255V59.8318c0-1.245 1.009-2.255 2.254-2.255h110.52c1.245 0 2.255 1.01 2.255 2.255v162.283c0 1.245-1.01 2.255-2.255 2.255"/>
    <path fill="#9ACDED" d="M117.6226 58.5768c-.692 0-1.255.562-1.255 1.255v162.283c0 .692.563 1.255 1.255 1.255h110.52c.692 0 1.254-.563 1.254-1.255V59.8318c0-.693-.562-1.255-1.254-1.255h-110.52zm110.52 166.793h-110.52c-1.795 0-3.255-1.46-3.255-3.255V59.8318c0-1.795 1.46-3.255 3.255-3.255h110.52c1.794 0 3.254 1.46 3.254 3.255v162.283c0 1.795-1.46 3.255-3.254 3.255z"/>
    <path fill="#E1F2FF" d="M124.4507 205.2009l99.164 6.902V71.2499l-100.314-4.601"/>
    <path fill="#FFF" d="M191.7397 110.1628c0 12.214-9.901 22.115-22.115 22.115-12.214 0-22.115-9.901-22.115-22.115 0-12.214 9.901-22.115 22.115-22.115 12.214 0 22.115 9.901 22.115 22.115"/>
    <path fill="#FFF" d="M194.4224 105.6921c0 12.214-9.901 22.114-22.115 22.114-12.214 0-22.115-9.9-22.115-22.114s9.901-22.115 22.115-22.115c12.214 0 22.115 9.901 22.115 22.115"/>
    <path fill="#9ACDED" d="M172.3071 84.5768c-11.643 0-21.115 9.473-21.115 21.115 0 11.643 9.472 21.114 21.115 21.114 11.643 0 21.115-9.471 21.115-21.114 0-11.642-9.472-21.115-21.115-21.115m0 44.229c-12.746 0-23.115-10.369-23.115-23.114 0-12.746 10.369-23.115 23.115-23.115 12.746 0 23.115 10.369 23.115 23.115 0 12.745-10.369 23.114-23.115 23.114"/>
    <path fill="#9452BA" d="M177.8042 116.5983c.094.276.175.464.199.526.008.007-.008-.004 0 0 0 0 0 .002 0 0 .001.001-.001 0-.001 0-.624-6.027 2.793-8.539 3.892-12.542.006-.059.017-.124.035-.197.023-.09.042-.182.055-.274.164-1.108-.29-2.397-1.151-3.74-.003-.007-.008-.014-.012-.021-.071-.112-.147-.224-.223-.335 0 0-.003-.002-.003-.004-.141-.204-.292-.41-.45-.617-.016-.021-.03-.043-.048-.064-.044-.056-.091-.112-.134-.169-.046-.058-.092-.117-.137-.172-.048-.058-.094-.114-.141-.169-.049-.059-.097-.117-.147-.175-.033-.039-.07-.08-.106-.121-1.35-1.556-3.108-3.093-4.942-4.43 0 0-.014-.02 0 0 .243 2.268.273 4.536.058 6.35-.259 2.186-1.042 4.731-2.127 7.039-2.541-.208-5.138-.797-7.164-1.661-1.693-.724-3.633-1.865-5.487-3.218.019.188.042.374.064.562.007.056.015.112.023.168.016.134.033.267.053.402.008.061.017.123.028.184.019.136.039.269.061.403.008.053.018.108.026.163.028.169.056.337.088.505.002.016.004.033.007.049.035.195.073.388.111.581.002.015.006.029.01.044.035.174.07.345.107.516.008.036.016.07.022.104.036.158.072.313.108.468.009.031.016.06.023.092.044.179.088.357.134.533.002.001.001.002.001.002.151.567.315 1.113.493 1.637.003.007.005.013.007.019.301.875.645 1.681 1.027 2.387.057.102.115.203.172.302.003.003.003.008.006.011l.001.001c.053.089.106.177.159.261l.002.002.006.009c.058.093.116.183.177.269.008.012.015.022.024.034.002.001 0 .003.001.004.077.111.157.22.237.322.014.018.027.034.04.051.003.006.009.011.014.019.091.116.186.227.282.331.067.075.135.144.204.212.029.03.06.056.088.083.043.041.087.079.13.118.033.029.067.054.101.083.04.034.084.067.126.1.033.025.066.048.101.072.044.032.087.061.131.09.034.021.069.042.102.064.047.027.095.052.141.079.032.017.065.034.097.051.054.025.107.047.162.072.026.009.054.023.081.033.083.034.166.062.25.085.057.017.104.034.15.052 4.024 1.062 7.941-.622 12.855 2.891"/>
    <path fill="#FFF" d="M143.5483 153.4089h57.02"/>
    <path fill="#9ACDED" d="M200.5679 154.4089h-57.02c-.552 0-1-.447-1-1 0-.553.448-1 1-1h57.02c.553 0 1 .447 1 1 0 .553-.447 1-1 1"/>
    <path fill="#FFF" d="M143.5483 171.7917h57.02"/>
    <path fill="#9ACDED" d="M200.5679 172.7917h-57.02c-.552 0-1-.447-1-1 0-.553.448-1 1-1h57.02c.553 0 1 .447 1 1 0 .553-.447 1-1 1"/>
    <path fill="#FFF" d="M143.5483 190.7946h57.02"/>
    <path fill="#9ACDED" d="M200.5679 191.7946h-57.02c-.552 0-1-.447-1-1 0-.553.448-1 1-1h57.02c.553 0 1 .447 1 1 0 .553-.447 1-1 1"/>
    <path fill="#FFF" d="M208.0767 224.3698H90.9407c-1.245 0-2.255-1.01-2.255-2.255V50.2378c0-1.245 1.01-2.255 2.255-2.255h117.136c1.246 0 2.255 1.01 2.255 2.255v171.877c0 1.245-1.009 2.255-2.255 2.255"/>
    <path fill="#9ACDED" d="M90.9404 48.9831c-.692 0-1.255.562-1.255 1.255v171.877c0 .692.563 1.255 1.255 1.255h117.136c.693 0 1.255-.563 1.255-1.255V50.2381c0-.693-.562-1.255-1.255-1.255H90.9404zm117.136 176.387H90.9404c-1.795 0-3.255-1.46-3.255-3.255V50.2381c0-1.795 1.46-3.255 3.255-3.255h117.136c1.795 0 3.255 1.46 3.255 3.255v171.877c0 1.795-1.46 3.255-3.255 3.255z"/>
    <path fill="#E1F2FF" d="M98.2915 204.0983l104.867 7.299V62.4433l-106.083-4.866"/>
    <path fill="#FFF" d="M169.4507 103.5934c0 12.916-10.471 23.387-23.387 23.387-12.917 0-23.387-10.471-23.387-23.387s10.47-23.388 23.387-23.388c12.916 0 23.387 10.472 23.387 23.388"/>
    <path fill="#FFF" d="M172.2876 98.8649c0 12.917-10.471 23.388-23.387 23.388-12.917 0-23.387-10.471-23.387-23.388 0-12.916 10.47-23.387 23.387-23.387 12.916 0 23.387 10.471 23.387 23.387"/>
    <path fill="#9ACDED" d="M148.9009 76.4782c-12.345 0-22.388 10.043-22.388 22.387 0 12.344 10.043 22.387 22.388 22.387 12.344 0 22.387-10.043 22.387-22.387 0-12.344-10.043-22.387-22.387-22.387m0 46.774c-13.447 0-24.388-10.94-24.388-24.387 0-13.448 10.941-24.387 24.388-24.387 13.447 0 24.387 10.939 24.387 24.387 0 13.447-10.94 24.387-24.387 24.387"/>
    <path fill="#9452BA" d="M154.7134 110.4001c.1.291.186.49.211.556.009.006-.008-.004 0 0 0 0 0 .002 0 0 .001.001-.001 0-.001 0-.66-6.374 2.954-9.03 4.116-13.263.006-.064.018-.132.037-.209.024-.095.043-.192.058-.29.173-1.172-.308-2.534-1.217-3.955-.003-.008-.01-.015-.014-.023-.074-.118-.154-.236-.235-.354 0 0-.003-.002-.003-.004-.149-.216-.308-.434-.475-.652-.018-.022-.034-.046-.052-.068-.046-.059-.096-.118-.141-.177-.049-.063-.097-.124-.145-.184-.051-.061-.1-.12-.15-.179-.051-.062-.102-.122-.154-.184-.035-.042-.074-.085-.112-.129-1.428-1.645-3.287-3.271-5.228-4.684 0 0-.015-.022 0 0 .257 2.398.29 4.797.063 6.715-.275 2.313-1.102 5.004-2.25 7.443-2.687-.219-5.434-.842-7.576-1.756-1.791-.765-3.842-1.972-5.803-3.404.021.2.045.397.068.596.007.059.016.118.024.178.018.141.036.282.057.424.008.065.018.13.028.196.021.142.042.284.065.425.01.056.018.114.028.171.03.18.06.357.092.535.002.018.005.036.009.052.036.206.076.411.117.616.001.015.006.029.01.046.037.184.074.364.113.545.009.038.017.075.024.111.038.166.076.33.114.495.01.031.017.062.024.097.047.188.093.377.143.563.001.001.001.003.001.003.159.598.333 1.176.521 1.729.002.008.005.014.006.021.319.926.683 1.778 1.088 2.524.06.109.12.216.182.32.003.003.003.008.005.011h.001c.055.095.112.189.168.278l.002.002s.005.007.007.009c.061.098.122.194.187.284v.001c.008.012.016.023.026.036.001.001 0 .003.001.004.081.118.166.232.249.341.016.018.029.036.043.052.005.007.01.013.015.022.096.121.196.24.299.349.07.079.142.153.215.226.031.03.063.058.094.087.045.043.091.084.137.125.034.03.07.056.106.086.043.037.089.071.133.106.036.028.07.052.107.077.047.034.092.065.139.096.035.022.072.044.109.066.048.029.099.056.147.084.035.019.07.037.104.053.056.028.113.052.171.076.027.011.057.026.086.037.087.035.176.064.264.088.06.019.11.037.158.056 4.256 1.124 8.399-.657 13.595 3.058"/>
    <path fill="#FFF" d="M119.1777 149.3268h60.299"/>
    <path fill="#9ACDED" d="M179.4771 150.3268h-60.299c-.553 0-1-.447-1-1 0-.553.447-1 1-1h60.299c.553 0 1 .447 1 1 0 .553-.447 1-1 1"/>
    <path fill="#FFF" d="M119.1777 168.7673h60.299"/>
    <path fill="#9ACDED" d="M179.4771 169.7673h-60.299c-.553 0-1-.447-1-1 0-.553.447-1 1-1h60.299c.553 0 1 .447 1 1 0 .553-.447 1-1 1"/>
    <path fill="#FFF" d="M119.1777 188.863h60.299"/>
    <path fill="#9ACDED" d="M179.4771 189.863h-60.299c-.553 0-1-.447-1-1 0-.553.447-1 1-1h60.299c.553 0 1 .447 1 1 0 .553-.447 1-1 1"/>
    <path fill="#9452BA" d="M76.2236 223.9958h4.979c1.712 0 3.266-1.048 3.886-2.644 1.767-4.55 1.327-8.731 1.538-12.307.391-6.625-.644-10.02-1.631-15.561l-7.474.173s.635 2.753 1.058 11.012c.132 2.555-4.091 12.818-3.893 17.853.033.826.711 1.474 1.537 1.474"/>
    <path fill="#52267D" d="M78.7065 194.6296c.228 1.511.595 4.584.872 9.988.061 1.183-.541 3.309-1.53 6.68-1.101 3.756-2.471 8.431-2.363 11.186.012.287.248.512.538.512h4.979c1.301 0 2.488-.805 2.954-2.006 1.294-3.333 1.344-6.412 1.393-9.39.014-.902.029-1.775.079-2.614.311-5.28-.3-8.438-1.074-12.436-.127-.657-.258-1.335-.39-2.046l-5.458.126zm2.496 30.366h-4.979c-1.368 0-2.482-1.069-2.536-2.433-.121-3.083 1.241-7.729 2.442-11.829.737-2.511 1.498-5.109 1.452-6.013-.411-8.019-1.029-10.814-1.035-10.841l-.27-1.192 9.553-.223.15.844c.182 1.015.364 1.958.539 2.861.769 3.973 1.433 7.403 1.106 12.934-.048.812-.061 1.656-.075 2.529-.05 3.007-.105 6.415-1.529 10.082-.762 1.963-2.698 3.281-4.818 3.281z"/>
    <path fill="#9452BA" d="M61.7295 200.3268l-6.012-6.817-3.712.147s-.521 5.671-.734 8.046c-.376 4.186-2.111 12.388-3.176 15.987-.347 1.171-.549 2.265-.604 3.257-.095 1.67 1.298 3.049 2.97 3.049h4.411c2.569 0 4.854-1.715 5.485-4.205 1.966-7.754 1.372-19.464 1.372-19.464"/>
    <path fill="#52267D" d="M52.9214 194.6218c-.154 1.684-.492 5.372-.654 7.171-.37 4.117-2.076 12.339-3.213 16.182-.323 1.09-.513 2.109-.565 3.028-.028.503.152.986.508 1.363.379.401.912.63 1.465.63h4.41c2.144 0 4.001-1.419 4.516-3.451 1.721-6.787 1.434-16.84 1.357-18.821l-5.463-6.196-2.361.094zm1.951 30.374h-4.41c-1.1 0-2.164-.458-2.918-1.256-.738-.78-1.111-1.792-1.052-2.849.061-1.073.277-2.246.644-3.485 1.089-3.679 2.785-11.851 3.139-15.793.213-2.375.735-8.048.735-8.048l.08-.873 5.063-.201 6.557 7.437.018.348c.025.485.578 11.95-1.402 19.761-.74 2.92-3.394 4.959-6.454 4.959z"/>
    <path fill="#52267D" d="M52.6602 205.9011l.294.265-.024-.502-.27.237zm.411.37l.215.194 1.154-.443-.113-.249-.799.189.013.288-.47.021zm.108.771l-1.271-1.147 1.203-1.056.33.375-.395.348 1.565-.371.505 1.106-1.937.745z"/>
    <path fill="#9452BA" d="M53.3115 174.9401c4.38-.09 8.484-3.105 17.42-3.518.13-.584.287-1.111.487-1.544 1.617-3.501 3.899-13.592 2.433-20.222l-1.16-5.245c-.38-1.721-.572-3.479-.572-5.242 0-.734.074-1.451.216-2.143.035-.173.075-.345.119-.515.131-.509.299-1.005.501-1.481.067-.159.138-.317.213-.472.149-.309.313-.611.491-.904.177-.292.369-.575.573-.849.612-.818 1.341-1.547 2.159-2.159.273-.204.557-.395.849-.573 1.608-.977 3.496-1.54 5.516-1.54h1.743c2.938 0 5.597 1.19 7.522 3.115.24.241.469.493.686.756.394.477.745.991 1.052 1.533.115.203.227.41.328.621.075.155.146.313.214.472.201.476.369.972.501 1.481.13.51.225 1.034.279 1.572.036.357.055.719.055 1.086 0 .733-.296 1.396-.776 1.875-.48.481-1.143.778-1.875.778h-10.891l1.649 9.452c1.935 9.71 1.353 16.203-.146 20.532-.334.965-2.236 4.385-2.236 4.385 5.446 8.593 13.796 12.349 22.725 13.438 7.592.928 23.979-5.995 15.53-14.002-8.449-8.008 1.76-3.029 3.263-2.015 1.503 1.013 10.193 8.521.762 19.538-3.988 4.659-8.505 8.894-19.375 12.141-1.743.52-11.255 1.212-16.375 2.681-15.246 4.377-27.64-.382-34.586-10.445-6.917-10.024-1.023-22.552.706-22.587"/>
    <path fill="#52267D" d="M53.4766 175.9362c-.481.376-1.812 2.456-2.597 5.869-.737 3.211-1.388 9.449 2.549 15.153 7.199 10.431 19.402 14.096 33.487 10.053 3.266-.937 8.256-1.562 11.899-2.019 2-.25 3.889-.488 4.466-.66 10.886-3.251 15.153-7.453 18.901-11.833 3.117-3.64 4.463-7.208 4.002-10.604-.537-3.954-3.476-6.722-4.562-7.454-.792-.534-3.036-1.613-4.442-2.075.424.527 1.158 1.334 2.425 2.535 3.279 3.107 2.951 5.918 2.099 7.728-2.519 5.348-12.956 8.662-18.438 7.993-10.53-1.286-18.419-5.96-23.449-13.896l-.318-.502.289-.519c.719-1.293 1.943-3.583 2.166-4.226 1.725-4.984 1.762-11.716.109-20.01l-1.857-10.647h12.08c.441 0 .855-.172 1.167-.485.313-.311.484-.726.484-1.168 0-.333-.017-.662-.05-.986-.048-.476-.133-.955-.253-1.423-.117-.457-.27-.908-.453-1.341-.061-.144-.126-.287-.194-.427-.092-.191-.193-.378-.297-.562-.282-.497-.603-.965-.953-1.39-.197-.238-.405-.466-.623-.686-1.82-1.819-4.24-2.821-6.814-2.821h-1.743c-1.767 0-3.494.482-4.997 1.394-.265.161-.521.335-.769.52-.742.554-1.4 1.214-1.957 1.957-.186.248-.359.505-.519.768-.161.266-.31.54-.446.821-.067.139-.131.282-.192.426-.184.434-.336.884-.453 1.341-.041.155-.077.311-.109.468-.129.633-.195 1.286-.195 1.941 0 1.688.184 3.378.549 5.026l1.16 5.245c1.515 6.854-.823 17.223-2.503 20.857-.153.334-.294.785-.417 1.342l-.166.747-.765.035c-5.028.232-8.546 1.327-11.372 2.207-2.136.665-3.988 1.243-5.929 1.308m22.819 34.642c-10.138 0-18.892-4.338-24.513-12.483-5.515-7.992-3.341-17.244-1.187-21.451 1.371-2.677 2.368-2.697 2.695-2.704 1.711-.035 3.393-.559 5.52-1.221 2.797-.871 6.245-1.944 11.133-2.255.11-.38.232-.712.367-1.005 1.537-3.328 3.764-13.257 2.365-19.587l-1.16-5.246c-.395-1.788-.596-3.625-.596-5.457 0-.789.079-1.578.236-2.343.039-.191.083-.379.131-.565.141-.552.326-1.097.548-1.622.074-.173.151-.345.232-.515.164-.339.344-.668.538-.989.194-.32.404-.63.627-.928.672-.898 1.466-1.692 2.362-2.362.298-.223.608-.432.927-.627 1.817-1.102 3.904-1.685 6.036-1.685h1.743c3.109 0 6.031 1.21 8.229 3.408.263.264.514.539.751.826.424.515.811 1.079 1.15 1.677.126.222.248.449.359.68.082.17.16.342.233.516.222.524.407 1.069.549 1.621.145.567.248 1.145.306 1.721.039.391.06.786.06 1.187 0 .976-.379 1.894-1.07 2.582-.689.691-1.606 1.071-2.581 1.071h-9.701l1.444 8.28c1.719 8.623 1.657 15.707-.186 21.031-.28.811-1.45 2.984-2.016 4.017 4.706 7.104 11.997 11.305 21.681 12.487 5.201.628 14.428-2.703 16.386-6.859.843-1.79.298-3.565-1.665-5.426-3.344-3.17-4.185-4.599-3.332-5.663 1.487-1.85 7.781 2.053 7.842 2.094 1.609 1.084 4.814 4.327 5.427 8.842.541 3.987-.961 8.082-4.464 12.175-3.794 4.432-8.451 9.043-19.849 12.448-.736.22-2.436.433-4.789.728-3.578.449-8.48 1.064-11.596 1.957-3.845 1.104-7.595 1.645-11.172 1.645"/>
    <path fill="#9452BA" d="M62.771 160.4694c.35-11.26-8.587-20.109-18.744-21.979-2.108-.388-2.795-1.05-5.101-1.05h-1.767c-5.951 0-10.776 4.825-10.776 10.776 0 1.483 1.203 2.687 2.686 2.687 0 0 18.119-.005 18.204-.013.002 0 1.477.001 1.478.001-.002.002-1.479.003-1.481.005 4.007 1.701 6.501 6.821 6.94 9.573.626 3.918.168 7.15-1.169 9.765-.891 1.741-.991 3.839-.854 5.538 0 0 .042.014.103.035.063.908.21 1.941.481 3.12 1.706-1.189 4.359-2.979 4.844-3.234 1.047-.553 3.41-1.811 4.468-2.416 6.759-3.875.489-6.404.688-12.808"/>
    <path fill="#52267D" d="M53.1455 175.0417l.096.032.046.664c.033.482.091.982.172 1.499 1.465-1.002 3.235-2.188 3.689-2.428.326-.172 3.222-1.704 4.438-2.4 3.429-1.966 2.939-3.05 1.756-5.67-.736-1.631-1.653-3.661-1.571-6.301.354-11.408-8.971-19.316-17.925-20.964-.864-.16-1.509-.362-2.078-.54-.876-.276-1.569-.494-2.843-.494h-1.766c-5.391 0-9.777 4.386-9.777 9.777 0 .929.757 1.686 1.687 1.686 6.136-.002 17.831-.007 18.179-.012l4.351.003-1.75 1.4c3.039 2.404 4.944 6.492 5.348 9.019.638 3.994.213 7.485-1.266 10.376-.701 1.372-.832 3.029-.786 4.353zm-1.018 5.554l-.332-1.445c-.206-.9-.355-1.774-.444-2.607l-.109-.037-.053-.654c-.193-2.406.13-4.449.961-6.074 1.282-2.506 1.642-5.585 1.072-9.151-.36-2.254-2.533-7.071-6.173-8.735-.763.002-4.052.006-17.98.01-2.033 0-3.687-1.653-3.687-3.686 0-6.493 5.283-11.777 11.777-11.777h1.766c1.581 0 2.485.285 3.442.585.54.169 1.097.345 1.84.482 9.774 1.8 19.952 10.47 19.563 22.994-.067 2.177.709 3.897 1.395 5.416 1.19 2.634 2.42 5.358-2.585 8.228-1.245.712-4.169 2.258-4.498 2.432-.385.203-2.821 1.833-4.74 3.171l-1.215.848z"/>
    <path fill="#F3E3FF" d="M57.0005 173.4802c-.089-1.739-.355-2.632-.16-3.34 1.123-4.073 1.488-5.358 1.488-9.671 0-4.285-2.483-8.52-6.148-10.773-.201-.123-2.84-.31-4.911 1.2 4.007 1.701 6.501 6.821 6.94 9.573.627 3.918.168 7.151-1.168 9.765-.891 1.741-.992 3.839-.855 5.538 0 0 4.916 1.846 4.814-2.292"/>
    <path fill="#52267D" d="M52.6621 175.403c.798.239 2.322.519 3.158-.08.472-.336.701-.95.681-1.824-.033-.647-.092-1.174-.141-1.617-.086-.78-.148-1.343-.001-1.875l.031-.111c1.105-4.011 1.439-5.222 1.439-9.427 0-4.079-2.32-8.14-5.91-10.347-.149-.03-1.93-.144-3.619.725 3.652 2.055 5.961 6.772 6.404 9.543.621 3.887.211 7.276-1.218 10.072-.812 1.587-.908 3.507-.824 4.941m1.756 1.277c-1.214 0-2.335-.413-2.407-.44l-.297-.111-.026-.317c-.128-1.588-.075-3.885.908-5.805 1.331-2.604 1.708-5.786 1.12-9.458-.457-2.867-3.02-7.655-6.642-9.193l-.812-.345.713-.519c2.166-1.577 5.025-1.49 5.466-1.223 3.881 2.386 6.388 6.781 6.388 11.2 0 4.341-.372 5.69-1.476 9.693l-.03.111c-.096.347-.045.805.031 1.499.051.461.111 1.01.146 1.683v.012c.031 1.232-.34 2.13-1.102 2.672-.575.409-1.293.541-1.98.541"/>
    <path fill="#FFF" d="M31.5044 139.2712s-.004-1.882 1.866-2.63c.571-.227 1.613-.652 1.613-.652s1.113 2.355-.148 2.95c-1.817.854-3.331.332-3.331.332"/>
    <path fill="#52267D" d="M32.0547 138.8815c.514.075 1.484.114 2.567-.395.513-.241.296-1.22.082-1.844-.351.142-.825.335-1.148.464-1.056.421-1.393 1.274-1.501 1.775m.624 1.048c-.784 0-1.299-.173-1.337-.186l-.336-.116-.001-.355c0-.091.02-2.232 2.18-3.095.57-.228 1.609-.651 1.609-.651l.439-.179.202.428c.08.168.771 1.684.385 2.759-.139.388-.406.685-.771.857-.894.421-1.723.538-2.37.538"/>
    <path fill="#FFF" d="M36.186 137.9479s.053-2.564 2.938-2.938c.538-.07 1.942-.036 1.942-.036s.648 2.713-.873 2.974c-1.87.32-4.007 0-4.007 0"/>
    <path fill="#52267D" d="M36.7568 137.5114c.722.071 2.11.157 3.352-.057.169-.028.286-.103.378-.244.274-.414.235-1.22.161-1.743-.483-.006-1.155-.002-1.46.038-1.737.225-2.269 1.36-2.431 2.006m1.56 1.079c-1.193 0-2.145-.14-2.205-.148l-.435-.065.009-.44c.022-1.035.755-3.084 3.374-3.424.56-.071 1.871-.044 2.018-.039l.385.01.089.374c.046.192.429 1.904-.23 2.903-.243.369-.605.604-1.044.68-.658.112-1.342.149-1.961.149"/>
    <path fill="#FFF" d="M41.9224 138.193s.38-2.844 2.935-2.062c1.091.334 1.697 1.164 1.697 1.164s-.508 2.166-1.525 1.921c-1.774-.424-3.107-1.023-3.107-1.023"/>
    <path fill="#52267D" d="M42.5044 137.8932c.508.202 1.481.56 2.641.837.043.011.083.008.146-.03.286-.176.562-.788.711-1.28-.217-.225-.663-.618-1.292-.81-.583-.18-1.047-.151-1.417.087-.449.288-.68.833-.789 1.196m2.683 1.843c-.091 0-.183-.012-.275-.033-1.799-.431-3.139-1.029-3.195-1.054l-.34-.152.049-.371c.009-.063.221-1.561 1.327-2.271.625-.4 1.38-.467 2.25-.202 1.236.379 1.926 1.307 1.955 1.346l.135.186-.052.224c-.039.166-.405 1.636-1.224 2.142-.199.122-.413.185-.63.185"/>
    <path fill="#FFF" d="M49.3408 151.9987s5.956-3.237 4.823-8.686c.791.652 2.905 2.638 3.671 3.655 0 1.066.196 5.302-5.653 8.138-1.028-1.066-1.895-2.397-2.841-3.107"/>
    <path fill="#52267D" d="M50.1782 152.0632c.42.408.824.896 1.243 1.405.282.343.572.694.871 1.024 4.972-2.558 5.048-6.084 5.043-7.352-.553-.69-1.649-1.776-2.531-2.592.07 3.928-3.239 6.578-4.626 7.515zm1.896 3.651l-.252-.261c-.415-.431-.8-.897-1.172-1.348-.556-.674-1.081-1.31-1.61-1.706l-.621-.467.682-.373c.056-.03 5.615-3.131 4.573-8.144l-.289-1.391 1.096.903c.845.696 2.965 2.694 3.753 3.74l.101.133v.167c.018 3.814-1.979 6.67-5.935 8.589l-.326.158z"/>
    <path fill="#F3E3FF" d="M32.0557 138.9704s-.002-1.099 1.089-1.535c.333-.133.941-.381.941-.381s.65 1.375-.086 1.722c-1.06.499-1.944.194-1.944.194m4.9819-1.377s.031-1.501 1.721-1.721c.315-.04 1.136-.02 1.136-.02s.38 1.589-.511 1.741c-1.095.187-2.346 0-2.346 0m5.5151.5147s.225-1.683 1.736-1.22c.645.198 1.004.688 1.004.688s-.301 1.281-.902 1.137c-1.05-.251-1.838-.605-1.838-.605m-1.2431 10.9912h-5.446c0-2.743 2.224-4.967 4.967-4.967h.479c1.371 0 2.483 1.113 2.483 2.484s-1.112 2.483-2.483 2.483"/>
    <path fill="#FFF" d="M40.8506 149.0055h-4.893c0-2.154 1.747-3.901 3.902-3.901h.991c1.078 0 1.951.873 1.951 1.951 0 1.077-.873 1.95-1.951 1.95"/>
    <path fill="#52267D" d="M36.4941 148.5055h4.356c.801 0 1.452-.65 1.452-1.45 0-.8-.651-1.451-1.452-1.451h-.991c-1.706 0-3.122 1.261-3.365 2.901m4.356 1h-5.393v-.5c0-2.427 1.975-4.401 4.402-4.401h.991c1.352 0 2.452 1.099 2.452 2.451 0 1.35-1.1 2.45-2.452 2.45"/>
    <path fill="#52267D" d="M36.8438 147.0026c0 .602.488 1.09 1.09 1.09.601 0 1.089-.488 1.089-1.09 0-.602-.488-1.09-1.089-1.09-.602 0-1.09.488-1.09 1.09m-8.0235 3.082c.31-.066.586-.238.784-.486l.365-.459-.814.174-.479.102c-.184.04-.301.222-.262.406.04.185.221.302.406.263"/>
    <path fill="#EAF3FB" d="M50.3472 152.1061s4.588-2.47 4.517-7.446c1.972 1.436 2.506 2.365 2.506 2.365s-.344 2.368-1.447 3.564c-1.694 1.835-3.459 2.4-5.576 1.517"/>
    <path fill="#FFF" d="M54.6904 151.2331s-1.809 1.84-3.574 2.723"/>
    <path fill="#52267D" d="M51.3403 154.403l-.447-.895c1.671-.835 3.423-2.608 3.441-2.626l.713.702c-.077.077-1.889 1.909-3.707 2.819"/>
    <path fill="#9452BA" d="M72.6816 170.5807l-1.022-2.017c-3.817-9.381-4.406-14.89-2.426-23.844l1.16-5.245c.38-1.721.572-3.479.572-5.242 0-5.874-4.762-10.636-10.637-10.636h-1.717c-5.794 0-10.491 4.697-10.491 10.491v.302c0 1.378 1.118 2.496 2.496 2.496h10.874l-1.649 9.452c-5.046 25.33-4.54 35.6 5.391 33.489"/>
    <path fill="#52267D" d="M62.897 181.0973c-1.878 0-3.373-.566-4.529-1.708-3.687-3.64-3.548-12.961.493-33.247l1.44-8.257h-9.684c-1.928 0-3.496-1.568-3.496-3.496v-.302c0-6.336 5.154-11.491 11.491-11.491h1.717c6.417 0 11.637 5.22 11.637 11.637 0 1.832-.201 3.669-.596 5.457l-1.16 5.245c-1.935 8.752-1.402 13.967 2.376 23.252l.988 1.941-1.784.905-1.022-2.017c-3.947-9.69-4.525-15.4-2.511-24.513l1.16-5.245c.364-1.647.549-3.338.549-5.025 0-5.314-4.323-9.637-9.637-9.637h-1.717c-5.234 0-9.491 4.258-9.491 9.491v.302c0 .825.671 1.496 1.496 1.496H62.68l-1.853 10.624c-2.678 13.441-4.892 27.667-1.054 31.457 1.121 1.107 2.839 1.396 5.251.882l.416 1.957c-.916.194-1.763.292-2.543.292"/>
    <path fill="#FFF" d="M53.3628 124.8552s.175-1.844 2.007-2.576c.558-.224 1.434.014 1.434.014s1.058 1.655-.178 2.236c-1.78.838-3.263.326-3.263.326"/>
    <path fill="#52267D" d="M53.9595 124.4753c.511.069 1.42.088 2.453-.398.207-.098.263-.214.289-.304.087-.3-.077-.754-.222-1.04-.294-.053-.693-.081-.924.01-1.023.409-1.435 1.228-1.596 1.732m.553 1.034c-.769 0-1.275-.169-1.313-.181l-.371-.128.037-.392c.008-.088.227-2.157 2.319-2.993.693-.279 1.645-.033 1.751-.004l.186.051.104.162c.072.113.696 1.127.437 2.026-.119.411-.404.734-.824.931-.878.413-1.692.528-2.326.528"/>
    <path fill="#FFF" d="M57.7246 124.2468s.061-2.903 3.328-3.327c.609-.079 1.391-.019 1.391-.019s1.541 3.051-.181 3.346c-2.118.363-4.538 0-4.538 0"/>
    <path fill="#52267D" d="M58.2847 123.8102c.795.081 2.434.194 3.893-.057.213-.036.284-.124.325-.205.219-.433-.067-1.444-.384-2.164-.265-.008-.667-.012-1.002.031-2.095.272-2.673 1.664-2.832 2.395m1.853 1.099c-1.346 0-2.42-.158-2.487-.168l-.435-.066.009-.439c.024-1.153.842-3.434 3.763-3.813.654-.084 1.461-.024 1.495-.02l.281.021.126.251c.112.222 1.075 2.193.506 3.322-.141.282-.438.638-1.049.743-.741.127-1.512.169-2.209.169"/>
    <path fill="#FFF" d="M63.5698 124.9079s.443-2.775 2.926-1.946c1.06.353 1.633 1.181 1.633 1.181s-.552 2.109-1.541 1.844c-1.727-.46-3.018-1.079-3.018-1.079"/>
    <path fill="#52267D" d="M64.1602 124.6237c.494.21 1.434.581 2.556.88.031.01.069.015.136-.025.281-.163.563-.75.722-1.224-.207-.226-.632-.617-1.237-.818-.565-.19-1.015-.172-1.383.049-.44.267-.678.785-.794 1.138m2.598 1.886c-.1 0-.201-.013-.3-.039-1.752-.467-3.05-1.086-3.105-1.112l-.336-.162.059-.368c.01-.061.255-1.528 1.36-2.198.624-.377 1.37-.427 2.218-.144 1.205.403 1.859 1.332 1.886 1.372l.131.189-.058.222c-.07.265-.456 1.608-1.258 2.074-.19.11-.393.166-.597.166"/>
    <path fill="#F3E3FF" d="M53.54 174.6042c.62-.464 1.248-.732 1.787-.861"/>
    <path fill="#52267D" d="M53.8394 175.0046l-.599-.801c.613-.458 1.294-.785 1.971-.947l.232.973c-.38.09-.967.298-1.604.775"/>
    <path fill="#F3E3FF" d="M57.1406 174.5475c-1.777-7.223 1.429-21.03 2.019-24.429l2.334-13.615h1.023c1.296 0 2.278 1.409 2.094 2.694l-1.692 11.81c-.572 3.999-1.168 22.515 5.78 26.491 1.482.849 3.892.292 4.799-.141 3.303-1.578 4.253-5.695 4.976-9.014 1.499-6.87.332-12.263 0-17.648l-.348-6.737c-.063-1.218.906-2.51 2.123-2.51h1.241l2.236 13.616c.673 3.877 2.403 17.322-5.519 23.625-.143.114 1.926.577 1.327 1.637-2.383 4.212-9.288 4.878-10.588 6.682-5.007 6.944-.318 21.741-.318 21.741s-5.557-2.218-8.999-5.303c-8.047-7.212-9.068-17.658-9.105-20.733-.045-3.679.922-5.961 2.112-7.323"/>
    <path fill="#52267D" d="M69.4233 209.6052l-.981-.391c-.23-.092-5.679-2.287-9.147-5.395-8.676-7.776-9.246-18.941-9.272-21.1-.04-3.337.712-5.914 2.235-7.658l.753.658c-1.337 1.532-2.025 3.948-1.988 6.989.016 1.278.398 12.71 8.939 20.367 2.49 2.231 6.162 4.021 7.888 4.796-.976-3.53-3.687-15.085.69-21.155.587-.815 1.938-1.347 3.648-2.021 2.465-.972 5.533-2.182 6.91-4.614.058-.104.044-.148.038-.164-.075-.235-.652-.501-.87-.601-.282-.131-.525-.243-.563-.553l-.033-.277.225-.189c7.626-6.066 6.014-19.252 5.338-23.148l-2.168-13.2h-.817c-.373 0-.747.177-1.052.498-.379.399-.598.969-.571 1.486l.348 6.737c.075 1.223.194 2.452.315 3.698.416 4.281.846 8.709-.326 14.082-.704 3.227-1.667 7.648-5.249 9.358-.936.446-3.561 1.099-5.263.124-7.456-4.266-6.511-23.613-6.027-26.996l1.692-11.81c.077-.533-.109-1.134-.485-1.568-.311-.357-.706-.555-1.114-.555h-.602l-2.262 13.201c-.081.461-.208 1.111-.365 1.91-.949 4.839-3.173 16.172-1.661 22.314l-.971.239c-1.565-6.357.607-17.426 1.651-22.746.155-.79.281-1.432.36-1.887l2.405-14.031h1.445c.702 0 1.366.32 1.869.901.569.656.838 1.54.72 2.365l-1.692 11.81c-.665 4.65-.97 22.263 5.534 25.986 1.27.727 3.485.246 4.335-.159 3.14-1.499 4.044-5.644 4.704-8.669 1.137-5.22.715-9.568.307-13.773-.122-1.258-.243-2.498-.319-3.738l-.348-6.742c-.041-.793.275-1.625.845-2.226.495-.522 1.127-.809 1.777-.809h1.666l2.305 14.034c.682 3.932 2.276 17.032-5.133 23.619.402.214.847.527 1.002 1.008.07.218.107.561-.12.963-1.55 2.741-4.801 4.022-7.414 5.052-1.433.565-2.787 1.099-3.203 1.675-4.802 6.66-.293 21.153-.247 21.298l.319 1.007z"/>
    <path fill="#FFF" d="M122.4551 180.571s1.143-1.266.5-2.966c-.196-.518-.902-.965-.902-.965s-1.782.311-1.408 1.513c.539 1.73 1.81 2.418 1.81 2.418"/>
    <path fill="#52267D" d="M121.9482 177.1794c-.279.08-.665.244-.803.473-.041.066-.08.167-.022.352.3.962.846 1.557 1.208 1.864.234-.424.499-1.18.157-2.086-.079-.207-.339-.448-.54-.603zm.614 4.019l-.345-.188c-.06-.032-1.456-.807-2.049-2.709-.131-.42-.088-.825.124-1.172.458-.75 1.552-.96 1.675-.981l.189-.033.164.102c.086.055.855.555 1.103 1.211.742 1.963-.542 3.417-.597 3.478l-.264.292z"/>
    <path fill="#F3E3FF" d="M122.0767 178.8122s.401-.444.176-1.04c-.069-.183-.317-.339-.317-.339s-.625.109-.493.53c.189.607.634.849.634.849"/>
    <path fill="#FFF" d="M113.0947 189.6393s-1.086-2.477 1.508-4.113c.484-.306 1.168-.561 1.168-.561s2.496 1.974 1.157 2.898c-1.647 1.135-3.833 1.776-3.833 1.776"/>
    <path fill="#52267D" d="M115.6792 185.5417c-.226.096-.554.245-.81.407-1.6 1.01-1.582 2.368-1.443 3.056.715-.248 2.107-.787 3.217-1.553.153-.106.176-.198.179-.274.015-.437-.602-1.157-1.143-1.636zm-2.866 4.701l-.176-.402c-.436-.993-.641-3.261 1.699-4.737.521-.33 1.23-.595 1.26-.607l.264-.098.221.174c.297.236 1.779 1.468 1.741 2.637-.011.301-.124.729-.611 1.064-1.693 1.168-3.884 1.819-3.976 1.845l-.422.124z"/>
    <path fill="#F3E3FF" d="M113.9985 188.7077s-.602-1.374.836-2.281c.268-.169.648-.311.648-.311s1.384 1.095.641 1.607c-.913.63-2.125.985-2.125.985"/>
    <path fill="#FFF" d="M121.0127 181.527s1.88 1.651.077 3.128c-.771.631-1.666.669-1.666.669s-1.326-1.417-.657-2.036c1.167-1.083 2.246-1.761 2.246-1.761"/>
    <path fill="#52267D" d="M120.937 182.1804c-.4.278-1.101.797-1.83 1.474-.033.327.253.804.519 1.138.269-.051.733-.186 1.146-.524.396-.323.592-.657.6-1.02.008-.422-.235-.816-.435-1.068zm-1.721 3.653l-.157-.168c-.169-.18-1.01-1.124-.98-1.971.011-.305.131-.573.348-.774 1.187-1.101 2.274-1.788 2.32-1.817l.315-.198.281.246c.042.038 1.049.935 1.028 2.11-.011.667-.336 1.266-.965 1.78-.889.729-1.918.781-1.961.783l-.229.009z"/>
    <path fill="#F3E3FF" d="M120.7393 182.6979s.833.731.034 1.385c-.342.279-.738.297-.738.297s-.587-.628-.291-.903c.517-.479.995-.779.995-.779"/>
    <path fill="#FFF" d="M104.0728 190.9421s-.62-2.205 1.807-3.08c2.426-.875 3.078-.148 3.078-.148s1.342 2.26.143 2.987c-1.199.727-5.028.241-5.028.241"/>
    <path fill="#52267D" d="M104.5024 190.488c1.447.152 3.637.211 4.339-.215.605-.366-.001-1.736-.267-2.222-.155-.082-.824-.334-2.526.282-1.473.531-1.591 1.607-1.546 2.155m2.077 1.114c-1.213 0-2.351-.136-2.57-.164l-.328-.042-.09-.318c-.258-.918-.147-2.869 2.119-3.687 2.612-.941 3.474-.173 3.62-.01.65 1.076 1.311 2.971.029 3.748-.61.37-1.723.473-2.78.473"/>
    <path fill="#F3E3FF" d="M105.2114 190.4411s-.322-1.146.94-1.602c1.262-.455 1.601-.076 1.601-.076s.698 1.175.074 1.553c-.624.378-2.615.125-2.615.125"/>
    <path fill="#FFF" d="M60.9639 139.8239s3.874 2.19 9.318.213c-.373 1.689-1.135 5.084-1.135 5.084s-5.044 1.547-8.935-.901c.398-2.242.752-4.396.752-4.396"/>
    <path fill="#52267D" d="M60.7637 143.9675c3.106 1.766 6.918 1.005 7.961.749.159-.704.567-2.528.879-3.929-3.959 1.179-6.994.284-8.254-.233-.125.746-.344 2.044-.586 3.413m4.747 2.142c-1.707 0-3.744-.321-5.565-1.467l-.286-.179.06-.332c.398-2.237.751-4.389.751-4.389l.115-.703.623.349c.036.019 3.758 2.047 8.903.179l.855-.311-.196.889c-.374 1.689-1.136 5.085-1.136 5.085l-.063.283-.278.086c-.118.036-1.706.51-3.783.51"/>
    <path fill="#FFF" d="M89.9434 129.9831s-.176-1.857-2.022-2.596c-.563-.225-2.084-.287-2.084-.287s-.427 1.968.818 2.554c1.793.844 3.288.329 3.288.329"/>
    <path fill="#52267D" d="M86.2764 127.6266c-.031.502.018 1.305.592 1.575 1.045.492 1.965.473 2.479.402-.161-.509-.575-1.337-1.612-1.752-.268-.108-.919-.184-1.459-.225m2.51 3.012c-.639 0-1.459-.116-2.343-.533-1.588-.746-1.115-3.015-1.095-3.112l.09-.41.419.017c.165.006 1.625.072 2.25.323 2.105.842 2.325 2.924 2.334 3.013l.037.391-.372.128c-.038.013-.547.183-1.32.183"/>
    <path fill="#FFF" d="M85.2603 129.0339s-.053-2.531-2.9-2.9c-.531-.069-1.213-.016-1.213-.016s-1.343 2.659.158 2.916c1.846.316 3.955 0 3.955 0"/>
    <path fill="#52267D" d="M81.4731 126.6022c-.259.604-.495 1.446-.32 1.794.021.04.058.114.237.144 1.223.211 2.585.128 3.299.057-.162-.637-.688-1.747-2.393-1.968-.271-.036-.595-.034-.823-.027m1.684 3.073c-.611 0-1.286-.037-1.936-.148-.559-.096-.831-.423-.961-.681-.499-.992.279-2.635.441-2.954l.126-.251.281-.021c.031-.003.742-.057 1.316.017 2.59.336 3.315 2.361 3.336 3.386l.009.44-.435.065c-.059.009-.999.147-2.177.147"/>
    <path fill="#FFF" d="M79.8667 129.2175s-.446-2.797-2.948-1.961c-1.068.357-1.645 1.19-1.645 1.19s.556 2.125 1.552 1.859c1.741-.464 3.041-1.088 3.041-1.088"/>
    <path fill="#52267D" d="M75.8286 128.5593c.16.479.445 1.072.729 1.237.067.039.105.035.14.026 1.133-.302 2.083-.678 2.58-.89-.117-.356-.358-.883-.808-1.153-.369-.224-.824-.239-1.392-.048-.611.203-1.04.599-1.249.828m.827 2.269c-.206 0-.41-.056-.601-.167-.807-.47-1.195-1.822-1.265-2.087l-.058-.223.131-.188c.027-.041.686-.976 1.898-1.381.852-.287 1.603-.237 2.231.144 1.112.674 1.359 2.15 1.369 2.212l.059.368-.337.162c-.054.027-1.362.65-3.128 1.12-.099.027-.2.04-.299.04"/>
    <path fill="#F3E3FF" d="M54.2026 124.4714s.099-1.041 1.134-1.455c.316-.127.811.008.811.008s.597.934-.101 1.263c-1.006.473-1.844.184-1.844.184m4.4366-.6114s.04-1.908 2.186-2.187c.4-.051.915-.011.915-.011s1.012 2.004-.12 2.198c-1.391.238-2.981 0-2.981 0m5.7314.875s.282-1.767 1.862-1.238c.675.225 1.039.752 1.039.752s-.351 1.34-.981 1.173c-1.099-.293-1.92-.687-1.92-.687m24.7754 4.8555s-.098-1.035-1.126-1.446c-.314-.126-1.162-.159-1.162-.159s-.238 1.095.456 1.422c.999.47 1.832.183 1.832.183m-4.8667-.9248s-.031-1.467-1.68-1.681c-.308-.04-.703-.008-.703-.008s-.778 1.54.091 1.689c1.07.184 2.292 0 2.292 0m-5.1982.4424s-.264-1.654-1.744-1.16c-.632.211-.973.704-.973.704s.329 1.257.919 1.1c1.029-.275 1.798-.644 1.798-.644"/>
    <path fill="#FFF" d="M72.5381 144.6198s4.796.748 9.358-.371c.444 2.478.73 4.35.73 4.35s-3.164 2.148-9.009.902c-.689-3.184-1.079-4.881-1.079-4.881"/>
    <path fill="#52267D" d="M74.0366 149.0759c4.427.864 7.205-.305 8.042-.74-.092-.584-.299-1.874-.583-3.482-3.439.742-6.858.508-8.313.351.166.734.457 2.04.854 3.871m3.125 1.315c-1.073 0-2.291-.112-3.649-.401l-.316-.067-.068-.317c-.688-3.177-1.077-4.873-1.078-4.874l-.165-.719.73.113c.046.007 4.754.719 9.161-.362l.517-.127.095.524c.445 2.485.731 4.362.731 4.362l.048.312-.261.178c-.105.071-2.086 1.378-5.745 1.378"/>
    <path fill="#F3E3FF" d="M79.27 139.8024h6.646v-2.865c0-1.16-.94-2.101-2.101-2.101H79.27c-.708 0-1.282.574-1.282 1.282v2.402c0 .708.574 1.282 1.282 1.282"/>
    <path fill="#FFF" d="M79.9863 139.7096h5.836v-1.887c0-1.113-.901-2.015-2.014-2.015h-3.822c-.557 0-1.007.451-1.007 1.007v1.887c0 .557.45 1.008 1.007 1.008"/>
    <path fill="#52267D" d="M79.9863 136.3073c-.28 0-.507.228-.507.508v1.887c0 .28.227.507.507.507h5.336v-1.386c0-.836-.679-1.516-1.514-1.516h-3.822zm6.336 3.902h-6.336c-.831 0-1.507-.676-1.507-1.507v-1.887c0-.831.676-1.508 1.507-1.508h3.822c1.386 0 2.514 1.129 2.514 2.516v2.386z"/>
    <path fill="#52267D" d="M84.9365 138.5534c0 .602-.488 1.09-1.089 1.09-.602 0-1.09-.488-1.09-1.09 0-.603.488-1.09 1.09-1.09.601 0 1.089.487 1.089 1.09"/>
    <path fill="#F3E3FF" d="M61.6284 135.0944h-5.446c0-2.743 2.224-4.967 4.967-4.967h.479c1.371 0 2.483 1.113 2.483 2.484s-1.112 2.483-2.483 2.483"/>
    <path fill="#FFF" d="M61.1694 135.0007h-4.893c0-2.154 1.747-3.901 3.902-3.901h.991c1.078 0 1.951.873 1.951 1.951 0 1.077-.873 1.95-1.951 1.95"/>
    <path fill="#52267D" d="M56.813 134.5007h4.356c.801 0 1.452-.65 1.452-1.45 0-.8-.651-1.451-1.452-1.451h-.991c-1.706 0-3.122 1.261-3.365 2.901m4.356 1h-5.393v-.5c0-2.427 1.975-4.401 4.402-4.401h.991c1.352 0 2.452 1.099 2.452 2.451 0 1.35-1.1 2.45-2.452 2.45"/>
    <path fill="#52267D" d="M57.1626 133.8444c0 .603.488 1.09 1.09 1.09.601 0 1.089-.487 1.089-1.09 0-.602-.488-1.089-1.089-1.089-.602 0-1.09.487-1.09 1.089m35.3145 7.0908c-.31-.066-.587-.238-.784-.485l-.365-.46.813.174.479.103c.185.039.302.222.263.406-.04.185-.221.302-.406.262m-42.0059-5.0957c.31-.066.586-.238.784-.486l.365-.459-.814.174-.479.103c-.184.039-.302.221-.262.405.04.185.221.303.406.263"/>
    <path fill="#EAF3FB" d="M61.4287 140.5309s4.058 1.729 8.152.149c-.429 2.402-.812 3.627-.812 3.627s-2.463.145-4.093-.176c-2.33-.459-3.247-1.518-3.247-3.6"/>
    <path fill="#FFF" d="M67.0752 143.61s-3.693.308-6.552-1.175"/>
    <path fill="#52267D" d="M66.2153 144.1384c-1.311 0-3.811-.164-5.922-1.259l.46-.888c2.692 1.395 6.246 1.125 6.281 1.121l.082.996c-.044.004-.378.03-.901.03"/>
    <path fill="#EAF3FB" d="M80.1387 145.1608s-3.6 1.023-6.776.389c.6 2.364.918 3.105.918 3.105s4.764-.635 5.858-3.494"/>
    <path fill="#F3E3FF" d="M78.207 178.7399s-.218.157-.527.344"/>
    <path fill="#52267D" d="M77.8096 179.2975l-.259-.428c.297-.178.507-.33.51-.333l.293.407s-.225.162-.544.354"/>
    <path fill="#FFF" d="M80.4858 146.5221s-3.624.687-7.47.229"/>
    <path fill="#52267D" d="M75.8237 147.4098c-.902 0-1.875-.045-2.867-.163l.118-.992c3.72.438 7.283-.218 7.318-.224l.186.983c-.112.021-2.131.396-4.755.396"/>
    <path fill="#FFF" d="M74.5474 221.0729s-.961-.783-2.239.266c-1.167.959-2.045 2.44-1.522 2.589.524.149 1.444.293 2.411.117.842-.155 1.585.007 1.923-1.753.157-.821-.573-1.219-.573-1.219"/>
    <path fill="#52267D" d="M73.6563 221.0427c-.32 0-.728.111-1.189.489-1.031.848-1.661 1.954-1.582 2.186.236.047 1.19.279 2.268.081.115-.022.229-.036.34-.052.676-.092 1.123-.152 1.382-1.502.12-.626-.426-.94-.449-.953l-.035-.023c-.02-.016-.295-.226-.735-.226m-1.377 3.333c-.755 0-1.351-.147-1.561-.207-.169-.048-.287-.177-.324-.353-.128-.618.822-1.903 1.756-2.67 1.306-1.074 2.362-.406 2.532-.284.31.176.833.699.684 1.477-.327 1.703-1.079 1.806-1.805 1.903-.104.015-.211.03-.319.049-.336.062-.663.085-.963.085"/>
    <path fill="#EAF3FB" d="M74.3286 221.3581s-.598-.487-1.394.166c-.726.597-1.272 1.519-.946 1.611.325.092.898.183 1.5.073.524-.097.986.004 1.196-1.091.098-.511-.356-.759-.356-.759"/>
    <path fill="#FFF" d="M75.9116 221.0554c.508-.068 1.239 1.035 1.155 1.371-.083.336-.141 1.446-.963 1.567-.605.089-2.765.314-3.236-.155-.435-.432.416-2.431 3.044-2.783"/>
    <path fill="#52267D" d="M75.958 221.3024c-.005 0-.009 0-.013.001-1.847.247-2.678 1.317-2.879 1.91-.089.266-.053.417-.022.448.303.3 1.95.242 3.024.085.481-.071.621-.641.715-1.17.015-.085.028-.157.041-.211.011-.109-.188-.537-.506-.845-.166-.162-.294-.218-.36-.218m-1.615 3.076c-.686 0-1.367-.08-1.652-.363-.201-.2-.237-.551-.098-.961.317-.942 1.456-2.002 3.285-2.247.347-.036.683.228.898.469.263.293.621.857.534 1.211-.012.044-.022.105-.035.176-.083.47-.256 1.449-1.134 1.577-.157.024-.98.138-1.798.138"/>
    <path fill="#EAF3FB" d="M76.0537 221.361c.3-.04.731.61.682.809-.049.199-.083.854-.568.925-.358.052-1.632.185-1.91-.091-.256-.256.246-1.435 1.796-1.643"/>
    <path fill="#FFF" d="M78.0601 221.2702s-.438-.229-1.307.268c-.767.438-1.913 1.14-1.611 2.012.301.872 2.726.548 3.264.364.539-.185.878-.772.782-1.286-.207-1.12-1.128-1.358-1.128-1.358"/>
    <path fill="#52267D" d="M77.7588 221.4684c-.175 0-.468.05-.882.286-.863.494-1.717 1.084-1.499 1.714.207.601 2.318.424 2.947.209.41-.141.693-.6.618-1.003-.174-.941-.915-1.154-.947-1.163l-.045-.017c-.008-.003-.072-.026-.192-.026m-1.038 2.915c-.806 0-1.613-.166-1.816-.751-.382-1.107 1.041-1.921 1.724-2.311.867-.499 1.384-.342 1.518-.287.162.05 1.07.376 1.287 1.548.12.645-.305 1.348-.946 1.568-.251.086-1.008.233-1.767.233"/>
    <path fill="#EAF3FB" d="M78.2251 221.5788s-.26-.136-.774.158c-.455.261-1.133.676-.955 1.193.179.516 1.615.324 1.934.214.319-.109.519-.457.463-.76-.123-.663-.668-.805-.668-.805"/>
    <path fill="#9452BA" d="M67.9219 193.4567s.494 5.617-.934 14.447c-1.33 8.22-3.687 10.798-3.513 12.93.134 1.65.83 3.162 2.486 3.162h4.941c2.307 0 4.34-1.473 5.082-3.657.597-1.759 1.219-4.153 1.589-7.179.38-4.116.299-8.244.231-10.669"/>
    <path fill="#52267D" d="M70.9019 224.9958h-4.941c-1.974 0-3.276-1.525-3.483-4.081-.092-1.131.339-2.244.935-3.784.776-2.005 1.838-4.75 2.588-9.387 1.392-8.607.93-14.144.925-14.199l1.992-.176c.021.234.489 5.844-.943 14.694-.783 4.844-1.935 7.82-2.697 9.789-.519 1.341-.861 2.226-.807 2.901.083 1.023.409 2.243 1.49 2.243h4.941c1.869 0 3.53-1.197 4.135-2.979.715-2.106 1.235-4.454 1.544-6.978.352-3.816.304-7.629.223-10.52l1.999-.056c.083 2.947.131 6.837-.234 10.789-.329 2.69-.879 5.173-1.638 7.408-.881 2.594-3.303 4.336-6.029 4.336"/>
    <path fill="#9452BA" d="M93.2539 197.1725c-1.636 1.409-2.485 3.716-2.472 5.835.017 2.83 1.659 6.433.618 11.135-.927 4.189-2.772 4.928-2.216 8.686.1.679.709 1.167 1.395 1.167h5.505c2.534 0 4.704-1.838 5.118-4.337 1.106-6.675.261-12.976-.629-17.811"/>
    <path fill="#52267D" d="M96.084 224.9958h-5.505c-1.19 0-2.215-.869-2.385-2.021-.378-2.556.244-3.912.964-5.481.431-.939.92-2.005 1.265-3.567.644-2.909.188-5.388-.214-7.577-.216-1.176-.421-2.288-.427-3.336-.015-2.559 1.065-5.088 2.82-6.599l1.304 1.516c-1.322 1.138-2.136 3.082-2.124 5.071.005.872.185 1.852.394 2.987.415 2.257.931 5.066.2 8.369-.392 1.771-.951 2.991-1.4 3.97-.66 1.437-1.095 2.385-.803 4.355.026.175.204.313.406.313h5.505c2.058 0 3.795-1.472 4.131-3.5 1.088-6.563.237-12.782-.625-17.468l1.967-.361c.892 4.845 1.77 11.287.631 18.155-.497 2.998-3.063 5.174-6.104 5.174"/>
    <path fill="#52267D" d="M94.5586 204.4401l-1.878-.925 1.867-1.493.791.265-.159.474-.532-.178-1.04.831.92.454.537-.344-.351-.079-.232.167-.292-.406.415-.298 1.741.391"/>
    <path fill="#FFF" d="M64.5537 221.0729s-.961-.783-2.239.266c-1.167.959-2.045 2.44-1.522 2.589.523.149 1.444.293 2.411.117.842-.155 1.585.007 1.923-1.753.157-.821-.573-1.219-.573-1.219"/>
    <path fill="#52267D" d="M61.1851 223.5104c.401.086 1.129.189 1.929.042.119-.021.238-.038.352-.054.629-.085.945-.128 1.169-1.3.088-.458-.317-.684-.321-.687l-.072-.047c-.079-.058-.705-.483-1.61.261-.758.622-1.291 1.398-1.447 1.785m1.09 1.116c-.747 0-1.343-.138-1.619-.217-.259-.074-.445-.276-.5-.543-.17-.816.998-2.221 1.841-2.915 1.228-1.005 2.368-.648 2.836-.295.39.231.957.83.785 1.729-.334 1.738-1.111 1.981-2.017 2.104-.101.014-.203.028-.307.047-.358.066-.702.09-1.019.09"/>
    <path fill="#EAF3FB" d="M64.3345 221.3581s-.598-.487-1.393.166c-.727.597-1.273 1.519-.947 1.611.325.092.898.183 1.5.073.524-.097.986.004 1.196-1.091.099-.511-.356-.759-.356-.759"/>
    <path fill="#52267D" d="M72.5254 209.3561l-2.342-.171-.319-2.233 2.172-.676.148.476-1.765.551.202 1.413 1.69.122.655-.755-.847-.47-.516.149.369.41-.372.334-.901-1.002 1.481-.43 1.568.87"/>
    <g fill="#F3E3FF">
      <path d="M30.4761 147.1432c-.364 0-.661-.297-.661-.661h.25c0 .226.184.411.411.411.227 0 .411-.185.411-.411h.25c0 .364-.297.661-.661.661"/>
      <path d="M29.4043 147.1432c-.364 0-.661-.297-.661-.661h.25c0 .226.184.411.411.411.227 0 .411-.185.411-.411h.25c0 .364-.296.661-.661.661"/>
      <path d="M29.9404 147.6794c-.365 0-.661-.297-.661-.661h.25c0 .226.184.411.411.411.227 0 .411-.185.411-.411h.25c0 .364-.297.661-.661.661m20.9449-1.4551c-.168 0-.334-.047-.48-.138l.131-.213c.152.094.331.124.502.083.173-.04.32-.145.414-.296.093-.151.122-.329.082-.501-.04-.173-.146-.321-.296-.414l.132-.212c.207.129.352.331.408.568.055.238.015.483-.114.691-.129.207-.331.352-.569.408-.069.016-.14.024-.21.024"/>
      <path d="M51.1396 147.3112c-.165 0-.331-.044-.481-.137l.132-.213c.311.194.722.098.915-.213.193-.312.098-.722-.213-.916l.131-.212c.428.266.56.831.295 1.259-.173.279-.473.432-.779.432m25.4771 17.5127c-.465 0-.844-.379-.844-.844h.25c0 .327.267.594.594.594.327 0 .594-.267.594-.594h.25c0 .465-.379.844-.844.844"/>
      <path d="M75.1792 164.8239c-.465 0-.844-.379-.844-.844h.25c0 .327.267.594.594.594.327 0 .594-.267.594-.594h.25c0 .465-.379.844-.844.844"/>
      <path d="M75.8979 165.5427c-.465 0-.844-.379-.844-.844h.25c0 .327.267.594.594.594.327 0 .594-.267.594-.594h.25c0 .465-.379.844-.844.844m-20.7456 44.8125c-.465 0-.844-.379-.844-.844h.25c0 .327.267.594.594.594.327 0 .594-.267.594-.594h.25c0 .465-.379.844-.844.844"/>
      <path d="M53.7148 210.3552c-.465 0-.844-.379-.844-.844h.25c0 .327.267.594.594.594.327 0 .594-.267.594-.594h.25c0 .465-.379.844-.844.844"/>
      <path d="M54.4336 211.0739c-.465 0-.844-.379-.844-.844h.25c0 .327.267.594.594.594.327 0 .594-.267.594-.594h.25c0 .465-.379.844-.844.844m21.1406-69.083c-.504 0-.915-.41-.915-.915h.25c0 .367.299.665.665.665.366 0 .665-.298.665-.665h.25c0 .505-.411.915-.915.915"/>
      <path d="M74.7847 142.78c-.504 0-.915-.41-.915-.914h.25c0 .366.298.664.665.664.366 0 .665-.298.665-.664h.25c0 .504-.411.914-.915.914m-9.1343 13.3271c-.598 0-1.084-.486-1.084-1.085h.25c0 .46.374.835.834.835.46 0 .834-.375.834-.835h.25c0 .599-.486 1.085-1.084 1.085"/>
      <path d="M64.6909 157.0661c-.598 0-1.084-.486-1.084-1.084h.25c0 .46.374.834.834.834.46 0 .834-.374.834-.834h.25c0 .598-.486 1.084-1.084 1.084M51.395 131.9323c-.423 0-.767-.344-.767-.767h.25c0 .286.232.517.517.517.285 0 .517-.231.517-.517h.25c0 .423-.344.767-.767.767"/>
      <path d="M50.7529 132.5739c-.423 0-.767-.344-.767-.767h.25c0 .286.232.517.517.517.285 0 .517-.231.517-.517h.25c0 .423-.344.767-.767.767m60.9688 63.6826c-.245 0-.489-.104-.66-.305l.191-.162c.219.26.607.291.865.071.258-.218.291-.607.072-.865l.19-.162c.308.364.263.91-.1 1.219-.162.137-.361.204-.558.204"/>
      <path d="M111.6353 197.2975c-.245 0-.489-.104-.66-.305l.191-.162c.219.26.608.29.865.071.125-.105.202-.253.215-.416.014-.164-.037-.323-.143-.448l.191-.162c.149.177.22.401.201.63-.019.23-.126.438-.302.588-.162.137-.361.204-.558.204m-29.0572-10.9961c-.118 0-.235-.021-.348-.063-.249-.093-.445-.277-.555-.518l.227-.104c.082.181.23.318.415.387.186.07.387.062.568-.018.372-.171.536-.612.367-.984l.227-.103c.227.497.007 1.086-.491 1.313-.131.061-.27.09-.41.09"/>
      <path d="M81 187.0212c-.117 0-.234-.021-.347-.063-.249-.093-.446-.277-.556-.518l.228-.104c.082.181.23.318.415.387.185.07.386.063.568-.019.18-.082.317-.23.386-.416.07-.186.063-.387-.019-.568l.227-.103c.11.241.119.51.027.758-.093.249-.277.446-.518.556-.131.06-.271.09-.411.09"/>
      <path d="M82.1504 187.4499c-.377 0-.738-.216-.905-.581l.228-.104c.169.372.61.536.983.369.371-.171.536-.612.366-.984l.228-.103c.226.497.007 1.087-.491 1.313-.133.061-.272.09-.409.09"/>
      <path d="M80.5713 188.1696c-.117 0-.234-.021-.347-.063-.249-.093-.446-.277-.556-.518l.228-.104c.082.181.23.318.415.387.185.07.386.062.568-.019.18-.082.317-.23.386-.416.07-.186.063-.387-.02-.568l.228-.103c.11.241.119.51.027.758-.093.249-.277.446-.518.556-.131.06-.271.09-.411.09m2.727-.291c-.377 0-.738-.216-.904-.58l.227-.104c.17.372.609.535.983.368.372-.171.537-.612.367-.984l.227-.103c.227.497.007 1.087-.49 1.313-.133.061-.273.09-.41.09m-15.729-49.2256c-.551 0-1-.448-1-1h.25c0 .413.337.75.75.75s.75-.337.75-.75h.25c0 .552-.449 1-1 1m-.3032 33.0518c-.551 0-1-.448-1-.999h.25c0 .413.337.749.75.749s.75-.336.75-.749h.25c0 .551-.449.999-1 .999m9.7007-18.4317c-.435 0-.788-.354-.788-.787h.25c0 .296.241.537.538.537.296 0 .538-.241.538-.537h.25c0 .433-.354.787-.788.787m15.6133-15.2226c-.343 0-.622-.279-.622-.622h.25c0 .205.167.372.372.372s.372-.167.372-.372h.25c0 .343-.279.622-.622.622m4.4985 73.33c-.204 0-.402-.063-.573-.183-.218-.154-.364-.383-.409-.646l.246-.043c.034.197.143.369.307.484.164.117.365.163.56.126.407-.071.681-.46.61-.867l.246-.043c.095.543-.27 1.062-.813 1.156-.058.01-.116.016-.174.016m-24.061 6.6758c-.598 0-1.084-.486-1.084-1.084h.25c0 .46.374.834.834.834.46 0 .835-.374.835-.834h.25c0 .598-.487 1.084-1.085 1.084"/>
      <path d="M72.0581 219.0163c-.598 0-1.084-.486-1.084-1.085h.25c0 .46.374.835.834.835.46 0 .834-.375.834-.835h.25c0 .599-.486 1.085-1.084 1.085"/>
    </g>
    <path fill="#FFF" d="M65.9175 221.0554c.508-.068 1.239 1.035 1.156 1.371-.084.336-.142 1.446-.963 1.567-.606.089-2.765.314-3.237-.155-.435-.432.417-2.431 3.044-2.783"/>
    <path fill="#52267D" d="M65.9575 221.5544c-1.53.213-2.218 1.008-2.444 1.341-.223.33-.262.586-.245.652.197.119 1.565.129 2.769-.049.316-.046.427-.522.505-.965.017-.091.031-.169.046-.228-.034-.139-.427-.682-.631-.751m-1.583 3.077c-.753 0-1.511-.098-1.854-.438-.271-.271-.329-.714-.159-1.219.317-.941 1.421-2.138 3.489-2.414.373-.054.753.14 1.118.549.276.307.71.956.59 1.437-.011.042-.02.098-.031.162-.087.487-.289 1.624-1.344 1.781-.34.049-1.073.142-1.809.142"/>
    <path fill="#EAF3FB" d="M66.0601 221.361c.3-.04.731.61.682.809-.05.199-.084.854-.569.925-.357.052-1.631.185-1.909-.091-.257-.256.245-1.435 1.796-1.643"/>
    <path fill="#FFF" d="M67.7217 221.5983s-.388-.203-1.156.236c-.678.389-1.692 1.009-1.425 1.781.267.771 2.411.484 2.887.321.477-.163.776-.682.692-1.137-.184-.99-.998-1.201-.998-1.201"/>
    <path fill="#52267D" d="M67.4546 222.0514c-.103 0-.314.03-.641.217-.332.19-1.343.77-1.2 1.183.186.26 1.7.2 2.252.012.252-.087.399-.374.362-.573-.122-.658-.626-.807-.631-.808l-.078-.026c-.011-.002-.032-.005-.064-.005m-.916 2.573c-.804 0-1.64-.178-1.871-.846-.413-1.196.98-1.994 1.649-2.377.83-.475 1.371-.353 1.569-.277.424.126 1.141.586 1.326 1.584.131.713-.318 1.46-1.022 1.7-.17.059-.896.216-1.651.216"/>
    <path fill="#EAF3FB" d="M67.8672 221.8708s-.229-.119-.684.141c-.402.229-1.002.597-.844 1.053.158.457 1.427.287 1.71.191.282-.097.459-.404.409-.673-.109-.587-.591-.712-.591-.712"/>
    <path fill="#FFF" d="M47.4429 221.8122s-.388-.203-1.156.236c-.678.389-1.691 1.009-1.425 1.781.267.771 2.411.484 2.888.321.476-.163.776-.682.691-1.137-.184-.99-.998-1.201-.998-1.201"/>
    <path fill="#52267D" d="M47.1758 222.2653c-.103 0-.314.03-.64.217-.333.19-1.344.769-1.201 1.183.186.26 1.701.201 2.253.012.252-.087.399-.374.361-.573-.122-.658-.626-.807-.631-.808l-.078-.026c-.011-.002-.032-.005-.064-.005m-.915 2.573c-.804 0-1.64-.178-1.871-.846-.414-1.197.979-1.995 1.649-2.377.83-.474 1.37-.352 1.568-.277.424.126 1.141.586 1.326 1.584.132.712-.317 1.459-1.021 1.7-.17.059-.897.216-1.651.216"/>
    <path fill="#EAF3FB" d="M47.5889 222.0846s-.229-.119-.685.141c-.401.23-1.001.597-.843 1.053.157.457 1.427.287 1.709.191.282-.097.46-.404.41-.673-.109-.587-.591-.712-.591-.712"/>
    <path fill="#FFF" d="M49.7886 221.2692c.508-.068 1.239 1.035 1.156 1.371-.084.336-.142 1.446-.963 1.567-.606.089-2.765.314-3.237-.155-.435-.432.417-2.431 3.044-2.783"/>
    <path fill="#52267D" d="M49.8286 221.7682c-1.53.213-2.218 1.008-2.444 1.341-.223.33-.262.586-.245.652.196.119 1.565.129 2.769-.049.316-.046.427-.522.505-.965.017-.091.031-.169.046-.228-.034-.139-.427-.682-.631-.751m-1.583 3.077c-.753 0-1.511-.098-1.854-.438-.271-.271-.329-.714-.159-1.219.317-.941 1.421-2.138 3.489-2.414.373-.055.753.14 1.118.549.276.307.71.956.59 1.437-.011.042-.02.098-.031.162-.087.487-.289 1.624-1.344 1.781-.34.049-1.073.142-1.809.142"/>
    <path fill="#EAF3FB" d="M49.9312 221.5749c.299-.04.731.61.682.809-.05.199-.084.854-.569.925-.357.052-1.631.185-1.909-.091-.257-.256.245-1.435 1.796-1.643"/>
    <path fill="#FFF" d="M91.2832 221.0729s-.961-.783-2.239.266c-1.167.959-2.045 2.44-1.522 2.589.523.149 1.444.293 2.411.117.842-.155 1.585.007 1.923-1.753.157-.821-.573-1.219-.573-1.219"/>
    <path fill="#52267D" d="M90.3916 221.0427c-.32 0-.728.111-1.188.489-1.032.848-1.661 1.954-1.583 2.186.237.047 1.191.28 2.268.081.116-.022.23-.036.341-.052.676-.092 1.122-.152 1.381-1.502.121-.634-.442-.949-.447-.952l-.037-.025c-.022-.017-.296-.225-.735-.225m-1.377 3.333c-.755 0-1.351-.147-1.561-.207-.169-.048-.287-.177-.323-.353-.129-.618.822-1.904 1.755-2.67 1.305-1.073 2.363-.405 2.532-.284.31.176.833.699.684 1.477-.327 1.703-1.078 1.806-1.805 1.903-.104.015-.21.03-.318.049-.337.062-.663.085-.964.085"/>
    <path fill="#EAF3FB" d="M91.064 221.3581s-.598-.487-1.393.166c-.726.597-1.273 1.519-.947 1.611.325.092.899.183 1.5.073.524-.097.986.004 1.197-1.091.098-.511-.357-.759-.357-.759"/>
    <path fill="#FFF" d="M92.6475 221.0554c.508-.068 1.239 1.035 1.155 1.371-.083.336-.141 1.446-.963 1.567-.605.089-2.765.314-3.236-.155-.435-.432.416-2.431 3.044-2.783"/>
    <path fill="#52267D" d="M92.6938 221.3024c-.005 0-.009 0-.013.001-1.847.247-2.678 1.317-2.879 1.91-.089.266-.053.417-.022.448.302.3 1.95.242 3.024.085.481-.071.621-.641.715-1.17.015-.085.028-.157.041-.211.011-.109-.188-.537-.506-.845-.166-.162-.294-.218-.36-.218m-1.615 3.076c-.686 0-1.367-.08-1.652-.363-.201-.2-.237-.551-.098-.961.317-.942 1.456-2.002 3.285-2.247.35-.036.683.228.898.469.263.293.621.857.534 1.211-.012.044-.022.105-.035.176-.083.47-.256 1.449-1.134 1.577-.157.024-.98.138-1.798.138"/>
    <path fill="#EAF3FB" d="M92.7896 221.361c.3-.04.731.61.682.809-.05.199-.084.854-.568.925-.358.052-1.632.185-1.91-.091-.257-.256.245-1.435 1.796-1.643"/>
    <path fill="#FFF" d="M94.4512 221.5983s-.388-.203-1.156.236c-.678.389-1.691 1.009-1.425 1.781.267.771 2.411.484 2.888.321.476-.163.776-.682.691-1.137-.184-.99-.998-1.201-.998-1.201"/>
    <path fill="#52267D" d="M94.1846 221.8024c-.149 0-.404.043-.765.249-.753.432-1.498.945-1.313 1.481.175.504 2.037.349 2.57.167.349-.12.591-.51.527-.854-.153-.824-.809-1.003-.815-1.005l-.047-.017c-.011-.004-.063-.021-.157-.021m-.909 2.575c-.726 0-1.458-.15-1.641-.681-.346-1 .925-1.729 1.537-2.079.772-.443 1.24-.307 1.366-.254.151.046.963.341 1.157 1.39.109.584-.275 1.221-.856 1.419-.222.076-.89.205-1.563.205"/>
    <path fill="#EAF3FB" d="M94.5972 221.8708s-.23-.119-.685.141c-.401.229-1.001.597-.843 1.053.157.457 1.427.287 1.709.191.282-.097.46-.404.41-.673-.109-.587-.591-.712-.591-.712"/>
    <path fill="#FFF" d="M56.458 221.7438c.159-.134.349-.171.505-.098.583.276 2.057 1.058 1.753 2.117-.237.825-.741.577-1.704.594l-.726.014c-.151.003-.284-.075-.367-.213-.418-.698-.191-1.797.489-2.371l.05-.043z"/>
    <path fill="#52267D" d="M56.7686 222.1071l.014.017-.05.043c-.496.419-.677 1.244-.384 1.734l.654-.044c.218-.004.411.005.585.013.572.024.57.025.648-.246.19-.663-1.05-1.318-1.467-1.517m1.084 2.771c-.105 0-.209-.005-.31-.009-.155-.007-.328-.018-.521-.012l-.727.014c-.305.037-.63-.163-.804-.456-.541-.904-.268-2.282.594-3.01l.051-.043c.308-.26.706-.322 1.04-.169 2.144 1.014 2.186 2.131 2.021 2.707-.247.859-.812.978-1.344.978"/>
    <path fill="#EAF3FB" d="M56.5327 221.9811c.116-.098.253-.125.368-.071.424.2 1.494.768 1.273 1.538-.173.599-.538.419-1.238.431l-.528.01c-.109.002-.206-.054-.266-.154-.304-.508-.14-1.306.355-1.723l.036-.031z"/>
    <path fill="#FFF" d="M53.0483 221.4274s-.891-.861-2.253.075c-1.245.857-2.245 2.258-1.737 2.451.509.193 1.414.415 2.393.321.851-.082 1.578.142 2.064-1.583.227-.804-.467-1.264-.467-1.264"/>
    <path fill="#52267D" d="M49.4854 223.571c.393.12 1.112.288 1.917.205.122-.012.241-.018.356-.023.634-.032.952-.047 1.276-1.198.126-.447-.258-.709-.262-.711l-.067-.053c-.073-.065-.664-.537-1.627.124-.808.555-1.405 1.284-1.593 1.656m1.485 1.226c-.976.001-1.763-.252-2.089-.375-.251-.096-.419-.314-.452-.583-.1-.829 1.183-2.129 2.082-2.748 1.31-.898 2.416-.445 2.85-.054.37.263.884.908.636 1.79-.48 1.704-1.276 1.88-2.189 1.925-.101.005-.204.009-.309.02-.181.018-.358.025-.529.025"/>
    <path fill="#EAF3FB" d="M52.8062 221.694s-.555-.537-1.402.047c-.775.532-1.397 1.404-1.081 1.524.316.12.88.259 1.489.2.53-.051.982.088 1.285-.985.141-.501-.291-.786-.291-.786"/>
    <path fill="#FFF" d="M186.8286 224.3698H62.6946c-1.245 0-2.255-1.01-2.255-2.255V40.0928c0-1.246 1.01-2.255 2.255-2.255h124.134c1.245 0 2.255 1.009 2.255 2.255v182.022c0 1.245-1.01 2.255-2.255 2.255"/>
    <path fill="#375D81" d="M62.6948 38.8376c-.692 0-1.255.562-1.255 1.255v182.022c0 .693.563 1.255 1.255 1.255h124.134c.692 0 1.255-.562 1.255-1.255V40.0926c0-.693-.563-1.255-1.255-1.255H62.6948zm124.134 186.532H62.6948c-1.795 0-3.255-1.46-3.255-3.255V40.0926c0-1.795 1.46-3.255 3.255-3.255h124.134c1.795 0 3.255 1.46 3.255 3.255v182.022c0 1.795-1.46 3.255-3.255 3.255z"/>
    <path fill="#EFEFF6" d="M180.2114 202.9323l-110.899 7.719V53.1283l112.185-5.145"/>
    <path fill="#FFF" d="M145.8511 96.6462c0 13.659-11.073 24.732-24.732 24.732-13.66 0-24.733-11.073-24.733-24.732 0-13.659 11.073-24.732 24.733-24.732 13.659 0 24.732 11.073 24.732 24.732"/>
    <path fill="#FFF" d="M148.8511 91.6462c0 13.659-11.073 24.732-24.732 24.732-13.66 0-24.733-11.073-24.733-24.732 0-13.659 11.073-24.732 24.733-24.732 13.659 0 24.732 11.073 24.732 24.732"/>
    <path fill="#375D81" d="M124.1187 67.9138c-13.086 0-23.732 10.646-23.732 23.732 0 13.086 10.646 23.733 23.732 23.733 13.086 0 23.732-10.647 23.732-23.733s-10.646-23.732-23.732-23.732m0 49.465c-14.189 0-25.732-11.544-25.732-25.733 0-14.188 11.543-25.732 25.732-25.732 14.188 0 25.732 11.544 25.732 25.732 0 14.189-11.544 25.733-25.732 25.733"/>
    <path fill="#9452BA" d="M130.2661 103.8444c.104.308.195.519.223.588.008.007-.009-.004 0 0 0 0 0 .002 0 0 .001.001-.001 0-.001 0-.699-6.74 3.124-9.549 4.352-14.026.006-.067.019-.139.039-.221.026-.1.046-.203.062-.307.182-1.238-.325-2.68-1.286-4.181-.004-.009-.011-.017-.016-.025-.078-.125-.163-.25-.248-.375 0 0-.003-.002-.004-.004-.157-.228-.326-.459-.503-.689-.018-.024-.035-.049-.054-.072-.049-.063-.101-.125-.149-.188-.052-.066-.102-.131-.153-.194-.054-.064-.106-.126-.158-.189-.055-.065-.109-.13-.165-.195-.037-.044-.078-.09-.118-.136-1.51-1.74-3.476-3.459-5.528-4.954 0 0-.015-.023 0 0 .272 2.536.306 5.073.066 7.102-.29 2.445-1.165 5.291-2.379 7.872-2.842-.233-5.747-.892-8.012-1.859-1.893-.808-4.063-2.085-6.137-3.598.023.211.048.419.072.629.008.062.017.125.025.188.02.149.038.299.061.449.009.069.019.138.03.206.022.152.044.301.069.45.009.06.019.122.029.182.031.19.063.377.098.565.002.019.004.038.009.055.038.219.08.435.123.651.002.016.007.032.01.049.04.195.079.385.121.577.009.04.018.078.025.117.039.175.08.348.121.523.009.033.018.067.025.102.05.2.099.399.15.596.002.001.002.003.002.003.168.633.352 1.244.551 1.83.002.007.005.014.007.021.337.979.721 1.881 1.15 2.67.063.114.127.227.192.337.003.004.003.009.006.013l.001.001c.059.099.119.198.178.292l.002.002s.005.007.007.01c.064.104.13.204.197.3v.001c.01.014.018.025.029.038.001.001-.001.003 0 .004.087.125.176.246.264.361.017.019.032.038.045.056.005.007.011.013.016.021.102.129.207.255.316.372.074.083.151.161.228.237.032.032.067.062.099.093.048.046.097.088.145.132.037.032.074.06.112.091.046.038.094.075.141.113.037.028.075.053.114.081.049.035.097.067.146.1.037.024.076.048.114.07.053.032.106.06.157.089.037.021.073.039.109.057.06.028.12.054.182.081.028.01.06.026.09.037.093.038.186.069.279.095.064.018.117.038.168.058 4.5 1.189 8.882-.695 14.377 3.234"/>
    <path fill="#FFF" d="M93.5347 145.3688h63.768"/>
    <path fill="#375D81" d="M157.3022 146.3688h-63.768c-.552 0-1-.447-1-1 0-.553.448-1 1-1h63.768c.553 0 1 .447 1 1 0 .553-.447 1-1 1"/>
    <path fill="#FFF" d="M93.001 165.569h63.767"/>
    <path fill="#375D81" d="M156.7681 166.569h-63.767c-.552 0-1-.447-1-1 0-.553.448-1 1-1h63.767c.553 0 1 .447 1 1 0 .553-.447 1-1 1"/>
    <path fill="#FFF" d="M93.001 186.821h63.767"/>
    <path fill="#375D81" d="M156.7681 187.821h-63.767c-.552 0-1-.447-1-1 0-.553.448-1 1-1h63.767c.553 0 1 .447 1 1 0 .553-.447 1-1 1"/>
    <g transform="translate(218 21.445)">
      <mask id="b" fill="#fff">
        <use xlink:href="#a"/>
      </mask>
      <path fill="#375D81" d="M1.6968 9.5547c-.553 0-1-.447-1-1v-7c0-.553.447-1 1-1 .553 0 1 .447 1 1v7c0 .553-.447 1-1 1" mask="url(#b)"/>
    </g>
    <path fill="#375D81" d="M223.1968 27.4997h-7c-.553 0-1-.447-1-1 0-.553.447-1 1-1h7c.553 0 1 .447 1 1 0 .553-.447 1-1 1M13.2217 185.1667c-.276 0-.5-.224-.5-.5v-3.937c0-.277.224-.5.5-.5s.5.223.5.5v3.937c0 .276-.224.5-.5.5"/>
    <path fill="#375D81" d="M15.1904 183.1979h-3.938c-.276 0-.499-.224-.499-.5s.223-.5.499-.5h3.938c.276 0 .5.224.5.5s-.224.5-.5.5m226.0982-16.749c-.276 0-.5-.224-.5-.5v-3.937c0-.277.224-.5.5-.5s.5.223.5.5v3.937c0 .276-.224.5-.5.5"/>
    <path fill="#375D81" d="M243.2573 164.4802h-3.938c-.276 0-.499-.224-.499-.5s.223-.5.499-.5h3.938c.276 0 .5.224.5.5s-.224.5-.5.5M42.7993 50.4518c-.276 0-.5-.224-.5-.5v-3.937c0-.277.224-.5.5-.5s.5.223.5.5v3.937c0 .276-.224.5-.5.5"/>
    <path fill="#375D81" d="M44.7681 48.4831h-3.938c-.276 0-.499-.224-.499-.5s.223-.5.499-.5h3.938c.276 0 .5.224.5.5s-.224.5-.5.5"/>
    <path fill="#FFF" d="M25.3506 92.5837v8.125"/>
    <path fill="#375D81" d="M25.3506 101.7087c-.552 0-1-.447-1-1v-8.125c0-.553.448-1 1-1s1 .447 1 1v8.125c0 .553-.448 1-1 1"/>
    <path fill="#FFF" d="M29.4131 96.6462h-8.125"/>
    <path fill="#375D81" d="M29.4131 97.6462h-8.125c-.552 0-1-.447-1-1 0-.553.448-1 1-1h8.125c.552 0 1 .447 1 1 0 .553-.448 1-1 1"/>
    <path fill="#FFF" d="M95.3823 233.445h67.186"/>
    <path fill="#375D81" d="M162.5679 234.445h-67.186c-.552 0-1-.447-1-1 0-.553.448-1 1-1h67.186c.553 0 1 .447 1 1 0 .553-.447 1-1 1"/>
    <path fill="#FFF" d="M171.187 233.445h9.141"/>
    <path fill="#375D81" d="M180.3276 234.445h-9.141c-.552 0-1-.447-1-1 0-.553.448-1 1-1h9.141c.553 0 1 .447 1 1 0 .553-.447 1-1 1"/>
    <path fill="#FFF" d="M87.5 233.3698l-5 .075"/>
    <path fill="#375D81" d="M82.4995 234.445c-.545 0-.991-.437-1-.985-.008-.552.433-1.006.985-1.015l5-.075h.016c.545 0 .991.437.999.985.009.552-.432 1.006-.984 1.015l-5 .075h-.016z"/>
    <path fill="#FFF" d="M195.3198 224.3698h44"/>
    <path fill="#375D81" d="M239.3198 225.3698h-44c-.553 0-1-.447-1-1 0-.553.447-1 1-1h44c.553 0 1 .447 1 1 0 .553-.447 1-1 1"/>
    <path fill="#FFF" d="M246.1665 224.1286h6.974"/>
    <g transform="translate(245 222.445)">
      <mask id="d" fill="#fff">
        <use xlink:href="#c"/>
      </mask>
      <path fill="#375D81" d="M8.1401 2.6836h-6.974c-.552 0-1-.447-1-1 0-.553.448-1 1-1h6.974c.553 0 1 .447 1 1 0 .553-.447 1-1 1" mask="url(#d)"/>
    </g>
    <path fill="#FFF" d="M3 224.1286h8.973"/>
    <path fill="#375D81" d="M11.9731 225.1286h-8.973c-.552 0-1-.447-1-1 0-.553.448-1 1-1h8.973c.552 0 1 .447 1 1 0 .553-.448 1-1 1"/>
  </g>
</svg>
