<?xml version="1.0" encoding="UTF-8"?>
<svg width="487px" height="274px" viewBox="0 0 487 274" version="1.1" xmlns="http://www.w3.org/2000/svg" xmlns:xlink="http://www.w3.org/1999/xlink">
    <!-- Generator: Sketch 64 (93537) - https://sketch.com -->
    <title>illus-may-20</title>
    <desc>Created with Sketch.</desc>
    <g id="illus-may-20" stroke="none" stroke-width="1" fill="none" fill-rule="evenodd">
        <path d="M326.99526,140.000094 C329.025884,139.979696 330.451779,138.375474 330.554245,135.996466 C330.943256,126.959326 330.450341,108.094079 330.408276,104.829548 C330.371964,102.036721 330.586603,98.0017181 327.326746,97.919386 C324.112191,97.8374133 322.074735,100.833735 320.306927,102.853573 C318.309379,105.136587 310.872147,113.213783 310.872147,113.213783 C310.872147,113.213783 302.490429,104.893904 300.263502,102.511301 C298.132928,100.231882 296.792241,98.2584229 293.718262,98.0732648 C291.119221,97.917229 289.964771,100.138404 289.833903,102.533591 C289.730358,104.426156 290.067597,125.588798 290.101752,129.441519 C290.136627,133.430861 290.675922,136.3071 293.574091,136.28373 C296.620386,136.258203 297.882336,133.870925 298.050596,131.266492 C298.286088,127.618702 297.899233,112.968224 297.899233,112.968224 C297.899233,112.968224 306.015978,122.165715 310.929671,122.236542 C315.377054,122.301257 320.516893,114.375782 322.424557,112.625591 C322.673712,114.855395 322.478847,135.055935 322.983987,136.777364 C323.512855,138.584361 324.711527,140.02248 326.99526,140.000094 Z M386.189502,130.634948 C386.280822,127.217977 386.181952,119.047303 386.171166,118.161063 C386.819757,117.454587 396.637437,106.751745 398.219727,104.256609 C399.149111,102.790447 399.891181,99.976767 396.781608,98.5041327 C395.073841,97.6951886 392.987849,98.0284729 391.417783,99.9720911 C388.833842,103.170108 384.112137,108.457354 382.116028,110.424341 C380.119919,108.457354 375.397855,103.170109 372.813915,99.9720917 C371.243489,98.0284735 369.157856,97.6951892 367.45009,98.5041315 C364.340517,99.9771252 365.082227,102.790446 366.011971,104.256608 C367.648192,106.836953 378.095768,118.199532 378.095768,118.199532 C378.095768,118.199532 378.347798,129.585481 378.295667,131.940401 C378.219446,135.360608 378.434085,139.913693 382.056707,139.998182 C386.941638,140.111794 386.075172,134.881354 386.189502,130.634948 Z M369.928328,139.577531 C371.546212,138.858472 372.991522,135.843455 371.84606,133.585248 C367.651426,125.316064 365.938627,120.820144 363.75664,116.447543 C361.101154,111.126861 356.819154,99.3698779 352.011881,99.3698779 C346.798699,99.3698779 344.659138,105.353892 342.933395,110.26399 C340.754644,116.460485 338.248362,122.557751 336.008851,128.908485 C335.113622,131.447844 333.965284,135.081252 335.878342,136.718191 C336.725753,137.443362 339.275179,137.933401 340.806417,136.641251 C342.724149,135.023367 344.915842,128.462308 344.915842,128.462308 L360.012856,128.296565 C360.012856,128.296565 363.447444,135.38074 364.377548,137.136324 C365.819622,139.858683 367.715422,140.560845 369.928328,139.577531 Z M347.5778,120.402371 C348.49496,117.883864 350.993333,110.815149 351.712392,108.597929 C352.50947,110.214016 356.045085,118.243394 357.063633,120.400573 C354.606967,120.460615 349.580021,120.400573 347.5778,120.402371 Z" id="Ma" fill="#5563B6" fill-rule="nonzero"></path>
        <g id="Group" transform="translate(33.000000, 53.000000)">
            <path d="M70.0599375,156.569329 C69.4685791,150.843276 73.2530881,142.6535 81.4134646,132 L87.4594456,132 C97.8459592,143.320931 101.780625,152.185365 99.2634429,158.593301 C96.8368527,164.77062 91.9579581,170.075276 84.626759,174.50727 L84.626747,174.50725 C84.1670816,174.785136 83.5699935,174.650243 83.2744328,174.201738 C81.5330167,171.559189 79.881021,169.312402 78.3184459,167.461377 C75.7420273,164.409355 70.9469751,165.158408 70.0599375,156.569329 Z" id="Rectangle" stroke="#5563B6" stroke-width="4" fill="#5563B6" stroke-linejoin="round"></path>
            <path d="M87.8997352,158 C88.0610594,153.517048 88.0277079,150.015245 87.7996805,147.494592 C87.5716532,144.973938 86.9717597,141.475741 86,137" id="Line-24" stroke="#FFFFFF" stroke-width="3" stroke-linecap="round"></path>
            <path d="M23.4793498,72.8060825 C28.6569804,70.7894369 35.1738821,72.5567025 43.0300549,78.1078793 L47,99.7094778 C34.4108934,107.212484 24.8865894,110.612557 18.427088,109.909696 C12.3385625,109.247201 6.5317945,106.188406 1.00678409,100.733309 L1.00677866,100.733315 C0.613772701,100.345282 0.609741183,99.7121248 0.99777401,99.3191188 C1.06985874,99.2461102 1.15274956,99.1846296 1.24353614,99.1368357 C3.02149761,98.2008405 4.53239539,96.8678597 5.77622949,95.1378933 C8.06270898,91.9577806 15.7129038,75.831051 23.4793498,72.8060825 Z" id="Rectangle" stroke="#5563B6" stroke-width="4" fill="#5563B6" stroke-linejoin="round"></path>
            <path d="M24,96 C26.944804,92.0122598 29.4374704,89.4801537 31.4779994,88.4036817 C33.5185284,87.3272097 36.6925286,86.8698908 41,87.0317252" id="Line-24" stroke="#FFFFFF" stroke-width="3" stroke-linecap="round"></path>
            <path d="M59.6299038,0 C61.776792,0 80.9800032,7.82027525 86.6707629,13.9534734 C90.4646028,18.0422722 89.6239141,24.057781 84.1486969,32 L60.7766276,32 C55.8325376,27.4228929 53.2461395,23.0530866 53.0174335,18.8905811 C52.6743745,12.6468228 57.4830157,0 59.6299038,0 Z" id="Rectangle" stroke="#5563B6" stroke-width="4" fill="#5563B6"></path>
            <path d="M69,20 C71.7122269,21.9115582 73.5484648,23.587524 74.5087137,25.0278974 C75.4689626,26.4682708 76.2993914,28.792305 77,32" id="Line-24" stroke="#FFFFFF" stroke-width="3" stroke-linecap="round"></path>
            <path d="M24.5553631,41.3895907 C25.7341621,39.5540398 33.3775439,40.5487569 36.5493883,39.626251 C43.8006337,37.5172834 51.3672373,29.6377731 64.4908913,29.2733964 C68.6111879,29.1589969 74.1324521,33.1977283 81.0546838,41.3895907 C79.8664016,32.2366273 82.7768732,25.3604226 89.7860986,20.7609764 C92.7752501,18.7994985 98.408574,15.7429862 101.402902,11.9016296 C103.577607,9.11174823 102.943292,5 105.771299,5 C107.437703,5 111.334045,11.4314215 118.008878,14.4047519 C122.704592,16.4964759 135.636421,27.0522922 136.855226,38.3459843 C137.343347,42.8690028 134.123291,50.0262484 127.195058,59.817721 C133.50943,54.3095398 141.810778,52.9570992 152.099103,55.7603993 C167.53159,59.9653494 178,80.1502582 178,82.1448824 C178,84.1395067 173.347372,85.9985923 168.808405,89.0664781 C164.768838,91.7968199 157.37317,106.455754 152.099103,108.545769 C149.11337,109.728959 145.409758,109.728959 140.988269,108.545769 C144.544545,111.297672 146.771249,116.239671 147.668382,123.371765 C149.014081,134.069906 140.883183,156.406575 133.074804,160.600377 C129.970543,162.267645 130.474052,158.406455 122.337913,154.773975 C114.201773,151.141495 105.771299,150.836396 97.0951884,145.463541 C91.311115,141.881638 90.1890157,131.294765 93.7288905,113.702922 C88.7081466,131.318136 83.1126842,141.484268 76.9425034,144.201318 C72.0709008,146.346537 65.6381449,146.236009 52.8970496,144.201318 C47.7522517,143.379719 44.8679574,149.374055 42.5488611,149.374055 C40.2297647,149.374055 37.2024424,144.555882 34.9912967,135.898858 C32.6853211,126.870559 34.3516591,102.399505 42.5488611,94.2225293 C48.0136624,88.7712124 53.7175625,85.7128432 59.6605614,85.0474216 C48.1838416,87.0475803 40.4801172,85.6071095 36.5493883,80.7260091 C33.9052334,77.4425504 31.3742935,72.8657166 28.6383831,61.9714559 C28.0663517,59.6936547 24.1742964,55.3832982 23.1686233,50.1185381 C22.6533816,47.4212164 23.376564,43.2251415 24.5553631,41.3895907 Z" id="Rectangle" stroke="#5563B6" stroke-width="5" fill="#FFFFFF" stroke-linejoin="round"></path>
            <path d="M105.522262,30.533281 C111.623281,29.3478608 115.863555,29.5670083 118.243083,31.1907237 C120.622612,32.814439 122.943678,37.7522988 125.206283,46.0043032" id="Line" stroke="#E1F2FF" stroke-width="4" stroke-linecap="round" transform="translate(115.364272, 37.893618) rotate(49.000000) translate(-115.364272, -37.893618) "></path>
            <path d="M144.345524,79.8969876 C150.112739,81.4628818 154.18589,82.9931354 156.564979,84.4877482 C158.944067,85.9823609 162.299303,88.8994013 166.630688,93.2388693" id="Line" stroke="#E1F2FF" stroke-width="4" stroke-linecap="round" transform="translate(155.488106, 86.567928) rotate(-77.000000) translate(-155.488106, -86.567928) "></path>
            <path d="M111.749905,111.404359 C109.609721,113.9914 108.247713,116.734974 107.663878,119.635079 C106.777759,124.036738 109.412576,128.476853 109.47099,132.784559 C109.551606,138.729557 103.620539,141.922513 105.428168,142.926745 C108.702856,144.746005 118.233178,147.182559 124.474616,145.74161 C128.635574,144.780977 132.346089,143.166247 135.60616,140.897418" id="Line" stroke="#E1F2FF" stroke-width="4" stroke-linecap="round" transform="translate(120.345698, 128.791214) rotate(-77.000000) translate(-120.345698, -128.791214) "></path>
            <path d="M52.3301602,112.961208 C53.6739199,122.383467 55.8316538,128.028485 58.8033617,129.896262 C61.7750697,131.764039 69.055038,131.886211 80.6432667,130.262778" id="Line" stroke="#E1F2FF" stroke-width="4" stroke-linecap="round" transform="translate(66.486713, 122.178172) rotate(-58.000000) translate(-66.486713, -122.178172) "></path>
            <path d="M97.5358362,74.2918529 C100.309607,71.1189799 112.364139,75.5990972 129.459668,58.6369612 C146.555197,41.6748252 161.401242,4.7839637 162.357592,4.21419878 C163.313942,3.64443385 162.919336,4.21419878 162.919336,5.88932352 C162.919336,7.56444826 143.113174,52.7103782 136.782817,59.8935501 C126.941747,71.0603923 121.971316,76.0880327 114.655807,79.9838572 C107.340298,83.8796817 101.593947,83.7732751 99.3439774,83.9889562 C95.973848,84.3120153 94.7620656,77.4647259 97.5358362,74.2918529 Z" id="Rectangle" stroke="#5563B6" fill="#5563B6" stroke-linejoin="round"></path>
            <path d="M58.3070453,62.7569113 C58.4453754,62.876577 58.5343019,62.9689053 58.5649841,62.9983059 C58.5670643,63.0039797 58.5644641,62.9931479 58.5649841,62.9983059 C58.5649841,62.9993375 58.5655041,62.9977901 58.5655041,62.9977901 C55.2065789,61.1955836 52.9199719,62.5670968 50.3239424,62.24369 C50.2880598,62.2328581 50.2474968,62.2240895 50.2012134,62.2168683 C50.1434892,62.2086155 50.0847249,62.1967521 50.0275207,62.1828255 C49.3436708,62.0126114 48.702464,61.4416204 48.127822,60.6240768 C48.1247018,60.6199504 48.1221016,60.615824 48.1189814,60.6111818 C48.0700978,60.5441278 48.0238144,60.4734631 47.9775311,60.4033143 C47.9775311,60.4033143 47.977011,60.4012511 47.9754509,60.4007353 C47.8912048,60.2707536 47.8074786,60.1330349 47.7253126,59.993253 C47.716992,59.9788106 47.7076314,59.964884 47.6993107,59.9504416 C47.6779892,59.9107249 47.6561476,59.8710083 47.633786,59.8323233 C47.6109043,59.7915751 47.5880226,59.7518584 47.566181,59.7121418 C47.5443394,59.670362 47.5230179,59.6301295 47.5022164,59.5898971 C47.4793347,59.5476015 47.4580131,59.5058217 47.4356515,59.463526 C47.4205704,59.435157 47.4054893,59.404209 47.3898882,59.373261 C46.8105659,58.2219946 46.3399315,56.8391338 46.0034669,55.4609153 C46.0034669,55.4609153 45.9956664,55.4475045 46.0034669,55.4609153 C47.2655991,56.1433191 48.578695,56.7039941 49.6868959,57.0134743 C51.0218333,57.3874296 52.6932354,57.5442329 54.2980726,57.4694419 C54.7895084,55.9535046 55.0734492,54.3137753 55.0594081,52.9376199 C55.0464072,51.7868693 54.8508729,50.3942084 54.509728,49 C54.6142556,49.0562222 54.7177432,49.1145077 54.8222708,49.1717615 C54.852433,49.1892987 54.8831153,49.2073517 54.9143176,49.2254048 C54.9881629,49.2671846 55.0620083,49.3084486 55.1348137,49.3528074 C55.1686161,49.3713763 55.2029386,49.3920083 55.2362211,49.4121245 C55.3100664,49.4559675 55.3823517,49.4992947 55.455157,49.5436536 C55.4842792,49.5617066 55.5144414,49.5797596 55.5440835,49.5972968 C55.6356102,49.6545507 55.7266169,49.7112887 55.8165834,49.7690583 C55.8259441,49.7742163 55.8353048,49.7798901 55.8436254,49.7860797 C55.9486731,49.8515864 56.0521606,49.9201878 56.1551282,49.9882735 C56.1634488,49.9929157 56.1707293,49.9991053 56.1790499,50.0042633 C56.2721367,50.0661593 56.3621033,50.1275396 56.4531099,50.1899514 C56.4723513,50.2023306 56.4900326,50.2162572 56.508754,50.2281206 C56.59144,50.2853745 56.673086,50.3436599 56.755252,50.4019454 C56.7703331,50.4138088 56.7854142,50.4256722 56.8020554,50.4370198 C56.8961823,50.5051054 56.9892691,50.5731911 57.0807957,50.6423083 C57.0807957,50.6423083 57.0818358,50.6433399 57.0828759,50.6433399 C57.3746172,50.8656499 57.6533575,51.0910546 57.9154567,51.3195542 C57.9190969,51.3221332 57.9222172,51.325228 57.9258574,51.3272912 C58.3616493,51.7110467 58.7485575,52.1020233 59.0668208,52.4919684 C59.1131041,52.5492223 59.1578274,52.6064761 59.2009905,52.6632141 C59.2025507,52.6657931 59.2051509,52.6668247 59.2061909,52.6688879 L59.2061909,52.6699195 C59.2462339,52.7214996 59.2847167,52.7735954 59.3205993,52.8241438 L59.3211193,52.8256912 C59.3226794,52.8272386 59.3237195,52.8298176 59.3247596,52.831365 C59.3648025,52.8865557 59.4032853,52.9417463 59.4386479,52.9974528 L59.4391679,52.9974528 C59.4438483,53.0051898 59.4474885,53.0118952 59.4526889,53.020148 C59.453209,53.0211796 59.454249,53.0206638 59.454249,53.0216954 C59.5010525,53.0928758 59.5452557,53.1650879 59.5858186,53.2347209 C59.5920591,53.2476159 59.5982996,53.2589635 59.6050601,53.2697954 C59.6076602,53.2739218 59.6092204,53.278564 59.6133807,53.2832062 C59.6581039,53.363671 59.700227,53.4441359 59.7376697,53.5256323 C59.7652317,53.5813388 59.7891535,53.637561 59.8125552,53.6937832 C59.8219159,53.7180259 59.8302365,53.7412369 59.8390771,53.7644479 C59.8525981,53.7995223 59.864039,53.8335651 59.8770399,53.8686396 C59.8853605,53.893398 59.892121,53.9186722 59.8999216,53.9454938 C59.9103223,53.9769576 59.919163,54.0099689 59.9280036,54.0419485 C59.9347641,54.0672227 59.9404845,54.0919811 59.9456849,54.1182869 C59.9534855,54.1502666 59.960246,54.1822462 59.9664864,54.2147416 C59.9706467,54.2389842 59.974287,54.2647742 59.9784473,54.2895327 C59.9831277,54.3225439 59.9862479,54.3565867 59.9909282,54.3885663 C59.9935284,54.4117773 59.9950885,54.4349884 59.9966486,54.4571678 C59.9987288,54.4943054 59.9992488,54.5304114 59.9997689,54.5685806 C59.9997689,54.5850863 60.0002889,54.6046867 59.9997689,54.6232555 C59.9992488,54.6789619 59.9950885,54.7336368 59.9888481,54.78728 C59.9852078,54.8244176 59.9831277,54.8563972 59.9831277,54.8863137 C59.631062,57.4632522 57.7048413,59.3216809 58.5649841,62.9983059" id="Fill-583" fill="#9452BA"></path>
            <circle id="Oval" stroke="#89C3EA" fill="#89C3EA" cx="146" cy="29" r="2"></circle>
            <circle id="Oval" stroke="#89C3EA" fill="#89C3EA" cx="156" cy="33" r="2"></circle>
            <circle id="Oval" stroke="#89C3EA" fill="#89C3EA" cx="154" cy="28" r="2"></circle>
            <circle id="Oval" stroke="#89C3EA" fill="#89C3EA" cx="159" cy="25" r="2"></circle>
            <circle id="Oval" stroke="#89C3EA" fill="#89C3EA" cx="156" cy="19" r="2"></circle>
            <circle id="Oval" stroke="#89C3EA" fill="#89C3EA" cx="150" cy="20" r="2"></circle>
            <circle id="Oval" stroke="#89C3EA" fill="#89C3EA" cx="154" cy="13" r="2"></circle>
            <circle id="Oval" stroke="#89C3EA" fill="#89C3EA" cx="157" cy="6" r="2"></circle>
            <circle id="Oval" stroke="#89C3EA" fill="#89C3EA" cx="164" cy="2" r="2"></circle>
            <circle id="Oval" stroke="#89C3EA" fill="#89C3EA" cx="164" cy="9" r="2"></circle>
            <circle id="Oval" stroke="#89C3EA" fill="#89C3EA" cx="162" cy="18" r="2"></circle>
            <circle id="Oval" stroke="#89C3EA" fill="#89C3EA" cx="159" cy="12" r="2"></circle>
        </g>
        <line x1="439.25" y1="22.3157895" x2="439.25" y2="33.6842105" id="Line-16" stroke="#ACD3EF" stroke-width="3" stroke-linecap="round"></line>
        <line x1="444.676471" y1="28.25" x2="434.323529" y2="28.25" id="Line-16" stroke="#ACD3EF" stroke-width="3" stroke-linecap="round"></line>
        <line x1="329" y1="27.8684211" x2="329" y2="34.8684211" id="Line-16" stroke="#5563B6" stroke-width="2" stroke-linecap="round"></line>
        <line x1="332.823529" y1="31.1184211" x2="325.823529" y2="31.1184211" id="Line-16" stroke="#5563B6" stroke-width="2" stroke-linecap="round"></line>
        <line x1="385" y1="74.8684211" x2="385" y2="81.8684211" id="Line-16" stroke="#5563B6" stroke-width="2" stroke-linecap="round"></line>
        <line x1="388.823529" y1="78.1184211" x2="381.823529" y2="78.1184211" id="Line-16" stroke="#5563B6" stroke-width="2" stroke-linecap="round"></line>
        <line x1="210.25" y1="35.3157895" x2="210.25" y2="46.6842105" id="Line-16" stroke="#ACD3EF" stroke-width="3" stroke-linecap="round"></line>
        <line x1="215.676471" y1="41.25" x2="205.323529" y2="41.25" id="Line-16" stroke="#ACD3EF" stroke-width="3" stroke-linecap="round"></line>
        <line x1="370.25" y1="188.315789" x2="370.25" y2="199.684211" id="Line-16" stroke="#ACD3EF" stroke-width="3" stroke-linecap="round"></line>
        <line x1="375.676471" y1="194.25" x2="365.323529" y2="194.25" id="Line-16" stroke="#ACD3EF" stroke-width="3" stroke-linecap="round"></line>
        <line x1="299.5" y1="199.5" x2="299.5" y2="206.5" id="Line-16" stroke="#5563B6" stroke-width="2" stroke-linecap="round"></line>
        <line x1="303.323529" y1="202.75" x2="296.323529" y2="202.75" id="Line-16" stroke="#5563B6" stroke-width="2" stroke-linecap="round"></line>
        <line x1="460" y1="225.868421" x2="460" y2="232.868421" id="Line-16" stroke="#5563B6" stroke-width="2" stroke-linecap="round"></line>
        <line x1="463.823529" y1="229.118421" x2="456.823529" y2="229.118421" id="Line-16" stroke="#5563B6" stroke-width="2" stroke-linecap="round"></line>
        <line x1="242" y1="241.868421" x2="242" y2="248.868421" id="Line-16" stroke="#5563B6" stroke-width="2" stroke-linecap="round"></line>
        <line x1="245.823529" y1="245.118421" x2="238.823529" y2="245.118421" id="Line-16" stroke="#5563B6" stroke-width="2" stroke-linecap="round"></line>
        <line x1="263.25" y1="151.315789" x2="263.25" y2="162.684211" id="Line-16" stroke="#ACD3EF" stroke-width="3" stroke-linecap="round"></line>
        <line x1="268.676471" y1="157.25" x2="258.323529" y2="157.25" id="Line-16" stroke="#ACD3EF" stroke-width="3" stroke-linecap="round"></line>
        <ellipse id="Oval" fill="#5563B6" transform="translate(445.000000, 102.000000) rotate(14.000000) translate(-445.000000, -102.000000) " cx="445" cy="102" rx="1" ry="2"></ellipse>
        <ellipse id="Oval" fill="#5563B6" transform="translate(446.000000, 119.000000) rotate(3.000000) translate(-446.000000, -119.000000) " cx="446" cy="119" rx="1" ry="2"></ellipse>
    </g>
</svg>