<svg width="487" height="274" xmlns="http://www.w3.org/2000/svg">
  <g fill="none" fill-rule="evenodd">
    <path d="M191.326 149.99c3.356-.18 3.116-7.011 3.132-9.307.013-1.925.173-7.699.173-7.699s8.56-.132 12.09-.897c4.343-.942 3.72-8.283-2.252-8.234-2.838.024-9.678.032-9.678.032l.21-6.662h.037c.76.013 13.155.192 16.217-.74 2.812-.856 4.814-2.765 3.393-5.881-1.257-2.755-4.055-2.698-6.705-2.613-3.128.1-12.058-.34-16.984.386-1.642.242-3.947 2.126-4.012 4.746-.17 6.872-.078 21.39-.117 24.558 0 7.682-.53 12.58 4.496 12.31zm35.34.008c4.674-.06 11.295-.783 16.479-1.977 1.631-.376 3.573-1.931 3.4-4.54-.21-3.146-2.67-4.064-4.06-4.029-4.06.104-15.204 1.6-15.204 1.6l-.186-8.059s8.2-.491 11.73-1.257c4.343-.941 3.72-8.283-2.251-8.233-2.84.023-9.32.391-9.32.391l-.148-5.583h.037c.675-.01 10.518-.16 13.699-.38 2.676-.187 5.702-1.505 5.19-5.163-.418-3-3.911-3.647-6.703-3.691-3.13-.05-10.98-.34-15.906.385-1.642.242-3.947 2.486-4.012 5.106l-.117 24.199c.302 7.576.041 11.326 7.372 11.231zm35.764-.162c11.134-.848 19.6-5.038 19.414-14.557-.063-3.202-2.324-8.89-9.521-9.057 0 0 5.55-2.9 4.366-10.07-1.13-6.844-8.02-8.298-12.763-8.102-3.754.156-9.582-.211-11.126 4.603-1.021 3.185-.618 26.907-.024 32.26.594 5.351 4.17 5.34 9.654 4.923zm-2.132-26.433l-.158-7.79s8.348-2.577 9.153 1.665c1.084 5.71-6.905 5.317-8.995 6.125zm.12 18.816c-.463-1.036-.344-7.791-.344-7.791s12.247-5.137 13.359 1.138c.658 3.715-9.368 6.593-13.014 6.653zM290.137 150c1.888 0 3.566-1.917 3.781-4.094.419-4.237.084-7.77.194-11.046 4.104 3.515 6.901 6.601 11.978 9.931 2.676 1.755 6.35 3.727 8.598 2.243 3.403-2.247 1.204-5.37-.413-6.646-5.742-4.53-10.882-8.758-10.882-8.758s8.904-3.682 9.016-12.468c.068-5.355-2.688-10.957-14.68-10.91-3.664.015-9.22.283-10.552 2.07-1.36 1.823-1.13 13.552-1.149 17.21-.025 4.671-.025 12.491.116 17.874.05 1.883 1.387 4.594 3.993 4.594zm3.903-24.437l-.002-8.5s8.253-2.537 9.446 2.27c1.48 5.96-9.444 6.23-9.444 6.23zm56.488 6.879c.556-5.76.743-12.806-.505-18.474-.593-2.694-2.667-3.6-4.592-3.352-2.205.284-2.677 2.142-2.869 4.022-.404 3.962 3.275 26.649-7.251 26.677-8.17.021-5.962-22.989-6.325-26.24-.403-3.612-1.934-5.317-4.927-4.516-3.377.904-3.177 4.664-3.313 7.467-.342 7.012.166 18.751 3.556 24.995 1.822 3.356 6.1 6.613 10.966 6.951 8.964.623 14.472-9.368 15.26-17.53zm39.691 17.136c1.618-.72 3.064-3.734 1.918-5.993-4.194-8.269-5.907-12.765-8.09-17.137-2.655-5.32-6.937-17.078-11.744-17.078-5.213 0-7.353 5.984-9.079 10.894-2.178 6.197-4.685 12.294-6.924 18.645-.895 2.54-2.044 6.172-.13 7.81.847.725 3.396 1.215 4.928-.078 1.917-1.617 4.109-8.178 4.109-8.178l15.097-.166s3.435 7.084 4.365 8.84c1.442 2.722 3.338 3.424 5.55 2.44zm-22.35-19.175c.917-2.519 3.415-9.588 4.134-11.805.798 1.616 4.333 9.646 5.352 11.803-2.457.06-7.484 0-9.486.002zM400.816 150c1.888 0 3.566-1.917 3.781-4.094.419-4.237.084-7.77.194-11.046 4.104 3.515 6.901 6.601 11.978 9.931 2.676 1.755 6.35 3.727 8.598 2.243 3.403-2.247 1.204-5.37-.413-6.646-5.742-4.53-10.882-8.758-10.882-8.758s8.904-3.682 9.016-12.468c.068-5.355-2.688-10.957-14.68-10.91-3.664.015-9.22.283-10.552 2.07-1.36 1.823-1.13 13.552-1.149 17.21-.025 4.671-.025 12.491.116 17.874.05 1.883 1.387 4.594 3.993 4.594zm3.903-24.437l-.002-8.5s8.253-2.537 9.446 2.27c1.48 5.96-9.444 6.23-9.444 6.23zm46.116 15.072c.091-3.417-.008-11.588-.018-12.474.648-.706 10.466-11.41 12.048-13.904.93-1.467 1.672-4.28-1.438-5.753-1.708-.809-3.794-.476-5.364 1.468-2.584 3.198-7.305 8.485-9.302 10.452-1.996-1.967-6.718-7.254-9.302-10.452-1.57-1.944-3.656-2.277-5.364-1.468-3.11 1.473-2.367 4.286-1.438 5.753 1.637 2.58 12.084 13.942 12.084 13.942s.252 11.386.2 13.741c-.076 3.42.138 7.974 3.761 8.058 4.885.114 4.019-5.117 4.133-9.363z" fill="#5563B6" fill-rule="nonzero"/>
    <g stroke="#5563B6" stroke-width="5">
      <g stroke-linecap="round">
        <path d="M32.652 115.768l121.734 67.478M150.751 168.856l-14.692 2.908M140.441 187.456l-5.319-14.001M48.908 112.948l5.319 14.002M38.598 131.549l14.692-2.909"/>
      </g>
      <g stroke-linecap="round">
        <path d="M93.662 79.916v138.62M104.434 208.42l-9.62-11.393M83.27 208.42l9.62-11.393M103.959 92.714l-9.62 11.393M82.795 92.714l9.62 11.393"/>
      </g>
      <g stroke-linecap="round">
        <path d="M154.414 115.778L32.68 183.256M46.81 187.8l5.32-14.002M36.5 169.199l14.693 2.909M148.191 131.057L133.5 128.15M137.881 112.457l-5.319 14.001"/>
      </g>
      <path stroke-linejoin="round" d="M94.5 182.328l-36.25 30.057 8.27-45.988L22 150.465l44.52-15.931-8.27-45.989 36.25 30.058 36.25-30.058-8.27 45.989L167 150.465l-44.52 15.932 8.27 45.988z"/>
    </g>
    <path stroke="#E1F2FF" stroke-width="3" stroke-linecap="round" d="M130.429 156.27l17.142-5.326M100 137.036l16.575-7.909M68.62 194.829l18.173-15.743M116 171.214l3 21.75"/>
    <g stroke-width="2">
      <path stroke="#5563B6" fill="#5563B6" stroke-linejoin="round" d="M54.5 51.945l-3.253 2.37-.717-4.112-3.883-.759L48.886 46l-2.239-3.444 3.883-.76.717-4.11 3.253 2.37 3.253-2.37.717 4.11 3.883.76L60.114 46l2.239 3.444-3.883.76-.717 4.11z"/>
      <g stroke="#89C3EA" stroke-linecap="round">
        <path d="M37.406 30.526l33.188 30.948M70.31 56.923l-4.637-.496M66.11 61.428l-.819-4.592M42.515 31.192l.817 4.59M38.314 35.697l4.636.495"/>
      </g>
      <g stroke="#89C3EA" stroke-linecap="round">
        <path d="M54.5 23.311v45.378M57.515 65.378l-2.693-3.73M51.592 65.378l2.692-3.73M57.382 27.5l-2.692 3.73M51.459 27.5l2.692 3.73"/>
      </g>
      <g stroke="#89C3EA" stroke-linecap="round">
        <path d="M77.189 46H31.811M35.122 49.015l3.73-2.693M35.122 43.092l3.73 2.692M73 48.882l-3.73-2.692M73 42.959l-3.73 2.692"/>
      </g>
      <g stroke="#89C3EA" stroke-linecap="round">
        <path d="M70.044 29.956L37.956 62.044M42.514 61.92l.658-4.618M38.16 57.564l4.616-.658M69.2 35.038l-4.617.657M64.844 30.683l-.657 4.616"/>
      </g>
    </g>
    <g stroke-width="2">
      <path stroke="#5563B6" fill="#5563B6" stroke-linejoin="round" d="M166.5 248.945l-3.253 2.37-.717-4.112-3.883-.759 2.239-3.444-2.239-3.444 3.883-.76.717-4.11 3.253 2.37 3.253-2.37.717 4.11 3.883.76-2.239 3.444 2.239 3.444-3.883.76-.717 4.11z"/>
      <g stroke="#89C3EA" stroke-linecap="round">
        <path d="M149.406 227.526l33.188 30.948M182.31 253.923l-4.637-.496M178.11 258.428l-.819-4.592M154.515 228.192l.817 4.59M150.314 232.697l4.636.495"/>
      </g>
      <g stroke="#89C3EA" stroke-linecap="round">
        <path d="M166.5 220.311v45.378M169.515 262.378l-2.693-3.73M163.592 262.378l2.692-3.73M169.382 224.5l-2.692 3.73M163.459 224.5l2.692 3.73"/>
      </g>
      <g stroke="#89C3EA" stroke-linecap="round">
        <path d="M189.189 243h-45.378M147.122 246.015l3.73-2.693M147.122 240.092l3.73 2.692M185 245.882l-3.73-2.692M185 239.959l-3.73 2.692"/>
      </g>
      <g stroke="#89C3EA" stroke-linecap="round">
        <path d="M182.044 226.956l-32.088 32.088M154.514 258.92l.658-4.618M150.16 254.564l4.616-.658M181.2 232.038l-4.617.657M176.844 227.683l-.657 4.616"/>
      </g>
    </g>
    <path stroke="#ACD3EF" stroke-width="3" stroke-linecap="round" d="M413.25 27.316v11.368M418.676 33.25h-10.352"/>
    <path stroke="#5563B6" stroke-width="2" stroke-linecap="round" d="M303 32.868v7M306.824 36.118h-7M359 79.868v7M362.824 83.118h-7"/>
    <path stroke="#ACD3EF" stroke-width="3" stroke-linecap="round" d="M184.25 40.316v11.368M189.676 46.25h-10.352M339.25 189.316v11.368M344.676 195.25h-10.352"/>
    <path stroke="#5563B6" stroke-width="2" stroke-linecap="round" d="M268.5 200.5v7M272.324 203.75h-7M429 226.868v7M432.824 230.118h-7M211 242.868v7M214.824 246.118h-7"/>
    <path stroke="#ACD3EF" stroke-width="3" stroke-linecap="round" d="M232.25 152.316v11.368M237.676 158.25h-10.352"/>
    <path d="M62.428 156.774c.128.111.211.197.24.224.001.006-.001-.004 0 0 0 .001 0 0 0 0-3.119-1.674-5.242-.4-7.653-.7a.848.848 0 00-.114-.025 1.712 1.712 0 01-.161-.032c-.635-.158-1.23-.688-1.764-1.447l-.008-.012c-.046-.062-.089-.128-.132-.193 0 0 0-.002-.002-.003-.078-.12-.156-.248-.232-.378l-.024-.04a4.006 4.006 0 00-.06-.11l-.064-.111-.06-.114-.06-.117c-.015-.026-.029-.055-.043-.084-.538-1.069-.975-2.353-1.288-3.633 0 0-.007-.012 0 0 1.172.634 2.392 1.155 3.42 1.442 1.24.347 2.792.493 4.282.423.457-1.407.72-2.93.707-4.208-.012-1.068-.193-2.361-.51-3.656.097.052.193.106.29.16l.086.05c.068.038.137.076.204.118a20.65 20.65 0 01.38.227c.085.053.17.105.253.16.01.004.018.01.026.015.097.06.193.124.289.188l.022.015c.086.057.17.114.254.172l.052.035.229.162.043.032a15.628 15.628 0 01.261.192c.271.206.53.416.773.628l.01.007c.405.356.764.72 1.06 1.082.042.053.084.106.124.159l.005.005c.037.049.073.097.106.144v.001l.004.006c.037.05.073.102.106.154l.013.021.001.001a4.316 4.316 0 01.14.23c.003.005.004.009.008.013a3.307 3.307 0 01.185.382l.025.065.035.097c.008.023.014.046.021.071.01.03.018.06.026.09l.017.07.019.09.011.07c.004.03.007.062.012.092l.005.063.003.104v.05c0 .052-.005.103-.01.153a.944.944 0 00-.006.092c-.327 2.393-2.115 4.118-1.317 7.532" fill="#9452BA"/>
  </g>
</svg>
