<?xml version="1.0" encoding="UTF-8"?>
<svg width="455px" height="473px" viewBox="0 0 455 473" version="1.1" xmlns="http://www.w3.org/2000/svg" xmlns:xlink="http://www.w3.org/1999/xlink">
    <title>quality</title>
    <g id="quality" stroke="none" stroke-width="1" fill="none" fill-rule="evenodd">
        <path d="M180.794936,434.239289 C137.30098,426.49786 76.720705,409.486652 34.7499486,334.464565 C-3.33002757,266.353282 -25.8799961,162.425431 45.7765852,97.0385989 C117.433167,31.651767 335.118178,11.0190319 417.801396,97.0385989 C500.484614,183.058166 437.66921,479.990136 180.794936,434.239289 Z" id="Path" fill="#EFEFF8" fill-rule="nonzero"></path>
        <ellipse id="Oval" fill="#DFE1F0" fill-rule="nonzero" cx="229.5" cy="414.232021" rx="216.5" ry="14"></ellipse>
        <path d="M300.899003,281 L157.100997,281 L157.100997,301.911998 L33,301.911998 L33,408 C33,410.761424 35.2385763,413 38,413 L420,413 C422.761424,413 425,410.761424 425,408 L425,313.891666 L425,313.891666 L300.899003,313.891666 L300.899003,281 Z" id="Path" fill="#B0B0DB" fill-rule="nonzero"></path>
        <path d="M210.367405,331.279513 C208.946705,331.477143 207.511691,331.028291 206.469928,330.060438 C205.428166,329.092585 204.893467,327.71147 205.017695,326.309348 C205.268708,321.846971 219.82745,311.952804 223.200435,310.798741 C231.672117,307.905889 236.284478,313.122254 235.9864,322.385534 C235.751075,329.648437 235.876582,350.775485 235.829517,355.86875 C235.829517,358.146101 236.300166,364.655017 230.730819,364.993542 C226.902874,365.224354 225.898823,359.207839 225.773316,356.653513 C225.475239,351.437148 225.773316,322.431696 225.773316,321.262246 C222.572903,323.539597 214.195351,330.940988 210.367405,331.279513 Z" id="Path" fill="#FFFFFF" fill-rule="nonzero"></path>
        <path d="M108.998452,384.803593 C109.163527,393.63853 96.0895492,391.798609 88.8757508,391.91464 C82.6524053,392.014095 73.3751634,392.47822 73.0780275,383.958224 C72.8634294,377.758849 80.6714995,368.177998 82.9825562,364.912552 C86.2840658,360.370764 93.1346981,352.878472 92.7550245,347.060342 C92.5074113,343.380499 86.7462771,343.877775 83.9565016,345.402755 C81.166726,346.927735 77.733156,350.591002 74.2170483,348.320108 C70.9155388,346.231549 71.7574237,343.247892 73.7878521,340.463147 C78.3769504,334.247196 89.635098,331.479026 96.6012832,333.8328 C106.043601,337.048518 105.069655,346.430459 102.329402,354.022207 C99.126938,362.840568 90.0312792,371.17823 86.5481866,379.665074 C93.0851755,380.44414 108.849884,376.979783 108.998452,384.803593 Z" id="Path" fill="#FFFFFF" fill-rule="nonzero"></path>
        <path d="M351.32757,346.909493 C348.689143,347.357035 347.384921,342.804451 348.809071,340.736498 C350.817873,337.773461 354.505674,336.955539 357.803707,337.001836 C364.234872,337.078999 372.27008,337.526541 375.028435,345.042162 C377.78679,352.557783 373.424391,360.644405 367.982637,362.017897 C381.234733,364.178445 380.75502,385.969116 369.976448,390.213049 C364.450309,392.252972 358.459479,392.553813 352.766711,391.077269 C348.584206,389.703777 345.990752,385.953683 349.993365,382.851753 C353.666175,380.027608 361.026785,384.271542 366.078772,381.200477 C369.391796,379.178822 369.406787,373.962641 367.907681,371.940985 C365.988826,369.394625 360.412152,368.113729 357.41394,367.573592 C352.796693,366.724805 351.417516,362.480871 353.246425,360.042538 C356.244637,355.999227 366.348611,358.49929 366.123745,351.122561 C365.838915,345.304514 359.8275,345.551434 351.32757,346.909493 Z" id="Path" fill="#FFFFFF" fill-rule="nonzero"></path>
        <rect id="Rectangle" fill="#9093CC" fill-rule="nonzero" x="151" y="273" width="155" height="12" rx="6"></rect>
        <path d="M301,308 L427.536794,308 C431.106324,308 434,310.910149 434,314.5 L434,314.5 C434,318.089851 431.106324,321 427.536794,321 L301,321 L301,308.014286 L301,308 Z" id="Path" fill="#9093CC" fill-rule="nonzero"></path>
        <path d="M31.588416,297 L157,297 L157,310 L31.588416,310 C27.9497343,310 25,307.086649 25,303.492849 L25,303.492849 C25.0079847,299.904636 27.9553816,297 31.588416,297 L31.588416,297 Z" id="Path" fill="#9093CC" fill-rule="nonzero"></path>
        <path d="M164.14,97 L292.86,97 C294.041889,97 295,97.9581106 295,99.14 L295,265.86 C295,267.041889 294.041889,268 292.86,268 L164.14,268 C162.958111,268 162,267.041889 162,265.86 L162,99.14 C162,97.9581106 162.958111,97 164.14,97 Z" id="Rectangle" stroke="#9093CC" stroke-width="5" fill="#FFFFFF" fill-rule="nonzero" stroke-linecap="round" stroke-linejoin="round" stroke-dasharray="102.61,40" transform="translate(228.500000, 182.500000) rotate(-180.000000) translate(-228.500000, -182.500000) "></path>
        <ellipse id="Oval" fill="#DFE1F0" fill-rule="nonzero" cx="270" cy="205.5" rx="5" ry="5.5"></ellipse>
        <circle id="Oval" fill="#DFE1F0" fill-rule="nonzero" cx="270" cy="223" r="5"></circle>
        <circle id="Oval" fill="#DFE1F0" fill-rule="nonzero" cx="270" cy="240" r="5"></circle>
        <rect id="Rectangle" fill="#DFE1F0" fill-rule="nonzero" transform="translate(223.500000, 206.000000) rotate(180.000000) translate(-223.500000, -206.000000) " x="191" y="202" width="65" height="8" rx="4"></rect>
        <rect id="Rectangle" fill="#DFE1F0" fill-rule="nonzero" transform="translate(223.500000, 223.500000) rotate(-180.000000) translate(-223.500000, -223.500000) " x="191" y="220" width="65" height="7" rx="3.5"></rect>
        <rect id="Rectangle" fill="#DFE1F0" fill-rule="nonzero" transform="translate(223.500000, 240.500000) rotate(180.000000) translate(-223.500000, -240.500000) " x="191" y="237" width="65" height="7" rx="3.5"></rect>
        <path d="M205.17303,41.6671254 C203.585776,46.8530679 213.410874,50.3154472 214.569569,53.5185294 C215.204471,55.3031038 210.537946,64.7140643 212.982316,67.7036077 C216.156823,71.4710424 225.680342,64.531031 229.331025,64.1497117 C231.648415,63.9056674 239.489446,69.4576765 241.806836,68.9695878 C249.870083,67.2460245 244.251206,57.362228 244.759127,55.0133011 C245.854332,50.0408973 255.647685,46.6090236 253.758854,42.2772363 C251.441464,36.9692715 241.314788,38.0369656 239.473574,36.8472493 C236.648263,34.9864111 234.076913,23.7451179 229.442133,24.0044151 C224.807353,24.2637122 222.124895,33.2781006 220.251936,35.5507637 C217.998036,38.3115155 206.696793,36.9235132 205.17303,41.6671254 Z" id="Path" fill="#FCCE76" fill-rule="nonzero"></path>
        <path d="M247.95209,41.8953049 L235.973619,40.2068091 L230.592664,29.6537104 C230.400736,29.2549868 229.98704,29 229.53207,29 C229.077101,29 228.663405,29.2549868 228.471477,29.6537104 L223.074925,40.2068091 L211.018469,41.8953049 C210.569789,41.9569965 210.196769,42.2605681 210.057443,42.6774077 C209.918116,43.0942473 210.036871,43.5513918 210.363396,43.8551661 L219.082101,52.0715072 L217.023302,63.6648399 C216.949022,64.093224 217.13174,64.5253741 217.495164,64.7808518 C217.858589,65.0363296 218.340223,65.0712019 218.738968,64.8709083 L229.53207,59.3983728 L240.309576,64.8709083 C240.708321,65.0712019 241.189955,65.0363296 241.55338,64.7808518 C241.916804,64.5253741 242.099522,64.093224 242.025242,63.6648399 L239.966443,52.0715072 L248.607163,43.8853178 C248.953549,43.5842567 249.085396,43.1150028 248.944156,42.6859348 C248.802915,42.2568668 248.414773,41.9475359 247.95209,41.8953049 L247.95209,41.8953049 Z" id="Path" fill="#FEDDA1" fill-rule="nonzero"></path>
        <path d="M169.1443,60.5210789 C167.861715,64.7846122 175.52669,67.6321544 176.427554,70.2774123 C176.916158,71.7400843 173.297435,79.4735734 175.206044,81.9165468 C177.633795,85.0286149 185.115544,79.31797 187.879211,79.0067632 C189.680938,78.8044788 195.75795,83.3792188 197.544409,82.97465 C203.804648,81.558659 199.437749,73.420601 199.83474,71.4911188 C200.689797,67.4143097 208.278428,64.5823277 206.812616,61.0345702 C205.026158,56.6621145 197.177956,57.5490539 195.75795,56.5687525 C193.559232,55.0127185 191.574279,45.800997 187.986093,46.0032814 C184.397907,46.2055659 182.306071,53.6278482 180.855528,55.495089 C179.084338,57.7668987 170.335273,56.6309939 169.1443,60.5210789 Z" id="Path" fill="#FCCE76" fill-rule="nonzero"></path>
        <path d="M202.241063,60.4029233 L192.937551,59.0438639 L188.800997,50.5270913 C188.654704,50.2058188 188.336903,50 187.987126,50 C187.637349,50 187.319549,50.2058188 187.173256,50.5270913 L183.021769,59.0438639 L173.73319,60.4029233 C173.414173,60.4671084 173.153207,60.698431 173.048502,61.009837 C172.943797,61.3212429 173.011241,61.6654758 173.225454,61.9129894 L179.945487,68.5572801 L178.362546,77.9196897 C178.303975,78.2666568 178.446063,78.6170436 178.728668,78.8225414 C179.011273,79.0280391 179.384984,79.0527179 179.691619,78.886132 L188.009526,74.4616384 L196.327434,78.886132 C196.632194,79.0571992 197.007406,79.0340174 197.289304,78.8267046 C197.571201,78.6193917 197.708617,78.2655785 197.641574,77.9196897 L196.058632,68.5572801 L202.778665,61.9129894 C202.99351,61.6612652 203.057518,61.3119938 202.946137,60.9991389 C202.834757,60.686284 202.565279,60.4584119 202.241063,60.4029233 L202.241063,60.4029233 Z" id="Path" fill="#FEDDA1" fill-rule="nonzero"></path>
        <path d="M251.151459,60.5210789 C249.819437,64.7846122 257.6862,67.6321544 258.61078,70.2774123 C259.127917,71.7400843 255.476611,79.4735734 257.372783,81.9165468 C259.848776,85.0286149 267.54316,79.31797 270.379582,79.0067632 C272.213071,78.8044788 278.450066,83.3792188 280.299225,82.97465 C286.7086,81.558659 282.24241,73.420601 282.649852,71.4911188 C283.511748,67.4143097 291.300157,64.5823277 289.811427,61.0345702 C287.962267,56.6621145 279.907454,57.5490539 278.450066,56.5687525 C276.209135,55.0127185 274.156255,45.800997 270.473607,46.0032814 C266.790959,46.2055659 264.644054,53.6278482 263.155324,55.495089 C261.353177,57.7668987 252.358114,56.6309939 251.151459,60.5210789 Z" id="Path" fill="#FCCE76" fill-rule="nonzero"></path>
        <path d="M285.242851,60.40164 L275.635324,59.0421819 L271.348177,50.5229109 C271.191669,50.2033218 270.861876,50 270.5,50 C270.138124,50 269.808331,50.2033218 269.651823,50.5229109 L265.364676,59.0421819 L255.757149,60.40164 C255.427708,60.4658439 255.158214,60.6972344 255.050087,61.0087317 C254.94196,61.320229 255.011609,61.6645628 255.232822,61.9121491 L262.187869,68.5583889 L260.537781,77.923545 C260.477296,78.2706138 260.624027,78.6211035 260.915866,78.8266615 C261.207706,79.0322195 261.593629,79.0569056 261.910284,78.8902708 L270.5,74.4644793 L279.089716,78.8902708 C279.406371,79.0569056 279.792294,79.0322195 280.084134,78.8266615 C280.375973,78.6211035 280.522704,78.2706138 280.462219,77.923545 L278.812131,68.5583889 L285.767178,61.9121491 C285.988391,61.6645628 286.05804,61.320229 285.949913,61.0087317 C285.841786,60.6972344 285.572292,60.4658439 285.242851,60.40164 L285.242851,60.40164 Z" id="Path" fill="#FEDDA1" fill-rule="nonzero"></path>
        <g id="Group-2" transform="translate(169.000000, 119.000000)">
            <path d="M73,59 L106,59 C99.1770754,41.7776993 93.6856598,24.0592308 89.5739174,6 L73,6 L73,59 Z" id="Path" fill="#FF8394" fill-rule="nonzero"></path>
            <polygon id="Path" fill="#FEA6B3" fill-rule="nonzero" points="73 59 99 59 86.0909091 18 73 18"></polygon>
            <line x1="86" y1="58" x2="86" y2="19" id="Path" stroke="#FF8394" stroke-width="0.3" stroke-linecap="round" stroke-linejoin="round" stroke-dasharray="0.91"></line>
            <path d="M73.4042553,59 L12,59 C26.5378723,26.8032787 28.5957447,6 28.5957447,6 L90,6 C90,6 86.946383,40.9180328 73.4042553,59 Z" id="Path" fill="#F74B64" fill-rule="nonzero"></path>
            <path d="M29.6840788,6 C29.6840788,6 25.2401201,-0.466756017 27.7885514,0.0268894809 C29.8946929,0.421805879 30,6 30,6 L29.6840788,6 Z" id="Path" fill="#3B438C" fill-rule="nonzero"></path>
            <path d="M2.66252184,59 C2.66252184,59 -1.72469431,54.7298294 0.764207159,54.0210156 C2.21958174,53.6233884 3,59 3,59 L2.66252184,59 Z" id="Path" fill="#3B438C" fill-rule="nonzero"></path>
            <path d="M64.681374,59 C64.681374,59 60.2630939,54.7298294 62.7696182,54.0210156 C64.2352977,53.6233884 65,59 65,59 L64.681374,59 Z" id="Path" fill="#3B438C" fill-rule="nonzero"></path>
            <path d="M89.3139955,6 C89.3139955,6 93.7517986,-0.466756017 91.2189015,0.0268894809 C89.1255982,0.421805879 89,6 89,6 L89.3139955,6 Z" id="Path" fill="#3B438C" fill-rule="nonzero"></path>
            <path d="M43.2304147,27 C43.2304147,27 40.2774194,35.4313005 39,36.9191771 C43.9769585,37.1010287 54.6110599,36.9191771 54.6110599,36.9191771 C55.6584798,33.9368496 56.457497,30.8735816 57,27.7604702" id="Path" fill="#EB6E7F" fill-rule="nonzero"></path>
            <path d="M44.2304147,25 C44.2304147,25 41.2940092,33.4085903 40,34.9118943 C44.9769585,35.1101322 55.6110599,34.9118943 55.6110599,34.9118943 C56.6588275,31.9374977 57.4578621,28.8819373 58,25.7764317" id="Path" stroke="#FEA6B3" stroke-width="0.3" fill="#FF8394" fill-rule="nonzero" stroke-linecap="round" stroke-linejoin="round"></path>
            <line x1="32" y1="9" x2="87" y2="9" id="Path" stroke="#F74B64" stroke-width="0.38" stroke-linecap="round" stroke-linejoin="round" stroke-dasharray="7.55"></line>
            <path d="M29,3 C28.913566,3.43333786 28.5705188,3.77211997 28.1317254,3.85747939 C27.3970315,4.83038869 7.42671614,53.7726737 2,59" id="Path" stroke="#3B438C" stroke-width="1.15" stroke-linecap="round"></path>
            <path d="M92,3 C91.6449978,3.41576141 91.1720587,3.71469271 90.6433824,3.85747939 C89.9154412,4.83038869 70.3768382,53.7726737 65,59" id="Path" stroke="#3B438C" stroke-width="1.15" stroke-linecap="round"></path>
            <path d="M116.316663,59 C116.316663,59 120.728833,54.7298294 118.237751,54.0210156 C116.781102,53.6233884 116,59 116,59 L116.316663,59 Z" id="Path" fill="#5E63B6" fill-rule="nonzero"></path>
            <path d="M90,3 C90.3550022,3.41576141 90.8279413,3.71469271 91.3566176,3.85747939 C92.0845588,4.83038869 111.623162,53.7726737 117,59" id="Path" stroke="#3B438C" stroke-width="1.15" stroke-linecap="round"></path>
        </g>
        <g id="Quality_of_Product_Data" transform="translate(259.000000, 146.000000)">
            <polygon id="Path" fill="#5E63B6" fill-rule="nonzero" points="22.1203852 57 12 109.293905 25.3672552 99.9513356 36.4683788 112 38 59.6258827"></polygon>
            <polygon id="Path" fill="#9093CC" fill-rule="nonzero" points="32 57.3682864 44.6083721 109 54.947907 94.3660298 68 101.063788 47.5469767 53"></polygon>
            <circle id="Oval" fill="#FCCE76" fill-rule="nonzero" cx="31" cy="36" r="31"></circle>
            <circle id="Oval" stroke="#EFAC3F" stroke-width="2.65" fill="#FEDDA1" fill-rule="nonzero" cx="35" cy="31" r="31"></circle>
            <circle id="Oval" stroke="#EFAC3F" stroke-width="1.8" stroke-linecap="round" stroke-linejoin="round" cx="34.5" cy="31.5" r="25.5"></circle>
            <path d="M43.4981908,45.3112791 C43.6224745,45.6706117 43.7296156,45.9187224 43.7596152,46 L43.7596152,46 C42.9453426,38.1417368 47.4066989,34.8777984 48.8381043,29.6503636 C48.8469927,29.5636983 48.8627562,29.4778736 48.8852464,29.3936974 C48.916101,29.276784 48.9404238,29.1582497 48.9581024,29.0386425 C49.168099,27.5927563 48.57668,25.9115928 47.453841,24.1619849 L47.453841,24.1363183 C47.3638425,23.9908741 47.2652727,23.8454299 47.1667028,23.7085413 L47.1667028,23.7085413 C46.9824201,23.4433195 46.7852804,23.17382 46.5795695,22.9085983 L46.5152848,22.8230429 L46.3395734,22.6048767 L46.1595763,22.3781549 C46.0995773,22.301155 46.0395782,22.2284329 45.9752936,22.1557108 C45.9110089,22.0829887 45.8510099,22.0059889 45.7867252,21.928989 L45.6452989,21.7707115 C43.7213506,19.6172751 41.5655168,17.6820245 39.2168316,16 L39.2168316,16 C39.5384093,18.7470761 39.5642707,21.5206322 39.2939732,24.2732069 C38.8452727,27.4558897 37.9086138,30.5507067 36.5168753,33.4490232 C33.306786,33.2119838 30.1525719,32.481874 27.1655982,31.2844717 C24.6311123,30.1502376 22.22833,28.7430617 20,27.0879795 C20.0257139,27.3360901 20.0557134,27.5756452 20.0857129,27.8237559 C20.0857129,27.896478 20.0857129,27.9692001 20.1157124,28.0419221 C20.1157124,28.2173107 20.1585689,28.3884215 20.1842827,28.5638101 C20.1842827,28.6450877 20.1842827,28.7263653 20.2185679,28.8076429 C20.2442818,28.9830315 20.2742813,29.1541423 20.2999951,29.3295309 C20.2999951,29.3979752 20.2999951,29.4706973 20.3342803,29.5434194 C20.3728511,29.7615856 20.4071363,29.9711963 20.4499927,30.1979182 C20.4476422,30.2206726 20.4476422,30.243608 20.4499927,30.2663625 C20.4971348,30.5187509 20.5442769,30.7711393 20.5957046,31.0235277 C20.594174,31.0420333 20.594174,31.0606332 20.5957046,31.0791387 C20.6385611,31.3058605 20.6857032,31.5069157 20.7328453,31.7507486 C20.7328453,31.7978041 20.7328453,31.8448595 20.7628448,31.8876372 L20.9042711,32.4993583 C20.9167841,32.5386148 20.9268038,32.5786201 20.9342706,32.6191359 C20.9942696,32.8501355 21.049983,33.081135 21.109982,33.3121346 L21.109982,33.3121346 C21.3071217,34.047911 21.5385465,34.7622986 21.7571144,35.4510195 C21.7571144,35.4510195 21.7571144,35.4510195 21.7571144,35.4766862 C22.1199066,36.5496282 22.5699698,37.5911694 23.1028069,38.5909026 C23.1756628,38.7235135 23.2485188,38.8518466 23.3256604,38.9801797 L23.3256604,38.9801797 L23.3256604,38.9801797 L23.5313714,39.3224013 L23.5313714,39.3224013 C23.5313714,39.3224013 23.5313714,39.3224013 23.5313714,39.3224013 C23.6042273,39.4421788 23.6813689,39.5619564 23.7585106,39.6731784 L23.7585106,39.6731784 L23.7927957,39.7159561 L23.7927957,39.7159561 C23.8956512,39.8614003 23.9985067,40.0039926 24.1013621,40.1437331 L24.1570755,40.2078996 L24.1570755,40.2335662 C24.2770736,40.3832882 24.3970716,40.5287324 24.525641,40.6613432 L24.525641,40.6613432 C24.6113539,40.7597319 24.7013524,40.8495651 24.791351,40.9393983 L24.9070634,41.0463425 L25.0742035,41.2003422 L25.2070585,41.3072865 L25.369913,41.4356196 L25.502768,41.5297305 L25.6741938,41.6495081 L25.8070488,41.7307857 L25.9913315,41.8334522 L26.1199009,41.9018965 L26.3298975,41.9960074 L26.4370386,42.0387851 C26.5433213,42.0822236 26.6520801,42.1193621 26.7627476,42.1500071 L26.9556016,42.2141737 C32.2098022,43.6001711 37.3225766,41.4056752 43.7381869,45.9871667" id="Path" fill="#EFAC3F" fill-rule="nonzero"></path>
            <g id="Group" opacity="0.6" style="mix-blend-mode: multiply;" transform="translate(14.000000, 20.000000)" fill="#FCCE76" fill-rule="nonzero">
                <path d="M0.0841269841,36.6582857 C11.5079396,45.6661023 27.5404233,46.0423536 39.3773289,37.580421 C51.2142345,29.1184884 55.9899568,13.8669273 51.0819048,0.201142857 L0.0841269841,36.6582857 Z" id="Path"></path>
            </g>
            <line x1="20" y1="23" x2="29" y2="17" id="Path" stroke="#FFF5E5" stroke-width="1.8" stroke-linecap="round" stroke-linejoin="round"></line>
            <line x1="23" y1="17" x2="29.5" y2="12.5" id="Path" stroke="#FFF5E5" stroke-width="1.8" stroke-linecap="round" stroke-linejoin="round"></line>
        </g>
        <line x1="10.69" y1="64.08" x2="10.8" y2="54.57" id="Path" stroke="#B0B0DB" stroke-width="2.68066896" stroke-linecap="round"></line>
        <line x1="5.99" y1="59.27" x2="15.5" y2="59.38" id="Path" stroke="#B0B0DB" stroke-width="2.68066896" stroke-linecap="round"></line>
        <line x1="42.18" y1="437.9" x2="42.29" y2="428.39" id="Path" stroke="#B0B0DB" stroke-width="2.68066896" stroke-linecap="round"></line>
        <line x1="37.48" y1="433.09" x2="46.99" y2="433.2" id="Path" stroke="#B0B0DB" stroke-width="2.68066896" stroke-linecap="round"></line>
        <line x1="429.05" y1="430.75" x2="429.16" y2="421.24" id="Path" stroke="#B0B0DB" stroke-width="2.68066896" stroke-linecap="round"></line>
        <line x1="424.35" y1="425.94" x2="433.86" y2="426.05" id="Path" stroke="#B0B0DB" stroke-width="2.68066896" stroke-linecap="round"></line>
    </g>
</svg>