<svg width="487" height="274" xmlns="http://www.w3.org/2000/svg">
  <g fill="none" fill-rule="evenodd">
    <g stroke-linecap="round">
      <path stroke="#ACD3EF" stroke-width="3" d="M281.25 22.316v11.368M286.676 28.25h-10.352"/>
      <path stroke="#5563B6" stroke-width="2" d="M171 27.868v7M174.824 31.118h-7M227 74.868v7M230.824 78.118h-7"/>
      <path stroke="#ACD3EF" stroke-width="3" d="M52.25 35.316v11.368M57.676 41.25H47.324M212.25 188.316v11.368M217.676 194.25h-10.352"/>
      <path stroke="#5563B6" stroke-width="2" d="M141.5 199.5v7M145.324 202.75h-7M302 225.868v7M305.824 229.118h-7M84 241.868v7M87.824 245.118h-7"/>
      <path stroke="#ACD3EF" stroke-width="3" d="M105.25 151.316v11.368M110.676 157.25h-10.352"/>
    </g>
    <path d="M54.255 131.866c.873-2.022 1.257-7.946 1.41-14.049l.024-1.047.02-1.047c.03-1.74.043-3.462.046-5.076v-1.421a395.562 395.562 0 00-.081-7.468l-.013-.568-.01-.29-.017-.292c-.113-1.703-.607-3.394-3.335-3.418-2.347-.02-3.295 2.26-3.675 4.9-.188 1.303-.28 6.019-.364 10.784l-.016.922c-.07 3.99-.137 7.864-.253 9.637-1.7-1.891-3.72-4.624-5.759-7.488l-.556-.784-.278-.393-.555-.787c-3.508-4.986-6.862-9.88-8.498-11.02-3.02-2.103-4.918-2.171-7.017-1.27-2.205.946-3.474 3.526-3.553 5.315-.102 2.302-.378 17.257-.162 23.243.064 1.766.432 4.692 3.667 4.715 2.698.019 3.128-3.367 3.266-5.25.42-5.777.348-15.266.318-18.714 1.24 1.58 3.94 5.286 6.781 9.152l.611.83c3.467 4.71 7.004 9.449 8.25 10.693.24.24.463.493.682.746l.262.304c.96 1.112 1.938 2.168 4.045 2.27 1.823.089 3.829-.97 4.76-3.129zm36.731-13.244c.958-10.575-7.334-16.286-13.6-17.06-8.499-1.048-17.57 4.44-17.869 14.885-.27 9.494 6.23 16.52 15.49 16.765 8.051.212 15.116-5.05 15.98-14.59zm-17.692 7.395c-5.26-.974-7.81-5.63-6.72-10.326 1.266-5.454 5.164-7.044 9.398-6.777 4.234.267 8.569 3.71 8.232 9.018-.39 6.137-6.1 8.976-10.91 8.085zm40.407 6.736c1.338-1.72 4.432-7.942 7.289-14.188l.437-.96c2.683-5.918 5.06-11.649 5.432-13.368.408-1.888.174-4.26-2.366-4.894-2.01-.502-3.938 2.079-5.032 4.274-2.763 5.544-10.32 22.528-10.319 22.528-2.462-5.198-5.266-11.849-7.663-17.986-1.12-2.869-3.163-7.049-6.055-5.56-1.665.856-2.387 2.597-1.72 5.158 1.404 5.392 6.68 18.223 10.423 24.14 1.207 1.909 2.736 2.809 4.526 3.06 1.175.165 3.387-.068 5.048-2.204zm23.727 2.246c4.206-.054 10.165-.706 14.83-1.78 1.469-.338 3.216-1.738 3.06-4.085-.19-2.833-2.402-3.659-3.653-3.627-3.655.093-13.684 1.439-13.684 1.439l-.168-7.252s3.09-.186 6.132-.503l.552-.059c1.467-.162 2.877-.353 3.874-.57 3.908-.847 3.348-7.454-2.027-7.41-2.555.022-8.387.353-8.387.353l-.134-5.025h.036c.628-.01 9.468-.144 12.327-.343 2.408-.167 5.132-1.353 4.672-4.646-.378-2.7-3.521-3.282-6.034-3.322-2.817-.044-9.882-.306-14.316.347-1.477.218-3.552 2.237-3.61 4.595l-.105 21.779c.271 6.82.037 10.193 6.635 10.109zm56.42.001c1.827-.018 3.11-1.462 3.203-3.603.092-2.146.13-4.909.133-7.866v-.94c0-.946-.005-1.907-.01-2.869l-.012-1.443c-.06-6.727-.22-13.219-.243-14.932-.032-2.514.16-6.145-2.773-6.22-2.893-.073-4.727 2.623-6.318 4.441-.738.844-2.302 2.568-3.89 4.306l-.414.453c-2.136 2.338-4.187 4.565-4.187 4.565l-.026-.026-.134-.132-.336-.335-.229-.227c-.66-.656-1.704-1.697-2.86-2.853l-.66-.66-.447-.45-.674-.677c-1.721-1.73-3.387-3.421-4.182-4.272-1.917-2.051-3.124-3.827-5.89-3.994-2.34-.14-3.379 1.859-3.496 4.014-.047.852.005 6.04.074 11.447l.011.903c.066 5.119.141 10.23.156 11.867.031 3.59.516 6.18 3.125 6.158 2.741-.023 3.877-2.171 4.029-4.515.045-.707.065-1.874.068-3.269v-.926c-.015-5.083-.205-12.274-.205-12.274s7.305 8.278 11.728 8.342c4.002.058 8.628-7.075 10.345-8.65.225 2.007.05 20.187.504 21.737.476 1.626 1.554 2.92 3.61 2.9zm17.635-.147c10.021-.763 17.64-4.535 17.472-13.102-.056-2.882-2.091-8.001-8.568-8.15 0 0 4.994-2.611 3.929-9.065-1.017-6.159-7.218-7.467-11.486-7.29-3.38.139-8.624-.191-10.014 4.142-.92 2.866-.556 24.216-.021 29.035.534 4.815 3.753 4.805 8.688 4.43zm-1.919-23.79l-.142-7.012s7.513-2.319 8.238 1.499c.975 5.14-6.215 4.786-8.096 5.513zm.109 16.934c-.264-.589-.318-3.231-.322-5.098v-.449c.001-.859.012-1.465.012-1.465s11.022-4.623 12.023 1.025c.592 3.343-8.431 5.933-11.713 5.987zm29.67 7.002c4.207-.054 10.166-.706 14.831-1.78 1.469-.338 3.216-1.738 3.06-4.085-.19-2.833-2.402-3.659-3.653-3.627-3.655.093-13.684 1.439-13.684 1.439l-.168-7.252s3.09-.186 6.132-.503l.552-.059c1.467-.162 2.877-.353 3.874-.57 3.908-.847 3.348-7.454-2.027-7.41-2.555.022-8.387.353-8.387.353l-.134-5.025h.036c.628-.01 9.468-.144 12.327-.343 2.408-.167 5.132-1.353 4.672-4.646-.378-2.7-3.521-3.282-6.034-3.322-2.817-.044-9.882-.306-14.316.347-1.477.218-3.552 2.237-3.61 4.595l-.105 21.779c.271 6.82.037 10.193 6.635 10.109zm26.668.001c1.699 0 3.209-1.725 3.402-3.685.377-3.813.076-6.993.175-9.941 3.694 3.164 6.21 5.94 10.78 8.938 2.408 1.58 5.715 3.354 7.738 2.019 3.063-2.023 1.084-4.834-.372-5.982-5.167-4.076-9.793-7.882-9.793-7.882s8.013-3.313 8.114-11.221c.062-4.82-2.419-9.862-13.211-9.819-3.298.013-8.3.254-9.498 1.863-.964 1.293-1.04 8.13-1.037 12.578v.633l.004 1.397V114.78c-.023 4.203-.023 11.24.104 16.086.044 1.694 1.248 4.134 3.594 4.134zm3.512-21.993l-.002-7.65s7.428-2.283 8.502 2.042c1.332 5.365-8.5 5.607-8.5 5.608z" fill="#5563B6" fill-rule="nonzero"/>
    <path d="M423.29 62.97c-.319-.503-3.622 1.113-5.065 1.95-2.514 1.46-4.286 3.475-5.9 3.632-1.116.109-6.58.924-9.864 2.119-2.488.905-2.916 2.386-3.887 1.892-1.607-.819 3.95-7.924 2.874-7.643-1.908.5-4.143 1.458-7.516 3.632-1.031.665-5.514 1.487-8.487 4.01-2.966 2.518-4.423 6.738-6.293 6.806-2.383.086-.188-9.005-.686-8.697-.92.57-.762 2.102-2.05 3.197-2.298 1.953-6.263 3.897-8.28 6.363-1.753 2.142-2.144 3.802-3.644 5.842-2.098 2.853-3.519 4.424-4.675 6.629-4.345 8.287-2.57 11.31-6.981 11.823-4.684.545-5.972-5.554-7.074-11.885-.35-2.007-1.843.912-2.257-.938-.267-1.19-.695-3.27-.736-5.629-.031-1.826.368-4.062 0-4.645-1.048-1.66-4.191 7.27-6.301 6.035-.837-.49-.64-3.251-1.992-6.035-.441-.908-1.88-1.384-3.053-3.115-.712-1.05-.295-5.911-.872-5.75-.656.183-.968 4.712-1.596 6.437-1.271 3.492-2.716 5.468-3.126 7.073-.605 2.365.108 4.062 0 5.63-.113 1.635-.772 3.8-2.258 3.8s-3.444-7.19-4.038-6.039c-1.565 3.032-1.715 6.452-2.415 8.26-2.18 5.628-.266 12.376-1.598 14.536-.76 1.232-3.393.662-5.118-.577-1.193-.858-1.632-2.597-2.03-1.983-1.015 1.572.667 4.296.81 6.854.162 2.935-1.066 5.775 0 8.497 1.28 3.272 3.57 5.085 3.724 7.142.098 1.31-3.095-1.796-3.725-.816-1.432 2.23 11.59 12.367 2.625 20.582-.82.752-3.024 1.523-4.915.957-2.092-.626-3.87-2.651-4.48-2.919-2.159-.947-5.169-.718-6.822-2.087-2.109-1.747-5.75-7.603-4.514-5.317 1.238 2.285 1.238 6.145 2.411 9.366.744 2.04 1.768 2.726 2.103 5.376.865 6.832 2.075 10.904 8.334 15.492 1.878 1.376 17.493 4.682 12.431 7.11-5.061 2.43 6.773 3.74 13.163 5.675 3.294.997 8.305 1.565 15.035 1.704 3.738.036 6.058.855 6.96 2.458 5.637 10.021 14.823 18.127 18.519 20.738 8.167 5.77 15.486 5.895 16.04 6.016 2.36.515 5.545 2.787 7.861 2.686 2.188-.096 3.812-1.042 5.945-1.181 4.624-.303 8.853.08 12.448-.76 4.457-1.044 5.403-1.722 9.063-2.84 2.701-.826 6.04.78 7.993 0 2.227-.89-5.12-1.833-11.156-5.028-2.69-1.425-2.594-2.855-4.26-4.71-1.869-2.078-4.874-1.344-4.125-6.189.508-3.287 3.614-4.571 7.81-5.708 1.216-.33 2.375-2.674 3.738-3.024 1.651-.424 3.531 1.13 5.278.53 1.746-.601-5.212-5.055-3.376-5.702 1.837-.647 3.647 1.272 6.091 1.01 2.544-.272 6.625-.005 9.15-1.01 2.962-1.179 4.314-3.69 6.436-4.664 1.688-.775 3.339.14 3.76-.677 2.344-4.537-11.949.006-12.731-6.434-.37-3.046 1.53-3.817 4.875-7.133 1.23-1.22 2.346-3.37 4.096-4.197 1.281-.604 3.176.171 4.335-.807.642-.543.484-1.746-.574-2.482-1.15-.799-3.21-1.133-2.521-1.762 2.562-2.339 7.026-2.242 10.216-4.487 6.153-4.328 10.763-10.71 10.245-13.406-.682-3.551-2.4 3.989-6.441 2.895-1.676-.454-6.669-2.36-10.925-2.115-2.402.138-4.425 3.026-5.841 2.162-.76-.463.195-2.288 0-3.75-.178-1.332-1.548-2.273-1.348-3.36.26-1.416 1.632-1.855.681-1.54-3.674 1.219-6.982 5.43-10.97 7.535-6.87 3.626-14.037 4.809-16.156 1.115-1.67-2.91-.86-9.875 3.875-13.076 1.327-.898 1.18-3.56 2.929-5.137 1.77-1.597 4.945-2.217 7.839-3.682 2.105-1.065 3.9-2.985 5.685-4.065 2.152-1.303-1.795.175-5.685-1.824-2.298-1.181-4.314-5.228-5.751-7.308-1.36-1.966 6.762-6.122 4.821-8.679-.632-.833-1.813 1.242-4.017 1.757-2.41.562-5.852-.44-6.387-1.757-.906-2.23 7.072-8.873 7.863-14.956.33-2.535-1.574 1.026-7.297 1.026-1.318 0-4.577-1.689-3.875-5.481.327-1.773-.332-1.885 2.557-7.083.324-.582.213-2.443 1.318-4.235.78-1.265 4.087-3.49 3.747-4.025z" stroke="#5563B6" stroke-width="5" fill="#FFF"/>
    <path d="M403.265 86.372c-12.993 17.758-22.742 32.8-29.248 45.128-6.507 12.327-14.54 30.327-24.102 54" stroke="#89C3EA" stroke-width="5" stroke-linecap="round"/>
    <path d="M350.258 188.726c0-.84-.739-1.527-1.775-1.527-1.037 0-4.698 9.268-5.68 12.48-2.696 8.817-5.225 15.255-6.089 19.787-.797 4.186-1.854 6.678-1.968 11.832-.03 1.355.225 4.701.767 10.037a.899.899 0 001.728.244l1.26-3.147a1 1 0 00.067-.465c-.42-4.523.117-10.103 1.614-16.74 2.285-10.129 10.076-31.66 10.076-32.501z" stroke="#5563B6" stroke-width="5" fill="#5563B6"/>
    <path d="M362.7 183.181c16.004-2.136 28.087-4.624 36.248-7.462 8.16-2.839 17.816-8.912 28.967-18.219M362.7 190.592c6.77 7.667 13.284 12.716 19.54 15.148a55.02 55.02 0 0019.472 3.76M317.299 164.499c3.33 5.604 6.817 9.546 10.458 11.826a35.559 35.559 0 0011.793 4.723M375.143 91.772c-.615 4.221-1.306 7.065-2.074 8.531-2.793 5.334-4.195 8.78-4.195 11.709 0 2.238.707 6.11 2.121 11.615M344.299 123.499c3.175 3.99 5.794 7.825 7.857 11.501 2.062 3.676 3.416 9.104 4.06 16.283M411.267 151.283a13.69 13.69 0 01-4.111 3.013c-3.705 1.776-7.906 1.294-10.43 3.734-2.505 2.421-4.876 6.517-8.199 10.069-1.425 1.524-3.532 3.438-6.321 5.743M412.613 115.37c-3.205 4.168-6.838 7.42-10.9 9.755-2.99 1.718-7.309 1.596-12.94 3.572-1.348.473-3.537 1.535-6.567 3.186M352.202 133.855c.618-4.36.818-7.639.6-9.837-.217-2.198-1.065-5.477-2.544-9.836M387.433 87.266c-1.406 2.54-2.218 4.51-2.436 5.908-.218 1.398-.02 3.368.594 5.909" stroke="#89C3EA" stroke-width="3" stroke-linecap="round"/>
    <path d="M398.66 156.748c2.418-2.78 4.02-4.986 4.803-6.621.783-1.635 1.52-4.306 2.21-8.013M344.65 174.835c-4.885-11.606-8.187-21.24-9.907-28.9-1.72-7.659-2.874-19.496-3.465-35.511" stroke="#89C3EA" stroke-width="3" stroke-linecap="round"/>
    <path d="M394.603 200.908c.041.198.057.338.064.385-.002.006.003-.005 0 0h.001c-1.74-3.894-4.678-4.382-6.744-6.501a1.085 1.085 0 00-.09-.11 2.194 2.194 0 01-.13-.152c-.487-.629-.666-1.561-.62-2.652v-.017c.003-.09.01-.182.016-.274v-.003c.014-.168.033-.343.055-.518l.006-.054.022-.145.021-.148c.01-.05.018-.1.026-.148l.027-.152.02-.108c.267-1.371.785-2.858 1.419-4.246 0 0 .002-.016 0 0 .65 1.468 1.428 2.87 2.194 3.918.923 1.263 2.288 2.584 3.75 3.666 1.455-.913 2.81-2.076 3.726-3.231.764-.968 1.531-2.267 2.171-3.67.054.12.106.243.16.365l.044.11c.037.088.074.175.108.263.018.04.034.082.05.122a25.526 25.526 0 01.146.374c.042.113.084.225.124.337.005.01.009.022.012.033.048.13.093.26.138.39l.01.031.116.35c.009.024.015.048.023.071l.1.32c.005.021.01.042.018.063a19.048 19.048 0 01.108.372c.106.393.2.78.276 1.157.002.004.002.01.004.013.125.63.202 1.232.219 1.783l.003.238v.009c0 .072-.001.143-.004.21v.01a3.489 3.489 0 01-.013.22c0 .01-.002.017-.003.028v.002a4.942 4.942 0 01-.034.314l-.002.018a3.743 3.743 0 01-.101.483l-.024.078-.037.114-.032.08c-.012.034-.027.068-.04.1a2.03 2.03 0 01-.083.171l-.04.072-.056.09c-.013.022-.027.043-.04.062a2.644 2.644 0 01-.073.095l-.037.046a1.565 1.565 0 01-.12.128 1.031 1.031 0 00-.072.079c-2.048 1.895-4.996 2.07-6.718 5.744" fill="#9452BA"/>
  </g>
</svg>
