<?xml version="1.0" encoding="UTF-8"?>
<svg width="487px" height="274px" viewBox="0 0 487 274" version="1.1" xmlns="http://www.w3.org/2000/svg" xmlns:xlink="http://www.w3.org/1999/xlink">
    <title>illus-august-20</title>
    <g id="illus-august-20" stroke="none" stroke-width="1" fill="none" fill-rule="evenodd">
        <g id="Group" transform="translate(328.500000, 136.500000) scale(-1, 1) translate(-328.500000, -136.500000) translate(199.000000, 23.000000)" stroke-linecap="round">
            <line x1="234.25" y1="0.315789474" x2="234.25" y2="11.6842105" id="Line-16" stroke="#ACD3EF" stroke-width="3"></line>
            <line x1="239.676471" y1="6.25" x2="229.323529" y2="6.25" id="Line-16" stroke="#ACD3EF" stroke-width="3"></line>
            <line x1="124" y1="5.86842105" x2="124" y2="12.8684211" id="Line-16" stroke="#5563B6" stroke-width="2"></line>
            <line x1="127.823529" y1="9.11842105" x2="120.823529" y2="9.11842105" id="Line-16" stroke="#5563B6" stroke-width="2"></line>
            <line x1="180" y1="52.8684211" x2="180" y2="59.8684211" id="Line-16" stroke="#5563B6" stroke-width="2"></line>
            <line x1="183.823529" y1="56.1184211" x2="176.823529" y2="56.1184211" id="Line-16" stroke="#5563B6" stroke-width="2"></line>
            <line x1="5.25" y1="13.3157895" x2="5.25" y2="24.6842105" id="Line-16" stroke="#ACD3EF" stroke-width="3"></line>
            <line x1="10.6764706" y1="19.25" x2="0.323529412" y2="19.25" id="Line-16" stroke="#ACD3EF" stroke-width="3"></line>
            <line x1="165.25" y1="166.315789" x2="165.25" y2="177.684211" id="Line-16" stroke="#ACD3EF" stroke-width="3"></line>
            <line x1="170.676471" y1="172.25" x2="160.323529" y2="172.25" id="Line-16" stroke="#ACD3EF" stroke-width="3"></line>
            <line x1="94.5" y1="177.5" x2="94.5" y2="184.5" id="Line-16" stroke="#5563B6" stroke-width="2"></line>
            <line x1="98.3235294" y1="180.75" x2="91.3235294" y2="180.75" id="Line-16" stroke="#5563B6" stroke-width="2"></line>
            <line x1="255" y1="203.868421" x2="255" y2="210.868421" id="Line-16" stroke="#5563B6" stroke-width="2"></line>
            <line x1="258.823529" y1="207.118421" x2="251.823529" y2="207.118421" id="Line-16" stroke="#5563B6" stroke-width="2"></line>
            <line x1="37" y1="219.868421" x2="37" y2="226.868421" id="Line-16" stroke="#5563B6" stroke-width="2"></line>
            <line x1="40.8235294" y1="223.118421" x2="33.8235294" y2="223.118421" id="Line-16" stroke="#5563B6" stroke-width="2"></line>
            <line x1="58.25" y1="129.315789" x2="58.25" y2="140.684211" id="Line-16" stroke="#ACD3EF" stroke-width="3"></line>
            <line x1="63.6764706" y1="135.25" x2="53.3235294" y2="135.25" id="Line-16" stroke="#ACD3EF" stroke-width="3"></line>
        </g>
        <path d="M282.418432,141.577742 C284.036316,140.858682 285.481625,137.843665 284.336164,135.585459 C280.141531,127.316274 278.428731,122.820354 276.246744,118.447753 C273.591257,113.127072 269.309258,101.370089 264.501985,101.370089 C259.288803,101.370089 257.149241,107.354102 255.423499,112.2642 C253.244748,118.460696 250.738466,124.557961 248.498955,130.908696 C247.603726,133.448054 246.455388,137.081462 248.368445,138.718401 C249.215857,139.443573 251.765283,139.933612 253.29652,138.641462 C255.214252,137.023578 257.405945,130.462519 257.405945,130.462519 L272.50296,130.296776 C272.50296,130.296776 275.937548,137.38095 276.867652,139.136534 C278.309726,141.858894 280.205526,142.561056 282.418432,141.577742 Z M260.067903,122.40258 C260.985064,119.884074 263.483436,112.815359 264.202496,110.598139 C264.999573,112.214225 268.535189,120.243604 269.553737,122.400783 C267.09707,122.460824 262.070125,122.400782 260.067903,122.40258 Z M318.766811,124.441849 C319.322645,118.68218 319.5096,111.636115 318.262391,105.968128 C317.669167,103.273812 315.5954,102.368516 313.670477,102.616232 C311.465121,102.899901 310.9927,104.758311 310.80107,106.637573 C310.396599,110.60031 314.076386,133.286639 303.549714,133.314683 C295.379759,133.336254 297.587991,110.325989 297.225225,107.074402 C296.822192,103.462925 295.291314,101.758035 292.29751,102.559427 C288.921166,103.462566 289.121064,107.222888 288.984803,110.026142 C288.64325,117.038411 289.151265,128.777418 292.540912,135.021371 C294.362649,138.377222 298.640334,141.633843 303.50657,141.972161 C312.470726,142.594507 317.979081,132.604254 318.766811,124.441849 Z M350.873062,136.126204 C353.955312,130.931719 353.960345,123.237781 353.960345,123.237781 C353.960345,123.237781 358.224368,123.008761 359.307272,120.918455 C360.842104,117.957009 358.534642,115.167417 354.303696,114.861458 C352.575796,114.7367 345.559213,114.981181 343.778461,115.14225 C341.295549,115.366238 336.718735,116.649399 338.050793,120.11275 C339.405142,123.635422 346.168616,123.230951 346.168616,123.230951 C346.168616,123.230951 346.620904,133.974779 339.935089,133.455977 C330.869905,132.752737 330.570057,111.341301 339.911,106.510299 C343.547643,104.629598 343.322218,101.980583 342.31877,100.099882 C341.123693,97.8596521 337.166708,97.7496362 333.775983,100.099882 C330.533743,102.346584 324.800322,108.077848 324.854611,121.202483 C324.875104,126.137029 327.062484,136.262466 334.293706,140.189969 C340.597701,143.61413 347.307965,142.136104 350.873062,136.126204 Z M393.846811,124.441849 C394.402645,118.68218 394.5896,111.636115 393.342391,105.968128 C392.749167,103.273812 390.6754,102.368516 388.750477,102.616232 C386.545121,102.899901 386.0727,104.758311 385.88107,106.637573 C385.476599,110.60031 389.156386,133.286639 378.629714,133.314683 C370.459759,133.336254 372.667991,110.325989 372.305225,107.074402 C371.902192,103.462925 370.371314,101.758035 367.37751,102.559427 C364.001166,103.462566 364.201064,107.222888 364.064803,110.026142 C363.72325,117.038411 364.231265,128.777418 367.620912,135.021371 C369.442649,138.377222 373.720334,141.633843 378.58657,141.972161 C387.550726,142.594507 393.059081,132.604254 393.846811,124.441849 Z M416.063113,141.45983 C423.506099,139.513695 427.616962,130.792581 422.667675,123.793975 C420.530989,120.773206 417.303131,118.981669 413.881486,117.778682 C410.946285,116.747191 406.702755,116.458488 407.344515,111.903965 C407.816219,108.556743 410.939813,107.619089 413.408345,108.52079 C415.925772,109.440107 418.956249,111.389118 421.133921,109.169022 C423.959465,106.28811 421.447431,103.018906 417.837752,101.493062 C414.664542,100.152015 410.49939,100.190125 407.222635,100.998348 C399.885352,102.807861 396.900176,109.396245 399.661006,116.909338 C402.463541,124.535324 418.519062,124.025511 415.963884,131.289091 C414.548773,135.311871 408.872517,133.845709 404.35143,132.759569 C401.116381,131.982266 398.560484,133.11047 398.45658,136.128723 C398.254883,141.981867 411.08758,142.760609 416.063113,141.45983 Z M443.97784,141.999842 C449.948021,141.999842 448.804125,131.328551 448.77488,127.414333 L448.774327,127.257324 C448.777203,123.782468 448.526251,108.776774 448.526251,108.776774 C448.526251,108.776774 451.007726,108.979189 454.706928,108.545596 C458.867407,108.058074 461.325152,106.765923 461.452426,104.340895 C461.626797,101.018123 458.998634,100.294382 453.295413,100.294382 L449.74552,100.294856 C443.826633,100.29638 440.095738,100.300759 432.802216,100.294382 C429.521507,100.291512 427.409269,101.133171 427.535464,104.298831 C427.611685,106.22627 429.254017,107.626279 431.75239,108.120992 C435.199202,108.80338 440.023732,108.886071 440.023732,108.886071 L440.023071,109.260235 C440.018838,111.896853 440.000601,127.680187 440.163229,131.283698 C440.29266,134.150228 439.603441,141.999842 443.97784,141.999842 Z" id="August" fill="#5563B6" fill-rule="nonzero"></path>
        <g id="Group-2" transform="translate(25.000000, 47.000000)">
            <path d="M76.4059992,1.39199153 C86.0144452,9.48240618 95.6780458,15.7338473 105.396801,20.1463148 C115.115556,24.5587823 130.513061,29.6854764 151.589314,35.5263971 C145.497351,61.0983239 139.300913,82.7339465 133,100.433265 C126.699087,118.132584 115.944896,144.111421 100.737428,178.369776 L31.5585709,100.433265 C41.6381263,85.3862236 49.488809,71.655087 55.1106189,59.2398553 C60.7324289,46.8246235 67.830889,27.5420023 76.4059992,1.39199153 Z" id="Rectangle" stroke="#5563B6" stroke-width="5" fill="#5563B6" stroke-linejoin="round"></path>
            <g id="Group-3">
                <path d="M77,0 C86.3333333,3.72251188 96.6666667,7.55584521 108,11.5 C119.333333,15.4441548 134.676914,18.32229 154.030743,20.1344055 C147.93878,45.7063323 141.742342,67.341955 135.441429,85.0412735 C129.140516,102.740592 118.386325,128.719429 103.178857,162.977785 L34,85.0412735 C44.0795554,69.9942321 51.9302381,56.2630955 57.5520481,43.8478637 C63.173858,31.432632 69.6565086,16.8166774 77,0 Z" id="Rectangle" stroke="#5563B6" stroke-width="5" fill="#FFFFFF" stroke-linejoin="round"></path>
                <path d="M9.5,87.5 C14.3358972,89.3544798 18.1692306,90.1586428 21,89.9124889 C23.8307694,89.666335 27.6641028,88.1955054 32.5,85.5" id="Line-29" stroke="#5563B6" stroke-width="3" stroke-linecap="round"></path>
                <path d="M204.502565,129.130933 C210.511111,127.266966 215.176923,126.252117 218.5,126.086384 C221.823077,125.920652 226.323077,126.12727 232,126.706237" id="Line-29" stroke="#5563B6" stroke-width="3" stroke-linecap="round" transform="translate(218.251282, 127.580996) scale(1, -1) translate(-218.251282, -127.580996) "></path>
                <path d="M63,193 C70.9897432,187.408703 77.3230766,182.459208 82,178.151515 C86.6769234,173.843823 93.0102568,167.126651 101,158" id="Line-29" stroke="#5563B6" stroke-width="3" stroke-linecap="round"></path>
                <path d="M232,110.814505 C232.372519,108.91547 232.781497,107.751297 233.226935,107.321984 C233.672373,106.892672 234.471295,106.892672 235.623702,107.321984 C236.140099,107.105434 236.486841,108.643433 236.663929,111.93598 C236.841017,115.228527 236.841017,120.137412 236.663929,126.662635 C235.56227,130.151746 234.807085,131.832904 234.398372,131.706109 C233.98966,131.579313 233.599181,129.542733 233.226935,125.596369 L232,110.814505 Z" id="Rectangle" fill="#89C3EA" transform="translate(234.398372, 119.356389) rotate(15.000000) translate(-234.398372, -119.356389) "></path>
                <path d="M4,70.8145045 C4.37251892,68.91547 4.78149721,67.7512966 5.22693487,67.3219843 C5.67237253,66.8926719 6.4712949,66.8926719 7.62370198,67.3219843 C8.14009868,67.1054341 8.48684101,68.6434325 8.66392897,71.9359796 C8.84101693,75.2285266 8.84101693,80.1374117 8.66392897,86.6626348 C7.56227013,90.1517465 6.80708463,91.8329045 6.39837247,91.7061089 C5.98966031,91.5793132 5.59918111,89.5427332 5.22693487,85.5963689 L4,70.8145045 Z" id="Rectangle" fill="#89C3EA" transform="translate(6.398372, 79.356389) rotate(-15.000000) translate(-6.398372, -79.356389) "></path>
                <path d="M57,175.814505 C57.3725189,173.91547 57.7814972,172.751297 58.2269349,172.321984 C58.6723725,171.892672 59.4712949,171.892672 60.623702,172.321984 C61.1400987,172.105434 61.486841,173.643433 61.663929,176.93598 C61.8410169,180.228527 61.8410169,185.137412 61.663929,191.662635 C60.5622701,195.151746 59.8070846,196.832904 59.3983725,196.706109 C58.9896603,196.579313 58.5991811,194.542733 58.2269349,190.596369 L57,175.814505 Z" id="Rectangle" fill="#89C3EA" transform="translate(59.398372, 184.356389) rotate(-13.000000) translate(-59.398372, -184.356389) "></path>
                <path d="M100,117.5 C106.493151,105.670076 111.192948,96.034866 114.099391,88.5943703 C117.005835,81.1538745 120.639371,69.4557511 125,53.5" id="Line-27" stroke="#E1F2FF" stroke-width="5" stroke-linecap="round"></path>
                <path d="M100.5,78 C105.175068,70.0517698 108.558922,63.5781131 110.651562,58.57903 C112.744201,53.5799469 115.360347,45.7202703 118.5,35" id="Line-27" stroke="#E1F2FF" stroke-width="5" stroke-linecap="round"></path>
                <path d="M154.030743,20.1344055 C164.723038,54.0563052 173.046124,77.7906251 179,91.3373652 C184.953876,104.884105 193.454731,116.104984 204.502565,125 L185.017746,114" id="Line-28" stroke="#5563B6" stroke-width="5" stroke-linecap="round" stroke-linejoin="round"></path>
                <path d="M89.3070453,29.7569113 C89.4453754,29.876577 89.5343019,29.9689053 89.5649841,29.9983059 C89.5670643,30.0039797 89.5644641,29.9931479 89.5649841,29.9983059 C89.5649841,29.9993375 89.5655041,29.9977901 89.5655041,29.9977901 C86.2065789,28.1955836 83.9199719,29.5670968 81.3239424,29.24369 C81.2880598,29.2328581 81.2474968,29.2240895 81.2012134,29.2168683 C81.1434892,29.2086155 81.0847249,29.1967521 81.0275207,29.1828255 C80.3436708,29.0126114 79.702464,28.4416204 79.127822,27.6240768 C79.1247018,27.6199504 79.1221016,27.615824 79.1189814,27.6111818 C79.0700978,27.5441278 79.0238144,27.4734631 78.9775311,27.4033143 C78.9775311,27.4033143 78.977011,27.4012511 78.9754509,27.4007353 C78.8912048,27.2707536 78.8074786,27.1330349 78.7253126,26.993253 C78.716992,26.9788106 78.7076314,26.964884 78.6993107,26.9504416 C78.6779892,26.9107249 78.6561476,26.8710083 78.633786,26.8323233 C78.6109043,26.7915751 78.5880226,26.7518584 78.566181,26.7121418 C78.5443394,26.670362 78.5230179,26.6301295 78.5022164,26.5898971 C78.4793347,26.5476015 78.4580131,26.5058217 78.4356515,26.463526 C78.4205704,26.435157 78.4054893,26.404209 78.3898882,26.373261 C77.8105659,25.2219946 77.3399315,23.8391338 77.0034669,22.4609153 C77.0034669,22.4609153 76.9956664,22.4475045 77.0034669,22.4609153 C78.2655991,23.1433191 79.578695,23.7039941 80.6868959,24.0134743 C82.0218333,24.3874296 83.6932354,24.5442329 85.2980726,24.4694419 C85.7895084,22.9535046 86.0734492,21.3137753 86.0594081,19.9376199 C86.0464072,18.7868693 85.8508729,17.3942084 85.509728,16 C85.6142556,16.0562222 85.7177432,16.1145077 85.8222708,16.1717615 C85.852433,16.1892987 85.8831153,16.2073517 85.9143176,16.2254048 C85.9881629,16.2671846 86.0620083,16.3084486 86.1348137,16.3528074 C86.1686161,16.3713763 86.2029386,16.3920083 86.2362211,16.4121245 C86.3100664,16.4559675 86.3823517,16.4992947 86.455157,16.5436536 C86.4842792,16.5617066 86.5144414,16.5797596 86.5440835,16.5972968 C86.6356102,16.6545507 86.7266169,16.7112887 86.8165834,16.7690583 C86.8259441,16.7742163 86.8353048,16.7798901 86.8436254,16.7860797 C86.9486731,16.8515864 87.0521606,16.9201878 87.1551282,16.9882735 C87.1634488,16.9929157 87.1707293,16.9991053 87.1790499,17.0042633 C87.2721367,17.0661593 87.3621033,17.1275396 87.4531099,17.1899514 C87.4723513,17.2023306 87.4900326,17.2162572 87.508754,17.2281206 C87.59144,17.2853745 87.673086,17.3436599 87.755252,17.4019454 C87.7703331,17.4138088 87.7854142,17.4256722 87.8020554,17.4370198 C87.8961823,17.5051054 87.9892691,17.5731911 88.0807957,17.6423083 C88.0807957,17.6423083 88.0818358,17.6433399 88.0828759,17.6433399 C88.3746172,17.8656499 88.6533575,18.0910546 88.9154567,18.3195542 C88.9190969,18.3221332 88.9222172,18.325228 88.9258574,18.3272912 C89.3616493,18.7110467 89.7485575,19.1020233 90.0668208,19.4919684 C90.1131041,19.5492223 90.1578274,19.6064761 90.2009905,19.6632141 C90.2025507,19.6657931 90.2051509,19.6668247 90.2061909,19.6688879 L90.2061909,19.6699195 C90.2462339,19.7214996 90.2847167,19.7735954 90.3205993,19.8241438 L90.3211193,19.8256912 C90.3226794,19.8272386 90.3237195,19.8298176 90.3247596,19.831365 C90.3648025,19.8865557 90.4032853,19.9417463 90.4386479,19.9974528 L90.4391679,19.9974528 C90.4438483,20.0051898 90.4474885,20.0118952 90.4526889,20.020148 C90.453209,20.0211796 90.454249,20.0206638 90.454249,20.0216954 C90.5010525,20.0928758 90.5452557,20.1650879 90.5858186,20.2347209 C90.5920591,20.2476159 90.5982996,20.2589635 90.6050601,20.2697954 C90.6076602,20.2739218 90.6092204,20.278564 90.6133807,20.2832062 C90.6581039,20.363671 90.700227,20.4441359 90.7376697,20.5256323 C90.7652317,20.5813388 90.7891535,20.637561 90.8125552,20.6937832 C90.8219159,20.7180259 90.8302365,20.7412369 90.8390771,20.7644479 C90.8525981,20.7995223 90.864039,20.8335651 90.8770399,20.8686396 C90.8853605,20.893398 90.892121,20.9186722 90.8999216,20.9454938 C90.9103223,20.9769576 90.919163,21.0099689 90.9280036,21.0419485 C90.9347641,21.0672227 90.9404845,21.0919811 90.9456849,21.1182869 C90.9534855,21.1502666 90.960246,21.1822462 90.9664864,21.2147416 C90.9706467,21.2389842 90.974287,21.2647742 90.9784473,21.2895327 C90.9831277,21.3225439 90.9862479,21.3565867 90.9909282,21.3885663 C90.9935284,21.4117773 90.9950885,21.4349884 90.9966486,21.4571678 C90.9987288,21.4943054 90.9992488,21.5304114 90.9997689,21.5685806 C90.9997689,21.5850863 91.0002889,21.6046867 90.9997689,21.6232555 C90.9992488,21.6789619 90.9950885,21.7336368 90.9888481,21.78728 C90.9852078,21.8244176 90.9831277,21.8563972 90.9831277,21.8863137 C90.631062,24.4632522 88.7048413,26.3216809 89.5649841,29.9983059" id="Fill-583" fill="#9452BA"></path>
            </g>
            <path d="M152,38 C150.316615,94.1104823 149.474922,125.562612 149.474922,132.356389 C149.474922,139.150166 150.179719,147.924466 151.589314,158.679287 L100.737428,178.369776 C114.463856,146.409449 124.41697,121.968364 130.59677,105.046521 C136.77657,88.1246784 143.91098,65.775838 152,38 Z" id="Rectangle" stroke="#5563B6" stroke-width="5" fill="#FFFFFF" stroke-linejoin="round"></path>
            <path d="M205.683239,38 C204.90283,75.6009733 203.699253,102.829044 202.072506,119.684211 C199.632385,144.966961 199.157899,151.951781 191.711511,154.225891 C186.747252,155.741964 173.510081,151.85121 152,142.55363 C160.788826,131.789879 168.987437,120.333631 176.595834,108.184888 C184.20423,96.0361449 193.900032,72.6411822 205.683239,38 Z" id="Rectangle" stroke="#5563B6" stroke-width="5" fill="#FFFFFF" stroke-linejoin="round" transform="translate(178.841619, 96.272360) scale(-1, 1) translate(-178.841619, -96.272360) "></path>
            <rect id="Rectangle" fill="#5563B6" x="159" y="140" width="16" height="12"></rect>
            <path d="M159,138 C161.804688,139.961562 164.338126,140.969537 166.600312,141.023924 C168.862498,141.078312 172.329061,140.21459 177,138.432758 C175.717034,143.654221 174.416863,147.314277 173.099487,149.412925 C171.782111,151.511573 169.915615,153.222172 167.5,154.544721" id="Line" stroke="#5563B6" stroke-width="5" stroke-linecap="round" stroke-linejoin="round"></path>
            <path d="M161,120 C164.376438,115.194093 166.820333,111.279789 168.331683,108.257088 C169.843034,105.234387 171.732473,100.482024 174,94" id="Line-27" stroke="#E1F2FF" stroke-width="5" stroke-linecap="round" transform="translate(167.500000, 107.000000) rotate(139.000000) translate(-167.500000, -107.000000) "></path>
            <polygon id="Rectangle" fill="#5563B6" points="150 111 156 111 159 144.912489 150 138"></polygon>
        </g>
    </g>
</svg>