<svg width="487" height="274" xmlns="http://www.w3.org/2000/svg">
  <g fill="none" fill-rule="evenodd">
    <path d="M99.418 146.578c1.618-.72 3.064-3.734 1.918-5.993-4.194-8.269-5.907-12.765-8.09-17.137-2.655-5.32-6.937-17.078-11.744-17.078-5.213 0-7.353 5.984-9.079 10.894-2.178 6.197-4.685 12.294-6.924 18.645-.895 2.54-2.044 6.172-.13 7.81.847.725 3.396 1.215 4.928-.078 1.917-1.617 4.109-8.178 4.109-8.178l15.097-.166s3.435 7.084 4.365 8.84c1.442 2.722 3.338 3.424 5.55 2.44zm-22.35-19.175c.917-2.519 3.415-9.588 4.134-11.805.798 1.616 4.333 9.646 5.352 11.803-2.457.06-7.484 0-9.486.002zm33.129 19.59c2.93-.183 3.616-2.99 3.78-4.989.414-5.018.394-7.713.394-7.713s7.387-2.426 9.728-3.686c4.674-2.517 9.707-6.232 9.108-13.303-.769-9.07-12.254-12.134-18.576-12.224-1.783-.025-6.471-.48-8.187 1.416-.623.69-.562 4.816-.534 6.855.105 7.742.179 21.804.2 27.83.012 3.687 1.69 5.964 4.087 5.814zm3.787-21.387l-.151-12.735s3.267-.12 6.266 1.082c2.531 1.015 4.871 2.819 4.899 4.697.033 2.278-2.72 4.467-5.482 5.726-2.762 1.26-5.532 1.23-5.532 1.23zM141.536 147c1.888 0 3.566-1.917 3.781-4.094.419-4.237.084-7.77.194-11.046 4.104 3.515 6.9 6.601 11.978 9.931 2.676 1.755 6.35 3.727 8.598 2.243 3.403-2.247 1.204-5.37-.413-6.646-5.742-4.53-10.882-8.758-10.882-8.758s8.904-3.682 9.016-12.468c.068-5.355-2.688-10.957-14.68-10.91-3.664.015-9.22.283-10.552 2.07-1.36 1.823-1.13 13.552-1.149 17.21-.025 4.671-.025 12.491.116 17.874.05 1.883 1.387 4.594 3.993 4.594zm3.903-24.437l-.002-8.5s8.253-2.537 9.445 2.27c1.481 5.96-9.443 6.23-9.443 6.23zM176.479 147c3.902.002 4.735-4.593 4.815-7.683.115-4.47-.08-14.254-.167-19.447-.105-6.213.457-14.978-3.984-15.732-2.198-.374-4.482 1.882-4.724 4.848-.583 7.169-.33 19.743-.172 26.796.104 4.627.374 11.216 4.232 11.218zm19.382-.095c5.768-.37 12.806-1.602 13.883-1.956 2.275-.749 3.361-2.69 3.174-4.584-.27-2.726-2.697-3.266-4.584-3.241-1.194.015-12.277 1.436-12.277 1.436-.476-17.1-.475-18.179-.71-25.783-.156-5.034-.495-8.215-5.354-7.738-3.376.331-3.074 5.375-2.954 9.183.233 7.448.151 17.084.601 24.257.23 3.684.154 5.727 1.765 7.495 1.222 1.342 5.177 1.013 6.456.93z" fill="#5563B6" fill-rule="nonzero"/>
    <path d="M396.93 32.493c-6.938-.852-14.01 1.436-20.885 6.073-7.33 4.945-14.453 12.574-20.935 21.583-15.915 22.122-27.976 52.553-30.213 70.773-2.02 16.445 2.819 32.152 12.272 44.252 9.454 12.1 23.524 20.594 39.969 22.613 16.445 2.02 32.151-2.818 44.252-12.272 12.1-9.454 20.593-23.523 22.613-39.968 2.23-18.17-2.398-50.526-12.709-75.85-4.223-10.373-9.403-19.565-15.408-26.184-5.63-6.207-12-10.166-18.956-11.02z" stroke="#5563B6" stroke-width="5" fill="#FFF"/>
    <path d="M396.73 31.905c-6.95-.73-13.982 1.68-20.775 6.437-7.242 5.072-14.231 12.824-20.554 21.945-15.527 22.397-27.055 53.033-28.974 71.29-1.732 16.478 3.38 32.097 13.043 44.03 9.663 11.934 23.879 20.18 40.357 21.913 16.478 1.732 32.097-3.38 44.03-13.043 11.934-9.663 20.181-23.879 21.913-40.357 1.913-18.206-3.28-50.476-14.03-75.616-4.404-10.298-9.744-19.398-15.863-25.911-5.738-6.108-12.175-9.955-19.146-10.688z" stroke="#5563B6" stroke-width="5" fill="#FFF"/>
    <path d="M353.571 62.06c17.7 6.444 31 10.015 39.897 10.714 8.897.698 21.46.17 37.686-1.582l11.27 35.134c-24.15 3.357-42.115 4.46-53.897 3.31-11.78-1.15-28.677-5.658-50.69-13.523l15.734-34.054z" fill="#5563B6"/>
    <path d="M344.191 83.346l15.926-6.557a2 2 0 012.471.812l9.816 16.184a2 2 0 002.72.689L395.45 82.58a2 2 0 012.474.364l14.315 15.383a2 2 0 002.707.204l18.699-14.833h0" stroke="#FFF" stroke-width="5" stroke-linecap="round"/>
    <path d="M431.154 147.637c-3.985 11.117-9.89 19.928-17.714 26.435-7.824 6.507-18.569 9.946-32.233 10.317" stroke="#E1F2FF" stroke-width="6" stroke-linecap="round"/>
    <g transform="rotate(-32 332.984 -340.082)">
      <path d="M57-2.5c-6.99 0-13.73 3.133-19.989 8.573-6.672 5.801-12.813 14.242-18.148 23.973C5.763 53.943-2.5 85.617-2.5 103.974c0 16.569 6.716 31.569 17.574 42.427C25.93 157.259 40.93 163.974 57.5 163.974c16.569 0 31.569-6.715 42.426-17.573 10.858-10.858 17.574-25.858 17.574-42.427 0-18.307-8.537-49.856-21.857-73.735-5.457-9.781-11.718-18.273-18.485-24.111C70.814.654 64.01-2.5 57-2.5z" stroke="#5563B6" stroke-width="5" fill="#FFF"/>
      <path d="M103.332 109c-2.801 11.472-7.753 20.853-14.854 28.142-7.101 7.288-17.427 11.832-30.978 13.629" stroke="#E1F2FF" stroke-width="6" stroke-linecap="round"/>
      <ellipse fill="#5563B6" cx="9.5" cy="89" rx="4.5" ry="5"/>
      <ellipse fill="#5563B6" cx="24.5" cy="92" rx="4.5" ry="5"/>
      <ellipse fill="#5563B6" cx="39.5" cy="94" rx="4.5" ry="5"/>
      <ellipse fill="#5563B6" cx="54.5" cy="94" rx="4.5" ry="5"/>
      <ellipse fill="#5563B6" cx="69.5" cy="94" rx="4.5" ry="5"/>
      <ellipse fill="#5563B6" cx="84.5" cy="92" rx="4.5" ry="5"/>
      <ellipse fill="#5563B6" cx="99.5" cy="89" rx="4.5" ry="5"/>
      <ellipse fill="#5563B6" cx="112.5" cy="82" rx="4.5" ry="5"/>
    </g>
    <path stroke="#ACD3EF" stroke-width="3" stroke-linecap="round" d="M275.25 34.316v11.368M280.676 40.25h-10.352"/>
    <path stroke="#5563B6" stroke-width="2" stroke-linecap="round" d="M165 39.868v7M168.824 43.118h-7M221 86.868v7M224.824 90.118h-7"/>
    <path stroke="#ACD3EF" stroke-width="3" stroke-linecap="round" d="M46.25 47.316v11.368M51.676 53.25H41.324M206.25 200.316v11.368M211.676 206.25h-10.352"/>
    <path stroke="#5563B6" stroke-width="2" stroke-linecap="round" d="M135.5 211.5v7M139.324 214.75h-7M296 237.868v7M299.824 241.118h-7M78 253.868v7M81.824 257.118h-7"/>
    <path stroke="#ACD3EF" stroke-width="3" stroke-linecap="round" d="M99.25 163.316v11.368M104.676 169.25H94.324"/>
    <path d="M269.206 167.666c18.735-8.387 32.87-15.444 42.405-21.173 9.535-5.73 22.345-15.39 38.429-28.981l4.525 3.685c-16.427 14.37-29.436 24.436-39.026 30.199-9.59 5.762-24.59 13.109-45 22.04l-1.333-5.77zM266.939 156.34c14.395-5.61 26.36-11.28 35.895-17.01 9.535-5.73 22.271-15.3 38.209-28.711l4.745 3.415c-16.428 14.37-29.436 24.437-39.027 30.2-9.59 5.762-22.474 11.84-38.65 18.236l-1.172-6.13zM272.274 179.061c20.079-9.196 35.226-16.863 45.443-23.001 10.216-6.14 24.073-16.418 41.569-30.837l4.433 3.696c-17.792 15.081-31.826 25.708-42.101 31.883-10.276 6.174-26.278 14.163-48.005 23.967l-1.339-5.708z" fill="#89C3EA"/>
    <path d="M336.68 230.979c.164.044.276.084.313.096.004.004-.002-.004 0 0 0 .001 0 0 0 0-3.536-.137-4.887 1.938-7.185 2.725a.848.848 0 00-.113.028c-.052.016-.106.03-.159.042-.64.136-1.408-.08-2.22-.528l-.013-.007c-.068-.036-.135-.076-.202-.116h-.003c-.123-.075-.25-.156-.375-.24l-.039-.024a4.005 4.005 0 00-.103-.072l-.105-.073c-.035-.026-.07-.05-.103-.076l-.107-.078-.075-.057c-.952-.725-1.908-1.688-2.75-2.7 0 0-.012-.009 0 0 1.331.055 2.656-.012 3.706-.205 1.267-.23 2.726-.78 4.035-1.496-.207-1.465-.638-2.95-1.21-4.092-.48-.955-1.21-2.038-2.061-3.063l.33.016.099.008c.079.005.157.009.236.016a20.647 20.647 0 01.441.037l.297.033.03.003c.114.012.228.027.342.042.009 0 .018.003.027.004l.304.043.062.01.276.044c.018.004.035.008.054.01a15.626 15.626 0 01.318.058c.334.067.658.142.97.226l.012.002c.52.143 1.002.312 1.426.508.062.029.123.058.182.088.002.001.005.001.007.003.055.027.108.055.158.083h.001l.006.004c.056.03.11.06.162.092l.021.013.002.001a4.316 4.316 0 01.227.146l.013.008a3.307 3.307 0 01.333.261l.05.048.075.072c.017.017.033.035.05.055a1.084 1.084 0 01.109.126c.02.023.038.047.056.071l.04.058.052.077.032.055c.017.03.032.06.048.092l.023.046c.022.046.04.094.057.141.012.032.024.06.036.085.755 2.294-.096 4.63 2.118 7.347" fill="#9452BA"/>
  </g>
</svg>
