<?xml version="1.0" encoding="UTF-8"?>
<svg width="487px" height="274px" viewBox="0 0 487 274" version="1.1" xmlns="http://www.w3.org/2000/svg" xmlns:xlink="http://www.w3.org/1999/xlink">
    <title>illus-june-21</title>
    <g id="illus-june-21" stroke="none" stroke-width="1" fill="none" fill-rule="evenodd">
        <path d="M322.083823,101.011964 C322.488444,100.887224 322.793836,101.883236 323,104 C321.136647,105.166058 320.122106,105.478829 319.956375,104.938312 C319.707779,104.127536 321.476893,101.199073 322.083823,101.011964 Z" id="Rectangle" fill="#89C3EA"></path>
        <path d="M386,145 L395.218364,143.995718 C395.818406,145.361391 395.078951,146.696152 393,148 C390.921049,149.303848 388.199432,150.306944 384.835148,151.009288 L386,145 Z" id="Rectangle" fill="#89C3EA"></path>
        <path d="M400.396548,122.25852 C400.976362,120.851702 401.1259,119.63625 400.845165,118.612164 C399.444371,113.502262 398.508018,112.670341 398.102628,112.131739 C404.121525,113.810334 405.870394,118.32263 403.349234,125.668626 C400.008168,126.867645 398.181986,127.360647 397.870689,127.147632 C397.767602,127.077092 396.695998,123.984656 396.414925,120.940805 C396.118941,117.735471 396.627778,114.560912 397.136964,114.083042 C397.356424,113.877078 397.621988,115.782433 398.758411,119.130647 C399.076585,120.068076 399.622631,121.1107 400.396548,122.25852 Z" id="Rectangle" fill="#89C3EA"></path>
        <path d="M398.726312,125.281106 C400.106382,124.046042 402.367547,124.817939 403.978024,124.870344 C404.578958,124.889899 405.072772,123.492378 405.420268,123.754928 C405.930034,124.140081 405.510108,124.381679 405.033899,125.713324 C404.963571,125.909984 405.838174,125.647464 405.727895,126 C405.641334,126.276713 405.184815,127.176783 404.777505,127.949501 C404.579673,128.324813 404.039074,128.835485 403.155709,129.481519 L397.804276,129.657963 C397.155613,127.870669 397.462959,126.411717 398.726312,125.281106 Z" id="Rectangle" fill="#89C3EA"></path>
        <path d="M288,162 C288.465415,161.469825 288.774236,161.349693 288.926461,161.639604 C289.70303,163.118568 290.116376,165.939851 290.5641,166.547456 C292.375406,169.005574 293.971197,170.158958 294.110917,170.707125 C294.421053,171.923887 291.112857,170.111749 289.702444,167.573006 C288.762169,165.880511 288.194688,164.022842 288,162 Z" id="Rectangle" fill="#89C3EA"></path>
        <path d="M278.782846,137.866625 C279.559415,139.345589 279.972761,142.166872 280.420485,142.774477 C282.231791,145.232595 283.827582,146.38598 283.967302,146.934146 C284.277438,148.150908 280.969242,146.33877 279.55883,143.800027 C278.148417,141.261284 278.554508,137.431759 278.782846,137.866625 Z" id="Rectangle" fill="#89C3EA" transform="translate(281.267887, 142.577262) rotate(45.000000) translate(-281.267887, -142.577262) "></path>
        <path d="M302.014876,136.5 C301.271208,134.430037 301.981975,131.724734 303.23046,131.724734 C303.801571,131.724734 305.366694,135.430342 310.282507,141.434935 C311.102076,142.436027 313.623816,144.851985 316.001612,146.492635 C317.100508,147.25086 318.052792,146.835872 319,147.846985 C319.501132,148.381926 319.501132,149.432931 319,151 C317.432118,151.204457 316.432655,151.204457 316.001612,151 C315.045857,150.546655 314.536987,149.617147 314.00879,149.34151 C310.823448,147.679251 309.079374,145.647402 307.712408,144.200027 C304.806927,141.123636 302.758543,138.569963 302.014876,136.5 Z" id="Rectangle" fill="#89C3EA"></path>
        <path d="M302.111194,118.297297 C301.765794,121.801773 301.554802,122.726841 300.157689,125.737568 C299.826716,126.450804 298.719403,126.375053 298.342139,127.517673 C296.372358,133.483547 291.912762,139.058274 290.721522,140.778289 C289.530282,142.498303 287.57687,142.604896 287.330501,140.831633 C287.269804,140.394758 286.994316,139.189275 287.726927,137.891498 C289.967963,133.92167 295.547052,127.402077 296.258264,125.737568 C297.129272,123.699074 296.727695,121.22566 297.175378,119.698886 C298.220087,116.136012 302.53842,113.962616 302.111194,118.297297 Z" id="Rectangle" fill="#89C3EA" transform="translate(294.685119, 129.003562) rotate(25.000000) translate(-294.685119, -129.003562) "></path>
        <path d="M303.571864,126.829924 C302.828196,124.759961 303.15408,122.107216 304.402565,122.107216 C304.973676,122.107216 310.464499,125.872329 315.380312,131.876922 C316.199881,132.878014 318.721621,135.293972 321.099417,136.934622 C322.198313,137.692846 323.16568,135.92524 324.112887,136.936353 C324.614019,137.471294 324.608992,138.973172 324.097805,141.441987 C322.529923,141.646444 321.53046,141.646444 321.099417,141.441987 C320.143662,140.988642 319.634792,140.059134 319.106595,139.783497 C317.65825,139.027683 314.236889,137.034846 311.190156,134.360595 C308.453114,131.958172 306.077623,128.907138 304.707087,127.374686 C304.247965,126.861323 303.673624,127.11317 303.571864,126.829924 Z" id="Rectangle" fill="#89C3EA" transform="translate(313.831326, 131.851273) rotate(18.000000) translate(-313.831326, -131.851273) "></path>
        <path d="M315.678812,86.0633604 C315.526859,85.4659271 317.853352,86.5302097 319.17558,89.1618123 C320.177679,91.1562679 319.899186,97.9162879 318.933328,102.022842 C318.437867,104.129399 316.696207,104.032545 316.617655,103.974643 C316.480834,103.873789 315.418611,104.082098 314.829625,102.687691 C314.514154,101.940825 314.579304,100.938848 314.405898,99.7810082 C314.199397,98.4021898 313.774253,96.8476644 313.623749,95.8680002 C313.040998,92.0747492 315.702554,86.1567044 315.678812,86.0633604 Z" id="Rectangle" fill="#89C3EA" transform="translate(316.672750, 94.949166) rotate(18.000000) translate(-316.672750, -94.949166) "></path>
        <path d="M309.76253,100.816945 C309.610577,100.219511 312.818206,101.701783 314.140435,104.333386 C315.656584,107.350946 315.357803,111.651341 315.914915,112.194314 C316.39692,112.664088 312.493704,115.609481 312.262022,115.438704 C311.964647,115.219504 309.784543,111.216295 309.271696,107.878065 C308.688945,104.084814 309.786272,100.910288 309.76253,100.816945 Z" id="Rectangle" fill="#89C3EA" transform="translate(312.528498, 108.065585) rotate(18.000000) translate(-312.528498, -108.065585) "></path>
        <path d="M307.510025,117.815911 C306.766358,115.745947 309.914433,114.571521 311.162918,114.571521 C311.49637,114.571521 312.49436,116.839135 314.982376,119.325446 C316.755638,121.097493 325.11136,127.406864 327.489156,129.047514 C328.588052,129.805738 327.281329,134.203005 326.753132,133.927368 C325.304786,133.171554 317.24134,128.653905 314.194607,125.979653 C311.457565,123.57723 307.611786,118.099157 307.510025,117.815911 Z" id="Rectangle" fill="#89C3EA" transform="translate(317.657045, 124.255653) rotate(18.000000) translate(-317.657045, -124.255653) "></path>
        <path d="M315.188786,109.548172 C314.445119,107.478208 317.974551,105.886257 319.223036,105.886257 C319.556489,105.886257 320.513487,108.237359 323.001503,110.723671 C324.774765,112.495718 332.282215,119.578685 334.660011,121.219335 C335.758907,121.977559 334.452184,126.374826 333.923987,126.099189 C332.475641,125.343375 324.412195,120.825725 321.365463,118.151474 C319.475176,116.492286 317.509541,112.287363 316.160136,110.418569 C315.555668,109.581441 315.220268,109.635799 315.188786,109.548172 Z" id="Rectangle" fill="#89C3EA" transform="translate(325.087040, 115.998931) rotate(28.000000) translate(-325.087040, -115.998931) "></path>
        <path d="M300.288693,131.000566 C301.712154,131.000566 303.172332,130.76373 302.745106,135.098411 C302.399706,138.602887 302.188714,139.527955 300.791601,142.538682 C300.460628,143.251918 299.353315,143.176168 298.976051,144.318788 C297.00627,150.284661 291.566239,159.431218 290.374999,161.151232 C289.183759,162.871246 287.56468,162.924495 287.318311,161.151232 C287.071942,159.377969 288.292558,157.0629 289.491914,154.795146 C292.185114,149.702819 295.948464,144.747331 296.892176,142.538682 C297.763184,140.500189 297.361607,138.026774 297.80929,136.5 C298.853999,132.937126 299.9115,131.000566 300.288693,131.000566 Z" id="Rectangle" fill="#89C3EA"></path>
        <path d="M345.178379,192.008778 C345.818194,192.249085 346.214215,192.514194 346.36644,192.804106 C347.143009,194.283069 347.556355,197.104352 348.004079,197.711958 C349.815385,200.170075 351.411176,201.32346 351.550896,201.871627 C351.861032,203.088388 348.552836,201.27625 347.142424,198.737507 C346.202149,197.045012 345.547467,194.802102 345.178379,192.008778 Z" id="Rectangle" fill="#89C3EA" transform="translate(348.374834, 197.134096) scale(1, -1) rotate(139.000000) translate(-348.374834, -197.134096) "></path>
        <path d="M361.62319,189.524949 C362.399759,191.003913 362.042265,193.134256 363.063091,195.173251 C364.607971,198.258991 366.259277,198.892782 366.398997,199.440949 C366.709133,200.657711 363.79624,198.491096 362.385827,195.952354 C360.975414,193.413611 361.394852,189.090082 361.62319,189.524949 Z" id="Rectangle" fill="#89C3EA" transform="translate(363.902426, 194.641824) scale(1, -1) rotate(139.000000) translate(-363.902426, -194.641824) "></path>
        <path d="M366.876392,167.882551 C368.159255,167.882551 369.905465,174.710416 368.646348,177.581146 C368.348065,178.261216 366.95599,178.642274 366.615989,179.731763 C364.840767,185.420226 359.938059,194.141471 358.864481,195.781505 C357.790903,197.421539 355.278211,197.306932 355.056177,195.616125 C354.834143,193.925318 356.987727,191.883279 358.06862,189.720975 C360.495807,184.865439 363.887443,180.14038 364.737942,178.034432 C364.989007,177.412763 364.59141,176.846998 364.612227,176.027731 C364.656497,174.285487 364.872033,172.146717 365.146455,171.156549 C366.087976,167.759348 366.536456,167.882551 366.876392,167.882551 Z" id="Rectangle" fill="#89C3EA" transform="translate(362.060938, 182.416036) rotate(13.000000) translate(-362.060938, -182.416036) "></path>
        <path d="M359.188143,151.553089 C358.444475,149.483126 361.327735,149.02998 362.57622,149.02998 C362.794189,149.02998 365.16679,150.573918 367.78836,152.823367 C369.808504,154.55676 371.913042,156.951782 373.902097,158.763975 C376.095005,160.761894 378.110726,162.119632 378.881707,162.651599 C379.980602,163.409824 380.424864,162.723195 381.372072,163.734308 C381.873204,164.269249 381.803059,165.749173 381.161638,168.174079 C379.544609,168.419064 378.343472,168.124629 377.558228,167.290774 C377.35501,167.074975 377.253276,166.951428 376.486299,166.141271 C374.641479,164.192588 369.718997,162.832969 368.753452,161.810628 C366.887919,159.835358 359.454321,152.293983 359.188143,151.553089 Z" id="Rectangle" fill="#89C3EA" transform="translate(370.384568, 158.643753) scale(1, -1) rotate(133.000000) translate(-370.384568, -158.643753) "></path>
        <path d="M364.279897,141.442566 C363.974286,140.591912 365.147213,140.721856 365.701085,140.117287 C366.494992,139.250712 366.930629,137.817452 367.666048,137.817452 C367.884017,137.817452 374.611119,146.197104 376.600174,148.009297 C378.793082,150.007216 383.321556,153.892146 384.092537,154.424113 C385.191432,155.182338 383.144993,160.712672 381.967128,159.461891 C381.763909,159.246092 375.035473,154.275014 374.069929,153.252673 C372.204396,151.277403 364.546075,142.18346 364.279897,141.442566 Z" id="Rectangle" fill="#89C3EA" transform="translate(374.318225, 148.731355) scale(1, -1) rotate(133.000000) translate(-374.318225, -148.731355) "></path>
        <path d="M390.116926,151.695725 C392.309834,153.693645 391.554943,163.437438 390.377077,162.186656 C390.173858,161.970857 388.788126,163.131468 388.02115,162.321311 C386.722603,160.949656 384.986156,152.878824 386.1386,150.312817 C386.62341,149.233347 389.527943,151.159113 390.116926,151.695725 Z" id="Rectangle" fill="#89C3EA" transform="translate(388.639566, 156.301044) scale(1, -1) rotate(133.000000) translate(-388.639566, -156.301044) "></path>
        <path d="M401.939764,143.825233 C402.820513,144.627667 401.53204,147.646214 401.803637,150.018407 C402.208269,153.552556 403.517277,158.068424 402.812483,157.32 C402.609264,157.104201 400.29995,156.788827 399.532973,155.97867 C398.882967,155.292069 397.586372,151.289501 397.145671,147.601226 C396.705963,143.92127 397.120763,140.556266 397.696334,139.274711 C398.181145,138.195241 401.350781,143.288621 401.939764,143.825233 Z" id="Rectangle" fill="#89C3EA" transform="translate(399.989487, 148.263596) scale(1, -1) rotate(133.000000) translate(-399.989487, -148.263596) "></path>
        <path d="M379.350958,161.2419 C380.630039,161.2419 381.935101,169.160346 380.679696,172.221868 C380.382293,172.947137 378.994321,173.35352 378.655322,174.515418 C376.885334,180.581943 370.432695,189.823452 369.362282,191.572485 C368.291868,193.321518 367.350968,193.258655 367.129588,191.455475 C366.908208,189.652295 369.055444,187.474539 370.133151,185.168525 C372.553182,179.990284 375.720698,174.505111 376.56869,172.259199 C376.819015,171.596213 376.636712,171.438927 376.657468,170.565211 C376.701607,168.707175 376.916508,166.42626 377.19012,165.370285 C377.475085,164.270495 377.091063,162.877536 377.352115,162.279237 C377.951034,160.906586 379.11491,161.2419 379.350958,161.2419 Z" id="Rectangle" fill="#89C3EA" transform="translate(374.151367, 177.026346) rotate(-3.000000) translate(-374.151367, -177.026346) "></path>
        <path d="M348.783158,164.399246 C348.03949,162.329283 348.750257,159.62398 349.998742,159.62398 C350.569853,159.62398 352.448412,161.517901 357.364225,167.522494 C358.183794,168.523585 360.392098,172.751231 362.769894,174.391881 C363.86879,175.150106 365.166887,174.306586 366.114095,175.317699 C366.615227,175.852641 366.499956,177.04649 365.768282,178.899246 C364.2004,179.103703 363.200937,179.103703 362.769894,178.899246 C361.814138,178.445901 361.305269,177.516393 360.777072,177.240756 C357.591729,175.578497 355.847656,173.546649 354.48069,172.099273 C352.615157,170.124003 351.549669,167.556816 350.509312,166.00221 C349.929362,165.135591 349.049336,165.14014 348.783158,164.399246 Z" id="Rectangle" fill="#89C3EA" transform="translate(357.450047, 169.338284) scale(1, -1) rotate(133.000000) translate(-357.450047, -169.338284) "></path>
        <path d="M355.235449,156.115063 C354.491781,154.0451 355.16522,151.840189 356.413705,151.840189 C356.984816,151.840189 359.830486,155.596628 364.7463,161.601221 C365.565869,162.602312 368.251182,167.031435 370.628978,168.672085 C371.727874,169.43031 372.172136,168.743681 373.119344,169.754794 C373.620475,170.289735 373.550331,171.769659 372.90891,174.194565 C370.93768,173.810153 369.736544,173.515718 369.3055,173.31126 C369.024835,173.178132 369.187742,172.364391 368.420766,171.554235 C366.575945,169.605551 363.086107,166.6287 362.120563,165.606358 C360.25503,163.631088 355.501627,156.855957 355.235449,156.115063 Z" id="Rectangle" fill="#89C3EA" transform="translate(364.187233, 163.017377) scale(1, -1) rotate(133.000000) translate(-364.187233, -163.017377) "></path>
        <path d="M340.132772,85.8178084 C345.95483,79.1020636 351.262533,77.2117861 356.055879,80.146976 C353.489971,80.5446083 349.983845,82.3362413 345.5375,85.521875 C347.412669,85.3916401 348.730789,85.2590983 349.49186,85.1242497 C352.9647,84.5089224 354.371941,83.9613635 354.233959,84.4180806 C353.387787,87.2188829 349.237582,88.9012543 341.783345,89.4651949 L340.132772,85.8178084 Z" id="Rectangle" fill="#89C3EA"></path>
        <path d="M335,88.0770033 C335.853693,85.8677004 336.603922,84.6026355 337.250687,84.2818085 C337.684777,84.0664786 337.540043,85.3207996 337.980132,85 C338.485435,84.6316635 339.569609,82.7008099 339.959913,82.7162836 C340.609359,82.742227 340.455953,83.858073 340.902524,84.2818085 C341.491526,84.8406916 342.83785,84.535113 343,85 C343.6606,86.8939567 344.50723,87.9884498 343,90 C341.99518,91.3410335 339.328513,92.4869411 335,93.437723 L335,88.0770033 Z" id="Rectangle" fill="#89C3EA"></path>
        <path d="M355.012528,30.6235658 C372.097805,23.2894564 385.461955,20.4839753 395.41996,30.6235658 C391.498518,30.1518389 387.447698,31.9980489 382.087821,34.1047061 C380.758747,34.6270881 380.987831,36.9656751 379.551211,37.5211695 C378.108928,38.0788538 374.93926,36.7971747 373.547068,37.5211695 C372.775378,37.9224789 373.464624,40.8798594 372.692548,41.2874207 C370.807936,42.2822654 366.456757,41.6998918 364.870123,42.8380455 C363.863686,43.5600011 366.920043,44.5940381 366.064237,45.3626871 C364.919843,46.3905343 361.773152,47.0398925 360.650638,48.0243667 C357.026452,51.2028734 356.106011,54.7849781 355.738191,55.0354501 C355.639832,55.1024288 366.749946,49.9932446 376.251467,45.3626871 C385.412603,40.8980158 390.429725,35.3700164 391.396353,36.8358243 C391.938379,37.6577589 388.864671,46.4919393 381.180005,50.4599696 C373.752551,54.2951863 375.289729,52.8734354 364.870123,56.286601 C364.291871,56.4760198 360.29191,58.1162518 359.09952,58.6528676 C357.896027,59.1944802 358.785138,63.5823817 357.39532,64.8888652 C356.707419,65.5355194 351.248164,64.3019305 350.611315,64.8888652 C350.121343,65.340435 352.012182,68.4743847 351.46013,68.8539806 C350.385584,69.5928473 344.439989,67.2007325 343.516444,67.9374532 C342.499299,68.7488397 343.888752,71.6803552 342.786703,72.1318325 C342.040402,72.4375707 338.196913,71.082153 337.284152,70.74242 C335.05905,69.9142279 333.162758,69.6306116 331.683547,70.0831088 C324.425763,72.303297 319.420928,72.3355061 318.779642,67.9374532 C318.639102,66.9736062 317.006932,65.3770665 317.339969,64.1649403 C317.563881,63.349987 319.033312,64.0005463 319.468671,63.103694 C324.396613,52.9519898 341.005282,36.6363852 355.012528,30.6235658 Z" id="Rectangle" stroke="#5563B6" stroke-width="4" fill="#FFFFFF" stroke-linejoin="round"></path>
        <path d="M332.153915,69.6972328 C333.874678,72.2761874 330.789028,74.7328512 331.732914,77.9384056 C332.030543,78.9491903 334.918712,83.8470184 335.13894,84.7319031 C335.896021,87.7738874 337.083822,90.5471167 335.626375,92.4094089 C334.038995,94.4377281 331.114877,96.086263 327.917384,95.51839 C325.071913,95.0130362 319.549134,94.0057188 316.67275,85.734398 C316.499905,85.2373653 313.312031,77.276462 313.401661,76.6079723 C313.570548,75.348364 317.2539,76.578321 318.068966,75.7419622 C318.791724,75.0003228 317.840018,72.0185037 318.434391,71.25928 C319.226825,70.2470632 323.096957,66.9376137 324.696416,66.1499274 C327.203032,64.915493 330.915171,67.8406929 332.153915,69.6972328 Z" id="Rectangle" stroke="#5563B6" stroke-width="4" fill="#FFFFFF"></path>
        <path d="M318.068966,93.4411723 C318.928437,88.4042758 326.816805,86.3426341 333.158486,89.4680012 C334.125356,89.9445031 337.823783,91.0390987 338.227948,91.3907043 C338.757485,91.8513776 339.466559,99.5370758 339.420951,100.316987 C339.384714,100.936663 340.506631,105.10005 342.786703,112.807149 L333.62197,120.940805 C333.118163,119.283513 332.683814,118.212657 332.318921,117.728239 C329.990015,114.636461 327.905387,113.280768 326.974654,111.875204 C323.294811,106.318021 320.789216,98.2372611 320.601225,97.8455687 C318.902964,94.307116 317.665422,95.806128 318.068966,93.4411723 Z" id="Rectangle" stroke="#5563B6" stroke-width="4" fill="#FFFFFF"></path>
        <path d="M366,131 C370.148842,130.454848 372.921584,130.185044 374.318225,130.190588 C375.040458,130.193455 376.618899,131 380.069523,131 C381.850374,131 389.374259,128.238115 389.8934,128.516226 C390.367171,128.770033 392.37883,130.704019 392.707488,131 C394.623709,132.725698 394.276171,134.775754 395.218364,136.636101 C397.340458,140.826144 398.171769,143.921057 394,146 C389.503779,148.240629 379.226252,146.85221 363.167421,141.834743 L366,131 Z" id="Rectangle" stroke="#5563B6" stroke-width="4" fill="#FFFFFF"></path>
        <path d="M417.395206,77.9913628 C422.067302,61.5277855 424.117333,61.2126652 427.126317,61.2126652 C427.218256,61.2126652 424.907814,65.5944107 424.338976,70.1844016 C422.888854,81.8855207 424.622581,99.4796294 424.338976,98.9619635 C424.273471,98.8423966 426.024688,98.2951074 428.807226,93.437723 C429.17641,92.7932503 428.385754,90.311037 428.807226,89.4651949 C429.636771,87.8003993 431.021057,88.1034196 432.045002,86.4773208 C432.728712,85.3915399 430.681258,80.6226476 431.023364,79.6640787 C431.344437,78.7644408 434.385106,79.3328328 434.488617,78.3720725 C434.668551,76.7019814 431.99675,73.9371761 432.045002,72.1763962 C432.09997,70.1705628 434.015326,70.2982208 434.488617,68.6743449 C435.007245,66.894917 434.060603,63.3943876 433.447051,61.8753439 C431.947145,58.1618427 428.776437,56.7547869 428.807226,56.6422548 C443.45497,57.640333 451.677198,67.9318307 450.81128,85.0366082 C450.185481,97.3982368 448.652094,107.482051 424.743039,136.2614 C424.508297,136.54396 424.475893,137.260807 424.338976,137.762543 C424.149979,138.45513 422.980798,137.792908 421.359588,137.762543 C420.501496,137.746472 418.850995,137.825624 416.408087,138 L415.819431,129.37412 C413.63604,126.321382 412.125481,124.087295 411.287753,122.671859 C410.966917,122.129769 413.162717,122.910538 412.991418,122.316341 C412.559116,120.816784 408.80514,115.801384 408.737924,114.995493 C408.655507,114.007363 412.690095,115.623937 412.991418,114.995493 C413.324107,114.301631 412.466748,111.572327 412.470222,111.194653 C412.475566,110.613662 409.682357,107.452229 409.695651,106.880836 C409.707803,106.358563 414.092203,106.170592 414.110732,105.6563 C414.196691,103.270321 412.783533,103.224983 412.991418,101.008559 C413.08403,100.021145 415.153802,99.9162499 415.266995,98.9619635 C415.52732,96.7672427 415.142717,94.5700966 415.266995,92.4485111 C415.582335,87.0652399 416.241319,82.0574408 417.395206,77.9913628 Z" id="Rectangle" stroke="#5563B6" stroke-width="4" fill="#FFFFFF" stroke-linejoin="round"></path>
        <path d="M390.525853,131.080387 C390.525853,129.98913 393.9447,128.526653 398.447994,128.487538 C401.953195,128.457093 406.164569,129.783017 409.614189,129.622674 C411.785071,129.521768 411.851142,128.512802 413.545451,127.427216 C415.239759,126.34163 417.185535,127.427806 418.117269,128.487538 C421.718216,132.583172 418.511654,137.989305 418.117269,138.292678 C417.521109,138.751262 417.425179,142.369744 416.339918,143.810297 C415.218514,145.298825 411.59308,145.808921 411.004882,145.811401 C405.448752,145.834828 399.416284,145.547484 395.218364,143.01102 C390.106311,139.922219 390.525853,132.353866 390.525853,131.080387 Z" id="Rectangle" stroke="#5563B6" stroke-width="4" fill="#FFFFFF"></path>
        <g id="Group" transform="translate(141.500000, 136.500000) scale(-1, 1) translate(-141.500000, -136.500000) translate(12.000000, 23.000000)" stroke-linecap="round">
            <line x1="234.25" y1="0.315789474" x2="234.25" y2="11.6842105" id="Line-16" stroke="#ACD3EF" stroke-width="3"></line>
            <line x1="239.676471" y1="6.25" x2="229.323529" y2="6.25" id="Line-16" stroke="#ACD3EF" stroke-width="3"></line>
            <line x1="124" y1="5.86842105" x2="124" y2="12.8684211" id="Line-16" stroke="#5563B6" stroke-width="2"></line>
            <line x1="127.823529" y1="9.11842105" x2="120.823529" y2="9.11842105" id="Line-16" stroke="#5563B6" stroke-width="2"></line>
            <line x1="180" y1="52.8684211" x2="180" y2="59.8684211" id="Line-16" stroke="#5563B6" stroke-width="2"></line>
            <line x1="183.823529" y1="56.1184211" x2="176.823529" y2="56.1184211" id="Line-16" stroke="#5563B6" stroke-width="2"></line>
            <line x1="5.25" y1="13.3157895" x2="5.25" y2="24.6842105" id="Line-16" stroke="#ACD3EF" stroke-width="3"></line>
            <line x1="10.6764706" y1="19.25" x2="0.323529412" y2="19.25" id="Line-16" stroke="#ACD3EF" stroke-width="3"></line>
            <line x1="165.25" y1="166.315789" x2="165.25" y2="177.684211" id="Line-16" stroke="#ACD3EF" stroke-width="3"></line>
            <line x1="170.676471" y1="172.25" x2="160.323529" y2="172.25" id="Line-16" stroke="#ACD3EF" stroke-width="3"></line>
            <line x1="94.5" y1="177.5" x2="94.5" y2="184.5" id="Line-16" stroke="#5563B6" stroke-width="2"></line>
            <line x1="98.3235294" y1="180.75" x2="91.3235294" y2="180.75" id="Line-16" stroke="#5563B6" stroke-width="2"></line>
            <line x1="255" y1="203.868421" x2="255" y2="210.868421" id="Line-16" stroke="#5563B6" stroke-width="2"></line>
            <line x1="258.823529" y1="207.118421" x2="251.823529" y2="207.118421" id="Line-16" stroke="#5563B6" stroke-width="2"></line>
            <line x1="37" y1="219.868421" x2="37" y2="226.868421" id="Line-16" stroke="#5563B6" stroke-width="2"></line>
            <line x1="40.8235294" y1="223.118421" x2="33.8235294" y2="223.118421" id="Line-16" stroke="#5563B6" stroke-width="2"></line>
            <line x1="58.25" y1="129.315789" x2="58.25" y2="140.684211" id="Line-16" stroke="#ACD3EF" stroke-width="3"></line>
            <line x1="63.6764706" y1="135.25" x2="53.3235294" y2="135.25" id="Line-16" stroke="#ACD3EF" stroke-width="3"></line>
        </g>
        <path d="M96.4514569,153.880567 C101.295725,147.95264 99.1248486,134.397037 97.5021108,127.567301 C100.388416,127.158623 102.17456,126.866756 104.584236,125.820633 C106.967703,124.785511 107.729079,123.189307 107.045362,121.460112 C106.137728,119.164659 103.967823,119.032316 100.561853,119.330653 C96.7750339,119.66232 88.4503734,120.45573 84.5522435,121.153038 C84.1672165,121.221872 83.7752219,121.283768 83.3858454,121.34737 L82.9976968,121.411862 C80.6783015,121.806064 78.5681903,122.365422 78.7378919,124.957007 C78.9242722,127.805777 81.433287,128.336767 84.2228426,128.575243 C86.0859975,128.734443 90.4840532,128.267198 90.4840532,128.267198 C90.4840532,128.267198 90.48925,128.292124 90.4990581,128.339641 L90.5246488,128.464104 C90.6554487,129.102448 91.0793549,131.201558 91.4574352,133.410528 L91.547121,133.942098 C91.7682684,135.272839 91.9631572,136.604223 92.058578,137.644453 C92.3475322,140.794473 93.3684169,146.07913 90.9613289,148.399499 C89.4986034,149.809661 87.0252836,148.524596 84.6578896,147.093182 L84.241441,146.839579 C83.6190993,146.458452 83.0087817,146.077576 82.4311971,145.744227 C80.2121077,144.463834 78.0506147,144.899692 76.8789431,147.450771 C76.0399084,149.277363 76.7190964,150.902042 78.9944886,152.658417 C85.2152524,157.461267 92.3876553,158.853295 96.4514569,153.880567 Z M137.90613,141.197664 C138.406381,136.013962 138.57464,129.672504 137.452152,124.571315 C136.918251,122.146431 135.05186,121.331665 133.31943,121.554609 C131.334609,121.809911 130.90943,123.482479 130.736963,125.173815 C130.372939,128.740279 133.684747,149.157975 124.210742,149.183214 C116.857783,149.202629 118.845192,128.49339 118.518703,125.566962 C118.155973,122.316632 116.778183,120.782231 114.083759,121.503484 C111.045049,122.316309 111.224958,125.700599 111.102323,128.223528 C110.794925,134.53457 111.252139,145.099676 114.302821,150.719234 C115.942384,153.7395 119.792301,156.670459 124.171913,156.974945 C132.239653,157.535057 137.197173,148.543828 137.90613,141.197664 Z M176.107657,153.866019 C177.977931,149.533649 177.602906,127.279655 177.526218,123.758492 C177.482859,121.765259 177.502597,119.220004 174.151312,119.1901 C171.804733,119.169851 170.856653,121.450744 170.47645,124.089189 C170.294644,125.351303 170.202102,129.80796 170.120384,134.413126 L170.096115,135.796085 C170.026488,139.786572 169.9591,143.659816 169.842886,145.432962 C168.143381,143.541797 166.122684,140.808901 164.084358,137.945128 L163.528242,137.161388 C159.728246,131.790956 155.962869,126.190415 154.196976,124.960903 C151.177034,122.857654 149.278609,122.789703 147.17989,123.691187 C144.975038,124.637326 143.706294,127.216557 143.627017,129.005613 C143.525091,131.30851 143.249404,146.262935 143.465229,152.249105 C143.528974,154.01454 143.896557,156.940968 147.132325,156.963942 C149.830309,156.98271 150.260666,153.59745 150.397862,151.713262 C150.675109,147.906241 150.738139,142.486271 150.740462,138.24608 L150.740127,137.386549 C150.737742,135.564675 150.725285,134.018582 150.716586,132.999845 C150.982232,133.338266 151.31493,133.774359 151.701705,134.288767 L152.106024,134.828562 C156.038943,140.09692 164.305799,151.625289 166.357641,153.675432 C166.598203,153.915715 166.821568,154.167811 167.040747,154.421194 L167.302586,154.725198 C168.261406,155.837207 169.239985,156.892644 171.346871,156.995006 C173.170227,157.083666 175.176079,156.024276 176.107657,153.866019 Z M189.331749,156.998549 C193.538248,156.944835 199.497238,156.293151 204.162245,155.218876 C205.630637,154.880738 207.378275,153.480946 207.221664,151.133719 C207.032695,148.301452 204.820077,147.475036 203.569129,147.507071 C199.914006,147.600261 189.885066,148.946017 189.885066,148.946017 L189.71713,141.69369 C189.71713,141.69369 192.80722,141.508493 195.849295,141.191135 L196.401172,141.131989 C197.867708,140.970446 199.278247,140.77859 200.275117,140.562466 C204.183277,139.715342 203.623166,133.107903 198.248232,133.152557 C195.693269,133.17359 189.861445,133.504609 189.861445,133.504609 L189.727484,128.479785 L189.762722,128.479264 C190.390516,128.46992 199.230692,128.335562 202.089735,128.137117 C204.498117,127.969828 207.221663,126.783595 206.761537,123.491201 C206.384246,120.791923 203.240698,120.208514 200.7278,120.169038 C197.911388,120.124708 190.846089,119.86261 186.41244,120.515912 C184.934664,120.733679 182.860213,122.753445 182.80197,125.111026 L182.696807,146.89001 C182.967964,153.709067 182.733694,157.083326 189.331749,156.998549 Z" id="June" fill="#5E63B6" fill-rule="nonzero"></path>
        <path d="M262.653309,206.602849 C265.934272,215.380788 273.130064,223.955265 284.240685,232.326281 C300.906617,244.882805 323.002174,240.561992 322.911423,241.367115 C322.806496,242.297998 324.226284,243.534901 324.032334,243.847261 C323.367363,244.91821 321.44899,243.925569 321.278363,244.416141 C320.912099,245.469194 322.371946,246.294464 322.086225,246.665287 C321.325107,247.653103 319.426516,245.65336 319.069307,246.118421 C318.277915,247.148754 318.355311,247.816592 317.907506,248.156867 C316.770324,249.020979 315.398703,245.658452 314.905999,246.118421 C313.510397,247.421299 314.793743,248.63542 314.111781,249.010291 C312.531671,249.878869 311.716365,246.010016 311.048152,246.368421 C310.335023,246.750917 310.720768,248.013997 310.282507,248.156867 C308.580342,248.711758 308.252862,244.177575 307.552475,244.416141 C307.001216,244.603911 307.156964,246.585677 306.796409,246.665287 C305.787356,246.888085 305.052951,243.760453 304.503711,243.847261 C303.604238,243.989423 304.26493,246.778386 303.704071,246.665287 C302.530313,246.428594 302.018765,244.519659 301.387246,244.416141 C300.357315,244.247316 300.258197,246.237254 299.679119,246.118421 C298.568114,245.89043 298.801445,243.959852 298.201938,243.847261 C297.427236,243.701768 296.416312,245.348658 295.940829,245.23809 C294.906231,244.997506 295.351501,242.27434 294.763867,242.148707 C293.700198,241.921301 294.139901,244.006187 293.540679,243.847261 C292.366667,243.53589 292.231368,240.755312 291.646691,240.601059 C291.168878,240.475 290.260892,242.249361 289.929329,242.148707 C288.816607,241.810914 289.394887,238.241622 288.822665,238.077615 C288.175234,237.892052 287.263706,239.846444 286.872766,239.720788 C286.092371,239.469954 286.651945,236.742576 286.229444,236.611211 C285.715753,236.451493 284.549998,238.184276 284.240685,238.077615 C283.752265,237.909191 284.543719,234.926372 284.240685,234.82485 C283.919756,234.717332 282.479347,236.695866 282.240199,236.611211 C281.599034,236.384248 282.67952,233.486534 282.240199,233.337577 C280.711204,232.819155 279.741221,235.09467 279.061773,234.82485 C278.477471,234.592813 279.707414,230.96301 279.348021,230.822232 C278.844017,230.624809 277.687527,231.655575 277.353864,231.51962 C276.575275,231.202375 277.00852,228.81924 276.564042,228.647095 C276.055983,228.450325 275.25454,230.959529 274.91302,230.822232 C274.178272,230.526853 274.336218,228.236283 273.881437,228.058645 C273.061228,227.738271 272.627889,229.973241 272.142677,229.771348 C271.356755,229.444334 271.464356,226.678032 271,226.486838 C270.308445,226.202097 269.316254,227.568129 268.896355,227.385452 C268.247998,227.103382 269.309462,224.934644 268.896355,224.754708 C268.093489,224.405006 267.139069,225.745481 266.672032,225.525741 C266.117323,225.264752 267.05287,222.928146 266.672032,222.743854 C264.581118,221.732041 262.765376,222.610839 262.653309,222.361505 C261.880098,220.64122 264.582866,218.733838 264.582866,217.771348 C264.582866,216.791685 262.039722,218.642208 261.31883,216.900735 C261.03623,216.218055 263.102113,215.397756 262.653309,214.135802 C262.450385,213.565218 260.048597,215.108023 259.638959,214.135802 C259.289548,213.306523 260.259761,213.457165 259.638959,211.43798 C259.49532,210.970789 257.570829,212.193133 257.321414,211.43798 C257.161815,210.954763 258.278523,209.725163 258.055909,208.773362 C257.869833,207.977783 255.801747,208.992005 255.275065,207.180655 C255.072982,206.485656 256.819511,206.261685 256.632462,204.635954 C256.552069,203.93722 254.019831,202.438836 254.512131,201.465355 C254.752729,200.989594 255.649936,201.142319 257.321414,200.40544 C257.62401,200.272039 256.681341,197.04741 257.321414,196.551234 C257.448488,196.452728 257.294786,197.000032 259.638959,196.551234 C259.995543,196.482965 258.702409,194.448961 259.638959,194.165074 C260.167844,194.004758 261.172628,198.150683 262.653309,206.602849 Z" id="Rectangle" stroke="#89C3EA" fill="#89C3EA" stroke-linejoin="round"></path>
        <path d="M264.155936,195.477534 C266.70628,194.912639 270.567292,196.315268 275.471706,198.73347 C280.455058,201.190593 285.109523,204.911136 286.229444,206.677891 C284.586787,209.555714 267.864289,215.902498 262.836227,212.175874 C260.730259,210.615003 258.201393,208.021299 258.06254,204.845152 C257.877507,200.612676 261.605592,196.042429 264.155936,195.477534 Z" id="Rectangle" stroke="#5563B6" stroke-width="4" fill="#FFFFFF"></path>
        <path d="M273.365535,208.410088 C275.915879,207.845192 292.420758,208.173324 293.540679,209.94008 C291.898021,212.817903 282.050631,225.916132 277.279724,227.240459 C272.508817,228.564786 264.77182,220.492035 264.586787,216.259558 C264.401754,212.027082 270.815191,208.974983 273.365535,208.410088 Z" id="Rectangle" stroke="#5563B6" stroke-width="4" fill="#FFFFFF"></path>
        <path d="M304.171821,223.486891 C306.722165,222.921996 310.948651,223.843546 315.853066,226.261747 C320.836418,228.71887 325.125408,232.920493 326.245329,234.687248 C324.602671,237.565071 307.880173,243.911855 302.852112,240.185231 C300.746144,238.62436 298.217277,236.030656 298.078425,232.854509 C297.893392,228.622033 301.621477,224.051786 304.171821,223.486891 Z" id="Rectangle" stroke="#5563B6" stroke-width="4" fill="#FFFFFF" transform="translate(312.158561, 232.326281) scale(-1, 1) rotate(-61.000000) translate(-312.158561, -232.326281) "></path>
        <path d="M291.365535,220.410088 C293.915879,219.845192 310.420758,220.173324 311.540679,221.94008 C309.898021,224.817903 300.050631,237.916132 295.279724,239.240459 C290.508817,240.564786 282.77182,232.492035 282.586787,228.259558 C282.401754,224.027082 288.815191,220.974983 291.365535,220.410088 Z" id="Rectangle" stroke="#5563B6" stroke-width="4" fill="#FFFFFF" transform="translate(297.061773, 229.771348) scale(-1, 1) rotate(-70.000000) translate(-297.061773, -229.771348) "></path>
        <path d="M286.229444,211.469769 C288.779788,210.904873 300.832657,218.032809 301.952578,219.799565 C300.309921,222.677388 291.976219,237.513807 283.075393,233.302612 C274.174567,229.091417 283.6791,212.034664 286.229444,211.469769 Z" id="Rectangle" stroke="#5563B6" stroke-width="4" fill="#FFFFFF"></path>
        <path d="M290.953532,198.839672 C293.384186,197.530263 308.708047,208.694657 310.93015,212.200183 C309.287492,215.078006 306.703272,218.606072 304.014684,221.644964 C302.654741,223.182097 295.981593,222.287399 290.953532,218.560774 C286.041186,214.919914 283.28048,208.610367 284.54724,206.895891 C287.110599,203.426553 288.522878,200.149082 290.953532,198.839672 Z" id="Rectangle" stroke="#5563B6" stroke-width="4" fill="#FFFFFF"></path>
        <path d="M296.225469,189.783001 C298.656123,188.473592 314.708047,200.694657 316.93015,204.200183 C316.051365,205.739754 315.949106,207.78631 314.551947,209.456315 C313.404752,210.827543 312.010419,211.240598 310.760166,212.65375 C309.400223,214.190884 303.22083,212.657493 298.192769,208.930868 C293.280423,205.290009 289.949663,200.894471 290.54724,198.895891 C291.011812,197.342141 291.424853,195.614196 292.096929,194.162439 C293.055004,192.092896 294.796921,190.552569 296.225469,189.783001 Z" id="Rectangle" stroke="#5563B6" stroke-width="4" fill="#FFFFFF"></path>
        <path d="M301.935501,178.759963 C304.366155,177.450554 323.059493,189.919949 325.281596,193.425475 C324.40281,194.965046 323.030674,199.164584 321.633515,200.83459 C320.48632,202.205818 318.926233,203.230161 317.406719,204.316974 C315.887205,205.403786 309.22083,203.657493 304.192769,199.930868 C299.280423,196.290009 294.738934,191.522915 295.336511,189.524335 C295.801083,187.970585 296.440691,185.204709 297.112767,183.752952 C298.070842,181.683409 300.506954,179.529531 301.935501,178.759963 Z" id="Rectangle" stroke="#5563B6" stroke-width="4" fill="#FFFFFF"></path>
        <path d="M308.777163,167.664022 C311.207817,166.354613 330.795231,179.549892 333.017333,183.055418 C332.138548,184.594989 330.857003,189.234355 329.459845,190.90436 C328.312649,192.275588 326.80111,193.778 325.281596,194.864812 C323.762082,195.951625 314.788078,192.533119 309.760017,188.806494 C304.847672,185.165634 299.738934,181.522915 300.336511,179.524335 C300.801083,177.970585 301.440691,175.204709 302.112767,173.752952 C303.070842,171.683409 307.348615,168.43359 308.777163,167.664022 Z" id="Rectangle" stroke="#5563B6" stroke-width="4" fill="#FFFFFF"></path>
        <path d="M316.777163,156.664022 C319.207817,155.354613 338.795231,168.549892 341.017333,172.055418 C340.138548,173.594989 338.857003,178.234355 337.459845,179.90436 C336.312649,181.275588 334.80111,182.778 333.281596,183.864812 C331.762082,184.951625 322.788078,181.533119 317.760017,177.806494 C312.847672,174.165634 307.738934,170.522915 308.336511,168.524335 C308.801083,166.970585 309.440691,164.204709 310.112767,162.752952 C311.070842,160.683409 315.348615,157.43359 316.777163,156.664022 Z" id="Rectangle" stroke="#5563B6" stroke-width="4" fill="#FFFFFF"></path>
        <path d="M388.86165,65.4174205 C389.0077,65.7218123 383.825576,67.2547579 380.387642,76.6532916 C379.553302,78.934187 378.229267,83.2639271 376.415537,89.6425121 L375.31097,91.3907043 C377.674154,82.2758862 379.636077,76.2711019 381.19674,73.3763512 C383.537734,69.0342253 388.555028,64.7783673 388.86165,65.4174205 Z" id="Rectangle" stroke="#5563B6" stroke-width="2"></path>
        <path d="M394.141217,66.0178486 C394.287266,66.3222404 386.690684,74.5206844 383.262715,80.1336636 C380.977403,83.8756497 379.302073,86.8348319 378.236725,89.0112102 L377.26525,90.0321918 C381.165019,82.2327854 384.424388,76.8423019 387.043356,73.8607411 C390.971808,69.3884 393.834595,65.3787954 394.141217,66.0178486 Z" id="Rectangle" stroke="#5563B6" stroke-width="2"></path>
        <path d="M394.709886,67.9605787 C394.75648,68.0576878 392.98189,69.4175141 390.540236,72.9986901 C389.362875,74.7255254 387.669539,78.3765903 384.578436,83.2131407 C383.534552,84.8464732 381.576226,87.5723277 378.703458,91.3907043 L378.366085,90.7885323 C381.036845,87.1216197 382.895801,84.491791 383.942955,82.8990462 C387.588282,77.3544218 389.840063,73.3758307 391.097745,71.6410976 C393.226343,68.7051003 394.619763,67.7727456 394.709886,67.9605787 Z" id="Rectangle" stroke="#5563B6" stroke-width="2"></path>
        <path d="M397.494461,71.3821702 C397.532557,71.4615689 396.386312,73.279442 394.143293,75.7687921 C392.36045,77.7474284 389.862696,79.9396312 386.873503,83.5282865 C385.05741,85.7085839 383.734405,88.6919136 381.396757,91.3907043 C380.499401,92.4266933 378.966812,93.8598395 376.798992,95.6901431 L376.251467,95.6901431 C378.632803,93.17559 380.290599,91.3437343 381.224857,90.194576 C384.633789,86.0015104 386.803203,82.7392812 388.304311,81.0065414 C390.396083,78.5919956 392.728029,76.6859568 394.143293,75.1680445 C396.594407,72.5391523 397.411178,71.2085924 397.494461,71.3821702 Z" id="Rectangle" stroke="#5563B6" stroke-width="2"></path>
        <path d="M304.907327,113.969082 C321.775451,105.062647 342.079538,93.8985926 361.495088,86.9993029 C363.45366,86.3033268 365.571091,86.3033268 367.84738,86.9993029 C343.50325,97.8846389 321.589115,108.333873 302.104976,118.347004 C288.864993,125.151189 274.27331,133.516044 266.941395,139.816766 C258.463683,147.102135 259.575683,153.5109 259.05432,153 C258.732236,152.68438 259.066327,146.087524 262.119515,142.577262 C270.602519,132.82432 285.762332,124.077715 304.907327,113.969082 Z" id="Rectangle" stroke="#5563B6" stroke-width="3" fill="#5563B6" stroke-linejoin="round"></path>
        <path d="M359.585648,153.36986 C377.097822,144.921975 399.056644,135.410156 418.101015,127.670341 C420.412606,126.730888 422.71813,126.863934 425.017587,128.069478 C424.414073,130.03705 423.321634,130.816806 421.740272,130.408748 C419.368229,129.796661 416.130233,131.201432 414.350719,131.920883 C393.498101,140.351519 374.85995,146.660197 358.472102,155.86407 C332.429194,170.490495 330.918274,172.261833 324.050399,179.157463 C316.449384,186.789195 316.471087,193.619013 315.949724,193.108113 C315.62764,192.792493 316.932056,185.595161 319.985245,182.084899 C328.468248,172.331957 338.952416,163.323345 359.585648,153.36986 Z" id="Rectangle" stroke="#5563B6" stroke-width="3" fill="#5563B6" stroke-linejoin="round" transform="translate(370.459797, 160.094110) scale(-1, 1) rotate(-73.000000) translate(-370.459797, -160.094110) "></path>
        <path d="M364.582606,88.9515844 C365.236557,87.9268993 366.239975,88.7251577 366.772777,88.2419563 C367.425434,87.6500572 367.574637,85.9188253 368.011897,86.2277132 C368.350182,86.466684 370.439831,89.5525988 369.861158,95.1065484 C369.64312,97.1992264 368.432992,101.123989 366.230777,106.880836 L358.464047,101.188364 C360.08459,97.7610588 361.204999,95.4178817 361.825273,94.1588329 C362.166078,93.4670577 362.391807,97.7280509 362.681627,97.158266 C363.112521,96.3111336 364.934649,94.2972577 365.27692,92.4050615 C364.582606,90.8995488 364.39385,89.2473486 364.582606,88.9515844 Z" id="Rectangle" stroke="#5563B6" stroke-width="4" fill="#FFFFFF"></path>
        <path d="M377.994374,98.2189902 C378.648326,97.194305 378.33995,98.3111129 378.872751,97.8279115 C379.525409,97.2360124 380.143904,94.8832887 380.581164,95.1921766 C380.919449,95.4311474 383.472905,97.0789281 382.894232,102.632878 C382.676193,104.725556 381.592298,109.230677 379.642545,116.148242 L371.875815,110.45577 C373.496358,107.028465 374.616767,104.685287 375.237042,103.426239 C375.577847,102.734463 375.803576,106.995457 376.093396,106.425672 C376.334931,105.950817 376.238323,104.222045 376.848456,103.240915 C377.326789,102.471726 377.652854,102.069353 377.803267,101.237816 C377.108953,99.732303 377.805618,98.5147543 377.994374,98.2189902 Z" id="Rectangle" stroke="#5563B6" stroke-width="4" fill="#FFFFFF" transform="translate(377.427521, 105.656300) scale(-1, 1) rotate(-66.000000) translate(-377.427521, -105.656300) "></path>
        <ellipse id="Oval" stroke="#5563B6" stroke-width="4" fill="#5563B6" transform="translate(374.316987, 104.316987) rotate(30.000000) translate(-374.316987, -104.316987) " cx="374.316987" cy="104.316987" rx="2" ry="2.5"></ellipse>
        <ellipse id="Oval" stroke="#5563B6" stroke-width="4" fill="#5563B6" transform="translate(366.316987, 100.316987) rotate(41.000000) translate(-366.316987, -100.316987) " cx="366.316987" cy="100.316987" rx="2" ry="2.5"></ellipse>
        <path d="M356.953362,100.253417 C357.545132,99.8894541 361.111605,99.667001 363.193713,100.753078 C364.169698,101.262175 363.156594,104.596035 364.396588,103.701559 C369.609639,99.9410975 376.465146,86.6011111 379.090651,88.4095651 C381.530982,90.0904716 373.143649,101.264726 371.728498,107.882144 C371.363095,109.590814 373.43745,107.217815 374.897432,107.882144 C376.149011,108.451645 376.774781,112.139313 376.994123,112.534374 C376.28133,113.96009 371.354004,134.862321 362.130922,150.260264 C354.329933,163.284021 342.059792,171.20416 341.017333,172.055418 C340.283817,172.654397 338.629582,169.90522 335.318839,168.173172 C333.064228,166.99365 329.490174,167.315383 327.069462,165.464414 C325.269674,164.088226 323.653799,161.206541 322.134248,159.973734 C319.390823,157.748003 316.389318,157.038661 316.653013,156.031772 C316.984432,154.766285 320.604202,138.679923 329.832825,125.875237 C339.972033,111.807116 355.833703,100.942054 356.953362,100.253417 Z" id="Rectangle" stroke="#5563B6" stroke-width="4" fill="#FFFFFF"></path>
    </g>
</svg>