<svg width="487" height="274" xmlns="http://www.w3.org/2000/svg">
  <g fill="none" fill-rule="evenodd">
    <g stroke-linecap="round">
      <path stroke="#ACD3EF" stroke-width="3" d="M231.75 24.316v11.368M226.324 30.25h10.352"/>
      <path stroke="#5563B6" stroke-width="2" d="M342 29.868v7M338.176 33.118h7M286 76.868v7M282.176 80.118h7"/>
      <path stroke="#ACD3EF" stroke-width="3" d="M460.75 37.316v11.368M455.324 43.25h10.352M300.75 190.316v11.368M295.324 196.25h10.352"/>
      <path stroke="#5563B6" stroke-width="2" d="M371.5 201.5v7M367.676 204.75h7M211 227.868v7M207.176 231.118h7M429 243.868v7M425.176 247.118h7"/>
      <path stroke="#ACD3EF" stroke-width="3" d="M407.75 153.316v11.368M402.324 159.25h10.352"/>
    </g>
    <path d="M48.839 79.302c-.507-2.835-.08-4.975 1.284-6.42 1.363-1.447 3.609-1.447 6.737 0" stroke="#5563B6" stroke-width="3" stroke-linecap="round"/>
    <path d="M80 93.264c1.036-2.763 5.536 1.242 7.094 3.658 1.04 1.61 1.766 7.205 2.18 16.783 10.55 7.041 16.765 13.096 18.641 18.163 11.427 30.858 4.781 53.153-3.048 51.729-8.985-1.634-11.772-18.758-12.72-12.32-1.344 9.132 4.66 26.759 5.406 41.31.681 13.258-3.698 23.84-8.28 25.531-10.16 3.75-10.16-17.231-13.883-14.903-5.923 3.705-7.216 27.653-17.082 27.653-3.257 0-2.958-10.094-6.149-12.75-2.112-1.757-7.634 3.77-9.935 1.752-3.47-3.045 3.268-17.377 0-21.025-3.721-4.154-16.703 6.287-19.477-3.08-2.774-9.367 19.628-15.059 19.477-20.765-.165-6.213-22.25 0-22.25-11.403 0-13.54 7.958-5.748 15.348-10.124 3.98-2.356 6.51-5.81 10.965-7.7 4.993-2.12 10.367 1.42 14.647 0 5.597-1.86 9.64-8.651 11.734-11.773 3.212-4.788-26.38 1.555-26.38-11.5s13.48-4.505 21.886-14c1.58-1.784 10.096-3.347 11.826-7.377.88-2.05-7.14-.183-7.332-5.123-.06-1.555 6.816-.633 9.484-5.904.963-1.902-3.188-14.07-2.152-16.832ZM150.085 51.776c19.397-10.903 32.947-16.425 40.651-16.567 9.772-.18 17.962 8.203 24.438 13.515 2.113 1.734 4.767.918 5.714 2.44.973 1.562-1.358 3.639-.907 5.668 4.2 18.914-10.48 34.77-17.691 38.675-5.237 2.834-14.816 5.99-28.737 9.467l-23.468-53.198Z" stroke="#5563B6" stroke-width="5" fill="#FFF"/>
    <path d="M130.923 86.187c3.021-8.279.015-32.777 6.273-38.115 3.145-2.682 15.357-6.255 19.12 0 3.764 6.254-.996 8.51 9.199 30.669 8.038 17.471 9.06 15.467 11.948 25.236.883 2.988-2.26 6.995-9.43 12.023-23.05-12.677-34.57-19.11-34.557-19.3 1.03-15.933-5.574-2.234-2.553-10.513Z" stroke="#5563B6" stroke-width="5" fill="#FFF"/>
    <path d="M201.96 166.514c6.7-1.752 10.4-9.6 5.945-15.9-1.923-2.718-4.828-4.33-7.908-5.413-2.641-.929-6.46-1.188-5.883-5.287.425-3.013 3.236-3.857 5.458-3.045.503.184 1.03.413 1.565.637l.403.166c1.753.71 3.569 1.223 4.985-.22 2.543-2.593.282-5.535-2.967-6.908-2.856-1.207-6.605-1.173-9.554-.445-6.603 1.628-9.29 7.558-6.805 14.32 1.009 2.745 3.926 4.319 6.917 5.637l.528.23.527.226c4.123 1.758 7.972 3.233 6.7 6.848-1.273 3.62-6.382 2.301-10.45 1.324-2.912-.7-5.213.315-5.306 3.032-.182 5.268 11.368 5.969 15.846 4.798Zm19.624.485c4.206-.054 10.165-.706 14.83-1.78 1.469-.338 3.216-1.738 3.06-4.085-.19-2.833-2.402-3.659-3.653-3.627-3.655.093-13.684 1.439-13.684 1.439l-.168-7.252s3.09-.186 6.132-.503l.552-.059c1.467-.162 2.877-.353 3.874-.57 3.908-.847 3.348-7.454-2.027-7.41-2.555.022-8.387.353-8.387.353l-.134-5.025h.036c.628-.01 9.468-.144 12.327-.343 2.408-.167 5.132-1.353 4.672-4.646-.378-2.7-3.521-3.282-6.034-3.322-2.817-.044-9.882-.306-14.316.347-1.477.218-3.552 2.237-3.61 4.595l-.105 21.779c.271 6.82.037 10.193 6.635 10.109Zm26.83-.005c2.637-.165 3.254-2.691 3.402-4.49.314-3.803.35-6.124.353-6.762v-.18s2.195-.72 4.461-1.549l.504-.185c1.51-.56 2.984-1.15 3.79-1.584 4.207-2.265 8.737-5.608 8.198-11.972-.692-8.163-11.028-10.92-16.718-11.002-1.605-.022-5.824-.431-7.368 1.275-.561.62-.506 4.334-.48 6.169.094 6.968.16 19.624.179 25.047.011 3.318 1.521 5.368 3.678 5.233Zm3.471-19.249h-.064l-.136-11.461s2.94-.109 5.64.974c2.278.913 4.384 2.536 4.409 4.227.03 2.05-2.448 4.02-4.934 5.153-2.252 1.028-4.511 1.102-4.915 1.107ZM286.376 167c3.765 0 4.386-4.715 4.412-8.75v-.51c-.008-1.604-.096-3.059-.095-4.008v-.318a747.294 747.294 0 0 0-.073-6.538l-.01-.702-.005-.352-.01-.704c-.06-4.103-.125-8.019-.125-8.019s2.233.182 5.562-.208c3.745-.439 5.957-1.602 6.071-3.784.157-2.99-2.208-3.642-7.341-3.642h-4.61l-.587.001h-2.247l-.545.001h-8.957l-1.498-.002c-2.953-.003-4.854.755-4.74 3.604.069 1.735 1.547 2.995 3.795 3.44 3.102.614 7.444.688 7.444.688V138.013l-.001.163v.778l-.001.224v4.439l.007 2.885.002.742c.014 4.213.046 8.506.119 10.111.116 2.58-.504 9.645 3.433 9.645Zm26.108-.001c4.206-.054 10.165-.706 14.83-1.78 1.469-.338 3.216-1.738 3.06-4.085-.19-2.833-2.402-3.659-3.653-3.627-3.655.093-13.684 1.439-13.684 1.439l-.168-7.252s3.09-.186 6.132-.503l.552-.059c1.467-.162 2.877-.353 3.874-.57 3.908-.847 3.348-7.454-2.027-7.41-2.555.022-8.387.353-8.387.353l-.134-5.025h.036c.628-.01 9.468-.144 12.327-.343 2.408-.167 5.132-1.353 4.672-4.646-.378-2.7-3.521-3.282-6.034-3.322-2.817-.044-9.882-.306-14.316.347-1.477.218-3.552 2.237-3.61 4.595l-.105 21.779c.271 6.82.037 10.193 6.635 10.109Zm56.42.001c1.827-.018 3.11-1.462 3.203-3.603.092-2.146.13-4.909.133-7.866v-.94c0-.946-.005-1.907-.01-2.869l-.012-1.443c-.06-6.727-.22-13.219-.243-14.932-.032-2.514.16-6.145-2.773-6.22-2.893-.073-4.727 2.623-6.318 4.441-.738.844-2.302 2.568-3.89 4.306l-.414.453c-2.136 2.338-4.187 4.565-4.187 4.565l-.026-.026-.134-.132-.336-.335-.229-.227c-.66-.656-1.704-1.697-2.86-2.853l-.66-.66-.447-.45-.674-.677c-1.721-1.73-3.387-3.421-4.182-4.272-1.917-2.051-3.124-3.827-5.89-3.994-2.34-.14-3.379 1.859-3.496 4.014-.047.852.005 6.04.074 11.447l.011.903c.066 5.119.141 10.23.156 11.867.031 3.59.516 6.18 3.125 6.158 2.741-.023 3.877-2.171 4.029-4.515.045-.707.065-1.874.068-3.269v-.926c-.015-5.083-.205-12.274-.205-12.274s7.305 8.278 11.728 8.342c4.002.058 8.628-7.075 10.345-8.65.225 2.007.05 20.187.504 21.737.476 1.626 1.554 2.92 3.61 2.9Zm17.635-.147c10.021-.763 17.64-4.535 17.472-13.102-.056-2.882-2.091-8.001-8.568-8.15 0 0 4.994-2.611 3.929-9.065-1.017-6.159-7.218-7.467-11.486-7.29-3.38.139-8.624-.191-10.014 4.142-.92 2.866-.556 24.216-.021 29.035.534 4.815 3.753 4.805 8.688 4.43Zm-1.919-23.79-.142-7.012s7.513-2.319 8.238 1.499c.975 5.14-6.215 4.786-8.096 5.513Zm.109 16.934c-.264-.589-.318-3.231-.322-5.098v-.449c.001-.859.012-1.465.012-1.465s11.022-4.623 12.023 1.025c.592 3.343-8.431 5.933-11.713 5.987Zm29.67 7.002c4.207-.054 10.166-.706 14.831-1.78 1.469-.338 3.216-1.738 3.06-4.085-.19-2.833-2.402-3.659-3.653-3.627-3.655.093-13.684 1.439-13.684 1.439l-.168-7.252s3.09-.186 6.132-.503l.552-.059c1.467-.162 2.877-.353 3.874-.57 3.908-.847 3.348-7.454-2.027-7.41-2.555.022-8.387.353-8.387.353l-.134-5.025h.036c.628-.01 9.468-.144 12.327-.343 2.408-.167 5.132-1.353 4.672-4.646-.378-2.7-3.521-3.282-6.034-3.322-2.817-.044-9.882-.306-14.316.347-1.477.218-3.552 2.237-3.61 4.595l-.105 21.779c.271 6.82.037 10.193 6.635 10.109Zm26.668.001c1.699 0 3.209-1.725 3.402-3.685.377-3.813.076-6.993.175-9.941 3.694 3.164 6.21 5.94 10.78 8.938 2.408 1.58 5.715 3.354 7.738 2.019 3.063-2.023 1.084-4.834-.372-5.982-5.167-4.076-9.793-7.882-9.793-7.882s8.013-3.313 8.114-11.221c.062-4.82-2.419-9.862-13.211-9.819-3.298.013-8.3.254-9.498 1.863-.964 1.293-1.04 8.13-1.037 12.578v.633l.004 1.397V146.78c-.023 4.203-.023 11.24.104 16.086.044 1.694 1.248 4.134 3.594 4.134Zm3.512-21.993-.002-7.65s7.428-2.283 8.502 2.042c1.332 5.365-8.5 5.607-8.5 5.608Z" fill="#5563B6" fill-rule="nonzero"/>
    <path d="M106.021 135.049c11.195-6.51 20.539-10.69 28.03-12.54 7.492-1.848 18.507-1.848 33.047 0 5.43 23.5 7.19 39.009 5.278 46.527-2.492 9.806-11.724 22.458-20.944 25.876-1.384.513-2.58 1.879-3.95 1.879-1.83 0-2.052-.639-4.014-.967-9.297-1.556-21.489-7.021-30.603-24.31-7.358-13.958-9.64-26.113-6.844-36.465Z" stroke="#5563B6" stroke-width="5" fill="#FFF"/>
    <path d="M113.5 148.5c2.871 10.803 5.973 18.503 9.304 23.098 3.332 4.596 8.282 8.897 14.85 12.902M181.688 91.244c10.097-2.436 17.154-5.659 21.172-9.668 4.018-4.01 6.8-10.58 8.345-19.713" stroke="#E1F2FF" stroke-width="4" stroke-linecap="round"/>
    <path d="M99.566 125.242c5.99-8.945 21.943-24.117 34.938-24.117 8.448 0 20.296 4.52 28.39 9.673 4.354 2.773 7.528 5.62 8.998 8.227 2.564 4.548 2.16 9.084-1.213 13.61a2 2 0 0 1-2.74.45c-5.54-3.827-13.371-5.686-23.493-5.575-9.055.099-23.674 3.81-36.028 12.378-2.449 1.698-3.912 6.759-4.774 6.759-.863 0-10.068-12.46-4.078-21.405Z" stroke="#5563B6" stroke-width="5" fill="#FFF"/>
    <path d="M124.221 115.319c1.847 3.477 3.292 5.15 4.333 5.02 1.042-.131 2.191-2.347 3.45-6.649M113.221 118.914c1.847 2.612 3.292 3.869 4.333 3.77 1.042-.097 2.191-1.762 3.45-4.994M106.894 124.531c2.784 2.784 4.654 3.962 5.612 3.533.957-.43 1.41-2.885 1.355-7.366M131.804 111.207c2.057 3.97 3.665 5.882 4.825 5.733 1.16-.15 2.24-2.06 3.24-5.733M136.137 107.536c4.946 4.246 7.999 6.295 9.158 6.146 1.16-.15 1.83-1.413 2.014-3.793M138.84 115.766c2.422 3.104 4.212 4.58 5.372 4.432 1.16-.15 2.192-1.626 3.097-4.432M146.854 82.096c3.82-1.005 5.629-2.087 5.428-3.246-.202-1.16-1.402-2.944-3.602-5.354M138.58 78.971c5.286-2.254 7.854-3.962 7.705-5.121-.149-1.16-2.465-2.12-6.947-2.882M142.725 89.221c3.193-2.598 4.713-4.52 4.56-5.764-.153-1.244-1.817-2.99-4.99-5.236M146.854 96.221c3.103-2.421 4.58-4.212 4.431-5.371-.149-1.16-1.963-2.308-5.44-3.445M154.18 99.048c2.46-2.362 3.446-3.967 2.958-4.817-.488-.85-2.649-1.044-6.484-.585M161.29 90.888c.501-1.174.501-2.112 0-2.813-.293-.411-.947-.745-1.96-1.002-.476-.12-1.368-.263-2.676-.427M163.314 96.483c1.811-2.625 2.394-4.223 1.749-4.794-.38-.335-1.091-.513-2.136-.535-.491-.01-2.582.442-6.273 1.358" stroke="#E1F2FF" stroke-width="3" stroke-linecap="round"/>
    <path d="M154.471 83.721c3.475-3.282 4.907-5.309 4.298-6.08-.929-1.176-3.643-1.805-8.144-1.888M149.847 65.892c2.59-1.984 3.763-3.452 3.52-4.405-.37-1.451-1.925-2.58-4.664-3.386M154.817 75.304c1.669-2.159 2.26-3.662 1.772-4.512-.287-.498-.857-.95-1.71-1.357-.4-.19-1.143-.453-2.225-.789M140.832 91.987c.992-3.28 1.244-5.345.757-6.195-.287-.498-.857-.95-1.71-1.357-.4-.19-1.143-.453-2.225-.789M159.817 103.304c3.368-3.2 4.809-5.223 4.321-6.073-.488-.85-2.649-1.044-6.484-.585" stroke="#E1F2FF" stroke-width="3" stroke-linecap="round"/>
    <path d="M151.854 91.221c3.103-2.421 4.58-4.212 4.431-5.371-.149-1.16-2.036-2.584-5.66-4.274M146.854 73.221c3.103-2.421 4.58-4.212 4.431-5.371-.11-.864-1.231-1.43-3.36-1.695-.486-.06-1.333-.117-2.54-.168M143.06 63.106c3.472-3.338 5.226-5.89 5.262-7.66.027-1.318-.998-2.29-3.074-2.914-.473-.143-1.306-.316-2.498-.52M168.317 108.515c1.749-3.956 2.284-6.574 1.605-7.856-.505-.955-1.807-1.187-3.906-.696-.478.112-1.289.364-2.432.757" stroke="#E1F2FF" stroke-width="3" stroke-linecap="round"/>
    <path d="M139.854 70.221c3.103-2.421 4.58-4.212 4.431-5.371-.149-1.16-1.626-2.192-4.431-3.097M152.84 117.766c2.422 3.104 4.212 4.58 5.372 4.432 1.16-.15 2.192-1.626 3.097-4.432M161.98 118.342c.164 3.413.59 5.178 1.281 5.297.69.118 1.81-1.023 3.356-3.424M146.444 113.69c1.685 3.764 3.108 5.57 4.267 5.422 1.16-.15 2.212-1.745 3.156-4.787M130.495 120.345c1.942 2.56 3.493 3.765 4.653 3.616 1.16-.149 1.742-2.463 1.747-6.943M120.495 122.41c1.942 1.84 3.493 2.706 4.653 2.599 1.16-.107 1.742-1.771 1.747-4.991M113.495 126.41c1.942 1.84 3.493 2.706 4.653 2.599 1.16-.107 1.742-1.771 1.747-4.991M103.495 130.41c1.942 1.84 3.493 2.706 4.653 2.599 1.16-.107 1.742-1.771 1.747-4.991M118.629 111.937c1 3.299 2.085 4.976 3.253 5.03 1.168.056 2.867-2.214 5.098-6.809M126.052 109.189c1.803 1.6 3.284 2.326 4.443 2.177 1.16-.149 2.69-1.604 4.589-4.366" stroke="#E1F2FF" stroke-width="3" stroke-linecap="round"/>
    <path d="M56.531 71.647c10.425 3.517 17.598 6.4 21.52 8.651 12.12 6.955 19.642 14.54 26.816 15.712 6.738 1.102 15.77-3.506 20.248-7.163 2.602-2.126 7.147-3.152 8.095 0 .633 2.101.633 5.665 0 10.692-11.492 6.1-22.125 7.91-31.898 5.435-7.333-1.858-18.075-9.428-34.305-17.757-3.602-1.85-9.845-4.155-18.728-6.919 3.294-1.454 5.412-2.675 6.354-3.662.942-.988 1.575-2.65 1.898-4.989Z" stroke="#5563B6" fill="#5563B6" stroke-linejoin="round"/>
    <path d="M87.5 124.5c.559 8.14-.997 19.626-4.668 34.457-2.511 10.147-10.405 22.964-15.825 39.994-1.668 5.24-3.17 14.09-4.507 26.549" stroke="#89C3EA" stroke-width="4" stroke-linecap="round"/>
    <path d="M80.334 165.91c-1.336 2.441-4.081 5.726-8.265 7-4.027 1.226-9.392.46-15.819 1.846-3.01.65-7.983 2.367-14.916 5.154M77.881 173.103c0 2.338 3.95 19.196 3.95 26.275 0 4.72 1.926 11.858 5.78 21.415M86.462 141.258c0 2.338 14.664 15.657 14.664 27.618M86.944 137.292c0 2.337-23.432-.9-28.385 5.046M69.405 191.606c-1.443 2.611-4.032 1.78-7.234 3.32-2.258 1.085-4.31 5.851-9.396 6.938-2.826.604-6.616 2.517-11.37 5.742" stroke="#89C3EA" stroke-width="4" stroke-linecap="round"/>
    <path d="M195.657 43.14c.057-.195.109-.326.124-.37.005-.005-.004.002 0 0 .001 0 0 0 0 0-.292 4.255 2.073 6.064 2.902 8.905.005.042.015.088.028.14.018.063.032.13.043.195.135.784-.144 1.691-.696 2.632l-.01.015c-.044.08-.093.157-.142.235l-.001.003c-.091.142-.19.287-.292.431l-.03.045c-.03.039-.06.078-.088.118l-.088.12-.093.119-.095.122-.069.085c-.879 1.086-2.034 2.156-3.245 3.083 0 0-.01.014 0 0 .115-1.601.087-3.204-.098-4.489-.222-1.548-.807-3.356-1.59-4.997-1.713.122-3.456.513-4.807 1.103-1.13.496-2.416 1.283-3.64 2.222.009-.133.02-.265.03-.398l.013-.118c.009-.095.017-.189.028-.283.003-.043.009-.088.014-.13a25.51 25.51 0 0 1 .046-.4l.049-.355c0-.012.002-.024.005-.036.018-.136.04-.273.061-.409l.006-.031.061-.364c.004-.025.01-.05.013-.074l.063-.33a19.047 19.047 0 0 1 .093-.44v-.002c.09-.397.19-.782.299-1.151 0-.005.002-.01.003-.014.185-.615.4-1.182.643-1.677.036-.072.073-.143.11-.211l.003-.008h.001c.033-.064.068-.126.102-.184l.001-.002c0-.002.003-.004.004-.006.037-.065.074-.128.113-.188l.017-.024v-.002a4.942 4.942 0 0 1 .178-.262c.003-.004.007-.008.01-.014a3.743 3.743 0 0 1 .317-.38l.058-.057.086-.083c.02-.019.042-.036.065-.056l.083-.07.068-.05a2.03 2.03 0 0 1 .085-.062l.069-.044.092-.054c.022-.013.044-.024.065-.035l.109-.05.054-.023c.055-.022.11-.04.166-.057.039-.012.071-.023.1-.035 2.698-.712 5.383.518 8.628-1.918" fill="#9452BA"/>
  </g>
</svg>
