<?xml version="1.0" encoding="UTF-8"?>
<svg width="450px" height="406px" viewBox="0 0 450 406" version="1.1" xmlns="http://www.w3.org/2000/svg" xmlns:xlink="http://www.w3.org/1999/xlink">
    <title>updates</title>
    <g id="updates" stroke="none" stroke-width="1" fill="none" fill-rule="evenodd">
        <g id="akeneo-ico-continuous-delivery">
            <line x1="40.47" y1="15.8" x2="40.58" y2="6.29" id="Path" stroke="#B0B0DB" stroke-width="2.68066896" stroke-linecap="round"></line>
            <line x1="35.77" y1="10.99" x2="45.28" y2="11.1" id="Path" stroke="#B0B0DB" stroke-width="2.68066896" stroke-linecap="round"></line>
            <line x1="32.37" y1="404.51" x2="32.48" y2="395" id="Path" stroke="#B0B0DB" stroke-width="2.68066896" stroke-linecap="round"></line>
            <line x1="27.67" y1="399.7" x2="37.18" y2="399.81" id="Path" stroke="#B0B0DB" stroke-width="2.68066896" stroke-linecap="round"></line>
            <path d="M269.4,5.42 C312.61,13.17 372.79,30.16 414.49,105.13 C452.31,173.13 474.72,277.02 403.54,342.34 C332.36,407.66 116.1,428.34 33.97,342.34 C-48.16,256.34 14.24,-40.29 269.4,5.42 Z" id="Path" fill="#EFEFF8" fill-rule="nonzero"></path>
            <line x1="429.05" y1="399.75" x2="429.16" y2="390.24" id="Path" stroke="#B0B0DB" stroke-width="2.68066896" stroke-linecap="round"></line>
            <line x1="424.35" y1="394.94" x2="433.86" y2="395.05" id="Path" stroke="#B0B0DB" stroke-width="2.68066896" stroke-linecap="round"></line>
            <ellipse id="Oval" fill="#DFE1F0" fill-rule="nonzero" cx="239.16" cy="325.88" rx="206.74" ry="19.52"></ellipse>
            <path d="M160.71,129.65 C174.95,134.91 189.61,139.56 204.71,141.35 C213.23,142.35 222.71,142.35 230.45,138.15 C236.79,134.69 240.11,128.48 240.87,121.48 C241.6,114.73 239.67,107.65 237.25,101.41 C232.71,89.69 225.7,77.97 213.35,73.34 C207.118948,70.9384804 200.07699,72.0853792 194.93,76.34 C191.592904,79.0908523 189.249879,82.8600666 188.26,87.07 C186.96,93.12 188.03,99.52 190.01,105.3 C192.417403,112.19069 195.989218,118.617252 200.57,124.3 C204.69,129.48 209.96,134.22 216.03,136.98 C222.67,139.98 230.14,140.98 237.12,138.44 C246.02,135.2 252.63,128.15 257.73,120.39 C261.235412,114.882054 264.221575,109.060375 266.65,103 C269.602101,95.912393 272.058018,88.6281746 274,81.2 C276.21,72.75 277.71,62.88 274.75,54.4 C272.61,48.29 268.01,42.84 261.39,41.57 C255.055457,40.5089781 248.566225,42.1521431 243.5,46.1 C237.117371,51.027755 232.32233,57.7213402 229.71,65.35 C226.22,74.89 225.98,85.27 227.35,95.22 C228.210794,101.261537 229.69883,107.196925 231.79,112.93 C234.34,120.03 237.4,127.2 241.79,133.35 C245.51,138.53 250.14,143.35 256.02,146.04 C261.173985,148.462392 266.908021,149.377619 272.56,148.68 C285.09,147.08 295.93,139.93 305.56,132.11 C310.44154,128.088593 315.098552,123.802139 319.51,119.27 C320.851532,117.926681 321.374508,115.969705 320.881926,114.136244 C320.389344,112.302784 318.95604,110.871386 317.121926,110.381244 C315.287811,109.891102 313.331532,110.416681 311.99,111.76 C307.650572,116.206403 303.080965,120.422191 298.3,124.39 L296.51,125.83 L296.15,126.11 L295.53,126.58 C294.34,127.48 293.14,128.35 291.91,129.19 C289.567624,130.818402 287.133612,132.310862 284.62,133.66 C283.466667,134.28 282.296667,134.86 281.11,135.4 L280.2,135.81 C279.68,136.04 280.89,135.52 280.82,135.55 C280.75,135.58 280.47,135.69 280.3,135.76 C279.7,136 279.09,136.23 278.49,136.44 C277.3,136.86 276.1,137.23 274.88,137.53 C274.32,137.67 273.77,137.8 273.21,137.91 L272.32,138.07 L271.94,138.13 C271.05,138.29 272.22,138.13 272.46,138.07 C271.28,138.18 270.12,138.31 268.93,138.31 C268.39,138.31 267.85,138.31 267.31,138.31 L266.45,138.24 C265.94,138.24 264.9,137.88 266.63,138.24 C265.54,137.99 264.43,137.85 263.35,137.53 C262.79,137.36 262.23,137.18 261.68,136.97 C261.47,136.89 260.59,136.53 261.48,136.91 C262.37,137.29 261.28,136.81 261.06,136.7 C259.939182,136.163835 258.859569,135.54548 257.83,134.85 L257.04,134.3 L256.7,134.05 C256.24,133.75 257.27,134.49 257.22,134.45 C256.69,133.96 256.1,133.53 255.56,133.05 C254.497596,132.078938 253.495717,131.043663 252.56,129.95 L251.93,129.2 L251.52,128.68 C251.14,128.25 251.84,129.11 251.83,129.09 C251.38,128.42 250.83,127.79 250.4,127.09 C248.343964,124.035763 246.554053,120.810577 245.05,117.45 C244.71,116.72 244.39,115.99 244.05,115.25 C243.51,114.01 244.31,115.89 243.94,115.01 L243.4,113.68 C242.8,112.166667 242.23,110.643333 241.69,109.11 C240.71,106.303333 239.863333,103.446667 239.15,100.54 C238.82,99.16 238.51,97.77 238.25,96.38 C238.13,95.76 238.02,95.13 237.91,94.5 L237.76,93.5 C237.71,93.22 237.54,91.95 237.67,92.93 C237.8,93.91 237.67,92.72 237.62,92.52 L237.53,91.69 C237.46,91.01 237.4,90.33 237.34,89.64 C237.25,88.45 237.19,87.26 237.17,86.06 C237.11392,83.7239855 237.194056,81.386688 237.41,79.06 C237.47,78.51 237.53,77.96 237.6,77.41 C237.69,76.54 237.4,78.76 237.53,77.9 C237.58,77.6 237.62,77.29 237.67,76.99 C237.84,75.99 238.03,74.93 238.26,73.9 C238.688773,72.0051554 239.233124,70.1383316 239.89,68.31 C240.05,67.87 240.22,67.42 240.39,66.99 C240.47,66.8 240.55,66.62 240.62,66.43 C240.84,65.87 240.07,67.7 240.32,67.15 C240.37,67.04 240.42,66.91 240.47,66.79 C240.84,65.97 241.23,65.16 241.64,64.37 C242.427354,62.8626414 243.319547,61.4124105 244.31,60.03 C244.44,59.84 244.78,59.17 244.98,59.12 C244.83,59.12 243.98,60.38 244.63,59.58 L245,59.13 C245.5,58.53 246,57.95 246.55,57.4 C247.1,56.85 247.6,56.34 248.16,55.85 C248.41,55.62 248.67,55.4 248.92,55.19 L249.34,54.85 C250.1,54.23 248.28,55.64 248.86,55.22 C249.951664,54.4210411 251.097784,53.6992858 252.29,53.06 L253.1,52.67 L253.53,52.48 C254.11,52.2 252.04,53.06 252.82,52.78 C253.4,52.57 253.97,52.35 254.56,52.18 C255.15,52.01 255.71,51.88 256.29,51.77 L256.72,51.7 C257.37,51.56 255.12,51.87 255.79,51.83 C256.09,51.83 256.39,51.76 256.7,51.75 C257.252611,51.7100116 257.807389,51.7100116 258.36,51.75 C258.609787,51.8025597 258.864815,51.8260491 259.12,51.82 C259.04,51.82 257.37,51.53 258.22,51.7 L258.62,51.77 C259.145091,51.8725604 259.662874,52.0095223 260.17,52.18 C260.74,52.38 261.57,52.93 259.75,51.98 C259.98,52.1 260.24,52.2 260.47,52.32 C260.944823,52.5748886 261.405497,52.8552991 261.85,53.16 C262.76,53.76 260.72,52.16 261.48,52.86 C261.7,53.06 261.93,53.25 262.15,53.46 C262.37,53.67 262.95,54.6 263.31,54.74 C263.25,54.74 262.31,53.43 262.79,54.07 L263.05,54.43 C263.22,54.69 263.39,54.95 263.55,55.21 C263.88,55.77 264.15,56.35 264.44,56.93 C264.81,57.68 263.91,55.58 264.16,56.26 C264.16,56.4 264.27,56.53 264.32,56.67 C264.45,57.02 264.58,57.38 264.69,57.74 C264.919745,58.4556897 265.110032,59.1834512 265.26,59.92 C265.34,60.28 265.4,60.64 265.47,61 C265.47,61.2 265.47,61.41 265.56,61.61 C265.65,61.81 265.37,60.02 265.47,60.99 C265.666605,62.8163 265.733439,64.6542439 265.67,66.49 C265.67,67.49 265.56,68.56 265.46,69.59 L265.28,71.1 C265.21,71.74 265.48,69.77 265.37,70.41 C265.37,70.53 265.37,70.65 265.32,70.77 L265.17,71.77 C264.76,74.22 264.17,76.64 263.57,79.03 C261.609569,86.2531165 259.191346,93.3441199 256.33,100.26 C256.11,100.81 256.52,99.82 256.52,99.82 C256.44,99.98 256.38,100.15 256.31,100.31 C256.14,100.69 255.98,101.07 255.81,101.44 C255.49,102.18 255.156667,102.91 254.81,103.63 C254.16,105.02 253.49,106.38 252.81,107.74 C251.54,110.17 250.17,112.56 248.67,114.86 C247.99,115.86 247.29,116.86 246.56,117.86 L246.1,118.46 C245.6,119.13 246.93,117.46 246.25,118.27 C245.87,118.74 245.49,119.21 245.1,119.67 C243.792309,121.219346 242.375352,122.673064 240.86,124.02 L239.86,124.88 L239.31,125.31 C238.92,125.66 240.13,124.69 240,124.78 L239.61,125.07 C238.9,125.58 238.18,126.07 237.43,126.53 C236.68,126.99 236,127.36 235.25,127.72 C235.08,127.8 234.25,128.03 234.25,128.17 C234.31,128.02 235.78,127.57 234.82,127.92 L234.28,128.13 C233.56,128.38 232.84,128.6 232.11,128.79 C231.77,128.87 230.11,128.97 229.95,129.2 C230.03,129.09 231.68,129.01 230.67,129.1 L230.21,129.1 C229.83,129.1 229.45,129.12 229.07,129.16 C228.362956,129.183319 227.655159,129.166625 226.95,129.11 L225.95,129.02 C225.08,128.93 227.43,129.26 226.69,129.12 L226.09,129.02 C225.423333,128.9 224.756667,128.75 224.09,128.57 C223.4,128.39 222.72,128.17 222.09,127.93 L221.16,127.57 C220.53,127.33 222.59,128.2 221.79,127.83 L221.22,127.58 C219.915944,126.968685 218.656208,126.266976 217.45,125.48 C216.82,125.08 216.2,124.65 215.6,124.2 L215.14,123.86 C214.96,123.73 216.37,124.86 215.64,124.25 C215.35,124 215.05,123.77 214.75,123.52 C212.382692,121.511148 210.215874,119.27735 208.28,116.85 C207.81,116.26 207.28,115.59 208.28,116.85 L207.57,115.85 C207.1,115.21 206.64,114.56 206.2,113.85 C205.32,112.54 204.5,111.18 203.73,109.8 C202.96,108.42 202.29,107.1 201.66,105.71 L201.19,104.71 C200.86,103.94 201.38,105.25 201.48,105.38 C201.376264,105.189125 201.292487,104.988062 201.23,104.78 C200.95,104.09 200.69,103.39 200.44,102.69 C199.96,101.33 199.54,99.96 199.19,98.56 C199.03,97.92 198.89,97.27 198.76,96.62 L198.58,95.62 C198.53,95.29 198.35,94.04 198.52,95.28 C198.69,96.52 198.52,95.35 198.52,95.03 C198.52,94.71 198.46,94.36 198.43,94.03 C198.43,93.42 198.37,92.82 198.37,92.21 C198.37,91.6 198.37,91.05 198.45,90.47 C198.505798,90.2138172 198.532633,89.9521757 198.53,89.69 C198.53,89.77 198.26,91.44 198.42,90.58 L198.48,90.18 C198.58,89.66 198.7,89.18 198.85,88.64 C198.916667,88.4 198.996667,88.16 199.09,87.92 C199.09,87.82 199.17,87.72 199.2,87.62 C199.47,86.81 198.62,88.85 198.87,88.4 C199.25,87.7 199.59,87.01 200.03,86.34 C200.2,86.07 200.39,85.82 200.57,85.56 C201.08,84.82 199.8,86.41 200.57,85.56 C201.045271,85.0230465 201.549346,84.5122948 202.08,84.03 C202.187785,83.9487837 202.291259,83.861999 202.39,83.77 C202.78,83.4 201.81,84.2 201.85,84.18 C202.116524,84.0217306 202.373624,83.8481045 202.62,83.66 L203.41,83.2 C203.87,82.96 204.85,82.75 203.29,83.2 C203.81,83.05 204.29,82.83 204.84,82.7 C205.13,82.63 205.42,82.59 205.7,82.52 C206.48,82.34 204.31,82.63 205.41,82.57 C205.999617,82.5399547 206.590383,82.5399547 207.18,82.57 L207.95,82.64 C208.6,82.64 206.67,82.42 207.31,82.55 L207.83,82.65 C208.403718,82.7638534 208.971147,82.9073794 209.53,83.08 C209.83,83.17 210.14,83.28 210.44,83.39 L210.83,83.54 C211.83,83.88 209.94,83.1 210.48,83.39 C211.727535,83.986148 212.939558,84.653929 214.11,85.39 C214.37,85.56 214.62,85.75 214.88,85.93 C215.88,86.66 214.23,85.37 214.94,85.93 C215.65,86.49 216.11,86.93 216.67,87.43 C217.842972,88.526066 218.942045,89.6986333 219.96,90.94 C220.130865,91.1088951 220.281846,91.2967834 220.41,91.5 C220.41,91.5 219.78,90.65 220.13,91.13 C220.48,91.61 220.64,91.81 220.88,92.13 C221.38,92.83 221.86,93.55 222.32,94.29 C223.670783,96.5117441 224.866946,98.8238814 225.9,101.21 C226.08,101.6 226.25,101.99 226.42,102.39 C226.42,102.47 226.49,102.57 226.53,102.65 C226.83,103.34 226.2,101.85 226.23,101.92 C226.32,102.16 226.43,102.4 226.52,102.64 C226.85,103.43 227.16,104.23 227.46,105.04 C228.629258,108.119076 229.512977,111.299124 230.1,114.54 C230.16,114.88 230.21,115.23 230.27,115.54 C230.39,116.25 230.07,113.88 230.18,114.84 L230.24,115.39 C230.32,116.1 230.37,116.82 230.4,117.54 C230.43,118.26 230.4,118.92 230.4,119.61 C230.267928,120.268099 230.210897,120.939051 230.23,121.61 C230.16,121.55 230.51,119.87 230.33,120.82 C230.33,120.95 230.33,121.09 230.26,121.23 C230.2,121.563333 230.13,121.896667 230.05,122.23 C229.908366,122.833206 229.731394,123.427565 229.52,124.01 L229.39,124.38 C229.1,125.2 229.82,123.38 229.7,123.65 C229.58,123.92 229.45,124.2 229.31,124.47 C229.04058,125.007885 228.733133,125.525867 228.39,126.02 C228.31,126.15 228.22,126.27 228.13,126.39 C227.69,127.04 228.59,125.74 228.65,125.73 C228.52,125.73 228.11,126.37 228.02,126.47 C227.594787,126.925214 227.144061,127.355907 226.67,127.76 C225.74,128.58 227.67,127.09 226.94,127.56 L226.07,128.16 C225.508697,128.524858 224.927826,128.858692 224.33,129.16 L223.85,129.39 C223.05,129.76 224.27,129.28 224.47,129.13 C224.138578,129.307759 223.785689,129.442193 223.42,129.53 C222.68,129.79 221.92,130.01 221.15,130.2 C220.38,130.39 219.47,130.58 218.62,130.71 L218,131 C217.25,131.12 219.53,130.82 218.53,130.93 L217,131.08 C214.917205,131.23836 212.826791,131.271753 210.74,131.18 C209.55,131.18 208.35,131.06 207.16,130.95 C206.57,130.95 205.98,130.84 205.4,130.77 L204.4,130.66 C204.13,130.66 202.86,130.46 203.83,130.59 C204.8,130.72 203.57,130.59 203.38,130.52 L202.49,130.39 L200.22,130.01 C198.72,129.74 197.22,129.45 195.74,129.13 C192.5,128.44 189.27,127.64 186.07,126.76 C178.43,124.65 170.91,122.12 163.47,119.38 C160.86,118.38 157.54,120.45 156.94,123.09 C156.23476,125.908104 157.868163,128.783069 160.65,129.62 L160.71,129.65 Z" id="Path" fill="#9093CC" fill-rule="nonzero"></path>
            <rect id="Rectangle" fill="#FEDDA1" fill-rule="nonzero" x="209.29" y="135.87" width="187.05" height="187.05"></rect>
            <rect id="Rectangle" fill="#FCCE76" fill-rule="nonzero" x="89.18" y="135.87" width="120.11" height="187.05"></rect>
            <line x1="143.38" y1="135.87" x2="143.38" y2="322.92" id="Path" stroke="#9093CC" stroke-width="15.386155"></line>
            <line x1="302.82" y1="135.87" x2="302.82" y2="322.92" id="Path" stroke="#9093CC" stroke-width="15.386155"></line>
            <line x1="77.75" y1="224.98" x2="40.52" y2="224.98" id="Path" stroke="#FFFFFF" stroke-width="4.85629234" stroke-linecap="round" stroke-linejoin="round"></line>
            <line x1="60.76" y1="241.98" x2="4.1" y2="241.98" id="Path" stroke="#FFFFFF" stroke-width="4.85629234" stroke-linecap="round" stroke-linejoin="round"></line>
            <g id="Group" transform="translate(279.050000, 160.840000)" fill-rule="nonzero">
                <ellipse id="Oval" fill="#FFFFFF" cx="23.45" cy="25.66" rx="22.5" ry="25.5"></ellipse>
                <path d="M31.4277301,38.5158591 C31.5260573,38.858059 31.6154457,39.0794824 31.6422622,39.16 L31.6422622,39.16 C30.9629105,31.8328972 34.654651,28.7732279 35.8435165,23.9019123 C35.8515704,23.8199797 35.8665361,23.739097 35.8882107,23.6603595 L35.9418438,23.3282243 C36.0165224,21.6943603 35.5764974,20.0832668 34.6993451,18.7789792 L34.6993451,18.7789792 C34.6278344,18.6380733 34.5473849,18.5072322 34.4669353,18.3663264 L34.4669353,18.3663264 C34.3179547,18.1180637 34.1570556,17.8664462 33.984238,17.6114738 L33.930605,17.5309561 L33.7875836,17.3296621 L33.6356233,17.1183034 C33.5819903,17.0478505 33.5372961,16.9773976 33.4836631,16.9170093 L33.3317028,16.6955859 C33.2884402,16.6536225 33.2494648,16.6063624 33.2154979,16.5546801 C31.6066977,14.5428626 29.8083583,12.7340025 27.8521945,11.16 L27.8521945,11.16 C28.1217501,13.7263987 28.1427306,16.3181863 27.9147664,18.8896909 C27.5445028,21.8606796 26.7696407,24.7496339 25.6174848,27.454752 C22.9607986,27.234192 20.3499877,26.5552896 17.8764502,25.4418116 C15.7810285,24.381918 13.7939185,23.0691809 11.95,21.5266427 C11.95,21.7581308 11.9946942,21.9795543 12.0215107,22.2110424 L12.0215107,22.4123364 L12.0751437,22.9055068 L12.0751437,23.1269303 C12.0751437,23.2879655 12.1198379,23.4590654 12.1466545,23.6201006 L12.1466545,23.81133 C12.1466545,24.0226887 12.2092263,24.2239827 12.2449817,24.4252768 L12.2449817,24.485665 C12.2896759,24.7272178 12.3254312,24.958706 12.3701254,25.2002588 C12.3709923,25.2170191 12.3709923,25.233822 12.3701254,25.2505823 C12.3701254,25.461941 12.4416361,25.6732998 12.4863303,25.8745938 L12.4863303,26.0054349 C12.4863303,26.1966643 12.557841,26.3878936 12.6025352,26.5791229 L12.6025352,26.6898347 C12.6472294,26.9011934 12.6919236,27.1226168 12.7455567,27.3339756 L12.7455567,27.3339756 C12.9064558,28.02844 13.0852325,28.6927103 13.2729482,29.3469159 L13.2729482,29.3469159 C13.5737647,30.3478562 13.9443913,31.3204525 14.3813642,32.2556147 L14.5690798,32.6179439 L14.5690798,32.6179439 L14.5690798,32.6179439 C14.6227128,32.7286556 14.6852847,32.8293027 14.7389178,32.9299497 L14.7389178,32.9299497 C14.7993042,33.0411908 14.8649501,33.1487023 14.9355722,33.2520201 L14.9355722,33.2520201 C14.9355722,33.2520201 14.9355722,33.2520201 14.9355722,33.2520201 L14.9355722,33.2520201 L15.1858597,33.6445435 L15.1858597,33.7049317 L15.1858597,33.7049317 C15.2800742,33.8457159 15.3815561,33.9801437 15.4897802,34.1075198 C15.5596513,34.1996031 15.6342704,34.2869813 15.7132512,34.369202 L15.8026396,34.469849 L15.945661,34.6107549 L16.0529271,34.7114019 L16.1870097,34.8321783 L16.3032146,34.9227606 L16.4372972,35.0334723 L16.5535021,35.1139899 L16.7054623,35.2045723 L16.8037896,35.2649605 L16.9825663,35.3555428 L17.0719547,35.3555428 L17.3401199,35.4561898 C17.3962255,35.4717682 17.4503068,35.4954488 17.501019,35.5266427 C21.8542336,36.8149245 26.0823044,34.7617254 31.3919747,39.0392236" id="Fill-7" fill="#9452BA"></path>
            </g>
        </g>
    </g>
</svg>