<svg width="487" height="274" xmlns="http://www.w3.org/2000/svg">
  <g fill="none" fill-rule="evenodd">
    <g stroke-linecap="round">
      <path stroke="#ACD3EF" stroke-width="3" d="M415.25 24.316v11.368M420.676 30.25h-10.352"/>
      <path stroke="#5563B6" stroke-width="2" d="M305 29.868v7M308.824 33.118h-7M361 76.868v7M364.824 80.118h-7"/>
      <path stroke="#ACD3EF" stroke-width="3" d="M186.25 37.316v11.368M191.676 43.25h-10.352M346.25 190.316v11.368M351.676 196.25h-10.352"/>
      <path stroke="#5563B6" stroke-width="2" d="M275.5 201.5v7M279.324 204.75h-7M436 227.868v7M439.824 231.118h-7M218 243.868v7M221.824 247.118h-7"/>
      <path stroke="#ACD3EF" stroke-width="3" d="M239.25 153.316v11.368M244.676 159.25h-10.352"/>
    </g>
    <path d="M114.138 207.35h13.404c1.702 21.275 1.702 32.953 0 35.035-2.552 3.123-7.518-2.276-13.802-2.897-4.19-.414-4.057-11.126.398-32.137z" stroke="#5563B6" stroke-width="5" fill="#5563B6"/>
    <path d="M108.465 68.892c10.203-16.382 5.185-36.782 11.393-36.782 6.208 0 5.654 16.977 9.699 28.574 1.952 5.598 3.705 13.287 6.997 18.838 2.926 4.934 7.68 7.973 5.574 9.508-2.022 1.474-12.453-1.314-11.17 1.474 1.484 3.225 4.954 7.208 9.148 10.715 5.155 4.31 11.155 8.115 12.901 11.525 1.8 3.517-14.71.55-12.9 3.027 2.734 3.748 23.467 12.174 23.321 12.67-.755 2.579-6.442-.796-9.83 0-1.434.337 2.098 3.714 0 3.896-7.2.624-18.176.004-17.044 1.413 4.396 5.47 41.346 14.396 37.054 17.161-7.617 4.908-36.22.092-33.502 3.965 7.936 11.305 23.65 24.705 37.895 31.94 13.86 7.042 28.51 6.73 25.288 9.38-.492.404-3.152 2.074-6.583 1.84-5.587-.383-14.064-2.78-16.6-.94-2.534 1.84 5.926 3.062 5.926 5.506 0 2.444-6.236 1.634-11.834 1.615-5.217-.017-11.367-1.243-13.1-.791-8.1 2.11 8.995 7.854 0 10.273-3.717 1-11.654-7.523-16.052-6.591-4.129.874 8.902 14.374 3.073 14.581-5.698.203-30.256-12.9-34.38-10.76-4.994 2.593-2.202 11.997-9.53 13.602-4.793 1.05-7.949-10.442-15.863-10.832-7.305-.36-19.438 10.396-22.765 10.832-8.642 1.133.741-5.715-2.433-6.761-2.883-.95-18.562 3.94-21.265 3.92-10.04-.078-19.167.245-18.05-2.02 1.13-2.295 10.159-2.633 18.05-4.388 10.964-2.438 21.714-6.108 23.698-8.174.43-.45-.75-1.945-2.433-1.852-1.783.099-4.168 1.8-7.237 1.852-1.883.03-2.561-1.98-4.406-1.852-2.578.18-4.881 1.408-7.163 1.852-3.96.77-7.227.647-7.227-.866 0-3.008 50.06-26.493 54.447-32.934 2.228-3.27-8.266 2.187-15.916 1.875-1.026-.041-1.566-1.807-3.381-1.875-2.5-.093-5.856.665-6.684 0-1.45-1.164 2.323-3.63 0-3.664-6.25-.089-10.862 1.063-8.952-2.41 1.186-2.153 18.459-6.65 31.717-12.358 9.125-3.93 15.981-9.5 15.863-10.96-.181-2.23-14.493 2.46-26.662 3.572-4.087.374-.713-2.066-3.754-2.544-2.164-.34-5.325 1.231-8.212 1.217-3.207-.015-6.024-1.624-5.652-2.245.949-1.587 9.74-4.283 17.618-7.856 8.71-3.95 16.616-8.803 18.455-10.716 1.214-1.263-2.954 1.387-7.656 1.9-5.912.646-12.68-.707-10.8-1.9 10.253-6.502 22.214-9.939 26.663-16.714 1.818-2.77-2.164.258-8.207 1.142-6.228.91-14.548-.32-14.37-2.978.112-1.659 6.477-3.431 12.282-6.844 6.512-3.83 12.632-9.346 14.551-11.671 1.746-2.115-16.519 2.416-14.551 0 2.542-3.122 5.592-5.738 7.866-8.757 3.65-4.845 6.04-9.595 6.685-10.63z" stroke="#5563B6" stroke-width="5" fill="#FFF"/>
    <path d="M105.138 64.249c2.124-4.078 10.175-38.934 16.93-38.934 6.754 0 6.152 19.37 10.553 32.602 2.124 6.387 18.173 15.393 13.205 20.578-4.834 5.044-20.33-1.717-33.224-4.355-2.905-.595-15.848 5.088-16.679 4.355-4.848-4.28 7.09-10.169 9.215-14.246zM101.463 174.546c5.258-1.453 18.982-18.333 30.287-19.55 13.146-1.415 16.65 8.847 22.68 10.162 16.941 3.694 25.612 16.179 19.612 19.842-.82.5-7.974 3.016-16.136 1.516-7.254-1.333-12.137-7.193-19.612-5.677-2.326.472-5.23.663-6.544 2.359-1.656 2.137-1.634 5.94-4.24 7.596-2.677 1.7-6.6.766-9.86 1.875-2.678.912-3.114 3.174-5.684 4.186-3.381 1.331-8.85 1.312-11.981 1.312-7.242 0-11.472 5.726-16.985 3.528s4.116-6.416 1.348-9.026c-1.865-1.757-13.926 5.945-19.951 7.416-8.543 2.086-15.88-.068-17.106-1.918-7.183-10.838 48.848-22.15 54.172-23.621z" stroke="#5563B6" stroke-width="4" fill="#FFF"/>
    <path d="M133.335 69.875c-5.619-4.562-8.428-8.958-8.428-13.188s-.47-8.625-1.407-13.187M85.948 186c12.052-1.838 19.277-3.632 21.677-5.382 12.773-9.318 18.19-16.63 23.278-16.63 2.97 0 8.175 1.185 15.614 3.552" stroke="#E1F2FF" stroke-width="4" stroke-linecap="round"/>
    <path d="M83.872 135.027c10.466-3.439 17.682-5.262 24.251-3.57 6.57 1.692 6.88 4.002 3.877 6.043-3.004 2.04-11.296.942-16.191 2.5-6.401 2.037-12.248 12.228-14.338 12.315-4.031.17-5.468-3.6-6.254-4.126-2.214-1.485-11.51 4.442-16.762-2.689-2.2-2.986 5.353-7.612 13.922-9.824 3.866-.998 8.241.42 11.495-.649zM148 114.588c3.866 0 9.341 1.266 9.341-1.496 0-2.761-5.45-4.688-11.659-9.589-6.209-4.9-9.326-11.086-14.75-11.086-5.424 0-1.141 15.39 1.926 18.244 3.067 2.854 12.688 3.927 15.142 3.927z" stroke="#5563B6" stroke-width="4" fill="#FFF"/>
    <path d="M140.835 108.575c-3.667-.637-5.5-3.07-5.5-7.3M73.168 140.571c3.638-.783 6.25.786 7.834 4.708" stroke="#E1F2FF" stroke-width="3" stroke-linecap="round"/>
    <path d="M141.35 203.74c.157.128.258.227.293.258.002.006 0-.005 0 0 0 .001 0 0 0 0-3.803-1.931-6.392-.462-9.332-.808a1.085 1.085 0 00-.139-.03 2.193 2.193 0 01-.196-.036c-.775-.182-1.5-.794-2.151-1.67l-.01-.013c-.056-.072-.108-.148-.16-.223l-.003-.003c-.095-.14-.19-.287-.283-.437l-.03-.045a4.556 4.556 0 00-.074-.127c-.026-.044-.052-.086-.076-.129l-.073-.13-.075-.136-.052-.097c-.656-1.233-1.189-2.715-1.57-4.192 0 0-.009-.014 0 0 1.43.732 2.916 1.332 4.17 1.664 1.512.4 3.405.569 5.222.488.557-1.624.878-3.38.862-4.855-.014-1.233-.236-2.725-.622-4.219.118.06.235.123.354.184l.104.058c.084.044.167.088.25.136a25.522 25.522 0 01.463.262c.104.061.207.122.309.184l.03.018c.12.07.236.144.353.217.01.005.018.011.027.017.106.066.207.132.31.199.022.013.042.028.063.04l.28.187a18.33 18.33 0 011.314.983l.011.009c.494.41.932.83 1.292 1.247.052.062.103.123.152.184l.006.006v.001c.045.055.089.111.13.165v.002l.004.006c.045.06.089.118.13.178l.015.024c0 .001.002 0 .002.002a4.942 4.942 0 01.17.266c.003.004.005.01.01.014a3.743 3.743 0 01.225.44l.03.076c.016.037.029.074.043.111.01.027.018.054.026.083.012.033.022.069.032.103.008.027.014.054.02.082.009.034.017.068.024.103l.013.08c.006.036.01.072.014.106l.007.074c.002.04.003.078.003.12v.058c0 .06-.005.118-.012.176-.004.04-.006.074-.006.106-.4 2.76-2.58 4.752-1.606 8.691" fill="#9452BA"/>
    <path d="M197.043 135.245c5.68-4.135 11.613-10.726 11.425-17.905-.286-10.914-14.853-18.288-21.742-18.22-5.402.052-5.457 2.792-5.404 7.736.057 5.233.15 26.059.219 28.273l.005.146.012.292.007.146.019.292c.318 4.57 2.322 8.803 15.459-.76zm-8.007-4.768v-.026-.133c-.008-.92-.044-5.695-.077-10.9l-.005-.712-.002-.357-.005-.716-.008-1.433-.004-.712c-.016-2.722-.029-5.327-.033-7.327 4.149.468 11.365 3.655 11.172 10.357-.162 5.61-11.038 11.959-11.038 11.959zm30.97 10.524c4.674-.06 11.295-.784 16.479-1.978 1.631-.375 3.573-1.93 3.4-4.539-.21-3.147-2.67-4.065-4.06-4.03-4.06.104-15.204 1.6-15.204 1.6l-.186-8.059s8.2-.491 11.73-1.257c4.343-.94 3.72-8.283-2.251-8.233-.846.007-2.015.045-3.239.094l-.792.033c-2.648.114-5.288.264-5.288.264l-.149-5.583h.037c.675-.01 10.518-.16 13.699-.38 2.676-.187 5.702-1.505 5.19-5.163-.418-2.999-3.911-3.647-6.703-3.691-3.13-.05-10.98-.34-15.906.385-1.642.242-3.947 2.487-4.012 5.106l-.117 24.199c.302 7.577.041 11.326 7.372 11.232zm46.954-.069c4.439-.412 6.744-2.05 6.385-5.294-.357-3.227-2.974-4.407-5.692-3.836-1.973.414-5.1 1.031-8.172-.76-6.411-3.738-6.414-15.923-1.439-21.018 3.3-3.38 6.465-2.413 8.8-2.202 2.693.244 5.814-.717 5.936-3.981.096-2.58-2.456-4.41-4.849-4.618-.342-.03-.686-.056-1.033-.078l-.523-.03c-8.212-.42-17.61 1.64-20.3 15.93-1.143 6.074-.937 13.18 4.52 19.938 3.882 4.81 11.626 6.388 16.367 5.949zm17.966.069c4.674-.06 11.295-.784 16.479-1.978 1.631-.375 3.573-1.93 3.4-4.539-.21-3.147-2.67-4.065-4.06-4.03-4.06.104-15.204 1.6-15.204 1.6l-.186-8.059s8.2-.491 11.73-1.257c4.343-.94 3.72-8.283-2.251-8.233-.846.007-2.015.045-3.239.094l-.792.033c-2.648.114-5.288.264-5.288.264l-.149-5.583h.037c.675-.01 10.518-.16 13.699-.38 2.676-.187 5.702-1.505 5.19-5.163-.418-2.999-3.911-3.647-6.703-3.691-3.13-.05-10.98-.34-15.906.385-1.642.242-3.947 2.487-4.012 5.106l-.117 24.199c.302 7.577.041 11.326 7.372 11.232zm62.69.001c2.03-.02 3.456-1.624 3.558-4.003.104-2.403.145-5.5.149-8.813v-.952c-.009-8.935-.265-19.088-.295-21.402-.036-2.793.179-6.828-3.081-6.91-3.215-.082-5.252 2.914-7.02 4.934-.779.89-2.384 2.66-4.053 4.49l-.437.478c-2.475 2.71-4.945 5.392-4.945 5.392l-.006-.006-.15-.149a1574.28 1574.28 0 01-2.36-2.35l-.409-.408-.864-.864-.68-.68-.463-.464-.466-.468-.468-.47-.465-.468c-1.778-1.79-3.451-3.492-4.277-4.375-2.131-2.28-3.472-4.253-6.546-4.438-2.599-.157-3.753 2.065-3.884 4.46a33.66 33.66 0 00-.02 1.343v.725c.006 2.709.061 7.529.123 12.25l.012.913c.067 5.154.138 10.019.153 11.677.035 3.99.574 6.865 3.472 6.842 3.046-.026 4.308-2.413 4.477-5.017.05-.793.073-2.106.075-3.676v-.64c-.007-5.662-.227-13.983-.227-13.983s8.117 9.198 13.03 9.269c4.448.065 9.588-7.861 11.496-9.611.25 2.23.054 22.43.559 24.152.529 1.807 1.728 3.245 4.011 3.222zm19.594-.163c11.134-.848 19.6-5.039 19.414-14.558-.063-3.202-2.324-8.89-9.521-9.056 0 0 .13-.068.344-.208l.155-.104c1.336-.918 4.83-3.926 3.867-9.76-1.13-6.843-8.02-8.297-12.763-8.1-3.754.155-9.582-.212-11.126 4.603-.445 1.386-.62 6.663-.626 12.624v.972l.007 1.473.007.99.005.494.011.99c.08 6.26.307 12.324.572 14.717.594 5.35 4.17 5.34 9.654 4.923zm-2.132-26.433l-.158-7.791s8.348-2.577 9.153 1.665c1.084 5.71-6.905 5.317-8.995 6.126zm.12 18.816c-.209-.47-.3-2.109-.336-3.763l-.01-.522c-.007-.52-.01-1.029-.011-1.49V127c.002-.924.013-1.571.013-1.571s12.247-5.137 13.359 1.138c.658 3.715-9.368 6.593-13.014 6.654zM398.167 141c4.674-.06 11.295-.784 16.479-1.978 1.631-.375 3.573-1.93 3.4-4.539-.21-3.147-2.67-4.065-4.06-4.03-4.06.104-15.204 1.6-15.204 1.6l-.186-8.059s8.2-.491 11.73-1.257c4.343-.94 3.72-8.283-2.251-8.233-.846.007-2.015.045-3.239.094l-.792.033c-2.648.114-5.288.264-5.288.264l-.149-5.583h.037c.675-.01 10.518-.16 13.699-.38 2.676-.187 5.702-1.505 5.19-5.163-.418-2.999-3.911-3.647-6.703-3.691-3.13-.05-10.98-.34-15.906.385-1.642.242-3.947 2.487-4.012 5.106l-.117 24.199c.302 7.577.041 11.326 7.372 11.232zm29.63.001c1.888 0 3.566-1.917 3.781-4.094.419-4.237.084-7.77.194-11.046 4.104 3.515 6.901 6.601 11.978 9.931 2.676 1.755 6.35 3.727 8.598 2.243 3.403-2.247 1.204-5.37-.413-6.646-5.742-4.529-10.882-8.758-10.882-8.758s8.904-3.681 9.016-12.467c.068-5.355-2.688-10.958-14.68-10.91-3.664.014-9.22.282-10.552 2.069-1.013 1.36-1.143 8.223-1.152 13.145v1.046c0 .785.003 1.498.004 2.1v.49l-.001.43c-.007 1.211-.011 2.634-.013 4.17v1.344c.001 1.138.004 2.321.01 3.513l.009 1.432c.018 2.624.053 5.222.11 7.415.05 1.882 1.387 4.593 3.993 4.593zm3.93-24.438l-.027.001-.002-8.5s8.253-2.536 9.446 2.27c1.437 5.788-8.821 6.21-9.417 6.23z" fill="#5563B6" fill-rule="nonzero"/>
  </g>
</svg>
