<svg width="487" height="274" xmlns="http://www.w3.org/2000/svg" xmlns:xlink="http://www.w3.org/1999/xlink">
  <defs>
    <path d="M9.402 175.664c18.777 0 37.78-9.864 72.987-61.132 11.672-16.997 22.779-37.32 32.002-51 1.685-2.499-.266-5.123 1.577-7.089 1.749-1.867 3.277-2.155 4.13-3.572.906-1.503 1.104-4.125 1.862-5.803.816-1.803 3.258-4.665 3.977-6.385 1.027-2.452 1.182-5.826 1.91-8.062.847-2.606 2.167-4.478 2.637-6.75.345-1.667-.102-4.238 0-5.766.22-3.28-1.873-6.435-2.638-8.935-1.122-3.669-1.536-6.323-5.245-9.163-2.879-2.205-5.408-2.505-9.649-1.33-1.117.31-3.034.847-4.297 1.33-1.24.474-3.276.277-4.602.973-.702.368-1.726 2.578-2.445 2.976-1.408.781-2.937-.08-4.396.895-1.444.965-2.336 3.223-3.841 4.32-1.341.975-3.569.266-4.93 1.376-1.221.995-1.08 3.66-2.333 4.731-1.59 1.36-3.665 1.324-5.29 2.827-1.262 1.167-1.15 2.89-2.424 4.121-1.071 1.036-3.993 1.299-5.074 2.374-1.094 1.088-1.097 3.21-2.192 4.336-.852.878-3.3.79-4.154 1.685-1.02 1.07-2.393 3.783-3.406 4.877-.584.63-5.463 1.841-6.043 2.476-22.07 24.155-37.199 50.929-42.536 60.84-11.034 20.489-24.365 74.85-5.587 74.85Z" id="a"/>
  </defs>
  <g fill="none" fill-rule="evenodd">
    <path d="M192.475 62.843c1.665-2.502 6.804-8.213 15.525-11.649.5-.197 2.592-.362 3.399 0 .467.21.806.82 1.014 1.83-2.253-.32-3.724-.045-4.413.825-1.715 2.166-1.535 5.399-2.667 7.72-1.458 2.986-4.106 4.974-5.4 6.621-1.034 1.317-4.18 3.122-6.972 7.533-1.14 1.801-2.05 5.08-4.175 8.885-2.092 3.744-6.545 11.383-13.358 22.918-8.077-.859-10.264-3.66-6.562-8.403 8.911-11.417 18.44-28.517 23.609-36.28Z" stroke="#5563B6" stroke-width="5" fill="#FFF" stroke-linejoin="round"/>
    <g transform="translate(62.011 39.685)">
      <mask id="b" fill="#fff">
        <use xlink:href="#a"/>
      </mask>
      <use fill="#FFF" xlink:href="#a"/>
      <g mask="url(#b)" stroke="#89C3EA" stroke-linejoin="round" stroke-width="3">
        <g transform="translate(1.33 -1.038)">
          <rect fill="#FFF" transform="rotate(-50 90.733 46.982)" x="87.733" y="42.482" width="6" height="9" rx="3"/>
          <rect fill="#FFF" transform="rotate(-50 85.733 52.982)" x="82.733" y="48.482" width="6" height="9" rx="3"/>
          <rect fill="#FFF" transform="rotate(-50 80.733 58.982)" x="77.733" y="54.482" width="6" height="9" rx="3"/>
          <rect fill="#FFF" transform="rotate(-50 75.733 65.982)" x="72.733" y="61.482" width="6" height="9" rx="3"/>
          <rect fill="#FFF" transform="rotate(-50 66.733 76.982)" x="63.733" y="72.482" width="6" height="9" rx="3"/>
          <rect fill="#FFF" transform="rotate(-50 13.671 148.278)" x="11.171" y="144.278" width="5" height="8" rx="2.5"/>
          <rect fill="#FFF" transform="rotate(-59 17.161 143.24)" x="14.161" y="139.24" width="6" height="8" rx="3"/>
          <rect fill="#FFF" transform="rotate(-50 61.733 83.982)" x="58.733" y="79.482" width="6" height="9" rx="3"/>
          <rect fill="#FFF" transform="rotate(-50 104.733 28.982)" x="101.733" y="24.482" width="6" height="9" rx="3"/>
          <rect fill="#FFF" transform="rotate(-50 99.733 34.982)" x="96.733" y="30.482" width="6" height="9" rx="3"/>
          <rect fill="#FFF" transform="rotate(-50 94.733 40.982)" x="91.733" y="36.482" width="6" height="9" rx="3"/>
          <rect fill="#FFF" transform="rotate(-50 56.733 89.982)" x="53.733" y="85.482" width="6" height="9" rx="3"/>
          <rect fill="#FFF" transform="rotate(-50 38.733 112.982)" x="35.733" y="108.482" width="6" height="9" rx="3"/>
          <rect fill="#FFF" transform="rotate(-50 42.928 107.522)" x="39.928" y="103.522" width="6" height="8" rx="3"/>
          <rect fill="#FFF" transform="rotate(-50 33.928 118.522)" x="30.928" y="114.522" width="6" height="8" rx="3"/>
          <rect transform="rotate(-50 108.077 23.486)" x="105.577" y="20.486" width="5" height="6" rx="2.5"/>
          <rect transform="rotate(-50 52.311 95.843)" x="49.811" y="91.843" width="5" height="8" rx="2.5"/>
          <rect transform="rotate(-50 47.311 100.843)" x="44.811" y="96.843" width="5" height="8" rx="2.5"/>
          <rect transform="rotate(-50 113.077 18.486)" x="110.577" y="15.486" width="5" height="6" rx="2.5"/>
          <rect transform="rotate(-50 29.311 123.843)" x="26.811" y="119.843" width="5" height="8" rx="2.5"/>
          <rect transform="rotate(-50 70.928 71.522)" x="67.928" y="67.522" width="6" height="8" rx="3"/>
          <rect transform="rotate(-50 24.928 129.522)" x="21.928" y="125.522" width="6" height="8" rx="3"/>
          <rect transform="rotate(-50 21.116 136.304)" x="18.116" y="132.304" width="6" height="8" rx="3"/>
          <rect fill="#FFF" transform="rotate(-50 103.233 43.982)" x="100.733" y="40.482" width="5" height="7" rx="2.5"/>
          <path d="M95.08 47.735a2.886 2.886 0 0 1 4.008-.35l1.478 1.205a2.726 2.726 0 0 1 .34 3.895 2.886 2.886 0 0 1-4.006.35L95.42 51.63a2.726 2.726 0 0 1-.34-3.895ZM90.327 53.277a2.886 2.886 0 0 1 4.007-.35l1.479 1.204a2.726 2.726 0 0 1 .34 3.895 2.886 2.886 0 0 1-4.007.35l-1.478-1.205a2.726 2.726 0 0 1-.34-3.894ZM85.574 59.742a2.886 2.886 0 0 1 4.007-.35l1.478 1.204a2.726 2.726 0 0 1 .34 3.895 2.886 2.886 0 0 1-4.006.35l-1.479-1.205a2.726 2.726 0 0 1-.34-3.894Z" fill="#FFF"/>
          <rect fill="#FFF" transform="rotate(-50 79.733 74.482)" x="76.733" y="70.482" width="6" height="8" rx="3"/>
          <rect fill="#FFF" transform="rotate(-50 25.967 146.34)" x="22.967" y="142.84" width="6" height="7" rx="3"/>
          <rect fill="#FFF" transform="rotate(-50 31.967 149.34)" x="28.967" y="145.84" width="6" height="7" rx="3"/>
          <rect fill="#FFF" transform="rotate(-50 11.288 155.957)" x="8.788" y="152.457" width="5" height="7" rx="2.5"/>
          <rect fill="#FFF" transform="rotate(-50 16.288 160.957)" x="13.788" y="157.457" width="5" height="7" rx="2.5"/>
          <rect fill="#FFF" transform="rotate(-50 8.288 160.957)" x="5.788" y="157.457" width="5" height="7" rx="2.5"/>
          <rect fill="#FFF" transform="rotate(-50 6.288 166.957)" x="3.788" y="163.457" width="5" height="7" rx="2.5"/>
          <rect fill="#FFF" transform="rotate(-50 4.288 152.957)" x="1.788" y="149.457" width="5" height="7" rx="2.5"/>
          <rect fill="#FFF" transform="rotate(-56 18.288 154.957)" x="15.788" y="151.457" width="5" height="7" rx="2.5"/>
          <path d="m82.48 36.534.165-.243A2.198 2.198 0 0 1 86.05 36l1.882 1.959a3 3 0 0 1 .321 3.759l-.164.242a2.198 2.198 0 0 1-3.407.292l-1.881-1.96a3 3 0 0 1-.322-3.758ZM78.124 42.171a2.923 2.923 0 0 1 4.126-.36l2.24 1.886a2.947 2.947 0 0 1 .362 4.143 2.923 2.923 0 0 1-4.126.361l-2.24-1.887a2.947 2.947 0 0 1-.362-4.143ZM73.245 48.051a2.923 2.923 0 0 1 4.126-.36l2.24 1.886a2.947 2.947 0 0 1 .362 4.143 2.923 2.923 0 0 1-4.126.361l-2.24-1.887a2.947 2.947 0 0 1-.362-4.143ZM68.366 54.911a2.923 2.923 0 0 1 4.126-.36l2.239 1.886a2.947 2.947 0 0 1 .363 4.144 2.923 2.923 0 0 1-4.126.36l-2.24-1.887a2.947 2.947 0 0 1-.362-4.143ZM59.583 65.691a2.923 2.923 0 0 1 4.126-.36l2.24 1.886a2.947 2.947 0 0 1 .362 4.144 2.923 2.923 0 0 1-4.126.36l-2.24-1.886a2.947 2.947 0 0 1-.362-4.144ZM11.524 129.89a2.6 2.6 0 0 1 3.51-.306l1.98 1.528a2.209 2.209 0 0 1 .282 3.236 2.6 2.6 0 0 1-3.511.306l-1.979-1.528a2.209 2.209 0 0 1-.282-3.236ZM9.345 135.669a2.327 2.327 0 0 1 3.116-.272l1.768 1.345a1.917 1.917 0 0 1 .246 2.828 2.327 2.327 0 0 1-3.116.27l-1.768-1.343a1.917 1.917 0 0 1-.246-2.828Z" fill="#FFF"/>
          <path d="M4.345 132.669a2.327 2.327 0 0 1 3.116-.272l1.768 1.345a1.917 1.917 0 0 1 .246 2.828 2.327 2.327 0 0 1-3.116.27l-1.768-1.343a1.917 1.917 0 0 1-.246-2.828ZM4.345 139.669a2.327 2.327 0 0 1 3.116-.272l1.768 1.345a1.917 1.917 0 0 1 .246 2.828 2.327 2.327 0 0 1-3.116.27l-1.768-1.343a1.917 1.917 0 0 1-.246-2.828ZM3.524 144.89a2.6 2.6 0 0 1 3.51-.306l1.98 1.528a2.209 2.209 0 0 1 .282 3.236 2.6 2.6 0 0 1-3.511.306l-1.979-1.528a2.209 2.209 0 0 1-.282-3.236ZM18.345 147.669a2.327 2.327 0 0 1 3.116-.272l1.768 1.345a1.917 1.917 0 0 1 .246 2.828 2.327 2.327 0 0 1-3.116.27l-1.768-1.343a1.917 1.917 0 0 1-.246-2.828Z" fill="#FFF"/>
          <path d="M23.345 150.669a2.327 2.327 0 0 1 3.116-.272l1.768 1.345a1.917 1.917 0 0 1 .246 2.828 2.327 2.327 0 0 1-3.116.27l-1.768-1.343a1.917 1.917 0 0 1-.246-2.828ZM54.704 72.551a2.923 2.923 0 0 1 4.126-.36l2.24 1.886a2.947 2.947 0 0 1 .362 4.144 2.923 2.923 0 0 1-4.126.36l-2.24-1.886a2.947 2.947 0 0 1-.362-4.144ZM96.142 18.894l.164-.243a2.198 2.198 0 0 1 3.407-.291l1.881 1.959a3 3 0 0 1 .322 3.758l-.165.243a2.198 2.198 0 0 1-3.406.292l-1.882-1.96a3 3 0 0 1-.321-3.758ZM89.142 14.894l.164-.243a2.198 2.198 0 0 1 3.407-.291l1.881 1.959a3 3 0 0 1 .322 3.758l-.165.243a2.198 2.198 0 0 1-3.406.292l-1.882-1.96a3 3 0 0 1-.321-3.758ZM91.263 24.774l.164-.243a2.198 2.198 0 0 1 3.406-.291l1.882 1.959a3 3 0 0 1 .322 3.759l-.165.242a2.198 2.198 0 0 1-3.406.292l-1.882-1.96a3 3 0 0 1-.321-3.758ZM85.263 19.774l.164-.243a2.198 2.198 0 0 1 3.406-.291l1.882 1.959a3 3 0 0 1 .322 3.759l-.165.242a2.198 2.198 0 0 1-3.406.292l-1.882-1.96a3 3 0 0 1-.321-3.758ZM86.384 30.654l.164-.243a2.198 2.198 0 0 1 3.406-.291l1.882 1.959a3 3 0 0 1 .321 3.759l-.164.242a2.198 2.198 0 0 1-3.406.292l-1.882-1.96a3 3 0 0 1-.321-3.758ZM49.825 78.431a2.923 2.923 0 0 1 4.126-.36l2.24 1.886a2.947 2.947 0 0 1 .362 4.144 2.923 2.923 0 0 1-4.126.36l-2.24-1.886a2.947 2.947 0 0 1-.362-4.144ZM41.384 74.058a2.923 2.923 0 0 1 4-1.072l2.533 1.47a2.947 2.947 0 0 1 1.077 4.017 2.923 2.923 0 0 1-4 1.072l-2.534-1.47a2.947 2.947 0 0 1-1.076-4.017Z" fill="#FFF"/>
          <path d="M38.384 79.058a2.923 2.923 0 0 1 4-1.072l2.533 1.47a2.947 2.947 0 0 1 1.077 4.017 2.923 2.923 0 0 1-4 1.072l-2.534-1.47a2.947 2.947 0 0 1-1.076-4.017ZM32.384 85.058a2.923 2.923 0 0 1 4-1.072l2.533 1.47a2.947 2.947 0 0 1 1.077 4.017 2.923 2.923 0 0 1-4 1.072l-2.534-1.47a2.947 2.947 0 0 1-1.076-4.017ZM30.3 91.124l.12-.287a2.046 2.046 0 0 1 3.126-.829l2.074 1.585a3 3 0 0 1 .942 3.554l-.121.287a2.046 2.046 0 0 1-3.126.828l-2.074-1.584a3 3 0 0 1-.942-3.554ZM24.848 98.127l.032-.31a2.046 2.046 0 0 1 2.747-1.706l2.447.909a3 3 0 0 1 1.94 3.123l-.033.31a2.046 2.046 0 0 1-2.747 1.706l-2.446-.908a3 3 0 0 1-1.94-3.124ZM19.848 103.127l.032-.31a2.046 2.046 0 0 1 2.747-1.706l2.447.909a3 3 0 0 1 1.94 3.123l-.033.31a2.046 2.046 0 0 1-2.747 1.706l-2.446-.908a3 3 0 0 1-1.94-3.124ZM46.384 69.058a2.923 2.923 0 0 1 4-1.072l2.533 1.47a2.947 2.947 0 0 1 1.077 4.017 2.923 2.923 0 0 1-4 1.072l-2.534-1.47a2.947 2.947 0 0 1-1.076-4.017ZM32.26 100.971a2.923 2.923 0 0 1 4.126-.36l2.24 1.886a2.947 2.947 0 0 1 .362 4.144 2.923 2.923 0 0 1-4.126.36l-2.24-1.886a2.947 2.947 0 0 1-.362-4.144ZM36.728 95.935a2.923 2.923 0 0 1 4.126-.36l1.491 1.256a2.947 2.947 0 0 1 .363 4.144 2.923 2.923 0 0 1-4.126.36l-1.492-1.256a2.947 2.947 0 0 1-.362-4.144ZM27.945 106.715a2.923 2.923 0 0 1 4.126-.36l1.492 1.256a2.947 2.947 0 0 1 .362 4.144 2.923 2.923 0 0 1-4.126.36l-1.491-1.256a2.947 2.947 0 0 1-.363-4.144Z" fill="#FFF"/>
          <path d="M45.884 84.49a2.435 2.435 0 0 1 3.438-.3l2.24 1.887a2.456 2.456 0 0 1 .302 3.453 2.435 2.435 0 0 1-3.438.3l-2.24-1.887a2.456 2.456 0 0 1-.302-3.453ZM41.005 89.39a2.435 2.435 0 0 1 3.438-.3l2.24 1.887a2.456 2.456 0 0 1 .302 3.453 2.435 2.435 0 0 1-3.438.3l-2.24-1.887a2.456 2.456 0 0 1-.302-3.453ZM22.44 111.93a2.435 2.435 0 0 1 3.438-.3l2.24 1.887a2.456 2.456 0 0 1 .302 3.453 2.435 2.435 0 0 1-3.438.3l-2.24-1.887a2.456 2.456 0 0 1-.302-3.453ZM15.44 105.93a2.435 2.435 0 0 1 3.438-.3l2.24 1.887a2.456 2.456 0 0 1 .302 3.453 2.435 2.435 0 0 1-3.438.3l-2.24-1.887a2.456 2.456 0 0 1-.302-3.453ZM12.44 112.93a2.435 2.435 0 0 1 3.438-.3l2.24 1.887a2.456 2.456 0 0 1 .302 3.453 2.435 2.435 0 0 1-3.438.3l-2.24-1.887a2.456 2.456 0 0 1-.302-3.453ZM7.44 117.93a2.435 2.435 0 0 1 3.438-.3l2.24 1.887a2.456 2.456 0 0 1 .302 3.453 2.435 2.435 0 0 1-3.438.3l-2.24-1.887a2.456 2.456 0 0 1-.302-3.453ZM5.44 123.93a2.435 2.435 0 0 1 3.438-.3l2.24 1.887a2.456 2.456 0 0 1 .302 3.453 2.435 2.435 0 0 1-3.438.3l-2.24-1.887a2.456 2.456 0 0 1-.302-3.453ZM64.051 60.655a2.923 2.923 0 0 1 4.126-.36l1.492 1.256a2.947 2.947 0 0 1 .362 4.144 2.923 2.923 0 0 1-4.126.36l-1.492-1.257a2.947 2.947 0 0 1-.362-4.143ZM19.163 117.495a2.923 2.923 0 0 1 4.126-.36l1.491 1.256a2.947 2.947 0 0 1 .363 4.144 2.923 2.923 0 0 1-4.126.36l-1.492-1.256a2.947 2.947 0 0 1-.362-4.144ZM14.427 123.252a2.477 2.477 0 0 1 3.55-.31l1.9 1.65a2.654 2.654 0 0 1 .322 3.675 2.477 2.477 0 0 1-3.55.31l-1.9-1.651a2.654 2.654 0 0 1-.322-3.674Z"/>
          <rect fill="#FFF" transform="rotate(-50 29.733 140.982)" x="26.733" y="136.482" width="6" height="9" rx="3"/>
          <rect fill="#FFF" transform="rotate(-50 37.733 146.982)" x="34.733" y="142.482" width="6" height="9" rx="3"/>
          <path d="m71.286 79.09.642-.766a3 3 0 0 1 4.227-.37l2.298 1.928a3 3 0 0 1 .37 4.227l-.643.766a3 3 0 0 1-4.227.37l-2.298-1.929a3 3 0 0 1-.37-4.226Z" fill="#FFF"/>
          <rect fill="#FFF" transform="rotate(-50 115.233 25.982)" x="112.733" y="22.482" width="5" height="7" rx="2.5"/>
          <rect fill="#FFF" transform="rotate(-50 104.233 17.982)" x="101.733" y="14.482" width="5" height="7" rx="2.5"/>
          <rect fill="#FFF" transform="rotate(-50 98.233 12.982)" x="95.733" y="9.482" width="5" height="7" rx="2.5"/>
          <rect fill="#FFF" transform="rotate(-50 112.233 31.982)" x="109.733" y="28.482" width="5" height="7" rx="2.5"/>
          <rect fill="#FFF" transform="rotate(-50 107.233 37.982)" x="104.733" y="34.482" width="5" height="7" rx="2.5"/>
          <path d="M66.286 85.09a3 3 0 0 1 4.226-.37l2.298 1.928a3 3 0 1 1-3.857 4.597l-2.298-1.929a3 3 0 0 1-.37-4.226ZM48.286 108.09a3 3 0 0 1 4.226-.37l2.298 1.928a3 3 0 1 1-3.857 4.597l-2.298-1.929a3 3 0 0 1-.37-4.226ZM52.864 102.95a3 3 0 0 1 4.226-.369l1.533 1.286a3 3 0 0 1-3.857 4.596l-1.532-1.286a3 3 0 0 1-.37-4.226ZM43.864 113.95a3 3 0 0 1 4.226-.369l1.533 1.286a3 3 0 0 1-3.857 4.596l-1.532-1.286a3 3 0 0 1-.37-4.226Z" fill="#FFF"/>
          <rect transform="rotate(-50 118.84 21.262)" x="116.841" y="18.762" width="4" height="5" rx="2"/>
          <rect transform="rotate(-50 124.99 25.226)" x="122.99" y="22.226" width="4" height="6" rx="2"/>
          <rect transform="rotate(-50 122.607 30.905)" x="120.607" y="27.405" width="4" height="7" rx="2"/>
          <rect transform="rotate(-50 69.607 49.905)" x="67.607" y="46.405" width="4" height="7" rx="2"/>
          <path d="M62.247 91.272a2.5 2.5 0 0 1 3.522-.308l2.298 1.929a2.5 2.5 0 0 1-3.214 3.83l-2.298-1.929a2.5 2.5 0 0 1-.308-3.522ZM57.247 96.272a2.5 2.5 0 0 1 3.522-.308l2.298 1.929a2.5 2.5 0 1 1-3.214 3.83l-2.298-1.929a2.5 2.5 0 0 1-.308-3.522Z"/>
          <rect transform="rotate(-50 117.311 13.843)" x="114.811" y="10.843" width="5" height="6" rx="2.5"/>
          <rect transform="rotate(-50 111.928 9.522)" x="109.428" y="7.022" width="5" height="5" rx="2.5"/>
          <rect transform="rotate(-50 123.694 17.165)" x="121.194" y="14.665" width="5" height="5" rx="2.5"/>
          <rect transform="rotate(-50 121.633 8.46)" x="119.633" y="5.46" width="4" height="6" rx="2"/>
          <rect transform="rotate(-50 108.694 14.165)" x="106.194" y="11.665" width="5" height="5" rx="2.5"/>
          <rect transform="rotate(-50 104.311 9.843)" x="101.811" y="6.843" width="5" height="6" rx="2.5"/>
          <rect transform="rotate(-50 107.311 3.843)" x="104.811" y=".843" width="5" height="6" rx="2.5"/>
          <rect transform="rotate(-50 115.311 3.843)" x="112.811" y=".843" width="5" height="6" rx="2.5"/>
          <rect transform="rotate(-50 77.668 36.61)" x="74.168" y="33.61" width="7" height="6" rx="3"/>
          <rect transform="rotate(-50 75.668 29.61)" x="72.168" y="26.61" width="7" height="6" rx="3"/>
          <rect transform="rotate(-50 70.668 36.61)" x="67.168" y="33.61" width="7" height="6" rx="3"/>
          <rect transform="rotate(-50 83.311 31.843)" x="80.811" y="28.843" width="5" height="6" rx="2.5"/>
          <rect transform="rotate(-50 85.311 26.843)" x="82.811" y="23.843" width="5" height="6" rx="2.5"/>
          <rect transform="rotate(-50 80.311 23.843)" x="77.811" y="20.843" width="5" height="6" rx="2.5"/>
          <rect transform="rotate(-50 74.311 43.843)" x="71.811" y="40.843" width="5" height="6" rx="2.5"/>
          <path d="M40.247 120.272a2.5 2.5 0 0 1 3.522-.308l2.298 1.929a2.5 2.5 0 1 1-3.214 3.83l-2.298-1.929a2.5 2.5 0 0 1-.308-3.522Z"/>
          <rect transform="rotate(-50 83.928 69.022)" x="80.928" y="65.522" width="6" height="7" rx="3"/>
          <path d="M34.864 124.95a3 3 0 0 1 4.226-.369l1.533 1.286a3 3 0 0 1-3.857 4.596l-1.532-1.286a3 3 0 0 1-.37-4.226Z"/>
          <rect fill="#FFF" transform="rotate(-50 106.233 50.982)" x="103.733" y="47.482" width="5" height="7" rx="2.5"/>
          <rect fill="#FFF" transform="rotate(-50 111.233 58.982)" x="108.733" y="55.482" width="5" height="7" rx="2.5"/>
          <path d="M99.08 54.735a2.886 2.886 0 0 1 4.008-.35l1.478 1.205a2.726 2.726 0 0 1 .34 3.895 2.886 2.886 0 0 1-4.006.35L99.42 58.63a2.726 2.726 0 0 1-.34-3.895ZM104.08 61.735a2.886 2.886 0 0 1 4.008-.35l1.478 1.205a2.726 2.726 0 0 1 .34 3.895 2.886 2.886 0 0 1-4.006.35l-1.479-1.205a2.726 2.726 0 0 1-.34-3.895ZM94.327 60.277a2.886 2.886 0 0 1 4.007-.35l1.479 1.204a2.726 2.726 0 0 1 .34 3.895 2.886 2.886 0 0 1-4.007.35l-1.478-1.205a2.726 2.726 0 0 1-.34-3.894ZM98.327 67.277a2.886 2.886 0 0 1 4.007-.35l1.479 1.204a2.726 2.726 0 0 1 .34 3.895 2.886 2.886 0 0 1-4.007.35l-1.478-1.205a2.726 2.726 0 0 1-.34-3.894ZM89.574 66.742a2.886 2.886 0 0 1 4.007-.35l1.478 1.204a2.726 2.726 0 0 1 .34 3.895 2.886 2.886 0 0 1-4.006.35l-1.479-1.205a2.726 2.726 0 0 1-.34-3.894Z" fill="#FFF"/>
          <path d="M93.574 72.742a2.886 2.886 0 0 1 4.007-.35l1.478 1.204a2.726 2.726 0 0 1 .34 3.895 2.886 2.886 0 0 1-4.006.35l-1.479-1.205a2.726 2.726 0 0 1-.34-3.894Z" fill="#FFF"/>
          <rect fill="#FFF" transform="rotate(-50 83.733 81.482)" x="80.733" y="77.482" width="6" height="8" rx="3"/>
          <rect fill="#FFF" transform="rotate(-50 88.733 87.482)" x="85.733" y="83.482" width="6" height="8" rx="3"/>
          <path d="m76.519 86.59.312-.346a3 3 0 0 1 4.071-.355l1.912 1.49a3 3 0 0 1 .382 4.377l-.312.346a3 3 0 0 1-4.072.355l-1.911-1.49a3 3 0 0 1-.382-4.377Z" fill="#FFF"/>
          <path d="m82.324 92.855.204-.277a2.638 2.638 0 0 1 3.942-.342l1.365 1.3a3 3 0 0 1 .343 3.955l-.204.277a2.638 2.638 0 0 1-3.942.342l-1.365-1.3a3 3 0 0 1-.343-3.955Z" fill="#FFF"/>
          <rect fill="#FFF" transform="rotate(-50 114.85 38.66)" x="112.35" y="35.661" width="5" height="6" rx="2.5"/>
          <rect fill="#FFF" transform="rotate(-50 121.85 38.66)" x="119.35" y="35.661" width="5" height="6" rx="2.5"/>
          <rect fill="#FFF" transform="rotate(-50 118.85 45.66)" x="116.35" y="42.661" width="5" height="6" rx="2.5"/>
          <rect fill="#FFF" transform="rotate(-50 111.233 44.982)" x="108.733" y="41.482" width="5" height="7" rx="2.5"/>
          <rect fill="#FFF" transform="rotate(-50 115.233 52.982)" x="112.733" y="49.482" width="5" height="7" rx="2.5"/>
          <rect fill="#FFF" transform="rotate(-50 55.233 66.982)" x="52.733" y="63.482" width="5" height="7" rx="2.5"/>
          <rect fill="#FFF" transform="rotate(-71 49.233 61.982)" x="46.733" y="58.482" width="5" height="7" rx="2.5"/>
          <rect fill="#FFF" transform="rotate(-50 59.233 59.982)" x="56.733" y="56.482" width="5" height="7" rx="2.5"/>
          <rect fill="#FFF" transform="rotate(-66 52.233 56.982)" x="49.733" y="53.482" width="5" height="7" rx="2.5"/>
          <rect fill="#FFF" transform="rotate(-66 57.233 51.982)" x="54.733" y="48.482" width="5" height="7" rx="2.5"/>
          <rect fill="#FFF" transform="rotate(-66 62.233 46.982)" x="59.733" y="43.482" width="5" height="7" rx="2.5"/>
          <rect fill="#FFF" transform="rotate(-66 67.233 41.982)" x="64.733" y="38.482" width="5" height="7" rx="2.5"/>
          <rect fill="#FFF" transform="rotate(-50 64.233 53.982)" x="61.733" y="50.482" width="5" height="7" rx="2.5"/>
          <path d="M71.902 93.165a2.873 2.873 0 0 1 3.905-.34l2.19 1.712a2.501 2.501 0 0 1 .318 3.644 2.873 2.873 0 0 1-3.906.34L72.22 96.81a2.501 2.501 0 0 1-.318-3.644ZM78.286 100.09a3 3 0 0 1 4.226-.37l2.298 1.928a3 3 0 1 1-3.857 4.597l-2.298-1.929a3 3 0 0 1-.37-4.226ZM53.723 116.944a2.6 2.6 0 0 1 3.51-.306l1.979 1.528a2.209 2.209 0 0 1 .282 3.236 2.6 2.6 0 0 1-3.51.306l-1.98-1.528a2.209 2.209 0 0 1-.281-3.236Z" fill="#FFF"/>
          <path d="M59.286 121.09a3 3 0 0 1 4.226-.37l2.298 1.928a3 3 0 1 1-3.857 4.597l-2.298-1.929a3 3 0 0 1-.37-4.226Z" fill="#FFF"/>
          <path d="M56.286 125.09a3 3 0 0 1 4.226-.37l2.298 1.928a3 3 0 1 1-3.857 4.597l-2.298-1.929a3 3 0 0 1-.37-4.226ZM56.864 109.95a3 3 0 0 1 4.226-.369l1.533 1.286a3 3 0 0 1-3.857 4.596l-1.532-1.286a3 3 0 0 1-.37-4.226Z" fill="#FFF"/>
          <path d="M62.864 114.95a3 3 0 0 1 4.226-.369l1.533 1.286a3 3 0 0 1-3.857 4.596l-1.532-1.286a3 3 0 0 1-.37-4.226ZM48.864 121.95a3 3 0 0 1 4.226-.369l1.533 1.286a3 3 0 0 1-3.857 4.596l-1.532-1.286a3 3 0 0 1-.37-4.226Z" fill="#FFF"/>
          <path d="M66.247 98.272a2.5 2.5 0 0 1 3.522-.308l2.298 1.929a2.5 2.5 0 1 1-3.214 3.83l-2.298-1.929a2.5 2.5 0 0 1-.308-3.522ZM71.247 105.272a2.5 2.5 0 0 1 3.522-.308l2.298 1.929a2.5 2.5 0 1 1-3.214 3.83l-2.298-1.929a2.5 2.5 0 0 1-.308-3.522ZM61.247 103.272a2.5 2.5 0 0 1 3.522-.308l2.298 1.929a2.5 2.5 0 1 1-3.214 3.83l-2.298-1.929a2.5 2.5 0 0 1-.308-3.522Z"/>
          <path d="M66.247 109.272a2.5 2.5 0 0 1 3.522-.308l2.298 1.929a2.5 2.5 0 1 1-3.214 3.83l-2.298-1.929a2.5 2.5 0 0 1-.308-3.522ZM44.016 128.065a2.107 2.107 0 0 1 3.028-.265l1.945 1.7a2.282 2.282 0 0 1 .275 3.15 2.107 2.107 0 0 1-3.028.264l-1.944-1.699a2.282 2.282 0 0 1-.276-3.15Z"/>
          <rect transform="rotate(-50 87.928 76.022)" x="84.928" y="72.522" width="6" height="7" rx="3"/>
          <rect transform="rotate(-50 92.928 82.022)" x="89.928" y="78.522" width="6" height="7" rx="3"/>
          <path d="m29.897 131.108.074-.103a2.386 2.386 0 0 1 3.586-.31l1.92 1.854a3 3 0 0 1 .34 3.926l-.074.103a2.386 2.386 0 0 1-3.585.31l-1.921-1.854a3 3 0 0 1-.34-3.926ZM36.564 137.862l.049-.078a1.776 1.776 0 0 1 2.826-.238l1.41 1.575a3 3 0 0 1 .302 3.6l-.05.078a1.776 1.776 0 0 1-2.825.238l-1.41-1.575a3 3 0 0 1-.302-3.6ZM38.671 132.68l.3-.453a2.316 2.316 0 0 1 3.617-.308l2.139 2.27a3 3 0 0 1 .316 3.715l-.3.453a2.316 2.316 0 0 1-3.617.308l-2.138-2.271a3 3 0 0 1-.317-3.715Z"/>
          <rect transform="rotate(-50 118.311 33.843)" x="115.811" y="30.843" width="5" height="6" rx="2.5"/>
        </g>
      </g>
    </g>
    <path d="M71.413 215.35c18.778 0 37.78-9.865 72.987-61.132 11.673-16.998 22.78-37.32 32.002-51 1.685-2.5-.265-5.123 1.577-7.09 1.75-1.866 3.278-2.155 4.131-3.572.905-1.503 1.103-4.125 1.861-5.802.816-1.804 3.258-4.665 3.978-6.386 1.026-2.452 1.181-5.826 1.909-8.062.847-2.605 2.167-4.478 2.638-6.75.344-1.666-.103-4.237 0-5.765.219-3.28-1.874-6.436-2.638-8.935-1.123-3.67-1.537-6.324-5.245-9.164-2.88-2.204-5.41-2.505-9.65-1.33-1.116.31-3.033.847-4.297 1.33-1.24.475-3.276.277-4.602.973-.701.369-1.726 2.578-2.445 2.977-1.408.781-2.936-.081-4.396.895-1.444.965-2.335 3.222-3.841 4.319-1.34.976-3.568.267-4.93 1.377-1.22.995-1.08 3.659-2.333 4.73-1.59 1.36-3.665 1.325-5.29 2.828-1.262 1.166-1.15 2.889-2.424 4.12-1.071 1.036-3.993 1.3-5.074 2.374-1.094 1.088-1.097 3.211-2.191 4.337-.853.877-3.301.79-4.154 1.684-1.02 1.07-2.394 3.783-3.407 4.877-.583.63-5.463 1.842-6.043 2.476C97.466 103.814 82.338 130.59 77 140.5c-11.033 20.488-24.365 74.85-5.587 74.85Z" stroke="#89C3EA" stroke-width="5"/>
    <path d="M163.88 118.19c2.899-4.356 5.314-9.351 10.422-12.814 5.101-3.458 12.894-5.385 17.548-8.92 1.79-1.358 2.85-3.974 3.183-7.848 1.561 2.453 1.054 7.363-1.522 14.728-3.864 11.048-10.22 9.306-14.578 14.854-3.903 4.971-4.868 12.18-6.733 15.18-3.452 5.556-9.106 8.281-13.153 12.986-1.941 2.256-4.371 6.22-7.29 11.895l-28.697 11.362c8.39-10.762 14.435-18.514 18.137-23.257 8.912-11.417 17.514-20.403 22.682-28.166ZM109.233 55.732c2.694 2.785 5.42 6.06 8.181 9.824-5.523-.974-9.553-1.508-12.09-1.603-4.124-.154-7.492 1.603-11.198.658-4.84-1.234-8.758-3.836-7.606-13.265.24-1.962 1.776 2.52 6.704 3.634 5.9 1.333 12.44-2.939 16.01.752Z" stroke="#5563B6" stroke-width="5" fill="#FFF" stroke-linejoin="round"/>
    <path d="M103.704 64.04c.505-.758 4.495-1.976 8.227-1.263 3.03.579 5.826 2.769 6.98 4.802 1.678 2.958 1.393 9.365-.856 19.22-14.595 16.96-21.029 21.89-19.3 14.792.608-2.494 6.074-11.379 7.226-20.807.526-4.31.92-9.989 0-13.205-.67-2.337-2.827-2.711-2.277-3.538Z" stroke="#5563B6" stroke-width="5" fill="#FFF" stroke-linejoin="round"/>
    <path d="M130.067 79.66c-7.58 4.964-13.246 10.253-17 15.864-3.065 4.58-2.956 11.639-6.648 17.619-3.498 5.667-8.465 10.496-13.48 17.788-7.663 11.138-18.982 27.09-25.667 42.702-6.684 15.61-3.297 18.115-4.987 25.282-.444 1.883-1.01 1.45-1.697-1.297v-44.591c3.77-6.015 6.539-10.385 8.306-13.11 3.09-4.767 4.526-2.343 7.297-6.343 3.345-4.831 6.206-11.657 9.446-17.017 3.453-5.714 7.254-9.892 9.792-12.582 4.45-4.718 8.773-9.55 14.854-13.826 3.763-2.646 10.358-6.142 19.784-10.49Z" stroke="#5563B6" stroke-width="5" fill="#FFF" stroke-linejoin="round"/>
    <path d="M59.724 175.47c2.9 8.761 1.944 11.925 2.561 15.54.297 1.741 1.798 3.304 2.682 6.348 4.318 14.887 2.57 20.445-5.243 16.674l-8.494-11.514c-1.63-8.358-1.15-17.987 1.441-28.885.304-1.276 1.638-7.08 2.619-7.465 1.536-.602 3.007 4.994 4.434 9.302Z" stroke="#5563B6" stroke-width="5" fill="#FFF" stroke-linejoin="round"/>
    <path d="M52.671 173.633c-.376 9.069.12 15.315 1.488 18.74 3.483 8.719 10.639 10.383 12.841 16.676 3.5 10 4.308 17.451 2.425 22.354l-17.72-10.81c-4.42-6.874-6.555-13.875-6.409-21.004.054-2.607 1.543-5.474 2.152-8.982.627-3.618.394-7.89 1.746-11.435.614-1.609 1.773-3.455 3.477-5.54Z" stroke="#5563B6" stroke-width="5" fill="#FFF" stroke-linejoin="round"/>
    <path d="M61.796 180.382c-1.212 2.79-2.643-16.88-13.88-8.853-1.558 1.113-4.756 4.213-6.337 8.574-1.36 3.75-.936 8.454-4.047 13.381-1.22 1.931-4.54 4.332-6.889 7.763-1.867 2.728-2.503 6.3-5.4 9.427-1.138 1.23-3.26 2.73-6.369 4.5 2.723-3.933 4.405-6.87 5.045-8.81 2.011-6.098 1.703-11.628 2.736-14.641 1.845-5.38 6.223-7.722 7.672-11.62 2.629-7.067 1.877-13.996 3.205-16.19 4.454-7.359 17.531-23.526 25.663-16.665 2.765 2.333-.573 7.994-.91 12.488-.654 8.725.663 17.991-.49 20.646ZM195.033 169.9c-3.716-1.327-6.391-3.133-8.025-5.42-3.407-4.765-3.001-14.98-7.595-14.98-4.594 0-15.521 1.91-22.5 7.114-2.504 1.868-3.694 5.708-6.15 7.867-3.528 3.099-7.872 5.577-10.853 9.152-6.798 8.152-10.753 19.575-14.622 21.567-7.088 3.65-13.214 12.175-23.639 17.765-7.026 3.767-20.147 9.108-39.364 16.022 3.562-7.823 6.45-13.164 8.666-16.022 1.357-1.751 2.077-7.58 8.858-12.599 5.819-4.307 17.292-7.458 23.892-13.293 7.037-6.224 9.586-15.339 17.934-20.195 19.143-11.136 36.469-12.317 40.294-12.317 10.624 0 13.224 12.968 19.814 15.34 4.611 1.659 9.041 1.659 13.29 0Z" stroke="#5563B6" stroke-width="5" fill="#FFF" stroke-linejoin="round"/>
    <path d="M125.288 195.2c-2.714 4.073-4.729 7.175-6.045 9.308-3.102 5.03-5.822 10.423-11.34 14.761-3.536 2.78-9.242 5.202-13.577 7.658-2.685 1.521-3.805 3.274-6.692 4.476-2.9 1.208-7.431 2.573-13.595 4.096l-13.45-5.12c3.036-2.423 5.27-4.32 6.704-5.69 4.278-4.093 6.79-7.924 13.4-11.518 5.34-2.904 13.575-1.723 22.104-4.615 5.107-1.731 7.738-7.828 14.74-10.25a87.444 87.444 0 0 0 7.751-3.106Z" stroke="#5563B6" stroke-width="5" fill="#FFF" stroke-linejoin="round"/>
    <path d="M50.417 218.106c6.062 4.198 10.912 7.13 14.55 8.798 3.637 1.667 9.477 3.635 17.519 5.902-5.464 4.08-8.757 6.87-9.88 8.366-1.124 1.497-2.33 1.86-3.617 1.086-3.28-2.934-6.21-5.03-8.793-6.288-2.583-1.258-6.832-2.875-12.748-4.852.323-1.984.63-3.388.922-4.214.66-1.866 1.773-3.341 2.047-4.54.455-1.997.455-3.416 0-4.258Z" stroke="#5563B6" stroke-width="5" fill="#FFF" stroke-linejoin="round"/>
    <g stroke-linecap="round">
      <path stroke="#ACD3EF" stroke-width="3" d="M229.75 24.316v11.368M224.324 30.25h10.352"/>
      <path stroke="#5563B6" stroke-width="2" d="M340 29.868v7M336.176 33.118h7M284 76.868v7M280.176 80.118h7"/>
      <path stroke="#ACD3EF" stroke-width="3" d="M458.75 37.316v11.368M453.324 43.25h10.352M298.75 190.316v11.368M293.324 196.25h10.352"/>
      <path stroke="#5563B6" stroke-width="2" d="M369.5 201.5v7M365.676 204.75h7M209 227.868v7M205.176 231.118h7M427 243.868v7M423.176 247.118h7"/>
      <path stroke="#ACD3EF" stroke-width="3" d="M405.75 153.316v11.368M400.324 159.25h10.352"/>
    </g>
    <path d="M237.311 152.866c.873-2.022 1.257-7.946 1.41-14.049l.024-1.047.02-1.047c.03-1.74.043-3.462.046-5.076v-1.421a395.566 395.566 0 0 0-.081-7.468l-.013-.568-.01-.29-.017-.292c-.113-1.703-.607-3.394-3.335-3.418-2.347-.02-3.295 2.26-3.675 4.9-.188 1.303-.28 6.019-.364 10.784l-.016.922c-.07 3.99-.137 7.864-.253 9.637-1.7-1.891-3.72-4.624-5.759-7.488l-.556-.784-.278-.393-.555-.787c-3.508-4.986-6.862-9.88-8.498-11.02-3.02-2.103-4.918-2.171-7.017-1.27-2.205.946-3.474 3.526-3.553 5.315-.102 2.302-.378 17.257-.162 23.243.064 1.766.432 4.692 3.667 4.715 2.698.019 3.128-3.367 3.266-5.25.42-5.777.348-15.266.318-18.714 1.24 1.58 3.94 5.286 6.781 9.152l.611.83c3.467 4.71 7.004 9.449 8.25 10.693.24.24.463.493.682.746l.262.304c.96 1.112 1.938 2.168 4.045 2.27 1.823.089 3.829-.97 4.76-3.129Zm36.731-13.244c.958-10.575-7.334-16.286-13.6-17.06-8.499-1.048-17.57 4.44-17.869 14.885-.27 9.494 6.23 16.52 15.49 16.765 8.051.212 15.116-5.05 15.98-14.59Zm-17.692 7.395c-5.26-.974-7.81-5.63-6.72-10.326 1.266-5.454 5.164-7.044 9.398-6.777 4.234.267 8.569 3.71 8.232 9.018-.39 6.137-6.1 8.976-10.91 8.085Zm40.407 6.736c1.338-1.72 4.432-7.942 7.289-14.188l.437-.96c2.683-5.918 5.06-11.649 5.432-13.368.408-1.888.174-4.26-2.366-4.894-2.01-.502-3.938 2.079-5.032 4.274-2.763 5.544-10.32 22.528-10.319 22.528-2.462-5.198-5.266-11.849-7.663-17.986-1.12-2.869-3.163-7.049-6.055-5.56-1.665.856-2.387 2.597-1.72 5.158 1.404 5.392 6.68 18.223 10.423 24.14 1.207 1.909 2.736 2.809 4.526 3.06 1.175.165 3.387-.068 5.048-2.204Zm23.727 2.246c4.206-.054 10.165-.706 14.83-1.78 1.469-.338 3.216-1.738 3.06-4.085-.19-2.833-2.402-3.659-3.653-3.627-3.655.093-13.684 1.439-13.684 1.439l-.168-7.252s3.09-.186 6.132-.503l.552-.059c1.467-.162 2.877-.353 3.874-.57 3.908-.847 3.348-7.454-2.027-7.41-2.555.022-8.387.353-8.387.353l-.134-5.025h.036c.628-.01 9.468-.144 12.327-.343 2.408-.167 5.132-1.353 4.672-4.646-.378-2.7-3.521-3.282-6.034-3.322-2.817-.044-9.882-.306-14.316.347-1.477.218-3.552 2.237-3.61 4.595l-.105 21.779c.271 6.82.037 10.193 6.635 10.109Zm56.42.001c1.827-.018 3.11-1.462 3.203-3.603.092-2.146.13-4.909.133-7.866v-.94c0-.946-.005-1.907-.01-2.869l-.012-1.443c-.06-6.727-.22-13.219-.243-14.932-.032-2.514.16-6.145-2.773-6.22-2.893-.073-4.727 2.623-6.318 4.441-.738.844-2.302 2.568-3.89 4.306l-.414.453c-2.136 2.338-4.187 4.565-4.187 4.565l-.026-.026-.134-.132-.336-.335-.229-.227c-.66-.656-1.704-1.697-2.86-2.853l-.66-.66-.447-.45-.674-.677c-1.721-1.73-3.387-3.421-4.182-4.272-1.917-2.051-3.124-3.827-5.89-3.994-2.34-.14-3.379 1.859-3.496 4.014-.047.852.005 6.04.074 11.447l.011.903c.066 5.119.141 10.23.156 11.867.031 3.59.516 6.18 3.125 6.158 2.741-.023 3.877-2.171 4.029-4.515.045-.707.065-1.874.068-3.269v-.926c-.015-5.083-.205-12.274-.205-12.274s7.305 8.278 11.728 8.342c4.002.058 8.628-7.075 10.345-8.65.225 2.007.05 20.187.504 21.737.476 1.626 1.554 2.92 3.61 2.9Zm17.635-.147c10.021-.763 17.64-4.535 17.472-13.102-.056-2.882-2.091-8.001-8.568-8.15 0 0 4.994-2.611 3.929-9.065-1.017-6.159-7.218-7.467-11.486-7.29-3.38.139-8.624-.191-10.014 4.142-.92 2.866-.556 24.216-.021 29.035.534 4.815 3.753 4.805 8.688 4.43Zm-1.919-23.79-.142-7.012s7.513-2.319 8.238 1.499c.975 5.14-6.215 4.786-8.096 5.513Zm.109 16.934c-.264-.589-.318-3.231-.322-5.098v-.449c.001-.859.012-1.465.012-1.465s11.022-4.623 12.023 1.025c.592 3.343-8.431 5.933-11.713 5.987Zm29.67 7.002c4.207-.054 10.166-.706 14.831-1.78 1.469-.338 3.216-1.738 3.06-4.085-.19-2.833-2.402-3.659-3.653-3.627-3.655.093-13.684 1.439-13.684 1.439l-.168-7.252s3.09-.186 6.132-.503l.552-.059c1.467-.162 2.877-.353 3.874-.57 3.908-.847 3.348-7.454-2.027-7.41-2.555.022-8.387.353-8.387.353l-.134-5.025h.036c.628-.01 9.468-.144 12.327-.343 2.408-.167 5.132-1.353 4.672-4.646-.378-2.7-3.521-3.282-6.034-3.322-2.817-.044-9.882-.306-14.316.347-1.477.218-3.552 2.237-3.61 4.595l-.105 21.779c.271 6.82.037 10.193 6.635 10.109Zm26.668.001c1.699 0 3.209-1.725 3.402-3.685.377-3.813.076-6.993.175-9.941 3.694 3.164 6.21 5.94 10.78 8.938 2.408 1.58 5.715 3.354 7.738 2.019 3.063-2.023 1.084-4.834-.372-5.982-5.167-4.076-9.793-7.882-9.793-7.882s8.013-3.313 8.114-11.221c.062-4.82-2.419-9.862-13.211-9.819-3.298.013-8.3.254-9.498 1.863-.964 1.293-1.04 8.13-1.037 12.578v.633l.004 1.397V135.78c-.023 4.203-.023 11.24.104 16.086.044 1.694 1.248 4.134 3.594 4.134Zm3.512-21.993-.002-7.65s7.428-2.283 8.502 2.042c1.332 5.365-8.5 5.607-8.5 5.608Z" fill="#5563B6" fill-rule="nonzero"/>
    <path d="M94.5 204.5c4.849-4.022 8.832-6.933 11.949-8.731 2.004-1.156 8.959-1.94 14.593-6.002 2.087-1.506 4.734-4.821 7.939-9.947M57.5 154.5c-2.668.498-4.834 1.388-6.5 2.67-1.666 1.28-3.832 3.724-6.5 7.33" stroke="#E1F2FF" stroke-width="3" stroke-linecap="round"/>
    <path d="M84.89 227.77c.073.129.116.223.132.254 0 .005 0-.004 0 0-2.096-2.322-4.255-1.996-6.177-3.006a.796.796 0 0 0-.087-.056 1.609 1.609 0 0 1-.125-.077c-.482-.328-.819-.938-1.034-1.709l-.003-.012c-.02-.064-.035-.13-.051-.194l-.001-.003a8.608 8.608 0 0 1-.08-.373l-.007-.04a3.34 3.34 0 0 0-.018-.105l-.019-.109-.015-.108-.016-.113-.01-.08c-.125-1.017-.1-2.171.027-3.282 0 0-.002-.012 0 0 .786.876 1.646 1.678 2.418 2.235.93.671 2.181 1.284 3.447 1.706.807-.965 1.49-2.084 1.866-3.097.314-.848.554-1.928.682-3.052.066.072.13.146.194.219l.057.067c.045.052.09.104.135.159l.062.073a18.714 18.714 0 0 1 .186.228c.055.069.11.138.163.207a.2.2 0 0 1 .016.02c.063.08.124.16.185.241l.014.02c.055.072.107.144.16.217l.032.045.142.2c.009.014.017.027.027.04a13.964 13.964 0 0 1 .16.235c.163.25.316.498.455.744l.005.009c.23.41.42.813.557 1.193.02.056.038.111.056.166l.002.006c.016.05.032.1.045.148l.001.006c.016.052.03.104.042.156l.004.02.001.002a3.624 3.624 0 0 1 .047.227c.001.004 0 .008.003.012a2.745 2.745 0 0 1 .039.36v.148l-.003.063c-.001.027-.004.054-.006.08a1.489 1.489 0 0 1-.019.138l-.011.058-.019.077-.015.052a1.939 1.939 0 0 1-.029.082l-.015.04c-.016.041-.035.08-.055.117a.756.756 0 0 0-.032.071c-.998 1.786-3.015 2.576-3.383 5.529" fill="#9452BA"/>
  </g>
</svg>
