<svg width="487" height="274" xmlns="http://www.w3.org/2000/svg">
  <g fill="none" fill-rule="evenodd">
    <g stroke-linecap="round">
      <path stroke="#ACD3EF" stroke-width="3" d="M36.75 23.316v11.368M31.324 29.25h10.352"/>
      <path stroke="#5563B6" stroke-width="2" d="M147 28.868v7M143.176 32.118h7M91 75.868v7M87.176 79.118h7"/>
      <path stroke="#ACD3EF" stroke-width="3" d="M265.75 36.316v11.368M260.324 42.25h10.352M105.75 189.316v11.368M100.324 195.25h10.352"/>
      <path stroke="#5563B6" stroke-width="2" d="M176.5 200.5v7M172.676 203.75h7M16 226.868v7M12.176 230.118h7M234 242.868v7M230.176 246.118h7"/>
      <path stroke="#ACD3EF" stroke-width="3" d="M212.75 152.316v11.368M207.324 158.25h10.352"/>
    </g>
    <g stroke="#E1F2FF">
      <path d="M308 182c6.73 23.042 12.063 43.708 16 62M373 169c-14.198 12.801-28.864 37.801-44 75" stroke-linecap="round"/>
      <path d="M349.17 183.78c.427-1.51 9.238-11.182 17.346-17.26 8.107-6.08 18.484-9.87 18.484-9.494 0 .336-8.755 2.137-20.004 11.216-4.882 3.94-15.005 15.883-15.4 16.402-.393.52-.851.647-.425-.864zM278.619 166.685c.77-.224 7.992 1.488 13.495 3.892 5.504 2.404 10.934 6.653 10.782 6.764-.136.099-4.152-3.897-12.05-7.043-3.426-1.365-12.059-3.088-12.417-3.14-.358-.05-.582-.25.19-.473zM292.052 206.868c.13-1.403 2.823-10.384 5.3-16.029 2.477-5.644 5.648-9.165 5.648-8.815 0 .312-2.675 1.985-6.112 10.415-1.492 3.659-4.585 14.748-4.706 15.23-.12.483-.26.602-.13-.801zM301.8 194.583c-.168-.362.09-3.972.815-6.786.727-2.814 2.35-5.698 2.415-5.63.058.06-1.554 2.242-2.45 6.262-.388 1.745-.54 6.042-.536 6.219.004.177-.075.297-.243-.065zM277.603 191.382c1.018-.973 8.942-5.984 14.515-8.62 5.573-2.634 10.275-3.21 10.046-2.947-.205.235-3.321-.257-11.446 3.85-3.526 1.783-13.136 8.123-13.543 8.408-.408.286-.591.283.428-.69zM340.754 154.534c1.155-1.004 13.639-3.778 23.635-3.979 9.996-.2 20.68 2.87 20.482 3.183-.177.28-8.454-3.475-22.664-2.658-6.167.354-20.949 4.234-21.553 4.43-.605.197-1.055.028.1-.976zM356.358 118.259c1.474.241 11.765 8.257 18.594 16.027 6.828 7.77 11.835 18.274 11.482 18.327-.314.047-3.23-9.01-13.308-19.7-4.374-4.64-16.975-13.734-17.517-14.08-.542-.347-.725-.816.75-.574zM297.639 158.19c.466.22 3.146 3.993 4.7 7.361 1.554 3.368 2.253 7.532 2.132 7.519-.109-.013-.247-3.475-2.612-8.171-1.026-2.039-4.373-6.403-4.521-6.575-.148-.172-.166-.355.3-.134z" fill="#E1F2FF"/>
      <path d="M399.366 113.114c-1.06.764-6.282 10.785-8.901 19.25-2.62 8.465-2.884 18.231-2.593 18.13.26-.09-.599-7.955 3.535-19.873 1.795-5.172 8.437-16.907 8.737-17.379.301-.471.282-.892-.778-.128zM413.251 136.09c-.944-.06-8.306 3.408-13.49 7.215-5.183 3.807-9.568 9.55-9.356 9.633.19.073 3.102-5.077 10.657-10.219 3.28-2.23 12.206-6.034 12.584-6.17.378-.136.55-.399-.395-.459zM418.98 178.3c-.432-1.337-7.433-9.424-13.622-14.307-6.188-4.882-13.752-7.513-13.718-7.172.03.305 6.286 1.257 14.93 8.617 3.752 3.194 11.87 13.239 12.19 13.68.322.44.652.52.22-.818zM337.98 199.3c-.432-1.337-7.433-9.424-13.622-14.307-6.188-4.882-13.752-7.513-13.718-7.172.03.305 6.286 1.257 14.93 8.617 3.752 3.194 11.87 13.239 12.19 13.68.322.44.652.52.22-.818z"/>
      <path d="M411.486 201.67c.09-2.028-4.074-16.179-8.694-25.564-4.62-9.386-11.65-16.259-11.754-15.774-.094.433 6.226 4.43 12.457 18.284 2.703 6.013 7.256 23.34 7.418 24.086.162.745.483.997.573-1.032z" fill="#E1F2FF"/>
      <path d="M369.26 194.49c-.088-1.747 3.304-13.897 7.106-21.943 3.801-8.047 9.628-13.914 9.719-13.497.08.374-5.172 3.772-10.29 15.653-2.222 5.156-5.92 20.038-6.05 20.679-.132.64-.398.854-.486-.892zM389.463 191.542c0-1.502.592-10.277.285-17.188-.307-6.91-1.522-13.575-1.692-13.263-.15.279 1.27 4.08 1.407 14.203.059 4.393-.463 16.344-.549 16.866-.086.522.549.884.549-.618z"/>
      <path d="M369.26 194.49c-.088-1.747 3.304-13.897 7.106-21.943 3.801-8.047 9.628-13.914 9.719-13.497.08.374-5.172 3.772-10.29 15.653-2.222 5.156-5.92 20.038-6.05 20.679-.132.64-.398.854-.486-.892zM389.463 191.542c0-1.502.592-10.277.285-17.188-.307-6.91-1.522-13.575-1.692-13.263-.15.279 1.27 4.08 1.407 14.203.059 4.393-.463 16.344-.549 16.866-.086.522.549.884.549-.618zM321.086 193.682c-.542-.692-3.385-4.923-6.047-8.01-2.662-3.085-5.731-5.767-5.711-5.57.018.177 2.167 1.474 5.894 6.095 1.618 2.005 5.646 7.677 5.787 7.945.141.267.619.232.077-.46z"/>
      <path d="M431.162 148.21c-1.434-.732-10.22-2.836-19.14-1.494-8.92 1.343-20.497 7.247-20.192 7.5.272.227 6.044-4.432 18.943-5.86 5.599-.62 20.264.637 20.88.722.615.086.944-.135-.49-.868zM327.143 144.875c-1.236.405-7.458 4.433-11.806 10.782-4.348 6.349-7.635 17.291-7.317 17.269.284-.02.952-6.59 7.53-15.438 2.855-3.84 11.965-12.029 12.366-12.35.4-.323.463-.669-.773-.263z" fill="#E1F2FF"/>
      <path d="M329.242 168.973c-.637-.248-6.63.553-11.205 2.065s-9.105 4.543-8.98 4.646c.112.092 3.469-2.848 10.032-4.769 2.848-.833 10.01-1.525 10.306-1.537.297-.012.484-.157-.153-.405z"/>
    </g>
    <g transform="translate(381.516 28)">
      <circle fill="#ACD3EF" cx="27.984" cy="73.5" r="1.5"/>
      <circle fill="#ACD3EF" cx="3.484" cy="6" r="1"/>
      <circle fill="#ACD3EF" cx="12.484" cy="8" r="1"/>
      <circle fill="#ACD3EF" cx="8.984" cy="1.5" r="1.5"/>
      <circle fill="#ACD3EF" cx="7.984" cy="10.5" r="1.5"/>
      <circle fill="#ACD3EF" cx="14.484" cy="1" r="1"/>
      <path d="M1.426 16.265C18.838 13.002 32.254 11 44.812 11c5.999 14.898 11.51 53.456 8.657 81.383-1.832 17.947-10.407 24.462-10.407 40.746 0 8.142 3.703 50.392 7.901 56.322 9.731 0 22.521-1.97 22.521 4.061 0 14.03-54.09 18.238-56.725 11.007 2.321-5.722 5.02-7.23 20.92-11.007 6.488-1.541-4.118-53.476-5.425-60.383-2.04-10.775-12.187-17.463-18.13-33.118-10-26.344-16.082-65.295-12.698-83.746z" stroke="#5563B6" stroke-width="5" fill="#FFF" stroke-linejoin="round"/>
      <path d="M6.484 24c5.798 6.923 11.218 11.615 16.262 14.076 5.043 2.461 13.19 3.995 24.44 4.602 2.613 30.383 2.998 48.63 1.156 54.74C42.4 117.126 38.069 125.062 37.607 125c-.39-.054-14.02-13.801-19.703-32.64-2.192-7.264-7.231-21.564-9.425-38.704C7.149 43.269 6.484 33.384 6.484 24z" stroke="#89C3EA" stroke-width="3" stroke-linejoin="round"/>
      <circle fill="#ACD3EF" cx="35.484" cy="111" r="1"/>
      <circle fill="#ACD3EF" cx="34.484" cy="105" r="1"/>
      <circle fill="#ACD3EF" cx="28.484" cy="101" r="1"/>
      <circle fill="#ACD3EF" cx="32.484" cy="94" r="1"/>
      <circle fill="#ACD3EF" cx="20.484" cy="75" r="1"/>
      <circle fill="#ACD3EF" cx="24.484" cy="62" r="1"/>
      <circle fill="#ACD3EF" cx="16.484" cy="60" r="1"/>
      <circle fill="#ACD3EF" cx="29.484" cy="54" r="1"/>
      <circle fill="#ACD3EF" cx="12.484" cy="37" r="1"/>
      <circle fill="#ACD3EF" cx="16.484" cy="25" r="1"/>
      <circle fill="#ACD3EF" cx="14.484" cy="51" r="1"/>
      <circle fill="#ACD3EF" cx="10.984" cy="20.5" r="1.5"/>
      <circle fill="#ACD3EF" cx="23.984" cy="84.5" r="1.5"/>
      <path d="M40.155 187.327c-.408 1.478-.266 3.485-.837 5.946-.237 1.023-.834 2.736-1.792 5.138M48.86 185.529c.586 1.416.69 3.426 1.556 5.8.36.986 1.161 2.613 2.405 4.88" stroke="#5563B6" stroke-width="4" stroke-linecap="round"/>
    </g>
    <path d="M48.79 154.707c5.114-6.257 2.823-20.566 1.11-27.775 3.046-.431 4.932-.74 7.475-1.844 2.516-1.092 3.32-2.777 2.598-4.602-.958-2.423-3.248-2.563-6.843-2.248-3.998.35-12.785 1.187-16.9 1.924l-.587.1-.59.096c-2.622.427-5.15.911-4.96 3.819.197 3.007 2.845 3.567 5.79 3.82.655.055 1.608.038 2.587-.01l.49-.027a84.958 84.958 0 003.532-.29s1.346 6.459 1.662 9.9c.305 3.324 1.382 8.902-1.158 11.352-2.044 1.97-5.956-1.044-9.004-2.803-2.343-1.352-4.624-.892-5.861 1.801-.886 1.928-.169 3.643 2.233 5.497 6.566 5.07 14.137 6.54 18.427 1.29zm47.304 2.892c1.537-.683 2.91-3.548 1.821-5.693-3.985-7.856-5.612-12.127-7.685-16.28-2.522-5.055-6.59-16.224-11.157-16.224-4.953 0-6.985 5.684-8.625 10.349-2.07 5.887-4.45 11.68-6.578 17.712-.85 2.413-1.941 5.864-.124 7.42.805.688 3.227 1.154 4.682-.074 1.74-1.468 3.72-7.225 3.892-7.734l.012-.036 14.342-.157s.923 1.904 1.92 3.938l.36.734c.763 1.55 1.51 3.052 1.866 3.726 1.37 2.586 3.171 3.253 5.274 2.319zM74.86 139.382c.87-2.392 3.244-9.107 3.927-11.214.758 1.536 4.116 9.163 5.084 11.213-2.334.057-7.11 0-9.011.001zm61.925 15.31c1.974-4.573 1.579-28.063 1.498-31.78-.046-2.104-.025-4.79-3.563-4.822-2.477-.022-3.477 2.386-3.879 5.17-.185 1.29-.283 5.732-.367 10.42l-.017.94c-.08 4.552-.152 9.151-.285 11.17-1.927-2.144-4.246-5.315-6.558-8.58l-.578-.818c-3.848-5.458-7.588-10.964-9.379-12.211-3.187-2.22-5.191-2.292-7.407-1.34-2.327.998-3.666 3.72-3.75 5.61-.076 1.73-.246 10.234-.255 17.268v.89c.001 2.493.026 4.749.084 6.376.068 1.864.456 4.953 3.871 4.977 2.848.02 3.302-3.554 3.447-5.542.286-3.93.356-9.487.362-13.916v-1.335a629.776 629.776 0 00-.025-4.502c2.99 3.81 14.034 19.35 16.51 21.824.304.304.583.626.86.947l.275.32c.97 1.114 2.008 2.134 4.131 2.237 1.925.093 4.042-1.025 5.025-3.303zm35.334-13.372c.529-5.472.706-12.166-.479-17.55-.563-2.56-2.533-3.42-4.362-3.185-2.095.27-2.544 2.035-2.726 3.82-.384 3.765 3.112 25.317-6.889 25.344-6.985.018-5.984-17.686-5.966-23.48v-.367a11.387 11.387 0 00-.042-1.081c-.383-3.431-1.837-5.05-4.681-4.29-3.208.858-3.018 4.43-3.147 7.094-.325 6.661.158 17.814 3.378 23.745 1.73 3.188 5.794 6.282 10.417 6.604 8.516.59 13.75-8.9 14.497-16.654zm37.708 16.279c1.536-.683 2.91-3.548 1.821-5.693-3.985-7.856-5.612-12.127-7.685-16.28-2.522-5.055-6.59-16.224-11.157-16.224-4.953 0-6.985 5.684-8.625 10.349-2.07 5.887-4.45 11.68-6.578 17.712-.85 2.413-1.941 5.864-.124 7.42.805.688 3.227 1.154 4.682-.074 1.74-1.468 3.72-7.225 3.892-7.734l.012-.036 14.342-.157s.923 1.904 1.92 3.938l.36.734c.763 1.55 1.51 3.052 1.866 3.726 1.37 2.586 3.171 3.253 5.274 2.319zm-21.233-18.217c.87-2.392 3.244-9.107 3.927-11.214.758 1.536 4.116 9.163 5.084 11.213-2.334.057-7.11 0-9.011.001zm31.3 18.618c1.794 0 3.388-1.821 3.592-3.89.398-4.024.08-7.381.184-10.493 3.9 3.34 6.557 6.271 11.38 9.434 2.541 1.668 6.032 3.541 8.167 2.131 3.233-2.134 1.144-5.102-.392-6.314-5.454-4.302-10.337-8.32-10.337-8.32s8.458-3.497 8.564-11.844c.066-5.087-2.553-10.41-13.945-10.364-3.481.014-8.76.268-10.025 1.966-.956 1.283-1.084 7.729-1.094 12.398v1.34c0 .531.002 1.023.003 1.463v1.149a862.012 862.012 0 00-.012 4.131v1.332c.004 3.84.034 8.173.122 11.517.047 1.788 1.317 4.364 3.794 4.364zm3.708-23.215l-.002-8.076.155-.044.142-.039c1.441-.384 7.676-1.793 8.677 2.24 1.406 5.663-8.972 5.918-8.972 5.919zm43.806 17.104v-.43c-.004-.792-.016-1.59.004-2.356.024-.898.034-2.141.036-3.488v-.946c-.003-3.295-.047-6.86-.053-7.416.616-.671 9.943-10.839 11.446-13.21.883-1.392 1.588-4.065-1.366-5.464-1.623-.769-3.604-.452-5.096 1.394-2.455 3.039-6.94 8.061-8.837 9.93-1.896-1.869-6.382-6.891-8.837-9.93-1.491-1.846-3.473-2.163-5.095-1.394-2.954 1.4-2.25 4.072-1.367 5.465.673 1.06 2.914 3.685 5.24 6.32l.723.817a538.933 538.933 0 005.517 6.108l.001.04c.008.36.07 3.168.121 6.122l.011.634c.032 1.905.059 3.802.063 5.082v.585c0 .235-.003.434-.006.591-.072 3.25.131 7.575 3.573 7.655 3.6.084 3.912-2.888 3.922-6.11z" fill="#5563B6" fill-rule="nonzero"/>
    <path d="M422.35 59.74c.157.128.258.227.293.258.002.006 0-.005 0 0 0 .001 0 0 0 0-3.803-1.931-6.392-.462-9.332-.808a1.085 1.085 0 00-.139-.03 2.193 2.193 0 01-.196-.036c-.775-.182-1.5-.794-2.151-1.67l-.01-.013c-.056-.072-.108-.148-.16-.223l-.003-.003c-.095-.14-.19-.287-.283-.437l-.03-.045a4.557 4.557 0 00-.074-.127c-.026-.044-.052-.086-.076-.129l-.073-.13-.075-.136-.052-.097c-.656-1.233-1.189-2.715-1.57-4.192 0 0-.009-.014 0 0 1.43.732 2.916 1.332 4.17 1.664 1.512.4 3.405.569 5.222.488.557-1.624.878-3.38.862-4.855-.014-1.233-.236-2.725-.622-4.219.118.06.235.123.354.184l.104.058c.084.044.167.088.25.136a25.51 25.51 0 01.463.262c.104.061.207.122.309.184l.03.018c.12.07.236.144.353.217.01.005.018.011.027.017.106.066.207.132.31.199.022.013.042.028.063.04l.28.187a18.33 18.33 0 011.314.983l.011.009c.494.41.932.83 1.292 1.247.052.062.103.123.152.184l.006.006v.001c.045.055.089.111.13.165v.002l.004.006c.045.06.089.118.13.178l.015.024c0 .001.002 0 .002.002a4.942 4.942 0 01.17.266c.003.004.005.01.01.014a3.743 3.743 0 01.225.44l.03.076c.016.037.029.074.043.111.01.027.018.054.026.083.012.033.022.069.032.103.008.027.014.054.02.082.009.034.017.068.024.103l.013.08c.006.036.01.072.014.106l.007.074c.002.04.003.078.003.12v.058c0 .06-.005.118-.012.176-.004.04-.006.074-.006.106-.4 2.76-2.58 4.752-1.606 8.691" fill="#9452BA"/>
    <g transform="translate(288.504 38.581)">
      <path d="M49.41.419c21.075 5.456 29.506 9.61 44.08 11.55.303 20.725-12.393 61.637-25.005 83.13-8.657 14.752-13.82 12.098-21.544 25.1-6.645 11.186-12.404 50.917-12.404 57.806 0 6.89 20.959 9.086 17.678 14.936-5.699 10.162-51.68-5.85-51.68-14.936s17.681 1.662 23.177-4.21c5.375-5.743 10.026-41.998 13.143-53.596 3.005-11.18-5.774-26.372-5.774-40.125 0-35.343 12.815-70.045 18.33-79.655z" stroke="#5563B6" stroke-width="5" fill="#FFF" stroke-linejoin="round"/>
      <path d="M45.295 22.419c11.216 3.147 20.378 5.114 27.485 5.9 7.107.787 11.679.34 13.716-1.34-5.205 21.387-9.777 36.473-13.716 45.26-3.136 6.994-6.37 16.345-14.14 25.483-1.99 2.34-13.22 14.844-14.32 14.696-1.1-.149-8.342-23.946-7.795-38.417.236-6.229.78-16.276 3.495-28.855.683-3.16 1.65-9.205 3.444-15.23.548-1.838 1.158-4.337 1.83-7.497z" stroke="#89C3EA" stroke-width="3" stroke-linejoin="round"/>
      <circle fill="#ACD3EF" cx="46.496" cy="99.419" r="1"/>
      <circle fill="#ACD3EF" cx="45.496" cy="93.419" r="1"/>
      <circle fill="#ACD3EF" cx="49.496" cy="88.419" r="1"/>
      <circle fill="#ACD3EF" cx="41.496" cy="77.419" r="1"/>
      <circle fill="#ACD3EF" cx="45.496" cy="70.419" r="1"/>
      <circle fill="#ACD3EF" cx="46.496" cy="79.419" r="1"/>
      <circle fill="#ACD3EF" cx="48.996" cy="63.919" r="1.5"/>
      <circle fill="#ACD3EF" cx="60.996" cy="20.919" r="1.5"/>
      <circle fill="#ACD3EF" cx="55.496" cy="59.419" r="1"/>
      <circle fill="#ACD3EF" cx="54.496" cy="54.419" r="1"/>
      <circle fill="#ACD3EF" cx="59.996" cy="46.919" r="1.5"/>
      <circle fill="#ACD3EF" cx="55.496" cy="41.419" r="1"/>
      <circle fill="#ACD3EF" cx="63.496" cy="38.419" r="1"/>
      <circle fill="#ACD3EF" cx="61.496" cy="31.419" r="1"/>
      <circle fill="#ACD3EF" cx="67.496" cy="18.419" r="1"/>
      <circle fill="#ACD3EF" cx="54.496" cy="18.419" r="1"/>
      <path d="M24.537 172.413c-.663 2.398-2.344 5.287-5.043 8.666M35.443 164.667c-.47 1.582-2.123 13.051-2.293 16.412-.057 1.136-.057 2.532 0 4.188" stroke="#5563B6" stroke-width="4" stroke-linecap="round"/>
    </g>
  </g>
</svg>
