<?xml version="1.0" encoding="UTF-8"?>
<svg width="487px" height="274px" viewBox="0 0 487 274" version="1.1" xmlns="http://www.w3.org/2000/svg" xmlns:xlink="http://www.w3.org/1999/xlink">
    <title>illus-april-21</title>
    <g id="illus-april-21" stroke="none" stroke-width="1" fill="none" fill-rule="evenodd">
        <g id="Group" transform="translate(200.000000, 24.000000)" stroke-linecap="round">
            <line x1="234.25" y1="0.315789474" x2="234.25" y2="11.6842105" id="Line-16" stroke="#ACD3EF" stroke-width="3"></line>
            <line x1="239.676471" y1="6.25" x2="229.323529" y2="6.25" id="Line-16" stroke="#ACD3EF" stroke-width="3"></line>
            <line x1="124" y1="5.86842105" x2="124" y2="12.8684211" id="Line-16" stroke="#5563B6" stroke-width="2"></line>
            <line x1="127.823529" y1="9.11842105" x2="120.823529" y2="9.11842105" id="Line-16" stroke="#5563B6" stroke-width="2"></line>
            <line x1="180" y1="52.8684211" x2="180" y2="59.8684211" id="Line-16" stroke="#5563B6" stroke-width="2"></line>
            <line x1="183.823529" y1="56.1184211" x2="176.823529" y2="56.1184211" id="Line-16" stroke="#5563B6" stroke-width="2"></line>
            <line x1="5.25" y1="13.3157895" x2="5.25" y2="24.6842105" id="Line-16" stroke="#ACD3EF" stroke-width="3"></line>
            <line x1="10.6764706" y1="19.25" x2="0.323529412" y2="19.25" id="Line-16" stroke="#ACD3EF" stroke-width="3"></line>
            <line x1="165.25" y1="166.315789" x2="165.25" y2="177.684211" id="Line-16" stroke="#ACD3EF" stroke-width="3"></line>
            <line x1="170.676471" y1="172.25" x2="160.323529" y2="172.25" id="Line-16" stroke="#ACD3EF" stroke-width="3"></line>
            <line x1="94.5" y1="177.5" x2="94.5" y2="184.5" id="Line-16" stroke="#5563B6" stroke-width="2"></line>
            <line x1="98.3235294" y1="180.75" x2="91.3235294" y2="180.75" id="Line-16" stroke="#5563B6" stroke-width="2"></line>
            <line x1="255" y1="203.868421" x2="255" y2="210.868421" id="Line-16" stroke="#5563B6" stroke-width="2"></line>
            <line x1="258.823529" y1="207.118421" x2="251.823529" y2="207.118421" id="Line-16" stroke="#5563B6" stroke-width="2"></line>
            <line x1="37" y1="219.868421" x2="37" y2="226.868421" id="Line-16" stroke="#5563B6" stroke-width="2"></line>
            <line x1="40.8235294" y1="223.118421" x2="33.8235294" y2="223.118421" id="Line-16" stroke="#5563B6" stroke-width="2"></line>
            <line x1="78.25" y1="136.315789" x2="78.25" y2="147.684211" id="Line-16" stroke="#ACD3EF" stroke-width="3"></line>
            <line x1="83.6764706" y1="142.25" x2="73.3235294" y2="142.25" id="Line-16" stroke="#ACD3EF" stroke-width="3"></line>
        </g>
        <path d="M321.776589,146.619968 C323.232684,145.972814 324.533463,143.259299 323.502548,141.226913 C319.727378,133.784646 318.185858,129.738319 316.22207,125.802977 C313.832132,121.014364 309.978332,110.43308 305.651786,110.43308 C300.959923,110.43308 299.034317,115.818692 297.481149,120.23778 C295.520273,125.814626 293.26462,131.302165 291.24906,137.017826 C290.443353,139.303249 289.409849,142.573316 291.131601,144.046561 C291.894271,144.699216 294.188754,145.140251 295.566868,143.977316 C297.292827,142.52122 299.265351,136.616267 299.265351,136.616267 L312.852664,136.467098 C312.852664,136.467098 313.806716,138.434924 314.798297,140.455027 L315.155304,141.181212 C315.826729,142.544656 316.464652,143.825982 316.780887,144.422881 C318.078753,146.873005 319.784974,147.50495 321.776589,146.619968 Z M307.678767,129.384626 L306.841941,129.384305 C304.863474,129.380973 302.757982,129.361337 301.661113,129.362322 C302.486558,127.095667 304.735093,120.733823 305.382246,118.738325 C306.099616,120.192803 309.28167,127.419244 310.198363,129.360705 C309.52545,129.37715 308.638266,129.383586 307.678767,129.384626 Z M331.477145,146.993711 C334.11462,146.82901 334.731681,144.302846 334.879879,142.503759 C335.19351,138.700676 335.229722,136.380144 335.233339,135.742158 L335.233549,135.562066 L335.233549,135.562066 C335.233549,135.562066 337.427548,134.841589 339.694256,134.013282 L340.198304,133.827688 C341.708864,133.267075 343.181903,132.678707 343.98889,132.244109 C348.195388,129.979071 352.725464,126.635552 352.186061,120.271767 C351.494254,112.108573 341.157593,109.351051 335.468142,109.270157 C333.863201,109.247507 329.643759,108.838829 328.099651,110.545049 C327.538569,111.165022 327.594224,114.878713 327.619139,116.714041 C327.713947,123.681944 327.779957,136.338003 327.798724,141.76115 C327.810049,145.079431 329.320182,147.128642 331.477145,146.993711 Z M334.949058,127.745459 L334.88538,127.745745 L334.88538,127.745745 L334.749479,116.284007 C334.749479,116.284007 337.689821,116.175286 340.389422,117.257974 C342.667079,118.171108 344.773241,119.794492 344.797832,121.485181 C344.827924,123.535363 342.349649,125.504975 339.864256,126.638465 C337.611576,127.66569 335.352782,127.740466 334.949058,127.745459 L334.949058,127.745459 Z M359.682738,147.000181 C361.381516,147.000181 362.891649,145.274546 363.085471,143.315289 C363.462115,139.50226 363.161189,136.322147 363.259556,133.373715 C366.953509,136.537651 369.470937,139.31491 374.039841,142.311878 C376.448224,143.891256 379.754855,145.666399 381.777857,144.330674 C384.840835,142.308319 382.861516,139.497083 381.406391,138.349033 C376.239193,134.272936 371.613015,130.467025 371.613015,130.467025 C371.613015,130.467025 379.626071,127.153599 379.727027,119.246029 C379.78883,114.426676 377.307967,109.384378 366.51571,109.42714 C363.217816,109.440357 358.216936,109.681098 357.018084,111.289599 C356.053701,112.583352 355.978438,119.419223 355.981028,123.867718 L355.981868,124.500755 C355.982875,125.012549 355.984451,125.483085 355.985124,125.897982 L355.985045,126.581599 C355.984857,126.65019 355.984598,126.716209 355.984256,126.779543 C355.961606,130.983129 355.961606,138.020925 356.088771,142.86584 C356.133101,144.559765 357.336807,147.000181 359.682738,147.000181 Z M363.195164,125.006666 L363.193223,117.35634 C363.193223,117.35634 370.620929,115.073829 371.694557,119.399081 C373.026722,124.764307 363.195164,125.006343 363.195164,125.006666 Z M391.812883,108.714576 C385.546495,108.513311 385.797914,116.77455 391.347256,117.291626 C396.852916,117.804495 397.12019,108.885101 391.812883,108.714576 Z M391.43171,146.999859 C394.943165,147.001153 395.693216,144.235219 395.76505,142.375623 C395.816984,141.030028 395.799107,138.885119 395.758377,136.685848 L395.738126,135.669653 C395.698653,133.809498 395.64799,131.992479 395.614587,130.669908 C395.519779,126.930008 396.025853,121.654735 392.029356,121.200433 C390.050684,120.975547 387.995001,122.333276 387.777881,124.118773 C387.253039,128.433993 387.479867,136.002131 387.622887,140.247458 C387.716724,143.032807 387.959407,146.998565 391.43171,146.999859 Z M408.863042,146.914434 C409.636239,146.864941 410.434766,146.798214 411.23713,146.719431 L411.925309,146.649071 C416.28338,146.186287 420.573576,145.411805 421.357637,145.153852 C423.405231,144.480166 424.382757,142.732527 424.214173,141.028571 C423.97149,138.574888 421.787347,138.089523 420.088245,138.111527 C419.39888,138.120245 415.047001,138.649497 412.015379,139.02784 L411.495107,139.092904 C410.065579,139.272037 409.039392,139.403568 409.039392,139.403568 C408.777104,129.988534 408.675759,125.969984 408.588076,122.701895 L408.578011,122.327874 C408.573,122.142264 408.568016,121.958558 408.563031,121.775862 L408.548041,121.229916 C408.544696,121.108872 408.541338,120.987881 408.537958,120.866678 L408.527745,120.502171 L408.527745,120.502171 L408.517351,120.134809 C408.4841,118.9653 408.447379,117.728986 408.400004,116.199229 C408.260219,111.668507 407.954439,108.805823 403.581298,109.235209 C401.049579,109.483554 400.816604,112.677347 400.871439,115.718265 L400.881572,116.172869 C400.89336,116.625552 400.909362,117.071309 400.92279,117.499684 C401.132468,124.202578 401.05934,132.875083 401.464135,139.331411 C401.671547,142.646455 401.602625,144.485019 403.05225,146.076693 C404.152411,147.284606 407.711756,146.987886 408.863042,146.914434 Z" id="April" fill="#5E63B6" fill-rule="nonzero"></path>
        <g id="Group-3" transform="translate(29.792246, 82.468806)" stroke="#E1F2FF">
            <path d="M56.4679706,42.2798465 C69.5605659,32.099518 91.9990517,19.7302104 115.985101,11.1467852 C121.268916,9.25596845 128.440389,7.83974599 133.565423,6.34402257 C140.024291,4.4590242 143.521341,0.249222049 149.649345,-0.442780192 C152.008803,-0.709221047 148.187565,1.14137868 149.649345,1.85414768 C152.550561,3.26879153 160.055056,4.38273597 164.536081,4.83937784 C167.703119,5.16211684 169.714132,1.91099379 173.228686,1.85414768 C177.719256,1.78151503 183.706128,4.95973256 187.386702,6.34402257 C193.624969,8.69027929 199.168388,10.4887326 204.127957,14.1719931 C218.860088,25.1129188 227.343074,39.8146125 227.207754,43.2387624 C227.040422,47.4324737 219.661897,47.807947 215.591977,51.534015 C211.983182,54.8379159 211.897103,61.4757905 208.037569,65.3363891 C204.193051,69.1819679 199.885266,79.7870009 196.547771,83.9259259 C192.266351,89.2354387 187.138687,91.6014825 182.488827,95.3373562 C176.286889,100.320228 174.547846,103.768177 172.942403,104.815592 C163.993013,110.654305 143.849492,115.973571 134.788612,124.224779 C128.059485,130.352597 123.922611,126.985255 115.985101,132.025019 C111.044677,135.161842 107.321943,143.727824 99.9401359,147.093637 C96.0406957,148.871628 90.8945295,147.763749 84.296694,149.907437 C81.0245394,150.970585 75.9962294,155.061006 70.1984715,157.146541 C65.3993013,158.87287 60.2030483,158.504941 53.8736598,160.362469 C49.5085493,161.643527 45.2292086,167.83771 37.1370863,169.989455 C32.411762,171.245947 23.9008644,170.691379 11.9005132,171.810182 C9.52405084,172.031742 5.687743,172.938746 0.391589692,174.531194 C0.146474849,169.572415 0.146474849,166.012558 0.391589692,163.851622 C1.55417676,153.602241 3.40579286,146.646411 3.38547514,143.078037 C3.3418522,135.416599 -0.649704364,135.654407 0.391589692,131.139473 C1.86258857,124.761388 6.29966456,123.198917 8.35465989,117.413521 C19.8279563,85.1129315 36.9800657,57.4329363 56.4679706,42.2798465 Z" id="Rectangle" stroke-width="6"></path>
            <path d="M107.163249,80.3008654 C119.241478,73.1916683 132.67535,66.6804982 145.964221,61.0319406 C146.274935,60.8998689 144.482653,49.8363636 149.557101,38.944578 C150.729764,36.4275759 152.88358,33.6155031 154.21935,30.6989224 C156.075742,26.6455945 157.198154,22.5215354 159.449914,19.8755122 C163.399604,15.2342648 167.977448,14.6061336 168.152246,14.53363 C168.367141,14.4435551 163.444695,16.8503326 159.967079,21.9001281 C158.30808,24.3091365 158.715209,28.1277114 156.916337,31.0522531 C154.343192,35.2355813 151.858397,39.7301712 150.124083,43.9176335 C146.9735,51.5246448 149.858268,59.3992793 150.124083,59.289571 C161.571601,54.5648993 172.793558,50.5055352 182.820484,47.2824102 C183.163465,47.1721602 183.782126,39.5768611 187.65921,34.0566876 C191.202624,29.0115933 198.032127,25.9994907 198.340568,25.9021749 C198.693862,25.790708 191.949466,30.09768 188.747194,35.4237751 C185.849936,40.2425641 186.425066,45.0252064 186.739,44.9281274 C193.591847,42.8090003 199.293326,39.7679132 204.617518,38.944578 C214.025928,37.4896575 220.987106,39.4660793 221.978478,40.7412198 C223.507166,42.7074783 217.268658,38.7749613 206.933818,40.7412198 C205.402978,41.0324705 203.81377,41.3961023 202.135936,41.8413847 C201.983164,41.881929 206.965215,44.0217466 208.800168,46.5201207 C211.030028,49.5561801 210.196405,53.0548237 210.006663,53.1077801 C209.82945,53.1572392 210.010815,49.8393836 207.719437,47.2824102 C205.195926,44.4663961 200.17877,42.3859188 199.97876,42.4445666 C190.607981,45.1923086 178.356997,50.3719862 158.638387,59.3889261 C158.275462,59.5548847 171.994781,57.2256404 180.435853,59.9419 C189.691414,62.9202548 193.753916,70.9748804 193.355765,71.1731302 C193.047131,71.3268072 189.070194,63.2772792 180.435853,61.0319406 C170.052241,58.3317086 154.697807,61.3459506 154.319842,61.5372891 C147.20101,65.1410731 138.207798,68.2198662 129.72354,73.2136667 C128.795027,73.7601861 127.871914,74.3114132 126.953705,74.8666529 C126.857038,74.9251076 126.565095,76.0060267 129.161053,76.7605147 C131.411232,77.4145054 136.317537,77.6636703 139.428859,78.7487676 C143.637688,80.2166292 146.539987,83.5089256 150.856588,85.1180838 C158.766341,88.0667101 167.166539,89.0901481 166.960017,89.2166887 C166.737902,89.3527836 159.516527,89.9615431 150.856588,87.3663328 C146.296076,85.9996386 143.414516,83.2275424 139.034389,81.4325023 C134.513571,79.5798054 129.908841,79.5157209 126.953705,78.7487676 C125.198203,78.2931579 123.934818,76.7162574 123.86351,76.7605147 C111.858547,84.2114039 100.613414,92.2268323 88.9805141,99.1986684 C88.656672,99.3927537 93.9912074,111.540768 104.156239,116.241569 C115.2641,121.37838 131.288936,119.105077 130.936915,119.31651 C130.539288,119.555336 115.415288,123.302537 103.452946,118.570702 C92.738393,114.332443 85.0521975,101.557966 84.6982485,101.77111 C60.4512736,116.372351 38.7038025,130.10243 23.2361693,141.818166 C22.9145773,142.061751 36.9923967,147.268979 52.6719071,146.099829 C71.1574044,144.72145 91.7190646,136.924592 91.3540583,137.207238 C90.9850907,137.492951 72.433417,146.189081 53.6477355,148.097491 C36.7562082,149.813476 19.4320842,144.759436 19.114033,145.011952 C16.5382848,147.056962 14.178351,149.032955 12.0564381,150.933215 C1.14104808,160.708399 3.59551303,173.355153 1.51217143,173.528058 C-0.520458715,173.696754 -1.36729131,160.344555 8.18426374,149.581095 C8.39205336,149.346941 8.06694046,141.681147 9.3919395,134.698405 C11.2658536,124.822882 14.9554058,114.641126 15.2673193,114.303212 C15.5806786,113.963732 12.9678504,124.213994 11.7257915,133.371367 C10.832284,139.958962 11.1597326,146.348667 11.3978187,146.099829 C15.0603149,142.271938 20.1266015,138.867225 24.846255,134.698405 C25.0399623,134.527306 25.13197,130.625594 25.981784,126.30102 C27.0996813,120.61221 29.0332254,114.136629 29.2921687,113.910097 C29.5615244,113.674455 28.1188336,121.395033 27.4805819,126.931115 C27.1167599,130.086843 27.3248506,132.528048 27.4805819,132.392982 C50.1320943,112.747267 83.7529512,94.0800738 107.163249,80.3008654 Z" id="Rectangle" stroke-width="2" fill="#E1F2FF"></path>
        </g>
        <g id="Group-2" transform="translate(41.513016, 68.000000)">
            <path d="M81.7054103,14.2912368 C92.0613238,11.4763037 99.7296664,10.4670402 104.710438,11.2634463 C109.69121,12.0598523 113.626484,14.9244891 116.516262,19.8573567 C121.855027,17.4822418 126.40663,18.8940078 130.17107,24.0926548 C133.935509,29.2913018 133.110723,34.3932862 127.696712,39.398608 C127.921458,44.0903599 126.959092,48.0868835 124.809612,51.3881787 C122.660132,54.689474 117.849092,59.5600811 110.376492,66 C96.9444702,58.8794686 88.6175472,52.4138966 85.3957229,46.603284 C82.1738987,40.7926714 80.9437945,30.021989 81.7054103,14.2912368 Z" id="Rectangle" stroke="#5563B6" fill="#5563B6"></path>
            <path d="M16.1024707,41.6237833 C26.0147851,29.426451 49.8796697,15.0715342 71.5195043,10.472751 C76.2669453,9.46384996 81.5618552,10.0697757 87.404234,12.2905282 L87.4042268,12.2905472 C88.333567,12.6437997 88.8623209,13.626076 88.6454234,14.5963419 C86.1236091,25.8773838 86.2515395,34.5088887 89.0292144,40.4908566 C91.8417811,46.5479672 99.0546844,53.5143484 110.667924,61.3900004 L110.667921,61.3900045 C111.491055,61.9482223 112.076709,62.7930703 112.310631,63.7597333 C114.001914,70.7488277 113.869486,77.0840541 111.913344,82.7654124 C108.766063,91.9062779 94.1535891,112.54987 79.6467814,121.934488 C65.1399736,131.319107 56.31307,132.073657 41.5636803,130.135225 C26.8142906,128.196793 14.5666933,119.87875 9.46239042,113.592019 C-2.88693757,98.381931 -4.10862023,66.4939985 16.1024707,41.6237833 Z" id="Rectangle" stroke="#5563B6" stroke-width="5" fill="#FFFFFF" stroke-linejoin="round"></path>
            <path d="M133.472956,0.285816621 C133.75164,1.98386908 129.80424,4.30280121 128.186793,8.34677376 C127.108495,11.0427555 126.668211,15.5938309 126.865941,22 L124.486984,20.0373848 C124.507988,14.5652575 124.966685,10.6683872 125.863076,8.34677376 C127.207662,4.86435359 133.194273,-1.41223584 133.472956,0.285816621 Z" id="Rectangle" stroke="#5563B6" fill="#5563B6"></path>
            <path d="M143.887861,22.3661026 C144.173593,24.0698598 140.126344,26.3965825 138.467984,30.4541409 C137.362411,33.1591798 136.91099,37.7255448 137.113722,44.1532357 L134.674589,42.184027 C134.696124,36.6935159 135.166424,32.7835539 136.085489,30.4541409 C137.464086,26.9600214 143.602128,20.6623455 143.887861,22.3661026 Z" id="Rectangle" stroke="#5563B6" fill="#5563B6" transform="translate(139.288416, 33.116281) scale(1, -1) rotate(55.000000) translate(-139.288416, -33.116281) "></path>
            <path d="M52.6859787,85 C55.0667059,85 58.2892679,83.4561867 60.3055934,80.3437569 C62.5148408,76.9335298 63.3336189,71.8303172 61.3989841,69.3931566 C57.6986561,64.7316599 54.4518352,66.2291293 51.7425292,66.2291293 C46.9614363,66.2291293 42.486984,70.5871269 42.486984,75.5 C42.486984,77.8104657 43.326759,80.5756477 45.0664266,82.2987789 C47.025912,84.2396384 50.0431176,85 52.6859787,85 Z" id="Oval" fill="#89C3EA"></path>
            <ellipse id="Oval" fill="#89C3EA" transform="translate(95.382285, 80.790960) rotate(37.000000) translate(-95.382285, -80.790960) " cx="95.3822847" cy="80.7909599" rx="6.18221122" ry="8.83173032"></ellipse>
            <path d="M24.3908828,47.2819947 C27.8052238,47.2819947 31.7616476,43.0653692 31.7616476,38.1877392 C31.7616476,33.3101092 27.1462945,29.4148021 23.7319536,29.4148021 C23.5366436,33.2743203 23.4287129,33.4124652 23.5581142,38.2390974 C23.6875155,43.0657296 23.995841,44.6342294 24.3908828,47.2819947 Z" id="Oval" fill="#89C3EA" transform="translate(27.631665, 38.348398) rotate(52.000000) translate(-27.631665, -38.348398) "></path>
            <path d="M63.8995673,25.1946107 C66.5822637,25.1946107 70.945314,21.0438946 70.945314,16.1662646 C70.945314,11.2886346 69.6964464,6.91195102 67.0137499,6.91195102 C65.9609595,9.27655706 65.5163934,12.0126841 64.7718835,16.8723482 C64.0273735,21.7320123 64.2683332,21.9710509 63.8995673,25.1946107 Z" id="Oval" fill="#89C3EA" transform="translate(67.422441, 16.053281) rotate(66.000000) translate(-67.422441, -16.053281) "></path>
            <path d="M3.57982115,84.7866431 C6.26251764,84.7866431 7.15379379,81.1135574 7.15379379,76.2359275 C7.15379379,71.3582975 5.87360662,67.3753677 3.19091013,67.3753677 C2.91309084,70.0703565 2.74518127,70.8504799 2.74518127,75.7281099 C2.74518127,80.6057399 3.28586009,82.930646 3.57982115,84.7866431 Z" id="Oval" fill="#89C3EA" transform="translate(4.949488, 76.081005) rotate(9.000000) translate(-4.949488, -76.081005) "></path>
            <ellipse id="Oval" fill="#89C3EA" transform="translate(71.461542, 46.300645) rotate(58.000000) translate(-71.461542, -46.300645) " cx="71.4615424" cy="46.3006454" rx="9.27331684" ry="11.0396629"></ellipse>
            <ellipse id="Oval" fill="#89C3EA" transform="translate(39.784334, 113.365009) rotate(29.000000) translate(-39.784334, -113.365009) " cx="39.7843342" cy="113.365009" rx="6.62379774" ry="7.94855729"></ellipse>
            <path d="M5.48698403,106 C17.0621628,85.8502548 27.496709,72.0911624 36.7906226,64.7227227 C46.0845363,57.354283 63.3166567,48.7800421 88.486984,39" id="Line" stroke="#5563B6" stroke-width="5" stroke-linecap="square"></path>
            <path d="M126.486984,109 C129.188914,110.765773 130.935089,112.265773 131.725507,113.5 C132.515926,114.734227 132.690999,116.234227 132.250727,118" id="Line-14" stroke="#5563B6" stroke-linecap="round"></path>
            <line x1="132.886984" y1="114.5" x2="136.086984" y2="114.5" id="Line-2" stroke="#5563B6" stroke-linecap="round"></line>
            <line x1="131.986984" y1="113.5" x2="134.986984" y2="115.5" id="Line-2" stroke="#5563B6" stroke-linecap="round"></line>
            <line x1="132.986984" y1="113.5" x2="133.986984" y2="116.5" id="Line-2" stroke="#5563B6" stroke-linecap="round"></line>
            <path d="M70.323695,129 C69.874747,131.264289 69.650273,132.789602 69.650273,133.575939 C69.650273,134.362277 69.874747,135.170297 70.323695,136" id="Line-14" stroke="#5563B6" stroke-width="2" stroke-linecap="round"></path>
            <line x1="69.886984" y1="135.5" x2="73.086984" y2="135.5" id="Line-2" stroke="#5563B6" stroke-linecap="round"></line>
            <line x1="68.986984" y1="135.5" x2="71.986984" y2="137.5" id="Line-2" stroke="#5563B6" stroke-linecap="round"></line>
            <line x1="68.986984" y1="135.5" x2="69.986984" y2="138.5" id="Line-2" stroke="#5563B6" stroke-linecap="round"></line>
            <line x1="157.886984" y1="68.5" x2="161.086984" y2="68.5" id="Line-2" stroke="#5563B6" stroke-linecap="round"></line>
            <path d="M151.486984,66.0012439 C153.558799,65.9814241 154.93522,66.1984525 155.616247,66.6523292 C156.297274,67.1062059 156.920853,68.2220962 157.486984,70" id="Line-15" stroke="#5563B6" stroke-linecap="round"></path>
            <ellipse id="Oval" fill="#5563B6" transform="translate(129.029773, 22.678373) rotate(38.000000) translate(-129.029773, -22.678373) " cx="129.029773" cy="22.6783733" rx="1.32475955" ry="1"></ellipse>
            <ellipse id="Oval" fill="#5563B6" transform="translate(131.679292, 26.211065) rotate(67.000000) translate(-131.679292, -26.211065) " cx="131.679292" cy="26.2110655" rx="1.32475955" ry="1"></ellipse>
            <path d="M48.486984,122 C60.9944277,119.519877 69.7013084,116.830222 74.607626,113.931034 C79.5139437,111.031847 85.4737297,105.054835 92.486984,96" id="Line-40" stroke="#E1F2FF" stroke-width="4" stroke-linecap="round"></path>
            <path d="M114.486984,75 C116.51404,76.1665557 117.884513,77.1123787 118.598404,77.837469 C119.66924,78.9251045 119.66924,79.5201169 119.784046,80.3801645 C119.826189,80.6958709 119.691785,95.944659 119.784046,102.342854 C119.808932,104.068683 124.955674,104.136852 127.195028,105.26544 C127.846766,105.593902 127.205293,106.063802 127.195028,106.62231 C127.180836,107.394525 127.585117,108.286204 127.195028,108.758681 C126.569113,109.516792 125.594551,108.314768 124.019205,107.548069 C121.462793,106.303898 117.979709,104.726218 116.724465,103.495984 C116.574813,103.349315 117.476545,102.689646 117.341748,102.342854 C117.131443,101.8018 115.895263,101.430122 115.721117,100.401946 C115.439932,98.7418035 115.954224,95.1282958 115.721117,89.6422778 C115.61012,87.0300386 115.198742,82.1492794 114.486984,75 Z" id="Rectangle" fill="#5563B6"></path>
            <path d="M114.486984,63.7462354 C116.275391,64.3102779 117.7235,64.5922992 118.831311,64.5922992 C120.493027,64.5922992 122.7452,63.812766 123.816459,63.7462354 C124.887718,63.6797048 124.672544,64.3269938 125.763638,64.1617667 C128.330821,63.773012 131.911778,62.5301754 133.11533,62.3908546 C133.919802,62.2977304 134.642013,62.9098673 135.34342,62.8468592 C137.55135,62.6485184 139.279368,61.9091851 140.466018,62.0092655 C142.821839,62.2079523 141.85736,63.3842473 143.705977,63.7462354 C146.078494,64.2108112 149.678833,63.9582082 150.886645,64.5922992 C152.298045,65.3332722 152.507276,66.4216839 152.485538,66.5501837 C152.461375,66.6930195 151.903287,68.2049434 149.629092,67.9765544 C147.990375,67.8119841 145.021494,65.8833359 142.790317,65.9459717 C141.660791,65.9776808 141.804717,67.264991 140.466018,67.2854655 C139.128912,67.3059157 138.32592,65.9435241 135.938105,65.9459717 C134.656079,65.9472857 133.075002,66.1925085 130.016548,66.5501837 C129.222133,66.6430877 127.53966,65.7563096 125.763638,65.9459717 C124.898929,66.0383142 125.087957,67.0198565 124.313844,67.2854655 C123.539731,67.5510745 121.657593,67.9765544 119.845537,67.9765544 C118.6375,67.9765544 116.851315,67.7461914 114.486984,67.2854655 L114.486984,63.7462354 Z" id="Rectangle" fill="#5563B6"></path>
        </g>
        <path d="M0,191.5 L0,178.273817 C9.8781144,198.261694 16.6596632,213.525226 20.3446464,224.064415 C24.0296297,234.603603 27.1788297,251.248798 29.7922464,274 L20.3446464,274 C21.2023217,257.458906 20.3814972,245.165046 17.8821729,237.118421 C15.3828485,229.071796 9.42212422,213.865656 0,191.5 Z" id="Rectangle" fill="#E1F2FF"></path>
    </g>
</svg>