<svg width="487" height="274" xmlns="http://www.w3.org/2000/svg">
  <g fill="none" fill-rule="evenodd">
    <path d="M413 98.085c3.404 0 15.12-6.377 23.114 0 6.71 5.35 10.27 21.667 9.24 38.915-2.259 37.8-19.862 37.8-30.47 47.411-1.962 1.779-6.053-6.306-1.884-13.2 2.92-4.83 10.592-8.805 15.148-14.237 4.668-5.566 6.186-12.6 6.22-18.45.034-5.486 1.88-26.135-2.942-28.973-6.957-4.096-21.32 10.229-20.636 3.899.944-8.746.656-15.365 2.21-15.365Z" stroke="#5563B6" stroke-width="5" fill="#FFF"/>
    <path d="M311 94c-1.738-3.151-2.642-5.167-2.711-6.047-.246-3.137 2.108-5.191 2.711-5.08 19.39 3.58 29.552 5.08 51.36 5.08 21.81 0 34.71-3.581 50.64-7.769 1.23-.323 3.956 3.77 3.368 7.769-.141.961-1.264 2.129-3.368 3.502V212.28c-24.664 7.304-43.32 10.662-55.965 10.073-12.646-.589-26.65-4.707-42.009-12.354L311 94Z" stroke="#5563B6" stroke-width="5" fill="#FFF"/>
    <circle fill="#E1F2FF" cx="365.5" cy="146.5" r="3.5"/>
    <circle fill="#E1F2FF" cx="369.5" cy="170.5" r="3.5"/>
    <circle fill="#E1F2FF" cx="362.5" cy="188.5" r="3.5"/>
    <circle fill="#E1F2FF" cx="327.5" cy="185.5" r="3.5"/>
    <circle fill="#E1F2FF" cx="349.5" cy="205.5" r="3.5"/>
    <circle fill="#E1F2FF" cx="327.5" cy="126.5" r="3.5"/>
    <circle fill="#E1F2FF" cx="341.5" cy="139.5" r="3.5"/>
    <circle fill="#E1F2FF" cx="387.5" cy="114.5" r="3.5"/>
    <circle fill="#E1F2FF" cx="398.5" cy="132.5" r="3.5"/>
    <circle fill="#E1F2FF" cx="394.5" cy="184.5" r="3.5"/>
    <circle fill="#E1F2FF" cx="385.5" cy="206.5" r="3.5"/>
    <path d="M324.662 149.102c0-21.934-1.698-35.643 10.436-35.643s9.911 21.686 9.67 43.515c-.241 21.83 0 45.668-13.297 43.828-13.296-1.84-6.81-29.766-6.81-51.7ZM352.205 151.869c0-21.935.744-35.666 14.665-35.666 13.922 0 11.743 22.942 11.467 44.771-.079 6.176-1.288 12.247-1.642 18.118-.897 14.88-2.674 27.03-13.614 25.71-15.255-1.84-10.876-30.999-10.876-52.933ZM385.79 154.974c0-21.934.224-43.515 11.09-43.515 10.868 0 7.447 21.686 7.231 43.515-.216 21.83 1.43 43.557-7.62 43.557-9.049 0-10.702-21.622-10.702-43.557Z" stroke="#5563B6" stroke-width="5"/>
    <path d="M313.64 209.13c16.558 5.773 32.92 8.827 49.086 9.162 16.166.335 33.41-2.023 51.732-7.073 3.97 1.377 3.97 3.944 0 7.7-5.955 5.635-35.45 8.615-54.69 8.534-19.242-.08-41.59-3.355-46.129-8.534-3.026-3.452-3.026-6.716 0-9.79Z" stroke="#5563B6" stroke-width="5" fill="#FFF"/>
    <g stroke-linecap="round">
      <path stroke="#ACD3EF" stroke-width="3" d="M39.75 24.316v11.368M34.324 30.25h10.352"/>
      <path stroke="#5563B6" stroke-width="2" d="M150 29.868v7M146.176 33.118h7M94 76.868v7M90.176 80.118h7"/>
      <path stroke="#ACD3EF" stroke-width="3" d="M268.75 37.316v11.368M263.324 43.25h10.352M108.75 190.316v11.368M103.324 196.25h10.352"/>
      <path stroke="#5563B6" stroke-width="2" d="M179.5 201.5v7M175.676 204.75h7M19 227.868v7M15.176 231.118h7M237 243.868v7M233.176 247.118h7"/>
      <path stroke="#ACD3EF" stroke-width="3" d="M215.75 153.316v11.368M210.324 159.25h10.352"/>
    </g>
    <path d="M68.558 142.622c.958-10.575-7.334-16.286-13.6-17.06-8.499-1.048-17.57 4.44-17.869 14.885-.27 9.494 6.23 16.52 15.49 16.765 8.051.212 15.116-5.05 15.98-14.59Zm-17.692 7.395c-5.26-.974-7.81-5.63-6.72-10.326 1.266-5.454 5.164-7.044 9.398-6.777 4.234.267 8.569 3.71 8.232 9.018-.39 6.137-6.1 8.976-10.91 8.085Zm40.8 8.92c3.995-.371 6.07-1.845 5.747-4.765-.321-2.904-2.677-3.966-5.123-3.452-1.776.373-4.59.928-7.355-.684-5.77-3.364-5.772-14.33-1.295-18.916 2.97-3.042 5.818-2.172 7.92-1.982 2.424.219 5.233-.645 5.342-3.583.086-2.321-2.21-3.969-4.364-4.156a40.182 40.182 0 0 0-1.189-.086l-.481-.024c-7.326-.319-15.608 1.645-18 14.35-1.029 5.466-.843 11.862 4.067 17.944 3.494 4.328 10.464 5.75 14.731 5.354Zm23.002.063c3.765 0 4.386-4.715 4.412-8.75v-.51c-.008-1.604-.096-3.058-.095-4.008v-.318a785.942 785.942 0 0 0-.078-6.888l-.01-.704c-.062-4.347-.135-8.723-.135-8.723s.461.038 1.277.042h.345c.97-.006 2.326-.06 3.94-.25 3.745-.439 5.957-1.602 6.071-3.784.154-2.928-2.11-3.614-7.024-3.641H116.161l-.55.001h-2.723l-.553.001h-4.833l-2.892-.003c-2.953-.002-4.854.755-4.74 3.604.069 1.735 1.547 2.995 3.795 3.44 3.102.614 7.444.689 7.444.689v.815l-.001.163v.778l-.001.224v4.439l.007 2.885.002.742c.014 4.213.046 8.506.119 10.111.116 2.58-.504 9.645 3.433 9.645Zm45.79-16.988c.957-10.575-7.334-16.286-13.6-17.06-8.499-1.048-17.571 4.44-17.87 14.885-.27 9.494 6.231 16.52 15.49 16.765 8.052.212 15.117-5.05 15.98-14.59Zm-17.692 7.395c-5.26-.974-7.81-5.63-6.72-10.326 1.266-5.454 5.164-7.045 9.398-6.777 4.234.267 8.569 3.711 8.232 9.018-.39 6.137-6.1 8.976-10.91 8.085Zm30.773 9.446c10.021-.763 17.64-4.535 17.472-13.102-.056-2.882-2.091-8.001-8.568-8.15 0 0 4.994-2.611 3.929-9.065-1.017-6.159-7.218-7.467-11.486-7.29-3.38.139-8.624-.191-10.014 4.142-.92 2.866-.556 24.216-.021 29.035.534 4.815 3.753 4.805 8.688 4.43Zm-1.919-23.79-.142-7.012s7.513-2.319 8.238 1.499c.975 5.14-6.215 4.786-8.096 5.513Zm.109 16.934c-.264-.589-.318-3.231-.322-5.098v-.449c.001-.859.012-1.465.012-1.465s11.022-4.623 12.023 1.025c.592 3.343-8.431 5.933-11.713 5.987Zm29.67 7.002c4.207-.054 10.166-.706 14.831-1.78 1.469-.338 3.216-1.738 3.06-4.085-.19-2.833-2.402-3.659-3.653-3.627-3.655.093-13.684 1.439-13.684 1.439l-.168-7.252s3.09-.186 6.132-.503l.552-.059c1.467-.162 2.877-.353 3.874-.57 3.908-.847 3.348-7.454-2.027-7.41-2.555.022-8.387.353-8.387.353l-.134-5.025h.036c.628-.01 9.468-.144 12.327-.343 2.408-.167 5.132-1.353 4.672-4.646-.378-2.7-3.521-3.282-6.034-3.322-2.817-.044-9.882-.306-14.316.347-1.477.218-3.552 2.237-3.61 4.595l-.105 21.779c.271 6.82.037 10.193 6.635 10.109Zm26.668.001c1.699 0 3.209-1.725 3.402-3.685.377-3.813.076-6.993.175-9.941 3.694 3.164 6.21 5.94 10.78 8.938 2.408 1.58 5.715 3.354 7.738 2.019 3.063-2.023 1.084-4.834-.372-5.982-5.167-4.076-9.793-7.882-9.793-7.882s8.013-3.313 8.114-11.221c.062-4.82-2.419-9.862-13.211-9.819-3.298.013-8.3.254-9.498 1.863-.964 1.293-1.04 8.13-1.037 12.578v.633l.004 1.397V138.78c-.023 4.203-.023 11.24.104 16.086.044 1.694 1.248 4.134 3.594 4.134Zm3.512-21.993-.002-7.65s7.428-2.283 8.502 2.042c1.332 5.365-8.5 5.607-8.5 5.608Z" fill="#5563B6" fill-rule="nonzero"/>
    <path d="M317.048 92.25c17.544 4.423 31.521 6.62 41.932 6.59 10.41-.03 25.766-2.31 46.068-6.84" stroke="#5563B6" stroke-width="4" stroke-linecap="round"/>
    <path d="M355.162 89.174c9.494 0 24.656.068 32.823-2.482 2.195-.685 2.195 4.982 7.623 4.982 3.886 0 5.118-5.095 8.18-7.312 3.241-2.346 8.16.025 10.234-2.196 1.796-1.923-2.47-22.538-12.703-22.538-10.234 0-7.745-8.944-14.912-8.944-7.166 0-14-14.001-22.26-14.001-7.701 0-10.104 6.639-16.774 8.317-8.57 2.156-13.179-1.854-20.03 0-9.089 2.46-11.496 11.212-11.496 19 0 2.828-9.342 9.5-10.686 18.166-1.669 10.758-2.892 23.758 0 26.543 4.441 4.275 7.133-13.562 16.796-17.035 3.442-1.238 10.61-7.233 12.708-3.992 1.56 2.41-.14 12.997.855 18.176 1.697 8.84.926 22.082 7.839 22.082s7.056-13.971 7.448-22.082c.367-7.591-5.14-16.684 4.355-16.684Z" stroke="#89C3EA" stroke-width="4" fill="#FFF"/>
    <path d="M314.718 67.023c3.953-3.206 6.88-5.048 8.782-5.523 1.902-.475 4.568-.475 8 0M348.718 70.023c2.082-3.226 5.201-4.84 9.36-4.84 4.158 0 7.743 1.904 10.756 5.711M365.718 75.773c2.516-3.247 6.032-5.18 10.547-5.8 4.516-.618 9 .195 13.453 2.44M371.857 56.567c2.817-4.126 6.08-6.19 9.787-6.19 3.709 0 5.66.283 5.856.848M354.5 109.87c11.1.203 20.234-.134 27.4-1.012 7.168-.878 15.368-2.664 24.6-5.358M317.048 105.215c1.402.543 3.128 1.043 5.178 1.499 2.05.455 4.502.948 7.354 1.478" stroke="#89C3EA" stroke-width="3" stroke-linecap="round"/>
    <path d="M407.421 207.816c.104.086.172.151.195.172.001.005 0-.003 0 0 0 .001 0 0 0 0-2.535-1.287-4.262-.308-6.221-.539a.723.723 0 0 0-.093-.019 1.462 1.462 0 0 1-.131-.024c-.516-.122-1-.53-1.434-1.113l-.007-.01c-.037-.047-.072-.098-.107-.148l-.001-.002a7.826 7.826 0 0 1-.189-.291l-.02-.03a3.034 3.034 0 0 0-.05-.085l-.05-.086-.048-.087c-.018-.03-.034-.06-.05-.09-.012-.02-.023-.043-.035-.065-.437-.822-.793-1.81-1.047-2.794 0 0-.006-.01 0 0 .953.487 1.944.888 2.78 1.109 1.009.267 2.27.379 3.482.325.37-1.083.585-2.254.574-3.237-.01-.822-.157-1.816-.415-2.812.08.04.157.081.236.122l.07.039c.056.03.111.059.166.09l.077.043a16.986 16.986 0 0 1 .232.132l.206.123a.182.182 0 0 1 .02.012c.08.047.158.096.236.145l.018.011c.07.044.138.088.206.133l.043.027c.062.04.124.082.186.124a12.696 12.696 0 0 1 .247.172c.22.16.43.32.628.484l.008.005c.33.274.621.553.862.832l.1.122.005.004v.001l.086.11v.001l.003.004c.03.04.06.08.086.119l.01.016.002.001a3.294 3.294 0 0 1 .114.178l.006.01a2.495 2.495 0 0 1 .15.292l.02.05.03.075.016.055.022.07a1.353 1.353 0 0 1 .029.123l.009.053.01.07.003.05c.002.026.002.052.003.08v.038c0 .04-.004.08-.008.117a.688.688 0 0 0-.005.071c-.266 1.84-1.72 3.168-1.07 5.794" fill="#9452BA"/>
  </g>
</svg>
