<svg width="487" height="274" xmlns="http://www.w3.org/2000/svg" xmlns:xlink="http://www.w3.org/1999/xlink">
  <defs>
    <path d="M89.037 201c23.135 0 58.074-8.377 81.202-37.19 11.014-13.721 9.68-43.925 21.159-57.958 34.122-41.714 68.188-71.706 60.507-86.623-6.53-12.683-29.632-6.513-52.55-9.742-30.322-4.272-63.616-14.748-90.186-6.269C62.514 18.108 0 42.104 0 75.256 0 108.406 22.14 201 89.037 201Z" id="a"/>
  </defs>
  <g fill="none" fill-rule="evenodd">
    <g stroke-linecap="round">
      <path stroke="#ACD3EF" stroke-width="3" d="M231.75 24.316v11.368M226.324 30.25h10.352"/>
      <path stroke="#5563B6" stroke-width="2" d="M342 29.868v7M338.176 33.118h7M286 76.868v7M282.176 80.118h7"/>
      <path stroke="#ACD3EF" stroke-width="3" d="M460.75 37.316v11.368M455.324 43.25h10.352M300.75 190.316v11.368M295.324 196.25h10.352"/>
      <path stroke="#5563B6" stroke-width="2" d="M371.5 201.5v7M367.676 204.75h7M211 227.868v7M207.176 231.118h7M429 243.868v7M425.176 247.118h7"/>
      <path stroke="#ACD3EF" stroke-width="3" d="M407.75 153.316v11.368M402.324 159.25h10.352"/>
    </g>
    <g transform="translate(24 46)">
      <mask id="b" fill="#fff">
        <use xlink:href="#a"/>
      </mask>
      <g mask="url(#b)">
        <path d="m98.299 3.672 230.088-2.493L98.299 3.672ZM101.644-.432 332-13.972 101.644-.433ZM116.098-6.751 332-23 116.098-6.751Z" stroke="#E1F2FF" stroke-width="3" stroke-linecap="square"/>
        <path d="M158.927-18.28C119.767.116 95.156 12.228 85.093 18.053 70 26.791 52.671 35.307 30.82 46 16.252 53.128-6.087 63.597-36.198 77.407M162.889-14.11c-25.596 12.401-41.26 20.44-46.99 24.116-2.644 1.697-12.84 7.81-32.966 19.557C75.249 34.048 62.346 41.506 52 47.298c-8.387 4.696-19.183 7.578-36.52 16.912-7.984 4.297-21.781 12.795-41.394 25.492M173.172-12.646C149.25.604 133.115 9.994 124.763 15.52c-4.262 2.821-17.533 9.368-41.83 24.33-8.483 5.224-22.084 16.822-40.892 28.692-10.426 6.58-29.65 17.732-57.67 33.455M175.276-3.514-5.09 114.6 175.276-3.514ZM191.583-4.668 5.195 126.896 191.583-4.668ZM207.891-5.822 15.48 139.191 207.891-5.822ZM224.2-6.975 25.762 151.486 224.2-6.975ZM240.51-8.129 36.046 163.781 240.51-8.128ZM256.817-9.282 46.33 176.078 256.817-9.283ZM273.532-10.465 56.872 188.68l216.66-199.145ZM289.84-11.619c-25.458 24.137-44.72 42.74-57.784 55.812-13.065 13.07-31.992 32.673-56.78 58.807-34.704 29.741-58.008 50.002-69.911 60.782-3.336 3.021-7.938 9.648-10.86 12.295-18.557 16.816-27.673 25.115-27.349 24.898M306.147-12.772C240.042 53.01 192.289 100.43 162.887 129.489c-18.299 18.087-35.893 36.539-53.48 53.748-7.114 6.96-17.769 16.972-31.967 30.034M322.455-13.926 87.725 225.566l234.73-239.492Z" stroke="#E1F2FF" stroke-width="3" stroke-linecap="square"/>
        <path d="M87.52 10.006H147c8.63 0 43.176 6.582 75.077 7.515 24.278.71 44.144.71 59.6 0M76.163 14.588l217.655 25.264L76.163 14.588ZM64.798 19.19l211.28 39.498L64.798 19.19ZM53.424 23.812c11.05 1.986 19.056 3.534 24.016 4.642 7.44 1.663 126.116 37.552 135.903 40.09 6.524 1.69 15.6 2.425 27.227 2.201M42.041 28.454 240.57 96.421 42.04 28.454ZM30.65 33.116l192.152 82.201-192.153-82.2ZM19.248 37.799c9.093 2.36 15.66 4.652 19.702 6.877 65.468 36.035 108.654 61.905 131.488 70.641 24.949 9.545 36.478 15.85 34.588 18.917M7.838 42.501l179.402 110.67L7.838 42.5ZM-3.58 47.224C6.29 55.688 13.9 61.78 19.247 65.5c67.67 47.054 109.582 73.163 120.873 79.697 12.63 7.308 22.404 16.285 29.325 26.93M-15.009 51.966C-3.243 64.761 5.68 73.606 11.76 78.5c64.6 52.01 102.871 79.104 110.21 87.698 8.375 9.808 18.266 18.11 29.673 24.906M-26.446 56.729C-12.62 72.005-2.073 82.996 5.195 89.702c44.416 40.98 79.534 75.363 104.211 98.978 30.735 29.411 38.877 36.552 24.424 21.421M-38 61.393c27.538 29.66 46.62 50.657 57.248 62.992C36.814 144.773 49.18 163.205 61 176.077c22.546 24.554 40.846 42.195 54.9 52.923" stroke="#E1F2FF" stroke-width="3" stroke-linecap="square"/>
        <path d="m140.294 26.96 66.188 9.875a3 3 0 0 1 1.52 5.236L85.898 147.744a3 3 0 0 1-4.072-.134L33.471 99.848a3 3 0 0 1 .473-4.65l104.272-67.787a3 3 0 0 1 2.078-.452Z" fill="#FFF"/>
        <path d="M140.418 33.22c2.424.19 6.143.641 11.156 1.352 4.484.635 13.547 4.948 28.604 6.252 8.963.777 16.156 1.567 21.581 2.37a3 3 0 0 1 1.574 5.192L89.573 151.313a3 3 0 0 1-4.07-.04L39.252 107.72a3 3 0 0 1 .752-4.885c3.19-1.541 5.365-2.699 6.526-3.472C66.713 85.921 78.4 76.506 81.87 74.217c6.04-3.983 5.269-2.684 18.258-11.78 4.747-3.323 10.608-9.66 17.792-15.213 2.189-1.692 6.9-3.694 10.832-6.4 1.732-1.191 4.408-3.332 8.029-6.422a5 5 0 0 1 3.637-1.181Z" fill="#E1F2FF"/>
        <path d="m139.183 19.314 92.873 12.702c-7.04 5.053-21.978 18.466-44.816 40.24-22.838 21.773-56.887 55.063-102.147 99.871l-19.936-18.956-53.398-55.335c36.71-24.283 64.262-42.141 82.654-53.574 17.93-11.145 32.276-19.368 43.039-24.667a3 3 0 0 1 1.731-.281Zm-.197 7.663a2 2 0 0 0-1.47.306l-106.802 71.5c3.888 2.772 10.22 8.045 18.998 15.817 8.776 7.773 21.476 19.356 38.098 34.749 36.362-33.424 63.905-58.468 82.628-75.132s32.89-28.74 42.5-36.232c-14.89-1.94-26.984-3.573-36.28-4.898l-1.197-.171c-2.165-.31-4.17-.604-6.015-.879a985.358 985.358 0 0 1-30.46-5.06Z" stroke="#5563B6" stroke-width="5" fill="#FFF" stroke-linejoin="round"/>
        <path d="M109.406 93.313c1.604-4.438 4.298-7.333 8.083-8.685 2.686-.96 6.356 1.618 12.258 0 3.027-.83 6.485-4.555 10.374-11.175M121.176 70.745c.35-3.349 2.927-5.959 7.732-7.83 3.41-1.327 10.365-1.39 15.945-5.24" stroke="#FFF" stroke-width="4" stroke-linecap="round"/>
      </g>
    </g>
    <path d="M59.645 115.84c.545 1.815 2.642 2.707 4.683 1.991 2.042-.715 3.255-2.768 2.71-4.583-.545-1.816-2.642-2.708-4.683-1.992-2.042.715-3.255 2.767-2.71 4.583ZM79.431 104.043c.45 1.842 2.497 2.842 4.573 2.235 2.076-.608 3.395-2.594 2.946-4.436C86.5 100 84.453 99 82.377 99.608c-2.076.607-3.395 2.593-2.946 4.435Z" fill="#89C3EA"/>
    <path d="M63.025 113.281c-.35-6.187 2.943-9.281 9.876-9.281 4.44 0 5.599 5.783 5.99 16.447.146 3.992.146 11.51 0 22.553M83.025 101.281C82.675 95.094 85.968 92 92.901 92c4.44 0 5.599 5.783 5.99 16.447.146 3.992.146 11.51 0 22.553" stroke="#89C3EA" stroke-width="5" stroke-linecap="round" stroke-linejoin="round"/>
    <path stroke="#89C3EA" stroke-width="4" stroke-linecap="round" d="m79.476 124.5 19.047-13M80.476 136.5l19.047-13"/>
    <path d="M76 147c1.314-1.101 2.436-1.779 3.366-2.033.66-.18 1.636-.232 2.927-.157.352.021 1.254-.582 2.707-1.81M94 135c.418-.894 1.12-1.477 2.105-1.75.7-.193 1.825-.08 3.193 0 .373.023 1.274-.727 2.702-2.25" stroke="#FFF" stroke-width="3" stroke-linecap="round"/>
    <path d="M335.623 124.88c4.845-5.927 2.674-19.483 1.051-26.313 2.886-.408 4.673-.7 7.082-1.746 2.384-1.035 3.145-2.632 2.461-4.36-.907-2.296-3.077-2.429-6.483-2.13-3.787.331-12.112 1.125-16.01 1.822-.385.069-.777.13-1.166.194l-.388.065c-2.32.394-4.43.953-4.26 3.545.186 2.849 2.695 3.38 5.485 3.618 1.863.16 6.261-.308 6.261-.308l.015.073.026.124c.13.638.554 2.738.932 4.947l.09.531c.221 1.33.416 2.662.512 3.702.289 3.15 1.31 8.435-1.098 10.755-1.462 1.41-3.936.126-6.303-1.306l-.417-.253c-.622-.382-1.232-.762-1.81-1.096-2.219-1.28-4.38-.844-5.552 1.707-.84 1.826-.16 3.451 2.115 5.207 6.221 4.803 13.394 6.195 17.457 1.223Zm41.455-12.682c.5-5.184.669-11.525-.454-16.627-.534-2.425-2.4-3.24-4.133-3.016-1.984.255-2.41 1.927-2.582 3.619-.364 3.566 2.948 23.984-6.526 24.01-7.353.019-5.366-20.69-5.692-23.617-.363-3.25-1.74-4.785-4.435-4.064-3.039.813-2.859 4.198-2.982 6.72-.307 6.312.15 16.877 3.2 22.496 1.64 3.02 5.49 5.951 9.87 6.256 8.068.56 13.025-8.431 13.734-15.777Zm13.477 15.716c.773-.05 1.572-.116 2.374-.195l.688-.07c4.358-.463 8.649-1.237 9.433-1.495 2.047-.674 3.025-2.421 2.856-4.125-.243-2.454-2.427-2.94-4.126-2.917-.69.008-5.041.537-8.073.916l-.52.065c-1.43.179-2.456.31-2.456.31-.262-9.414-.363-13.433-.45-16.701l-.011-.374-.015-.552-.015-.546-.01-.363-.01-.365-.01-.367c-.034-1.17-.07-2.406-.118-3.936-.14-4.53-.446-7.393-4.819-6.964-2.531.249-2.764 3.442-2.71 6.483l.01.455c.012.453.028.898.042 1.327.21 6.703.136 15.375.541 21.831.208 3.315.139 5.154 1.588 6.746 1.1 1.208 4.66.91 5.811.837Zm36.655-5.45.001-.414c0-.83-.017-1.674.004-2.479.022-.82.032-1.944.034-3.167v-1.248l-.001-.635-.002-.634a751.372 751.372 0 0 0-.047-5.542c.297-.323 2.727-2.973 5.232-5.794l.501-.566c2.255-2.552 4.459-5.126 5.11-6.154.837-1.32 1.505-3.852-1.294-5.177-1.537-.728-3.414-.428-4.827 1.32-2.326 2.879-6.575 7.638-8.372 9.408-1.796-1.77-6.046-6.529-8.372-9.407-1.413-1.75-3.29-2.05-4.827-1.321-2.799 1.325-2.131 3.857-1.294 5.177 1.472 2.322 10.875 12.549 10.875 12.549v.038c.008.342.064 2.913.113 5.654l.016.917.01.61c.036 2.228.06 4.315.04 5.147-.068 3.078.126 7.176 3.386 7.252 3.316.077 3.687-2.583 3.714-5.535ZM277.657 187.62c1.456-.647 2.756-3.36 1.726-5.393-3.776-7.442-5.317-11.489-7.28-15.424-2.39-4.789-6.245-15.37-10.571-15.37-4.692 0-6.618 5.386-8.17 9.805-1.962 5.577-4.217 11.064-6.233 16.78-.806 2.285-1.84 5.555-.117 7.029.762.652 3.057 1.093 4.435-.07 1.726-1.456 3.698-7.36 3.698-7.36l13.588-.15s.954 1.968 1.945 3.988l.357.726c.672 1.364 1.31 2.645 1.626 3.242 1.298 2.45 3.004 3.082 4.996 2.197Zm-14.098-17.235h-.837c-1.979-.004-4.084-.024-5.18-.023.825-2.266 3.073-8.628 3.72-10.624.718 1.455 3.9 8.681 4.816 10.623-.673.016-1.56.023-2.52.024Zm46.811 1.813c.5-5.184.669-11.525-.454-16.627-.534-2.425-2.4-3.24-4.133-3.016-1.984.255-2.41 1.927-2.582 3.619-.364 3.566 2.948 23.984-6.526 24.01-7.353.019-5.366-20.69-5.692-23.617-.363-3.25-1.74-4.785-4.435-4.064-3.039.813-2.859 4.198-2.982 6.72-.307 6.312.15 16.877 3.2 22.496 1.64 3.02 5.49 5.951 9.87 6.256 8.068.56 13.025-8.431 13.734-15.777Zm28.896 10.516c2.676-4.511 2.775-11.117 2.778-11.575v-.025s3.838-.206 4.813-2.087c1.38-2.666-.696-5.176-4.504-5.452-1.555-.112-7.87.108-9.472.253-2.235.202-6.354 1.356-5.155 4.473.965 2.51 4.98 2.805 6.612 2.819h.237c.288-.002.457-.012.457-.012s.004.112.005.312v.191c-.016 1.98-.431 9.102-5.615 8.7-8.16-.634-8.429-19.904-.022-24.252 3.273-1.692 3.07-4.076 2.167-5.77-1.076-2.015-4.637-2.114-7.689 0-2.918 2.023-8.078 7.181-8.029 18.993.019 4.441 1.987 13.554 8.495 17.089 5.674 3.082 11.713 1.751 14.922-3.657Zm38.676-10.516c.5-5.184.669-11.525-.454-16.627-.534-2.425-2.4-3.24-4.133-3.016-1.984.255-2.41 1.927-2.582 3.619-.364 3.566 2.948 23.984-6.526 24.01-7.353.019-5.366-20.69-5.692-23.617-.363-3.25-1.74-4.785-4.435-4.064-3.039.813-2.859 4.198-2.982 6.72-.307 6.312.15 16.877 3.2 22.496 1.64 3.02 5.49 5.951 9.87 6.256 8.068.56 13.025-8.431 13.734-15.777Zm19.995 15.316c6.698-1.752 10.398-9.6 5.944-15.9-1.923-2.718-4.828-4.33-7.908-5.413-2.641-.929-6.46-1.188-5.883-5.287.425-3.013 3.236-3.857 5.458-3.045.503.184 1.03.413 1.565.637l.403.166c1.753.71 3.569 1.223 4.985-.22 2.543-2.593.282-5.535-2.967-6.908-2.856-1.207-6.605-1.173-9.554-.445-6.603 1.628-9.29 7.558-6.805 14.32 1.009 2.745 3.926 4.319 6.917 5.637l.528.23.527.226c4.123 1.758 7.972 3.233 6.7 6.848-1.273 3.62-6.382 2.301-10.45 1.324-2.912-.7-5.213.315-5.306 3.032-.182 5.268 11.368 5.969 15.846 4.798Zm25.123.486c3.765 0 4.386-4.715 4.412-8.75v-.51c-.008-1.604-.096-3.059-.095-4.008v-.318a747.294 747.294 0 0 0-.073-6.538l-.01-.702-.005-.352-.01-.704c-.06-4.103-.125-8.019-.125-8.019s2.233.182 5.562-.208c3.745-.439 5.957-1.602 6.071-3.784.157-2.99-2.208-3.642-7.341-3.642h-4.61l-.587.001h-2.247l-.545.001H414.5l-1.498-.002c-2.953-.003-4.854.755-4.74 3.604.069 1.735 1.547 2.995 3.795 3.44 3.102.614 7.444.688 7.444.688V159.013l-.001.163v.778l-.001.224v4.439l.007 2.885.002.742c.014 4.213.046 8.506.119 10.111.116 2.58-.504 9.645 3.433 9.645Z" fill="#5563B6" fill-rule="nonzero"/>
    <path d="M108.354 208.964c.016.115.02.196.022.223-.856-2.184-2.55-2.271-3.67-3.384a.485.485 0 0 0-.048-.058.977.977 0 0 1-.07-.081c-.258-.34-.325-.878-.253-1.526v-.01l.021-.163v-.002c.015-.1.033-.205.053-.31l.006-.032.019-.087.018-.09.022-.088.021-.093.017-.065c.211-.829.574-1.743 1-2.606.32.823.717 1.6 1.121 2.166.487.684 1.23 1.372 2.04 1.912.886-.639 1.724-1.419 2.306-2.165.485-.624.986-1.444 1.417-2.318l.078.206.021.062.053.148.023.069a12.678 12.678 0 0 1 .07.21l.06.191a.137.137 0 0 1 .005.02c.023.073.044.147.064.22l.005.018.054.199.01.04.045.183a9.615 9.615 0 0 1 .17.913l.002.008a6.289 6.289 0 0 1 .047 1.18 3.05 3.05 0 0 1-.011.13l-.001.005-.016.13-.003.018a2.901 2.901 0 0 1-.033.19l-.002.01a2.502 2.502 0 0 1-.079.293l-.017.047-.026.07-.022.05-.028.062a1.505 1.505 0 0 1-.055.107l-.026.044-.036.058-.027.04-.046.06-.023.03a1.21 1.21 0 0 1-.076.084.798.798 0 0 0-.045.051c-1.272 1.26-3 1.564-4.155 3.854" fill="#9452BA"/>
  </g>
</svg>
