<svg width="487" height="274" xmlns="http://www.w3.org/2000/svg">
  <g fill="none" fill-rule="evenodd">
    <g transform="translate(33.788 33)">
      <path d="M12.325 31.31c-.54-.103-.956-.254-1.248-.455-3.758-2.575-5.008-4.726-5.641-7.493-.633-2.767-1.52-4.37 1.323-10.125C9.603 7.482 14.67 2.92 21.63 1.696c6.65-1.17 24.727-6.689 42.542 11.54 17.815 18.23 16.549 34.548 8.274 51.542-8.274 16.994-17.151 23.005-24.152 36.154-5.265 9.887-5.802 20.56-5.708 31.84.138 16.318 11.663 40.394 34.578 72.228-15.466-4.394-26.51-9.346-33.13-14.856C24.248 173.68 9.547 147.49 4.087 132.773c-4.518-12.175-6.308-35.237 0-56.273 4.125-13.755 14.85-23.728 19.647-39.346.344-1.118.08-5.658-2.105-8.068-1.5-1.656-4.768-3.6-6.08-1.907a4.096 4.096 0 00-.855 2.296h0a2 2 0 01-2.37 1.835z" stroke="#5563B6" stroke-width="5" fill="#FFF"/>
      <path d="M23.945 3.313c6.618-1.17 22.567-8.215 40.295 10.007s16.468 34.532 8.234 51.519c-8.234 16.987-17.068 22.995-24.035 36.138-5.239 9.883-5.773 20.552-5.679 31.827.127 15.144 10.023 36.973 29.69 65.488a1 1 0 01-1.488 1.315c-14.123-12.543-23.524-22.911-28.202-31.103-3.433-6.011-14.462-38.533-8.795-59.167 7.654-27.868 30.992-45.608 28.568-70.54-3.208-32.99-41.58-34.955-38.588-35.484z" fill="#5563B6"/>
      <path d="M127.903 85.403c3.045-1.61 5.763 2.013 6.89 3.752 1.764 2.722 1.483 6.054 2.896 7.014 2.278 1.548 3.922.488 6.365 1.243 4.588 1.417 9.836 4.111 12.212 6.455 8.358 8.241 12.023 17.015 13.018 19.884.995 2.87-3.616 4.71-4.223 5.486-.722.923-1.96 2.3-2.736 2.944-.234.194-.779.3-1.633.318h0a2.557 2.557 0 00-2.503 2.557s0 0 0 0c0 1.601-1.324 1.347-1.923 1.601-6.922 2.941-13.693 1.16-18.577 2.02-4.929.868-7.941 4.37-8.36 6.123-.44 1.838-.988 5.94 1.894 7.097 4.709 1.892 14.631.623 19.88 3.642 6.37 3.666 7.797 11.433 5.163 13.877-.724.672-4.221 3.512-6.925 2.17-2.854-1.417-4.994-7.057-8.71-7.698-5.348-.925-8.04 4.304-12.728 5.528-4.504 1.175-11.083-1.731-12.487 1.186-1.171 2.435-2.338 12.8-6.102 21.02-2.485 5.426-8.933 8.795-7.173 12.335 1.854 3.727 11.259.255 16.355 1.36 7.926 1.72 11.763 6.81 9.407 7.878-6.507 2.95-26.346 2.496-44.988-2.946-1.79-.522-2.695-1.55-2.712-3.083h0a2 2 0 00-.656-1.46c-12.927-11.714-20.998-20.424-24.213-26.132-12.294-21.822-11.016-38.488-10.361-42.917 1.374-9.296 3.374-13.05 6.03-17.784 3.647-6.501 9.204-10.652 12.949-12.975 4.565-2.833 10.497-4.247 17.496-3.192 11.764 1.772 25.354 7.802 31.86 5.976 16.31-4.575 13.646-22.778 14.595-23.28z" stroke="#5563B6" stroke-width="5" fill="#FFF"/>
      <path d="M135.737 100.73c-1.177-1.282-1.97-2.227-2.38-2.836-2.116-3.137-3.263-5.382-4.212-6.39-3.203-3.4-5.849-3.926-6.6-3.246-.439.396-.825 2.551-1.214 5.196-.399 2.715-.786 5.966 0 9.904.343 1.717 1.727 3.932 4.153 6.642" stroke="#5563B6" stroke-width="4" fill="#FFF" stroke-linecap="round"/>
      <path d="M82.235 143.519c10.899-1.382 19.023-.003 24.373 4.139 5.35 4.14 8.124 11.588 8.323 22.342" stroke="#5563B6" stroke-width="4" stroke-linecap="round"/>
      <path d="M148.198 116c1.873 0 3.392-1.01 3.392-2.254 0-1.245-1.519-4.746-3.392-4.746s-4.534.91-4.534 3.508c0 2.597 2.661 3.492 4.534 3.492z" fill="#89C3EA"/>
      <circle fill="#FFF" cx="146.212" cy="112" r="1"/>
      <path d="M132.765 134c-1.832-1.192-3.3-2.336-4.405-3.432-1.103-1.096-2.277-3.62-3.521-7.568" stroke="#5563B6" stroke-width="3" stroke-linecap="round"/>
      <path d="M58.456 125c1.703-4.493 3.81-7.563 6.318-9.208 2.508-1.646 7.008-2.91 13.498-3.792M41.5 21.608c7.43 3.852 11.784 8.423 13.063 13.716 1.28 5.293-.67 13.76-5.852 25.402" stroke="#E1F2FF" stroke-width="4" stroke-linecap="round"/>
    </g>
    <path d="M133.922 208.74c.156.128.257.227.292.258.002.006 0-.005 0 0 0 .001 0 0 0 0-3.803-1.931-6.392-.462-9.332-.808a1.085 1.085 0 00-.139-.03 2.193 2.193 0 01-.196-.036c-.775-.182-1.5-.794-2.151-1.67l-.01-.013c-.056-.072-.108-.148-.16-.223l-.003-.003c-.095-.14-.19-.287-.283-.437l-.03-.045a4.553 4.553 0 00-.074-.127c-.026-.044-.052-.086-.076-.129l-.073-.13-.075-.136-.052-.097c-.656-1.233-1.189-2.715-1.57-4.192 0 0-.009-.014 0 0 1.43.732 2.916 1.332 4.17 1.664 1.513.4 3.405.569 5.222.488.557-1.624.878-3.38.862-4.855-.014-1.233-.236-2.725-.622-4.219.118.06.235.123.354.184l.104.058c.084.044.167.088.25.136a25.522 25.522 0 01.463.262c.104.061.207.122.309.184l.03.018c.12.07.236.144.353.217.01.005.018.011.027.017.106.066.207.132.31.199.022.013.042.028.063.04l.28.187a19.05 19.05 0 01.371.259c.33.238.646.48.942.724l.012.009c.494.41.932.83 1.292 1.247.052.062.103.123.152.184l.006.006v.001c.045.055.089.111.13.165v.002l.004.006c.045.06.089.118.13.178l.015.024c0 .001.002 0 .002.002a4.942 4.942 0 01.17.266c.003.004.005.01.01.014a3.743 3.743 0 01.225.44l.03.076c.016.037.029.074.043.111.01.027.018.054.026.083.012.033.022.069.032.103.008.027.014.054.02.082.009.034.017.068.024.103l.013.08c.006.036.01.072.014.106l.007.074c.002.04.003.078.003.12v.058c0 .06-.005.118-.012.176-.004.04-.006.074-.006.106-.399 2.76-2.58 4.752-1.606 8.691" fill="#9452BA"/>
    <g stroke-linecap="round">
      <path stroke="#ACD3EF" stroke-width="3" d="M223.75 23.316v11.368M218.324 29.25h10.352"/>
      <path stroke="#5563B6" stroke-width="2" d="M334 28.868v7M330.176 32.118h7M278 75.868v7M274.176 79.118h7"/>
      <path stroke="#ACD3EF" stroke-width="3" d="M452.75 36.316v11.368M447.324 42.25h10.352M292.75 189.316v11.368M287.324 195.25h10.352"/>
      <path stroke="#5563B6" stroke-width="2" d="M363.5 200.5v7M359.676 203.75h7M203 226.868v7M199.176 230.118h7M421 242.868v7M417.176 246.118h7"/>
      <path stroke="#ACD3EF" stroke-width="3" d="M399.75 152.316v11.368M394.324 158.25h10.352"/>
    </g>
    <path d="M214.154 128.568c5.955-1.557 9.244-8.534 5.284-14.133-1.71-2.416-4.291-3.85-7.029-4.812-2.348-.825-5.743-1.056-5.23-4.7.378-2.678 2.877-3.428 4.852-2.706 2.014.735 4.438 2.294 6.18.518 2.26-2.305.25-4.92-2.637-6.14-2.538-1.073-5.87-1.043-8.492-.396-5.87 1.447-8.258 6.718-6.05 12.728 2.243 6.101 15.087 5.693 13.043 11.504-1.132 3.218-5.673 2.046-9.29 1.177-2.588-.622-4.633.28-4.716 2.695-.161 4.682 10.105 5.305 14.085 4.265zm17.443.43c3.74-.047 9.036-.626 13.183-1.581 1.305-.3 2.858-1.545 2.72-3.631-.169-2.518-2.135-3.253-3.247-3.224-3.25.083-12.164 1.279-12.164 1.279l-.15-6.447s6.561-.393 9.386-1.005c3.473-.753 2.976-6.626-1.802-6.587-2.271.019-7.455.313-7.455.313l-.12-4.466h.037c.598-.01 8.418-.129 10.953-.305 2.14-.149 4.561-1.203 4.152-4.13-.335-2.399-3.13-2.918-5.363-2.953-2.504-.039-8.784-.272-12.725.309-1.313.193-3.157 1.989-3.21 4.084l-.093 19.36c.241 6.06.033 9.06 5.898 8.985zm23.848-.004c2.345-.146 2.893-2.391 3.025-3.99.331-4.015.314-6.171.314-6.171s5.91-1.94 7.783-2.95c3.74-2.013 7.766-4.985 7.286-10.641-.615-7.257-9.803-9.708-14.86-9.78-1.427-.02-5.177-.383-6.55 1.134-.498.55-.449 3.852-.427 5.483.084 6.194.143 17.444.16 22.264.01 2.95 1.352 4.771 3.27 4.651zm3.03-17.109l-.12-10.188.03-.001c.295-.007 2.733-.036 4.982.867 2.025.811 3.897 2.254 3.92 3.757.026 1.823-2.177 3.573-4.386 4.58-2.21 1.008-4.426.985-4.426.985zM289.19 129c4.842 0 3.835-8.773 3.837-11.794v-.303c-.01-3.251-.198-14.482-.198-14.482s1.985.162 4.945-.185c3.328-.39 5.294-1.423 5.396-3.363.14-2.659-1.963-3.237-6.526-3.237h-3.212c-4.523.001-7.502.004-13.182 0-2.625-.003-4.315.67-4.214 3.203.061 1.542 1.375 2.662 3.374 3.058 2.757.546 6.617.612 6.617.612v.57c-.005 2.744-.014 14.57.112 17.348.103 2.293-.448 8.573 3.051 8.573zm23.207-.001c3.74-.048 9.036-.627 13.183-1.582 1.305-.3 2.858-1.545 2.72-3.631-.169-2.518-2.135-3.253-3.247-3.224-3.25.083-12.164 1.279-12.164 1.279l-.15-6.447s6.561-.393 9.386-1.005c3.473-.753 2.976-6.626-1.802-6.587-2.271.019-7.455.313-7.455.313l-.12-4.466h.037c.598-.01 8.418-.129 10.953-.305 2.14-.149 4.561-1.203 4.152-4.13-.335-2.399-3.13-2.918-5.363-2.953-2.504-.039-8.784-.272-12.725.309-1.313.193-3.157 1.989-3.21 4.084l-.093 19.36c.241 6.06.033 9.06 5.898 8.985zm50.151.001c1.625-.016 2.765-1.3 2.847-3.203.312-7.23-.083-22.322-.116-24.933-.03-2.235.142-5.463-2.466-5.528-2.571-.066-4.201 2.331-5.615 3.947-1.598 1.826-7.548 8.288-7.548 8.288s-6.706-6.656-8.487-8.562c-1.705-1.823-2.777-3.402-5.236-3.55-2.08-.125-3.003 1.652-3.108 3.568-.083 1.514.187 18.444.214 21.526.028 3.192.46 5.493 2.778 5.474 2.437-.02 3.447-1.93 3.581-4.014.189-2.918-.12-14.638-.12-14.638l.024.027c.436.489 6.61 7.333 10.4 7.387 3.558.052 7.67-6.288 9.196-7.689.2 1.784.043 17.945.447 19.322.423 1.446 1.382 2.596 3.21 2.578zm15.676-.131c8.908-.678 15.68-4.03 15.53-11.646-.05-2.561-1.858-7.112-7.616-7.245 0 0 4.44-2.32 3.493-8.057-.904-5.475-6.415-6.638-10.21-6.48-3.004.123-7.666-.17-8.9 3.682-.818 2.547-.495 21.525-.02 25.808.475 4.28 3.336 4.272 7.723 3.938zm-1.706-21.146l-.126-6.233s6.678-2.062 7.323 1.332c.866 4.568-5.525 4.254-7.197 4.9zm.097 15.052c-.37-.829-.276-6.233-.276-6.233s9.798-4.11 10.687.91c.527 2.973-7.494 5.275-10.411 5.323zM402.989 129c3.74-.048 9.036-.627 13.183-1.582 1.305-.3 2.858-1.545 2.72-3.631-.169-2.518-2.135-3.253-3.247-3.224-3.25.083-12.164 1.279-12.164 1.279l-.15-6.447s6.561-.393 9.386-1.005c3.473-.753 2.976-6.626-1.802-6.587-2.271.019-7.455.313-7.455.313l-.12-4.466h.037c.598-.01 8.418-.129 10.953-.305 2.14-.149 4.561-1.203 4.152-4.13-.335-2.399-3.13-2.918-5.363-2.953-2.504-.039-8.784-.272-12.725.309-1.313.193-3.157 1.989-3.21 4.084l-.093 19.36c.241 6.06.033 9.06 5.898 8.985zm23.704.001c1.51 0 2.852-1.534 3.025-3.275.335-3.39.067-6.216.154-8.837 3.284 2.812 5.522 5.28 9.583 7.945 2.14 1.404 5.08 2.982 6.878 1.794 2.723-1.797.963-4.296-.33-5.317-4.593-3.623-8.705-7.006-8.705-7.006s7.123-2.945 7.212-9.974c.055-4.284-2.15-8.766-11.743-8.728-2.932.012-7.377.226-8.442 1.655-1.088 1.459-.904 10.842-.92 13.77-.02 3.736-.02 9.992.093 14.298.04 1.506 1.11 3.675 3.195 3.675zm3.122-19.55l-.001-6.8s6.602-2.029 7.556 1.816c1.184 4.769-7.555 4.984-7.555 4.984z" fill="#5563B6" fill-rule="nonzero"/>
  </g>
</svg>
