<svg width="487" height="274" xmlns="http://www.w3.org/2000/svg">
  <g fill="none" fill-rule="evenodd">
    <path stroke="#ACD3EF" stroke-width="3" stroke-linecap="round" d="M250.25 23.316v11.368M255.676 29.25h-10.352"/>
    <path stroke="#5563B6" stroke-width="2" stroke-linecap="round" d="M140 28.868v7M143.824 32.118h-7M196 75.868v7M199.824 79.118h-7"/>
    <path stroke="#ACD3EF" stroke-width="3" stroke-linecap="round" d="M21.25 36.316v11.368M26.676 42.25H16.324M181.25 189.316v11.368M186.676 195.25h-10.352"/>
    <path stroke="#5563B6" stroke-width="2" stroke-linecap="round" d="M110.5 200.5v7M114.324 203.75h-7M271 226.868v7M274.824 230.118h-7M53 242.868v7M56.824 246.118h-7"/>
    <path stroke="#ACD3EF" stroke-width="3" stroke-linecap="round" d="M74.25 152.316v11.368M79.676 158.25H69.324"/>
    <path d="M104.946 139.534c5.383-6.587 2.97-21.648 1.167-29.237 3.207-.454 5.192-.778 7.87-1.94 2.648-1.15 3.494-2.924 2.734-4.846-1.008-2.55-3.42-2.697-7.204-2.366-4.207.369-13.457 1.25-17.788 2.025-3.138.56-6.691.707-6.46 4.227.206 3.165 2.994 3.755 6.094 4.02 2.07.177 6.957-.342 6.957-.342s1.417 6.797 1.75 10.419c.32 3.5 1.454 9.372-1.22 11.95-2.151 2.074-6.27-1.098-9.478-2.95-2.466-1.423-4.867-.939-6.17 1.896-.931 2.03-.177 3.834 2.351 5.786 6.912 5.337 14.882 6.883 19.397 1.358zm46.06-14.092c.557-5.76.744-12.806-.504-18.474-.593-2.694-2.667-3.6-4.592-3.352-2.205.284-2.677 2.142-2.869 4.022-.404 3.962 3.275 26.649-7.251 26.677-8.17.021-5.962-22.989-6.325-26.24-.403-3.612-1.934-5.317-4.927-4.516-3.377.904-3.177 4.664-3.313 7.467-.342 7.012.166 18.751 3.556 24.995 1.822 3.356 6.1 6.613 10.966 6.951 8.964.623 14.472-9.368 15.26-17.53zm42.447 14.076c2.078-4.814 1.661-29.54 1.576-33.453-.048-2.215-.026-5.043-3.75-5.076-2.607-.022-3.66 2.512-4.083 5.443-.397 2.758-.41 19.245-.704 23.716-5.58-6.209-14.274-20.581-17.384-22.747-3.356-2.337-5.465-2.412-7.797-1.41-2.45 1.05-3.86 3.916-3.948 5.904-.113 2.559-.42 19.175-.18 25.826.071 1.962.48 5.213 4.075 5.239 2.998.02 3.476-3.74 3.629-5.834.467-6.418.386-16.962.354-20.793 3.148 4.011 14.773 20.37 17.379 22.973 1.55 1.549 2.457 3.539 5.543 3.688 2.026.099 4.255-1.078 5.29-3.476zm14.693 3.48c4.674-.06 11.295-.783 16.479-1.977 1.631-.376 3.573-1.931 3.4-4.54-.21-3.146-2.67-4.064-4.06-4.029-4.06.104-15.204 1.6-15.204 1.6l-.186-8.059s8.2-.491 11.73-1.257c4.343-.941 3.72-8.283-2.251-8.233-2.84.023-9.32.391-9.32.391l-.148-5.583h.037c.675-.01 10.518-.16 13.699-.38 2.676-.187 5.702-1.505 5.19-5.163-.418-3-3.911-3.647-6.703-3.691-3.13-.05-10.98-.34-15.906.385-1.642.242-3.947 2.486-4.012 5.106l-.117 24.199c.302 7.576.041 11.326 7.372 11.231z" fill="#5563B6" fill-rule="nonzero"/>
    <path stroke="#5563B6" stroke-width="4" fill="#FFF" stroke-linejoin="round" d="M363.5 44l9.5 43h-19zM451 131.5l-43 8.5v-17z"/>
    <path stroke="#5563B6" stroke-width="4" fill="#5563B6" stroke-linejoin="round" d="M276 131.5l43 8.5v-17z"/>
    <path stroke="#5563B6" stroke-width="4" fill="#FFF" stroke-linejoin="round" d="M269 74.387l55.295 43.084 8.755-14.552z"/>
    <path stroke="#5563B6" stroke-width="4" fill="#5563B6" stroke-linejoin="round" d="M325.206 63.75l9.441 34.52 14.868-8.232z"/>
    <path stroke="#5563B6" stroke-width="4" fill="#FFF" stroke-linejoin="round" d="M402.793 63.75l-9.442 34.52-14.867-8.232zM326.102 199.57l9.442-34.52 14.867 8.23z"/>
    <path stroke="#5563B6" stroke-width="4" fill="#5563B6" stroke-linejoin="round" d="M403.689 199.57l-9.442-34.52-14.867 8.23z"/>
    <path stroke="#5563B6" stroke-width="4" fill="#FFF" stroke-linejoin="round" d="M454.142 76.004l-55.295 43.084-8.755-14.552zM272.858 187.115l55.295-43.084 8.755 14.552zM458 188.732l-55.295-43.084-8.755 14.552zM363.5 219l9.5-43h-19z"/>
    <ellipse stroke="#5563B6" stroke-width="5" fill="#FFF" cx="364" cy="129.5" rx="46" ry="45.5"/>
    <path d="M388.307 114.757c.138.12.227.212.258.241.002.006 0-.005 0 0 0 .001 0 0 0 0-3.358-1.802-5.645-.43-8.241-.754a.913.913 0 00-.123-.027 1.843 1.843 0 01-.173-.034c-.684-.17-1.326-.741-1.9-1.559l-.009-.013c-.049-.067-.095-.138-.141-.208 0 0-.001-.002-.003-.002-.084-.13-.168-.268-.25-.408l-.026-.043a4.313 4.313 0 00-.065-.118l-.068-.12-.064-.122-.066-.126-.046-.09c-.58-1.152-1.05-2.535-1.387-3.913 0 0-.007-.013 0 0 1.263.682 2.576 1.243 3.684 1.552 1.335.374 3.006.531 4.611.456.492-1.515.775-3.155.761-4.531-.013-1.151-.208-2.544-.55-3.938.105.056.209.115.313.172l.092.053c.074.042.148.083.22.128a22.255 22.255 0 01.41.244c.092.058.183.114.273.172.009.005.018.01.027.017.105.066.208.134.311.202l.024.016.274.186c.02.012.037.026.056.038l.246.174a16.836 16.836 0 01.328.241c.292.223.57.448.832.677l.01.007c.437.384.824.775 1.142 1.165.046.057.09.114.134.171l.005.006.115.155v.002l.004.005c.04.056.078.11.114.166l.014.023.001.002a4.648 4.648 0 01.151.248c.003.004.004.009.008.013a3.561 3.561 0 01.2.41l.026.071.038.105.023.076a1.168 1.168 0 01.046.173l.02.097c.005.024.008.05.012.075l.013.099.006.068c.002.037.002.073.003.112v.054c0 .056-.005.11-.011.164-.004.037-.006.07-.006.1-.352 2.576-2.278 4.435-1.418 8.111" fill="#9452BA"/>
    <path d="M359 163.969c9.934.271 17.288-1.227 22.061-4.495 7.16-4.903 11.386-9.181 14.608-14.096C397.816 142.1 399.26 137.64 400 132" stroke="#E1F2FF" stroke-width="5" stroke-linecap="round"/>
    <path stroke="#89C3EA" stroke-width="3" stroke-linecap="round" d="M300.5 64.5l17 17M329.5 23.5l17 50M390.5 35.5L381 73M447.5 48.5l-34.75 33.25M317.625 179.375l-34.75 33.25M379.5 189.5l11 30M410.125 179.375L440.5 233.5M421.5 148.5l42 4M422 115l20.5-8.5M285.75 158.75l20.5-8.5M289.5 110.5l15.75 4.75M346.125 193.375L341.5 212.5"/>
  </g>
</svg>
