<?xml version="1.0" encoding="UTF-8"?>
<svg width="487px" height="274px" viewBox="0 0 487 274" version="1.1" xmlns="http://www.w3.org/2000/svg" xmlns:xlink="http://www.w3.org/1999/xlink">
    <title>illus-november-20</title>
    <g id="illus-november-20" stroke="none" stroke-width="1" fill="none" fill-rule="evenodd">
        <g id="Group" transform="translate(47.000000, 22.000000)" stroke-linecap="round">
            <line x1="234.25" y1="0.315789474" x2="234.25" y2="11.6842105" id="Line-16" stroke="#ACD3EF" stroke-width="3"></line>
            <line x1="239.676471" y1="6.25" x2="229.323529" y2="6.25" id="Line-16" stroke="#ACD3EF" stroke-width="3"></line>
            <line x1="124" y1="5.86842105" x2="124" y2="12.8684211" id="Line-16" stroke="#5563B6" stroke-width="2"></line>
            <line x1="127.823529" y1="9.11842105" x2="120.823529" y2="9.11842105" id="Line-16" stroke="#5563B6" stroke-width="2"></line>
            <line x1="180" y1="52.8684211" x2="180" y2="59.8684211" id="Line-16" stroke="#5563B6" stroke-width="2"></line>
            <line x1="183.823529" y1="56.1184211" x2="176.823529" y2="56.1184211" id="Line-16" stroke="#5563B6" stroke-width="2"></line>
            <line x1="5.25" y1="13.3157895" x2="5.25" y2="24.6842105" id="Line-16" stroke="#ACD3EF" stroke-width="3"></line>
            <line x1="10.6764706" y1="19.25" x2="0.323529412" y2="19.25" id="Line-16" stroke="#ACD3EF" stroke-width="3"></line>
            <line x1="165.25" y1="166.315789" x2="165.25" y2="177.684211" id="Line-16" stroke="#ACD3EF" stroke-width="3"></line>
            <line x1="170.676471" y1="172.25" x2="160.323529" y2="172.25" id="Line-16" stroke="#ACD3EF" stroke-width="3"></line>
            <line x1="94.5" y1="177.5" x2="94.5" y2="184.5" id="Line-16" stroke="#5563B6" stroke-width="2"></line>
            <line x1="98.3235294" y1="180.75" x2="91.3235294" y2="180.75" id="Line-16" stroke="#5563B6" stroke-width="2"></line>
            <line x1="255" y1="203.868421" x2="255" y2="210.868421" id="Line-16" stroke="#5563B6" stroke-width="2"></line>
            <line x1="258.823529" y1="207.118421" x2="251.823529" y2="207.118421" id="Line-16" stroke="#5563B6" stroke-width="2"></line>
            <line x1="37" y1="219.868421" x2="37" y2="226.868421" id="Line-16" stroke="#5563B6" stroke-width="2"></line>
            <line x1="40.8235294" y1="223.118421" x2="33.8235294" y2="223.118421" id="Line-16" stroke="#5563B6" stroke-width="2"></line>
            <line x1="58.25" y1="129.315789" x2="58.25" y2="140.684211" id="Line-16" stroke="#ACD3EF" stroke-width="3"></line>
            <line x1="63.6764706" y1="135.25" x2="53.3235294" y2="135.25" id="Line-16" stroke="#ACD3EF" stroke-width="3"></line>
        </g>
        <path d="M54.255334,131.866006 C55.1281286,129.844234 55.5119468,123.91953 55.6652976,117.817073 L55.6893769,116.769891 L55.6893769,116.769891 L55.7092303,115.723397 C55.7389586,113.982132 55.7522849,112.261109 55.7552593,110.647215 L55.7552593,109.22598 C55.748987,105.679845 55.6974124,102.838303 55.6738948,101.75848 C55.6698614,101.573063 55.6663739,101.382869 55.6606682,101.190367 L55.6501003,100.900193 L55.6501003,100.900193 L55.6341317,100.608409 C55.5211977,98.9052444 55.0267788,97.2144535 52.2989887,97.1900877 C49.9524095,97.1698381 49.0043295,99.4507311 48.6241268,102.089176 C48.4362603,103.393361 48.3437089,108.108607 48.2599223,112.874012 L48.2437917,113.796073 C48.1741655,117.78656 48.1067769,121.659803 47.9905634,123.432949 C46.2910572,121.541785 44.2703231,118.808889 42.2319734,115.945115 L41.6758512,115.161375 C41.5831674,115.030389 41.4905043,114.899266 41.3978902,114.768073 L40.843024,113.980606 C37.3354956,108.994755 33.9812797,104.100438 32.3449769,102.96089 C29.3250347,100.857641 27.4266098,100.78969 25.327891,101.691175 C23.1230388,102.637313 21.8542942,105.216544 21.7750179,107.005601 C21.6730912,109.308497 21.3974041,124.262922 21.61323,130.249093 C21.6769743,132.014527 22.0445576,134.940956 25.2803257,134.96393 C27.9779856,134.982697 28.4083431,131.597437 28.5455393,129.713249 C28.9661893,123.93708 28.8937081,114.447867 28.8642626,110.999832 C30.1039459,112.57913 32.8038618,116.28551 35.6453912,120.151693 L36.2559773,120.98189 C39.7228022,125.692073 43.259557,130.43069 44.5053177,131.675419 C44.7458804,131.915703 44.9692445,132.167798 45.1884238,132.421181 L45.4502632,132.725186 C46.4090831,133.837195 47.3876616,134.892631 49.4945483,134.994993 C51.3179036,135.083653 53.323756,134.024263 54.255334,131.866006 Z M90.9863879,118.622092 C91.9435284,108.046956 83.6518724,102.335501 77.3861317,101.562476 C68.8873873,100.514088 59.8152648,106.002598 59.5172507,116.447009 C59.2464163,125.940752 65.747398,132.967546 75.0062244,133.211523 C83.0584327,133.424113 90.123085,128.161136 90.9863879,118.622092 Z M73.2941809,126.016793 C68.0341165,125.042826 65.4833608,120.386232 66.5731678,115.691456 C67.8396464,110.236923 71.7380999,108.646543 75.9721022,108.913818 C80.2061046,109.181092 84.5407394,112.62492 84.20422,117.931903 C83.8143102,124.06886 78.1041503,126.907599 73.2941809,126.016793 Z M113.701145,132.752941 C115.038812,131.033939 118.13253,124.811072 120.989713,118.564867 L121.427145,117.604332 C124.109818,111.687353 126.487623,105.956177 126.859073,104.236765 C127.26678,102.349017 127.033481,99.9775228 124.492756,99.3429888 C122.482697,98.8411212 120.554827,101.421646 119.460813,103.617115 C116.698115,109.16128 109.141949,126.144532 109.142273,126.144532 C106.679852,120.946595 103.876383,114.296121 101.479326,108.159487 C100.358132,105.290008 98.3163628,101.110043 95.4242333,102.598496 C93.759107,103.455327 93.0368834,105.195847 93.7037749,107.756957 C95.1080984,113.148717 100.384665,125.980155 104.127478,131.897728 C105.334096,133.80586 106.863321,134.705727 108.653347,134.95747 C109.827931,135.122494 112.039579,134.888548 113.701145,132.752941 Z M137.427749,134.998549 C141.634248,134.944835 147.593238,134.293151 152.258245,133.218876 C153.726637,132.880738 155.474275,131.480946 155.317664,129.133719 C155.128695,126.301452 152.916077,125.475036 151.665129,125.507071 C148.010006,125.600261 137.981066,126.946017 137.981066,126.946017 L137.81313,119.69369 C137.81313,119.69369 140.90322,119.508493 143.945295,119.191135 L144.497172,119.131989 C145.963708,118.970446 147.374247,118.77859 148.371117,118.562466 C152.279277,117.715342 151.719166,111.107903 146.344232,111.152557 C143.789269,111.17359 137.957445,111.504609 137.957445,111.504609 L137.823484,106.479785 L137.858722,106.479264 C138.486516,106.46992 147.326692,106.335562 150.185735,106.137117 C152.594117,105.969828 155.317663,104.783595 154.857537,101.491201 C154.480246,98.7919233 151.336698,98.2085142 148.8238,98.1690375 C146.007388,98.1247077 138.942089,97.8626102 134.50844,98.5159116 C133.030664,98.7336788 130.956213,100.753445 130.89797,103.111026 L130.792807,124.89001 C131.063964,131.709067 130.829694,135.083326 137.427749,134.998549 Z M193.847734,135.000097 C195.675295,134.981739 196.958601,133.537939 197.05082,131.396832 C197.143211,129.250511 197.180327,126.488227 197.184361,123.530545 L197.184361,122.590535 C197.183456,121.645011 197.179469,120.684416 197.173093,119.721994 L197.161824,118.278647 C197.10169,111.552083 196.941533,105.060485 196.919448,103.346606 C196.886767,100.833062 197.079943,97.201559 194.146072,97.12746 C191.252971,97.0536846 189.419262,99.7503739 187.828234,101.568228 C187.089855,102.412128 185.525636,104.135687 183.9385,105.873973 L183.524472,106.327204 C181.3881,108.664749 179.336932,110.892417 179.336932,110.892417 C179.336932,110.892417 179.327962,110.883514 179.310559,110.866233 L179.177131,110.733696 C179.094139,110.651237 178.980632,110.538425 178.840902,110.399469 L178.612176,110.171952 C177.952654,109.515759 176.907891,108.474931 175.752536,107.31884 L175.092795,106.658158 C174.944398,106.509427 174.795078,106.359685 174.645371,106.209456 L173.970889,105.531927 C172.249792,103.80116 170.583934,102.110526 169.789151,101.260183 C167.871635,99.2087062 166.665017,97.4325932 163.898436,97.2659509 C161.559299,97.1255187 160.520294,99.1245762 160.402512,101.280245 C160.355917,102.131899 160.408499,107.31932 160.476571,112.727259 L160.488046,113.629919 C160.553718,118.748562 160.629061,123.859973 160.643577,125.497379 C160.674964,129.087788 161.160329,131.676402 163.768682,131.65537 C166.510348,131.632395 167.646102,129.483845 167.797536,127.139855 C167.843185,126.432745 167.862851,125.266257 167.865607,123.871079 L167.86514,122.944946 C167.851175,117.861765 167.66131,110.671414 167.66131,110.671414 C167.66131,110.671414 174.96638,118.949156 179.388704,119.0129 C183.391349,119.071144 188.017203,111.938217 189.734102,110.363045 C189.958664,112.369868 189.783286,130.550354 190.237588,132.09964 C190.71357,133.725938 191.792374,135.020245 193.847734,135.000097 Z M211.483437,134.852632 C221.503963,134.089638 229.123549,130.31835 228.95529,121.750684 C228.898664,118.869233 226.864013,113.7496 220.386653,113.600108 C220.386652,113.600107 225.381383,110.989813 224.315845,104.536074 C223.298843,98.3771136 217.098464,97.0685689 212.829839,97.2452417 C209.450404,97.3850268 204.205547,97.0549783 202.816108,101.387995 C201.896827,104.253915 202.25988,125.60416 202.794752,130.422542 C203.329302,135.238012 206.547596,135.228305 211.483437,134.852632 Z M209.563979,111.062943 C209.5478,110.295742 209.422252,104.051034 209.422252,104.051034 C209.422252,104.051033 216.935059,101.731958 217.659871,105.549841 C218.635131,110.689211 211.444931,110.335542 209.563979,111.062943 Z M209.672701,127.997334 C209.409479,127.408152 209.355097,124.765948 209.350754,122.899032 L209.350618,122.450092 C209.352065,121.591062 209.362714,120.984778 209.362714,120.984778 C209.362714,120.984778 220.385034,116.361836 221.385534,122.009545 C221.97768,125.353065 212.95474,127.942973 209.672701,127.997334 Z M239.343749,134.998549 C243.550248,134.944835 249.509238,134.293151 254.174245,133.218876 C255.642637,132.880738 257.390275,131.480946 257.233664,129.133719 C257.044695,126.301452 254.832077,125.475036 253.581129,125.507071 C249.926006,125.600261 239.897066,126.946017 239.897066,126.946017 L239.72913,119.69369 C239.72913,119.69369 242.81922,119.508493 245.861295,119.191135 L246.413172,119.131989 C247.879708,118.970446 249.290247,118.77859 250.287117,118.562466 C254.195277,117.715342 253.635166,111.107903 248.260232,111.152557 C245.705269,111.17359 239.873445,111.504609 239.873445,111.504609 L239.739484,106.479785 L239.774722,106.479264 C240.402516,106.46992 249.242692,106.335562 252.101735,106.137117 C254.510117,105.969828 257.233663,104.783595 256.773537,101.491201 C256.396246,98.7919233 253.252698,98.2085142 250.7398,98.1690375 C247.923388,98.1247077 240.858089,97.8626102 236.42444,98.5159116 C234.946664,98.7336788 232.872213,100.753445 232.81397,103.111026 L232.708807,124.89001 C232.979964,131.709067 232.745694,135.083326 239.343749,134.998549 Z M266.010738,135.000181 C267.709516,135.000181 269.219649,133.274546 269.413471,131.315289 C269.790115,127.50226 269.489189,124.322147 269.587556,121.373715 C273.281509,124.537651 275.798937,127.31491 280.367841,130.311878 C282.776224,131.891256 286.082855,133.666399 288.105857,132.330674 C291.168835,130.308319 289.189516,127.497083 287.734391,126.349033 C282.567193,122.272936 277.941015,118.467025 277.941015,118.467025 C277.941015,118.467025 285.954071,115.153599 286.055027,107.246029 C286.11683,102.426676 283.635967,97.3843781 272.84371,97.4271401 C269.545816,97.4403567 264.544936,97.6810979 263.346084,99.2895985 C262.381701,100.583352 262.306438,107.419223 262.309028,111.867718 L262.309868,112.500755 C262.310875,113.012549 262.312451,113.483085 262.313124,113.897982 L262.313045,114.581599 C262.312857,114.65019 262.312598,114.716209 262.312256,114.779543 C262.289606,118.983129 262.289606,126.020925 262.416771,130.86584 C262.461101,132.559765 263.664807,135.000181 266.010738,135.000181 Z M269.523164,113.006666 L269.521223,105.35634 C269.521223,105.35634 276.948929,103.073829 278.022557,107.399081 C279.354722,112.764307 269.523164,113.006343 269.523164,113.006666 Z" id="November" fill="#5563B6" fill-rule="nonzero"></path>
        <g id="Group-3" transform="translate(378.707577, 154.374860) scale(-1, 1) translate(-378.707577, -154.374860) translate(290.707577, 62.874860)">
            <path d="M43.4173026,0.0949763878 C43.7364167,-0.40756312 47.0396899,1.20776302 48.4824419,2.04542802 C50.9968337,3.50528954 52.7688143,5.51970419 54.382088,5.6770629 C55.4985242,5.78596007 60.9629792,6.60093414 64.2463528,7.79589735 C66.7346431,8.70149498 67.1628515,10.1826227 68.1340129,9.68795716 C69.7409435,8.86945958 64.1835148,1.76372152 65.2598908,2.04542802 C67.167905,2.54478882 69.4025701,3.50361494 72.7751618,5.6770629 C73.8068556,6.34193222 78.2892206,7.16421563 81.2627251,9.68795716 C84.2289065,12.2054833 85.6851987,16.4252156 87.5552116,16.4929971 C89.9387057,16.5793905 87.7434463,7.48796713 88.2411761,7.79589735 C89.1620225,8.36559683 89.0040537,9.89855244 90.2924231,10.9935612 C92.589424,12.9458245 96.5548333,14.8900244 98.5723444,17.3561391 C100.324935,19.4984273 100.715389,21.158481 102.215741,23.1983764 C104.313677,26.0507507 105.734315,27.621718 106.890551,29.8267366 C111.23599,38.1137762 109.4603,41.1376035 113.871854,41.6503283 C118.555681,42.1946976 119.843369,36.0961127 120.945467,29.7648 C121.294839,27.7577379 122.788226,30.6771059 123.202575,28.8274778 C123.469179,27.6373725 123.897681,25.5565513 123.938459,23.1983764 C123.970042,21.3719821 123.570368,19.1365728 123.938459,18.5532708 C124.986533,16.8924202 128.129769,25.8232025 130.239999,24.5877201 C131.076231,24.0981293 130.879064,21.3368559 132.231866,18.5532708 C132.673016,17.6455406 134.111809,17.1688337 135.285054,15.4377104 C135.99616,14.3884743 135.579113,9.52704678 136.156747,9.68795716 C136.812977,9.87076166 137.124725,14.4001177 137.752781,16.1251401 C139.023992,19.6166597 140.468146,21.5935221 140.878812,23.1983764 C141.483909,25.5630564 140.77093,27.2601608 140.878812,28.8274778 C140.99137,30.4627301 141.650295,32.6284755 143.136584,32.6284755 C144.622874,32.6284755 146.580954,25.4381955 147.175003,26.5891408 C148.739866,29.6209982 148.889448,33.0413589 149.589681,34.8494534 C151.769149,40.4771321 149.855411,47.2252111 151.187396,49.3852533 C151.94677,50.6167081 154.580118,50.0476334 156.305668,48.8077976 C157.498797,47.9505155 157.938003,46.2113192 158.334873,46.8253629 C159.350441,48.3966688 157.668147,51.1212534 157.526209,53.6786425 C157.363297,56.6139208 158.591952,59.4536606 157.526209,62.1756531 C156.244895,65.4482309 153.956491,67.261539 153.801977,69.3182264 C153.703567,70.6281323 156.896089,67.5216837 157.526209,68.5023957 C158.95879,70.7320509 145.936358,80.8694549 154.901821,89.0843552 C155.721966,89.8358395 157.925191,90.6069753 159.816418,90.041005 C161.908565,89.4149074 163.687283,87.3898557 164.29651,87.1224207 C166.455219,86.1748011 169.465451,86.4042489 171.118484,85.034754 C173.227272,83.2876769 176.86944,77.4320266 175.632143,79.7177104 C174.394847,82.0033942 174.394847,85.8627268 173.221237,89.0843552 C172.477897,91.1248682 171.453707,91.8105254 171.118484,94.4599936 C170.253997,101.292529 169.043423,105.36397 162.784282,109.951719 C160.906716,111.327915 145.29195,114.634165 150.353487,117.063002 C155.415024,119.49184 143.580519,120.802884 137.190189,122.73751 C133.896729,123.73458 128.885219,124.302387 122.15566,124.44093 C118.417358,124.476754 116.097358,125.296192 115.195662,126.899244 C109.55895,136.920286 100.372887,145.025659 96.6766343,147.637185 C88.5097616,153.407352 81.1901017,153.532305 80.6364187,153.653164 C78.2775071,154.168073 75.0915005,156.440338 72.7751618,156.339175 C70.5871568,156.243617 68.9632056,155.297288 66.8306868,155.157857 C62.2069851,154.855546 57.9772473,155.238358 54.382088,154.397194 C49.9254628,153.354472 48.9798471,152.676436 45.3194394,151.557612 C42.6183589,150.732011 39.2802024,152.33778 37.3264487,151.557612 C35.0992586,150.668255 42.4466524,149.72554 48.4824419,146.529724 C51.1728379,145.105219 51.0762559,143.674901 52.7430994,141.82082 C54.6114802,139.742563 57.6169024,140.476088 56.8675323,135.631176 C56.3591368,132.34424 53.2535367,131.060045 49.0584135,129.92322 C47.8418896,129.593558 46.6824373,127.249365 45.3194394,126.899244 C43.6685606,126.475173 41.7885174,128.029832 40.04202,127.42898 C38.2955851,126.828151 45.2537858,122.37456 43.4173026,121.727234 C41.5808194,121.079908 39.7709371,122.999359 37.3264487,122.73751 C34.7824334,122.464999 30.7016537,122.73178 28.1769531,121.727234 C25.2145101,120.548516 23.8629794,118.036903 21.7401868,117.063002 C20.0520982,116.288536 18.4020344,117.203251 17.9798505,116.385952 C15.6363217,111.849154 29.9293007,116.391857 30.7120561,109.951719 C31.0821778,106.906534 29.1815101,106.135597 25.8366546,102.818921 C24.6073614,101.599985 23.4910418,99.4488156 21.7401868,98.622424 C20.4593952,98.017899 18.564724,98.7935098 17.4057594,97.8146411 C16.7630833,97.2718328 16.9217649,96.0687936 17.9798505,95.3330455 C19.128771,94.5341346 21.189474,94.1997245 20.5009531,93.5711848 C17.938752,91.2321926 13.4749811,91.3289971 10.2842384,89.0843552 C4.1315833,84.7560502 -0.477954716,78.3744255 0.0396666687,75.6778462 C0.721311449,72.1267772 2.44013205,79.6669045 6.48086275,78.5728968 C8.15693259,78.1191093 13.1494168,76.2131844 17.4057594,76.4578796 C19.8076815,76.5959651 21.8303144,79.4841031 23.2468763,78.620385 C24.0065922,78.1571647 23.0519044,76.3321826 23.2468763,74.8693481 C23.4242567,73.5384992 24.7950428,72.5975047 24.5950721,71.5110353 C24.3341989,70.0936747 22.9630142,69.6547621 23.9131892,69.9700121 C27.5876873,71.1891404 30.8951923,75.3992849 34.8831988,77.5046576 C41.7530779,81.1314462 48.9202089,82.3137768 51.0398771,78.620385 C52.7097111,75.7108017 51.9000532,68.7455938 47.1650743,65.5437621 C45.8372534,64.6458787 45.9841313,61.9844135 44.2355332,60.4068849 C42.4653906,58.8099195 39.2903593,58.1903019 36.3966753,56.7255959 C34.291467,55.6599954 32.4963684,53.7399224 30.7120561,52.6598496 C28.5594741,51.3568572 32.5062303,52.8349743 36.3966753,50.8357731 C38.6946367,49.6549089 40.7105819,45.6084228 42.1479657,43.5282887 C43.5069224,41.5616518 35.3860538,37.4064207 37.3264487,34.8494534 C37.9589608,34.0159566 39.139212,36.0908734 41.3439188,36.605661 C43.7541191,37.1684302 47.1957508,36.1664589 47.7307815,34.8494534 C48.6365604,32.6198321 40.6587291,25.9762727 39.8675706,19.8927448 C39.5379553,17.358203 41.441131,20.9195613 47.1650743,20.9195613 C48.4824419,20.9195613 51.7412042,19.230434 51.0398771,15.4377104 C50.7121064,13.6651513 51.3714368,13.5527049 48.4824419,8.35503188 C48.1590573,7.77322153 48.2698341,5.9122255 47.1650743,4.12001254 C46.3853711,2.85512752 43.0777329,0.629729138 43.4173026,0.0949763878 Z" id="Rectangle" stroke="#5563B6" stroke-width="5" fill="#FFFFFF"></path>
            <g id="Group-2" transform="translate(38.792423, 23.496987)">
                <path d="M24.6501824,2.20268248e-13 C37.6429487,17.7579926 47.3924071,32.8007104 53.8985577,45.1281535 C60.4047082,57.4555967 68.4385223,75.4555967 78,99.1281535" id="Line-38" stroke="#89C3EA" stroke-width="5" stroke-linecap="round"></path>
                <path d="M77.6574559,102.353942 C77.6574559,101.513319 78.396147,100.827134 79.4326063,100.827134 C80.4690656,100.827134 84.1299201,110.094852 85.1124515,113.307705 C87.8085332,122.123823 90.3373857,128.561864 91.2007704,133.093723 C91.9982668,137.279738 93.0546881,139.771929 93.1693676,144.926075 C93.1995284,146.28162 92.9438888,149.627445 92.402449,154.96355 C92.3522806,155.457252 91.9114393,155.816873 91.4177293,155.766778 C91.0849978,155.733016 90.7985497,155.517252 90.674259,155.206765 L89.4145257,152.059866 C89.3555676,151.912642 89.3324912,151.753503 89.3471817,151.595595 C89.7680133,147.07204 89.2299109,141.492149 87.7328745,134.855921 C85.4477387,124.726118 77.6574559,103.194566 77.6574559,102.353942 Z" id="Rectangle" stroke="#5563B6" stroke-width="5" fill="#5563B6"></path>
                <path d="M65.2156404,96.8092935 C49.2111714,94.6730518 37.1284765,92.1856404 28.9675559,89.3470592 C20.8066352,86.5084781 11.1507832,80.4355096 4.33431069e-13,71.1281535" id="Line-39" stroke="#89C3EA" stroke-width="3" stroke-linecap="round"></path>
                <path d="M65.2156404,123.128154 C58.4450509,115.461357 51.9313192,110.41211 45.6744454,107.980412 C39.4175715,105.548713 32.9270539,104.295241 26.2028925,104.219995" id="Line-39" stroke="#89C3EA" stroke-width="3" stroke-linecap="round" transform="translate(45.709266, 113.674074) scale(1, -1) translate(-45.709266, -113.674074) "></path>
                <path d="M111.990689,92.4015715 C107.651985,87.5358646 103.477881,84.3313766 99.4683748,82.7881073 C95.4588688,81.244838 91.2996401,80.4493261 86.9906887,80.4015715" id="Line-39" stroke="#89C3EA" stroke-width="3" stroke-linecap="round" transform="translate(99.490689, 86.401572) scale(1, -1) rotate(11.000000) translate(-99.490689, -86.401572) "></path>
                <path d="M67.9355218,30.6364404 C64.4968759,28.1116003 62.3105881,26.1661512 61.3766584,24.8000932 C57.9783481,19.8293886 55.5935835,16.9743238 53.0078429,15.5994611 C51.0315056,14.5486239 47.2810446,13.3551072 41.75646,12.018911" id="Line-39" stroke="#89C3EA" stroke-width="3" stroke-linecap="round" transform="translate(54.845991, 21.327676) scale(1, -1) rotate(62.000000) translate(-54.845991, -21.327676) "></path>
                <path d="M86.1574559,63.5189123 C82.2793704,60.2066998 78.9770956,56.9430214 76.2506315,53.727877 C73.5241675,50.5127327 71.1597756,45.4430778 69.1574559,38.5189123" id="Line-39" stroke="#89C3EA" stroke-width="3" stroke-linecap="round" transform="translate(77.657456, 51.018912) scale(1, -1) rotate(11.000000) translate(-77.657456, -51.018912) "></path>
                <path d="M40.3266982,92.1496066 C39.2415919,90.8037128 38.4376321,89.3069754 37.9148188,87.6593944 C36.6721327,83.7432234 37.7340202,79.6501535 35.6691251,76.811641 C33.6196936,73.9943857 29.8938871,71.0765348 26.8389871,67.2914562 C25.5286889,65.6679722 23.9260994,63.3148645 22.0312187,60.2321333" id="Line-39" stroke="#89C3EA" stroke-width="3" stroke-linecap="round" transform="translate(31.178958, 76.190870) scale(1, -1) rotate(82.000000) translate(-31.178958, -76.190870) "></path>
                <path d="M36.5666571,53.4591112 C32.8841696,49.7055638 30.1697366,45.654877 28.4233582,41.307051 C27.1381288,38.1073128 27.859417,33.848195 26.6865148,27.9955964 C26.4059513,26.5956282 25.6587906,24.2803826 24.4450328,21.0498596" id="Line-39" stroke="#89C3EA" stroke-width="3" stroke-linecap="round" transform="translate(30.505845, 37.254485) scale(1, -1) rotate(82.000000) translate(-30.505845, -37.254485) "></path>
                <path d="M86.3147693,39.2002037 C82.2337661,37.5464454 79.1006395,36.5590927 76.9153892,36.2381457 C74.730139,35.9171987 71.3434117,35.9469826 66.7552074,36.3274972" id="Line-39" stroke="#89C3EA" stroke-width="3" stroke-linecap="round" transform="translate(76.534988, 37.609040) scale(1, -1) rotate(-104.000000) translate(-76.534988, -37.609040) "></path>
                <path d="M48.0312943,7.5730583 C45.3378427,6.48690613 43.2840102,5.92084949 41.8697969,5.87488839 C40.4555836,5.82892729 38.524857,6.26548809 36.0776173,7.18457081" id="Line-39" stroke="#89C3EA" stroke-width="3" stroke-linecap="round" transform="translate(42.054456, 6.722332) scale(1, -1) rotate(-263.000000) translate(-42.054456, -6.722332) "></path>
                <path d="M33.6089772,64.5994532 C30.2706586,63.0404448 27.7077163,62.1096612 25.9201505,61.8071025 C24.1325848,61.5045437 21.3621936,61.5326211 17.6089772,61.8913347" id="Line-39" stroke="#89C3EA" stroke-width="3" stroke-linecap="round" transform="translate(25.608977, 63.099453) scale(1, -1) rotate(-74.000000) translate(-25.608977, -63.099453) "></path>
                <path d="M117.451629,74.3024817 C105.791324,69.5494329 96.6450287,65.0728054 90.0127425,60.8725993 C83.3804562,56.6723931 74.1933615,49.1189224 62.4514583,38.2121871" id="Line-39" stroke="#89C3EA" stroke-width="3" stroke-linecap="round" transform="translate(89.951544, 56.257334) scale(-1, 1) rotate(45.000000) translate(-89.951544, -56.257334) "></path>
            </g>
            <path d="M78.2279845,135.864688 C78.384619,135.992901 78.4853126,136.091824 78.5200548,136.123325 C78.5224102,136.129404 78.519466,136.117799 78.5200548,136.123325 C78.5200548,136.12443 78.5206437,136.122772 78.5206437,136.122772 C74.7172523,134.191837 72.1280726,135.661315 69.1885263,135.314808 C69.1478956,135.303202 69.1019652,135.293808 69.0495574,135.286071 C68.9841949,135.277228 68.9176547,135.264517 68.852881,135.249596 C68.0785414,135.067224 67.3524876,134.455448 66.7018068,133.579508 C66.6982737,133.575087 66.6953294,133.570666 66.6917963,133.565692 C66.6364443,133.493848 66.5840365,133.418136 66.5316287,133.342977 C66.5316287,133.342977 66.5310399,133.340766 66.5292733,133.340214 C66.4338794,133.200948 66.3390743,133.053392 66.2460358,132.903626 C66.2366142,132.888151 66.2260148,132.87323 66.2165932,132.857756 C66.1924503,132.815203 66.1677185,132.772649 66.1423979,132.731201 C66.1164885,132.687542 66.090579,132.644988 66.0658473,132.602435 C66.0411155,132.557671 66.0169726,132.514565 65.9934185,132.471458 C65.9675091,132.426142 65.9433662,132.381378 65.9180455,132.336061 C65.9009689,132.305666 65.8838922,132.272507 65.8662266,132.239348 C65.2102461,131.005849 64.6773356,129.524212 64.2963487,128.047549 C64.2963487,128.047549 64.287516,128.033181 64.2963487,128.047549 C65.7254911,128.778696 67.212341,129.37942 68.4671833,129.711006 C69.9787649,130.111672 71.8713334,130.279675 73.6885289,130.199542 C74.2449935,128.575324 74.5665064,126.818471 74.5506074,125.344019 C74.5358861,124.111072 74.314478,122.618935 73.9281914,121.12514 C74.0465506,121.185378 74.163732,121.247827 74.2820911,121.30917 C74.3162445,121.32796 74.3509868,121.347303 74.3863178,121.366645 C74.4699347,121.411409 74.5535516,121.455621 74.6359908,121.503148 C74.6742662,121.523043 74.7131304,121.545149 74.7508169,121.566702 C74.8344338,121.613677 74.9162841,121.660099 74.9987233,121.707626 C75.031699,121.726969 75.0658524,121.746311 75.0994169,121.765101 C75.2030548,121.826444 75.3061038,121.887235 75.4079751,121.949131 C75.4185744,121.954658 75.4291737,121.960737 75.4385953,121.967368 C75.5575433,122.037554 75.6747248,122.111056 75.7913173,122.184005 C75.800739,122.188978 75.8089829,122.19561 75.8184045,122.201137 C75.9238089,122.267454 76.0256802,122.333218 76.1287292,122.400088 C76.1505167,122.413352 76.1705377,122.428273 76.1917363,122.440984 C76.2853637,122.502327 76.3778134,122.564776 76.4708519,122.627224 C76.4879286,122.639935 76.5050053,122.652646 76.5238485,122.664804 C76.6304306,122.737753 76.735835,122.810702 76.8394729,122.884756 C76.8394729,122.884756 76.8406506,122.885862 76.8418283,122.885862 C77.1721739,123.124051 77.4877983,123.365556 77.7845794,123.610377 C77.7887014,123.61314 77.7922345,123.616456 77.7963564,123.618666 C78.2898139,124.029833 78.7279194,124.448737 79.0882964,124.866535 C79.1407042,124.927878 79.1913454,124.989222 79.2402201,125.050012 C79.2419867,125.052776 79.2449309,125.053881 79.2461086,125.056092 L79.2461086,125.057197 C79.2914502,125.112461 79.3350252,125.168278 79.3756559,125.222437 L79.3762448,125.224095 C79.3780113,125.225753 79.3791891,125.228516 79.3803668,125.230174 C79.4257083,125.289307 79.4692833,125.34844 79.5093252,125.408125 L79.5099141,125.408125 C79.5152137,125.416415 79.5193357,125.423599 79.5252242,125.432442 C79.5258131,125.433547 79.5269908,125.432994 79.5269908,125.434099 C79.5799874,125.510364 79.6300398,125.587734 79.6759702,125.662341 C79.6830364,125.676157 79.6901026,125.688315 79.6977577,125.699921 C79.7007019,125.704342 79.7024685,125.709316 79.7071793,125.71429 C79.7578205,125.800502 79.8055175,125.886714 79.8479148,125.974032 C79.8791239,126.033717 79.9062111,126.093956 79.9327094,126.154194 C79.9433087,126.180168 79.9527303,126.205037 79.9627408,126.229906 C79.9780509,126.267485 79.9910057,126.30396 80.005727,126.34154 C80.0151486,126.368067 80.0228037,126.395146 80.0316364,126.423884 C80.0434135,126.457595 80.0534239,126.492964 80.0634344,126.527228 C80.0710895,126.554307 80.0775668,126.580834 80.0834554,126.609019 C80.0922881,126.643283 80.0999432,126.677547 80.1070094,126.712363 C80.1117202,126.738338 80.1158422,126.76597 80.120553,126.792497 C80.1258527,126.827866 80.1293858,126.86434 80.1346854,126.898604 C80.1376297,126.923473 80.1393962,126.948342 80.1411628,126.972106 C80.1435182,127.011896 80.144107,127.050581 80.1446959,127.091477 C80.1446959,127.109161 80.1452848,127.130162 80.1446959,127.150057 C80.144107,127.209742 80.1393962,127.268322 80.13233,127.325797 C80.1282081,127.365588 80.1258527,127.399851 80.1258527,127.431905 C79.7272002,130.19291 77.5460946,132.184084 78.5200548,136.123325" id="Fill-583" fill="#9452BA" transform="translate(72.218690, 128.625140) rotate(-29.000000) translate(-72.218690, -128.625140) "></path>
        </g>
    </g>
</svg>