<?xml version="1.0" encoding="UTF-8"?>
<svg width="455px" height="473px" viewBox="0 0 455 473" version="1.1" xmlns="http://www.w3.org/2000/svg" xmlns:xlink="http://www.w3.org/1999/xlink">
    <title>governance</title>
    <defs>
        <path d="M24.0060399,21.1069372 C26.1377772,20.907254 27.2449128,20.1135747 27.0725918,18.5413751 C26.9011343,16.9773651 25.6442969,16.4053235 24.3389403,16.6820222 C23.3913481,16.8829251 21.8893247,17.1819267 20.4140645,16.3140196 C17.3350807,14.5024096 17.3338718,8.59694765 19.7230545,6.12774258 C21.308303,4.489679 22.8279385,4.95804592 23.9494056,5.06032674 C25.2426754,5.17846376 26.7415908,4.71305931 26.799952,3.13092785 C26.8460538,1.88107877 25.6206417,0.993830631 24.4713756,0.893117858 C20.3695169,0.53382842 15.3495919,1.19334026 13.9751687,8.56140254 C13.4260899,11.5045501 13.5250277,14.9488221 16.1452376,18.2239038 C18.0098601,20.5545855 21.7289178,21.319863 24.0060399,21.1069372 Z M45.2324986,20.9363532 C46.0094966,20.5878662 46.7036146,19.1266597 46.1535003,18.0322362 C44.1390039,14.0246347 43.3164221,11.8457193 42.2685106,9.72656928 C40.9931978,7.14793916 38.9367432,1.45000131 36.6280231,1.45000131 C34.1243629,1.45000131 33.0968262,4.35011079 32.2680284,6.72975485 C31.2216711,9.73284206 30.018015,12.6878383 28.9424771,15.7656763 C28.5125381,16.9963583 27.9610422,18.7572636 28.8797991,19.5505944 C29.2867733,19.9020436 30.5111495,20.1395376 31.2465351,19.5133062 C32.1675368,18.7292103 33.2201098,15.5494399 33.2201098,15.5494399 L40.470537,15.4691136 C40.470537,15.4691136 40.9612915,16.4905897 41.4799222,17.5572806 L41.6531966,17.9131797 C42.02811,18.6821197 42.3907371,19.4180636 42.566705,19.7532396 C43.2592692,21.0726117 44.169738,21.4129094 45.2324986,20.9363532 Z M37.7611526,11.6551923 L37.1564419,11.6548756 C36.1324426,11.6525934 35.0641644,11.6427356 34.4985303,11.6432481 C34.9390019,10.4226722 36.1388593,6.99686985 36.4841917,5.92231009 C36.8669928,6.70553483 38.5649924,10.5969158 39.0541558,11.6423772 C38.7071475,11.6509354 38.253358,11.6544594 37.7611526,11.6551923 Z M55.5288961,21.140914 C58.3815627,21.140914 57.8522333,16.0214943 57.8329564,14.1012768 L57.8324362,13.9960578 C57.833005,13.3026198 57.8129052,11.6616779 57.7890616,9.971102 L57.7821619,9.48750535 C57.7496243,7.2316573 57.7132965,5.03959128 57.7132965,5.03959128 C57.7132965,5.03959128 57.9440178,5.05858326 58.3537604,5.06195392 L58.5946998,5.0620352 C59.1108439,5.05826713 59.8288515,5.02841883 60.6816016,4.92755282 C62.6796951,4.69127848 63.8600413,4.06504708 63.9211651,2.88977425 C64.0049079,1.27941643 62.7427178,0.928660594 60.0037136,0.928660594 L57.2846739,0.929216306 C57.1494362,0.92926683 57.0160795,0.929318858 56.8842257,0.929371487 L54.9719103,0.930093258 C54.8456395,0.930129346 54.7189824,0.930161525 54.591561,0.930188892 L52.5756807,0.930125737 C52.431169,0.930082431 52.2840036,0.930029802 52.1338066,0.929966948 L51.1932218,0.929459904 C50.8655516,0.929245177 50.5227318,0.928982332 50.1617393,0.928660594 C48.58616,0.927270034 47.571746,1.33517403 47.6323519,2.86938843 C47.6689573,3.80350796 48.4576966,4.4820121 49.6575541,4.72177129 C51.3129052,5.05248561 53.6299131,5.09256153 53.6299131,5.09256153 L53.6294469,5.37134052 C53.629403,5.40127999 53.6293574,5.43345543 53.6293108,5.4677805 L53.628617,6.13308755 C53.6285766,6.18675066 53.6285385,6.24213176 53.6285032,6.29914449 L53.6284192,7.7066525 C53.6284572,7.78227807 53.6285027,7.85893097 53.6285563,7.93652487 L53.6292784,8.65794599 C53.6328672,11.3792221 53.6475252,14.8432024 53.6969077,15.9474112 C53.7590675,17.3366548 53.4280662,21.140914 55.5288961,21.140914 Z M82.0585043,20.9363532 C82.8355022,20.5878662 83.5296203,19.1266597 82.979506,18.0322362 C80.9650095,14.0246347 80.1424278,11.8457193 79.0945163,9.72656928 C77.8192035,7.14793916 75.7627489,1.45000131 73.4540288,1.45000131 C70.9503686,1.45000131 69.9228319,4.35011079 69.0940341,6.72975485 C68.0476768,9.73284206 66.8440207,12.6878383 65.7684828,15.7656763 C65.3385437,16.9963583 64.7870479,18.7572636 65.7058048,19.5505944 C66.112779,19.9020436 67.3371551,20.1395376 68.0725408,19.5133062 C68.9935424,18.7292103 70.0461155,15.5494399 70.0461155,15.5494399 L77.2965426,15.4691136 C77.2965426,15.4691136 77.7872971,16.4905897 78.3059278,17.5572806 L78.4792022,17.9131797 C78.8541157,18.6821197 79.2167428,19.4180636 79.3927107,19.7532396 C80.0852749,21.0726117 80.9957437,21.4129094 82.0585043,20.9363532 Z M74.5871583,11.6551923 L73.9824476,11.6548756 C72.9584483,11.6525934 71.8901701,11.6427356 71.324536,11.6432481 C71.7650076,10.4226722 72.964865,6.99686985 73.3101974,5.92231009 C73.6929985,6.70553483 75.3909981,10.5969158 75.8801615,11.6423772 C75.5331532,11.6509354 75.0793637,11.6544594 74.5871583,11.6551923 Z M89.4365407,21.094914 C92.2067976,20.9159659 95.5863935,20.318659 96.1038743,20.1468548 C97.1965061,19.7840799 97.7181307,18.8429904 97.6281716,17.9254237 C97.498672,16.6041348 96.3331749,16.3427696 95.4265048,16.3546182 C94.8530802,16.3619364 89.530644,17.0503724 89.530644,17.0503724 C89.3018613,8.76300113 89.3025519,8.24027044 89.1894555,4.55501971 C89.1148638,2.11526178 88.9516941,0.573729223 86.6181099,0.804950366 C84.9969468,0.96542856 85.1421591,3.40989123 85.199484,5.25530468 C85.3113718,8.86475956 85.2723493,13.5348348 85.4883547,17.0115161 C85.5990337,18.7966411 85.5622559,19.7866931 86.3358005,20.6437968 C86.9228659,21.2942489 88.8221945,21.1344676 89.4365407,21.094914 Z M115.717917,12.3216173 C116.228664,6.62699009 111.804092,3.55141735 108.460583,3.13514955 C103.925505,2.57060067 99.0844626,5.52611958 98.9254371,11.1503523 C98.7809151,16.2626577 102.249952,20.0465304 107.190623,20.1779099 C111.487422,20.2923879 115.257244,17.4583166 115.717917,12.3216173 Z M106.277047,16.3036047 C103.470185,15.7791315 102.109057,13.2715927 102.690597,10.7434931 C103.366412,7.80627016 105.446695,6.94986328 107.706033,7.09378837 C109.96537,7.23771345 112.278407,9.09218763 112.098834,11.9499556 C111.890771,15.2546585 108.843731,16.783297 106.277047,16.3036047 Z M130.244781,18.2942971 C131.656199,15.8939188 131.724044,12.392261 131.727301,12.0717183 L131.727466,12.0480154 L131.727466,12.0480154 C131.727466,12.0480154 133.775287,11.9370223 134.295358,10.9239705 C135.03247,9.48872659 133.924298,8.13677091 131.892362,7.98848984 C131.062528,7.92802721 127.692774,8.04651298 126.837558,8.12457409 C125.645125,8.23312799 123.447084,8.85500311 124.086813,10.5334911 C124.737247,12.2407292 127.985443,12.044705 127.985443,12.044705 C127.985443,12.044705 127.987616,12.0967742 127.988314,12.1902474 L127.988213,12.3216064 C127.979072,13.3956588 127.753131,17.2164239 124.991757,17.000191 C120.638151,16.6593706 120.494147,6.28247096 124.980188,3.94116055 C126.726707,3.0296924 126.618445,1.74586596 126.136533,0.834397803 C125.562591,-0.251313715 123.662226,-0.30463212 122.033811,0.834397803 C120.476707,1.92324571 117.723199,4.70086189 117.749272,11.0616225 C117.759114,13.4531149 118.809615,18.3603356 122.282451,20.2637719 C125.30998,21.9232673 128.532622,21.2069522 130.244781,18.2942971 Z" id="path-1"></path>
        <path d="M8.45676648,57.9649084 C12.0313027,57.0217282 14.0055681,52.7951026 11.6286451,49.4032779 C10.6024896,47.9392838 9.05229232,47.0710282 7.40902792,46.4880092 C5.99938076,45.9881044 3.96140124,45.8481868 4.26961054,43.6408696 C4.49614882,42.0186622 5.99627276,41.564235 7.18179904,42.001238 C8.39080783,42.4467787 9.84621148,43.3913528 10.8920509,42.3153989 C12.2490347,40.9191856 11.0426159,39.3347891 9.30904708,38.5952997 C7.78509503,37.9453713 5.78475683,37.9638409 4.21107703,38.3555405 C0.687305028,39.232508 -0.746342602,42.4255209 0.579561436,46.0666882 C1.92549469,49.7625677 9.63624999,49.5154903 8.40911113,53.0357323 C7.72949629,54.985344 5.00344204,54.274779 2.83216431,53.7483893 C1.27851373,53.3716747 0.0510295646,53.9184509 0.00112887701,55.3812254 C-0.0957368532,58.2179101 6.06723857,58.5953216 8.45676648,57.9649084 Z M22.5737512,58.2266283 C25.4802417,58.2266283 24.8759098,52.9122005 24.8772913,51.0817721 L24.876906,50.8586401 C24.8739976,50.0753235 24.8554895,48.5863849 24.8339167,47.0568163 L24.827017,46.5732196 C24.7968035,44.4785036 24.7633219,42.4387833 24.758693,42.158082 L24.7581516,42.1253056 L24.7581516,42.1253056 C24.7581516,42.1253056 24.9888729,42.1442975 25.3986155,42.1476682 L25.6395549,42.1477495 C26.155699,42.1439814 26.8737066,42.1141331 27.7264568,42.0132671 C29.7245502,41.7769928 30.9048964,41.1507614 30.9660202,39.9754885 C31.0497631,38.3651307 29.7875729,38.0143749 27.0485687,38.0143749 L24.329529,38.0149306 C24.1942913,38.0149811 24.0609346,38.0150331 23.9290808,38.0150858 L22.0167654,38.0158075 C21.8904947,38.0158436 21.7638375,38.0158758 21.6364161,38.0159032 L19.6205358,38.01584 C19.4760241,38.0157967 19.3288587,38.0157441 19.1786617,38.0156812 L18.2380769,38.0151742 C17.9104067,38.0149595 17.5675869,38.0146966 17.2065944,38.0143749 C15.6310152,38.0129843 14.6166011,38.4208883 14.677207,39.9551027 C14.7138124,40.8892222 15.5025517,41.5677264 16.7024092,41.8074856 C18.3577603,42.1381999 20.6747683,42.1782758 20.6747683,42.1782758 L20.6747059,42.2106326 C20.674686,42.221303 20.6746618,42.2345548 20.6746328,42.2503015 L20.6738792,42.7845501 C20.6738312,42.8271284 20.6737834,42.8716836 20.6737365,42.9181295 L20.6735977,45.2577575 C20.6736685,45.3371471 20.673748,45.4173913 20.6738371,45.4984039 L20.674491,45.9930087 C20.6748802,46.2442305 20.6753668,46.5008133 20.6759686,46.7604263 L20.677331,47.2830018 C20.6842004,49.6465566 20.701359,52.1296819 20.7417628,53.0331254 C20.8039226,54.4223691 20.4729213,58.2266283 22.5737512,58.2266283 Z M34.9444344,58.2268025 C35.8509319,58.2268025 36.6567651,57.2975617 36.7601922,56.2425172 C36.9611758,54.1892314 36.8005962,52.4767658 36.8530869,50.8890588 C38.8242446,52.5928127 40.1675878,54.088345 42.6056349,55.7021886 C43.8907896,56.5526711 45.6552658,57.5085712 46.734775,56.7892939 C48.3692333,55.7002718 47.313034,54.1864438 46.536554,53.5682278 L46.1539065,53.2630921 C43.5549495,51.1870688 41.3106382,49.3238292 41.3106382,49.3238292 C41.3106382,49.3238292 45.5865444,47.5395753 45.6404164,43.2814116 C45.6733956,40.6862284 44.3495636,37.970991 38.5906273,37.9940181 C36.8308133,38.0011351 34.1622569,38.1307723 33.5225285,38.9969371 C32.9385533,39.7875168 32.9655485,44.421223 32.9709,46.6582766 L32.9713765,47.1901742 C32.9712767,47.2421017 32.9711099,47.2914797 32.9708599,47.3381495 C32.9587732,49.6017472 32.9587732,53.3915443 33.026631,56.0004927 C33.0502862,56.9126578 33.6926044,58.2268025 34.9444344,58.2268025 Z M36.8187263,46.3834693 L36.8176904,42.2638293 L36.8405325,42.2569659 C37.1633086,42.1616033 40.8067059,41.1382315 41.35415,43.363829 C42.0650166,46.2529609 36.8187263,46.3832951 36.8187263,46.3834693 Z M63.947284,49.7172726 C64.2142266,46.9258898 64.3040128,43.511065 63.7050336,40.7641155 C63.4201345,39.4583346 62.4241958,39.0195894 61.4997408,39.1396432 C60.4406062,39.2771213 60.2137229,40.1777861 60.1216916,41.0885571 C59.9274422,43.0090694 61.6946808,54.0038366 56.6391866,54.0174279 C52.7155194,54.0278824 53.7760353,42.8761216 53.6018151,41.3002632 C53.4082563,39.5499867 52.6730433,38.7237238 51.2352517,39.1121128 C49.6137433,39.5498127 49.7097458,41.3722261 49.6443054,42.730803 C49.4802725,46.1292489 49.7242499,51.8184748 51.352147,54.8445624 C52.2270466,56.4709516 54.2814293,58.0492497 56.6184665,58.213213 C60.9235533,58.5148287 63.5689724,53.6731235 63.947284,49.7172726 Z M77.1703439,58.1926515 C79.3020812,57.9929682 80.4092168,57.199289 80.2368957,55.6270894 C80.0654382,54.0630794 78.8086009,53.4910378 77.5032443,53.7677365 C76.5556521,53.9686394 75.0536287,54.267641 73.5783685,53.3997339 C70.4993847,51.5881239 70.4981758,45.6826619 72.8873584,43.2134569 C74.472607,41.5753933 75.9922425,42.0437602 77.1137096,42.146041 C78.4069794,42.264178 79.9058948,41.7987736 79.964256,40.2166421 C80.0103577,38.9667931 78.7849457,38.0795449 77.6356795,37.9788321 C73.5338209,37.6195427 68.5138959,38.2790545 67.1394726,45.6471168 C66.5903939,48.5902644 66.6893317,52.0345363 69.3095415,55.3096181 C71.1741641,57.6402998 74.8932217,58.4055773 77.1703439,58.1926515 Z M89.4445524,58.2266283 C92.3510428,58.2266283 91.7467109,52.9122005 91.7480924,51.0817721 L91.7477071,50.8586401 C91.7447988,50.0753235 91.7262907,48.5863849 91.7047179,47.0568163 L91.6978181,46.5732196 C91.6676046,44.4785036 91.6341231,42.4387833 91.6294941,42.158082 L91.6289527,42.1253056 L91.6289527,42.1253056 C91.6289527,42.1253056 91.859674,42.1442975 92.2694166,42.1476682 L92.510356,42.1477495 C93.0265002,42.1439814 93.7445077,42.1141331 94.5972579,42.0132671 C96.5953513,41.7769928 97.7756975,41.1507614 97.8368214,39.9754885 C97.9205642,38.3651307 96.6583741,38.0143749 93.9193699,38.0143749 L91.2003301,38.0149306 C91.0650925,38.0149811 90.9317357,38.0150331 90.799882,38.0150858 L88.8875665,38.0158075 C88.7612958,38.0158436 88.6346387,38.0158758 88.5072172,38.0159032 L86.4913369,38.01584 C86.3468253,38.0157967 86.1996599,38.0157441 86.0494628,38.0156812 L85.108878,38.0151742 C84.7812078,38.0149595 84.438388,38.0146966 84.0773955,38.0143749 C82.5018163,38.0129843 81.4874022,38.4208883 81.5480081,39.9551027 C81.5846135,40.8892222 82.3733529,41.5677264 83.5732103,41.8074856 C85.2285614,42.1381999 87.5455694,42.1782758 87.5455694,42.1782758 L87.5455071,42.2106326 C87.5454872,42.221303 87.5454629,42.2345548 87.5454339,42.2503015 L87.5446804,42.7845501 C87.5446323,42.8271284 87.5445845,42.8716836 87.5445377,42.9181295 L87.5443989,45.2577575 C87.5444696,45.3371471 87.5445492,45.4173913 87.5446383,45.4984039 L87.5452921,45.9930087 C87.5456813,46.2442305 87.5461679,46.5008133 87.5467697,46.7604263 L87.5481322,47.2830018 C87.5550016,49.6465566 87.5721601,52.1296819 87.6125639,53.0331254 C87.6747237,54.4223691 87.3437225,58.2266283 89.4445524,58.2266283 Z M114.182028,49.7172726 C114.448971,46.9258898 114.538757,43.511065 113.939778,40.7641155 C113.654879,39.4583346 112.65894,39.0195894 111.734485,39.1396432 C110.67535,39.2771213 110.448467,40.1777861 110.356436,41.0885571 C110.162187,43.0090694 111.929425,54.0038366 106.873931,54.0174279 C102.950264,54.0278824 104.01078,42.8761216 103.836559,41.3002632 C103.643001,39.5499867 102.907788,38.7237238 101.469996,39.1121128 C99.8484877,39.5498127 99.9444901,41.3722261 99.8790497,42.730803 C99.7150168,46.1292489 99.9589943,51.8184748 101.586891,54.8445624 C102.461791,56.4709516 104.516174,58.0492497 106.853211,58.213213 C111.158298,58.5148287 113.803717,53.6731235 114.182028,49.7172726 Z M119.08523,58.2268025 C119.991727,58.2268025 120.797561,57.2975617 120.900988,56.2425172 C121.101971,54.1892314 120.941392,52.4767658 120.993882,50.8890588 C122.96504,52.5928127 124.308383,54.088345 126.74643,55.7021886 C128.031585,56.5526711 129.796061,57.5085712 130.87557,56.7892939 C132.510029,55.7002718 131.453829,54.1864438 130.677349,53.5682278 L130.294702,53.2630921 C127.695745,51.1870688 125.451434,49.3238292 125.451434,49.3238292 C125.451434,49.3238292 129.72734,47.5395753 129.781212,43.2814116 C129.814191,40.6862284 128.490359,37.970991 122.731423,37.9940181 C120.971609,38.0011351 118.303052,38.1307723 117.663324,38.9969371 C117.079349,39.7875168 117.106344,44.421223 117.111695,46.6582766 L117.112172,47.1901742 C117.112072,47.2421017 117.111905,47.2914797 117.111655,47.3381495 C117.099569,49.6017472 117.099569,53.3915443 117.167426,56.0004927 C117.191082,56.9126578 117.8334,58.2268025 119.08523,58.2268025 Z M120.959522,46.3834693 L120.958486,42.2638293 L120.981328,42.2569659 C121.304104,42.1616033 124.947501,41.1382315 125.494945,43.363829 C126.205812,46.2529609 120.959522,46.3832951 120.959522,46.3834693 Z M137.282123,58.2259234 C139.526784,58.1969989 142.706606,57.8460724 145.195935,57.2675838 C145.979494,57.0854993 146.912064,56.331722 146.828494,55.0677593 C146.727657,53.5426056 145.546965,53.0975876 144.879437,53.1148379 C144.142605,53.1337956 142.920371,53.2490148 141.68464,53.385059 L141.248707,53.4338165 C139.363898,53.6477813 137.577383,53.8896989 137.577383,53.8896989 L137.487769,49.9843784 C137.487769,49.9843784 141.426113,49.7461876 143.121695,49.3752231 C145.207158,48.9190536 144.908272,45.3610004 142.040114,45.3850461 C140.676741,45.3963721 137.564778,45.5746233 137.564778,45.5746233 L137.493294,42.8687955 L137.526495,42.868298 C137.744792,42.8649949 139.00897,42.8453737 140.406924,42.8133856 L140.829411,42.8034221 C142.10344,42.7724423 143.411947,42.7317653 144.090007,42.6842715 C145.375162,42.5941875 146.828493,41.9554105 146.582962,40.1824826 C146.381633,38.728943 144.704181,38.4147818 143.363255,38.3935239 C141.860368,38.3696527 138.090201,38.2285152 135.724329,38.5803129 C134.935762,38.6975787 133.828799,39.7852068 133.797719,41.0547453 L133.741603,52.7825553 C133.886297,56.4545635 133.761287,58.2715752 137.282123,58.2259234 Z" id="path-2"></path>
        <linearGradient x1="6.72036895%" y1="-1.13897195%" x2="98.6285133%" y2="86.9573413%" id="linearGradient-3">
            <stop stop-color="#81CCCC" offset="0%"></stop>
            <stop stop-color="#5DA8A6" offset="100%"></stop>
        </linearGradient>
        <linearGradient x1="78.9711702%" y1="63.2184438%" x2="16.3180705%" y2="41.2361532%" id="linearGradient-4">
            <stop stop-color="#81CCCC" offset="0%"></stop>
            <stop stop-color="#5DA8A6" offset="100%"></stop>
        </linearGradient>
    </defs>
    <g id="governance" stroke="none" stroke-width="1" fill="none" fill-rule="evenodd">
        <path d="M273.992161,57.7182199 C317.778201,65.3860724 378.724179,82.2284433 421.019802,156.498994 C459.340979,223.855025 482.046343,326.819487 409.915523,391.538853 C337.784702,456.258219 118.639667,476.692373 35.4179945,391.538853 C-47.8036784,306.385333 15.4383479,12.3971757 273.992161,57.7182199 Z" id="Path" fill="#EFEFF8" fill-rule="nonzero"></path>
        <ellipse id="Oval" fill="#DFE1F0" fill-rule="nonzero" cx="221.5" cy="403.5" rx="215.5" ry="19.5"></ellipse>
        <path d="M155,82 L155,405 L342.369932,405 C344.130674,405 345.819103,404.303376 347.062869,403.063747 C348.306634,401.824117 349.003572,400.143308 349,398.391991 L349,88.5945777 C349,86.845587 348.301465,85.1682303 347.058088,83.9315071 C345.814712,82.6947839 344.128331,82 342.369932,82 L155,82 Z" id="Path" fill="#89C3EA" fill-rule="nonzero"></path>
        <path d="M156,405 L115.669743,405 C113.900817,405 112.204342,404.303801 110.953523,403.064559 C109.702703,401.825317 109,400.144544 109,398.391992 L109,88.5945912 C109,86.8432709 109.703132,85.1638757 110.954342,83.9267657 C112.205553,82.6896558 113.902065,81.9964469 115.669743,82 L156,82 L156,405 Z" id="Path" fill="#ACD3EF" fill-rule="nonzero"></path>
        <rect id="Rectangle" fill="#89C3EA" fill-rule="nonzero" x="109" y="366" width="47" height="13"></rect>
        <rect id="Rectangle" fill="#89C3EA" fill-rule="nonzero" x="109" y="385" width="47" height="6"></rect>
        <rect id="Rectangle" fill="#89C3EA" fill-rule="nonzero" x="109" y="109" width="47" height="13"></rect>
        <rect id="Rectangle" fill="#89C3EA" fill-rule="nonzero" x="109" y="96" width="47" height="6"></rect>
        <line x1="133.5" y1="199" x2="133.5" y2="314" id="Path" stroke="#FFFFFF" stroke-width="4.92" stroke-linecap="round" stroke-linejoin="round"></line>
        <g id="catalog-Structure" transform="translate(178.000000, 127.000000)" fill="#FFFFFF" fill-rule="nonzero">
            <g id="catalog">
                <use xlink:href="#path-1"></use>
                <use xlink:href="#path-1"></use>
            </g>
            <g id="Structure">
                <use xlink:href="#path-2"></use>
                <use xlink:href="#path-2"></use>
            </g>
        </g>
        <ellipse id="Oval" fill="#4CA8E0" fill-rule="nonzero" cx="245" cy="360.5" rx="58" ry="5.5"></ellipse>
        <path d="M225.494004,359 L225.494004,359 C209.815334,355.642758 197.568395,343.502265 194.181717,327.959868 L187,295.048378 L233.893193,285 L241.061231,317.843687 C244.481353,333.402996 238.390597,349.505611 225.494004,359 L225.494004,359 Z" id="Path" fill="#DFE1F0" fill-rule="nonzero"></path>
        <path d="M205.314762,262.004291 L213.806206,262.002768 L213.79779,308.971223 C213.797626,309.922172 213.419081,310.834046 212.74581,311.505326 C212.072539,312.176607 211.159973,312.552027 210.209783,312.548864 L208.8662,312.548864 C206.892373,312.548864 205.292556,310.948136 205.29291,308.972748 L205.301326,262.004293 L205.314762,262.004291 Z" id="Path" fill="#B0B0DB" fill-rule="nonzero" transform="translate(209.549558, 287.275816) rotate(-12.200000) translate(-209.549558, -287.275816) "></path>
        <path d="M199.305434,229.918757 L205.921758,229.917571 C208.788116,229.915196 211.112175,232.238422 211.112689,235.10478 C211.112689,235.1054 211.112689,235.10602 211.110828,235.10664 L211.103632,275.271851 C211.101257,278.137482 208.778333,280.460407 205.912702,280.462782 L199.296378,280.463968 C196.43002,280.466342 194.105962,278.143117 194.105448,275.276759 C194.105448,275.276139 194.105448,275.275519 194.107308,275.274899 L194.114504,235.109688 C194.116879,232.244057 196.439803,229.921132 199.305434,229.918757 Z" id="Rectangle" fill="#FCCE76" fill-rule="nonzero" transform="translate(202.609068, 255.190769) rotate(-12.200000) translate(-202.609068, -255.190769) "></path>
        <path d="M268.815367,267 C268.815367,267 257.229652,328.651868 270,347" id="Path" stroke="#5DA8A6" stroke-width="2.67" stroke-linecap="round" stroke-linejoin="round"></path>
        <path d="M217,217.108107 C217,217.108107 218.73996,265.539828 268.49743,271 C295.028453,212.057448 217,217.108107 217,217.108107 Z" id="Path" fill="url(#linearGradient-3)" fill-rule="nonzero"></path>
        <path d="M267,270.076743 C267,270.076743 297.048238,289.458232 338,242.064853 C276.338233,205.865492 267,270.076743 267,270.076743 Z" id="Path" fill="url(#linearGradient-4)" fill-rule="nonzero"></path>
        <path d="M276,260 C280.89659,255.782457 286.323445,252.199819 292.147666,249.339823 C295.064514,247.885017 298.129948,246.738022 301.292655,245.918037 C304.445895,245.037645 307.746614,244.787048 311,245.181037 C310.183244,245.181037 309.379878,245.260002 308.576511,245.286323 C307.773145,245.312645 306.983168,245.523216 306.193191,245.628502 C305.401618,245.743389 304.618801,245.910469 303.850038,246.128609 C303.069482,246.301736 302.300393,246.521489 301.547054,246.786644 C298.499222,247.765612 295.53159,248.971103 292.669855,250.39268 C289.777735,251.708751 286.979342,253.314358 284.207728,254.919965 C282.868783,255.722768 281.436113,256.551893 280.08378,257.40734 C278.731446,258.262786 277.352334,259.118232 276,260 Z" id="Path" fill="#ABDCDC" fill-rule="nonzero"></path>
        <path d="M240,231 C243.244775,232.157045 246.366129,233.64209 249.31677,235.432635 C252.272284,237.208028 255.069057,239.241194 257.675244,241.508982 C260.300211,243.768574 262.682502,246.302041 264.782609,249.067365 C266.884353,251.812032 268.637203,254.813066 270,258 C269.534161,257.272455 269.068323,256.54491 268.669033,255.817365 L267.99024,254.726048 L267.218279,253.688623 L265.740905,251.613772 L264.103815,249.646707 C261.910218,247.046666 259.5158,244.627361 256.943212,242.411677 C254.382781,240.180298 251.689137,238.110519 248.877551,236.214072 C247.466726,235.270958 246.029281,234.35479 244.565217,233.519461 C243.101154,232.684132 241.517303,231.79491 240,231 Z" id="Path" fill="#81CCCC" fill-rule="nonzero"></path>
        <path d="M283.835586,357 L247.164414,357 C243.911999,356.989941 241.206511,354.354725 240.933153,350.930588 L238,314 L293,314 L290.080364,350.987712 C289.780233,354.394698 287.074211,357 283.835586,357 Z" id="Path" fill="#FCCE76" fill-rule="nonzero"></path>
        <rect id="Rectangle" fill="#FEDDA1" fill-rule="nonzero" x="232" y="301" width="67" height="16" rx="3.53"></rect>
        <path d="M165,80.4375987 L165,125 L176.707317,116.010005 L189,125 L189,80.4375987 C189,78.5390654 187.450326,77 185.538706,77 L168.444327,77 C166.541271,77.0138581 165.004602,78.5475258 165,80.4375987 Z" id="Path" fill="#F74B64" fill-rule="nonzero"></path>
        <g id="Group" transform="translate(193.230000, 236.190000) scale(1, -1) translate(-193.230000, -236.190000) translate(2.230000, 27.190000)" stroke="#B0B0DB" stroke-linecap="round" stroke-width="2.68066896">
            <line x1="86.76" y1="9.51" x2="86.87" y2="-7.10542736e-15" id="Path"></line>
            <line x1="82.06" y1="4.7" x2="91.57" y2="4.81" id="Path"></line>
            <line x1="4.7" y1="376.55" x2="4.81" y2="367.04" id="Path"></line>
            <line x1="1.08357767e-13" y1="371.74" x2="9.51" y2="371.85" id="Path"></line>
            <line x1="376.99" y1="417.62" x2="377.1" y2="408.11" id="Path"></line>
            <line x1="372.29" y1="412.81" x2="381.8" y2="412.92" id="Path"></line>
        </g>
    </g>
</svg>