<svg width="455" height="473" xmlns="http://www.w3.org/2000/svg" xmlns:xlink="http://www.w3.org/1999/xlink">
  <defs>
    <path d="M104.135 130.308c1.283-.056 2.496-1.013 3.552-4.214.936 2.087 2 4.256 4.34 4.214 3.062-.056 4.616-6.467 4.449-11.97-.038-1.241-.209-2.835-1.662-2.835-1.086 0-1.227 2.007-1.242 3.053-.03 2.061-.407 8.188-1.694 8.2-.674.005-1.705-2.05-1.992-2.758-.549-1.352-1.09-2.298-2.22-2.356-1.085-.056-1.68.795-1.963 2.12-.065.301-.758 2.724-1.46 2.654-.994-.1-1.505-5.608-1.602-6.726-.116-1.336-.158-3.222-1.612-3.166-.566.021-1.124.718-1.264 1.628-.341 2.225.503 6.788.811 7.808.46 1.525 1.455 4.44 3.559 4.348zm25.714-6.458c.378-4.171-2.893-6.424-5.364-6.73-3.352-.413-6.93 1.752-7.048 5.872-.107 3.745 2.457 6.516 6.11 6.613 3.175.083 5.962-1.993 6.302-5.755zm-6.978 2.917c-2.075-.385-3.081-2.221-2.651-4.073.5-2.152 2.037-2.779 3.707-2.673 1.67.105 3.38 1.463 3.247 3.557-.154 2.42-2.406 3.54-4.303 3.189zm9.943 3.543c.67 0 1.266-.68 1.342-1.453.149-1.504.03-2.759.069-3.922 1.457 1.248 2.45 2.344 4.252 3.526.95.623 2.254 1.323 3.052.796 1.209-.798.428-1.906-.146-2.36a273.067 273.067 0 01-3.863-3.108s3.16-1.307 3.2-4.426c.025-1.901-.954-3.89-5.21-3.873-1.301.005-3.274.1-3.747.734-.482.648-.4 4.811-.408 6.11-.009 1.658-.009 4.434.042 6.345.017.668.492 1.631 1.417 1.631zm1.386-8.675l-.001-3.018s2.93-.9 3.353.806c.526 2.116-3.352 2.212-3.352 2.212zm11.696 8.413c1.053-.734.63-2.776.626-3.947 1.184.788 3.811 2.394 5.874 3.653.76.463 2.217.814 2.702.187.723-.936.119-1.923-.82-2.587-1.818-1.284-4.58-3.02-5.35-3.52.98-.828 3.873-2.742 5.565-4.348.677-.643.86-1.51.366-2.17-.685-.917-1.51-.782-2.27-.321-.617.376-4.51 3.374-6.021 4.621-.063-.965-.01-2.8.007-4.515.008-.809-.44-1.596-1.327-1.679-.86-.08-1.177.478-1.398 1.277-.369 1.33-.132 9.01-.068 11.97.019.856.559 1.555 1.013 1.623.38.057.776-.018 1.101-.244zm12.602.258c1.191-.064 1.106-2.489 1.112-3.304.005-.683.061-2.733.061-2.733s3.039-.046 4.292-.318c1.542-.334 1.32-2.94-.8-2.923-1.007.008-3.435.011-3.435.011l.075-2.365s4.648.079 5.77-.262c.998-.304 1.709-.982 1.204-2.088-.446-.978-1.44-.958-2.38-.928-1.11.036-4.28-.12-6.03.137-.582.086-1.4.755-1.423 1.685-.06 2.44-.028 7.593-.042 8.718 0 2.727-.188 4.466 1.596 4.37zm13.083-.03c2.048-.13 4.546-.568 4.929-.694.807-.266 1.193-.955 1.127-1.627-.096-.968-.958-1.16-1.628-1.151-.424.005-4.358.51-4.358.51-.17-6.07-.169-6.454-.252-9.153-.055-1.787-.176-2.916-1.9-2.747-1.2.118-1.092 1.908-1.05 3.26.083 2.644.054 6.065.214 8.611.082 1.308.055 2.033.626 2.66.434.477 1.838.36 2.292.331zm19.427-6.426c.378-4.171-2.893-6.424-5.364-6.73-3.353-.413-6.931 1.752-7.049 5.872-.106 3.745 2.458 6.516 6.11 6.613 3.176.083 5.963-1.993 6.303-5.755zm-6.978 2.917c-2.075-.385-3.081-2.221-2.651-4.073.5-2.152 2.037-2.779 3.707-2.673 1.67.105 3.38 1.463 3.247 3.557-.154 2.42-2.406 3.54-4.303 3.189zm12.404 3.54c1.283-.055 2.496-1.012 3.552-4.213.936 2.087 2 4.256 4.34 4.214 3.062-.056 4.616-6.467 4.448-11.97-.037-1.241-.208-2.835-1.662-2.835-1.085 0-1.226 2.007-1.241 3.053-.03 2.061-.407 8.188-1.694 8.2-.674.005-1.705-2.05-1.992-2.758-.55-1.352-1.09-2.298-2.22-2.356-1.085-.056-1.68.795-1.964 2.12-.064.301-.757 2.724-1.458 2.654-.995-.1-1.506-5.608-1.603-6.726-.116-1.336-.158-3.222-1.612-3.166-.566.021-1.124.718-1.264 1.628-.341 2.225.503 6.788.811 7.808.46 1.525 1.455 4.44 3.559 4.348zm29.007-5.86c.854-.1 1.041-1.043.979-1.371-.16-.845-1.196-1.075-1.9-1.066-2.014.024-4.028.034-6.042.003-.835-.013-1.596.323-1.526 1.135.078.905 1.042 1.33 1.794 1.328.394-.002 5.944.058 6.695-.029zm11.21 5.86c1.04-.064 1.283-1.06 1.342-1.77.147-1.782.14-2.739.14-2.739s2.622-.86 3.453-1.308c1.659-.894 3.446-2.213 3.233-4.723-.273-3.22-4.35-4.307-6.594-4.34-.633-.008-2.297-.17-2.907.504-.22.244-.199 1.71-.19 2.433.038 2.748.064 7.74.072 9.88.004 1.308.6 2.117 1.45 2.064zm1.344-7.592l-.054-4.52s1.16-.044 2.225.384c.898.36 1.73 1 1.739 1.667.012.809-.966 1.585-1.946 2.033-.98.447-1.964.436-1.964.436zm9.781 7.595c.67 0 1.266-.68 1.342-1.453.149-1.504.03-2.759.069-3.922 1.457 1.248 2.45 2.344 4.252 3.526.95.623 2.254 1.323 3.052.796 1.208-.798.428-1.906-.146-2.36-2.038-1.607-3.863-3.108-3.863-3.108s3.16-1.307 3.2-4.426c.025-1.901-.954-3.89-5.21-3.873-1.302.005-3.274.1-3.747.734-.482.648-.4 4.811-.408 6.11-.009 1.658-.009 4.434.041 6.345.018.668.493 1.631 1.418 1.631zm1.386-8.675l-.001-3.018s2.93-.9 3.353.806c.526 2.116-3.352 2.212-3.352 2.212zm21.337 2.215c.377-4.171-2.893-6.424-5.365-6.73-3.352-.413-6.93 1.752-7.048 5.872-.107 3.745 2.458 6.516 6.11 6.613 3.176.083 5.962-1.993 6.303-5.755zm-6.979 2.917c-2.074-.385-3.08-2.221-2.65-4.073.499-2.152 2.037-2.779 3.707-2.673 1.67.105 3.38 1.463 3.247 3.557-.154 2.42-2.406 3.54-4.304 3.189zm10.008 3.54c1.04-.064 1.283-1.06 1.342-1.77.147-1.782.14-2.739.14-2.739s2.622-.86 3.453-1.308c1.659-.894 3.446-2.213 3.233-4.723-.273-3.22-4.35-4.307-6.594-4.34-.633-.008-2.297-.17-2.907.504-.22.244-.199 1.71-.19 2.433.038 2.748.064 7.74.072 9.88.004 1.308.6 2.117 1.45 2.064zm1.344-7.592l-.054-4.52s1.16-.043 2.225.384c.898.36 1.73 1 1.739 1.667.012.809-.966 1.586-1.946 2.033-.98.447-1.964.436-1.964.436zm20.207 1.135c.377-4.171-2.893-6.424-5.365-6.73-3.352-.413-6.93 1.752-7.048 5.872-.107 3.745 2.458 6.516 6.11 6.613 3.176.083 5.962-1.993 6.303-5.755zm-6.979 2.917c-2.075-.385-3.08-2.221-2.65-4.073.499-2.152 2.036-2.779 3.707-2.673 1.67.105 3.38 1.463 3.247 3.557-.154 2.42-2.406 3.54-4.304 3.189zm14.206 3.351c2.642-.69 4.101-3.787 2.344-6.271-.758-1.072-1.904-1.708-3.119-2.135-1.042-.367-2.548-.47-2.32-2.086.167-1.188 1.276-1.521 2.152-1.201.894.326 1.97 1.018 2.743.23 1.003-1.023.111-2.183-1.17-2.725-1.127-.476-2.605-.462-3.768-.175-2.605.642-3.665 2.98-2.685 5.648.995 2.707 6.695 2.526 5.788 5.105-.503 1.428-2.518.907-4.123.522-1.148-.276-2.055.124-2.092 1.196-.072 2.078 4.484 2.354 6.25 1.892zm16.527.042c.574-.255 1.087-1.325.68-2.127-1.488-2.936-2.096-4.532-2.871-6.084-.943-1.889-2.463-6.062-4.17-6.062-1.85 0-2.61 2.124-3.222 3.867-.774 2.2-1.663 4.364-2.458 6.619-.318.901-.726 2.19-.047 2.772.301.257 1.206.431 1.75-.027.68-.575 1.458-2.904 1.458-2.904l5.36-.059.022.046c.167.345 1.224 2.52 1.527 3.092.512.967 1.185 1.216 1.97.867zm-7.935-6.807a211.8 211.8 0 001.468-4.19c.283.573 1.538 3.424 1.9 4.19-.872.02-2.657 0-3.368 0zm13.389 6.923c2.047-.13 4.545-.568 4.928-.694.808-.266 1.193-.955 1.127-1.627-.096-.968-.958-1.16-1.628-1.151-.424.005-4.358.51-4.358.51-.169-6.07-.169-6.454-.252-9.153-.055-1.787-.176-2.916-1.9-2.747-1.2.118-1.092 1.908-1.05 3.26.083 2.644.054 6.065.214 8.611.082 1.308.055 2.033.627 2.66.433.477 1.837.36 2.292.331zm13.263-.158c2.642-.69 4.101-3.787 2.344-6.271-.758-1.072-1.904-1.708-3.119-2.135-1.042-.367-2.548-.47-2.32-2.086.167-1.188 1.276-1.521 2.152-1.201.894.326 1.97 1.018 2.743.23 1.003-1.023.111-2.183-1.17-2.725-1.127-.476-2.605-.462-3.768-.175-2.605.642-3.665 2.98-2.685 5.648.995 2.707 6.695 2.526 5.788 5.105-.503 1.428-2.518.907-4.123.522-1.148-.276-2.055.124-2.092 1.196-.072 2.078 4.484 2.354 6.25 1.892z" id="a"/>
  </defs>
  <g transform="translate(0 32)" fill="none" fill-rule="evenodd">
    <path stroke="#B0B0DB" stroke-width="2.681" stroke-linecap="round" d="M10.69 33.08l.11-9.51m-4.81 4.7l9.51.11M42.18 406.9l.11-9.51m-4.81 4.7l9.51.11"/>
    <path d="M180.6 394.58c-43.21-7.75-103.39-24.74-145.09-99.71C-2.31 226.9-24.72 123 46.46 57.66c71.18-65.34 287.44-85.95 369.57 0s19.73 382.63-235.43 336.92z" fill="#EFEFF8" fill-rule="nonzero"/>
    <path stroke="#B0B0DB" stroke-width="2.681" stroke-linecap="round" d="M429.05 399.75l.11-9.51m-4.81 4.7l9.51.11"/>
    <rect fill="#DFE1F0" fill-rule="nonzero" transform="rotate(-180 244.115 221.31)" x="41.01" y="100.93" width="406.21" height="240.76" rx="5"/>
    <rect fill="#FFF" fill-rule="nonzero" transform="rotate(-180 231.735 208.92)" x="28.63" y="88.54" width="406.21" height="240.76" rx="5"/>
    <rect fill="#DFE1F0" x="174" y="176" width="132" height="14" rx="2"/>
    <circle fill="#EFEFF8" fill-rule="nonzero" cx="404.1" cy="111.69" r="9.18"/>
    <circle fill="#B0B0DB" fill-rule="nonzero" cx="404.1" cy="108.83" r="2.46"/>
    <path d="M404.1 112.1a4.1 4.1 0 014.1 4.1v.8H400v-.82a4.1 4.1 0 014.1-4.08z" fill="#B0B0DB" fill-rule="nonzero"/>
    <path d="M86.38 174.73c-1.25 4 6.13 6.71 7 9.21.48 1.38-3 8.68-1.16 11 2.32 2.93 9.53-2.46 12.19-2.75 1.72-.19 7.57 4.12 9.29 3.74 6-1.34 1.83-9 2.21-10.83.81-3.85 8.11-6.52 6.71-9.88-1.73-4.12-9.28-3.28-10.64-4.21-2.11-1.44-4-10.16-7.48-10-3.48.16-5.46 7.19-6.86 9-1.7 2.12-10.12 1.05-11.26 4.72z" fill="#FCCE76" fill-rule="nonzero"/>
    <path d="M118.52 175.13l-9.15-1.33-4.09-8.29a.9.9 0 00-1.61 0l-4.09 8.29-9.14 1.33a.9.9 0 00-.5 1.53l6.62 6.45-1.56 9.11a.9.9 0 001.3.95l8.18-4.31 8.18 4.31a.9.9 0 001.3-.95l-1.56-9.11 6.61-6.45a.89.89 0 00-.49-1.53z" fill="#FEDDA1" fill-rule="nonzero"/>
    <path d="M58.71 189.27c-1 3.25 5 5.41 5.64 7.42.39 1.11-2.42 7-.94 8.85 1.87 2.36 7.68-2 9.82-2.21 1.39-.16 6.1 3.32 7.49 3 4.85-1.08 1.47-7.26 1.78-8.73.65-3.1 6.53-5.25 5.4-8-1.39-3.32-7.47-2.65-8.57-3.4-1.7-1.16-3.24-8.19-6-8-2.76.19-4.4 5.8-5.53 7.22-1.38 1.75-8.17.89-9.09 3.85z" fill="#FCCE76" fill-rule="nonzero"/>
    <path d="M84.61 189.59l-7.37-1.07-3.3-6.68a.72.72 0 00-1.29 0l-3.3 6.68-7.35 1.07a.72.72 0 00-.4 1.23l5.33 5.2-1.25 7.34a.71.71 0 001 .76l6.59-3.46 6.6 3.46a.72.72 0 001-.76l-1.2-7.36 5.34-5.2a.72.72 0 00-.4-1.21z" fill="#FEDDA1" fill-rule="nonzero"/>
    <path d="M121.09 189.27c-1 3.25 4.94 5.41 5.64 7.42.38 1.11-2.42 7-.94 8.85 1.87 2.36 7.68-2 9.82-2.21 1.39-.16 6.1 3.32 7.49 3 4.84-1.08 1.47-7.26 1.77-8.73.66-3.1 6.54-5.25 5.41-8-1.39-3.32-7.47-2.65-8.57-3.4-1.7-1.16-3.24-8.19-6-8-2.76.19-4.4 5.8-5.53 7.22-1.39 1.75-8.18.89-9.09 3.85z" fill="#FCCE76" fill-rule="nonzero"/>
    <path d="M147 189.59l-7.37-1.07-3.29-6.68a.73.73 0 00-1.3 0l-3.29 6.68-7.37 1.07a.72.72 0 00-.4 1.23l5.33 5.2-1.31 7.34a.72.72 0 001.05.76l6.59-3.46 6.59 3.46a.72.72 0 001.05-.76l-1.23-7.36 5.33-5.2a.72.72 0 00-.38-1.21z" fill="#FEDDA1" fill-rule="nonzero"/>
    <path d="M70 269.64v23.29c0 2.85 15.46 5.16 34.54 5.16s34.55-2.31 34.55-5.16v-23.29H70z" fill="#DFE1F0" fill-rule="nonzero"/>
    <ellipse fill="#FFF" fill-rule="nonzero" cx="104.51" cy="269.04" rx="34.55" ry="5.16"/>
    <path d="M70 243.76v23.29c0 2.85 15.46 5.16 34.54 5.16s34.55-2.31 34.55-5.16v-23.29H70z" fill="#DFE1F0" fill-rule="nonzero"/>
    <ellipse fill="#FFF" fill-rule="nonzero" cx="104.51" cy="243.17" rx="34.55" ry="5.16"/>
    <path d="M70 217.89v23.29c0 2.85 15.46 5.16 34.54 5.16s34.55-2.31 34.55-5.16v-23.29H70z" fill="#DFE1F0" fill-rule="nonzero"/>
    <ellipse stroke="#FFF" stroke-width="2.367" fill="#DFE1F0" fill-rule="nonzero" cx="104.51" cy="217.29" rx="34.55" ry="5.16"/>
    <g fill-rule="nonzero">
      <use fill="#000" xlink:href="#a"/>
      <use fill="#5E63B6" xlink:href="#a"/>
    </g>
    <g transform="translate(317 171)">
      <rect fill="#81CCCC" fill-rule="nonzero" width="30" height="24" rx="3"/>
      <path fill="#FFF" d="M9.087 11.576L8 12.556 12.48 17 22 7.556l-1.103-1.07-8.417 8.492z"/>
    </g>
    <g transform="translate(317 204)">
      <rect fill="#81CCCC" fill-rule="nonzero" width="30" height="24" rx="3"/>
      <path fill="#FFF" d="M9.087 11.576L8 12.556 12.48 17 22 7.556l-1.103-1.07-8.417 8.492z"/>
    </g>
    <g transform="translate(317 237)">
      <rect fill="#81CCCC" fill-rule="nonzero" width="30" height="24" rx="3"/>
      <path fill="#FFF" d="M9.087 11.576L8 12.556 12.48 17 22 7.556l-1.103-1.07-8.417 8.492z"/>
    </g>
    <g transform="translate(317 268)">
      <rect fill="#81CCCC" fill-rule="nonzero" width="30" height="24" rx="3"/>
      <path fill="#FFF" d="M9.087 11.576L8 12.556 12.48 17 22 7.556l-1.103-1.07-8.417 8.492z"/>
    </g>
    <g transform="translate(351 171)">
      <rect fill="#FF8394" fill-rule="nonzero" width="30" height="24" rx="3"/>
      <rect fill="#FF8394" fill-rule="nonzero" width="30" height="24" rx="3"/>
      <path fill="#FFF" d="M16.295 12.753l4.878-5.065-.928-.853-4.745 5.007-4.81-5.007-.836.853 4.832 5.065-4.832 4.664.836.744 4.81-4.676 4.898 4.676.775-.892z"/>
    </g>
    <g transform="translate(351 204)">
      <rect fill="#FF8394" fill-rule="nonzero" width="30" height="24" rx="3"/>
      <rect fill="#FF8394" fill-rule="nonzero" width="30" height="24" rx="3"/>
      <path fill="#FFF" d="M16.295 12.753l4.878-5.065-.928-.853-4.745 5.007-4.81-5.007-.836.853 4.832 5.065-4.832 4.664.836.744 4.81-4.676 4.898 4.676.775-.892z"/>
    </g>
    <g transform="translate(351 236)">
      <rect fill="#FF8394" fill-rule="nonzero" width="30" height="24" rx="3"/>
      <rect fill="#FF8394" fill-rule="nonzero" width="30" height="24" rx="3"/>
      <path fill="#FFF" d="M16.295 12.753l4.878-5.065-.928-.853-4.745 5.007-4.81-5.007-.836.853 4.832 5.065-4.832 4.664.836.744 4.81-4.676 4.898 4.676.775-.892z"/>
    </g>
    <g transform="translate(351 268)">
      <rect fill="#FF8394" fill-rule="nonzero" width="30" height="24" rx="3"/>
      <rect fill="#FF8394" fill-rule="nonzero" width="30" height="24" rx="3"/>
      <path fill="#FFF" d="M16.295 12.753l4.878-5.065-.928-.853-4.745 5.007-4.81-5.007-.836.853 4.832 5.065-4.832 4.664.836.744 4.81-4.676 4.898 4.676.775-.892z"/>
    </g>
    <rect fill="#DFE1F0" x="174" y="209" width="132" height="14" rx="2"/>
    <rect fill="#DFE1F0" x="174" y="241" width="132" height="14" rx="2"/>
    <rect fill="#DFE1F0" x="174" y="273" width="132" height="14" rx="2"/>
  </g>
</svg>
