<svg width="487" height="274" xmlns="http://www.w3.org/2000/svg">
  <g fill="none" fill-rule="evenodd">
    <path d="M322.084 101.012c.404-.125.71.871.916 2.988-1.863 1.166-2.878 1.479-3.044.938-.248-.81 1.52-3.739 2.128-3.926zM386 145l9.218-1.004c.6 1.365-.139 2.7-2.218 4.004-2.079 1.304-4.8 2.307-8.165 3.01L386 145zM400.397 122.259c.58-1.407.729-2.623.448-3.647-1.4-5.11-2.337-5.942-2.742-6.48 6.019 1.678 7.767 6.19 5.246 13.537-3.34 1.199-5.167 1.692-5.478 1.479-.103-.07-1.175-3.163-1.456-6.207-.296-3.206.213-6.38.722-6.858.22-.206.485 1.7 1.621 5.048.319.937.865 1.98 1.639 3.128z" fill="#89C3EA"/>
    <path d="M398.726 125.281c1.38-1.235 3.642-.463 5.252-.41.601.019 1.095-1.379 1.442-1.116.51.385.09.627-.386 1.958-.07.197.804-.066.694.287-.087.277-.543 1.177-.95 1.95-.198.375-.739.885-1.622 1.532l-5.352.176c-.648-1.787-.341-3.246.922-4.377zM288 162c.465-.53.774-.65.926-.36.777 1.479 1.19 4.3 1.638 4.907 1.811 2.459 3.407 3.612 3.547 4.16.31 1.217-2.998-.595-4.409-3.134-.94-1.692-1.507-3.55-1.702-5.573zM282.842 137.49c-.497 1.594-2.2 3.881-2.313 4.628-.457 3.018-.144 4.962-.433 5.449-.641 1.08-1.7-2.541-.901-5.334.798-2.792 3.793-5.213 3.647-4.744zM302.015 136.5c-.744-2.07-.033-4.775 1.215-4.775.572 0 2.137 3.705 7.053 9.71.82 1.001 3.34 3.417 5.719 5.058 1.099.758 2.05.343 2.998 1.354.501.535.501 1.586 0 3.153-1.568.204-2.567.204-2.998 0-.956-.453-1.465-1.383-1.993-1.658-3.186-1.663-4.93-3.695-6.297-5.142-2.905-3.076-4.953-5.63-5.697-7.7z" fill="#89C3EA"/>
    <path d="M305.94 122.439c-1.794 3.03-2.376 3.78-4.915 5.917-.601.507-1.573-.03-2.398.846-4.306 4.575-10.704 7.743-12.51 8.798-1.807 1.055-3.622.326-3.096-1.385.13-.421.39-1.63 1.602-2.497 3.708-2.65 11.52-6.202 12.868-7.41 1.651-1.479 2.332-3.89 3.383-5.085 2.453-2.787 7.285-2.932 5.066.816z" fill="#89C3EA"/>
    <path d="M305.626 123.905c-.068-2.198 1.062-4.62 2.25-4.235.542.177 4.6 5.455 7.42 12.684.47 1.206 2.122 4.283 3.877 6.578.81 1.06 2.277-.322 2.865.933.312.663-.157 2.09-1.406 4.28-1.555-.29-2.505-.599-2.852-.926-.769-.727-.966-1.768-1.383-2.194-1.144-1.166-3.782-4.119-5.853-7.603-1.86-3.131-3.177-6.767-4.007-8.648-.278-.63-.902-.568-.911-.869zM318.473 86.191c.04-.615 1.924 1.116 2.368 4.027.337 2.207-2.017 8.55-4.204 12.157-1.122 1.85-2.749 1.22-2.806 1.14-.099-.137-1.173-.267-1.303-1.776-.069-.807.303-1.74.496-2.895.23-1.375.305-2.985.465-3.963.618-3.788 4.978-8.594 4.984-8.69z" fill="#89C3EA"/>
    <path d="M312.138 100.317c.04-.615 2.633 1.786 3.077 4.697.51 3.339-1.104 7.336-.742 8.025.314.595-4.309 2.19-4.476 1.956-.215-.3-1.052-4.78-.508-8.114.618-3.788 2.643-6.468 2.649-6.564z" fill="#89C3EA"/>
    <path d="M309.997 114.995c-.068-2.198 3.289-2.342 4.476-1.956.317.103.566 2.568 2.164 5.701 1.139 2.234 7.136 10.816 8.89 13.111.811 1.061-1.79 4.84-2.208 4.414-1.144-1.167-7.416-7.955-9.488-11.44-1.86-3.13-3.825-9.529-3.834-9.83zM319.376 105.656c.315-2.177 4.179-1.925 5.281-1.339.294.157.036 2.682 1.065 6.045.734 2.397 4.037 12.176 5.367 14.74.614 1.186-2.604 4.455-2.941 3.964-.924-1.348-5.923-9.122-7.357-12.914-.89-2.352-.652-6.988-.966-9.271-.14-1.023-.462-1.133-.45-1.225zM300.289 131c1.423 0 2.883-.236 2.456 4.098-.345 3.505-.556 4.43-1.953 7.44-.331.714-1.439.638-1.816 1.78-1.97 5.967-7.41 15.113-8.601 16.833-1.191 1.72-2.81 1.773-3.057 0-.246-1.773.975-4.088 2.174-6.356 2.693-5.092 6.456-10.048 7.4-12.256.871-2.039.47-4.512.917-6.039 1.045-3.563 2.102-5.5 2.48-5.5zM354.15 195.363c-.64-.238-1.114-.298-1.419-.18-1.556.608-3.719 2.466-4.455 2.63-2.98.667-4.941.49-5.406.813-1.033.715 2.653 1.517 5.383.527 1.82-.66 3.786-1.924 5.897-3.79zM368.98 192.275c-1.557.607-2.685 2.45-4.793 3.319-3.19 1.315-4.852.71-5.317 1.032-1.033.715 2.587.99 5.317 0s5.25-4.529 4.793-4.35z" fill="#89C3EA"/>
    <path d="M370.022 169.338c1.25.289 1.416 7.335-.457 9.848-.443.596-1.886.654-2.462 1.64-3.01 5.143-9.748 12.537-11.163 13.894-1.415 1.356-3.838.68-3.674-1.018.164-1.697 2.722-3.203 4.262-5.066 3.457-4.185 7.825-8.026 9.127-9.887.384-.55.124-1.19.329-1.984.435-1.687 1.126-3.723 1.616-4.626 1.682-3.098 2.091-2.877 2.422-2.8zM383.206 161.996c2.021-.867.386-3.285-.465-4.198-.149-.16-2.896-.842-6.33-1.225-2.645-.295-5.831-.201-8.513-.42-2.957-.241-5.325-.79-6.24-.99-1.304-.287-1.104-1.08-2.49-1.083-.733-.002-1.767 1.059-3.103 3.182.923 1.35 1.958 2.027 3.103 2.033.297.001.456-.009 1.572 0 2.683.02 7.035 2.693 8.44 2.701 2.718.018 13.303.311 14.026 0zM386.495 151.102c.83-.357-.064-1.126 0-1.943.092-1.172.843-2.468.342-3.006-.149-.16-10.865.636-13.547.417-2.957-.241-8.886-.904-9.801-1.105-1.304-.286-3.953 4.982-2.235 4.99.296.002 8.52 1.533 9.927 1.541 2.717.018 14.59-.583 15.314-.894z" fill="#89C3EA"/>
    <path d="M391 152.08c-2.957-.241-9.568 6.956-7.85 6.964.297.002.393 1.807 1.508 1.815 1.89.014 8.976-4.22 10.067-6.813.459-1.09-2.93-1.901-3.725-1.966z" fill="#89C3EA"/>
    <path d="M401.905 143.81c-1.187-.097-2.516 2.904-4.436 4.324-2.86 2.114-7.056 4.236-6.028 4.241.296.002 2.102 1.476 3.217 1.484.946.007 4.757-1.774 7.755-3.967 2.992-2.188 5.17-4.787 5.714-6.082.46-1.09-5.427.065-6.222 0zM378.518 160.991c1.277-.067 2.995 7.773 1.901 10.896-.259.74-1.624 1.218-1.901 2.396-1.45 6.151-7.41 15.718-8.388 17.52-.977 1.803-1.92 1.79-2.236 0-.315-1.789 1.715-4.076 2.67-6.435 2.146-5.298 5.023-10.942 5.752-13.229.215-.675.025-.822 0-1.696-.053-1.858.042-4.147.26-5.216.227-1.113-.23-2.484 0-3.095.526-1.402 1.706-1.128 1.942-1.14zM366.973 172.308c2.021-.867 3.515-3.232 2.663-4.145-.39-.418-3.055-.5-10.8 0-1.29.083-5.888 1.351-8.71.731-1.304-.286-1.572-1.811-2.958-1.814-.733-.002-1.527.897-2.383 2.695.92 1.286 1.601 2.017 2.044 2.193.984.39 2.01.128 2.573.327 3.388 1.195 6.063 1.085 8.054 1.098 2.717.017 5.321-.954 7.167-1.254 1.03-.167 1.627.48 2.35.17z" fill="#89C3EA"/>
    <path d="M375.34 164.857c2.021-.868 3.175-2.864 2.323-3.777-.39-.418-5.077.063-12.821.563-1.291.083-6.362 1.14-9.184.52-1.304-.287-1.104-1.08-2.49-1.083-.733-.002-1.767 1.059-3.103 3.182 1.625 1.18 2.66 1.857 3.103 2.033.289.114.773-.56 1.889-.552 2.683.02 7.24.543 8.646.552 2.717.017 10.914-1.127 11.637-1.438zM340.133 85.818c5.822-6.716 11.13-8.606 15.923-5.671-2.566.398-6.072 2.19-10.518 5.375 1.875-.13 3.193-.263 3.954-.398 3.473-.615 4.88-1.163 4.742-.706-.846 2.8-4.996 4.483-12.45 5.047l-1.651-3.647z" fill="#89C3EA"/>
    <path d="M335 88.077c.854-2.21 1.604-3.474 2.25-3.795.435-.216.29 1.039.73.718.505-.368 1.59-2.3 1.98-2.284.65.026.496 1.142.943 1.566.589.559 1.935.253 2.097.718.66 1.894 1.507 2.988 0 5-1.005 1.341-3.671 2.487-8 3.438v-5.361z" fill="#89C3EA"/>
    <path d="M355.013 30.624c17.085-7.335 30.449-10.14 40.407 0-3.921-.472-7.972 1.374-13.332 3.48-1.33.523-1.1 2.862-2.537 3.417-1.442.558-4.612-.724-6.004 0-.772.401-.082 3.359-.854 3.766-1.885.995-6.236.413-7.823 1.551-1.006.722 2.05 1.756 1.194 2.525-1.144 1.028-4.29 1.677-5.413 2.661-3.625 3.179-4.545 6.761-4.913 7.011-.098.067 11.012-5.042 20.513-9.672 9.162-4.465 14.179-9.993 15.145-8.527.542.822-2.531 9.656-10.216 13.624-7.427 3.835-5.89 2.413-16.31 5.827-.578.189-4.578 1.83-5.77 2.366-1.204.541-.315 4.93-1.705 6.236-.688.647-6.147-.587-6.784 0-.49.451 1.401 3.585.85 3.965-1.075.739-7.021-1.653-7.945-.917-1.017.812.373 3.743-.73 4.195-.746.306-4.59-1.05-5.502-1.39-2.225-.828-4.121-1.111-5.6-.659-7.258 2.22-12.263 2.253-12.904-2.146-.14-.963-1.773-2.56-1.44-3.772.224-.815 1.693-.164 2.129-1.061 4.928-10.152 21.536-26.468 35.544-32.48z" stroke="#5563B6" stroke-width="4" fill="#FFF" stroke-linejoin="round"/>
    <path d="M332.154 69.697c1.72 2.58-1.365 5.036-.421 8.241.298 1.011 3.186 5.909 3.406 6.794.757 3.042 1.945 5.815.487 7.677-1.587 2.029-4.511 3.677-7.709 3.11-2.845-.506-8.368-1.513-11.244-9.785-.173-.497-3.361-8.458-3.271-9.126.169-1.26 3.852-.03 4.667-.866.723-.742-.229-3.723.365-4.483.793-1.012 4.663-4.321 6.262-5.11 2.507-1.234 6.22 1.692 7.458 3.548z" stroke="#5563B6" stroke-width="4" fill="#FFF"/>
    <path d="M318.069 93.441c.86-5.037 8.748-7.098 15.09-3.973.966.477 4.665 1.571 5.069 1.923.53.46 1.239 8.146 1.193 8.926-.036.62 1.086 4.783 3.366 12.49l-9.165 8.134c-.504-1.657-.938-2.728-1.303-3.213-2.329-3.092-4.414-4.447-5.344-5.853-3.68-5.557-6.186-13.638-6.374-14.03-1.698-3.538-2.936-2.039-2.532-4.404zM366 131c4.149-.545 6.922-.815 8.318-.81.722.003 2.3.81 5.752.81 1.78 0 9.304-2.762 9.823-2.484.474.254 2.486 2.188 2.814 2.484 1.917 1.726 1.57 3.776 2.511 5.636 2.122 4.19 2.954 7.285-1.218 9.364-4.496 2.24-14.774.852-30.833-4.165L366 131z" stroke="#5563B6" stroke-width="4" fill="#FFF"/>
    <path d="M417.395 77.991c4.672-16.463 6.722-16.778 9.731-16.778.092 0-2.218 4.381-2.787 8.971-1.45 11.702.284 29.296 0 28.778-.066-.12 1.686-.667 4.468-5.524.37-.645-.421-3.127 0-3.973.83-1.665 2.214-1.362 3.238-2.988.684-1.085-1.364-5.854-1.022-6.813.321-.9 3.362-.331 3.466-1.292.18-1.67-2.492-4.435-2.444-6.196.055-2.005 1.97-1.878 2.444-3.502.518-1.78-.428-5.28-1.042-6.799-1.5-3.713-4.67-5.12-4.64-5.233 14.648.998 22.87 11.29 22.004 28.395-.626 12.361-2.159 22.445-26.068 51.224-.235.283-.267 1-.404 1.502-.189.692-1.358.03-2.98 0-.858-.017-2.508.063-4.95.237l-.59-8.626c-2.183-3.053-3.694-5.287-4.531-6.702-.321-.542 1.875.239 1.703-.356-.432-1.5-4.186-6.515-4.253-7.32-.082-.989 3.952.628 4.253 0 .333-.694-.524-3.424-.52-3.801.005-.581-2.789-3.743-2.775-4.314.012-.522 4.396-.71 4.415-1.225.086-2.386-1.327-2.431-1.12-4.647.093-.988 2.163-1.093 2.276-2.047.26-2.195-.124-4.392 0-6.513.315-5.384.974-10.392 2.128-14.458z" stroke="#5563B6" stroke-width="4" fill="#FFF" stroke-linejoin="round"/>
    <path d="M390.526 131.08c0-1.09 3.419-2.553 7.922-2.592 3.505-.03 7.717 1.295 11.166 1.135 2.171-.101 2.237-1.11 3.931-2.196 1.695-1.085 3.64 0 4.572 1.06 3.601 4.096.395 9.502 0 9.806-.596.458-.692 4.077-1.777 5.517-1.121 1.489-4.747 1.999-5.335 2.001-5.556.024-11.589-.264-15.787-2.8-5.112-3.089-4.692-10.657-4.692-11.93z" stroke="#5563B6" stroke-width="4" fill="#FFF"/>
    <g stroke-linecap="round">
      <path stroke="#ACD3EF" stroke-width="3" d="M36.75 23.316v11.368M31.324 29.25h10.352"/>
      <path stroke="#5563B6" stroke-width="2" d="M147 28.868v7M143.176 32.118h7M91 75.868v7M87.176 79.118h7"/>
      <path stroke="#ACD3EF" stroke-width="3" d="M265.75 36.316v11.368M260.324 42.25h10.352M105.75 189.316v11.368M100.324 195.25h10.352"/>
      <path stroke="#5563B6" stroke-width="2" d="M176.5 200.5v7M172.676 203.75h7M16 226.868v7M12.176 230.118h7M234 242.868v7M230.176 246.118h7"/>
      <path stroke="#ACD3EF" stroke-width="3" d="M212.75 152.316v11.368M207.324 158.25h10.352"/>
    </g>
    <path d="M96.451 153.88c4.845-5.927 2.674-19.483 1.051-26.313 2.886-.408 4.673-.7 7.082-1.746 2.384-1.035 3.145-2.632 2.461-4.36-.907-2.296-3.077-2.429-6.483-2.13-3.787.331-12.112 1.125-16.01 1.822-.385.069-.777.13-1.166.194l-.388.065c-2.32.394-4.43.953-4.26 3.545.186 2.849 2.695 3.38 5.485 3.618 1.863.16 6.261-.308 6.261-.308l.015.073.026.124c.13.638.554 2.738.932 4.947l.09.531c.221 1.33.416 2.662.512 3.702.289 3.15 1.31 8.435-1.098 10.755-1.462 1.41-3.936.126-6.303-1.306l-.417-.253c-.622-.382-1.232-.762-1.81-1.096-2.219-1.28-4.38-.844-5.552 1.707-.84 1.826-.16 3.451 2.115 5.207 6.221 4.803 13.394 6.195 17.457 1.223zm41.455-12.682c.5-5.184.669-11.525-.454-16.627-.534-2.425-2.4-3.24-4.133-3.016-1.984.255-2.41 1.927-2.582 3.619-.364 3.566 2.948 23.984-6.526 24.01-7.353.019-5.366-20.69-5.692-23.617-.363-3.25-1.74-4.785-4.435-4.064-3.039.813-2.859 4.198-2.982 6.72-.307 6.312.15 16.877 3.2 22.496 1.64 3.02 5.49 5.951 9.87 6.256 8.068.56 13.025-8.431 13.734-15.777zm38.202 12.668c1.87-4.332 1.495-26.586 1.418-30.108-.043-1.993-.023-4.538-3.375-4.568-2.346-.02-3.294 2.26-3.675 4.9-.181 1.261-.274 5.718-.356 10.323l-.024 1.383c-.07 3.99-.137 7.864-.253 9.637-1.7-1.891-3.72-4.624-5.759-7.488l-.556-.784c-3.8-5.37-7.565-10.97-9.331-12.2-3.02-2.103-4.918-2.171-7.017-1.27-2.205.946-3.474 3.526-3.553 5.315-.102 2.303-.378 17.257-.162 23.243.064 1.766.432 4.692 3.667 4.715 2.698.019 3.129-3.367 3.266-5.25.277-3.808.34-9.228.342-13.468v-.86a592.41 592.41 0 00-.023-4.386c.265.338.598.774.985 1.289l.404.54c3.933 5.268 12.2 16.796 14.252 18.846.24.24.464.493.683.746l.262.304c.958 1.112 1.937 2.168 4.044 2.27 1.823.089 3.83-.97 4.76-3.129zm13.224 3.133c4.206-.054 10.165-.706 14.83-1.78 1.469-.338 3.216-1.738 3.06-4.085-.19-2.833-2.402-3.659-3.653-3.627-3.655.093-13.684 1.439-13.684 1.439l-.168-7.252s3.09-.186 6.132-.503l.552-.059c1.467-.162 2.877-.353 3.874-.57 3.908-.847 3.348-7.454-2.027-7.41-2.555.022-8.387.353-8.387.353l-.134-5.025h.036c.628-.01 9.468-.144 12.327-.343 2.408-.167 5.132-1.353 4.672-4.646-.378-2.7-3.521-3.282-6.034-3.322-2.817-.044-9.882-.306-14.316.347-1.477.218-3.552 2.237-3.61 4.595l-.105 21.779c.271 6.82.037 10.193 6.635 10.109z" fill="#5E63B6" fill-rule="nonzero"/>
    <path d="M262.653 206.603c3.281 8.778 10.477 17.352 21.588 25.723 16.666 12.557 38.761 8.236 38.67 9.041-.105.931 1.315 2.168 1.121 2.48-.665 1.071-2.583.079-2.754.57-.366 1.052 1.094 1.877.808 2.248-.76.988-2.66-1.012-3.017-.547-.791 1.03-.714 1.699-1.161 2.039-1.138.864-2.51-2.499-3.002-2.039-1.396 1.303-.112 2.517-.794 2.892-1.58.869-2.396-3-3.064-2.642-.713.383-.327 1.646-.765 1.789-1.703.555-2.03-3.98-2.73-3.74-.552.187-.396 2.169-.757 2.248-1.009.223-1.743-2.905-2.292-2.818-.9.142-.24 2.931-.8 2.818-1.174-.236-1.685-2.145-2.317-2.249-1.03-.169-1.129 1.821-1.708 1.702-1.11-.228-.878-2.158-1.477-2.27-.775-.146-1.786 1.5-2.261 1.39-1.035-.24-.59-2.964-1.177-3.09-1.064-.227-.624 1.858-1.223 1.7-1.174-.312-1.31-3.093-1.894-3.247-.478-.126-1.386 1.648-1.718 1.548-1.112-.338-.534-3.907-1.106-4.071-.648-.186-1.56 1.768-1.95 1.643-.78-.251-.221-2.978-.644-3.11-.513-.16-1.679 1.573-1.988 1.467-.489-.169.303-3.152 0-3.253-.321-.108-1.762 1.87-2 1.786-.642-.227.439-3.124 0-3.273-1.53-.519-2.5 1.757-3.18 1.487-.584-.232.646-3.862.287-4.003-.504-.197-1.66.834-1.994.698-.779-.318-.345-2.7-.79-2.873-.508-.197-1.31 2.313-1.651 2.175-.735-.295-.577-2.586-1.032-2.763-.82-.32-1.253 1.914-1.738 1.712-.786-.327-.679-3.093-1.143-3.284-.692-.285-1.684 1.081-2.104.898-.648-.282.413-2.45 0-2.63-.803-.35-1.757.99-2.224.77-.555-.26.38-2.597 0-2.781-2.09-1.012-3.907-.133-4.019-.382-.773-1.72 1.93-3.628 1.93-4.59 0-.98-2.543.87-3.264-.871-.283-.683 1.783-1.503 1.334-2.765-.203-.57-2.604.972-3.014 0-.35-.83.62-.679 0-2.698-.144-.467-2.068.755-2.318 0-.16-.483.958-1.713.735-2.665-.186-.795-2.254.219-2.78-1.592-.203-.695 1.544-.92 1.356-2.545-.08-.699-2.612-2.197-2.12-3.17.24-.476 1.138-.324 2.81-1.06.302-.134-.64-3.359 0-3.855.126-.098-.027.449 2.317 0 .357-.068-.937-2.102 0-2.386.529-.16 1.534 3.986 3.014 12.438z" stroke="#89C3EA" fill="#89C3EA" stroke-linejoin="round"/>
    <path d="M264.156 195.478c2.55-.565 6.411.837 11.316 3.255 4.983 2.458 9.638 6.178 10.757 7.945-1.642 2.878-18.365 9.224-23.393 5.498-2.106-1.561-4.635-4.155-4.773-7.33-.185-4.233 3.543-8.804 6.093-9.368z" stroke="#5563B6" stroke-width="4" fill="#FFF"/>
    <path d="M273.366 208.41c2.55-.565 19.055-.237 20.175 1.53-1.643 2.878-11.49 15.976-16.261 17.3-4.771 1.325-12.508-6.748-12.693-10.98-.185-4.233 6.228-7.285 8.779-7.85zM323.762 235.026c-.743-2.504-3.598-5.754-8.09-8.871-4.565-3.167-10.32-4.882-12.408-5.005-1.72 2.832.836 20.535 6.533 23.126 2.386 1.085 5.88 2.04 8.726.621 3.791-1.89 5.981-7.366 5.239-9.87z" stroke="#5563B6" stroke-width="4" fill="#FFF"/>
    <path d="M307.807 231.922c-.342-2.59-6.295-17.987-8.338-18.435-2.143 2.528-11.083 16.261-10.696 21.198.388 4.936 10.62 9.445 14.66 8.171 4.04-1.273 4.715-8.344 4.374-10.934z" stroke="#5563B6" stroke-width="4" fill="#FFF"/>
    <path d="M286.23 211.47c2.55-.565 14.603 6.563 15.723 8.33-1.643 2.877-9.977 17.714-18.878 13.503-8.9-4.212.604-21.268 3.154-21.833z" stroke="#5563B6" stroke-width="4" fill="#FFF"/>
    <path d="M290.954 198.84c2.43-1.31 17.754 9.855 19.976 13.36-1.643 2.878-4.227 6.406-6.915 9.445-1.36 1.537-8.033.642-13.061-3.084-4.913-3.641-7.674-9.95-6.407-11.665 2.564-3.47 3.976-6.747 6.407-8.056z" stroke="#5563B6" stroke-width="4" fill="#FFF"/>
    <path d="M296.225 189.783c2.431-1.31 18.483 10.912 20.705 14.417-.879 1.54-.98 3.586-2.378 5.256-1.147 1.372-2.542 1.785-3.792 3.198-1.36 1.537-7.54.003-12.567-3.723-4.913-3.641-8.243-8.037-7.646-10.035.465-1.554.878-3.282 1.55-4.734.958-2.07 2.7-3.61 4.128-4.379z" stroke="#5563B6" stroke-width="4" fill="#FFF"/>
    <path d="M301.936 178.76c2.43-1.31 21.123 11.16 23.346 14.665-.88 1.54-2.251 5.74-3.648 7.41-1.148 1.37-2.708 2.395-4.227 3.482-1.52 1.087-8.186-.66-13.214-4.386-4.913-3.641-9.454-8.408-8.856-10.407.464-1.553 1.104-4.32 1.776-5.771.958-2.07 3.394-4.223 4.823-4.993z" stroke="#5563B6" stroke-width="4" fill="#FFF"/>
    <path d="M308.777 167.664c2.43-1.31 22.018 11.886 24.24 15.391-.878 1.54-2.16 6.18-3.557 7.85-1.147 1.37-2.659 2.873-4.178 3.96-1.52 1.087-10.494-2.332-15.522-6.059-4.912-3.64-10.021-7.283-9.423-9.282.464-1.553 1.104-4.32 1.776-5.771.958-2.07 5.236-5.32 6.664-6.089z" stroke="#5563B6" stroke-width="4" fill="#FFF"/>
    <path d="M316.777 156.664c2.43-1.31 22.018 11.886 24.24 15.391-.878 1.54-2.16 6.18-3.557 7.85-1.147 1.37-2.659 2.873-4.178 3.96-1.52 1.087-10.494-2.332-15.522-6.059-4.912-3.64-10.021-7.283-9.423-9.282.464-1.553 1.104-4.32 1.776-5.771.958-2.07 5.236-5.32 6.664-6.089z" stroke="#5563B6" stroke-width="4" fill="#FFF"/>
    <path d="M388.862 65.417c.146.305-5.036 1.838-8.474 11.236-.835 2.281-2.159 6.61-3.972 12.99l-1.105 1.748c2.363-9.115 4.325-15.12 5.886-18.015 2.34-4.342 7.358-8.598 7.665-7.959zM394.141 66.018c.146.304-7.45 8.503-10.878 14.116-2.286 3.742-3.96 6.7-5.026 8.877l-.972 1.021c3.9-7.8 7.16-13.19 9.778-16.171 3.929-4.473 6.792-8.482 7.098-7.843zM394.71 67.96c.046.098-1.728 1.458-4.17 5.039-1.177 1.727-2.87 5.378-5.962 10.214-1.043 1.633-3.002 4.36-5.875 8.178l-.337-.602c2.67-3.667 4.53-6.297 5.577-7.89 3.645-5.545 5.897-9.523 7.155-11.258 2.128-2.936 3.522-3.868 3.612-3.68zM397.494 71.382c.039.08-1.108 1.897-3.35 4.387-1.784 1.978-4.281 4.17-7.27 7.76-1.817 2.18-3.14 5.163-5.477 7.862-.898 1.036-2.43 2.469-4.598 4.3h-.548c2.382-2.515 4.04-4.347 4.974-5.496 3.409-4.193 5.578-7.456 7.08-9.188 2.091-2.415 4.423-4.321 5.838-5.839 2.451-2.629 3.268-3.96 3.351-3.786z" stroke="#5563B6" stroke-width="2"/>
    <path d="M304.907 113.97c16.868-8.907 37.173-20.071 56.588-26.97 1.959-.697 4.076-.697 6.352 0-24.344 10.885-46.258 21.334-65.742 31.347-13.24 6.804-27.832 15.169-35.164 21.47-8.477 7.285-7.365 13.694-7.887 13.183-.322-.316.012-6.912 3.066-10.423 8.483-9.753 23.642-18.5 42.787-28.608zM380.07 168.527c2.958-19.217 5.634-42.997 7.468-63.472.222-2.485-.579-4.651-2.404-6.498-1.705 1.153-2.131 2.425-1.279 3.818 1.279 2.09.882 5.597.715 7.509-1.966 22.406-2.55 42.075-6.56 60.437-6.373 29.182-7.625 31.144-12.212 39.728-5.076 9.5-11.613 11.477-10.972 11.826.396.215 6.897-3.136 9.361-7.082 6.847-10.964 12.397-23.624 15.883-46.266z" stroke="#5563B6" stroke-width="3" fill="#5563B6" stroke-linejoin="round"/>
    <path d="M364.583 88.952c.654-1.025 1.657-.227 2.19-.71.652-.592.802-2.323 1.239-2.014.338.239 2.428 3.325 1.85 8.879-.219 2.092-1.429 6.017-3.631 11.774l-7.767-5.693c1.62-3.427 2.741-5.77 3.361-7.03.341-.69.567 3.57.857 3 .43-.847 2.253-2.86 2.595-4.753-.694-1.505-.883-3.158-.694-3.453zM383.991 102.113c.67-1.014-.224-.278 0-.961.276-.837 2.173-2.359 1.713-2.633-.356-.212-2.9-1.874-7.738.913-1.823 1.05-5.498 3.873-11.024 8.468l8.36 4.78a582.093 582.093 0 005.054-5.93c.493-.592-3.491.935-3.089.438.336-.414 1.954-1.029 2.603-1.985.508-.75.743-1.211 1.441-1.687a3.134 3.134 0 002.68-1.403z" stroke="#5563B6" stroke-width="4" fill="#FFF"/>
    <ellipse stroke="#5563B6" stroke-width="4" fill="#5563B6" transform="rotate(30 374.317 104.317)" cx="374.317" cy="104.317" rx="2" ry="2.5"/>
    <ellipse stroke="#5563B6" stroke-width="4" fill="#5563B6" transform="rotate(41 366.317 100.317)" cx="366.317" cy="100.317" rx="2" ry="2.5"/>
    <path d="M356.953 100.253c.592-.364 4.159-.586 6.24.5.977.51-.036 3.843 1.204 2.949 5.213-3.76 12.068-17.1 14.694-15.292 2.44 1.68-5.947 12.855-7.363 19.472-.365 1.709 1.71-.664 3.17 0 1.251.57 1.877 4.257 2.096 4.652-.713 1.426-5.64 22.328-14.863 37.726-7.801 13.024-20.071 20.944-21.114 21.795-.733.6-2.387-2.15-5.698-3.882-2.255-1.18-5.829-.858-8.25-2.709-1.8-1.376-3.415-4.257-4.935-5.49-2.743-2.226-5.745-2.935-5.481-3.942.331-1.266 3.951-17.352 13.18-30.157 10.139-14.068 26-24.933 27.12-25.622z" stroke="#5563B6" stroke-width="4" fill="#FFF"/>
    <path d="M362.5 112.5c-8.2 8.21-13.874 14.619-17.02 19.225-3.145 4.606-6.805 11.864-10.98 21.775M444.415 80.743c.314 9.816-1.102 17.026-4.248 21.632-3.145 4.606-7.637 10.795-13.474 18.566M358.464 36.745c-4.725 1.546-9.031 4.031-12.917 7.455-3.886 3.425-6.963 6.959-9.23 10.602" stroke="#E1F2FF" stroke-width="3" stroke-linecap="round"/>
  </g>
</svg>
