<svg width="487" height="274" xmlns="http://www.w3.org/2000/svg">
  <g fill="none" fill-rule="evenodd">
    <g stroke-linecap="round">
      <path stroke="#ACD3EF" stroke-width="3" d="M223.75 23.316v11.368M218.324 29.25h10.352"/>
      <path stroke="#5563B6" stroke-width="2" d="M334 28.868v7M330.176 32.118h7M278 75.868v7M274.176 79.118h7"/>
      <path stroke="#ACD3EF" stroke-width="3" d="M452.75 36.316v11.368M447.324 42.25h10.352M292.75 189.316v11.368M287.324 195.25h10.352"/>
      <path stroke="#5563B6" stroke-width="2" d="M363.5 200.5v7M359.676 203.75h7M203 226.868v7M199.176 230.118h7M421 242.868v7M417.176 246.118h7"/>
      <path stroke="#ACD3EF" stroke-width="3" d="M399.75 152.316v11.368M394.324 158.25h10.352"/>
    </g>
    <g transform="translate(19 38)">
      <g stroke="#5563B6" stroke-linecap="round" stroke-width="3">
        <path d="M158.267 173.049c11.223 2.433 19.232 3.765 24.03 3.998 19.364.939 30.305-1.733 35.876-3.043 10.69-2.513 10.76-12.701 6.327-15.862-4.433-3.16-12.674-1.44-16.854 6.135-4.066 7.37.62 19.595 9.744 20.928 6.052.884 21.182-3.902 21.182-12.983 0-4.166-1.537-8.07-4.583-7.11-3.594 1.132-5.498 7.089-5.79 8.892-2.592 15.996 14.43 14.133 16.408 13.23 1.318-.602 2.623-2.057 3.914-4.366"/>
        <path d="M157 171.563c12.534 2.569 21.398 3.97 26.593 4.202 17.939.804 29.926-1.994 35.253-3.246 10.69-2.514 7.524-11.408 4.654-12.857-2.87-1.45-9.355-2.088-13.534 5.486-4.066 7.37-2.968 17.238 6.156 18.57 6.053.885 20.972-3.074 20.972-12.155 0-4.166-2.438-4.066-4.155-3.212-1.718.855-3.751 4.457-4.044 6.26-1.401 8.65 3.607 13.47 12.649 12.083 1.403-.216 3.396-1.207 5.977-2.975"/>
      </g>
      <g stroke="#5563B6" stroke-width="3">
        <path d="M1.164 8.242c.259-1.278 10.543 2.05 11.915 1.601.726-.237-1.727-2.062-.982-2.455 1.437-.76 6.132-.175 7.915-.515 1.04-.199 4.531-1.33 6.964-.907 3.182.552 5.479 2.666 7.457 1.929.37-.138.312-1.446-.736-2.59-.902-.985-2.824-1.826-2.496-1.957 1.434-.572 7.313-2.612 10.322-1.543 3.008 1.068-.839-1.711 0-1.722 1.782-.022 5.157.783 7.04 1.722 3.031 1.511 4.52 3.477 6.707 3.711 1.856.2-1.671-5.205 0-4.378 3.361 1.664 16.078 11.12 16.078 21.335 0 3.685-1.95 7.872-5.848 12.563 7.795 1.931 13.702 4.526 17.72 7.786C87.238 46.082 92 52.14 97.506 61c.945 2.768.945 3.364 0 1.79C91.692 53.105 78.62 36.67 65.5 36.67c-.994 0 4.697 4.573 5.006 10.892.3 6.15-8.17 15.875-14.479 17.978-1.284.428 1.267-2.302-.757-2.228-2.467.09-5.705 3.11-10.04 3.249-3.642.116-8.337-2.492-11.25-3.772-.663-.291 4.394-2.233 3.662-2.549-2.985-1.287-11.33-1.372-14.705-3.32-1.225-.707-4.41-2.41-5.017-4.07-.41-1.122 1.926-2.179.848-3.063-1.41-1.156-3.692-.384-5.475-1.126-2.908-1.21-5.2-3.62-5.505-3.952-.849-.925 1.783-1.066 2.212-1.887.877-1.679.368-3.703.667-4.87.355-1.385 1.43-1.776 1.43-1.951 0-.593-3.294-1.412-4.929-3.082-2.53-2.586-4.166-7.29-4.484-8.902-.15-.76 2.093.727 1.962 0-.442-2.466-2.466-4.753-3.12-7.145-1.027-3.76-.63-7.31-.362-8.63z"/>
        <path d="M17.623 22.169c4.458 5.708 9.727 9.65 15.807 11.828 12.097 4.332 24.058 1.121 32.07 1.96 10.485 1.097 15.39 5.551 16.918 6.794 3.578 2.907 7.939 8.156 13.082 15.749" stroke-linecap="round"/>
        <path d="M43.618 12.642c7.435 6.612 3.928 11.598 5.92 15.263 2.257 4.156 6.235 6.8 11.933 7.933M60.779 17.125c-4.217 5.044 3.727 18.713 3.727 18.713M30.5 45.5c3.01.383 6.965-.093 11.868-1.43 4.903-1.338 11.947-3.86 21.132-7.57M47 56.732c2.753-2.698 4.601-4.715 5.545-6.051 3.058-4.33 2.853-6.498 4.834-8.828 2.897-3.41 4.938-5.027 6.121-4.853" stroke-linecap="round"/>
      </g>
      <g stroke="#5563B6" stroke-linecap="round" stroke-width="2">
        <path d="M97.886 54.798c-2.337-9.567-3.633-16.51-3.89-20.831-.524-8.775 2.115-14.86 3.89-17.87.762-1.294 4.294-5.374 7.336-5.218 7.888.403 9.229 4.422 9.673 5.218 1.507 2.701.708 8.492-3.654 8.953-4.362.46-8.487-7.083-5.636-11.364.583-.875 3.392-3.375 8.248-3.68 1.478-.092 4.11.466 7.897 1.674"/>
        <path d="M96.74 57.94c-2.858-11.66-4.415-19.649-4.673-23.97-.523-8.775 2.116-14.86 3.89-17.87.764-1.294 4.295-5.374 7.338-5.218 7.887.403 9.228 4.422 9.672 5.218 1.507 2.701.708 8.492-3.654 8.953-4.362.46-8.487-7.083-5.635-11.364.583-.875 3.391-3.375 8.247-3.68 1.478-.092 4.753.465 9.825 1.67"/>
      </g>
      <ellipse stroke="#5563B6" stroke-width="5" fill="#FFF" cx="95.006" cy="70.5" rx="8.5" ry="5.5"/>
      <ellipse stroke="#5563B6" stroke-width="5" fill="#FFF" cx="106.006" cy="70.5" rx="8.5" ry="5.5"/>
      <path d="M79.102 81c6.85 0 12.404-3.348 12.404-7.477 0-1.463-1.382-6.006-4.156-7.478-2.774-1.471-8.094-2.862-13.667-1.47-4.55 1.135-8.291 5.47-9.175 7.238C64.376 72.077 72.25 81 79.102 81zM126.574 83.336c6.6-1.043 17.953-.343 17.335-4.234-.219-1.378-4.353-7.603-12.406-9.557-8.052-1.955-10.018-1.064-15.178 1.095-4.214 1.762-3.29 20.22-3.877 22.022-.088.268 7.526-8.283 14.126-9.326z" stroke="#5563B6" stroke-width="5" fill="#FFF"/>
      <path d="M101.631 49.812c6.062-8.33 16.301-17.008 21.227-10.58 6.39 8.338-7.71 10.662-9.968 26.06-.513 3.504 1.347 12.073 5.582 25.708L75.506 77.856c8.223-.26 13.785-2.26 16.686-5.998 4.351-5.607 3.377-13.716 9.439-22.046z" stroke="#5563B6" stroke-width="5" fill="#FFF"/>
      <ellipse stroke="#5563B6" stroke-width="3" fill="#FFF" transform="rotate(-30 121.75 41.299)" cx="121.75" cy="41.299" rx="3" ry="5.5"/>
      <path d="M128.395 80.704c5.845-3.55 30.039-7.814 42.137 17.418 5.433 11.33 7.168 27.005 5.173 42.372-2.449 18.856-8.682 28.206-14.356 33.479-10.297 9.57-19.762 5.478-26.38 3.001-6.23-2.331-6.907-16.457-8.718-44.353-1.666-25.662-3.701-48.366 2.144-51.917z" stroke="#5563B6" stroke-width="5" fill="#FFF"/>
      <path d="M115.156 82.361c5.217-3.406 24.22-6.7 35.019 17.505 4.848 10.87 6.397 25.906 4.616 40.647-2.185 18.088-8.84 35.439-13.903 40.497-9.19 9.18-24.326 10.29-30.233 7.914-5.56-2.236 1.616-29.203 0-55.963-1.488-24.618-.716-47.193 4.5-50.6zM68.939 75.138c-4.561-4.317-22.665-10.655-37.216 12.599-3.099 4.953-8.633 11.853-10.43 21.02-2.408 12.274-.105 27.786 4.674 40.21 3.391 8.816 6.547 21.645 12.549 27.758 8.88 9.044 20.764 9.372 22.615 8.913 5.82-1.441-2.011-30.385 3.95-57.693 5.484-25.122 8.418-48.49 3.858-52.807z" stroke="#5563B6" stroke-width="5" fill="#FFF"/>
      <path d="M84.633 79.46c-5.096-3.548-23.66-6.979-34.208 18.23-10.549 25.207-2.172 77.985 6.805 87.546 8.978 9.56 31.09 6.923 36.861 4.449 5.431-2.33-6.64-29.661-5.06-57.53 1.452-25.637.699-49.148-4.398-52.696z" stroke="#5563B6" stroke-width="5" fill="#FFF"/>
      <path d="M84.71 81.463c5.25-3.553 24.375-6.99 35.24 18.263 10.867 25.252 9.249 75.208 0 84.785-9.247 9.578-18.022 9.578-23.966 7.099-5.595-2.333-14.176-29.44-15.803-57.358-1.497-25.682-.72-49.235 4.53-52.789z" stroke="#5563B6" stroke-width="5" fill="#FFF"/>
      <path d="M65.5 93.5c-6.295 13.756-9.442 25.59-9.442 35.5s3.147 25.077 9.442 45.5M110 100c4.084 17.09 6.127 30.59 6.127 40.5S114.084 163.91 110 181" stroke="#E1F2FF" stroke-width="5" stroke-linecap="round"/>
    </g>
    <path d="M252.843 122.678c1.202-13.275-9.207-20.444-17.072-21.414-10.668-1.316-22.057 5.573-22.43 18.684-.34 11.917 7.82 20.738 19.443 21.044 10.108.267 18.976-6.34 20.06-18.314zm-22.143 9.638c-6.858-1.27-10.184-7.341-8.763-13.462 1.651-7.113 6.734-9.186 12.255-8.838 5.52.349 11.172 4.84 10.733 11.759-.509 8-7.954 11.702-14.225 10.541zm47.84 8.614c4.439-.412 6.744-2.05 6.385-5.294-.357-3.227-2.974-4.407-5.692-3.837-1.973.415-5.1 1.032-8.172-.759-6.411-3.738-6.414-15.923-1.439-21.018 3.3-3.38 6.465-2.413 8.8-2.202 2.693.243 5.814-.717 5.936-3.982.096-2.578-2.456-4.41-4.849-4.617-8.54-.741-18.993.62-21.855 15.823-1.144 6.072-.938 13.18 4.518 19.937 3.883 4.809 11.627 6.388 16.368 5.949zm25.558.07c5.97 0 4.826-10.671 4.797-14.586v-.157c.002-3.474-.249-18.48-.249-18.48s2.482.202 6.18-.231c4.161-.488 6.62-1.78 6.746-4.205.175-3.323-2.453-4.046-8.157-4.046h-2.883c-6.314.001-10.046.006-17.61 0-3.28-.003-5.393.838-5.267 4.004.077 1.927 1.719 3.327 4.217 3.822 3.447.683 8.272.765 8.272.765v.374c-.005 2.637-.023 18.42.14 22.024.129 2.866-.56 10.716 3.814 10.716zm50.878-18.875c1.063-11.75-8.15-18.097-15.112-18.955-9.443-1.165-19.523 4.933-19.854 16.538-.301 10.549 6.922 18.356 17.21 18.627 8.947.236 16.796-5.611 17.756-16.21zm-19.658 8.216c-5.845-1.083-8.679-6.256-7.468-11.473 1.407-6.06 5.739-7.828 10.443-7.53 4.705.297 9.521 4.123 9.147 10.02-.433 6.818-6.778 9.973-12.122 8.983zm34.192 10.495c11.134-.848 19.6-5.038 19.414-14.557-.063-3.202-2.324-8.89-9.521-9.057 0 0 5.55-2.9 4.366-10.07-1.13-6.844-8.02-8.298-12.763-8.102-3.754.156-9.582-.211-11.126 4.603-1.021 3.185-.618 26.907-.024 32.26.594 5.351 4.17 5.34 9.654 4.923zm-2.132-26.433l-.158-7.79s8.348-2.577 9.153 1.665c1.084 5.71-6.905 5.317-8.995 6.125zm.12 18.816c-.463-1.036-.344-7.791-.344-7.791s12.247-5.137 13.359 1.138c.658 3.715-9.368 6.593-13.014 6.653zm32.968 7.78c4.674-.06 11.295-.784 16.479-1.978 1.631-.376 3.573-1.931 3.4-4.54-.21-3.146-2.67-4.064-4.06-4.029-4.06.104-15.204 1.6-15.204 1.6l-.186-8.059s8.2-.491 11.73-1.257c4.343-.941 3.72-8.283-2.251-8.233-2.84.023-9.32.391-9.32.391l-.148-5.583h.037c.675-.01 10.518-.16 13.699-.38 2.676-.187 5.702-1.505 5.19-5.163-.418-3-3.911-3.647-6.703-3.691-3.13-.05-10.98-.34-15.906.385-1.642.242-3.947 2.486-4.012 5.106l-.117 24.199c.302 7.576.041 11.326 7.372 11.231zm29.63.001c1.888 0 3.566-1.917 3.781-4.094.419-4.237.084-7.77.194-11.046 4.104 3.515 6.901 6.601 11.978 9.931 2.676 1.755 6.35 3.727 8.598 2.243 3.403-2.247 1.204-5.37-.413-6.646a769.21 769.21 0 01-10.882-8.758s8.904-3.682 9.016-12.468c.068-5.355-2.688-10.957-14.68-10.91-3.664.015-9.22.283-10.552 2.07-1.36 1.823-1.13 13.552-1.149 17.21-.025 4.671-.025 12.491.116 17.874.05 1.883 1.387 4.594 3.993 4.594zM434 116.563l-.002-8.5s8.253-2.537 9.446 2.27c1.48 5.96-9.444 6.23-9.444 6.23z" fill="#5563B6" fill-rule="nonzero"/>
    <path d="M166.185 165.525c.16.123.265.218.3.249.003.006 0-.006 0 0h.001c-3.868-1.798-6.405-.239-9.355-.483a1.085 1.085 0 00-.14-.024 2.193 2.193 0 01-.197-.03c-.78-.154-1.527-.74-2.208-1.593l-.01-.014c-.059-.07-.114-.143-.169-.217 0 0 0-.002-.002-.002-.1-.136-.2-.28-.298-.427l-.031-.044a4.556 4.556 0 00-.079-.124l-.081-.126-.077-.129-.08-.132-.055-.095c-.699-1.21-1.283-2.672-1.715-4.135 0 0-.01-.014 0 0 1.453.681 2.96 1.23 4.226 1.517 1.525.348 3.422.45 5.235.306.5-1.643.76-3.41.692-4.883-.057-1.231-.33-2.715-.769-4.194l.36.171.106.054c.085.042.17.083.255.128l.117.06a25.522 25.522 0 01.355.186c.106.057.21.114.315.173.01.005.021.01.03.017.122.066.242.135.36.204l.029.016.317.188c.022.013.042.027.064.039l.286.176c.017.012.035.025.054.036a19.045 19.045 0 01.325.21c.339.226.663.457.968.691l.012.008c.507.394.96.797 1.335 1.202.054.06.107.119.158.178l.006.006v.001c.047.054.093.108.135.16v.002c.003.002.004.005.005.006.047.058.093.115.135.174l.017.023c0 .001.002 0 .002.002a4.942 4.942 0 01.18.26c.003.004.005.009.01.014a3.743 3.743 0 01.24.431l.033.075c.017.037.03.073.047.11l.029.081c.013.034.024.069.035.103a2.03 2.03 0 01.05.184l.016.079.018.105.01.073.007.12.002.058c.001.06-.001.119-.006.176-.003.04-.004.075-.003.107-.302 2.773-2.412 4.839-1.302 8.742" fill="#9452BA"/>
  </g>
</svg>
