<?xml version="1.0" encoding="UTF-8"?>
<svg width="455px" height="473px" viewBox="0 0 455 473" version="1.1" xmlns="http://www.w3.org/2000/svg" xmlns:xlink="http://www.w3.org/1999/xlink">
    <title>productivity</title>
    <defs>
        <linearGradient x1="0.00491206837%" y1="50.0240943%" x2="99.9950879%" y2="50.0240943%" id="linearGradient-1">
            <stop stop-color="#FCCE76" offset="0%"></stop>
            <stop stop-color="#5FAAA8" offset="100%"></stop>
        </linearGradient>
        <linearGradient x1="91.9716483%" y1="49.987115%" x2="0.36080995%" y2="49.987115%" id="linearGradient-2">
            <stop stop-color="#FFFFFF" offset="0%"></stop>
            <stop stop-color="#F1F2F9" offset="38%"></stop>
            <stop stop-color="#DFE1F0" offset="100%"></stop>
        </linearGradient>
    </defs>
    <g id="productivity" stroke="none" stroke-width="1" fill="none" fill-rule="evenodd">
        <path d="M273.992161,57.7182199 C317.778201,65.3860724 378.724179,82.2284433 421.019802,156.498994 C459.340979,223.855025 482.046343,326.819487 409.915523,391.538853 C337.784702,456.258219 118.639667,476.692373 35.4179945,391.538853 C-47.8036784,306.385333 15.4383479,12.3971757 273.992161,57.7182199 Z" id="Path" fill="#EFEFF8" fill-rule="nonzero"></path>
        <ellipse id="Oval" fill="#DFE1F0" fill-rule="nonzero" cx="221.5" cy="403.5" rx="215.5" ry="19.5"></ellipse>
        <g id="Group" transform="translate(146.340000, 84.340000)">
            <circle id="Oval" fill="#DFE1F0" fill-rule="nonzero" cx="130.58" cy="130.58" r="129.74"></circle>
            <circle id="Oval" fill="#FFFFFF" fill-rule="nonzero" cx="144.74" cy="129.74" r="129.74"></circle>
            <path d="M76.54,157.82 C64.7382455,127.342525 74.5888998,92.7342769 100.671235,73.0398692 C126.75357,53.3454614 162.73643,53.3454614 188.818765,73.0398692 C214.9011,92.7342769 224.751755,127.342525 212.95,157.82 L240.41,185.82 C266.755438,139.540726 256.195248,81.038728 215.331991,46.8912896 C174.468734,12.7438513 115.021266,12.7438513 74.1580091,46.8912896 C33.294752,81.038728 22.7345616,139.540726 49.08,185.82 L76.54,157.82 Z" id="Path" fill="url(#linearGradient-1)" fill-rule="nonzero"></path>
            <circle id="Oval" fill="#DFE1F0" fill-rule="nonzero" cx="144.74" cy="129.74" r="35.6"></circle>
            <path d="M144.74,175.43 C169.97389,175.43 190.43,154.97389 190.43,129.74 C190.43,104.50611 169.97389,84.05 144.74,84.05 C119.50611,84.05 99.05,104.50611 99.05,129.74 C99.05,154.97389 119.50611,175.43 144.74,175.43 Z" id="Oval" stroke="#DFE1F0" stroke-width="1.38323399" stroke-linecap="round" stroke-linejoin="round" stroke-dasharray="41.49702072143555"></path>
            <path d="M141.66,149.66 C162.66,148.97 216.8,140.86 237.66,137.66 C238.527343,137.530684 239.186542,136.813125 239.241994,135.93795 C239.297446,135.062775 238.734085,134.267753 237.89,134.03 C217.57,128.28 164.89,113.62 144.06,110.37 C133.32,108.69 123.86,117.97 123.2,128.83 L123.2,128.83 C122.58,139.6 130.83,149.97 141.66,149.66 Z M135.96,129.58 C136.139401,126.596123 138.098747,124.014197 140.924248,123.038365 C143.749749,122.062533 146.884859,122.885009 148.867442,125.122209 C150.850025,127.35941 151.289567,130.570669 149.981076,133.258336 C148.672586,135.946004 145.873799,137.580682 142.89,137.4 C140.932085,137.271666 139.10558,136.369968 137.813119,134.893673 C136.520658,133.417379 135.868354,131.487695 136,129.53 L135.96,129.58 Z" id="Shape" fill="#5563B6" fill-rule="nonzero"></path>
            <circle id="Oval" fill="#B0B0DB" fill-rule="nonzero" cx="143.43" cy="130.23" r="7.4"></circle>
            <circle id="Oval" fill="#FFFFFF" fill-rule="nonzero" cx="143.55" cy="128.21" r="7.4"></circle>
        </g>
        <g id="Group-2" transform="translate(20.000000, 181.000000)">
            <ellipse id="Oval" fill="#5E63B6" fill-rule="nonzero" cx="97.6871918" cy="119.988789" rx="97.6871918" ry="97.7115839"></ellipse>
            <rect id="Rectangle" fill="#FFFFFF" fill-rule="nonzero" x="96.5013699" y="14.5742547" width="13.5483562" height="2.03139752"></rect>
            <polygon id="Path" fill="#5E63B6" fill-rule="nonzero" points="116.483151 8.1392236 90.0679452 8.1392236 90.0679452 23.0406832 116.483151 23.0406832 116.483151 8.1392236"></polygon>
            <rect id="Rectangle" fill="#FFFFFF" fill-rule="nonzero" x="83.975274" y="-2.93098879e-14" width="38.6005479" height="14.9014596" rx="5.47"></rect>
            <path d="M115.120137,-3.64153152e-14 L91.4173288,-3.64153152e-14 C87.2996677,-3.64153152e-14 83.9616438,3.33885733 83.9616438,7.45754658 C83.9616438,11.5762358 87.2996677,14.9150932 91.4173288,14.9150932 L115.120137,14.9150932 C119.237798,14.9150932 122.575822,11.5762358 122.575822,7.45754658 C122.575822,3.33885733 119.237798,-3.64153152e-14 115.120137,-3.64153152e-14 L115.120137,-3.64153152e-14 Z" id="Path" fill="#9093CC" fill-rule="nonzero"></path>
            <polygon id="Rectangle" fill="#FFFFFF" fill-rule="nonzero" transform="translate(189.035755, 52.859897) rotate(-41.430000) translate(-189.035755, -52.859897) " points="188.218532 47.4139945 189.854328 47.4137919 189.852979 58.3058 188.217183 58.3060026"></polygon>
            <polygon id="Path" fill="#5E63B6" fill-rule="nonzero" points="186.460274 40.873354 177.478014 48.794441 191.530685 64.7184161 200.499315 56.7973292 186.460274 40.873354"></polygon>
            <path d="M192.217758,32.8742286 L195.419958,32.873832 C197.844488,32.8724443 199.810202,34.8376707 199.810502,37.2622008 C199.810502,37.2625633 199.810502,37.2629258 199.809415,37.2632882 L199.806658,59.5234665 C199.80527,61.9475717 197.840219,63.9126223 195.416114,63.9140103 L192.213913,63.9144069 C189.789384,63.9157946 187.82367,61.9505681 187.82337,59.5260381 C187.82337,59.5256756 187.82337,59.5253131 187.824457,59.5249507 L187.827214,37.2647724 C187.828602,34.8406672 189.793653,32.8756165 192.217758,32.8742286 Z" id="Rectangle" fill="#FFFFFF" fill-rule="nonzero" transform="translate(193.816936, 48.394119) rotate(-41.430000) translate(-193.816936, -48.394119) "></path>
            <path d="M187.577945,35.338125 C186.120898,35.3352473 184.713803,35.8691065 183.625205,36.8378261 L183.625205,36.8378261 C182.433204,37.8876871 181.707394,39.3684978 181.607685,40.9540065 C181.507977,42.5395152 182.042551,44.0996279 183.09363,45.2906211 L195.701507,59.5785714 C196.751106,60.7708703 198.231547,61.4968616 199.81666,61.5965952 C201.401773,61.6963288 202.961496,61.1616214 204.152192,60.1102795 L204.152192,60.1102795 C205.344193,59.0604185 206.070003,57.5796078 206.169712,55.9940991 C206.26942,54.4085904 205.734847,52.8484777 204.683767,51.6574845 L192.07589,37.3559006 C190.935005,36.0695594 189.297089,35.3347955 187.577945,35.338125 L187.577945,35.338125 Z" id="Path" fill="#9093CC" fill-rule="nonzero"></path>
            <ellipse id="Oval" fill="#FFFFFF" fill-rule="nonzero" cx="110.554041" cy="117.957391" rx="91.2537671" ry="91.2765528"></ellipse>
            <path d="M110.608562,33.1158696 C157.453529,33.1459976 195.404463,71.1552494 195.374366,118.011914 C195.344234,164.868578 157.344476,202.828993 110.499509,202.798896 C63.6545415,202.768763 25.7035974,164.759522 25.7336807,117.902857 C25.8163667,71.0680108 63.7853392,33.1383495 110.608562,33.1158696 M110.608562,20.2457921 C71.0878666,20.2237511 35.4473951,44.0223266 20.3132919,80.5395888 C5.17918869,117.056851 13.5334247,159.097566 41.4787806,187.0499 C69.4241364,215.002233 111.454357,223.358555 147.962503,208.220673 C184.470649,193.082791 208.263284,157.43342 208.241248,117.902857 C208.211154,63.9808249 164.517133,20.2758937 110.608562,20.2457921 L110.608562,20.2457921 Z" id="Shape" fill="#9093CC" fill-rule="nonzero"></path>
            <path d="M110.363219,122.401925 L110.363219,69.4628864 C81.1592298,69.4553683 57.4772174,93.1270307 57.4646732,122.33831 C57.452139,151.54959 81.1138202,175.241586 110.317805,175.25916 C139.52179,175.276715 163.211939,151.613199 163.234521,122.401925 L110.363219,122.401925 Z" id="Path" fill="url(#linearGradient-2)" fill-rule="nonzero"></path>
            <rect id="Rectangle" fill="#5E63B6" fill-rule="nonzero" x="105.797123" y="68.6585093" width="8.46431507" height="81.9784783" rx="3.11"></rect>
            <line x1="110.049726" y1="34.7791615" x2="110.049726" y2="50.6486025" id="Path" stroke="#9093CC" stroke-width="2.43" stroke-linecap="round" stroke-linejoin="round"></line>
            <line x1="169.15" y1="58.7196584" x2="157.932397" y2="69.9400621" id="Path" stroke="#9093CC" stroke-width="2.43" stroke-linecap="round" stroke-linejoin="round"></line>
            <line x1="194.01137" y1="117.439317" x2="178.14589" y2="117.439317" id="Path" stroke="#9093CC" stroke-width="2.43" stroke-linecap="round" stroke-linejoin="round"></line>
            <line x1="170.090479" y1="176.554348" x2="158.859247" y2="165.333944" id="Path" stroke="#9093CC" stroke-width="2.43" stroke-linecap="round" stroke-linejoin="round"></line>
            <line x1="111.371849" y1="201.435559" x2="111.371849" y2="185.566118" id="Path" stroke="#9093CC" stroke-width="2.43" stroke-linecap="round" stroke-linejoin="round"></line>
            <line x1="52.2715753" y1="177.495062" x2="63.4891781" y2="166.274658" id="Path" stroke="#9093CC" stroke-width="2.43" stroke-linecap="round" stroke-linejoin="round"></line>
            <line x1="27.3965753" y1="118.76177" x2="43.2756849" y2="118.76177" id="Path" stroke="#9093CC" stroke-width="2.43" stroke-linecap="round" stroke-linejoin="round"></line>
            <line x1="51.3310959" y1="59.6467391" x2="62.5486986" y2="70.8671429" id="Path" stroke="#9093CC" stroke-width="2.43" stroke-linecap="round" stroke-linejoin="round"></line>
            <line x1="131.489932" y1="39.1146273" x2="129.118288" y2="47.935528" id="Path" stroke="#DFE1F0" stroke-width="2.39" fill="#FFFFFF" fill-rule="nonzero" stroke-linecap="round" stroke-linejoin="round"></line>
            <line x1="151.403562" y1="47.3765528" x2="146.837466" y2="55.2840062" id="Path" stroke="#DFE1F0" stroke-width="2.39" fill="#FFFFFF" fill-rule="nonzero" stroke-linecap="round" stroke-linejoin="round"></line>
            <line x1="181.607945" y1="77.6430124" x2="173.702466" y2="82.1966149" id="Path" stroke="#DFE1F0" stroke-width="2.39" fill="#FFFFFF" fill-rule="nonzero" stroke-linecap="round" stroke-linejoin="round"></line>
            <line x1="189.840548" y1="97.588882" x2="181.021849" y2="99.9338509" id="Path" stroke="#DFE1F0" stroke-width="2.39" fill="#FFFFFF" fill-rule="nonzero" stroke-linecap="round" stroke-linejoin="round"></line>
            <line x1="189.772397" y1="140.357298" x2="180.953699" y2="137.971429" id="Path" stroke="#DFE1F0" stroke-width="2.39" fill="#FFFFFF" fill-rule="nonzero" stroke-linecap="round" stroke-linejoin="round"></line>
            <line x1="181.471644" y1="160.262267" x2="173.579795" y2="155.681398" id="Path" stroke="#DFE1F0" stroke-width="2.39" fill="#FFFFFF" fill-rule="nonzero" stroke-linecap="round" stroke-linejoin="round"></line>
            <line x1="151.158219" y1="190.433292" x2="146.619384" y2="182.512205" id="Path" stroke="#DFE1F0" stroke-width="2.39" fill="#FFFFFF" fill-rule="nonzero" stroke-linecap="round" stroke-linejoin="round"></line>
            <line x1="131.217329" y1="198.62705" x2="128.872945" y2="189.792516" id="Path" stroke="#DFE1F0" stroke-width="2.39" fill="#FFFFFF" fill-rule="nonzero" stroke-linecap="round" stroke-linejoin="round"></line>
            <line x1="88.459589" y1="198.477081" x2="90.844863" y2="189.669814" id="Path" stroke="#DFE1F0" stroke-width="2.39" fill="#FFFFFF" fill-rule="nonzero" stroke-linecap="round" stroke-linejoin="round"></line>
            <line x1="68.559589" y1="190.146988" x2="73.1529452" y2="182.266801" id="Path" stroke="#DFE1F0" stroke-width="2.39" fill="#FFFFFF" fill-rule="nonzero" stroke-linecap="round" stroke-linejoin="round"></line>
            <line x1="38.4506164" y1="159.785093" x2="46.3833562" y2="155.258758" id="Path" stroke="#DFE1F0" stroke-width="2.39" fill="#FFFFFF" fill-rule="nonzero" stroke-linecap="round" stroke-linejoin="round"></line>
            <line x1="30.2997945" y1="139.811957" x2="39.1184932" y2="137.494255" id="Path" stroke="#DFE1F0" stroke-width="2.39" fill="#FFFFFF" fill-rule="nonzero" stroke-linecap="round" stroke-linejoin="round"></line>
            <line x1="30.5042466" y1="97.0435404" x2="39.3093151" y2="99.456677" id="Path" stroke="#DFE1F0" stroke-width="2.39" fill="#FFFFFF" fill-rule="nonzero" stroke-linecap="round" stroke-linejoin="round"></line>
            <line x1="38.8731507" y1="77.1658385" x2="46.7513699" y2="81.7739752" id="Path" stroke="#DFE1F0" stroke-width="2.39" fill="#FFFFFF" fill-rule="nonzero" stroke-linecap="round" stroke-linejoin="round"></line>
            <line x1="69.2819863" y1="47.103882" x2="73.7935616" y2="55.0386025" id="Path" stroke="#DFE1F0" stroke-width="2.39" fill="#FFFFFF" fill-rule="nonzero" stroke-linecap="round" stroke-linejoin="round"></line>
            <line x1="89.250137" y1="38.9782919" x2="91.5536301" y2="47.7991925" id="Path" stroke="#DFE1F0" stroke-width="2.39" fill="#FFFFFF" fill-rule="nonzero" stroke-linecap="round" stroke-linejoin="round"></line>
            <ellipse id="Oval" stroke="#5E63B6" stroke-width="3.98" fill="#FFFFFF" fill-rule="nonzero" cx="110.036096" cy="122.183789" rx="9.48657534" ry="9.4889441"></ellipse>
        </g>
        <path d="M231.49089,291.997549 C232.516574,291.933499 232.756542,290.951102 232.814175,290.251457 C232.931424,288.829702 232.948974,287.940745 232.951406,287.653677 L232.951713,287.55191 L232.951713,287.55191 C232.951713,287.55191 235.537128,286.702898 236.356568,286.261593 C237.992429,285.380745 239.754125,284.080488 239.544357,281.605682 C239.275447,278.431107 235.255509,277.358737 233.042944,277.327278 C232.4188,277.31847 230.777906,277.15954 230.17742,277.82307 C229.959221,278.06417 229.980865,279.508384 229.990554,280.222122 C230.027424,282.931862 230.053094,287.853663 230.060393,289.962665 C230.064797,291.253107 230.652071,292.050023 231.49089,291.997549 Z M232.816315,284.512249 L232.763464,280.054887 L232.800031,280.054071 C233.003157,280.051119 234.017441,280.056927 234.956775,280.433652 C235.842531,280.788759 236.661594,281.420076 236.671157,282.077566 C236.682985,282.874858 235.719086,283.640819 234.752544,284.08162 C233.785877,284.522422 232.816315,284.512249 232.816315,284.512249 Z M242.454751,292 C243.115387,292 243.702661,291.328919 243.778036,290.566986 C243.924509,289.084142 243.807482,287.847431 243.845736,286.700819 C245.282273,287.931363 246.261273,289.011409 248.038069,290.176771 C248.974662,290.790973 250.260574,291.481306 251.047297,290.961858 C252.238456,290.175386 251.468846,289.082128 250.902964,288.635664 C250.501046,288.318635 250.107548,288.005808 249.73518,287.708184 L249.370326,287.416035 C248.061803,286.366391 247.094303,285.570439 247.094303,285.570439 C247.094303,285.570439 250.210618,284.281884 250.249878,281.206718 C250.273913,279.332525 249.309133,277.371632 245.112144,277.388262 C243.829629,277.393401 241.884717,277.487023 241.418497,278.112551 C241.078741,278.568345 241.022757,280.792961 241.015979,282.493709 L241.015941,283.432953 C241.016117,283.502927 241.016299,283.570446 241.016457,283.635222 L241.016453,284.136418 L241.016453,284.136418 C241.014565,284.486717 241.013082,284.887627 241.012403,285.319911 L241.012237,286.220613 C241.013952,287.617316 241.025306,289.180972 241.057097,290.392201 C241.074337,291.050949 241.542444,292 242.454751,292 Z M263.804618,285.197966 C264.17684,281.085287 260.952307,278.864166 258.51563,278.563671 C255.210562,278.155964 251.682515,280.290385 251.56662,284.352101 C251.461296,288.044112 253.989456,290.776754 257.59011,290.871634 C260.721525,290.954307 263.46889,288.907594 263.804618,285.197966 Z M243.820695,283.446966 L243.81994,280.471839 C243.81994,280.471839 246.708492,279.584196 247.126014,281.266238 C247.644204,283.352842 243.820695,283.446966 243.820695,283.446966 Z M256.924315,288.073557 C254.878734,287.694792 253.886774,285.884021 254.310588,284.058149 C254.803108,281.936941 256.319173,281.31846 257.965729,281.4224 C259.612286,281.526466 261.297977,282.865732 261.167108,284.929433 C261.015351,287.316028 258.794859,288.420108 256.924315,288.073557 Z M270.797943,289.985133 C272.786143,288.537773 274.862427,286.230833 274.796741,283.718151 C274.696828,279.898417 269.598354,277.317532 267.187221,277.341063 C265.296292,277.359561 265.277165,278.318427 265.295789,280.04879 C265.315671,281.880325 265.348262,289.169467 265.372297,289.944362 C265.424896,291.641756 265.906468,293.545646 270.797943,289.985133 Z M267.995714,288.316177 L267.995116,288.238224 C267.990048,287.575328 267.954368,282.85128 267.948526,280.505573 C269.400792,280.669285 271.926309,281.78469 271.858862,284.130514 C271.805786,285.975047 268.443351,288.047778 268.035978,288.292243 L267.995714,288.316177 L267.995714,288.316177 Z M286.710384,285.854647 C286.904926,283.838763 286.97036,281.37264 286.533837,279.388845 C286.326209,278.445834 285.60039,278.128981 284.926667,278.215681 C284.154793,278.314965 283.989445,278.965409 283.922374,279.62315 C283.78081,281.010109 285.068735,288.950324 281.3844,288.960139 C278.524916,288.967689 279.297797,280.914096 279.170829,279.776041 C279.029767,278.512024 278.49396,277.915312 277.446128,278.195799 C276.264408,278.511898 276.334373,279.828011 276.286681,280.80915 C276.167137,283.263444 276.344943,287.372096 277.531319,289.55748 C278.168927,290.732028 279.666117,291.871845 281.369299,291.990256 C284.506754,292.208078 286.434678,288.711489 286.710384,285.854647 Z M296.347065,291.975407 C297.900629,291.8312 298.707486,291.258019 298.581902,290.122606 C298.456948,288.993108 297.540992,288.57999 296.589676,288.779816 C295.899091,288.924905 294.804449,289.140838 293.729311,288.514052 C291.485414,287.205741 291.484533,282.940927 293.225718,281.157713 C294.381013,279.974734 295.48849,280.31298 296.305791,280.386846 C297.248298,280.472162 298.340676,280.136056 298.383208,278.99347 C298.416806,278.090852 297.523752,277.450098 296.686192,277.377365 C293.696845,277.117893 290.038432,277.59418 289.036782,282.915257 C288.636625,285.040743 288.708729,287.528132 290.618282,289.893335 C291.977178,291.576509 294.687548,292.129178 296.347065,291.975407 Z M305.292244,291.999945 C307.410432,291.999945 306.970008,288.161964 306.971014,286.840063 C306.971446,286.318835 306.95556,285.056338 306.937263,283.783682 L306.929849,283.275811 C306.907419,281.760969 306.884188,280.371871 306.884188,280.371871 C306.884188,280.371871 307.752704,280.442716 309.047425,280.290959 C310.503592,280.120326 311.363803,279.668073 311.408349,278.819313 C311.469379,277.656343 310.549522,277.403034 308.553395,277.403034 L305.210392,277.403966 C305.086271,277.404009 304.962227,277.404048 304.837579,277.404082 L303.269137,277.404127 C303.128741,277.404092 302.985013,277.404045 302.837269,277.403985 L301.380776,277.403034 L301.380776,277.403034 C300.232527,277.402029 299.493244,277.69661 299.537413,278.804591 C299.56409,279.479195 300.138906,279.969198 301.013336,280.142347 C302.219721,280.381183 303.908306,280.410125 303.908306,280.410125 L303.90802,280.575982 C303.907979,280.602793 303.907935,280.632644 303.907889,280.66538 L303.90795,283.061814 C303.908531,283.468712 303.909463,283.897058 303.910896,284.327373 L303.912864,284.843449 C303.919178,286.301275 303.931969,287.691777 303.95713,288.249294 C304.002431,289.25258 303.761204,291.999945 305.292244,291.999945 Z M314.678788,277.111224 C312.241859,277.032954 312.339633,280.245658 314.497711,280.446743 C316.638801,280.646192 316.742741,277.177539 314.678788,277.111224 Z M314.530554,291.999945 C315.89612,292.000448 316.187806,290.924807 316.215742,290.201631 C316.234592,289.71323 316.229792,288.954049 316.21619,288.159628 L316.202722,287.475559 C316.187791,286.793847 316.16951,286.135687 316.157228,285.649409 C316.120359,284.195003 316.317165,282.143508 314.762972,281.966835 C313.993488,281.87938 313.194056,282.407385 313.10962,283.101745 C312.905515,284.779886 312.993726,287.723051 313.049345,289.374012 C313.085837,290.457203 313.180214,291.999442 314.530554,291.999945 Z M325.552223,291.126144 C326.59263,289.789142 330.364673,281.446128 330.669195,280.03652 C330.827748,279.302396 330.73702,278.380148 329.748961,278.133385 C328.967271,277.938214 328.217544,278.941751 327.792094,279.795545 C326.717711,281.951609 323.779203,288.556207 323.779328,288.556207 C322.82172,286.534787 321.731482,283.948491 320.799293,281.562023 C320.363274,280.446114 319.569252,278.820572 318.444535,279.399415 C317.796986,279.732627 317.516121,280.409496 317.775468,281.405483 C318.321594,283.502279 320.373592,288.492283 321.82913,290.793561 C322.298371,291.535612 322.893069,291.885561 323.589191,291.98346 C324.045973,292.047636 324.906058,291.956657 325.552223,291.126144 Z M334.012788,277.111224 C331.575859,277.032954 331.673633,280.245658 333.831711,280.446743 C335.972801,280.646192 336.076741,277.177539 334.012788,277.111224 Z M333.864554,291.999945 C335.23012,292.000448 335.521806,290.924807 335.549742,290.201631 C335.568592,289.71323 335.563792,288.954049 335.55019,288.159628 L335.536722,287.475559 C335.521791,286.793847 335.50351,286.135687 335.491228,285.649409 C335.454359,284.195003 335.651165,282.143508 334.096972,281.966835 C333.327488,281.87938 332.528056,282.407385 332.44362,283.101745 C332.239515,284.779886 332.327726,287.723051 332.383345,289.374012 C332.419837,290.457203 332.514214,291.999442 333.864554,291.999945 Z M342.770244,291.999945 C344.888432,291.999945 344.448008,288.161964 344.449014,286.840063 C344.449446,286.318835 344.43356,285.056338 344.415263,283.783682 L344.407849,283.275811 C344.385419,281.760969 344.362188,280.371871 344.362188,280.371871 C344.362188,280.371871 345.230704,280.442716 346.525425,280.290959 C347.981592,280.120326 348.841803,279.668073 348.886349,278.819313 C348.947379,277.656343 348.027522,277.403034 346.031395,277.403034 L342.688392,277.403966 C342.564271,277.404009 342.440227,277.404048 342.315579,277.404082 L340.747137,277.404127 C340.606741,277.404092 340.463013,277.404045 340.315269,277.403985 L338.858776,277.403034 L338.858776,277.403034 C337.710527,277.402029 336.971244,277.69661 337.015413,278.804591 C337.04209,279.479195 337.616906,279.969198 338.491336,280.142347 C339.697721,280.381183 341.386306,280.410125 341.386306,280.410125 L341.38602,280.575982 C341.385979,280.602793 341.385935,280.632644 341.385889,280.66538 L341.38595,283.061814 C341.386531,283.468712 341.387463,283.897058 341.388896,284.327373 L341.390864,284.843449 C341.397178,286.301275 341.409969,287.691777 341.43513,288.249294 C341.480431,289.25258 341.239204,291.999945 342.770244,291.999945 Z M355.721733,291.999342 C357.089513,292.031153 357.168981,290.865897 357.166545,289.637566 L357.164928,289.329826 L357.164928,289.329826 L357.164087,289.023394 C357.164401,288.921906 357.165543,288.821293 357.168211,288.72221 C357.175882,288.435185 357.179718,288.052324 357.181067,287.631875 L357.181393,286.980289 C357.179253,285.797682 357.164209,284.554868 357.161793,284.35635 C357.282391,284.22499 358.308704,283.106195 359.327408,281.955253 L359.685147,281.549259 C360.45312,280.673453 361.153808,279.844568 361.37879,279.489791 C361.7042,278.976635 361.963799,277.991847 360.875448,277.476425 C360.27773,277.193294 359.547632,277.309944 358.998109,277.99021 C358.09373,279.109516 356.441133,280.960052 355.742495,281.648497 C355.043857,280.960052 353.391135,279.109516 352.486755,277.99021 C351.937232,277.309944 351.207135,277.193294 350.609417,277.476424 C349.521066,277.991972 349.780665,278.976634 350.106075,279.489791 C350.335146,279.851039 351.057653,280.704093 351.842195,281.597707 L352.180968,281.981853 C353.257811,283.197846 354.335404,284.369815 354.335404,284.369815 C354.335404,284.369815 354.40166,287.363054 354.407451,288.697789 L354.407656,288.974247 C354.407328,289.055174 354.406585,289.12417 354.405368,289.179119 C354.378691,290.376191 354.453815,291.969771 355.721733,291.999342 Z" id="Productivity" fill="#9093CC" fill-rule="nonzero"></path>
        <line x1="365.6" y1="50.94" x2="365.71" y2="41.43" id="Path" stroke="#B0B0DB" stroke-width="2.68066896" stroke-linecap="round"></line>
        <line x1="360.9" y1="46.13" x2="370.41" y2="46.24" id="Path" stroke="#B0B0DB" stroke-width="2.68066896" stroke-linecap="round"></line>
        <line x1="14.09" y1="422.8" x2="14.21" y2="413.29" id="Path" stroke="#B0B0DB" stroke-width="2.68066896" stroke-linecap="round"></line>
        <line x1="9.39" y1="417.99" x2="18.91" y2="418.1" id="Path" stroke="#B0B0DB" stroke-width="2.68066896" stroke-linecap="round"></line>
        <line x1="403.65" y1="449.84" x2="403.76" y2="440.33" id="Path" stroke="#B0B0DB" stroke-width="2.68066896" stroke-linecap="round"></line>
        <line x1="398.95" y1="445.03" x2="408.46" y2="445.14" id="Path" stroke="#B0B0DB" stroke-width="2.68066896" stroke-linecap="round"></line>
    </g>
</svg>