<?xml version="1.0" encoding="UTF-8"?>
<svg width="455px" height="473px" viewBox="0 0 455 473" version="1.1" xmlns="http://www.w3.org/2000/svg" xmlns:xlink="http://www.w3.org/1999/xlink">
    <title>dqi</title>
    <g id="dqi" stroke="none" stroke-width="1" fill="none" fill-rule="evenodd">
        <g id="akeneo-ico-data-quality-insights" transform="translate(0.000000, 32.000000)">
            <line x1="10.69" y1="33.08" x2="10.8" y2="23.57" id="Path" stroke="#B0B0DB" stroke-width="2.68066896" stroke-linecap="round"></line>
            <line x1="5.99" y1="28.27" x2="15.5" y2="28.38" id="Path" stroke="#B0B0DB" stroke-width="2.68066896" stroke-linecap="round"></line>
            <line x1="42.18" y1="406.9" x2="42.29" y2="397.39" id="Path" stroke="#B0B0DB" stroke-width="2.68066896" stroke-linecap="round"></line>
            <line x1="37.48" y1="402.09" x2="46.99" y2="402.2" id="Path" stroke="#B0B0DB" stroke-width="2.68066896" stroke-linecap="round"></line>
            <path d="M180.6,394.58 C137.39,386.83 77.21,369.84 35.51,294.87 C-2.31,226.9 -24.72,123 46.46,57.66 C117.64,-7.68 333.9,-28.29 416.03,57.66 C498.16,143.61 435.76,440.29 180.6,394.58 Z" id="Path" fill="#EFEFF8" fill-rule="nonzero"></path>
            <line x1="429.05" y1="399.75" x2="429.16" y2="390.24" id="Path" stroke="#B0B0DB" stroke-width="2.68066896" stroke-linecap="round"></line>
            <line x1="424.35" y1="394.94" x2="433.86" y2="395.05" id="Path" stroke="#B0B0DB" stroke-width="2.68066896" stroke-linecap="round"></line>
            <rect id="Rectangle" fill="#DFE1F0" fill-rule="nonzero" transform="translate(244.115000, 221.310000) rotate(-180.000000) translate(-244.115000, -221.310000) " x="41.01" y="100.93" width="406.21" height="240.76" rx="5"></rect>
            <rect id="Rectangle" fill="#FFFFFF" fill-rule="nonzero" transform="translate(231.735000, 208.920000) rotate(-180.000000) translate(-231.735000, -208.920000) " x="28.63" y="88.54" width="406.21" height="240.76" rx="5"></rect>
            <circle id="Oval" fill="#EFEFF8" fill-rule="nonzero" cx="404.1" cy="111.69" r="9.18"></circle>
            <circle id="Oval" fill="#B0B0DB" fill-rule="nonzero" cx="404.1" cy="108.83" r="2.46"></circle>
            <path d="M404.1,112.1 L404.1,112.1 C405.187388,112.1 406.230239,112.531963 406.999138,113.300862 C407.768037,114.069761 408.2,115.112612 408.2,116.2 L408.2,117 L400,117 L400,116.18 C400.011008,113.923447 401.84342,112.1 404.1,112.1 Z" id="Path" fill="#B0B0DB" fill-rule="nonzero"></path>
            <path d="M86.38,174.73 C85.13,178.73 92.51,181.44 93.38,183.94 C93.86,185.32 90.38,192.62 92.22,194.94 C94.54,197.87 101.75,192.48 104.41,192.19 C106.13,192 111.98,196.31 113.7,195.93 C119.7,194.59 115.53,186.93 115.91,185.1 C116.72,181.25 124.02,178.58 122.62,175.22 C120.89,171.1 113.34,171.94 111.98,171.01 C109.87,169.57 107.98,160.85 104.5,161.01 C101.02,161.17 99.04,168.2 97.64,170.01 C95.94,172.13 87.52,171.06 86.38,174.73 Z" id="Path" fill="#FCCE76" fill-rule="nonzero"></path>
            <path d="M118.52,175.13 L109.37,173.8 L105.28,165.51 C105.127553,165.205077 104.815907,165.012461 104.475,165.012461 C104.134093,165.012461 103.822447,165.205077 103.67,165.51 L99.58,173.8 L90.44,175.13 C90.1029787,175.180321 89.823278,175.416665 89.7174282,175.740565 C89.6115785,176.064465 89.6977339,176.42037 89.94,176.66 L96.56,183.11 L95,192.22 C94.9431144,192.556178 95.0810845,192.895638 95.3563705,193.096809 C95.6316565,193.297979 95.9969861,193.326316 96.3,193.17 L104.48,188.86 L112.66,193.17 C112.963014,193.326316 113.328343,193.297979 113.603629,193.096809 C113.878915,192.895638 114.016886,192.556178 113.96,192.22 L112.4,183.11 L119.01,176.66 C119.25982,176.424893 119.352274,176.067135 119.247642,175.740428 C119.143011,175.413722 118.859923,175.176235 118.52,175.13 L118.52,175.13 Z" id="Path" fill="#FEDDA1" fill-rule="nonzero"></path>
            <path d="M58.71,189.27 C57.71,192.52 63.71,194.68 64.35,196.69 C64.74,197.8 61.93,203.69 63.41,205.54 C65.28,207.9 71.09,203.54 73.23,203.33 C74.62,203.17 79.33,206.65 80.72,206.33 C85.57,205.25 82.19,199.07 82.5,197.6 C83.15,194.5 89.03,192.35 87.9,189.6 C86.51,186.28 80.43,186.95 79.33,186.2 C77.63,185.04 76.09,178.01 73.33,178.2 C70.57,178.39 68.93,184 67.8,185.42 C66.42,187.17 59.63,186.31 58.71,189.27 Z" id="Path" fill="#FCCE76" fill-rule="nonzero"></path>
            <path d="M84.61,189.59 L77.24,188.52 L73.94,181.84 C73.8184441,181.594959 73.5685342,181.439961 73.295,181.439961 C73.0214658,181.439961 72.7715559,181.594959 72.65,181.84 L69.35,188.52 L62,189.59 C61.7277943,189.628561 61.5013079,189.818769 61.4162848,190.080215 C61.3312617,190.341661 61.4025448,190.628704 61.6,190.82 L66.93,196.02 L65.68,203.36 C65.6368543,203.619835 65.7410968,203.882204 65.9508005,204.041578 C66.1605041,204.200953 66.4412037,204.231141 66.68,204.12 L73.27,200.66 L79.87,204.12 C80.1088902,204.223799 80.3852147,204.190483 80.5925881,204.032879 C80.7999616,203.875275 80.9060465,203.61796 80.87,203.36 L79.67,196 L85.01,190.8 C85.1955909,190.607539 85.2592508,190.328085 85.1753316,190.074229 C85.0914123,189.820373 84.8737346,189.633924 84.61,189.59 L84.61,189.59 Z" id="Path" fill="#FEDDA1" fill-rule="nonzero"></path>
            <path d="M121.09,189.27 C120.09,192.52 126.03,194.68 126.73,196.69 C127.11,197.8 124.31,203.69 125.79,205.54 C127.66,207.9 133.47,203.54 135.61,203.33 C137,203.17 141.71,206.65 143.1,206.33 C147.94,205.25 144.57,199.07 144.87,197.6 C145.53,194.5 151.41,192.35 150.28,189.6 C148.89,186.28 142.81,186.95 141.71,186.2 C140.01,185.04 138.47,178.01 135.71,178.2 C132.95,178.39 131.31,184 130.18,185.42 C128.79,187.17 122,186.31 121.09,189.27 Z" id="Path" fill="#FCCE76" fill-rule="nonzero"></path>
            <path d="M147,189.59 L139.63,188.52 L136.34,181.84 C136.215212,181.595881 135.964164,181.442265 135.69,181.442265 C135.415836,181.442265 135.164788,181.595881 135.04,181.84 L131.75,188.52 L124.38,189.59 C124.107794,189.628561 123.881308,189.818769 123.796285,190.080215 C123.711262,190.341661 123.782545,190.628704 123.98,190.82 L129.31,196.02 L128,203.36 C127.951717,203.631815 128.063106,203.907304 128.286741,204.069173 C128.510377,204.231042 128.806876,204.250787 129.05,204.12 L135.64,200.66 L142.23,204.12 C142.473124,204.250787 142.769623,204.231042 142.993259,204.069173 C143.216894,203.907304 143.328283,203.631815 143.28,203.36 L142.05,196 L147.38,190.8 C147.565086,190.610316 147.631003,190.334287 147.551596,190.081441 C147.47219,189.828594 147.260299,189.639811 147,189.59 L147,189.59 Z" id="Path" fill="#FEDDA1" fill-rule="nonzero"></path>
            <path d="M70,269.64 L70,292.93 C70,295.78 85.46,298.09 104.54,298.09 C123.62,298.09 139.09,295.78 139.09,292.93 L139.09,269.64 L70,269.64 Z" id="Path" fill="#DFE1F0" fill-rule="nonzero"></path>
            <ellipse id="Oval" fill="#FFFFFF" fill-rule="nonzero" cx="104.51" cy="269.04" rx="34.55" ry="5.16"></ellipse>
            <path d="M70,243.76 L70,267.05 C70,269.9 85.46,272.21 104.54,272.21 C123.62,272.21 139.09,269.9 139.09,267.05 L139.09,243.76 L70,243.76 Z" id="Path" fill="#DFE1F0" fill-rule="nonzero"></path>
            <ellipse id="Oval" fill="#FFFFFF" fill-rule="nonzero" cx="104.51" cy="243.17" rx="34.55" ry="5.16"></ellipse>
            <path d="M70,217.89 L70,241.18 C70,244.03 85.46,246.34 104.54,246.34 C123.62,246.34 139.09,244.03 139.09,241.18 L139.09,217.89 L70,217.89 Z" id="Path" fill="#DFE1F0" fill-rule="nonzero"></path>
            <ellipse id="Oval" stroke="#FFFFFF" stroke-width="2.36664033" fill="#DFE1F0" fill-rule="nonzero" cx="104.51" cy="217.29" rx="34.55" ry="5.16"></ellipse>
            <text id="Data-Quality-insights" fill="#5E63B6" fill-rule="nonzero" font-family="ZiggyPawritingRegular, Ziggy Pawriting" font-size="14.1998396" font-weight="normal">
                <tspan x="105.18" y="130.31">Data Quality insights</tspan>
            </text>
            <rect id="Rectangle" fill="#81CCCC" fill-rule="nonzero" x="182.66" y="160.44" width="40.86" height="61.29"></rect>
            <rect id="Rectangle" fill="#81CCCC" fill-rule="nonzero" x="241.06" y="160.44" width="40.86" height="61.29"></rect>
            <rect id="Rectangle" fill="#81CCCC" fill-rule="nonzero" x="299.45" y="160.44" width="40.86" height="61.29"></rect>
            <rect id="Rectangle" fill="#81CCCC" fill-rule="nonzero" x="357.85" y="160.44" width="40.86" height="61.29"></rect>
            <rect id="Rectangle" fill="#81CCCC" fill-rule="nonzero" x="182.66" y="237.05" width="40.86" height="61.29"></rect>
            <rect id="Rectangle" fill="#81CCCC" fill-rule="nonzero" x="241.06" y="237.05" width="40.86" height="61.29"></rect>
            <rect id="Rectangle" fill="#81CCCC" fill-rule="nonzero" x="299.45" y="237.05" width="40.86" height="61.29"></rect>
            <rect id="Rectangle" fill="#81CCCC" fill-rule="nonzero" x="357.85" y="237.05" width="40.86" height="61.29"></rect>
            <rect id="Rectangle" fill="#F74B64" fill-rule="nonzero" x="182.66" y="210.67" width="40.86" height="11.06"></rect>
            <rect id="Rectangle" fill="#F74B64" fill-rule="nonzero" x="241.06" y="203.99" width="40.86" height="17.73"></rect>
            <rect id="Rectangle" fill="#F74B64" fill-rule="nonzero" x="299.45" y="212.13" width="40.86" height="9.59"></rect>
            <rect id="Rectangle" fill="#F74B64" fill-rule="nonzero" x="357.85" y="203.99" width="40.86" height="17.73"></rect>
            <rect id="Rectangle" fill="#F74B64" fill-rule="nonzero" x="182.66" y="284.72" width="40.86" height="13.62"></rect>
            <rect id="Rectangle" fill="#F74B64" fill-rule="nonzero" x="241.06" y="279.73" width="40.86" height="18.61"></rect>
            <rect id="Rectangle" fill="#F74B64" fill-rule="nonzero" x="299.45" y="290.55" width="40.86" height="7.79"></rect>
            <rect id="Rectangle" fill="#F74B64" fill-rule="nonzero" x="357.85" y="286.19" width="40.86" height="12.15"></rect>
            <rect id="Rectangle" fill="#FF8394" fill-rule="nonzero" x="182.66" y="195.94" width="40.86" height="14.72"></rect>
            <rect id="Rectangle" fill="#FF8394" fill-rule="nonzero" x="241.06" y="184.24" width="40.86" height="19.75"></rect>
            <rect id="Rectangle" fill="#FF8394" fill-rule="nonzero" x="299.45" y="204.08" width="40.86" height="8.05"></rect>
            <rect id="Rectangle" fill="#FF8394" fill-rule="nonzero" x="357.85" y="195.94" width="40.86" height="8.05"></rect>
            <rect id="Rectangle" fill="#FF8394" fill-rule="nonzero" x="182.66" y="275.92" width="40.86" height="8.81"></rect>
            <rect id="Rectangle" fill="#FF8394" fill-rule="nonzero" x="241.06" y="267.7" width="40.86" height="12.03"></rect>
            <rect id="Rectangle" fill="#FF8394" fill-rule="nonzero" x="299.45" y="286.19" width="40.86" height="4.37"></rect>
            <rect id="Rectangle" fill="#FF8394" fill-rule="nonzero" x="357.85" y="271.93" width="40.86" height="14.26"></rect>
            <rect id="Rectangle" fill="#FCCE76" fill-rule="nonzero" x="182.66" y="178.23" width="40.86" height="17.72"></rect>
            <rect id="Rectangle" fill="#FCCE76" fill-rule="nonzero" x="241.06" y="178.23" width="40.86" height="6.02"></rect>
            <rect id="Rectangle" fill="#FCCE76" fill-rule="nonzero" x="299.45" y="200.43" width="40.86" height="3.65"></rect>
            <rect id="Rectangle" fill="#FCCE76" fill-rule="nonzero" x="357.85" y="178.23" width="40.86" height="17.72"></rect>
            <rect id="Rectangle" fill="#FCCE76" fill-rule="nonzero" x="182.66" y="266.7" width="40.86" height="9.21"></rect>
            <rect id="Rectangle" fill="#FCCE76" fill-rule="nonzero" x="241.06" y="260.33" width="40.86" height="7.36"></rect>
            <rect id="Rectangle" fill="#FCCE76" fill-rule="nonzero" x="299.45" y="258.39" width="40.86" height="27.8"></rect>
            <rect id="Rectangle" fill="#FCCE76" fill-rule="nonzero" x="357.85" y="263.77" width="40.86" height="8.16"></rect>
            <rect id="Rectangle" fill="#ABDCDC" fill-rule="nonzero" x="182.66" y="169.55" width="40.86" height="8.67"></rect>
            <rect id="Rectangle" fill="#ABDCDC" fill-rule="nonzero" x="241.06" y="169.55" width="40.86" height="8.67"></rect>
            <rect id="Rectangle" fill="#ABDCDC" fill-rule="nonzero" x="299.45" y="186.56" width="40.86" height="13.88"></rect>
            <rect id="Rectangle" fill="#ABDCDC" fill-rule="nonzero" x="357.85" y="165.01" width="40.86" height="13.21"></rect>
            <rect id="Rectangle" fill="#ABDCDC" fill-rule="nonzero" x="182.66" y="260.17" width="40.86" height="6.53"></rect>
            <rect id="Rectangle" fill="#ABDCDC" fill-rule="nonzero" x="241.06" y="255.11" width="40.86" height="5.22"></rect>
            <rect id="Rectangle" fill="#ABDCDC" fill-rule="nonzero" x="299.45" y="250.65" width="40.86" height="7.74"></rect>
            <rect id="Rectangle" fill="#ABDCDC" fill-rule="nonzero" x="357.85" y="257.99" width="40.86" height="5.79"></rect>
        </g>
    </g>
</svg>