<?xml version="1.0" encoding="UTF-8"?>
<svg width="487px" height="274px" viewBox="0 0 487 274" version="1.1" xmlns="http://www.w3.org/2000/svg" xmlns:xlink="http://www.w3.org/1999/xlink">
    <title>illus-november-21</title>
    <defs>
        <path d="M9.40177666,175.664101 C28.1794582,175.664101 47.1821927,165.799772 82.388774,114.532263 C94.0612225,97.5349478 105.167828,77.2117774 114.390966,63.5318286 C116.075559,61.0332049 114.12526,58.4094923 115.967748,56.4431575 C117.716989,54.5763378 119.24528,54.2877195 120.098665,52.8707385 C121.003992,51.3675093 121.201518,48.7457305 121.96004,47.0683091 C122.775648,45.2646448 125.217635,42.4032045 125.93748,40.682962 C126.963597,38.2308106 127.119101,34.8567536 127.846235,32.6207496 C128.693554,30.0151675 130.014082,28.142538 130.484247,25.8703388 C130.828987,24.2042931 130.382117,21.6333478 130.484247,20.105071 C130.703412,16.8254929 128.611023,13.669547 127.846235,11.170183 C126.723572,7.5012687 126.309793,4.84690642 122.601196,2.00691651 C119.7222,-0.197776385 117.192573,-0.498441667 112.95207,0.677430457 C111.835439,0.987067097 109.918237,1.52379545 108.655099,2.00691651 C107.41515,2.48116882 105.378545,2.28388921 104.052565,2.97991427 C103.351185,3.34807848 102.326641,5.55780348 101.607835,5.9564956 C100.199766,6.73749334 98.6714428,5.87524104 97.2115783,6.85121276 C95.7678417,7.81640239 94.87635,10.0740352 93.3705978,11.170183 C92.0297165,12.146309 89.8023935,11.4372257 88.4404899,12.5473433 C87.2199126,13.5422628 87.3602754,16.2063923 86.1075191,17.2780664 C84.5174413,18.638303 82.4425342,18.6024788 80.8173992,20.105071 C79.5558026,21.2715374 79.6673417,22.9943515 78.3936808,24.2259954 C77.3225864,25.2617553 74.4005266,25.5249905 73.3200888,26.599518 C72.2256385,27.6879812 72.2225089,29.8108048 71.1283912,30.9364999 C70.2758722,31.8136235 67.8275573,31.7263245 66.97441,32.6207496 C65.9540223,33.6905066 64.5808339,36.4038768 63.5676482,37.4979103 C62.9844956,38.1275959 58.1048071,39.3393102 57.5250951,39.9737831 C35.454789,64.128896 20.3262997,90.9028635 14.9886535,100.814541 C3.95529641,121.3028 -9.37590483,175.664101 9.40177666,175.664101 Z" id="path-1"></path>
    </defs>
    <g id="illus-november-21" stroke="none" stroke-width="1" fill="none" fill-rule="evenodd">
        <path d="M192.474516,62.8427007 C194.139801,60.3410038 199.279326,54.6297299 208,51.1944841 C208.500219,50.9974378 210.591852,50.8316812 211.398769,51.1944841 C211.866451,51.4047613 212.204526,52.0146315 212.412994,53.0240946 C210.160322,52.7039306 208.689324,52.9790423 208,53.8494295 C206.284838,56.0151077 206.465292,59.2475954 205.332652,61.5687765 C203.87539,64.5552256 201.226629,66.5430837 199.933293,68.1900877 C198.899293,69.5068402 195.752759,71.3122602 192.961255,75.7227226 C191.821154,77.5240368 190.911813,80.8030305 188.785791,84.6081002 C186.694025,88.3518611 182.241428,95.9910701 175.428003,107.525727 C167.351045,106.666974 165.163597,103.866167 168.865658,99.1233049 C177.777463,87.7060264 187.306818,70.6059411 192.474516,62.8427007 Z" id="Rectangle" stroke="#5563B6" stroke-width="5" fill="#FFFFFF" stroke-linejoin="round"></path>
        <g id="Group-2" transform="translate(62.011347, 39.685459)">
            <mask id="mask-2" fill="white">
                <use xlink:href="#path-1"></use>
            </mask>
            <use id="Mask" fill="#FFFFFF" xlink:href="#path-1"></use>
            <g mask="url(#mask-2)" id="Rectangle" stroke="#89C3EA" stroke-linejoin="round" stroke-width="2">
                <g transform="translate(1.329224, -1.038153)">
                    <rect fill="#FFFFFF" fill-rule="evenodd" transform="translate(90.732775, 46.982333) rotate(-50.000000) translate(-90.732775, -46.982333) " x="87.7327752" y="42.4823326" width="6" height="9" rx="3"></rect>
                    <rect fill="#FFFFFF" fill-rule="evenodd" transform="translate(85.732775, 52.982333) rotate(-50.000000) translate(-85.732775, -52.982333) " x="82.7327752" y="48.4823326" width="6" height="9" rx="3"></rect>
                    <rect fill="#FFFFFF" fill-rule="evenodd" transform="translate(80.732775, 58.982333) rotate(-50.000000) translate(-80.732775, -58.982333) " x="77.7327752" y="54.4823326" width="6" height="9" rx="3"></rect>
                    <rect fill="#FFFFFF" fill-rule="evenodd" transform="translate(75.732775, 65.982333) rotate(-50.000000) translate(-75.732775, -65.982333) " x="72.7327752" y="61.4823326" width="6" height="9" rx="3"></rect>
                    <rect fill="#FFFFFF" fill-rule="evenodd" transform="translate(66.732775, 76.982333) rotate(-50.000000) translate(-66.732775, -76.982333) " x="63.7327752" y="72.4823326" width="6" height="9" rx="3"></rect>
                    <rect fill="#FFFFFF" fill-rule="evenodd" transform="translate(13.671147, 148.277917) rotate(-50.000000) translate(-13.671147, -148.277917) " x="11.1711468" y="144.277917" width="5" height="8" rx="2.5"></rect>
                    <rect fill="#FFFFFF" fill-rule="evenodd" transform="translate(17.161359, 143.239852) rotate(-59.000000) translate(-17.161359, -143.239852) " x="14.1613589" y="139.239852" width="6" height="8" rx="3"></rect>
                    <rect fill="#FFFFFF" fill-rule="evenodd" transform="translate(61.732775, 83.982333) rotate(-50.000000) translate(-61.732775, -83.982333) " x="58.7327752" y="79.4823326" width="6" height="9" rx="3"></rect>
                    <rect fill="#FFFFFF" fill-rule="evenodd" transform="translate(104.732775, 28.982333) rotate(-50.000000) translate(-104.732775, -28.982333) " x="101.732775" y="24.4823326" width="6" height="9" rx="3"></rect>
                    <rect fill="#FFFFFF" fill-rule="evenodd" transform="translate(99.732775, 34.982333) rotate(-50.000000) translate(-99.732775, -34.982333) " x="96.7327752" y="30.4823326" width="6" height="9" rx="3"></rect>
                    <rect fill="#FFFFFF" fill-rule="evenodd" transform="translate(94.732775, 40.982333) rotate(-50.000000) translate(-94.732775, -40.982333) " x="91.7327752" y="36.4823326" width="6" height="9" rx="3"></rect>
                    <rect fill="#FFFFFF" fill-rule="evenodd" transform="translate(56.732775, 89.982333) rotate(-50.000000) translate(-56.732775, -89.982333) " x="53.7327752" y="85.4823326" width="6" height="9" rx="3"></rect>
                    <rect fill="#FFFFFF" fill-rule="evenodd" transform="translate(38.732775, 112.982333) rotate(-50.000000) translate(-38.732775, -112.982333) " x="35.7327752" y="108.482333" width="6" height="9" rx="3"></rect>
                    <rect fill="#FFFFFF" fill-rule="evenodd" transform="translate(42.928141, 107.522080) rotate(-50.000000) translate(-42.928141, -107.522080) " x="39.9281408" y="103.52208" width="6" height="8" rx="3"></rect>
                    <rect fill="#FFFFFF" fill-rule="evenodd" transform="translate(33.928141, 118.522080) rotate(-50.000000) translate(-33.928141, -118.522080) " x="30.9281408" y="114.52208" width="6" height="8" rx="3"></rect>
                    <rect fill="none" transform="translate(108.077207, 23.486262) rotate(-50.000000) translate(-108.077207, -23.486262) " x="105.577207" y="20.4862615" width="5" height="6" rx="2.5"></rect>
                    <rect fill="none" transform="translate(52.311163, 95.843474) rotate(-50.000000) translate(-52.311163, -95.843474) " x="49.811163" y="91.8434739" width="5" height="8" rx="2.5"></rect>
                    <rect fill="none" transform="translate(47.311163, 100.843474) rotate(-50.000000) translate(-47.311163, -100.843474) " x="44.811163" y="96.8434739" width="5" height="8" rx="2.5"></rect>
                    <rect fill="none" transform="translate(113.077207, 18.486262) rotate(-50.000000) translate(-113.077207, -18.486262) " x="110.577207" y="15.4862615" width="5" height="6" rx="2.5"></rect>
                    <rect fill="none" transform="translate(29.311163, 123.843474) rotate(-50.000000) translate(-29.311163, -123.843474) " x="26.811163" y="119.843474" width="5" height="8" rx="2.5"></rect>
                    <rect fill="none" transform="translate(70.928141, 71.522080) rotate(-50.000000) translate(-70.928141, -71.522080) " x="67.9281408" y="67.5220801" width="6" height="8" rx="3"></rect>
                    <rect fill="none" transform="translate(24.928141, 129.522080) rotate(-50.000000) translate(-24.928141, -129.522080) " x="21.9281408" y="125.52208" width="6" height="8" rx="3"></rect>
                    <rect fill="none" transform="translate(21.115797, 136.303726) rotate(-50.000000) translate(-21.115797, -136.303726) " x="18.1157974" y="132.303726" width="6" height="8" rx="3"></rect>
                    <rect fill="#FFFFFF" fill-rule="evenodd" transform="translate(103.232775, 43.982333) rotate(-50.000000) translate(-103.232775, -43.982333) " x="100.732775" y="40.4823326" width="5" height="7" rx="2.5"></rect>
                    <path d="M95.0806386,47.7354692 C96.1015055,46.5536144 97.8773243,46.3983147 99.087838,47.3850297 L100.566347,48.5901937 C101.733156,49.5412842 101.908031,51.2581811 100.95694,52.4249902 C100.940552,52.4450954 100.923878,52.4649658 100.906922,52.484595 C99.8860554,53.6664498 98.1102367,53.8217496 96.8997229,52.8350345 L95.4212136,51.6298706 C94.2544044,50.6787801 94.07953,48.9618832 95.0306205,47.7950741 C95.0470087,47.7749688 95.0636831,47.7550985 95.0806386,47.7354692 Z" fill="#FFFFFF" fill-rule="evenodd"></path>
                    <path d="M90.3270927,53.2767154 C91.3479597,52.0948605 93.1237784,51.9395608 94.3342921,52.9262759 L95.8128015,54.1314398 C96.9796106,55.0825303 97.1544851,56.7994272 96.2033946,57.9662363 C96.1870064,57.9863416 96.170332,58.0062119 96.1533765,58.0258412 C95.1325096,59.207696 93.3566908,59.3629957 92.1461771,58.3762807 L90.6676677,57.1711167 C89.5008586,56.2200262 89.3259841,54.5031293 90.2770746,53.3363202 C90.2934629,53.316215 90.3101372,53.2963446 90.3270927,53.2767154 Z" fill="#FFFFFF" fill-rule="evenodd"></path>
                    <path d="M85.5735468,59.7415025 C86.5944138,58.5596477 88.3702325,58.404348 89.5807463,59.3910631 L91.0592557,60.596227 C92.2260648,61.5473175 92.4009393,63.2642144 91.4498487,64.4310235 C91.4334605,64.4511288 91.4167861,64.4709991 91.3998307,64.4906284 C90.3789637,65.6724832 88.603145,65.8277829 87.3926312,64.8410678 L85.9141218,63.6359039 C84.7473127,62.6848134 84.5724383,60.9679165 85.5235288,59.8011074 C85.539917,59.7810021 85.5565914,59.7611318 85.5735468,59.7415025 Z" fill="#FFFFFF" fill-rule="evenodd"></path>
                    <rect fill="#FFFFFF" fill-rule="evenodd" transform="translate(79.732775, 74.482333) rotate(-50.000000) translate(-79.732775, -74.482333) " x="76.7327752" y="70.4823326" width="6" height="8" rx="3"></rect>
                    <rect fill="#FFFFFF" fill-rule="evenodd" transform="translate(25.966731, 146.339545) rotate(-50.000000) translate(-25.966731, -146.339545) " x="22.9667308" y="142.839545" width="6" height="7" rx="3"></rect>
                    <rect fill="#FFFFFF" fill-rule="evenodd" transform="translate(31.966731, 149.339545) rotate(-50.000000) translate(-31.966731, -149.339545) " x="28.9667308" y="145.839545" width="6" height="7" rx="3"></rect>
                    <rect fill="#FFFFFF" fill-rule="evenodd" transform="translate(11.288125, 155.956523) rotate(-50.000000) translate(-11.288125, -155.956523) " x="8.78812458" y="152.456523" width="5" height="7" rx="2.5"></rect>
                    <rect fill="#FFFFFF" fill-rule="evenodd" transform="translate(16.288125, 160.956523) rotate(-50.000000) translate(-16.288125, -160.956523) " x="13.7881246" y="157.456523" width="5" height="7" rx="2.5"></rect>
                    <rect fill="#FFFFFF" fill-rule="evenodd" transform="translate(8.288125, 160.956523) rotate(-50.000000) translate(-8.288125, -160.956523) " x="5.78812458" y="157.456523" width="5" height="7" rx="2.5"></rect>
                    <rect fill="#FFFFFF" fill-rule="evenodd" transform="translate(6.288125, 166.956523) rotate(-50.000000) translate(-6.288125, -166.956523) " x="3.78812458" y="163.456523" width="5" height="7" rx="2.5"></rect>
                    <rect fill="#FFFFFF" fill-rule="evenodd" transform="translate(4.288125, 152.956523) rotate(-50.000000) translate(-4.288125, -152.956523) " x="1.78812458" y="149.456523" width="5" height="7" rx="2.5"></rect>
                    <rect fill="#FFFFFF" fill-rule="evenodd" transform="translate(18.288125, 154.956523) rotate(-56.000000) translate(-18.288125, -154.956523) " x="15.7881246" y="151.456523" width="5" height="7" rx="2.5"></rect>
                    <path d="M82.4802555,36.5339474 L82.6445163,36.2910476 C83.3246085,35.285364 84.6911998,35.0214202 85.6968833,35.7015124 C85.8250496,35.7881847 85.9437073,35.888146 86.0508834,35.9997343 L87.9325766,37.958892 C88.912592,38.9792521 89.0465471,40.5456071 88.2540183,41.7175556 L88.0897576,41.9604555 C87.4096653,42.966139 86.043074,43.2300829 85.0373905,42.5499906 C84.9092242,42.4633183 84.7905666,42.363357 84.6833904,42.2517687 L82.8016973,40.2926111 C81.8216818,39.2722509 81.6877268,37.7058959 82.4802555,36.5339474 Z" fill="#FFFFFF" fill-rule="evenodd"></path>
                    <path d="M78.1240767,42.1710697 C79.1589892,40.9324383 81.0020606,40.7672914 82.240692,41.8022039 C82.2438316,41.804827 82.2469657,41.8074568 82.2500942,41.8100932 L84.4893669,43.697096 C85.7303573,44.7428607 85.8924064,46.5951065 84.8518626,47.8404777 C83.8169502,49.0791092 81.9738787,49.244256 80.7352473,48.2093436 C80.7321077,48.2067204 80.7289737,48.2040906 80.7258452,48.2014542 L78.4865724,46.3144514 C77.2455821,45.2686868 77.083533,43.4164409 78.1240767,42.1710697 Z" fill="#FFFFFF" fill-rule="evenodd"></path>
                    <path d="M73.2449096,48.0510918 C74.2798221,46.8124604 76.1228935,46.6473135 77.361525,47.6822259 C77.3646645,47.6848491 77.3677986,47.6874789 77.3709271,47.6901153 L79.6101999,49.5771181 C80.8511902,50.6228827 81.0132393,52.4751286 79.9726955,53.7204998 C78.9377831,54.9591312 77.0947116,55.1242781 75.8560802,54.0893657 C75.8529407,54.0867425 75.8498066,54.0841127 75.8466781,54.0814763 L73.6074053,52.1944735 C72.366415,51.1487089 72.2043659,49.296463 73.2449096,48.0510918 Z" fill="#FFFFFF" fill-rule="evenodd"></path>
                    <path d="M68.3657426,54.9111176 C69.400655,53.6724861 71.2437264,53.5073393 72.4823579,54.5422517 C72.4854974,54.5448749 72.4886315,54.5475047 72.49176,54.550141 L74.7310328,56.4371438 C75.9720231,57.4829085 76.1340722,59.3351543 75.0935285,60.5805256 C74.058616,61.819157 72.2155446,61.9843039 70.9769131,60.9493914 C70.9737736,60.9467682 70.9706395,60.9441384 70.967511,60.9415021 L68.7282382,59.0544993 C67.4872479,58.0087346 67.3251988,56.1564888 68.3657426,54.9111176 Z" fill="#FFFFFF" fill-rule="evenodd"></path>
                    <path d="M59.5832418,65.691158 C60.6181542,64.4525266 62.4612257,64.2873797 63.6998571,65.3222922 C63.7029967,65.3249154 63.7061307,65.3275452 63.7092593,65.3301815 L65.948532,67.2171843 C67.1895224,68.262949 67.3515714,70.1151948 66.3110277,71.360566 C65.2761153,72.5991975 63.4330438,72.7643443 62.1944124,71.7294319 C62.1912728,71.7268087 62.1881388,71.7241789 62.1850102,71.7215426 L59.9457375,69.8345398 C58.7047471,68.7887751 58.5426981,66.9365293 59.5832418,65.691158 Z" fill="#FFFFFF" fill-rule="evenodd"></path>
                    <path d="M11.5240843,129.890192 C12.436112,128.889635 13.963345,128.756469 15.0347784,129.584079 L17.0133903,131.112425 C17.9787515,131.858102 18.1568408,133.245172 17.4111638,134.210534 C17.3745066,134.25799 17.335932,134.303935 17.2955358,134.348252 C16.3835081,135.348809 14.8562751,135.481975 13.7848417,134.654364 L11.8062298,133.126019 C10.8408685,132.380342 10.6627793,130.993271 11.4084563,130.02791 C11.4451135,129.980453 11.4836881,129.934509 11.5240843,129.890192 Z" fill="#FFFFFF" fill-rule="evenodd"></path>
                    <path d="M9.34472051,135.66882 C10.1587141,134.789767 11.5070965,134.67236 12.4607704,135.3975 L14.2286706,136.741747 C15.0712732,137.382431 15.2349601,138.584873 14.5942755,139.427476 C14.5568027,139.476759 14.5169641,139.524197 14.4748996,139.569623 C13.660906,140.448677 12.3125236,140.566083 11.3588497,139.840944 L9.59094952,138.496697 C8.74834691,137.856012 8.58466001,136.65357 9.22534459,135.810968 C9.26281736,135.761685 9.30265604,135.714247 9.34472051,135.66882 Z" fill="#FFFFFF" fill-rule="evenodd"></path>
                    <path d="M4.34472051,132.66882 C5.15871406,131.789767 6.50709651,131.67236 7.46077043,132.3975 L9.22867058,133.741747 C10.0712732,134.382431 10.2349601,135.584873 9.59427551,136.427476 C9.55680274,136.476759 9.51696406,136.524197 9.47489959,136.569623 C8.66090604,137.448677 7.31252359,137.566083 6.35884966,136.840944 L4.59094952,135.496697 C3.74834691,134.856012 3.58466001,133.65357 4.22534459,132.810968 C4.26281736,132.761685 4.30265604,132.714247 4.34472051,132.66882 Z" fill="#FFFFFF" fill-rule="evenodd"></path>
                    <path d="M4.34472051,139.66882 C5.15871406,138.789767 6.50709651,138.67236 7.46077043,139.3975 L9.22867058,140.741747 C10.0712732,141.382431 10.2349601,142.584873 9.59427551,143.427476 C9.55680274,143.476759 9.51696406,143.524197 9.47489959,143.569623 C8.66090604,144.448677 7.31252359,144.566083 6.35884966,143.840944 L4.59094952,142.496697 C3.74834691,141.856012 3.58466001,140.65357 4.22534459,139.810968 C4.26281736,139.761685 4.30265604,139.714247 4.34472051,139.66882 Z" fill="#FFFFFF" fill-rule="evenodd"></path>
                    <path d="M3.52408431,144.890192 C4.43611196,143.889635 5.96334503,143.756469 7.03477837,144.584079 L9.01339025,146.112425 C9.97875155,146.858102 10.1568408,148.245172 9.41116376,149.210534 C9.37450661,149.25799 9.33593199,149.303935 9.29553578,149.348252 C8.38350814,150.348809 6.85627506,150.481975 5.78484172,149.654364 L3.80622984,148.126019 C2.84086855,147.380342 2.66277928,145.993271 3.40845634,145.02791 C3.44511348,144.980453 3.4836881,144.934509 3.52408431,144.890192 Z" fill="#FFFFFF" fill-rule="evenodd"></path>
                    <path d="M18.3447205,147.66882 C19.1587141,146.789767 20.5070965,146.67236 21.4607704,147.3975 L23.2286706,148.741747 C24.0712732,149.382431 24.2349601,150.584873 23.5942755,151.427476 C23.5568027,151.476759 23.5169641,151.524197 23.4748996,151.569623 C22.660906,152.448677 21.3125236,152.566083 20.3588497,151.840944 L18.5909495,150.496697 C17.7483469,149.856012 17.58466,148.65357 18.2253446,147.810968 C18.2628174,147.761685 18.302656,147.714247 18.3447205,147.66882 Z" fill="#FFFFFF" fill-rule="evenodd"></path>
                    <path d="M23.3447205,150.66882 C24.1587141,149.789767 25.5070965,149.67236 26.4607704,150.3975 L28.2286706,151.741747 C29.0712732,152.382431 29.2349601,153.584873 28.5942755,154.427476 C28.5568027,154.476759 28.5169641,154.524197 28.4748996,154.569623 C27.660906,155.448677 26.3125236,155.566083 25.3588497,154.840944 L23.5909495,153.496697 C22.7483469,152.856012 22.58466,151.65357 23.2253446,150.810968 C23.2628174,150.761685 23.302656,150.714247 23.3447205,150.66882 Z" fill="#FFFFFF" fill-rule="evenodd"></path>
                    <path d="M54.7040747,72.5511838 C55.7389871,71.3125524 57.5820586,71.1474055 58.82069,72.1823179 C58.8238296,72.1849411 58.8269637,72.1875709 58.8300922,72.1902073 L61.0693649,74.0772101 C62.3103553,75.1229747 62.4724043,76.9752206 61.4318606,78.2205918 C60.3969482,79.4592232 58.5538767,79.6243701 57.3152453,78.5894577 C57.3121057,78.5868345 57.3089717,78.5842047 57.3058432,78.5815683 L55.0665704,76.6945655 C53.82558,75.6488009 53.663531,73.796555 54.7040747,72.5511838 Z" fill="#FFFFFF" fill-rule="evenodd"></path>
                    <path d="M96.1419234,18.8938812 L96.3061841,18.6509813 C96.9862764,17.6452978 98.3528676,17.3813539 99.3585512,18.0614462 C99.4867175,18.1481185 99.6053751,18.2480798 99.7125513,18.3596681 L101.594244,20.3188257 C102.57426,21.3391859 102.708215,22.9055409 101.915686,24.0774894 L101.751425,24.3203892 C101.071333,25.3260727 99.7047419,25.5900166 98.6990583,24.9099244 C98.5708921,24.8232521 98.4522344,24.7232908 98.3450583,24.6117025 L96.4633651,22.6525448 C95.4833496,21.6321847 95.3493946,20.0658297 96.1419234,18.8938812 Z" fill="#FFFFFF" fill-rule="evenodd"></path>
                    <path d="M89.1419234,14.8938812 L89.3061841,14.6509813 C89.9862764,13.6452978 91.3528676,13.3813539 92.3585512,14.0614462 C92.4867175,14.1481185 92.6053751,14.2480798 92.7125513,14.3596681 L94.5942444,16.3188257 C95.5742599,17.3391859 95.7082149,18.9055409 94.9156861,20.0774894 L94.7514254,20.3203892 C94.0713332,21.3260727 92.7047419,21.5900166 91.6990583,20.9099244 C91.5708921,20.8232521 91.4522344,20.7232908 91.3450583,20.6117025 L89.4633651,18.6525448 C88.4833496,17.6321847 88.3493946,16.0658297 89.1419234,14.8938812 Z" fill="#FFFFFF" fill-rule="evenodd"></path>
                    <path d="M91.2627563,24.7739033 L91.427017,24.5310034 C92.1071093,23.5253199 93.4737006,23.261376 94.4793841,23.9414683 C94.6075504,24.0281405 94.726208,24.1281019 94.8333842,24.2396902 L96.7150773,26.1988478 C97.6950928,27.219208 97.8290478,28.7855629 97.0365191,29.9575115 L96.8722583,30.2004113 C96.1921661,31.2060948 94.8255748,31.4700387 93.8198913,30.7899464 C93.691725,30.7032742 93.5730673,30.6033128 93.4658912,30.4917245 L91.584198,28.5325669 C90.6041826,27.5122067 90.4702275,25.9458518 91.2627563,24.7739033 Z" fill="#FFFFFF" fill-rule="evenodd"></path>
                    <path d="M85.2627563,19.7739033 L85.427017,19.5310034 C86.1071093,18.5253199 87.4737006,18.261376 88.4793841,18.9414683 C88.6075504,19.0281405 88.726208,19.1281019 88.8333842,19.2396902 L90.7150773,21.1988478 C91.6950928,22.219208 91.8290478,23.7855629 91.0365191,24.9575115 L90.8722583,25.2004113 C90.1921661,26.2060948 88.8255748,26.4700387 87.8198913,25.7899464 C87.691725,25.7032742 87.5730673,25.6033128 87.4658912,25.4917245 L85.584198,23.5325669 C84.6041826,22.5122067 84.4702275,20.9458518 85.2627563,19.7739033 Z" fill="#FFFFFF" fill-rule="evenodd"></path>
                    <path d="M86.3835892,30.6539253 L86.5478499,30.4110255 C87.2279422,29.405342 88.5945335,29.1413981 89.600217,29.8214903 C89.7283833,29.9081626 89.8470409,30.0081239 89.9542171,30.1197123 L91.8359103,32.0788699 C92.8159257,33.09923 92.9498807,34.665585 92.157352,35.8375335 L91.9930913,36.0804334 C91.312999,37.0861169 89.9464077,37.3500608 88.9407242,36.6699685 C88.8125579,36.5832962 88.6939002,36.4833349 88.5867241,36.3717466 L86.7050309,34.412589 C85.7250155,33.3922288 85.5910605,31.8258739 86.3835892,30.6539253 Z" fill="#FFFFFF" fill-rule="evenodd"></path>
                    <path d="M49.8249076,78.4312059 C50.8598201,77.1925745 52.7028915,77.0274276 53.9415229,78.06234 C53.9446625,78.0649632 53.9477966,78.067593 53.9509251,78.0702294 L56.1901978,79.9572322 C57.4311882,81.0029968 57.5932373,82.8552427 56.5526935,84.1006139 C55.5177811,85.3392453 53.6747096,85.5043922 52.4360782,84.4694798 C52.4329386,84.4668566 52.4298046,84.4642268 52.4266761,84.4615904 L50.1874033,82.5745876 C48.946413,81.5288229 48.7843639,79.6765771 49.8249076,78.4312059 Z" fill="#FFFFFF" fill-rule="evenodd"></path>
                    <path d="M41.8249076,73.4312059 C42.8598201,72.1925745 44.7028915,72.0274276 45.9415229,73.06234 C45.9446625,73.0649632 45.9477966,73.067593 45.9509251,73.0702294 L48.1901978,74.9572322 C49.4311882,76.0029968 49.5932373,77.8552427 48.5526935,79.1006139 C47.5177811,80.3392453 45.6747096,80.5043922 44.4360782,79.4694798 C44.4329386,79.4668566 44.4298046,79.4642268 44.4266761,79.4615904 L42.1874033,77.5745876 C40.946413,76.5288229 40.7843639,74.6765771 41.8249076,73.4312059 Z" fill="#FFFFFF" fill-rule="evenodd" transform="translate(45.188801, 76.265910) rotate(-10.000000) translate(-45.188801, -76.265910) "></path>
                    <path d="M38.8249076,78.4312059 C39.8598201,77.1925745 41.7028915,77.0274276 42.9415229,78.06234 C42.9446625,78.0649632 42.9477966,78.067593 42.9509251,78.0702294 L45.1901978,79.9572322 C46.4311882,81.0029968 46.5932373,82.8552427 45.5526935,84.1006139 C44.5177811,85.3392453 42.6747096,85.5043922 41.4360782,84.4694798 C41.4329386,84.4668566 41.4298046,84.4642268 41.4266761,84.4615904 L39.1874033,82.5745876 C37.946413,81.5288229 37.7843639,79.6765771 38.8249076,78.4312059 Z" fill="#FFFFFF" fill-rule="evenodd" transform="translate(42.188801, 81.265910) rotate(-10.000000) translate(-42.188801, -81.265910) "></path>
                    <path d="M32.8249076,84.4312059 C33.8598201,83.1925745 35.7028915,83.0274276 36.9415229,84.06234 C36.9446625,84.0649632 36.9477966,84.067593 36.9509251,84.0702294 L39.1901978,85.9572322 C40.4311882,87.0029968 40.5932373,88.8552427 39.5526935,90.1006139 C38.5177811,91.3392453 36.6747096,91.5043922 35.4360782,90.4694798 C35.4329386,90.4668566 35.4298046,90.4642268 35.4266761,90.4615904 L33.1874033,88.5745876 C31.946413,87.5288229 31.7843639,85.6765771 32.8249076,84.4312059 Z" fill="#FFFFFF" fill-rule="evenodd" transform="translate(36.188801, 87.265910) rotate(-10.000000) translate(-36.188801, -87.265910) "></path>
                    <path d="M30.6959787,90.610452 L30.8655277,90.3488798 C31.4800605,89.4008075 32.7468023,89.1304203 33.6948747,89.7449531 C33.8390371,89.8383981 33.9708544,89.9496306 34.0872136,90.0760239 L35.8549672,91.9962182 C36.782323,93.0035437 36.9099899,94.5109424 36.1652558,95.659883 L35.9957068,95.9214553 C35.3811739,96.8695276 34.1144321,97.1399148 33.1663598,96.5253819 C33.0221974,96.431937 32.8903801,96.3207045 32.7740209,96.1943111 L31.0062673,94.2741169 C30.0789115,93.2667914 29.9512446,91.7593927 30.6959787,90.610452 Z" fill="#FFFFFF" fill-rule="evenodd" transform="translate(33.430617, 93.135168) rotate(-10.000000) translate(-33.430617, -93.135168) "></path>
                    <path d="M25.6959787,96.610452 L25.8655277,96.3488798 C26.4800605,95.4008075 27.7468023,95.1304203 28.6948747,95.7449531 C28.8390371,95.8383981 28.9708544,95.9496306 29.0872136,96.0760239 L30.8549672,97.9962182 C31.782323,99.0035437 31.9099899,100.510942 31.1652558,101.659883 L30.9957068,101.921455 C30.3811739,102.869528 29.1144321,103.139915 28.1663598,102.525382 C28.0221974,102.431937 27.8903801,102.320704 27.7740209,102.194311 L26.0062673,100.274117 C25.0789115,99.2667914 24.9512446,97.7593927 25.6959787,96.610452 Z" fill="#FFFFFF" fill-rule="evenodd" transform="translate(28.430617, 99.135168) rotate(-27.000000) translate(-28.430617, -99.135168) "></path>
                    <path d="M20.6959787,101.610452 L20.8655277,101.34888 C21.4800605,100.400807 22.7468023,100.13042 23.6948747,100.744953 C23.8390371,100.838398 23.9708544,100.949631 24.0872136,101.076024 L25.8549672,102.996218 C26.782323,104.003544 26.9099899,105.510942 26.1652558,106.659883 L25.9957068,106.921455 C25.3811739,107.869528 24.1144321,108.139915 23.1663598,107.525382 C23.0221974,107.431937 22.8903801,107.320704 22.7740209,107.194311 L21.0062673,105.274117 C20.0789115,104.266791 19.9512446,102.759393 20.6959787,101.610452 Z" fill="#FFFFFF" fill-rule="evenodd" transform="translate(23.430617, 104.135168) rotate(-27.000000) translate(-23.430617, -104.135168) "></path>
                    <path d="M46.8249076,68.4312059 C47.8598201,67.1925745 49.7028915,67.0274276 50.9415229,68.06234 C50.9446625,68.0649632 50.9477966,68.067593 50.9509251,68.0702294 L53.1901978,69.9572322 C54.4311882,71.0029968 54.5932373,72.8552427 53.5526935,74.1006139 C52.5177811,75.3392453 50.6747096,75.5043922 49.4360782,74.4694798 C49.4329386,74.4668566 49.4298046,74.4642268 49.4266761,74.4615904 L47.1874033,72.5745876 C45.946413,71.5288229 45.7843639,69.6765771 46.8249076,68.4312059 Z" fill="#FFFFFF" fill-rule="evenodd" transform="translate(50.188801, 71.265910) rotate(-10.000000) translate(-50.188801, -71.265910) "></path>
                    <path d="M32.2599061,100.971291 C33.2948186,99.7326591 35.13789,99.5675122 36.3765214,100.602425 C36.379661,100.605048 36.3827951,100.607678 36.3859236,100.610314 L38.6251963,102.497317 C39.8661867,103.543081 40.0282358,105.395327 38.987692,106.640699 C37.9527796,107.87933 36.1097081,108.044477 34.8710767,107.009564 C34.8679371,107.006941 34.8648031,107.004311 34.8616746,107.001675 L32.6224018,105.114672 C31.3814114,104.068908 31.2193624,102.216662 32.2599061,100.971291 Z" fill="#FFFFFF" fill-rule="evenodd"></path>
                    <path d="M36.7276499,95.9351902 C37.7625623,94.6965587 39.6056338,94.5314119 40.8442652,95.5663243 C40.8474048,95.5689475 40.8505389,95.5715773 40.8536674,95.5742136 L42.3454084,96.8312822 C43.5863987,97.8770469 43.7484478,99.7292927 42.707904,100.974664 C41.6729916,102.213295 39.8299202,102.378442 38.5912887,101.34353 C38.5881492,101.340907 38.5850151,101.338277 38.5818866,101.33564 L37.0901456,100.078572 C35.8491552,99.0328072 35.6871062,97.1805614 36.7276499,95.9351902 Z" fill="#FFFFFF" fill-rule="evenodd"></path>
                    <path d="M27.9451492,106.715231 C28.9800616,105.476599 30.8231331,105.311452 32.0617645,106.346365 C32.064904,106.348988 32.0680381,106.351618 32.0711666,106.354254 L33.5629076,107.611323 C34.803898,108.657087 34.965947,110.509333 33.9254033,111.754704 C32.8904909,112.993336 31.0474194,113.158483 29.808788,112.12357 C29.8056484,112.120947 29.8025144,112.118317 29.7993858,112.115681 L28.3076448,110.858612 C27.0666545,109.812848 26.9046054,107.960602 27.9451492,106.715231 Z" fill="#FFFFFF" fill-rule="evenodd"></path>
                    <path d="M45.8839166,84.4901131 C46.7463436,83.4579203 48.2822365,83.3202979 49.3144293,84.1827249 C49.3170456,84.1849109 49.3196573,84.1871024 49.3222644,84.1892993 L51.562091,86.0767688 C52.5962496,86.9482393 52.7312905,88.4917775 51.8641707,89.5295869 C51.0017437,90.5617798 49.4658508,90.6994021 48.4336579,89.8369751 C48.4310416,89.8347891 48.4284299,89.8325976 48.4258228,89.8304007 L46.1859963,87.9429312 C45.1518377,87.0714607 45.0167968,85.5279225 45.8839166,84.4901131 Z" fill="none"></path>
                    <path d="M41.0047495,89.3901315 C41.8671765,88.3579387 43.4030694,88.2203163 44.4352622,89.0827433 C44.4378785,89.0849293 44.4404903,89.0871208 44.4430974,89.0893177 L46.6829239,90.9767872 C47.7170825,91.8482577 47.8521234,93.3917959 46.9850036,94.4296053 C46.1225766,95.4617982 44.5866837,95.5994205 43.5544908,94.7369935 C43.5518745,94.7348075 43.5492628,94.732616 43.5466557,94.7304191 L41.3068292,92.8429496 C40.2726706,91.9714791 40.1376297,90.4279409 41.0047495,89.3901315 Z" fill="none"></path>
                    <path d="M22.439748,111.930216 C23.302175,110.898023 24.8380679,110.760401 25.8702607,111.622828 C25.872877,111.625014 25.8754887,111.627205 25.8780958,111.629402 L28.1179224,113.516872 C29.152081,114.388342 29.2871219,115.931881 28.4200021,116.96969 C27.5575751,118.001883 26.0216822,118.139505 24.9894893,117.277078 C24.986873,117.274892 24.9842613,117.272701 24.9816542,117.270504 L22.7418277,115.383034 C21.7076691,114.511564 21.5726282,112.968026 22.439748,111.930216 Z" fill="none"></path>
                    <path d="M15.439748,105.930216 C16.302175,104.898023 17.8380679,104.760401 18.8702607,105.622828 C18.872877,105.625014 18.8754887,105.627205 18.8780958,105.629402 L21.1179224,107.516872 C22.152081,108.388342 22.2871219,109.931881 21.4200021,110.96969 C20.5575751,112.001883 19.0216822,112.139505 17.9894893,111.277078 C17.986873,111.274892 17.9842613,111.272701 17.9816542,111.270504 L15.7418277,109.383034 C14.7076691,108.511564 14.5726282,106.968026 15.439748,105.930216 Z" fill="none"></path>
                    <path d="M12.439748,112.930216 C13.302175,111.898023 14.8380679,111.760401 15.8702607,112.622828 C15.872877,112.625014 15.8754887,112.627205 15.8780958,112.629402 L18.1179224,114.516872 C19.152081,115.388342 19.2871219,116.931881 18.4200021,117.96969 C17.5575751,119.001883 16.0216822,119.139505 14.9894893,118.277078 C14.986873,118.274892 14.9842613,118.272701 14.9816542,118.270504 L12.7418277,116.383034 C11.7076691,115.511564 11.5726282,113.968026 12.439748,112.930216 Z" fill="none"></path>
                    <path d="M7.43974796,117.930216 C8.30217499,116.898023 9.83806787,116.760401 10.8702607,117.622828 C10.872877,117.625014 10.8754887,117.627205 10.8780958,117.629402 L13.1179224,119.516872 C14.152081,120.388342 14.2871219,121.931881 13.4200021,122.96969 C12.5575751,124.001883 11.0216822,124.139505 9.98948932,123.277078 C9.98687302,123.274892 9.98426131,123.272701 9.98165421,123.270504 L7.74182769,121.383034 C6.70766906,120.511564 6.57262818,118.968026 7.43974796,117.930216 Z" fill="none"></path>
                    <path d="M5.43974796,123.930216 C6.30217499,122.898023 7.83806787,122.760401 8.87026072,123.622828 C8.87287703,123.625014 8.87548874,123.627205 8.87809584,123.629402 L11.1179224,125.516872 C12.152081,126.388342 12.2871219,127.931881 11.4200021,128.96969 C10.5575751,130.001883 9.02168218,130.139505 7.98948932,129.277078 C7.98687302,129.274892 7.98426131,129.272701 7.98165421,129.270504 L5.74182769,127.383034 C4.70766906,126.511564 4.57262818,124.968026 5.43974796,123.930216 Z" fill="none"></path>
                    <path d="M64.0509856,60.6550577 C65.085898,59.4164263 66.9289695,59.2512794 68.1676009,60.2861918 C68.1707405,60.288815 68.1738745,60.2914448 68.1770031,60.2940812 L69.668744,61.5511497 C70.9097344,62.5969144 71.0717835,64.4491602 70.0312397,65.6945315 C68.9963273,66.9331629 67.1532558,67.0983098 65.9146244,66.0633973 C65.9114848,66.0607741 65.9083508,66.0581443 65.9052223,66.055508 L64.4134813,64.7984394 C63.1724909,63.7526747 63.0104419,61.9004289 64.0509856,60.6550577 Z" fill="none"></path>
                    <path d="M19.1626484,117.495271 C20.1975608,116.25664 22.0406323,116.091493 23.2792637,117.126405 C23.2824033,117.129028 23.2855373,117.131658 23.2886659,117.134295 L24.7804069,118.391363 C26.0213972,119.437128 26.1834463,121.289374 25.1429025,122.534745 C24.1079901,123.773376 22.2649186,123.938523 21.0262872,122.903611 C21.0231477,122.900988 21.0200136,122.898358 21.0168851,122.895721 L19.5251441,121.638653 C18.2841537,120.592888 18.1221047,118.740642 19.1626484,117.495271 Z" fill="none"></path>
                    <path d="M14.427418,123.251537 C15.2887514,122.188477 16.8487804,122.024946 17.9118401,122.886279 C17.9339511,122.904195 17.9557518,122.922489 17.9772324,122.941156 L19.8776036,124.592554 C20.9571937,125.530704 21.0992664,127.155583 20.1988695,128.266855 C19.337536,129.329915 17.7775071,129.493446 16.7144473,128.632113 C16.6923363,128.614198 16.6705357,128.595903 16.649055,128.577236 L14.7486839,126.925838 C13.6690937,125.987688 13.527021,124.362809 14.427418,123.251537 Z" fill="none"></path>
                    <rect fill="#FFFFFF" fill-rule="evenodd" transform="translate(29.732775, 140.982333) rotate(-50.000000) translate(-29.732775, -140.982333) " x="26.7327752" y="136.482333" width="6" height="9" rx="3"></rect>
                    <rect fill="#FFFFFF" fill-rule="evenodd" transform="translate(37.732775, 146.982333) rotate(-50.000000) translate(-37.732775, -146.982333) " x="34.7327752" y="142.482333" width="6" height="9" rx="3"></rect>
                    <path d="M71.2855752,79.0897883 L71.9283628,78.3237439 C72.9933682,77.0545199 74.885635,76.888968 76.154859,77.9539734 L78.4529923,79.8823362 C79.7222163,80.9473416 79.8877682,82.8396084 78.8227628,84.1088324 L78.1799752,84.8748768 C77.1149698,86.1441008 75.222703,86.3096527 73.953479,85.2446473 L71.6553457,83.3162845 C70.3861217,82.2512791 70.2205698,80.3590123 71.2855752,79.0897883 Z" fill="#FFFFFF" fill-rule="evenodd"></path>
                    <rect fill="#FFFFFF" fill-rule="evenodd" transform="translate(115.232775, 25.982333) rotate(-50.000000) translate(-115.232775, -25.982333) " x="112.732775" y="22.4823326" width="5" height="7" rx="2.5"></rect>
                    <rect fill="#FFFFFF" fill-rule="evenodd" transform="translate(104.232775, 17.982333) rotate(-50.000000) translate(-104.232775, -17.982333) " x="101.732775" y="14.4823326" width="5" height="7" rx="2.5"></rect>
                    <rect fill="#FFFFFF" fill-rule="evenodd" transform="translate(98.232775, 12.982333) rotate(-50.000000) translate(-98.232775, -12.982333) " x="95.7327752" y="9.48233256" width="5" height="7" rx="2.5"></rect>
                    <rect fill="#FFFFFF" fill-rule="evenodd" transform="translate(112.232775, 31.982333) rotate(-50.000000) translate(-112.232775, -31.982333) " x="109.732775" y="28.4823326" width="5" height="7" rx="2.5"></rect>
                    <rect fill="#FFFFFF" fill-rule="evenodd" transform="translate(107.232775, 37.982333) rotate(-50.000000) translate(-107.232775, -37.982333) " x="104.732775" y="34.4823326" width="5" height="7" rx="2.5"></rect>
                    <path d="M66.2855752,85.0897883 C67.3505806,83.8205643 69.2428474,83.6550124 70.5120714,84.7200178 L72.8102047,86.6483806 C74.0794287,87.713386 74.2449806,89.6056528 73.1799752,90.8748768 C72.1149698,92.1441008 70.222703,92.3096527 68.953479,91.2446473 L66.6553457,89.3162845 C65.3861217,88.2512791 65.2205698,86.3590123 66.2855752,85.0897883 Z" fill="#FFFFFF" fill-rule="evenodd"></path>
                    <path d="M48.2855752,108.089788 C49.3505806,106.820564 51.2428474,106.655012 52.5120714,107.720018 L54.8102047,109.648381 C56.0794287,110.713386 56.2449806,112.605653 55.1799752,113.874877 C54.1149698,115.144101 52.222703,115.309653 50.953479,114.244647 L48.6553457,112.316284 C47.3861217,111.251279 47.2205698,109.359012 48.2855752,108.089788 Z" fill="#FFFFFF" fill-rule="evenodd"></path>
                    <path d="M52.863963,102.95093 C53.9289684,101.681706 55.8212352,101.516154 57.0904592,102.581159 L58.622548,103.866734 C59.891772,104.93174 60.0573239,106.824007 58.9923186,108.093231 C57.9273132,109.362455 56.0350464,109.528006 54.7658224,108.463001 L53.2337335,107.177426 C51.9645095,106.11242 51.7989576,104.220154 52.863963,102.95093 Z" fill="#FFFFFF" fill-rule="evenodd"></path>
                    <path d="M43.863963,113.95093 C44.9289684,112.681706 46.8212352,112.516154 48.0904592,113.581159 L49.622548,114.866734 C50.891772,115.93174 51.0573239,117.824007 49.9923186,119.093231 C48.9273132,120.362455 47.0350464,120.528006 45.7658224,119.463001 L44.2337335,118.177426 C42.9645095,117.11242 42.7989576,115.220154 43.863963,113.95093 Z" fill="#FFFFFF" fill-rule="evenodd"></path>
                    <rect fill="none" transform="translate(118.840703, 21.262315) rotate(-50.000000) translate(-118.840703, -21.262315) " x="116.840703" y="18.7623147" width="4" height="5" rx="2"></rect>
                    <rect fill="none" transform="translate(124.989769, 25.226496) rotate(-50.000000) translate(-124.989769, -25.226496) " x="122.989769" y="22.2264962" width="4" height="6" rx="2"></rect>
                    <rect fill="none" transform="translate(122.606747, 30.905102) rotate(-50.000000) translate(-122.606747, -30.905102) " x="120.606747" y="27.4051024" width="4" height="7" rx="2"></rect>
                    <rect fill="none" transform="translate(69.606747, 49.905102) rotate(-50.000000) translate(-69.606747, -49.905102) " x="67.606747" y="46.4051024" width="4" height="7" rx="2"></rect>
                    <path d="M62.2469852,91.2723235 C63.1344897,90.2146368 64.7113787,90.0766769 65.7690654,90.9641814 L68.0671987,92.8925442 C69.1248853,93.7800487 69.2628453,95.3569377 68.3753408,96.4146244 C67.4878363,97.472311 65.9109473,97.6102709 64.8532606,96.7227665 L62.5551273,94.7944036 C61.4974407,93.9068991 61.3594807,92.3300102 62.2469852,91.2723235 Z" fill="none"></path>
                    <path d="M57.2469852,96.2723235 C58.1344897,95.2146368 59.7113787,95.0766769 60.7690654,95.9641814 L63.0671987,97.8925442 C64.1248853,98.7800487 64.2628453,100.356938 63.3753408,101.414624 C62.4878363,102.472311 60.9109473,102.610271 59.8532606,101.722766 L57.5551273,99.7944036 C56.4974407,98.9068991 56.3594807,97.3300102 57.2469852,96.2723235 Z" fill="none"></path>
                    <rect fill="none" transform="translate(117.311163, 13.843474) rotate(-50.000000) translate(-117.311163, -13.843474) " x="114.811163" y="10.8434739" width="5" height="6" rx="2.5"></rect>
                    <rect fill="none" transform="translate(111.928141, 9.522080) rotate(-50.000000) translate(-111.928141, -9.522080) " x="109.428141" y="7.02208013" width="5" height="5" rx="2.5"></rect>
                    <rect fill="none" transform="translate(123.694185, 17.164868) rotate(-50.000000) translate(-123.694185, -17.164868) " x="121.194185" y="14.6648677" width="5" height="5" rx="2.5"></rect>
                    <rect fill="none" transform="translate(121.632557, 8.460452) rotate(-50.000000) translate(-121.632557, -8.460452) " x="119.632557" y="5.46045172" width="4" height="6" rx="2"></rect>
                    <rect fill="none" transform="translate(108.694185, 14.164868) rotate(-50.000000) translate(-108.694185, -14.164868) " x="106.194185" y="11.6648677" width="5" height="5" rx="2.5"></rect>
                    <rect fill="none" transform="translate(104.311163, 9.843474) rotate(-50.000000) translate(-104.311163, -9.843474) " x="101.811163" y="6.84347394" width="5" height="6" rx="2.5"></rect>
                    <rect fill="none" transform="translate(107.311163, 3.843474) rotate(-50.000000) translate(-107.311163, -3.843474) " x="104.811163" y="0.843473937" width="5" height="6" rx="2.5"></rect>
                    <rect fill="none" transform="translate(115.311163, 3.843474) rotate(-50.000000) translate(-115.311163, -3.843474) " x="112.811163" y="0.843473937" width="5" height="6" rx="2.5"></rect>
                    <rect fill="none" transform="translate(77.668375, 36.609518) rotate(-50.000000) translate(-77.668375, -36.609518) " x="74.1683754" y="33.6095184" width="7" height="6" rx="3"></rect>
                    <rect fill="none" transform="translate(75.668375, 29.609518) rotate(-50.000000) translate(-75.668375, -29.609518) " x="72.1683754" y="26.6095184" width="7" height="6" rx="3"></rect>
                    <rect fill="none" transform="translate(70.668375, 36.609518) rotate(-50.000000) translate(-70.668375, -36.609518) " x="67.1683754" y="33.6095184" width="7" height="6" rx="3"></rect>
                    <rect fill="none" transform="translate(83.311163, 31.843474) rotate(-50.000000) translate(-83.311163, -31.843474) " x="80.811163" y="28.8434739" width="5" height="6" rx="2.5"></rect>
                    <rect fill="none" transform="translate(85.311163, 26.843474) rotate(-50.000000) translate(-85.311163, -26.843474) " x="82.811163" y="23.8434739" width="5" height="6" rx="2.5"></rect>
                    <rect fill="none" transform="translate(80.311163, 23.843474) rotate(-50.000000) translate(-80.311163, -23.843474) " x="77.811163" y="20.8434739" width="5" height="6" rx="2.5"></rect>
                    <rect fill="none" transform="translate(74.311163, 43.843474) rotate(-50.000000) translate(-74.311163, -43.843474) " x="71.811163" y="40.8434739" width="5" height="6" rx="2.5"></rect>
                    <path d="M40.2469852,120.272323 C41.1344897,119.214637 42.7113787,119.076677 43.7690654,119.964181 L46.0671987,121.892544 C47.1248853,122.780049 47.2628453,124.356938 46.3753408,125.414624 C45.4878363,126.472311 43.9109473,126.610271 42.8532606,125.722766 L40.5551273,123.794404 C39.4974407,122.906899 39.3594807,121.33001 40.2469852,120.272323 Z" fill="none"></path>
                    <rect fill="none" transform="translate(83.928141, 69.022080) rotate(-50.000000) translate(-83.928141, -69.022080) " x="80.9281408" y="65.5220801" width="6" height="7" rx="3"></rect>
                    <path d="M34.863963,124.95093 C35.9289684,123.681706 37.8212352,123.516154 39.0904592,124.581159 L40.622548,125.866734 C41.891772,126.93174 42.0573239,128.824007 40.9923186,130.093231 C39.9273132,131.362455 38.0350464,131.528006 36.7658224,130.463001 L35.2337335,129.177426 C33.9645095,128.11242 33.7989576,126.220154 34.863963,124.95093 Z" fill="none"></path>
                    <rect fill="#FFFFFF" fill-rule="evenodd" transform="translate(106.232775, 50.982333) rotate(-50.000000) translate(-106.232775, -50.982333) " x="103.732775" y="47.4823326" width="5" height="7" rx="2.5"></rect>
                    <rect fill="#FFFFFF" fill-rule="evenodd" transform="translate(111.232775, 58.982333) rotate(-50.000000) translate(-111.232775, -58.982333) " x="108.732775" y="55.4823326" width="5" height="7" rx="2.5"></rect>
                    <path d="M99.0806386,54.7354692 C100.101506,53.5536144 101.877324,53.3983147 103.087838,54.3850297 L104.566347,55.5901937 C105.733156,56.5412842 105.908031,58.2581811 104.95694,59.4249902 C104.940552,59.4450954 104.923878,59.4649658 104.906922,59.484595 C103.886055,60.6664498 102.110237,60.8217496 100.899723,59.8350345 L99.4212136,58.6298706 C98.2544044,57.6787801 98.07953,55.9618832 99.0306205,54.7950741 C99.0470087,54.7749688 99.0636831,54.7550985 99.0806386,54.7354692 Z" fill="#FFFFFF" fill-rule="evenodd"></path>
                    <path d="M104.080639,61.7354692 C105.101506,60.5536144 106.877324,60.3983147 108.087838,61.3850297 L109.566347,62.5901937 C110.733156,63.5412842 110.908031,65.2581811 109.95694,66.4249902 C109.940552,66.4450954 109.923878,66.4649658 109.906922,66.484595 C108.886055,67.6664498 107.110237,67.8217496 105.899723,66.8350345 L104.421214,65.6298706 C103.254404,64.6787801 103.07953,62.9618832 104.03062,61.7950741 C104.047009,61.7749688 104.063683,61.7550985 104.080639,61.7354692 Z" fill="#FFFFFF" fill-rule="evenodd"></path>
                    <path d="M94.3270927,60.2767154 C95.3479597,59.0948605 97.1237784,58.9395608 98.3342921,59.9262759 L99.8128015,61.1314398 C100.979611,62.0825303 101.154485,63.7994272 100.203395,64.9662363 C100.187006,64.9863416 100.170332,65.0062119 100.153377,65.0258412 C99.1325096,66.207696 97.3566908,66.3629957 96.1461771,65.3762807 L94.6676677,64.1711167 C93.5008586,63.2200262 93.3259841,61.5031293 94.2770746,60.3363202 C94.2934629,60.316215 94.3101372,60.2963446 94.3270927,60.2767154 Z" fill="#FFFFFF" fill-rule="evenodd"></path>
                    <path d="M98.3270927,67.2767154 C99.3479597,66.0948605 101.123778,65.9395608 102.334292,66.9262759 L103.812802,68.1314398 C104.979611,69.0825303 105.154485,70.7994272 104.203395,71.9662363 C104.187006,71.9863416 104.170332,72.0062119 104.153377,72.0258412 C103.13251,73.207696 101.356691,73.3629957 100.146177,72.3762807 L98.6676677,71.1711167 C97.5008586,70.2200262 97.3259841,68.5031293 98.2770746,67.3363202 C98.2934629,67.316215 98.3101372,67.2963446 98.3270927,67.2767154 Z" fill="#FFFFFF" fill-rule="evenodd"></path>
                    <path d="M89.5735468,66.7415025 C90.5944138,65.5596477 92.3702325,65.404348 93.5807463,66.3910631 L95.0592557,67.596227 C96.2260648,68.5473175 96.4009393,70.2642144 95.4498487,71.4310235 C95.4334605,71.4511288 95.4167861,71.4709991 95.3998307,71.4906284 C94.3789637,72.6724832 92.603145,72.8277829 91.3926312,71.8410678 L89.9141218,70.6359039 C88.7473127,69.6848134 88.5724383,67.9679165 89.5235288,66.8011074 C89.539917,66.7810021 89.5565914,66.7611318 89.5735468,66.7415025 Z" fill="#FFFFFF" fill-rule="evenodd"></path>
                    <path d="M93.5735468,72.7415025 C94.5944138,71.5596477 96.3702325,71.404348 97.5807463,72.3910631 L99.0592557,73.596227 C100.226065,74.5473175 100.400939,76.2642144 99.4498487,77.4310235 C99.4334605,77.4511288 99.4167861,77.4709991 99.3998307,77.4906284 C98.3789637,78.6724832 96.603145,78.8277829 95.3926312,77.8410678 L93.9141218,76.6359039 C92.7473127,75.6848134 92.5724383,73.9679165 93.5235288,72.8011074 C93.539917,72.7810021 93.5565914,72.7611318 93.5735468,72.7415025 Z" fill="#FFFFFF" fill-rule="evenodd"></path>
                    <rect fill="#FFFFFF" fill-rule="evenodd" transform="translate(83.732775, 81.482333) rotate(-50.000000) translate(-83.732775, -81.482333) " x="80.7327752" y="77.4823326" width="6" height="8" rx="3"></rect>
                    <rect fill="#FFFFFF" fill-rule="evenodd" transform="translate(88.732775, 87.482333) rotate(-50.000000) translate(-88.732775, -87.482333) " x="85.7327752" y="83.4823326" width="6" height="8" rx="3"></rect>
                    <path d="M76.5186463,86.5898705 L76.8308184,86.2441802 C77.8849355,85.0768816 79.66161,84.9218546 80.901967,85.8889446 L82.8138992,87.3796529 C84.120531,88.3984165 84.3538943,90.2835219 83.3351307,91.5901538 C83.2906945,91.6471462 83.2442134,91.7025143 83.1957785,91.7561497 L82.8836064,92.1018401 C81.8294893,93.2691387 80.0528148,93.4241657 78.8124577,92.4570756 L76.9005256,90.9663674 C75.5938938,89.9476038 75.3605305,88.0624983 76.379294,86.7558665 C76.4237303,86.6988741 76.4702113,86.643506 76.5186463,86.5898705 Z" fill="#FFFFFF" fill-rule="evenodd"></path>
                    <path d="M82.3238965,92.8547076 L82.5281981,92.5781949 C83.3940557,91.4062971 85.0459827,91.1582024 86.2178805,92.02406 C86.3063109,92.0893968 86.3905704,92.1601977 86.4701662,92.2360485 L87.8351179,93.53678 C88.9298846,94.5800385 89.0770031,96.275034 88.1783548,97.4913126 L87.9740532,97.7678254 C87.1081956,98.9397232 85.4562685,99.1878178 84.2843707,98.3219603 C84.1959404,98.2566235 84.1116809,98.1858225 84.0320851,98.1099717 L82.6671334,96.8092402 C81.5723667,95.7659817 81.4252482,94.0709862 82.3238965,92.8547076 Z" fill="#FFFFFF" fill-rule="evenodd"></path>
                    <rect fill="#FFFFFF" fill-rule="evenodd" transform="translate(114.849753, 38.660939) rotate(-50.000000) translate(-114.849753, -38.660939) " x="112.349753" y="35.6609388" width="5" height="6" rx="2.5"></rect>
                    <rect fill="#FFFFFF" fill-rule="evenodd" transform="translate(121.849753, 38.660939) rotate(-50.000000) translate(-121.849753, -38.660939) " x="119.349753" y="35.6609388" width="5" height="6" rx="2.5"></rect>
                    <rect fill="#FFFFFF" fill-rule="evenodd" transform="translate(118.849753, 45.660939) rotate(-50.000000) translate(-118.849753, -45.660939) " x="116.349753" y="42.6609388" width="5" height="6" rx="2.5"></rect>
                    <rect fill="#FFFFFF" fill-rule="evenodd" transform="translate(111.232775, 44.982333) rotate(-50.000000) translate(-111.232775, -44.982333) " x="108.732775" y="41.4823326" width="5" height="7" rx="2.5"></rect>
                    <rect fill="#FFFFFF" fill-rule="evenodd" transform="translate(115.232775, 52.982333) rotate(-50.000000) translate(-115.232775, -52.982333) " x="112.732775" y="49.4823326" width="5" height="7" rx="2.5"></rect>
                    <rect fill="#FFFFFF" fill-rule="evenodd" transform="translate(55.232775, 66.982333) rotate(-50.000000) translate(-55.232775, -66.982333) " x="52.7327752" y="63.4823326" width="5" height="7" rx="2.5"></rect>
                    <rect fill="#FFFFFF" fill-rule="evenodd" transform="translate(49.232775, 61.982333) rotate(-71.000000) translate(-49.232775, -61.982333) " x="46.7327752" y="58.4823326" width="5" height="7" rx="2.5"></rect>
                    <rect fill="#FFFFFF" fill-rule="evenodd" transform="translate(59.232775, 59.982333) rotate(-50.000000) translate(-59.232775, -59.982333) " x="56.7327752" y="56.4823326" width="5" height="7" rx="2.5"></rect>
                    <rect fill="#FFFFFF" fill-rule="evenodd" transform="translate(52.232775, 56.982333) rotate(-66.000000) translate(-52.232775, -56.982333) " x="49.7327752" y="53.4823326" width="5" height="7" rx="2.5"></rect>
                    <rect fill="#FFFFFF" fill-rule="evenodd" transform="translate(57.232775, 51.982333) rotate(-66.000000) translate(-57.232775, -51.982333) " x="54.7327752" y="48.4823326" width="5" height="7" rx="2.5"></rect>
                    <rect fill="#FFFFFF" fill-rule="evenodd" transform="translate(62.232775, 46.982333) rotate(-66.000000) translate(-62.232775, -46.982333) " x="59.7327752" y="43.4823326" width="5" height="7" rx="2.5"></rect>
                    <rect fill="#FFFFFF" fill-rule="evenodd" transform="translate(67.232775, 41.982333) rotate(-66.000000) translate(-67.232775, -41.982333) " x="64.7327752" y="38.4823326" width="5" height="7" rx="2.5"></rect>
                    <rect fill="#FFFFFF" fill-rule="evenodd" transform="translate(64.232775, 53.982333) rotate(-50.000000) translate(-64.232775, -53.982333) " x="61.7327752" y="50.4823326" width="5" height="7" rx="2.5"></rect>
                    <path d="M71.9019761,93.1653512 C72.9120381,92.0433924 74.6181216,91.8944926 75.8072717,92.8245133 L77.9966805,94.5368248 C79.0848397,95.3878617 79.2770653,96.9598907 78.4260285,98.0480498 C78.3904606,98.0935278 78.3533289,98.1377608 78.3147,98.1806691 C77.304638,99.3026278 75.5985545,99.4515277 74.4094043,98.5215069 L72.2199956,96.8091954 C71.1318364,95.9581586 70.9396108,94.3861296 71.7906476,93.2979704 C71.8262154,93.2524924 71.8633472,93.2082595 71.9019761,93.1653512 Z" fill="#FFFFFF" fill-rule="evenodd"></path>
                    <path d="M78.2855752,100.089788 C79.3505806,98.8205643 81.2428474,98.6550124 82.5120714,99.7200178 L84.8102047,101.648381 C86.0794287,102.713386 86.2449806,104.605653 85.1799752,105.874877 C84.1149698,107.144101 82.222703,107.309653 80.953479,106.244647 L78.6553457,104.316284 C77.3861217,103.251279 77.2205698,101.359012 78.2855752,100.089788 Z" fill="#FFFFFF" fill-rule="evenodd"></path>
                    <path d="M53.7226123,116.94398 C54.6346399,115.943423 56.161873,115.810257 57.2333064,116.637868 L59.2119182,118.166213 C60.1772795,118.91189 60.3553688,120.298961 59.6096917,121.264322 C59.5730346,121.311779 59.53446,121.357723 59.4940638,121.40204 C58.5820361,122.402597 57.0548031,122.535763 55.9833697,121.708153 L54.0047578,120.179807 C53.0393965,119.43413 52.8613073,118.04706 53.6069843,117.081698 C53.6436415,117.034242 53.6822161,116.988297 53.7226123,116.94398 Z" fill="#FFFFFF" fill-rule="evenodd"></path>
                    <path d="M59.2855752,121.089788 C60.3505806,119.820564 62.2428474,119.655012 63.5120714,120.720018 L65.8102047,122.648381 C67.0794287,123.713386 67.2449806,125.605653 66.1799752,126.874877 C65.1149698,128.144101 63.222703,128.309653 61.953479,127.244647 L59.6553457,125.316284 C58.3861217,124.251279 58.2205698,122.359012 59.2855752,121.089788 Z" fill="#FFFFFF" fill-rule="evenodd"></path>
                    <path d="M56.2855752,125.089788 C57.3505806,123.820564 59.2428474,123.655012 60.5120714,124.720018 L62.8102047,126.648381 C64.0794287,127.713386 64.2449806,129.605653 63.1799752,130.874877 C62.1149698,132.144101 60.222703,132.309653 58.953479,131.244647 L56.6553457,129.316284 C55.3861217,128.251279 55.2205698,126.359012 56.2855752,125.089788 Z" fill="#FFFFFF" fill-rule="evenodd"></path>
                    <path d="M56.863963,109.95093 C57.9289684,108.681706 59.8212352,108.516154 61.0904592,109.581159 L62.622548,110.866734 C63.891772,111.93174 64.0573239,113.824007 62.9923186,115.093231 C61.9273132,116.362455 60.0350464,116.528006 58.7658224,115.463001 L57.2337335,114.177426 C55.9645095,113.11242 55.7989576,111.220154 56.863963,109.95093 Z" fill="#FFFFFF" fill-rule="evenodd"></path>
                    <path d="M62.863963,114.95093 C63.9289684,113.681706 65.8212352,113.516154 67.0904592,114.581159 L68.622548,115.866734 C69.891772,116.93174 70.0573239,118.824007 68.9923186,120.093231 C67.9273132,121.362455 66.0350464,121.528006 64.7658224,120.463001 L63.2337335,119.177426 C61.9645095,118.11242 61.7989576,116.220154 62.863963,114.95093 Z" fill="#FFFFFF" fill-rule="evenodd"></path>
                    <path d="M48.863963,121.95093 C49.9289684,120.681706 51.8212352,120.516154 53.0904592,121.581159 L54.622548,122.866734 C55.891772,123.93174 56.0573239,125.824007 54.9923186,127.093231 C53.9273132,128.362455 52.0350464,128.528006 50.7658224,127.463001 L49.2337335,126.177426 C47.9645095,125.11242 47.7989576,123.220154 48.863963,121.95093 Z" fill="#FFFFFF" fill-rule="evenodd"></path>
                    <path d="M66.2469852,98.2723235 C67.1344897,97.2146368 68.7113787,97.0766769 69.7690654,97.9641814 L72.0671987,99.8925442 C73.1248853,100.780049 73.2628453,102.356938 72.3753408,103.414624 C71.4878363,104.472311 69.9109473,104.610271 68.8532606,103.722766 L66.5551273,101.794404 C65.4974407,100.906899 65.3594807,99.3300102 66.2469852,98.2723235 Z" fill="none"></path>
                    <path d="M71.2469852,105.272323 C72.1344897,104.214637 73.7113787,104.076677 74.7690654,104.964181 L77.0671987,106.892544 C78.1248853,107.780049 78.2628453,109.356938 77.3753408,110.414624 C76.4878363,111.472311 74.9109473,111.610271 73.8532606,110.722766 L71.5551273,108.794404 C70.4974407,107.906899 70.3594807,106.33001 71.2469852,105.272323 Z" fill="none"></path>
                    <path d="M61.2469852,103.272323 C62.1344897,102.214637 63.7113787,102.076677 64.7690654,102.964181 L67.0671987,104.892544 C68.1248853,105.780049 68.2628453,107.356938 67.3753408,108.414624 C66.4878363,109.472311 64.9109473,109.610271 63.8532606,108.722766 L61.5551273,106.794404 C60.4974407,105.906899 60.3594807,104.33001 61.2469852,103.272323 Z" fill="none"></path>
                    <path d="M66.2469852,109.272323 C67.1344897,108.214637 68.7113787,108.076677 69.7690654,108.964181 L72.0671987,110.892544 C73.1248853,111.780049 73.2628453,113.356938 72.3753408,114.414624 C71.4878363,115.472311 69.9109473,115.610271 68.8532606,114.722766 L66.5551273,112.794404 C65.4974407,111.906899 65.3594807,110.33001 66.2469852,109.272323 Z" fill="none"></path>
                    <path d="M44.0160971,128.064746 C44.7464528,127.158472 46.0732039,127.015861 46.9794785,127.746217 C47.001228,127.763745 47.0226268,127.781703 47.0436624,127.800081 L48.9885319,129.499275 C49.9110522,130.305263 50.032615,131.695849 49.2639353,132.649678 C48.5335796,133.555953 47.2068286,133.698563 46.3005539,132.968208 C46.2788044,132.95068 46.2574056,132.932722 46.23637,132.914343 L44.2915005,131.21515 C43.3689802,130.409162 43.2474174,129.018576 44.0160971,128.064746 Z" fill="none"></path>
                    <rect fill="none" transform="translate(87.928141, 76.022080) rotate(-50.000000) translate(-87.928141, -76.022080) " x="84.9281408" y="72.5220801" width="6" height="7" rx="3"></rect>
                    <rect fill="none" transform="translate(92.928141, 82.022080) rotate(-50.000000) translate(-92.928141, -82.022080) " x="89.9281408" y="78.5220801" width="6" height="7" rx="3"></rect>
                    <path d="M29.8965909,131.108074 L29.9714867,131.005367 C30.7479182,129.940619 32.2404895,129.706892 33.305238,130.483323 C33.3938294,130.547926 33.4778626,130.618558 33.55674,130.694717 L35.4776787,132.549463 C36.5550541,133.589713 36.7002275,135.265177 35.8178338,136.475236 L35.7429381,136.577943 C34.9665066,137.642691 33.4739353,137.876418 32.4091868,137.099987 C32.3205953,137.035384 32.2365622,136.964752 32.1576848,136.888593 L30.2367461,135.033847 C29.1593707,133.993597 29.0141973,132.318133 29.8965909,131.108074 Z" fill="none"></path>
                    <path d="M36.5635449,137.862091 L36.612759,137.783996 C37.135747,136.954102 38.2324745,136.705306 39.0623683,137.228294 C39.2020446,137.316316 39.3287662,137.423383 39.4388734,137.546402 L40.8482069,139.121007 C41.7414263,140.118974 41.8649393,141.588127 41.1508799,142.721219 L41.1016657,142.799314 C40.5786777,143.629208 39.4819503,143.878004 38.6520565,143.355016 C38.5123802,143.266994 38.3856586,143.159927 38.2755514,143.036908 L36.8662179,141.462303 C35.9729985,140.464336 35.8494854,138.995183 36.5635449,137.862091 Z" fill="none"></path>
                    <path d="M38.6714112,132.679393 L38.9714867,132.226738 C39.6783211,131.1605 41.1156804,130.869146 42.1819186,131.57598 C42.3301557,131.67425 42.4665814,131.789266 42.5884992,131.918754 L44.7267606,134.189792 C45.6818519,135.204191 45.8128492,136.742643 45.0430135,137.903917 L44.7429381,138.356571 C44.0361037,139.42281 42.5987444,139.714164 41.5325062,139.00733 C41.3842691,138.90906 41.2478433,138.794044 41.1259255,138.664555 L38.9876642,136.393518 C38.0325729,135.379119 37.9015756,133.840667 38.6714112,132.679393 Z" fill="none"></path>
                    <rect fill="none" transform="translate(118.311163, 33.843474) rotate(-50.000000) translate(-118.311163, -33.843474) " x="115.811163" y="30.8434739" width="5" height="6" rx="2.5"></rect>
                </g>
            </g>
        </g>
        <path d="M71.4131232,215.349561 C90.1908047,215.349561 109.193539,205.485232 144.40012,154.217722 C156.072569,137.220407 167.179175,116.897236 176.402313,103.217288 C178.086906,100.718664 176.136607,98.0949514 177.979095,96.1286166 C179.728335,94.2617969 181.256627,93.9731785 182.110011,92.5561975 C183.015339,91.0529683 183.212865,88.4311896 183.971386,86.7537681 C184.786994,84.9501039 187.228981,82.0886636 187.948827,80.3684211 C188.974943,77.9162697 189.130447,74.5422126 189.857581,72.3062086 C190.7049,69.7006266 192.025429,67.827997 192.495594,65.5557979 C192.840333,63.8897521 192.393463,61.3188069 192.495594,59.7905301 C192.714759,56.510952 190.62237,53.3550061 189.857581,50.855642 C188.734919,47.1867277 188.321139,44.5323655 184.612542,41.6923756 C181.733547,39.4876827 179.203919,39.1870174 174.963416,40.3628895 C173.846785,40.6725261 171.929583,41.2092545 170.666446,41.6923756 C169.426496,42.1666279 167.389892,41.9693483 166.063912,42.6653733 C165.362532,43.0335375 164.337987,45.2432625 163.619181,45.6419546 C162.211113,46.4229524 160.682789,45.5607001 159.222925,46.5366718 C157.779188,47.5018614 156.887697,49.7594943 155.381944,50.855642 C154.041063,51.8317681 151.81374,51.1226848 150.451836,52.2328023 C149.231259,53.2277218 149.371622,55.8918514 148.118866,56.9635254 C146.528788,58.3237621 144.453881,58.2879378 142.828746,59.7905301 C141.567149,60.9569964 141.678688,62.6798105 140.405027,63.9114544 C139.333933,64.9472144 136.411873,65.2104496 135.331435,66.2849771 C134.236985,67.3734403 134.233855,69.4962639 133.139738,70.6219589 C132.287219,71.4990825 129.838904,71.4117835 128.985757,72.3062086 C127.965369,73.3759656 126.59218,76.0893358 125.578995,77.1833694 C124.995842,77.8130549 120.116154,79.0247693 119.536442,79.6592421 C97.4661355,103.814355 82.3376462,130.588323 77,140.5 C65.9666429,160.988259 52.6354417,215.349561 71.4131232,215.349561 Z" id="Oval" stroke="#89C3EA" stroke-width="5"></path>
        <path d="M163.879154,118.190088 C166.778856,113.833974 169.193911,108.838956 174.30229,105.37591 C179.403207,101.917922 187.196166,99.9913095 191.84993,96.4567979 C193.639161,95.0978856 194.700258,92.481653 195.03322,88.6081002 C196.594212,91.0614879 196.086709,95.9708104 193.510713,103.336068 C189.64672,114.383954 183.290147,112.641835 178.933293,118.190088 C175.029792,123.161018 174.064881,130.369191 172.200028,133.370197 C168.747639,138.925937 163.093697,141.651477 159.046678,146.355825 C157.106023,148.611687 154.675962,152.576734 151.756495,158.250967 L123.060135,169.613095 C131.449272,158.85111 137.494871,151.098687 141.196932,146.355825 C150.108737,134.938547 158.711456,125.953328 163.879154,118.190088 Z" id="Rectangle" stroke="#5563B6" stroke-width="5" fill="#FFFFFF" stroke-linejoin="round"></path>
        <path d="M109.233432,55.7320019 C111.926548,58.5171874 114.653527,61.791786 117.414368,65.5557979 C111.890879,64.58198 107.860718,64.0477551 105.323883,63.9531233 C101.20002,63.7992904 97.8323684,65.5557979 94.1264786,64.6109964 C89.2868657,63.3771568 85.3682879,60.7747478 86.5199962,51.346063 C86.7596049,49.3844601 88.2955326,53.8665625 93.2239365,54.9801238 C99.1230972,56.3130253 105.664589,52.04115 109.233432,55.7320019 Z" id="Rectangle" stroke="#5563B6" stroke-width="5" fill="#FFFFFF" stroke-linejoin="round"></path>
        <path d="M103.704472,64.0405464 C104.209418,63.2819842 108.198508,62.0635135 111.931384,62.7766279 C114.961613,63.3555114 117.757101,65.5458738 118.910269,67.5787882 C120.588572,70.5374626 120.303556,76.9439937 118.055219,86.7983814 C103.459688,103.758389 97.0263662,108.68921 98.7552534,101.590842 C99.3627272,99.0967108 104.829008,90.2124797 105.980717,80.7837949 C106.50713,76.4742086 106.901946,70.7951229 105.980717,67.5787882 C105.311296,65.2416051 103.15381,64.8677849 103.704472,64.0405464 Z" id="Rectangle" stroke="#5563B6" stroke-width="5" fill="#FFFFFF" stroke-linejoin="round"></path>
        <path d="M130.066962,79.6592421 C122.487782,84.624301 116.820851,89.9125497 113.06617,95.5239881 C110.002064,100.103349 110.110604,107.162941 106.419117,113.142801 C102.920779,118.809776 97.9543299,123.639405 92.9381163,130.931397 C85.2763004,142.069261 73.956727,158.02166 67.2724759,173.63264 C60.5882248,189.243619 63.975442,191.748338 62.2851311,198.91542 C61.8410806,200.798237 61.2754451,200.365825 60.5882248,197.618183 L60.5882248,153.026905 C64.3582962,147.012211 67.1269608,142.642047 68.8942188,139.916412 C71.9848417,135.149756 73.420419,137.574435 76.1908555,133.573631 C79.5359922,128.742899 82.3971407,121.916962 85.6369431,116.556547 C89.0898764,110.843496 92.891261,106.664929 95.4287042,103.974684 C99.878826,99.25658 104.201578,94.4248361 110.28259,90.1494458 C114.046043,87.5034663 120.640834,84.0067318 130.066962,79.6592421 Z" id="Rectangle" stroke="#5563B6" stroke-width="5" fill="#FFFFFF" stroke-linejoin="round"></path>
        <path d="M59.7237344,175.470073 C62.624924,184.230979 61.6679978,187.39501 62.2851311,191.010475 C62.5822993,192.751429 64.0833546,194.313714 64.9666429,197.358458 C69.2852424,212.244915 67.5376062,217.802653 59.7237344,214.031674 L51.2301341,202.517956 C49.5999103,194.159565 50.0803068,184.531126 52.6713236,173.63264 C52.9745791,172.357069 54.3091993,166.552327 55.2900319,166.168063 C56.8264337,165.566142 58.2969863,171.161632 59.7237344,175.470073 Z" id="Rectangle" stroke="#5563B6" stroke-width="5" fill="#FFFFFF" stroke-linejoin="round"></path>
        <path d="M52.6713236,173.63264 C52.2947559,182.701611 52.790518,188.948246 54.1586098,192.372545 C57.6420767,201.091574 64.7975063,202.75608 67,209.04892 C70.5,219.04892 71.3081839,226.50037 69.4245517,231.403272 L51.7050433,220.592146 C47.2858641,213.719126 45.1496184,206.718231 45.2963063,199.589458 C45.3499501,196.982466 46.8391547,194.114611 47.4475437,190.607469 C48.0753156,186.988592 47.842221,182.716747 49.1939069,179.172345 C49.8075073,177.563357 50.9666462,175.716788 52.6713236,173.63264 Z" id="Rectangle" stroke="#5563B6" stroke-width="5" fill="#FFFFFF" stroke-linejoin="round"></path>
        <path d="M61.7955247,180.381992 C60.5835998,183.172325 59.1533004,163.502362 47.9156525,171.528975 C46.357688,172.641768 43.1599872,175.742214 41.5786045,180.103423 C40.2188693,183.853362 40.642885,188.556716 37.5316746,193.484046 C36.3123084,195.415198 32.9911838,197.816013 30.6430858,201.246593 C28.775666,203.9749 28.1396178,207.546285 25.243556,210.673959 C24.1052349,211.903317 21.9821316,213.403645 18.8742461,215.174941 C21.5971966,211.241385 23.2786367,208.304554 23.9185665,206.364449 C25.9301909,200.265713 25.6221359,194.735952 26.6553098,191.722932 C28.5002917,186.342456 32.8778066,184.00143 34.3273335,180.103423 C36.9555878,173.03563 36.2035279,166.106521 37.5316746,163.912527 C41.9859659,156.554388 55.0633369,140.386628 63.1952872,147.24842 C65.9600585,149.581352 62.6220689,155.241916 62.2851311,159.736257 C61.6310425,168.461005 62.9484903,177.727407 61.7955247,180.381992 Z" id="Rectangle" stroke="#5563B6" stroke-width="5" fill="#FFFFFF" stroke-linejoin="round"></path>
        <path d="M195.03322,169.900204 C191.316772,168.573105 188.641558,166.766545 187.007579,164.480524 C183.601304,159.714971 184.006535,149.5 179.412641,149.5 C174.818746,149.5 163.891725,151.409543 156.913408,156.614086 C154.409068,158.481863 153.219436,162.321848 150.762688,164.480524 C147.235482,167.579783 142.891028,170.058286 139.910265,173.63264 C133.112135,181.784555 129.156993,193.207534 125.288008,195.200218 C118.200065,198.850796 112.074427,207.374869 101.649026,212.964961 C94.623029,216.732294 81.5017308,222.073053 62.2851311,228.987238 C65.8472085,221.163535 68.7358293,215.822776 70.9509934,212.964961 C72.3082068,211.214 73.0283241,205.385094 79.8089688,200.366035 C85.6275069,196.059132 97.1011652,192.908331 103.700593,187.07258 C110.738298,180.849269 113.286822,171.734309 121.634866,166.878063 C140.778406,155.741835 158.103688,154.56066 161.928614,154.56066 C172.552852,154.56066 175.153052,167.528985 181.74262,169.900204 C186.354008,171.559586 190.784208,171.559586 195.03322,169.900204 Z" id="Rectangle" stroke="#5563B6" stroke-width="5" fill="#FFFFFF" stroke-linejoin="round"></path>
        <path d="M125.288008,195.200218 C122.573886,199.272605 120.558979,202.375231 119.243289,204.508095 C116.140889,209.537392 113.420991,214.930621 107.903641,219.269052 C104.367246,222.049808 98.661433,224.471008 94.3262609,226.927073 C91.6411924,228.448282 90.5208354,230.200713 87.6343705,231.403272 C84.7348243,232.611282 80.202908,233.976492 74.0386218,235.498903 L60.5882248,230.379351 C63.6248109,227.956362 65.8597072,226.059355 67.2929136,224.688329 C71.5708131,220.596027 74.08246,216.764511 80.6921744,213.170619 C86.0330943,210.266607 94.2678264,211.448276 102.797062,208.556434 C107.903641,206.825045 110.535144,200.728257 117.53622,198.30655 C120.14983,197.402489 122.733759,196.367045 125.288008,195.200218 Z" id="Rectangle" stroke="#5563B6" stroke-width="5" fill="#FFFFFF" stroke-linejoin="round"></path>
        <path d="M50.4165744,218.105603 C56.4791607,222.303552 61.3291836,225.236234 64.9666429,226.903649 C68.6041023,228.571065 74.4438021,230.538564 82.4857422,232.806146 C77.0221697,236.886559 73.7287455,239.675255 72.6054697,241.172237 C71.4821939,242.669218 70.2765557,243.031242 68.988555,242.258309 C65.7092731,239.323736 62.7782757,237.227546 60.1955627,235.969739 C57.6128496,234.711933 53.36351,233.094827 47.4475437,231.118421 C47.7708685,229.134433 48.078514,227.729509 48.3704802,226.903649 C49.0300986,225.037844 50.1428465,223.563044 50.4165744,222.363336 C50.8720423,220.367088 50.8720423,218.947844 50.4165744,218.105603 Z" id="Rectangle" stroke="#5563B6" stroke-width="5" fill="#FFFFFF" stroke-linejoin="round"></path>
        <g id="Group" transform="translate(334.500000, 137.500000) scale(-1, 1) translate(-334.500000, -137.500000) translate(205.000000, 24.000000)" stroke-linecap="round">
            <line x1="234.25" y1="0.315789474" x2="234.25" y2="11.6842105" id="Line-16" stroke="#ACD3EF" stroke-width="3"></line>
            <line x1="239.676471" y1="6.25" x2="229.323529" y2="6.25" id="Line-16" stroke="#ACD3EF" stroke-width="3"></line>
            <line x1="124" y1="5.86842105" x2="124" y2="12.8684211" id="Line-16" stroke="#5563B6" stroke-width="2"></line>
            <line x1="127.823529" y1="9.11842105" x2="120.823529" y2="9.11842105" id="Line-16" stroke="#5563B6" stroke-width="2"></line>
            <line x1="180" y1="52.8684211" x2="180" y2="59.8684211" id="Line-16" stroke="#5563B6" stroke-width="2"></line>
            <line x1="183.823529" y1="56.1184211" x2="176.823529" y2="56.1184211" id="Line-16" stroke="#5563B6" stroke-width="2"></line>
            <line x1="5.25" y1="13.3157895" x2="5.25" y2="24.6842105" id="Line-16" stroke="#ACD3EF" stroke-width="3"></line>
            <line x1="10.6764706" y1="19.25" x2="0.323529412" y2="19.25" id="Line-16" stroke="#ACD3EF" stroke-width="3"></line>
            <line x1="165.25" y1="166.315789" x2="165.25" y2="177.684211" id="Line-16" stroke="#ACD3EF" stroke-width="3"></line>
            <line x1="170.676471" y1="172.25" x2="160.323529" y2="172.25" id="Line-16" stroke="#ACD3EF" stroke-width="3"></line>
            <line x1="94.5" y1="177.5" x2="94.5" y2="184.5" id="Line-16" stroke="#5563B6" stroke-width="2"></line>
            <line x1="98.3235294" y1="180.75" x2="91.3235294" y2="180.75" id="Line-16" stroke="#5563B6" stroke-width="2"></line>
            <line x1="255" y1="203.868421" x2="255" y2="210.868421" id="Line-16" stroke="#5563B6" stroke-width="2"></line>
            <line x1="258.823529" y1="207.118421" x2="251.823529" y2="207.118421" id="Line-16" stroke="#5563B6" stroke-width="2"></line>
            <line x1="37" y1="219.868421" x2="37" y2="226.868421" id="Line-16" stroke="#5563B6" stroke-width="2"></line>
            <line x1="40.8235294" y1="223.118421" x2="33.8235294" y2="223.118421" id="Line-16" stroke="#5563B6" stroke-width="2"></line>
            <line x1="58.25" y1="129.315789" x2="58.25" y2="140.684211" id="Line-16" stroke="#ACD3EF" stroke-width="3"></line>
            <line x1="63.6764706" y1="135.25" x2="53.3235294" y2="135.25" id="Line-16" stroke="#ACD3EF" stroke-width="3"></line>
        </g>
        <path d="M237.311334,152.866006 C238.184129,150.844234 238.567947,144.91953 238.721298,138.817073 L238.745377,137.769891 L238.745377,137.769891 L238.76523,136.723397 C238.794959,134.982132 238.808285,133.261109 238.811259,131.647215 L238.811259,130.22598 C238.804987,126.679845 238.753412,123.838303 238.729895,122.75848 C238.725861,122.573063 238.722374,122.382869 238.716668,122.190367 L238.7061,121.900193 L238.7061,121.900193 L238.690132,121.608409 C238.577198,119.905244 238.082779,118.214453 235.354989,118.190088 C233.00841,118.169838 232.06033,120.450731 231.680127,123.089176 C231.49226,124.393361 231.399709,129.108607 231.315922,133.874012 L231.299792,134.796073 C231.230165,138.78656 231.162777,142.659803 231.046563,144.432949 C229.347057,142.541785 227.326323,139.808889 225.287973,136.945115 L224.731851,136.161375 C224.639167,136.030389 224.546504,135.899266 224.45389,135.768073 L223.899024,134.980606 C220.391496,129.994755 217.03728,125.100438 215.400977,123.96089 C212.381035,121.857641 210.48261,121.78969 208.383891,122.691175 C206.179039,123.637313 204.910294,126.216544 204.831018,128.005601 C204.729091,130.308497 204.453404,145.262922 204.66923,151.249093 C204.732974,153.014527 205.100558,155.940956 208.336326,155.96393 C211.033986,155.982697 211.464343,152.597437 211.601539,150.713249 C212.022189,144.93708 211.949708,135.447867 211.920263,131.999832 C213.159946,133.57913 215.859862,137.28551 218.701391,141.151693 L219.311977,141.98189 C222.778802,146.692073 226.315557,151.43069 227.561318,152.675419 C227.80188,152.915703 228.025245,153.167798 228.244424,153.421181 L228.506263,153.725186 C229.465083,154.837195 230.443662,155.892631 232.550548,155.994993 C234.373904,156.083653 236.379756,155.024263 237.311334,152.866006 Z M274.042388,139.622092 C274.999528,129.046956 266.707872,123.335501 260.442132,122.562476 C251.943387,121.514088 242.871265,127.002598 242.573251,137.447009 C242.302416,146.940752 248.803398,153.967546 258.062224,154.211523 C266.114433,154.424113 273.179085,149.161136 274.042388,139.622092 Z M256.350181,147.016793 C251.090117,146.042826 248.539361,141.386232 249.629168,136.691456 C250.895646,131.236923 254.7941,129.646543 259.028102,129.913818 C263.262105,130.181092 267.596739,133.62492 267.26022,138.931903 C266.87031,145.06886 261.16015,147.907599 256.350181,147.016793 Z M296.757145,153.752941 C298.094812,152.033939 301.18853,145.811072 304.045713,139.564867 L304.483145,138.604332 C307.165818,132.687353 309.543623,126.956177 309.915073,125.236765 C310.32278,123.349017 310.089481,120.977523 307.548756,120.342989 C305.538697,119.841121 303.610827,122.421646 302.516813,124.617115 C299.754115,130.16128 292.197949,147.144532 292.198273,147.144532 C289.735852,141.946595 286.932383,135.296121 284.535326,129.159487 C283.414132,126.290008 281.372363,122.110043 278.480233,123.598496 C276.815107,124.455327 276.092883,126.195847 276.759775,128.756957 C278.164098,134.148717 283.440665,146.980155 287.183478,152.897728 C288.390096,154.80586 289.919321,155.705727 291.709347,155.95747 C292.883931,156.122494 295.095579,155.888548 296.757145,153.752941 Z M320.483749,155.998549 C324.690248,155.944835 330.649238,155.293151 335.314245,154.218876 C336.782637,153.880738 338.530275,152.480946 338.373664,150.133719 C338.184695,147.301452 335.972077,146.475036 334.721129,146.507071 C331.066006,146.600261 321.037066,147.946017 321.037066,147.946017 L320.86913,140.69369 C320.86913,140.69369 323.95922,140.508493 327.001295,140.191135 L327.553172,140.131989 C329.019708,139.970446 330.430247,139.77859 331.427117,139.562466 C335.335277,138.715342 334.775166,132.107903 329.400232,132.152557 C326.845269,132.17359 321.013445,132.504609 321.013445,132.504609 L320.879484,127.479785 L320.914722,127.479264 C321.542516,127.46992 330.382692,127.335562 333.241735,127.137117 C335.650117,126.969828 338.373663,125.783595 337.913537,122.491201 C337.536246,119.791923 334.392698,119.208514 331.8798,119.169038 C329.063388,119.124708 321.998089,118.86261 317.56444,119.515912 C316.086664,119.733679 314.012213,121.753445 313.95397,124.111026 L313.848807,145.89001 C314.119964,152.709067 313.885694,156.083326 320.483749,155.998549 Z M376.903734,156.000097 C378.731295,155.981739 380.014601,154.537939 380.10682,152.396832 C380.199211,150.250511 380.236327,147.488227 380.240361,144.530545 L380.240361,143.590535 C380.239456,142.645011 380.235469,141.684416 380.229093,140.721994 L380.217824,139.278647 C380.15769,132.552083 379.997533,126.060485 379.975448,124.346606 C379.942767,121.833062 380.135943,118.201559 377.202072,118.12746 C374.308971,118.053685 372.475262,120.750374 370.884234,122.568228 C370.145855,123.412128 368.581636,125.135687 366.9945,126.873973 L366.580472,127.327204 C364.4441,129.664749 362.392932,131.892417 362.392932,131.892417 C362.392932,131.892417 362.383962,131.883514 362.366559,131.866233 L362.233131,131.733696 C362.150139,131.651237 362.036632,131.538425 361.896902,131.399469 L361.668176,131.171952 C361.008654,130.515759 359.963891,129.474931 358.808536,128.31884 L358.148795,127.658158 C358.000398,127.509427 357.851078,127.359685 357.701371,127.209456 L357.026889,126.531927 C355.305792,124.80116 353.639934,123.110526 352.845151,122.260183 C350.927635,120.208706 349.721017,118.432593 346.954436,118.265951 C344.615299,118.125519 343.576294,120.124576 343.458512,122.280245 C343.411917,123.131899 343.464499,128.31932 343.532571,133.727259 L343.544046,134.629919 C343.609718,139.748562 343.685061,144.859973 343.699577,146.497379 C343.730964,150.087788 344.216329,152.676402 346.824682,152.65537 C349.566348,152.632395 350.702102,150.483845 350.853536,148.139855 C350.899185,147.432745 350.918851,146.266257 350.921607,144.871079 L350.92114,143.944946 C350.907175,138.861765 350.71731,131.671414 350.71731,131.671414 C350.71731,131.671414 358.02238,139.949156 362.444704,140.0129 C366.447349,140.071144 371.073203,132.938217 372.790102,131.363045 C373.014664,133.369868 372.839286,151.550354 373.293588,153.09964 C373.76957,154.725938 374.848374,156.020245 376.903734,156.000097 Z M394.539437,155.852632 C404.559963,155.089638 412.179549,151.31835 412.01129,142.750684 C411.954664,139.869233 409.920013,134.7496 403.442653,134.600108 C403.442652,134.600107 408.437383,131.989813 407.371845,125.536074 C406.354843,119.377114 400.154464,118.068569 395.885839,118.245242 C392.506404,118.385027 387.261547,118.054978 385.872108,122.387995 C384.952827,125.253915 385.31588,146.60416 385.850752,151.422542 C386.385302,156.238012 389.603596,156.228305 394.539437,155.852632 Z M392.619979,132.062943 C392.6038,131.295742 392.478252,125.051034 392.478252,125.051034 C392.478252,125.051033 399.991059,122.731958 400.715871,126.549841 C401.691131,131.689211 394.500931,131.335542 392.619979,132.062943 Z M392.728701,148.997334 C392.465479,148.408152 392.411097,145.765948 392.406754,143.899032 L392.406618,143.450092 C392.408065,142.591062 392.418714,141.984778 392.418714,141.984778 C392.418714,141.984778 403.441034,137.361836 404.441534,143.009545 C405.03368,146.353065 396.01074,148.942973 392.728701,148.997334 Z M422.399749,155.998549 C426.606248,155.944835 432.565238,155.293151 437.230245,154.218876 C438.698637,153.880738 440.446275,152.480946 440.289664,150.133719 C440.100695,147.301452 437.888077,146.475036 436.637129,146.507071 C432.982006,146.600261 422.953066,147.946017 422.953066,147.946017 L422.78513,140.69369 C422.78513,140.69369 425.87522,140.508493 428.917295,140.191135 L429.469172,140.131989 C430.935708,139.970446 432.346247,139.77859 433.343117,139.562466 C437.251277,138.715342 436.691166,132.107903 431.316232,132.152557 C428.761269,132.17359 422.929445,132.504609 422.929445,132.504609 L422.795484,127.479785 L422.830722,127.479264 C423.458516,127.46992 432.298692,127.335562 435.157735,127.137117 C437.566117,126.969828 440.289663,125.783595 439.829537,122.491201 C439.452246,119.791923 436.308698,119.208514 433.7958,119.169038 C430.979388,119.124708 423.914089,118.86261 419.48044,119.515912 C418.002664,119.733679 415.928213,121.753445 415.86997,124.111026 L415.764807,145.89001 C416.035964,152.709067 415.801694,156.083326 422.399749,155.998549 Z M449.066738,156.000181 C450.765516,156.000181 452.275649,154.274546 452.469471,152.315289 C452.846115,148.50226 452.545189,145.322147 452.643556,142.373715 C456.337509,145.537651 458.854937,148.31491 463.423841,151.311878 C465.832224,152.891256 469.138855,154.666399 471.161857,153.330674 C474.224835,151.308319 472.245516,148.497083 470.790391,147.349033 C465.623193,143.272936 460.997015,139.467025 460.997015,139.467025 C460.997015,139.467025 469.010071,136.153599 469.111027,128.246029 C469.17283,123.426676 466.691967,118.384378 455.89971,118.42714 C452.601816,118.440357 447.600936,118.681098 446.402084,120.289599 C445.437701,121.583352 445.362438,128.419223 445.365028,132.867718 L445.365868,133.500755 C445.366875,134.012549 445.368451,134.483085 445.369124,134.897982 L445.369045,135.581599 C445.368857,135.65019 445.368598,135.716209 445.368256,135.779543 C445.345606,139.983129 445.345606,147.020925 445.472771,151.86584 C445.517101,153.559765 446.720807,156.000181 449.066738,156.000181 Z M452.579164,134.006666 L452.577223,126.35634 C452.577223,126.35634 460.004929,124.073829 461.078557,128.399081 C462.410722,133.764307 452.579164,134.006343 452.579164,134.006666 Z" id="November" fill="#5563B6" fill-rule="nonzero"></path>
        <path d="M94.5,204.5 C99.3486643,200.477559 103.331634,197.567125 106.448909,195.768697 C108.452632,194.612703 115.408013,193.829313 121.042052,189.766528 C123.129431,188.261289 125.77561,184.945885 128.980587,179.820316" id="Line-51" stroke="#E1F2FF" stroke-width="3" stroke-linecap="round"></path>
        <path d="M57.5,154.5 C54.832309,154.998328 52.6656424,155.888123 51,157.169386 C49.3343576,158.45065 47.167691,160.894188 44.5,164.5" id="Line" stroke="#E1F2FF" stroke-width="3" stroke-linecap="round"></path>
        <path d="M88.0848876,227.543265 C88.1997529,227.637288 88.2735948,227.709832 88.2990725,227.732932 C88.3007998,227.73739 88.2986407,227.72888 88.2990725,227.732932 C88.2990725,227.733743 88.2995043,227.732527 88.2995043,227.732527 C85.5103507,226.316508 83.6116189,227.394125 81.4559516,227.14002 C81.4261557,227.131509 81.3924734,227.12462 81.354041,227.118946 C81.3061085,227.112461 81.2573124,227.10314 81.2098117,227.092198 C80.6419626,226.958458 80.1095232,226.509822 79.6323573,225.867467 C79.6297663,225.864225 79.6276072,225.860982 79.6250162,225.857335 C79.5844247,225.80465 79.5459924,225.749127 79.50756,225.69401 C79.50756,225.69401 79.5071282,225.692389 79.5058327,225.691984 C79.4358772,225.589856 79.3663534,225.481648 79.2981252,225.371819 C79.291216,225.360472 79.2834432,225.349529 79.276534,225.338182 C79.2588292,225.306976 79.2406925,225.27577 79.2221241,225.245375 C79.2031238,225.213358 79.1841235,225.182152 79.1659869,225.150946 C79.1478503,225.118119 79.1301455,225.086508 79.1128725,225.054897 C79.0938723,225.021665 79.0761675,224.988838 79.057599,224.955605 C79.0450761,224.933315 79.0325532,224.908999 79.0195985,224.884683 C78.5385461,223.980116 78.147745,222.893583 77.8683547,221.810697 C77.8683547,221.810697 77.8618773,221.80016 77.8683547,221.810697 C78.9163924,222.346871 80.006749,222.787402 80.9269667,223.030565 C82.0354599,223.324387 83.4233434,223.447589 84.7559535,223.388825 C85.1640275,222.197731 85.3998036,220.909373 85.3881444,219.828108 C85.3773488,218.923947 85.2149828,217.829713 84.931706,216.734264 C85.0185027,216.778438 85.1044357,216.824234 85.1912324,216.869219 C85.2162783,216.882998 85.2417559,216.897183 85.2676654,216.911367 C85.3289844,216.944194 85.3903035,216.976616 85.4507589,217.011469 C85.4788275,217.026059 85.5073279,217.04227 85.5349646,217.058076 C85.5962837,217.092524 85.6563073,217.126567 85.7167627,217.16142 C85.7409449,217.175604 85.7659907,217.189789 85.7906047,217.203568 C85.8666058,217.248553 85.942175,217.293133 86.0168807,217.338524 C86.0246535,217.342576 86.0324263,217.347034 86.0393355,217.351898 C86.126564,217.403367 86.2124971,217.457268 86.2979983,217.510764 C86.3049075,217.514412 86.3109531,217.519275 86.3178622,217.523328 C86.3951588,217.57196 86.4698644,217.620187 86.5454337,217.669225 C86.5614112,217.678952 86.5760932,217.689894 86.5916389,217.699215 C86.660299,217.744201 86.7280954,217.789996 86.7963237,217.835792 C86.8088466,217.845113 86.8213695,217.854435 86.8351878,217.86335 C86.9133481,217.916846 86.9906446,217.970342 87.0666457,218.024649 C87.0666457,218.024649 87.0675094,218.025459 87.068373,218.025459 C87.3106265,218.200131 87.5420844,218.377235 87.7597238,218.55677 C87.7627466,218.558797 87.7653376,218.561228 87.7683603,218.562849 C88.1302292,218.864372 88.4515065,219.171568 88.715783,219.477953 C88.7542154,219.522938 88.7913523,219.567923 88.8271937,219.612503 C88.8284892,219.61453 88.8306483,219.61534 88.8315119,219.616961 L88.8315119,219.617772 C88.8647624,219.658299 88.8967174,219.699231 88.9265133,219.738948 L88.9269451,219.740164 C88.9282406,219.74138 88.9291042,219.743406 88.9299679,219.744622 C88.9632184,219.787986 88.9951734,219.83135 89.0245374,219.875119 L89.0249693,219.875119 C89.0288557,219.881198 89.0318784,219.886467 89.0361967,219.892951 C89.0366285,219.893762 89.0374922,219.893356 89.0374922,219.894167 C89.0763564,219.950095 89.1130614,220.006833 89.1467437,220.061544 C89.1519256,220.071676 89.1571075,220.080592 89.1627212,220.089103 C89.1648804,220.092345 89.1661758,220.095992 89.1696304,220.09964 C89.2067673,220.162862 89.2417451,220.226085 89.2728364,220.290117 C89.2957231,220.333887 89.3155871,220.378061 89.3350192,220.422236 C89.342792,220.441284 89.3497012,220.459521 89.3570422,220.477758 C89.3682696,220.505317 89.3777698,220.532065 89.3885654,220.559623 C89.3954746,220.579076 89.4010883,220.598935 89.4075657,220.620009 C89.4162021,220.64473 89.4235432,220.670668 89.4308842,220.695794 C89.4364979,220.715653 89.441248,220.735106 89.4455662,220.755775 C89.4520436,220.780902 89.4576573,220.806028 89.4628392,220.83156 C89.4662938,220.850608 89.4693165,220.870872 89.4727711,220.890325 C89.4766576,220.916262 89.4792485,220.94301 89.4831349,220.968137 C89.485294,220.986374 89.4865895,221.004611 89.487885,221.022038 C89.4896123,221.051218 89.4900441,221.079587 89.4904759,221.109577 C89.4904759,221.122546 89.4909078,221.137946 89.4904759,221.152536 C89.4900441,221.196305 89.4865895,221.239264 89.4814076,221.281412 C89.4783849,221.310592 89.4766576,221.335718 89.4766576,221.359224 C89.1843125,223.383962 87.584835,224.844156 88.2990725,227.732932" id="Fill-583" fill="#9452BA" transform="translate(83.678072, 222.234264) rotate(-280.000000) translate(-83.678072, -222.234264) "></path>
    </g>
</svg>