<?xml version="1.0" encoding="UTF-8"?>
<svg width="487px" height="274px" viewBox="0 0 487 274" version="1.1" xmlns="http://www.w3.org/2000/svg" xmlns:xlink="http://www.w3.org/1999/xlink">
    <title>illus-september-20</title>
    <g id="illus-september-20" stroke="none" stroke-width="1" fill="none" fill-rule="evenodd">
        <g id="Group-2" transform="translate(33.788018, 33.000000)">
            <path d="M12.3247388,31.3097608 C11.7849447,31.2070597 11.3690367,31.0556247 11.0770148,30.8554559 C7.3192841,28.2796882 6.06894855,26.1291715 5.43580494,23.3618824 C4.80266133,20.5945934 3.91598303,18.9920321 6.75924674,13.2368732 C9.60251046,7.48171433 14.6683959,2.92113272 21.6286161,1.69604037 C28.2788426,0.525511055 46.3561788,-4.99304842 64.1709608,13.2368732 C81.9857428,31.4667949 80.7196518,47.7840501 72.4453063,64.7781257 C64.1709608,81.7722014 55.2938871,87.7834049 48.2925425,100.931573 C43.0277142,110.818652 42.4905554,121.492751 42.5854494,132.772568 C42.7227225,149.089888 54.2484628,173.165698 77.1626702,205 C61.6967725,200.606131 50.6534,195.654251 44.0325527,190.144358 C24.2476385,173.679283 9.54734733,147.488786 4.08686093,132.772568 C-0.430652004,120.5977 -2.22088869,97.5355821 4.08686093,76.5000514 C8.21161122,62.7445416 18.9374324,52.7715632 23.7342998,37.1544976 C24.0777642,36.0362875 23.8131874,31.4961209 21.6286161,29.0856394 C20.1284787,27.4303703 16.8607213,25.4867794 15.5489741,27.1788605 C15.0359364,27.8406506 14.7510469,28.6061262 14.6943055,29.4752874 L14.6943123,29.4752878 C14.6223557,30.5775148 13.6704918,31.4127139 12.5682648,31.3407573 C12.4865313,31.3354215 12.4052028,31.3250698 12.3247388,31.3097608 Z" id="Rectangle" stroke="#5563B6" stroke-width="5" fill="#FFFFFF"></path>
            <path d="M23.9448921,3.31262982 C30.5625794,2.14260862 46.512341,-4.90189329 64.239956,13.320115 C81.9675711,31.5421233 80.707675,47.8522954 72.4738155,64.8389942 C64.239956,81.8256929 55.4063175,87.8342871 48.4392302,100.976748 C43.2001625,110.859535 42.665632,121.529 42.7600617,132.803921 C42.8868937,147.947683 52.7834451,169.776973 72.449716,198.291791 L72.4497059,198.291798 C72.7632618,198.746433 72.648894,199.369176 72.1942583,199.682732 C71.8152441,199.944132 71.3067314,199.912962 70.9624812,199.607227 C56.8387833,187.063708 47.4379768,176.696005 42.7600617,168.504118 C39.3274352,162.492959 28.2978223,129.970636 33.9651213,109.336551 C41.6191322,81.4690411 64.9572698,63.7290782 62.5328164,38.7979166 C59.3245083,5.80621311 20.9533021,3.84154932 23.9448921,3.31262982 Z" id="Rectangle" fill="#5563B6"></path>
            <path d="M127.902514,85.4028251 C130.948011,83.7921593 133.665568,87.4161676 134.792252,89.1547928 C136.556531,91.8773124 136.276138,95.2086828 137.68858,96.1688187 C139.966724,97.7174318 141.611008,96.6569708 144.054255,97.4118351 C148.641984,98.8292575 153.889545,101.523224 156.266421,103.86706 C164.623984,112.108447 168.2892,120.881729 169.283944,123.751168 C170.278687,126.620608 165.668097,128.460423 165.061277,129.236727 C164.339476,130.160126 163.101014,131.537522 162.325355,132.18053 C162.090617,132.375123 161.546259,132.481382 160.69228,132.499306 L160.69228,132.499302 C159.301289,132.528498 158.188908,133.664471 158.188908,135.055769 C158.188908,135.055769 158.188908,135.055769 158.188908,135.055769 C158.188908,136.657426 156.865481,136.402936 156.266421,136.657426 C149.343816,139.598247 142.572681,137.817146 137.68858,138.676957 C132.75998,139.544602 129.747958,143.047551 129.328216,144.800093 C128.888098,146.637706 128.340511,150.739054 131.222971,151.897089 C135.931747,153.788851 145.854096,152.519506 151.102193,155.539227 C157.473875,159.205452 158.899666,166.97199 156.266421,169.415674 C155.542037,170.087911 152.044843,172.928289 149.340631,171.585714 C146.486772,170.168843 144.346684,164.529439 140.631458,163.887514 C135.28344,162.963471 132.591188,168.191787 127.902514,169.415674 C123.398614,170.59133 116.819604,167.684709 115.416173,170.602071 C114.244801,173.037043 113.07824,183.401572 109.313655,191.622064 C106.828756,197.048183 100.380724,200.417226 102.141009,203.956561 C103.994846,207.683998 113.3996,204.212424 118.496221,205.317871 C126.422024,207.036964 130.259248,212.126692 127.902514,213.195232 C121.396413,216.14509 101.556586,215.691184 82.9146894,210.249352 C81.1241384,209.726665 80.220401,208.698729 80.2034771,207.165542 L80.2034684,207.165542 C80.1973212,206.608646 79.9592432,206.079533 79.5465423,205.705569 C66.6198825,193.992207 58.5488793,185.281697 55.3335328,179.57404 C43.0402664,157.751899 44.318342,141.085797 44.9727977,136.657426 C46.3467474,127.360601 48.3470843,123.606443 51.0029731,118.87279 C54.6504356,112.371831 60.2065575,108.220915 63.9516563,105.897558 C68.5172157,103.065211 74.4488045,101.651468 81.4477748,102.705681 C93.211555,104.477589 106.801585,110.507618 113.308908,108.682166 C129.617818,104.107146 126.954284,85.9043137 127.902514,85.4028251 Z" id="Rectangle" stroke="#5563B6" stroke-width="5" fill="#FFFFFF"></path>
            <path d="M135.737327,100.730466 C134.560464,99.4481028 133.766754,98.5025619 133.356197,97.8938433 C131.240731,94.7573107 130.093916,92.5121256 129.145106,91.5048415 C125.941675,88.1039859 123.296136,87.5783814 122.544409,88.2579717 C122.106063,88.6542535 121.720173,90.8090665 121.331275,93.4536616 C120.931987,96.1689187 120.545389,99.4202858 121.331275,103.357662 C121.674136,105.075432 123.058332,107.289544 125.483863,110" id="Line-2" stroke="#5563B6" stroke-width="4" fill="#FFFFFF" stroke-linecap="round"></path>
            <path d="M82.235023,143.51857 C93.1336406,142.136773 101.257867,143.516459 106.607703,147.657627 C111.957539,151.798795 114.73193,159.246253 114.930876,170" id="Line" stroke="#5563B6" stroke-width="4" stroke-linecap="round"></path>
            <path d="M148.19841,116 C150.071457,116 151.589862,114.990936 151.589862,113.746193 C151.589862,112.50145 150.071457,109 148.19841,109 C146.325364,109 143.663594,109.910007 143.663594,112.507526 C143.663594,115.105045 146.325364,116 148.19841,116 Z" id="Oval" fill="#89C3EA"></path>
            <circle id="Oval" fill="#FFFFFF" cx="146.211982" cy="112" r="1"></circle>
            <path d="M132.764977,134 C130.932578,132.808454 129.464414,131.664469 128.360486,130.568045 C127.256558,129.471621 126.082632,126.94894 124.83871,123" id="Line-30" stroke="#5563B6" stroke-width="3" stroke-linecap="round"></path>
            <path d="M58.4562212,125 C60.159264,120.506855 62.2650742,117.43741 64.7736518,115.791667 C67.2822295,114.145923 71.781642,112.882034 78.2718894,112" id="Line-31" stroke="#E1F2FF" stroke-width="4" stroke-linecap="round"></path>
            <path d="M28.2119816,48.6647332 C31.5356756,40.9852419 35.7927336,36.3226244 40.9831558,34.6768808 C46.1735779,33.0311372 54.7562263,34.3864449 66.7311008,38.7428041" id="Line-31" stroke="#E1F2FF" stroke-width="4" stroke-linecap="round" transform="translate(47.471541, 41.332367) rotate(94.000000) translate(-47.471541, -41.332367) "></path>
        </g>
        <path d="M133.921737,208.739548 C134.078371,208.867761 134.179065,208.966684 134.213807,208.998185 C134.216162,209.004264 134.213218,208.992658 134.213807,208.998185 C134.213807,208.99929 134.214396,208.997632 134.214396,208.997632 C130.411004,207.066697 127.821825,208.536175 124.882278,208.189668 C124.841648,208.178062 124.795717,208.168667 124.743309,208.16093 C124.677947,208.152088 124.611407,208.139377 124.546633,208.124456 C123.772293,207.942084 123.04624,207.330308 122.395559,206.454368 C122.392026,206.449947 122.389081,206.445526 122.385548,206.440552 C122.330196,206.368708 122.277789,206.292996 122.225381,206.217837 C122.225381,206.217837 122.224792,206.215626 122.223025,206.215074 C122.127631,206.075807 122.032826,205.928252 121.939788,205.778485 C121.930366,205.763011 121.919767,205.74809 121.910345,205.732616 C121.886202,205.690062 121.861471,205.647509 121.83615,205.606061 C121.810241,205.562402 121.784331,205.519848 121.759599,205.477295 C121.734868,205.432531 121.710725,205.389425 121.687171,205.346318 C121.661261,205.301002 121.637118,205.256237 121.611798,205.210921 C121.594721,205.180525 121.577644,205.147367 121.559979,205.114208 C120.903998,203.880708 120.371088,202.399072 119.990101,200.922409 C119.990101,200.922409 119.981268,200.90804 119.990101,200.922409 C121.419243,201.653556 122.906093,202.254279 124.160935,202.585865 C125.672517,202.986532 127.565085,203.154535 129.382281,203.074402 C129.938746,201.450184 130.260258,199.693331 130.244359,198.218878 C130.229638,196.985931 130.00823,195.493795 129.621944,194 C129.740303,194.060238 129.857484,194.122687 129.975843,194.18403 C130.009997,194.20282 130.044739,194.222163 130.08007,194.241505 C130.163687,194.286269 130.247304,194.330481 130.329743,194.378008 C130.368018,194.397903 130.406882,194.420009 130.444569,194.441562 C130.528186,194.488537 130.610036,194.534959 130.692475,194.582486 C130.725451,194.601828 130.759604,194.621171 130.793169,194.639961 C130.896807,194.701304 130.999856,194.762095 131.101727,194.823991 C131.112326,194.829518 131.122926,194.835597 131.132347,194.842228 C131.251295,194.912414 131.368477,194.985916 131.485069,195.058864 C131.494491,195.063838 131.502735,195.07047 131.512157,195.075996 C131.617561,195.142314 131.719432,195.208078 131.822481,195.274948 C131.844269,195.288211 131.86429,195.303133 131.885488,195.315844 C131.979116,195.377187 132.071565,195.439636 132.164604,195.502084 C132.181681,195.514795 132.198757,195.527506 132.217601,195.539664 C132.324183,195.612613 132.429587,195.685562 132.533225,195.759616 C132.533225,195.759616 132.534403,195.760721 132.53558,195.760721 C132.865926,195.998911 133.18155,196.240416 133.478331,196.485237 C133.482453,196.488 133.485987,196.491316 133.490108,196.493526 C133.983566,196.904693 134.421671,197.323596 134.782049,197.741395 C134.834456,197.802738 134.885098,197.864082 134.933972,197.924872 C134.935739,197.927635 134.938683,197.928741 134.939861,197.930951 L134.939861,197.932057 C134.985202,197.987321 135.028777,198.043138 135.069408,198.097297 L135.069997,198.098955 C135.071763,198.100613 135.072941,198.103376 135.074119,198.105034 C135.11946,198.164167 135.163035,198.2233 135.203077,198.282985 L135.203666,198.282985 C135.208966,198.291275 135.213088,198.298459 135.218976,198.307301 C135.219565,198.308407 135.220743,198.307854 135.220743,198.308959 C135.273739,198.385224 135.323792,198.462594 135.369722,198.537201 C135.376788,198.551017 135.383855,198.563175 135.39151,198.574781 C135.394454,198.579202 135.396221,198.584176 135.400931,198.589149 C135.451573,198.675362 135.49927,198.761574 135.541667,198.848892 C135.572876,198.908577 135.599963,198.968815 135.626461,199.029053 C135.637061,199.055028 135.646482,199.079897 135.656493,199.104766 C135.671803,199.142345 135.684758,199.17882 135.699479,199.2164 C135.708901,199.242926 135.716556,199.270006 135.725388,199.298743 C135.737166,199.332455 135.747176,199.367824 135.757186,199.402088 C135.764842,199.429167 135.771319,199.455694 135.777207,199.483879 C135.78604,199.518143 135.793695,199.552407 135.800761,199.587223 C135.805472,199.613197 135.809594,199.64083 135.814305,199.667356 C135.819605,199.702726 135.823138,199.7392 135.828437,199.773464 C135.831382,199.798333 135.833148,199.823202 135.834915,199.846965 C135.83727,199.886756 135.837859,199.925441 135.838448,199.966336 C135.838448,199.984021 135.839037,200.005021 135.838448,200.024917 C135.837859,200.084602 135.833148,200.143182 135.826082,200.200657 C135.82196,200.240447 135.819605,200.274711 135.819605,200.306765 C135.420952,203.06777 133.239847,205.058944 134.213807,208.998185" id="Fill-583" fill="#9452BA"></path>
        <text id="September" font-family="ZiggyPawritingRegular, Ziggy Pawriting" font-size="32" font-weight="normal" fill="#5563B6">
            <tspan x="199" y="129">September</tspan>
        </text>
        <g id="Group" transform="translate(328.500000, 136.500000) scale(-1, 1) translate(-328.500000, -136.500000) translate(199.000000, 23.000000)" stroke-linecap="round">
            <line x1="234.25" y1="0.315789474" x2="234.25" y2="11.6842105" id="Line-16" stroke="#ACD3EF" stroke-width="3"></line>
            <line x1="239.676471" y1="6.25" x2="229.323529" y2="6.25" id="Line-16" stroke="#ACD3EF" stroke-width="3"></line>
            <line x1="124" y1="5.86842105" x2="124" y2="12.8684211" id="Line-16" stroke="#5563B6" stroke-width="2"></line>
            <line x1="127.823529" y1="9.11842105" x2="120.823529" y2="9.11842105" id="Line-16" stroke="#5563B6" stroke-width="2"></line>
            <line x1="180" y1="52.8684211" x2="180" y2="59.8684211" id="Line-16" stroke="#5563B6" stroke-width="2"></line>
            <line x1="183.823529" y1="56.1184211" x2="176.823529" y2="56.1184211" id="Line-16" stroke="#5563B6" stroke-width="2"></line>
            <line x1="5.25" y1="13.3157895" x2="5.25" y2="24.6842105" id="Line-16" stroke="#ACD3EF" stroke-width="3"></line>
            <line x1="10.6764706" y1="19.25" x2="0.323529412" y2="19.25" id="Line-16" stroke="#ACD3EF" stroke-width="3"></line>
            <line x1="165.25" y1="166.315789" x2="165.25" y2="177.684211" id="Line-16" stroke="#ACD3EF" stroke-width="3"></line>
            <line x1="170.676471" y1="172.25" x2="160.323529" y2="172.25" id="Line-16" stroke="#ACD3EF" stroke-width="3"></line>
            <line x1="94.5" y1="177.5" x2="94.5" y2="184.5" id="Line-16" stroke="#5563B6" stroke-width="2"></line>
            <line x1="98.3235294" y1="180.75" x2="91.3235294" y2="180.75" id="Line-16" stroke="#5563B6" stroke-width="2"></line>
            <line x1="255" y1="203.868421" x2="255" y2="210.868421" id="Line-16" stroke="#5563B6" stroke-width="2"></line>
            <line x1="258.823529" y1="207.118421" x2="251.823529" y2="207.118421" id="Line-16" stroke="#5563B6" stroke-width="2"></line>
            <line x1="37" y1="219.868421" x2="37" y2="226.868421" id="Line-16" stroke="#5563B6" stroke-width="2"></line>
            <line x1="40.8235294" y1="223.118421" x2="33.8235294" y2="223.118421" id="Line-16" stroke="#5563B6" stroke-width="2"></line>
            <line x1="58.25" y1="129.315789" x2="58.25" y2="140.684211" id="Line-16" stroke="#ACD3EF" stroke-width="3"></line>
            <line x1="63.6764706" y1="135.25" x2="53.3235294" y2="135.25" id="Line-16" stroke="#ACD3EF" stroke-width="3"></line>
        </g>
    </g>
</svg>