<?xml version="1.0" encoding="UTF-8"?>
<svg width="455px" height="473px" viewBox="0 0 455 473" version="1.1" xmlns="http://www.w3.org/2000/svg" xmlns:xlink="http://www.w3.org/1999/xlink">
    <title>franklin</title>
    <defs>
        <radialGradient cx="50%" cy="50%" fx="50%" fy="50%" r="38.4936445%" gradientTransform="translate(0.500000,0.500000),scale(0.943271,1.000000),rotate(180.000000),translate(-0.500000,-0.500000)" id="radialGradient-1">
            <stop stop-color="#ABDCDC" offset="0%"></stop>
            <stop stop-color="#ABDCDC" stop-opacity="0" offset="100%"></stop>
        </radialGradient>
        <radialGradient cx="50%" cy="49.9904853%" fx="50%" fy="49.9904853%" r="154.7098%" gradientTransform="translate(0.500000,0.499905),scale(0.234703,1.000000),translate(-0.500000,-0.499905)" id="radialGradient-2">
            <stop stop-color="#B0B0DB" offset="0%"></stop>
            <stop stop-color="#B0B0DB" stop-opacity="0.98" offset="11%"></stop>
            <stop stop-color="#B0B0DB" stop-opacity="0.91" offset="24%"></stop>
            <stop stop-color="#B0B0DB" stop-opacity="0.79" offset="39%"></stop>
            <stop stop-color="#B0B0DB" stop-opacity="0.63" offset="55%"></stop>
            <stop stop-color="#B0B0DB" stop-opacity="0.42" offset="72%"></stop>
            <stop stop-color="#B0B0DB" stop-opacity="0.17" offset="89%"></stop>
            <stop stop-color="#B0B0DB" stop-opacity="0" offset="100%"></stop>
        </radialGradient>
        <linearGradient x1="-16.4948454%" y1="50%" x2="116.752577%" y2="50%" id="linearGradient-3">
            <stop stop-color="#EFEFF8" offset="0%"></stop>
            <stop stop-color="#FFFFFF" offset="100%"></stop>
        </linearGradient>
        <linearGradient x1="-20.9836066%" y1="49.8637602%" x2="120.983607%" y2="49.8637602%" id="linearGradient-4">
            <stop stop-color="#EFEFF8" offset="0%"></stop>
            <stop stop-color="#FFFFFF" offset="100%"></stop>
        </linearGradient>
        <linearGradient x1="-38.9221557%" y1="50%" x2="138.922156%" y2="50%" id="linearGradient-5">
            <stop stop-color="#EFEFF8" offset="0%"></stop>
            <stop stop-color="#FFFFFF" offset="100%"></stop>
        </linearGradient>
        <linearGradient x1="-15.8924205%" y1="50%" x2="115.647922%" y2="50%" id="linearGradient-6">
            <stop stop-color="#EFEFF8" offset="0%"></stop>
            <stop stop-color="#FFFFFF" offset="100%"></stop>
        </linearGradient>
        <linearGradient x1="-11.7216117%" y1="50.1510574%" x2="111.721612%" y2="50.1510574%" id="linearGradient-7">
            <stop stop-color="#EFEFF8" offset="0%"></stop>
            <stop stop-color="#FFFFFF" offset="100%"></stop>
        </linearGradient>
        <linearGradient x1="-14.7727273%" y1="50%" x2="114.772727%" y2="50%" id="linearGradient-8">
            <stop stop-color="#EFEFF8" offset="0%"></stop>
            <stop stop-color="#FFFFFF" offset="100%"></stop>
        </linearGradient>
        <linearGradient x1="-14.0997831%" y1="50%" x2="114.099783%" y2="50%" id="linearGradient-9">
            <stop stop-color="#EFEFF8" offset="0%"></stop>
            <stop stop-color="#FFFFFF" offset="100%"></stop>
        </linearGradient>
        <linearGradient x1="-14.1906874%" y1="50%" x2="114.412417%" y2="50%" id="linearGradient-10">
            <stop stop-color="#EFEFF8" offset="0%"></stop>
            <stop stop-color="#FFFFFF" offset="100%"></stop>
        </linearGradient>
        <linearGradient x1="-14.7727273%" y1="50%" x2="114.772727%" y2="50%" id="linearGradient-11">
            <stop stop-color="#EFEFF8" offset="0%"></stop>
            <stop stop-color="#FFFFFF" offset="100%"></stop>
        </linearGradient>
        <linearGradient x1="-13.8528139%" y1="50%" x2="113.852814%" y2="50%" id="linearGradient-12">
            <stop stop-color="#EFEFF8" offset="0%"></stop>
            <stop stop-color="#FFFFFF" offset="100%"></stop>
        </linearGradient>
        <linearGradient x1="-11.9626168%" y1="50.2890173%" x2="111.962617%" y2="50.2890173%" id="linearGradient-13">
            <stop stop-color="#EFEFF8" offset="0%"></stop>
            <stop stop-color="#FFFFFF" offset="100%"></stop>
        </linearGradient>
        <linearGradient x1="-10.9797297%" y1="50%" x2="110.97973%" y2="50%" id="linearGradient-14">
            <stop stop-color="#EFEFF8" offset="0%"></stop>
            <stop stop-color="#FFFFFF" offset="100%"></stop>
        </linearGradient>
        <linearGradient x1="-11.786372%" y1="50%" x2="111.786372%" y2="50%" id="linearGradient-15">
            <stop stop-color="#EFEFF8" offset="0%"></stop>
            <stop stop-color="#FFFFFF" offset="100%"></stop>
        </linearGradient>
        <linearGradient x1="-11.0344828%" y1="50%" x2="111.034483%" y2="50%" id="linearGradient-16">
            <stop stop-color="#EFEFF8" offset="0%"></stop>
            <stop stop-color="#FFFFFF" offset="100%"></stop>
        </linearGradient>
        <linearGradient x1="-12.9740519%" y1="50%" x2="112.774451%" y2="50%" id="linearGradient-17">
            <stop stop-color="#EFEFF8" offset="0%"></stop>
            <stop stop-color="#FFFFFF" offset="100%"></stop>
        </linearGradient>
        <linearGradient x1="-13.1147541%" y1="49.5%" x2="113.114754%" y2="49.5%" id="linearGradient-18">
            <stop stop-color="#EFEFF8" offset="0%"></stop>
            <stop stop-color="#FFFFFF" offset="100%"></stop>
        </linearGradient>
        <linearGradient x1="-11.287478%" y1="49.7737557%" x2="111.287478%" y2="49.7737557%" id="linearGradient-19">
            <stop stop-color="#EFEFF8" offset="0%"></stop>
            <stop stop-color="#FFFFFF" offset="100%"></stop>
        </linearGradient>
        <linearGradient x1="-13.7634409%" y1="50.1672241%" x2="113.763441%" y2="50.1672241%" id="linearGradient-20">
            <stop stop-color="#EFEFF8" offset="0%"></stop>
            <stop stop-color="#FFFFFF" offset="100%"></stop>
        </linearGradient>
        <linearGradient x1="-22.3367698%" y1="50%" x2="121.993127%" y2="50%" id="linearGradient-21">
            <stop stop-color="#EFEFF8" offset="0%"></stop>
            <stop stop-color="#FFFFFF" offset="100%"></stop>
        </linearGradient>
        <linearGradient x1="-30.0469484%" y1="50%" x2="130.046948%" y2="50%" id="linearGradient-22">
            <stop stop-color="#EFEFF8" offset="0%"></stop>
            <stop stop-color="#FFFFFF" offset="100%"></stop>
        </linearGradient>
        <linearGradient x1="-45.0704225%" y1="50.1872659%" x2="145.070423%" y2="50.1872659%" id="linearGradient-23">
            <stop stop-color="#EFEFF8" offset="0%"></stop>
            <stop stop-color="#FFFFFF" offset="100%"></stop>
        </linearGradient>
        <linearGradient x1="-52.892562%" y1="50.209205%" x2="152.892562%" y2="50.209205%" id="linearGradient-24">
            <stop stop-color="#EFEFF8" offset="0%"></stop>
            <stop stop-color="#FFFFFF" offset="100%"></stop>
        </linearGradient>
        <linearGradient x1="-47.5%" y1="50%" x2="147.5%" y2="50%" id="linearGradient-25">
            <stop stop-color="#EFEFF8" offset="0%"></stop>
            <stop stop-color="#FFFFFF" offset="100%"></stop>
        </linearGradient>
        <linearGradient x1="-58%" y1="50%" x2="157%" y2="50%" id="linearGradient-26">
            <stop stop-color="#EFEFF8" offset="0%"></stop>
            <stop stop-color="#FFFFFF" offset="100%"></stop>
        </linearGradient>
        <linearGradient x1="-0.0845287709%" y1="49.9664068%" x2="99.9985278%" y2="49.9664068%" id="linearGradient-27">
            <stop stop-color="#FEFEFE" offset="0%"></stop>
            <stop stop-color="#B0B0DB" stop-opacity="0.7" offset="100%"></stop>
        </linearGradient>
        <linearGradient x1="67.0334928%" y1="32.6102882%" x2="238.181818%" y2="14.2270095%" id="linearGradient-28">
            <stop stop-color="#EFEFF8" offset="0%"></stop>
            <stop stop-color="#FFFFFF" offset="100%"></stop>
        </linearGradient>
        <linearGradient x1="-26.6515837%" y1="37.3057472%" x2="138.506787%" y2="33.5691325%" id="linearGradient-29">
            <stop stop-color="#EFEFF8" offset="0%"></stop>
            <stop stop-color="#FFFFFF" offset="100%"></stop>
        </linearGradient>
        <linearGradient x1="34.4933921%" y1="105.231035%" x2="193.678414%" y2="113.731103%" id="linearGradient-30">
            <stop stop-color="#EFEFF8" offset="0%"></stop>
            <stop stop-color="#FFFFFF" offset="100%"></stop>
        </linearGradient>
        <linearGradient x1="-123.066079%" y1="87.2547498%" x2="36.1189427%" y2="94.3381397%" id="linearGradient-31">
            <stop stop-color="#EFEFF8" offset="0%"></stop>
            <stop stop-color="#FFFFFF" offset="100%"></stop>
        </linearGradient>
    </defs>
    <g id="franklin" stroke="none" stroke-width="1" fill="none" fill-rule="evenodd">
        <g id="akeneo-ico-franklin-insights" transform="translate(1.000000, 27.000000)">
            <line x1="87.99" y1="9.7" x2="88.1" y2="0.19" id="Path" stroke="#B0B0DB" stroke-width="2.68066896" stroke-linecap="round"></line>
            <line x1="83.29" y1="4.89" x2="92.8" y2="5" id="Path" stroke="#B0B0DB" stroke-width="2.68066896" stroke-linecap="round"></line>
            <line x1="5.93" y1="376.74" x2="6.04" y2="367.23" id="Path" stroke="#B0B0DB" stroke-width="2.68066896" stroke-linecap="round"></line>
            <line x1="1.23" y1="371.93" x2="10.74" y2="372.04" id="Path" stroke="#B0B0DB" stroke-width="2.68066896" stroke-linecap="round"></line>
            <path d="M180.6,412.58 C137.39,404.83 77.21,387.84 35.51,312.87 C-2.31,244.9 -24.72,141 46.46,75.66 C117.64,10.32 333.9,-10.29 416.03,75.66 C498.16,161.61 435.76,458.29 180.6,412.58 Z" id="Path" fill="#EFEFF8" fill-rule="nonzero"></path>
            <line x1="378.22" y1="417.81" x2="378.33" y2="408.3" id="Path" stroke="#B0B0DB" stroke-width="2.68066896" stroke-linecap="round"></line>
            <line x1="373.52" y1="413" x2="383.03" y2="413.11" id="Path" stroke="#B0B0DB" stroke-width="2.68066896" stroke-linecap="round"></line>
            <ellipse id="Oval" fill="url(#radialGradient-1)" fill-rule="nonzero" cx="196.34" cy="70.24" rx="55.88" ry="52.71"></ellipse>
            <path d="M235,223 C217.38,224.26 179.37,231.07 175.24,260 C171.11,288.93 199.59,372.77 242.13,372 C273.68,371.44 306.58,319.75 302.46,259.9 C300.15,226.64 249.42,222 235,223 Z" id="Path" fill="#FFFFFF" fill-rule="nonzero"></path>
            <ellipse id="Oval" fill="url(#radialGradient-2)" fill-rule="nonzero" cx="239.44" cy="236.66" rx="44.78" ry="10.51"></ellipse>
            <path d="M228.74,259.69 C219.53,260.38 199.63,264.12 197.47,280.02 C195.31,295.92 208,342.4 230.27,342.4 C251.87,342.4 266.21,312.88 264.05,279.96 C262.85,261.69 236.3,259.12 228.74,259.69 Z" id="Path" fill="#EFEFF8" fill-rule="nonzero"></path>
            <g id="Group" transform="translate(200.000000, 260.000000)">
                <g opacity="0.8" id="Path" stroke-linecap="round" stroke-width="1.28825141">
                    <line x1="24.71" y1="79.4" x2="28.59" y2="75.78" stroke="url(#linearGradient-3)"></line>
                    <line x1="32.05" y1="81.13" x2="35.1" y2="77.46" stroke="url(#linearGradient-4)"></line>
                    <line x1="40.45" y1="79.03" x2="42.12" y2="77.19" stroke="url(#linearGradient-5)"></line>
                    <line x1="19.57" y1="76.25" x2="23.66" y2="73.05" stroke="url(#linearGradient-6)"></line>
                    <line x1="14.32" y1="72.37" x2="19.78" y2="69.06" stroke="url(#linearGradient-7)"></line>
                    <line x1="12.23" y1="67.91" x2="16.63" y2="64.87" stroke="url(#linearGradient-8)"></line>
                    <line x1="9.71" y1="63.4" x2="14.32" y2="60.88" stroke="url(#linearGradient-9)"></line>
                    <line x1="7.4" y1="58.99" x2="11.91" y2="56.79" stroke="url(#linearGradient-10)"></line>
                    <line x1="5.2" y1="53.01" x2="9.6" y2="51.23" stroke="url(#linearGradient-11)"></line>
                    <line x1="2.99" y1="47.35" x2="7.61" y2="45.67" stroke="url(#linearGradient-12)"></line>
                    <line x1="1.42" y1="41.63" x2="6.77" y2="39.9" stroke="url(#linearGradient-13)"></line>
                    <line x1="0.27" y1="36.49" x2="6.19" y2="35.07" stroke="url(#linearGradient-14)"></line>
                    <line x1="0.37" y1="30.93" x2="5.8" y2="30.27" stroke="url(#linearGradient-15)"></line>
                    <line x1="0.16" y1="25.68" x2="5.96" y2="25.08" stroke="url(#linearGradient-16)"></line>
                    <line x1="0.48" y1="19.81" x2="5.49" y2="19.81" stroke="url(#linearGradient-17)"></line>
                    <line x1="2.26" y1="13.2" x2="7.14" y2="13.99" stroke="url(#linearGradient-18)"></line>
                    <line x1="6.35" y1="8.32" x2="12.02" y2="10.53" stroke="url(#linearGradient-19)"></line>
                    <line x1="12.72" y1="4.7" x2="17.37" y2="7.69" stroke="url(#linearGradient-20)"></line>
                    <line x1="19.65" y1="3.29" x2="22.56" y2="5.65" stroke="url(#linearGradient-21)"></line>
                    <line x1="25.31" y1="1.63" x2="27.44" y2="4.39" stroke="url(#linearGradient-22)"></line>
                    <line x1="31.37" y1="0.93" x2="32.79" y2="3.6" stroke="url(#linearGradient-23)"></line>
                    <line x1="37.01" y1="1.29" x2="38.22" y2="3.68" stroke="url(#linearGradient-24)"></line>
                    <line x1="42.44" y1="1.98" x2="43.09" y2="3.76" stroke="url(#linearGradient-25)"></line>
                    <line x1="47.82" y1="3.68" x2="48.68" y2="5.18" stroke="url(#linearGradient-26)"></line>
                </g>
                <path d="M34,4.92 C26.09,5.51 9,8.73 7.15,22.38 C5.3,36.03 12,72.21 35.26,76 C40.75,76.88 47.78,76 51.67,71.83 C61.11,61.76 66.19,42.17 64.89,22.32 C63.86,6.58 40.45,4.43 34,4.92 Z" id="Path" fill="url(#linearGradient-27)" fill-rule="nonzero"></path>
                <path d="M13.61,56.85 L8.44,56.85 C7.97055796,56.85 7.58994109,56.469442 7.58994109,56 L7.58994109,19.45 C7.58732732,19.2228383 7.67569937,19.0040596 7.83539589,18.8424843 C7.99509241,18.680909 8.21282263,18.59 8.44,18.59 L13.61,18.59 L13.61,56.85 Z" id="Path" fill="#B0B0DB" fill-rule="nonzero"></path>
                <path d="M32.53,56.8500589 L13.61,56.8500589 L13.61,18.5899404 L32.53,18.5899404 C32.758906,18.5872908 32.979228,18.6770274 33.1411003,18.8388997 C33.3029726,19.000772 33.3927092,19.221094 33.3900596,19.45 L33.3900596,56 C33.3900596,56.2271774 33.299091,56.4449076 33.1375157,56.6046041 C32.9759404,56.7643006 32.7571617,56.8526727 32.53,56.8500589 Z" id="Path" fill="#9093CC" fill-rule="nonzero"></path>
                <rect id="Rectangle" fill="#DFE1F0" fill-rule="nonzero" x="7.59" y="53.02" width="6.02" height="1.46"></rect>
                <rect id="Rectangle" fill="#DFE1F0" fill-rule="nonzero" x="7.59" y="20.96" width="6.02" height="1.46"></rect>
                <line x1="10.42" y1="27.24" x2="10.42" y2="48.25" id="Path" stroke="#FFFFFF" stroke-width="0.854071641" stroke-linecap="round" stroke-linejoin="round"></line>
                <path d="M24.64,69.73 L18.64,69.73 C18.0877153,69.73 17.64,69.2822847 17.64,68.73 L17.64,13.11 C17.64,12.5577153 18.0877153,12.11 18.64,12.11 L24.64,12.11 L24.64,69.73 Z" id="Path" fill="#FCCE76" fill-rule="nonzero"></path>
                <path d="M24.64,12.12 L24.64,69.73 L52.55,69.73 C53.1022847,69.73 53.55,69.2822847 53.55,68.73 L53.55,13.11 C53.55,12.5577153 53.1022847,12.11 52.55,12.11 L24.64,12.12 Z" id="Path" fill="#EFAC3F" fill-rule="nonzero"></path>
                <rect id="Rectangle" fill="#FEE6BB" fill-rule="nonzero" x="17.66" y="62.68" width="6.98" height="2.19"></rect>
                <rect id="Rectangle" fill="#FEDDA1" fill-rule="nonzero" x="17.66" y="66.09" width="6.98" height="1.1"></rect>
                <rect id="Rectangle" fill="#FEDDA1" fill-rule="nonzero" x="17.66" y="16.97" width="6.98" height="2.19"></rect>
                <rect id="Rectangle" fill="#FEE6BB" fill-rule="nonzero" x="17.66" y="14.66" width="6.98" height="1.1"></rect>
                <path d="M23.46,42 C23.46,46.55 22.46,50.24 21.15,50.24 C19.84,50.24 18.84,46.55 18.84,42 C18.84,37.45 19.84,33.76 21.15,33.76 C22.46,33.76 23.46,37.46 23.46,42 Z" id="Path" fill="#5E63B6" fill-rule="nonzero"></path>
                <path d="M35.93,16.19 L35.93,64.58 L63.85,64.58 C64.4022847,64.58 64.85,64.1322847 64.85,63.58 L64.85,17.18 C64.85,16.6277153 64.4022847,16.18 63.85,16.18 L35.93,16.19 Z" id="Path" fill="#5E63B6" fill-rule="nonzero"></path>
                <path d="M35.93,64.58 L29.93,64.58 C29.3777153,64.58 28.93,64.1322847 28.93,63.58 L28.93,17.18 C28.93,16.6277153 29.3777153,16.18 29.93,16.18 L35.93,16.18 L35.93,64.58 Z" id="Path" fill="#9093CC" fill-rule="nonzero"></path>
                <rect id="Rectangle" fill="#B0B0DB" fill-rule="nonzero" x="28.95" y="58.66" width="6.98" height="1.84"></rect>
                <rect id="Rectangle" fill="#B0B0DB" fill-rule="nonzero" x="28.95" y="61.52" width="6.98" height="1"></rect>
                <rect id="Rectangle" fill="#B0B0DB" fill-rule="nonzero" x="28.95" y="20.27" width="6.98" height="1.84"></rect>
                <rect id="Rectangle" fill="#B0B0DB" fill-rule="nonzero" x="28.95" y="18.33" width="6.98" height="1"></rect>
                <line x1="32.46" y1="33.79" x2="32.46" y2="51.11" id="Path" stroke="#FFFFFF" stroke-width="0.989247708" stroke-linecap="round" stroke-linejoin="round"></line>
                <path d="M47.45,38.32 C47.45,40.16 45.84,40.98 43.68,41.14 C42.62,41.22 41.93,41.22 41.81,40.19 C41.6542771,38.1062386 41.6542771,36.0137614 41.81,33.93 C42.11,33 43.24,33.07 43.96,33.04 C45.0698893,32.8350256 46.1504778,33.5191079 46.44,34.61 C46.6055476,35.3751621 46.2632373,36.1604621 45.59,36.56 C46.0715824,36.541091 46.5404428,36.7171799 46.890516,37.048432 C47.2405892,37.379684 47.4422936,37.8381081 47.45,38.32 L47.45,38.32 Z M45.82,38.37 C45.6,37.16 43.23,38.15 43.23,38.15 C43.2086026,38.6541271 43.2286702,39.1591601 43.29,39.66 C44,39.65 45.94,39.09 45.82,38.37 Z M43.27,36 C43.68,35.84 45.27,35.91 45.01,34.81 C44.86,33.99 43.24,34.48 43.24,34.48 C43.24,34.48 43.27,35.85 43.27,36 Z" id="Shape" fill="#B0B0DB" fill-rule="nonzero"></path>
                <path d="M48.28,34.3 C48.3052346,33.836328 48.6164247,33.4373663 49.06,33.3 C50.0838014,33.2052746 51.1129522,33.1818848 52.14,33.23 C52.69,33.23 53.36,33.36 53.44,33.94 C53.52,34.52 52.96,34.94 52.44,34.94 C51.92,34.94 49.77,35.02 49.77,35.02 L49.77,36.1 C49.77,36.1 51.03,36.03 51.58,36.02 C52.74,36.02 52.86,37.44 52.02,37.62 C51.2647869,37.7403234 50.5037142,37.8204363 49.74,37.86 L49.74,39.43 C49.74,39.43 51.9,39.14 52.69,39.12 C52.8976893,39.1172848 53.0976669,39.1985909 53.244538,39.345462 C53.3914091,39.4923331 53.4727152,39.6923107 53.47,39.9 C53.4993647,40.3166214 53.2181787,40.6915361 52.81,40.78 C51.761474,41.0096271 50.6931269,41.136891 49.62,41.16 C48.2,41.16 48.25,40.45 48.19,38.98 L48.28,34.3 Z" id="Path" fill="#B0B0DB" fill-rule="nonzero"></path>
                <path d="M60.47,34.08 C60.56,33.51 60.76,33.02 61.27,33.03 C61.99,33.03 61.98,33.58 61.99,34.03 C61.99,34.79 62.09,39.58 61.69,40.52 C61.5213848,40.9238242 61.1276067,41.1876556 60.69,41.19 C60.09,41.19 59.92,40.78 59.62,40.48 C59.11,39.97 56.86,36.8 56.25,36.02 C56.25,36.76 56.25,38.81 56.18,40.02 C56.18,40.43 56.06,41.16 55.48,41.15 C54.9,41.14 54.7,40.52 54.69,40.15 C54.64,38.86 54.69,35.64 54.69,35.15 C54.7136868,34.620592 55.0494002,34.1557642 55.5445171,33.966838 C56.0396341,33.7779118 56.5996622,33.9009435 56.97,34.28 C57.57,34.7 59.26,37.49 60.34,38.69 C60.39,37.81 60.4,34.62 60.47,34.08 Z" id="Path" fill="#B0B0DB" fill-rule="nonzero"></path>
                <path d="M42.43,43.6 C42.4454586,43.4424046 42.5570254,43.3109152 42.71,43.27 C43.0996272,43.2458851 43.4903728,43.2458851 43.88,43.27 C44.06,43.27 44.26,43.27 44.34,43.45 C44.42,43.63 44.34,43.79 44.11,43.85 C43.7386677,43.8973308 43.3640727,43.9140538 42.99,43.9 L42.99,44.36 L43.66,44.36 C44.07,44.36 44.11,44.86 43.82,44.93 C43.5414579,44.9668399 43.2609504,44.9868762 42.98,44.99 C42.98,44.99 42.98,45.39 42.98,45.52 C42.98,45.65 42.98,46.15 42.77,46.16 C42.56,46.17 42.46,45.84 42.46,45.31 C42.43,45.07 42.42,44.07 42.43,43.6 Z" id="Path" fill="#B0B0DB" fill-rule="nonzero"></path>
                <path d="M45.21,45.86 C45.2016629,46.0035937 45.0925835,46.1210638 44.95,46.14 C44.77,46.14 44.68,45.95 44.67,45.82 C44.67,45.45 44.67,44.91 44.67,44.59 C44.6521355,44.194909 44.6789724,43.7990645 44.75,43.41 C44.84,43.28 45.23,43.27 45.48,43.26 C46.31,43.26 46.48,43.65 46.48,44.02 C46.4548041,44.4016453 46.2141254,44.7354899 45.86,44.88 C45.86,44.88 46.21,45.17 46.61,45.48 C46.72,45.57 46.87,45.78 46.61,45.94 C46.35,46.1 46.2,45.94 46.02,45.78 C45.7271789,45.5738009 45.4497772,45.3465321 45.19,45.1 C45.21,45.32 45.24,45.57 45.21,45.86 Z M45.21,43.86 L45.21,44.45 C45.21,44.45 45.96,44.45 45.86,44.02 C45.76,43.59 45.22,43.87 45.22,43.87 L45.21,43.86 Z" id="Shape" fill="#B0B0DB" fill-rule="nonzero"></path>
                <path d="M49.37,46.11 C49.21,46.18 49.08,46.11 48.98,45.94 L48.68,45.33 L47.68,45.33 C47.6184492,45.5309353 47.5238177,45.7201982 47.4,45.89 C47.2976059,45.9604211 47.1623941,45.9604211 47.06,45.89 C46.93,45.78 47.06,45.53 47.06,45.36 C47.21,44.92 47.39,44.5 47.54,44.07 C47.69,43.64 47.8,43.32 48.16,43.32 C48.52,43.32 48.79,44.13 48.97,44.5 C49.15,44.87 49.24,45.11 49.53,45.68 C49.6013262,45.8430284 49.5305462,46.0332497 49.37,46.11 Z M48.11,44 L47.83,44.81 L48.48,44.81 C48.41,44.64 48.17,44.09 48.11,44 Z" id="Shape" fill="#B0B0DB" fill-rule="nonzero"></path>
                <path d="M51.89,43.62 C51.89,43.42 51.99,43.25 52.17,43.25 C52.35,43.25 52.42,43.44 52.43,43.6 C52.461861,44.3684125 52.4250482,45.1381353 52.32,45.9 C52.260454,46.0507069 52.1118897,46.1470729 51.95,46.14 C51.74,46.14 51.68,45.99 51.57,45.89 C51.46,45.79 50.57,44.58 50.37,44.3 C50.37,44.57 50.37,45.3 50.37,45.74 C50.37,45.88 50.37,46.14 50.12,46.14 C49.87,46.14 49.84,45.91 49.84,45.78 C49.84,45.32 49.84,44.17 49.84,44 C49.8457561,43.8105359 49.9647601,43.6430732 50.1417896,43.5753212 C50.3188191,43.5075691 50.5192206,43.5527902 50.65,43.69 C50.86,43.84 51.46,44.83 51.85,45.26 C51.86,45 51.86,43.81 51.89,43.62 Z" id="Path" fill="#B0B0DB" fill-rule="nonzero"></path>
                <path d="M53.26,46.09 C53.1982511,46.131288 53.1237296,46.1490312 53.05,46.14 C52.9229062,46.0857327 52.8430868,45.9580217 52.85,45.82 C52.8089153,45.0472123 52.8089153,44.2727877 52.85,43.5 C52.9,43.34 52.96,43.24 53.12,43.25 C53.2820788,43.2708296 53.3976742,43.4175468 53.38,43.58 C53.38,43.91 53.38,44.27 53.38,44.45 C53.67,44.21 54.43,43.63 54.55,43.56 C54.6134572,43.5024627 54.6991049,43.4759226 54.7839778,43.4874962 C54.8688507,43.4990698 54.9442652,43.5475729 54.99,43.62 C55.0767094,43.7574624 55.0466048,43.93809 54.92,44.04 C54.59,44.35 54.03,44.72 53.84,44.88 C53.99,44.98 54.52,45.32 54.84,45.57 C55.02,45.7 55.14,45.89 55,46.07 C54.86,46.25 54.62,46.12 54.47,46.07 C54.07,45.83 53.56,45.52 53.33,45.36 C53.38,45.55 53.46,46 53.26,46.09 Z" id="Path" fill="#B0B0DB" fill-rule="nonzero"></path>
                <path d="M55.44,45.55 C55.44,45.06 55.44,44.4 55.44,43.88 C55.44,43.62 55.44,43.27 55.64,43.25 C55.84,43.23 56,43.44 56.01,43.78 C56.01,44.31 56.01,44.38 56.01,45.56 C56.01,45.56 56.77,45.46 56.86,45.46 C56.95,45.46 57.15,45.46 57.17,45.68 C57.1894475,45.8272694 57.0944675,45.9654221 56.95,46 C56.637023,46.0669904 56.3194682,46.1104453 56,46.13 C55.91,46.13 55.64,46.13 55.55,46.07 C55.46,46.01 55.46,45.81 55.44,45.55 Z" id="Path" fill="#B0B0DB" fill-rule="nonzero"></path>
                <path d="M57.79,43.87 C57.607746,43.87 57.46,43.722254 57.46,43.54 C57.46,43.357746 57.607746,43.21 57.79,43.21 C58.24,43.22 58.21,43.91 57.79,43.87 Z M57.52,44.39 C57.5548234,44.2411526 57.6992088,44.1448957 57.85,44.17 C58.15,44.17 58.11,44.6 58.12,44.89 C58.13,45.18 58.12,45.58 58.12,45.79 C58.1286945,45.8817037 58.0974493,45.9727064 58.0342573,46.0397283 C57.9710652,46.1067501 57.8820562,46.1432898 57.79,46.14 C57.52,46.14 57.51,45.84 57.5,45.62 C57.4816934,45.2099741 57.4883724,44.7992139 57.52,44.39 L57.52,44.39 Z" id="Shape" fill="#B0B0DB" fill-rule="nonzero"></path>
                <path d="M60.6,43.62 C60.6,43.42 60.7,43.25 60.88,43.25 C61.06,43.25 61.13,43.44 61.14,43.6 C61.171861,44.3684125 61.1350482,45.1381353 61.03,45.9 C60.970454,46.0507069 60.8218897,46.1470729 60.66,46.14 C60.45,46.14 60.39,45.99 60.28,45.89 C60.17,45.79 59.28,44.58 59.08,44.3 C59.08,44.57 59.08,45.3 59.08,45.74 C59.08,45.88 59.08,46.14 58.83,46.14 C58.58,46.14 58.55,45.91 58.55,45.78 C58.55,45.32 58.55,44.17 58.55,44 C58.5557561,43.8105359 58.6747601,43.6430732 58.8517896,43.5753212 C59.0288191,43.5075691 59.2292206,43.5527902 59.36,43.69 C59.57,43.84 60.17,44.83 60.56,45.26 C60.57,45 60.57,43.81 60.6,43.62 Z" id="Path" fill="#B0B0DB" fill-rule="nonzero"></path>
            </g>
            <path d="M157.46,173.43 C156.54808,169.074794 154.454964,165.054628 151.41,161.81 L150.14,156.25 L141.7,158.17 C135.24,159.64 131.83,168.85 134.08,178.74 C136.33,188.63 143.39,195.47 149.85,194.01 L158.29,192.09 L157,186.53 C158.351956,182.288177 158.511094,177.756205 157.46,173.43 L157.46,173.43 Z" id="Path" fill="#DFE1F0" fill-rule="nonzero"></path>
            <path d="M214.8,103.4 C197.54,106.92 166.71,112.22 145.71,134.63 C124.71,157.04 148.18,213.79 175.6,219.55 C203.02,225.31 272.23,203.93 282.2,198.13 C292.17,192.33 310,171.73 302,133 C294.08,95.25 257.4,94.72 214.8,103.4 Z" id="Path" fill="#DFE1F0" fill-rule="nonzero"></path>
            <path d="M214.8,103.4 C197.54,106.92 166.71,112.22 145.71,134.63 C124.71,157.04 148.18,213.79 175.6,219.55 C203.02,225.31 272.23,203.93 282.2,198.13 C292.17,192.33 310,171.73 302,133 C294.08,95.25 257.4,94.72 214.8,103.4 Z" id="Path" fill="#FFFFFF" fill-rule="nonzero"></path>
            <path d="M210.51,121.06 C197.23,123.76 173.51,127.84 157.33,145.06 C141.15,162.28 159.23,205.99 180.33,210.43 C201.43,214.87 245.72,202.17 257.33,195.51 C265.04,191.1 276.41,173.98 269.66,144.26 C265,123.27 243.31,114.37 210.51,121.06 Z" id="Path" fill="#5E63B6" fill-rule="nonzero"></path>
            <path d="M186.75,209 C165.65,204.56 147.57,160.88 163.75,143.63 C175.4,131.21 190.96,125.63 203.75,122.44 C190.12,125.31 170.75,130.44 156.92,145.19 C140.75,162.44 158.83,206.13 179.92,210.56 C191.27,212.94 209.32,210.37 225.4,206.45 C211.22,209.45 196.51,211.06 186.75,209 Z" id="Path" fill="#3B438C" fill-rule="nonzero"></path>
            <path d="M306.14,139.94 C305.217486,135.525667 303.092552,131.4523 300,128.17 L298.72,122.54 L290.16,124.48 C283.62,125.97 280.16,135.3 282.45,145.33 C284.74,155.36 291.88,162.28 298.45,160.79 L307.01,158.85 L305.73,153.21 C307.085902,148.908794 307.227783,144.316708 306.14,139.94 L306.14,139.94 Z" id="Path" fill="#DFE1F0" fill-rule="nonzero"></path>
            <ellipse id="Oval" fill="#B0B0DB" fill-rule="nonzero" transform="translate(302.303364, 140.829850) rotate(-12.810000) translate(-302.303364, -140.829850) " cx="302.303364" cy="140.82985" rx="12.19" ry="18.7"></ellipse>
            <path d="M188.38,194.06 L188.38,194.06 C183.631179,195.143582 178.865898,192.316944 177.54,187.63 L175.34,179.88 C174.651603,177.462401 174.98812,174.868069 176.270543,172.706109 C177.552965,170.544149 179.668335,169.004991 182.12,168.45 L182.95,168.26 C185.400572,167.702186 187.972701,168.176914 190.062693,169.572764 C192.152684,170.968613 193.576514,173.162679 194,175.64 L195.37,183.58 C196.19309,188.375359 193.123536,192.977495 188.38,194.06 Z" id="Path" fill="#81CCCC" fill-rule="nonzero"></path>
            <path d="M226.45,185.41 L226.45,185.41 C221.707957,186.489856 216.948696,183.67557 215.61,179 L213.4,171.25 C212.714503,168.831232 213.052119,166.2371 214.333881,164.074363 C215.615643,161.911626 217.729128,160.369976 220.18,159.81 L221.02,159.62 C223.471508,159.065129 226.043312,159.540871 228.134103,160.935992 C230.224894,162.331113 231.651367,164.5233 232.08,167 L233.44,174.94 C234.257234,179.731874 231.189024,184.327605 226.45,185.41 L226.45,185.41 Z" id="Path" fill="#81CCCC" fill-rule="nonzero"></path>
            <line x1="290.52" y1="154.44" x2="292.61" y2="153.53" id="Path" stroke="url(#linearGradient-28)" stroke-width="1.40801251" stroke-linecap="round"></line>
            <line x1="286.23" y1="144.98" x2="288.44" y2="144.44" id="Path" stroke="url(#linearGradient-29)" stroke-width="1.40801251" stroke-linecap="round"></line>
            <line x1="285.55" y1="134.54" x2="287.82" y2="134.37" id="Path" stroke="url(#linearGradient-30)" stroke-width="1.40801251" stroke-linecap="round"></line>
            <line x1="289.14" y1="126.69" x2="291.41" y2="126.49" id="Path" stroke="url(#linearGradient-31)" stroke-width="1.40801251" stroke-linecap="round"></line>
            <path d="M309.09,147.67 L309.3,147.99 L309.3,147.99 C307.98,144.1 309.87,141.92 309.99,139.11 C309.984665,139.066831 309.984665,139.023169 309.99,138.98 L309.99,138.79 C309.832971,137.892391 309.365809,137.078396 308.67,136.49 L308.67,136.49 L308.48,136.31 L308.48,136.31 L308.09,135.97 L308.09,135.97 L307.98,135.88 L307.86,135.78 L307.74,135.69 L307.62,135.6 L307.53,135.54 C306.303926,134.668642 304.986061,133.934259 303.6,133.35 L303.6,133.35 C304.08239,134.706834 304.417647,136.111558 304.6,137.54 C304.744249,139.214725 304.626161,140.901704 304.25,142.54 C302.593632,142.802026 300.906368,142.802026 299.25,142.54 C297.835754,142.261502 296.457157,141.82545 295.14,141.24 L295.26,141.6 C295.264129,141.63655 295.264129,141.67345 295.26,141.71 C295.26,141.8 295.33,141.88 295.36,141.97 C295.39,142.06 295.36,142.05 295.36,142.08 C295.36,142.11 295.43,142.26 295.47,142.34 L295.47,142.45 C295.47,142.55 295.56,142.66 295.6,142.77 L295.6,142.77 C295.66,142.89 295.71,143.01 295.76,143.14 L295.76,143.14 L295.91,143.47 L295.91,143.53 C295.91,143.63 296,143.73 296.05,143.83 L296.05,143.83 C296.100622,143.946256 296.157369,144.059748 296.22,144.17 L296.22,144.17 C296.4,144.52 296.59,144.86 296.79,145.17 L296.79,145.17 C297.088121,145.667176 297.422353,146.141786 297.79,146.59 L297.95,146.77 L297.95,146.77 L298.09,146.92 L298.09,146.92 L298.25,147.07 L298.25,147.07 L298.25,147.07 L298.25,147.07 L298.46,147.25 L298.46,147.25 L298.46,147.25 L298.7,147.42 L298.7,147.42 L298.86,147.53 L298.94,147.53 L299.04,147.59 L299.12,147.59 L299.22,147.64 L299.29,147.64 L299.39,147.64 L299.47,147.64 L299.58,147.64 L299.65,147.64 L299.77,147.64 L299.83,147.64 L300,147.64 L300.11,147.64 C302.93,147.74 305.27,146.04 309.04,147.64" id="Path" fill="#EFEFF8" fill-rule="nonzero"></path>
            <path d="M210,109.44 C212.669115,108.79287 214.316617,106.114005 213.69,103.44 L211.14,92.22 C210.802092,90.4501768 209.525598,89.0056625 207.810793,88.4525818 C206.095987,87.8995011 204.216043,88.3259609 202.907735,89.5648259 C201.599427,90.8036909 201.071172,92.6576072 201.53,94.4 L204.08,105.63 C204.673337,108.309445 207.315466,110.009869 210,109.44 Z" id="Path" fill="#B0B0DB" fill-rule="nonzero"></path>
            <path d="M208.51,96.12 C218.66,93.28 224.51,82.62 222.2,72.34 L219.11,58.75 C218.757707,57.2185413 217.232264,56.2612247 215.7,56.61 L209.58,58 L213.35,74.56 C214.61227,79.765356 211.84249,85.1043314 206.86,87.07 C204.027464,88.1221996 200.878773,87.9018585 198.22039,86.4654121 C195.562006,85.0289657 193.652155,82.5159445 192.98,79.57 L189.77,65.42 C189.417707,63.8885413 187.892264,62.9312247 186.36,63.28 L180.24,64.67 L184.09,81.59 C185.286694,86.8237185 188.574793,91.3389076 193.188629,94.0841589 C197.802465,96.8294101 203.339363,97.5651305 208.51,96.12 Z" id="Path" fill="#9093CC" fill-rule="nonzero"></path>
            <rect id="Rectangle" fill="#DFE1F0" fill-rule="nonzero" transform="translate(201.074962, 66.360260) rotate(167.190000) translate(-201.074962, -66.360260) " x="180.089962" y="59.9952599" width="41.97" height="12.73"></rect>
            <path d="M205.78,110.3 C207.929215,109.209819 209.03761,106.777164 208.45,104.44 L206.55,96.08 L197,98.36 L198.91,106.76 C199.22445,108.223178 200.177785,109.468566 201.50814,110.154077 C202.838495,110.839587 204.405968,110.893131 205.78,110.3 L205.78,110.3 Z" id="Path" fill="#DFE1F0" fill-rule="nonzero"></path>
            <path d="M199.79,98.11 C209.95,95.27 215.79,84.61 213.48,74.33 L209.76,58 L203.23,59.48 C202.602106,59.6207412 202.056117,60.0057552 201.712718,60.5499394 C201.369319,61.0941235 201.256789,61.7526646 201.4,62.38 L204.63,76.58 C205.89227,81.785356 203.12249,87.1243314 198.14,89.09 C195.307352,90.1387425 192.160262,89.9167965 189.502843,88.4808715 C186.845425,87.0449466 184.935108,84.5341438 184.26,81.59 L180.42,64.67 L173.88,66.15 C172.574891,66.4524599 171.760779,67.7541448 172.06,69.06 L175.37,83.61 C176.573539,88.838191 179.86447,93.3459801 184.477479,96.0850727 C189.090489,98.8241653 194.623572,99.55586 199.79,98.11 L199.79,98.11 Z" id="Path" fill="#B0B0DB" fill-rule="nonzero"></path>
            <rect id="Rectangle" fill="#EFEFF8" fill-rule="nonzero" transform="translate(191.686773, 68.501585) rotate(167.190000) translate(-191.686773, -68.501585) " x="170.701773" y="62.1365845" width="41.97" height="12.73"></rect>
            <path d="M198.996501,102.119002 L213.376501,102.119002 C216.099264,102.119002 218.306501,104.326238 218.306501,107.049002 L218.306501,107.049002 C218.306501,109.075887 216.663386,110.719002 214.636501,110.719002 L197.706501,110.719002 C195.679615,110.719002 194.036501,109.075887 194.036501,107.049002 L194.036501,107.049002 C194.036501,105.73627 194.560002,104.477738 195.491054,103.552316 C196.422107,102.626895 197.683793,102.111014 198.996501,102.119002 Z" id="Path" fill="#9093CC" fill-rule="nonzero" transform="translate(206.171501, 106.418957) rotate(-12.810000) translate(-206.171501, -106.418957) "></path>
            <rect id="Rectangle" fill="#B0B0DB" fill-rule="nonzero" transform="translate(209.381329, 96.447648) rotate(-12.810000) translate(-209.381329, -96.447648) " x="206.716329" y="95.4676479" width="5.33" height="1.96"></rect>
            <polygon id="Path" fill="#DFE1F0" fill-rule="nonzero" points="151.43 253.66 98.83 227.37 106.45 225.83 154.3 248.35 226.65 235 233.64 238.39 164.61 253.2 174.08 257.65 174.94 265.4 154.75 255.31 150.45 256.24"></polygon>
            <path d="M160.84,360.67 L237.63,347 C238.839843,346.782213 239.720003,345.729289 239.720003,344.5 L239.720003,239.54 C239.721204,238.78599 239.386034,238.070736 238.805837,237.589172 C238.225639,237.107609 237.460886,236.909926 236.72,237.05 L160.82,250.59 L160.84,360.67 Z" id="Path" fill="#9093CC" fill-rule="nonzero"></path>
            <rect id="Rectangle" fill="#B0B0DB" fill-rule="nonzero" transform="translate(153.225000, 305.635000) rotate(-180.000000) translate(-153.225000, -305.635000) " x="145.61" y="250.6" width="15.23" height="110.07"></rect>
            <polygon id="Path" fill="#EFEFF8" fill-rule="nonzero" points="154.3 248.35 120.72 223.61 120.64 232.51"></polygon>
            <polygon id="Path" fill="#EFEFF8" fill-rule="nonzero" points="208.07 230.69 154.3 248.35 208.07 238.44"></polygon>
            <path d="M224.64,286.63 C220.368839,286.589089 216.103322,286.950673 211.9,287.71 C207.478697,288.649411 203.270546,290.402524 199.49,292.88 C199.12,293.12 198.75,293.36 198.36,293.57 C198.75,293.36 197.55,293.98 198.01,293.79 C197.394527,293.976596 196.760972,294.097273 196.12,294.15 C193.96,294.47 191.79,294.73 189.63,294.99 C185.13,295.516667 180.62,295.943333 176.1,296.27 C174.59,296.38 172.27,296.86 171.16,297.97 C170.05,299.08 172.16,298.97 172.84,298.97 C177.2,298.65 181.55,298.25 185.84,297.74 C190.52,297.2 195.4,296.83 199.89,295.34 C201.96207,294.621448 203.931916,293.636525 205.75,292.41 C206.5,291.92 207.24,291.41 208.03,291 C208.41,290.81 208.8,290.64 209.19,290.49 C208.8,290.64 210.45,290.12 209.75,290.31 C210.372486,290.127175 211.007514,289.990142 211.65,289.9 C212.22,289.81 213.33,289.69 214.13,289.63 C216,289.47 217.89,289.45 219.77,289.42 C221.605748,289.399304 223.405858,288.910555 225,288 C225.29,287.83 226,287.45 225.89,287 C225.78,286.55 224.89,286.59 224.62,286.59 L224.64,286.63 Z" id="Path" fill="#B0B0DB" fill-rule="nonzero"></path>
            <path d="M145.83,360.67 L96.41,333.23 C95.5992493,332.781274 95.0972,331.926641 95.0999883,331 L95.0999883,229.35 C95.1054913,228.471133 95.5631791,227.657037 96.3111992,227.195622 C97.0592193,226.734208 97.9921294,226.690517 98.78,227.08 L145.83,250.59 L145.83,360.67 Z" id="Path" fill="#5E63B6" fill-rule="nonzero"></path>
            <path d="M218.52,299.15 C204.496883,301.001458 190.575915,303.558029 176.81,306.81 C175.75,307.06 173.22,308.11 173.62,309.6 C174.02,311.09 176.79,310.66 177.78,310.42 C190.889877,307.33545 204.146631,304.912387 217.5,303.16 C218.85,302.98 221.34,302.27 221.68,300.69 C222.02,299.11 219.44,299.03 218.52,299.15 L218.52,299.15 Z" id="Path" fill="#B0B0DB" fill-rule="nonzero"></path>
            <path d="M209.66,312.71 L205.95,313.49 C205.45277,313.606399 204.983665,313.820555 204.57,314.12 C204.41,314.25 204.02,314.59 204.13,314.86 C204.281391,315.130856 204.569769,315.296192 204.88,315.29 C205.388096,315.32004 205.897744,315.269413 206.39,315.14 L210.1,314.35 C210.598067,314.241418 211.068051,314.030265 211.48,313.73 C211.64,313.6 212.03,313.26 211.92,312.98 C211.81,312.7 211.45,312.59 211.17,312.56 C210.661816,312.524934 210.151354,312.575642 209.66,312.71 L209.66,312.71 Z" id="Path" fill="#9093CC" fill-rule="nonzero"></path>
            <ellipse id="Oval" fill="#B0B0DB" fill-rule="nonzero" cx="117.78" cy="293.83" rx="9.46" ry="14.78"></ellipse>
            <line x1="153.13" y1="277.29" x2="153.13" y2="332.66" id="Path" stroke="#DFE1F0" stroke-width="2.81602501" stroke-linecap="round" stroke-linejoin="round"></line>
            <ellipse id="Oval" fill="#DFE1F0" fill-rule="nonzero" cx="244.02" cy="394.5" rx="31.88" ry="4.59"></ellipse>
        </g>
    </g>
</svg>