<svg width="450" height="406" xmlns="http://www.w3.org/2000/svg">
  <g fill="none" fill-rule="evenodd">
    <path stroke="#B0B0DB" stroke-width="2.681" stroke-linecap="round" d="M40.47 15.8l.11-9.51M35.77 10.99l9.51.11M32.37 404.51l.11-9.51M27.67 399.7l9.51.11"/>
    <path d="M269.4 5.42c43.21 7.75 103.39 24.74 145.09 99.71 37.82 68 60.23 171.89-10.95 237.21-71.18 65.32-287.44 86-369.57 0S14.24-40.29 269.4 5.42z" fill="#EFEFF8" fill-rule="nonzero"/>
    <path stroke="#B0B0DB" stroke-width="2.681" stroke-linecap="round" d="M429.05 399.75l.11-9.51M424.35 394.94l9.51.11"/>
    <ellipse fill="#DFE1F0" fill-rule="nonzero" cx="239.16" cy="325.88" rx="206.74" ry="19.52"/>
    <path d="M160.71 129.65c14.24 5.26 28.9 9.91 44 11.7 8.52 1 18 1 25.74-3.2 6.34-3.46 9.66-9.67 10.42-16.67.73-6.75-1.2-13.83-3.62-20.07-4.54-11.72-11.55-23.44-23.9-28.07a18.48 18.48 0 00-18.42 3 19.77 19.77 0 00-6.67 10.73c-1.3 6.05-.23 12.45 1.75 18.23a63.81 63.81 0 0010.56 19c4.12 5.18 9.39 9.92 15.46 12.68 6.64 3 14.11 4 21.09 1.46 8.9-3.24 15.51-10.29 20.61-18.05a105.42 105.42 0 008.92-17.39A165.7 165.7 0 00274 81.2c2.21-8.45 3.71-18.32.75-26.8-2.14-6.11-6.74-11.56-13.36-12.83a22.94 22.94 0 00-17.89 4.53 41.17 41.17 0 00-13.79 19.25c-3.49 9.54-3.73 19.92-2.36 29.87a87.84 87.84 0 004.44 17.71c2.55 7.1 5.61 14.27 10 20.42 3.72 5.18 8.35 10 14.23 12.69a30.19 30.19 0 0016.54 2.64c12.53-1.6 23.37-8.75 33-16.57a172.75 172.75 0 0013.95-12.84 5.314 5.314 0 00-7.52-7.51 177.72 177.72 0 01-13.69 12.63l-1.79 1.44-.36.28-.62.47c-1.19.9-2.39 1.77-3.62 2.61a74.47 74.47 0 01-7.29 4.47c-1.153.62-2.323 1.2-3.51 1.74l-.91.41c-.52.23.69-.29.62-.26-.07.03-.35.14-.52.21-.6.24-1.21.47-1.81.68-1.19.42-2.39.79-3.61 1.09-.56.14-1.11.27-1.67.38l-.89.16-.38.06c-.89.16.28 0 .52-.06-1.18.11-2.34.24-3.53.24h-1.62l-.86-.07c-.51 0-1.55-.36.18 0-1.09-.25-2.2-.39-3.28-.71-.56-.17-1.12-.35-1.67-.56-.21-.08-1.09-.44-.2-.06.89.38-.2-.1-.42-.21a25.19 25.19 0 01-3.23-1.85l-.79-.55-.34-.25c-.46-.3.57.44.52.4-.53-.49-1.12-.92-1.66-1.4a35.22 35.22 0 01-3-3.1l-.63-.75-.41-.52c-.38-.43.32.43.31.41-.45-.67-1-1.3-1.43-2a64.3 64.3 0 01-5.35-9.64c-.34-.73-.66-1.46-1-2.2-.54-1.24.26.64-.11-.24l-.54-1.33c-.6-1.513-1.17-3.037-1.71-4.57a93.798 93.798 0 01-2.54-8.57c-.33-1.38-.64-2.77-.9-4.16-.12-.62-.23-1.25-.34-1.88l-.15-1c-.05-.28-.22-1.55-.09-.57.13.98 0-.21-.05-.41l-.09-.83c-.07-.68-.13-1.36-.19-2.05-.09-1.19-.15-2.38-.17-3.58a60.13 60.13 0 01.24-7c.06-.55.12-1.1.19-1.65.09-.87-.2 1.35-.07.49.05-.3.09-.61.14-.91.17-1 .36-2.06.59-3.09a47.61 47.61 0 011.63-5.59c.16-.44.33-.89.5-1.32.08-.19.16-.37.23-.56.22-.56-.55 1.27-.3.72.05-.11.1-.24.15-.36.37-.82.76-1.63 1.17-2.42a36.34 36.34 0 012.67-4.34c.13-.19.47-.86.67-.91-.15 0-1 1.26-.35.46l.37-.45c.5-.6 1-1.18 1.55-1.73s1.05-1.06 1.61-1.55c.25-.23.51-.45.76-.66l.42-.34c.76-.62-1.06.79-.48.37a29.06 29.06 0 013.43-2.16l.81-.39.43-.19c.58-.28-1.49.58-.71.3.58-.21 1.15-.43 1.74-.6.59-.17 1.15-.3 1.73-.41l.43-.07c.65-.14-1.6.17-.93.13.3 0 .6-.07.91-.08a11.5 11.5 0 011.66 0c.25.053.505.076.76.07-.08 0-1.75-.29-.9-.12l.4.07c.525.103 1.043.24 1.55.41.57.2 1.4.75-.42-.2.23.12.49.22.72.34.475.255.935.535 1.38.84.91.6-1.13-1-.37-.3.22.2.45.39.67.6.22.21.8 1.14 1.16 1.28-.06 0-1-1.31-.52-.67l.26.36c.17.26.34.52.5.78.33.56.6 1.14.89 1.72.37.75-.53-1.35-.28-.67 0 .14.11.27.16.41.13.35.26.71.37 1.07.23.716.42 1.443.57 2.18.08.36.14.72.21 1.08 0 .2 0 .41.09.61s-.19-1.59-.09-.62a38.85 38.85 0 01.2 5.5c0 1-.11 2.07-.21 3.1l-.18 1.51c-.07.64.2-1.33.09-.69 0 .12 0 .24-.05.36l-.15 1c-.41 2.45-1 4.87-1.6 7.26a176.37 176.37 0 01-7.24 21.23c-.22.55.19-.44.19-.44-.08.16-.14.33-.21.49-.17.38-.33.76-.5 1.13-.32.74-.653 1.47-1 2.19-.65 1.39-1.32 2.75-2 4.11a85.641 85.641 0 01-4.14 7.12c-.68 1-1.38 2-2.11 3l-.46.6c-.5.67.83-1 .15-.19-.38.47-.76.94-1.15 1.4a42.47 42.47 0 01-4.24 4.35l-1 .86-.55.43c-.39.35.82-.62.69-.53l-.39.29c-.71.51-1.43 1-2.18 1.46-.75.46-1.43.83-2.18 1.19-.17.08-1 .31-1 .45.06-.15 1.53-.6.57-.25l-.54.21c-.72.25-1.44.47-2.17.66-.34.08-2 .18-2.16.41.08-.11 1.73-.19.72-.1h-.46c-.38 0-.76.02-1.14.06a18.76 18.76 0 01-2.12-.05l-1-.09c-.87-.09 1.48.24.74.1l-.6-.1c-.667-.12-1.333-.27-2-.45-.69-.18-1.37-.4-2-.64l-.93-.36c-.63-.24 1.43.63.63.26l-.57-.25a30.91 30.91 0 01-3.77-2.1c-.63-.4-1.25-.83-1.85-1.28l-.46-.34c-.18-.13 1.23 1 .5.39-.29-.25-.59-.48-.89-.73a48 48 0 01-6.47-6.67c-.47-.59-1-1.26 0 0l-.71-1c-.47-.64-.93-1.29-1.37-2-.88-1.31-1.7-2.67-2.47-4.05-.77-1.38-1.44-2.7-2.07-4.09l-.47-1c-.33-.77.19.54.29.67a3.16 3.16 0 01-.25-.6c-.28-.69-.54-1.39-.79-2.09-.48-1.36-.9-2.73-1.25-4.13-.16-.64-.3-1.29-.43-1.94l-.18-1c-.05-.33-.23-1.58-.06-.34s0 .07 0-.25-.06-.67-.09-1c0-.61-.06-1.21-.06-1.82 0-.61 0-1.16.08-1.74a3.5 3.5 0 00.08-.78c0 .08-.27 1.75-.11.89l.06-.4c.1-.52.22-1 .37-1.54.067-.24.147-.48.24-.72 0-.1.08-.2.11-.3.27-.81-.58 1.23-.33.78.38-.7.72-1.39 1.16-2.06.17-.27.36-.52.54-.78.51-.74-.77.85 0 0a19.81 19.81 0 011.51-1.53 3.88 3.88 0 00.31-.26c.39-.37-.58.43-.54.41a8 8 0 00.77-.52l.79-.46c.46-.24 1.44-.45-.12 0 .52-.15 1-.37 1.55-.5.29-.07.58-.11.86-.18.78-.18-1.39.11-.29.05.59-.03 1.18-.03 1.77 0l.77.07c.65 0-1.28-.22-.64-.09l.52.1a16.92 16.92 0 012.61.74l.39.15c1 .34-.89-.44-.35-.15a35.87 35.87 0 013.63 2c.26.17.51.36.77.54 1 .73-.65-.56.06 0s1.17 1 1.73 1.5a36.35 36.35 0 013.29 3.51c.17.169.322.357.45.56 0 0-.63-.85-.28-.37s.51.68.75 1c.5.7.98 1.42 1.44 2.16a56.63 56.63 0 013.58 6.92c.18.39.35.78.52 1.18 0 .08.07.18.11.26.3.69-.33-.8-.3-.73.09.24.2.48.29.72.33.79.64 1.59.94 2.4a53.74 53.74 0 012.64 9.5c.06.34.11.69.17 1 .12.71-.2-1.66-.09-.7l.06.55c.08.71.13 1.43.16 2.15s0 1.38 0 2.07a8.88 8.88 0 00-.17 2c-.07-.06.28-1.74.1-.79 0 .13 0 .27-.07.41-.06.333-.13.667-.21 1a15.81 15.81 0 01-.53 1.78l-.13.37c-.29.82.43-1 .31-.73s-.25.55-.39.82a12.65 12.65 0 01-.92 1.55c-.08.13-.17.25-.26.37-.44.65.46-.65.52-.66-.13 0-.54.64-.63.74a16.45 16.45 0 01-1.35 1.29c-.93.82 1-.67.27-.2l-.87.6a18.33 18.33 0 01-1.74 1l-.48.23c-.8.37.42-.11.62-.26a4.39 4.39 0 01-1.05.4c-.74.26-1.5.48-2.27.67-.77.19-1.68.38-2.53.51l-.62.29c-.75.12 1.53-.18.53-.07l-1.53.15a52.28 52.28 0 01-6.26.1c-1.19 0-2.39-.12-3.58-.23-.59 0-1.18-.11-1.76-.18l-1-.11c-.27 0-1.54-.2-.57-.07.97.13-.26 0-.45-.07l-.89-.13-2.27-.38c-1.5-.27-3-.56-4.48-.88-3.24-.69-6.47-1.49-9.67-2.37-7.64-2.11-15.16-4.64-22.6-7.38-2.61-1-5.93 1.07-6.53 3.71a5.44 5.44 0 003.71 6.53l.06.03z" fill="#9093CC" fill-rule="nonzero"/>
    <path fill="#FEDDA1" fill-rule="nonzero" d="M209.29 135.87h187.05v187.05H209.29z"/>
    <path fill="#FCCE76" fill-rule="nonzero" d="M89.18 135.87h120.11v187.05H89.18z"/>
    <path stroke="#9093CC" stroke-width="15.386" d="M143.38 135.87v187.05M302.82 135.87v187.05"/>
    <path stroke="#FFF" stroke-width="4.856" stroke-linecap="round" stroke-linejoin="round" d="M77.75 224.98H40.52M60.76 241.98H4.1"/>
    <g transform="translate(279.05 160.84)" fill-rule="nonzero">
      <ellipse fill="#FFF" cx="23.45" cy="25.66" rx="22.5" ry="25.5"/>
      <path d="M31.428 38.516c.098.342.187.563.214.644-.68-7.327 3.013-10.387 4.202-15.258.008-.082.023-.163.044-.242l.054-.332c.075-1.634-.366-3.245-1.243-4.549-.071-.14-.152-.272-.232-.413-.149-.248-.31-.5-.483-.755l-.053-.08-.143-.201-.152-.212c-.054-.07-.099-.14-.152-.201l-.152-.221a.835.835 0 01-.117-.141 34.857 34.857 0 00-5.363-5.395c.27 2.566.29 5.158.063 7.73a31.962 31.962 0 01-2.298 8.565c-2.656-.22-5.267-.9-7.74-2.013a31.166 31.166 0 01-5.927-3.915c0 .231.045.453.072.684v.201l.053.494v.22c0 .162.045.333.072.494v.191c0 .212.062.413.098.614v.06c.045.242.08.474.125.715v.05c0 .212.072.423.116.625v.13c0 .192.072.383.117.574v.11c.044.212.089.434.143.645.16.694.34 1.359.527 2.013.3 1 .671 1.973 1.108 2.909l.188.362c.054.11.116.211.17.312.06.111.126.219.197.322l.25.393v.06c.094.14.196.275.304.403.07.092.144.179.223.261l.09.1.143.142.107.1.134.121.116.09.134.111.117.081.151.09.099.061.179.09h.089l.268.101c.056.016.11.04.161.07 4.353 1.289 8.581-.764 13.891 3.513" fill="#9452BA"/>
    </g>
  </g>
</svg>