<?xml version="1.0" encoding="UTF-8"?>
<svg width="487px" height="274px" viewBox="0 0 487 274" version="1.1" xmlns="http://www.w3.org/2000/svg" xmlns:xlink="http://www.w3.org/1999/xlink">
    <!-- Generator: Sketch 64 (93537) - https://sketch.com -->
    <title>illus-may-20</title>
    <desc>Created with Sketch.</desc>
    <g id="illus-may-20" stroke="none" stroke-width="1" fill="none" fill-rule="evenodd">
        <path d="M326.99526,138.000094 C329.025884,137.979696 330.451779,136.375474 330.554245,133.996466 C330.943256,124.959326 330.450341,106.094079 330.408276,102.829548 C330.371964,100.036721 330.586603,96.0017181 327.326746,95.919386 C324.112191,95.8374133 322.074735,98.8337347 320.306927,100.853573 C318.309379,103.136587 310.872147,111.213783 310.872147,111.213783 C310.872147,111.213783 302.490429,102.893904 300.263502,100.511301 C298.132928,98.2318817 296.792241,96.2584229 293.718262,96.0732648 C291.119221,95.917229 289.964771,98.1384039 289.833903,100.533591 C289.730358,102.426156 290.067597,123.588798 290.101752,127.441519 C290.136627,131.430861 290.675922,134.3071 293.574091,134.28373 C296.620386,134.258203 297.882336,131.870925 298.050596,129.266492 C298.286088,125.618702 297.899233,110.968224 297.899233,110.968224 C297.899233,110.968224 306.015978,120.165715 310.929671,120.236542 C315.377054,120.301257 320.516893,112.375782 322.424557,110.625591 C322.673712,112.855395 322.478847,133.055935 322.983987,134.777364 C323.512855,136.584361 324.711527,138.02248 326.99526,138.000094 Z M386.189502,128.634948 C386.280822,125.217977 386.181952,117.047303 386.171166,116.161063 C386.819757,115.454587 396.637437,104.751745 398.219727,102.256609 C399.149111,100.790447 399.891181,97.976767 396.781608,96.5041327 C395.073841,95.6951886 392.987849,96.0284729 391.417783,97.9720911 C388.833842,101.170108 384.112137,106.457354 382.116028,108.424341 C380.119919,106.457354 375.397855,101.170109 372.813915,97.9720917 C371.243489,96.0284735 369.157856,95.6951892 367.45009,96.5041315 C364.340517,97.9771252 365.082227,100.790446 366.011971,102.256608 C367.648192,104.836953 378.095768,116.199532 378.095768,116.199532 C378.095768,116.199532 378.347798,127.585481 378.295667,129.940401 C378.219446,133.360608 378.434085,137.913693 382.056707,137.998182 C386.941638,138.111794 386.075172,132.881354 386.189502,128.634948 Z M369.928328,137.577531 C371.546212,136.858472 372.991522,133.843455 371.84606,131.585248 C367.651426,123.316064 365.938627,118.820144 363.75664,114.447543 C361.101154,109.126861 356.819154,97.3698779 352.011881,97.3698779 C346.798699,97.3698779 344.659138,103.353892 342.933395,108.26399 C340.754644,114.460485 338.248362,120.557751 336.008851,126.908485 C335.113622,129.447844 333.965284,133.081252 335.878342,134.718191 C336.725753,135.443362 339.275179,135.933401 340.806417,134.641251 C342.724149,133.023367 344.915842,126.462308 344.915842,126.462308 L360.012856,126.296565 C360.012856,126.296565 363.447444,133.38074 364.377548,135.136324 C365.819622,137.858683 367.715422,138.560845 369.928328,137.577531 Z M347.5778,118.402371 C348.49496,115.883864 350.993333,108.815149 351.712392,106.597929 C352.50947,108.214016 356.045085,116.243394 357.063633,118.400573 C354.606967,118.460615 349.580021,118.400573 347.5778,118.402371 Z" id="Ma" fill="#5563B6" fill-rule="nonzero"></path>
        <g id="Group" transform="translate(32.000000, 42.000000)">
            <path d="M33.467623,77.692769 C40.8478526,75.1011523 50.1370881,77.3722875 61.3353296,84.5061747 L66.994116,112.26666 C49.0495188,121.908868 35.4735119,126.278345 26.2660951,125.375089 C17.4900232,124.514149 9.12464015,120.504149 1.16994586,113.345088 L1.16993092,113.345104 C0.759407514,112.975642 0.726121148,112.343338 1.09558374,111.932815 C1.18840911,111.829673 1.30168381,111.746979 1.42820309,111.689991 C4.11232272,110.480986 6.38074714,108.714875 8.23347635,106.39166 C11.4926396,102.304857 22.3972787,81.580194 33.467623,77.692769 Z" id="Rectangle" stroke="#5563B6" stroke-width="4" fill="#FFFFFF" stroke-linejoin="round"></path>
            <path d="M89.4824621,143.031196 C96.8626916,140.43958 108.799649,142.272847 125.293334,148.530999 L127.096913,155.764759 C115.255152,171.916784 104.730563,179.541168 95.5231466,178.637913 C86.6003708,177.762581 78.1021291,173.632027 70.0284213,166.246252 L70.028407,166.246267 C69.6208993,165.873482 69.5927513,165.24093 69.9655367,164.833422 C69.9764461,164.821496 69.987643,164.809837 69.9991175,164.798454 C73.0364505,161.785414 75.5607077,159.017941 77.5718892,156.496035 C80.8310524,152.409232 78.4121178,146.918621 89.4824621,143.031196 Z" id="Rectangle" stroke="#5563B6" stroke-width="4" fill="#FFFFFF" stroke-linejoin="round" transform="translate(98.176982, 160.301224) rotate(-76.000000) translate(-98.176982, -160.301224) "></path>
            <path d="M67.0728939,0 C69.3632307,0 89.8495422,11.2431377 95.9205413,20.0607802 C99.967874,25.9392086 99.0710131,34.5876503 93.2299585,46.0061053 L68.2962383,46.0061053 C63.0217991,39.4256406 60.2625858,33.1432103 60.0185984,27.1588144 C59.6526172,18.1822207 64.7825572,0 67.0728939,0 Z" id="Rectangle" stroke="#5563B6" stroke-width="4" fill="#FFFFFF"></path>
            <path d="M41.2728192,52.7124225 C42.330873,51.0651091 49.191337,51.957817 52.0382869,51.1299149 C58.5467814,49.237224 65.3383319,42.165765 77.1177195,41.8387554 C80.8159709,41.7360877 85.7716876,45.3606434 91.9848696,52.7124225 C90.9183041,44.4981042 93.5306538,38.3270608 99.8219187,34.1992922 C102.504889,32.4389657 107.561187,29.6959016 110.248803,26.2484798 C112.200752,23.7447034 111.63141,20.0546188 114.169742,20.0546188 C115.665456,20.0546188 119.162692,25.8264919 125.153816,28.4949045 C129.368545,30.3721202 140.975756,39.8454276 142.069718,49.9809408 C142.50784,54.0401195 139.617617,60.4633828 133.399049,69.2507306 C139.066634,64.3074186 146.517669,63.0936721 155.752152,65.6094911 C169.603878,69.3832196 179,87.4981468 179,89.2882205 C179,91.0782942 174.823944,92.7467288 170.749908,95.5 C167.124116,97.9503426 160.485993,111.10599 155.752152,112.981671 C153.07225,114.043524 149.748003,114.043524 145.77941,112.981671 C148.971414,115.451364 150.970035,119.886556 151.775274,126.287247 C152.983132,135.888284 145.685088,155.934306 138.676528,159.69803 C135.890238,161.194318 136.342173,157.729096 129.039425,154.469131 C121.736676,151.209165 114.169742,150.935355 106.382333,146.113491 C101.190726,142.898915 100.183565,133.397736 103.360847,117.609953 C98.8543821,133.41871 93.8320674,142.542296 88.2939032,144.98071 C83.9213026,146.905935 78.1474591,146.806742 66.7114442,144.98071 C62.0936321,144.243366 59.5047784,149.622977 57.4232289,149.622977 C55.3416795,149.622977 52.6244482,145.298913 50.6397919,137.529675 C48.5700192,129.427237 50.0656728,107.465712 57.4232289,100.127293 C62.3282663,95.235014 67.4479114,92.4902835 72.7821642,91.8931015 C62.4810139,93.6881421 55.5663881,92.3953929 52.0382869,88.0148539 C49.6649749,85.0681171 47.3932812,80.9606419 44.9376123,71.183598 C44.4241745,69.1393874 40.9307855,65.271062 40.0281243,60.5462081 C39.5656592,58.1254993 40.2147655,54.3597359 41.2728192,52.7124225 Z" id="Rectangle" stroke="#5563B6" stroke-width="5" fill="#FFFFFF" stroke-linejoin="round"></path>
            <path d="M113.869801,43.3946469 C119.348856,42.3247484 123.155964,42.5179319 125.291122,43.9741973 C127.426281,45.4304628 129.506103,49.8633119 131.530587,57.2727446" id="Line" stroke="#E1F2FF" stroke-width="4" stroke-linecap="round" transform="translate(122.700194, 49.993848) rotate(49.000000) translate(-122.700194, -49.993848) "></path>
            <path d="M148.764589,87.6637987 C153.939706,89.0733981 157.594844,90.4503203 159.730002,91.7945653 C161.865161,93.1388104 164.87669,95.7618881 168.764589,99.6637987" id="Line" stroke="#E1F2FF" stroke-width="4" stroke-linecap="round" transform="translate(158.764589, 93.663799) rotate(-77.000000) translate(-158.764589, -93.663799) "></path>
            <path d="M119.45148,115.910274 C117.532225,118.234664 116.311232,120.700039 115.7885,123.306399 C114.995119,127.262224 117.360844,131.25395 117.414892,135.125689 C117.489482,140.469017 112.16916,143.336556 113.791402,144.239835 C116.730244,145.87621 125.282066,148.069778 130.881527,146.777041 C134.614501,145.915216 137.943075,144.465324 140.867248,142.427366" id="Line" stroke="#E1F2FF" stroke-width="4" stroke-linecap="round" transform="translate(127.175383, 131.538980) rotate(-77.000000) translate(-127.175383, -131.538980) "></path>
            <path d="M66.0446128,117.322639 C67.2581518,125.788546 69.1993955,130.861653 71.8683438,132.541959 C74.5372921,134.222265 81.0721028,134.337695 91.4727758,132.888248" id="Line" stroke="#E1F2FF" stroke-width="4" stroke-linecap="round" transform="translate(78.758694, 125.608893) rotate(-58.000000) translate(-78.758694, -125.608893) "></path>
            <path d="M106.161854,82.9372488 C108.672637,80.0901416 119.584252,84.1102756 135.058915,68.8896787 C150.533577,53.6690818 163.972036,20.5658847 164.837712,20.0546188 C165.703388,19.5433529 165.346195,20.0546188 165.346195,21.5577549 C165.346195,23.0608909 147.417901,63.5715907 141.687739,70.0172509 C132.779723,80.0375693 128.28055,84.549011 121.658642,88.0448428 C115.036733,91.5406746 109.835206,91.445193 107.798561,91.6387296 C104.747962,91.9286195 103.651071,85.7843561 106.161854,82.9372488 Z" id="Rectangle" stroke="#89C3EA" fill="#89C3EA" stroke-linejoin="round"></path>
            <path d="M71.4279706,72.7742748 C71.55642,72.8853929 71.6389946,72.9711263 71.6674852,72.9984269 C71.6694168,73.0036954 71.6670024,72.9936373 71.6674852,72.9984269 C71.6674852,72.9993848 71.6679681,72.9979479 71.6679681,72.9979479 C68.5489661,71.3244705 66.4256882,72.5980184 64.0150894,72.2977121 C63.9817698,72.287654 63.9441042,72.2795117 63.9011267,72.2728063 C63.8475257,72.265143 63.7929589,72.254127 63.7398407,72.2411951 C63.1048372,72.0831391 62.5094308,71.5529332 61.9758347,70.7937856 C61.9729374,70.789954 61.9705229,70.7861223 61.9676256,70.7818117 C61.9222337,70.7195472 61.8792563,70.65393 61.8362788,70.5887918 C61.8362788,70.5887918 61.8357959,70.586876 61.8343473,70.586397 C61.7561187,70.4656998 61.678373,70.3378181 61.602076,70.2080206 C61.5943497,70.1946098 61.5856577,70.181678 61.5779314,70.1682672 C61.5581328,70.1313874 61.5378513,70.0945077 61.517087,70.0585859 C61.4958397,70.0207483 61.4745924,69.9838685 61.4543109,69.9469888 C61.4340295,69.9081933 61.4142309,69.8708346 61.3949152,69.8334759 C61.3736679,69.7942014 61.3538693,69.7554058 61.333105,69.7161313 C61.3191011,69.6897887 61.3050972,69.6610512 61.2906104,69.6323138 C60.7526683,68.5632807 60.3156507,67.2791957 60.0032193,65.9994213 C60.0032193,65.9994213 59.9959759,65.9869684 60.0032193,65.9994213 C61.1751991,66.6330821 62.3945025,67.1537088 63.4235462,67.4410833 C64.663131,67.7883275 66.2151471,67.9339306 67.7053531,67.8644817 C68.1616864,66.4568257 68.4253457,64.9342199 68.4123076,63.6563614 C68.4002353,62.5878072 68.2186677,61.2946221 67.9018903,60 C67.9989517,60.0522064 68.0950473,60.1063286 68.1921086,60.1594928 C68.2201164,60.1757774 68.248607,60.1925409 68.2775806,60.2093044 C68.3461513,60.2481 68.414722,60.2864166 68.482327,60.3276069 C68.513715,60.3448494 68.5455859,60.3640077 68.576491,60.382687 C68.6450617,60.4233984 68.7121837,60.4636308 68.7797887,60.5048212 C68.8068307,60.5215847 68.8348384,60.5383482 68.8623633,60.5546328 C68.9473523,60.607797 69.0318585,60.6604824 69.1153989,60.7141256 C69.124091,60.7189152 69.132783,60.7241837 69.1405093,60.7299312 C69.2380536,60.7907588 69.3341492,60.8544601 69.4297619,60.9176825 C69.4374881,60.9219931 69.4442486,60.9277406 69.4519749,60.9325302 C69.5384126,60.9900051 69.621953,61.047001 69.7064592,61.1049549 C69.7243262,61.1164499 69.7407446,61.1293817 69.7581287,61.1403977 C69.8349086,61.193562 69.9107227,61.2476842 69.9870197,61.3018064 C70.0010236,61.3128224 70.0150274,61.3238385 70.03048,61.3343755 C70.1178835,61.3975979 70.2043213,61.4608203 70.2893103,61.5250006 C70.2893103,61.5250006 70.2902761,61.5259585 70.2912419,61.5259585 C70.5621445,61.7323892 70.8209749,61.9416936 71.0643526,62.1538718 C71.0677329,62.1562665 71.0706302,62.1591403 71.0740105,62.1610561 C71.4786743,62.5174005 71.8379463,62.8804502 72.1334764,63.2425421 C72.1764538,63.2957064 72.2179826,63.3488707 72.2580627,63.401556 C72.2595113,63.4039508 72.2619258,63.4049087 72.2628916,63.4068245 L72.2628916,63.4077824 C72.3000743,63.4556782 72.3358083,63.5040529 72.3691279,63.5509907 L72.3696108,63.5524276 C72.3710595,63.5538645 72.3720253,63.5562592 72.372991,63.5576961 C72.4101738,63.6089446 72.4459078,63.660193 72.4787445,63.7119204 L72.4792274,63.7119204 C72.4835734,63.7191048 72.4869537,63.7253312 72.4917826,63.7329946 C72.4922655,63.7339525 72.4932313,63.7334735 72.4932313,63.7344314 C72.5366916,63.8005276 72.5777374,63.8675816 72.615403,63.9322409 C72.6211977,63.9442148 72.6269924,63.9547519 72.63327,63.96481 C72.6356845,63.9686416 72.6371332,63.9729522 72.6409963,63.9772629 C72.6825251,64.0519802 72.7216394,64.1266976 72.7564076,64.2023729 C72.7820009,64.2541003 72.804214,64.3063066 72.8259441,64.358513 C72.8346362,64.381024 72.8423625,64.4025771 72.8505716,64.4241302 C72.8631268,64.4566993 72.8737505,64.4883105 72.8858228,64.5208796 C72.8935491,64.5438696 72.8998267,64.5673385 72.90707,64.5922443 C72.9167279,64.6214607 72.9249371,64.6521139 72.9331462,64.6818093 C72.9394238,64.7052782 72.9447356,64.7282682 72.9495646,64.752695 C72.956808,64.7823904 72.9630856,64.8120857 72.9688803,64.8422601 C72.9727434,64.8647711 72.9761237,64.8887189 72.9799868,64.9117089 C72.9843328,64.9423622 72.9872302,64.9739734 72.9915762,65.0036687 C72.9939907,65.0252218 72.9954393,65.0467749 72.996888,65.0673701 C72.9988196,65.101855 72.9993025,65.135382 72.9997854,65.1708249 C72.9997854,65.1861515 73.0002683,65.2043519 72.9997854,65.2215944 C72.9993025,65.2733218 72.9954393,65.3240913 72.9896446,65.3739029 C72.9862644,65.4083878 72.9843328,65.4380832 72.9843328,65.4658627 C72.6574147,67.8587342 70.8687812,69.584418 71.6674852,72.9984269" id="Fill-583" fill="#9452BA"></path>
            <circle id="Oval" stroke="#89C3EA" fill="#89C3EA" cx="150" cy="42" r="2"></circle>
            <circle id="Oval" stroke="#89C3EA" fill="#89C3EA" cx="159" cy="46" r="2"></circle>
            <circle id="Oval" stroke="#89C3EA" fill="#89C3EA" cx="157" cy="41" r="2"></circle>
            <circle id="Oval" stroke="#89C3EA" fill="#89C3EA" cx="162" cy="38" r="2"></circle>
            <circle id="Oval" stroke="#89C3EA" fill="#89C3EA" cx="159" cy="33" r="2"></circle>
            <circle id="Oval" stroke="#89C3EA" fill="#89C3EA" cx="154" cy="34" r="2"></circle>
            <circle id="Oval" stroke="#89C3EA" fill="#89C3EA" cx="157" cy="28" r="2"></circle>
            <circle id="Oval" stroke="#89C3EA" fill="#89C3EA" cx="160" cy="21" r="2"></circle>
            <circle id="Oval" stroke="#89C3EA" fill="#89C3EA" cx="166" cy="18" r="2"></circle>
            <circle id="Oval" stroke="#89C3EA" fill="#89C3EA" cx="166" cy="24" r="2"></circle>
            <circle id="Oval" stroke="#89C3EA" fill="#89C3EA" cx="165" cy="32" r="2"></circle>
            <circle id="Oval" stroke="#89C3EA" fill="#89C3EA" cx="162" cy="27" r="2"></circle>
            <path d="M22.5,108.5 C26.8305941,103.164204 30.4962801,99.7761197 33.497058,98.3357463 C36.4978359,96.8953729 41.1654833,96.2834575 47.5,96.5" id="Line-24" stroke="#89C3EA" stroke-width="3" stroke-linecap="round"></path>
            <path d="M75,32 C77.2519089,29.3415066 79.1580656,27.6534358 80.7184702,26.9357878 C82.2788747,26.2181398 84.7060513,25.9132606 88,26.0211502" id="Line-24" stroke="#89C3EA" stroke-width="3" stroke-linecap="round" transform="translate(81.500000, 29.000000) rotate(80.000000) translate(-81.500000, -29.000000) "></path>
            <path d="M91,163 C93.7926343,160.004867 96.0891849,157.787114 97.8896516,156.346741 C99.6901184,154.906367 102.393568,153.12412 106,151" id="Line-24" stroke="#89C3EA" stroke-width="3" stroke-linecap="round" transform="translate(98.500000, 157.000000) scale(-1, 1) rotate(-46.000000) translate(-98.500000, -157.000000) "></path>
        </g>
        <line x1="439.25" y1="22.3157895" x2="439.25" y2="33.6842105" id="Line-16" stroke="#ACD3EF" stroke-width="3" stroke-linecap="round"></line>
        <line x1="444.676471" y1="28.25" x2="434.323529" y2="28.25" id="Line-16" stroke="#ACD3EF" stroke-width="3" stroke-linecap="round"></line>
        <line x1="329" y1="27.8684211" x2="329" y2="34.8684211" id="Line-16" stroke="#5563B6" stroke-width="2" stroke-linecap="round"></line>
        <line x1="332.823529" y1="31.1184211" x2="325.823529" y2="31.1184211" id="Line-16" stroke="#5563B6" stroke-width="2" stroke-linecap="round"></line>
        <line x1="385" y1="74.8684211" x2="385" y2="81.8684211" id="Line-16" stroke="#5563B6" stroke-width="2" stroke-linecap="round"></line>
        <line x1="388.823529" y1="78.1184211" x2="381.823529" y2="78.1184211" id="Line-16" stroke="#5563B6" stroke-width="2" stroke-linecap="round"></line>
        <line x1="210.25" y1="35.3157895" x2="210.25" y2="46.6842105" id="Line-16" stroke="#ACD3EF" stroke-width="3" stroke-linecap="round"></line>
        <line x1="215.676471" y1="41.25" x2="205.323529" y2="41.25" id="Line-16" stroke="#ACD3EF" stroke-width="3" stroke-linecap="round"></line>
        <line x1="370.25" y1="188.315789" x2="370.25" y2="199.684211" id="Line-16" stroke="#ACD3EF" stroke-width="3" stroke-linecap="round"></line>
        <line x1="375.676471" y1="194.25" x2="365.323529" y2="194.25" id="Line-16" stroke="#ACD3EF" stroke-width="3" stroke-linecap="round"></line>
        <line x1="299.5" y1="199.5" x2="299.5" y2="206.5" id="Line-16" stroke="#5563B6" stroke-width="2" stroke-linecap="round"></line>
        <line x1="303.323529" y1="202.75" x2="296.323529" y2="202.75" id="Line-16" stroke="#5563B6" stroke-width="2" stroke-linecap="round"></line>
        <line x1="460" y1="225.868421" x2="460" y2="232.868421" id="Line-16" stroke="#5563B6" stroke-width="2" stroke-linecap="round"></line>
        <line x1="463.823529" y1="229.118421" x2="456.823529" y2="229.118421" id="Line-16" stroke="#5563B6" stroke-width="2" stroke-linecap="round"></line>
        <line x1="242" y1="241.868421" x2="242" y2="248.868421" id="Line-16" stroke="#5563B6" stroke-width="2" stroke-linecap="round"></line>
        <line x1="245.823529" y1="245.118421" x2="238.823529" y2="245.118421" id="Line-16" stroke="#5563B6" stroke-width="2" stroke-linecap="round"></line>
        <line x1="263.25" y1="151.315789" x2="263.25" y2="162.684211" id="Line-16" stroke="#ACD3EF" stroke-width="3" stroke-linecap="round"></line>
        <line x1="268.676471" y1="157.25" x2="258.323529" y2="157.25" id="Line-16" stroke="#ACD3EF" stroke-width="3" stroke-linecap="round"></line>
        <ellipse id="Oval" fill="#5563B6" transform="translate(445.000000, 102.000000) rotate(14.000000) translate(-445.000000, -102.000000) " cx="445" cy="102" rx="1" ry="2"></ellipse>
        <ellipse id="Oval" fill="#5563B6" transform="translate(446.000000, 119.000000) rotate(3.000000) translate(-446.000000, -119.000000) " cx="446" cy="119" rx="1" ry="2"></ellipse>
    </g>
</svg>