<svg xmlns="http://www.w3.org/2000/svg" viewBox="0 0 396.77 229.1"><defs><style>.a,.b,.d,.h,.i{fill:none;}.a{stroke:#acd3ef;}.a,.b,.h,.i{stroke-linecap:round;}.a,.i{stroke-width:3px;}.b,.d,.e,.f,.g{stroke:#5563b6;}.b{stroke-width:2px;}.c,.f{fill:#5563b6;}.d,.g{stroke-linejoin:round;}.d,.e,.f,.g{stroke-width:5px;}.e,.g{fill:#fff;}.e,.f,.g{fill-rule:evenodd;}.h,.i{stroke:#e1f2ff;}.h{stroke-width:4px;}</style></defs><path class="a" d="M250.2,23.3V34.7m5.5-5.5H245.3" transform="translate(-14.8 -21.8)"/><path class="b" d="M140,28.9v7m3.8-3.8h-7M196,75.9v7m3.8-3.8h-7" transform="translate(-14.8 -21.8)"/><path class="a" d="M21.2,36.3V47.7m5.5-5.5H16.3m173.4,88.6v11.4m5.4-5.5H184.7" transform="translate(-14.8 -21.8)"/><path class="b" d="M157.6,226.9v7m3.8-3.8h-7M271,226.9v7m3.8-3.8h-7M53,242.9v7m3.8-3.8h-7" transform="translate(-14.8 -21.8)"/><path class="a" d="M74.2,152.3v11.4m5.5-5.5H69.3" transform="translate(-14.8 -21.8)"/><path class="c" d="M62.2,112.4c5.4-6.6,3-21.6,1.2-29.2a31.52,31.52,0,0,0,7.9-1.9c2.6-1.2,3.5-2.9,2.7-4.8-1-2.6-3.4-2.7-7.2-2.4-4.2.4-13.5,1.2-17.8,2-3.1.6-6.7.7-6.5,4.2.2,3.2,3,3.8,6.1,4a53.71,53.71,0,0,0,7-.3s1.4,6.8,1.8,10.4,1.5,9.4-1.2,11.9c-2.2,2.1-6.3-1.1-9.5-2.9-2.5-1.4-4.9-.9-6.2,1.9-.9,2-.2,3.8,2.4,5.8C49.7,116.3,57.7,117.9,62.2,112.4Zm46-14.1c.6-5.8.7-12.8-.5-18.5a4.08,4.08,0,0,0-4.6-3.4c-2.2.3-2.7,2.1-2.9,4-.4,4,3.3,26.6-7.3,26.7-8.2,0-6-23-6.3-26.2-.4-3.6-1.9-5.3-4.9-4.5-3.4.9-3.2,4.7-3.3,7.5-.3,7,.2,18.8,3.6,25a14.25,14.25,0,0,0,11,7c8.9.5,14.5-9.5,15.2-17.6Zm15,17.4a92.29,92.29,0,0,0,13.9-2,4.33,4.33,0,0,0,3.2-4.6c-.3-2.7-2.7-3.3-4.6-3.2-1.2,0-12.3,1.4-12.3,1.4-.5-17.1-.5-18.2-.7-25.8-.2-5-.5-8.2-5.4-7.7-3.4.3-3.1,5.4-3,9.2.2,7.4.2,17.1.6,24.3.2,3.7.2,5.7,1.8,7.5,1.3,1.4,5.2,1,6.5.9Zm40.8-9.2c.1-3.4,0-11.6,0-12.5.6-.7,10.5-11.4,12-13.9.9-1.5,1.7-4.3-1.4-5.8a4.33,4.33,0,0,0-5.4,1.5c-2.6,3.2-7.3,8.5-9.3,10.5-2-2-6.7-7.3-9.3-10.5a4.45,4.45,0,0,0-5.4-1.5c-3.1,1.5-2.4,4.3-1.4,5.8,1.6,2.6,12.1,13.9,12.1,13.9s.3,11.4.2,13.7c-.1,3.4.1,8,3.8,8.1,4.8.1,3.9-5.1,4.1-9.3Z" transform="translate(-14.8 -21.8)"/><path class="d" d="M307.8,114.3c-9.8-34,76.7-20.1,89.5-7.8s-10.9,50.8-20.4,74.1c-5.2,12.6-10.1,33.6-16.6,54.8-1.5,5-1.5,11.6-5.6,11.6s-37.2-98.7-46.9-132.7Z" transform="translate(-14.8 -21.8)"/><path class="e" d="M401,87c8.1,9,10.1,17.4,6,25.1-2,3.8-7.9-2.4-16.6,2.1-2.7,1.4-3.5,8.5-6.6,9.4-4.3,1.1-8.7-4.6-13.6-3.3-4.5,1.2-4.8,12.3-10.3,12.7-4.6.3-7.6-13.3-15.8-14.8-11.2-2-23.3,8.9-35-2.6-3.4-3.4.9-9.1,15.5-12.5,12-2.7,32-2.9,51-6.7C382.9,95,391.4,91.9,401,87Z" transform="translate(-14.8 -21.8)"/><path class="f" d="M299.5,90.8a63.75,63.75,0,0,1,19.4-3.9c13.1-.7,32.3.5,51.5-2.2,6.5-.9,14.4-3.8,23.6-8.8,4.8,1,8.1,3.2,9.9,6.3,2.8,4.8,0,7.4-6,9.8s-20.1,4.2-27.5,5.1-48.6,3.7-53.2,4.7c-7,1.5-11.1,4-11.1,4.9s-10.4-3.1-11.5-6.1-1.2-7.8,4.9-9.8Z" transform="translate(-14.8 -21.8)"/><path class="e" d="M307.4,68.1c6.1-4.9,19.5-3.6,39.6-9.5,10.6-3.1,27-13.6,36.9-9.7s12.1,23.5,8.3,25.3-7.1,3.6-26.7,9.3c-9.7,2.8-26.9,1.7-47.2,4.2q-7.2.9-21.6,6.3c-2.3-9.8,1.3-18.4,10.7-25.9Z" transform="translate(-14.8 -21.8)"/><path class="f" d="M319.8,50c4.6-4,17-2.4,29.9-6,8.6-2.4,12.7-6,12.3-11a51.17,51.17,0,0,1,10.2,1.7c4.3,1.6,6.2,5.3,5.6,11.3-11.5,4.2-18.2,6.7-20.1,7.4-5.7,2.1-10.2,4.5-23.4,6-8.8,1-14.9,2.6-18.3,4.7C315.5,57.3,316.8,52.6,319.8,50Z" transform="translate(-14.8 -21.8)"/><path class="g" d="M335,30.7A113.69,113.69,0,0,1,348,29c3.1-.2,6.6.9,10.3,3.2,2.6.8,3.8,1.7,3.7,2.6-.1,1.4-2.5,4.7-5.7,6.6s-6.2,3.2-9.1,2.3-.3-6.2-3.3-8.9C341.8,33,338.9,31.7,335,30.7Z" transform="translate(-14.8 -21.8)"/><path class="h" d="M337.7,178a97.9,97.9,0,0,0,14.2,5.7,97.07,97.07,0,0,0,16.3,2.3m-25.3,6a58.07,58.07,0,0,0,9.3,5.7c2.1.9,5.7,1.7,10.7,2.3M349,209a29.11,29.11,0,0,0,4.9,5.7,14.22,14.22,0,0,0,5.6,2.3m-22.9-48.4c5.8-2.5,9.8-4.5,12-6.2s5-4.9,8.3-9.7" transform="translate(-14.8 -21.8)"/><path class="h" d="M339.3,184.9c7.3-2.8,12.5-5.2,15.7-7.2s7.5-6,13.1-12M329.8,154c5.9-2.4,10.1-4.4,12.6-6.1s5.8-5.1,10.1-10.1m-7,61.4c5.9-2.4,10.1-4.4,12.6-6.1s5.8-5.1,10.1-10.1m-43.3-39.6c5.9-3.2,9.4-5.4,10.6-6.9s3.5-4.8,7-10.2m8.4,88.9a36.3,36.3,0,0,0,6.6-3,20.09,20.09,0,0,0,4.6-5.1" transform="translate(-14.8 -21.8)"/><path class="h" d="M322.1,139.2c8,6,14.1,9.8,18.1,11.5s10.7,2.7,19.9,3m-33.4-24.2c5.1,4.2,8.8,6.9,11.1,7.9s5.5,1.3,9.8.7m-16.5,24.1q9.9,5.25,15,6.6c3.4.9,8.9,1.3,16.5,1.1" transform="translate(-14.8 -21.8)"/><path class="i" d="M305,80a25.08,25.08,0,0,1,13.3-7.8c3.6-.9,17.4-1.5,32.8-5.5,5.6-1.4,14.2-4.7,25.9-9.7m-60,57c-.1-1.2,2.6-2.5,8.2-3.9,8.4-2.1,26.4-1.2,41.8-5.1" transform="translate(-14.8 -21.8)"/><path class="c" d="M108.34,204.45c-2.26,1-4.21.28-5.69-2.51-1-1.8-4.47-9.06-4.47-9.06l-15.47.17s-2.25,6.73-4.22,8.39a4.49,4.49,0,0,1-5,.08c-2-1.68-.78-5.41.14-8,2.29-6.51,4.86-12.76,7.09-19.11,1.77-5,4-11.17,9.31-11.17,4.93,0,9.32,12.05,12,17.51,2.23,4.48,4,9.09,8.29,17.56A5,5,0,0,1,108.34,204.45ZM89.67,172.69c-.73,2.27-3.29,9.52-4.23,12.1,2,0,7.2.06,9.72,0C94.11,182.58,90.49,174.35,89.67,172.69Z" transform="translate(-14.8 -21.8)"/><path class="c" d="M130,204.85a14.55,14.55,0,0,1-11.24-7.12c-3.47-6.4-4-18.44-3.65-25.62.14-2.88-.06-6.73,3.4-7.66,3.07-.82,4.64.93,5,4.63.37,3.33-1.89,26.92,6.48,26.9,10.79,0,7-23.29,7.44-27.35.19-1.92.68-3.83,2.94-4.12a4.07,4.07,0,0,1,4.7,3.44c1.28,5.81,1.09,13,.52,18.93C144.79,195.25,139.15,205.49,130,204.85Z" transform="translate(-14.8 -21.8)"/><path class="c" d="M161.52,203c-7.42-4-9.66-14.4-9.68-19.46-.05-13.45,5.82-19.33,9.14-21.63,3.48-2.41,7.54-2.3,8.76,0,1,1.93,1.26,4.64-2.47,6.57-9.57,4.95-9.26,26.9,0,27.62,6.85.53,6.39-10.48,6.39-10.48s-6.94.41-8.32-3.2,3.32-4.86,5.87-5.09c1.82-.17,9-.42,10.79-.29,4.33.32,6.7,3.17,5.12,6.21-1.11,2.14-5.48,2.38-5.48,2.38s0,7.88-3.16,13.21C174.86,205,168,206.53,161.52,203Z" transform="translate(-14.8 -21.8)"/><path class="c" d="M206.92,204.85a14.54,14.54,0,0,1-11.24-7.12c-3.48-6.4-4-18.44-3.65-25.62.14-2.88-.06-6.73,3.4-7.66,3.07-.82,4.63.93,5,4.63.37,3.33-1.89,26.92,6.48,26.9,10.79,0,7-23.29,7.43-27.35.2-1.92.68-3.83,2.94-4.12A4.08,4.08,0,0,1,222,168c1.28,5.81,1.09,13,.52,18.93C221.75,195.25,216.1,205.49,206.92,204.85Z" transform="translate(-14.8 -21.8)"/><path class="c" d="M228.52,179.16c-2.83-7.7.23-14.45,7.75-16.31a18.29,18.29,0,0,1,10.88.51c3.7,1.56,6.27,4.91,3.38,7.87-2.24,2.27-5.34.27-7.92-.67s-5.73,0-6.22,3.47c-.66,4.67,3.69,5,6.7,6,3.51,1.24,6.82,3.07,9,6.17,5.07,7.17.86,16.11-6.77,18.11-5.1,1.33-18.25.53-18.05-5.47.11-3.09,2.73-4.25,6-3.45,4.64,1.11,10.46,2.61,11.91-1.51C247.85,186.46,231.39,187,228.52,179.16Z" transform="translate(-14.8 -21.8)"/><path class="c" d="M284.94,170.59a36.21,36.21,0,0,1-6.34.24s.26,15.38.26,18.94c0,3.87,1.28,15.11-4.92,15.11-4.48,0-3.78-8-3.91-11-.18-4-.14-22.95-.14-22.95a59,59,0,0,1-8.48-.79c-2.56-.5-4.24-1.94-4.32-3.92-.13-3.24,2-4.1,5.4-4.1h21c5.85,0,8.54.74,8.36,4.15C291.72,168.76,289.2,170.09,284.94,170.59Z" transform="translate(-14.8 -21.8)"/></svg>
