<svg width="487" height="274" xmlns="http://www.w3.org/2000/svg">
  <g fill="none" fill-rule="evenodd">
    <g stroke-linecap="round">
      <path stroke="#ACD3EF" stroke-width="3" d="M223.75 23.316v11.368M218.324 29.25h10.352"/>
      <path stroke="#5563B6" stroke-width="2" d="M334 28.868v7M330.176 32.118h7M278 75.868v7M274.176 79.118h7"/>
      <path stroke="#ACD3EF" stroke-width="3" d="M452.75 36.316v11.368M447.324 42.25h10.352M292.75 189.316v11.368M287.324 195.25h10.352"/>
      <path stroke="#5563B6" stroke-width="2" d="M363.5 200.5v7M359.676 203.75h7M203 226.868v7M199.176 230.118h7M421 242.868v7M417.176 246.118h7"/>
      <path stroke="#ACD3EF" stroke-width="3" d="M399.75 152.316v11.368M394.324 158.25h10.352"/>
    </g>
    <path d="M282.418 141.578c1.618-.72 3.064-3.734 1.918-5.993-4.194-8.269-5.907-12.765-8.09-17.137-2.655-5.32-6.937-17.078-11.744-17.078-5.213 0-7.353 5.984-9.079 10.894-2.178 6.197-4.685 12.294-6.924 18.645-.895 2.54-2.044 6.172-.13 7.81.847.725 3.396 1.215 4.928-.078 1.917-1.617 4.109-8.178 4.109-8.178l15.097-.166s3.435 7.084 4.365 8.84c1.442 2.722 3.338 3.424 5.55 2.44zm-22.35-19.175c.917-2.519 3.415-9.588 4.134-11.805.798 1.616 4.333 9.646 5.352 11.803-2.457.06-7.484 0-9.486.002zm58.699 2.039c.556-5.76.743-12.806-.505-18.474-.593-2.694-2.667-3.6-4.592-3.352-2.205.284-2.677 2.142-2.869 4.022-.404 3.962 3.275 26.649-7.251 26.677-8.17.021-5.962-22.989-6.325-26.24-.403-3.612-1.934-5.317-4.927-4.516-3.377.904-3.177 4.664-3.313 7.467-.342 7.012.166 18.751 3.556 24.995 1.822 3.356 6.1 6.613 10.966 6.951 8.964.623 14.472-9.368 15.26-17.53zm32.106 11.684c3.082-5.194 3.087-12.888 3.087-12.888s4.264-.23 5.347-2.32c1.535-2.961-.772-5.75-5.003-6.057-1.728-.124-8.745.12-10.526.281-2.482.224-7.06 1.507-5.727 4.97 1.354 3.523 8.118 3.119 8.118 3.119s.452 10.744-6.234 10.225c-9.065-.703-9.365-22.115-.024-26.946 3.637-1.88 3.411-4.53 2.408-6.41-1.195-2.24-5.152-2.35-8.543 0-3.242 2.247-8.976 7.978-8.921 21.102.02 4.935 2.207 15.06 9.439 18.988 6.304 3.424 13.014 1.946 16.58-4.064zm42.974-11.684c.556-5.76.743-12.806-.505-18.474-.593-2.694-2.667-3.6-4.592-3.352-2.205.284-2.677 2.142-2.869 4.022-.404 3.962 3.275 26.649-7.251 26.677-8.17.021-5.962-22.989-6.325-26.24-.403-3.612-1.934-5.317-4.927-4.516-3.377.904-3.177 4.664-3.313 7.467-.342 7.012.166 18.751 3.556 24.995 1.822 3.356 6.1 6.613 10.966 6.951 8.964.623 14.472-9.368 15.26-17.53zm22.216 17.018c7.443-1.946 11.554-10.667 6.605-17.666-2.137-3.02-5.365-4.812-8.787-6.015-2.935-1.032-7.178-1.32-6.536-5.875.471-3.347 3.595-4.285 6.063-3.383 2.518.92 5.548 2.868 7.726.648 2.825-2.88.313-6.15-3.296-7.676-3.173-1.341-7.339-1.303-10.615-.495-7.338 1.81-10.323 8.398-7.562 15.911 2.803 7.626 18.858 7.117 16.303 14.38-1.415 4.023-7.091 2.557-11.613 1.47-3.235-.777-5.79.351-5.894 3.37-.202 5.853 12.63 6.632 17.606 5.33zm27.915.54c5.97 0 4.826-10.671 4.797-14.586v-.157c.002-3.475-.249-18.48-.249-18.48s2.482.202 6.18-.231c4.161-.488 6.62-1.78 6.746-4.205.175-3.323-2.453-4.047-8.157-4.047h-3.55c-5.918.002-9.65.007-16.943 0-3.28-.002-5.393.84-5.267 4.005.077 1.927 1.719 3.327 4.217 3.822 3.447.682 8.272.765 8.272.765v.374c-.005 2.637-.023 18.42.14 22.024.129 2.866-.56 10.716 3.814 10.716z" fill="#5563B6" fill-rule="nonzero"/>
    <path d="M101.406 48.392c9.608 8.09 19.272 14.342 28.99 18.754 9.72 4.413 25.117 9.54 46.193 15.38-6.092 25.572-12.288 47.208-18.589 64.907-6.3 17.7-17.055 43.678-32.263 77.937L56.56 147.433c10.08-15.047 17.93-28.778 23.552-41.193 5.621-12.415 12.72-31.698 21.295-57.848z" stroke="#5563B6" stroke-width="5" fill="#5563B6" stroke-linejoin="round"/>
    <path d="M102 47c9.333 3.723 19.667 7.556 31 11.5 11.333 3.944 26.677 6.822 46.03 8.634-6.091 25.572-12.288 47.208-18.589 64.907-6.3 17.7-17.055 43.678-32.262 77.937L59 132.04c10.08-15.047 17.93-28.778 23.552-41.193S94.657 63.817 102 47z" stroke="#5563B6" stroke-width="5" fill="#FFF" stroke-linejoin="round"/>
    <path d="M34.5 134.5c4.836 1.854 8.67 2.659 11.5 2.412 2.83-.246 6.664-1.716 11.5-4.412M229.503 173.031c6.008 1.864 10.674 2.879 13.997 3.045 3.323.165 7.823-.041 13.5-.62M88 240c7.99-5.591 14.323-10.54 19-14.848 4.677-4.308 11.01-11.025 19-20.152" stroke="#5563B6" stroke-width="3" stroke-linecap="round"/>
    <path d="M259.293 157.485c.85-1.738 1.547-2.757 2.089-3.056.541-.3 1.313-.093 2.315.62.555-.075.491 1.5-.19 4.726-.68 3.226-1.951 7.968-3.811 14.225-1.967 3.085-3.132 4.514-3.494 4.285-.362-.228-.212-2.296.45-6.204l2.64-14.596zM26.87 118.726c-.13-1.93-.037-3.16.282-3.69.32-.53 1.091-.738 2.315-.621.443-.343 1.176 1.053 2.2 4.187 1.022 3.135 2.293 7.877 3.81 14.225-.16 3.656-.455 5.475-.882 5.458-.428-.016-1.332-1.883-2.713-5.598l-5.011-13.96zM80.14 223.573c-.064-1.934.072-3.16.41-3.68.337-.518 1.116-.697 2.335-.538.455-.327 1.138 1.093 2.052 4.262.913 3.168 2.017 7.95 3.312 14.349-.288 3.647-.646 5.455-1.073 5.424-.426-.032-1.265-1.929-2.515-5.69l-4.521-14.127z" fill="#89C3EA"/>
    <path d="M125 164.5c6.493-11.83 11.193-21.465 14.1-28.906 2.906-7.44 6.54-19.138 10.9-35.094M125.5 125c4.675-7.948 8.059-14.422 10.152-19.421 2.092-5 4.708-12.859 7.848-23.579" stroke="#E1F2FF" stroke-width="5" stroke-linecap="round"/>
    <path d="M179.03 67.134c10.693 33.922 19.016 57.657 24.97 71.203 5.954 13.547 14.455 24.768 25.503 33.663l-19.485-11" stroke="#5563B6" stroke-width="5" stroke-linecap="round" stroke-linejoin="round"/>
    <path d="M114.307 76.757c.138.12.227.212.258.241.002.006 0-.005 0 0 0 .001 0 0 0 0-3.358-1.802-5.645-.43-8.241-.754a.913.913 0 00-.123-.027 1.843 1.843 0 01-.173-.034c-.684-.17-1.326-.741-1.9-1.559l-.009-.013c-.049-.067-.095-.138-.141-.208 0 0-.001-.002-.003-.002-.084-.13-.168-.268-.25-.408l-.026-.043a4.314 4.314 0 00-.065-.118l-.068-.12-.064-.122-.066-.126-.046-.09c-.58-1.152-1.05-2.535-1.387-3.913 0 0-.007-.013 0 0 1.263.682 2.576 1.243 3.684 1.552 1.335.374 3.006.531 4.611.456.492-1.515.775-3.155.761-4.531-.013-1.151-.208-2.544-.55-3.938.105.056.209.115.313.172l.092.053c.074.042.148.083.22.128a22.238 22.238 0 01.41.244c.092.058.183.114.273.172.009.005.018.01.027.017.105.066.208.134.311.202l.024.016.274.186c.02.012.037.026.056.038l.246.174a16.837 16.837 0 01.328.241c.292.223.57.448.832.677l.01.007c.437.384.824.775 1.142 1.165.046.057.09.114.134.171l.005.006c.04.052.079.105.115.155v.002l.004.005c.04.056.078.11.114.166l.014.023.001.002a4.647 4.647 0 01.151.248c.003.004.004.009.008.013a3.561 3.561 0 01.2.41l.026.071.038.105.023.076a1.168 1.168 0 01.046.173l.02.097c.005.024.008.05.012.075l.013.099.006.068c.002.037.002.073.003.112v.054c0 .056-.005.11-.011.164-.004.037-.006.07-.006.1-.352 2.576-2.278 4.435-1.418 8.111" fill="#9452BA"/>
    <path d="M177 85c-1.683 56.11-2.525 87.563-2.525 94.356 0 6.794.705 15.568 2.114 26.323l-50.852 19.69c13.727-31.96 23.68-56.4 29.86-73.322C161.777 135.125 168.91 112.776 177 85zM177 85c.78 37.601 1.984 64.829 3.61 81.684 2.44 25.283 2.915 32.268 10.362 34.542 4.964 1.516 18.201-2.375 39.711-11.672-8.789-10.764-16.987-22.22-24.596-34.37C198.48 143.037 188.783 119.642 177 85z" stroke="#5563B6" stroke-width="5" fill="#FFF" stroke-linejoin="round"/>
    <path fill="#5563B6" d="M184 187h16v12h-16z"/>
    <path d="M184 185c2.805 1.962 5.338 2.97 7.6 3.024 2.262.054 5.73-.81 10.4-2.591-1.283 5.221-2.583 8.881-3.9 10.98-1.318 2.099-3.184 3.81-5.6 5.132" stroke="#5563B6" stroke-width="5" stroke-linecap="round" stroke-linejoin="round"/>
    <path d="M188.877 139.924c.605 5.843 1.328 10.4 2.17 13.673.843 3.273 2.535 8.099 5.076 14.479" stroke="#E1F2FF" stroke-width="5" stroke-linecap="round"/>
    <path fill="#5563B6" d="M175 158h6l3 33.912-9-6.912z"/>
  </g>
</svg>
