<?xml version="1.0" encoding="UTF-8"?>
<svg width="487px" height="274px" viewBox="0 0 487 274" version="1.1" xmlns="http://www.w3.org/2000/svg" xmlns:xlink="http://www.w3.org/1999/xlink">
    <title>illus-march-21</title>
    <g id="illus-march-21" stroke="none" stroke-width="1" fill="none" fill-rule="evenodd">
        <g id="Group" transform="translate(200.000000, 24.000000)" stroke-linecap="round">
            <line x1="234.25" y1="0.315789474" x2="234.25" y2="11.6842105" id="Line-16" stroke="#ACD3EF" stroke-width="3"></line>
            <line x1="239.676471" y1="6.25" x2="229.323529" y2="6.25" id="Line-16" stroke="#ACD3EF" stroke-width="3"></line>
            <line x1="124" y1="5.86842105" x2="124" y2="12.8684211" id="Line-16" stroke="#5563B6" stroke-width="2"></line>
            <line x1="127.823529" y1="9.11842105" x2="120.823529" y2="9.11842105" id="Line-16" stroke="#5563B6" stroke-width="2"></line>
            <line x1="180" y1="52.8684211" x2="180" y2="59.8684211" id="Line-16" stroke="#5563B6" stroke-width="2"></line>
            <line x1="183.823529" y1="56.1184211" x2="176.823529" y2="56.1184211" id="Line-16" stroke="#5563B6" stroke-width="2"></line>
            <line x1="5.25" y1="13.3157895" x2="5.25" y2="24.6842105" id="Line-16" stroke="#ACD3EF" stroke-width="3"></line>
            <line x1="10.6764706" y1="19.25" x2="0.323529412" y2="19.25" id="Line-16" stroke="#ACD3EF" stroke-width="3"></line>
            <line x1="165.25" y1="166.315789" x2="165.25" y2="177.684211" id="Line-16" stroke="#ACD3EF" stroke-width="3"></line>
            <line x1="170.676471" y1="172.25" x2="160.323529" y2="172.25" id="Line-16" stroke="#ACD3EF" stroke-width="3"></line>
            <line x1="94.5" y1="177.5" x2="94.5" y2="184.5" id="Line-16" stroke="#5563B6" stroke-width="2"></line>
            <line x1="98.3235294" y1="180.75" x2="91.3235294" y2="180.75" id="Line-16" stroke="#5563B6" stroke-width="2"></line>
            <line x1="255" y1="203.868421" x2="255" y2="210.868421" id="Line-16" stroke="#5563B6" stroke-width="2"></line>
            <line x1="258.823529" y1="207.118421" x2="251.823529" y2="207.118421" id="Line-16" stroke="#5563B6" stroke-width="2"></line>
            <line x1="37" y1="219.868421" x2="37" y2="226.868421" id="Line-16" stroke="#5563B6" stroke-width="2"></line>
            <line x1="40.8235294" y1="223.118421" x2="33.8235294" y2="223.118421" id="Line-16" stroke="#5563B6" stroke-width="2"></line>
            <line x1="58.25" y1="129.315789" x2="58.25" y2="140.684211" id="Line-16" stroke="#ACD3EF" stroke-width="3"></line>
            <line x1="63.6764706" y1="135.25" x2="53.3235294" y2="135.25" id="Line-16" stroke="#ACD3EF" stroke-width="3"></line>
        </g>
        <text id="March" font-family="ZiggyPawritingRegular, Ziggy Pawriting" font-size="36" font-weight="normal" fill="#5E63B6">
            <tspan x="244" y="152">March</tspan>
        </text>
        <path d="M60.1746097,197.520983 C60.8737116,196.685268 61.4087383,196.142506 61.7796896,195.892696 C63.3625066,194.82678 64.6975578,195.240642 65.5541038,196.718471 C66.3660312,198.119319 66.3323236,200.51836 64.9574317,203.873562 C64.6744897,204.564036 63.7824358,206.272745 62.2812698,208.999688 L62.2813,208.999704 C62.2143666,209.121292 62.2586728,209.274119 62.3802606,209.341052 C62.4822159,209.397178 62.6093691,209.375957 62.6875724,209.289764 C62.6875724,209.289764 62.6875724,209.289764 62.6875724,209.289764 C63.7672685,208.09976 64.2378288,206.659477 65.1489105,205.695362 C67.9438857,202.737691 70.4557577,201.285128 71.5318315,201.172028 C72.4747947,201.072918 74.6079133,201.743039 75.2940288,203.583486 C75.530927,204.218946 75.4841634,205.375558 75.1537383,207.053324 L75.1537219,207.053321 C75.0367883,207.647062 75.1949695,208.261822 75.5839547,208.725388 C76.4531773,209.761267 76.925025,210.537238 76.9994979,211.053299 C77.3156113,213.243814 75.5874987,214.79197 74.0751748,215.056613 C73.4198456,215.17129 72.0249261,215.319471 70.1470885,214.707364 C69.0478439,214.349051 67.0229835,213.07141 64.141011,211.684048 C63.4918658,211.371554 62.1396484,210.534853 62.0724103,210.885164 C62.0051721,211.235475 63.1381938,212.431444 63.8884409,212.999937 C65.6914504,214.366154 67.6316086,215.165953 68.1962269,215.878247 C70.1175439,218.302085 70.1399478,219.731332 70.0268598,221.099659 C69.954763,221.972007 69.1367653,223.855763 67.8788352,224.262071 C67.1300872,224.503914 66.2917168,224.471498 65.363724,224.164821 L65.3637263,224.164814 C64.6461983,223.92769 63.8562876,224.11524 63.3219334,224.649599 C62.309196,225.662346 61.3062713,226.208948 60.3131594,226.289405 C58.6276903,226.425954 56.9617451,224.336377 56.6843973,222.945241 C56.5374711,222.208281 56.6720051,220.037988 57.9418711,217.274251 C58.6138341,215.81179 60.0257264,214.437908 60.9580589,212.464552 C61.0687775,212.230207 61.2109105,211.774168 61.3844581,211.096434 C60.1817327,211.749439 59.3574451,212.368765 58.9115954,212.954415 C57.8198717,214.388456 57.0491917,216.258795 56.3405311,217.442559 C55.5925768,218.691959 54.9246556,219.226558 54.4501298,219.636125 C53.3040026,220.625358 51.7260373,220.71813 51.1955827,220.773883 C50.5428699,220.842486 48.5710941,220.010433 48.2691803,218.748272 C48.1287962,218.161391 48.3667817,216.962399 48.9831367,215.151294 L48.9831247,215.15129 C49.2322029,214.419396 49.0371425,213.609493 48.4821596,213.071252 C47.2146711,211.841999 46.4701378,210.980844 46.2485595,210.487786 C45.8048862,209.500521 46.2454576,207.704729 46.4053385,207.298543 C46.7619982,206.392428 47.8520926,205.561574 49.3324048,205.515818 C50.6803166,205.474155 53.0455,206.271966 55.0344624,207.247159 C55.750542,207.598255 56.9983275,208.235516 58.4951835,208.992521 C59.0933434,209.295028 60.1010125,209.747977 61.5181908,210.351368 C60.0358312,208.72072 58.9550778,207.572419 58.2759305,206.906467 C57.1713783,205.823375 56.0440193,205.514223 55.1808344,204.901124 C54.3414542,204.304932 53.7575615,203.399684 53.2919355,202.721794 C52.1284143,201.027861 52.7097979,198.59639 54.2364397,197.423466 C54.93815,196.88434 56.4756404,196.533516 57.8707979,197.04148 C58.1191181,197.131891 58.4084702,197.32568 58.7388543,197.622847 L58.7388553,197.622846 C59.1494749,197.992182 59.7817538,197.958715 60.1510898,197.548095 C60.1590913,197.5392 60.1669325,197.530161 60.1746097,197.520983 Z" id="Rectangle" fill="#E1F2FF" transform="translate(61.546683, 210.795774) rotate(67.000000) translate(-61.546683, -210.795774) "></path>
        <path d="M181.17461,60.5209834 C181.873712,59.6852681 182.408738,59.1425057 182.77969,58.892696 C184.362507,57.8267803 185.697558,58.2406416 186.554104,59.7184712 C187.366031,61.1193187 187.332324,63.5183602 185.957432,66.8735619 C185.67449,67.564036 184.782436,69.2727446 183.28127,71.9996877 L183.2813,71.9997043 C183.214367,72.1212921 183.258673,72.2741187 183.380261,72.341052 C183.482216,72.3971778 183.609369,72.3759569 183.687572,72.2897639 C183.687572,72.2897639 183.687572,72.2897639 183.687572,72.2897639 C184.767269,71.0997601 185.237829,69.6594774 186.148911,68.6953616 C188.943886,65.7376909 191.455758,64.2851278 192.531831,64.1720279 C193.474795,64.0729185 195.607913,64.7430391 196.294029,66.5834863 C196.530927,67.2189458 196.484163,68.3755583 196.153738,70.0533238 L196.153722,70.0533206 C196.036788,70.6470624 196.194969,71.2618217 196.583955,71.7253876 C197.453177,72.7612672 197.925025,73.5372378 197.999498,74.0532994 C198.315611,76.2438141 196.587499,77.79197 195.075175,78.0566135 C194.419846,78.1712903 193.024926,78.319471 191.147089,77.7073643 C190.047844,77.3490505 188.022984,76.0714104 185.141011,74.684048 C184.491866,74.3715539 183.139648,73.5348534 183.07241,73.8851641 C183.005172,74.2354747 184.138194,75.4314436 184.888441,75.9999374 C186.69145,77.3661536 188.631609,78.1659529 189.196227,78.8782472 C191.117544,81.3020847 191.139948,82.7313323 191.02686,84.0996594 C190.954763,84.9720068 190.136765,86.8557633 188.878835,87.262071 C188.130087,87.5039144 187.291717,87.4714978 186.363724,87.1648211 L186.363726,87.1648141 C185.646198,86.9276904 184.856288,87.1152396 184.321933,87.6495988 C183.309196,88.6623459 182.306271,89.2089481 181.313159,89.2894054 C179.62769,89.4259542 177.961745,87.3363774 177.684397,85.9452414 C177.537471,85.208281 177.672005,83.0379878 178.941871,80.274251 C179.613834,78.8117904 181.025726,77.4379077 181.958059,75.4645518 C182.068777,75.2302071 182.210911,74.7741677 182.384458,74.0964336 C181.181733,74.7494385 180.357445,75.3687655 179.911595,75.9544146 C178.819872,77.3884557 178.049192,79.2587954 177.340531,80.4425586 C176.592577,81.6919589 175.924656,82.2265581 175.45013,82.6361255 C174.304003,83.6253579 172.726037,83.7181302 172.195583,83.7738833 C171.54287,83.8424861 169.571094,83.0104329 169.26918,81.7482718 C169.128796,81.1613913 169.366782,79.9623987 169.983137,78.151294 L169.983125,78.1512899 C170.232203,77.4193956 170.037143,76.6094926 169.48216,76.0712517 C168.214671,74.8419993 167.470138,73.9808442 167.24856,73.4877865 C166.804886,72.5005211 167.245458,70.7047295 167.405338,70.2985429 C167.761998,69.3924285 168.852093,68.5615742 170.332405,68.5158184 C171.680317,68.474155 174.0455,69.2719658 176.034462,70.2471594 C176.750542,70.5982551 177.998328,71.2355165 179.495184,71.9925205 C180.093343,72.2950276 181.101012,72.7479767 182.518191,73.351368 C181.035831,71.7207197 179.955078,70.5724195 179.27593,69.9064673 C178.171378,68.8233755 177.044019,68.5142229 176.180834,67.9011237 C175.341454,67.3049323 174.757561,66.3996836 174.291936,65.721794 C173.128414,64.0278614 173.709798,61.59639 175.23644,60.4234662 C175.93815,59.8843399 177.47564,59.5335162 178.870798,60.0414798 C179.119118,60.1318908 179.40847,60.3256799 179.738854,60.6228472 L179.738855,60.6228461 C180.149475,60.992182 180.781754,60.958715 181.15109,60.5480955 C181.159091,60.5391995 181.166933,60.5301607 181.17461,60.5209834 Z" id="Rectangle" fill="#E1F2FF" transform="translate(182.546683, 73.795774) rotate(67.000000) translate(-182.546683, -73.795774) "></path>
        <path d="M38.9821825,21.6600165 C39.6812844,20.8243012 40.2163111,20.2815387 40.5872624,20.0317291 C42.1700794,18.9658133 43.5051306,19.3796746 44.3616766,20.8575043 C45.173604,22.2583518 45.1398964,24.6573933 43.7650045,28.012595 C43.4820625,28.703069 42.5900086,30.4117777 41.0888426,33.1387208 L41.0888728,33.1387374 C41.0219394,33.2603252 41.0662456,33.4131518 41.1878334,33.4800851 C41.2897887,33.5362109 41.4169419,33.5149899 41.4951452,33.4287969 C41.4951452,33.4287969 41.4951452,33.4287969 41.4951452,33.4287969 C42.5748413,32.2387931 43.0454016,30.7985105 43.9564833,29.8343947 C46.7514585,26.876724 49.2633305,25.4241609 50.3394043,25.311061 C51.2823675,25.2119515 53.4154861,25.8820722 54.1016016,27.7225194 C54.3384998,28.3579789 54.2917362,29.5145913 53.9613111,31.1923569 L53.9612947,31.1923536 C53.8443611,31.7860955 54.0025423,32.4008548 54.3915275,32.8644206 C55.2607501,33.9003002 55.7325978,34.6762708 55.8070707,35.1923325 C56.1231841,37.3828472 54.3950715,38.9310031 52.8827476,39.1956465 C52.2274185,39.3103234 50.8324989,39.4585041 48.9546613,38.8463974 C47.8554167,38.4880836 45.8305563,37.2104435 42.9485838,35.8230811 C42.2994386,35.510587 40.9472212,34.6738865 40.8799831,35.0241971 C40.8127449,35.3745078 41.9457666,36.5704767 42.6960137,37.1389704 C44.4990232,38.5051867 46.4391814,39.304986 47.0037997,40.0172803 C48.9251167,42.4411178 48.9475206,43.8703654 48.8344326,45.2386925 C48.7623358,46.1110398 47.9443381,47.9947964 46.686408,48.4011041 C45.93766,48.6429475 45.0992896,48.6105309 44.1712968,48.3038542 L44.1712991,48.3038472 C43.4537711,48.0667235 42.6638604,48.2542727 42.1295062,48.7886319 C41.1167688,49.801379 40.1138441,50.3479812 39.1207322,50.4284384 C37.4352631,50.5649872 35.7693179,48.4754104 35.4919701,47.0842745 C35.3450439,46.3473141 35.4795779,44.1770209 36.7494439,41.4132841 C37.4214069,39.9508235 38.8332992,38.5769408 39.7656317,36.6035849 C39.8763503,36.3692402 40.0184833,35.9132008 40.1920309,35.2354667 C38.9893055,35.8884716 38.1650179,36.5077986 37.7191682,37.0934476 C36.6274445,38.5274888 35.8567645,40.3978284 35.1481039,41.5815917 C34.4001496,42.830992 33.7322284,43.3655911 33.2577026,43.7751585 C32.1115754,44.7643909 30.5336101,44.8571633 30.0031555,44.9129163 C29.3504427,44.9815192 27.3786669,44.1494659 27.0767531,42.8873049 C26.936369,42.3004244 27.1743545,41.1014318 27.7907095,39.2903271 L27.7906975,39.290323 C28.0397758,38.5584287 27.8447153,37.7485257 27.2897324,37.2102848 C26.0222439,35.9810323 25.2777106,35.1198773 25.0561323,34.6268195 C24.612459,33.6395542 25.0530304,31.8437626 25.2129113,31.437576 C25.569571,30.5314616 26.6596654,29.7006073 28.1399776,29.6548515 C29.4878894,29.6131881 31.8530728,30.4109989 33.8420352,31.3861924 C34.5581148,31.7372882 35.8059003,32.3745495 37.3027563,33.1315536 C37.9009162,33.4340606 38.9085853,33.8870098 40.3257636,34.4904011 C38.843404,32.8597528 37.7626506,31.7114526 37.0835033,31.0455004 C35.9789511,29.9624085 34.8515921,29.653256 33.9884072,29.0401567 C33.149027,28.4439654 32.5651343,27.5387167 32.0995083,26.8608271 C30.9359871,25.1668945 31.5173707,22.7354231 33.0440125,21.5624993 C33.7457228,21.023373 35.2832132,20.6725493 36.6783707,21.1805128 C36.9266909,21.2709238 37.216043,21.464713 37.5464271,21.7618803 L37.5464281,21.7618791 C37.9570477,22.1312151 38.5893266,22.0977481 38.9586626,21.6871285 C38.9666641,21.6782326 38.9745053,21.6691938 38.9821825,21.6600165 Z" id="Rectangle" fill="#E1F2FF" transform="translate(40.354256, 34.934807) rotate(67.000000) translate(-40.354256, -34.934807) "></path>
        <path d="M113.5,120.5 C138.796736,135.380791 156.537329,150.108861 166.721778,164.684211 C176.367247,178.488204 185.930456,201.737076 195.411407,234.430825 C196.081466,236.741361 194.751578,239.157599 192.441037,239.827639 C192.046774,239.941972 191.638328,240 191.227822,240 L187.100642,240 C186.145919,240.000001 185.324316,239.325204 185.138773,238.388684 C178.909963,206.949018 171.735295,184.486123 163.614771,171 C155.356188,157.284598 138.651265,140.451264 113.5,120.5 Z" id="Line-2" fill="#5563B6" transform="translate(155.250000, 180.250000) rotate(-6.000000) translate(-155.250000, -180.250000) "></path>
        <path d="M100.825211,57.9951144 C105.862781,51.66133 109.577865,47.6888141 111.970465,46.0775669 C120.139843,40.5760662 127.03043,42.7121245 131.451312,50.3396322 C135.641905,57.5698131 135.467931,69.9519626 128.371714,87.2691326 C126.869137,90.9359285 122.038298,100.166483 113.879196,114.960795 L113.879169,114.96078 C113.612447,115.444408 113.788284,116.052688 114.271912,116.31941 C114.561605,116.479176 114.911564,116.485333 115.206697,116.335856 C115.750136,116.060618 116.23334,115.689908 116.656311,115.223723 C122.228937,109.081768 124.657635,101.648051 129.359992,96.6719698 C143.78567,81.4065726 156.750171,73.9094728 162.3041,73.3257313 C167.171007,72.8141988 178.180652,76.2728858 181.721893,85.7719684 C183.119605,89.5212133 182.604143,96.7854061 180.175509,107.564547 L180.175503,107.564545 C180.033318,108.195611 180.205137,108.856476 180.636683,109.338376 C186.775864,116.193904 190.071741,121.189726 190.524314,124.325842 C192.155867,135.631725 183.236576,143.622207 175.431034,144.988108 C172.04869,145.579989 164.849105,146.344793 155.15704,143.185532 C149.483519,141.336171 139.032627,134.741899 124.15793,127.581319 C120.807503,125.968446 113.828317,121.649992 113.481281,123.458047 C113.134245,125.266102 118.9821,131.438845 122.854342,134.373006 C132.160198,141.424445 142.173918,145.552441 145.088077,149.228799 C155.004552,161.738928 155.120184,169.11569 154.536504,176.178023 C154.164392,180.680461 149.942468,190.403075 143.449926,192.500148 C138.381973,194.137081 132.518499,193.339581 125.859503,190.107647 L125.859506,190.10764 C125.032211,189.706114 124.03773,189.920462 123.449293,190.627132 C117.024087,198.343336 110.674748,202.455561 104.401276,202.963809 C95.7020811,203.668577 87.1036545,192.883664 85.6721819,185.703607 C84.913853,181.899941 85.608222,170.698428 92.162369,156.43398 C95.6305654,148.885796 102.917751,141.794789 107.72979,131.609726 C108.301241,130.400205 109.034831,128.046453 109.93056,124.548471 C103.722945,127.918818 99.4685578,131.115345 97.1673977,134.13805 C91.5326949,141.539552 87.5549918,151.192918 83.8973885,157.302664 C80.0369793,163.751182 76.5896443,166.510403 74.1404787,168.624299 C68.2249833,173.730015 61.7303257,176.638631 56.1481031,175.872311 C50.5658804,175.105992 43.7970686,170.556209 42.2388039,164.041829 C41.3934056,160.507612 43.2065581,152.672491 47.6782614,140.536465 L47.6782666,140.536467 C47.9563894,139.781653 47.7552216,138.933669 47.1676861,138.384216 C38.2803319,130.072908 33.1610343,124.413858 31.8097933,121.407066 C29.5198667,116.311503 31.7937833,107.042901 32.618975,104.946454 C34.4597994,100.269734 40.0860934,95.9814543 47.7264143,95.7452952 C54.6833785,95.5302583 66.8907766,99.6479915 77.1563889,104.681249 C80.8522838,106.493356 87.2924668,109.782447 95.0181753,113.689564 C98.1054519,115.250891 103.306325,117.588693 110.620794,120.702971 C102.969905,112.286721 97.3918231,106.360011 93.8865467,102.922838 C88.185632,97.3326866 82.3670053,95.7370604 77.9118574,92.5726772 C73.5795723,89.4955604 70.5659325,84.8233093 68.1627018,81.3245241 C62.1574311,72.5816463 65.1581203,60.0321164 73.037562,53.9783161 C76.6592925,51.195729 84.5947268,49.3850259 91.79554,52.0067732 C93.7870468,52.7318618 96.2898865,54.7452302 99.3040589,58.0468783 L99.3040748,58.0468638 C99.6764301,58.4547324 100.308927,58.4835216 100.716795,58.1111663 C100.755953,58.0754177 100.792206,58.0366115 100.825211,57.9951144 Z" id="Rectangle" stroke="#5563B6" stroke-width="5" fill="#FFFFFF" stroke-linejoin="round" transform="translate(110.767849, 122.996680) rotate(96.000000) translate(-110.767849, -122.996680) "></path>
        <path d="M77.7523123,59.53394 C79.4435202,62.0330634 80.2891241,65.0187156 80.2891241,68.4908968 C80.2891241,71.963078 78.6468498,74.4159723 75.3623013,75.8495798" id="Line-12" stroke="#E1F2FF" stroke-width="3" stroke-linecap="round" transform="translate(77.825713, 67.691760) rotate(188.000000) translate(-77.825713, -67.691760) "></path>
        <path d="M43.7523123,100.53394 C45.4435202,103.033063 46.2891241,106.018716 46.2891241,109.490897 C46.2891241,112.963078 44.6468498,115.415972 41.3623013,116.84958" id="Line-12" stroke="#E1F2FF" stroke-width="3" stroke-linecap="round" transform="translate(43.825713, 108.691760) rotate(188.000000) translate(-43.825713, -108.691760) "></path>
        <path d="M175.396468,132.229293 C177.994358,133.542786 179.293302,135.935624 179.293302,139.407805 C179.293302,142.879986 177.015263,144.735864 172.459184,144.975439" id="Line-12" stroke="#E1F2FF" stroke-width="3" stroke-linecap="round" transform="translate(175.876243, 138.602366) rotate(365.000000) translate(-175.876243, -138.602366) "></path>
        <path d="M97.5013864,180.263449 C99.1925942,182.762573 100.038198,185.748225 100.038198,189.220406 C100.038198,192.692587 98.3959239,195.145482 95.1113753,196.579089" id="Line-12" stroke="#E1F2FF" stroke-width="3" stroke-linecap="round" transform="translate(97.574787, 188.421269) rotate(112.000000) translate(-97.574787, -188.421269) "></path>
        <path d="M61.3507154,153.739548 C61.5073498,153.867761 61.6080434,153.966684 61.6427857,153.998185 C61.6451411,154.004264 61.6421968,153.992658 61.6427857,153.998185 C61.6427857,153.99929 61.6433745,153.997632 61.6433745,153.997632 C57.8399832,152.066697 55.2508035,153.536175 52.3112572,153.189668 C52.2706264,153.178062 52.224696,153.168667 52.1722883,153.16093 C52.1069257,153.152088 52.0403855,153.139377 51.9756119,153.124456 C51.2012723,152.942084 50.4752185,152.330308 49.8245376,151.454368 C49.8210045,151.449947 49.8180603,151.445526 49.8145272,151.440552 C49.7591751,151.368708 49.7067674,151.292996 49.6543596,151.217837 C49.6543596,151.217837 49.6537707,151.215626 49.6520042,151.215074 C49.5566102,151.075807 49.4618052,150.928252 49.3687666,150.778485 C49.359345,150.763011 49.3487457,150.74809 49.3393241,150.732616 C49.3151812,150.690062 49.2904494,150.647509 49.2651288,150.606061 C49.2392193,150.562402 49.2133099,150.519848 49.1885781,150.477295 C49.1638463,150.432531 49.1397034,150.389425 49.1161494,150.346318 C49.0902399,150.301002 49.066097,150.256237 49.0407764,150.210921 C49.0236997,150.180525 49.006623,150.147367 48.9889575,150.114208 C48.332977,148.880708 47.8000664,147.399072 47.4190796,145.922409 C47.4190796,145.922409 47.4102468,145.90804 47.4190796,145.922409 C48.848222,146.653556 50.3350718,147.254279 51.5899142,147.585865 C53.1014958,147.986532 54.9940643,148.154535 56.8112598,148.074402 C57.3677244,146.450184 57.6892372,144.693331 57.6733382,143.218878 C57.658617,141.985931 57.4372088,140.493795 57.0509223,139 C57.1692814,139.060238 57.2864629,139.122687 57.404822,139.18403 C57.4389754,139.20282 57.4737176,139.222163 57.5090487,139.241505 C57.5926656,139.286269 57.6762825,139.330481 57.7587217,139.378008 C57.796997,139.397903 57.8358612,139.420009 57.8735477,139.441562 C57.9571646,139.488537 58.039015,139.534959 58.1214542,139.582486 C58.1544299,139.601828 58.1885832,139.621171 58.2221478,139.639961 C58.3257856,139.701304 58.4288346,139.762095 58.5307059,139.823991 C58.5413052,139.829518 58.5519046,139.835597 58.5613262,139.842228 C58.6802742,139.912414 58.7974556,139.985916 58.9140482,140.058864 C58.9234698,140.063838 58.9317137,140.07047 58.9411354,140.075996 C59.0465398,140.142314 59.1484111,140.208078 59.2514601,140.274948 C59.2732476,140.288211 59.2932685,140.303133 59.3144672,140.315844 C59.4080945,140.377187 59.5005442,140.439636 59.5935827,140.502084 C59.6106594,140.514795 59.6277361,140.527506 59.6465794,140.539664 C59.7531615,140.612613 59.8585659,140.685562 59.9622037,140.759616 C59.9622037,140.759616 59.9633814,140.760721 59.9645591,140.760721 C60.2949048,140.998911 60.6105291,141.240416 60.9073102,141.485237 C60.9114322,141.488 60.9149653,141.491316 60.9190873,141.493526 C61.4125448,141.904693 61.8506502,142.323596 62.2110273,142.741395 C62.2634351,142.802738 62.3140763,142.864082 62.362951,142.924872 C62.3647175,142.927635 62.3676618,142.928741 62.3688395,142.930951 L62.3688395,142.932057 C62.414181,142.987321 62.457756,143.043138 62.4983868,143.097297 L62.4989756,143.098955 C62.5007422,143.100613 62.5019199,143.103376 62.5030976,143.105034 C62.5484392,143.164167 62.5920142,143.2233 62.6320561,143.282985 L62.6326449,143.282985 C62.6379446,143.291275 62.6420665,143.298459 62.6479551,143.307301 C62.6485439,143.308407 62.6497216,143.307854 62.6497216,143.308959 C62.7027182,143.385224 62.7527706,143.462594 62.798701,143.537201 C62.8057672,143.551017 62.8128335,143.563175 62.8204885,143.574781 C62.8234328,143.579202 62.8251993,143.584176 62.8299101,143.589149 C62.8805514,143.675362 62.9282483,143.761574 62.9706456,143.848892 C63.0018548,143.908577 63.0289419,143.968815 63.0554402,144.029053 C63.0660396,144.055028 63.0754612,144.079897 63.0854717,144.104766 C63.1007818,144.142345 63.1137365,144.17882 63.1284578,144.2164 C63.1378794,144.242926 63.1455345,144.270006 63.1543673,144.298743 C63.1661443,144.332455 63.1761548,144.367824 63.1861653,144.402088 C63.1938203,144.429167 63.2002977,144.455694 63.2061862,144.483879 C63.215019,144.518143 63.222674,144.552407 63.2297403,144.587223 C63.2344511,144.613197 63.238573,144.64083 63.2432838,144.667356 C63.2485835,144.702726 63.2521166,144.7392 63.2574163,144.773464 C63.2603605,144.798333 63.2621271,144.823202 63.2638936,144.846965 C63.266249,144.886756 63.2668379,144.925441 63.2674267,144.966336 C63.2674267,144.984021 63.2680156,145.005021 63.2674267,145.024917 C63.2668379,145.084602 63.2621271,145.143182 63.2550609,145.200657 C63.2509389,145.240447 63.2485835,145.274711 63.2485835,145.306765 C62.8499311,148.06777 60.6688254,150.058944 61.6427857,153.998185" id="Fill-583" fill="#9452BA" transform="translate(55.341421, 146.500000) rotate(-5.000000) translate(-55.341421, -146.500000) "></path>
        <path d="M113.5,134.04368 C116.833333,141.57304 117.949737,148.725147 116.849212,155.5 C115.748686,162.274853 115.192295,165.619543 115.180038,165.53407" id="Line-13" stroke="#5563B6" stroke-width="4" stroke-linecap="round"></path>
        <path d="M141.293802,106.790287 C143.954117,113.006578 144.845113,118.911406 143.96679,124.504771 C143.088466,130.098136 142.644414,132.859535 142.634632,132.788968" id="Line-13" stroke="#5563B6" stroke-width="4" stroke-linecap="round" transform="translate(142.793802, 119.790287) rotate(-93.000000) translate(-142.793802, -119.790287) "></path>
        <path d="M76.3179144,109.711098 C78.091458,116.644653 78.6854552,123.230808 78.0999062,129.469561 C77.5143572,135.708314 77.218322,138.788336 77.2118007,138.709627" id="Line-13" stroke="#5563B6" stroke-width="4" stroke-linecap="round" transform="translate(77.317914, 124.211098) rotate(-93.000000) translate(-77.317914, -124.211098) "></path>
        <path d="M108.258953,80.5356676 C111.017798,87.230135 111.941794,93.5891807 111.03094,99.6128047 C110.120086,105.636429 109.659587,108.610243 109.649443,108.534247" id="Line-13" stroke="#5563B6" stroke-width="4" stroke-linecap="round" transform="translate(109.814508, 94.535668) rotate(-11.000000) translate(-109.814508, -94.535668) "></path>
    </g>
</svg>