<?xml version="1.0" encoding="UTF-8"?>
<svg width="455px" height="473px" viewBox="0 0 455 473" version="1.1" xmlns="http://www.w3.org/2000/svg" xmlns:xlink="http://www.w3.org/1999/xlink">
    <title>automation</title>
    <defs>
        <radialGradient cx="-1235.09015%" cy="6182.38558%" fx="-1235.09015%" fy="6182.38558%" r="50%" id="radialGradient-1">
            <stop stop-color="#3B438C" offset="63%"></stop>
            <stop stop-color="#484F9C" offset="69%"></stop>
            <stop stop-color="#555AAB" offset="76%"></stop>
            <stop stop-color="#5C61B3" offset="86%"></stop>
            <stop stop-color="#5E63B6" offset="100%"></stop>
        </radialGradient>
        <radialGradient cx="-915.464632%" cy="6182.38558%" fx="-915.464632%" fy="6182.38558%" r="50%" id="radialGradient-2">
            <stop stop-color="#3B438C" offset="63%"></stop>
            <stop stop-color="#484F9C" offset="69%"></stop>
            <stop stop-color="#555AAB" offset="76%"></stop>
            <stop stop-color="#5C61B3" offset="86%"></stop>
            <stop stop-color="#5E63B6" offset="100%"></stop>
        </radialGradient>
        <radialGradient cx="-595.769764%" cy="6182.38558%" fx="-595.769764%" fy="6182.38558%" r="50%" id="radialGradient-3">
            <stop stop-color="#3B438C" offset="63%"></stop>
            <stop stop-color="#484F9C" offset="69%"></stop>
            <stop stop-color="#555AAB" offset="76%"></stop>
            <stop stop-color="#5C61B3" offset="86%"></stop>
            <stop stop-color="#5E63B6" offset="100%"></stop>
        </radialGradient>
        <radialGradient cx="-276.074896%" cy="6182.38558%" fx="-276.074896%" fy="6182.38558%" r="50%" gradientTransform="translate(-2.760749,61.823856),scale(1.000000,0.947368),translate(2.760749,-61.823856)" id="radialGradient-4">
            <stop stop-color="#3B438C" offset="63%"></stop>
            <stop stop-color="#484F9C" offset="69%"></stop>
            <stop stop-color="#555AAB" offset="76%"></stop>
            <stop stop-color="#5C61B3" offset="86%"></stop>
            <stop stop-color="#5E63B6" offset="100%"></stop>
        </radialGradient>
        <linearGradient x1="-0.103573278%" y1="50%" x2="100%" y2="50%" id="linearGradient-5">
            <stop stop-color="#3B438C" offset="0%"></stop>
            <stop stop-color="#5E63B6" offset="100%"></stop>
        </linearGradient>
        <radialGradient cx="30.8236673%" cy="40.5138396%" fx="30.8236673%" fy="40.5138396%" r="49.0328146%" gradientTransform="translate(0.308237,0.405138),scale(1.000000,0.905660),rotate(-143.561169),translate(-0.308237,-0.405138)" id="radialGradient-6">
            <stop stop-color="#FEA6B3" offset="0%"></stop>
            <stop stop-color="#FDA7B4" stop-opacity="0.99" offset="15%"></stop>
            <stop stop-color="#FAA9B6" stop-opacity="0.95" offset="28%"></stop>
            <stop stop-color="#F6AEB9" stop-opacity="0.88" offset="40%"></stop>
            <stop stop-color="#F0B4BE" stop-opacity="0.78" offset="52%"></stop>
            <stop stop-color="#E8BBC4" stop-opacity="0.65" offset="63%"></stop>
            <stop stop-color="#DEC5CC" stop-opacity="0.5" offset="74%"></stop>
            <stop stop-color="#D2D0D5" stop-opacity="0.31" offset="85%"></stop>
            <stop stop-color="#C5DDE0" stop-opacity="0.1" offset="95%"></stop>
            <stop stop-color="#BEE3E5" stop-opacity="0" offset="100%"></stop>
        </radialGradient>
        <linearGradient x1="50.1567398%" y1="100%" x2="50.1567398%" y2="0%" id="linearGradient-7">
            <stop stop-color="#5E63B6" offset="0%"></stop>
            <stop stop-color="#3B438C" offset="100%"></stop>
        </linearGradient>
        <linearGradient x1="49.8432602%" y1="100%" x2="49.8432602%" y2="0%" id="linearGradient-8">
            <stop stop-color="#5E63B6" offset="0%"></stop>
            <stop stop-color="#3B438C" offset="100%"></stop>
        </linearGradient>
        <linearGradient x1="0%" y1="50%" x2="100%" y2="50%" id="linearGradient-9">
            <stop stop-color="#3B438C" offset="0%"></stop>
            <stop stop-color="#4D54A2" offset="35%"></stop>
            <stop stop-color="#5A5FB1" offset="71%"></stop>
            <stop stop-color="#5E63B6" offset="100%"></stop>
        </linearGradient>
    </defs>
    <g id="automation" stroke="none" stroke-width="1" fill="none" fill-rule="evenodd">
        <path d="M182.6048,429.297746 C138.924695,421.64877 78.0637487,404.84834 35.8942474,330.762541 C-2.32584436,263.579033 -24.9939988,160.873314 46.968974,96.3214179 C118.931947,31.7695216 337.605472,11.3722516 420.652272,96.3214179 C503.699071,181.270584 440.59952,474.481342 182.6048,429.297746 Z" id="Path" fill="#EFEFF8" fill-rule="nonzero"></path>
        <line x1="422.5" y1="425" x2="422.5" y2="416" id="Path" stroke="#B0B0DB" stroke-width="2.79" stroke-linecap="round"></line>
        <line x1="418" y1="420.5" x2="427" y2="420.5" id="Path" stroke="#B0B0DB" stroke-width="2.79" stroke-linecap="round"></line>
        <line x1="41.5" y1="67" x2="41.5" y2="58" id="Path" stroke="#B0B0DB" stroke-width="2.79" stroke-linecap="round"></line>
        <line x1="37" y1="62.5" x2="46" y2="62.5" id="Path" stroke="#B0B0DB" stroke-width="2.79" stroke-linecap="round"></line>
        <line x1="36.5" y1="429" x2="36.5" y2="420" id="Path" stroke="#B0B0DB" stroke-width="2.79" stroke-linecap="round"></line>
        <line x1="32" y1="424.5" x2="41" y2="424.5" id="Path" stroke="#B0B0DB" stroke-width="2.79" stroke-linecap="round"></line>
        <ellipse id="Oval" fill="#DFE1F0" fill-rule="nonzero" cx="221.5" cy="403.5" rx="215.5" ry="19.5"></ellipse>
        <g id="Group" transform="translate(5.218750, 89.000000)">
            <path d="M417.565542,274 L273.78125,274 L273.881579,307 L417.565542,307 C421.865062,307.003383 425.989623,305.267163 429.031019,302.173643 C432.072415,299.080123 433.78125,294.882972 433.78125,290.506381 L433.78125,290.506381 C433.78125,286.128616 432.072814,281.930154 429.031779,278.834607 C425.990744,275.73906 421.866215,274 417.565542,274 L417.565542,274 Z" id="Path" fill="#9093CC" fill-rule="nonzero"></path>
            <path d="M269.78125,277 L416.455368,277 C423.764254,277.027202 429.698027,282.968494 429.78125,290.341772 L429.78125,290.341772 C429.823861,293.948943 428.433979,297.423537 425.920924,299.989794 C423.40787,302.556051 419.980913,304 416.40518,304 L269.793797,304" id="Path" fill="#3B438C" fill-rule="nonzero"></path>
            <circle id="Oval" fill="#5E63B6" fill-rule="nonzero" cx="415.28125" cy="290.5" r="9.5"></circle>
            <circle id="Oval" fill="url(#radialGradient-1)" fill-rule="nonzero" cx="385.28125" cy="290.5" r="9.5"></circle>
            <circle id="Oval" fill="url(#radialGradient-2)" fill-rule="nonzero" cx="357.28125" cy="290.5" r="9.5"></circle>
            <circle id="Oval" fill="url(#radialGradient-3)" fill-rule="nonzero" cx="329.28125" cy="290.5" r="9.5"></circle>
            <ellipse id="Oval" fill="url(#radialGradient-4)" fill-rule="nonzero" cx="299.78125" cy="290.5" rx="9" ry="9.5"></ellipse>
            <rect id="Rectangle" fill="#3B438C" fill-rule="nonzero" x="261.78125" y="178" width="42" height="129"></rect>
            <path d="M304.788769,175 L304.788769,175 C308.65061,175 311.78125,177.585464 311.78125,180.77478 L311.78125,307 L297.78125,307 L297.78125,180.77478 C297.78125,179.241062 298.520015,177.770343 299.834614,176.687006 C301.149213,175.60367 302.931643,174.996715 304.788769,175 Z" id="Path" fill="#5E63B6" fill-rule="nonzero"></path>
            <circle id="Oval" fill="#3B438C" fill-rule="nonzero" cx="305.28125" cy="186.5" r="2.5"></circle>
            <circle id="Oval" fill="#3B438C" fill-rule="nonzero" cx="305.28125" cy="213.5" r="2.5"></circle>
            <circle id="Oval" fill="#3B438C" fill-rule="nonzero" cx="305.28125" cy="242.5" r="2.5"></circle>
            <circle id="Oval" fill="#3B438C" fill-rule="nonzero" cx="305.28125" cy="270.5" r="2.5"></circle>
            <circle id="Oval" fill="#3B438C" fill-rule="nonzero" cx="305.28125" cy="299.5" r="2.5"></circle>
            <path d="M35.78125,78 L17.0262008,78 C14.1294945,78 11.78125,80.3243424 11.78125,83.1915641 L11.78125,92 L17.9956467,92 L17.9956467,85.8488576 C17.9956467,84.9248241 18.7524269,84.1757469 19.6859626,84.1757469 L35.7563924,84.1757469 L35.78125,78 Z" id="Path" fill="url(#linearGradient-5)" fill-rule="nonzero"></path>
            <path d="M35.78125,153 L17.0262008,153 C14.1294945,153 11.78125,150.675658 11.78125,147.808436 L11.78125,139 L17.9956467,139 L17.9956467,145.151142 C17.9956467,146.075176 18.7524269,146.824253 19.6859626,146.824253 L35.7563924,146.824253 L35.78125,153 Z" id="Path" fill="url(#linearGradient-5)" fill-rule="nonzero"></path>
            <rect id="Rectangle" fill-opacity="0.8" fill="#CFEBEC" fill-rule="nonzero" x="2.78125" y="92" width="24" height="48" rx="9.56"></rect>
            <path d="M14.8079167,143 C7.06944629,142.99265 0.79594448,136.712729 0.78125,128.958979 L0.78125,103.188162 C1.23801491,95.7766316 7.37024486,90 14.78125,90 C22.1922551,90 28.3244851,95.7766316 28.78125,103.188162 L28.78125,128.958979 C28.7666784,136.691939 22.5255551,142.963295 14.8079167,143 L14.8079167,143 Z" id="Path" fill="#5E63B6" fill-rule="nonzero"></path>
            <rect id="Rectangle" fill="#C3E5E5" fill-rule="nonzero" x="6.78125" y="96" width="16" height="40" rx="6.52"></rect>
            <path d="M14.7873803,137 L14.7873803,137 C12.6651507,137.00338 10.6287275,136.127663 9.12693333,134.565845 C7.62513917,133.004026 6.78125,130.884306 6.78125,128.673867 L6.78125,124 L22.78125,124 L22.78125,128.673867 C22.78125,133.272258 19.2022726,137 14.7873803,137 Z" id="Path" fill="#81CCCC" fill-rule="nonzero"></path>
            <path d="M13.8630886,106 L2.71398543,106 C2.19884988,106 1.78125,105.548788 1.78125,104.992189 C1.78125,104.726326 1.87995162,104.471575 2.05530534,104.285067 C2.23065905,104.09856 2.46795861,103.995905 2.71398543,104.000125 L13.8630886,104.000125 C14.3701751,104.000125 14.78125,104.444287 14.78125,104.992189 C14.78125,105.542696 14.3725237,105.991398 13.8630886,106 Z" id="Path" fill="#5E63B6" fill-rule="nonzero"></path>
            <path d="M9.00586539,109.999875 L2.56894231,109.999875 C2.36117339,110.004095 2.16077461,109.90144 2.01268892,109.714933 C1.86460323,109.528425 1.78125,109.273674 1.78125,109.007811 C1.78125,108.451212 2.13391186,108 2.56894231,108 L9.00586539,108 C9.43608183,108.008602 9.78125,108.457304 9.78125,109.007811 C9.78125,109.555713 9.43409848,109.999875 9.00586539,109.999875 L9.00586539,109.999875 Z" id="Path" fill="#5E63B6" fill-rule="nonzero"></path>
            <path d="M9.09288576,112.992164 L2.66585043,112.992164 C2.36368106,113.040472 2.06673699,112.862631 1.90360157,112.53565 C1.74046614,112.20867 1.74046614,111.79133 1.90360157,111.46435 C2.06673699,111.137369 2.36368106,110.959528 2.66585043,111.007836 L9.09288576,111.007836 C9.48621234,111.070717 9.78125,111.495965 9.78125,112 C9.78125,112.504035 9.48621234,112.929283 9.09288576,112.992164 L9.09288576,112.992164 Z" id="Path" fill="#5E63B6" fill-rule="nonzero"></path>
            <path d="M9.00586539,116 L2.56894231,116 C2.13391186,116 1.78125,115.548788 1.78125,114.992189 C1.78125,114.726326 1.86460323,114.471575 2.01268892,114.285067 C2.16077461,114.09856 2.36117339,113.995905 2.56894231,114.000125 L9.00586539,114.000125 C9.43409848,114.000125 9.78125,114.444287 9.78125,114.992189 C9.78125,115.542696 9.43608183,115.991398 9.00586539,116 Z" id="Path" fill="#5E63B6" fill-rule="nonzero"></path>
            <path d="M9.00586539,118.999875 L2.56894231,118.999875 C2.36117339,119.004095 2.16077461,118.90144 2.01268892,118.714933 C1.86460323,118.528425 1.78125,118.273674 1.78125,118.007811 C1.78125,117.451212 2.13391186,117 2.56894231,117 L9.00586539,117 C9.43608183,117.008602 9.78125,117.457304 9.78125,118.007811 C9.78125,118.555713 9.43409848,118.999875 9.00586539,118.999875 Z" id="Path" fill="#5E63B6" fill-rule="nonzero"></path>
            <path d="M13.8630886,122 L2.71398543,122 C2.19884988,122 1.78125,121.548788 1.78125,120.992189 C1.78125,120.726326 1.87995162,120.471575 2.05530534,120.285067 C2.23065905,120.09856 2.46795861,119.995905 2.71398543,120.000125 L13.8630886,120.000125 C14.3701751,120.000125 14.78125,120.444287 14.78125,120.992189 C14.78125,121.542696 14.3725237,121.991398 13.8630886,122 Z" id="Path" fill="#5E63B6" fill-rule="nonzero"></path>
            <path d="M9.00586539,124.999875 L2.56894231,124.999875 C2.36117339,125.004095 2.16077461,124.90144 2.01268892,124.714933 C1.86460323,124.528425 1.78125,124.273674 1.78125,124.007811 C1.78125,123.451212 2.13391186,123 2.56894231,123 L9.00586539,123 C9.43608183,123.008602 9.78125,123.457304 9.78125,124.007811 C9.78125,124.555713 9.43409848,124.999875 9.00586539,124.999875 Z" id="Path" fill="#5E63B6" fill-rule="nonzero"></path>
            <path d="M9.00586539,128 L2.56894231,128 C2.13391186,128 1.78125,127.548788 1.78125,126.992189 C1.78125,126.726326 1.86460323,126.471575 2.01268892,126.285067 C2.16077461,126.09856 2.36117339,125.995905 2.56894231,126.000125 L9.00586539,126.000125 C9.43409848,126.000125 9.78125,126.444287 9.78125,126.992189 C9.78125,127.542696 9.43608183,127.991398 9.00586539,128 Z" id="Path" fill="#5E63B6" fill-rule="nonzero"></path>
            <path d="M19.78125,120 C19.2264074,119.993015 18.7811823,119.628636 18.78125,119.181586 L18.78125,110.805627 C18.78125,110.517804 18.9718488,110.251845 19.28125,110.107934 C19.5906511,109.964022 19.9718489,109.964022 20.28125,110.107934 C20.5906512,110.251845 20.78125,110.517804 20.78125,110.805627 L20.78125,119.245524 C20.7402449,119.667507 20.3066054,119.994677 19.78125,120 Z" id="Path" fill="#E8F5F5" fill-rule="nonzero" opacity="0.5"></path>
            <path d="M21.4486929,125.009404 C20.8762252,124.9451 20.3175055,125.214315 20.0110738,125.702111 C19.7046421,126.189906 19.7046421,126.810094 20.0110738,127.297889 C20.3175055,127.785685 20.8762252,128.0549 21.4486929,127.990596 C22.2075538,127.905354 22.78125,127.263619 22.78125,126.5 C22.78125,125.736381 22.2075538,125.094646 21.4486929,125.009404 L21.4486929,125.009404 Z" id="Path" fill="#C3E5E5" fill-rule="nonzero"></path>
            <path d="M12.2023099,127.002081 C11.3855539,127.045129 10.7538385,127.734551 10.7821666,128.551952 C10.8104947,129.369354 11.4884228,130.013388 12.3061994,129.999789 C13.123976,129.986189 13.7801149,129.31997 13.78125,128.502078 C13.7818195,128.09019 13.6129945,127.69619 13.3143768,127.412502 C13.015759,127.128814 12.6136259,126.980403 12.2023099,127.002081 L12.2023099,127.002081 Z" id="Path" fill="#C3E5E5" fill-rule="nonzero"></path>
            <path d="M19.28125,132 C19.0051076,132 18.78125,132.223858 18.78125,132.5 C18.78125,132.776142 19.0051076,133 19.28125,133 C19.5573924,133 19.78125,132.776142 19.78125,132.5 C19.78125,132.223858 19.5573924,132 19.28125,132 Z" id="Path" fill="#C3E5E5" fill-rule="nonzero"></path>
            <path d="M32.4872143,76.5348782 L35.0728497,76.5348782 C37.9486971,76.5348782 40.280032,79.5082543 40.280032,83.1760996 L40.280032,84.5348782 L27.280032,84.5348782 L27.280032,83.1760996 C27.280032,79.5082543 29.611367,76.5348782 32.4872143,76.5348782 Z" id="Path" fill="#3B438C" fill-rule="nonzero" transform="translate(33.780032, 80.534878) rotate(-86.000000) translate(-33.780032, -80.534878) "></path>
            <path d="M32.9884323,145 L35.5740677,145 C38.4499151,145 40.78125,147.601704 40.78125,150.811069 L40.78125,152 L27.78125,152 L27.78125,150.811069 C27.78125,147.601704 30.1125849,145 32.9884323,145 Z" id="Path" fill="#3B438C" fill-rule="nonzero" transform="translate(34.281250, 148.500000) rotate(-90.000000) translate(-34.281250, -148.500000) "></path>
            <path d="M113.804503,8 L185.374673,8 C228.125145,8 262.78125,42.8777019 262.78125,85.9015274 L262.78125,307 L42.78125,307 C39.4675415,307 36.78125,304.313708 36.78125,301 L36.78125,85.4908644 L36.78125,85.4908644 C36.7949052,42.6898161 71.2753911,8 113.804503,8 Z" id="Path" fill="#5E63B6" fill-rule="nonzero"></path>
            <path d="M194.78125,152.493765 C194.800572,142.177418 191.517378,132.126224 185.412994,123.813986 C184.558905,123.672404 183.770467,123.266912 183.158156,122.654326 L173.902105,113.377041 C173.501953,112.977533 173.184453,112.502949 172.967779,111.98046 C165.467141,107.017106 156.728988,104.252804 147.740992,104 C122.825646,104.760638 102.78125,126.183185 102.78125,152.506235 C102.78125,178.829284 122.788273,200.239362 147.740992,201 C173.943007,200.217969 194.77934,178.732248 194.78125,152.493765 L194.78125,152.493765 Z" id="Path"></path>
            <path d="M172.497299,111.726996 C165.487355,107.319296 157.39456,104.988626 149.139275,105 L147.78125,105 C156.689657,105.256783 165.349351,108.02787 172.78125,113 C172.625821,112.591896 172.530162,112.163039 172.497299,111.726996 L172.497299,111.726996 Z" id="Path"></path>
            <ellipse id="Oval" fill="#27296D" fill-rule="nonzero" opacity="0.2" cx="175.28125" cy="24" rx="3.5" ry="3"></ellipse>
            <ellipse id="Oval" fill="#27296D" fill-rule="nonzero" opacity="0.2" cx="118.28125" cy="24" rx="3.5" ry="3"></ellipse>
            <path d="M47.277313,186 C47.003345,186 46.78125,185.632832 46.78125,185.179907 L46.78125,147.833111 C46.7812164,147.378032 47.0020761,147.007111 47.277313,147 C47.5556297,147 47.78125,147.372996 47.78125,147.833111 L47.78125,185.179907 C47.7769489,185.634929 47.5525835,186 47.277313,186 Z" id="Path" fill="#5E63B6" fill-rule="nonzero" opacity="0.5"></path>
            <path d="M47.277313,132 C47.003345,132 46.78125,131.673352 46.78125,131.270411 L46.78125,112.74117 C46.7812164,112.336313 47.0020761,112.006326 47.277313,112 C47.5556297,112 47.78125,112.331833 47.78125,112.74117 L47.78125,131.270411 C47.7769489,131.675218 47.5525835,132 47.277313,132 Z" id="Path" fill="#5E63B6" fill-rule="nonzero" opacity="0.5"></path>
            <path d="M67.78125,12.9607958 C54.5860672,3.145892 35.806729,5.71942491 25.8364241,18.7089425 C15.8661193,31.69846 18.4803993,50.1850962 31.6755821,60" id="Path" fill="url(#radialGradient-6)" fill-rule="nonzero" opacity="0.5"></path>
            <path d="M36.3136094,32.7271366 L42.202188,24.147796 C42.6230868,23.5348069 43.2484718,23.13147 43.9401619,23.0269038 C44.6318521,22.9223376 45.3329113,23.1251496 45.8884381,23.5905276 L55.78125,31.8069958 L46.7246163,45 L36.8318044,36.7835318 C36.2729321,36.322299 35.9040796,35.6350545 35.8068321,34.8738078 C35.7095847,34.1125611 35.8919565,33.3400473 36.3136094,32.7271366 L36.3136094,32.7271366 Z" id="Path" fill="#FF8394" fill-rule="nonzero"></path>
            <path d="M39.7727898,32.7460656 L42.6608287,28.2862837 C43.4017411,27.1580199 44.7821752,26.9322055 45.7607314,27.7791947 L50.9012175,32.3169904 C51.017715,32.4197478 51.1646487,32.4638329 51.3092124,32.4394027 C51.4537761,32.4149726 51.5839312,32.3240616 51.6706178,32.1869676 L51.6706178,32.1869676 C51.7587423,32.0511259 51.7965496,31.8797942 51.7755984,31.7112261 C51.7546471,31.5426579 51.676682,31.3908909 51.5591105,31.2898103 L46.4186244,26.7650169 C44.9542007,25.5017914 42.8921722,25.8370235 41.7799211,27.5191491 L38.8918822,31.9789311 C38.8037577,32.1147728 38.7659504,32.2861045 38.7869016,32.4546726 C38.8078529,32.6232408 38.885818,32.7750078 39.0033895,32.8760884 L39.0033895,32.8760884 C39.2477501,33.0827813 39.5888057,33.0251455 39.7727898,32.7460656 Z" id="Path" fill="#FFDCE1" fill-rule="nonzero" opacity="0.4"></path>
            <path d="M39.3708663,34.4696325 L63.3807711,34.4591132 L63.3802345,35.6998238 C63.3787862,39.0489598 60.8265613,41.7650887 57.6796806,41.7664675 L45.065639,41.7719945 C41.9187583,41.7733727 39.3688815,39.0594792 39.3703292,35.7103431 L39.3708663,34.4696325 L39.3708663,34.4696325 Z" id="Path" fill="#3B438C" fill-rule="nonzero" transform="translate(51.375550, 38.115554) rotate(127.050000) translate(-51.375550, -38.115554) "></path>
            <circle id="Oval" fill="#E8F5F5" fill-rule="nonzero" cx="146.28125" cy="153.5" r="50.5"></circle>
            <ellipse id="Oval" fill="#C3E5E5" fill-rule="nonzero" cx="146.78125" cy="148.5" rx="45" ry="45.5"></ellipse>
            <path d="M141.795118,131 C140.580506,130.995362 139.482377,131.601492 139.013682,132.535285 C138.544986,133.469079 138.798226,134.546241 139.65511,135.263616 C140.511993,135.980991 141.803406,136.196998 142.926111,135.810736 C144.048816,135.424474 144.78125,134.512176 144.78125,133.499989 C144.78125,132.123785 143.446547,131.006369 141.795118,131 L141.795118,131 Z" id="Path" fill="#E8F5F5" fill-rule="nonzero"></path>
            <path d="M165.268043,156 C163.336782,156.006268 161.776407,157.352167 161.78125,159.00754 C161.786115,160.662913 163.354363,162.002072 165.285636,162 C167.216909,161.997923 168.78125,160.655399 168.78125,159.000021 C168.78125,158.202407 168.410695,157.437624 167.751459,156.874688 C167.092222,156.311753 166.198587,155.997012 165.268043,156 L165.268043,156 Z" id="Path" fill="#E8F5F5" fill-rule="nonzero"></path>
            <path d="M147.291305,167.000045 C146.682808,166.994618 146.132147,167.479895 145.8974,168.22844 C145.662654,168.976985 145.790345,169.840454 146.220627,170.414164 C146.65091,170.987873 147.298511,171.158127 147.85992,170.845133 C148.421329,170.532138 148.785287,169.797923 148.781216,168.986593 C148.775727,167.892499 148.111876,167.007364 147.291305,167.000045 Z" id="Path" fill="#E8F5F5" fill-rule="nonzero"></path>
            <ellipse id="Oval" fill="#E8F5F5" fill-rule="nonzero" cx="168.28125" cy="131" rx="2.5" ry="2"></ellipse>
            <path d="M124.294385,153 C122.876416,152.994724 121.595364,153.84551 121.050279,155.154535 C120.505194,156.46356 120.803801,157.972124 121.806464,158.974786 C122.809126,159.977449 124.31769,160.276056 125.626715,159.730971 C126.93574,159.185886 127.786526,157.904834 127.78125,156.486865 C127.774037,154.564121 126.217129,153.007213 124.294385,153 L124.294385,153 Z" id="Path" fill="#E8F5F5" fill-rule="nonzero"></path>
            <path d="M201.701415,112 L189.780041,124.012972 C189.084709,124.724299 188.162039,125.167306 187.173799,125.264323 C193.026384,133.709462 196.143977,143.758977 196.102359,154.045401 C196.102359,180.936939 175.339716,202.735478 149.738691,202.735478 C149.277298,202.735478 148.815906,202.735478 148.366984,202.735478 C147.918062,202.735478 147.40679,202.735478 146.920458,202.735478 C135.19277,202.750732 123.859796,198.485501 115.034524,190.735019 C114.829424,191.157246 114.555468,191.542121 114.223971,191.873749 L100.78125,205.225666 C127.196003,229.112538 167.388191,228.898835 193.549215,204.732416 C219.710239,180.565998 223.24222,140.389212 201.701415,112 L201.701415,112 Z" id="Path" fill="#9093CC" fill-rule="nonzero"></path>
            <path d="M186.47937,97.3720428 L186.78125,97.0761188 C160.072986,78.9879836 124.1483,81.4349746 100.248701,102.970238 C76.3491024,124.505501 70.8424506,159.391135 86.9847128,187 L98.9089776,175.311005 C100.072816,174.162944 101.813434,173.786985 103.361709,174.349252 C95.8911326,159.479702 96.7748927,141.88415 105.699412,127.805892 C114.623931,113.727633 130.326295,105.158891 147.234954,105.140046 L148.694041,105.140046 L150.077658,105.140046 C158.492191,105.139865 166.73777,107.455366 173.875875,111.822994 C173.785216,110.605594 174.245198,109.410693 175.133709,108.555501 L186.454213,97.4583539" id="Path" fill="#9093CC" fill-rule="nonzero"></path>
            <circle id="Oval" fill="#3B438C" fill-rule="nonzero" cx="111.78125" cy="105" r="2"></circle>
            <circle id="Oval" fill="#3B438C" fill-rule="nonzero" cx="119.78125" cy="99" r="2"></circle>
            <circle id="Oval" fill="#3B438C" fill-rule="nonzero" cx="104.78125" cy="112" r="2"></circle>
            <path d="M176.802884,200.998057 C176.326856,200.927813 175.93836,200.565462 175.818697,200.080101 C175.699034,199.594741 175.871793,199.08205 176.256351,198.781286 C186.283721,192.185419 193.833543,182.199914 197.642399,170.49579 C197.951805,170.065474 198.492276,169.892466 198.980064,170.067595 C199.467851,170.242725 199.791463,170.725964 199.781004,171.263609 C195.866677,183.556365 187.941803,194.029787 177.385059,200.861831 C177.207101,200.963259 177.005359,201.010466 176.802884,200.998057 Z" id="Path" fill="#DFE1F0" fill-rule="nonzero" opacity="0.3"></path>
            <path d="M200.124213,167 C199.967001,167.000318 199.811116,166.979486 199.664746,166.938592 C198.980767,166.735304 198.626204,166.194397 198.846321,165.690034 C199.735067,163.894242 200.139417,161.994867 200.038063,160.091994 C199.984047,159.562056 200.507994,159.090798 201.244164,159.007181 C201.604827,158.975602 201.968119,159.049013 202.251866,159.210809 C202.535614,159.372604 202.715844,159.609115 202.751789,159.866844 C202.906202,162.071074 202.45253,164.275488 201.416464,166.355249 C201.204742,166.734668 200.696849,166.988073 200.124213,167 Z" id="Path" fill="#DFE1F0" fill-rule="nonzero" opacity="0.3"></path>
            <path d="M181.017956,95.0273397 L194.040137,95.0332713 C196.783233,95.0390216 199.006637,97.2624385 199.012371,100.005535 L199.021043,119.290639 C199.026774,122.035492 196.80263,124.261637 194.057776,124.262871 C194.056276,124.262872 194.054776,124.262872 194.053279,124.258375 L181.031098,124.252443 C178.288002,124.246693 176.064598,122.023276 176.058864,119.28018 L176.050192,99.9950753 C176.04446,97.2502224 178.268604,95.0240772 181.013459,95.0228429 C181.014959,95.0228422 181.016459,95.0228422 181.017956,95.0273397 Z" id="Rectangle" fill="#3B438C" fill-rule="nonzero" transform="translate(187.535617, 109.642857) rotate(45.000000) translate(-187.535617, -109.642857) "></path>
            <path d="M92.4301539,173.343486 L108.38354,173.350706 C111.18183,173.356563 113.449977,175.62471 113.455834,178.423 L113.465413,199.595612 C113.471266,202.395693 111.202377,204.666636 108.402294,204.667903 C108.400764,204.667904 108.399235,204.667904 108.397708,204.663317 L92.4443211,204.656097 C89.6460315,204.65024 87.3778843,202.382093 87.3720277,199.583803 L87.3624483,178.411191 C87.3565951,175.611109 89.6254841,173.340166 92.4255675,173.338899 C92.427097,173.338899 92.4286265,173.338899 92.4301539,173.343486 Z" id="Rectangle" fill="#3B438C" fill-rule="nonzero" transform="translate(100.413931, 189.003401) rotate(45.000000) translate(-100.413931, -189.003401) "></path>
            <path d="M183.956417,98.8979343 L191.716185,98.9014811 C194.183315,98.9066577 196.183033,100.906393 196.188188,103.373524 L196.194007,116.352353 C196.199159,118.821063 194.19877,120.823248 191.730057,120.824354 C191.728708,120.824355 191.727359,120.824355 191.726012,120.820309 L183.966244,120.816762 C181.499114,120.811586 179.499396,118.81185 179.494241,116.34472 L179.488422,103.365891 C179.48327,100.89718 181.483659,98.8949958 183.952372,98.893889 C183.953721,98.8938884 183.95507,98.8938884 183.956417,98.8979343 Z" id="Rectangle" fill="#5E63B6" fill-rule="nonzero" opacity="0.5" transform="translate(187.841214, 109.859122) rotate(45.000000) translate(-187.841214, -109.859122) "></path>
            <path d="M94.2123285,177.672292 L106.299567,177.677773 C108.148535,177.681645 109.647211,179.180323 109.651079,181.029292 L109.658423,197.291874 C109.662289,199.142027 108.16312,200.64255 106.312966,200.643385 C106.311956,200.643386 106.310945,200.643386 106.309936,200.640355 L94.2226979,200.634874 C92.3737294,200.631002 90.8750536,199.132324 90.8711854,197.283355 L90.8638416,181.020773 C90.8599757,179.17062 92.3591443,177.670097 94.209298,177.669262 C94.2103086,177.669261 94.2113192,177.669261 94.2123285,177.672292 Z" id="Rectangle" fill="#5E63B6" fill-rule="nonzero" opacity="0.5" transform="translate(100.261132, 189.156324) rotate(45.000000) translate(-100.261132, -189.156324) "></path>
            <path d="M91.4209084,170 C90.8956832,170.00372 90.4321885,169.644691 90.286923,169.121458 C86.3576525,155.64758 87.0668541,141.177057 92.2932048,128.18536 C92.3377968,127.626575 92.7250361,127.161414 93.2517566,127.033925 C93.7784771,126.906436 94.3243926,127.145733 94.6030873,127.626269 C94.8817821,128.106804 94.829611,128.718839 94.4739458,129.141268 C89.4635308,141.605108 88.7851887,155.486077 92.5548937,168.410986 C92.713702,169.06023 92.3674536,169.72761 91.7573656,169.948188 C91.6486807,169.984312 91.5350282,170.001765 91.4209084,170 Z" id="Path" fill="#DFE1F0" fill-rule="nonzero" opacity="0.2"></path>
            <path d="M156.870719,96.9707131 C156.800885,96.9851879 156.729619,96.9851879 156.659785,96.9707131 C152.055193,95.8702183 147.354363,95.5353986 142.679523,95.9749601 C142.183795,95.8262181 141.821903,95.2940399 141.784439,94.6586965 C141.746975,94.0233532 142.042535,93.43064 142.515463,93.1927088 C147.38633,92.7384965 152.283857,93.0880647 157.081653,94.2323922 C157.544019,94.4868279 157.82384,95.0829067 157.775941,95.7113739 C157.728042,96.3398411 157.363208,96.8592003 156.870719,97 L156.870719,96.9707131 Z" id="Path" fill="#DFE1F0" fill-rule="nonzero" opacity="0.2"></path>
            <rect id="Rectangle" fill="url(#linearGradient-7)" fill-rule="nonzero" x="124.78125" y="245" width="5" height="44" rx="1.49"></rect>
            <rect id="Rectangle" fill="url(#linearGradient-8)" fill-rule="nonzero" x="137.78125" y="245" width="5" height="44" rx="1.49"></rect>
            <rect id="Rectangle" fill="url(#linearGradient-8)" fill-rule="nonzero" x="149.78125" y="245" width="5" height="44" rx="1.49"></rect>
            <rect id="Rectangle" fill="#B0B0DB" fill-rule="nonzero" x="146.78125" y="255" width="11" height="3" rx="1.16"></rect>
            <rect id="Rectangle" fill="#B0B0DB" fill-rule="nonzero" x="134.78125" y="272" width="11" height="3" rx="1.16"></rect>
            <rect id="Rectangle" fill="#B0B0DB" fill-rule="nonzero" x="121.78125" y="258" width="11" height="3" rx="1.16"></rect>
            <rect id="Rectangle" fill="url(#linearGradient-9)" fill-rule="nonzero" x="51.78125" y="219" width="43" height="76" rx="15.25"></rect>
            <rect id="Rectangle" fill="#3B438C" fill-rule="nonzero" x="54.78125" y="219" width="43" height="74" rx="16.04"></rect>
            <rect id="Rectangle" fill="#81CCCC" fill-rule="nonzero" x="62.78125" y="231" width="25" height="14" rx="2.2"></rect>
            <rect id="Rectangle" fill="#5E63B6" fill-rule="nonzero" x="63.78125" y="250" width="6" height="6" rx="3"></rect>
            <rect id="Rectangle" fill="#E8F5F5" fill-rule="nonzero" x="62.78125" y="249" width="6" height="6" rx="3"></rect>
            <rect id="Rectangle" fill="#5E63B6" fill-rule="nonzero" x="72.78125" y="250" width="6" height="6" rx="3"></rect>
            <rect id="Rectangle" fill="#E8F5F5" fill-rule="nonzero" x="71.78125" y="249" width="6" height="6" rx="3"></rect>
            <rect id="Rectangle" fill="#5E63B6" fill-rule="nonzero" x="81.78125" y="250" width="6" height="6" rx="3"></rect>
            <rect id="Rectangle" fill="#E8F5F5" fill-rule="nonzero" x="80.78125" y="249" width="6" height="6" rx="3"></rect>
            <rect id="Rectangle" fill="#5E63B6" fill-rule="nonzero" x="63.78125" y="261" width="6" height="6" rx="3"></rect>
            <rect id="Rectangle" fill="#E8F5F5" fill-rule="nonzero" x="62.78125" y="260" width="6" height="6" rx="3"></rect>
            <rect id="Rectangle" fill="#5E63B6" fill-rule="nonzero" x="72.78125" y="261" width="6" height="6" rx="3"></rect>
            <rect id="Rectangle" fill="#E8F5F5" fill-rule="nonzero" x="71.78125" y="260" width="6" height="6" rx="3"></rect>
            <rect id="Rectangle" fill="#5E63B6" fill-rule="nonzero" x="81.78125" y="261" width="6" height="6" rx="3"></rect>
            <rect id="Rectangle" fill="#E8F5F5" fill-rule="nonzero" x="80.78125" y="260" width="6" height="6" rx="3"></rect>
            <rect id="Rectangle" fill="#5E63B6" fill-rule="nonzero" x="63.78125" y="271" width="6" height="6" rx="3"></rect>
            <rect id="Rectangle" fill="#E8F5F5" fill-rule="nonzero" x="62.78125" y="270" width="6" height="6" rx="3"></rect>
            <rect id="Rectangle" fill="#5E63B6" fill-rule="nonzero" x="72.78125" y="271" width="6" height="6" rx="3"></rect>
            <rect id="Rectangle" fill="#E8F5F5" fill-rule="nonzero" x="71.78125" y="270" width="6" height="6" rx="3"></rect>
            <rect id="Rectangle" fill="#5E63B6" fill-rule="nonzero" x="81.78125" y="271" width="6" height="6" rx="3"></rect>
            <rect id="Rectangle" fill="#E8F5F5" fill-rule="nonzero" x="80.78125" y="270" width="6" height="6" rx="3"></rect>
            <path d="M69.0711896,240 L66.5268119,240 C66.1131423,239.991398 65.7811995,239.542667 65.78125,238.992126 C65.78125,238.44419 66.1150494,238 66.5268119,238 L69.0356867,238 C69.4474491,238 69.78125,238.44419 69.78125,238.992126 C69.7820314,239.525059 69.4708958,239.966693 69.0711896,240 L69.0711896,240 Z" id="Path" fill="#ABDCDC" fill-rule="nonzero"></path>
            <path d="M74.0260878,240 L71.5364122,240 C71.1193477,240 70.78125,239.548788 70.78125,238.992189 C70.78125,238.726326 70.8611609,238.471575 71.003131,238.285067 C71.145101,238.09856 71.3372238,237.995905 71.5364122,238.000125 L74.0260878,238.000125 C74.4385875,238.000058 74.7748047,238.44175 74.78125,238.992189 C74.78125,239.259477 74.7016885,239.515818 74.5600681,239.704819 C74.4184477,239.89382 74.2263692,240 74.0260878,240 L74.0260878,240 Z" id="Path" fill="#ABDCDC" fill-rule="nonzero"></path>
            <path d="M79.0260878,240 L76.5364122,240 C76.1193477,240 75.78125,239.548759 75.78125,238.992126 C75.7876953,238.441652 76.1239125,237.999933 76.5364122,238 L79.0260878,238 C79.4385875,237.999933 79.7748047,238.441652 79.78125,238.992126 C79.78125,239.548759 79.4431523,240 79.0260878,240 Z" id="Path" fill="#ABDCDC" fill-rule="nonzero"></path>
            <path d="M84.0356879,240 L81.5268121,240 C81.1131425,239.991398 80.7811995,239.542667 80.78125,238.992126 C80.78125,238.44419 81.1150495,238 81.5268121,238 L84.0356879,238 C84.4474505,238 84.78125,238.44419 84.78125,238.992126 C84.7813005,239.542667 84.4493575,239.991398 84.0356879,240 Z" id="Path" fill="#ABDCDC" fill-rule="nonzero"></path>
            <circle id="Oval" fill="#3B438C" fill-rule="nonzero" cx="215.28125" cy="260.5" r="9.5"></circle>
            <rect id="Rectangle" fill="#9093CC" fill-rule="nonzero" x="213.78125" y="247" width="3" height="8" rx="0.95"></rect>
            <circle id="Oval" fill="#3B438C" fill-rule="nonzero" cx="188.28125" cy="260.5" r="9.5"></circle>
            <path d="M182.226965,249.570043 L183.457819,249.569501 C183.982489,249.568407 184.408006,249.993549 184.408237,250.518219 C184.408237,250.518507 184.408237,250.518795 184.407374,250.519082 L184.404353,256.969334 C184.403244,257.493667 183.978241,257.918658 183.453908,257.919753 L182.223055,257.920295 C181.698385,257.921389 181.272868,257.496247 181.272637,256.971577 C181.272637,256.971289 181.272637,256.971001 181.2735,256.970714 L181.27652,250.520462 C181.27763,249.996129 181.702632,249.571138 182.226965,249.570043 Z" id="Rectangle" fill="#9093CC" fill-rule="nonzero" transform="translate(182.840437, 253.744898) rotate(-45.000000) translate(-182.840437, -253.744898) "></path>
            <path d="M124.062955,0 L170.461627,0 C173.951858,0 176.78125,2.7052281 176.78125,6.04229607 L176.78125,8 L117.78125,8 L117.78125,5.96978852 C117.822543,2.67514296 120.616906,0.0195327469 124.062955,0 Z" id="Path" fill="#3B438C" fill-rule="nonzero"></path>
            <path d="M330.16125,173 L400.40125,173 C401.715688,173 402.78125,174.065562 402.78125,175.38 L402.78125,267.62 C402.78125,268.934438 401.715688,270 400.40125,270 L330.16125,270 C328.846812,270 327.78125,268.934438 327.78125,267.62 L327.78125,175.38 C327.78125,174.065562 328.846812,173 330.16125,173 Z" id="Rectangle" stroke="#9093CC" stroke-width="3.41" fill="#FFFFFF" fill-rule="nonzero" stroke-linecap="round" stroke-linejoin="round" stroke-dasharray="110,19" transform="translate(365.281250, 221.500000) rotate(-180.000000) translate(-365.281250, -221.500000) "></path>
            <circle id="Oval" fill="#B0B0DB" fill-rule="nonzero" cx="343.78125" cy="235" r="3"></circle>
            <circle id="Oval" fill="#B0B0DB" fill-rule="nonzero" cx="343.78125" cy="245" r="3"></circle>
            <circle id="Oval" fill="#B0B0DB" fill-rule="nonzero" cx="343.78125" cy="256" r="3"></circle>
            <rect id="Rectangle" fill="#B0B0DB" fill-rule="nonzero" x="351.78125" y="233" width="39" height="4" rx="1.65"></rect>
            <rect id="Rectangle" fill="#B0B0DB" fill-rule="nonzero" x="351.78125" y="243" width="39" height="4" rx="1.65"></rect>
            <rect id="Rectangle" fill="#B0B0DB" fill-rule="nonzero" x="351.78125" y="254" width="39" height="4" rx="1.65"></rect>
            <path d="M351.884933,142.600515 C350.967701,145.716459 356.420833,147.793755 357.049074,149.713281 C357.400889,150.778224 354.837666,156.431625 356.194667,158.219677 C357.903482,160.481037 363.230967,156.313298 365.191079,156.089791 C366.447561,155.932022 370.794989,159.271472 372.064036,158.982228 C376.499418,157.94358 373.408472,152.014084 373.697463,150.607307 C374.28801,147.622838 379.690883,145.55869 378.648003,142.968643 C377.391521,139.786962 371.800175,140.431187 370.794989,139.708078 C369.236951,138.603692 367.817127,131.819612 365.266468,132.003676 C362.715809,132.18774 361.23316,137.565044 360.240539,138.932378 C358.946363,140.588956 352.726776,139.760667 351.884933,142.600515 Z" id="Path" fill="#FCCE76" fill-rule="nonzero"></path>
            <path d="M376.179263,142.875858 L369.085647,141.842961 L365.902106,135.393976 C365.788504,135.1534 365.546765,135 365.28125,135 C365.015735,135 364.773996,135.1534 364.660394,135.393976 L361.476853,141.842961 L354.383237,142.875858 C354.120361,142.913169 353.901155,143.096332 353.817197,143.348827 C353.733239,143.601321 353.798976,143.879699 353.986946,144.067663 L359.125524,149.099725 L357.92344,156.184339 C357.880782,156.444541 357.987215,156.706755 358.19898,156.863177 C358.410745,157.019599 358.692103,157.043829 358.927378,156.925906 L365.28125,153.575612 L371.635122,156.925906 C371.870397,157.043829 372.151755,157.019599 372.36352,156.863177 C372.575285,156.706755 372.681718,156.444541 372.63906,156.184339 L371.436976,149.099725 L376.575554,144.067663 C376.763524,143.879699 376.829261,143.601321 376.745303,143.348827 C376.661345,143.096332 376.442139,142.913169 376.179263,142.875858 L376.179263,142.875858 Z" id="Path" fill="#FEDDA1" fill-rule="nonzero"></path>
            <path d="M331.86639,154.638144 C331.116554,157.179773 335.552027,158.869757 336.0731,160.439978 C336.365409,161.30493 334.268409,165.909138 335.3741,167.359597 C336.7721,169.209264 341.1059,165.815989 342.707246,165.629692 C343.749392,165.509929 347.26981,168.224549 348.299247,167.985024 C351.921338,167.146685 349.404938,162.302952 349.633702,161.158554 C350.116647,158.736687 354.513993,157.046704 353.675193,154.944204 C352.633048,152.282813 348.083192,152.868319 347.320647,152.282813 C346.049738,151.377939 344.89321,145.882166 342.821628,146.001928 C340.750046,146.121691 339.529973,150.526294 338.691173,151.644079 C337.6109,153.001388 332.539972,152.322733 331.86639,154.638144 Z" id="Path" fill="#FCCE76" fill-rule="nonzero"></path>
            <path d="M351.294108,155.059804 L345.746571,154.259243 L343.261069,149.290685 C343.165578,149.111847 342.978252,149 342.774218,149 C342.570184,149 342.382858,149.111847 342.287367,149.290685 L339.801865,154.284658 L334.254328,155.085219 C334.04801,155.110134 333.874606,155.250673 333.80888,155.44624 C333.743155,155.641807 333.796861,155.857432 333.946843,156.000145 L337.969769,159.888582 L337.021691,165.365434 C336.982508,165.567381 337.063797,165.773692 337.230652,165.895778 C337.397508,166.017863 337.620242,166.034002 337.803215,165.937263 L342.774218,163.3958 L347.732409,165.937263 C347.916912,166.030514 348.138553,166.013271 348.30614,165.892628 C348.473727,165.771984 348.558951,165.568321 348.526745,165.365434 L347.578667,159.888582 L351.588781,156.000145 C351.755051,155.861923 351.82137,155.638186 351.756978,155.432703 C351.692587,155.227221 351.510081,155.08019 351.294108,155.059804 Z" id="Path" fill="#FEDDA1" fill-rule="nonzero"></path>
            <path d="M376.866587,154.638144 C376.115014,157.179773 380.56076,158.869757 381.08304,160.439978 C381.376026,161.30493 379.274169,165.909138 380.382421,167.359597 C381.783659,169.209264 386.127497,165.815989 387.732552,165.629692 C388.777111,165.509929 392.305683,168.224549 393.350243,167.985024 C396.967985,167.146685 394.445756,162.302952 394.624096,161.158554 C395.10816,158.736687 399.51569,157.046704 398.674947,154.944204 C397.630388,152.282813 393.069995,152.868319 392.305683,152.282813 C391.031831,151.377939 389.872625,145.882166 387.796244,146.001928 C385.719864,146.121691 384.496966,150.526294 383.656223,151.644079 C382.637141,153.001388 377.554468,152.322733 376.866587,154.638144 Z" id="Path" fill="#FCCE76" fill-rule="nonzero"></path>
            <path d="M396.282785,155.060934 L390.738834,154.260224 L388.25494,149.290739 C388.15951,149.111868 387.972306,149 387.768404,149 C387.564501,149 387.377297,149.111868 387.281867,149.290739 L384.797973,154.285643 L379.254022,155.086353 C379.047837,155.111274 378.874545,155.251838 378.808862,155.447442 C378.743179,155.643046 378.796851,155.85871 378.946736,156.00145 L382.967061,159.890612 L382.019596,165.368485 C381.987411,165.57141 382.072579,165.775111 382.240058,165.895777 C382.407537,166.016443 382.629035,166.033689 382.813418,165.94042 L387.768404,163.398484 L392.723389,165.94042 C392.907773,166.033689 393.12927,166.016443 393.296749,165.895777 C393.464228,165.775111 393.549396,165.57141 393.517211,165.368485 L392.569746,159.890612 L396.590071,156.00145 C396.757252,155.861553 396.822452,155.635097 396.754996,155.42863 C396.687539,155.222164 396.500857,155.076801 396.282785,155.060934 Z" id="Path" fill="#FEDDA1" fill-rule="nonzero"></path>
            <path d="M344.78125,192.335252 C344.78125,192.515252 344.78125,192.665252 345.038693,192.675252 L351.78125,192.975252 L351.78125,192.325252 L345.038693,192.025252 C344.903842,192.015252 344.842546,192.155252 344.78125,192.335252 Z" id="Path" fill="#B0B0DB" fill-rule="nonzero"></path>
            <path d="M352.78125,190 L352.78125,190 L351.306465,191.01737 C351.037578,191.213698 350.860083,191.497813 350.8104,191.811414 C350.771533,192.224197 350.771533,192.639326 350.8104,193.052109 C350.826143,193.367927 350.981231,193.663934 351.239429,193.870968 L352.580143,195 L352.78125,190 Z" id="Path" fill="#9093CC" fill-rule="nonzero"></path>
            <path d="M356.78125,190 L352.776915,190 C352.568121,190.000339 352.379479,190.122343 352.296831,190.310493 C351.731784,191.541992 351.627466,192.92959 352.002235,194.229122 C352.064266,194.431326 352.246034,194.575715 352.460496,194.593148 L356.683051,195 L356.78125,190 Z" id="Path" fill="#B0B0DB" fill-rule="nonzero"></path>
            <path d="M360.78125,189 L356.499554,189.364472 C355.633904,191.166478 355.547052,193.234043 356.258641,195.099541 L360.408929,196 L360.78125,189 Z" id="Path" fill="#5E63B6" fill-rule="nonzero"></path>
            <line x1="352.78125" y1="193.435" x2="354.78125" y2="193.565" id="Path" stroke="#9093CC" stroke-width="0.25" stroke-linecap="round" stroke-linejoin="round"></line>
            <line x1="352.78125" y1="192.435" x2="354.78125" y2="192.565" id="Path" stroke="#9093CC" stroke-width="0.25" stroke-linecap="round" stroke-linejoin="round"></line>
            <line x1="352.78125" y1="191.435" x2="354.78125" y2="191.565" id="Path" stroke="#9093CC" stroke-width="0.25" stroke-linecap="round" stroke-linejoin="round"></line>
            <line x1="352.78125" y1="190.49" x2="355.78125" y2="190.51" id="Path" stroke="#9093CC" stroke-width="0.25" stroke-linecap="round" stroke-linejoin="round"></line>
            <path d="M361.793868,197.800054 C361.793868,197.800054 363.459483,198.111162 363.48472,198.570417 C363.509957,199.029671 363.48472,201.162982 363.48472,201.755569 C363.48472,202.348155 363.48472,203 364.140871,203 L365.289136,203 C365.556071,203.000103 365.774406,202.750337 365.78125,202.437043 L365.78125,198.748193 C365.78125,198.281982 365.622661,197.835078 365.340692,197.506811 C365.058723,197.178544 364.676751,196.996112 364.279673,197.000063 L363.219736,197.000063 C362.662607,197.001458 362.135102,197.294821 361.78125,197.800054 L361.793868,197.800054 Z" id="Path" fill="#5E63B6" fill-rule="nonzero"></path>
            <path d="M366.761613,214.581735 C366.76264,214.324774 366.908542,214.091891 367.135325,213.985229 C367.779873,213.614335 368.224089,212.959505 368.340847,212.208138 C368.468274,211.060234 368.297706,209.898036 367.846583,208.840363 C367.509036,208.31842 367.267932,208.169293 367.255877,207.808904 C367.310506,207.242792 367.310506,206.672488 367.255877,206.106376 C367.135325,205.82055 366.387901,205.261326 366.375846,204.764237 C366.434565,204.352208 366.434565,203.933545 366.375846,203.521516 C366.267349,203.397244 365.688698,203.036855 365.664588,202.850446 L365.664588,198.60034 C365.664588,198.028688 365.399373,197.941697 364.929219,197.84228 C364.357444,197.721135 363.776691,197.650459 363.193268,197.631017 C362.834067,197.671729 362.534174,197.931805 362.433789,198.289659 L360.131242,197.780144 C359.557988,194.892355 359.690557,191.902922 360.517009,189.081095 C360.517009,189.081095 363.386151,188.733133 374.58545,189.478765 C375.983856,189.565756 378.599838,190.075272 379.78125,194.027125 C379.354307,193.770159 378.864729,193.645066 378.370789,193.666736 C377.466648,193.666736 371.740418,194.462078 370.739835,194.611204 C369.509726,194.783865 368.564609,195.820333 368.473454,197.096647 C368.473454,198.451213 368.907442,198.724612 369.847749,199.942479 C371.480593,202.102996 372.666332,204.585719 373.331707,207.237252 C373.825971,209.983666 374.344346,210.704445 375.658365,210.567745 C376.972384,210.431046 377.321985,210.443473 377.321985,210.443473 C377.511872,211.406094 377.845339,212.332561 378.310513,213.189887 C378.97355,214.208919 380.046465,216.607371 379.648643,218.073782 L368.907442,220 L366.785723,214.482318" id="Path" fill="#EFAC3F" fill-rule="nonzero"></path>
            <path d="M379.254932,192.13653 C379.708301,192.965968 379.875837,193.930611 379.72999,194.871834 C379.492461,196.430958 377.565835,197.333608 374.953013,197.456697 C372.340191,197.579786 371.706779,198.482436 371.77276,199.426116 C371.83874,200.369796 375.889934,204.171869 376.760874,210.750276 L374.768268,210.982776 C373.543506,211.11884 372.369227,210.439056 371.83874,209.286888 L366.058861,196.718165 C365.777217,196.109422 365.707287,195.418486 365.86092,194.762422 L365.86092,194.762422 C366.133873,193.603774 367.057894,192.732679 368.196624,192.560502 L368.196624,192.560502 C371.362322,192.070954 374.566438,191.90148 377.763776,192.054471 L379.254932,192.13653 Z" id="Path" fill="#5E63B6" fill-rule="nonzero"></path>
            <path d="M367.06181,213.02306 C367.06181,213.02306 362.868969,214.162147 362.28947,214.349591 C361.709972,214.537036 361.766785,215.128208 361.800873,215.906824 C361.834962,216.685441 362.232657,223.332518 362.28947,224.558118 C362.346284,225.783718 362.812155,226 363.368928,226 C363.925701,226 377.401881,224.082297 378.140457,223.894852 C378.879034,223.707407 379.856227,223.087398 379.776688,221.83296 C379.697149,220.578523 379.219915,217.031492 379.219915,217.031492 C379.219915,217.031492 370.925133,218.617563 370.07293,218.761751 C369.220726,218.905939 368.698041,218.257092 368.538963,216.728697 C368.323072,214.7389 367.789024,212.763521 367.06181,213.02306 Z" id="Path" fill="#5E63B6" fill-rule="nonzero"></path>
            <circle id="Oval" fill="#EBCB88" fill-rule="nonzero" cx="361.78125" cy="195" r="1"></circle>
            <path d="M375.78116,194.980393 C375.783579,195.243778 375.737217,195.4982 375.652523,195.686314 C375.567829,195.874427 375.451931,195.980401 375.330952,195.980348 C375.148641,196.060142 374.962227,195.892638 374.858812,195.556101 C374.755396,195.219564 374.755396,194.780436 374.858812,194.443899 C374.962227,194.107362 375.148641,193.939858 375.330952,194.019652 C375.576121,194.019545 375.776256,194.446634 375.78116,194.980393 Z" id="Path" fill="#3B438C" fill-rule="nonzero"></path>
            <path d="M370.771424,220.598528 C370.724495,220.832019 370.5194,221 370.28125,221 C370.0431,221 369.838005,220.832019 369.791076,220.598528 C369.751179,220.400024 369.834931,220.197052 370.0032,220.084451 C370.171468,219.97185 370.391032,219.97185 370.5593,220.084451 C370.727569,220.197052 370.811321,220.400024 370.771424,220.598528 Z" id="Path" fill="#3B438C" fill-rule="nonzero"></path>
            <rect id="Rectangle" fill="#FCCE76" fill-rule="nonzero" x="360.78125" y="190" width="14" height="1" rx="0.5"></rect>
            <rect id="Rectangle" fill="#FCCE76" fill-rule="nonzero" x="360.78125" y="192" width="6" height="1" rx="0.41"></rect>
        </g>
    </g>
</svg>