<svg width="487" height="274" xmlns="http://www.w3.org/2000/svg">
  <g fill="none" fill-rule="evenodd">
    <g stroke-linecap="round">
      <path stroke="#ACD3EF" stroke-width="3" d="M246.25 23.316v11.368M251.676 29.25h-10.352"/>
      <path stroke="#5563B6" stroke-width="2" d="M136 28.868v7M139.824 32.118h-7M192 75.868v7M195.824 79.118h-7"/>
      <path stroke="#ACD3EF" stroke-width="3" d="M17.25 36.316v11.368M22.676 42.25H12.324M177.25 189.316v11.368M182.676 195.25h-10.352"/>
      <path stroke="#5563B6" stroke-width="2" d="M106.5 200.5v7M110.324 203.75h-7M267 226.868v7M270.824 230.118h-7M49 242.868v7M52.824 246.118h-7"/>
      <path stroke="#ACD3EF" stroke-width="3" d="M70.25 152.316v11.368M75.676 158.25H65.324"/>
    </g>
    <path d="M30.626 156.99c2.65-.142 2.808-4.893 2.817-7.451v-.793l.001-.132c.005-.655.028-1.807.055-2.985l.012-.505c.042-1.764.089-3.438.089-3.438l.033-.001c.332-.006 3.07-.057 5.869-.24l.56-.038c1.677-.12 3.32-.29 4.42-.529 3.907-.847 3.347-7.455-2.028-7.41-.794.007-1.938.012-3.136.016l-.516.002-.517.001-2.432.006h-.418l-.197.001h-.366l-.167.001-.55.001h-.411l.19-5.995s.915.015 2.297.019h1.047c3.71-.008 9.419-.118 11.283-.685 2.53-.77 4.334-2.489 3.054-5.293-1.131-2.48-3.649-2.428-6.034-2.352-2.815.09-10.852-.306-15.286.347-1.478.218-3.552 1.914-3.61 4.272-.059 2.346-.083 5.682-.092 9.075l-.004 1.389-.001 1.38v.91l-.001.45v1.323l.001 2.085v3.489c0 .87-.003 1.559-.009 2.001 0 6.914-.477 11.322 4.047 11.08zm31.806.009c4.206-.054 10.165-.706 14.83-1.78 1.469-.338 3.216-1.738 3.06-4.085-.19-2.833-2.402-3.659-3.653-3.627-3.655.093-13.684 1.439-13.684 1.439l-.168-7.252s3.09-.186 6.132-.503l.552-.059c1.467-.162 2.877-.353 3.874-.57 3.908-.847 3.348-7.454-2.027-7.41-2.555.022-8.387.353-8.387.353l-.134-5.025h.036c.628-.01 9.468-.144 12.327-.343 2.408-.167 5.132-1.353 4.672-4.646-.378-2.7-3.521-3.282-6.034-3.322-2.817-.044-9.882-.306-14.316.347-1.477.218-3.552 2.237-3.61 4.595l-.105 21.779c.271 6.82.037 10.193 6.635 10.109zm32.187-.146c10.021-.763 17.64-4.535 17.472-13.102-.056-2.882-2.091-8.001-8.568-8.15 0 0 4.994-2.611 3.929-9.065-1.017-6.159-7.218-7.467-11.486-7.29-3.38.139-8.624-.191-10.014 4.142-.92 2.866-.556 24.216-.021 29.035.534 4.815 3.753 4.805 8.688 4.43zm-1.919-23.79l-.142-7.012s7.513-2.319 8.238 1.499c.975 5.14-6.215 4.786-8.096 5.513zm.109 16.934c-.264-.589-.318-3.231-.322-5.098v-.449c.001-.859.012-1.465.012-1.465s11.022-4.623 12.023 1.025c.592 3.343-8.431 5.933-11.713 5.987zM119.555 157c1.699 0 3.209-1.725 3.402-3.685.377-3.813.076-6.993.175-9.941 3.694 3.164 6.21 5.94 10.78 8.938 2.408 1.58 5.715 3.354 7.738 2.019 3.063-2.023 1.084-4.834-.372-5.982-5.167-4.076-9.793-7.882-9.793-7.882s8.013-3.313 8.114-11.221c.062-4.82-2.419-9.862-13.211-9.819-3.298.013-8.3.254-9.498 1.863-.964 1.293-1.04 8.13-1.037 12.578v.633l.004 1.397V136.78c-.023 4.203-.023 11.24.104 16.086.044 1.694 1.248 4.134 3.594 4.134zm3.512-21.993l-.002-7.65s7.428-2.283 8.502 2.042c1.332 5.365-8.5 5.607-8.5 5.608zm50.84 6.19c.5-5.183.668-11.524-.455-16.626-.534-2.425-2.4-3.24-4.133-3.016-1.984.255-2.41 1.927-2.582 3.619-.364 3.566 2.948 23.984-6.526 24.01-7.353.019-5.366-20.69-5.692-23.617-.363-3.25-1.74-4.785-4.435-4.064-3.039.813-2.859 4.198-2.982 6.72-.307 6.312.15 16.877 3.2 22.496 1.64 3.02 5.49 5.951 9.87 6.256 8.068.56 13.025-8.431 13.734-15.777zm35.722 15.423c1.456-.647 2.756-3.36 1.726-5.393-3.776-7.442-5.317-11.489-7.28-15.424-2.39-4.789-6.245-15.37-10.571-15.37-4.692 0-6.618 5.386-8.17 9.805-1.962 5.577-4.217 11.064-6.233 16.78-.806 2.285-1.84 5.555-.117 7.029.762.652 3.057 1.093 4.435-.07 1.726-1.456 3.698-7.36 3.698-7.36l13.588-.15s.879 1.814 1.827 3.746l.475.968c.672 1.364 1.31 2.645 1.626 3.242 1.298 2.45 3.004 3.082 4.996 2.197zm-14.098-17.235h-.837c-1.979-.004-4.084-.024-5.18-.023.825-2.266 3.073-8.628 3.72-10.624.718 1.455 3.9 8.681 4.816 10.623-.673.016-1.56.023-2.52.024zM219.167 157c1.699 0 3.209-1.725 3.402-3.685.377-3.813.076-6.993.175-9.941 3.694 3.164 6.21 5.94 10.78 8.938 2.408 1.58 5.715 3.354 7.738 2.019 3.063-2.023 1.084-4.834-.372-5.982-5.167-4.076-9.793-7.882-9.793-7.882s8.013-3.313 8.114-11.221c.062-4.82-2.419-9.862-13.211-9.819-3.298.013-8.3.254-9.498 1.863-.964 1.293-1.04 8.13-1.037 12.578v.633l.004 1.397V136.78c-.023 4.203-.023 11.24.104 16.086.044 1.694 1.248 4.134 3.594 4.134zm3.512-21.993l-.002-7.65s7.428-2.283 8.502 2.042c1.332 5.365-8.5 5.607-8.5 5.608zm41.499 16.456l.001-.413c0-.83-.017-1.674.004-2.479.022-.82.032-1.944.034-3.167v-1.248l-.001-.635-.002-.634a751.372 751.372 0 00-.047-5.542c.297-.323 2.727-2.973 5.232-5.794l.501-.566c2.255-2.552 4.459-5.126 5.11-6.154.837-1.32 1.505-3.852-1.294-5.177-1.537-.728-3.414-.428-4.827 1.32-2.326 2.879-6.575 7.638-8.372 9.408-1.796-1.77-6.046-6.529-8.372-9.407-1.413-1.75-3.29-2.05-4.827-1.321-2.799 1.325-2.131 3.857-1.294 5.177 1.472 2.322 10.875 12.549 10.875 12.549v.038c.008.342.064 2.913.113 5.654l.016.917.01.61c.036 2.228.06 4.315.04 5.147-.068 3.078.126 7.176 3.386 7.252 3.316.077 3.687-2.583 3.714-5.535z" fill="#5563B6" fill-rule="nonzero"/>
    <g stroke="#E1F2FF" stroke-width="2">
      <path fill="#E1F2FF" stroke-linejoin="round" d="M332.5 59.945l-3.253 2.37-.717-4.112-3.883-.759L326.886 54l-2.239-3.444 3.883-.76.717-4.11 3.253 2.37 3.253-2.37.717 4.11 3.883.76L338.114 54l2.239 3.444-3.883.76-.717 4.11z"/>
      <g stroke-linecap="round">
        <path d="M315.406 38.526l33.188 30.948M348.31 64.923l-4.637-.496M344.11 69.428l-.819-4.592M320.515 39.192l.817 4.59M316.314 43.697l4.636.495"/>
      </g>
      <g stroke-linecap="round">
        <path d="M332.5 31.311v45.378M335.515 73.378l-2.693-3.73M329.592 73.378l2.692-3.73M335.382 35.5l-2.692 3.73M329.459 35.5l2.692 3.73"/>
      </g>
      <g stroke-linecap="round">
        <path d="M355.189 54h-45.378M313.122 57.015l3.73-2.693M313.122 51.092l3.73 2.692M351 56.882l-3.73-2.692M351 50.959l-3.73 2.692"/>
      </g>
      <g stroke-linecap="round">
        <path d="M348.044 37.956l-32.088 32.088M320.514 69.92l.658-4.618M316.16 65.564l4.616-.658M347.2 43.038l-4.617.657M342.844 38.683l-.657 4.616"/>
      </g>
    </g>
    <g stroke="#E1F2FF" stroke-width="2">
      <path fill="#E1F2FF" stroke-linejoin="round" d="M447.5 116.945l-3.253 2.37-.717-4.112-3.883-.759 2.239-3.444-2.239-3.444 3.883-.76.717-4.11 3.253 2.37 3.253-2.37.717 4.11 3.883.76-2.239 3.444 2.239 3.444-3.883.76-.717 4.11z"/>
      <g stroke-linecap="round">
        <path d="M430.406 95.526l33.188 30.948M463.31 121.923l-4.637-.496M459.11 126.428l-.819-4.592M435.515 96.192l.817 4.59M431.314 100.697l4.636.495"/>
      </g>
      <g stroke-linecap="round">
        <path d="M447.5 88.311v45.378M450.515 130.378l-2.693-3.73M444.592 130.378l2.692-3.73M450.382 92.5l-2.692 3.73M444.459 92.5l2.692 3.73"/>
      </g>
      <g stroke-linecap="round">
        <path d="M470.189 111h-45.378M428.122 114.015l3.73-2.693M428.122 108.092l3.73 2.692M466 113.882l-3.73-2.692M466 107.959l-3.73 2.692"/>
      </g>
      <g stroke-linecap="round">
        <path d="M463.044 94.956l-32.088 32.088M435.514 126.92l.658-4.618M431.16 122.564l4.616-.658M462.2 100.038l-4.617.657M457.844 95.683l-.657 4.616"/>
      </g>
    </g>
    <g stroke="#E1F2FF" stroke-width="2">
      <path fill="#E1F2FF" stroke-linejoin="round" d="M291.5 220.945l-3.253 2.37-.717-4.112-3.883-.759 2.239-3.444-2.239-3.444 3.883-.76.717-4.11 3.253 2.37 3.253-2.37.717 4.11 3.883.76-2.239 3.444 2.239 3.444-3.883.76-.717 4.11z"/>
      <g stroke-linecap="round">
        <path d="M274.406 199.526l33.188 30.948M307.31 225.923l-4.637-.496M303.11 230.428l-.819-4.592M279.515 200.192l.817 4.59M275.314 204.697l4.636.495"/>
      </g>
      <g stroke-linecap="round">
        <path d="M291.5 192.311v45.378M294.515 234.378l-2.693-3.73M288.592 234.378l2.692-3.73M294.382 196.5l-2.692 3.73M288.459 196.5l2.692 3.73"/>
      </g>
      <g stroke-linecap="round">
        <path d="M314.189 215h-45.378M272.122 218.015l3.73-2.693M272.122 212.092l3.73 2.692M310 217.882l-3.73-2.692M310 211.959l-3.73 2.692"/>
      </g>
      <g stroke-linecap="round">
        <path d="M307.044 198.956l-32.088 32.088M279.514 230.92l.658-4.618M275.16 226.564l4.616-.658M306.2 204.038l-4.617.657M301.844 199.683l-.657 4.616"/>
      </g>
    </g>
    <path d="M434.114 185c3.114-3.285 4.885-5.883 5.311-7.793 4.993-22.354 5.15-33.32 4.221-45.847-2.353-31.752-28.3-45.95-45.339-50.74-26.035-7.318-47.16 4.525-60.193 21.48-7.856 10.222-17.547 25.189-29.073 44.9l125.073 38z" stroke="#5563B6" stroke-width="4" fill="#FFF"/>
    <path d="M328.597 121.415l8.842-6.34-.522 9.962 9.474-6.477 5.129 13.388 11.607-8.724 4.608 14.017 13.279-7.488 6.955 13.041 11.255-7.107 5.25 13.668 13.928-9.459 1.656 13.899 9.48-8.822 3.948 13.189 7.56-8.279" stroke="#89C3EA" stroke-linecap="round" stroke-linejoin="round" stroke-width="4"/>
    <path d="M434.114 185c3.114-3.285 4.885-5.883 5.311-7.793 4.993-22.354 5.15-33.32 4.221-45.847-2.353-31.752-28.3-45.95-45.339-50.74-26.035-7.318-47.16 4.525-60.193 21.48-7.856 10.222-17.547 25.189-29.073 44.9l125.073 38z" stroke="#5563B6" stroke-width="4"/>
    <path d="M408.5 85c10.77 0 19.416-5.42 19.416-15.913s-6.227-23.104-16.997-23.104-21.534 12.61-21.534 23.104C389.385 79.58 397.73 85 408.5 85zM310.161 142.218c11.437 1.813 25.986 5.45 43.649 10.913 18.826 5.822 47.778 15.754 86.856 29.797h0a4 4 0 012.62 4.224c-3.33 28.813-6.388 44.468-9.172 46.966-4.326 3.882-13.063.25-29.252-3.25-6.22-1.344-21.694-9.176-45.824-17.856-10.624-3.82-31.63-10.726-63.02-20.715h0a6 6 0 01-4.096-6.721c.92-5.426 2.04-10.164 3.356-14.213 1.603-4.93 5.127-13.847 10.572-26.75h0a4 4 0 014.311-2.395z" stroke="#5563B6" stroke-width="5" fill="#FFF"/>
    <path d="M293.035 191.684c-4.429-2.873 24.116.794 35.846 3.066 31.059 6.015 61.856 15.301 73.246 19.87 23.538 9.44 33.78 17.867 30.987 21.498-2.793 3.632-19.544-.43-29.252-3.25-13.652-3.964-23.602-13.146-41.6-16.463-42.89-7.905-64.799-21.848-69.227-24.72z" stroke="#5563B6" stroke-width="2" fill="#5563B6"/>
    <path d="M427.971 215.18c.113.169.18.293.204.333 0 .006.001-.006 0 0-3.072-2.959-5.977-2.31-8.687-3.502a1.085 1.085 0 00-.125-.068c-.06-.027-.12-.059-.177-.092-.687-.4-1.203-1.198-1.569-2.226l-.005-.016c-.032-.085-.06-.173-.089-.26v-.003a11.74 11.74 0 01-.144-.5l-.015-.053a4.555 4.555 0 00-.034-.143l-.035-.145-.031-.147c-.012-.05-.022-.1-.033-.151l-.021-.108c-.267-1.371-.343-2.944-.276-4.468 0 0-.004-.016 0 0 1.153 1.117 2.4 2.127 3.502 2.81 1.329.826 3.09 1.54 4.85 1.994 1.008-1.39 1.829-2.976 2.245-4.391.346-1.183.57-2.675.638-4.216.096.092.19.186.285.279.027.028.054.057.083.085.066.068.133.134.198.204.031.03.062.063.092.094a25.523 25.523 0 01.275.292c.081.089.162.177.241.266a.273.273 0 01.024.027c.093.101.184.206.274.31.008.007.014.016.021.024l.239.281c.017.02.031.04.048.058.072.086.142.172.212.26a18.33 18.33 0 01.969 1.324l.01.011c.35.538.647 1.066.87 1.571.032.074.062.148.091.22.001.003.004.005.004.008l.076.196v.002l.002.007c.026.07.05.14.071.208l.008.028c0 .001.002.001.001.002a4.942 4.942 0 01.086.304l.005.017a3.743 3.743 0 01.087.486l.006.082.009.119v.086c.002.036.001.073 0 .108a2.03 2.03 0 01-.012.19l-.01.08c-.005.036-.013.072-.018.106-.004.025-.01.05-.015.073l-.032.115c-.005.017-.01.037-.017.056-.018.057-.04.111-.063.164a1.031 1.031 0 00-.037.1c-1.189 2.524-3.856 3.79-4.077 7.842" fill="#9452BA"/>
    <g fill="#5563B6" stroke="#5563B6">
      <path d="M340.675 108.62c.866 1.208 2.527-.269 3.551-1.908 1.024-1.64 1.095-3.443.159-4.028-.937-.586-2.527.269-3.551 1.908-1.025 1.64-1.025 2.82-.159 4.028zM354.685 114.696c.993.485 2.326.174 3.052-1.315.726-1.49.57-3.593-.422-4.077-.993-.485-3.316.897-4.042 2.387-.727 1.489.42 2.521 1.412 3.005zM371.735 121.18c1.538 0 3.059-2.244 3.059-3.624s-1.633-2.595-2.462-2.595c-.828 0-2.332 2.158-2.332 3.539 0 1.38.198 2.68 1.735 2.68zM423.25 135.019c1.28.09 2.702-2.061 2.798-3.438.097-1.378-1.178-2.684-1.867-2.732-.69-.049-2.092 2.017-2.189 3.394-.096 1.378-.022 2.686 1.258 2.776zM406.846 131.303c1.47.45 3.724-1.007 4.127-2.327.404-1.32.661-3.664-1.729-3.898-2.39-.234-3.39 1.257-3.794 2.577-.403 1.32-.074 3.199 1.396 3.648zM391.386 120.803c-1.523-.214-3.588.916-4.045 2.954-.457 2.037.868 3.487 2.163 3.416 1.295-.07 3.035-2.107 3.227-3.474.192-1.367.177-2.682-1.345-2.896zM437.009 139.676c1.283.022 2.59-2.12 2.613-3.452.023-1.332-1.32-2.527-2.01-2.539-.691-.012-1.983 2.048-2.006 3.38-.023 1.331.12 2.588 1.403 2.61z"/>
    </g>
    <path d="M409.55 54.435c-4.569 2.288-7.512 4.31-8.828 6.065-1.317 1.756-2.19 5.07-2.618 9.942M389.55 86.435c-3.866 2.485-6.604 4.66-8.215 6.525-1.61 1.864-3.54 5.356-5.785 10.475M376.402 86.017c-4.543.698-7.929 1.571-10.159 2.62-2.23 1.048-5.411 3.453-9.545 7.216M409.035 91.935c1.21 4.433 1.79 7.882 1.74 10.345-.052 2.463-.955 6.349-2.711 11.656M422.984 101.227c2.385 3.928 3.893 7.083 4.523 9.465.63 2.382.833 6.366.608 11.952" stroke="#E1F2FF" stroke-width="4" stroke-linecap="round"/>
    <path d="M427.916 188.775c-29.266-11.406-51.968-19.793-68.105-25.16-16.137-5.367-32.162-9.86-48.076-13.48-3.946 8.833-6.621 15.771-8.026 20.817" stroke="#E1F2FF" stroke-width="3" stroke-linecap="round" stroke-linejoin="round"/>
  </g>
</svg>
