<svg width="487" height="274" xmlns="http://www.w3.org/2000/svg">
  <g fill="none" fill-rule="evenodd">
    <g stroke-linecap="round">
      <path stroke="#ACD3EF" stroke-width="3" d="M36.75 23.316v11.368M31.324 29.25h10.352"/>
      <path stroke="#5563B6" stroke-width="2" d="M147 28.868v7M143.176 32.118h7M91 75.868v7M87.176 79.118h7"/>
      <path stroke="#ACD3EF" stroke-width="3" d="M265.75 36.316v11.368M260.324 42.25h10.352M105.75 189.316v11.368M100.324 195.25h10.352"/>
      <path stroke="#5563B6" stroke-width="2" d="M176.5 200.5v7M172.676 203.75h7M16 226.868v7M12.176 230.118h7M234 242.868v7M230.176 246.118h7"/>
      <path stroke="#ACD3EF" stroke-width="3" d="M212.75 152.316v11.368M207.324 158.25h10.352"/>
    </g>
    <path d="M96.451 153.88c4.845-5.927 2.674-19.483 1.051-26.313 2.886-.408 4.673-.7 7.082-1.746 2.384-1.035 3.145-2.632 2.461-4.36-.907-2.296-3.077-2.429-6.483-2.13-3.787.331-12.112 1.125-16.01 1.822-.385.069-.777.13-1.166.194l-.388.065c-2.32.394-4.43.953-4.26 3.545.186 2.849 2.695 3.38 5.485 3.618 1.863.16 6.261-.308 6.261-.308l.015.073.026.124c.13.638.554 2.738.932 4.947l.09.531c.221 1.33.416 2.662.512 3.702.289 3.15 1.31 8.435-1.098 10.755-1.462 1.41-3.936.126-6.303-1.306l-.417-.253c-.622-.382-1.232-.762-1.81-1.096-2.219-1.28-4.38-.844-5.552 1.707-.84 1.826-.16 3.451 2.115 5.207 6.221 4.803 13.394 6.195 17.457 1.223Zm41.455-12.682c.5-5.184.669-11.525-.454-16.627-.534-2.425-2.4-3.24-4.133-3.016-1.984.255-2.41 1.927-2.582 3.619-.364 3.566 2.948 23.984-6.526 24.01-7.353.019-5.366-20.69-5.692-23.617-.363-3.25-1.74-4.785-4.435-4.064-3.039.813-2.859 4.198-2.982 6.72-.307 6.312.15 16.877 3.2 22.496 1.64 3.02 5.49 5.951 9.87 6.256 8.068.56 13.025-8.431 13.734-15.777Zm38.202 12.668c1.87-4.332 1.495-26.586 1.418-30.108-.043-1.993-.023-4.538-3.375-4.568-2.346-.02-3.294 2.26-3.675 4.9-.181 1.261-.274 5.718-.356 10.323l-.024 1.383c-.07 3.99-.137 7.864-.253 9.637-1.7-1.891-3.72-4.624-5.759-7.488l-.556-.784c-3.8-5.37-7.565-10.97-9.331-12.2-3.02-2.103-4.918-2.171-7.017-1.27-2.205.946-3.474 3.526-3.553 5.315-.102 2.303-.378 17.257-.162 23.243.064 1.766.432 4.692 3.667 4.715 2.698.019 3.129-3.367 3.266-5.25.277-3.808.34-9.228.342-13.468v-.86a592.41 592.41 0 0 0-.023-4.386c.265.338.598.774.985 1.289l.404.54c3.933 5.268 12.2 16.796 14.252 18.846.24.24.464.493.683.746l.262.304c.958 1.112 1.937 2.168 4.044 2.27 1.823.089 3.83-.97 4.76-3.129Zm13.224 3.133c4.206-.054 10.165-.706 14.83-1.78 1.469-.338 3.216-1.738 3.06-4.085-.19-2.833-2.402-3.659-3.653-3.627-3.655.093-13.684 1.439-13.684 1.439l-.168-7.252s3.09-.186 6.132-.503l.552-.059c1.467-.162 2.877-.353 3.874-.57 3.908-.847 3.348-7.454-2.027-7.41-2.555.022-8.387.353-8.387.353l-.134-5.025h.036c.628-.01 9.468-.144 12.327-.343 2.408-.167 5.132-1.353 4.672-4.646-.378-2.7-3.521-3.282-6.034-3.322-2.817-.044-9.882-.306-14.316.347-1.477.218-3.552 2.237-3.61 4.595l-.105 21.779c.271 6.82.037 10.193 6.635 10.109Z" fill="#5E63B6" fill-rule="nonzero"/>
    <g transform="translate(254.449 24.03)">
      <path d="M67.635 76.983c.405-.125.71.871.916 2.988-1.863 1.166-2.878 1.479-3.043.938-.249-.81 1.52-3.74 2.127-3.926ZM131.551 120.97l9.219-1.004c.6 1.366-.14 2.7-2.219 4.005-2.079 1.304-4.8 2.307-8.165 3.01l1.165-6.01ZM145.948 98.23c.58-1.408.73-2.623.448-3.647-1.4-5.11-2.337-5.942-2.742-6.48 6.019 1.678 7.768 6.19 5.247 13.536-3.342 1.2-5.168 1.692-5.479 1.48-.103-.071-1.175-3.164-1.456-6.207-.296-3.206.213-6.38.722-6.858.22-.206.485 1.7 1.622 5.047.318.938.864 1.98 1.638 3.128Z" fill="#89C3EA"/>
      <path d="M144.278 101.252c1.38-1.235 3.64-.463 5.251-.41.601.019 1.095-1.379 1.443-1.116.51.385.09.626-.387 1.958-.07.197.804-.066.694.287-.086.276-.543 1.177-.95 1.95-.198.375-.739.885-1.622 1.531l-5.351.177c-.65-1.788-.342-3.247.922-4.377ZM33.551 137.97c.466-.53.775-.65.927-.36.776 1.48 1.19 4.3 1.637 4.908 1.812 2.458 3.408 3.612 3.547 4.16.31 1.217-2.998-.595-4.408-3.134-.94-1.693-1.508-3.55-1.703-5.573ZM28.393 113.46c-.497 1.595-2.2 3.882-2.312 4.628-.458 3.02-.145 4.963-.434 5.45-.64 1.08-1.699-2.541-.9-5.334.797-2.792 3.792-5.213 3.646-4.744ZM47.566 112.47c-.743-2.07-.033-4.774 1.216-4.774.57 0 2.136 3.705 7.052 9.71.82 1 3.341 3.417 5.719 5.057 1.099.759 2.051.344 2.998 1.355.501.535.501 1.586 0 3.153-1.568.204-2.567.204-2.998 0-.956-.454-1.465-1.383-1.993-1.659-3.185-1.662-4.93-3.694-6.296-5.141-2.906-3.077-4.954-5.63-5.698-7.7Z" fill="#89C3EA"/>
      <path d="M51.491 98.41c-1.794 3.03-2.376 3.779-4.914 5.917-.602.507-1.573-.03-2.398.846-4.307 4.575-10.704 7.742-12.511 8.798-1.807 1.055-3.622.326-3.096-1.385.13-.422.39-1.63 1.602-2.497 3.709-2.65 11.52-6.202 12.868-7.41 1.651-1.48 2.333-3.89 3.384-5.085 2.452-2.788 7.285-2.932 5.065.816Z" fill="#89C3EA"/>
      <path d="M51.177 99.876c-.068-2.198 1.062-4.62 2.25-4.235.543.177 4.601 5.454 7.42 12.684.471 1.205 2.123 4.282 3.877 6.578.811 1.06 2.277-.322 2.866.932.31.664-.158 2.09-1.407 4.28-1.554-.29-2.505-.598-2.852-.926-.769-.726-.965-1.767-1.382-2.193-1.144-1.166-3.782-4.119-5.854-7.604-1.86-3.13-3.177-6.766-4.007-8.647-.278-.63-.902-.568-.911-.869ZM64.025 62.162c.04-.615 1.923 1.116 2.368 4.027.337 2.207-2.017 8.55-4.205 12.157-1.122 1.85-2.749 1.22-2.805 1.14-.1-.138-1.174-.268-1.303-1.776-.07-.808.302-1.74.495-2.895.23-1.375.306-2.985.465-3.963.618-3.788 4.978-8.594 4.985-8.69Z" fill="#89C3EA"/>
      <path d="M57.69 76.288c.04-.615 2.632 1.786 3.076 4.697.51 3.338-1.103 7.336-.741 8.024.313.596-4.31 2.191-4.477 1.957-.215-.3-1.051-4.781-.508-8.114.618-3.788 2.643-6.468 2.65-6.564Z" fill="#89C3EA"/>
      <path d="M55.548 90.966c-.068-2.198 3.29-2.342 4.477-1.957.317.104.565 2.569 2.163 5.702 1.139 2.233 7.136 10.816 8.89 13.111.811 1.06-1.79 4.839-2.207 4.414-1.144-1.167-7.417-7.955-9.488-11.44-1.861-3.13-3.826-9.529-3.835-9.83ZM64.927 81.627c.315-2.177 4.179-1.925 5.281-1.34.295.157.036 2.682 1.066 6.046.733 2.397 4.037 12.175 5.366 14.74.614 1.186-2.604 4.455-2.94 3.963-.925-1.347-5.924-9.121-7.358-12.913-.89-2.352-.652-6.988-.966-9.271-.14-1.023-.462-1.133-.449-1.225ZM45.84 106.971c1.423 0 2.884-.236 2.456 4.098-.345 3.505-.556 4.43-1.953 7.44-.331.714-1.438.638-1.816 1.78-1.97 5.966-7.41 15.113-8.6 16.833-1.192 1.72-2.811 1.773-3.057 0-.247-1.773.974-4.088 2.173-6.356 2.693-5.092 6.457-10.048 7.4-12.257.871-2.038.47-4.511.918-6.038 1.044-3.563 2.102-5.5 2.479-5.5ZM99.701 171.334c-.64-.239-1.113-.298-1.418-.18-1.557.607-3.72 2.465-4.456 2.63-2.98.667-4.94.49-5.406.813-1.032.714 2.653 1.517 5.383.527 1.82-.661 3.786-1.924 5.897-3.79ZM114.53 168.246c-1.556.607-2.683 2.45-4.791 3.318-3.19 1.316-4.853.71-5.318 1.033-1.032.714 2.588.99 5.318 0 2.73-.991 5.25-4.53 4.792-4.35Z" fill="#89C3EA"/>
      <path d="M115.574 145.31c1.25.288 1.415 7.333-.458 9.847-.443.596-1.885.654-2.462 1.639-3.009 5.143-9.748 12.538-11.163 13.895-1.415 1.356-3.837.68-3.673-1.018.164-1.698 2.721-3.203 4.261-5.067 3.457-4.185 7.825-8.026 9.127-9.886.385-.55.125-1.19.33-1.984.434-1.687 1.125-3.723 1.616-4.626 1.681-3.098 2.09-2.877 2.422-2.8ZM128.758 137.967c2.02-.868.386-3.285-.466-4.198-.148-.16-2.896-.842-6.329-1.225-2.645-.295-5.832-.201-8.514-.42-2.957-.241-5.324-.79-6.24-.99-1.303-.287-1.104-1.08-2.49-1.083-.733-.002-1.767 1.058-3.103 3.181.924 1.35 1.958 2.028 3.103 2.033.297.002.457-.008 1.572 0 2.684.02 7.035 2.693 8.441 2.702 2.717.017 13.302.31 14.026 0ZM132.046 127.073c.83-.357-.064-1.126 0-1.943.093-1.172.844-2.468.342-3.006-.148-.16-10.865.636-13.547.417-2.956-.241-8.886-.904-9.801-1.105-1.304-.286-3.953 4.982-2.235 4.99.297.002 8.521 1.532 9.927 1.541 2.717.017 14.59-.584 15.314-.894Z" fill="#89C3EA"/>
      <path d="M136.551 128.05c-2.956-.24-9.568 6.957-7.85 6.965.297.002.393 1.807 1.509 1.815 1.888.014 8.975-4.22 10.066-6.813.459-1.09-2.93-1.902-3.725-1.966Z" fill="#89C3EA"/>
      <path d="M147.457 119.781c-1.188-.097-2.517 2.904-4.437 4.323-2.86 2.115-7.056 4.237-6.028 4.242.296.002 2.102 1.476 3.218 1.484.945.007 4.757-1.774 7.755-3.968 2.99-2.188 5.169-4.786 5.714-6.08.459-1.092-5.428.064-6.222 0ZM124.069 136.962c1.277-.067 2.995 7.773 1.902 10.896-.26.74-1.624 1.218-1.902 2.396-1.45 6.15-7.41 15.717-8.388 17.52-.977 1.803-1.92 1.79-2.235 0-.316-1.79 1.715-4.076 2.67-6.436 2.146-5.297 5.022-10.94 5.751-13.228.215-.675.025-.823 0-1.696-.053-1.858.042-4.147.26-5.216.227-1.113-.23-2.484 0-3.095.526-1.402 1.706-1.128 1.942-1.14ZM112.524 148.28c2.021-.869 3.515-3.233 2.664-4.147-.39-.417-3.056-.5-10.8 0-1.291.084-5.89 1.352-8.71.732-1.305-.287-1.573-1.811-2.959-1.814-.733-.002-1.527.896-2.383 2.695.92 1.286 1.601 2.017 2.045 2.193.983.39 2.01.128 2.572.326 3.388 1.196 6.063 1.086 8.054 1.099 2.717.017 5.321-.955 7.168-1.254 1.03-.167 1.626.48 2.35.17Z" fill="#89C3EA"/>
      <path d="M120.892 140.828c2.02-.868 3.174-2.864 2.323-3.777-.39-.418-5.078.063-12.822.562-1.291.084-6.362 1.14-9.183.52-1.304-.286-1.105-1.08-2.49-1.082-.734-.002-1.768 1.058-3.104 3.181 1.625 1.18 2.66 1.857 3.103 2.033.29.115.773-.56 1.889-.55 2.683.02 7.24.541 8.647.55 2.716.018 10.913-1.127 11.637-1.437ZM85.684 61.789c5.822-6.716 11.13-8.606 15.923-5.671-2.566.397-6.072 2.189-10.518 5.375 1.875-.13 3.193-.263 3.954-.398 3.473-.615 4.88-1.163 4.742-.706-.846 2.8-4.996 4.483-12.45 5.047l-1.65-3.647Z" fill="#89C3EA"/>
      <path d="M80.551 64.048c.854-2.21 1.604-3.475 2.251-3.795.434-.216.29 1.039.73.718.505-.369 1.589-2.3 1.98-2.284.649.026.495 1.142.942 1.566.589.558 1.935.253 2.097.718.66 1.894 1.508 2.988 0 5-1.005 1.34-3.671 2.487-8 3.437v-5.36Z" fill="#89C3EA"/>
      <path d="M100.564 6.594c17.085-7.334 30.45-10.14 40.407 0-3.921-.471-7.972 1.375-13.332 3.481-1.329.523-1.1 2.861-2.536 3.417-1.443.558-4.612-.724-6.005 0-.771.401-.082 3.359-.854 3.766-1.885.995-6.236.413-7.823 1.55-1.006.723 2.05 1.757 1.195 2.525-1.145 1.028-4.292 1.678-5.414 2.662-3.624 3.179-4.545 6.76-4.913 7.011-.098.067 11.012-5.042 20.514-9.673 9.16-4.464 14.178-9.992 15.145-8.526.542.822-2.532 9.656-10.217 13.624-7.427 3.835-5.89 2.413-16.31 5.826-.578.19-4.578 1.83-5.77 2.367-1.204.541-.315 4.93-1.704 6.236-.688.646-6.148-.587-6.784 0-.49.451 1.4 3.585.848 3.965-1.074.739-7.02-1.653-7.943-.917-1.017.812.372 3.743-.73 4.195-.746.305-4.59-1.05-5.503-1.39-2.225-.828-4.12-1.112-5.6-.66-7.258 2.221-12.263 2.253-12.904-2.145-.14-.964-1.773-2.56-1.44-3.772.224-.815 1.694-.165 2.129-1.062 4.928-10.151 21.537-26.467 35.544-32.48Z" stroke="#5563B6" stroke-width="4" fill="#FFF" stroke-linejoin="round"/>
      <path d="M77.705 45.668c1.721 2.579-1.365 5.036-.42 8.241.297 1.011 3.185 5.909 3.405 6.794.757 3.042 1.945 5.815.488 7.677-1.588 2.028-4.512 3.677-7.71 3.11-2.845-.506-8.368-1.514-11.244-9.785-.173-.497-3.36-8.458-3.271-9.126.169-1.26 3.852-.03 4.667-.866.723-.742-.229-3.724.366-4.483.792-1.012 4.662-4.322 6.262-5.11 2.506-1.234 6.218 1.691 7.457 3.548Z" stroke="#5563B6" stroke-width="4" fill="#FFF"/>
      <path d="M63.62 69.412c.86-5.037 8.748-7.099 15.09-3.973.967.476 4.665 1.57 5.07 1.922.529.461 1.238 8.147 1.192 8.927-.036.62 1.086 4.783 3.366 12.49l-9.165 8.134c-.504-1.658-.938-2.729-1.303-3.213-2.329-3.092-4.413-4.447-5.344-5.853-3.68-5.557-6.185-13.638-6.373-14.03-1.699-3.538-2.936-2.04-2.533-4.404ZM111.551 106.97c4.15-.544 6.922-.814 8.319-.809.722.003 2.3.81 5.75.81 1.782 0 9.306-2.762 9.825-2.484.473.254 2.485 2.188 2.814 2.484 1.916 1.725 1.568 3.776 2.51 5.636 2.123 4.19 2.954 7.285-1.218 9.364-4.496 2.24-14.773.852-30.832-4.165l2.832-10.835Z" stroke="#5563B6" stroke-width="4" fill="#FFF"/>
      <path d="M162.947 53.962c4.672-16.463 6.722-16.779 9.73-16.779.093 0-2.218 4.382-2.787 8.972-1.45 11.701.284 29.295 0 28.778-.065-.12 1.686-.667 4.469-5.525.369-.644-.422-3.126 0-3.972.83-1.665 2.213-1.362 3.237-2.988.684-1.086-1.363-5.855-1.021-6.813.32-.9 3.361-.331 3.465-1.292.18-1.67-2.492-4.435-2.444-6.196.055-2.006 1.97-1.878 2.444-3.502.519-1.78-.428-5.28-1.042-6.799-1.5-3.713-4.67-5.12-4.64-5.233 14.648.998 22.87 11.29 22.005 28.394-.626 12.362-2.16 22.446-26.069 51.225-.234.283-.267 1-.404 1.501-.189.693-1.358.03-2.98 0-.857-.016-2.508.063-4.95.238l-.59-8.626c-2.183-3.053-3.693-5.287-4.53-6.702-.322-.542 1.874.238 1.703-.356-.433-1.5-4.187-6.515-4.254-7.32-.082-.989 3.952.628 4.254 0 .332-.695-.525-3.424-.521-3.802.005-.58-2.788-3.742-2.775-4.313.012-.523 4.397-.71 4.415-1.225.086-2.386-1.327-2.431-1.12-4.648.093-.987 2.163-1.092 2.276-2.046.26-2.195-.124-4.392 0-6.514.316-5.383.975-10.39 2.129-14.457Z" stroke="#5563B6" stroke-width="4" fill="#FFF" stroke-linejoin="round"/>
      <path d="M136.077 107.051c0-1.091 3.419-2.554 7.922-2.593 3.505-.03 7.717 1.296 11.166 1.135 2.171-.1 2.237-1.11 3.932-2.195 1.694-1.086 3.64 0 4.572 1.06 3.6 4.096.394 9.502 0 9.805-.597.459-.693 4.078-1.778 5.518-1.121 1.489-4.747 1.999-5.335 2.001-5.556.024-11.588-.264-15.786-2.8-5.112-3.089-4.693-10.657-4.693-11.93Z" stroke="#5563B6" stroke-width="4" fill="#FFF"/>
      <path d="M8.205 182.574c3.28 8.778 10.476 17.352 21.587 25.723 16.666 12.557 38.761 8.236 38.67 9.04-.104.932 1.316 2.169 1.122 2.481-.665 1.071-2.584.078-2.754.569-.367 1.053 1.093 1.878.808 2.25-.762.987-2.66-1.013-3.017-.548-.792 1.03-.714 1.698-1.162 2.039-1.137.864-2.509-2.499-3.002-2.039-1.395 1.303-.112 2.517-.794 2.892-1.58.869-2.395-3-3.064-2.642-.713.383-.327 1.646-.765 1.789-1.702.555-2.03-3.98-2.73-3.741-.551.188-.396 2.17-.756 2.25-1.01.222-1.744-2.906-2.293-2.819-.9.142-.239 2.931-.8 2.818-1.173-.237-1.685-2.146-2.316-2.25-1.03-.168-1.13 1.822-1.709 1.703-1.11-.228-.877-2.158-1.477-2.271-.774-.145-1.785 1.501-2.26 1.39-1.035-.24-.59-2.963-1.178-3.089-1.063-.227-.624 1.858-1.223 1.699-1.174-.311-1.31-3.092-1.894-3.246-.478-.126-1.386 1.648-1.717 1.547-1.113-.337-.535-3.907-1.107-4.07-.647-.186-1.559 1.768-1.95 1.643-.78-.251-.22-2.979-.643-3.11-.514-.16-1.68 1.573-1.989 1.466-.488-.168.303-3.15 0-3.252-.32-.108-1.761 1.87-2 1.786-.642-.227.439-3.125 0-3.274-1.53-.518-2.5 1.757-3.179 1.488-.584-.232.646-3.862.286-4.003-.504-.197-1.66.833-1.994.697-.778-.317-.345-2.7-.79-2.872-.508-.197-1.31 2.312-1.65 2.175-.735-.295-.577-2.586-1.032-2.764-.82-.32-1.254 1.915-1.739 1.713-.786-.327-.678-3.093-1.143-3.284-.691-.285-1.683 1.08-2.103.898-.649-.282.413-2.45 0-2.63-.803-.35-1.758.99-2.225.77-.554-.26.381-2.597 0-2.781-2.09-1.012-3.906-.133-4.018-.383-.774-1.72 1.93-3.627 1.93-4.59 0-.98-2.544.871-3.265-.87-.282-.683 1.783-1.503 1.335-2.765-.203-.571-2.605.972-3.015 0-.35-.83.621-.68 0-2.698-.143-.467-2.068.755-2.317 0-.16-.483.957-1.713.734-2.665-.186-.795-2.254.219-2.78-1.593-.203-.695 1.544-.919 1.357-2.544-.08-.699-2.613-2.197-2.12-3.17.24-.477 1.137-.324 2.809-1.06.302-.134-.64-3.359 0-3.855.127-.099-.027.449 2.317 0 .357-.068-.936-2.102 0-2.386.53-.16 1.534 3.985 3.015 12.438Z" stroke="#89C3EA" fill="#89C3EA" stroke-linejoin="round"/>
      <path d="M9.707 171.448c2.55-.565 6.412.838 11.316 3.256 4.983 2.457 9.638 6.178 10.758 7.945-1.643 2.877-18.365 9.224-23.393 5.498-2.106-1.561-4.635-4.155-4.774-7.331-.185-4.233 3.543-8.803 6.093-9.368Z" stroke="#5563B6" stroke-width="4" fill="#FFF"/>
      <path d="M18.917 184.38c2.55-.564 19.055-.236 20.175 1.53-1.643 2.879-11.49 15.977-16.261 17.301-4.77 1.325-12.508-6.748-12.693-10.98-.185-4.233 6.228-7.285 8.779-7.85ZM69.313 210.997c-.742-2.504-3.597-5.754-8.09-8.871-4.565-3.168-10.32-4.882-12.407-5.005-1.721 2.832.835 20.535 6.532 23.126 2.386 1.085 5.88 2.04 8.726.62 3.792-1.89 5.981-7.366 5.239-9.87Z" stroke="#5563B6" stroke-width="4" fill="#FFF"/>
      <path d="M53.358 207.893c-.341-2.59-6.295-17.987-8.338-18.435-2.142 2.528-11.083 16.261-10.695 21.197.387 4.936 10.619 9.446 14.66 8.172 4.04-1.274 4.714-8.344 4.373-10.934Z" stroke="#5563B6" stroke-width="4" fill="#FFF"/>
      <path d="M31.78 187.44c2.551-.564 14.604 6.564 15.724 8.33-1.643 2.878-9.976 17.715-18.877 13.503-8.901-4.21.603-21.268 3.154-21.832Z" stroke="#5563B6" stroke-width="4" fill="#FFF"/>
      <path d="M36.505 174.81c2.43-1.309 17.754 9.855 19.976 13.361-1.642 2.878-4.226 6.406-6.915 9.445-1.36 1.537-8.033.642-13.061-3.084-4.913-3.641-7.673-9.95-6.406-11.665 2.563-3.47 3.975-6.747 6.406-8.057Z" stroke="#5563B6" stroke-width="4" fill="#FFF"/>
      <path d="M41.777 165.754c2.43-1.31 18.482 10.911 20.704 14.417-.878 1.54-.98 3.586-2.378 5.256-1.147 1.371-2.541 1.784-3.792 3.198-1.36 1.537-7.539.003-12.567-3.723-4.912-3.641-8.243-8.037-7.645-10.035.464-1.554.877-3.282 1.55-4.734.957-2.07 2.7-3.61 4.128-4.38Z" stroke="#5563B6" stroke-width="4" fill="#FFF"/>
      <path d="M47.487 154.73c2.43-1.309 21.124 11.16 23.346 14.666-.879 1.54-2.251 5.74-3.648 7.41-1.147 1.37-2.707 2.395-4.227 3.482-1.52 1.087-8.186-.66-13.214-4.386-4.912-3.641-9.454-8.408-8.856-10.407.464-1.554 1.104-4.32 1.776-5.771.958-2.07 3.394-4.224 4.823-4.993Z" stroke="#5563B6" stroke-width="4" fill="#FFF"/>
      <path d="M54.328 143.635c2.431-1.31 22.019 11.886 24.24 15.391-.878 1.54-2.16 6.18-3.557 7.85-1.147 1.37-2.659 2.873-4.178 3.96-1.52 1.086-10.494-2.332-15.522-6.059-4.912-3.64-10.02-7.283-9.423-9.282.464-1.554 1.104-4.32 1.776-5.771.958-2.07 5.236-5.32 6.664-6.09Z" stroke="#5563B6" stroke-width="4" fill="#FFF"/>
      <path d="M62.328 132.635c2.431-1.31 22.019 11.886 24.24 15.391-.878 1.54-2.16 6.18-3.557 7.85-1.147 1.37-2.659 2.873-4.178 3.96-1.52 1.086-10.494-2.332-15.522-6.059-4.912-3.64-10.02-7.283-9.423-9.282.464-1.554 1.104-4.32 1.776-5.771.958-2.07 5.236-5.32 6.664-6.09Z" stroke="#5563B6" stroke-width="4" fill="#FFF"/>
      <path d="M134.413 41.388c.146.305-5.036 1.838-8.474 11.236-.834 2.281-2.158 6.61-3.972 12.99l-1.105 1.747c2.363-9.114 4.325-15.12 5.886-18.014 2.341-4.342 7.358-8.598 7.665-7.959ZM139.693 41.989c.146.304-7.451 8.502-10.879 14.115-2.285 3.742-3.96 6.702-5.026 8.878l-.971 1.021c3.9-7.8 7.159-13.19 9.778-16.171 3.928-4.473 6.79-8.482 7.098-7.843ZM140.261 43.931c.047.097-1.728 1.457-4.17 5.038-1.177 1.727-2.87 5.378-5.961 10.215-1.044 1.633-3.002 4.36-5.875 8.177l-.338-.602c2.671-3.667 4.53-6.296 5.577-7.89 3.646-5.544 5.897-9.522 7.155-11.257 2.129-2.936 3.522-3.868 3.612-3.68ZM143.046 47.353c.038.08-1.108 1.897-3.351 4.387-1.783 1.978-4.281 4.17-7.27 7.76-1.816 2.18-3.14 5.163-5.477 7.861-.897 1.036-2.43 2.47-4.598 4.3h-.547c2.381-2.515 4.039-4.346 4.973-5.496 3.41-4.193 5.579-7.455 7.08-9.188 2.091-2.414 4.423-4.32 5.839-5.838 2.45-2.63 3.267-3.96 3.35-3.786Z" stroke="#5563B6" stroke-width="2"/>
      <path d="M50.459 89.94c16.868-8.907 37.172-20.07 56.587-26.97 1.959-.696 4.076-.696 6.353 0C89.055 73.855 67.14 84.305 47.656 94.318c-13.24 6.804-27.831 15.169-35.163 21.47-8.478 7.285-7.366 13.694-7.887 13.183-.322-.316.012-6.913 3.065-10.423 8.483-9.753 23.643-18.5 42.788-28.608ZM125.62 144.498c2.96-19.217 5.636-42.997 7.47-63.472.222-2.486-.58-4.652-2.405-6.498-1.705 1.152-2.131 2.425-1.279 3.818 1.28 2.09.883 5.597.715 7.509-1.966 22.406-2.55 42.074-6.56 60.437-6.373 29.181-7.625 31.144-12.211 39.728-5.076 9.5-11.614 11.476-10.973 11.825.396.216 6.897-3.135 9.362-7.082 6.846-10.963 12.396-23.623 15.882-46.265Z" stroke="#5563B6" stroke-width="3" fill="#5563B6" stroke-linejoin="round"/>
      <path d="M110.134 64.922c.654-1.024 1.657-.226 2.19-.71.653-.591.802-2.322 1.24-2.014.337.24 2.427 3.325 1.848 8.88-.218 2.092-1.428 6.017-3.63 11.774l-7.767-5.693c1.62-3.427 2.741-5.77 3.362-7.03.34-.691.566 3.57.856 3 .43-.847 2.253-2.861 2.595-4.753-.694-1.506-.883-3.158-.694-3.454ZM129.543 78.084c.67-1.014-.225-.278 0-.961.275-.837 2.173-2.36 1.713-2.633-.356-.212-2.9-1.874-7.739.913-1.823 1.05-5.497 3.873-11.024 8.468l8.36 4.78a582.118 582.118 0 0 0 5.054-5.93c.493-.593-3.491.934-3.088.438.335-.414 1.954-1.029 2.602-1.985.508-.75.743-1.212 1.441-1.687a3.134 3.134 0 0 0 2.68-1.403Z" stroke="#5563B6" stroke-width="4" fill="#FFF"/>
      <ellipse stroke="#5563B6" stroke-width="4" fill="#5563B6" transform="rotate(30 119.868 80.288)" cx="119.868" cy="80.288" rx="2" ry="2.5"/>
      <ellipse stroke="#5563B6" stroke-width="4" fill="#5563B6" transform="rotate(41 111.868 76.288)" cx="111.868" cy="76.288" rx="2" ry="2.5"/>
      <path d="M102.505 76.224c.591-.364 4.158-.586 6.24.5.976.509-.037 3.843 1.203 2.948 5.213-3.76 12.068-17.1 14.694-15.292 2.44 1.681-5.947 12.855-7.362 19.473-.366 1.709 1.709-.664 3.169 0 1.251.57 1.877 4.257 2.096 4.652-.712 1.426-5.64 22.328-14.863 37.726-7.8 13.024-20.07 20.944-21.113 21.795-.734.6-2.388-2.15-5.699-3.882-2.254-1.18-5.829-.858-8.25-2.709-1.799-1.376-3.415-4.258-4.934-5.49-2.744-2.226-5.745-2.936-5.482-3.942.332-1.266 3.952-17.352 13.18-30.157 10.14-14.068 26.001-24.933 27.12-25.622Z" stroke="#5563B6" stroke-width="4" fill="#FFF"/>
      <path d="M108.051 88.47c-8.2 8.211-13.873 14.62-17.019 19.226-3.145 4.605-6.806 11.864-10.98 21.775M189.967 56.714c.313 9.815-1.103 17.026-4.248 21.632-3.146 4.606-7.637 10.794-13.475 18.566M104.015 12.716c-4.725 1.546-9.03 4.03-12.917 7.455-3.886 3.425-6.962 6.958-9.23 10.601" stroke="#E1F2FF" stroke-width="3" stroke-linecap="round"/>
    </g>
    <path d="M341.018 165.477c.073.114.117.197.132.224 0 .005.001-.003 0 0 0 .001 0 0 0 0-2.013-2.008-3.957-1.61-5.75-2.435a.723.723 0 0 0-.082-.047c-.04-.019-.079-.04-.117-.063-.453-.275-.788-.813-1.02-1.502l-.003-.011c-.02-.057-.038-.116-.056-.174v-.002a7.826 7.826 0 0 1-.09-.336l-.01-.035a3.04 3.04 0 0 0-.02-.095l-.023-.098-.019-.098-.02-.101-.012-.072c-.162-.917-.195-1.966-.132-2.981 0 0-.003-.011 0 0 .755.758 1.574 1.445 2.301 1.914.876.565 2.042 1.062 3.21 1.385.688-.915 1.254-1.963 1.547-2.9.245-.786.412-1.777.475-2.804l.186.19.054.057c.044.046.088.091.13.138l.06.064a17.019 17.019 0 0 1 .18.198c.054.06.106.12.158.18a.182.182 0 0 1 .016.018l.179.21.014.017c.053.063.104.126.155.19l.032.039.138.175a12.22 12.22 0 0 1 .63.894l.007.008c.228.362.42.718.562 1.057l.058.148c0 .002.002.003.003.005l.048.132v.001l.001.005c.017.047.032.093.045.14l.005.018v.001a3.294 3.294 0 0 1 .054.204l.003.011a2.496 2.496 0 0 1 .053.326l.003.054.005.08-.001.057-.001.072a1.353 1.353 0 0 1-.01.126l-.009.054-.012.07-.012.048c-.006.026-.014.05-.022.077l-.012.037a1.043 1.043 0 0 1-.044.109.688.688 0 0 0-.026.065c-.822 1.669-2.615 2.482-2.809 5.18" fill="#9452BA"/>
  </g>
</svg>
