<svg width="455" height="473" xmlns="http://www.w3.org/2000/svg">
  <g transform="translate(1 20)" fill="none" fill-rule="evenodd">
    <path stroke="#B0B0DB" stroke-width="2.681" stroke-linecap="round" d="M380.26 9.86l.11-9.52M375.56 5.04l9.51.12M5.18 371.9l.11-9.51M.47 367.09l9.52.11"/>
    <path d="M274.41 19.66c43.17 8 103.26 25.27 144.57 100.45 37.46 68.17 59.33 172.21-12.18 237.16-71.51 64.95-287.89 84.45-369.57-1.92S19.49-27.38 274.41 19.66z" fill="#EFEFF8" fill-rule="nonzero"/>
    <path stroke="#B0B0DB" stroke-width="2.681" stroke-linecap="round" d="M343.05 433.75l.11-9.51M338.35 428.94l9.51.11"/>
    <circle fill="#DFE1F0" fill-rule="nonzero" cx="236.95" cy="221.95" r="99.33"/>
    <circle fill="#FFF" fill-rule="nonzero" cx="228.48" cy="213.48" r="99.33"/>
    <path d="M257.5 264.34c.43 1.29.82 2.16.93 2.45-2.92-28.13 13-39.86 18.16-58.55a7.78 7.78 0 01.16-.92c.11-.435.193-.875.25-1.32.76-5.17-1.36-11.19-5.37-17.46l-.06-.1c-.33-.52-.68-1-1-1.56-.66-1-1.37-1.91-2.1-2.88-.08-.09-.15-.2-.23-.3l-.62-.78-.64-.81-.66-.79-.68-.81-.5-.57A141.42 141.42 0 00242 159.28a138.8 138.8 0 01.28 29.64c-1.21 10.21-4.87 22.09-9.93 32.86-11.86-1-24-3.72-33.44-7.75a137.12 137.12 0 01-25.61-15l.3 2.62c0 .26.07.52.11.79.08.62.16 1.24.25 1.87 0 .29.08.58.13.86.09.64.18 1.26.28 1.88 0 .25.08.51.13.76.13.79.26 1.57.4 2.36a1.57 1.57 0 000 .23c.16.91.34 1.81.52 2.71a.78.78 0 000 .21c.16.81.33 1.61.5 2.41 0 .16.07.32.11.49.16.73.33 1.45.5 2.18 0 .14.08.28.11.43.2.83.41 1.66.62 2.48.7 2.64 1.47 5.19 2.3 7.63a.94.94 0 000 .09 74.3 74.3 0 004.8 11.15c.26.48.53.95.8 1.41v.05c.24.42.49.83.74 1.23v.05c.27.43.54.85.82 1.25l.12.16c.36.53.74 1 1.1 1.51l.19.24a22.19 22.19 0 001.39 1.63c.31.35.63.68.95 1l.41.38.61.56.46.37c.19.17.4.32.59.47.19.15.31.23.48.34.17.11.4.29.61.42l.47.3.66.37.45.23.76.34.38.16c.379.152.766.283 1.16.39.27.08.49.16.7.24 18.78 5 37.07-2.9 60 13.5" fill="#9452BA" fill-rule="nonzero"/>
    <path stroke="#B0B0DB" stroke-width="13.512" stroke-linecap="round" stroke-linejoin="round" d="M233.76 4v79.91M233.76 83.91l24.42-24.42M233.76 83.9l-24.43-24.42M233.76 424v-79.91M233.76 344.09l-24.43 24.42M233.76 344.1l24.42 24.42M419.7 212.59h-59.91M359.79 212.59l24.43 24.43M359.8 212.59l24.43-24.42M38.3 212.59h59.91M98.21 212.59l-24.43-24.42M98.2 212.59l-24.43 24.43"/>
    <path stroke="#DFE1F0" stroke-width="13.512" stroke-linecap="round" stroke-linejoin="round" d="M394.9 54.83l-70.55 70.55M324.35 125.38h34.54M324.36 125.37V90.83M69.83 379.9l70.55-70.55M140.38 309.35h-34.55M140.37 309.36v34.54M393.03 376.04l-70.55-70.55M322.48 305.49v34.54M322.49 305.49h34.54M66.96 49.97l70.55 70.55M137.51 120.52V85.98M137.51 120.51h-34.55"/>
  </g>
</svg>
