<svg width="455" height="473" xmlns="http://www.w3.org/2000/svg" xmlns:xlink="http://www.w3.org/1999/xlink">
  <defs>
    <linearGradient x1=".005%" y1="50.024%" x2="99.995%" y2="50.024%" id="a">
      <stop stop-color="#FCCE76" offset="0%"/>
      <stop stop-color="#81CCCC" offset="100%"/>
    </linearGradient>
    <path d="M164.069 298.928c.81-.05 1-.827 1.046-1.38.114-1.388.109-2.134.109-2.134l.105-.035c.426-.142 2.026-.683 2.586-.985 1.293-.696 2.685-1.724 2.52-3.68-.213-2.51-3.39-3.357-5.14-3.382-.493-.007-1.79-.132-2.264.392-.173.19-.156 1.332-.148 1.897.03 2.141.05 6.032.055 7.699.004 1.02.468 1.65 1.13 1.608zm1.047-5.916l-.041-3.524s.904-.033 1.733.3c.7.28 1.348.78 1.355 1.3.01.63-.752 1.235-1.516 1.583-.764.349-1.53.34-1.53.34zm8.522 5.918a23.881 23.881 0 004.559-.547c.451-.104.988-.535.94-1.256-.058-.87-.738-1.125-1.123-1.115-1.123.029-4.206.442-4.206.442l-.052-2.229s2.269-.136 3.246-.348c1.201-.26 1.029-2.291-.623-2.277-.786.006-2.578.108-2.578.108l-.041-1.545s2.888-.042 3.8-.105c.74-.051 1.577-.416 1.436-1.428-.116-.83-1.083-1.01-1.855-1.021-.866-.014-3.038-.094-4.4.106-.455.067-1.092.688-1.11 1.413l-.033 6.694c.084 2.096.012 3.134 2.04 3.108zm8.197 0c.522 0 .986-.53 1.046-1.133.116-1.172.023-2.15.053-3.056 1.136.973 1.91 1.827 3.314 2.748.74.485 1.757 1.031 2.379.62.941-.621.333-1.485-.114-1.838-1.589-1.253-3.01-2.423-3.01-2.423s2.462-1.018 2.493-3.45c.02-1.48-.743-3.03-4.06-3.017-1.014.004-2.552.078-2.92.572-.376.505-.312 3.75-.318 4.762-.007 1.292-.007 3.455.032 4.944.014.52.384 1.271 1.105 1.271zm1.08-6.76l-.001-2.352s2.283-.702 2.613.628c.41 1.65-2.612 1.723-2.612 1.724zm8.61 6.757c.93-.05.863-1.94.867-2.575.004-.532.048-2.13.048-2.13s2.368-.036 3.345-.248c1.201-.26 1.029-2.291-.623-2.277-.785.006-2.678.008-2.678.008l.059-1.843s3.622.062 4.496-.204c.778-.237 1.332-.765.939-1.627-.348-.763-1.122-.747-1.855-.723-.865.028-3.336-.094-4.699.106-.454.067-1.092.589-1.11 1.313-.047 1.902-.021 5.918-.032 6.794 0 2.126-.147 3.48 1.244 3.406zm17.003-5.031c.294-3.251-2.254-5.007-4.18-5.244-2.613-.322-5.401 1.365-5.493 4.575-.083 2.918 1.915 5.078 4.761 5.153 2.475.066 4.647-1.552 4.912-4.484zm-5.438 2.273c-1.617-.3-2.401-1.731-2.066-3.174.39-1.677 1.588-2.166 2.889-2.084 1.302.083 2.634 1.141 2.53 2.773-.12 1.886-1.875 2.759-3.353 2.485zm7.749 2.761c.522 0 .986-.53 1.046-1.133.115-1.172.023-2.15.053-3.056 1.136.973 1.91 1.827 3.314 2.748.74.485 1.756 1.031 2.378.62.942-.621.333-1.485-.114-1.838-1.588-1.253-3.01-2.423-3.01-2.423s2.463-1.018 2.494-3.45c.019-1.48-.744-3.03-4.061-3.017-1.014.004-2.55.078-2.92.572-.375.505-.312 3.75-.317 4.762-.007 1.292-.007 3.455.032 4.944.014.52.384 1.271 1.105 1.271zm1.08-6.76l-.001-2.352s2.283-.702 2.613.628c.41 1.65-2.613 1.723-2.613 1.724zm17.648 6.76c.562-.006.957-.45.985-1.108.108-2.5-.029-7.719-.04-8.622-.01-.772.049-1.889-.853-1.911-.89-.023-1.453.806-1.942 1.365-.553.631-2.61 2.866-2.61 2.866l-.034-.034c-.289-.287-2.329-2.315-2.901-2.927-.59-.63-.96-1.177-1.81-1.228-.72-.043-1.04.571-1.075 1.234-.029.524.064 6.378.074 7.444.01 1.104.159 1.9.96 1.893.843-.007 1.192-.668 1.239-1.388.065-1.01-.042-5.062-.042-5.062s2.245 2.544 3.605 2.564c1.23.018 2.652-2.175 3.18-2.659.069.617.015 6.205.155 6.681.146.5.478.898 1.11.892zm11.88-.117c.448-.199.848-1.033.53-1.658-1.16-2.287-1.633-3.531-2.237-4.74-.735-1.473-1.92-4.725-3.25-4.725-1.441 0-2.033 1.655-2.51 3.014-.603 1.714-1.297 3.4-1.916 5.158-.248.702-.566 1.707-.036 2.16.234.2.94.336 1.363-.021.53-.448 1.137-2.263 1.137-2.263l4.176-.046s.95 1.96 1.208 2.446c.399.753.923.947 1.535.675zm-6.183-5.305c.254-.696.945-2.652 1.144-3.265.22.447 1.199 2.668 1.48 3.265-.68.017-2.07 0-2.624 0zm18.033 4.459c.575-1.332.46-8.173.436-9.255-.013-.613-.007-1.395-1.037-1.404-.721-.006-1.013.695-1.13 1.506-.11.763-.113 5.324-.194 6.56-1.544-1.717-3.949-5.693-4.81-6.292-.928-.647-1.511-.668-2.157-.39-.677.29-1.067 1.083-1.092 1.633-.031.708-.116 5.305-.05 7.145.02.542.133 1.442 1.128 1.449.83.006.961-1.035 1.004-1.614.129-1.776.107-4.692.098-5.752.87 1.11 4.087 5.635 4.807 6.355.43.428.68.979 1.534 1.02.56.028 1.177-.298 1.463-.961zm7.959.944c1.228-.114 1.866-.567 1.766-1.465-.099-.893-.823-1.22-1.574-1.061-.546.114-1.412.285-2.261-.21-1.774-1.034-1.775-4.405-.398-5.815.913-.935 1.788-.668 2.434-.61.745.068 1.609-.197 1.642-1.1.027-.714-.68-1.22-1.341-1.278-2.363-.205-5.255.171-6.046 4.377-.317 1.68-.26 3.646 1.25 5.516 1.074 1.33 3.216 1.767 4.528 1.646zm4.97.019a23.881 23.881 0 004.559-.547c.451-.104.988-.535.94-1.256-.058-.87-.738-1.125-1.123-1.115-1.123.029-4.206.442-4.206.442l-.051-2.229s2.268-.136 3.245-.348c1.201-.26 1.029-2.291-.623-2.277-.785.006-2.578.108-2.578.108l-.041-1.545s2.888-.042 3.8-.105c.74-.051 1.577-.416 1.436-1.428-.116-.83-1.083-1.01-1.855-1.021-.866-.014-3.037-.094-4.4.106-.455.067-1.092.688-1.11 1.413l-.032 6.694c.083 2.096.01 3.134 2.04 3.108z" id="b"/>
  </defs>
  <g transform="translate(0 25)" fill="none" fill-rule="evenodd">
    <path stroke="#B0B0DB" stroke-width="2.681" stroke-linecap="round" d="M361.6 9.94l.11-9.51M356.9 5.13l9.51.11M10.09 381.8l.12-9.51M5.39 376.99l9.52.11"/>
    <path d="M180.6 417.58c-43.21-7.75-103.39-24.74-145.09-99.71C-2.31 249.9-24.72 146 46.46 80.66c71.18-65.34 287.44-85.95 369.57 0s19.73 382.63-235.43 336.92z" fill="#EFEFF8" fill-rule="nonzero"/>
    <path stroke="#B0B0DB" stroke-width="2.681" stroke-linecap="round" d="M399.65 408.84l.11-9.51M394.95 404.03l9.51.11"/>
    <circle fill="#DFE1F0" fill-rule="nonzero" cx="231.92" cy="229.92" r="129.74"/>
    <circle fill="#FFF" fill-rule="nonzero" cx="218.08" cy="216.08" r="129.74"/>
    <path d="M149.88 244.16c-11.802-30.477-1.951-65.086 24.131-84.78 26.083-19.695 62.065-19.695 88.148 0 26.082 19.694 35.933 54.303 24.131 84.78l27.46 28c26.345-46.28 15.785-104.781-25.078-138.929-40.863-34.147-100.31-34.147-141.174 0-40.863 34.148-51.423 92.65-25.078 138.929l27.46-28z" fill="url(#a)" fill-rule="nonzero"/>
    <circle fill="#DFE1F0" fill-rule="nonzero" cx="218.08" cy="216.08" r="35.6"/>
    <path d="M218.08 261.77c25.234 0 45.69-20.456 45.69-45.69 0-25.234-20.456-45.69-45.69-45.69-25.234 0-45.69 20.456-45.69 45.69 0 25.234 20.456 45.69 45.69 45.69z" stroke="#DFE1F0" stroke-width="1.383" stroke-linecap="round" stroke-linejoin="round" stroke-dasharray="41.497"/>
    <path d="M215 236c21-.69 75.14-8.8 96-12a1.86 1.86 0 00.23-3.63c-20.32-5.75-73-20.41-93.83-23.66-10.74-1.68-20.2 7.6-20.86 18.46-.62 10.77 7.63 21.14 18.46 20.83zm-5.7-20.08a7.39 7.39 0 116.93 7.82 7.39 7.39 0 01-6.89-7.87l-.04.05z" fill="#5E63B6" fill-rule="nonzero"/>
    <circle fill="#B0B0DB" fill-rule="nonzero" cx="216.77" cy="216.57" r="7.4"/>
    <circle fill="#FFF" fill-rule="nonzero" cx="216.89" cy="214.55" r="7.4"/>
    <g fill-rule="nonzero">
      <use fill="#000" xlink:href="#b"/>
      <use fill="#B0B0DB" xlink:href="#b"/>
    </g>
  </g>
</svg>
