<svg width="455" height="473" xmlns="http://www.w3.org/2000/svg">
  <defs>
    <linearGradient x1="-16.495%" y1="50%" x2="116.753%" y2="50%" id="c">
      <stop stop-color="#EFEFF8" offset="0%"/>
      <stop stop-color="#FFF" offset="100%"/>
    </linearGradient>
    <linearGradient x1="-20.984%" y1="49.864%" x2="120.984%" y2="49.864%" id="d">
      <stop stop-color="#EFEFF8" offset="0%"/>
      <stop stop-color="#FFF" offset="100%"/>
    </linearGradient>
    <linearGradient x1="-38.922%" y1="50%" x2="138.922%" y2="50%" id="e">
      <stop stop-color="#EFEFF8" offset="0%"/>
      <stop stop-color="#FFF" offset="100%"/>
    </linearGradient>
    <linearGradient x1="-15.892%" y1="50%" x2="115.648%" y2="50%" id="f">
      <stop stop-color="#EFEFF8" offset="0%"/>
      <stop stop-color="#FFF" offset="100%"/>
    </linearGradient>
    <linearGradient x1="-11.722%" y1="50.151%" x2="111.722%" y2="50.151%" id="g">
      <stop stop-color="#EFEFF8" offset="0%"/>
      <stop stop-color="#FFF" offset="100%"/>
    </linearGradient>
    <linearGradient x1="-14.773%" y1="50%" x2="114.773%" y2="50%" id="h">
      <stop stop-color="#EFEFF8" offset="0%"/>
      <stop stop-color="#FFF" offset="100%"/>
    </linearGradient>
    <linearGradient x1="-14.1%" y1="50%" x2="114.1%" y2="50%" id="i">
      <stop stop-color="#EFEFF8" offset="0%"/>
      <stop stop-color="#FFF" offset="100%"/>
    </linearGradient>
    <linearGradient x1="-14.191%" y1="50%" x2="114.412%" y2="50%" id="j">
      <stop stop-color="#EFEFF8" offset="0%"/>
      <stop stop-color="#FFF" offset="100%"/>
    </linearGradient>
    <linearGradient x1="-14.773%" y1="50%" x2="114.773%" y2="50%" id="k">
      <stop stop-color="#EFEFF8" offset="0%"/>
      <stop stop-color="#FFF" offset="100%"/>
    </linearGradient>
    <linearGradient x1="-13.853%" y1="50%" x2="113.853%" y2="50%" id="l">
      <stop stop-color="#EFEFF8" offset="0%"/>
      <stop stop-color="#FFF" offset="100%"/>
    </linearGradient>
    <linearGradient x1="-11.963%" y1="50.289%" x2="111.963%" y2="50.289%" id="m">
      <stop stop-color="#EFEFF8" offset="0%"/>
      <stop stop-color="#FFF" offset="100%"/>
    </linearGradient>
    <linearGradient x1="-10.98%" y1="50%" x2="110.98%" y2="50%" id="n">
      <stop stop-color="#EFEFF8" offset="0%"/>
      <stop stop-color="#FFF" offset="100%"/>
    </linearGradient>
    <linearGradient x1="-11.786%" y1="50%" x2="111.786%" y2="50%" id="o">
      <stop stop-color="#EFEFF8" offset="0%"/>
      <stop stop-color="#FFF" offset="100%"/>
    </linearGradient>
    <linearGradient x1="-11.034%" y1="50%" x2="111.034%" y2="50%" id="p">
      <stop stop-color="#EFEFF8" offset="0%"/>
      <stop stop-color="#FFF" offset="100%"/>
    </linearGradient>
    <linearGradient x1="-12.974%" y1="50%" x2="112.774%" y2="50%" id="q">
      <stop stop-color="#EFEFF8" offset="0%"/>
      <stop stop-color="#FFF" offset="100%"/>
    </linearGradient>
    <linearGradient x1="-13.115%" y1="49.5%" x2="113.115%" y2="49.5%" id="r">
      <stop stop-color="#EFEFF8" offset="0%"/>
      <stop stop-color="#FFF" offset="100%"/>
    </linearGradient>
    <linearGradient x1="-11.287%" y1="49.774%" x2="111.287%" y2="49.774%" id="s">
      <stop stop-color="#EFEFF8" offset="0%"/>
      <stop stop-color="#FFF" offset="100%"/>
    </linearGradient>
    <linearGradient x1="-13.763%" y1="50.167%" x2="113.763%" y2="50.167%" id="t">
      <stop stop-color="#EFEFF8" offset="0%"/>
      <stop stop-color="#FFF" offset="100%"/>
    </linearGradient>
    <linearGradient x1="-22.337%" y1="50%" x2="121.993%" y2="50%" id="u">
      <stop stop-color="#EFEFF8" offset="0%"/>
      <stop stop-color="#FFF" offset="100%"/>
    </linearGradient>
    <linearGradient x1="-30.047%" y1="50%" x2="130.047%" y2="50%" id="v">
      <stop stop-color="#EFEFF8" offset="0%"/>
      <stop stop-color="#FFF" offset="100%"/>
    </linearGradient>
    <linearGradient x1="-45.07%" y1="50.187%" x2="145.07%" y2="50.187%" id="w">
      <stop stop-color="#EFEFF8" offset="0%"/>
      <stop stop-color="#FFF" offset="100%"/>
    </linearGradient>
    <linearGradient x1="-52.893%" y1="50.209%" x2="152.893%" y2="50.209%" id="x">
      <stop stop-color="#EFEFF8" offset="0%"/>
      <stop stop-color="#FFF" offset="100%"/>
    </linearGradient>
    <linearGradient x1="-47.5%" y1="50%" x2="147.5%" y2="50%" id="y">
      <stop stop-color="#EFEFF8" offset="0%"/>
      <stop stop-color="#FFF" offset="100%"/>
    </linearGradient>
    <linearGradient x1="-58%" y1="50%" x2="157%" y2="50%" id="z">
      <stop stop-color="#EFEFF8" offset="0%"/>
      <stop stop-color="#FFF" offset="100%"/>
    </linearGradient>
    <linearGradient x1="-.085%" y1="49.966%" x2="99.999%" y2="49.966%" id="A">
      <stop stop-color="#FEFEFE" offset="0%"/>
      <stop stop-color="#B0B0DB" stop-opacity=".7" offset="100%"/>
    </linearGradient>
    <linearGradient x1="67.033%" y1="32.61%" x2="238.182%" y2="14.227%" id="B">
      <stop stop-color="#EFEFF8" offset="0%"/>
      <stop stop-color="#FFF" offset="100%"/>
    </linearGradient>
    <linearGradient x1="-26.652%" y1="37.306%" x2="138.507%" y2="33.569%" id="C">
      <stop stop-color="#EFEFF8" offset="0%"/>
      <stop stop-color="#FFF" offset="100%"/>
    </linearGradient>
    <linearGradient x1="34.493%" y1="105.231%" x2="193.678%" y2="113.731%" id="D">
      <stop stop-color="#EFEFF8" offset="0%"/>
      <stop stop-color="#FFF" offset="100%"/>
    </linearGradient>
    <linearGradient x1="-123.066%" y1="87.255%" x2="36.119%" y2="94.338%" id="E">
      <stop stop-color="#EFEFF8" offset="0%"/>
      <stop stop-color="#FFF" offset="100%"/>
    </linearGradient>
    <radialGradient cx="50%" cy="50%" fx="50%" fy="50%" r="38.494%" gradientTransform="matrix(-.94327 0 0 -1 .972 1)" id="a">
      <stop stop-color="#ABDCDC" offset="0%"/>
      <stop stop-color="#ABDCDC" stop-opacity="0" offset="100%"/>
    </radialGradient>
    <radialGradient cx="50%" cy="49.99%" fx="50%" fy="49.99%" r="154.71%" gradientTransform="matrix(.2347 0 0 1 .383 0)" id="b">
      <stop stop-color="#B0B0DB" offset="0%"/>
      <stop stop-color="#B0B0DB" stop-opacity=".98" offset="11%"/>
      <stop stop-color="#B0B0DB" stop-opacity=".91" offset="24%"/>
      <stop stop-color="#B0B0DB" stop-opacity=".79" offset="39%"/>
      <stop stop-color="#B0B0DB" stop-opacity=".63" offset="55%"/>
      <stop stop-color="#B0B0DB" stop-opacity=".42" offset="72%"/>
      <stop stop-color="#B0B0DB" stop-opacity=".17" offset="89%"/>
      <stop stop-color="#B0B0DB" stop-opacity="0" offset="100%"/>
    </radialGradient>
  </defs>
  <g transform="translate(1 27)" fill="none" fill-rule="evenodd">
    <path stroke="#B0B0DB" stroke-width="2.681" stroke-linecap="round" d="M87.99 9.7L88.1.19M83.29 4.89L92.8 5M5.93 376.74l.11-9.51M1.23 371.93l9.51.11"/>
    <path d="M180.6 412.58c-43.21-7.75-103.39-24.74-145.09-99.71C-2.31 244.9-24.72 141 46.46 75.66c71.18-65.34 287.44-85.95 369.57 0s19.73 382.63-235.43 336.92z" fill="#EFEFF8" fill-rule="nonzero"/>
    <path stroke="#B0B0DB" stroke-width="2.681" stroke-linecap="round" d="M378.22 417.81l.11-9.51M373.52 413l9.51.11"/>
    <ellipse fill="url(#a)" fill-rule="nonzero" cx="196.34" cy="70.24" rx="55.88" ry="52.71"/>
    <path d="M235 223c-17.62 1.26-55.63 8.07-59.76 37-4.13 28.93 24.35 112.77 66.89 112 31.55-.56 64.45-52.25 60.33-112.1-2.31-33.26-53.04-37.9-67.46-36.9z" fill="#FFF" fill-rule="nonzero"/>
    <ellipse fill="url(#b)" fill-rule="nonzero" cx="239.44" cy="236.66" rx="44.78" ry="10.51"/>
    <path d="M228.74 259.69c-9.21.69-29.11 4.43-31.27 20.33-2.16 15.9 10.53 62.38 32.8 62.38 21.6 0 35.94-29.52 33.78-62.44-1.2-18.27-27.75-20.84-35.31-20.27z" fill="#EFEFF8" fill-rule="nonzero"/>
    <g opacity=".8" stroke-linecap="round" stroke-width="1.288">
      <path stroke="url(#c)" d="M24.71 79.4l3.88-3.62" transform="translate(200 260)"/>
      <path stroke="url(#d)" d="M32.05 81.13l3.05-3.67" transform="translate(200 260)"/>
      <path stroke="url(#e)" d="M40.45 79.03l1.67-1.84" transform="translate(200 260)"/>
      <path stroke="url(#f)" d="M19.57 76.25l4.09-3.2" transform="translate(200 260)"/>
      <path stroke="url(#g)" d="M14.32 72.37l5.46-3.31" transform="translate(200 260)"/>
      <path stroke="url(#h)" d="M12.23 67.91l4.4-3.04" transform="translate(200 260)"/>
      <path stroke="url(#i)" d="M9.71 63.4l4.61-2.52" transform="translate(200 260)"/>
      <path stroke="url(#j)" d="M7.4 58.99l4.51-2.2" transform="translate(200 260)"/>
      <path stroke="url(#k)" d="M5.2 53.01l4.4-1.78" transform="translate(200 260)"/>
      <path stroke="url(#l)" d="M2.99 47.35l4.62-1.68" transform="translate(200 260)"/>
      <path stroke="url(#m)" d="M1.42 41.63l5.35-1.73" transform="translate(200 260)"/>
      <path stroke="url(#n)" d="M.27 36.49l5.92-1.42" transform="translate(200 260)"/>
      <path stroke="url(#o)" d="M.37 30.93l5.43-.66" transform="translate(200 260)"/>
      <path stroke="url(#p)" d="M.16 25.68l5.8-.6" transform="translate(200 260)"/>
      <path stroke="url(#q)" d="M.48 19.81h5.01" transform="translate(200 260)"/>
      <path stroke="url(#r)" d="M2.26 13.2l4.88.79" transform="translate(200 260)"/>
      <path stroke="url(#s)" d="M6.35 8.32l5.67 2.21" transform="translate(200 260)"/>
      <path stroke="url(#t)" d="M12.72 4.7l4.65 2.99" transform="translate(200 260)"/>
      <path stroke="url(#u)" d="M19.65 3.29l2.91 2.36" transform="translate(200 260)"/>
      <path stroke="url(#v)" d="M25.31 1.63l2.13 2.76" transform="translate(200 260)"/>
      <path stroke="url(#w)" d="M31.37.93l1.42 2.67" transform="translate(200 260)"/>
      <path stroke="url(#x)" d="M37.01 1.29l1.21 2.39" transform="translate(200 260)"/>
      <path stroke="url(#y)" d="M42.44 1.98l.65 1.78" transform="translate(200 260)"/>
      <path stroke="url(#z)" d="M47.82 3.68l.86 1.5" transform="translate(200 260)"/>
    </g>
    <path d="M34 4.92c-7.91.59-25 3.81-26.85 17.46C5.3 36.03 12 72.21 35.26 76c5.49.88 12.52 0 16.41-4.17 9.44-10.07 14.52-29.66 13.22-49.51C63.86 6.58 40.45 4.43 34 4.92z" fill="url(#A)" fill-rule="nonzero" transform="translate(200 260)"/>
    <path d="M213.61 316.85h-5.17a.85.85 0 01-.85-.85v-36.55a.85.85 0 01.85-.86h5.17v38.26z" fill="#B0B0DB" fill-rule="nonzero"/>
    <path d="M232.53 316.85h-18.92v-38.26h18.92a.85.85 0 01.86.86V316a.85.85 0 01-.86.85z" fill="#9093CC" fill-rule="nonzero"/>
    <path fill="#DFE1F0" fill-rule="nonzero" d="M207.59 313.02h6.02v1.46h-6.02zM207.59 280.96h6.02v1.46h-6.02z"/>
    <path stroke="#FFF" stroke-width=".854" stroke-linecap="round" stroke-linejoin="round" d="M210.42 287.24v21.01"/>
    <path d="M224.64 329.73h-6a1 1 0 01-1-1v-55.62a1 1 0 011-1h6v57.62z" fill="#FCCE76" fill-rule="nonzero"/>
    <path d="M224.64 272.12v57.61h27.91a1 1 0 001-1v-55.62a1 1 0 00-1-1l-27.91.01z" fill="#EFAC3F" fill-rule="nonzero"/>
    <path fill="#FEE6BB" fill-rule="nonzero" d="M217.66 322.68h6.98v2.19h-6.98z"/>
    <path fill="#FEDDA1" fill-rule="nonzero" d="M217.66 326.09h6.98v1.1h-6.98zM217.66 276.97h6.98v2.19h-6.98z"/>
    <path fill="#FEE6BB" fill-rule="nonzero" d="M217.66 274.66h6.98v1.1h-6.98z"/>
    <path d="M223.46 302c0 4.55-1 8.24-2.31 8.24s-2.31-3.69-2.31-8.24c0-4.55 1-8.24 2.31-8.24s2.31 3.7 2.31 8.24zM235.93 276.19v48.39h27.92a1 1 0 001-1v-46.4a1 1 0 00-1-1l-27.92.01z" fill="#5E63B6" fill-rule="nonzero"/>
    <path d="M235.93 324.58h-6a1 1 0 01-1-1v-46.4a1 1 0 011-1h6v48.4z" fill="#9093CC" fill-rule="nonzero"/>
    <path fill="#B0B0DB" fill-rule="nonzero" d="M228.95 318.66h6.98v1.84h-6.98zM228.95 321.52h6.98v1h-6.98zM228.95 280.27h6.98v1.84h-6.98zM228.95 278.33h6.98v1h-6.98z"/>
    <path stroke="#FFF" stroke-width=".989" stroke-linecap="round" stroke-linejoin="round" d="M232.46 293.79v17.32"/>
    <path d="M247.45 298.32c0 1.84-1.61 2.66-3.77 2.82-1.06.08-1.75.08-1.87-.95a42 42 0 010-6.26c.3-.93 1.43-.86 2.15-.89a2.16 2.16 0 012.48 1.57 1.82 1.82 0 01-.85 1.95 1.79 1.79 0 011.86 1.76zm-1.63.05c-.22-1.21-2.59-.22-2.59-.22a9.21 9.21 0 00.06 1.51c.71-.01 2.65-.57 2.53-1.29zm-2.55-2.37c.41-.16 2-.09 1.74-1.19-.15-.82-1.77-.33-1.77-.33s.03 1.37.03 1.52zM248.28 294.3a1.11 1.11 0 01.78-1 22.17 22.17 0 013.08-.07c.55 0 1.22.13 1.3.71.08.58-.48 1-1 1s-2.67.08-2.67.08v1.08s1.26-.07 1.81-.08c1.16 0 1.28 1.42.44 1.6-.755.12-1.516.2-2.28.24v1.57s2.16-.29 2.95-.31a.77.77 0 01.78.78.84.84 0 01-.66.88 16.58 16.58 0 01-3.19.38c-1.42 0-1.37-.71-1.43-2.18l.09-4.68zM260.47 294.08c.09-.57.29-1.06.8-1.05.72 0 .71.55.72 1 0 .76.1 5.55-.3 6.49a1.09 1.09 0 01-1 .67c-.6 0-.77-.41-1.07-.71-.51-.51-2.76-3.68-3.37-4.46 0 .74 0 2.79-.07 4 0 .41-.12 1.14-.7 1.13-.58-.01-.78-.63-.79-1-.05-1.29 0-4.51 0-5a1.33 1.33 0 012.28-.87c.6.42 2.29 3.21 3.37 4.41.05-.88.06-4.07.13-4.61zM242.43 303.6a.38.38 0 01.28-.33 9.47 9.47 0 011.17 0c.18 0 .38 0 .46.18.08.18 0 .34-.23.4a6.83 6.83 0 01-1.12.05v.46h.67c.41 0 .45.5.16.57a7 7 0 01-.84.06v.53c0 .13 0 .63-.21.64-.21.01-.31-.32-.31-.85-.03-.24-.04-1.24-.03-1.71zM245.21 305.86a.3.3 0 01-.26.28c-.18 0-.27-.19-.28-.32v-1.23a5.25 5.25 0 01.08-1.18c.09-.13.48-.14.73-.15.83 0 1 .39 1 .76a1 1 0 01-.62.86s.35.29.75.6c.11.09.26.3 0 .46-.26.16-.41 0-.59-.16a7.37 7.37 0 01-.83-.68c.02.22.05.47.02.76zm0-2v.59s.75 0 .65-.43c-.1-.43-.64-.15-.64-.15l-.01-.01zM249.37 306.11c-.16.07-.29 0-.39-.17l-.3-.61h-1c-.062.2-.156.39-.28.56a.3.3 0 01-.34 0c-.13-.11 0-.36 0-.53.15-.44.33-.86.48-1.29.15-.43.26-.75.62-.75s.63.81.81 1.18c.18.37.27.61.56 1.18a.33.33 0 01-.16.43zm-1.26-2.11l-.28.81h.65c-.07-.17-.31-.72-.37-.81zM251.89 303.62c0-.2.1-.37.28-.37.18 0 .25.19.26.35a12.92 12.92 0 01-.11 2.3.38.38 0 01-.37.24c-.21 0-.27-.15-.38-.25-.11-.1-1-1.31-1.2-1.59v1.44c0 .14 0 .4-.25.4s-.28-.23-.28-.36V304a.47.47 0 01.81-.31c.21.15.81 1.14 1.2 1.57.01-.26.01-1.45.04-1.64zM253.26 306.09a.31.31 0 01-.21.05.33.33 0 01-.2-.32 21.85 21.85 0 010-2.32c.05-.16.11-.26.27-.25a.3.3 0 01.26.33v.87c.29-.24 1.05-.82 1.17-.89a.29.29 0 01.44.06.32.32 0 01-.07.42c-.33.31-.89.68-1.08.84.15.1.68.44 1 .69.18.13.3.32.16.5-.14.18-.38.05-.53 0-.4-.24-.91-.55-1.14-.71.05.19.13.64-.07.73zM255.44 305.55v-1.67c0-.26 0-.61.2-.63.2-.02.36.19.37.53v1.78s.76-.1.85-.1c.09 0 .29 0 .31.22a.29.29 0 01-.22.32 6.41 6.41 0 01-.95.13c-.09 0-.36 0-.45-.06-.09-.06-.09-.26-.11-.52zM257.79 303.87a.33.33 0 110-.66c.45.01.42.7 0 .66zm-.27.52a.29.29 0 01.33-.22c.3 0 .26.43.27.72.01.29 0 .69 0 .9a.32.32 0 01-.33.35c-.27 0-.28-.3-.29-.52-.018-.41-.012-.82.02-1.23zM260.6 303.62c0-.2.1-.37.28-.37.18 0 .25.19.26.35a12.92 12.92 0 01-.11 2.3.38.38 0 01-.37.24c-.21 0-.27-.15-.38-.25-.11-.1-1-1.31-1.2-1.59v1.44c0 .14 0 .4-.25.4s-.28-.23-.28-.36V304a.47.47 0 01.81-.31c.21.15.81 1.14 1.2 1.57.01-.26.01-1.45.04-1.64z" fill="#B0B0DB" fill-rule="nonzero"/>
    <path d="M157.46 173.43a24.24 24.24 0 00-6.05-11.62l-1.27-5.56-8.44 1.92c-6.46 1.47-9.87 10.68-7.62 20.57 2.25 9.89 9.31 16.73 15.77 15.27l8.44-1.92-1.29-5.56a24.27 24.27 0 00.46-13.1z" fill="#DFE1F0" fill-rule="nonzero"/>
    <path d="M214.8 103.4c-17.26 3.52-48.09 8.82-69.09 31.23s2.47 79.16 29.89 84.92c27.42 5.76 96.63-15.62 106.6-21.42 9.97-5.8 27.8-26.4 19.8-65.13-7.92-37.75-44.6-38.28-87.2-29.6z" fill="#DFE1F0" fill-rule="nonzero"/>
    <path d="M214.8 103.4c-17.26 3.52-48.09 8.82-69.09 31.23s2.47 79.16 29.89 84.92c27.42 5.76 96.63-15.62 106.6-21.42 9.97-5.8 27.8-26.4 19.8-65.13-7.92-37.75-44.6-38.28-87.2-29.6z" fill="#FFF" fill-rule="nonzero"/>
    <path d="M210.51 121.06c-13.28 2.7-37 6.78-53.18 24s1.9 60.93 23 65.37c21.1 4.44 65.39-8.26 77-14.92 7.71-4.41 19.08-21.53 12.33-51.25-4.66-20.99-26.35-29.89-59.15-23.2z" fill="#5E63B6" fill-rule="nonzero"/>
    <path d="M186.75 209c-21.1-4.44-39.18-48.12-23-65.37 11.65-12.42 27.21-18 40-21.19-13.63 2.87-33 8-46.83 22.75-16.17 17.25 1.91 60.94 23 65.37 11.35 2.38 29.4-.19 45.48-4.11-14.18 3-28.89 4.61-38.65 2.55z" fill="#3B438C" fill-rule="nonzero"/>
    <path d="M306.14 139.94a24.46 24.46 0 00-6.14-11.77l-1.28-5.63-8.56 1.94c-6.54 1.49-10 10.82-7.71 20.85 2.29 10.03 9.43 16.95 16 15.46l8.56-1.94-1.28-5.64a24.49 24.49 0 00.41-13.27z" fill="#DFE1F0" fill-rule="nonzero"/>
    <ellipse fill="#B0B0DB" fill-rule="nonzero" transform="rotate(-12.81 302.303 140.83)" cx="302.303" cy="140.83" rx="12.19" ry="18.7"/>
    <path d="M188.38 194.06a9.15 9.15 0 01-10.84-6.43l-2.2-7.75a9.15 9.15 0 016.78-11.43l.83-.19a9.15 9.15 0 0111.05 7.38l1.37 7.94a9.16 9.16 0 01-6.99 10.48zM226.45 185.41a9.16 9.16 0 01-10.84-6.41l-2.21-7.75a9.17 9.17 0 016.78-11.44l.84-.19a9.17 9.17 0 0111.06 7.38l1.36 7.94a9.16 9.16 0 01-6.99 10.47z" fill="#81CCCC" fill-rule="nonzero"/>
    <path stroke="url(#B)" stroke-width="1.408" stroke-linecap="round" d="M290.52 154.44l2.09-.91"/>
    <path stroke="url(#C)" stroke-width="1.408" stroke-linecap="round" d="M286.23 144.98l2.21-.54"/>
    <path stroke="url(#D)" stroke-width="1.408" stroke-linecap="round" d="M285.55 134.54l2.27-.17"/>
    <path stroke="url(#E)" stroke-width="1.408" stroke-linecap="round" d="M289.14 126.69l2.27-.2"/>
    <path d="M309.09 147.67l.21.32c-1.32-3.89.57-6.07.69-8.88a.53.53 0 010-.13v-.19a3.89 3.89 0 00-1.32-2.3l-.19-.18-.39-.34-.11-.09-.12-.1-.12-.09-.12-.09-.09-.06a20.59 20.59 0 00-3.93-2.19 20.11 20.11 0 011 4.19 16.15 16.15 0 01-.35 5 16 16 0 01-5 0 19.3 19.3 0 01-4.11-1.3l.12.36a.49.49 0 010 .11c0 .09.07.17.1.26s0 .08 0 .11.07.18.11.26v.11c0 .1.09.21.13.32.06.12.11.24.16.37l.15.33v.06c0 .1.09.2.14.3.05.116.107.23.17.34.18.35.37.69.57 1 .298.497.632.972 1 1.42l.16.18.14.15.16.15.21.18.24.17.16.11h.08l.1.06h.08l.1.05H300.11c2.82.1 5.16-1.6 8.93 0" fill="#EFEFF8" fill-rule="nonzero"/>
    <path d="M210 109.44a5 5 0 003.69-6l-2.55-11.22a4.93 4.93 0 10-9.61 2.18l2.55 11.23a5 5 0 005.92 3.81z" fill="#B0B0DB" fill-rule="nonzero"/>
    <path d="M208.51 96.12c10.15-2.84 16-13.5 13.69-23.78l-3.09-13.59a2.85 2.85 0 00-3.41-2.14L209.58 58l3.77 16.56a10.73 10.73 0 01-6.49 12.51 10.49 10.49 0 01-13.88-7.5l-3.21-14.15a2.85 2.85 0 00-3.41-2.14l-6.12 1.39 3.85 16.92a19.63 19.63 0 0024.42 14.53z" fill="#9093CC" fill-rule="nonzero"/>
    <path fill="#DFE1F0" fill-rule="nonzero" d="M222.949 67.914l-40.925 9.306-2.823-12.413 40.925-9.306zM205.78 110.3a5.16 5.16 0 002.67-5.86l-1.9-8.36-9.55 2.28 1.91 8.4a5 5 0 006.87 3.54z"/>
    <path d="M199.79 98.11c10.16-2.84 16-13.5 13.69-23.78L209.76 58l-6.53 1.48a2.42 2.42 0 00-1.83 2.9l3.23 14.2a10.73 10.73 0 01-6.49 12.51 10.5 10.5 0 01-13.88-7.5l-3.84-16.92-6.54 1.48a2.43 2.43 0 00-1.82 2.91l3.31 14.55a19.63 19.63 0 0024.42 14.5z" fill="#B0B0DB" fill-rule="nonzero"/>
    <path fill="#EFEFF8" fill-rule="nonzero" d="M213.56 70.055l-40.925 9.306-2.822-12.414 40.925-9.305z"/>
    <path d="M198.222 103.817l14.022-3.188a4.93 4.93 0 015.9 3.714 3.67 3.67 0 01-2.765 4.392l-16.508 3.754a3.67 3.67 0 01-4.393-2.765 4.93 4.93 0 013.744-5.907z" fill="#9093CC" fill-rule="nonzero"/>
    <path fill="#B0B0DB" fill-rule="nonzero" d="M206.565 96.083l5.197-1.181.435 1.91L207 97.996z"/>
    <path fill="#DFE1F0" fill-rule="nonzero" d="M151.43 253.66l-52.6-26.29 7.62-1.54 47.85 22.52L226.65 235l6.99 3.39-69.03 14.81 9.47 4.45.86 7.75-20.19-10.09-4.3.93z"/>
    <path d="M160.84 360.67L237.63 347a2.54 2.54 0 002.09-2.5V239.54a2.53 2.53 0 00-3-2.49l-75.9 13.54.02 110.08z" fill="#9093CC" fill-rule="nonzero"/>
    <path fill="#B0B0DB" fill-rule="nonzero" d="M160.84 360.67h-15.23V250.6h15.23z"/>
    <path fill="#EFEFF8" fill-rule="nonzero" d="M154.3 248.35l-33.58-24.74-.08 8.9z"/>
    <path fill="#EFEFF8" fill-rule="nonzero" d="M208.07 230.69l-53.77 17.66 53.77-9.91z"/>
    <path d="M224.64 286.63c-4.271-.04-8.537.32-12.74 1.08a36.47 36.47 0 00-12.41 5.17c-.37.24-.74.48-1.13.69.39-.21-.81.41-.35.22a9.08 9.08 0 01-1.89.36c-2.16.32-4.33.58-6.49.84-4.5.527-9.01.953-13.53 1.28-1.51.11-3.83.59-4.94 1.7-1.11 1.11 1 1 1.68 1 4.36-.32 8.71-.72 13-1.23 4.68-.54 9.56-.91 14.05-2.4a25.3 25.3 0 005.86-2.93c.75-.49 1.49-1 2.28-1.41.38-.19.77-.36 1.16-.51-.39.15 1.26-.37.56-.18a13.3 13.3 0 011.9-.41c.57-.09 1.68-.21 2.48-.27 1.87-.16 3.76-.18 5.64-.21A10.79 10.79 0 00225 288c.29-.17 1-.55.89-1-.11-.45-1-.41-1.27-.41l.02.04z" fill="#B0B0DB" fill-rule="nonzero"/>
    <path d="M145.83 360.67l-49.42-27.44A2.54 2.54 0 0195.1 331V229.35a2.55 2.55 0 013.68-2.27l47.05 23.51v110.08z" fill="#5E63B6" fill-rule="nonzero"/>
    <path d="M218.52 299.15a421.26 421.26 0 00-41.71 7.66c-1.06.25-3.59 1.3-3.19 2.79.4 1.49 3.17 1.06 4.16.82a401.56 401.56 0 0139.72-7.26c1.35-.18 3.84-.89 4.18-2.47.34-1.58-2.24-1.66-3.16-1.54z" fill="#B0B0DB" fill-rule="nonzero"/>
    <path d="M209.66 312.71l-3.71.78a3.85 3.85 0 00-1.38.63c-.16.13-.55.47-.44.74a.84.84 0 00.75.43 4.82 4.82 0 001.51-.15l3.71-.79a3.67 3.67 0 001.38-.62c.16-.13.55-.47.44-.75-.11-.28-.47-.39-.75-.42a4.54 4.54 0 00-1.51.15z" fill="#9093CC" fill-rule="nonzero"/>
    <ellipse fill="#B0B0DB" fill-rule="nonzero" cx="117.78" cy="293.83" rx="9.46" ry="14.78"/>
    <path stroke="#DFE1F0" stroke-width="2.816" stroke-linecap="round" stroke-linejoin="round" d="M153.13 277.29v55.37"/>
    <ellipse fill="#DFE1F0" fill-rule="nonzero" cx="244.02" cy="394.5" rx="31.88" ry="4.59"/>
  </g>
</svg>
