<?xml version="1.0" encoding="UTF-8"?>
<svg width="487px" height="274px" viewBox="0 0 487 274" version="1.1" xmlns="http://www.w3.org/2000/svg" xmlns:xlink="http://www.w3.org/1999/xlink">
    <title>illus-october-20</title>
    <g id="illus-october-20" stroke="none" stroke-width="1" fill="none" fill-rule="evenodd">
        <g id="Group" transform="translate(328.500000, 136.500000) scale(-1, 1) translate(-328.500000, -136.500000) translate(199.000000, 23.000000)" stroke-linecap="round">
            <line x1="234.25" y1="0.315789474" x2="234.25" y2="11.6842105" id="Line-16" stroke="#ACD3EF" stroke-width="3"></line>
            <line x1="239.676471" y1="6.25" x2="229.323529" y2="6.25" id="Line-16" stroke="#ACD3EF" stroke-width="3"></line>
            <line x1="124" y1="5.86842105" x2="124" y2="12.8684211" id="Line-16" stroke="#5563B6" stroke-width="2"></line>
            <line x1="127.823529" y1="9.11842105" x2="120.823529" y2="9.11842105" id="Line-16" stroke="#5563B6" stroke-width="2"></line>
            <line x1="180" y1="52.8684211" x2="180" y2="59.8684211" id="Line-16" stroke="#5563B6" stroke-width="2"></line>
            <line x1="183.823529" y1="56.1184211" x2="176.823529" y2="56.1184211" id="Line-16" stroke="#5563B6" stroke-width="2"></line>
            <line x1="5.25" y1="13.3157895" x2="5.25" y2="24.6842105" id="Line-16" stroke="#ACD3EF" stroke-width="3"></line>
            <line x1="10.6764706" y1="19.25" x2="0.323529412" y2="19.25" id="Line-16" stroke="#ACD3EF" stroke-width="3"></line>
            <line x1="165.25" y1="166.315789" x2="165.25" y2="177.684211" id="Line-16" stroke="#ACD3EF" stroke-width="3"></line>
            <line x1="170.676471" y1="172.25" x2="160.323529" y2="172.25" id="Line-16" stroke="#ACD3EF" stroke-width="3"></line>
            <line x1="94.5" y1="177.5" x2="94.5" y2="184.5" id="Line-16" stroke="#5563B6" stroke-width="2"></line>
            <line x1="98.3235294" y1="180.75" x2="91.3235294" y2="180.75" id="Line-16" stroke="#5563B6" stroke-width="2"></line>
            <line x1="255" y1="203.868421" x2="255" y2="210.868421" id="Line-16" stroke="#5563B6" stroke-width="2"></line>
            <line x1="258.823529" y1="207.118421" x2="251.823529" y2="207.118421" id="Line-16" stroke="#5563B6" stroke-width="2"></line>
            <line x1="37" y1="219.868421" x2="37" y2="226.868421" id="Line-16" stroke="#5563B6" stroke-width="2"></line>
            <line x1="40.8235294" y1="223.118421" x2="33.8235294" y2="223.118421" id="Line-16" stroke="#5563B6" stroke-width="2"></line>
            <line x1="58.25" y1="129.315789" x2="58.25" y2="140.684211" id="Line-16" stroke="#ACD3EF" stroke-width="3"></line>
            <line x1="63.6764706" y1="135.25" x2="53.3235294" y2="135.25" id="Line-16" stroke="#ACD3EF" stroke-width="3"></line>
        </g>
        <g id="Group-2" transform="translate(19.000000, 38.000000)">
            <g id="Group-4" transform="translate(157.000000, 156.485813)" stroke="#5563B6" stroke-linecap="round" stroke-width="3">
                <path d="M1.26718757,16.5630837 C12.4896591,18.9958455 20.4992841,20.3284975 25.2960626,20.5610399 C44.6607596,21.4998185 55.6017478,18.8284157 61.1728957,17.5185243 C71.8624177,15.0051979 71.9331271,4.81692028 67.5,1.65634628 C63.0668729,-1.50422772 54.8257869,0.216843553 50.646467,7.79120135 C46.5804013,15.1603039 51.2651612,27.3860815 60.3896163,28.7188671 C66.4421349,29.6029428 81.5722789,24.8167825 81.5722789,15.736269 C81.5722789,11.5705682 80.0349398,7.66587565 76.9890776,8.625893 C73.3954824,9.75854886 71.4912681,15.7151692 71.1990092,17.5185243 C68.6066886,33.514187 85.629074,31.6508387 87.6067774,30.7481525 C88.9252463,30.1463617 90.2300382,28.6911802 91.521153,26.382608" id="Line-4"></path>
                <path d="M0,15.0772707 C12.533807,17.6460792 21.3981716,19.0468243 26.5930937,19.279506 C44.5319576,20.0829916 56.5185896,17.2852309 61.8457275,16.0327113 C72.5352495,13.5193849 69.3697418,4.62519694 66.5,3.17611577 C63.6302582,1.7270346 57.1449057,1.08826577 52.9655858,8.66262356 C48.8995201,16.0317261 49.9979736,25.9002684 59.1224288,27.233054 C65.1749474,28.1171298 80.094229,24.1577842 80.094229,15.0772707 C80.094229,10.9115699 77.6562098,11.0108954 75.9386274,11.8653134 C74.2210449,12.7197314 72.1875642,16.3220725 71.8953053,18.1254277 C70.4935024,26.7751167 75.5017309,31.5953485 84.5436689,30.2078046 C85.9472832,29.9924109 87.9397779,29.0008274 90.521153,27.233054" id="Line-4"></path>
            </g>
            <g id="Group-5" transform="translate(0.859347, 0.082809)" stroke="#5563B6" stroke-width="3">
                <path d="M0.304652597,8.1587854 C0.563619975,6.88113689 10.8474454,10.2099332 12.2200121,9.76057663 C12.9455072,9.52306104 10.4923773,7.69859392 11.2375944,7.30488746 C12.6742574,6.5458825 17.3700511,7.13020546 19.1523582,6.78986493 C20.1924113,6.59126153 23.683776,5.46068841 26.1168416,5.88287375 C29.2990634,6.43505263 31.5951683,8.54897414 33.5739298,7.81206998 C33.9442318,7.674167 33.885615,6.36656474 32.837862,5.22248576 C31.9355902,4.23726291 30.0138202,3.39570724 30.3414482,3.26513402 C31.775451,2.69362508 37.654676,0.653583408 40.6632363,1.7219873 C43.6717965,2.7903912 39.824971,0.0107560548 40.6632363,-4.47641924e-13 C42.4455659,-0.0221772385 45.8205079,0.783380532 47.7034443,1.7219873 C50.7350362,3.23317626 52.2244959,5.19921077 54.4101974,5.43338918 C56.2665863,5.63228469 52.7396082,0.228535924 54.4101974,1.05539642 C57.771637,2.7191458 70.4884715,12.1753909 70.4884715,22.3898146 C70.4884715,26.0747316 68.5391988,30.2624897 64.6406535,34.9530891 C72.4360329,36.884146 78.3427229,39.4794339 82.3607235,42.7389527 C86.3787242,45.9984716 91.1406616,52.0578843 96.6465358,60.9171907 C97.5920688,63.6848619 97.5920688,64.2813405 96.6465358,62.7066267 C90.8322139,53.0233118 77.7617622,36.5880682 64.6406535,36.5880682 C63.6465358,36.5880682 69.3381489,41.1598703 69.6465358,47.4793685 C69.946626,53.6288491 61.4768653,63.3544501 55.1678646,65.4573643 C53.8834426,65.8854875 56.4348385,63.1547155 54.4101974,63.2292859 C51.943482,63.3201385 48.7052801,66.3391492 44.369821,66.4779802 C40.7286979,66.5945771 36.0331749,63.9862818 33.1215548,62.7066267 C32.4578995,62.4149506 37.5150482,60.472743 36.7831513,60.1572251 C33.7976545,58.8701895 25.4526105,58.7852842 22.0775083,56.8374699 C20.8525921,56.1305552 17.6682137,54.4267882 17.0608222,52.7671555 C16.6503733,51.6456474 18.9862827,50.588563 17.9082089,49.703898 C16.4995186,48.5479298 14.216565,49.3204343 12.4338466,48.5782141 C9.52581678,47.3674796 7.23412474,44.95913 6.92844077,44.6259972 C6.07972287,43.7010689 8.71154009,43.5602639 9.14065346,42.7389527 C10.0176017,41.0604979 9.50825131,39.0362402 9.80720342,37.8695918 C10.1622912,36.4838762 11.2375944,36.0933881 11.2375944,35.9179615 C11.2375944,35.324876 7.94386124,34.5061341 6.30903551,32.8359615 C3.77803938,30.2502422 2.14254615,25.5464294 1.82461625,23.9341415 C1.67487996,23.1747981 3.91751461,24.6615998 3.78703776,23.9341415 C3.34480407,21.4685197 1.32069441,19.1808446 0.667126906,16.7892858 C-0.360644783,13.0284251 0.0369551064,9.47950503 0.304652597,8.1587854 Z" id="Rectangle"></path>
                <path d="M16.7638728,22.0862394 C21.2213515,27.7939705 26.4904151,31.7366191 32.5710636,33.914185 C44.6675921,38.2461224 56.6285641,35.0353937 64.6406535,35.873979 C75.1257411,36.9714008 80.02994,41.4256445 81.5587081,42.6677686 C85.1365086,45.5747315 89.4971571,50.8245389 94.6406535,58.4171907" id="Line-36" stroke-linecap="round"></path>
                <path d="M42.7591363,12.5591087 C50.1939931,19.171006 46.6869189,24.1571984 48.6778428,27.8222055 C50.9356768,31.9785563 54.9137265,34.6229172 60.6119919,35.7552881" id="Line-2" stroke-linecap="round"></path>
                <path d="M59.9194099,17.0421254 C55.7022631,22.0862394 63.6465358,35.7552881 63.6465358,35.7552881" id="Line-3" stroke-linecap="round"></path>
                <path d="M29.6406535,45.4171907 C32.6498707,45.8005896 36.6058288,45.3237391 41.5085278,43.9866393 C46.4112269,42.6495396 53.4552688,40.1263901 62.6406535,36.4171907" id="Line-37" stroke-linecap="round"></path>
                <path d="M46.1406535,56.6495222 C48.8936824,53.9513042 50.7419859,51.9340418 51.6855641,50.5977349 C54.7432188,46.2674469 54.5388682,44.1003678 56.5194275,41.7697665 C59.4167741,38.3603461 61.4571827,36.7428208 62.6406535,36.9171907" id="Line-37" stroke-linecap="round"></path>
            </g>
            <g id="Group-3" transform="translate(92.000000, 9.996994)" stroke="#5563B6" stroke-linecap="round" stroke-width="2">
                <path d="M5.88552278,44.8005923 C3.54939398,35.234499 2.25257518,28.2909561 1.99506639,23.9699634 C1.47211758,15.194892 4.11084817,9.10987498 5.88552278,6.10027294 C6.64848999,4.80638636 10.1802107,0.726090612 13.2223051,0.881739873 C21.1099357,1.2853118 22.4505869,5.30425225 22.8947994,6.10027294 C24.4019238,8.80101194 23.60255,14.5919671 19.2407908,15.0527812 C14.8790315,15.5135953 10.753882,7.96967866 13.6054539,3.68890911 C14.1883873,2.81381153 16.9967024,0.313857318 21.8526461,0.00987493399 C23.3305227,-0.0826402345 25.962974,0.474903859 29.75,1.68250721" id="Line-35"></path>
                <path d="M4.73963008,47.9429324 C1.8822863,36.2839496 0.324860017,28.2939618 0.0673512281,23.9729691 C-0.455597583,15.1978977 2.183133,9.1128807 3.95780761,6.10327866 C4.72077482,4.80939208 8.25249554,0.72909633 11.2945899,0.884745591 C19.1822206,1.28831752 20.5228717,5.30725797 20.9670843,6.10327866 C22.4742086,8.80401766 21.6748349,14.5949728 17.3130756,15.0557869 C12.9513163,15.516601 8.82616681,7.97268438 11.6777387,3.69191482 C12.2606722,2.81681725 15.0689872,0.316863036 19.924931,0.0128806518 C21.4028076,-0.0796345167 24.6778306,0.476907671 29.75,1.68250721" id="Line-35"></path>
            </g>
            <ellipse id="Oval" stroke="#5563B6" stroke-width="5" fill="#FFFFFF" cx="95.0058824" cy="70.5" rx="8.5" ry="5.5"></ellipse>
            <ellipse id="Oval" stroke="#5563B6" stroke-width="5" fill="#FFFFFF" cx="106.005882" cy="70.5" rx="8.5" ry="5.5"></ellipse>
            <path d="M79.101745,81 C85.9523609,81 91.5058824,77.6522908 91.5058824,73.5226822 C91.5058824,72.0603995 90.1241469,67.5168366 87.3499798,66.0453644 C84.5758127,64.5738922 79.2557353,63.1832631 73.6831805,64.5742069 C69.1335619,65.7098195 65.3917693,70.044262 64.5075186,71.8126648 C64.3755526,72.0765819 72.2511291,81 79.101745,81 Z" id="Oval" stroke="#5563B6" stroke-width="5" fill="#FFFFFF"></path>
            <path d="M125.918597,83.2010621 C132.600614,83.2035353 143.703829,85.670337 143.702368,81.7308681 C143.70185,80.3359134 140.59204,73.5407078 132.944547,70.3503852 C125.297054,67.1600626 123.21646,67.7330288 117.781542,69.0579175 C113.344295,70.1396006 111.36913,88.5152928 110.507267,90.2019538 C110.378642,90.4536717 119.23658,83.1985889 125.918597,83.2010621 Z" id="Oval" stroke="#5563B6" stroke-width="5" fill="#FFFFFF" transform="translate(127.104125, 79.104178) rotate(-9.000000) translate(-127.104125, -79.104178) "></path>
            <path d="M101.631013,49.8116326 C107.692919,41.4817451 117.932494,32.8040688 122.858045,39.2315119 C129.248204,47.5701484 115.148714,49.8939724 112.890259,65.2929224 C112.37654,68.7956432 114.237193,77.3646691 118.472219,91 L75.5058824,77.8561244 C83.7290972,77.5958592 89.291163,75.5965324 92.1920798,71.8581442 C96.5434551,66.2505618 95.5691076,58.1415202 101.631013,49.8116326 Z" id="Rectangle" stroke="#5563B6" stroke-width="5" fill="#FFFFFF"></path>
            <ellipse id="Oval" stroke="#5563B6" stroke-width="3" fill="#FFFFFF" transform="translate(121.750000, 41.299038) rotate(-30.000000) translate(-121.750000, -41.299038) " cx="121.75" cy="41.2990381" rx="3" ry="5.5"></ellipse>
            <path d="M128.394971,80.7042718 C134.240436,77.1532932 158.433604,72.8899151 170.532319,98.1222828 C175.965027,109.452419 177.700161,125.126917 175.704787,140.494013 C173.256437,159.349648 167.022554,168.699792 161.349098,173.972521 C151.051849,183.542453 141.587296,179.451152 134.968452,176.974087 C128.739141,174.642803 128.062356,160.51664 126.25095,132.620987 C124.584602,106.959208 122.549506,84.2552504 128.394971,80.7042718 Z" id="Rectangle" stroke="#5563B6" stroke-width="5" fill="#FFFFFF"></path>
            <path d="M115.155769,82.3612511 C120.372709,78.9548115 139.3768,75.6609331 150.174618,99.8662428 C155.023182,110.735197 156.571748,125.771681 154.790924,140.513274 C152.605829,158.60141 145.951038,175.951661 140.887612,181.009768 C131.69756,190.190167 116.561702,191.300132 110.65454,188.923894 C105.095027,186.687502 112.271177,159.720901 110.65454,132.960712 C109.167363,108.34347 109.938829,85.7676907 115.155769,82.3612511 Z" id="Rectangle" stroke="#5563B6" stroke-width="5" fill="#FFFFFF"></path>
            <path d="M29.820671,72.0588822 C35.0006239,68.5087493 53.8735063,65.0810572 64.6068612,90.3250122 C66.8929783,95.7017687 71.2792029,103.382507 71.6210868,112.717957 C72.0788512,125.217627 67.377897,140.178014 60.7141902,151.701455 C55.9852801,159.879083 50.8613599,172.056195 43.9769745,177.154658 C33.7909223,184.698282 22.0029313,183.163141 20.2458997,182.42053 C14.7235331,180.086498 26.9857262,152.724274 25.3697911,124.819604 C23.8832597,99.1495315 24.640718,75.6090152 29.820671,72.0588822 Z" id="Rectangle" stroke="#5563B6" stroke-width="5" fill="#FFFFFF" transform="translate(45.229168, 126.335324) scale(-1, 1) rotate(-9.000000) translate(-45.229168, -126.335324) "></path>
            <path d="M56.3782987,79.4590722 C61.4745823,75.9115118 80.039151,72.4811757 90.5872397,97.6892546 C101.135328,122.897333 92.758975,175.675465 83.7814685,185.236186 C74.8039619,194.796907 52.6908514,192.159443 46.9203086,189.684762 C41.4893749,187.355722 53.5604203,160.023551 51.9811729,132.15475 C50.5283912,106.517674 51.282015,83.0066326 56.3782987,79.4590722 Z" id="Rectangle" stroke="#5563B6" stroke-width="5" fill="#FFFFFF" transform="translate(70.505882, 134.500000) scale(-1, 1) translate(-70.505882, -134.500000) "></path>
            <path d="M84.7104922,81.4633979 C89.9604323,77.909597 109.084735,74.4732267 119.950856,99.7256489 C130.816977,124.978071 129.199041,174.933956 119.950856,184.511495 C110.702672,194.089034 101.92849,194.089034 95.9839614,191.61 C90.3892813,189.276862 81.8076528,162.169597 80.1807901,134.251772 C78.684206,108.569598 79.4605521,85.0171988 84.7104922,81.4633979 Z" id="Rectangle" stroke="#5563B6" stroke-width="5" fill="#FFFFFF"></path>
            <path d="M65.5,93.5 C59.2050086,107.256158 56.0575129,119.089491 56.0575129,129 C56.0575129,138.910509 59.2050086,154.077175 65.5,174.5" id="Line" stroke="#E1F2FF" stroke-width="5" stroke-linecap="round"></path>
            <path d="M116.126728,100 C112.042243,117.089491 110,130.589491 110,140.5 C110,150.410509 112.042243,163.910509 116.126728,181" id="Line" stroke="#E1F2FF" stroke-width="5" stroke-linecap="round" transform="translate(113.063364, 140.500000) scale(-1, 1) translate(-113.063364, -140.500000) "></path>
        </g>
        <path d="M252.843303,122.678191 C254.044852,109.403273 243.636465,102.23389 235.771031,101.263519 C225.102704,99.9476398 213.71424,106.837308 213.340329,119.947921 C213.000573,131.865256 221.16118,140.685959 232.783699,140.992278 C242.891519,141.25905 251.75968,134.65233 252.843303,122.678191 Z M230.700225,132.316106 C223.841835,131.045887 220.516184,124.974868 221.937046,118.853514 C223.588007,111.741296 228.671399,109.667888 234.191619,110.016272 C239.711838,110.365016 245.363647,114.855183 244.924661,121.774693 C244.416285,129.775668 236.971143,133.477028 230.700225,132.316106 Z M278.540186,140.929735 C282.978941,140.517714 285.284246,138.880056 284.925435,135.636018 C284.568422,132.408879 281.951404,131.228542 279.233359,131.799476 C277.26026,132.214014 274.132711,132.830966 271.060888,131.040148 C264.649753,127.302117 264.647236,115.116934 269.62205,110.022038 C272.922893,106.642098 276.087115,107.608515 278.422261,107.819559 C281.115139,108.06332 284.236216,107.103016 284.357737,103.838485 C284.453732,101.259578 281.902149,99.4288519 279.509119,99.2210437 C270.96813,98.4796948 260.515521,99.8405151 257.653663,115.043591 C256.510358,121.116409 256.716369,128.223234 262.172233,134.980956 C266.054796,139.790026 273.798707,141.369081 278.540186,140.929735 Z M304.09784,140.999999 C310.068021,140.999999 308.924125,130.328707 308.89488,126.41449 L308.894327,126.25748 C308.897203,122.782625 308.646251,107.776931 308.646251,107.776931 C308.646251,107.776931 311.127726,107.979346 314.826928,107.545753 C318.987407,107.058231 321.445152,105.76608 321.572426,103.341052 C321.746797,100.018279 319.118634,99.2945386 313.415413,99.2945386 L310.53247,99.2945386 C304.218108,99.2961975 300.485869,99.3011522 292.922216,99.2945386 C289.641507,99.2916693 287.529269,100.133328 287.655464,103.298988 C287.731685,105.226427 289.374017,106.626436 291.87239,107.121149 C295.319202,107.803536 300.143732,107.886228 300.143732,107.886228 L300.143071,108.260392 C300.138838,110.89701 300.120601,126.680344 300.283229,130.283854 C300.41266,133.150385 299.723441,140.999999 304.09784,140.999999 Z M354.975618,122.124685 C356.039108,110.374174 346.826157,104.028473 339.864222,103.169556 C330.421172,102.00468 320.341036,108.103024 320.00991,119.707926 C319.708983,130.25653 326.932296,138.064078 337.219881,138.335164 C346.166779,138.571375 354.016393,132.723622 354.975618,122.124685 Z M335.317968,130.340659 C329.473452,129.258474 326.639279,124.084841 327.850176,118.868063 C329.257375,112.807469 333.58899,111.040381 338.293437,111.337352 C342.997885,111.634683 347.814146,115.461158 347.440235,121.357447 C347.006641,128.17629 340.662379,131.330804 335.317968,130.340659 Z M369.510485,140.836257 C380.644403,139.988486 389.11061,135.798167 388.923655,126.278538 C388.860738,123.076925 386.600015,117.388445 379.402947,117.222342 C379.402947,117.222341 384.952648,114.322015 383.768716,107.151194 C382.638715,100.307904 375.749405,98.8539655 371.006488,99.0502686 C367.251559,99.2055853 361.423941,98.8388647 359.88012,103.653328 C358.858696,106.837684 359.262089,130.560178 359.856392,135.913936 C360.450335,141.264457 364.026218,141.253672 369.510485,140.836257 Z M367.377755,114.40327 C367.359778,113.550825 367.22028,106.61226 367.22028,106.61226 C367.22028,106.612259 375.567843,104.035509 376.37319,108.277601 C377.456813,113.988013 369.467701,113.595047 367.377755,114.40327 Z M367.498557,133.21926 C367.035482,132.182736 367.154127,125.427531 367.154127,125.427531 C367.154127,125.427531 379.401149,120.290929 380.512816,126.566161 C381.170755,130.281183 371.145267,133.158859 367.498557,133.21926 Z M400.466388,140.998387 C405.140275,140.938705 411.761376,140.214612 416.944717,139.020974 C418.576263,138.645265 420.518083,137.08994 420.344071,134.48191 C420.134106,131.334946 417.675641,130.416707 416.285699,130.452301 C412.224451,130.555845 401.081185,132.05113 401.081185,132.05113 L400.894589,123.992989 C400.894589,123.992989 409.095103,123.501512 412.625685,122.736073 C416.968086,121.794824 416.34574,114.453226 410.373591,114.502841 C407.534744,114.526211 401.054938,114.89401 401.054938,114.89401 L400.906093,109.310872 L400.942619,109.310333 C401.617696,109.300293 411.461156,109.150906 414.641928,108.93013 C417.317908,108.744253 420.34407,107.426216 419.832819,103.768001 C419.413607,100.768804 415.920775,100.120571 413.128667,100.076708 C409.99932,100.027453 402.148987,99.7362335 397.222711,100.462124 C395.580738,100.704088 393.275792,102.948272 393.211077,105.567806 L393.09423,129.766677 C393.395516,137.343408 393.135216,141.092584 400.466388,140.998387 Z M430.096376,141.000201 C431.983907,141.000201 433.661832,139.082829 433.877191,136.905876 C434.295684,132.669178 433.961321,129.135719 434.070618,125.859684 C438.17501,129.375167 440.972152,132.461011 446.048713,135.790976 C448.724693,137.54584 452.398728,139.518221 454.646508,138.034082 C458.049817,135.787021 455.850573,132.663426 454.233768,131.387814 C448.492437,126.858818 443.352239,122.630028 443.352239,122.630028 C443.352239,122.630028 452.255635,118.948443 452.367808,110.162254 C452.436478,104.807418 449.679963,99.2048645 437.688567,99.2523779 C434.02424,99.267063 428.467707,99.5345532 427.135649,101.321776 C425.776627,103.144952 426.006725,114.873532 425.986951,118.532826 C425.961784,123.203477 425.961784,131.02325 426.103079,136.406489 C426.152335,138.288628 427.489785,141.000201 430.096376,141.000201 Z M433.999072,116.562963 L433.996915,108.0626 C433.996915,108.0626 442.249921,105.526477 443.442841,110.332312 C444.923024,116.293675 433.999072,116.562603 433.999072,116.562963 Z" id="Octber" fill="#5563B6" fill-rule="nonzero"></path>
        <path d="M165.935561,165.739548 C166.092196,165.867761 166.19289,165.966684 166.227632,165.998185 C166.229987,166.004264 166.227043,165.992658 166.227632,165.998185 C166.227632,165.99929 166.228221,165.997632 166.228221,165.997632 C162.424829,164.066697 159.83565,165.536175 156.896103,165.189668 C156.855473,165.178062 156.809542,165.168667 156.757134,165.16093 C156.691772,165.152088 156.625232,165.139377 156.560458,165.124456 C155.786118,164.942084 155.060065,164.330308 154.409384,163.454368 C154.405851,163.449947 154.402906,163.445526 154.399373,163.440552 C154.344021,163.368708 154.291613,163.292996 154.239206,163.217837 C154.239206,163.217837 154.238617,163.215626 154.23685,163.215074 C154.141456,163.075807 154.046651,162.928252 153.953613,162.778485 C153.944191,162.763011 153.933592,162.74809 153.92417,162.732616 C153.900027,162.690062 153.875295,162.647509 153.849975,162.606061 C153.824065,162.562402 153.798156,162.519848 153.773424,162.477295 C153.748692,162.432531 153.72455,162.389425 153.700995,162.346318 C153.675086,162.301002 153.650943,162.256237 153.625622,162.210921 C153.608546,162.180525 153.591469,162.147367 153.573804,162.114208 C152.917823,160.880708 152.384913,159.399072 152.003926,157.922409 C152.003926,157.922409 151.995093,157.90804 152.003926,157.922409 C153.433068,158.653556 154.919918,159.254279 156.17476,159.585865 C157.686342,159.986532 159.57891,160.154535 161.396106,160.074402 C161.95257,158.450184 162.274083,156.693331 162.258184,155.218878 C162.243463,153.985931 162.022055,152.493795 161.635768,151 C161.754128,151.060238 161.871309,151.122687 161.989668,151.18403 C162.023821,151.20282 162.058564,151.222163 162.093895,151.241505 C162.177512,151.286269 162.261129,151.330481 162.343568,151.378008 C162.381843,151.397903 162.420707,151.420009 162.458394,151.441562 C162.542011,151.488537 162.623861,151.534959 162.7063,151.582486 C162.739276,151.601828 162.773429,151.621171 162.806994,151.639961 C162.910632,151.701304 163.013681,151.762095 163.115552,151.823991 C163.126151,151.829518 163.136751,151.835597 163.146172,151.842228 C163.26512,151.912414 163.382302,151.985916 163.498894,152.058864 C163.508316,152.063838 163.51656,152.07047 163.525981,152.075996 C163.631386,152.142314 163.733257,152.208078 163.836306,152.274948 C163.858094,152.288211 163.878115,152.303133 163.899313,152.315844 C163.992941,152.377187 164.08539,152.439636 164.178429,152.502084 C164.195506,152.514795 164.212582,152.527506 164.231425,152.539664 C164.338008,152.612613 164.443412,152.685562 164.54705,152.759616 C164.54705,152.759616 164.548228,152.760721 164.549405,152.760721 C164.879751,152.998911 165.195375,153.240416 165.492156,153.485237 C165.496278,153.488 165.499811,153.491316 165.503933,153.493526 C165.997391,153.904693 166.435496,154.323596 166.795873,154.741395 C166.848281,154.802738 166.898922,154.864082 166.947797,154.924872 C166.949564,154.927635 166.952508,154.928741 166.953686,154.930951 L166.953686,154.932057 C166.999027,154.987321 167.042602,155.043138 167.083233,155.097297 L167.083822,155.098955 C167.085588,155.100613 167.086766,155.103376 167.087944,155.105034 C167.133285,155.164167 167.17686,155.2233 167.216902,155.282985 L167.217491,155.282985 C167.222791,155.291275 167.226913,155.298459 167.232801,155.307301 C167.23339,155.308407 167.234568,155.307854 167.234568,155.308959 C167.287564,155.385224 167.337617,155.462594 167.383547,155.537201 C167.390613,155.551017 167.39768,155.563175 167.405335,155.574781 C167.408279,155.579202 167.410045,155.584176 167.414756,155.589149 C167.465397,155.675362 167.513094,155.761574 167.555492,155.848892 C167.586701,155.908577 167.613788,155.968815 167.640286,156.029053 C167.650886,156.055028 167.660307,156.079897 167.670318,156.104766 C167.685628,156.142345 167.698583,156.17882 167.713304,156.2164 C167.722726,156.242926 167.730381,156.270006 167.739213,156.298743 C167.75099,156.332455 167.761001,156.367824 167.771011,156.402088 C167.778666,156.429167 167.785144,156.455694 167.791032,156.483879 C167.799865,156.518143 167.80752,156.552407 167.814586,156.587223 C167.819297,156.613197 167.823419,156.64083 167.82813,156.667356 C167.83343,156.702726 167.836963,156.7392 167.842262,156.773464 C167.845207,156.798333 167.846973,156.823202 167.84874,156.846965 C167.851095,156.886756 167.851684,156.925441 167.852273,156.966336 C167.852273,156.984021 167.852862,157.005021 167.852273,157.024917 C167.851684,157.084602 167.846973,157.143182 167.839907,157.200657 C167.835785,157.240447 167.83343,157.274711 167.83343,157.306765 C167.434777,160.06777 165.253672,162.058944 166.227632,165.998185" id="Fill-583" fill="#9452BA" transform="translate(159.926267, 158.500000) rotate(-2.000000) translate(-159.926267, -158.500000) "></path>
    </g>
</svg>