<svg width="455" height="473" xmlns="http://www.w3.org/2000/svg" xmlns:xlink="http://www.w3.org/1999/xlink">
  <defs>
    <path d="M111.763 128.266c2.016-1.468 4.122-3.808 4.055-6.356-.1-3.874-5.272-6.492-7.718-6.468-1.918.019-1.937.991-1.918 2.746.02 1.858.053 9.251.077 10.037.054 1.722.542 3.653 5.504.041zm-2.843-1.692v-.036a2124.5 2124.5 0 01-.048-7.887c1.473.167 4.035 1.298 3.967 3.677-.058 1.992-3.919 4.246-3.919 4.246zm20.307 3.586c.574-.255 1.087-1.325.68-2.127-1.488-2.936-2.096-4.532-2.871-6.084-.943-1.889-2.463-6.062-4.17-6.062-1.85 0-2.61 2.124-3.222 3.867-.774 2.2-1.663 4.364-2.458 6.619-.318.901-.726 2.19-.047 2.772.301.257 1.206.431 1.75-.027.68-.575 1.459-2.904 1.459-2.904l5.359-.059.022.046c.167.345 1.224 2.52 1.527 3.092.512.967 1.185 1.216 1.97.867zm-7.934-6.807c.325-.894 1.212-3.403 1.467-4.19.283.573 1.538 3.424 1.9 4.19-.872.02-2.657 0-3.367 0zm15.545 6.957c2.148 0 1.701-3.893 1.703-5.234 0-1.233-.089-6.56-.089-6.56s.881.072 2.195-.082c1.477-.173 2.349-.632 2.394-1.493.062-1.18-.87-1.436-2.896-1.436h-1.41c-2.015 0-3.337.002-5.865 0-1.164-.001-1.914.297-1.87 1.421.028.684.61 1.181 1.498 1.357 1.223.242 2.936.272 2.936.272v.043c-.001.57-.01 6.577.05 7.908.046 1.017-.2 3.804 1.354 3.804zm19.61-.15c.574-.255 1.087-1.325.68-2.127-1.488-2.936-2.096-4.532-2.871-6.084-.943-1.889-2.463-6.062-4.17-6.062-1.85 0-2.61 2.124-3.222 3.867-.774 2.2-1.663 4.364-2.458 6.619-.318.901-.726 2.19-.047 2.772.301.257 1.206.431 1.75-.027.68-.575 1.459-2.904 1.459-2.904l5.359-.059s1.22 2.515 1.55 3.138c.511.967 1.184 1.216 1.97.867zm-7.934-6.807c.325-.894 1.212-3.403 1.467-4.19.283.573 1.538 3.424 1.9 4.19-.872.02-2.657 0-3.367 0zm27.925 8.49c1.525-.6.43-2.775.43-2.775s2.89-2.053 2.686-5.922c-.225-4.262-3.798-8.42-8.507-7.445-4.683.97-6.383 5.165-5.297 9.531 1.367 5.495 7.792 5.136 7.792 5.136s1.198 2.143 2.896 1.474zm-4.323-4.37c-3.463-.371-3.865-3.414-3.903-4.397-.076-1.996.829-3.574 2.786-4.25 4.007-1.386 7.427 4.442 4.336 7.534-.79-1.297-1.942-4.13-3.55-3.182-1.558.92-.311 3 .33 4.295zm19.53-3.396c.197-2.045.263-4.546-.18-6.558-.21-.957-.947-1.278-1.63-1.19-.783.1-.95.76-1.019 1.427-.143 1.407 1.163 9.46-2.574 9.47-2.9.008-2.116-8.16-2.245-9.314-.143-1.283-.686-1.888-1.75-1.603-1.198.32-1.127 1.655-1.175 2.65-.122 2.49.059 6.657 1.262 8.874.647 1.19 2.165 2.347 3.893 2.467 3.182.221 5.138-3.325 5.417-6.223zm14.09 6.083c.574-.255 1.087-1.325.68-2.127-1.489-2.936-2.097-4.532-2.871-6.084-.943-1.889-2.463-6.062-4.17-6.062-1.85 0-2.61 2.124-3.222 3.867-.774 2.2-1.664 4.364-2.459 6.619-.317.901-.725 2.19-.046 2.772.3.257 1.206.431 1.75-.027.68-.575 1.458-2.904 1.458-2.904l5.36-.059s1.219 2.515 1.55 3.138c.511.967 1.184 1.216 1.97.867zm-7.935-6.807c.326-.894 1.213-3.403 1.468-4.19.283.573 1.538 3.424 1.9 4.19-.872.02-2.657 0-3.368 0zm13.388 6.923c2.048-.13 4.546-.568 4.929-.694.807-.266 1.193-.955 1.126-1.627-.095-.968-.957-1.16-1.627-1.151-.424.005-4.358.51-4.358.51-.17-6.07-.169-6.454-.252-9.153-.055-1.787-.176-2.916-1.901-2.747-1.198.118-1.091 1.908-1.049 3.26.083 2.644.054 6.065.214 8.611.082 1.308.055 2.033.626 2.66.434.477 1.838.36 2.292.331zm9.378-15.067c-2.472-.08-2.373 3.179-.184 3.383 2.172.202 2.277-3.316.184-3.383zm-.15 15.1c1.384.001 1.68-1.09 1.709-1.823.04-1.062-.029-3.384-.06-4.617-.037-1.475.162-3.556-1.414-3.735-.78-.09-1.591.446-1.677 1.15-.207 1.703-.117 4.688-.061 6.363.037 1.098.133 2.662 1.502 2.663zm9.032 0c2.149 0 1.702-3.892 1.703-5.233v-.241a937.007 937.007 0 00-.088-6.32s.88.073 2.194-.081c1.477-.173 2.35-.632 2.395-1.493.061-1.18-.872-1.436-2.896-1.436h-1.41c-2.016 0-3.338.002-5.865 0-1.165-.001-1.915.297-1.87 1.421.027.684.61 1.181 1.497 1.357 1.224.242 2.936.272 2.936.272v.259c-.002 1.228-.006 6.461.05 7.692.046 1.017-.199 3.804 1.354 3.804zm13.136 0c1.735.04 1.427-1.816 1.468-3.324.032-1.213-.003-4.113-.007-4.428.23-.25 3.716-4.05 4.277-4.936.33-.52.594-1.52-.51-2.042-.606-.287-1.347-.169-1.904.521-.918 1.136-2.594 3.012-3.302 3.71-.71-.698-2.385-2.574-3.303-3.71-.557-.69-1.298-.808-1.904-.52-1.104.522-.84 1.52-.51 2.041.58.916 4.29 4.95 4.29 4.95s.089 4.042.07 4.878c-.027 1.214.05 2.83 1.335 2.86zm16.037-15.1c-2.471-.08-2.372 3.179-.183 3.383 2.171.202 2.277-3.316.183-3.383zm-.15 15.1c1.385.001 1.68-1.09 1.71-1.823.04-1.062-.03-3.384-.06-4.617-.038-1.475.162-3.556-1.414-3.735-.78-.09-1.592.446-1.677 1.15-.207 1.703-.118 4.688-.061 6.363.037 1.098.132 2.662 1.502 2.663zm16.628-1.235c.738-1.709.59-10.487.56-11.876-.018-.786-.01-1.79-1.332-1.802-.925-.008-1.3.892-1.45 1.933-.14.979-.145 6.831-.25 8.418-1.98-2.203-5.066-7.306-6.17-8.075-1.192-.83-1.94-.856-2.768-.5-.87.373-1.37 1.39-1.402 2.096-.04.908-.149 6.807-.064 9.168.026.696.17 1.85 1.447 1.86 1.064.007 1.234-1.328 1.288-2.071.166-2.279.137-6.022.126-7.382 1.117 1.424 5.244 7.231 6.17 8.156.55.55.872 1.256 1.967 1.309.72.035 1.51-.383 1.878-1.234zm8.325 1.044c2.642-.69 4.101-3.787 2.344-6.271-.758-1.072-1.904-1.708-3.119-2.135-1.042-.367-2.548-.47-2.32-2.086.167-1.188 1.276-1.521 2.152-1.201.894.326 1.97 1.018 2.743.23 1.003-1.023.111-2.183-1.17-2.725-1.127-.476-2.606-.462-3.769-.175-2.604.642-3.664 2.98-2.684 5.648.995 2.707 6.694 2.526 5.787 5.105-.502 1.428-2.517.907-4.122.522-1.148-.276-2.056.124-2.093 1.196-.071 2.078 4.484 2.354 6.25 1.892zm6.437-14.91c-2.472-.079-2.373 3.18-.184 3.384 2.172.202 2.277-3.316.184-3.383zm-.15 15.102c1.385 0 1.68-1.09 1.709-1.824.04-1.062-.028-3.384-.06-4.617-.037-1.475.163-3.556-1.414-3.735-.78-.09-1.591.446-1.677 1.15-.207 1.703-.117 4.688-.06 6.363.036 1.098.132 2.662 1.502 2.663zm12.957-2.085c1.094-1.844 1.096-4.576 1.096-4.576s1.514-.08 1.898-.823c.545-1.051-.274-2.041-1.776-2.15-.614-.044-3.104.042-3.737.1-.881.08-2.506.535-2.033 1.764.48 1.25 2.882 1.107 2.882 1.107s.16 3.814-2.213 3.63c-3.218-.25-3.325-7.85-.009-9.566 1.291-.667 1.211-1.608.855-2.275-.424-.796-1.829-.835-3.032 0-1.151.797-3.187 2.832-3.168 7.491.008 1.752.784 5.346 3.351 6.74 2.238 1.216 4.62.691 5.886-1.442zm14.245 2.085c1.236.008 1.278-1.989 1.281-2.639.008-1.695-.044-7.713-.012-9.438.02-1.106 0-2.872-1.639-2.813-1.234.044-1.437 1.725-1.426 2.68.018 1.496-.018 4.094-.018 4.094l-4.562.836s-.177-3.679-.236-5.413c-.033-.948-.934-1.64-1.707-1.556-.815.087-1.283.64-1.275 1.787.011 1.754.245 10.662.327 11.287.1.768.845 1.146 1.522 1.154.574.007 1.206-.641 1.303-1.29.18-1.194.126-3.05.126-3.05l.048-.009c.42-.069 3.5-.576 4.423-.8.114 1.048.114 2.367.288 3.835.063.531.471 1.328 1.557 1.335zm8.597 0c2.148 0 1.702-3.893 1.703-5.234v-.241a937.024 937.024 0 00-.088-6.32s.88.073 2.194-.081c1.477-.173 2.35-.632 2.394-1.493.062-1.18-.87-1.436-2.895-1.436h-1.41c-2.016 0-3.338.002-5.865 0-1.165-.001-1.915.297-1.87 1.421.027.684.61 1.181 1.497 1.357 1.224.242 2.936.272 2.936.272v.168c-.002 1.033-.007 6.519.05 7.783.046 1.017-.199 3.804 1.354 3.804zm13.407-.192c2.642-.69 4.101-3.787 2.344-6.271-.758-1.072-1.904-1.708-3.119-2.135-1.042-.367-2.548-.47-2.32-2.086.167-1.188 1.276-1.521 2.152-1.201.894.326 1.97 1.018 2.743.23 1.003-1.023.111-2.183-1.17-2.725-1.127-.476-2.606-.462-3.769-.175-2.604.642-3.664 2.98-2.684 5.648.995 2.707 6.694 2.526 5.787 5.105-.502 1.428-2.517.907-4.122.522-1.148-.276-2.056.124-2.093 1.196-.071 2.078 4.484 2.354 6.25 1.892z" id="a"/>
  </defs>
  <g transform="translate(0 32)" fill="none" fill-rule="evenodd">
    <path stroke="#B0B0DB" stroke-width="2.681" stroke-linecap="round" d="M10.69 33.08l.11-9.51M5.99 28.27l9.51.11M42.18 406.9l.11-9.51M37.48 402.09l9.51.11"/>
    <path d="M180.6 394.58c-43.21-7.75-103.39-24.74-145.09-99.71C-2.31 226.9-24.72 123 46.46 57.66c71.18-65.34 287.44-85.95 369.57 0s19.73 382.63-235.43 336.92z" fill="#EFEFF8" fill-rule="nonzero"/>
    <path stroke="#B0B0DB" stroke-width="2.681" stroke-linecap="round" d="M429.05 399.75l.11-9.51M424.35 394.94l9.51.11"/>
    <rect fill="#DFE1F0" fill-rule="nonzero" transform="rotate(-180 244.115 221.31)" x="41.01" y="100.93" width="406.21" height="240.76" rx="5"/>
    <rect fill="#FFF" fill-rule="nonzero" transform="rotate(-180 231.735 208.92)" x="28.63" y="88.54" width="406.21" height="240.76" rx="5"/>
    <circle fill="#EFEFF8" fill-rule="nonzero" cx="404.1" cy="111.69" r="9.18"/>
    <circle fill="#B0B0DB" fill-rule="nonzero" cx="404.1" cy="108.83" r="2.46"/>
    <path d="M404.1 112.1a4.1 4.1 0 014.1 4.1v.8H400v-.82a4.1 4.1 0 014.1-4.08z" fill="#B0B0DB" fill-rule="nonzero"/>
    <path d="M86.38 174.73c-1.25 4 6.13 6.71 7 9.21.48 1.38-3 8.68-1.16 11 2.32 2.93 9.53-2.46 12.19-2.75 1.72-.19 7.57 4.12 9.29 3.74 6-1.34 1.83-9 2.21-10.83.81-3.85 8.11-6.52 6.71-9.88-1.73-4.12-9.28-3.28-10.64-4.21-2.11-1.44-4-10.16-7.48-10-3.48.16-5.46 7.19-6.86 9-1.7 2.12-10.12 1.05-11.26 4.72z" fill="#FCCE76" fill-rule="nonzero"/>
    <path d="M118.52 175.13l-9.15-1.33-4.09-8.29a.9.9 0 00-1.61 0l-4.09 8.29-9.14 1.33a.9.9 0 00-.5 1.53l6.62 6.45-1.56 9.11a.9.9 0 001.3.95l8.18-4.31 8.18 4.31a.9.9 0 001.3-.95l-1.56-9.11 6.61-6.45a.89.89 0 00-.49-1.53z" fill="#FEDDA1" fill-rule="nonzero"/>
    <path d="M58.71 189.27c-1 3.25 5 5.41 5.64 7.42.39 1.11-2.42 7-.94 8.85 1.87 2.36 7.68-2 9.82-2.21 1.39-.16 6.1 3.32 7.49 3 4.85-1.08 1.47-7.26 1.78-8.73.65-3.1 6.53-5.25 5.4-8-1.39-3.32-7.47-2.65-8.57-3.4-1.7-1.16-3.24-8.19-6-8-2.76.19-4.4 5.8-5.53 7.22-1.38 1.75-8.17.89-9.09 3.85z" fill="#FCCE76" fill-rule="nonzero"/>
    <path d="M84.61 189.59l-7.37-1.07-3.3-6.68a.72.72 0 00-1.29 0l-3.3 6.68-7.35 1.07a.72.72 0 00-.4 1.23l5.33 5.2-1.25 7.34a.71.71 0 001 .76l6.59-3.46 6.6 3.46a.72.72 0 001-.76l-1.2-7.36 5.34-5.2a.72.72 0 00-.4-1.21z" fill="#FEDDA1" fill-rule="nonzero"/>
    <path d="M121.09 189.27c-1 3.25 4.94 5.41 5.64 7.42.38 1.11-2.42 7-.94 8.85 1.87 2.36 7.68-2 9.82-2.21 1.39-.16 6.1 3.32 7.49 3 4.84-1.08 1.47-7.26 1.77-8.73.66-3.1 6.54-5.25 5.41-8-1.39-3.32-7.47-2.65-8.57-3.4-1.7-1.16-3.24-8.19-6-8-2.76.19-4.4 5.8-5.53 7.22-1.39 1.75-8.18.89-9.09 3.85z" fill="#FCCE76" fill-rule="nonzero"/>
    <path d="M147 189.59l-7.37-1.07-3.29-6.68a.73.73 0 00-1.3 0l-3.29 6.68-7.37 1.07a.72.72 0 00-.4 1.23l5.33 5.2-1.31 7.34a.72.72 0 001.05.76l6.59-3.46 6.59 3.46a.72.72 0 001.05-.76l-1.23-7.36 5.33-5.2a.72.72 0 00-.38-1.21z" fill="#FEDDA1" fill-rule="nonzero"/>
    <path d="M70 269.64v23.29c0 2.85 15.46 5.16 34.54 5.16s34.55-2.31 34.55-5.16v-23.29H70z" fill="#DFE1F0" fill-rule="nonzero"/>
    <ellipse fill="#FFF" fill-rule="nonzero" cx="104.51" cy="269.04" rx="34.55" ry="5.16"/>
    <path d="M70 243.76v23.29c0 2.85 15.46 5.16 34.54 5.16s34.55-2.31 34.55-5.16v-23.29H70z" fill="#DFE1F0" fill-rule="nonzero"/>
    <ellipse fill="#FFF" fill-rule="nonzero" cx="104.51" cy="243.17" rx="34.55" ry="5.16"/>
    <path d="M70 217.89v23.29c0 2.85 15.46 5.16 34.54 5.16s34.55-2.31 34.55-5.16v-23.29H70z" fill="#DFE1F0" fill-rule="nonzero"/>
    <ellipse stroke="#FFF" stroke-width="2.367" fill="#DFE1F0" fill-rule="nonzero" cx="104.51" cy="217.29" rx="34.55" ry="5.16"/>
    <g fill-rule="nonzero">
      <use fill="#000" xlink:href="#a"/>
      <use fill="#5E63B6" xlink:href="#a"/>
    </g>
    <path fill="#81CCCC" fill-rule="nonzero" d="M182.66 160.44h40.86v61.29h-40.86zM241.06 160.44h40.86v61.29h-40.86zM299.45 160.44h40.86v61.29h-40.86zM357.85 160.44h40.86v61.29h-40.86zM182.66 237.05h40.86v61.29h-40.86zM241.06 237.05h40.86v61.29h-40.86zM299.45 237.05h40.86v61.29h-40.86zM357.85 237.05h40.86v61.29h-40.86z"/>
    <path fill="#F74B64" fill-rule="nonzero" d="M182.66 210.67h40.86v11.06h-40.86zM241.06 203.99h40.86v17.73h-40.86zM299.45 212.13h40.86v9.59h-40.86zM357.85 203.99h40.86v17.73h-40.86zM182.66 284.72h40.86v13.62h-40.86zM241.06 279.73h40.86v18.61h-40.86zM299.45 290.55h40.86v7.79h-40.86zM357.85 286.19h40.86v12.15h-40.86z"/>
    <path fill="#FF8394" fill-rule="nonzero" d="M182.66 195.94h40.86v14.72h-40.86zM241.06 184.24h40.86v19.75h-40.86zM299.45 204.08h40.86v8.05h-40.86zM357.85 195.94h40.86v8.05h-40.86zM182.66 275.92h40.86v8.81h-40.86zM241.06 267.7h40.86v12.03h-40.86zM299.45 286.19h40.86v4.37h-40.86zM357.85 271.93h40.86v14.26h-40.86z"/>
    <path fill="#FCCE76" fill-rule="nonzero" d="M182.66 178.23h40.86v17.72h-40.86zM241.06 178.23h40.86v6.02h-40.86zM299.45 200.43h40.86v3.65h-40.86zM357.85 178.23h40.86v17.72h-40.86zM182.66 266.7h40.86v9.21h-40.86zM241.06 260.33h40.86v7.36h-40.86zM299.45 258.39h40.86v27.8h-40.86zM357.85 263.77h40.86v8.16h-40.86z"/>
    <path fill="#ABDCDC" fill-rule="nonzero" d="M182.66 169.55h40.86v8.67h-40.86zM241.06 169.55h40.86v8.67h-40.86zM299.45 186.56h40.86v13.88h-40.86zM357.85 165.01h40.86v13.21h-40.86zM182.66 260.17h40.86v6.53h-40.86zM241.06 255.11h40.86v5.22h-40.86zM299.45 250.65h40.86v7.74h-40.86zM357.85 257.99h40.86v5.79h-40.86z"/>
  </g>
</svg>
