<svg width="487" height="274" xmlns="http://www.w3.org/2000/svg">
  <g fill="none" fill-rule="evenodd">
    <g stroke-linecap="round">
      <path stroke="#ACD3EF" stroke-width="3" d="M246.25 23.316v11.368M251.676 29.25h-10.352"/>
      <path stroke="#5563B6" stroke-width="2" d="M136 28.868v7M139.824 32.118h-7M192 75.868v7M195.824 79.118h-7"/>
      <path stroke="#ACD3EF" stroke-width="3" d="M17.25 36.316v11.368M22.676 42.25H12.324M177.25 189.316v11.368M182.676 195.25h-10.352"/>
      <path stroke="#5563B6" stroke-width="2" d="M106.5 200.5v7M110.324 203.75h-7M267 226.868v7M270.824 230.118h-7M49 242.868v7M52.824 246.118h-7"/>
      <path stroke="#ACD3EF" stroke-width="3" d="M70.25 152.316v11.368M75.676 158.25H65.324"/>
    </g>
    <path d="M125.996 157c1.827-.018 3.11-1.462 3.203-3.603.092-2.147.13-4.909.133-7.866v-.94c0-.946-.005-1.907-.01-2.869l-.012-1.443c-.06-6.727-.22-13.219-.243-14.932-.032-2.514.16-6.145-2.773-6.22-2.893-.073-4.727 2.623-6.318 4.441-.738.844-2.302 2.568-3.89 4.306l-.414.453-.411.45c-1.981 2.166-3.776 4.115-3.776 4.115l-.026-.026-.134-.132-.336-.335-.229-.227c-.66-.656-1.704-1.697-2.86-2.853l-.66-.66-.447-.45-.674-.677c-1.721-1.73-3.387-3.421-4.182-4.272-1.917-2.051-3.124-3.827-5.89-3.994-2.34-.14-3.379 1.859-3.496 4.014-.047.852.005 6.04.074 11.447l.011.903c.066 5.119.141 10.23.156 11.867.031 3.59.516 6.18 3.125 6.158 2.741-.023 3.877-2.171 4.029-4.515.045-.707.065-1.874.068-3.269v-.926c-.015-5.083-.205-12.274-.205-12.274s7.305 8.278 11.728 8.342c4.002.058 8.628-7.075 10.345-8.65.224 2.007.049 20.187.504 21.737.476 1.626 1.554 2.92 3.61 2.9zm53.27-5.743v-.415c-.002-.762-.015-1.533.005-2.27.082-3.076-.007-10.43-.017-11.227.584-.636 9.42-10.268 10.844-12.514.836-1.32 1.504-3.852-1.295-5.177-1.537-.728-3.414-.428-4.827 1.32-2.326 2.88-6.575 7.638-8.372 9.408-1.796-1.77-6.046-6.529-8.371-9.407-1.414-1.75-3.29-2.05-4.828-1.321-2.799 1.325-2.131 3.857-1.294 5.177 1.472 2.322 10.875 12.549 10.875 12.549s.061 2.748.113 5.692l.016.917c.03 1.836.055 3.646.057 4.819v.366c0 .228-.003.421-.006.572-.004.197-.008.397-.01.601v.41c.017 2.894.482 6.173 3.395 6.241 3.394.08 3.703-2.708 3.715-5.741zm-14.63 5.363c1.456-.647 2.756-3.36 1.725-5.393-3.424-6.75-5.01-10.707-6.74-14.32l-.268-.554c-.09-.184-.18-.367-.272-.55-2.39-4.789-6.244-15.37-10.57-15.37-4.432 0-6.395 4.804-7.908 9.06l-.176.498-.087.247c-1.96 5.576-4.216 11.064-6.232 16.78-.806 2.285-1.84 5.555-.117 7.028.762.653 3.057 1.094 4.435-.069 1.726-1.456 3.698-7.36 3.698-7.36l13.588-.15s1.031 2.128 2.064 4.23l.238.484c.672 1.363 1.31 2.645 1.626 3.242 1.298 2.45 3.004 3.082 4.995 2.197zm-14.098-17.236h-.837c-1.696-.003-3.485-.018-4.652-.021h-.529c.825-2.268 3.074-8.63 3.721-10.625.35.708 1.281 2.781 2.252 4.948l.487 1.085c.86 1.922 1.68 3.75 2.077 4.59-.673.016-1.56.022-2.52.023z" fill="#5E63B6" fill-rule="nonzero"/>
    <g stroke="#E1F2FF">
      <path d="M294.618 19c6.725 3.378-10.944 23.5 20.29 45.756C346.142 87.01 361.581 108.582 361 151.5c-.302 22.28-13.728 53.817-22.013 90.44-1.6 7.075-3.802 17.243-6.604 30.504h-1.324c-3.764-13.628-7.22-23.796-10.365-30.504-10.451-22.288-28.454-46.858-32.225-69.942-3.514-21.512 2.299-53.395 3.276-82.408.608-18.05-3.31-37.81-3.276-50.59.039-14.67 4.093-21.033 6.149-20z" stroke-width="4"/>
      <path d="M334 247.01c-7.165-42.542-11.6-71.797-13.306-87.764-2.065-19.335 2.491-35.519-.546-48.196C312.098 77.438 300.542 74 297.5 58.5" stroke-width="3" stroke-linecap="round"/>
      <path d="M335 247.01c-2.377-44.825-4.418-74.31-6.123-88.455-2.065-17.129.952-26.807-1.24-42.555-2.764-19.857-18.355-41.041-32.357-58.524-6.124-7.648-2.479-30.007-4.213-34.747" stroke-width="3" stroke-linecap="round"/>
      <path d="M335 246c2.956-42.151 3.582-70.3 1.877-84.445-2.065-17.129-.24-25.162-1.24-42.555-1.637-28.5-20.902-37.824-37.09-60.5-5.51-7.719-5.688-29.49-7.48-33.632" stroke-width="3" stroke-linecap="round"/>
      <path d="M335 247.01c4.963-25.748 7.963-43.308 9-52.68 1.843-16.657.925-27.915 0-35.586-2.065-17.129 3.916-27.349 1.667-42.311-4.103-27.298-31.845-43.039-45.25-59.124-8.47-10.162-8.754-27.28-5.802-35.325" stroke-width="3" stroke-linecap="round"/>
      <path d="M334 256.5c-2.194-10.722-3.556-17.136-4.084-19.243-8.446-33.693-13.449-57.006-15.008-69.938-2.065-17.129-.023-44.867-3.006-56.506C305.032 84.016 297.5 77 297.5 61" stroke-width="3" stroke-linecap="round"/>
      <path d="M332.383 256.5c-1.904-10.891-3.42-17.802-4.55-20.731-11.792-30.598-18.434-52.081-19.925-64.45-2.065-17.129.088-45.715-3.006-56.506C297.5 89 294.615 74.5 294.615 58.5" stroke-width="3" stroke-linecap="round"/>
      <path d="M332.383 263.176c-2.715-12.7-5.292-21.642-7.732-26.825-13.433-28.538-24.993-49.332-25.914-64.71-1.237-20.669 1.123-41.641-1.237-52.69-6.491-30.388-5.203-53.477-5.203-69.477" stroke-width="3" stroke-linecap="round"/>
    </g>
    <g stroke="#5563B6">
      <path d="M381.09 85.329c1.788-.547.265-3.228.808-6.356.623-3.588 4.807-7.085 5.327-10.8.48-3.437-3.846-8.643-8.142-8.643-7.838 0-11.504 6.668-14.32 10.748-1.24 1.798-4.604 3.256-4.113 4.864.265.865 4.751-.028 5.5.867.592.707.244 2.74 1.046 3.42 1.175 1 3.497-.623 4.904.215 1.19.71 1.45 3.911 2.633 4.423 1.222.527 1.649-1.059 2.694-.824 1.18.265 2.942 2.306 3.663 2.086z" stroke-width="4" fill="#FFF"/>
      <path d="M334 275c8.984-89.258 20.481-149.57 34.49-180.935C382.5 62.7 407.004 46.678 442 46" stroke-width="5" stroke-linecap="round"/>
      <path d="M358 99.914c1.3-1.392 2.3-2.025 3-1.898.7.126 1.7 1.121 3 2.984M383 59.576c1.465-1.582 2.833-2.437 4.106-2.565 1.272-.128 2.904.868 4.894 2.989M377 80.904c2.23-.829 4.07-1.088 5.523-.777 1.453.311 3.612 2.269 6.477 5.873M344 188c-2.311-3.752-4.601-5.393-6.87-4.921-2.269.472-5.979 3.779-11.13 9.921M352 142.3c-2.23-2.587-4.44-3.652-6.632-3.198-2.191.454-5.314 3.42-9.368 8.898M374 136.986c-3.345-4.404-6.228-6.378-8.65-5.922-2.421.456-5.871 3.435-10.35 8.936M355 191c-.94-3.754-2.514-5.394-4.724-4.92-2.21.473-3.747 1.113-4.609 1.92" stroke-width="4" stroke-linecap="round"/>
      <g stroke-width="4">
        <path d="M324.877 217.906c.634 0 .941-1.477 1.277-2.087.177-.32 2.138.43 2.875-.259.724-.677.223-2.793.451-3.108.612-.845 1.705-1.444 1.567-1.854-.242-.717-2.165-.97-2.018-1.198 1.586-2.462 2.018-5.013 2.018-7.646 0-5.279-2.258-8.103-6.464-8.103s-11.012 5.6-13.487 11.212c-.8 1.813-1.39 5.557.44 6.778.451.301-1.415 2.372-.854 2.615.811.351 1.707.866 2.889.916.315.014 1.413.01 2.016.647.825.87 1.194 2.449 1.659 2.41.747-.064 4.484-.857 5.056-.857.836 0 2.147.534 2.575.534z" fill="#FFF"/>
        <path d="M311.42 211.484c.772.1 1.553.02 2.343-.239.305-.1 2.778-1.9 3.096-1.94 1.217-.151 1.264.98 2.953.96.72-.007 1.618-.483 3.125-.643.489-.051 3.123.748 3.97.766.35.007 1.006-.354 1.97-1.082" stroke-linecap="round"/>
      </g>
      <g fill="#FFF" stroke-width="4">
        <path d="M352.786 189.809c3.15-2.29 9.28-2.537 13.27 0 2.99 1.901 3.754 5.159 6.486 6.547 2.739 1.392 6.708-1.88 8.218 0 .443.551 1.777 2.32 1.098 3.264-.94 1.309-3.914 5.026-4.275 6.528-.267 1.11-.847 5.133-1.883 5.807-.36.234-4.167.493-4.85 1.042-.72.578-1.917 3.11-3.782 4.006-.618.297-4.043-.517-5.102-.446-1.47.099-5.856 2.265-6.471 2.095-.569-.157.511-3.444 0-6.158-.444-2.348-1.418-3.045-3.234-5.36-3.006-3.828-3.566-14.353.525-17.325z"/>
        <path d="M355.411 215.376c1.546-.817 2.635-1.566 3.269-2.245 1.03-1.104 1.045-2.712 2.845-4.213.904-.754 2.321.286 3.488-.626.463-.361.91-.914 1.364-1.547.431-.601 2.086-.399 2.55-1.052.627-.886.084-2.609.854-3.179.622-.46 1.745.08 2.718-.625.442-.322 1.045-.852 1.809-1.592.393-.382 2.007.21 2.848-.67.298-.311.449-1.268.452-2.868" stroke-linecap="round"/>
      </g>
      <g fill="#FFF" stroke-width="4">
        <path d="M374.258 165.157c1.001 0 3.186-2.253 5.215-2.591 1.775-.296 3.326 1.385 5.254.562 1.574-.672 1.844-3.634 3.268-4.674 1.613-1.177 4.365-.456 5.895-1.585 1.93-1.425 1.066-4.2 2.118-5.79 1.093-1.654 4.063-2.115 4.063-3.199 0-1.14-2.53-1.176-4.063-2.385-1.044-.821-.845-2.867-2.118-3.516-.924-.47-1.898.003-2.756-.515-2.141-1.293-2.35-3.523-4.624-4.393-2.776-1.062-5.358-1.711-7.037-1.711-5.481 0-9.925 4.537-9.925 10.135 0 4.251 1.56 10.82 4.71 13.735.998.924-1.32 5.927 0 5.927z"/>
        <path d="M373.909 158.535c.931-1.675 1.642-2.88 2.132-3.615 1.195-1.793 3.19-1.428 4.402-2.621 1.651-1.625 2.48-4.59 3.692-5.503 1.417-1.066 2.792.494 4.723 0 1.122-.287 3.042-1.524 5.762-3.711" stroke-linecap="round"/>
      </g>
      <g fill="#FFF" stroke-width="4">
        <path d="M327.102 176.319c1.14 0 1.452-2.59 2.31-2.913.891-.337 2.33 1.57 3.646.433.436-.377.252-1.595.714-2.041.72-.695 4.905.752 5.666 0 1.489-1.474.86-2.302.982-4.4.105-1.803 1.053-4.9 1.053-6.068 0-6.312-1.42-14.436-6.983-14.436-2.08 0-6.968 1.426-10.597 4.41-2.29 1.882-3.324 5.097-5.22 6.716-.982.838-1.925-.773-2.636 0-1.557 1.696-1.05 2.468-1.05 4.157 0 .927 1.821 2.705 1.852 4.044.034 1.523-1.675 2.602-.802 3.405 1.747 1.608 5.361.923 7.154 2.172 1.887 1.313 1.955 4.521 3.91 4.521z"/>
        <path d="M314.908 159.972c1.936.89 3.27 1.442 4.004 1.656 1.197.35.54 1.818 3.064 2.053 1.183.11 3.04-1.442 4.797-.953 1.108.308 1.549 2.284 3.727 3.14.932.365 3.109-.92 5.36-.456.936.193 2.439 2.012 4.507 5.458" stroke-linecap="round"/>
      </g>
      <g fill="#FFF" stroke-width="4">
        <path d="M389.339 115.31c1.143 0 1.406-2.889 3.671-3.827 1.186-.491 2.843.607 4.242 0 1.504-.653 1.342-2.402 2.941-3.232 2.108-1.094 5.692.14 7.867-1.038 1.665-.902 2.386-5.22 3.725-6.386 3.634-3.165 6.704-3.671 6.704-5.79 0-3.18-3.58-1.84-7.8-4.227-4.784-2.707-4.784-8.94-13.437-8.94-5.649 0-11.854 6.38-11.854 13.167 0 8.7 3.294 8.7 3.94 13.214.46 3.2-2.342 7.059 0 7.059z"/>
        <path d="M388.707 110.85c.512-.664 2.48-2.066 5.903-4.204 1.388-.867 1.599-4.678 4.147-6.318 1.125-.724 3.293.52 5.677-.523.994-.435-.01-1.183 1.918-2.346.637-.384 2.553.297 4.218-.48.688-.32-.042-2.096 1.275-3.204.378-.317 1.857-.57 4.438-.759" stroke-linecap="round"/>
      </g>
      <path d="M349.85 125c2.166 0 1.387-3.227 3.048-6.264 1.906-3.483 6.102-7.015 6.102-10.165 0-5.896-1.493-9.775-6.102-10.405-9.036-1.237-10.339 4.742-14.84 8.044-1.983 1.454-4.058.558-4.058 2.36 0 .97 1.932 1.037 2.458 2.19.417.91-.657 2.885 0 3.836.964 1.392 4.086.456 5.36 1.757 1.078 1.1.28 4.465 1.42 5.36 1.174.924 2.184-.568 3.262 0 1.217.642 2.478 3.287 3.35 3.287zM423.347 70c3.885 0 9.653-4.021 9.653-7.617s-3.354-8.915-10.939-8.34c-7.585.575-7.053 5.47-7.053 9.065 0 3.596 4.455 6.892 8.34 6.892zM448.347 54c3.885 0 9.653-4.021 9.653-7.617s-3.354-8.915-10.939-8.34c-7.585.575-7.053 5.47-7.053 9.065 0 3.596 4.455 6.892 8.34 6.892zM408.071 45c3.963 0 9.297-2.357 9.848-7.672.552-5.314-1.636-9.857-9.375-9.278-3.835.287-6.478 4.078-8.45 5.796-2.007 1.75-5.094 2.32-5.094 4.146 0 1.249 2.136 1.005 3.718 2.069 3.005 2.02 2.659 4.939 9.353 4.939z" stroke-width="4" fill="#FFF"/>
      <path d="M420.725 48c-.754-1.079-.92-2.25-.498-3.517 1.105-3.318 4.097-3.318 3.744-5.415-.203-1.212-2.03-2.068-5.482-2.568M419.5 49.625l1 3.75" stroke-width="3" stroke-linecap="round"/>
    </g>
    <path d="M392.394 212.744c16.33-13.051 28.175-40 39.527-51.96 8.144-8.58 25.453-24.33 26.437-22.717.375.614-3.516 3.443-6.908 7.422-5.518 6.47-11.968 15.932-15.663 21.629-8.357 12.882 1.441 50.619-33.292 74.465-30.307 20.807-63.668 20.67-66.495 28.868-6.38 18.5-5.584-9.25 4.565-21.451 5.445-6.545 38.835-25.871 51.829-36.256z" stroke="#5563B6" stroke-width="5" fill="#FFF"/>
    <path d="M381.5 243.5c14.71-10.214 23.005-16.472 24.883-18.773 4.72-5.782 8.629-13.182 11.726-22.201" stroke="#E1F2FF" stroke-width="3" stroke-linecap="round"/>
    <path d="M373.113 250.803c.186.08.31.147.352.168.004.005-.002-.005 0 0-4.187-.809-6.271 1.318-9.192 1.795-.043 0-.09.003-.142.01-.065.01-.133.016-.2.02-.794.038-1.66-.35-2.527-1.013l-.014-.01c-.073-.054-.144-.113-.215-.17 0 0-.001-.002-.003-.002-.13-.108-.262-.224-.393-.342l-.04-.036a4.555 4.555 0 00-.107-.101l-.109-.103-.106-.106-.11-.11-.076-.078c-.97-1.005-1.891-2.282-2.664-3.597 0 0-.013-.01 0 0 1.575.31 3.17.477 4.468.45 1.563-.032 3.429-.392 5.153-.97.087-1.714-.088-3.492-.51-4.905-.353-1.18-.978-2.554-1.76-3.884l.39.08.116.026c.093.02.186.04.278.063.042.008.086.019.128.029a25.526 25.526 0 01.39.095c.116.03.232.06.347.092a.273.273 0 01.034.009c.134.034.267.073.4.11l.03.01c.12.034.236.07.353.105.025.007.048.016.072.022.107.033.213.068.32.102l.06.022a19.048 19.048 0 01.368.125c.383.138.753.283 1.105.436l.014.005c.588.26 1.124.541 1.586.843l.197.135.007.004v.001c.059.04.116.083.17.123l.001.002c.002 0 .004.003.006.005.06.044.118.089.173.135l.022.019.002.001a4.941 4.941 0 01.237.209l.013.01a3.743 3.743 0 01.339.362l.05.064.071.095c.017.023.032.047.048.072l.059.091c.015.024.028.048.042.073.018.03.035.061.05.093.013.024.024.05.036.073.015.033.028.067.043.098.01.023.018.047.026.07.014.037.025.074.037.113l.016.056c.016.058.027.116.036.173.007.04.015.073.023.103.378 2.764-1.17 5.28.852 8.798" fill="#9452BA"/>
  </g>
</svg>
