<svg width="487" height="274" xmlns="http://www.w3.org/2000/svg">
  <g fill="none" fill-rule="evenodd">
    <path d="M112.418 146.578c1.618-.72 3.064-3.734 1.918-5.993-4.194-8.269-5.907-12.765-8.09-17.137-2.655-5.32-6.937-17.078-11.744-17.078-5.213 0-7.353 5.984-9.079 10.894-2.178 6.197-4.685 12.294-6.924 18.645-.895 2.54-2.044 6.172-.13 7.81.847.725 3.396 1.215 4.928-.078 1.917-1.617 4.109-8.178 4.109-8.178l15.097-.166s3.435 7.084 4.365 8.84c1.442 2.722 3.338 3.424 5.55 2.44zm-22.35-19.175c.917-2.519 3.415-9.588 4.134-11.805.798 1.616 4.333 9.646 5.352 11.803-2.457.06-7.484 0-9.486.002zm33.129 19.59c2.93-.183 3.616-2.99 3.78-4.989.414-5.018.394-7.713.394-7.713s7.387-2.426 9.728-3.686c4.674-2.517 9.707-6.232 9.108-13.303-.769-9.07-12.254-12.134-18.576-12.224-1.783-.025-6.471-.48-8.187 1.416-.623.69-.562 4.816-.534 6.855.105 7.742.179 21.804.2 27.83.012 3.687 1.69 5.964 4.087 5.814zm3.787-21.387l-.151-12.735s3.267-.12 6.266 1.082c2.531 1.015 4.871 2.819 4.899 4.697.033 2.278-2.72 4.467-5.482 5.726-2.762 1.26-5.532 1.23-5.532 1.23zM154.536 147c1.888 0 3.566-1.917 3.781-4.094.419-4.237.084-7.77.194-11.046 4.104 3.515 6.9 6.601 11.978 9.931 2.676 1.755 6.35 3.727 8.598 2.243 3.403-2.247 1.204-5.37-.413-6.646-5.742-4.53-10.882-8.758-10.882-8.758s8.904-3.682 9.016-12.468c.068-5.355-2.688-10.957-14.68-10.91-3.664.015-9.22.283-10.552 2.07-1.36 1.823-1.13 13.552-1.149 17.21-.025 4.671-.025 12.491.116 17.874.05 1.883 1.387 4.594 3.993 4.594zm3.903-24.437l-.002-8.5s8.253-2.537 9.445 2.27c1.481 5.96-9.443 6.23-9.443 6.23zM189.479 147c3.902.002 4.735-4.593 4.815-7.683.115-4.47-.08-14.254-.167-19.447-.105-6.213.457-14.978-3.984-15.732-2.198-.374-4.482 1.882-4.724 4.848-.583 7.169-.33 19.743-.172 26.796.104 4.627.374 11.216 4.232 11.218zm19.382-.095c5.768-.37 12.806-1.602 13.883-1.956 2.275-.749 3.361-2.69 3.174-4.584-.27-2.726-2.697-3.266-4.584-3.241-1.194.015-12.277 1.436-12.277 1.436-.476-17.1-.475-18.179-.71-25.783-.156-5.034-.495-8.215-5.354-7.738-3.376.331-3.074 5.375-2.954 9.183.233 7.448.151 17.084.601 24.257.23 3.684.154 5.727 1.765 7.495 1.222 1.342 5.177 1.013 6.456.93z" fill="#5563B6" fill-rule="nonzero"/>
    <path stroke="#ACD3EF" stroke-width="3" stroke-linecap="round" d="M275.25 34.316v11.368M280.676 40.25h-10.352"/>
    <path stroke="#5563B6" stroke-width="2" stroke-linecap="round" d="M165 39.868v7M168.824 43.118h-7M221 86.868v7M224.824 90.118h-7"/>
    <path stroke="#ACD3EF" stroke-width="3" stroke-linecap="round" d="M46.25 47.316v11.368M51.676 53.25H41.324M206.25 200.316v11.368M211.676 206.25h-10.352"/>
    <path stroke="#5563B6" stroke-width="2" stroke-linecap="round" d="M135.5 211.5v7M139.324 214.75h-7M296 237.868v7M299.824 241.118h-7M78 253.868v7M81.824 257.118h-7"/>
    <path stroke="#ACD3EF" stroke-width="3" stroke-linecap="round" d="M99.25 163.316v11.368M104.676 169.25H94.324"/>
    <path d="M400.723 146.683c17.976 2.329 27.26 14.558 30.638 24.376 3.377 9.817 1.069 18.957-2.703 26.753-3.77 7.796-17.175 24.604-26.078 24.651-4.707.025-11.167-11.707-22.03-20.77-6.457-5.387-18.974-19.413-37.55-42.08 9.313-2.761 16.237-4.817 20.772-6.166 15.21-4.525 28.67-7.836 36.951-6.764z" stroke="#5563B6" stroke-width="5" fill="#FFF"/>
    <path d="M315.37 146.502c.52-.517-.749-4.521 0-4.723 1.275-.343 4.203 1.632 8.785 5.926 20.623 15.987 33.495 27.286 38.618 33.895 15.563 20.079 17.205 31.356 13.662 32.694-3.543 1.339-48.111-52.798-51.178-54.813-4.006-2.631-4.006-2.106-7.465-3.324-3.46-1.218-5.185-6.905-2.422-9.655z" stroke="#5563B6" fill="#5563B6"/>
    <path d="M406.12 145.924c18.11-1.427 30.18 8.58 35.894 17.451 5.713 8.872 5.713 18.252 3.956 26.624-1.758 8.371-9.212 25.454-17.885 27.33-4.585.993-15.257-7.06-28.088-13.658C388.56 197.79 375.07 193.572 367.91 190c-4.066-2.03-6.154-9.462-8.557-11.97-2.388-2.49-4.506-5.038-6.352-7.64 8.404-4.605 14.652-8.03 18.743-10.278 13.722-7.536 26.036-13.53 34.378-14.187zM343.851 43c4.297 0 9.274 13.26 12.653 20.618 2.253 4.906 7.085 12.087 14.496 21.542l-43.08 67.716c-14.121-25.755-17.499-48.872-10.131-69.352C328.839 52.804 339.555 43 343.85 43z" stroke="#5563B6" stroke-width="5" fill="#FFF"/>
    <path d="M349.906 100.61c18.078-16.994 54.598-37.566 59.033-33.366 3.843 3.638 3.843 11.318 3.843 18.253 0 6.934-3.843 12.069-3.843 18.771 0 9.635 6.86 21.12 2.747 31.705-5.242 13.492-24.78 24.964-58.614 34.416L328 152.876c2.552-23.516 9.854-40.938 21.906-52.267z" stroke="#5563B6" stroke-width="5" fill="#FFF"/>
    <path d="M282 113.222c3.333.246 5.625.64 6.877 1.182 7.413 3.213 11.673 7.447 14.358 10.069 3.366 3.286 7.954 9.227 13.765 17.822" stroke="#5563B6" stroke-width="2" stroke-linecap="round"/>
    <path d="M281 115.074c3.46.106 5.853.426 7.18.96 7.862 3.167 12.531 7.61 15.472 10.359 3.685 3.445 8.8 9.749 15.348 18.91" stroke="#5563B6" stroke-width="2" stroke-linecap="round"/>
    <ellipse fill="#5563B6" transform="rotate(14 281 114)" cx="281" cy="114" rx="1" ry="2"/>
    <ellipse fill="#5563B6" transform="rotate(3 282 131)" cx="282" cy="131" rx="1" ry="2"/>
    <path d="M282 130.191c3.403-.552 5.813-.692 7.232-.42 8.4 1.606 13.971 5.067 17.47 7.2 4.384 2.672 10.817 7.868 19.298 15.589" stroke="#5563B6" stroke-width="2" stroke-linecap="round"/>
    <path d="M282 131.899c3.317-.66 5.676-.877 7.078-.651 8.3 1.338 13.895 4.62 17.407 6.639 4.4 2.53 10.906 7.52 19.515 14.965" stroke="#5563B6" stroke-width="2" stroke-linecap="round"/>
    <path d="M352 158.268c13.402-2.25 23.09-5.232 29.065-8.947 5.975-3.714 13.62-10.47 22.935-20.267M399 191.62c6.15 2.12 10.257 3.755 12.322 4.906 8.403 4.681 11.814 8.118 13.584 7.674 1.607-.404 6.525-4.201 9.258-11.23.922-2.373 1.534-6.755 1.836-13.146" stroke="#E1F2FF" stroke-width="4" stroke-linecap="round"/>
    <path d="M344.428 72.774c.128.111.211.197.24.224.001.006-.001-.004 0 0 0 .001 0 0 0 0-3.119-1.674-5.242-.4-7.653-.7a.848.848 0 00-.114-.025 1.712 1.712 0 01-.161-.032c-.635-.158-1.23-.688-1.764-1.447l-.008-.012c-.046-.062-.089-.128-.132-.193 0 0 0-.002-.002-.003-.078-.12-.156-.248-.232-.378l-.024-.04a4.005 4.005 0 00-.06-.11l-.064-.111-.06-.114-.06-.117c-.015-.026-.029-.055-.043-.084-.538-1.069-.975-2.353-1.288-3.633 0 0-.007-.012 0 0 1.172.634 2.392 1.155 3.42 1.442 1.24.347 2.792.493 4.282.423.457-1.407.72-2.93.707-4.208-.012-1.068-.193-2.361-.51-3.656.097.052.193.106.29.16l.086.05c.068.038.137.076.204.118a20.647 20.647 0 01.38.227c.085.053.17.105.253.16.01.004.018.01.026.015.097.06.193.124.289.188l.022.015c.086.057.17.114.254.172l.052.035.229.162.043.032a15.632 15.632 0 01.261.192c.271.206.53.416.773.628l.01.007c.405.356.764.72 1.06 1.082.042.053.084.106.124.159l.005.005c.037.049.073.097.106.144v.001l.004.006c.037.05.073.102.106.154l.013.021.001.001a4.315 4.315 0 01.14.23c.003.005.004.009.008.013a3.307 3.307 0 01.185.382l.025.065.035.097c.008.023.014.046.021.071.01.03.018.06.026.09l.017.07.019.09.011.07c.004.03.007.062.012.092l.005.063.003.104v.05c0 .052-.005.103-.01.153a.944.944 0 00-.006.092c-.327 2.393-2.115 4.118-1.317 7.532" fill="#9452BA"/>
  </g>
</svg>
