<svg width="487" height="274" xmlns="http://www.w3.org/2000/svg">
  <g fill="none" fill-rule="evenodd">
    <path d="M326.995 140c2.03-.02 3.457-1.625 3.56-4.004.388-9.037-.105-27.902-.147-31.166-.036-2.793.179-6.828-3.081-6.91-3.215-.083-5.252 2.914-7.02 4.934-1.998 2.283-9.435 10.36-9.435 10.36s-8.382-8.32-10.608-10.703c-2.131-2.28-3.472-4.253-6.546-4.438-2.599-.156-3.753 2.065-3.884 4.46-.104 1.893.234 23.056.268 26.909.035 3.989.574 6.865 3.472 6.842 3.046-.026 4.308-2.413 4.477-5.018.235-3.647-.152-18.298-.152-18.298s8.117 9.198 13.03 9.269c4.448.064 9.588-7.861 11.496-9.611.249 2.23.054 22.43.559 24.151.529 1.807 1.728 3.245 4.011 3.223zm59.195-9.365c.09-3.417-.008-11.588-.019-12.474.649-.706 10.466-11.41 12.049-13.904.93-1.467 1.671-4.28-1.438-5.753-1.708-.809-3.794-.476-5.364 1.468-2.584 3.198-7.306 8.485-9.302 10.452-1.996-1.967-6.718-7.254-9.302-10.452-1.57-1.944-3.656-2.277-5.364-1.468-3.11 1.473-2.368 4.286-1.438 5.753 1.636 2.58 12.084 13.943 12.084 13.943s.252 11.385.2 13.74c-.077 3.42.138 7.974 3.76 8.058 4.886.114 4.02-5.117 4.134-9.363zm-16.262 8.943c1.618-.72 3.064-3.735 1.918-5.993-4.195-8.269-5.907-12.765-8.09-17.137-2.655-5.321-6.937-17.078-11.744-17.078-5.213 0-7.353 5.984-9.079 10.894-2.178 6.196-4.685 12.294-6.924 18.644-.895 2.54-2.044 6.173-.13 7.81.847.725 3.396 1.215 4.927-.077 1.918-1.618 4.11-8.179 4.11-8.179l15.097-.165s3.434 7.084 4.365 8.84c1.442 2.722 3.337 3.424 5.55 2.44zm-22.35-19.176c.917-2.518 3.415-9.587 4.134-11.804.797 1.616 4.333 9.645 5.352 11.803-2.457.06-7.484 0-9.486.001z" fill="#5563B6" fill-rule="nonzero"/>
    <g transform="translate(33 53)">
      <path d="M70.06 156.57c-.591-5.727 3.193-13.916 11.353-24.57h6.046c10.387 11.32 14.322 20.185 11.804 26.593-2.426 6.178-7.305 11.482-14.636 15.914h0a1 1 0 01-1.353-.305c-1.741-2.643-3.393-4.89-4.956-6.74-2.576-3.053-7.371-2.304-8.258-10.893z" stroke="#5563B6" stroke-width="4" fill="#5563B6" stroke-linejoin="round"/>
      <path d="M87.9 158c.161-4.483.128-7.985-.1-10.505-.228-2.521-.828-6.02-1.8-10.495" stroke="#FFF" stroke-width="3" stroke-linecap="round"/>
      <path d="M23.48 72.806c5.177-2.017 11.694-.25 19.55 5.302L47 99.709c-12.59 7.503-22.113 10.904-28.573 10.2-6.088-.662-11.895-3.72-17.42-9.176h0a1 1 0 01.237-1.596c1.777-.936 3.288-2.27 4.532-4 2.287-3.18 9.937-19.306 17.703-22.33z" stroke="#5563B6" stroke-width="4" fill="#5563B6" stroke-linejoin="round"/>
      <path d="M24 96c2.945-3.988 5.437-6.52 7.478-7.596 2.04-1.077 5.215-1.534 9.522-1.372" stroke="#FFF" stroke-width="3" stroke-linecap="round"/>
      <path d="M59.63 0c2.147 0 21.35 7.82 27.04 13.953 3.795 4.09 2.954 10.105-2.521 18.047H60.777c-4.944-4.577-7.53-8.947-7.76-13.11C52.674 12.648 57.483 0 59.63 0z" stroke="#5563B6" stroke-width="4" fill="#5563B6"/>
      <path d="M69 20c2.712 1.912 4.548 3.588 5.509 5.028.96 1.44 1.79 3.764 2.491 6.972" stroke="#FFF" stroke-width="3" stroke-linecap="round"/>
      <path d="M24.555 41.39c1.18-1.836 8.823-.841 11.994-1.764 7.252-2.109 14.818-9.988 27.942-10.353 4.12-.114 9.641 3.925 16.564 12.117-1.189-9.153 1.722-16.03 8.731-20.629 2.99-1.962 8.623-5.018 11.617-8.86C103.578 9.112 102.943 5 105.77 5c1.667 0 5.563 6.431 12.238 9.405 4.696 2.091 17.627 12.647 18.846 23.941.488 4.523-2.732 11.68-9.66 21.472 6.314-5.508 14.616-6.86 24.904-4.058C167.532 59.965 178 80.15 178 82.145c0 1.995-4.653 3.854-9.192 6.921-4.04 2.73-11.435 17.39-16.709 19.48-2.986 1.183-6.69 1.183-11.11 0 3.556 2.752 5.782 7.694 6.68 14.826 1.345 10.698-6.786 33.035-14.594 37.228-3.104 1.668-2.6-2.194-10.737-5.826-8.136-3.633-16.567-3.938-25.243-9.31-5.784-3.582-6.906-14.17-3.366-31.761-5.02 17.615-10.616 27.781-16.786 30.498-4.872 2.146-11.305 2.035-24.046 0-5.145-.821-8.029 5.173-10.348 5.173-2.32 0-5.347-4.818-7.558-13.475-2.306-9.028-.64-33.5 7.558-41.676 5.465-5.452 11.169-8.51 17.112-9.176-11.477 2-19.18.56-23.112-4.321-2.644-3.283-5.175-7.86-7.91-18.755-.573-2.277-4.465-6.588-5.47-11.852-.516-2.698.208-6.894 1.386-8.73z" stroke="#5563B6" stroke-width="5" fill="#FFF" stroke-linejoin="round"/>
      <path d="M114.462 25.637c4.898 3.827 7.514 7.17 7.85 10.032.335 2.86-1.869 7.852-6.612 14.974M146.482 95.924c2.823-5.267 5.23-8.891 7.221-10.873 1.992-1.982 5.589-4.595 10.792-7.84M101.47 133.256c2.04 2.667 4.407 4.611 7.101 5.832 4.09 1.854 9.009.285 13.22 1.198 5.81 1.258 7.587 7.756 8.972 6.22 2.51-2.781 7.027-11.52 7.027-17.925 0-4.27-.738-8.249-2.216-11.936M51.168 129.3c8.703 3.853 14.634 5.014 17.792 3.484 3.16-1.53 7.12-7.64 11.885-18.327" stroke="#E1F2FF" stroke-width="4" stroke-linecap="round"/>
      <path d="M97.536 74.292c2.774-3.173 14.828 1.307 31.924-15.655C146.555 41.675 161.4 4.784 162.358 4.214c.956-.57.561 0 .561 1.675s-19.806 46.821-26.136 54.005c-9.841 11.166-14.812 16.194-22.127 20.09-7.316 3.896-13.062 3.79-15.312 4.005-3.37.323-4.582-6.524-1.808-9.697z" stroke="#5563B6" fill="#5563B6" stroke-linejoin="round"/>
      <path d="M58.307 62.757c.138.12.227.212.258.241.002.006 0-.005 0 0 0 .001 0 0 0 0-3.358-1.802-5.645-.43-8.241-.754a.913.913 0 00-.123-.027 1.843 1.843 0 01-.173-.034c-.684-.17-1.326-.741-1.9-1.559l-.009-.013c-.049-.067-.095-.138-.141-.208 0 0-.001-.002-.003-.002-.084-.13-.168-.268-.25-.408l-.026-.043a4.314 4.314 0 00-.065-.118l-.068-.12-.064-.122-.066-.126-.046-.09c-.58-1.152-1.05-2.535-1.387-3.913 0 0-.007-.013 0 0 1.263.682 2.576 1.243 3.684 1.552 1.335.374 3.006.531 4.611.456.492-1.515.775-3.155.761-4.531-.013-1.151-.208-2.544-.55-3.938.105.056.209.115.313.172l.092.053c.074.042.148.083.22.128a22.238 22.238 0 01.41.244c.092.058.183.114.273.172.009.005.018.01.027.017.105.066.208.134.311.202l.024.016.274.186c.02.012.037.026.056.038l.246.174a16.837 16.837 0 01.328.241c.292.223.57.448.832.677l.01.007c.437.384.824.775 1.142 1.165.046.057.09.114.134.171l.005.006c.04.052.079.105.115.155v.002l.004.005c.04.056.078.11.114.166l.014.023.001.002a4.647 4.647 0 01.151.248c.003.004.004.009.008.013a3.561 3.561 0 01.2.41l.026.071.038.105.023.076a1.168 1.168 0 01.046.173l.02.097c.005.024.008.05.012.075l.013.099.006.068c.002.037.002.073.003.112v.054c0 .056-.005.11-.011.164-.004.037-.006.07-.006.1-.352 2.576-2.278 4.435-1.418 8.111" fill="#9452BA"/>
      <circle stroke="#89C3EA" fill="#89C3EA" cx="146" cy="29" r="2"/>
      <circle stroke="#89C3EA" fill="#89C3EA" cx="156" cy="33" r="2"/>
      <circle stroke="#89C3EA" fill="#89C3EA" cx="154" cy="28" r="2"/>
      <circle stroke="#89C3EA" fill="#89C3EA" cx="159" cy="25" r="2"/>
      <circle stroke="#89C3EA" fill="#89C3EA" cx="156" cy="19" r="2"/>
      <circle stroke="#89C3EA" fill="#89C3EA" cx="150" cy="20" r="2"/>
      <circle stroke="#89C3EA" fill="#89C3EA" cx="154" cy="13" r="2"/>
      <circle stroke="#89C3EA" fill="#89C3EA" cx="157" cy="6" r="2"/>
      <circle stroke="#89C3EA" fill="#89C3EA" cx="164" cy="2" r="2"/>
      <circle stroke="#89C3EA" fill="#89C3EA" cx="164" cy="9" r="2"/>
      <circle stroke="#89C3EA" fill="#89C3EA" cx="162" cy="18" r="2"/>
      <circle stroke="#89C3EA" fill="#89C3EA" cx="159" cy="12" r="2"/>
    </g>
    <path stroke="#ACD3EF" stroke-width="3" stroke-linecap="round" d="M439.25 22.316v11.368M444.676 28.25h-10.352"/>
    <path stroke="#5563B6" stroke-width="2" stroke-linecap="round" d="M329 27.868v7M332.824 31.118h-7M385 74.868v7M388.824 78.118h-7"/>
    <path stroke="#ACD3EF" stroke-width="3" stroke-linecap="round" d="M210.25 35.316v11.368M215.676 41.25h-10.352M370.25 188.316v11.368M375.676 194.25h-10.352"/>
    <path stroke="#5563B6" stroke-width="2" stroke-linecap="round" d="M299.5 199.5v7M303.324 202.75h-7M460 225.868v7M463.824 229.118h-7M242 241.868v7M245.824 245.118h-7"/>
    <path stroke="#ACD3EF" stroke-width="3" stroke-linecap="round" d="M263.25 151.316v11.368M268.676 157.25h-10.352"/>
    <ellipse fill="#5563B6" transform="rotate(14 445 102)" cx="445" cy="102" rx="1" ry="2"/>
    <ellipse fill="#5563B6" transform="rotate(3 446 119)" cx="446" cy="119" rx="1" ry="2"/>
  </g>
</svg>
