<svg width="487" height="274" xmlns="http://www.w3.org/2000/svg">
  <g fill="none" fill-rule="evenodd">
    <path d="M252.181 149.082c2.03-.02 3.457-1.624 3.559-4.003.389-9.037-.104-27.903-.146-31.167-.036-2.793.178-6.828-3.081-6.91-3.215-.082-5.252 2.914-7.02 4.934-1.998 2.283-9.435 10.36-9.435 10.36s-8.382-8.32-10.609-10.702c-2.13-2.28-3.471-4.253-6.545-4.438-2.599-.157-3.753 2.065-3.884 4.46-.104 1.892.233 23.055.268 26.908.034 3.99.574 6.865 3.472 6.842 3.046-.026 4.308-2.413 4.476-5.017.236-3.648-.151-18.299-.151-18.299s8.117 9.198 13.03 9.269c4.448.065 9.588-7.861 11.495-9.611.25 2.23.055 22.43.56 24.152.529 1.807 1.727 3.245 4.011 3.222zm42.943-.422c1.618-.719 3.063-3.734 1.918-5.992-4.195-8.27-5.907-12.765-8.09-17.138-2.655-5.32-6.937-17.078-11.744-17.078-5.213 0-7.353 5.984-9.079 10.894-2.178 6.197-4.685 12.294-6.924 18.645-.896 2.54-2.044 6.173-.13 7.81.847.725 3.396 1.215 4.927-.077 1.918-1.618 4.11-8.18 4.11-8.18l15.097-.165s3.434 7.084 4.364 8.84c1.442 2.722 3.338 3.424 5.551 2.441zm-22.35-19.175c.917-2.519 3.415-9.587 4.134-11.805.797 1.617 4.333 9.646 5.352 11.803-2.457.06-7.484 0-9.486.002zm32.948 19.597c1.888 0 3.566-1.917 3.781-4.094.418-4.237.084-7.77.193-11.046 4.105 3.515 6.902 6.601 11.978 9.931 2.676 1.755 6.35 3.727 8.598 2.243 3.404-2.247 1.204-5.37-.412-6.646-5.742-4.529-10.882-8.758-10.882-8.758s8.903-3.681 9.016-12.467c.068-5.355-2.688-10.958-14.68-10.91-3.664.014-9.22.282-10.553 2.069-1.359 1.823-1.129 13.552-1.148 17.211-.025 4.67-.025 12.49.116 17.874.05 1.882 1.387 4.593 3.993 4.593zm3.903-24.437l-.002-8.5s8.253-2.536 9.446 2.27c1.48 5.96-9.444 6.23-9.444 6.23zm48.061 24.367c4.439-.412 6.744-2.05 6.385-5.294-.357-3.227-2.974-4.407-5.692-3.836-1.973.414-5.1 1.031-8.172-.76-6.411-3.738-6.414-15.923-1.44-21.018 3.302-3.38 6.466-2.413 8.801-2.202 2.693.244 5.814-.717 5.936-3.981.096-2.58-2.456-4.41-4.85-4.618-8.54-.741-18.993.62-21.855 15.823-1.143 6.073-.937 13.18 4.519 19.937 3.883 4.81 11.626 6.388 16.368 5.949zm37.62.07c3.483.022 3.6-5.601 3.609-7.433.023-4.776-.123-21.727-.034-26.586.057-3.117-.002-8.09-4.616-7.925-3.476.125-4.05 4.859-4.017 7.549.05 4.214-.05 11.534-.05 11.534l-12.851 2.354s-.5-10.363-.667-15.25c-.092-2.668-2.63-4.615-4.807-4.382-2.296.246-3.614 1.804-3.593 5.035.033 4.94.69 30.035.922 31.795.284 2.161 2.381 3.228 4.286 3.251 1.619.02 3.398-1.806 3.673-3.635.506-3.363.355-8.594.355-8.594s9.798-1.6 12.594-2.277c.32 2.954.32 6.67.81 10.805.177 1.495 1.328 3.74 4.386 3.76z" fill="#5563B6" fill-rule="nonzero"/>
    <path d="M91.799 33.354c2.73 5.51 4.57 8.869 5.519 10.076C115.653 66.774 124 75.726 124 82.022c0 6.845-3.165 17.44-9.495 31.785a2 2 0 01-1.83 1.193h-4.705a2 2 0 01-1.801-2.87c7.007-14.52 10.511-24.556 10.511-30.108 0-4.456-16.78-23.903-27.009-41.724-1.194-2.08-1.748-4.127-1.662-6.14h0a2 2 0 013.79-.804zM125.8 41.45c5.403-2.667 11.985-3.437 19.745-2.312h0a3 3 0 012.44 3.839c-2.489 8.218-6.443 13.664-11.863 16.337-6.105 3.013-14.071 2.506-23.897-1.52 2.892-7.86 7.417-13.307 13.574-16.345z" stroke="#5563B6" stroke-width="4" fill="#FFF"/>
    <path d="M129 56c2.575-.588 4.405-1.244 5.49-1.97 1.085-.724 2.589-2.068 4.51-4.03" stroke="#E1F2FF" stroke-width="2" stroke-linecap="round"/>
    <path d="M123 51c2.409-2.518 4.83-4.29 7.264-5.314 2.433-1.025 6.345-1.92 11.736-2.686" stroke="#89C3EA" stroke-width="2" stroke-linecap="round"/>
    <path d="M87.094 70.97c6.358-.989 14.475.698 24.352 5.059-3.581 6.172-10.096 9.992-19.546 11.46-8.566 1.331-15.648-.24-21.246-4.711h0a2 2 0 01-.124-3.018c5.26-4.962 10.782-7.892 16.564-8.79z" stroke="#5563B6" stroke-width="4" fill="#FFF"/>
    <path d="M77.712 81.006c4.05 1.015 7.37 1.357 9.957 1.024 2.587-.333 6.002-1.54 10.244-3.622" stroke="#89C3EA" stroke-width="2" stroke-linecap="round"/>
    <g transform="translate(44 115)" stroke-width="5">
      <path d="M19.134 26h94.56a8 8 0 017.91 9.2l-13.654 90a8 8 0 01-7.909 6.8h-68.94a8 8 0 01-7.93-6.946l-11.967-90A8 8 0 0119.134 26z" stroke="#5563B6" fill="#FFF"/>
      <rect stroke="#5563B6" fill="#FFF" width="132" height="31" rx="5"/>
      <path stroke="#E1F2FF" stroke-linecap="round" d="M77.244 123.5h19.512M107.761 67.248l-10.522 57.504M106.244 23.5h19.512M125.5 13l-.25 8.775"/>
    </g>
    <path d="M77.255 30.487c-4.136-2.28-9.145-2.992-15.026-2.137h0a3 3 0 00-2.458 3.771c1.974 7.112 5.079 11.835 9.312 14.169 4.834 2.664 11.14 2.215 18.917-1.346-2.29-6.95-5.87-11.77-10.745-14.457z" stroke="#5563B6" stroke-width="4" fill="#FFF"/>
    <path d="M81.019 40.98c-1.518-2.365-3.142-4.117-4.873-5.256-1.731-1.14-4.612-2.352-8.642-3.637" stroke="#89C3EA" stroke-width="2" stroke-linecap="round"/>
    <path d="M76 44c-1.803-.588-3.084-1.244-3.843-1.97-.76-.724-1.812-2.068-3.157-4.03" stroke="#E1F2FF" stroke-width="2" stroke-linecap="round"/>
    <path stroke="#ACD3EF" stroke-width="3" stroke-linecap="round" d="M339.25 189.316v11.368M344.676 195.25h-10.352M413.25 27.316v11.368M418.676 33.25h-10.352"/>
    <path stroke="#5563B6" stroke-width="2" stroke-linecap="round" d="M268.5 200.5v7M272.324 203.75h-7M429 226.868v7M432.824 230.118h-7M303 32.868v7M306.824 36.118h-7M211 242.868v7M214.824 246.118h-7"/>
    <path stroke="#ACD3EF" stroke-width="3" stroke-linecap="round" d="M232.25 152.316v11.368M237.676 158.25h-10.352"/>
    <path stroke="#5563B6" stroke-width="2" stroke-linecap="round" d="M359 79.868v7M362.824 83.118h-7"/>
    <path stroke="#ACD3EF" stroke-width="3" stroke-linecap="round" d="M184.25 40.316v11.368M189.676 46.25h-10.352"/>
    <path d="M76.428 164.774c.128.111.211.197.24.224.001.006-.001-.004 0 0 0 .001 0 0 0 0-3.119-1.674-5.242-.4-7.653-.7a.848.848 0 00-.114-.025 1.712 1.712 0 01-.161-.032c-.635-.158-1.23-.688-1.764-1.447l-.008-.012c-.046-.062-.089-.128-.132-.193 0 0 0-.002-.002-.003-.078-.12-.156-.248-.232-.378l-.024-.04a4.006 4.006 0 00-.06-.11l-.064-.111-.06-.114-.06-.117c-.015-.026-.029-.055-.043-.084-.538-1.069-.975-2.353-1.288-3.633 0 0-.007-.012 0 0 1.172.634 2.392 1.155 3.42 1.442 1.24.347 2.792.493 4.282.423.457-1.407.72-2.93.707-4.208-.012-1.068-.193-2.361-.51-3.656.097.052.193.106.29.16l.086.05c.068.038.137.076.204.118a20.65 20.65 0 01.38.227c.085.053.17.105.253.16.01.004.018.01.026.015.097.06.193.124.289.188l.022.015c.086.057.17.114.254.172l.052.035.229.162.043.032a15.628 15.628 0 01.261.192c.271.206.53.416.773.628l.01.007c.405.356.764.72 1.06 1.082.042.053.084.106.124.159l.005.005c.037.049.073.097.106.144v.001l.004.006c.037.05.073.102.106.154l.013.021.001.001a4.316 4.316 0 01.14.23c.003.005.004.009.008.013a3.307 3.307 0 01.185.382l.025.065.035.097c.008.023.014.046.021.071.01.03.018.06.026.09l.017.07.019.09.011.07c.004.03.007.062.012.092l.005.063.003.104v.05c0 .052-.005.103-.01.153a.944.944 0 00-.006.092c-.327 2.393-2.115 4.118-1.317 7.532" fill="#9452BA"/>
  </g>
</svg>
