<?xml version="1.0" encoding="UTF-8"?>
<svg width="455px" height="473px" viewBox="0 0 455 473" version="1.1" xmlns="http://www.w3.org/2000/svg" xmlns:xlink="http://www.w3.org/1999/xlink">
    <title>connectivity</title>
    <g id="connectivity" stroke="none" stroke-width="1" fill="none" fill-rule="evenodd">
        <path d="M180.794936,435.239289 C137.30098,427.49786 76.720705,410.486652 34.7499486,335.464565 C-3.33002757,267.353282 -25.8799961,163.425431 45.7765852,98.0385989 C117.433167,32.651767 335.118178,12.0190319 417.801396,98.0385989 C500.484614,184.058166 437.66921,480.990136 180.794936,435.239289 Z" id="Path" fill="#EFEFF8" fill-rule="nonzero"></path>
        <ellipse id="Oval" fill="#DFE1F0" fill-rule="nonzero" cx="229.5" cy="415.232021" rx="216.5" ry="14"></ellipse>
        <line x1="10.69" y1="65.08" x2="10.8" y2="55.57" id="Path" stroke="#B0B0DB" stroke-width="2.68066896" stroke-linecap="round"></line>
        <line x1="5.99" y1="60.27" x2="15.5" y2="60.38" id="Path" stroke="#B0B0DB" stroke-width="2.68066896" stroke-linecap="round"></line>
        <line x1="42.18" y1="438.9" x2="42.29" y2="429.39" id="Path" stroke="#B0B0DB" stroke-width="2.68066896" stroke-linecap="round"></line>
        <line x1="37.48" y1="434.09" x2="46.99" y2="434.2" id="Path" stroke="#B0B0DB" stroke-width="2.68066896" stroke-linecap="round"></line>
        <line x1="429.05" y1="431.75" x2="429.16" y2="422.24" id="Path" stroke="#B0B0DB" stroke-width="2.68066896" stroke-linecap="round"></line>
        <line x1="424.35" y1="426.94" x2="433.86" y2="427.05" id="Path" stroke="#B0B0DB" stroke-width="2.68066896" stroke-linecap="round"></line>
        <g id="Group-3" transform="translate(11.000000, 54.000000)">
            <path d="M318,135 L363.592043,135 C366.758783,135 369.325933,132.485202 369.325933,129.383041 L369.325933,123.616959 C369.325933,120.514798 371.893084,118 375.059824,118 L406,118" id="Path" stroke="#FFFFFF" stroke-width="5.99" stroke-linecap="round" stroke-linejoin="round"></path>
            <path d="M201,116 L201,89.9474785 C200.993163,86.8196437 198.48608,84.2876986 195.395804,84.2877063 L180.604196,84.2877063 C177.509084,84.2877063 175,81.7481214 175,78.6153846 L175,8" id="Path" stroke="#FFFFFF" stroke-width="5.99" stroke-linecap="round" stroke-linejoin="round"></path>
            <path d="M142,144 L96.494382,144 C93.3469101,144 90.7808989,141.959451 90.7808989,139.434925 L90.7808989,128.551995 C90.7808989,126.040549 88.252809,124 85.0800562,124 L70,124" id="Path" stroke="#FFFFFF" stroke-width="5.99" stroke-linecap="round" stroke-linejoin="round"></path>
            <circle id="Oval" fill="#FCCE76" fill-rule="nonzero" cx="70" cy="124" r="11"></circle>
            <path d="M107,261 L97.3180952,261 C94.2274046,261 91.7219048,263.541142 91.7219048,266.675799 L91.7219048,299.324201 C91.7251932,300.828361 91.1383526,302.272056 90.0908286,303.336838 C89.0433046,304.401619 87.6211612,305 86.1380952,305 L68,305" id="Path" stroke="#FFFFFF" stroke-width="5.99" stroke-linecap="round" stroke-linejoin="round"></path>
            <circle id="Oval" fill="#61ACAA" fill-rule="nonzero" cx="68" cy="304" r="11"></circle>
            <path d="M322,286 L379.716653,286 C382.85291,286 385.395349,288.573613 385.395349,291.748325 L385.395349,318.264379 C385.395345,319.787762 385.994035,321.248567 387.05936,322.324568 C388.124685,323.40057 389.569117,324.003364 391.074044,324 L416,324" id="Path" stroke="#FFFFFF" stroke-width="5.99" stroke-linecap="round" stroke-linejoin="round"></path>
            <path d="M327,198 L353.685736,198 C355.213738,198 356.678972,198.621391 357.758235,199.727116 C358.837499,200.832841 359.44212,202.332051 359.438732,203.894051 L359.438732,208.105949 C359.438732,211.361144 362.020147,214 365.204484,214 L393,214" id="Path" stroke="#FFFFFF" stroke-width="5.99" stroke-linecap="round" stroke-linejoin="round"></path>
            <circle id="Oval" fill="#81CCCC" fill-rule="nonzero" cx="389" cy="213" r="11"></circle>
            <path d="M111,193 L53.4904626,193 C50.3255019,193 47.7597944,195.57623 47.7597944,198.75417 L47.7597944,216.194908 C47.7767296,217.728631 47.1817848,219.205394 46.1076127,220.295929 C45.0334405,221.386464 43.5693574,222 42.0418047,222 L0,222" id="Path" stroke="#FFFFFF" stroke-width="5.99" stroke-linecap="round" stroke-linejoin="round"></path>
            <path d="M240,100 L240,89.5231362 C240,88.0219608 240.597699,86.582452 241.661265,85.5221369 C242.724832,84.4618217 244.166882,83.8678154 245.669326,83.871144 L289.343203,83.871144 C290.845651,83.8711476 292.28638,83.2739516 293.347594,82.2112854 C294.408808,81.1486192 295.003317,79.7077913 295,78.2066195 L295,61" id="Path" stroke="#FFFFFF" stroke-width="5.99" stroke-linecap="round" stroke-linejoin="round"></path>
            <circle id="Oval" fill="#9093CC" fill-rule="nonzero" cx="295" cy="56" r="11"></circle>
            <path d="M245,317 L245,334.289144 C245,337.414369 242.412333,339.947865 239.220285,339.947865 L206.766928,339.947865 C203.581942,339.947865 201,342.475755 201,345.594066 L201,368.854913 C201,371.973224 203.581942,374.501115 206.766928,374.501115 L221.612613,374.501115 C224.804661,374.501115 227.392328,377.03461 227.392328,380.159835 L227.392328,390" id="Path" stroke="#FFFFFF" stroke-width="5.99" stroke-linecap="round" stroke-linejoin="round"></path>
            <circle id="Oval" fill="#5E63B6" fill-rule="nonzero" cx="11" cy="222" r="11"></circle>
            <circle id="Oval" fill="#5E63B6" fill-rule="nonzero" cx="226" cy="390" r="11"></circle>
            <circle id="Oval" fill="#5FAAAA" fill-rule="nonzero" cx="175" cy="11" r="11"></circle>
            <rect id="Rectangle" fill="#CDCDF0" fill-rule="nonzero" x="111" y="101" width="221" height="223" rx="2.94"></rect>
            <rect id="Rectangle" fill="#FFFFFF" fill-rule="nonzero" x="107" y="101" width="215" height="214" rx="2.94"></rect>
            <rect id="Rectangle" stroke="#9093CC" stroke-width="6.42" x="107" y="101" width="215" height="214" rx="2.94"></rect>
            <path d="M131.94,122 L296.06,122 C297.683717,122 299,123.316283 299,124.94 L299,290.06 C299,291.683717 297.683717,293 296.06,293 L131.94,293 C130.316283,293 129,291.683717 129,290.06 L129,124.94 C129,123.316283 130.316283,122 131.94,122 Z" id="Rectangle" stroke="#DFE1F0" stroke-width="4.94" fill="#FFFFFF" fill-rule="nonzero" stroke-linecap="round" stroke-linejoin="round" stroke-dasharray="73.59"></path>
            <rect id="Rectangle" fill="#DFE1F0" fill-rule="nonzero" x="194" y="184" width="41" height="45" rx="4.7"></rect>
            <rect id="Rectangle" fill="#FFFFFF" fill-rule="nonzero" x="196" y="186" width="37" height="18" rx="3.23"></rect>
            <path d="M229.041658,187.625102 C229.630988,187.621821 230.197338,187.850041 230.61525,188.259242 C231.033162,188.668444 231.26813,189.224848 231.26813,189.805203 L231.26813,200.095111 C231.26813,201.306008 230.271304,202.287634 229.041658,202.287634 L199.945719,202.287634 C198.716072,202.287634 197.719247,201.306008 197.719247,200.095111 L197.719247,189.855033 C197.719247,189.274678 197.954214,188.718274 198.372126,188.309072 C198.790039,187.899871 199.356388,187.671651 199.945719,187.674967 L229.041658,187.674967 M229.041658,184 L199.945719,184 C196.662004,184 194.000013,186.621387 194.000013,189.855033 L194.000013,200.144941 C193.996659,201.698806 194.621997,203.189985 195.737761,204.288736 C196.853526,205.387488 198.367793,206.00329 199.945719,205.999987 L229.041658,205.999987 C230.620744,206.003282 232.136306,205.387875 233.254077,204.289485 C234.371848,203.191094 235,201.699953 235,200.144941 L235,189.855033 C234.993024,186.619373 232.327425,184 229.041658,184 L229.041658,184 Z" id="Shape" fill="#B0B0DB" fill-rule="nonzero"></path>
            <circle id="Oval" fill="#5E63B6" fill-rule="nonzero" cx="408" cy="118" r="11"></circle>
            <circle id="Oval" fill="#FF8394" fill-rule="nonzero" cx="415" cy="321" r="11"></circle>
        </g>
        <path d="M225.769992,222.161033 C227.330639,222.161896 227.663995,220.323836 227.695922,219.08806 C227.717789,218.240902 227.711808,216.917016 227.695726,215.537316 L227.683703,214.613866 C227.666196,213.383893 227.643824,212.183726 227.629049,211.308986 C227.586912,208.823772 227.811834,205.318069 226.035613,205.016208 C225.156203,204.866788 224.242566,205.769063 224.146068,206.955512 C223.912805,209.823122 224.013618,214.852512 224.077182,217.673814 C224.118888,219.524673 224.226747,222.16017 225.769992,222.161033 Z" id="I" fill="#5E63B6" fill-rule="nonzero"></path>
        <path d="M233.80528,303.62959 C234.285899,298.319623 230.122545,295.45187 226.976371,295.063721 C222.70904,294.53737 218.153654,297.293237 218.00409,302.537482 C217.868188,307.304416 221.132431,310.832698 225.781438,310.955225 C229.824566,311.061934 233.371831,308.419246 233.80528,303.62959 Z M224.948048,307.484756 C222.204692,306.976669 220.874432,304.548261 221.442777,302.099719 C222.103161,299.254832 224.136518,298.425469 226.344606,298.564823 C228.552694,298.70432 230.813417,300.500387 230.637823,303.268191 C230.434473,306.468581 227.456416,307.949125 224.948048,307.484756 Z" id="O" fill="#5E63B6" fill-rule="nonzero"></path>
    </g>
</svg>