<?xml version="1.0" encoding="UTF-8"?>
<svg width="487px" height="274px" viewBox="0 0 487 274" version="1.1" xmlns="http://www.w3.org/2000/svg" xmlns:xlink="http://www.w3.org/1999/xlink">
    <title>illus-february-21</title>
    <g id="illus-february-21" stroke="none" stroke-width="1" fill="none" fill-rule="evenodd">
        <g id="Group" transform="translate(12.000000, 23.000000)" stroke-linecap="round">
            <line x1="234.25" y1="0.315789474" x2="234.25" y2="11.6842105" id="Line-16" stroke="#ACD3EF" stroke-width="3"></line>
            <line x1="239.676471" y1="6.25" x2="229.323529" y2="6.25" id="Line-16" stroke="#ACD3EF" stroke-width="3"></line>
            <line x1="124" y1="5.86842105" x2="124" y2="12.8684211" id="Line-16" stroke="#5563B6" stroke-width="2"></line>
            <line x1="127.823529" y1="9.11842105" x2="120.823529" y2="9.11842105" id="Line-16" stroke="#5563B6" stroke-width="2"></line>
            <line x1="180" y1="52.8684211" x2="180" y2="59.8684211" id="Line-16" stroke="#5563B6" stroke-width="2"></line>
            <line x1="183.823529" y1="56.1184211" x2="176.823529" y2="56.1184211" id="Line-16" stroke="#5563B6" stroke-width="2"></line>
            <line x1="5.25" y1="13.3157895" x2="5.25" y2="24.6842105" id="Line-16" stroke="#ACD3EF" stroke-width="3"></line>
            <line x1="10.6764706" y1="19.25" x2="0.323529412" y2="19.25" id="Line-16" stroke="#ACD3EF" stroke-width="3"></line>
            <line x1="165.25" y1="166.315789" x2="165.25" y2="177.684211" id="Line-16" stroke="#ACD3EF" stroke-width="3"></line>
            <line x1="170.676471" y1="172.25" x2="160.323529" y2="172.25" id="Line-16" stroke="#ACD3EF" stroke-width="3"></line>
            <line x1="94.5" y1="177.5" x2="94.5" y2="184.5" id="Line-16" stroke="#5563B6" stroke-width="2"></line>
            <line x1="98.3235294" y1="180.75" x2="91.3235294" y2="180.75" id="Line-16" stroke="#5563B6" stroke-width="2"></line>
            <line x1="255" y1="203.868421" x2="255" y2="210.868421" id="Line-16" stroke="#5563B6" stroke-width="2"></line>
            <line x1="258.823529" y1="207.118421" x2="251.823529" y2="207.118421" id="Line-16" stroke="#5563B6" stroke-width="2"></line>
            <line x1="37" y1="219.868421" x2="37" y2="226.868421" id="Line-16" stroke="#5563B6" stroke-width="2"></line>
            <line x1="40.8235294" y1="223.118421" x2="33.8235294" y2="223.118421" id="Line-16" stroke="#5563B6" stroke-width="2"></line>
            <line x1="58.25" y1="129.315789" x2="58.25" y2="140.684211" id="Line-16" stroke="#ACD3EF" stroke-width="3"></line>
            <line x1="63.6764706" y1="135.25" x2="53.3235294" y2="135.25" id="Line-16" stroke="#ACD3EF" stroke-width="3"></line>
        </g>
        <path d="M30.6256503,156.990463 C33.2758036,156.848485 33.4343548,152.096582 33.4430697,149.538536 L33.4437138,148.745879 C33.4438424,148.700395 33.4440373,148.656524 33.4443279,148.614353 C33.4487355,147.958839 33.4720444,146.807399 33.4993199,145.629179 L33.5112087,145.123955 C33.5533646,143.359509 33.5996449,141.685603 33.5996449,141.685603 L33.6331386,141.68505 C33.9645958,141.679395 36.7036976,141.628435 39.5018931,141.445494 L40.0616243,141.407121 C41.7390063,141.286567 43.3812969,141.116419 44.481209,140.877955 C48.3893695,140.030831 47.8292579,133.423393 42.4543238,133.468047 C41.6595473,133.47459 40.5162212,133.479818 39.3181474,133.483916 L38.8021918,133.485603 L38.8021918,133.485603 L38.2846719,133.487156 C37.4236901,133.489632 36.5776041,133.491559 35.8534844,133.493004 L35.4345051,133.493813 C35.3674001,133.493938 35.3017288,133.494059 35.2375985,133.494175 L34.8721635,133.494817 C34.8146249,133.494915 34.7588413,133.495009 34.7049199,133.495098 L34.154095,133.495958 C34.1167834,133.496013 34.0817621,133.496063 34.0491383,133.49611 L33.7439602,133.496521 L33.7439602,133.496521 L33.933576,127.500967 C33.933576,127.500967 34.848834,127.516448 36.2307488,127.520046 L37.2778813,127.520255 C40.987721,127.511999 46.6967496,127.402308 48.5611885,126.834722 C51.0918826,126.064285 52.8945292,124.346416 51.614783,121.541652 C50.4835587,119.062083 47.9661311,119.113532 45.5810465,119.190219 C42.7656049,119.280497 34.7289279,118.883792 30.2949552,119.537094 C28.8171798,119.754861 26.7427287,121.45105 26.6844852,123.808631 C26.6263082,126.154607 26.6021165,129.49067 26.5926089,132.883797 L26.5894896,134.272713 C26.5886903,134.735168 26.588115,135.196319 26.587715,135.6538 L26.5871339,136.563165 C26.5870712,136.713677 26.5870243,136.863605 26.5869914,137.012863 L26.5869479,137.89966 C26.5869639,138.045885 26.5869902,138.191263 26.5870252,138.335708 L26.5879669,140.42141 C26.5880424,140.554328 26.5881175,140.685875 26.5881902,140.815962 L26.5882767,143.909828 C26.5872392,144.780325 26.584695,145.468739 26.5793224,145.911191 C26.5793219,152.825059 26.1017226,157.232822 30.6256503,156.990463 Z M62.4317491,156.998549 C66.6382477,156.944835 72.5972382,156.293151 77.2622451,155.218876 C78.7306365,154.880738 80.4782751,153.480946 80.3216639,151.133719 C80.1326953,148.301452 77.9200768,147.475036 76.669129,147.507071 C73.0140056,147.600261 62.9850662,148.946017 62.9850662,148.946017 L62.8171298,141.69369 C62.8171298,141.69369 65.9072198,141.508493 68.9492953,141.191135 L69.5011723,141.131989 C70.9677076,140.970446 72.3782466,140.77859 73.3751169,140.562466 C77.2832773,139.715342 76.7231658,133.107903 71.3482316,133.152557 C68.7932693,133.17359 62.9614445,133.504609 62.9614445,133.504609 L62.8274838,128.479785 L62.8627218,128.479264 C63.4905162,128.46992 72.3306916,128.335562 75.1897353,128.137117 C77.5981175,127.969828 80.3216634,126.783595 79.8615367,123.491201 C79.4842465,120.791923 76.3406976,120.208514 73.8278003,120.169038 C71.0113881,120.124708 63.9460887,119.86261 59.5124395,120.515912 C58.0346641,120.733679 55.960213,122.753445 55.9019695,125.111026 L55.7968068,146.89001 C56.0679642,153.709067 55.8336945,157.083326 62.4317491,156.998549 Z M94.6194367,156.852632 C104.639963,156.089638 112.259549,152.31835 112.09129,143.750684 C112.034664,140.869233 110.000013,135.7496 103.522653,135.600108 C103.522652,135.600107 108.517383,132.989813 107.451845,126.536074 C106.434843,120.377114 100.234464,119.068569 95.9658392,119.245242 C92.5864035,119.385027 87.3415469,119.054978 85.9521082,123.387995 C85.0328267,126.253915 85.3958798,147.60416 85.9307524,152.422542 C86.4653016,157.238012 89.6835964,157.228305 94.6194367,156.852632 Z M92.6999791,133.062943 C92.6838,132.295742 92.5582521,126.051034 92.5582521,126.051034 C92.5582521,126.051033 100.071059,123.731958 100.795871,127.549841 C101.771131,132.689211 94.5809313,132.335542 92.6999791,133.062943 Z M92.8087009,149.997334 C92.5454791,149.408152 92.4910968,146.765948 92.4867537,144.899032 L92.4866185,144.450092 C92.4880655,143.591062 92.4987139,142.984778 92.4987139,142.984778 C92.4987139,142.984778 103.521034,138.361836 104.521534,144.009545 C105.11368,147.353065 96.0907401,149.942973 92.8087009,149.997334 Z M119.554738,157.000181 C121.253516,157.000181 122.763649,155.274546 122.957471,153.315289 C123.334115,149.50226 123.033189,146.322147 123.131556,143.373715 C126.825509,146.537651 129.342937,149.31491 133.911841,152.311878 C136.320224,153.891256 139.626855,155.666399 141.649857,154.330674 C144.712835,152.308319 142.733516,149.497083 141.278391,148.349033 C136.111193,144.272936 131.485015,140.467025 131.485015,140.467025 C131.485015,140.467025 139.498071,137.153599 139.599027,129.246029 C139.66083,124.426676 137.179967,119.384378 126.38771,119.42714 C123.089816,119.440357 118.088936,119.681098 116.890084,121.289599 C115.925701,122.583352 115.850438,129.419223 115.853028,133.867718 L115.853868,134.500755 C115.854875,135.012549 115.856451,135.483085 115.857124,135.897982 L115.857045,136.581599 C115.856857,136.65019 115.856598,136.716209 115.856256,136.779543 C115.833606,140.983129 115.833606,148.020925 115.960771,152.86584 C116.005101,154.559765 117.208807,157.000181 119.554738,157.000181 Z M123.067164,135.006666 L123.065223,127.35634 C123.065223,127.35634 130.492929,125.073829 131.566557,129.399081 C132.898722,134.764307 123.067164,135.006343 123.067164,135.006666 Z M173.90613,141.197664 C174.406381,136.013962 174.57464,129.672504 173.452152,124.571315 C172.918251,122.146431 171.05186,121.331665 169.31943,121.554609 C167.334609,121.809911 166.90943,123.482479 166.736963,125.173815 C166.372939,128.740279 169.684747,149.157975 160.210742,149.183214 C152.857783,149.202629 154.845192,128.49339 154.518703,125.566962 C154.155973,122.316632 152.778183,120.782231 150.083759,121.503484 C147.045049,122.316309 147.224958,125.700599 147.102323,128.223528 C146.794925,134.53457 147.252139,145.099676 150.302821,150.719234 C151.942384,153.7395 155.792301,156.670459 160.171913,156.974945 C168.239653,157.535057 173.197173,148.543828 173.90613,141.197664 Z M209.628589,156.619981 C211.084684,155.972827 212.385463,153.259312 211.354548,151.226926 C207.579378,143.78466 206.037858,139.738332 204.07407,135.802991 C201.684132,131.014378 197.830332,120.433093 193.503786,120.433093 C188.811923,120.433093 186.886317,125.818705 185.333149,130.237794 C183.372273,135.814639 181.11662,141.302178 179.10106,147.017839 C178.295353,149.303262 177.261849,152.573329 178.983601,154.046575 C179.746271,154.699229 182.040754,155.140264 183.418868,153.977329 C185.144827,152.521233 187.117351,146.61628 187.117351,146.61628 L200.704664,146.467111 C200.704664,146.467111 201.583919,148.28066 202.531546,150.213001 L203.007304,151.181225 C203.678729,152.544669 204.316652,153.825996 204.632887,154.422894 C205.930753,156.873018 207.636974,157.504964 209.628589,156.619981 Z M195.530767,139.384639 L194.693941,139.384318 C192.715474,139.380987 190.609982,139.36135 189.513113,139.362335 C190.338558,137.09568 192.587093,130.733836 193.234246,128.738338 C193.951616,130.192816 197.13367,137.419257 198.050363,139.360718 C197.37745,139.377164 196.490266,139.383599 195.530767,139.384639 L195.530767,139.384639 Z M219.166738,157.000181 C220.865516,157.000181 222.375649,155.274546 222.569471,153.315289 C222.946115,149.50226 222.645189,146.322147 222.743556,143.373715 C226.437509,146.537651 228.954937,149.31491 233.523841,152.311878 C235.932224,153.891256 239.238855,155.666399 241.261857,154.330674 C244.324835,152.308319 242.345516,149.497083 240.890391,148.349033 C235.723193,144.272936 231.097015,140.467025 231.097015,140.467025 C231.097015,140.467025 239.110071,137.153599 239.211027,129.246029 C239.27283,124.426676 236.791967,119.384378 225.99971,119.42714 C222.701816,119.440357 217.700936,119.681098 216.502084,121.289599 C215.537701,122.583352 215.462438,129.419223 215.465028,133.867718 L215.465868,134.500755 C215.466875,135.012549 215.468451,135.483085 215.469124,135.897982 L215.469045,136.581599 C215.468857,136.65019 215.468598,136.716209 215.468256,136.779543 C215.445606,140.983129 215.445606,148.020925 215.572771,152.86584 C215.617101,154.559765 216.820807,157.000181 219.166738,157.000181 Z M222.679164,135.006666 L222.677223,127.35634 C222.677223,127.35634 230.104929,125.073829 231.178557,129.399081 C232.510722,134.764307 222.679164,135.006343 222.679164,135.006666 Z M264.177558,151.463329 L264.179246,151.049759 C264.179197,150.219814 264.161737,149.37598 264.183399,148.571397 C264.205316,147.751324 264.215061,146.627014 264.217383,145.403918 L264.217406,144.155503 C264.217056,143.944482 264.216544,143.732619 264.215892,143.520866 L264.213536,142.886885 C264.202151,140.254595 264.17229,137.788021 264.166897,137.3449 C264.46371,137.021598 266.894094,134.372223 269.398789,131.550643 L269.900109,130.98467 C272.155015,128.433198 274.358913,125.85855 275.010602,124.830892 C275.847372,123.511346 276.514911,120.979034 273.716295,119.653663 C272.179305,118.925614 270.301912,119.22557 268.888852,120.974826 C266.563306,123.853041 262.313771,128.611562 260.517273,130.381851 C258.720775,128.611562 254.470917,123.853042 252.145371,120.974826 C250.732311,119.22557 248.854919,118.925614 247.317929,119.653662 C244.519313,120.979357 245.186852,123.511345 246.023622,124.830891 C247.49622,127.153202 256.899039,137.379523 256.899039,137.379523 L256.899884,137.417898 C256.907388,137.759504 256.963464,140.330672 257.01201,143.071906 L257.027836,143.989124 L257.027836,143.989124 L257.037848,144.59923 C257.073563,146.826602 257.09738,148.913672 257.078948,149.746305 C257.010349,152.824491 257.203524,156.922268 260.463884,156.998308 C263.780495,157.075444 264.151307,154.41542 264.177558,151.463329 L264.177558,151.463329 Z" id="February" fill="#5563B6" fill-rule="nonzero"></path>
        <g id="Group-2" transform="translate(309.000000, 31.000000)" stroke="#E1F2FF" stroke-width="2">
            <polygon id="Star" fill="#E1F2FF" stroke-linejoin="round" points="23.5 28.9445452 20.2471908 31.3149158 19.5300956 27.2034282 15.647024 26.4441509 17.8857073 23 15.647024 19.5558491 19.5300956 18.7965718 20.2471908 14.6850842 23.5 17.0554548 26.7528092 14.6850842 27.4699044 18.7965718 31.352976 19.5558491 29.1142927 23 31.352976 26.4441509 27.4699044 27.2034282 26.7528092 31.3149158"></polygon>
            <g id="Group" transform="translate(23.095480, 22.897610) rotate(133.000000) translate(-23.095480, -22.897610) translate(19.595480, -0.102390)" stroke-linecap="round">
                <line x1="3.64" y1="45.6891892" x2="3.64" y2="0.310810811" id="Line-19"></line>
                <line x1="0.504722017" y1="3.62200527" x2="3.30472202" y2="7.351735" id="Line-20"></line>
                <line x1="3.86472202" y1="3.62200527" x2="6.66472202" y2="7.351735" id="Line-20" transform="translate(5.264722, 5.486870) scale(-1, 1) translate(-5.264722, -5.486870) "></line>
                <line x1="0.642916974" y1="37.7696948" x2="3.44291697" y2="41.4994245" id="Line-20" transform="translate(2.042917, 39.634560) scale(1, -1) translate(-2.042917, -39.634560) "></line>
                <line x1="4.00291697" y1="37.7696948" x2="6.80291697" y2="41.4994245" id="Line-20" transform="translate(5.402917, 39.634560) scale(-1, -1) translate(-5.402917, -39.634560) "></line>
            </g>
            <g id="Group" transform="translate(23.500000, 23.000000) rotate(180.000000) translate(-23.500000, -23.000000) translate(20.000000, 0.000000)" stroke-linecap="round">
                <line x1="3.5" y1="45.6891892" x2="3.5" y2="0.310810811" id="Line-19"></line>
                <line x1="0.485309632" y1="3.62200527" x2="3.17761732" y2="7.351735" id="Line-20"></line>
                <line x1="3.71607886" y1="3.62200527" x2="6.40838656" y2="7.351735" id="Line-20" transform="translate(5.062233, 5.486870) scale(-1, 1) translate(-5.062233, -5.486870) "></line>
                <line x1="0.618189398" y1="37.7696948" x2="3.31049709" y2="41.4994245" id="Line-20" transform="translate(1.964343, 39.634560) scale(1, -1) translate(-1.964343, -39.634560) "></line>
                <line x1="3.84895863" y1="37.7696948" x2="6.54126632" y2="41.4994245" id="Line-20" transform="translate(5.195112, 39.634560) scale(-1, -1) translate(-5.195112, -39.634560) "></line>
            </g>
            <g id="Group" transform="translate(23.500000, 23.000000) rotate(270.000000) translate(-23.500000, -23.000000) translate(20.000000, -0.000000)" stroke-linecap="round">
                <line x1="3.5" y1="45.6891892" x2="3.5" y2="0.310810811" id="Line-19"></line>
                <line x1="0.485309632" y1="3.62200527" x2="3.17761732" y2="7.351735" id="Line-20"></line>
                <line x1="3.71607886" y1="3.62200527" x2="6.40838656" y2="7.351735" id="Line-20" transform="translate(5.062233, 5.486870) scale(-1, 1) translate(-5.062233, -5.486870) "></line>
                <line x1="0.618189398" y1="37.7696948" x2="3.31049709" y2="41.4994245" id="Line-20" transform="translate(1.964343, 39.634560) scale(1, -1) translate(-1.964343, -39.634560) "></line>
                <line x1="3.84895863" y1="37.7696948" x2="6.54126632" y2="41.4994245" id="Line-20" transform="translate(5.195112, 39.634560) scale(-1, -1) translate(-5.195112, -39.634560) "></line>
            </g>
            <g id="Group" transform="translate(23.098995, 23.098995) rotate(225.000000) translate(-23.098995, -23.098995) translate(19.598995, 0.098995)" stroke-linecap="round">
                <line x1="3.64" y1="45.6891892" x2="3.64" y2="0.310810811" id="Line-19"></line>
                <line x1="0.504722017" y1="3.62200527" x2="3.30472202" y2="7.351735" id="Line-20"></line>
                <line x1="3.86472202" y1="3.62200527" x2="6.66472202" y2="7.351735" id="Line-20" transform="translate(5.264722, 5.486870) scale(-1, 1) translate(-5.264722, -5.486870) "></line>
                <line x1="0.642916974" y1="37.7696948" x2="3.44291697" y2="41.4994245" id="Line-20" transform="translate(2.042917, 39.634560) scale(1, -1) translate(-2.042917, -39.634560) "></line>
                <line x1="4.00291697" y1="37.7696948" x2="6.80291697" y2="41.4994245" id="Line-20" transform="translate(5.402917, 39.634560) scale(-1, -1) translate(-5.402917, -39.634560) "></line>
            </g>
        </g>
        <g id="Group-2" transform="translate(424.000000, 88.000000)" stroke="#E1F2FF" stroke-width="2">
            <polygon id="Star" fill="#E1F2FF" stroke-linejoin="round" points="23.5 28.9445452 20.2471908 31.3149158 19.5300956 27.2034282 15.647024 26.4441509 17.8857073 23 15.647024 19.5558491 19.5300956 18.7965718 20.2471908 14.6850842 23.5 17.0554548 26.7528092 14.6850842 27.4699044 18.7965718 31.352976 19.5558491 29.1142927 23 31.352976 26.4441509 27.4699044 27.2034282 26.7528092 31.3149158"></polygon>
            <g id="Group" transform="translate(23.095480, 22.897610) rotate(133.000000) translate(-23.095480, -22.897610) translate(19.595480, -0.102390)" stroke-linecap="round">
                <line x1="3.64" y1="45.6891892" x2="3.64" y2="0.310810811" id="Line-19"></line>
                <line x1="0.504722017" y1="3.62200527" x2="3.30472202" y2="7.351735" id="Line-20"></line>
                <line x1="3.86472202" y1="3.62200527" x2="6.66472202" y2="7.351735" id="Line-20" transform="translate(5.264722, 5.486870) scale(-1, 1) translate(-5.264722, -5.486870) "></line>
                <line x1="0.642916974" y1="37.7696948" x2="3.44291697" y2="41.4994245" id="Line-20" transform="translate(2.042917, 39.634560) scale(1, -1) translate(-2.042917, -39.634560) "></line>
                <line x1="4.00291697" y1="37.7696948" x2="6.80291697" y2="41.4994245" id="Line-20" transform="translate(5.402917, 39.634560) scale(-1, -1) translate(-5.402917, -39.634560) "></line>
            </g>
            <g id="Group" transform="translate(23.500000, 23.000000) rotate(180.000000) translate(-23.500000, -23.000000) translate(20.000000, 0.000000)" stroke-linecap="round">
                <line x1="3.5" y1="45.6891892" x2="3.5" y2="0.310810811" id="Line-19"></line>
                <line x1="0.485309632" y1="3.62200527" x2="3.17761732" y2="7.351735" id="Line-20"></line>
                <line x1="3.71607886" y1="3.62200527" x2="6.40838656" y2="7.351735" id="Line-20" transform="translate(5.062233, 5.486870) scale(-1, 1) translate(-5.062233, -5.486870) "></line>
                <line x1="0.618189398" y1="37.7696948" x2="3.31049709" y2="41.4994245" id="Line-20" transform="translate(1.964343, 39.634560) scale(1, -1) translate(-1.964343, -39.634560) "></line>
                <line x1="3.84895863" y1="37.7696948" x2="6.54126632" y2="41.4994245" id="Line-20" transform="translate(5.195112, 39.634560) scale(-1, -1) translate(-5.195112, -39.634560) "></line>
            </g>
            <g id="Group" transform="translate(23.500000, 23.000000) rotate(270.000000) translate(-23.500000, -23.000000) translate(20.000000, -0.000000)" stroke-linecap="round">
                <line x1="3.5" y1="45.6891892" x2="3.5" y2="0.310810811" id="Line-19"></line>
                <line x1="0.485309632" y1="3.62200527" x2="3.17761732" y2="7.351735" id="Line-20"></line>
                <line x1="3.71607886" y1="3.62200527" x2="6.40838656" y2="7.351735" id="Line-20" transform="translate(5.062233, 5.486870) scale(-1, 1) translate(-5.062233, -5.486870) "></line>
                <line x1="0.618189398" y1="37.7696948" x2="3.31049709" y2="41.4994245" id="Line-20" transform="translate(1.964343, 39.634560) scale(1, -1) translate(-1.964343, -39.634560) "></line>
                <line x1="3.84895863" y1="37.7696948" x2="6.54126632" y2="41.4994245" id="Line-20" transform="translate(5.195112, 39.634560) scale(-1, -1) translate(-5.195112, -39.634560) "></line>
            </g>
            <g id="Group" transform="translate(23.098995, 23.098995) rotate(225.000000) translate(-23.098995, -23.098995) translate(19.598995, 0.098995)" stroke-linecap="round">
                <line x1="3.64" y1="45.6891892" x2="3.64" y2="0.310810811" id="Line-19"></line>
                <line x1="0.504722017" y1="3.62200527" x2="3.30472202" y2="7.351735" id="Line-20"></line>
                <line x1="3.86472202" y1="3.62200527" x2="6.66472202" y2="7.351735" id="Line-20" transform="translate(5.264722, 5.486870) scale(-1, 1) translate(-5.264722, -5.486870) "></line>
                <line x1="0.642916974" y1="37.7696948" x2="3.44291697" y2="41.4994245" id="Line-20" transform="translate(2.042917, 39.634560) scale(1, -1) translate(-2.042917, -39.634560) "></line>
                <line x1="4.00291697" y1="37.7696948" x2="6.80291697" y2="41.4994245" id="Line-20" transform="translate(5.402917, 39.634560) scale(-1, -1) translate(-5.402917, -39.634560) "></line>
            </g>
        </g>
        <g id="Group-2" transform="translate(268.000000, 192.000000)" stroke="#E1F2FF" stroke-width="2">
            <polygon id="Star" fill="#E1F2FF" stroke-linejoin="round" points="23.5 28.9445452 20.2471908 31.3149158 19.5300956 27.2034282 15.647024 26.4441509 17.8857073 23 15.647024 19.5558491 19.5300956 18.7965718 20.2471908 14.6850842 23.5 17.0554548 26.7528092 14.6850842 27.4699044 18.7965718 31.352976 19.5558491 29.1142927 23 31.352976 26.4441509 27.4699044 27.2034282 26.7528092 31.3149158"></polygon>
            <g id="Group" transform="translate(23.095480, 22.897610) rotate(133.000000) translate(-23.095480, -22.897610) translate(19.595480, -0.102390)" stroke-linecap="round">
                <line x1="3.64" y1="45.6891892" x2="3.64" y2="0.310810811" id="Line-19"></line>
                <line x1="0.504722017" y1="3.62200527" x2="3.30472202" y2="7.351735" id="Line-20"></line>
                <line x1="3.86472202" y1="3.62200527" x2="6.66472202" y2="7.351735" id="Line-20" transform="translate(5.264722, 5.486870) scale(-1, 1) translate(-5.264722, -5.486870) "></line>
                <line x1="0.642916974" y1="37.7696948" x2="3.44291697" y2="41.4994245" id="Line-20" transform="translate(2.042917, 39.634560) scale(1, -1) translate(-2.042917, -39.634560) "></line>
                <line x1="4.00291697" y1="37.7696948" x2="6.80291697" y2="41.4994245" id="Line-20" transform="translate(5.402917, 39.634560) scale(-1, -1) translate(-5.402917, -39.634560) "></line>
            </g>
            <g id="Group" transform="translate(23.500000, 23.000000) rotate(180.000000) translate(-23.500000, -23.000000) translate(20.000000, 0.000000)" stroke-linecap="round">
                <line x1="3.5" y1="45.6891892" x2="3.5" y2="0.310810811" id="Line-19"></line>
                <line x1="0.485309632" y1="3.62200527" x2="3.17761732" y2="7.351735" id="Line-20"></line>
                <line x1="3.71607886" y1="3.62200527" x2="6.40838656" y2="7.351735" id="Line-20" transform="translate(5.062233, 5.486870) scale(-1, 1) translate(-5.062233, -5.486870) "></line>
                <line x1="0.618189398" y1="37.7696948" x2="3.31049709" y2="41.4994245" id="Line-20" transform="translate(1.964343, 39.634560) scale(1, -1) translate(-1.964343, -39.634560) "></line>
                <line x1="3.84895863" y1="37.7696948" x2="6.54126632" y2="41.4994245" id="Line-20" transform="translate(5.195112, 39.634560) scale(-1, -1) translate(-5.195112, -39.634560) "></line>
            </g>
            <g id="Group" transform="translate(23.500000, 23.000000) rotate(270.000000) translate(-23.500000, -23.000000) translate(20.000000, -0.000000)" stroke-linecap="round">
                <line x1="3.5" y1="45.6891892" x2="3.5" y2="0.310810811" id="Line-19"></line>
                <line x1="0.485309632" y1="3.62200527" x2="3.17761732" y2="7.351735" id="Line-20"></line>
                <line x1="3.71607886" y1="3.62200527" x2="6.40838656" y2="7.351735" id="Line-20" transform="translate(5.062233, 5.486870) scale(-1, 1) translate(-5.062233, -5.486870) "></line>
                <line x1="0.618189398" y1="37.7696948" x2="3.31049709" y2="41.4994245" id="Line-20" transform="translate(1.964343, 39.634560) scale(1, -1) translate(-1.964343, -39.634560) "></line>
                <line x1="3.84895863" y1="37.7696948" x2="6.54126632" y2="41.4994245" id="Line-20" transform="translate(5.195112, 39.634560) scale(-1, -1) translate(-5.195112, -39.634560) "></line>
            </g>
            <g id="Group" transform="translate(23.098995, 23.098995) rotate(225.000000) translate(-23.098995, -23.098995) translate(19.598995, 0.098995)" stroke-linecap="round">
                <line x1="3.64" y1="45.6891892" x2="3.64" y2="0.310810811" id="Line-19"></line>
                <line x1="0.504722017" y1="3.62200527" x2="3.30472202" y2="7.351735" id="Line-20"></line>
                <line x1="3.86472202" y1="3.62200527" x2="6.66472202" y2="7.351735" id="Line-20" transform="translate(5.264722, 5.486870) scale(-1, 1) translate(-5.264722, -5.486870) "></line>
                <line x1="0.642916974" y1="37.7696948" x2="3.44291697" y2="41.4994245" id="Line-20" transform="translate(2.042917, 39.634560) scale(1, -1) translate(-2.042917, -39.634560) "></line>
                <line x1="4.00291697" y1="37.7696948" x2="6.80291697" y2="41.4994245" id="Line-20" transform="translate(5.402917, 39.634560) scale(-1, -1) translate(-5.402917, -39.634560) "></line>
            </g>
        </g>
        <g id="Group-3" transform="translate(291.133149, 45.983254)">
            <path d="M142.980987,139.016746 C146.095072,135.731312 147.865433,133.133491 148.292069,131.223284 C153.284716,108.869381 153.441192,97.9045166 152.512865,85.3769893 C150.159897,53.6243051 124.213199,39.4266656 107.173802,34.6369746 C81.1393313,27.3188125 60.0129279,39.1618927 46.9810305,56.1169912 C39.1244698,66.3387384 29.433553,81.3053873 17.9082801,101.016938 L142.980987,139.016746 Z" id="Oval" stroke="#5563B6" stroke-width="4" fill="#FFFFFF"></path>
            <g id="Group-2" transform="translate(28.201804, 67.707326)" stroke="#89C3EA" stroke-linecap="round" stroke-linejoin="round" stroke-width="4">
                <polyline id="Line" transform="translate(65.437943, 22.892017) rotate(3.000000) translate(-65.437943, -22.892017) " points="8.54564945 10.6847763 17.0430824 3.89201731 17.0430824 13.8672331 26.1650469 6.90310585 31.9879059 20.0041449 43.1223842 10.6847763 48.4576624 24.4411977 61.3262891 16.2684113 68.9550968 28.9280561 79.8221629 21.2413317 85.7806661 34.6159977 99.1939993 24.4411977 101.575985 38.2341752 110.580899 28.9280561 115.214063 41.8920173 122.330237 33.2290943"></polyline>
            </g>
            <path d="M142.980987,139.016746 C146.095072,135.731312 147.865433,133.133491 148.292069,131.223284 C153.284716,108.869381 153.441192,97.9045166 152.512865,85.3769893 C150.159897,53.6243051 124.213199,39.4266656 107.173802,34.6369746 C81.1393313,27.3188125 60.0129279,39.1618927 46.9810305,56.1169912 C39.1244698,66.3387384 29.433553,81.3053873 17.9082801,101.016938 L142.980987,139.016746 Z" id="Oval" stroke="#5563B6" stroke-width="4"></path>
            <path d="M117.366851,39.0167465 C128.136403,39.0167465 136.782702,33.5972173 136.782702,23.1038071 C136.782702,12.6103968 130.555397,-3.80140364e-13 119.785844,-3.80140364e-13 C109.016292,-3.80140364e-13 98.2522084,12.6103968 98.2522084,23.1038071 C98.2522084,33.5972173 106.597298,39.0167465 117.366851,39.0167465 Z" id="Oval" stroke="#5563B6" stroke-width="5" fill="#FFFFFF"></path>
            <path d="M19.0282085,96.2344728 C30.4645296,98.0477526 45.0140575,101.685494 62.676792,107.147696 C81.5033472,112.96981 110.455257,122.902191 149.532522,136.94484 L149.532521,136.944843 C151.281045,137.573185 152.366695,139.322814 152.153324,141.168518 C148.822422,169.981517 145.764976,185.637067 142.980987,188.135168 C138.65519,192.016746 129.918073,188.385168 113.728728,184.885168 C107.508403,183.540386 92.0343882,175.709048 67.9046126,167.029207 C57.2812774,163.207834 36.2747112,156.302691 4.88491407,146.313776 L4.88491217,146.313782 C2.03547003,145.407028 0.2886287,142.540563 0.788903306,139.592471 C1.70968998,134.166322 2.82820143,129.428836 4.14443764,125.380013 C5.74740314,120.449192 9.2714385,111.532483 14.7165437,98.6298876 L14.7165351,98.629884 C15.4318602,96.9348662 17.211131,95.9463671 19.0282085,96.2344728 Z" id="Rectangle" stroke="#5563B6" stroke-width="5" fill="#FFFFFF"></path>
            <path d="M1.90171316,145.700957 C-2.52680747,142.828144 26.0182515,146.49513 37.7474533,148.766746 C68.8066469,154.78204 99.6040578,164.068157 110.994333,168.636629 C134.531885,178.077196 144.774371,186.503589 141.980987,190.135168 C139.187602,193.766746 122.436553,189.704124 112.728728,186.885168 C99.0768923,182.92095 89.1266427,173.738692 71.1291473,170.421687 C28.2383018,162.516746 6.33023379,148.57377 1.90171316,145.700957 Z" id="Rectangle" stroke="#5563B6" stroke-width="2" fill="#5563B6"></path>
            <path d="M139.217566,167.756294 C139.374201,167.884508 139.474894,167.983431 139.509636,168.014931 C139.511992,168.02101 139.509048,168.009405 139.509636,168.014931 C139.509636,168.016037 139.510225,168.014379 139.510225,168.014379 C135.706834,166.083443 133.117654,167.552922 130.178108,167.206414 C130.137477,167.194809 130.091547,167.185414 130.039139,167.177677 C129.973776,167.168835 129.907236,167.156124 129.842463,167.141202 C129.068123,166.95883 128.342069,166.347054 127.691388,165.471114 C127.687855,165.466693 127.684911,165.462272 127.681378,165.457298 C127.626026,165.385455 127.573618,165.309743 127.52121,165.234583 C127.52121,165.234583 127.520621,165.232373 127.518855,165.23182 C127.423461,165.092554 127.328656,164.944998 127.235617,164.795232 C127.226196,164.779758 127.215596,164.764836 127.206175,164.749362 C127.182032,164.706809 127.1573,164.664255 127.131979,164.622807 C127.10607,164.579148 127.080161,164.536595 127.055429,164.494041 C127.030697,164.449277 127.006554,164.406171 126.983,164.363065 C126.957091,164.317748 126.932948,164.272984 126.907627,164.227667 C126.89055,164.197272 126.873474,164.164113 126.855808,164.130955 C126.199828,162.897455 125.666917,161.415818 125.28593,159.939156 C125.28593,159.939156 125.277098,159.924787 125.28593,159.939156 C126.715073,160.670303 128.201923,161.271026 129.456765,161.602612 C130.968347,162.003278 132.860915,162.171282 134.67811,162.091148 C135.234575,160.46693 135.556088,158.710077 135.540189,157.235625 C135.525468,156.002678 135.30406,154.510541 134.917773,153.016746 C135.036132,153.076985 135.153314,153.139433 135.271673,153.200777 C135.305826,153.219567 135.340568,153.238909 135.375899,153.258252 C135.459516,153.303016 135.543133,153.347227 135.625572,153.394754 C135.663848,153.41465 135.702712,153.436755 135.740398,153.458308 C135.824015,153.505283 135.905866,153.551705 135.988305,153.599232 C136.021281,153.618575 136.055434,153.637917 136.088998,153.656707 C136.192636,153.718051 136.295685,153.778841 136.397557,153.840738 C136.408156,153.846264 136.418755,153.852343 136.428177,153.858975 C136.547125,153.92916 136.664306,154.002662 136.780899,154.075611 C136.790321,154.080585 136.798564,154.087216 136.807986,154.092743 C136.91339,154.15906 137.015262,154.224825 137.118311,154.291694 C137.140098,154.304958 137.160119,154.319879 137.181318,154.33259 C137.274945,154.393933 137.367395,154.456382 137.460433,154.518831 C137.47751,154.531542 137.494587,154.544252 137.51343,154.556411 C137.620012,154.629359 137.725417,154.702308 137.829054,154.776363 C137.829054,154.776363 137.830232,154.777468 137.83141,154.777468 C138.161755,155.015657 138.47738,155.257162 138.774161,155.501983 C138.778283,155.504746 138.781816,155.508062 138.785938,155.510273 C139.279395,155.921439 139.717501,156.340343 140.077878,156.758141 C140.130286,156.819485 140.180927,156.880828 140.229802,156.941619 C140.231568,156.944382 140.234512,156.945487 140.23569,156.947698 L140.23569,156.948803 C140.281032,157.004067 140.324607,157.059884 140.365237,157.114043 L140.365826,157.115701 C140.367593,157.117359 140.368771,157.120123 140.369948,157.12178 C140.41529,157.180913 140.458865,157.240046 140.498907,157.299732 L140.499496,157.299732 C140.504795,157.308021 140.508917,157.315206 140.514806,157.324048 C140.515395,157.325153 140.516572,157.324601 140.516572,157.325706 C140.569569,157.401971 140.619621,157.479341 140.665552,157.553947 C140.672618,157.567764 140.679684,157.579922 140.687339,157.591527 C140.690283,157.595948 140.69205,157.600922 140.696761,157.605896 C140.747402,157.692108 140.795099,157.778321 140.837496,157.865638 C140.868705,157.925324 140.895793,157.985562 140.922291,158.0458 C140.93289,158.071774 140.942312,158.096643 140.952322,158.121512 C140.967633,158.159092 140.980587,158.195566 140.995309,158.233146 C141.00473,158.259673 141.012385,158.286752 141.021218,158.31549 C141.032995,158.349201 141.043005,158.38457 141.053016,158.418834 C141.060671,158.445914 141.067148,158.472441 141.073037,158.500625 C141.08187,158.534889 141.089525,158.569153 141.096591,158.60397 C141.101302,158.629944 141.105424,158.657576 141.110135,158.684103 C141.115434,158.719472 141.118967,158.755946 141.124267,158.79021 C141.127211,158.815079 141.128978,158.839948 141.130744,158.863712 C141.1331,158.903502 141.133689,158.942187 141.134277,158.983083 C141.134277,159.000767 141.134866,159.021768 141.134277,159.041663 C141.133689,159.101349 141.128978,159.159929 141.121912,159.217404 C141.11779,159.257194 141.115434,159.291458 141.115434,159.323511 C140.716782,162.084517 138.535676,164.07569 139.509636,168.014931" id="Fill-583" fill="#9452BA" transform="translate(133.208272, 160.516746) rotate(17.000000) translate(-133.208272, -160.516746) "></path>
            <g id="Group-4" transform="translate(47.372272, 55.161674)" fill="#5563B6" stroke="#5563B6">
                <path d="M4,8 C5.37398009,8.5651621 6,6.43299662 6,4.5 C6,2.56700338 5.1045695,1 4,1 C2.8954305,1 2,2.56700338 2,4.5 C2,6.43299662 2.62601991,7.4348379 4,8 Z" id="Oval" transform="translate(4.000000, 4.546230) rotate(32.000000) translate(-4.000000, -4.546230) "></path>
                <path d="M17.5158609,13.7628909 C18.6204304,13.7628909 19.6823006,12.8994612 19.6823006,11.2426069 C19.6823006,9.58575265 18.6204304,7.76289087 17.5158609,7.76289087 C16.4112914,7.76289087 14.9288552,10.0235414 14.9288552,11.6803956 C14.9288552,13.3372499 16.4112914,13.7628909 17.5158609,13.7628909 Z" id="Oval" transform="translate(17.305578, 10.762891) rotate(26.000000) translate(-17.305578, -10.762891) "></path>
                <path d="M33.2298752,20.0358999 C34.7674115,20.0358999 36.2883027,17.7915617 36.2883027,16.4108498 C36.2883027,15.0301379 34.6553777,13.8158422 33.8269506,13.8158422 C32.9985234,13.8158422 31.4945452,15.974361 31.4945452,17.3550729 C31.4945452,18.7357847 31.6923388,20.0358999 33.2298752,20.0358999 Z" id="Oval"></path>
                <path d="M84.9598784,33.9198638 C86.2428272,33.9198638 87.5118869,31.6755256 87.5118869,30.2948137 C87.5118869,28.9141018 86.1493441,27.6998061 85.4580891,27.6998061 C84.7668342,27.6998061 83.5118869,29.8583249 83.5118869,31.2390367 C83.5118869,32.6197486 83.6769296,33.9198638 84.9598784,33.9198638 Z" id="Oval" transform="translate(85.511887, 30.809835) rotate(4.000000) translate(-85.511887, -30.809835) "></path>
                <path d="M69.3036712,30.4313993 C70.8412075,30.4313993 72.5702717,28.3799888 72.5702717,26.999277 C72.5702717,25.6185651 72.1307705,23.3018223 69.7772808,23.7769075 C67.4237911,24.2519928 66.9023884,25.9702822 66.9023884,27.350994 C66.9023884,28.7317059 67.7661348,30.4313993 69.3036712,30.4313993 Z" id="Oval" transform="translate(69.736330, 27.072578) rotate(17.000000) translate(-69.736330, -27.072578) "></path>
                <path d="M50.5583663,26.0975831 C52.0959026,26.0975831 53.9833907,24.6905578 54.1523791,22.6095602 C54.3213674,20.5285625 52.8074061,19.2764869 51.5349742,19.5271186 C50.2625424,19.7777504 48.8230363,22.0360441 48.8230363,23.416756 C48.8230363,24.7974679 49.0208299,26.0975831 50.5583663,26.0975831 Z" id="Oval" transform="translate(51.494198, 22.796474) rotate(188.000000) translate(-51.494198, -22.796474) "></path>
                <path d="M98.5557078,38.5408028 C99.8386566,38.5408028 101.107716,36.3758664 101.107716,35.0440023 C101.107716,33.7121383 99.7451734,32.5408028 99.0539185,32.5408028 C98.3626636,32.5408028 97.1077163,34.6229559 97.1077163,35.95482 C97.1077163,37.286684 97.272759,38.5408028 98.5557078,38.5408028 Z" id="Oval" transform="translate(99.107716, 35.540803) rotate(1.000000) translate(-99.107716, -35.540803) "></path>
            </g>
            <path d="M118.416465,8.45209955 C113.847816,10.7395894 110.905138,12.7611384 109.588432,14.5167465 C108.271726,16.2723545 107.399269,19.5864291 106.971062,24.4589704" id="Line-10" stroke="#E1F2FF" stroke-width="4" stroke-linecap="round"></path>
            <path d="M98.4164655,40.4520995 C94.5506172,42.9372108 91.8123966,45.1120329 90.2018038,46.9765658 C88.591211,48.8410986 86.6627649,52.3329432 84.4164655,57.4520995" id="Line-10" stroke="#E1F2FF" stroke-width="4" stroke-linecap="round"></path>
            <path d="M82.4164655,36.4520995 C78.5506172,38.9372108 75.8123966,41.1120329 74.2018038,42.9765658 C72.591211,44.8410986 70.6627649,48.3329432 68.4164655,53.4520995" id="Line-10" stroke="#E1F2FF" stroke-width="4" stroke-linecap="round" transform="translate(75.416465, 44.952100) rotate(24.000000) translate(-75.416465, -44.952100) "></path>
            <path d="M124.416465,48.4520995 C120.550617,50.9372108 117.812397,53.1120329 116.201804,54.9765658 C114.591211,56.8410986 112.662765,60.3329432 110.416465,65.4520995" id="Line-10" stroke="#E1F2FF" stroke-width="4" stroke-linecap="round" transform="translate(117.416465, 56.952100) scale(-1, 1) rotate(-42.000000) translate(-117.416465, -56.952100) "></path>
            <path d="M141.416465,57.4520995 C137.550617,59.9372108 134.812397,62.1120329 133.201804,63.9765658 C131.591211,65.8410986 129.662765,69.3329432 127.416465,74.4520995" id="Line-10" stroke="#E1F2FF" stroke-width="4" stroke-linecap="round" transform="translate(134.416465, 65.952100) scale(-1, 1) rotate(-26.000000) translate(-134.416465, -65.952100) "></path>
            <path d="M136.782702,142.791864 C107.51674,131.385536 84.8151229,122.998869 68.6778496,117.631862 C52.5405764,112.264856 36.5153561,107.771578 20.6021889,104.15203 C16.6560022,112.984398 13.9805356,119.923157 12.575789,124.968308" id="Line-11" stroke="#E1F2FF" stroke-width="3" stroke-linecap="round" stroke-linejoin="round"></path>
        </g>
    </g>
</svg>