<svg width="487" height="274" xmlns="http://www.w3.org/2000/svg">
  <g fill="none" fill-rule="evenodd">
    <g stroke-linecap="round">
      <path stroke="#ACD3EF" stroke-width="3" d="M229.75 24.316v11.368M224.324 30.25h10.352"/>
      <path stroke="#5563B6" stroke-width="2" d="M340 29.868v7M336.176 33.118h7M284 76.868v7M280.176 80.118h7"/>
      <path stroke="#ACD3EF" stroke-width="3" d="M458.75 37.316v11.368M453.324 43.25h10.352M298.75 190.316v11.368M293.324 196.25h10.352"/>
      <path stroke="#5563B6" stroke-width="2" d="M369.5 201.5v7M365.676 204.75h7M209 227.868v7M205.176 231.118h7M427 243.868v7M423.176 247.118h7"/>
      <path stroke="#ACD3EF" stroke-width="3" d="M405.75 153.316v11.368M400.324 159.25h10.352"/>
    </g>
    <path d="M82.215 212.496c-.073.13-.131.215-.15.244-.004.002.004-.001 0 0 .911-2.992-.48-4.675-.604-6.842a.796.796 0 0 0 .003-.104 1.609 1.609 0 0 1 .001-.147c.033-.582.383-1.185.933-1.766l.008-.01c.045-.048.093-.096.14-.143 0 0 .002 0 .002-.002.089-.087.183-.174.28-.26l.029-.027a3.34 3.34 0 0 0 .082-.07l.083-.072.086-.069.088-.071.063-.05c.807-.631 1.81-1.205 2.827-1.668 0 0 .01-.008 0 0-.346 1.125-.59 2.276-.67 3.224-.097 1.143.023 2.531.312 3.833 1.244.195 2.554.204 3.617.005.888-.168 1.938-.518 2.967-.987-.028.093-.058.186-.088.279l-.028.082c-.022.066-.043.133-.067.198l-.03.091a18.714 18.714 0 0 1-.1.277c-.03.083-.062.165-.093.246a.2.2 0 0 1-.01.025c-.035.095-.073.189-.111.282l-.01.022-.103.25-.022.05-.099.225-.02.043-.119.256v.002c-.13.27-.265.528-.404.773l-.004.01c-.234.409-.48.778-.737 1.092-.037.045-.075.09-.113.133l-.004.005c-.034.04-.07.078-.103.115h-.001l-.004.004c-.037.04-.074.08-.112.116l-.016.014v.002a3.624 3.624 0 0 1-.171.157l-.01.009a2.745 2.745 0 0 1-.288.219l-.051.03c-.025.017-.05.03-.075.046l-.056.03-.07.036a1.489 1.489 0 0 1-.128.055l-.057.02-.075.023c-.018.006-.035.01-.052.014a1.939 1.939 0 0 1-.086.018l-.042.008a1.148 1.148 0 0 1-.129.013.756.756 0 0 0-.077.009c-2.045.063-3.76-1.258-6.482-.053" fill="#9452BA"/>
    <path d="M227.388 151.819c5.113-3.722 10.452-9.654 10.283-16.115-.257-9.822-13.367-16.459-19.567-16.398-4.863.047-4.912 2.513-4.864 6.962.021 1.936.048 6.241.076 10.78l.005.91.003.457.006.913c.036 5.773.075 11.349.107 12.386l.01.262c.18 4.293 1.615 8.815 13.941-.157Zm-7.205-4.292v-.064c-.005-.604-.042-5.403-.074-10.5l-.005-.712-.008-1.427-.004-.71c-.015-2.477-.026-4.852-.03-6.671 3.734.42 10.228 3.289 10.055 9.321-.146 5.05-9.934 10.763-9.934 10.763ZM248.056 157c4.206-.054 10.165-.706 14.83-1.78 1.469-.338 3.216-1.738 3.06-4.085-.19-2.833-2.402-3.659-3.653-3.627-3.655.093-13.684 1.439-13.684 1.439l-.168-7.252s3.09-.186 6.132-.503l.552-.059c1.467-.162 2.877-.353 3.874-.57 3.908-.847 3.348-7.454-2.027-7.41-2.555.022-8.387.353-8.387.353l-.134-5.025h.036c.628-.01 9.468-.144 12.327-.343 2.408-.167 5.132-1.353 4.672-4.646-.378-2.7-3.521-3.282-6.034-3.322-2.817-.044-9.882-.306-14.316.347-1.477.218-3.552 2.237-3.61 4.595l-.105 21.779c.271 6.82.037 10.193 6.635 10.109Zm42.258-.062c3.995-.371 6.07-1.845 5.747-4.765-.321-2.904-2.677-3.966-5.123-3.452-1.776.373-4.59.928-7.355-.684-5.77-3.364-5.772-14.33-1.295-18.916 2.97-3.042 5.818-2.172 7.92-1.982 2.424.219 5.233-.645 5.342-3.583.086-2.321-2.21-3.969-4.364-4.156a40.182 40.182 0 0 0-1.189-.086l-.481-.024c-7.326-.319-15.608 1.645-18 14.35-1.029 5.466-.843 11.862 4.067 17.944 3.494 4.328 10.464 5.75 14.731 5.354Zm16.17.062c4.206-.054 10.165-.706 14.83-1.78 1.469-.338 3.216-1.738 3.06-4.085-.19-2.833-2.402-3.659-3.653-3.627-3.655.093-13.684 1.439-13.684 1.439l-.168-7.252s3.09-.186 6.132-.503l.552-.059c1.467-.162 2.877-.353 3.874-.57 3.908-.847 3.348-7.454-2.027-7.41-2.555.022-8.387.353-8.387.353l-.134-5.025h.036c.628-.01 9.468-.144 12.327-.343 2.408-.167 5.132-1.353 4.672-4.646-.378-2.7-3.521-3.282-6.034-3.322-2.817-.044-9.882-.306-14.316.347-1.477.218-3.552 2.237-3.61 4.595l-.105 21.779c.271 6.82.037 10.193 6.635 10.109Zm56.42.001c1.827-.018 3.11-1.462 3.203-3.603.092-2.146.13-4.909.133-7.866v-.94c0-.946-.005-1.907-.01-2.869l-.012-1.443c-.06-6.727-.22-13.219-.243-14.932-.032-2.514.16-6.145-2.773-6.22-2.893-.073-4.727 2.623-6.318 4.441-.738.844-2.302 2.568-3.89 4.306l-.414.453c-2.136 2.338-4.187 4.565-4.187 4.565l-.026-.026-.134-.132-.336-.335-.229-.227c-.66-.656-1.704-1.697-2.86-2.853l-.66-.66-.447-.45-.674-.677c-1.721-1.73-3.387-3.421-4.182-4.272-1.917-2.051-3.124-3.827-5.89-3.994-2.34-.14-3.379 1.859-3.496 4.014-.047.852.005 6.04.074 11.447l.011.903c.066 5.119.141 10.23.156 11.867.031 3.59.516 6.18 3.125 6.158 2.741-.023 3.877-2.171 4.029-4.515.045-.707.065-1.874.068-3.269v-.926c-.015-5.083-.205-12.274-.205-12.274s7.305 8.278 11.728 8.342c4.002.058 8.628-7.075 10.345-8.65.225 2.007.05 20.187.504 21.737.476 1.626 1.554 2.92 3.61 2.9Zm17.635-.147c10.021-.763 17.64-4.535 17.472-13.102-.056-2.882-2.091-8.001-8.568-8.15 0 0 4.994-2.611 3.929-9.065-1.017-6.159-7.218-7.467-11.486-7.29-3.38.139-8.624-.191-10.014 4.142-.92 2.866-.556 24.216-.021 29.035.534 4.815 3.753 4.805 8.688 4.43Zm-1.919-23.79-.142-7.012s7.513-2.319 8.238 1.499c.975 5.14-6.215 4.786-8.096 5.513Zm.109 16.934c-.264-.589-.318-3.231-.322-5.098v-.449c.001-.859.012-1.465.012-1.465s11.022-4.623 12.023 1.025c.592 3.343-8.431 5.933-11.713 5.987Zm29.67 7.002c4.207-.054 10.166-.706 14.831-1.78 1.469-.338 3.216-1.738 3.06-4.085-.19-2.833-2.402-3.659-3.653-3.627-3.655.093-13.684 1.439-13.684 1.439l-.168-7.252s3.09-.186 6.132-.503l.552-.059c1.467-.162 2.877-.353 3.874-.57 3.908-.847 3.348-7.454-2.027-7.41-2.555.022-8.387.353-8.387.353l-.134-5.025h.036c.628-.01 9.468-.144 12.327-.343 2.408-.167 5.132-1.353 4.672-4.646-.378-2.7-3.521-3.282-6.034-3.322-2.817-.044-9.882-.306-14.316.347-1.477.218-3.552 2.237-3.61 4.595l-.105 21.779c.271 6.82.037 10.193 6.635 10.109Zm26.668.001c1.699 0 3.209-1.725 3.402-3.685.377-3.813.076-6.993.175-9.941 3.694 3.164 6.21 5.94 10.78 8.938 2.408 1.58 5.715 3.354 7.738 2.019 3.063-2.023 1.084-4.834-.372-5.982-5.167-4.076-9.793-7.882-9.793-7.882s8.013-3.313 8.114-11.221c.062-4.82-2.419-9.862-13.211-9.819-3.298.013-8.3.254-9.498 1.863-.964 1.293-1.04 8.13-1.037 12.578v.633l.004 1.397V136.78c-.023 4.203-.023 11.24.104 16.086.044 1.694 1.248 4.134 3.594 4.134Zm3.512-21.993-.002-7.65s7.428-2.283 8.502 2.042c1.332 5.365-8.5 5.607-8.5 5.608Z" fill="#5563B6" fill-rule="nonzero"/>
    <ellipse stroke="#5563B6" stroke-width="5" fill="#FFF" cx="144" cy="116.5" rx="48" ry="47.5"/>
    <path fill="#5563B6" d="m128.009 135.947-2.64 2.422-.366-3.31-3.178-1.451 3.316-1.514.675-3.32 2.417 2.375 3.596-.6-1.823 2.981 1.546 2.95zM147.874 129.303l-2.356 3.213-1.117-3.825-3.783-1.249 3.293-2.243.018-3.985 3.152 2.438 3.795-1.213-1.346 3.75 2.327 3.235zM129.276 110.474l-1.752 1.997-.52-2.605-2.44-1.05 2.318-1.298.244-2.645 1.951 1.802 2.59-.585-1.11 2.412 1.357 2.284zM112.043 115.548l-1.982 1.768-.198-2.65-2.294-1.338 2.459-1.007.563-2.595 1.718 2.027 2.642-.266-1.397 2.26 1.07 2.431zM96.798 116.402l-2.123 1.45.16-2.614.465-2.268.88-2.455 1.371 2.218 2.556.11-1.63 2.012.7 2.524zM146.467 103.39l-1.533 2.168-.789-2.537-2.536-.788 2.169-1.534-.035-2.656 2.13 1.589 2.514-.853-.853 2.515 1.59 2.129zM161.706 93.245l-1.216 2.361-1.134-2.402-2.622-.428 1.935-1.82-.404-2.626 2.33 1.277 2.371-1.194-.494 2.61 1.87 1.886zM173.565 82.248l-1.155 2.297-1.128-2.365-2.549-.448 1.857-1.76-.421-2.575 2.274 1.277 1.838 1.407 1.837 1.868zM107.583 140.037l-3.02 1.928.214-3.323-2.878-1.982 3.529-.915 1.24-3.152 1.968 2.758 3.646.034-2.313 2.62 1.01 3.172zM166.748 118.579l-1.707 3.15-1.424-3.01-3.478-.339 2.643-2.51-.443-3.359 3.058 1.458 3.205-1.737-.753 3.412 2.422 2.284zM180.688 106.392l-.987 2.82-1.639-2.498-2.988-.066 1.87-2.33-.86-2.862 2.794 1.057 2.456-1.702-.142 2.985 2.378 1.809z"/>
    <path d="M101.5 99.5c14.219-2.411 24.811-5.184 31.778-8.32 6.966-3.134 15.342-8.994 25.128-17.58M97.5 107.5c18.267-2.753 31.685-6.005 40.255-9.757 8.57-3.752 18.484-10.833 29.745-21.243M98.5 122.5c13.342-.622 27.845-4.61 43.51-11.966 15.665-7.356 27.828-16.367 36.49-27.034M107.5 145.5c13.676-.654 28.542-4.847 44.598-12.58 16.056-7.733 28.523-17.206 37.402-28.42" stroke="#89C3EA" stroke-width="3" stroke-linecap="round"/>
    <path d="M110.5 151.5c13.541 0 28.144-3.679 43.809-11.035 15.664-7.355 28.228-16.696 37.691-28.022" stroke="#89C3EA" stroke-width="3" stroke-linecap="round"/>
    <circle fill="#89C3EA" cx="122" cy="147" r="1"/>
    <circle fill="#89C3EA" cx="114" cy="148" r="1"/>
    <circle fill="#89C3EA" cx="102" cy="126" r="1"/>
    <circle fill="#89C3EA" cx="110" cy="125" r="1"/>
    <circle fill="#89C3EA" cx="119" cy="123" r="1"/>
    <circle fill="#89C3EA" cx="129" cy="120" r="1"/>
    <circle fill="#89C3EA" cx="139" cy="116" r="1"/>
    <circle fill="#89C3EA" cx="139" cy="93" r="1"/>
    <circle fill="#89C3EA" cx="129" cy="97" r="1"/>
    <circle fill="#89C3EA" cx="118" cy="100" r="1"/>
    <circle fill="#89C3EA" cx="108" cy="102" r="1"/>
    <circle fill="#89C3EA" cx="100" cy="103" r="1"/>
    <circle fill="#89C3EA" cx="148" cy="87" r="1"/>
    <circle fill="#89C3EA" cx="156" cy="81" r="1"/>
    <circle fill="#89C3EA" cx="162" cy="75" r="1"/>
    <circle fill="#89C3EA" cx="150" cy="111" r="1"/>
    <circle fill="#89C3EA" cx="160" cy="105" r="1"/>
    <circle fill="#89C3EA" cx="169" cy="98" r="1"/>
    <circle fill="#89C3EA" cx="177" cy="91" r="1"/>
    <circle fill="#89C3EA" cx="130" cy="145" r="1"/>
    <circle fill="#89C3EA" cx="137" cy="143" r="1"/>
    <circle fill="#89C3EA" cx="145" cy="140" r="1"/>
    <circle fill="#89C3EA" cx="152" cy="137" r="1"/>
    <circle fill="#89C3EA" cx="181" cy="119" r="1"/>
    <circle fill="#89C3EA" cx="187" cy="113" r="1"/>
    <circle fill="#89C3EA" cx="160" cy="133" r="1"/>
    <circle fill="#89C3EA" cx="167" cy="129" r="1"/>
    <circle fill="#89C3EA" cx="174" cy="124" r="1"/>
    <path d="M98.5 130.794c14.667-1.134 29.833-5.3 45.5-12.498 15.667-7.197 28.747-16.86 39.24-28.986" stroke="#89C3EA" stroke-width="3" stroke-linecap="round"/>
    <ellipse stroke="#5563B6" stroke-width="5" cx="144" cy="116.5" rx="48" ry="47.5"/>
    <g transform="rotate(-20 348.359 46.445)" stroke="#5563B6">
      <ellipse stroke-width="5" fill="#FFF" transform="rotate(5 53.713 67.61)" cx="53.713" cy="67.61" rx="49.5" ry="50.5"/>
      <path d="M59.836 23.954c2.436 2.802 3.947-2.277 5.71-2.288 1.245-.007-2.59 5.565 1.31 7.107 3.9 1.542 4.437-3.921 5.855-3.408 1.055.381-.549 3.368-.027 4.512.798 1.751 3.504 1.693 4.294 1.007 3.335-2.899 4.288-9.245 2.734-14.064-2.473-2.845-6.163-5.377-11.372-5.01-3.828 2.202-11.584 8.601-8.504 12.144Z" stroke-width="4" fill="#FFF" stroke-linejoin="round"/>
      <path d="M69.35 9.622c1.87-6.13 5.054-8.221 9.554-6.271 4.5 1.95 4.707 5.397.62 10.343" stroke-width="5" stroke-linecap="round"/>
    </g>
    <path d="M121.278 82.391c3.713 0 .871-4.473 2.02-5.81.811-.945 2.501 5.605 6.223 3.673 3.722-1.931-.049-5.92 1.27-6.655.979-.545 2.181 2.625 3.387 2.981 1.845.547 3.577-1.534 3.577-2.58 0-4.418-3.577-7.204-8.234-9.192-3.77 0-9.485 2.095-12.625 6.267-.85 4.333-.312 11.316 4.382 11.316Z" stroke="#5563B6" stroke-width="4" fill="#FFF" stroke-linejoin="round"/>
    <path d="M117.5 68.5c-3.495-5.373-3.05-9.156 1.337-11.35 4.386-2.194 7.16-.136 8.321 6.174" stroke="#5563B6" stroke-width="5" stroke-linecap="round"/>
    <path d="M31.099 154.045c21.708 5.522 37.944 8.434 48.709 8.736 9.748.274 24.211.037 42.192-3.346 1.25-.235 2.969-1.047 5.158-2.435v25.074c-20.955 3.75-36.825 5.444-47.609 5.081-10.784-.363-26.934-3.502-48.45-9.417v-23.693Z" fill="#5563B6"/>
    <path stroke="#FFF" stroke-width="4" stroke-linecap="round" stroke-linejoin="round" d="m32.278 167.108 8.834-4.102L54.96 177.7l21.54-10.592 17.429 14.966L113 166l11.563 9.017"/>
    <path d="M102.116 203.689c.078.126.125.219.141.249 0 .005.001-.004 0 0-2.176-2.247-4.322-1.847-6.277-2.789a.796.796 0 0 0-.09-.053 1.609 1.609 0 0 1-.127-.072c-.494-.311-.851-.909-1.093-1.672l-.004-.012c-.021-.063-.04-.128-.058-.192v-.003a8.608 8.608 0 0 1-.093-.37l-.01-.039a3.34 3.34 0 0 0-.02-.105l-.023-.108-.019-.108-.02-.112-.012-.08c-.16-1.011-.177-2.166-.088-3.28 0 0-.003-.013 0 0 .816.847 1.704 1.619 2.495 2.149.952.638 2.224 1.207 3.503 1.585.774-.993 1.416-2.135 1.757-3.161.285-.858.487-1.946.576-3.074.068.07.134.141.201.212l.059.065c.047.05.095.102.14.154l.065.072a18.723 18.723 0 0 1 .194.22l.17.202a.2.2 0 0 1 .017.02c.066.077.13.156.193.234l.015.018.167.212.034.044.15.196a13.965 13.965 0 0 1 .195.268c.172.244.333.486.48.727l.007.009c.244.402.448.798.598 1.173.021.055.042.11.061.164 0 .002.003.004.003.005v.001c.018.05.035.098.05.146l.001.006c.018.052.034.103.047.154l.006.02v.003a3.625 3.625 0 0 1 .055.225l.003.012a2.745 2.745 0 0 1 .052.359l.003.06.003.087-.002.063-.003.08a1.488 1.488 0 0 1-.014.139l-.01.058c-.004.026-.01.052-.015.077l-.013.053a1.94 1.94 0 0 1-.026.083l-.014.04c-.015.042-.032.082-.05.12a.756.756 0 0 0-.03.072c-.936 1.819-2.924 2.679-3.189 5.643" fill="#9452BA"/>
    <path d="M42.5 147.5c2.594-4.933 4.924-8.433 6.99-10.5 2.068-2.067 5.737-4.567 11.01-7.5M165.278 149c1.815-.982 4.278-2.648 7.389-5 3.111-2.352 5.889-5.833 8.333-10.444" stroke="#E1F2FF" stroke-width="3" stroke-linecap="round"/>
  </g>
</svg>
