<svg width="487" height="274" xmlns="http://www.w3.org/2000/svg">
  <g fill="none" fill-rule="evenodd">
    <g stroke-linecap="round">
      <path stroke="#ACD3EF" stroke-width="3" d="M434.25 24.316v11.368M439.676 30.25h-10.352"/>
      <path stroke="#5563B6" stroke-width="2" d="M324 29.868v7M327.824 33.118h-7M380 76.868v7M383.824 80.118h-7"/>
      <path stroke="#ACD3EF" stroke-width="3" d="M205.25 37.316v11.368M210.676 43.25h-10.352M365.25 190.316v11.368M370.676 196.25h-10.352"/>
      <path stroke="#5563B6" stroke-width="2" d="M294.5 201.5v7M298.324 204.75h-7M455 227.868v7M458.824 231.118h-7M237 243.868v7M240.824 247.118h-7"/>
      <path stroke="#ACD3EF" stroke-width="3" d="M258.25 153.316v11.368M263.676 159.25h-10.352"/>
    </g>
    <path d="M279.996 152c1.827-.018 3.11-1.462 3.203-3.603.092-2.147.13-4.909.133-7.866v-.94c0-.946-.005-1.907-.01-2.869l-.012-1.443c-.06-6.727-.22-13.219-.243-14.932-.032-2.514.16-6.145-2.773-6.22-2.893-.073-4.727 2.623-6.318 4.441-.738.844-2.302 2.568-3.89 4.306l-.414.453-.411.45c-1.981 2.166-3.776 4.115-3.776 4.115l-.026-.026-.134-.132-.336-.335-.229-.227c-.66-.656-1.704-1.697-2.86-2.853l-.66-.66-.447-.45-.674-.677c-1.721-1.73-3.387-3.421-4.182-4.272-1.917-2.051-3.124-3.827-5.89-3.994-2.34-.14-3.379 1.859-3.496 4.014-.047.852.005 6.04.074 11.447l.011.903c.066 5.119.141 10.23.156 11.867.031 3.59.516 6.18 3.125 6.158 2.741-.023 3.877-2.171 4.029-4.515.045-.707.065-1.874.068-3.269v-.926c-.015-5.083-.205-12.274-.205-12.274s7.305 8.278 11.728 8.342c4.002.058 8.628-7.075 10.345-8.65.224 2.007.049 20.187.504 21.737.476 1.626 1.554 2.92 3.61 2.9zm38.649-.38c1.456-.647 2.756-3.36 1.726-5.393-3.776-7.442-5.317-11.489-7.28-15.424-2.39-4.789-6.245-15.37-10.571-15.37-4.692 0-6.618 5.386-8.17 9.805-1.962 5.577-4.217 11.064-6.233 16.78-.806 2.285-1.84 5.555-.117 7.029.762.652 3.057 1.093 4.435-.07 1.726-1.456 3.698-7.36 3.698-7.36l13.588-.15s.879 1.814 1.827 3.746l.475.968c.672 1.364 1.31 2.645 1.626 3.242 1.298 2.45 3.004 3.082 4.996 2.197zm-14.098-17.235h-.837c-1.979-.004-4.084-.024-5.18-.023.825-2.266 3.073-8.628 3.72-10.624.718 1.455 3.9 8.681 4.816 10.623-.673.016-1.56.023-2.52.024zM328.183 152c1.699 0 3.209-1.725 3.402-3.685.377-3.813.076-6.993.175-9.941 3.694 3.164 6.21 5.94 10.78 8.938 2.408 1.58 5.715 3.354 7.738 2.019 3.063-2.023 1.084-4.834-.372-5.982a692.29 692.29 0 01-9.793-7.882s8.013-3.313 8.114-11.221c.062-4.82-2.419-9.862-13.211-9.819-3.298.013-8.3.254-9.498 1.863-.964 1.293-1.04 8.13-1.037 12.578v.633l.004 1.397V131.78c-.023 4.203-.023 11.24.104 16.086.044 1.694 1.248 4.134 3.594 4.134zm3.512-21.993l-.002-7.65s7.428-2.283 8.502 2.042c1.332 5.365-8.5 5.607-8.5 5.608zm43.255 21.93c3.995-.371 6.07-1.845 5.747-4.765-.321-2.904-2.677-3.966-5.123-3.452-1.776.373-4.59.928-7.355-.684-5.77-3.364-5.772-14.33-1.295-18.916 2.97-3.042 5.818-2.172 7.92-1.982 2.424.219 5.233-.645 5.342-3.583.086-2.321-2.21-3.969-4.364-4.156a40.182 40.182 0 00-1.189-.086l-.481-.024c-7.326-.319-15.608 1.645-18 14.35-1.029 5.466-.843 11.862 4.067 17.944 3.494 4.328 10.464 5.75 14.731 5.354zm33.858.063c3.135.02 3.24-5.041 3.248-6.69l.002-.849v-.675c-.003-3.937-.053-11.441-.058-16.93v-1.444c.001-1.692.009-3.104.026-4.03.051-2.805-.002-7.281-4.154-7.132-3.13.113-3.645 4.373-3.616 6.794.007.607.01 1.286.012 1.997v1.087a689.858 689.858 0 01-.057 7.266v.03l-11.566 2.119s-.45-9.326-.6-13.724c-.083-2.401-2.367-4.154-4.326-3.944-2.067.221-3.253 1.623-3.234 4.531.013 1.891.127 7.063.27 12.505l.023.884c.19 7.086.421 14.353.536 15.227.256 1.945 2.144 2.905 3.858 2.926 1.457.017 3.058-1.626 3.305-3.272.271-1.801.333-4.199.338-5.844v-.558c-.003-.81-.018-1.332-.018-1.332s2.543-.416 5.288-.895l.57-.1.285-.05.57-.101c1.893-.339 3.69-.678 4.622-.904.288 2.659.288 6.003.729 9.725.16 1.345 1.195 3.365 3.947 3.383z" fill="#5E63B6" fill-rule="nonzero"/>
    <path d="M73.23 204.346c1.043.317 1.751.597 2.126.841 1.6 1.04 1.74 2.431.715 3.797-.973 1.295-3.194 2.201-6.82 2.247-.746.009-2.667-.144-5.764-.46a.251.251 0 00-.108.487c1.517.528 3.027.399 4.27.86 3.815 1.418 6.133 3.163 6.658 4.109.46.83.676 3.055-.75 4.405-.492.467-1.575.875-3.249 1.227a2 2 0 00-1.37 1.05c-.615 1.204-1.145 1.942-1.59 2.212-1.893 1.147-3.994.16-4.828-1.128-.362-.558-1.043-1.784-1.214-3.752-.1-1.152.286-3.515.437-6.71.034-.72.276-2.291-.073-2.216-.349.075-1.007 1.585-1.237 2.498-.553 2.193-.532 4.292-.967 5.09-1.48 2.715-2.787 3.294-4.09 3.725-.832.274-2.885.257-3.75-.742-.516-.594-.814-1.379-.894-2.353a2 2 0 00-1.244-1.69c-1.328-.536-2.223-1.246-2.685-2.129-.785-1.498.488-3.848 1.66-4.647.621-.423 2.671-1.147 5.712-1.058 1.608.047 3.425.81 5.606.897.259.01.734-.037 1.426-.142-1.071-.852-1.964-1.369-2.677-1.55-1.747-.445-3.77-.424-5.136-.613-1.442-.2-2.195-.607-2.758-.883-1.358-.669-2.06-2.085-2.319-2.552-.318-.574-.322-2.714.721-3.485.486-.358 1.682-.608 3.59-.748a2 2 0 001.72-1.274c.636-1.647 1.137-2.669 1.505-3.066.735-.794 2.56-1.09 2.997-1.101.973-.026 2.164.653 2.784 1.997.565 1.225.755 3.714.635 5.926-.044.796-.143 2.194-.255 3.867-.044.67-.068 1.774-.07 3.314.922-2.002 1.557-3.445 1.905-4.33.565-1.44.41-2.6.636-3.633.221-1.006.826-1.897 1.268-2.59 1.105-1.733 3.57-2.148 5.247-1.201.77.435 1.694 1.713 1.771 3.196.014.264-.051.606-.196 1.026a1 1 0 00.655 1.282zM194.23 67.346c1.043.317 1.751.597 2.126.841 1.6 1.04 1.74 2.431.715 3.797-.973 1.295-3.194 2.201-6.82 2.247-.746.009-2.667-.144-5.764-.46a.251.251 0 00-.108.487c1.517.528 3.027.399 4.27.86 3.815 1.418 6.133 3.163 6.658 4.109.46.83.676 3.055-.75 4.405-.492.467-1.575.875-3.249 1.227a2 2 0 00-1.37 1.05c-.615 1.204-1.145 1.942-1.59 2.212-1.893 1.147-3.994.16-4.828-1.128-.362-.558-1.043-1.784-1.214-3.752-.1-1.152.286-3.515.437-6.71.034-.72.276-2.291-.073-2.216-.349.075-1.007 1.585-1.237 2.498-.553 2.193-.532 4.292-.967 5.09-1.48 2.715-2.787 3.294-4.09 3.725-.832.274-2.885.257-3.75-.742-.516-.594-.814-1.379-.894-2.353a2 2 0 00-1.244-1.69c-1.328-.536-2.223-1.246-2.685-2.129-.785-1.498.488-3.848 1.66-4.647.621-.423 2.671-1.147 5.712-1.058 1.608.047 3.425.81 5.606.897.259.01.734-.037 1.426-.142-1.071-.852-1.964-1.369-2.677-1.55-1.747-.445-3.77-.424-5.136-.613-1.442-.2-2.195-.607-2.758-.883-1.358-.669-2.06-2.085-2.319-2.552-.318-.574-.322-2.714.721-3.485.486-.358 1.682-.608 3.59-.748a2 2 0 001.72-1.274c.636-1.647 1.137-2.669 1.505-3.066.735-.794 2.56-1.09 2.997-1.101.973-.026 2.164.653 2.784 1.997.565 1.225.755 3.714.635 5.926-.044.796-.143 2.194-.255 3.867-.044.67-.068 1.774-.07 3.314.922-2.002 1.557-3.445 1.905-4.33.565-1.44.41-2.6.636-3.633.221-1.006.826-1.897 1.268-2.59 1.105-1.733 3.57-2.148 5.247-1.201.77.435 1.694 1.713 1.771 3.196.014.264-.051.606-.196 1.026a1 1 0 00.655 1.282zM52.038 28.485c1.042.317 1.75.597 2.126.841 1.6 1.04 1.74 2.431.714 3.797-.972 1.295-3.193 2.201-6.82 2.247-.745.009-2.667-.144-5.763-.46a.251.251 0 00-.109.487c1.518.528 3.027.399 4.27.86 3.815 1.418 6.134 3.163 6.658 4.109.46.83.677 3.055-.75 4.405-.492.467-1.575.875-3.248 1.227a2 2 0 00-1.371 1.05c-.614 1.204-1.144 1.942-1.59 2.212-1.893 1.147-3.993.16-4.828-1.128-.361-.558-1.043-1.784-1.213-3.752-.1-1.152.285-3.515.436-6.71.034-.72.276-2.291-.073-2.216-.348.075-1.007 1.585-1.237 2.498-.553 2.193-.53 4.292-.966 5.09-1.48 2.715-2.787 3.294-4.091 3.725-.831.274-2.885.257-3.75-.742-.516-.594-.813-1.379-.894-2.353a2 2 0 00-1.244-1.69c-1.328-.536-2.223-1.246-2.685-2.129-.784-1.498.489-3.848 1.66-4.647.622-.423 2.672-1.147 5.712-1.058 1.609.047 3.425.81 5.606.897.26.01.734-.037 1.426-.142-1.07-.852-1.963-1.369-2.676-1.55-1.747-.445-3.77-.424-5.136-.613-1.443-.2-2.196-.607-2.758-.883-1.359-.669-2.06-2.085-2.32-2.552-.317-.574-.322-2.714.722-3.485.485-.358 1.682-.608 3.59-.748a2 2 0 001.719-1.274c.636-1.647 1.138-2.669 1.505-3.066.736-.794 2.56-1.09 2.997-1.101.974-.026 2.164.653 2.785 1.997.565 1.225.755 3.714.634 5.926-.043.796-.142 2.194-.254 3.867-.045.67-.068 1.774-.07 3.314.922-2.002 1.557-3.445 1.904-4.33.566-1.44.41-2.6.637-3.633.22-1.006.826-1.897 1.268-2.59 1.105-1.733 3.57-2.148 5.246-1.201.77.435 1.694 1.713 1.772 3.196.014.264-.052.606-.196 1.026a1 1 0 00.655 1.282z" fill="#E1F2FF"/>
    <path d="M107.483 125.191c26.714 12.155 45.897 24.948 57.549 38.38 11.035 12.72 22.976 34.841 35.823 66.365a4.356 4.356 0 01-3.579 5.976l-4.104.431a2 2 0 01-2.12-1.397c-9.48-30.616-18.964-52.206-28.45-64.77-9.647-12.777-28.02-27.772-55.119-44.985z" fill="#5563B6"/>
    <path d="M176.453 119.903c5.772 5.672 9.335 9.782 10.687 12.33 4.617 8.7 1.773 15.33-6.275 18.929-7.629 3.411-19.925 1.944-36.405-6.923-3.49-1.878-12.165-7.647-26.026-17.308h0a1 1 0 00-1.506 1.176c.217.57.535 1.089.955 1.558 5.526 6.184 12.665 9.377 17.122 14.574 13.674 15.942 19.775 29.62 19.775 35.204 0 4.893-4.59 15.481-14.408 18.01-3.875.998-11.045-.274-21.512-3.816h0a2 2 0 00-1.812.273c-7.46 5.39-12.773 8.145-15.939 8.267-11.414.441-18.429-9.265-18.971-17.17-.235-3.426-.243-10.666 3.912-19.975 2.432-5.449 10.082-15.153 18.759-29.198 1.954-3.163 6.978-9.653 5.216-10.187-1.761-.534-8.512 4.636-11.835 8.18-7.985 8.519-13.137 18.046-17.098 20.56-13.478 8.554-20.827 7.898-27.79 6.58-4.438-.841-13.666-6.056-15.073-12.732-1.098-5.212.308-10.96 4.218-17.244h0a2 2 0 00-.265-2.452c-7.002-7.196-10.428-13.94-10.278-20.233.209-8.725 11.833-16.15 19.124-16.822 3.862-.357 14.93 1.505 28.43 9.514 7.145 4.238 13.435 12.227 23.062 18.077 1.143.695 3.407 1.67 6.792 2.927-2.703-6.526-5.437-11.091-8.203-13.696-6.772-6.377-15.957-11.342-21.65-15.619-6.01-4.513-8.394-8.23-10.24-10.886-4.46-6.417-6.673-13.18-5.328-18.652 1.346-5.471 6.578-11.728 13.22-12.596 3.603-.472 11.206 2.15 22.808 7.866h0a2 2 0 002.194-.283c9.194-7.97 15.358-12.47 18.49-13.499 5.306-1.744 14.286 1.486 16.285 2.526 4.459 2.32 8.135 8.363 7.572 15.986-.514 6.941-5.885 18.652-11.964 28.335-2.188 3.486-6.132 9.547-10.826 16.822-1.875 2.907-4.744 7.835-8.606 14.784 9.17-6.73 15.648-11.657 19.432-14.784 6.156-5.085 8.35-10.705 11.964-14.805 3.513-3.987 8.474-6.496 12.205-8.52 9.323-5.059 21.49-.763 26.687 7.706 2.389 3.893 3.36 11.974 0 18.862-.93 1.905-3.193 4.183-6.792 6.836h0a1 1 0 00-.107 1.518z" stroke="#5563B6" stroke-width="5" fill="#FFF" stroke-linejoin="round"/>
    <path d="M76.763 75.78c-1.327-2.71-1.749-5.784-1.266-9.222.484-3.439 2.451-5.64 5.904-6.602M42.763 116.78c-1.327-2.71-1.749-5.784-1.266-9.222.484-3.439 2.451-5.64 5.904-6.602M175.954 132.212c2.473 1.535 3.559 4.032 3.256 7.49-.303 3.46-2.734 5.11-7.293 4.951M105.166 191.41c-2.95.631-6.036.297-9.255-1.004-3.22-1.3-4.878-3.742-4.977-7.325" stroke="#E1F2FF" stroke-width="3" stroke-linecap="round"/>
    <path d="M61.959 153.188c.167.114.276.204.313.232.003.006 0-.005 0 0 0 .002 0 0 0 0-3.956-1.592-6.408.097-9.366.008a1.085 1.085 0 00-.141-.016 2.193 2.193 0 01-.2-.02c-.787-.114-1.563-.66-2.288-1.476l-.01-.013c-.062-.066-.121-.137-.18-.207 0 0 0-.003-.002-.003-.108-.13-.215-.27-.32-.41l-.034-.043a4.554 4.554 0 00-.085-.12c-.03-.041-.059-.081-.087-.122l-.084-.124-.087-.128-.06-.092c-.76-1.172-1.42-2.601-1.93-4.039 0 0-.01-.013 0 0 1.488.604 3.022 1.073 4.3 1.294 1.542.267 3.442.27 5.245.031.413-1.666.58-3.444.435-4.912-.122-1.227-.472-2.694-.987-4.148l.368.152.11.048c.086.038.174.074.26.114l.12.054a25.526 25.526 0 01.364.167l.324.156.032.016c.124.06.248.122.37.185.01.004.019.01.029.015l.326.17.066.036.295.161c.018.011.036.023.056.033a19.048 19.048 0 01.336.193c.35.208.685.421 1.002.64.004.002.008.005.013.006.527.367 1 .746 1.395 1.131.058.057.114.113.168.17l.006.005v.001c.05.051.098.103.144.153v.002l.005.006c.05.055.099.11.144.166l.018.023.002.001a4.942 4.942 0 01.193.25l.01.014a3.743 3.743 0 01.264.418l.036.073c.019.036.035.071.053.107l.033.08c.014.033.028.067.04.1.01.027.02.053.028.08l.032.101.02.079c.009.034.016.07.024.104l.013.073.014.118.005.059c.004.06.005.118.003.176 0 .04 0 .074.002.106-.156 2.785-2.155 4.96-.842 8.798" fill="#9452BA"/>
    <path d="M113.5 134.044c3.333 7.529 4.45 14.681 3.35 21.456-1.101 6.775-1.658 10.12-1.67 10.034M129.89 121.969c6.069-2.982 11.919-4.181 17.55-3.597 5.632.585 8.413.883 8.343.897M62.89 125.969c6.831-2.134 13.377-3.072 19.638-2.814 6.261.258 9.352.393 9.274.403M105.616 81.09c3.986 6.045 6.106 12.11 6.361 18.197.256 6.087.371 9.094.347 9.022" stroke="#5563B6" stroke-width="4" stroke-linecap="round"/>
  </g>
</svg>
