<svg width="487" height="274" xmlns="http://www.w3.org/2000/svg">
  <g fill="none" fill-rule="evenodd">
    <g stroke-linecap="round">
      <path stroke="#ACD3EF" stroke-width="3" d="M434.25 24.316v11.368M439.676 30.25h-10.352"/>
      <path stroke="#5563B6" stroke-width="2" d="M324 29.868v7M327.824 33.118h-7M380 76.868v7M383.824 80.118h-7"/>
      <path stroke="#ACD3EF" stroke-width="3" d="M205.25 37.316v11.368M210.676 43.25h-10.352M365.25 190.316v11.368M370.676 196.25h-10.352"/>
      <path stroke="#5563B6" stroke-width="2" d="M294.5 201.5v7M298.324 204.75h-7M455 227.868v7M458.824 231.118h-7M237 243.868v7M240.824 247.118h-7"/>
      <path stroke="#ACD3EF" stroke-width="3" d="M278.25 160.316v11.368M283.676 166.25h-10.352"/>
    </g>
    <path d="M321.777 146.62c1.456-.647 2.756-3.36 1.726-5.393-3.776-7.442-5.317-11.489-7.28-15.424-2.39-4.789-6.245-15.37-10.571-15.37-4.692 0-6.618 5.386-8.17 9.805-1.962 5.577-4.217 11.064-6.233 16.78-.806 2.285-1.84 5.555-.117 7.029.762.652 3.057 1.093 4.435-.07 1.726-1.456 3.698-7.36 3.698-7.36l13.588-.15s.954 1.968 1.945 3.988l.357.726c.672 1.364 1.31 2.645 1.626 3.242 1.298 2.45 3.004 3.082 4.996 2.197zm-14.098-17.235h-.837c-1.979-.004-4.084-.024-5.18-.023.825-2.266 3.073-8.628 3.72-10.624.718 1.455 3.9 8.681 4.816 10.623-.673.016-1.56.023-2.52.024zm23.798 17.609c2.638-.165 3.255-2.691 3.403-4.49.314-3.803.35-6.124.353-6.762v-.18s2.195-.72 4.461-1.549l.504-.185c1.51-.56 2.984-1.15 3.79-1.584 4.207-2.265 8.737-5.608 8.198-11.972-.692-8.163-11.028-10.92-16.718-11.002-1.605-.022-5.824-.431-7.368 1.275-.561.62-.506 4.334-.48 6.169.094 6.968.16 19.624.179 25.047.011 3.318 1.521 5.368 3.678 5.233zm3.472-19.249h-.064l-.136-11.461s2.94-.109 5.64.974c2.278.913 4.384 2.536 4.409 4.227.03 2.05-2.448 4.02-4.934 5.153-2.252 1.028-4.511 1.102-4.915 1.107zM359.683 147c1.699 0 3.209-1.725 3.402-3.685.377-3.813.076-6.993.175-9.941 3.694 3.164 6.21 5.94 10.78 8.938 2.408 1.58 5.715 3.354 7.738 2.019 3.063-2.023 1.084-4.834-.372-5.982a692.29 692.29 0 01-9.793-7.882s8.013-3.313 8.114-11.221c.062-4.82-2.419-9.862-13.211-9.819-3.298.013-8.3.254-9.498 1.863-.964 1.293-1.04 8.13-1.037 12.578v.633l.004 1.397V126.78c-.023 4.203-.023 11.24.104 16.086.044 1.694 1.248 4.134 3.594 4.134zm3.512-21.993l-.002-7.65s7.428-2.283 8.502 2.042c1.332 5.365-8.5 5.607-8.5 5.608zm28.618-16.292c-6.267-.202-6.015 8.06-.466 8.577 5.506.512 5.773-8.407.466-8.577zM391.432 147c3.511.001 4.261-2.765 4.333-4.624.052-1.346.034-3.49-.007-5.69l-.02-1.016c-.04-1.86-.09-3.678-.123-5-.095-3.74.41-9.015-3.586-9.47-1.978-.224-4.034 1.133-4.251 2.919-.525 4.315-.298 11.883-.155 16.128.094 2.786.336 6.752 3.809 6.753zm17.431-.086c.773-.05 1.572-.116 2.374-.195l.688-.07c4.358-.463 8.649-1.237 9.433-1.495 2.047-.674 3.025-2.421 2.856-4.125-.243-2.454-2.427-2.94-4.126-2.917-.69.008-5.041.537-8.073.916l-.52.065c-1.43.179-2.456.31-2.456.31-.262-9.414-.363-13.433-.45-16.701l-.011-.374-.015-.552-.015-.546-.01-.363-.01-.365-.01-.367c-.034-1.17-.07-2.406-.118-3.936-.14-4.53-.446-7.393-4.819-6.964-2.531.249-2.764 3.442-2.71 6.483l.01.455c.012.453.028.898.042 1.327.21 6.703.136 15.375.541 21.831.208 3.315.139 5.154 1.588 6.746 1.1 1.208 4.66.91 5.811.837z" fill="#5E63B6" fill-rule="nonzero"/>
    <g stroke="#E1F2FF">
      <path d="M86.26 124.749c13.093-10.18 35.531-22.55 59.517-31.133 5.284-1.891 12.456-3.307 17.58-4.803 6.46-1.885 9.957-6.095 16.085-6.787 2.359-.266-1.462 1.584 0 2.297 2.9 1.415 10.405 2.529 14.886 2.985 3.167.323 5.178-2.928 8.693-2.985 4.49-.073 10.477 3.106 14.158 4.49 6.238 2.346 11.782 4.145 16.741 7.828 14.732 10.94 23.215 25.642 23.08 29.067-.167 4.193-7.546 4.569-11.616 8.295-3.609 3.304-3.695 9.942-7.554 13.802-3.845 3.846-8.152 14.45-11.49 18.59-4.281 5.31-9.41 7.675-14.059 11.411-6.202 4.983-7.94 8.431-9.546 9.478-8.95 5.84-29.093 11.158-38.154 19.41-6.73 6.127-10.866 2.76-18.804 7.8-4.94 3.137-8.663 11.703-16.045 15.068-3.9 1.778-9.045.67-15.643 2.814-3.272 1.063-8.3 5.154-14.098 7.24-4.8 1.726-9.996 1.358-16.325 3.215-4.365 1.281-8.645 7.476-16.737 9.627-4.725 1.257-13.236.702-25.236 1.821-2.377.222-6.213 1.129-11.51 2.721-.244-4.959-.244-8.519 0-10.68 1.163-10.249 3.015-17.205 2.995-20.773-.044-7.662-4.035-7.424-2.994-11.939 1.47-6.378 5.908-7.94 7.963-13.726 11.473-32.3 28.625-59.98 48.113-75.133z" stroke-width="6"/>
      <path d="M136.955 162.77c12.079-7.11 25.513-13.62 38.801-19.27.311-.131-1.481-11.195 3.593-22.087 1.173-2.517 3.327-5.329 4.663-8.245 1.856-4.054 2.978-8.178 5.23-10.824 3.95-4.64 8.528-5.27 8.702-5.342.215-.09-4.707 2.317-8.185 7.367-1.659 2.409-1.252 6.228-3.05 9.152-2.574 4.183-5.058 8.678-6.793 12.865-3.15 7.607-.265 15.482 0 15.372 11.448-4.724 22.67-8.784 32.697-12.007.343-.11.961-7.705 4.838-13.226 3.544-5.045 10.373-8.057 10.682-8.154.353-.111-6.391 4.195-9.594 9.522-2.897 4.818-2.322 9.601-2.008 9.504 6.853-2.12 12.555-5.16 17.879-5.984 9.408-1.455 16.37.522 17.36 1.797 1.53 1.966-4.71-1.966-15.044 0-1.53.291-3.12.655-4.798 1.1-.153.04 4.83 2.18 6.664 4.679 2.23 3.036 1.397 6.535 1.207 6.588-.177.049.004-3.269-2.287-5.826-2.524-2.816-7.541-4.896-7.741-4.838-9.37 2.748-21.622 7.928-41.34 16.945-.363.166 13.356-2.164 21.797.553 9.256 2.978 13.318 11.033 12.92 11.23-.309.155-4.286-7.895-12.92-10.14-10.384-2.7-25.738.314-26.116.505-7.119 3.604-16.112 6.683-24.596 11.676-.929.547-1.852 1.098-2.77 1.653-.097.059-.389 1.14 2.207 1.894 2.25.654 7.157.903 10.268 1.989 4.209 1.467 7.111 4.76 11.428 6.369 7.91 2.949 16.31 3.972 16.103 4.098-.222.137-7.443.745-16.103-1.85-4.56-1.367-7.442-4.139-11.822-5.934-4.521-1.852-9.126-1.916-12.081-2.683-1.756-.456-3.019-2.033-3.09-1.989-12.005 7.451-23.25 15.467-34.883 22.438-.324.195 5.01 12.343 15.175 17.043 11.108 5.137 27.133 2.864 26.781 3.075-.397.24-15.521 3.986-27.484-.745-10.714-4.239-18.4-17.013-18.755-16.8-24.246 14.601-45.994 28.331-61.462 40.047-.321.244 13.757 5.45 29.436 4.282 18.486-1.379 39.047-9.176 38.682-8.893-.369.286-18.92 8.982-37.706 10.89-16.892 1.716-34.216-3.338-34.534-3.085a156.3 156.3 0 00-7.057 5.921c-10.916 9.775-8.461 22.422-10.545 22.595-2.032.169-2.879-13.184 6.673-23.947.207-.234-.118-7.9 1.207-14.883 1.874-9.875 5.564-20.057 5.876-20.395.313-.34-2.3 9.91-3.542 19.068-.893 6.588-.566 12.977-.328 12.729 3.663-3.828 8.729-7.233 13.449-11.402.193-.17.285-4.073 1.135-8.397 1.118-5.689 3.051-12.165 3.31-12.391.27-.236-1.173 7.485-1.811 13.02-.364 3.157-.156 5.598 0 5.463 22.651-19.646 56.272-38.313 79.682-52.092z" stroke-width="2" fill="#E1F2FF"/>
    </g>
    <g transform="translate(42 68)">
      <path d="M81.218 14.291c10.356-2.815 18.025-3.824 23.005-3.028 4.981.797 8.916 3.661 11.806 8.594 5.339-2.375 9.89-.963 13.655 4.236 3.765 5.198 2.94 10.3-2.474 15.306.224 4.691-.738 8.688-2.887 11.99-2.15 3.3-6.96 8.171-14.433 14.611-13.433-7.12-21.76-13.586-24.981-19.397-3.222-5.81-4.452-16.581-3.69-32.312z" stroke="#5563B6" fill="#5563B6"/>
      <path d="M15.615 41.624c9.913-12.198 33.778-26.552 55.418-31.151 4.747-1.01 10.042-.403 15.884 1.818h0a2 2 0 011.241 2.305c-2.521 11.281-2.393 19.913.384 25.895 2.813 6.057 10.026 13.023 21.639 20.899h0a4 4 0 011.643 2.37c1.69 6.989 1.559 13.324-.398 19.005-3.147 9.141-17.76 29.785-32.266 39.17-14.507 9.384-23.334 10.139-38.083 8.2-14.75-1.938-26.997-10.256-32.102-16.543-12.349-15.21-13.57-47.098 6.64-71.968z" stroke="#5563B6" stroke-width="5" fill="#FFF" stroke-linejoin="round"/>
      <path d="M132.986.286c.279 1.698-3.669 4.017-5.286 8.06-1.078 2.697-1.519 7.248-1.321 13.654L124 20.037c.021-5.472.48-9.369 1.376-11.69 1.345-3.483 7.331-9.76 7.61-8.061zM150.246 35.515c-1.232-1.212-5.46.77-9.734-.2-2.85-.646-6.85-2.895-11.999-6.748l.214 3.128c4.51 3.131 7.983 4.989 10.418 5.572 3.653.875 12.332-.541 11.1-1.752z" stroke="#5563B6" fill="#5563B6"/>
      <path d="M52.199 85c2.38 0 5.603-1.544 7.62-4.656 2.209-3.41 3.028-8.514 1.093-10.95-3.7-4.662-6.947-3.165-9.656-3.165C46.474 66.23 42 70.587 42 75.5c0 2.31.84 5.076 2.58 6.799C46.538 84.239 49.555 85 52.198 85z" fill="#89C3EA"/>
      <ellipse fill="#89C3EA" transform="rotate(37 94.895 80.791)" cx="94.895" cy="80.791" rx="6.182" ry="8.832"/>
      <path d="M18.11 41.295c2.102 2.69 7.86 3.212 11.704.209 3.844-3.003 4.072-9.038 1.97-11.729-3.162 2.223-3.337 2.223-7.061 5.296-3.724 3.074-4.77 4.282-6.613 6.224zM57.152 16.553c1.09 2.45 6.657 4.748 11.113 2.765 4.456-1.984 7.946-4.905 6.855-7.356-2.588 0-5.269.707-10.01 2.003-4.743 1.296-4.864 1.614-7.958 2.588zM1.748 84.465c2.65.42 4.104-3.069 4.867-7.886.763-4.818.122-8.952-2.528-9.372-.696 2.619-.983 3.363-1.746 8.18-.763 4.818-.593 7.2-.593 9.078z" fill="#89C3EA"/>
      <ellipse fill="#89C3EA" transform="rotate(58 70.975 46.3)" cx="70.975" cy="46.301" rx="9.273" ry="11.04"/>
      <path d="M5 106c11.575-20.15 22.01-33.909 31.304-41.277C45.598 57.354 62.83 48.78 88 39" stroke="#5563B6" stroke-width="5" stroke-linecap="square"/>
      <path d="M126 109c2.702 1.766 4.448 3.266 5.239 4.5.79 1.234.965 2.734.525 4.5M132.4 114.5h3.2M131.5 113.5l3 2M132.5 113.5l1 3" stroke="#5563B6" stroke-linecap="round"/>
      <path d="M69.837 129c-.45 2.264-.674 3.79-.674 4.576 0 .786.225 1.594.674 2.424" stroke="#5563B6" stroke-width="2" stroke-linecap="round"/>
      <path stroke="#5563B6" stroke-linecap="round" d="M69.4 135.5h3.2M68.5 135.5l3 2M68.5 135.5l1 3M157.4 68.5h3.2M151 66.001c2.072-.02 3.448.197 4.13.651.68.454 1.304 1.57 1.87 3.348"/>
      <ellipse fill="#5563B6" transform="rotate(38 128.543 22.678)" cx="128.543" cy="22.678" rx="1.325" ry="1"/>
      <ellipse fill="#5563B6" transform="rotate(67 131.192 26.211)" cx="131.192" cy="26.211" rx="1.325" ry="1"/>
      <path d="M48 122c12.507-2.48 21.214-5.17 26.12-8.069 4.907-2.9 10.867-8.876 17.88-17.931" stroke="#E1F2FF" stroke-width="4" stroke-linecap="round"/>
      <path d="M114 75c2.027 1.167 3.398 2.112 4.111 2.837 1.071 1.088 1.071 1.683 1.186 2.543.042.316-.092 15.565 0 21.963.025 1.726 5.172 1.794 7.411 2.922.652.329.01.799 0 1.357-.014.773.39 1.664 0 2.137-.626.758-1.6-.444-3.176-1.21-2.556-1.245-6.04-2.823-7.295-4.053-.15-.147.753-.806.618-1.153-.21-.541-1.447-.913-1.62-1.941-.282-1.66.232-5.274 0-10.76-.112-2.612-.523-7.493-1.235-14.642zM114 63.746c1.788.564 3.237.846 4.344.846 1.662 0 3.914-.78 4.985-.846 1.072-.066.857.581 1.948.416 2.567-.389 6.148-1.632 7.351-1.771.805-.093 1.527.519 2.228.456 2.208-.198 3.936-.938 5.123-.838 2.356.199 1.391 1.375 3.24 1.737 2.373.465 5.973.212 7.18.846 1.412.741 1.621 1.83 1.6 1.958-.025.143-.583 1.655-2.857 1.427-1.639-.165-4.607-2.094-6.839-2.031-1.13.032-.985 1.319-2.324 1.34-1.337.02-2.14-1.342-4.528-1.34-1.282.001-2.863.247-5.921.604-.795.093-2.477-.794-4.253-.604-.865.092-.676 1.074-1.45 1.34-.774.265-2.656.69-4.468.69-1.208 0-2.995-.23-5.359-.69v-3.54z" fill="#5563B6"/>
    </g>
    <path d="M0 191.5v-13.226c9.878 19.988 16.66 35.251 20.345 45.79 3.685 10.54 6.834 27.185 9.447 49.936h-9.447c.857-16.541.036-28.835-2.463-36.882-2.5-8.046-8.46-23.252-17.882-45.618z" fill="#E1F2FF"/>
    <path d="M81.971 185.18c.113.169.18.293.204.333 0 .006.001-.006 0 0-3.072-2.959-5.977-2.31-8.687-3.502a1.085 1.085 0 00-.125-.068c-.06-.027-.12-.059-.177-.092-.687-.4-1.203-1.198-1.569-2.226l-.005-.016c-.032-.085-.06-.173-.089-.26v-.003c-.051-.161-.099-.33-.144-.5l-.015-.053a4.554 4.554 0 00-.034-.143l-.035-.145-.031-.147c-.012-.05-.022-.1-.033-.151l-.021-.108c-.267-1.371-.343-2.944-.276-4.468 0 0-.004-.016 0 0 1.153 1.117 2.4 2.127 3.502 2.81 1.329.826 3.09 1.54 4.85 1.994 1.008-1.39 1.829-2.976 2.245-4.391.346-1.183.57-2.675.638-4.216.096.092.19.186.285.279.027.028.054.057.083.085.066.068.133.134.198.204.031.03.062.063.092.094a25.526 25.526 0 01.275.292c.081.089.162.177.241.266a.273.273 0 01.024.027c.093.101.184.206.274.31.008.007.014.016.021.024l.239.281c.017.02.031.04.048.058.072.086.142.172.212.26a18.33 18.33 0 01.969 1.324l.01.011c.35.538.647 1.066.87 1.571.032.074.062.148.091.22.001.003.004.005.004.008l.076.196v.002l.002.007c.026.07.05.14.071.208l.008.028c0 .001.002.001.001.002a4.942 4.942 0 01.086.304l.005.017a3.743 3.743 0 01.087.486l.006.082.009.119v.086c.002.036.001.073 0 .108a2.03 2.03 0 01-.012.19l-.01.08c-.005.036-.013.072-.018.106-.004.025-.01.05-.015.073l-.032.115c-.005.017-.01.037-.017.056-.018.057-.04.111-.063.164a1.031 1.031 0 00-.037.1c-1.189 2.524-3.856 3.79-4.077 7.842" fill="#9452BA"/>
  </g>
</svg>
