<svg width="487" height="274" xmlns="http://www.w3.org/2000/svg">
  <g fill="none" fill-rule="evenodd">
    <path stroke="#ACD3EF" stroke-width="3" stroke-linecap="round" d="M250.25 23.316v11.368M255.676 29.25h-10.352"/>
    <path stroke="#5563B6" stroke-width="2" stroke-linecap="round" d="M140 28.868v7M143.824 32.118h-7M196 75.868v7M199.824 79.118h-7"/>
    <path stroke="#ACD3EF" stroke-width="3" stroke-linecap="round" d="M21.25 36.316v11.368M26.676 42.25H16.324M181.25 189.316v11.368M186.676 195.25h-10.352"/>
    <path stroke="#5563B6" stroke-width="2" stroke-linecap="round" d="M110.5 200.5v7M114.324 203.75h-7M271 226.868v7M274.824 230.118h-7M53 242.868v7M56.824 246.118h-7"/>
    <path stroke="#ACD3EF" stroke-width="3" stroke-linecap="round" d="M74.25 152.316v11.368M79.676 158.25H69.324"/>
    <path d="M101.946 138.534c5.383-6.587 2.97-21.648 1.167-29.237 3.207-.454 5.192-.778 7.87-1.94 2.648-1.15 3.494-2.924 2.734-4.846-1.008-2.55-3.42-2.697-7.204-2.366-4.207.369-13.457 1.25-17.788 2.025-3.138.56-6.691.707-6.46 4.227.206 3.165 2.994 3.755 6.094 4.02 2.07.177 6.957-.342 6.957-.342s1.417 6.797 1.75 10.419c.32 3.5 1.454 9.372-1.22 11.95-2.151 2.074-6.27-1.098-9.478-2.95-2.466-1.423-4.867-.939-6.17 1.896-.931 2.03-.177 3.834 2.351 5.786 6.912 5.337 14.882 6.883 19.397 1.358zm46.06-14.092c.557-5.76.744-12.806-.504-18.474-.593-2.694-2.667-3.6-4.592-3.352-2.205.284-2.677 2.142-2.869 4.022-.404 3.962 3.275 26.649-7.251 26.677-8.17.021-5.962-22.989-6.325-26.24-.403-3.612-1.934-5.317-4.927-4.516-3.377.904-3.177 4.664-3.313 7.467-.342 7.012.166 18.751 3.556 24.995 1.822 3.356 6.1 6.613 10.966 6.951 8.964.623 14.472-9.368 15.26-17.53zm14.975 17.463c5.768-.37 12.806-1.602 13.883-1.956 2.275-.749 3.361-2.69 3.174-4.584-.27-2.726-2.697-3.266-4.584-3.241-1.194.015-12.277 1.436-12.277 1.436-.476-17.1-.475-18.179-.71-25.783-.156-5.034-.495-8.215-5.354-7.738-3.376.331-3.074 5.375-2.954 9.183.233 7.448.151 17.084.601 24.257.23 3.684.154 5.727 1.765 7.495 1.222 1.342 5.177 1.013 6.456.93zm40.734-9.27c.091-3.417-.008-11.588-.018-12.474.648-.706 10.466-11.41 12.048-13.904.93-1.467 1.672-4.28-1.438-5.753-1.708-.809-3.794-.476-5.364 1.468-2.584 3.198-7.305 8.485-9.302 10.452-1.996-1.967-6.718-7.254-9.302-10.452-1.57-1.944-3.656-2.277-5.364-1.468-3.11 1.473-2.367 4.286-1.438 5.753 1.637 2.58 12.084 13.942 12.084 13.942s.252 11.386.2 13.741c-.076 3.42.138 7.974 3.761 8.058 4.885.114 4.019-5.117 4.133-9.363z" fill="#5563B6" fill-rule="nonzero"/>
    <path d="M307.766 114.323c-9.76-33.979 76.732-20.086 89.526-7.801 12.794 12.285-10.865 50.795-20.438 74.14-5.16 12.586-10.12 33.629-16.623 54.783-1.537 5.003-1.537 11.555-5.598 11.555-4.06 0-37.106-98.7-46.867-132.677z" stroke="#5563B6" stroke-width="5" stroke-linejoin="round"/>
    <path d="M400.97 87c8.065 9.03 10.055 17.405 5.969 25.126-2 3.78-7.892-2.416-16.578 2.059-2.687 1.384-3.47 8.535-6.614 9.376-4.252 1.137-8.651-4.63-13.595-3.26-4.502 1.246-4.824 12.343-10.285 12.694-4.617.297-7.639-13.303-15.8-14.76-11.203-2-23.318 8.935-34.966-2.561-3.4-3.357.883-9.13 15.52-12.477 11.961-2.736 31.954-2.899 51.044-6.72 7.26-1.454 15.694-4.613 25.305-9.477z" stroke="#5563B6" stroke-width="5" fill="#FFF"/>
    <path d="M299.507 90.817c1.481-.477 7.92-3.224 19.376-3.878 13.087-.748 32.332.478 51.478-2.186 6.533-.908 14.4-3.826 23.598-8.753 4.75 1.04 8.064 3.152 9.942 6.333 2.818 4.773 0 7.414-6.004 9.797-6.004 2.383-20.136 4.212-27.536 5.068-7.4.857-48.602 3.723-53.161 4.707-6.95 1.501-11.136 3.97-11.136 4.947 0 .976-10.354-3.068-11.485-6.107-1.13-3.04-1.13-7.977 4.928-9.928z" stroke="#5563B6" stroke-width="5" fill="#5563B6"/>
    <path d="M307.43 68.094c6.145-4.922 19.494-3.646 39.574-9.524 10.6-3.102 26.963-13.593 36.948-9.725 9.985 3.868 12.081 23.47 8.257 25.3-3.825 1.829-7.052 3.647-26.747 9.345-9.686 2.802-26.866 1.718-47.239 4.198-4.83.589-12.032 2.692-21.608 6.312-2.178-9.75 1.428-18.386 10.816-25.906z" stroke="#5563B6" stroke-width="5" fill="#FFF"/>
    <path d="M319.845 49.957c4.596-3.96 16.984-2.4 29.935-5.954 8.634-2.37 12.734-6.037 12.302-11.003 5.1.507 8.499 1.069 10.197 1.686 4.294 1.559 6.17 5.33 5.63 11.311-11.545 4.222-18.25 6.677-20.116 7.365-5.708 2.103-10.235 4.466-23.376 5.966-8.76 1-14.85 2.558-18.27 4.672-.598-6.722.635-11.403 3.698-14.043z" stroke="#5563B6" stroke-width="5" fill="#5563B6"/>
    <path d="M335 30.712c5.509-.964 9.837-1.529 12.986-1.695 3.148-.166 6.57.895 10.265 3.185 2.571.808 3.82 1.685 3.746 2.632-.111 1.422-2.516 4.693-5.699 6.6-3.183 1.909-6.188 3.164-9.104 2.274-2.917-.889-.268-6.168-3.335-8.874-2.045-1.803-4.997-3.177-8.859-4.122z" stroke="#5563B6" stroke-width="5" fill="#FFF" stroke-linejoin="round"/>
    <g stroke="#E1F2FF" stroke-linecap="round" stroke-width="4">
      <path d="M337.667 178c6.189 2.913 10.91 4.828 14.166 5.744 3.255.917 8.687 1.67 16.297 2.256M342.889 192c4.067 2.913 7.17 4.828 9.31 5.744 2.138.917 5.708 1.67 10.708 2.256M348.981 209c2.122 2.913 3.741 4.828 4.857 5.744 1.116.917 2.979 1.67 5.588 2.256M336.608 168.602c5.774-2.46 9.787-4.52 12.038-6.18 2.252-1.658 5.015-4.89 8.29-9.692"/>
      <path d="M339.284 184.915c7.307-2.785 12.536-5.176 15.686-7.174 3.151-1.997 7.533-6.004 13.147-12.02M329.849 153.994c5.927-2.394 10.135-4.436 12.623-6.127 2.488-1.69 5.843-5.057 10.066-10.101M345.497 199.21c5.927-2.393 10.135-4.436 12.623-6.126 2.487-1.69 5.843-5.058 10.066-10.101M324.932 143.36c5.877-3.162 9.421-5.446 10.631-6.855 1.21-1.41 3.544-4.812 7.002-10.207M350.93 215.164c3.162-1.178 5.365-2.19 6.61-3.036 1.243-.846 2.79-2.545 4.637-5.096"/>
      <path d="M322.106 139.247c8.016 5.988 14.065 9.83 18.148 11.527 4.082 1.696 10.728 2.69 19.936 2.979M326.704 129.478c5.126 4.222 8.826 6.854 11.099 7.897 2.273 1.042 5.532 1.291 9.777.747M331.051 162.177c6.607 3.47 11.598 5.66 14.975 6.57 3.376.908 8.888 1.267 16.534 1.076"/>
    </g>
    <path d="M305 80c3.269-3.79 7.705-6.39 13.31-7.8 3.637-.914 17.448-1.52 32.84-5.515 5.553-1.441 14.17-4.67 25.85-9.685M317.004 114c-.12-1.221 2.618-2.516 8.216-3.884 8.398-2.052 26.406-1.238 41.78-5.116" stroke="#E1F2FF" stroke-width="3" stroke-linecap="round"/>
    <path d="M383.307 143.757c.138.12.227.212.258.241.002.006 0-.005 0 0 0 .001 0 0 0 0-3.358-1.802-5.645-.43-8.241-.754a.913.913 0 00-.123-.027 1.843 1.843 0 01-.173-.034c-.684-.17-1.326-.741-1.9-1.559l-.009-.013c-.049-.067-.095-.138-.141-.208 0 0-.001-.002-.003-.002-.084-.13-.168-.268-.25-.408l-.026-.043a4.313 4.313 0 00-.065-.118l-.068-.12-.064-.122-.066-.126-.046-.09c-.58-1.152-1.05-2.535-1.387-3.913 0 0-.007-.013 0 0 1.263.682 2.576 1.243 3.684 1.552 1.335.374 3.006.531 4.611.456.492-1.515.775-3.155.761-4.531-.013-1.151-.208-2.544-.55-3.938.105.056.209.115.313.172l.092.053c.074.042.148.083.22.128a22.255 22.255 0 01.41.244c.092.058.183.114.273.172.009.005.018.01.027.017.105.066.208.134.311.202l.024.016.274.186c.02.012.037.026.056.038l.246.174a16.836 16.836 0 01.328.241c.292.223.57.448.832.677l.01.007c.437.384.824.775 1.142 1.165.046.057.09.114.134.171l.005.006c.04.052.079.105.115.155v.002l.004.005c.04.056.078.11.114.166l.014.023.001.002a4.648 4.648 0 01.151.248c.003.004.004.009.008.013a3.561 3.561 0 01.2.41l.026.071.038.105.023.076a1.168 1.168 0 01.046.173l.02.097c.005.024.008.05.012.075l.013.099.006.068c.002.037.002.073.003.112v.054c0 .056-.005.11-.011.164-.004.037-.006.07-.006.1-.352 2.576-2.278 4.435-1.418 8.111" fill="#9452BA"/>
  </g>
</svg>
