<?xml version="1.0" encoding="UTF-8"?>
<svg width="487px" height="274px" viewBox="0 0 487 274" version="1.1" xmlns="http://www.w3.org/2000/svg" xmlns:xlink="http://www.w3.org/1999/xlink">
    <title>illus-january-21</title>
    <g id="illus-january-21" stroke="none" stroke-width="1" fill="none" fill-rule="evenodd">
        <g id="Group" transform="translate(141.500000, 136.500000) scale(-1, 1) translate(-141.500000, -136.500000) translate(12.000000, 23.000000)" stroke-linecap="round">
            <line x1="234.25" y1="0.315789474" x2="234.25" y2="11.6842105" id="Line-16" stroke="#ACD3EF" stroke-width="3"></line>
            <line x1="239.676471" y1="6.25" x2="229.323529" y2="6.25" id="Line-16" stroke="#ACD3EF" stroke-width="3"></line>
            <line x1="124" y1="5.86842105" x2="124" y2="12.8684211" id="Line-16" stroke="#5563B6" stroke-width="2"></line>
            <line x1="127.823529" y1="9.11842105" x2="120.823529" y2="9.11842105" id="Line-16" stroke="#5563B6" stroke-width="2"></line>
            <line x1="180" y1="52.8684211" x2="180" y2="59.8684211" id="Line-16" stroke="#5563B6" stroke-width="2"></line>
            <line x1="183.823529" y1="56.1184211" x2="176.823529" y2="56.1184211" id="Line-16" stroke="#5563B6" stroke-width="2"></line>
            <line x1="5.25" y1="13.3157895" x2="5.25" y2="24.6842105" id="Line-16" stroke="#ACD3EF" stroke-width="3"></line>
            <line x1="10.6764706" y1="19.25" x2="0.323529412" y2="19.25" id="Line-16" stroke="#ACD3EF" stroke-width="3"></line>
            <line x1="165.25" y1="166.315789" x2="165.25" y2="177.684211" id="Line-16" stroke="#ACD3EF" stroke-width="3"></line>
            <line x1="170.676471" y1="172.25" x2="160.323529" y2="172.25" id="Line-16" stroke="#ACD3EF" stroke-width="3"></line>
            <line x1="94.5" y1="177.5" x2="94.5" y2="184.5" id="Line-16" stroke="#5563B6" stroke-width="2"></line>
            <line x1="98.3235294" y1="180.75" x2="91.3235294" y2="180.75" id="Line-16" stroke="#5563B6" stroke-width="2"></line>
            <line x1="255" y1="203.868421" x2="255" y2="210.868421" id="Line-16" stroke="#5563B6" stroke-width="2"></line>
            <line x1="258.823529" y1="207.118421" x2="251.823529" y2="207.118421" id="Line-16" stroke="#5563B6" stroke-width="2"></line>
            <line x1="37" y1="219.868421" x2="37" y2="226.868421" id="Line-16" stroke="#5563B6" stroke-width="2"></line>
            <line x1="40.8235294" y1="223.118421" x2="33.8235294" y2="223.118421" id="Line-16" stroke="#5563B6" stroke-width="2"></line>
            <line x1="58.25" y1="129.315789" x2="58.25" y2="140.684211" id="Line-16" stroke="#ACD3EF" stroke-width="3"></line>
            <line x1="63.6764706" y1="135.25" x2="53.3235294" y2="135.25" id="Line-16" stroke="#ACD3EF" stroke-width="3"></line>
        </g>
        <g id="Group-2" transform="translate(276.398559, 112.580269)" stroke="#E1F2FF">
            <path d="M31.6014406,69.4197309 C38.3307544,92.46128 43.6640877,113.127947 47.6014406,131.419731" id="Path-2" stroke-linecap="round"></path>
            <path d="M52.6014406,56.4197309 C66.7992718,69.2212015 81.4659385,94.2212015 96.6014406,131.419731" id="Path-2" stroke-linecap="round" transform="translate(74.601441, 93.919731) scale(-1, 1) translate(-74.601441, -93.919731) "></path>
            <path d="M72.7722628,71.2001443 C73.1983258,69.689241 82.0097155,60.0178854 90.1171333,53.9391329 C98.2245511,47.8603804 108.601441,44.0691671 108.601441,44.4453781 C108.601441,44.7812423 99.8466876,46.5828492 88.5978213,55.6618073 C83.7159071,59.6019994 73.5925535,71.5445675 73.1983258,72.0642212 C72.8040981,72.583875 72.3461999,72.7110477 72.7722628,71.2001443 Z" id="Path-3" fill="#E1F2FF"></path>
            <path d="M2.69430014,65.9540513 C2.966507,65.1985996 8.59600601,60.3629219 13.7757452,57.3235456 C18.9554843,54.2841694 25.5851637,52.3885627 25.5851637,52.5766682 C25.5851637,52.7446003 19.9918493,53.6454038 12.8050736,58.1848828 C9.68607288,60.1549789 3.21837469,66.1262629 2.966507,66.3860898 C2.71463931,66.6459167 2.42209327,66.709503 2.69430014,65.9540513 Z" id="Path-3" fill="#E1F2FF" transform="translate(14.085164, 59.563845) rotate(54.000000) translate(-14.085164, -59.563845) "></path>
            <path d="M15.6536363,94.2872577 C15.7838222,92.884276 18.4761913,83.9037315 20.9534578,78.2591756 C23.4307244,72.6146197 26.6014406,69.0942074 26.6014406,69.4435462 C26.6014406,69.75542 23.9263772,71.4283408 20.4892236,79.8588019 C18.9975276,83.5175517 15.9042806,94.6070792 15.7838222,95.0896148 C15.6633637,95.5721504 15.5234504,95.6902393 15.6536363,94.2872577 Z" id="Path-3" fill="#E1F2FF"></path>
            <path d="M21.6536363,79.1148343 C21.7838222,78.7371084 24.4761913,76.3192695 26.9534578,74.7995814 C29.4307244,73.2798933 32.6014406,72.33209 32.6014406,72.4261427 C32.6014406,72.5101088 29.9263772,72.9605105 26.4892236,75.23025 C24.9975276,76.215298 21.9042806,79.2009401 21.7838222,79.3308535 C21.6633637,79.4607669 21.5234504,79.4925601 21.6536363,79.1148343 Z" id="Path-3" fill="#E1F2FF" transform="translate(27.101441, 75.919731) rotate(-44.000000) translate(-27.101441, -75.919731) "></path>
            <path d="M7.65363628,85.2872577 C7.78382218,83.884276 10.4761913,74.9037315 12.9534578,69.2591756 C15.4307244,63.6146197 18.6014406,60.0942074 18.6014406,60.4435462 C18.6014406,60.75542 15.9263772,62.4283408 12.4892236,70.8588019 C10.9975276,74.5175517 7.90428064,85.6070792 7.78382218,86.0896148 C7.66336372,86.5721504 7.52345039,86.6902393 7.65363628,85.2872577 Z" id="Path-3" fill="#E1F2FF" transform="translate(13.101441, 73.419731) rotate(41.000000) translate(-13.101441, -73.419731) "></path>
            <path d="M68.0333022,54.0783445 C68.4294308,52.5999856 77.2278295,43.3194045 85.4025087,37.5633126 C93.5771879,31.8072208 104.152226,28.3767986 104.162801,28.7480876 C104.172229,29.0795576 95.2110603,30.5950496 83.886984,39.2178868 C78.9724293,42.9601262 68.8873503,54.442861 68.4961464,54.9438936 C68.1049424,55.4449263 67.6371736,55.5567033 68.0333022,54.0783445 Z" id="Path-3" fill="#E1F2FF" transform="translate(86.022829, 42.001078) rotate(34.000000) translate(-86.022829, -42.001078) "></path>
            <path d="M75.4112974,34.7839716 C75.8556602,33.3577848 85.225687,24.2829446 93.8706598,18.6020257 C102.515633,12.9211067 113.613866,9.42544807 113.617008,9.78151064 C113.619812,10.0993872 104.244811,11.7264568 92.2554842,20.2188954 C87.0522162,23.9045429 76.2939891,35.1172618 75.8754937,35.6055703 C75.4569983,36.0938789 74.9669346,36.2101584 75.4112974,34.7839716 Z" id="Path-3" fill="#E1F2FF" transform="translate(94.426367, 22.847363) rotate(82.000000) translate(-94.426367, -22.847363) "></path>
            <path d="M17.5314154,57.0973533 C17.6935016,56.607094 21.1113233,53.4875693 24.2646734,51.5347231 C27.4180235,49.5818769 31.4662276,48.3802256 31.4673738,48.502624 C31.4683967,48.6118958 28.0487607,49.1712096 23.6755201,52.0905307 C21.7775702,53.3574917 17.853387,57.2119236 17.7007361,57.3797823 C17.5480853,57.5476409 17.3693291,57.5876126 17.5314154,57.0973533 Z" id="Path-3" fill="#E1F2FF" transform="translate(24.467374, 52.994080) rotate(97.000000) translate(-24.467374, -52.994080) "></path>
            <path d="M101.74348,29.7456671 C102.142297,28.5011402 110.059232,20.4393536 117.300397,15.3319316 C124.541563,10.2245095 133.748518,6.95557073 133.742749,7.26378915 C133.737594,7.53895265 125.991319,9.15239975 115.934468,16.7671196 C111.569878,20.0718445 102.461406,30.0149647 102.105863,30.4468906 C101.75032,30.8788166 101.344663,30.9901941 101.74348,29.7456671 Z" id="Path-3" transform="translate(117.660681, 18.994452) scale(-1, 1) rotate(108.000000) translate(-117.660681, -18.994452) "></path>
            <path d="M114.014527,39.5012403 C114.280964,38.5934598 120.057842,32.862105 125.408043,29.2932902 C130.758244,25.7244754 137.655412,23.5680883 137.660065,23.7955075 C137.664215,23.9985371 131.827957,24.9733746 124.41264,30.3148213 C121.194454,32.6329647 114.567709,39.720147 114.310322,40.0291333 C114.052935,40.3381197 113.74809,40.4090208 114.014527,39.5012403 Z" id="Path-3" transform="translate(125.785761, 32.008683) scale(-1, 1) rotate(70.000000) translate(-125.785761, -32.008683) "></path>
            <path d="M116.609465,67.0810714 C116.899288,65.7058892 123.016339,56.9316712 128.660786,51.4287824 C134.305232,45.9258936 141.552487,42.5186547 141.554637,42.8615663 C141.556554,43.1677024 135.434226,44.7690065 127.606362,52.9918916 C124.209134,56.5605551 117.186038,67.3988352 116.912853,67.8706542 C116.639669,68.3424732 116.319642,68.4562536 116.609465,67.0810714 Z" id="Path-3" transform="translate(129.024836, 55.515253) scale(-1, 1) rotate(6.000000) translate(-129.024836, -55.515253) "></path>
            <path d="M35.6094649,88.0810714 C35.8992877,86.7058892 42.0163392,77.9316712 47.6607855,72.4287824 C53.3052319,66.9258936 60.5524872,63.5186547 60.5546365,63.8615663 C60.5565545,64.1677024 54.4342256,65.7690065 46.6063619,73.9918916 C43.2091343,77.5605551 36.1860378,88.3988352 35.9128533,88.8706542 C35.6396688,89.3424732 35.319642,89.4562536 35.6094649,88.0810714 Z" id="Path-3" transform="translate(48.024836, 76.515253) scale(-1, 1) rotate(6.000000) translate(-48.024836, -76.515253) "></path>
            <path d="M110.225957,86.2572473 C110.594297,84.2603383 117.835161,71.4096529 124.448285,63.3037129 C131.061409,55.1977728 139.456053,50.0824344 139.449488,50.5784671 C139.443619,51.0213026 132.385637,53.4951199 123.198811,65.5921296 C119.211805,70.8421309 110.878303,86.7021475 110.552824,87.3917401 C110.227344,88.0813327 109.857616,88.2541562 110.225957,86.2572473 Z" id="Path-3" fill="#E1F2FF" transform="translate(124.761034, 69.205425) scale(-1, 1) rotate(-13.000000) translate(-124.761034, -69.205425) "></path>
            <path d="M89.2445464,79.5598461 C89.5522547,77.8385105 95.5911615,66.7631795 101.105148,59.7779188 C106.619135,52.7926581 113.616575,48.3862353 113.610915,48.8138496 C113.605855,49.1956044 107.723299,51.3253778 100.063055,61.7502011 C96.738573,66.2744874 89.7879957,79.9436457 89.5165019,80.5379948 C89.2450081,81.1323438 88.936838,81.2811817 89.2445464,79.5598461 Z" id="Path-3" transform="translate(101.363587, 64.865773) rotate(-13.000000) translate(-101.363587, -64.865773) "></path>
            <path d="M104.175319,76.5798278 C104.926485,75.2787698 108.800693,67.3833099 112.522065,61.5518926 C116.243438,55.7204753 120.627882,50.5570538 120.618499,50.911922 C120.610093,51.2287323 117.478778,53.8093953 112.299346,62.5086 C110.051516,66.2839823 104.52787,76.894845 104.341319,77.3897602 C104.154768,77.8846755 103.424153,77.8808858 104.175319,76.5798278 Z" id="Path-3" transform="translate(112.230712, 64.294374) scale(-1, 1) rotate(-30.000000) translate(-112.230712, -64.294374) "></path>
            <path d="M89.2445464,79.5598461 C89.5522547,77.8385105 95.5911615,66.7631795 101.105148,59.7779188 C106.619135,52.7926581 113.616575,48.3862353 113.610915,48.8138496 C113.605855,49.1956044 107.723299,51.3253778 100.063055,61.7502011 C96.738573,66.2744874 89.7879957,79.9436457 89.5165019,80.5379948 C89.2450081,81.1323438 88.936838,81.2811817 89.2445464,79.5598461 Z" id="Path-3" transform="translate(101.363587, 64.865773) rotate(-13.000000) translate(-101.363587, -64.865773) "></path>
            <path d="M104.175319,76.5798278 C104.926485,75.2787698 108.800693,67.3833099 112.522065,61.5518926 C116.243438,55.7204753 120.627882,50.5570538 120.618499,50.911922 C120.610093,51.2287323 117.478778,53.8093953 112.299346,62.5086 C110.051516,66.2839823 104.52787,76.894845 104.341319,77.3897602 C104.154768,77.8846755 103.424153,77.8808858 104.175319,76.5798278 Z" id="Path-3" transform="translate(112.230712, 64.294374) scale(-1, 1) rotate(-30.000000) translate(-112.230712, -64.294374) "></path>
            <path d="M33.6563704,81.4867793 C34.1489215,80.7585606 36.6892987,76.3393716 39.1294592,73.0754534 C41.5696197,69.8115353 44.4445669,66.9215028 44.4384141,67.120127 C44.4329025,67.2974498 42.3796512,68.7418796 38.9834188,73.6109347 C37.5094823,75.724064 33.8875438,81.6630984 33.7652192,81.9401087 C33.6428946,82.217119 33.1638193,82.2149979 33.6563704,81.4867793 Z" id="Path-3" transform="translate(38.938414, 74.610455) scale(-1, 1) rotate(4.000000) translate(-38.938414, -74.610455) "></path>
            <path d="M121.212999,51.9937136 C121.519087,50.4124819 125.269906,42.1938024 131.819568,35.9911611 C138.369231,29.7885198 150.149432,24.3009271 150.161478,24.6972891 C150.17221,25.0511432 142.947249,26.7314368 133.880361,36.0168265 C129.945407,40.0466082 121.906371,52.3769934 121.595057,52.9146733 C121.283744,53.4523531 120.906912,53.5749453 121.212999,51.9937136 Z" id="Path-3" fill="#E1F2FF" transform="translate(135.630533, 38.977615) scale(-1, 1) rotate(52.000000) translate(-135.630533, -38.977615) "></path>
            <path d="M28.78471,56.6834563 C29.0585489,55.4118856 32.4141909,48.8027137 38.2737969,43.8147685 C44.133403,38.8268234 54.6724712,34.413895 54.6832482,34.7326353 C54.6928491,35.0171923 48.2290924,36.3684251 40.1174694,43.8354077 C36.5970927,47.0760159 29.4050294,56.9916764 29.1265152,57.4240596 C28.848001,57.8564427 28.5108711,57.955027 28.78471,56.6834563 Z" id="Path-3" fill="#E1F2FF" transform="translate(41.683248, 46.216369) scale(-1, 1) rotate(96.000000) translate(-41.683248, -46.216369) "></path>
            <path d="M34.0592789,65.3522596 C34.2674551,64.7014072 38.6612569,60.5487058 42.7155925,57.9442738 C46.769928,55.3398419 51.9755412,53.7272485 51.977085,53.8895433 C51.9784627,54.0344327 47.5808701,54.7923052 41.9582131,58.6840692 C39.5180268,60.3730624 34.4734241,65.5026523 34.277199,65.7259569 C34.080974,65.9492616 33.8511028,66.003112 34.0592789,65.3522596 Z" id="Path-3" transform="translate(42.977085, 59.878337) scale(-1, 1) rotate(51.000000) translate(-42.977085, -59.878337) "></path>
        </g>
        <g id="Group-3" transform="translate(381.515692, 28.000000)">
            <circle id="Oval" fill="#ACD3EF" cx="27.9843083" cy="73.5" r="1.5"></circle>
            <circle id="Oval" fill="#ACD3EF" cx="3.48430825" cy="6" r="1"></circle>
            <circle id="Oval" fill="#ACD3EF" cx="12.4843083" cy="8" r="1"></circle>
            <circle id="Oval" fill="#ACD3EF" cx="8.98430825" cy="1.5" r="1.5"></circle>
            <circle id="Oval" fill="#ACD3EF" cx="7.98430825" cy="10.5" r="1.5"></circle>
            <circle id="Oval" fill="#ACD3EF" cx="14.4843083" cy="1" r="1"></circle>
            <path d="M1.42614769,16.2651719 C18.8377464,13.0022965 32.2540934,11 44.8119931,11 C50.8107584,25.8980708 56.321251,64.456253 53.4693949,92.3828947 C51.6366602,110.329846 43.0621054,116.84521 43.0621054,133.129259 C43.0621054,141.271114 46.7653392,183.52145 50.9630071,189.450654 C60.6944368,189.450654 73.4843083,187.480068 73.4843083,193.512024 C73.4843083,207.541054 19.3937451,211.749997 16.7589983,204.519399 C19.0804681,198.797057 21.77974,197.288802 37.6790777,193.512024 C44.1666389,191.970949 33.5611999,140.036065 32.2540934,133.129259 C30.2148689,122.353909 20.0668395,115.666034 14.1242514,100.01121 C4.12392742,73.6669118 -1.95796063,34.7164331 1.42614769,16.2651719 Z" id="Rectangle" stroke="#5563B6" stroke-width="5" fill="#FFFFFF" stroke-linejoin="round"></path>
            <path d="M6.48430825,24 C12.2816916,30.9232472 17.7021435,35.6153272 22.7456637,38.07624 C27.789184,40.5371528 35.9359843,42.0709443 47.1860649,42.6776147 C49.7985407,73.061401 50.1837622,91.3083249 48.3417295,97.4183862 C42.4002909,117.126263 38.0687299,125.06181 37.6070555,125 C37.2162144,124.946461 23.5874775,111.198558 17.9037514,92.3605728 C15.7118817,85.0959006 10.6730288,70.7959383 8.4788046,53.6560138 C7.14914037,43.2694979 6.48430825,33.38416 6.48430825,24 Z" id="Rectangle" stroke="#89C3EA" stroke-width="3" stroke-linejoin="round"></path>
            <circle id="Oval" fill="#ACD3EF" cx="35.4843083" cy="111" r="1"></circle>
            <circle id="Oval" fill="#ACD3EF" cx="34.4843083" cy="105" r="1"></circle>
            <circle id="Oval" fill="#ACD3EF" cx="28.4843083" cy="101" r="1"></circle>
            <circle id="Oval" fill="#ACD3EF" cx="32.4843083" cy="94" r="1"></circle>
            <circle id="Oval" fill="#ACD3EF" cx="20.4843083" cy="75" r="1"></circle>
            <circle id="Oval" fill="#ACD3EF" cx="24.4843083" cy="62" r="1"></circle>
            <circle id="Oval" fill="#ACD3EF" cx="16.4843083" cy="60" r="1"></circle>
            <circle id="Oval" fill="#ACD3EF" cx="29.4843083" cy="54" r="1"></circle>
            <circle id="Oval" fill="#ACD3EF" cx="12.4843083" cy="37" r="1"></circle>
            <circle id="Oval" fill="#ACD3EF" cx="16.4843083" cy="25" r="1"></circle>
            <circle id="Oval" fill="#ACD3EF" cx="14.4843083" cy="51" r="1"></circle>
            <circle id="Oval" fill="#ACD3EF" cx="10.9843083" cy="20.5" r="1.5"></circle>
            <circle id="Oval" fill="#ACD3EF" cx="23.9843083" cy="84.5" r="1.5"></circle>
            <path d="M40.1552473,187.327303 C39.7465863,188.804533 39.8887111,190.811999 39.3183174,193.273339 C39.0813085,194.29607 38.48383,196.008591 37.5258819,198.410902" id="Path-4" stroke="#5563B6" stroke-width="4" stroke-linecap="round"></path>
            <path d="M52.1552473,185.327303 C51.7465863,186.804533 51.8887111,188.811999 51.3183174,191.273339 C51.0813085,192.29607 50.48383,194.008591 49.5258819,196.410902" id="Path-4" stroke="#5563B6" stroke-width="4" stroke-linecap="round" transform="translate(50.840565, 190.869102) scale(-1, 1) rotate(7.000000) translate(-50.840565, -190.869102) "></path>
        </g>
        <path d="M48.7907601,154.707265 C53.9041542,148.450008 51.6126735,134.141316 49.8997836,126.932151 C52.9464389,126.500769 54.8318132,126.192687 57.3753605,125.088446 C59.8912422,123.995817 60.694917,122.310935 59.9732151,120.485674 C59.0151577,118.062695 56.7247015,117.923 53.1295117,118.237912 C49.1323136,118.588004 40.3451719,119.425493 36.2304792,120.16154 C36.0361057,120.196289 35.8400499,120.229364 35.6434187,120.261761 L35.0529059,120.357921 C32.4305721,120.785146 29.902729,121.26948 30.0931081,124.17684 C30.2898429,127.183876 32.9382474,127.744365 35.8827783,127.99609 C36.5383328,128.052105 37.4911905,128.034648 38.4703098,127.986476 L38.9608031,127.960028 C40.758101,127.855121 42.4918339,127.670931 42.4918339,127.670931 C42.4918339,127.670931 43.8382368,134.128679 44.1538323,137.569145 C44.4588395,140.894166 45.5364401,146.472414 42.995625,148.921693 C40.9521114,150.891772 37.0399599,147.878247 33.991597,146.118907 C31.6492248,144.76738 29.3676488,145.227452 28.1308844,147.920259 C27.2452367,149.848327 27.9621573,151.563266 30.3639602,153.417218 C36.930322,158.486893 44.5011917,159.956255 48.7907601,154.707265 Z M96.0935104,157.598869 C97.6305001,156.915762 99.0035441,154.051496 97.9153557,151.9062 C93.9304542,144.050474 92.3032945,139.77935 90.2304072,135.625379 C87.7076945,130.570732 83.6397949,119.401598 79.0728856,119.401598 C74.1203629,119.401598 72.0877793,125.086411 70.4483236,129.751004 C68.3785105,135.637675 65.9975429,141.430077 63.8700073,147.463275 C63.0195393,149.875665 61.9286182,153.327403 63.7460232,154.882495 C64.5510641,155.571408 66.9730185,156.036945 68.4276944,154.809403 C70.1685688,153.340724 72.147086,147.584176 72.3195154,147.075384 L72.3316482,147.039407 L72.3316482,147.039407 L86.6738122,146.881951 C86.6738122,146.881951 87.5969841,148.786083 88.5942086,150.819674 L88.9549412,151.554293 C89.7170462,153.104013 90.46307,154.605503 90.8202694,155.279722 C92.1902397,157.865963 93.9912498,158.533017 96.0935104,157.598869 Z M74.8605083,139.382465 C75.7318109,136.989884 78.1052645,130.274605 78.7883709,128.168246 C79.5455947,129.703528 82.9044297,137.331438 83.8720503,139.380758 C81.5382168,139.437797 76.7626183,139.380757 74.8605083,139.382465 Z M136.786305,154.691909 C138.760483,150.118852 138.364623,126.628525 138.283674,122.911742 C138.237906,120.807774 138.258741,118.121116 134.721273,118.08955 C132.244329,118.068176 131.243578,120.475785 130.842253,123.260811 C130.656638,124.549362 130.55917,128.99244 130.474929,133.680787 L130.458235,134.620864 C130.378186,139.172046 130.305829,143.771181 130.173491,145.790349 C128.246136,143.64564 125.927435,140.475348 123.614766,137.210014 L123.036954,136.392239 C119.18878,130.934386 115.449345,125.427933 113.658364,124.180953 C110.470647,121.960856 108.466754,121.88913 106.25144,122.840698 C103.924096,123.8394 102.584866,126.561921 102.501185,128.450369 C102.424568,130.181419 102.25494,138.684702 102.245632,145.718948 L102.245632,146.608321 C102.24747,149.102003 102.271729,151.357614 102.330409,152.985167 C102.397695,154.848681 102.785699,157.937689 106.201232,157.961939 C109.049104,157.981749 109.50337,154.408419 109.648188,152.419554 C109.934334,148.490333 110.0043,142.933382 110.009561,138.504392 L110.009284,137.169141 C110.006367,135.301566 109.993597,133.717941 109.984618,132.666503 C112.9756,136.476871 124.019384,152.017546 126.494621,154.490733 C126.799333,154.795093 127.077904,155.117406 127.354071,155.438477 L127.630314,155.758423 C128.600516,156.871809 129.638183,157.891591 131.761031,157.994728 C133.685684,158.088314 135.802972,156.970069 136.786305,154.691909 Z M172.12047,141.319757 C172.648513,135.848071 172.82612,129.154309 171.641272,123.769722 C171.077709,121.210122 169.10763,120.35009 167.278953,120.585421 C165.183865,120.854906 164.735065,122.620395 164.553016,124.405694 C164.168769,128.170295 167.664567,149.722307 157.664228,149.748948 C150.678917,149.767392 151.67962,132.062837 151.69838,126.269855 L151.698078,125.901629 C151.695473,125.435056 151.683534,125.067802 151.655964,124.820682 C151.273083,121.389779 149.818748,119.770133 146.974634,120.531456 C143.767107,121.389438 143.957011,124.961744 143.827563,127.624835 C143.503087,134.28649 143.985702,145.438547 147.205866,151.370303 C148.936516,154.558361 153.000318,157.652151 157.623241,157.973553 C166.139189,158.564782 171.372127,149.074041 172.12047,141.319757 Z M209.82751,157.598869 C211.3645,156.915762 212.737544,154.051496 211.649356,151.9062 C207.664454,144.050474 206.037295,139.77935 203.964407,135.625379 C201.441694,130.570732 197.373795,119.401598 192.806886,119.401598 C187.854363,119.401598 185.821779,125.086411 184.182324,129.751004 C182.112511,135.637675 179.731543,141.430077 177.604007,147.463275 C176.753539,149.875665 175.662618,153.327403 177.480023,154.882495 C178.285064,155.571408 180.707018,156.036945 182.161694,154.809403 C183.902569,153.340724 185.881086,147.584176 186.053515,147.075384 L186.065648,147.039407 L186.065648,147.039407 L200.407812,146.881951 C200.407812,146.881951 201.330984,148.786083 202.328209,150.819674 L202.688941,151.554293 C203.451046,153.104013 204.19707,154.605503 204.554269,155.279722 C205.92424,157.865963 207.72525,158.533017 209.82751,157.598869 Z M188.594508,139.382465 C189.465811,136.989884 191.839264,130.274605 192.522371,128.168246 C193.279595,129.703528 196.63843,137.331438 197.60605,139.380758 C195.272217,139.437797 190.496618,139.380757 188.594508,139.382465 Z M219.895557,158.000191 C221.688712,158.000191 223.282741,156.178688 223.487331,154.110583 C223.884899,150.085719 223.567255,146.728933 223.671087,143.6167 C227.57026,146.956409 230.227544,149.887961 235.050277,153.051427 C237.592458,154.718548 241.082792,156.59231 243.218183,155.182378 C246.451326,153.04767 244.362044,150.080255 242.826079,148.868424 C237.371815,144.565877 232.488627,140.548527 232.488627,140.548527 C232.488627,140.548527 240.946853,137.051021 241.053418,128.704141 C241.118654,123.617047 238.499965,118.294621 227.108139,118.339759 C223.627028,118.35371 218.348322,118.607826 217.082866,120.305687 C216.126517,121.588663 215.998517,128.034949 215.988792,132.704159 L215.988713,134.044669 C215.989567,134.575218 215.991159,135.067156 215.992103,135.506927 L215.992414,136.455277 C215.992218,136.524803 215.991952,136.591808 215.991604,136.656185 C215.985167,137.850794 215.980463,139.262254 215.979645,140.787011 L215.979946,142.119276 C215.983779,145.958954 216.014159,150.292345 216.101925,153.636165 C216.148718,155.424197 217.419296,158.000191 219.895557,158.000191 Z M223.603118,134.784815 L223.601069,126.70947 C223.601069,126.70947 223.655516,126.692739 223.755991,126.664707 L223.898116,126.625991 C225.339194,126.242232 231.57364,124.8328 232.574699,128.865696 C233.980873,134.528991 223.603118,134.784473 223.603118,134.784815 Z M267.408523,151.888916 L267.408261,151.458262 C267.40546,150.666937 267.392545,149.868227 267.413144,149.103142 C267.43714,148.205278 267.447313,146.961915 267.449256,145.615056 L267.449356,144.669054 C267.445646,141.374138 267.402483,137.808265 267.395725,137.25295 C268.011886,136.581798 277.338682,126.414099 278.841858,124.043719 C279.725115,122.650865 280.42974,119.977869 277.475645,118.578867 C275.853266,117.81037 273.871574,118.12699 272.38001,119.973427 C269.925267,123.011543 265.439648,128.034427 263.543344,129.903065 C261.64704,128.034427 257.161079,123.011544 254.706336,119.973428 C253.214773,118.126991 251.233081,117.810371 249.610703,118.578866 C246.656608,119.97821 247.361233,122.650864 248.24449,124.043718 C248.917294,125.104741 251.158339,127.728821 253.483995,130.364085 L254.206824,131.180567 C257.015616,134.343807 259.724096,137.289497 259.724096,137.289497 L259.724958,137.32861 C259.732892,137.689752 259.794128,140.496783 259.846033,143.450567 L259.85699,144.084929 C259.889295,145.989727 259.915895,147.887304 259.920151,149.166848 L259.92034,149.75229 C259.919528,149.987082 259.917476,150.186327 259.914,150.343322 C259.841591,153.592518 260.045498,157.917949 263.486989,157.998214 C267.08752,158.081954 267.399035,155.109624 267.408523,151.888916 Z" id="January" fill="#5563B6" fill-rule="nonzero"></path>
        <path d="M422.350715,59.7395478 C422.50735,59.8677611 422.608043,59.9666842 422.642786,59.9981849 C422.645141,60.0042639 422.642197,59.9926584 422.642786,59.9981849 C422.642786,59.9992902 422.643375,59.9976322 422.643375,59.9976322 C418.839983,58.0666967 416.250803,59.5361751 413.311257,59.1896678 C413.270626,59.1780623 413.224696,59.1686674 413.172288,59.1609304 C413.106926,59.1520881 413.040386,59.1393773 412.975612,59.1244559 C412.201272,58.9420836 411.475218,58.3303076 410.824538,57.454368 C410.821005,57.4499469 410.81806,57.4455257 410.814527,57.440552 C410.759175,57.3687083 410.706767,57.2929962 410.65436,57.2178367 C410.65436,57.2178367 410.653771,57.2156262 410.652004,57.2150735 C410.55661,57.0758074 410.461805,56.9282517 410.368767,56.7784854 C410.359345,56.7630113 410.348746,56.74809 410.339324,56.732616 C410.315181,56.6900624 410.290449,56.6475089 410.265129,56.6060607 C410.239219,56.5624018 410.21331,56.5198483 410.188578,56.4772948 C410.163846,56.4325307 410.139703,56.3894245 410.116149,56.3463183 C410.09024,56.3010016 410.066097,56.2562375 410.040776,56.2109207 C410.0237,56.1805254 410.006623,56.1473668 409.988957,56.1142082 C409.332977,54.8807085 408.800066,53.3990719 408.41908,51.9224092 C408.41908,51.9224092 408.410247,51.9080405 408.41908,51.9224092 C409.848222,52.6535562 411.335072,53.2542794 412.589914,53.5858654 C414.101496,53.9865317 415.994064,54.1545353 417.81126,54.074402 C418.367724,52.4501835 418.689237,50.6933306 418.673338,49.2188785 C418.658617,47.9859314 418.437209,46.4937947 418.050922,45 C418.169281,45.0602381 418.286463,45.1226868 418.404822,45.1840302 C418.438975,45.2028201 418.473718,45.2221626 418.509049,45.2415051 C418.592666,45.2862692 418.676282,45.3304807 418.758722,45.378008 C418.796997,45.3979031 418.835861,45.4200089 418.873548,45.4415619 C418.957165,45.4885366 419.039015,45.5349587 419.121454,45.582486 C419.15443,45.6018285 419.188583,45.621171 419.222148,45.6399609 C419.325786,45.7013043 419.428835,45.762095 419.530706,45.8239911 C419.541305,45.8295175 419.551905,45.8355966 419.561326,45.8422283 C419.680274,45.912414 419.797456,45.9859155 419.914048,46.0588644 C419.92347,46.0638382 419.931714,46.07047 419.941135,46.0759964 C420.04654,46.1423136 420.148411,46.2080781 420.25146,46.274948 C420.273248,46.2882114 420.293269,46.3031328 420.314467,46.3158436 C420.408095,46.377187 420.500544,46.4396356 420.593583,46.5020843 C420.610659,46.5147951 420.627736,46.5275059 420.646579,46.5396641 C420.753161,46.612613 420.858566,46.6855619 420.962204,46.7596161 C420.962204,46.7596161 420.963381,46.7607214 420.964559,46.7607214 C421.294905,46.9989106 421.610529,47.2404157 421.90731,47.4852366 C421.911432,47.4879999 421.914965,47.4913157 421.919087,47.4935263 C422.412545,47.9046929 422.85065,48.3235964 423.211027,48.7413947 C423.263435,48.8027381 423.314076,48.8640815 423.362951,48.9248723 C423.364718,48.9276355 423.367662,48.9287408 423.368839,48.9309514 L423.368839,48.9320566 C423.414181,48.987321 423.457756,49.0431379 423.498387,49.097297 L423.498976,49.0989549 C423.500742,49.1006128 423.50192,49.103376 423.503098,49.105034 C423.548439,49.1641668 423.592014,49.2232996 423.632056,49.2829851 L423.632645,49.2829851 C423.637945,49.2912748 423.642067,49.2984591 423.647955,49.3073014 C423.648544,49.3084067 423.649722,49.307854 423.649722,49.3089593 C423.702718,49.3852241 423.752771,49.4625942 423.798701,49.537201 C423.805767,49.5510171 423.812833,49.5631752 423.820489,49.5747807 C423.823433,49.5792019 423.825199,49.5841757 423.82991,49.5891495 C423.880551,49.6753618 423.928248,49.7615741 423.970646,49.8488918 C424.001855,49.9085772 424.028942,49.9688154 424.05544,50.0290535 C424.06604,50.0550277 424.075461,50.0798967 424.085472,50.1047656 C424.100782,50.1423453 424.113737,50.1788198 424.128458,50.2163995 C424.137879,50.2429264 424.145535,50.2700059 424.154367,50.2987434 C424.166144,50.3324546 424.176155,50.3678238 424.186165,50.4020877 C424.19382,50.4291672 424.200298,50.4556941 424.206186,50.4838789 C424.215019,50.5181427 424.222674,50.5524066 424.22974,50.5872231 C424.234451,50.6131974 424.238573,50.6408295 424.243284,50.6673564 C424.248584,50.7027256 424.252117,50.7392 424.257416,50.7734639 C424.260361,50.7983329 424.262127,50.8232018 424.263894,50.8469655 C424.266249,50.8867558 424.266838,50.9254408 424.267427,50.9663364 C424.267427,50.984021 424.268016,51.0050214 424.267427,51.0249166 C424.266838,51.0846021 424.262127,51.1431822 424.255061,51.2006571 C424.250939,51.2404475 424.248584,51.2747113 424.248584,51.3067646 C423.849931,54.0677703 421.668825,56.0589439 422.642786,59.9981849" id="Fill-583" fill="#9452BA"></path>
        <g id="Group-4" transform="translate(288.504044, 38.581056)">
            <path d="M49.4106323,0.418943786 C70.4853354,5.87502614 78.9161266,10.0293843 93.4906765,11.9685383 C93.7925735,32.6936824 81.0973606,73.6056857 68.4847444,95.0992083 C59.8284407,109.850665 54.6643793,107.196524 46.9406537,120.198516 C40.2956446,131.384613 34.5368985,171.116074 34.5368985,178.005083 C34.5368985,184.894092 55.4959565,187.091222 52.2150472,192.941189 C46.51598,203.102809 0.535540141,187.091222 0.535540141,178.005083 C0.535540141,168.918944 18.2161291,179.666917 23.7116207,173.795236 C29.0865151,168.052407 33.7380391,131.797255 36.8552857,120.198516 C39.8599354,109.01873 31.0812533,93.8272149 31.0812533,80.0735103 C31.0812533,44.7314651 43.8963061,10.0293843 49.4106323,0.418943786 Z" id="Rectangle" stroke="#5563B6" stroke-width="5" fill="#FFFFFF" stroke-linejoin="round"></path>
            <path d="M45.2945487,22.4189438 C56.5110408,25.5659534 65.6727345,27.532744 72.7796298,28.3193157 C79.8865252,29.1058874 84.458634,28.6591078 86.4959565,26.978977 C81.2908418,48.3655638 76.718733,63.4519947 72.7796298,72.2382696 C69.6435481,79.2333838 66.4101171,88.5843878 58.6393,97.7224375 C56.6495136,100.062316 45.4201114,112.566267 44.3200143,112.41763 C43.2199171,112.268992 35.978088,88.4723008 36.5254381,74.0006896 C36.7610045,67.7724528 37.3040698,57.7247393 40.0204024,45.1458945 C40.7025686,41.9869065 41.6693249,35.9408094 43.4643491,29.915361 C44.0117952,28.0777209 44.6218617,25.5789152 45.2945487,22.4189438 Z" id="Rectangle" stroke="#89C3EA" stroke-width="3" stroke-linejoin="round"></path>
            <circle id="Oval" fill="#ACD3EF" cx="46.4959565" cy="99.4189438" r="1"></circle>
            <circle id="Oval" fill="#ACD3EF" cx="45.4959565" cy="93.4189438" r="1"></circle>
            <circle id="Oval" fill="#ACD3EF" cx="49.4959565" cy="88.4189438" r="1"></circle>
            <circle id="Oval" fill="#ACD3EF" cx="41.4959565" cy="77.4189438" r="1"></circle>
            <circle id="Oval" fill="#ACD3EF" cx="45.4959565" cy="70.4189438" r="1"></circle>
            <circle id="Oval" fill="#ACD3EF" cx="46.4959565" cy="79.4189438" r="1"></circle>
            <circle id="Oval" fill="#ACD3EF" cx="48.9959565" cy="63.9189438" r="1.5"></circle>
            <circle id="Oval" fill="#ACD3EF" cx="60.9959565" cy="20.9189438" r="1.5"></circle>
            <circle id="Oval" fill="#ACD3EF" cx="55.4959565" cy="59.4189438" r="1"></circle>
            <circle id="Oval" fill="#ACD3EF" cx="54.4959565" cy="54.4189438" r="1"></circle>
            <circle id="Oval" fill="#ACD3EF" cx="59.9959565" cy="46.9189438" r="1.5"></circle>
            <circle id="Oval" fill="#ACD3EF" cx="55.4959565" cy="41.4189438" r="1"></circle>
            <circle id="Oval" fill="#ACD3EF" cx="63.4959565" cy="38.4189438" r="1"></circle>
            <circle id="Oval" fill="#ACD3EF" cx="61.4959565" cy="31.4189438" r="1"></circle>
            <circle id="Oval" fill="#ACD3EF" cx="67.4959565" cy="18.4189438" r="1"></circle>
            <circle id="Oval" fill="#ACD3EF" cx="54.4959565" cy="18.4189438" r="1"></circle>
            <path d="M24.5374141,172.41336 C23.8740441,174.811313 22.1929957,177.699905 19.4942688,181.079133" id="Path-4" stroke="#5563B6" stroke-width="4" stroke-linecap="round"></path>
            <path d="M38.7825947,165.624067 C38.342359,167.215434 33.6664358,177.817447 32.0298143,180.75788 C31.4767978,181.751456 30.7371051,182.935212 29.8107361,184.309148" id="Path-4" stroke="#5563B6" stroke-width="4" stroke-linecap="round" transform="translate(34.296665, 174.966607) scale(-1, 1) rotate(-32.000000) translate(-34.296665, -174.966607) "></path>
        </g>
    </g>
</svg>