<svg width="256" height="256" viewBox="0 0 256 256" xmlns="http://www.w3.org/2000/svg" xmlns:xlink="http://www.w3.org/1999/xlink"><title>Products_What-is-a-project</title><defs><path id="a" d="M0 198.637h252.14V0H0z"/></defs><g transform="translate(2 29)" fill="none" fill-rule="evenodd"><path d="M21.2041 197.5618c0-57.193 46.364-103.558 103.558-103.558 57.192 0 103.558 46.365 103.558 103.558H21.2041z" fill="#E1F2FF"/><path d="M176.937 187.0276h4.979c1.712 0 3.266-1.047 3.886-2.643 1.768-4.55 1.327-8.732 1.538-12.307.392-6.626-.643-10.02-1.631-15.561l-7.474.173s.636 2.753 1.058 11.011c.132 2.556-4.09 12.819-3.893 17.854.033.826.711 1.473 1.537 1.473" fill="#9452BA"/><path d="M179.4204 157.6624c.228 1.511.595 4.584.872 9.987.061 1.184-.542 3.311-1.53 6.683-1.101 3.756-2.471 8.429-2.363 11.184.011.286.248.511.538.511h4.979c1.301 0 2.487-.805 2.954-2.005 1.294-3.333 1.344-6.412 1.393-9.39.014-.903.029-1.775.079-2.614.311-5.28-.3-8.437-1.073-12.434-.127-.657-.259-1.336-.391-2.048l-5.458.126zm2.496 30.365h-4.979c-1.368 0-2.482-1.068-2.537-2.432-.121-3.082 1.241-7.727 2.442-11.826.737-2.513 1.499-5.113 1.452-6.017-.41-8.018-1.028-10.813-1.034-10.839l-.271-1.193 9.554-.223.15.844c.181 1.015.364 1.959.539 2.863.769 3.972 1.433 7.401 1.106 12.932-.048.812-.062 1.656-.075 2.528-.049 3.008-.105 6.416-1.529 10.083-.762 1.962-2.699 3.28-4.818 3.28z" fill="#52267D"/><path d="M162.4429 163.3597l-6.012-6.818-3.712.147s-.52 5.672-.734 8.047c-.376 4.186-2.11 12.387-3.176 15.987-.346 1.171-.549 2.265-.604 3.257-.094 1.669 1.299 3.048 2.97 3.048l4.412.001c2.569 0 4.853-1.715 5.484-4.205 1.966-7.754 1.372-19.464 1.372-19.464" fill="#9452BA"/><path d="M153.6353 157.6536c-.154 1.684-.492 5.373-.654 7.172-.37 4.116-2.076 12.338-3.213 16.182-.323 1.091-.514 2.111-.566 3.028-.027.502.153.986.509 1.362.378.401.912.63 1.464.63l4.411.001c2.144 0 4-1.419 4.515-3.45 1.721-6.788 1.434-16.841 1.357-18.823l-5.463-6.196-2.36.094zm1.951 30.375l-4.411-.001c-1.1 0-2.163-.458-2.917-1.256-.738-.78-1.111-1.792-1.052-2.847.06-1.073.277-2.246.644-3.486 1.089-3.679 2.785-11.852 3.139-15.793.213-2.375.734-8.049.734-8.049l.08-.873 5.063-.201 6.558 7.438.018.348c.024.485.578 11.95-1.402 19.761-.74 2.92-3.393 4.959-6.454 4.959z" fill="#52267D"/><path d="M153.3735 168.9329l.294.265-.023-.501-.271.236zm.412.372l.214.192 1.154-.443-.113-.249-.799.189.015.288-.471.023zm.107.769l-1.271-1.145 1.203-1.057.33.375-.394.347 1.565-.371.504 1.108-1.937.743z" fill="#52267D"/><path d="M154.0249 137.9729c4.38-.09 8.484-3.105 17.421-3.518.129-.584.286-1.111.486-1.544 1.617-3.501 3.9-13.593 2.434-20.222l-1.16-5.245c-.381-1.722-.573-3.479-.573-5.242 0-.734.075-1.451.216-2.143.035-.173.075-.345.119-.515.131-.509.299-1.005.501-1.482.068-.158.138-.316.213-.471.15-.309.314-.611.491-.904.178-.292.369-.575.574-.849.612-.818 1.34-1.547 2.159-2.159.272-.204.556-.395.848-.573 1.609-.978 3.497-1.54 5.516-1.54h1.744c2.937 0 5.596 1.19 7.521 3.115.241.241.469.493.686.756.395.477.745.991 1.052 1.533.115.203.227.409.328.621.075.155.147.313.214.471.201.477.369.973.501 1.482.131.51.226 1.034.279 1.571.037.358.056.72.056 1.087 0 .733-.297 1.396-.777 1.875-.48.481-1.143.777-1.875.777h-10.89l1.648 9.452c1.935 9.71 1.353 16.204-.145 20.532-.334.966-2.236 4.386-2.236 4.386 5.445 8.593 13.795 12.349 22.724 13.438 7.592.927 23.979-5.995 15.53-14.002-8.449-8.008 1.76-3.03 3.263-2.016 1.503 1.014 10.193 8.522.762 19.539-3.987 4.658-8.505 8.894-19.375 12.141-1.742.52-11.255 1.211-16.375 2.681-15.246 4.376-27.64-.382-34.585-10.446-6.918-10.023-1.024-22.551.705-22.586" fill="#9452BA"/><path d="M154.1899 138.969c-.481.377-1.812 2.458-2.597 5.873-.737 3.21-1.386 9.446 2.55 15.148 7.198 10.431 19.404 14.095 33.485 10.054 3.267-.937 8.258-1.563 11.903-2.019 1.999-.251 3.887-.488 4.463-.66 10.884-3.251 15.152-7.453 18.901-11.833 3.116-3.639 4.462-7.207 4.002-10.602-.536-3.954-3.476-6.724-4.563-7.457-.791-.534-3.035-1.613-4.442-2.074.425.527 1.159 1.334 2.426 2.535 3.279 3.107 2.951 5.918 2.099 7.727-2.519 5.347-12.966 8.665-18.438 7.994-10.53-1.286-18.42-5.96-23.448-13.896l-.319-.502.29-.519c.718-1.293 1.943-3.583 2.165-4.227 1.725-4.984 1.762-11.717.11-20.01l-1.858-10.647h12.08c.442 0 .856-.172 1.167-.483.313-.313.485-.727.485-1.169 0-.332-.017-.66-.051-.985-.048-.477-.133-.956-.253-1.424-.117-.456-.27-.908-.454-1.343-.059-.14-.124-.283-.192-.423-.093-.195-.194-.38-.298-.564-.281-.498-.602-.965-.952-1.39-.198-.238-.405-.466-.623-.685-1.821-1.82-4.241-2.822-6.814-2.822h-1.744c-1.768 0-3.495.482-4.996 1.394-.266.161-.522.334-.769.52-.742.554-1.401 1.213-1.958 1.957-.186.249-.358.506-.519.769-.161.265-.31.539-.445.82-.069.141-.132.284-.194.427-.182.433-.335.884-.452 1.34-.04.155-.076.31-.108.465-.13.636-.196 1.289-.196 1.944 0 1.689.185 3.38.549 5.026l1.16 5.245c1.516 6.854-.823 17.222-2.502 20.857-.155.335-.296.785-.418 1.341l-.165.748-.765.035c-5.028.232-8.546 1.327-11.373 2.207-2.136.665-3.988 1.243-5.929 1.308m22.82 34.641c-10.138.001-18.892-4.338-24.513-12.483-5.515-7.99-3.341-17.243-1.188-21.45 1.371-2.677 2.368-2.697 2.695-2.704 1.711-.035 3.392-.559 5.52-1.221 2.797-.871 6.245-1.944 11.133-2.255.11-.38.232-.713.368-1.006 1.536-3.327 3.764-13.257 2.364-19.586l-1.16-5.246c-.395-1.787-.596-3.623-.596-5.457 0-.789.079-1.578.237-2.343.038-.19.082-.378.131-.565.14-.551.325-1.096.547-1.622.075-.175.152-.347.234-.516.163-.338.343-.667.537-.988.194-.321.403-.631.628-.929.671-.898 1.466-1.692 2.36-2.361.298-.222.608-.432.929-.627 1.813-1.102 3.9-1.685 6.034-1.685h1.744c3.108 0 6.03 1.21 8.228 3.408.263.264.513.539.751.826.425.515.811 1.079 1.15 1.678.126.221.248.448.36.68.081.167.159.339.232.512.223.528.407 1.073.549 1.624.146.568.249 1.146.306 1.721.04.389.061.785.061 1.187 0 .977-.38 1.894-1.071 2.583-.687.689-1.605 1.069-2.581 1.069h-9.701l1.445 8.28c1.718 8.623 1.657 15.707-.186 21.031-.281.812-1.451 2.985-2.016 4.018 4.705 7.104 11.997 11.305 21.68 12.487 5.203.63 14.429-2.703 16.386-6.86.843-1.79.299-3.565-1.664-5.425-3.345-3.17-4.186-4.599-3.332-5.663 1.488-1.853 7.779 2.052 7.842 2.093 1.609 1.086 4.814 4.331 5.425 8.846.541 3.986-.961 8.08-4.463 12.172-3.794 4.432-8.452 9.044-19.849 12.448-.735.22-2.435.433-4.786.728-3.58.448-8.482 1.063-11.599 1.957-3.844 1.104-7.595 1.644-11.171 1.644" fill="#52267D"/><path d="M163.4849 123.5022c.35-11.26-8.588-20.109-18.744-21.979-2.109-.388-2.795-1.05-5.102-1.05h-1.766c-5.951 0-10.777 4.825-10.777 10.776 0 1.483 1.203 2.687 2.687 2.687 0 0 18.119-.005 18.204-.014.002.001 1.477.002 1.477.002-.001.002-1.478.003-1.481.005 4.008 1.7 6.501 6.821 6.941 9.573.626 3.918.167 7.15-1.169 9.765-.891 1.741-.992 3.839-.855 5.537 0 0 .043.015.104.036.063.908.21 1.941.48 3.12 1.706-1.189 4.36-2.979 4.845-3.234 1.047-.553 3.41-1.811 4.468-2.417 6.759-3.875.489-6.403.688-12.807" fill="#9452BA"/><path d="M153.8589 138.0735l.013.004.13.693c.033.482.09.983.171 1.499 1.464-1.002 3.234-2.187 3.689-2.427 1.179-.623 3.439-1.83 4.437-2.401 3.43-1.967 2.941-3.051 1.757-5.67-.736-1.631-1.653-3.66-1.571-6.301.354-11.408-8.971-19.316-17.925-20.964-.864-.16-1.51-.362-2.078-.54-.877-.276-1.568-.494-2.843-.494h-1.766c-5.391 0-9.777 4.386-9.777 9.777 0 .929.757 1.686 1.687 1.686 6.129-.002 17.816-.007 18.177-.013l.246-.004.009.005c.408 0 1.244.001 1.25.001l2.413.001-1.363 1.363c3.067 2.397 4.99 6.515 5.397 9.056.638 3.995.212 7.486-1.267 10.377-.701 1.372-.832 3.029-.786 4.352zm-1.019 5.555l-.331-1.445c-.207-.903-.356-1.782-.445-2.62l-.108-.04-.053-.639c-.193-2.405.13-4.448.961-6.073 1.282-2.507 1.642-5.585 1.073-9.151-.361-2.256-2.538-7.078-6.18-8.738-.896.005-4.334.009-17.974.013-2.033 0-3.687-1.653-3.687-3.686 0-6.493 5.284-11.777 11.777-11.777h1.766c1.581 0 2.486.285 3.443.585.539.169 1.096.345 1.839.482 9.775 1.8 19.953 10.47 19.564 22.994-.068 2.177.709 3.897 1.395 5.415 1.189 2.635 2.419 5.358-2.586 8.228-1.257.721-4.17 2.26-4.498 2.434-.386.203-2.823 1.833-4.74 3.17l-1.216.848z" fill="#52267D"/><path d="M157.7144 136.512c-.089-1.738-.355-2.631-.16-3.339 1.123-4.073 1.488-5.359 1.488-9.671 0-4.285-2.483-8.52-6.148-10.773-.201-.124-2.84-.31-4.91 1.2 4.006 1.701 6.5 6.821 6.939 9.573.627 3.918.168 7.151-1.169 9.765-.891 1.741-.991 3.839-.853 5.537 0 0 4.915 1.846 4.813-2.292" fill="#F3E3FF"/><path d="M153.3765 138.4349c.798.238 2.319.519 3.157-.08.472-.336.701-.95.681-1.824-.033-.647-.092-1.174-.141-1.617-.086-.78-.148-1.342-.002-1.874l.031-.107c1.106-4.014 1.44-5.225 1.44-9.431 0-4.079-2.32-8.14-5.91-10.347-.148-.031-1.93-.145-3.618.725 3.651 2.055 5.96 6.772 6.403 9.543.621 3.887.212 7.276-1.218 10.072-.812 1.587-.908 3.506-.823 4.94m1.756 1.277c-1.215 0-2.335-.413-2.407-.44l-.297-.111-.026-.317c-.129-1.588-.076-3.884.907-5.805 1.331-2.603 1.708-5.785 1.12-9.458-.457-2.866-3.02-7.654-6.641-9.192l-.811-.345.712-.519c2.17-1.582 5.028-1.491 5.467-1.222 3.879 2.385 6.386 6.78 6.386 11.199 0 4.341-.372 5.691-1.477 9.697l-.029.107c-.096.347-.045.805.031 1.498.051.461.112 1.01.146 1.683l.001.012c.03 1.232-.341 2.13-1.103 2.672-.575.409-1.292.541-1.979.541" fill="#52267D"/><path d="M132.2183 102.304s-.004-1.882 1.866-2.63c.571-.228 1.613-.652 1.613-.652s1.114 2.355-.149 2.949c-1.816.855-3.33.333-3.33.333" fill="#FFF"/><path d="M132.769 101.9143c.513.076 1.482.113 2.566-.396.128-.06.207-.149.257-.29.151-.417-.011-1.085-.173-1.555l-1.149.465c-1.057.422-1.394 1.275-1.501 1.776m.622 1.048c-.783 0-1.298-.173-1.336-.186l-.336-.116-.001-.355c0-.091.021-2.232 2.181-3.095l2.048-.83.202.428c.08.168.77 1.684.385 2.758-.14.389-.407.685-.773.857-.894.422-1.723.539-2.37.539" fill="#52267D"/><path d="M136.8999 100.9807s.053-2.564 2.938-2.938c.538-.07 1.942-.037 1.942-.037s.647 2.714-.873 2.975c-1.87.32-4.007 0-4.007 0" fill="#FFF"/><path d="M137.4663 100.5432c.72.072 2.111.158 3.356-.056.169-.028.286-.103.378-.244.275-.414.235-1.221.162-1.744-.485-.005-1.156 0-1.461.039-1.755.228-2.279 1.36-2.435 2.005m1.564 1.08c-1.193 0-2.145-.14-2.205-.148l-.434-.065.009-.44c.021-1.035.754-3.084 3.373-3.424.559-.072 1.872-.041 2.018-.04l.385.009.09.375c.046.192.429 1.905-.231 2.904-.244.369-.604.603-1.044.68-.658.112-1.341.149-1.961.149" fill="#52267D"/><path d="M142.6362 101.2259s.38-2.844 2.935-2.062c1.09.334 1.697 1.164 1.697 1.164s-.509 2.165-1.526 1.921c-1.774-.424-3.106-1.023-3.106-1.023" fill="#FFF"/><path d="M143.2183 100.9261c.508.202 1.481.56 2.641.837.04.009.081.009.146-.03.284-.176.563-.796.71-1.28-.216-.225-.663-.618-1.291-.81-.584-.181-1.047-.151-1.417.087-.449.288-.68.833-.789 1.196m2.682 1.842c-.091 0-.183-.011-.274-.032-1.8-.431-3.138-1.029-3.195-1.054l-.34-.152.05-.371c.008-.063.22-1.561 1.326-2.271.624-.4 1.381-.467 2.25-.202 1.235.379 1.926 1.306 1.954 1.346l.136.186-.053.224c-.039.166-.404 1.636-1.223 2.141-.2.123-.414.185-.631.185" fill="#52267D"/><path d="M150.0542 115.0315s5.956-3.237 4.823-8.686c.791.652 2.905 2.638 3.671 3.655 0 1.066.196 5.302-5.652 8.138-1.029-1.066-1.896-2.397-2.842-3.107" fill="#FFF"/><path d="M150.8911 115.096c.421.408.824.897 1.244 1.406.282.342.572.693.871 1.023 4.973-2.558 5.047-6.085 5.043-7.352-.554-.69-1.649-1.776-2.53-2.592.069 3.929-3.24 6.578-4.628 7.515zm1.896 3.651l-.251-.261c-.416-.431-.8-.897-1.172-1.347-.556-.674-1.081-1.311-1.61-1.707l-.622-.467.683-.373c.056-.03 5.615-3.131 4.573-8.144l-.289-1.391 1.096.903c.845.696 2.964 2.694 3.753 3.74l.1.133V110c.019 3.814-1.978 6.67-5.934 8.589l-.327.158z" fill="#52267D"/><path d="M133.0288 101.7864s-.002-.975.966-1.361c.296-.118.835-.338.835-.338s.576 1.22-.077 1.526c-.94.444-1.724.173-1.724.173M138.1313 100.4007s.027-1.308 1.498-1.498c.274-.036.989-.019.989-.019s.331 1.384-.444 1.517c-.954.163-2.043 0-2.043 0M143.5542 101.0218s.202-1.509 1.558-1.095c.579.178.9.617.9.617s-.27 1.15-.809 1.021c-.942-.226-1.649-.543-1.649-.543M142.0229 112.1321h-5.445c0-2.743 2.223-4.967 4.966-4.967h.479c1.371 0 2.483 1.113 2.483 2.484s-1.112 2.483-2.483 2.483" fill="#F3E3FF"/><path d="M141.564 112.0384h-4.893c0-2.155 1.747-3.901 3.902-3.901h.991c1.078 0 1.951.873 1.951 1.95 0 1.078-.873 1.951-1.951 1.951" fill="#FFF"/><path d="M137.2085 111.5384h4.355c.8 0 1.452-.651 1.452-1.451s-.652-1.45-1.452-1.45h-.991c-1.706 0-3.122 1.261-3.364 2.901m4.355 1h-5.392v-.5c0-2.427 1.974-4.401 4.401-4.401h.991c1.352 0 2.452 1.099 2.452 2.45 0 1.351-1.1 2.451-2.452 2.451" fill="#52267D"/><path d="M137.5571 110.9729c0 .602.488 1.09 1.09 1.09.601 0 1.09-.488 1.09-1.09 0-.602-.489-1.09-1.09-1.09-.602 0-1.09.488-1.09 1.09M129.5337 113.1175c.31-.066.587-.238.784-.486l.365-.46-.813.175-.48.102c-.184.04-.301.222-.261.406.039.185.22.302.405.263" fill="#52267D"/><path d="M151.061 115.139s4.588-2.47 4.517-7.446c1.971 1.436 2.505 2.364 2.505 2.364s-.343 2.369-1.446 3.564c-1.694 1.836-3.459 2.401-5.576 1.518" fill="#EAF3FB"/><path d="M155.4038 114.2659s-1.809 1.84-3.573 2.723" fill="#FFF"/><path d="M152.0542 117.4358l-.447-.895c1.667-.834 3.423-2.608 3.44-2.626l.713.702c-.076.077-1.888 1.909-3.706 2.819" fill="#52267D"/><path d="M173.395 133.6136l-1.021-2.018c-3.818-9.38-4.407-14.889-2.427-23.843l1.16-5.245c.381-1.722.572-3.479.572-5.242 0-5.874-4.762-10.636-10.637-10.636h-1.716c-5.794 0-10.492 4.697-10.492 10.491v.301c0 1.379 1.118 2.496 2.497 2.496h10.873l-1.649 9.452c-5.046 25.331-4.54 35.601 5.391 33.49" fill="#9452BA"/><path d="M163.6099 144.1302c-1.878 0-3.371-.565-4.528-1.707-3.687-3.64-3.548-12.962.493-33.249l1.439-8.257h-9.683c-1.928 0-3.496-1.568-3.496-3.496v-.301c0-6.336 5.155-11.491 11.491-11.491h1.717c6.417 0 11.636 5.22 11.636 11.637 0 1.834-.2 3.67-.595 5.457l-1.161 5.245c-1.934 8.751-1.401 13.967 2.376 23.251l.989 1.942-1.785.905-1.022-2.018c-3.946-9.69-4.525-15.399-2.511-24.512l1.161-5.245c.364-1.645.548-3.337.548-5.025 0-5.314-4.323-9.637-9.636-9.637h-1.717c-5.234 0-9.491 4.258-9.491 9.491v.301c0 .825.671 1.496 1.496 1.496h12.062l-1.852 10.624c-2.678 13.442-4.893 27.669-1.054 31.458 1.121 1.108 2.84 1.396 5.251.882l.416 1.957c-.916.194-1.764.292-2.544.292" fill="#52267D"/><path d="M154.0767 87.888s.175-1.844 2.007-2.576c.558-.224 1.434.014 1.434.014s1.058 1.654-.178 2.236c-1.78.838-3.263.326-3.263.326" fill="#FFF"/><path d="M154.6733 87.5081c.511.07 1.421.088 2.453-.398.206-.097.263-.213.289-.304.091-.312-.087-.769-.223-1.04-.293-.053-.69-.082-.923.01-1.023.409-1.435 1.228-1.596 1.732m.553 1.034c-.77 0-1.276-.169-1.313-.181l-.372-.128.037-.392c.009-.088.228-2.157 2.32-2.993.695-.278 1.644-.032 1.751-.004l.186.051.104.162c.072.112.696 1.126.437 2.025-.119.412-.404.735-.824.932-.878.413-1.692.528-2.326.528" fill="#52267D"/><path d="M158.438 87.2796s.061-2.904 3.328-3.327c.61-.079 1.392-.02 1.392-.02s1.541 3.052-.182 3.347c-2.118.363-4.538 0-4.538 0" fill="#FFF"/><path d="M158.9985 86.8431c.795.081 2.434.193 3.893-.057.213-.036.284-.124.325-.205.219-.433-.067-1.444-.384-2.164-.266-.011-.669-.012-1.002.031-2.096.271-2.674 1.664-2.832 2.395m1.853 1.099c-1.346 0-2.42-.158-2.488-.168l-.434-.066.008-.439c.025-1.154.842-3.435 3.764-3.813.653-.083 1.459-.024 1.494-.022l.282.021.126.252c.112.222 1.076 2.194.506 3.323-.141.282-.438.638-1.049.743-.742.127-1.512.169-2.209.169" fill="#52267D"/><path d="M164.2837 87.9407s.442-2.776 2.926-1.946c1.06.353 1.633 1.18 1.633 1.18s-.552 2.109-1.541 1.845c-1.728-.46-3.018-1.079-3.018-1.079" fill="#FFF"/><path d="M164.8735 87.6556c.494.211 1.434.582 2.557.881.031.011.07.014.135-.025.282-.164.563-.75.721-1.224-.207-.227-.631-.617-1.235-.819-.565-.188-1.015-.171-1.379.047-.445.268-.683.787-.799 1.14m2.598 1.887c-.1 0-.2-.013-.299-.039-1.753-.467-3.051-1.086-3.106-1.112l-.336-.162.059-.368c.011-.061.256-1.528 1.36-2.198.624-.378 1.37-.427 2.218-.144 1.205.403 1.859 1.331 1.886 1.371l.131.189-.059.222c-.069.264-.455 1.607-1.257 2.074-.19.111-.392.167-.597.167" fill="#52267D"/><path d="M154.2534 137.637c.62-.464 1.248-.732 1.787-.861" fill="#F3E3FF"/><path d="M154.5532 138.0374l-.6-.801c.774-.578 1.499-.834 1.971-.947l.233.973c-.38.09-.968.298-1.604.775" fill="#52267D"/><path d="M157.854 137.5794c-1.776-7.222 1.43-21.029 2.019-24.428l2.334-13.615h1.023c1.297 0 2.278 1.409 2.094 2.694l-1.692 11.81c-.572 3.999-1.168 22.515 5.781 26.491 1.481.849 3.891.292 4.798-.141 3.303-1.578 4.253-5.696 4.977-9.015 1.498-6.869.331-12.262-.001-17.647l-.348-6.737c-.063-1.218.906-2.511 2.123-2.511h1.242l2.236 13.617c.672 3.877 2.402 17.321-5.52 23.625-.143.114 1.926.577 1.327 1.637-2.383 4.212-9.288 4.878-10.587 6.682-5.008 6.944-.319 21.74-.319 21.74s-5.556-2.218-8.999-5.303c-8.046-7.211-9.068-17.657-9.105-20.732-.044-3.68.922-5.961 2.112-7.323" fill="#F3E3FF"/><path d="M170.1372 172.638l-.981-.392c-.231-.092-5.679-2.287-9.148-5.395-8.676-7.776-9.245-18.94-9.271-21.099-.04-3.338.712-5.915 2.235-7.658l.754.658c-1.338 1.531-2.026 3.948-1.989 6.989.015 1.278.397 12.71 8.939 20.366 2.488 2.229 6.16 4.02 7.887 4.796-.976-3.531-3.686-15.085.691-21.154.587-.815 1.938-1.347 3.648-2.021 2.464-.972 5.533-2.182 6.909-4.614.058-.104.045-.148.039-.164-.075-.235-.653-.501-.87-.601-.282-.131-.526-.243-.564-.553l-.033-.277.226-.189c7.624-6.066 6.013-19.252 5.339-23.148l-2.169-13.201h-.817c-.374 0-.747.177-1.052.498-.379.399-.598.97-.572 1.486l.348 6.738c.076 1.222.195 2.45.316 3.696.416 4.282.846 8.71-.326 14.083-.703 3.227-1.667 7.648-5.249 9.359-.936.446-3.561 1.1-5.263.124-7.456-4.266-6.51-23.613-6.027-26.996l1.691-11.81c.078-.533-.109-1.133-.484-1.567-.311-.358-.706-.556-1.114-.556h-.602l-2.262 13.201c-.081.462-.208 1.113-.366 1.914-.949 4.838-3.171 16.169-1.661 22.309l-.971.239c-1.563-6.355.608-17.422 1.651-22.742.155-.791.282-1.435.361-1.89l2.404-14.031h1.446c.702 0 1.366.321 1.87.901.568.656.837 1.54.719 2.365l-1.692 11.81c-.666 4.65-.97 22.263 5.533 25.986 1.273.728 3.488.246 4.335-.159 3.141-1.5 4.044-5.644 4.705-8.67 1.137-5.22.715-9.569.306-13.774-.122-1.257-.242-2.497-.318-3.735l-.348-6.743c-.042-.793.275-1.626.845-2.227.495-.522 1.127-.809 1.777-.809h1.666l2.305 14.035c.682 3.932 2.274 17.033-5.134 23.619.402.214.848.527 1.003 1.008.07.218.106.561-.12.963-1.551 2.741-4.802 4.022-7.413 5.052-1.434.565-2.788 1.099-3.204 1.675-4.805 6.664-.293 21.152-.247 21.297l.319 1.008z" fill="#52267D"/><path d="M223.1685 143.6038s1.144-1.266.501-2.966c-.196-.518-.903-.966-.903-.966s-1.782.312-1.408 1.514c.539 1.73 1.81 2.418 1.81 2.418" fill="#FFF"/><path d="M222.6616 140.2112c-.278.081-.665.245-.803.473-.041.067-.08.168-.022.353.3.962.846 1.557 1.208 1.864.234-.424.5-1.18.157-2.086-.078-.207-.339-.449-.54-.604zm.614 4.02l-.345-.188c-.06-.032-1.456-.807-2.049-2.709-.131-.42-.088-.825.124-1.172.458-.751 1.552-.961 1.675-.982l.19-.033.163.102c.087.056.856.556 1.104 1.212.742 1.963-.543 3.417-.598 3.478l-.264.292z" fill="#52267D"/><path d="M222.7905 141.845s.401-.444.176-1.041c-.07-.182-.317-.338-.317-.338s-.625.108-.494.53c.19.607.635.849.635.849" fill="#F3E3FF"/><path d="M213.8081 152.6722s-1.086-2.477 1.509-4.113c.483-.306 1.168-.561 1.168-.561s2.496 1.974 1.156 2.898c-1.646 1.135-3.833 1.776-3.833 1.776" fill="#FFF"/><path d="M216.3931 148.5745c-.226.096-.553.245-.809.407-1.601 1.01-1.583 2.368-1.444 3.056.715-.248 2.107-.787 3.217-1.553.153-.105.177-.194.18-.274.013-.433-.613-1.164-1.144-1.636zm-2.866 4.701l-.177-.402c-.436-.993-.641-3.261 1.7-4.737.521-.33 1.231-.595 1.26-.607l.264-.098.221.174c.297.236 1.779 1.468 1.741 2.637-.01.301-.124.729-.611 1.065-1.693 1.167-3.884 1.818-3.976 1.844l-.422.124z" fill="#52267D"/><path d="M214.7124 151.7405s-.603-1.374.836-2.281c.268-.169.648-.312.648-.312s1.384 1.095.641 1.608c-.913.63-2.125.985-2.125.985" fill="#F3E3FF"/><path d="M221.7261 144.5599s1.881 1.651.077 3.128c-.77.631-1.666.669-1.666.669s-1.325-1.417-.657-2.037c1.167-1.082 2.246-1.76 2.246-1.76" fill="#FFF"/><path d="M221.6499 145.2132c-.399.278-1.1.796-1.83 1.473-.032.331.254.806.519 1.139.268-.051.734-.185 1.148-.524.396-.325.592-.659.599-1.024.006-.42-.237-.813-.436-1.064zm-1.721 3.653l-.157-.168c-.169-.18-1.009-1.124-.979-1.971.01-.306.13-.574.347-.774 1.188-1.101 2.275-1.788 2.321-1.817l.315-.198.28.246c.043.038 1.049.935 1.03 2.11-.012.667-.337 1.266-.966 1.78-.889.729-1.918.781-1.961.783l-.23.009z" fill="#52267D"/><path d="M221.4526 145.7307s.833.731.034 1.385c-.342.279-.737.297-.737.297s-.588-.628-.292-.903c.517-.479.995-.779.995-.779" fill="#F3E3FF"/><path d="M204.7866 153.9739s-.62-2.204 1.807-3.079c2.426-.876 3.078-.148 3.078-.148s1.342 2.26.142 2.987c-1.199.727-5.027.24-5.027.24" fill="#FFF"/><path d="M205.2163 153.5198c1.447.151 3.637.212 4.338-.214.605-.366 0-1.737-.267-2.222-.154-.085-.823-.334-2.524.282-1.474.531-1.59 1.614-1.547 2.154m2.08 1.115c-1.214 0-2.353-.137-2.573-.165l-.328-.042-.09-.318c-.258-.918-.148-2.868 2.118-3.686 2.612-.941 3.475-.174 3.621-.009.65 1.075 1.31 2.97.028 3.747-.609.37-1.72.473-2.776.473" fill="#52267D"/><path d="M205.9253 153.4739s-.322-1.146.939-1.602c1.262-.455 1.601-.077 1.601-.077s.698 1.176.074 1.554c-.623.378-2.614.125-2.614.125" fill="#F3E3FF"/><path d="M161.6772 102.8567s3.874 2.189 9.318.213c-.373 1.689-1.134 5.084-1.134 5.084s-5.045 1.547-8.936-.901c.398-2.242.752-4.396.752-4.396" fill="#FFF"/><path d="M161.478 107.0003c3.105 1.766 6.916 1.007 7.961.749.158-.704.566-2.528.878-3.929-3.958 1.179-6.994.284-8.254-.233-.125.746-.344 2.043-.585 3.413m4.746 2.142c-1.707 0-3.743-.321-5.565-1.467l-.285-.179.059-.332c.398-2.237.751-4.388.751-4.389l.115-.703.623.349c.037.019 3.76 2.043 8.903.179l.855-.311-.196.888c-.373 1.69-1.135 5.086-1.135 5.086l-.064.283-.278.086c-.118.036-1.706.51-3.783.51" fill="#52267D"/><path d="M190.6567 93.0149s-.176-1.857-2.021-2.596c-.564-.224-2.084-.286-2.084-.286s-.428 1.968.818 2.554c1.793.844 3.287.328 3.287.328" fill="#FFF"/><path d="M186.9897 90.6595c-.03.502.018 1.305.593 1.575 1.045.492 1.965.473 2.478.401-.16-.509-.574-1.337-1.611-1.752-.268-.107-.919-.183-1.46-.224m2.509 3.012c-.639 0-1.458-.116-2.342-.533-1.588-.746-1.115-3.015-1.094-3.112l.089-.41.42.017c.164.006 1.624.072 2.249.321 2.105.843 2.325 2.925 2.334 3.014l.037.391-.372.128c-.038.013-.547.184-1.321.184" fill="#52267D"/><path d="M185.9741 92.0667s-.053-2.531-2.9-2.9c-.532-.069-1.213-.017-1.213-.017s-1.343 2.66.158 2.917c1.846.316 3.955 0 3.955 0" fill="#FFF"/><path d="M182.187 89.6341c-.26.604-.495 1.447-.319 1.795.019.04.057.114.235.144 1.222.208 2.585.125 3.3.057-.162-.638-.689-1.747-2.394-1.968-.27-.034-.592-.034-.822-.028m1.684 3.074c-.612 0-1.287-.037-1.937-.148-.558-.096-.83-.423-.96-.681-.5-.992.279-2.636.441-2.955l.126-.252.282-.021c.029-.002.739-.055 1.314.019 2.591.336 3.316 2.361 3.337 3.386l.009.44-.435.065c-.058.009-.999.147-2.177.147" fill="#52267D"/><path d="M180.5806 92.2503s-.446-2.797-2.948-1.961c-1.069.357-1.646 1.19-1.646 1.19s.557 2.125 1.553 1.859c1.74-.464 3.041-1.088 3.041-1.088" fill="#FFF"/><path d="M176.5425 91.5921c.159.479.444 1.072.729 1.237.069.04.107.035.139.026 1.134-.302 2.083-.678 2.58-.89-.117-.356-.357-.883-.807-1.153-.37-.224-.827-.239-1.393-.048-.61.203-1.039.599-1.248.828m.826 2.269c-.206 0-.409-.056-.6-.167-.807-.469-1.196-1.822-1.265-2.087l-.059-.223.131-.188c.028-.041.686-.976 1.899-1.381.853-.286 1.603-.237 2.231.144 1.111.674 1.358 2.15 1.369 2.212l.059.368-.337.162c-.055.027-1.363.65-3.128 1.12-.1.027-.2.04-.3.04" fill="#52267D"/><path d="M155.0356 87.4222s.094-.985 1.072-1.377c.299-.119.767.008.767.008s.564.884-.096 1.194c-.95.447-1.743.175-1.743.175M159.5132 86.7913s.038-1.82 2.087-2.086c.382-.05.872-.012.872-.012s.966 1.913-.114 2.098c-1.327.228-2.845 0-2.845 0M165.3618 87.6614s.256-1.603 1.688-1.124c.613.205.943.683.943.683s-.318 1.216-.89 1.064c-.997-.266-1.741-.623-1.741-.623M189.7397 92.5403s-.093-.981-1.068-1.372c-.298-.119-1.102-.151-1.102-.151s-.226 1.04.433 1.35c.947.445 1.737.173 1.737.173M184.8696 91.6204s-.029-1.399-1.604-1.604c-.293-.038-.67-.008-.67-.008s-.743 1.469.087 1.612c1.02.175 2.187 0 2.187 0M179.5845 92.0599s-.244-1.529-1.612-1.072c-.585.195-.901.651-.901.651s.305 1.162.85 1.017c.952-.254 1.663-.596 1.663-.596" fill="#F3E3FF"/><path d="M173.2515 107.6526s4.797.748 9.358-.371c.445 2.478.73 4.35.73 4.35s-3.164 2.148-9.009.902c-.689-3.184-1.079-4.881-1.079-4.881" fill="#FFF"/><path d="M174.7505 112.1087c4.425.863 7.205-.305 8.042-.74-.092-.584-.299-1.874-.583-3.482-3.438.742-6.858.508-8.313.351.166.734.457 2.04.854 3.871m3.125 1.315c-1.074 0-2.291-.112-3.649-.401l-.316-.067-.068-.317c-.689-3.177-1.078-4.873-1.078-4.874l-.165-.719.729.113c.046.007 4.758.718 9.162-.362l.518-.127.094.524c.445 2.485.731 4.362.731 4.362l.048.312-.261.178c-.105.071-2.087 1.378-5.745 1.378" fill="#52267D"/><path d="M181.1851 102.8352h5.445c0-2.743-2.223-4.966-4.966-4.966h-.479c-1.372 0-2.483 1.112-2.483 2.483 0 1.372 1.111 2.483 2.483 2.483" fill="#F3E3FF"/><path d="M181.7808 102.7415h4.756c0-2.154-1.747-3.901-3.902-3.901h-1.129c-1.001 0-1.813.811-1.813 1.813 0 1.153.935 2.088 2.088 2.088" fill="#FFF"/><path d="M181.5054 99.3401c-.724 0-1.312.589-1.312 1.313 0 .876.711 1.588 1.587 1.588h4.219c-.242-1.639-1.658-2.901-3.364-2.901h-1.13zm5.531 3.901h-5.256c-1.426 0-2.588-1.161-2.588-2.588 0-1.275 1.038-2.313 2.313-2.313h1.13c2.427 0 4.401 1.975 4.401 4.401v.5z" fill="#52267D"/><path d="M185.2749 100.4964c0 .602-.487 1.09-1.089 1.09s-1.09-.488-1.09-1.09c0-.603.488-1.09 1.09-1.09.602 0 1.089.487 1.089 1.09" fill="#52267D"/><path d="M162.3423 98.1272h-5.446c0-2.743 2.223-4.967 4.967-4.967h.479c1.371 0 2.482 1.113 2.482 2.484s-1.111 2.483-2.482 2.483" fill="#F3E3FF"/><path d="M161.8833 98.0335h-4.894c0-2.154 1.748-3.901 3.903-3.901h.991c1.077 0 1.951.873 1.951 1.951 0 1.077-.874 1.95-1.951 1.95" fill="#FFF"/><path d="M157.5269 97.5335h4.356c.8 0 1.452-.65 1.452-1.45 0-.8-.652-1.451-1.452-1.451h-.991c-1.706 0-3.123 1.261-3.365 2.901m4.356 1h-5.393v-.5c0-2.427 1.974-4.401 4.402-4.401h.991c1.352 0 2.452 1.099 2.452 2.451 0 1.35-1.1 2.45-2.452 2.45" fill="#52267D"/><path d="M160.562 96.8772c0 .602.488 1.09 1.09 1.09.601 0 1.09-.488 1.09-1.09 0-.602-.489-1.09-1.09-1.09-.602 0-1.09.488-1.09 1.09M193.1909 103.9681c-.31-.066-.587-.238-.784-.486l-.365-.459.813.174.479.103c.184.039.302.221.262.405-.039.185-.22.303-.405.263M151.1851 98.8724c.31-.066.586-.238.783-.486l.365-.459-.813.174-.479.102c-.184.04-.301.222-.262.406.04.185.221.302.406.263" fill="#52267D"/><path d="M162.1421 103.5638s4.059 1.729 8.152.148c-.428 2.402-.811 3.628-.811 3.628s-2.463.145-4.094-.176c-2.329-.459-3.247-1.518-3.247-3.6" fill="#EAF3FB"/><path d="M167.7886 106.6429s-3.693.308-6.552-1.175" fill="#FFF"/><path d="M166.9292 107.1712c-1.312 0-3.812-.164-5.923-1.259l.461-.888c2.692 1.395 6.241 1.123 6.28 1.121l.082.996c-.044.004-.378.03-.9.03" fill="#52267D"/><path d="M180.8521 108.1936s-3.6 1.023-6.775.389c.599 2.364.917 3.105.917 3.105s4.764-.635 5.858-3.494" fill="#EAF3FB"/><path d="M178.9204 141.7727s-.218.157-.526.344" fill="#F3E3FF"/><path d="M178.5229 142.3304l-.258-.428c.296-.178.506-.33.509-.333l.293.407s-.225.162-.544.354" fill="#52267D"/><path d="M181.1997 109.555s-3.624.687-7.471.228" fill="#FFF"/><path d="M176.5415 110.4417c-.903 0-1.878-.044-2.872-.163l.119-.992c3.728.442 7.283-.216 7.318-.223l.186.982c-.112.022-2.129.396-4.751.396" fill="#52267D"/><path d="M175.2612 184.1058s-.961-.784-2.239.266c-1.167.959-2.045 2.44-1.522 2.588.524.15 1.444.294 2.411.118.841-.156 1.585.007 1.923-1.753.157-.821-.573-1.219-.573-1.219" fill="#FFF"/><path d="M174.3696 184.0745c-.32 0-.729.111-1.189.49-1.031.847-1.66 1.954-1.582 2.185.237.047 1.186.281 2.268.082.116-.022.231-.037.342-.052.676-.093 1.121-.153 1.381-1.502.119-.626-.426-.94-.449-.953l-.036-.023c-.019-.016-.295-.227-.735-.227m-1.377 3.334c-.756 0-1.352-.148-1.561-.208-.168-.048-.287-.176-.324-.352-.129-.618.822-1.903 1.755-2.67 1.309-1.074 2.363-.406 2.533-.284.311.177.833.7.684 1.477-.326 1.702-1.077 1.805-1.803 1.903-.104.014-.212.029-.32.049-.337.062-.663.085-.964.085" fill="#52267D"/><path d="M175.0425 184.3909s-.599-.487-1.394.166c-.726.596-1.272 1.518-.947 1.61.326.093.899.184 1.501.073.524-.096.986.005 1.196-1.09.098-.511-.356-.759-.356-.759" fill="#EAF3FB"/><path d="M176.6255 184.0882c.508-.068 1.238 1.034 1.155 1.371-.084.336-.141 1.446-.963 1.567-.605.089-2.765.314-3.236-.155-.435-.432.416-2.431 3.044-2.783" fill="#FFF"/><path d="M176.6714 184.3352c-.004 0-.009 0-.013.001-1.846.247-2.678 1.317-2.878 1.91-.089.266-.054.417-.022.448.302.301 1.948.243 3.023.085.481-.071.621-.64.715-1.169.015-.085.029-.158.042-.212.011-.108-.188-.536-.506-.844-.166-.163-.295-.219-.361-.219m-1.614 3.076c-.687 0-1.368-.08-1.653-.363-.201-.2-.236-.551-.097-.961.317-.942 1.456-2.002 3.285-2.247.346-.034.682.227.896.467.263.293.622.857.536 1.212-.012.046-.023.107-.036.179-.083.469-.256 1.447-1.134 1.575-.157.024-.98.138-1.797.138" fill="#52267D"/><path d="M176.7671 184.3938c.3-.04.731.61.683.809-.05.199-.084.853-.569.924-.357.053-1.632.186-1.91-.091-.256-.255.246-1.434 1.796-1.642" fill="#EAF3FB"/><path d="M178.7739 184.302s-.438-.229-1.308.269c-.766.438-1.912 1.14-1.611 2.012.302.872 2.727.548 3.265.364.539-.185.878-.772.782-1.286-.207-1.12-1.128-1.359-1.128-1.359" fill="#FFF"/><path d="M178.4741 184.5003c-.175 0-.47.051-.884.287-.863.494-1.717 1.084-1.499 1.715.207.599 2.318.423 2.947.208.411-.141.693-.6.618-1.003-.176-.953-.938-1.161-.945-1.163l-.047-.018c-.011-.004-.075-.026-.19-.026m-1.04 2.917c-.806 0-1.613-.167-1.815-.752-.382-1.107 1.04-1.921 1.723-2.311.866-.497 1.384-.343 1.518-.288.162.05 1.071.376 1.288 1.549.12.645-.305 1.348-.947 1.568-.25.086-1.008.234-1.767.234" fill="#52267D"/><path d="M178.939 184.6116s-.26-.136-.774.158c-.455.26-1.133.676-.955 1.193.179.515 1.615.324 1.934.214.318-.109.519-.457.463-.76-.123-.664-.668-.805-.668-.805" fill="#EAF3FB"/><path d="M168.6353 156.4895s.494 5.617-.934 14.447c-1.33 8.22-3.686 10.798-3.513 12.93.134 1.649.831 3.161 2.486 3.161l4.941.001c2.307 0 4.34-1.473 5.083-3.657.596-1.759 1.218-4.153 1.588-7.179.38-4.116.299-8.245.231-10.669" fill="#9452BA"/><path d="M171.6157 188.0286l-4.941-.001c-1.974 0-3.276-1.525-3.484-4.08-.092-1.131.339-2.244.936-3.784.775-2.005 1.838-4.75 2.588-9.387 1.387-8.582.929-14.144.924-14.2l1.993-.175c.02.234.488 5.844-.943 14.694-.784 4.844-1.935 7.82-2.697 9.789-.519 1.341-.861 2.227-.807 2.901.083 1.023.409 2.242 1.49 2.242l4.941.001c1.868 0 3.53-1.197 4.135-2.979.716-2.109 1.235-4.458 1.544-6.978.356-3.87.298-7.858.222-10.52l2-.056c.077 2.713.135 6.782-.234 10.789-.328 2.686-.878 5.169-1.638 7.408-.882 2.594-3.304 4.336-6.029 4.336" fill="#52267D"/><path d="M193.9673 160.2054c-1.636 1.408-2.484 3.716-2.472 5.835.018 2.83 1.659 6.433.618 11.135-.927 4.189-2.772 4.927-2.216 8.686.1.679.709 1.166 1.395 1.166h5.505c2.534 0 4.704-1.837 5.118-4.337 1.107-6.674.262-12.975-.629-17.81" fill="#9452BA"/><path d="M196.7974 188.0276h-5.505c-1.188 0-2.214-.868-2.385-2.02-.378-2.557.244-3.913.964-5.481.431-.94.92-2.006 1.266-3.567.643-2.91.187-5.389-.215-7.578-.216-1.175-.42-2.287-.427-3.335-.015-2.56 1.066-5.089 2.82-6.599l1.304 1.516c-1.322 1.138-2.135 3.081-2.124 5.071.006.872.186 1.851.394 2.986.415 2.257.931 5.067.201 8.37-.393 1.771-.951 2.991-1.401 3.97-.659 1.436-1.094 2.385-.803 4.354.026.175.204.313.406.313h5.505c2.058 0 3.796-1.472 4.132-3.5 1.088-6.563.237-12.782-.626-17.466l1.967-.363c.892 4.845 1.77 11.286.631 18.155-.496 2.998-3.063 5.174-6.104 5.174" fill="#52267D"/><path fill="#52267D" d="M195.272 167.4729l-1.877-.925 1.866-1.493.79.265-.158.474-.532-.178-1.04.831.92.454.538-.344-.352-.079-.232.167-.291-.406.414-.298 1.742.391"/><path d="M165.2671 184.1058s-.961-.784-2.239.266c-1.167.959-2.045 2.44-1.522 2.588.524.15 1.445.294 2.411.118.842-.156 1.585.007 1.923-1.753.157-.821-.573-1.219-.573-1.219" fill="#FFF"/><path d="M161.8989 186.5423c.401.088 1.129.189 1.929.043.119-.022.238-.038.353-.054.628-.086.944-.128 1.168-1.301.082-.426-.258-.649-.327-.689l-.064-.043c-.07-.053-.698-.49-1.613.26-.758.622-1.29 1.397-1.446 1.784m1.102 1.116c-.79 0-1.413-.155-1.632-.218-.257-.072-.444-.275-.499-.541-.171-.816.998-2.221 1.841-2.915 1.228-1.008 2.369-.648 2.835-.295.391.232.957.831.786 1.729-.334 1.737-1.111 1.98-2.016 2.104-.101.014-.203.028-.308.047-.352.065-.693.089-1.007.089" fill="#52267D"/><path d="M165.0483 184.3909s-.599-.487-1.394.166c-.726.596-1.272 1.518-.947 1.61.326.093.9.184 1.501.073.524-.096.986.005 1.196-1.09.098-.511-.356-.759-.356-.759" fill="#EAF3FB"/><path fill="#52267D" d="M173.2397 172.389l-2.343-.171-.318-2.233 2.171-.676.148.476-1.764.551.201 1.413 1.69.122.655-.755-.846-.47-.516.149.368.409-.371.334-.903-1.001 1.482-.43 1.568.87"/><g fill="#F3E3FF"><path d="M131.1899 110.1761c-.364 0-.661-.297-.661-.661h.25c0 .226.184.411.411.411.227 0 .41-.185.41-.411h.25c0 .364-.296.661-.66.661"/><path d="M130.1177 110.1761c-.364 0-.66-.297-.66-.661h.25c0 .226.183.411.41.411.227 0 .411-.185.411-.411h.25c0 .364-.297.661-.661.661"/><path d="M130.6538 110.7112c-.364 0-.661-.296-.661-.66h.25c0 .226.184.41.411.41.227 0 .411-.184.411-.41h.25c0 .364-.297.66-.661.66M151.5991 109.2561c-.165 0-.331-.044-.481-.137l.132-.213c.309.192.722.099.915-.213.194-.311.098-.722-.213-.916l.132-.212c.428.266.56.832.294 1.259-.174.28-.473.432-.779.432"/><path d="M151.853 110.344c-.165 0-.331-.044-.48-.137l.13-.213c.316.195.725.096.916-.213.194-.311.098-.722-.213-.916l.132-.212c.428.266.56.832.294 1.26-.174.278-.472.431-.779.431M177.3306 127.8567c-.465 0-.844-.379-.844-.844h.25c0 .327.267.594.594.594.327 0 .594-.267.594-.594h.25c0 .465-.379.844-.844.844"/><path d="M175.8931 127.8567c-.465 0-.844-.379-.844-.844h.25c0 .327.267.594.594.594.327 0 .594-.267.594-.594h.25c0 .465-.379.844-.844.844"/><path d="M176.6118 128.5755c-.465 0-.844-.379-.844-.844h.25c0 .327.267.594.594.594.327 0 .594-.267.594-.594h.25c0 .465-.379.844-.844.844M155.8657 173.388c-.465 0-.844-.379-.844-.844h.25c0 .327.267.594.594.594.327 0 .594-.267.594-.594h.25c0 .465-.379.844-.844.844"/><path d="M154.4282 173.388c-.465 0-.844-.379-.844-.844h.25c0 .327.267.594.594.594.327 0 .594-.267.594-.594h.25c0 .465-.379.844-.844.844"/><path d="M155.147 174.1067c-.465 0-.844-.379-.844-.844h.25c0 .327.267.594.594.594.327 0 .594-.267.594-.594h.25c0 .465-.379.844-.844.844M176.2876 105.0227c-.504 0-.914-.41-.914-.914h.25c0 .366.298.664.664.664.367 0 .665-.298.665-.664h.25c0 .504-.41.914-.915.914"/><path d="M175.4985 105.8128c-.505 0-.915-.41-.915-.915h.25c0 .367.298.665.665.665.366 0 .664-.298.664-.665h.25c0 .505-.41.915-.914.915M166.3638 119.1399c-.598 0-1.084-.486-1.084-1.085h.25c0 .46.374.835.834.835.46 0 .835-.375.835-.835h.25c0 .599-.486 1.085-1.085 1.085"/><path d="M165.4048 120.0989c-.599 0-1.085-.486-1.085-1.084h.25c0 .46.375.834.835.834.46 0 .834-.374.834-.834h.25c0 .598-.486 1.084-1.084 1.084M152.1089 94.9651c-.423 0-.768-.344-.768-.767h.25c0 .286.233.517.518.517.285 0 .517-.231.517-.517h.25c0 .423-.344.767-.767.767"/><path d="M151.4663 95.6067c-.423 0-.767-.344-.767-.767h.25c0 .286.232.517.517.517.285 0 .518-.231.518-.517h.25c0 .423-.345.767-.768.767M212.437 159.2893c-.024 0-.049-.001-.074-.003-.23-.019-.439-.127-.588-.303l.191-.162c.106.126.254.202.418.216.163.015.323-.038.448-.144.257-.218.29-.607.071-.865l.191-.162c.307.363.262.909-.1 1.218-.158.134-.353.205-.557.205"/><path d="M212.3501 160.3304c-.024 0-.049-.001-.073-.003-.23-.018-.439-.126-.588-.302l.191-.162c.106.125.254.202.417.215.174.017.324-.037.448-.144.126-.105.202-.254.215-.417.014-.164-.037-.323-.143-.447l.191-.162c.149.176.22.399.201.629-.018.231-.127.439-.302.589-.158.133-.353.204-.557.204M183.2905 149.3343c-.117 0-.234-.021-.347-.063-.248-.093-.445-.277-.554-.518l.226-.104c.083.181.231.319.416.387.185.07.385.064.567-.019.18-.083.317-.23.387-.415.07-.186.063-.387-.02-.568l.227-.103c.111.241.119.51.027.758-.093.248-.277.445-.518.555-.131.06-.27.09-.411.09"/><path d="M181.7144 150.053c-.376 0-.737-.215-.903-.58l.226-.104c.171.372.611.535.984.368.18-.082.317-.231.386-.416.071-.186.064-.387-.019-.568l.228-.103c.11.241.119.51.026.758-.093.249-.277.446-.518.556-.133.061-.272.089-.41.089"/><path d="M182.8628 150.4817c-.376 0-.737-.215-.903-.58l.226-.104c.17.372.612.536.984.368.18-.083.317-.231.386-.416.07-.186.063-.387-.019-.568l.226-.103c.111.241.121.51.028.758-.093.249-.277.446-.518.556-.133.061-.272.089-.41.089"/><path d="M181.2866 151.2015c-.377 0-.738-.216-.904-.58l.226-.104c.171.372.612.537.984.368.18-.083.317-.231.386-.416.07-.186.063-.387-.019-.568l.226-.103c.111.241.121.51.028.758-.093.249-.277.446-.518.556-.133.06-.272.089-.409.089M184.0122 150.9114c-.377 0-.738-.216-.904-.581l.226-.104c.17.372.609.537.984.369.372-.171.537-.612.367-.984l.226-.103c.228.497.008 1.086-.49 1.313-.133.061-.271.09-.409.09M168.2827 101.6858c-.551 0-.999-.448-.999-1h.25c0 .413.336.75.749.75s.75-.337.75-.75h.25c0 .552-.448 1-1 1M167.98 134.7376c-.552 0-1-.448-1-1h.25c0 .413.337.75.75.75s.749-.337.749-.75h.25c0 .552-.448 1-.999 1M177.6802 116.3059c-.435 0-.788-.354-.788-.788h.25c0 .297.241.538.538.538.297 0 .538-.241.538-.538h.25c0 .434-.353.788-.788.788M193.2935 101.0833c-.343 0-.622-.279-.622-.622h.25c0 .205.167.372.372.372s.372-.167.372-.372h.25c0 .343-.279.622-.622.622M197.7964 174.4124c-.478 0-.901-.343-.986-.828l.246-.043c.071.407.467.68.867.61.407-.071.682-.46.61-.867l.246-.043c.095.543-.27 1.062-.813 1.156-.058.01-.114.015-.17.015M173.7319 181.0891c-.599 0-1.085-.486-1.085-1.084h.25c0 .46.375.834.835.834.46 0 .834-.374.834-.834h.25c0 .598-.486 1.084-1.084 1.084"/><path d="M172.772 182.0491c-.599 0-1.085-.486-1.085-1.085h.25c0 .46.375.835.835.835.46 0 .835-.375.835-.835h.25c0 .599-.486 1.085-1.085 1.085"/></g><path d="M166.6313 184.0882c.508-.068 1.239 1.034 1.155 1.371-.083.336-.141 1.446-.963 1.567-.605.089-2.764.314-3.236-.155-.435-.432.416-2.431 3.044-2.783" fill="#FFF"/><path d="M166.6714 184.5872c-1.53.213-2.219 1.008-2.444 1.341-.223.33-.262.586-.245.652.196.119 1.565.128 2.769-.049.316-.046.427-.523.505-.966.017-.091.03-.168.045-.226-.033-.14-.426-.683-.63-.752m-1.583 3.077c-.754 0-1.511-.098-1.854-.438-.271-.271-.329-.714-.159-1.219.318-.941 1.421-2.138 3.49-2.414.358-.061.752.14 1.118.55.275.307.709.956.589 1.437-.01.04-.02.095-.031.158-.086.488-.287 1.627-1.344 1.784-.34.049-1.073.142-1.809.142" fill="#52267D"/><path d="M166.7739 184.3938c.3-.04.73.61.682.809-.05.199-.084.853-.569.924-.357.053-1.632.186-1.91-.091-.256-.255.246-1.434 1.797-1.642" fill="#EAF3FB"/><path d="M168.4351 184.6302s-.388-.202-1.155.237c-.679.389-1.693 1.009-1.426 1.781.267.771 2.411.484 2.888.321.476-.163.775-.682.691-1.137-.184-.99-.998-1.202-.998-1.202" fill="#FFF"/><path d="M168.1694 185.0843c-.103 0-.314.03-.642.217-.332.19-1.343.77-1.201 1.183.185.259 1.701.2 2.253.012.252-.087.399-.374.361-.573-.118-.639-.586-.796-.639-.812l-.064-.021c-.009-.002-.032-.006-.068-.006m-.917 2.573c-.804 0-1.641-.178-1.871-.846-.413-1.196.98-1.995 1.65-2.377.829-.476 1.368-.354 1.568-.278.423.126 1.14.587 1.325 1.585.132.713-.317 1.46-1.021 1.7-.17.059-.896.216-1.651.216" fill="#52267D"/><path d="M168.5815 184.9036s-.23-.119-.685.141c-.402.229-1.002.596-.843 1.053.157.457 1.426.287 1.709.191.282-.097.46-.404.41-.673-.11-.587-.591-.712-.591-.712" fill="#EAF3FB"/><path d="M148.1567 184.844s-.388-.202-1.156.237c-.679.389-1.692 1.009-1.425 1.781.267.771 2.411.484 2.888.321.476-.163.775-.682.691-1.137-.184-.99-.998-1.202-.998-1.202" fill="#FFF"/><path d="M147.8911 185.2981c-.104 0-.315.03-.643.217-.332.19-1.342.769-1.2 1.183.186.259 1.701.199 2.253.012.252-.087.399-.374.361-.573-.118-.639-.586-.796-.639-.812l-.064-.021c-.009-.002-.032-.006-.068-.006m-.917 2.573c-.804 0-1.641-.178-1.871-.846-.413-1.197.979-1.995 1.649-2.377.828-.476 1.369-.354 1.569-.278.423.126 1.14.587 1.325 1.585.132.713-.317 1.46-1.021 1.7-.17.059-.896.216-1.651.216" fill="#52267D"/><path d="M148.3022 185.1175s-.229-.119-.685.141c-.401.229-1.001.596-.843 1.053.158.457 1.427.287 1.71.191.282-.097.459-.404.409-.673-.109-.587-.591-.712-.591-.712" fill="#EAF3FB"/><path d="M150.5024 184.302c.508-.068 1.239 1.034 1.155 1.371-.084.336-.141 1.446-.963 1.567-.605.089-2.764.314-3.236-.155-.435-.432.416-2.431 3.044-2.783" fill="#FFF"/><path d="M150.5425 184.8011c-1.53.213-2.219 1.008-2.444 1.341-.223.33-.262.586-.245.652.197.119 1.566.129 2.769-.049.316-.046.426-.522.505-.965.016-.091.03-.169.045-.228-.033-.139-.426-.682-.63-.751m-1.583 3.077c-.754 0-1.511-.098-1.854-.438-.271-.271-.329-.714-.159-1.219.318-.941 1.421-2.138 3.49-2.414.358-.056.752.14 1.118.55.275.307.709.956.589 1.437-.011.041-.02.097-.032.161-.086.487-.288 1.624-1.343 1.781-.34.049-1.073.142-1.809.142" fill="#52267D"/><path d="M150.645 184.6077c.3-.04.73.61.682.809-.05.199-.084.853-.569.924-.357.053-1.632.186-1.91-.091-.256-.255.246-1.434 1.797-1.642" fill="#EAF3FB"/><path d="M191.9966 184.1058s-.961-.784-2.238.266c-1.168.959-2.046 2.44-1.523 2.588.524.15 1.445.294 2.411.118.842-.156 1.585.007 1.923-1.753.157-.821-.573-1.219-.573-1.219" fill="#FFF"/><path d="M191.105 184.0745c-.32 0-.728.111-1.187.49-1.032.847-1.662 1.953-1.584 2.185.238.048 1.191.282 2.268.082.116-.022.231-.037.343-.052.675-.092 1.12-.153 1.38-1.502.119-.626-.426-.94-.449-.953l-.036-.023c-.019-.016-.295-.227-.735-.227m-1.377 3.334c-.756 0-1.352-.148-1.561-.208-.168-.048-.287-.176-.324-.352-.129-.618.823-1.904 1.757-2.67 1.305-1.074 2.362-.406 2.531-.284.311.177.833.7.684 1.477-.326 1.702-1.077 1.805-1.803 1.903-.104.014-.212.029-.32.049-.337.062-.663.085-.964.085" fill="#52267D"/><path d="M191.7778 184.3909s-.599-.487-1.394.166c-.725.596-1.272 1.518-.946 1.61.325.093.899.184 1.5.073.524-.096.986.005 1.196-1.09.098-.511-.356-.759-.356-.759" fill="#EAF3FB"/><path d="M193.3608 184.0882c.508-.068 1.239 1.034 1.155 1.371-.083.336-.141 1.446-.963 1.567-.605.089-2.764.314-3.236-.155-.435-.432.416-2.431 3.044-2.783" fill="#FFF"/><path d="M193.4077 184.3352c-.005 0-.01 0-.014.001-1.846.247-2.678 1.317-2.878 1.91-.089.266-.053.417-.022.448.301.299 1.949.242 3.023.085.482-.071.622-.641.716-1.172.015-.083.028-.155.04-.208.012-.11-.186-.536-.503-.844-.168-.163-.297-.22-.362-.22m-1.615 3.076c-.686 0-1.367-.08-1.652-.362-.202-.201-.237-.552-.099-.962.318-.942 1.457-2.002 3.286-2.247.345-.04.683.228.899.47.262.293.62.856.532 1.21-.011.044-.022.104-.034.175-.083.47-.255 1.45-1.135 1.578-.157.024-.979.138-1.797.138" fill="#52267D"/><path d="M193.5034 184.3938c.3-.04.73.61.682.809-.05.199-.084.853-.569.924-.357.053-1.632.186-1.909-.091-.257-.255.245-1.434 1.796-1.642" fill="#EAF3FB"/><path d="M195.1646 184.6302s-.388-.202-1.155.237c-.679.389-1.692 1.009-1.425 1.781.266.771 2.41.484 2.887.321.476-.163.776-.682.691-1.137-.184-.99-.998-1.202-.998-1.202" fill="#FFF"/><path d="M194.8989 184.8343c-.149 0-.403.043-.766.25-.753.432-1.498.945-1.312 1.481.175.507 2.037.351 2.569.167.35-.12.591-.51.527-.854-.151-.814-.79-.999-.817-1.007l-.044-.016c-.008-.002-.06-.021-.157-.021m-.91 2.577c-.727 0-1.458-.151-1.641-.682-.345-1 .926-1.729 1.537-2.079.775-.443 1.241-.306 1.366-.255.15.045.962.342 1.158 1.391.108.584-.276 1.221-.857 1.419-.221.076-.89.206-1.563.206" fill="#52267D"/><path d="M195.311 184.9036s-.23-.119-.685.141c-.402.229-1.002.596-.843 1.053.157.457 1.426.287 1.709.191.282-.097.46-.404.41-.673-.11-.587-.591-.712-.591-.712" fill="#EAF3FB"/><path d="M157.1714 184.7766c.159-.134.349-.172.506-.098.583.276 2.057 1.058 1.752 2.117-.237.824-.741.577-1.703.594l-.727.014c-.15.002-.284-.075-.366-.213-.418-.699-.192-1.797.488-2.371l.05-.043z" fill="#FFF"/><path d="M157.4868 185.1419l.011.014-.05.043c-.497.419-.679 1.245-.386 1.735l.654-.044c.218-.005.411.004.584.013.573.024.571.025.649-.246.19-.661-1.041-1.314-1.462-1.515m1.078 2.769c-.105 0-.209-.005-.309-.009-.156-.007-.325-.018-.521-.012l-.726.014h-.012c-.327 0-.622-.17-.793-.457-.54-.904-.268-2.282.596-3.009l.05-.044c.31-.261.707-.323 1.041-.167 2.143 1.013 2.185 2.13 2.019 2.707-.247.858-.813.977-1.345.977" fill="#52267D"/><path d="M157.2466 185.014c.115-.098.253-.125.367-.071.424.2 1.495.768 1.274 1.538-.172.598-.538.419-1.239.431l-.527.01c-.109.002-.206-.054-.267-.154-.303-.508-.138-1.306.356-1.724l.036-.03z" fill="#EAF3FB"/><path d="M153.7622 184.4602s-.892-.862-2.254.075c-1.244.857-2.244 2.258-1.736 2.45.509.194 1.414.416 2.392.322.852-.082 1.579.142 2.065-1.583.226-.805-.467-1.264-.467-1.264" fill="#FFF"/><path d="M150.1987 186.6028c.394.12 1.112.285 1.918.206.121-.012.239-.018.355-.023.634-.032.953-.047 1.276-1.198.118-.419-.201-.669-.267-.714l-.06-.048c-.065-.058-.656-.545-1.629.122-.807.555-1.405 1.283-1.593 1.655m1.484 1.228c-.977 0-1.763-.254-2.088-.377-.25-.095-.419-.313-.452-.582-.1-.829 1.183-2.129 2.082-2.748 1.308-.9 2.415-.445 2.851-.054.369.262.883.908.635 1.79-.48 1.704-1.275 1.88-2.189 1.925-.101.005-.204.009-.309.02-.181.018-.359.026-.53.026" fill="#52267D"/><path d="M153.52 184.7268s-.555-.537-1.402.046c-.775.533-1.398 1.405-1.081 1.525.316.12.879.259 1.489.2.529-.051.982.088 1.284-.986.142-.5-.29-.785-.29-.785" fill="#EAF3FB"/><path d="M17.9775 188.5618h36" fill="#FFF"/><path d="M53.9775 189.5618h-36c-.552 0-1-.447-1-1 0-.553.448-1 1-1h36c.552 0 1 .447 1 1 0 .553-.448 1-1 1" fill="#375D81"/><path d="M63.3193 188.5618h174" fill="#FFF"/><path d="M237.3198 189.5618h-174c-.553 0-1-.447-1-1 0-.553.447-1 1-1h174c.553 0 1 .447 1 1 0 .553-.447 1-1 1" fill="#375D81"/><mask id="b" fill="#fff"><use xlink:href="#a"/></mask><path fill="#FFF" mask="url(#b)" d="M39.799 172.319H210.34v-129.3H39.799"/><path d="M40.799 171.319H209.34v-127.3H40.799v127.3zm-2 2H211.34v-131.3H38.799v131.3z" fill="#9ACDED" mask="url(#b)"/><path fill="#EFEFF6" mask="url(#b)" d="M198.2427 152.264l-147.019 8.431V59.637l148.724-5.62"/><path d="M177.0718 9.0003c-.553 0-1-.447-1-1v-7c0-.553.447-1 1-1 .553 0 1 .447 1 1v7c0 .553-.447 1-1 1" fill="#375D81" mask="url(#b)"/><path d="M180.5718 5.5003h-7c-.553 0-1-.447-1-1 0-.553.447-1 1-1h7c.553 0 1 .447 1 1 0 .553-.447 1-1 1M20.1729 146.0725c-.276 0-.5-.224-.5-.5v-3.937c0-.277.224-.5.5-.5s.5.223.5.5v3.937c0 .276-.224.5-.5.5" fill="#375D81" mask="url(#b)"/><path d="M22.1416 144.1038h-3.938c-.276 0-.499-.224-.499-.5s.223-.5.499-.5h3.938c.276 0 .5.224.5.5s-.224.5-.5.5M239.2886 179.2796c-.276 0-.5-.224-.5-.5v-3.937c0-.277.224-.5.5-.5s.5.223.5.5v3.937c0 .276-.224.5-.5.5" fill="#375D81" mask="url(#b)"/><path d="M241.2573 177.3108h-3.938c-.276 0-.499-.224-.499-.5s.223-.5.499-.5h3.938c.276 0 .5.224.5.5s-.224.5-.5.5M233.3374 79.2708c-.276 0-.5-.224-.5-.5v-3.937c0-.277.224-.5.5-.5s.5.223.5.5v3.937c0 .276-.224.5-.5.5" fill="#375D81" mask="url(#b)"/><path d="M235.3062 77.302h-3.938c-.276 0-.499-.224-.499-.5s.223-.5.499-.5h3.938c.276 0 .5.224.5.5s-.224.5-.5.5" fill="#375D81" mask="url(#b)"/><path d="M244.1665 188.3206h6.974" fill="#FFF" mask="url(#b)"/><path d="M251.1401 189.3206h-6.974c-.552 0-1-.447-1-1 0-.553.448-1 1-1h6.974c.553 0 1 .447 1 1 0 .553-.447 1-1 1" fill="#375D81" mask="url(#b)"/><path d="M1 188.3206h8.973" fill="#FFF" mask="url(#b)"/><path d="M9.9731 189.3206h-8.973c-.552 0-1-.447-1-1 0-.553.448-1 1-1h8.973c.552 0 1 .447 1 1 0 .553-.448 1-1 1" fill="#375D81" mask="url(#b)"/><path d="M14.0356 72.7395v8.125" fill="#FFF" mask="url(#b)"/><path d="M14.0356 81.8645c-.552 0-1-.447-1-1v-8.125c0-.553.448-1 1-1s1 .447 1 1v8.125c0 .553-.448 1-1 1" fill="#375D81" mask="url(#b)"/><path d="M18.0981 76.802h-8.125" fill="#FFF" mask="url(#b)"/><path d="M18.0981 77.802h-8.125c-.552 0-1-.447-1-1 0-.553.448-1 1-1h8.125c.552 0 1 .447 1 1 0 .553-.448 1-1 1" fill="#375D81" mask="url(#b)"/><path d="M93.3823 197.637h67.186" fill="#FFF" mask="url(#b)"/><path d="M160.5679 198.637h-67.186c-.552 0-1-.447-1-1 0-.553.448-1 1-1h67.186c.553 0 1 .447 1 1 0 .553-.447 1-1 1" fill="#375D81" mask="url(#b)"/><path d="M169.187 197.637h9.141" fill="#FFF" mask="url(#b)"/><path d="M178.3276 198.637h-9.141c-.552 0-1-.447-1-1 0-.553.448-1 1-1h9.141c.553 0 1 .447 1 1 0 .553-.447 1-1 1" fill="#375D81" mask="url(#b)"/><path d="M85.5 197.5618l-5 .075" fill="#FFF" mask="url(#b)"/><path d="M80.4995 198.637c-.545 0-.991-.437-1-.985-.008-.552.433-1.006.985-1.015l5-.075c.575-.014 1.007.432 1.015.985.009.552-.432 1.006-.984 1.015l-5 .075h-.016z" fill="#375D81" mask="url(#b)"/><path d="M72.6616 144.7561h-1.679c-5.025 0-9.099-4.074-9.099-9.1v-51.697c0-5.025 4.074-9.099 9.099-9.099h1.679c5.025 0 9.099 4.074 9.099 9.099v51.697c0 5.026-4.074 9.1-9.099 9.1" fill="#FFF" mask="url(#b)"/><path d="M70.9824 75.8597c-4.466 0-8.099 3.634-8.099 8.1v51.697c0 4.466 3.633 8.099 8.099 8.099h1.679c4.466 0 8.099-3.633 8.099-8.099v-51.697c0-4.466-3.633-8.1-8.099-8.1h-1.679zm1.679 69.896h-1.679c-5.569 0-10.099-4.53-10.099-10.099v-51.697c0-5.57 4.53-10.1 10.099-10.1h1.679c5.569 0 10.099 4.53 10.099 10.1v51.697c0 5.569-4.53 10.099-10.099 10.099z" fill="#375D81" mask="url(#b)"/><path d="M98.8276 144.7561h-1.679c-5.026 0-9.099-4.074-9.099-9.1v-51.697c0-5.025 4.073-9.099 9.099-9.099h1.679c5.025 0 9.099 4.074 9.099 9.099v51.697c0 5.026-4.074 9.1-9.099 9.1" fill="#FFF" mask="url(#b)"/><path d="M97.1484 75.8597c-4.466 0-8.099 3.634-8.099 8.1v51.697c0 4.466 3.633 8.099 8.099 8.099h1.679c4.466 0 8.099-3.633 8.099-8.099v-51.697c0-4.466-3.633-8.1-8.099-8.1h-1.679zm1.679 69.896h-1.679c-5.569 0-10.099-4.53-10.099-10.099v-51.697c0-5.57 4.53-10.1 10.099-10.1h1.679c5.569 0 10.099 4.53 10.099 10.1v51.697c0 5.569-4.53 10.099-10.099 10.099z" fill="#375D81" mask="url(#b)"/><path d="M124.9937 144.7561h-1.679c-5.026 0-9.099-4.074-9.099-9.1v-51.697c0-5.025 4.073-9.099 9.099-9.099h1.679c5.025 0 9.099 4.074 9.099 9.099v51.697c0 5.026-4.074 9.1-9.099 9.1" fill="#FFF" mask="url(#b)"/><path d="M123.3145 75.8597c-4.466 0-8.099 3.634-8.099 8.1v51.697c0 4.466 3.633 8.099 8.099 8.099h1.679c4.466 0 8.099-3.633 8.099-8.099v-51.697c0-4.466-3.633-8.1-8.099-8.1h-1.679zm1.679 69.896h-1.679c-5.569 0-10.099-4.53-10.099-10.099v-51.697c0-5.57 4.53-10.1 10.099-10.1h1.679c5.569 0 10.099 4.53 10.099 10.1v51.697c0 5.569-4.53 10.099-10.099 10.099z" fill="#375D81" mask="url(#b)"/><path d="M124.7505 141.1868h-1.059c-3.17 0-5.74-2.57-5.74-5.74v-28.609c0-3.17 2.57-5.74 5.74-5.74h1.059c3.171 0 5.74 2.57 5.74 5.74v28.609c0 3.17-2.569 5.74-5.74 5.74" fill="#67B373" mask="url(#b)"/><path d="M98.5176 141.1868h-1.059c-3.17 0-5.74-2.57-5.74-5.74v-18.015c0-3.17 2.57-5.74 5.74-5.74h1.059c3.17 0 5.74 2.57 5.74 5.74v18.015c0 3.17-2.57 5.74-5.74 5.74" fill="#F9B53F" mask="url(#b)"/><path d="M72.3516 141.1868h-1.059c-3.17 0-5.74-2.57-5.74-5.74v-43.875c0-3.17 2.57-5.74 5.74-5.74h1.059c3.17 0 5.741 2.57 5.741 5.74v43.875c0 3.17-2.571 5.74-5.741 5.74M166.0386 123.5247h-6.026c-.552 0-1-.448-1-1v-6.026c0-.553.448-1 1-1h6.026c.553 0 1 .447 1 1v6.026c0 .552-.447 1-1 1" fill="#D4604F" mask="url(#b)"/><path d="M166.0386 133.9251h-6.026c-.552 0-1-.448-1-1v-6.026c0-.553.448-1 1-1h6.026c.553 0 1 .447 1 1v6.026c0 .552-.447 1-1 1" fill="#F9B53F" mask="url(#b)"/><path d="M166.0386 144.3255h-6.026c-.552 0-1-.448-1-1v-6.026c0-.553.448-1 1-1h6.026c.553 0 1 .447 1 1v6.026c0 .552-.447 1-1 1" fill="#67B373" mask="url(#b)"/><path d="M170.6187 119.3333h18.131" fill="#FFF" mask="url(#b)"/><path d="M188.7495 120.3333h-18.131c-.553 0-1-.447-1-1 0-.553.447-1 1-1h18.131c.553 0 1 .447 1 1 0 .553-.447 1-1 1" fill="#375D81" mask="url(#b)"/><path d="M159.4292 97.0296h29.32" fill="#FFF" mask="url(#b)"/><path d="M188.7495 98.0296h-29.32c-.553 0-1-.447-1-1 0-.553.447-1 1-1h29.32c.553 0 1 .447 1 1 0 .553-.447 1-1 1" fill="#375D81" mask="url(#b)"/><path d="M159.4292 91.5081h29.32" fill="#FFF" mask="url(#b)"/><path d="M188.7495 92.5081h-29.32c-.553 0-1-.447-1-1 0-.553.447-1 1-1h29.32c.553 0 1 .447 1 1 0 .553-.447 1-1 1M37.1782 35.7718c-1.53 0-2.775 1.245-2.775 2.775v.697c0 1.53 1.245 2.775 2.775 2.775h175.783c1.53 0 2.776-1.245 2.776-2.775v-.697c0-1.53-1.246-2.775-2.776-2.775H37.1782zm175.783 8.247H37.1782c-2.633 0-4.775-2.143-4.775-4.775v-.697c0-2.632 2.142-4.775 4.775-4.775h175.783c2.633 0 4.776 2.143 4.776 4.775v.697c0 2.632-2.143 4.775-4.776 4.775z" fill="#375D81" mask="url(#b)"/><path d="M170.6187 129.7347h18.131" fill="#FFF" mask="url(#b)"/><path d="M188.7495 130.7347h-18.131c-.553 0-1-.447-1-1 0-.553.447-1 1-1h18.131c.553 0 1 .447 1 1 0 .553-.447 1-1 1" fill="#375D81" mask="url(#b)"/><path d="M170.6187 140.3118h18.131" fill="#FFF" mask="url(#b)"/><path d="M188.7495 141.3118h-18.131c-.553 0-1-.447-1-1 0-.553.447-1 1-1h18.131c.553 0 1 .447 1 1 0 .553-.447 1-1 1" fill="#375D81" mask="url(#b)"/><path d="M33.4033 172.5442h183.333" fill="#FFF" mask="url(#b)"/><path d="M216.7368 173.5442H33.4038c-.553 0-1-.447-1-1 0-.553.447-1 1-1h183.333c.553 0 1 .447 1 1 0 .553-.447 1-1 1" fill="#375D81" mask="url(#b)"/><path d="M209.1733 38.8958h-66.594" fill="#FFF" mask="url(#b)"/><path d="M209.1733 39.8958h-66.594c-.552 0-1-.447-1-1 0-.553.448-1 1-1h66.594c.553 0 1 .447 1 1 0 .553-.447 1-1 1" fill="#E1F2FF" mask="url(#b)"/><path d="M39.4629 38.8958h22.42" fill="#FFF" mask="url(#b)"/><path d="M61.8833 39.8958h-22.42c-.553 0-1-.447-1-1 0-.553.447-1 1-1h22.42c.552 0 1 .447 1 1 0 .553-.448 1-1 1" fill="#E1F2FF" mask="url(#b)"/><path fill="#375D81" mask="url(#b)" d="M121.07 180.005h2v-6.389h-2"/><path d="M123.9888 180.0052c0 1.06-.859 1.919-1.919 1.919s-1.919-.859-1.919-1.919c0-1.061.859-1.919 1.919-1.919s1.919.858 1.919 1.919" fill="#FFF" mask="url(#b)"/><path d="M122.0698 179.0862c-.507 0-.919.412-.919.919 0 .507.412.919.919.919.507 0 .919-.412.919-.919 0-.507-.412-.919-.919-.919m0 3.838c-1.609 0-2.919-1.31-2.919-2.919s1.31-2.919 2.919-2.919 2.919 1.31 2.919 2.919-1.31 2.919-2.919 2.919" fill="#375D81" mask="url(#b)"/></g></svg>