<svg enable-background="new 0 0 1658.8 178.8" viewBox="0 0 1658.8 178.8" xmlns="http://www.w3.org/2000/svg" xmlns:xlink="http://www.w3.org/1999/xlink"><linearGradient id="a" gradientTransform="matrix(.8818 -.4717 .4717 .8818 -352.6518 109.629)" gradientUnits="userSpaceOnUse" x1="319.3876" x2="472.5141" y1="196.1095" y2="196.1095"><stop offset=".0429448" stop-color="#5c257e"/><stop offset=".9693" stop-color="#8b4f99"/></linearGradient><linearGradient id="b"><stop offset=".0429448" stop-color="#5c257e"/><stop offset="1" stop-color="#fff"/></linearGradient><linearGradient id="c" gradientTransform="matrix(.8818 -.4717 .4717 .8818 -352.6518 109.629)" gradientUnits="userSpaceOnUse" x1="434.2275" x2="434.2275" xlink:href="#b" y1="266.4271" y2="119.6717"/><linearGradient id="d" gradientTransform="matrix(.8818 -.4717 .4717 .8818 -352.6518 109.629)" gradientUnits="userSpaceOnUse" x1="357.6634" x2="357.6634" xlink:href="#b" y1="266.421" y2="119.6652"/><linearGradient id="e"><stop offset=".2331" stop-color="#4e256f"/><stop offset=".8405" stop-color="#5c257e"/></linearGradient><linearGradient id="f" gradientTransform="matrix(.8818 -.4717 .4717 .8818 -352.6518 109.629)" gradientUnits="userSpaceOnUse" x1="357.6687" x2="357.6687" xlink:href="#e" y1="146.0709" y2="260.3256"/><linearGradient id="g" gradientTransform="matrix(.8818 -.4717 .4717 .8818 -352.6518 109.629)" gradientUnits="userSpaceOnUse" x1="434.2235" x2="434.2235" xlink:href="#e" y1="146.0771" y2="260.3301"/><path d="m245 85.9c0-6.9-1.8-11.8-5.3-14.5s-8.6-4.1-15.3-4.1c-4.1 0-8 .3-11.6 1-3.6.6-7.1 1.5-10.5 2.6-2.2-3.9-3.4-8.5-3.4-13.9 4-1.3 8.4-2.3 13.2-3s9.5-1.1 13.9-1.1c11.8 0 20.7 2.7 26.8 8 6.1 5.4 9.2 13.9 9.2 25.7v56.6c-4.1.9-9.1 1.9-15 2.9s-11.9 1.5-18 1.5c-5.8 0-11-.5-15.6-1.6s-8.6-2.8-11.8-5.1c-3.2-2.4-5.7-5.4-7.5-9s-2.6-8.1-2.6-13.2 1-9.5 3.1-13.3 4.9-7 8.4-9.5 7.6-4.4 12.2-5.6 9.4-1.9 14.5-1.9c3.8 0 6.9.1 9.3.3s4.4.4 6.1.6v-3.4zm0 17.1c-1.8-.2-4-.5-6.7-.7s-5-.4-6.9-.4c-7.3 0-12.9 1.4-16.7 4.1s-5.7 6.8-5.7 12.3c0 3.5.6 6.3 1.9 8.3s2.9 3.5 4.9 4.6c1.9 1.1 4.1 1.7 6.4 1.9 2.4.2 4.6.4 6.7.4 2.7 0 5.5-.1 8.4-.4s5.4-.7 7.7-1.3z"/><path d="m287.7 16.2c1.3-.2 2.7-.4 4.3-.5s3-.2 4.3-.2 2.8.1 4.4.2 3.1.3 4.4.5v129.3c-1.3.2-2.8.4-4.4.5s-3.1.2-4.4.2-2.7-.1-4.3-.2-3-.3-4.3-.5zm17.8 82.4 33.2-43.6c1.5-.2 3.1-.4 4.6-.5s3.1-.2 4.8-.2c1.8 0 3.4.1 5 .2s3.2.3 4.9.5l-33.2 42.3 38.1 48.2c-1.6.2-3.2.4-4.8.5-1.5.1-3.1.2-4.8.2-1.6 0-3.3-.1-4.9-.2s-3.3-.3-4.9-.5z"/><path d="m388.6 104.6c.2 9.9 2.8 17.1 7.7 21.7s12.1 6.9 21.6 6.9c8.3 0 16.3-1.5 23.8-4.4.9 1.8 1.7 3.9 2.3 6.4s.9 5 1.1 7.5c-3.9 1.6-8.1 2.9-12.8 3.7-4.6.8-9.8 1.2-15.4 1.2-8.2 0-15.3-1.1-21.2-3.4s-10.7-5.5-14.6-9.7c-3.8-4.2-6.6-9.1-8.4-14.8s-2.6-12-2.6-18.8c0-6.7.9-13 2.6-18.8s4.3-10.9 7.9-15.2c3.5-4.3 8-7.7 13.3-10.2s11.7-3.8 19-3.8c6.2 0 11.7 1.1 16.4 3.2s8.6 5 11.8 8.7 5.6 8.1 7.2 13.2 2.5 10.7 2.5 16.7c0 1.7-.1 3.4-.2 5.2s-.2 3.4-.4 4.7zm44.8-13.1c0-3.3-.4-6.4-1.3-9.4s-2.2-5.6-3.9-7.9c-1.7-2.2-3.9-4-6.5-5.4s-5.8-2-9.4-2c-7.2 0-12.7 2.2-16.5 6.5-3.8 4.4-6.1 10.4-7 18.2z"/><path d="m473.6 55c1.3-.2 2.6-.4 3.8-.5s2.5-.2 3.8-.2 2.5.1 3.6.2 2.3.3 3.6.5c.4 1.8.7 4.1 1.1 7.1s.5 5.5.5 7.5c1.2-2 2.7-4 4.5-6s3.9-3.8 6.3-5.4 5.1-2.9 8.1-3.9c3.1-1 6.4-1.5 10.1-1.5 10.4 0 18 3 22.9 8.9s7.4 14.7 7.4 26.4v57.3c-1.3.2-2.8.4-4.4.5s-3.1.2-4.4.2-2.7-.1-4.3-.2-3-.3-4.3-.5v-52.4c0-8.3-1.3-14.5-3.9-18.4s-6.7-5.9-12.4-5.9c-3.3 0-6.4.6-9.3 1.8s-5.5 3-7.8 5.5c-2.2 2.5-4 5.7-5.4 9.6s-2 8.7-2 14.2v45.9c-1.3.2-2.7.4-4.3.5s-3 .2-4.3.2-2.8-.1-4.4-.2-3.1-.3-4.4-.5v-90.7z"/><path d="m588.6 104.6c.2 9.9 2.8 17.1 7.7 21.7s12.1 6.9 21.6 6.9c8.3 0 16.3-1.5 23.8-4.4.9 1.8 1.7 3.9 2.3 6.4s.9 5 1.1 7.5c-3.9 1.6-8.1 2.9-12.8 3.7-4.6.8-9.8 1.2-15.4 1.2-8.2 0-15.3-1.1-21.2-3.4s-10.7-5.5-14.6-9.7c-3.8-4.2-6.6-9.1-8.4-14.8s-2.6-12-2.6-18.8c0-6.7.8-13 2.6-18.8 1.7-5.8 4.3-10.9 7.9-15.2 3.5-4.3 8-7.7 13.3-10.2 5.4-2.5 11.7-3.8 19-3.8 6.2 0 11.7 1.1 16.4 3.2s8.6 5 11.8 8.7 5.6 8.1 7.2 13.2 2.5 10.7 2.5 16.7c0 1.7-.1 3.4-.2 5.2s-.2 3.4-.4 4.7zm44.9-13.1c0-3.3-.4-6.4-1.3-9.4s-2.2-5.6-3.9-7.9c-1.7-2.2-3.9-4-6.5-5.4s-5.8-2-9.4-2c-7.2 0-12.7 2.2-16.5 6.5-3.8 4.4-6.1 10.4-7 18.2z"/><path d="m710.4 147.7c-7.1 0-13.2-1.2-18.5-3.6s-9.7-5.7-13.2-10c-3.5-4.2-6.1-9.2-7.8-15s-2.6-12-2.6-18.7.9-12.9 2.6-18.7 4.3-10.8 7.8-15 7.9-7.6 13.2-10.1 11.5-3.7 18.5-3.7c7.1 0 13.2 1.2 18.5 3.7s9.7 5.8 13.2 10.1c3.5 4.2 6.1 9.2 7.9 15 1.7 5.8 2.6 12 2.6 18.7s-.9 12.9-2.6 18.7-4.3 10.8-7.9 15c-3.5 4.2-7.9 7.6-13.2 10-5.3 2.3-11.5 3.6-18.5 3.6zm0-14c8.1 0 14.1-2.9 18-8.8s5.8-14.1 5.8-24.5c0-10.5-1.9-18.6-5.8-24.4s-9.9-8.7-18-8.7-14.1 2.9-17.9 8.7-5.7 14-5.7 24.4c0 10.5 1.9 18.6 5.7 24.5s9.8 8.8 17.9 8.8z"/><path d="m123.8 159.5c.6 2 1.1 3.3 1.3 3.8-3-42.6 21.7-59.5 30.4-87.5.1-.4.2-.9.3-1.4.2-.6.3-1.3.4-1.9 1.4-7.8-1.5-17-7.2-26.6 0-.1-.1-.1-.1-.2-.5-.8-1-1.6-1.5-2.4-.9-1.5-2-3-3-4.5-.1-.1-.2-.3-.3-.5-.3-.4-.6-.8-.9-1.2s-.6-.8-.9-1.3c-.3-.4-.6-.8-1-1.2-.3-.4-.7-.8-1-1.3-.2-.3-.5-.6-.7-.9-9.2-11.3-21.2-22.5-33.8-32.4s-.1-.1 0 0c1.2 16 .9 32.1-1.1 44.8-2.4 15.4-8.5 33.2-16.7 49.2-17.9-2.1-36-6.8-50.1-13.4-11.8-5.5-25.2-14-37.9-24 .1 1.3.2 2.7.3 4 0 .4.1.8.1 1.2.1 1 .2 1.9.3 2.8 0 .4.1.9.1 1.3.1 1 .2 1.9.3 2.8 0 .4.1.8.1 1.2.2 1.2.3 2.4.5 3.6v.4c.2 1.4.4 2.8.6 4.1 0 .1 0 .2.1.3.4 1.2.6 2.4.8 3.7 0 .3.1.5.1.7.3 1.1.5 2.2.7 3.3.1.2.1.4.1.6.3 1.3.5 2.5.8 3.8.9 4 2 7.9 3.1 11.6v.1c1.9 6.2 4.2 12 6.7 17.1.4.7.8 1.5 1.1 2.2v.1c.3.6.7 1.3 1.1 1.9v.1c.4.7.8 1.3 1.2 1.9.1.1.1.2.2.2.5.8 1.1 1.6 1.6 2.3.1.1.2.2.3.4 0 0 .1.1.1.1.6.8 1.3 1.6 1.9 2.4.5.5.9 1 1.4 1.5.2.2.4.4.6.6.3.3.6.6.9.9.2.2.4.4.7.6.3.3.6.5.9.7.2.2.5.4.7.5.3.2.6.5.9.7.2.2.5.3.7.5.3.2.6.4 1 .6.2.1.5.3.7.4.4.2.7.4 1.1.5.2.1.4.2.6.3.6.3 1.2.5 1.7.7.4.1.7.3 1 .4 28.1 8.4 56.1-2.5 89.9 23.4" fill="url(#a)"/><g opacity=".8"><path d="m104.7 44.9c-2.4 15.3-8.5 33.1-16.7 49.1 31.7 3.7 62.5-1.1 67.8-19.6 5.8-20.2-20.4-51.2-50-74.3 1.2 16.1.8 31.9-1.1 44.8z" fill="url(#c)" opacity=".51"/><path d="m37.9 80.6c-11.8-5.5-25.2-14-37.9-24 2.8 37.5 14.1 76.5 34.1 82.9 18.3 5.8 39.4-17.1 53.9-45.5-17.8-2.1-36-6.8-50.1-13.4z" fill="url(#d)" opacity=".51"/></g><g opacity=".7"><path d="m63.1 116.1c-46.6-17.3-63.1-59.5-63.1-59.5 1.7 23 6.6 46.5 14.8 62.8.4.7.7 1.4 1.1 2.1 0 .1.1.1.1.2.4.6.7 1.3 1.1 1.9 0 .1.1.2.2.2.4.6.7 1.2 1.1 1.8.1.1.1.2.2.2.4.6.7 1.1 1.1 1.7.3.4.5.7.7 1 .1.1.1.2.2.3.2.2.4.5.5.7.4.6.9 1.1 1.3 1.6 3.5 4.1 7.5 7.1 11.8 8.5.4.1.7.3 1 .4 28.1 8.4 56.1-2.5 89.9 23.4-2.6-3.5-26.6-34.2-62-47.3z" fill="url(#f)"/><path d="m155.8 74.4c5.8-20.2-20.4-51.2-50-74.3s25.8 37.1 14.3 85.6c-8.9 37.4 4 74.8 5 77.7-3-42.6 21.7-59.5 30.4-87.5.1-.6.1-1 .3-1.5z" fill="url(#g)"/></g><path d="m813.2 70.4c4.2-5.2 9.1-9.3 14.5-12.3 5.4-3.1 11.5-4.6 18.3-4.6 5 0 9.5.8 13.3 2.4s7 3.9 9.5 6.9 4.4 6.6 5.7 10.9c1.3 4.2 1.9 9 1.9 14.4v58.5h-8.8v-58.7c0-8.6-2-15.3-5.9-20.2s-9.9-7.3-17.9-7.3c-5.9 0-11.5 1.5-16.7 4.6-5.2 3-9.8 7.3-13.8 12.6v68.8h-8.8v-133.8h8.8v57.8z"/><path d="m908.7 97.1v1.7c0 6.9.8 12.9 2.4 18.1s3.9 9.6 6.8 13.1 6.5 6.2 10.7 8 8.8 2.7 14 2.7c4.6 0 8.6-.5 12-1.5s6.2-2.1 8.5-3.4 4.1-2.4 5.5-3.4c1.3-1 2.3-1.5 2.9-1.5.8 0 1.4.3 1.8.9l2.4 2.9c-1.5 1.8-3.4 3.6-5.8 5.2s-5.1 3-8.1 4.1-6.2 2-9.6 2.7-6.8 1-10.3 1c-6.3 0-12-1.1-17.1-3.3-5.2-2.2-9.6-5.4-13.2-9.5-3.7-4.2-6.5-9.3-8.5-15.3s-3-13-3-20.7c0-6.6.9-12.6 2.8-18.2 1.9-5.5 4.6-10.3 8.1-14.4 3.5-4 7.9-7.2 13-9.4 5.1-2.3 10.9-3.4 17.4-3.4 5.2 0 9.9.9 14.4 2.7 4.4 1.8 8.2 4.4 11.5 7.8s5.8 7.6 7.7 12.6 2.8 10.7 2.8 17.1c0 1.3-.2 2.3-.6 2.8s-1 .7-1.8.7h-66.7zm61.1-5.7c0-4.9-.7-9.3-2.1-13.2s-3.3-7.2-5.8-9.9-5.5-4.8-9-6.2-7.3-2.2-11.5-2.2c-4.7 0-9 .7-12.7 2.2s-7 3.6-9.7 6.3c-2.7 2.8-4.9 6.1-6.6 9.9-1.7 3.9-2.8 8.2-3.3 13h60.7z"/><path d="m1011.2 12.6v133.9h-8.8v-133.9z"/><path d="m1050.7 71.4c4-5.5 8.8-9.9 14.2-13.2 5.4-3.2 11.5-4.9 18.3-4.9 11.2 0 20 3.9 26.3 11.7s9.4 19.5 9.4 35.1c0 6.7-.9 12.9-2.6 18.7s-4.3 10.8-7.7 15.1-7.6 7.6-12.5 10.1-10.6 3.7-17.1 3.7c-6.2 0-11.6-1.1-16.1-3.4s-8.5-5.6-11.8-10v44.6h-8.8v-124h4.9c1.5 0 2.4.8 2.7 2.3zm.4 55.1c1.8 2.6 3.6 4.9 5.6 6.7 1.9 1.8 4 3.3 6.1 4.4s4.4 1.9 6.9 2.4c2.4.5 5 .7 7.7.7 5.4 0 10.1-1 14.2-2.9 4-2 7.4-4.7 10.2-8.3 2.7-3.6 4.8-7.9 6.2-12.9s2.1-10.5 2.1-16.5c0-13.6-2.5-23.6-7.5-30s-12.2-9.6-21.6-9.6c-6.1 0-11.6 1.6-16.5 4.7s-9.3 7.5-13.2 13.1v48.2z"/><path d="m1233.1 67.2c-.3.3-.6.6-.9.8s-.7.3-1.1.3c-.6 0-1.4-.4-2.5-1.2-1-.8-2.5-1.7-4.2-2.7-1.8-1-4-1.9-6.7-2.7s-5.9-1.2-9.7-1.2c-5.3 0-10 .9-14 2.8-4.1 1.9-7.5 4.6-10.4 8.1-2.8 3.5-5 7.7-6.4 12.7s-2.2 10.5-2.2 16.7c0 6.4.8 12.1 2.3 17.1s3.6 9.2 6.4 12.6 6.1 6 10 7.8 8.3 2.7 13.1 2.7c4.4 0 8.1-.5 11.1-1.6 3-1 5.4-2.2 7.4-3.4 1.9-1.2 3.5-2.4 4.6-3.4s2-1.6 2.8-1.6 1.3.3 1.8.9l2.3 2.9c-1.4 1.8-3.2 3.6-5.3 5.2s-4.6 3-7.3 4.1c-2.7 1.2-5.6 2.1-8.8 2.7s-6.5 1-9.9 1c-5.8 0-11.1-1.1-16-3.2-4.8-2.1-9-5.2-12.4-9.2-3.5-4-6.2-8.9-8.1-14.8-1.9-5.8-2.9-12.5-2.9-19.9 0-7 .9-13.4 2.8-19.1 1.8-5.8 4.5-10.7 8.1-14.9s7.9-7.4 13-9.7 11-3.5 17.6-3.5c5.9 0 11.2 1 15.8 2.9s8.6 4.5 12.1 7.7z"/><path d="m1259.7 97.1v1.7c0 6.9.8 12.9 2.4 18.1s3.9 9.6 6.8 13.1 6.5 6.2 10.7 8 8.8 2.7 14 2.7c4.6 0 8.6-.5 12-1.5s6.2-2.1 8.5-3.4 4.1-2.4 5.5-3.4c1.3-1 2.3-1.5 2.9-1.5.8 0 1.4.3 1.8.9l2.4 2.9c-1.5 1.8-3.4 3.6-5.8 5.2s-5.1 3-8.1 4.1-6.2 2-9.6 2.7-6.8 1-10.3 1c-6.3 0-12-1.1-17.1-3.3-5.2-2.2-9.6-5.4-13.2-9.5-3.7-4.2-6.5-9.3-8.5-15.3s-3-13-3-20.7c0-6.6.9-12.6 2.8-18.2 1.9-5.5 4.6-10.3 8.1-14.4 3.5-4 7.9-7.2 13-9.4 5.1-2.3 10.9-3.4 17.4-3.4 5.2 0 9.9.9 14.4 2.7 4.4 1.8 8.2 4.4 11.5 7.8s5.8 7.6 7.7 12.6 2.8 10.7 2.8 17.1c0 1.3-.2 2.3-.6 2.8s-1 .7-1.8.7h-66.7zm61.1-5.7c0-4.9-.7-9.3-2.1-13.2s-3.3-7.2-5.8-9.9-5.5-4.8-9-6.2-7.3-2.2-11.5-2.2c-4.7 0-9 .7-12.7 2.2s-7 3.6-9.7 6.3c-2.7 2.8-4.9 6.1-6.6 9.9-1.7 3.9-2.8 8.2-3.3 13h60.7z"/><path d="m1360.9 70.9c4.2-5.3 9.1-9.5 14.7-12.7s11.7-4.8 18.5-4.8c5 0 9.5.8 13.3 2.4s7 3.9 9.5 6.9 4.4 6.6 5.7 10.9c1.3 4.2 1.9 9 1.9 14.4v58.5h-8.8v-58.6c0-8.6-2-15.3-5.9-20.2s-9.9-7.3-17.9-7.3c-5.9 0-11.5 1.5-16.7 4.6-5.2 3-9.8 7.3-13.8 12.6v68.8h-8.8v-91.5h4.9c1.5 0 2.4.8 2.7 2.3z"/><path d="m1477.6 147.9c-6.2 0-11-1.7-14.5-5.2-3.5-3.4-5.2-8.7-5.2-15.9v-62.5h-13.2c-.7 0-1.2-.2-1.7-.6-.4-.4-.6-.9-.6-1.6v-3.4l15.6-1.1 2.2-32.8c.1-.6.4-1 .7-1.5.4-.4.9-.6 1.6-.6h4.1v35h28.9v6.5h-28.9v62.1c0 2.5.3 4.7 1 6.5.6 1.8 1.5 3.3 2.7 4.5 1.1 1.2 2.5 2 4 2.6s3.2.8 5 .8c2.2 0 4.1-.3 5.7-1 1.6-.6 3-1.3 4.1-2.1 1.2-.8 2.1-1.5 2.9-2.1.7-.6 1.3-1 1.7-1 .5 0 1 .3 1.5.9l2.4 3.9c-2.3 2.6-5.3 4.6-8.9 6.2s-7.3 2.4-11.1 2.4z"/><path d="m1518.4 97.1v1.7c0 6.9.8 12.9 2.4 18.1s3.9 9.6 6.8 13.1 6.5 6.2 10.7 8 8.8 2.7 14 2.7c4.6 0 8.6-.5 12-1.5s6.2-2.1 8.5-3.4 4.1-2.4 5.5-3.4c1.3-1 2.3-1.5 2.9-1.5.8 0 1.4.3 1.8.9l2.4 2.9c-1.5 1.8-3.4 3.6-5.8 5.2s-5.1 3-8.1 4.1-6.2 2-9.6 2.7-6.8 1-10.3 1c-6.3 0-12-1.1-17.1-3.3-5.2-2.2-9.6-5.4-13.2-9.5-3.7-4.2-6.5-9.3-8.5-15.3s-3-13-3-20.7c0-6.6.9-12.6 2.8-18.2 1.9-5.5 4.6-10.3 8.1-14.4 3.5-4 7.9-7.2 13-9.4 5.1-2.3 10.9-3.4 17.4-3.4 5.2 0 9.9.9 14.4 2.7 4.4 1.8 8.2 4.4 11.5 7.8s5.8 7.6 7.7 12.6 2.8 10.7 2.8 17.1c0 1.3-.2 2.3-.6 2.8s-1 .7-1.8.7h-66.7zm61.1-5.7c0-4.9-.7-9.3-2.1-13.2s-3.3-7.2-5.8-9.9-5.5-4.8-9-6.2-7.3-2.2-11.5-2.2c-4.7 0-9 .7-12.7 2.2s-7 3.6-9.7 6.3c-2.7 2.8-4.9 6.1-6.6 9.9-1.7 3.9-2.8 8.2-3.3 13h60.7z"/><path d="m1619.6 77c1.4-3.7 3-7.1 4.8-10s3.9-5.4 6.3-7.4 5-3.6 7.9-4.6c2.9-1.1 6.1-1.6 9.7-1.6 1.9 0 3.8.2 5.6.5s3.5.9 4.9 1.8l-.7 6.1c-.3 1-.9 1.5-1.7 1.5-.7 0-1.9-.2-3.4-.6s-3.5-.6-5.9-.6c-3.6 0-6.7.5-9.4 1.6s-5.2 2.7-7.4 4.8-4.1 4.8-5.7 8-3.1 6.8-4.5 10.9v59.2h-8.8v-91.7h4.7c1 0 1.8.2 2.2.6s.7 1.2.8 2.2z"/></svg>