<?xml version="1.0" encoding="UTF-8" standalone="no"?>
<svg width="250px" height="243px" viewBox="0 0 250 243" version="1.1" xmlns="http://www.w3.org/2000/svg" xmlns:xlink="http://www.w3.org/1999/xlink">
    <!-- Generator: Sketch 46.2 (44496) - http://www.bohemiancoding.com/sketch -->
    <title>crowdin</title>
    <desc>Created with Sketch.</desc>
    <defs></defs>
    <g id="Page-1" stroke="none" stroke-width="1" fill="none" fill-rule="evenodd">
        <g id="crowdin">
            <g id="Group" transform="translate(16.000000, 22.000000)">
                <path d="M180,14.4590032 C180,14.4590032 56.8087463,1.0392678 44.3013978,55.6659981 C26.2897088,134.403837 103.963388,116.340334 103.963388,116.340334 C103.963388,116.340334 -1.57601519,161.421762 9.86763532,56.8041376 C17.6140456,-14.0579345 156.404885,3.0379518 180,14.4590032 Z" id="Shape" fill="#EAEFF8"></path>
                <path d="M170,43.1158535 C170,43.1158535 113.897535,42.4790148 110.508102,66.7982892 C105.62859,101.844314 139.912326,90.7036185 139.912326,90.7036185 C139.912326,90.7036185 94.1768368,114.788059 95.011281,68.7486075 C95.5834713,37.5594366 158.882024,39.1356121 169.988079,43.1158535 L170,43.1158535 Z" id="Shape" fill="#EAEFF8"></path>
                <path d="M170,29.1390639 C170,29.1390639 85.4500036,28.1962811 80.3527236,64.2246081 C72.9974552,116.175056 124.642512,99.6763572 124.642512,99.6763572 C124.642512,99.6763572 55.7402556,135.357958 57.0175415,67.1152892 C57.8756561,20.9033498 153.260833,23.236932 170,29.1351681 L170,29.1390639 Z" id="Shape" fill="#EAEFF8"></path>
                <path d="M138.99608,90.0478228 C138.99608,90.0478228 94.7749285,113.994895 91,73 C96.4644345,73.8376215 101.505512,74.456733 106.366272,74.4810119 C108.828011,104.493758 139,90.0518692 139,90.0518692 L138.99608,90.0478228 Z" id="Shape" fill="#F1F4F9"></path>
                <path d="M108.453379,60.6774199 C108.052336,62.1956197 107.218167,65.6652331 106.977542,67 C97.3525165,65.9462366 101.411069,66.9219435 91,65.2476306 C91.0721877,64.6153725 91.328855,61.3448033 91.4571887,60.7008368 C96.9915781,33.0219859 160.5769,38.2439688 171,42.1311847 C171,42.1311847 114.697614,37.6468362 108.437337,60.673517 L108.453379,60.6774199 Z" id="Shape" fill="#F1F4F9"></path>
                <path d="M126,100.574466 C126,100.574466 58.7168438,136.489337 53,75 C61.2996602,76.2624913 68.9575535,77.2003419 76.3595275,77.2203815 C80.0802006,122.217173 126,100.574466 126,100.574466 Z" id="Shape" fill="#F1F4F9"></path>
                <path d="M77.9677195,57.2897019 C77.3609787,59.6014891 76.115978,64.9296837 75.7732088,67 C61.4241822,65.3769987 62.2948947,65.8124381 52,64.3042344 C52.094557,63.3343922 52.4964243,58.3228808 52.6776586,57.3253288 C60.9159383,14.8066529 155.508409,22.8385302 171,28.8238423 C171,28.8238423 87.2461263,21.9359831 77.9677195,57.3055361 L77.9677195,57.2897019 Z" id="Shape" fill="#F1F4F9"></path>
                <path d="M102,115.714996 C102,115.714996 0,158.991659 0,68 C11.8289122,71.0160397 22.7689015,73.4553691 33.4437734,74.519166 C32.7926764,141.059082 101.996101,115.711099 101.996101,115.711099 L102,115.714996 Z" id="Shape" fill="#F1F4F9"></path>
                <path d="M39.9611479,43.8689436 C38.7520088,47.2143346 36.2072848,54.982512 35.4051435,58 C14.6403532,53.5850208 20.0617219,55.4626556 1,50.6651229 C1.28845475,49.2364029 2.55291391,41.8273573 2.97571744,40.3869264 C20.8796689,-21.7233604 158.172274,3.43148139 180,14.4943029 C180,14.4943029 58.4103974,-7.45958141 39.9611479,43.8728472 L39.9611479,43.8689436 Z" id="Shape" fill="#F1F4F9"></path>
            </g>
        </g>
    </g>
</svg>