<?xml version="1.0" encoding="UTF-8" standalone="no"?>
<svg width="28px" height="20px" viewBox="0 0 28 20" version="1.1" xmlns="http://www.w3.org/2000/svg" xmlns:xlink="http://www.w3.org/1999/xlink">
    <!-- Generator: Sketch 49.3 (51167) - http://www.bohemiancoding.com/sketch -->
    <title>GB</title>
    <desc>Created with Sketch.</desc>
    <defs>
        <rect id="path-1" x="0" y="0" width="28" height="20" rx="2"></rect>
    </defs>
    <g id="Page-1" stroke="none" stroke-width="1" fill="none" fill-rule="evenodd">
        <g id="Flags" transform="translate(-124.000000, -316.000000)">
            <g id="GB" transform="translate(124.000000, 316.000000)">
                <mask id="mask-2" fill="white">
                    <use xlink:href="#path-1"></use>
                </mask>
                <use id="Mask" fill="#FFFFFF" xlink:href="#path-1"></use>
                <rect id="Mask-Copy" fill="#0A17A7" mask="url(#mask-2)" x="0" y="0" width="28" height="20"></rect>
                <path d="M6.67374124,13.3333333 L4.4408921e-16,13.3333333 L4.4408921e-16,6.66666667 L6.67374124,6.66666667 L-2.77365027,0.29432063 L-1.2824692,-1.91644623 L10.6666667,6.14334768 L10.6666667,-1.33333333 L17.3333333,-1.33333333 L17.3333333,6.14334768 L29.2824692,-1.91644623 L30.7736503,0.29432063 L21.3262588,6.66666667 L28,6.66666667 L28,13.3333333 L21.3262588,13.3333333 L30.7736503,19.7056794 L29.2824692,21.9164462 L17.3333333,13.8566523 L17.3333333,21.3333333 L10.6666667,21.3333333 L10.6666667,13.8566523 L-1.2824692,21.9164462 L-2.77365027,19.7056794 L6.67374124,13.3333333 Z" id="Rectangle-2" fill="#FFFFFF" mask="url(#mask-2)"></path>
                <path d="M18.6679688,6.33219401 L31.3333333,-2" id="Line" stroke="#DB1F35" stroke-width="0.666666667" stroke-linecap="round" mask="url(#mask-2)"></path>
                <path d="M20.0127767,21.3503418 L31.3666178,13.6975098" id="Line-Copy-2" stroke="#DB1F35" stroke-width="0.666666667" stroke-linecap="round" mask="url(#mask-2)" transform="translate(25.689697, 17.523926) scale(1, -1) translate(-25.689697, -17.523926) "></path>
                <path d="M8.00553385,6.31046549 L-3.83748372,-1.67097982" id="Line-Copy" stroke="#DB1F35" stroke-width="0.666666667" stroke-linecap="round" mask="url(#mask-2)"></path>
                <path d="M9.29003906,22.3104655 L-3.83748372,13.6048991" id="Line-Copy-3" stroke="#DB1F35" stroke-width="0.666666667" stroke-linecap="round" mask="url(#mask-2)" transform="translate(2.726278, 17.957682) scale(1, -1) translate(-2.726278, -17.957682) "></path>
                <polygon id="Rectangle-2-Copy-3" fill="#E6273E" mask="url(#mask-2)" points="0 12 12 12 12 20 16 20 16 12 28 12 28 8 16 8 16 0 12 0 12 8 0 8"></polygon>
            </g>
        </g>
    </g>
</svg>