<?xml version="1.0" encoding="UTF-8" standalone="no"?>
<svg width="22px" height="25px" viewBox="0 0 22 25" version="1.1" xmlns="http://www.w3.org/2000/svg" xmlns:xlink="http://www.w3.org/1999/xlink">
    <!-- Generator: Sketch 46.2 (44496) - http://www.bohemiancoding.com/sketch -->
    <title>Group 3</title>
    <desc>Created with Sketch.</desc>
    <defs></defs>
    <g id="Page-1" stroke="none" stroke-width="1" fill="none" fill-rule="evenodd">
        <g id="shop" transform="translate(-19.000000, -79.000000)">
            <g id="Group" transform="translate(0.000000, 24.000000)">
                <g id="Group-3" transform="translate(31.345292, 68.682624) rotate(-228.000000) translate(-31.345292, -68.682624) translate(16.845292, 58.682624)">
                    <path d="M19.6953187,2.79782304 C18.5467048,2.03090961 17.4413937,1.43059588 16.3793852,0.996881851 C16.3793852,0.996881851 11.6899121,-0.132863743 11.5099121,2.23713626 C9.93108861,8.13266986 10.5662633,6.0963802 9.18,11.35 C8.8691643,12.411649 8.6812669,13.5054803 8.62,14.61 C8.6034875,15.410597 8.9142527,16.183291 9.4804809,16.749519 C10.0467092,17.315747 10.8194026,17.626512 11.62,17.61 L16.03,17.55 C18.6018779,17.53125 20.8353225,15.774932 21.46,13.28 C23.36,5.55 21.4182394,3.94819319 19.6953187,2.79782304 Z" id="Shape" stroke="#52267D" stroke-width="2" fill="#9452BA" fill-rule="nonzero"></path>
                    <polyline id="Shape" stroke="#52267D" stroke-width="0.5" points="13.98 3 13 3.89 13.95 4.73 15.49 4.12 15.18 3.44 13.9 3.76 13.91 3.99 14.24 3.97"></polyline>
                    <path d="M8.86565233,13.2885946 C8.86565233,13.2885946 8.47565233,13.0885946 7.71565233,13.5385946 C6.95565233,13.9885946 6.03565233,14.5385946 6.31565233,15.3385946 C6.59565233,16.1385946 8.73565233,15.7885946 9.20565233,15.6185946 C9.67841133,15.4474996 9.96354293,14.9652916 9.88565233,14.4685946 C9.79512013,13.9145046 9.40081253,13.4583446 8.86565233,13.2885946 L8.86565233,13.2885946 Z" id="Shape" stroke="#52267D" fill="#FFFFFF" fill-rule="nonzero"></path>
                    <path d="M9.00565233,13.5585946 C9.00565233,13.5585946 8.77565233,13.4385946 8.32565233,13.7085946 C7.87565233,13.9785946 7.32565233,14.3185946 7.49565233,14.7685946 C7.66565233,15.2185946 8.92565233,15.0385946 9.20565233,14.9385946 C9.48460063,14.8369376 9.65233033,14.5517966 9.60565233,14.2585946 C9.55366583,13.9307816 9.32165793,13.6601056 9.00565233,13.5585946 L9.00565233,13.5585946 Z" id="Shape" fill="#EAF3FB" fill-rule="nonzero"></path>
                    <path d="M12.2217128,15.5376725 C12.7317128,15.4676725 13.4717128,16.5376725 13.3917128,16.8976725 C13.3117128,17.2576725 13.2717128,18.3476725 12.4517128,18.4776725 C11.8517128,18.5776725 9.69171276,18.8276725 9.21171276,18.3676725 C8.73171276,17.9076725 9.60171276,15.9176725 12.2217128,15.5376725 Z" id="Shape" stroke="#52267D" fill="#FFFFFF" fill-rule="nonzero" transform="translate(11.241785, 17.085081) rotate(-52.000000) translate(-11.241785, -17.085081) "></path>
                    <path d="M12.3717128,15.8376725 C12.6717128,15.8376725 13.1117128,16.4376725 13.0617128,16.6376725 C13.0117128,16.8376725 12.9917128,17.4876725 12.5017128,17.5676725 C12.0117128,17.6476725 10.8717128,17.7776725 10.5917128,17.4976725 C10.3117128,17.2176725 10.8217128,16.0676725 12.3717128,15.8376725 Z" id="Shape" fill="#EAF3FB" fill-rule="nonzero" transform="translate(11.792123, 16.753126) rotate(-52.000000) translate(-11.792123, -16.753126) "></path>
                    <path d="M18.5596926,14.9879799 C18.6922223,14.8592779 18.8878569,14.8201519 19.0596926,14.8879799 C19.6496926,15.1579799 21.1296926,15.8879799 20.8396926,16.9779799 C20.6096926,17.8079799 20.1096926,17.5679799 19.1396926,17.5979799 L18.4096926,17.5979799 C18.2568491,17.6024519 18.1142169,17.5214989 18.0396926,17.3879799 L18.0396926,17.3879799 C17.6400178,16.5815179 17.8282876,15.6074269 18.4996926,15.0079799 L18.5596926,14.9879799 Z" id="Shape" stroke="#52267D" fill="#FFFFFF" fill-rule="nonzero" transform="translate(19.354277, 16.231749) rotate(20.000000) translate(-19.354277, -16.231749) "></path>
                    <path d="M18.6396926,15.2179799 C18.735404,15.1187719 18.8815457,15.0871739 19.0096926,15.1379799 C19.4396926,15.3279799 20.5096926,15.8879799 20.2996926,16.6579799 C20.1396926,17.2579799 19.7696926,17.0879799 19.0696926,17.1079799 L18.5396926,17.1079799 C18.42889,17.1117099 18.3250625,17.0540279 18.2696926,16.9579799 L18.2696926,16.9579799 C17.9731229,16.3734179 18.1087649,15.6623259 18.5996926,15.2279799 L18.6396926,15.2179799 Z" id="Shape" fill="#EAF3FB" fill-rule="nonzero" transform="translate(19.220258, 16.114896) rotate(20.000000) translate(-19.220258, -16.114896) "></path>
                    <path d="M16.4122206,15.9625354 C15.7388847,15.4405194 14.7865917,15.4828444 14.1622206,16.0625354 C12.9322206,16.9325354 11.9422206,18.3525354 12.4522206,18.5325354 C13.2212687,18.8040544 14.0406337,18.9030614 14.8522206,18.8225354 C15.7022206,18.7325354 16.4322206,18.9425354 16.8522206,17.2125354 C16.9754554,16.7450754 16.8010946,16.2497324 16.4122206,15.9625354 Z" id="Shape" stroke="#52267D" fill="#FFFFFF" fill-rule="nonzero" transform="translate(14.603235, 17.223688) rotate(-45.000000) translate(-14.603235, -17.223688) "></path>
                    <path d="M15.7606607,16.6101023 C15.3425913,16.2835543 14.7492587,16.3089833 14.3606607,16.6701023 C13.5906607,17.2101023 12.9806607,18.0901023 13.3006607,18.2101023 C13.7781755,18.3783963 14.2868064,18.4398413 14.7906607,18.3901023 C15.3206607,18.3301023 15.7906607,18.4701023 16.0606607,17.3901023 C16.1340973,17.0929183 16.0143141,16.7814823 15.7606607,16.6101023 L15.7606607,16.6101023 Z" id="Shape" fill="#EAF3FB" fill-rule="nonzero" transform="translate(14.647844, 17.394036) rotate(-45.000000) translate(-14.647844, -17.394036) "></path>
                    <path d="M26.7467783,9.30792853 C27.2856992,9.92747861 27.6541439,10.4594644 27.8521124,10.903886 C28.050081,11.3483075 28.2485462,12.0889835 28.4475082,13.1259139" id="Line" stroke="#52267D" stroke-linecap="square" transform="translate(27.597143, 11.216921) rotate(18.000000) translate(-27.597143, -11.216921) "></path>
                    <path d="M24.7467783,10.3079285 C25.3375059,10.8377467 25.731854,11.3248665 25.9298226,11.7692881 C26.1277911,12.2137096 26.300353,12.9992515 26.4475082,14.1259139" id="Line" stroke="#52267D" stroke-linecap="square" transform="translate(25.597143, 12.216921) rotate(18.000000) translate(-25.597143, -12.216921) "></path>
                    <path d="M2.99359765,11.5637237 C3.52313773,12.1424147 3.88689205,12.6539709 4.08486059,13.0983924 C4.28282914,13.542814 4.48598479,14.3039195 4.69432756,15.3817091" id="Line" stroke="#52267D" stroke-linecap="square" transform="translate(3.843963, 13.472716) rotate(204.000000) translate(-3.843963, -13.472716) "></path>
                    <path d="M1.1636245,11.5135351 C1.7402505,11.9864693 2.12754777,12.4451472 2.32551632,12.8895688 C2.52348486,13.3339903 2.70309756,14.1479742 2.86435442,15.3315205" id="Line" stroke="#52267D" stroke-linecap="square" transform="translate(2.013989, 13.422528) rotate(204.000000) translate(-2.013989, -13.422528) "></path>
                </g>
            </g>
        </g>
    </g>
</svg>