<svg xmlns="http://www.w3.org/2000/svg" width="22" height="25">
    <g fill="none" fill-rule="evenodd">
        <path fill="#9452BA" fill-rule="nonzero" stroke="#52267D" stroke-width="2" d="M14.22 22.36c1.34-.34 2.53-.76 3.56-1.26 0 0 3.98-2.73 2.33-4.45-3.3-5.1-2.22-3.28-5.2-7.82-.58-.95-1.27-1.82-2.05-2.6-.58-.55-1.36-.84-2.16-.8-.8.05-1.56.4-2.08 1.02l-2.9 3.32c-1.72 1.92-1.9 4.76-.47 6.9 4.47 6.57 6.96 6.2 8.97 5.7z"/>
        <path stroke="#52267D" stroke-width=".5" d="M17.9 17.98v-1.32l-1.27.14-.58 1.55.72.23.6-1.17-.16-.13-.2.25"/>
        <path fill="#FFF" fill-rule="nonzero" stroke="#52267D" d="M13.67 7.3s.4-.16.6-1.03c.16-.86.37-1.9-.42-2.24-.78-.33-1.95 1.5-2.14 1.96-.18.45 0 1 .4 1.26.48.3 1.1.32 1.57.03z"/>
        <path fill="#EAF3FB" fill-rule="nonzero" d="M13.38 7.22s.24-.1.34-.6c.1-.52.22-1.16-.23-1.33-.46-.2-1.17.87-1.28 1.14-.1.28 0 .6.24.76.27.18.63.2.92.02z"/>
        <path fill="#FFF" fill-rule="nonzero" stroke="#52267D" d="M10.95 7.22c.16.5-.76 1.4-1.13 1.4-.37-.03-1.45.12-1.72-.67-.2-.57-.83-2.65-.46-3.2.37-.56 2.5-.05 3.3 2.47z"/>
        <path fill="#EAF3FB" fill-rule="nonzero" d="M10.14 7.56c.05.3-.46.84-.67.82-.2 0-.85.08-1-.4-.17-.46-.5-1.56-.27-1.88.22-.33 1.45-.02 1.94 1.46z"/>
        <path fill="#FFF" fill-rule="nonzero" stroke="#52267D" d="M5.75 13.85c-.06.17-.2.3-.4.32-.64.04-2.3.1-2.55-1-.18-.85.37-.87 1.2-1.36l.66-.33c.13-.08.3-.07.42 0 .74.54 1.03 1.5.72 2.33l-.05.05z"/>
        <path fill="#EAF3FB" fill-rule="nonzero" d="M5.58 13.62c-.04.13-.16.23-.3.24-.46.04-1.67.04-1.85-.73-.14-.6.27-.63.88-.98l.48-.25c.1-.05.2-.05.3 0 .54.4.76 1.08.53 1.7l-.02.02z"/>
        <path fill="#FFF" fill-rule="nonzero" stroke="#52267D" d="M8.26 10.67c.5-.7.4-1.65-.22-2.25-.93-1.18-2.4-2.1-2.55-1.57-.24.78-.3 1.6-.18 2.4.14.85-.03 1.6 1.72 1.92.47.1.96-.1 1.22-.5z"/>
        <path fill="#EAF3FB" fill-rule="nonzero" d="M7.6 9.92c.3-.44.24-1.03-.14-1.4-.58-.74-1.5-1.3-1.6-.98-.14.5-.17 1-.1 1.5.1.53-.02 1 1.07 1.22.3.05.6-.08.76-.34z"/>
        <path stroke="#52267D" d="M4.37 23.83C3.6 23.56 3 23.3 2.6 23c-.38-.3-.92-.83-1.6-1.63M4.96 21.67C4.2 21.5 3.6 21.3 3.2 21c-.4-.3-.93-.88-1.62-1.78M15.34 2.04c.72.32 1.26.63 1.62.96.36.33.86.94 1.5 1.84M16.6.72c.72.2 1.26.45 1.62.78.37.33.86 1 1.5 2" stroke-linecap="square"/>
    </g>
</svg>