<svg xmlns="http://www.w3.org/2000/svg">
  <defs>
    <g fill="none" fill-rule="evenodd" id="icon--marketplace">
      <path fill="#EEF4F9" fill-rule="nonzero" d="M197.8258 213C222.3558 192.8255 238 162.2395 238 128c0-60.7508-49.2492-110-110-110S18 67.2492 18 128c0 34.2395 15.644 64.8255 40.1742 85h139.6516z"/>
      <path fill="#FFF" fill-rule="nonzero" d="M51.7013 66.464h154.5974v147.0462H51.7013"/>
      <path fill="#5992C7" fill-rule="nonzero" d="M52.948 67.7102V212.264h152.104V67.7102H52.948zm154.5975-2.4923v149.538H50.4545V65.218h157.091z"/>
      <path fill="#BDD3E9" fill-rule="nonzero" d="M61.765 56.4948h134.3103l10.231 9.9493h-154.61"/>
      <path fill="#5992C7" fill-rule="nonzero" d="M61.765 56.4948L51.6964 66.444h154.61l-10.231-9.9492H61.765zm-1.0244-2.4923h136.3476l15.3565 14.934H45.6273l15.1133-14.934z"/>
      <path fill="#FFF" fill-rule="nonzero" d="M61.6753 206.0333h34.909V106.341h-34.909"/>
      <path fill="#FFF" d="M106.5584 213.5102h44.8832V106.341h-44.8832m54.8572 0v99.6923h34.909V106.341h-34.909"/>
      <path fill="#5992C7" fill-rule="nonzero" d="M60.4286 207.2794V105.0948h37.4026v102.1846H60.4286zm34.909-2.4923v-97.2H62.9222v97.2H95.338zm9.974 9.9695V105.0948h47.3767v109.6615h-47.3766zm44.8832-2.4923V107.587h-42.3896v104.677h42.3896zm9.974-107.169h37.4026v102.1845h-37.4026v-102.185zm2.4935 99.6922h32.4156v-97.2h-32.416v97.2z"/>
      <path fill="#5992C7" fill-rule="nonzero" d="M51.7013 106.341h154.5974v7.477H51.7013"/>
      <path fill="#FFF" fill-rule="nonzero" d="M119.026 133.7538h19.948c2.753 0 4.987 2.2332 4.987 4.9847v7.477c0 2.7514-2.234 4.9845-4.987 4.9845h-19.948c-2.753 0-4.987-2.233-4.987-4.9846v-7.477c0-2.7514 2.234-4.9846 4.987-4.9846z"/>
      <path fill="#5992C7" fill-rule="nonzero" d="M209.152 75.177L225 90.819v11.7536c0 3.4445-2.7897 6.2357-6.2338 6.2357H39.2338c-3.441 0-6.2338-2.7954-6.2338-6.2404l.0443-11.746L48.686 75.177h160.466z"/>
      <path fill="#FFF" fill-rule="nonzero" d="M208.64 76.4233H49.203L34.289 91.341l-.0422 9.9875c0 2.7518 2.234 4.99 4.987 4.99h179.5324c2.7554 0 4.987-2.2333 4.987-4.99V91.341l-15.113-14.9177z"/>
      <path fill="#EEF4F9" fill-rule="nonzero" d="M95.3377 167.4025H81.4453v-14.954H62.922v52.3386h32.4157m42.3896-27.4152h12.4675v34.8923h-12.4675zm-29.922-9.9692h17.4544v44.8615h-17.4545zm54.857-14.954h32.4156v52.3386h-32.416z"/>
      <path fill="#5992C7" fill-rule="nonzero" d="M138.974 133.7538h-19.948c-2.753 0-4.987 2.2332-4.987 4.9847v7.477c0 2.7514 2.234 4.9845 4.987 4.9845h19.948c2.753 0 4.987-2.233 4.987-4.9846v-7.477c0-2.7514-2.234-4.9846-4.987-4.9846zm1.2468 12.4616c0 .6854-.561 1.246-1.2468 1.246h-19.948c-.6882 0-1.2468-.5606-1.2468-1.246v-7.477c0-.6853.5586-1.246 1.2468-1.246h19.948c.6857 0 1.2468.5607 1.2468 1.246v7.477z"/>
      <path fill="#D4BAE3" fill-rule="nonzero" d="M96.5844 76.4333L94.091 91.3846v14.9314h9.974V91.3846l2.4934-14.9513m-27.4284 0l-4.987 14.9513v14.9314h9.974V91.3846l4.987-14.9513m24.935 0h9.974v29.8828h-9.974zm-49.8702 0l-9.974 14.9513v14.9314h9.974V91.3846l7.4806-14.9513m114.7012 0l7.4806 14.9513v14.9314h9.974V91.3846l-7.4805-14.9513m27.3837 14.9065L208.65 76.4333h-4.8448l9.974 14.9513v14.9314h4.987c2.7554 0 4.987-2.233 4.987-4.9896v-9.9418l-.03-.0448h-.0148zM39.2338 106.316h4.987V91.3846l9.974-14.9513h-5.002L34.2866 91.3398h-.005l-.0348.0448v9.9418c0 2.7565 2.234 4.9896 4.987 4.9896zm94.7532-29.8827h9.974v29.8828h-9.974zm49.87 29.8827V91.3846l-4.987-14.9513h-9.974l4.987 14.9513v14.9314m-9.974 0V91.3846l-2.4934-14.9513h-9.974l2.4935 14.9513v14.9314"/>
      <path fill="#C2C6C6" fill-rule="nonzero" d="M208.645 76.4308H49.1954L34.289 91.3398h-.0422v.0448h189.5064v-.0448h-.0448"/>
      <path fill="#9452BA" fill-rule="nonzero" d="M94.091 91.3846h9.974l2.4934-14.9513h-9.974m37.4026 0h9.974v14.9514h-9.974zM74.143 91.3846h9.974l4.987-14.9513H79.13m107.2206 0l7.4806 14.9513h9.974l-7.4805-14.9513m-82.2857 0h9.974v14.9514h-9.974zm89.7662 0l9.974 14.9513h9.974l-.03-.0448h-.0148L208.65 76.4333m-47.2344 0h-9.974l2.4935 14.9513h9.974M54.195 76.4333h-5.002L34.289 91.3398h-.0048l-.0374.0448h9.974M178.87 76.4333h-9.974l4.987 14.9513h9.974m-119.6882 0l7.4806-14.9513h-7.4806l-9.974 14.9513"/>
      <path fill="#BDD3E9" fill-rule="nonzero" d="M107.8052 108.8333h42.3896v7.477h-42.3896zm54.857 0h32.4157v7.477h-32.416zm-99.7402 0h32.4157v7.477H62.922z"/>
      <path fill="#5992C7" d="M23.16 213h210.68v3H23.16zm76.3333 9h59.54v3h-59.54zm62.5934 0h6.1067v3h-6.1067zM14 213h6.1067v3H14zm222.8933 0H243v3h-6.1067z"/>
    </g>
  </defs>
</svg>
