<svg width="1470" height="938" xmlns="http://www.w3.org/2000/svg">
  <g fill="none" fill-rule="evenodd">
    <path d="M357 778c0-225.884 186.026-409 415.5-409S1188 552.116 1188 778H357z" fill="#E1F2FF" fill-rule="nonzero"/>
    <g stroke-width="2">
      <path stroke="#4992C7" d="M987.985 250.674L696.69 396.936l-16.154-32.173 291.296-146.261z"/>
      <path stroke="#9ACDED" d="M688.463 361.782l7.301 14.54M695.578 358.21l4.971 9.899M701.662 355.155l4.971 9.899M707.746 352.101l4.97 9.899M713.83 349.046l4.97 9.899M720.635 345.629l7.301 14.539M727.75 342.056l4.971 9.899M733.834 339.001l4.971 9.899M739.918 335.946l4.971 9.899M746.002 332.892l4.971 9.899M752.808 329.475l7.3 14.539M759.923 325.902l4.97 9.899M766.006 322.848l4.971 9.898M772.09 319.793l4.971 9.898M778.174 316.738l4.971 9.898M784.98 313.32l7.301 14.54M792.095 309.748l4.971 9.899M798.179 306.693l4.971 9.899M804.263 303.639l4.97 9.899M810.347 300.584l4.97 9.899M817.152 297.167l7.3 14.539M824.267 293.595l4.971 9.898M830.351 290.54l4.971 9.898M836.435 287.484l4.971 9.899M842.519 284.43l4.971 9.899M849.324 281.013l7.3 14.54M856.44 277.44l4.97 9.899M862.523 274.386l4.97 9.899M868.606 271.331l4.971 9.899M874.69 268.276l4.971 9.899M881.496 264.859l7.301 14.539M888.611 261.286l4.971 9.899M894.695 258.231l4.971 9.899M900.779 255.177l4.97 9.899M906.863 252.122l4.97 9.899M913.669 248.705l7.3 14.539M920.783 245.133l4.971 9.899M926.867 242.078l4.971 9.898M932.951 239.023l4.971 9.898M939.035 235.969l4.971 9.898M945.841 232.551l7.3 14.54M952.956 228.979l4.97 9.899M959.04 225.924l4.97 9.899M965.123 222.869l4.971 9.899"/>
      <path d="M977.752 244.191a3.116 3.116 0 11-5.57 2.795 3.116 3.116 0 015.57-2.795z" stroke="#4992C7"/>
    </g>
    <path d="M609 280.819V260.18l-15.851-1.237a57.493 57.493 0 00-8.426-20.324l10.338-12.089-14.593-14.593-12.089 10.34a57.463 57.463 0 00-20.323-8.426L546.82 198h-20.637l-1.237 15.852a57.46 57.46 0 00-20.324 8.426l-12.09-10.34-14.592 14.593 10.339 12.09a57.495 57.495 0 00-8.427 20.323L464 260.181v20.638l15.851 1.237a57.495 57.495 0 008.427 20.324l-10.34 12.089 14.594 14.593 12.089-10.34a57.46 57.46 0 0020.324 8.426L526.182 343h20.637l1.237-15.852a57.476 57.476 0 0020.324-8.426l12.088 10.34 14.593-14.593-10.338-12.09a57.493 57.493 0 008.426-20.323L609 280.819z" stroke="#5E63B6" stroke-width="3" fill="#FFF"/>
    <path d="M556 276c0 13.254-10.746 24-24 24s-24-10.746-24-24c0-13.255 10.746-24 24-24s24 10.745 24 24z" fill="#E1F2FF"/>
    <path d="M561 271c0 13.254-10.746 24-24 24s-24-10.746-24-24c0-13.255 10.746-24 24-24s24 10.745 24 24z" stroke="#5E63B6" stroke-width="3" fill="#FFF"/>
    <path d="M504 259.273C509.01 245.688 522.077 236 537.407 236 557.064 236 573 251.93 573 271.58c0 11.033-5.024 20.894-12.91 27.42" stroke="#9ACDED" stroke-width="3"/>
    <path d="M584 286.969C577.32 305.082 559.898 318 539.458 318 513.248 318 492 296.76 492 270.56c0-14.712 6.698-27.858 17.213-36.56" stroke="#9ACDED" stroke-width="3"/>
    <path d="M504 227.122v-11.244l-8.636-.674a31.32 31.32 0 00-4.591-11.074l5.632-6.585-7.95-7.95-6.586 5.632a31.289 31.289 0 00-11.073-4.59l-.674-8.637h-11.244l-.674 8.636a31.289 31.289 0 00-11.073 4.591l-6.586-5.632-7.95 7.95 5.632 6.585a31.32 31.32 0 00-4.59 11.074l-8.637.674v11.244l8.636.674a31.307 31.307 0 004.591 11.073l-5.632 6.586 7.95 7.95 6.586-5.632a31.307 31.307 0 0011.073 4.59l.674 8.637h11.244l.674-8.636a31.307 31.307 0 0011.073-4.591l6.586 5.632 7.95-7.95-5.632-6.586a31.307 31.307 0 004.59-11.073l8.637-.674z" fill="#FFF"/>
    <path d="M504 227.122v-11.244l-8.636-.674a31.32 31.32 0 00-4.591-11.074l5.632-6.585-7.95-7.95-6.586 5.632a31.289 31.289 0 00-11.073-4.59l-.674-8.637h-11.244l-.674 8.636a31.289 31.289 0 00-11.073 4.591l-6.586-5.632-7.95 7.95 5.632 6.585a31.32 31.32 0 00-4.59 11.074l-8.637.674v11.244l8.636.674a31.307 31.307 0 004.591 11.073l-5.632 6.586 7.95 7.95 6.586-5.632a31.307 31.307 0 0011.073 4.59l.674 8.637h11.244l.674-8.636a31.307 31.307 0 0011.073-4.591l6.586 5.632 7.95-7.95-5.632-6.586a31.307 31.307 0 004.59-11.073l8.637-.674z" stroke="#5E63B6" stroke-width="3"/>
    <path d="M474 227c0 7.18-5.82 13-13 13s-13-5.82-13-13 5.82-13 13-13 13 5.82 13 13z" fill="#E1F2FF"/>
    <path d="M477 222c0 7.18-5.82 13-13 13s-13-5.82-13-13 5.82-13 13-13 13 5.82 13 13z" stroke="#5E63B6" stroke-width="3" fill="#FFF"/>
    <path d="M446 215.56c2.76-7.332 9.956-12.56 18.398-12.56 10.826 0 19.602 8.596 19.602 19.202 0 5.955-2.766 11.276-7.11 14.798" stroke="#9ACDED" stroke-width="3"/>
    <g fill="#ACD3EF">
      <path d="M1028.858 608.257l-18.164 10.903v-3.57l14.57-8.668-14.57-8.888v-3.497l18.164 10.806zM1058.701 608.257l-18.163 10.903v-3.57l14.57-8.668-14.57-8.888v-3.497l18.163 10.806zM1088.545 608.257l-18.163 10.903v-3.57l14.569-8.668-14.57-8.888v-3.497l18.164 10.806zM1118.389 608.257l-18.164 10.903v-3.57l14.57-8.668-14.57-8.888v-3.497l18.164 10.806zM1148.231 608.257l-18.163 10.903v-3.57l14.57-8.668-14.57-8.888v-3.497l18.163 10.806z"/>
    </g>
    <g fill="#ACD3EF">
      <path d="M611 675.856L626 667v2.898l-12.032 7.042L626 684.16V687l-15-8.777zM586 675.856L601 667v2.898l-12.032 7.042L601 684.16V687l-15-8.777zM562 675.856L577 667v2.898l-12.032 7.042L577 684.16V687l-15-8.777zM538 675.856L553 667v2.898l-12.032 7.042L553 684.16V687l-15-8.777zM513 675.856L528 667v2.898l-12.032 7.042L528 684.16V687l-15-8.777z"/>
    </g>
    <path d="M980.455 640h-461.91C512.72 640 508 635.281 508 629.461V332.54c0-5.821 4.721-10.539 10.545-10.539h461.91c5.825 0 10.545 4.718 10.545 10.539V629.46c0 5.82-4.72 10.539-10.545 10.539" fill="#FFF"/>
    <path d="M783.102 194.321c-6.19-15.214-18.187-28.066-34.519-34.95-16.33-6.883-33.907-6.496-49.12-.305M764.444 201.914c-4.248-10.438-12.479-19.257-23.685-23.98-11.205-4.724-23.264-4.457-33.704-.209M746.628 209.165a24.726 24.726 0 00-13.34-13.506 24.718 24.718 0 00-18.981-.118" stroke="#F1F4F9" stroke-width="3"/>
    <path d="M697.463 157.066c15.214-6.19 32.79-6.579 49.12.305 16.333 6.884 28.328 19.736 34.52 34.95" stroke="#FFF" stroke-width="3"/>
    <path d="M781.102 192.321c-6.19-15.214-18.187-28.066-34.519-34.95-16.33-6.883-33.907-6.496-49.12-.305" stroke="#5E63B6" stroke-width="3"/>
    <path d="M705.056 175.725c10.439-4.248 22.499-4.514 33.704.209 11.206 4.724 19.437 13.542 23.685 23.98" stroke="#FFF" stroke-width="3"/>
    <path d="M762.444 199.914c-4.248-10.438-12.479-19.257-23.685-23.98-11.205-4.724-23.264-4.457-33.704-.209" stroke="#5E63B6" stroke-width="3"/>
    <path d="M715.5 256v66" stroke="#5E63B6" stroke-width="5"/>
    <path d="M744.628 207.165a24.726 24.726 0 00-13.34-13.506 24.718 24.718 0 00-18.981-.118" stroke="#5E63B6" stroke-width="3"/>
    <path d="M714.611 255.168c-12.912 0-23.378-10.467-23.378-23.378s10.466-23.378 23.378-23.378c12.911 0 23.378 10.467 23.378 23.378 0 12.91-10.467 23.378-23.378 23.378z" stroke="#5E63B6" stroke-width="5" fill="#FFF"/>
    <path d="M712.611 248.097c-6.245 0-11.308-5.062-11.308-11.308 0-6.245 5.063-11.307 11.308-11.307 6.244 0 11.308 5.062 11.308 11.307 0 6.246-5.064 11.308-11.308 11.308" fill="#E1F2FF"/>
    <path d="M714.611 243.097c-6.245 0-11.308-5.062-11.308-11.308 0-6.245 5.063-11.307 11.308-11.307 6.244 0 11.308 5.062 11.308 11.307 0 6.246-5.064 11.308-11.308 11.308" stroke="#5E63B6" stroke-width="2" fill="#FFF"/>
    <path d="M980.455 640h-461.91C512.72 640 508 635.281 508 629.461V332.54c0-5.821 4.721-10.539 10.545-10.539h461.91c5.825 0 10.545 4.718 10.545 10.539V629.46c0 5.82-4.72 10.539-10.545 10.539z" stroke="#5E63B6" stroke-width="3"/>
    <path fill="#FFF" d="M539 591h423V352H539z"/>
    <path d="M956 616.5a5.5 5.5 0 11-11 0 5.5 5.5 0 0111 0z" stroke="#5E63B6" stroke-width="2"/>
    <path stroke="#5E63B6" stroke-width="3" fill="#FFF" d="M824 704H680l15.568-63h112.865z"/>
    <path d="M834.336 714h-168.67c-1.473 0-2.666-1.25-2.666-2.794v-5.412c0-1.542 1.193-2.794 2.665-2.794h168.67c1.473 0 2.665 1.252 2.665 2.794v5.412c0 1.544-1.192 2.794-2.664 2.794z" stroke="#5E63B6" stroke-width="3" fill="#FFF"/>
    <g stroke-width="2">
      <path stroke="#ACD3EF" fill="#E1F2FF" d="M906.692 536.625h54.174v-26.939h-54.174zM539.655 509.686h59.283v-26.939h-59.283zM599.433 536.625h42.065v-26.939h-42.065z"/>
      <path stroke="#ACD3EF" fill="#ACD3EF" d="M952.546 509.686h6.994v-4.115h-6.994zM913.127 509.686h6.994v-4.115h-6.994z"/>
      <path stroke="#ACD3EF" fill="#E1F2FF" d="M599.433 509.686h42.065v-26.939h-42.065zM658.655 563.686h59.283v-26.939h-59.283zM718.433 563.686h42.065v-26.939h-42.065z"/>
      <path stroke="#ACD3EF" fill="#ACD3EF" d="M625.577 482.746h6.994v-4.115h-6.994zM605.867 482.746h6.994v-4.115h-6.994zM686.244 536.413h6.994v-4.116h-6.994zM704.619 536.413h6.994v-4.116h-6.994z"/>
      <path stroke="#ADD2E9" fill="#9ACDED" d="M666.534 536.413h6.994v-4.116h-6.994zM646.521 536.413h6.994v-4.116h-6.994z"/>
      <path stroke="#ACD3EF" fill="#ACD3EF" d="M745.869 536.413h6.994v-4.116h-6.994zM726.159 536.413h6.994v-4.116h-6.994zM806.085 563.018h6.993v-4.116h-6.993zM824.46 563.018h6.993v-4.116h-6.993zM786.375 563.018h6.994v-4.116h-6.994zM766.362 563.018h6.994v-4.116h-6.994zM846 563.018h6.994v-4.116H846z"/>
      <path stroke="#ACD3EF" fill="#E1F2FF" d="M539.6 482.746h39.96v-26.939H539.6z"/>
      <path stroke="#ACD3EF" fill="#ACD3EF" d="M565.744 455.807h6.994v-4.116h-6.994zM546.034 455.807h6.994v-4.116h-6.994z"/>
      <path stroke="#ACD3EF" fill="#E1F2FF" d="M558.978 536.625h39.96v-26.939h-39.96z"/>
      <path stroke="#ACD3EF" fill="#E1F2FF" d="M538.998 536.625h19.98v-26.939h-19.98zM858.502 562.44h20.364v-25.762h-20.364zM878.866 563.618h59.283v-26.939h-59.283zM938.645 563.618h22.659v-26.939h-22.659zM581.514 563.618h77.135v-26.939h-77.135zM538.696 563.618h42.817v-26.939h-42.817z"/>
      <path stroke="#ACD3EF" fill="#E1F2FF" d="M896.785 590.242h52.285v-26.939h-52.285zM960.931 590.242H949.07v-26.939h11.861z"/>
      <path stroke="#ACD3EF" fill="#E1F2FF" d="M837.716 590.242h59.283v-26.939h-59.283z"/>
      <path stroke="#ACD3EF" fill="#E1F2FF" d="M778.716 590.242h59.283v-26.939h-59.283zM737.978 590.242h39.96v-26.939h-39.96z"/>
      <path stroke="#ACD3EF" fill="#E1F2FF" d="M717.998 590.242h19.98v-26.939h-19.98zM658.715 590.242h59.283v-26.939h-59.283z"/>
      <path stroke="#ACD3EF" fill="#E1F2FF" d="M599.433 590.242h59.283v-26.939h-59.283zM558.978 590.242h39.96v-26.939h-39.96z"/>
      <path stroke="#ACD3EF" fill="#E1F2FF" d="M538.998 590.242h19.98v-26.939h-19.98zM926.344 509.686h19.979v-26.939h-19.979z"/>
      <path stroke="#ACD3EF" fill="#ACD3EF" d="M932.508 482.746h6.994v-4.115h-6.994z"/>
      <path stroke="#ACD3EF" fill="#E1F2FF" d="M864.889 536.648h41.543v-26.939h-41.543z"/>
      <path stroke="#ACD3EF" fill="#ACD3EF" d="M892.616 509.709h6.993v-4.115h-6.993zM871.733 509.709h6.994v-4.115h-6.994z"/>
      <path stroke="#ACD3EF" d="M538.697 590.678h422.607V351.931H538.697zM570.287 411.703l36.479-36.479M570.287 441.266l53.726-53.725"/>
    </g>
    <path d="M1173.87 387.113h-59.067a5.19 5.19 0 01-5.19-5.189V275.675a5.19 5.19 0 015.19-5.189h59.067a5.189 5.189 0 015.19 5.19v106.248a5.189 5.189 0 01-5.19 5.19" fill="#FFF"/>
    <path d="M1173.87 387.113h-59.067a5.19 5.19 0 01-5.19-5.189V275.675a5.19 5.19 0 015.19-5.189h59.067a5.189 5.189 0 015.19 5.19v106.248a5.189 5.189 0 01-5.19 5.19z" stroke="#5E63B6" stroke-width="3"/>
    <path d="M1118.306 367.622h52.059v-87.426h-52.059z"/>
    <path stroke="#ACD3EF" stroke-width="2" d="M1118.306 367.622h52.059v-87.426h-52.059z"/>
    <path stroke="#ACD3EF" stroke-width="2" d="M1128.288 317.137h32.096v-3.762h-32.096zM1128.288 331.616h32.096v-14.479h-32.096z"/>
    <path stroke="#9452BA" d="M1131.451 321.902h18.026M1131.451 324.377h18.026M1131.451 326.851h18.026M1152.018 327.546h5.472v-6.4h-5.472z"/>
    <path d="M1150.4 276.805h-12.129a.667.667 0 01-.667-.667v-.488c0-.368.3-.667.667-.667h12.13c.367 0 .666.3.666.667v.488a.667.667 0 01-.667.667z" stroke="#FFF"/>
    <path d="M1148.843 378.452a4.507 4.507 0 11-9.015 0 4.507 4.507 0 019.015 0z" stroke="#5E63B6" stroke-width="2"/>
    <g>
      <path d="M1387.394 565.294h-193.49a8.393 8.393 0 01-8.395-8.393V442.907a8.393 8.393 0 018.394-8.392h193.491a8.393 8.393 0 018.393 8.392V556.9a8.393 8.393 0 01-8.393 8.393" fill="#FFF"/>
      <path d="M1387.394 565.294h-193.49a8.393 8.393 0 01-8.395-8.393V442.907a8.393 8.393 0 018.394-8.392h193.491a8.393 8.393 0 018.393 8.392V556.9a8.393 8.393 0 01-8.393 8.393z" stroke="#5E63B6" stroke-width="3"/>
      <path fill="#FFF" d="M1198.685 551.25h183.926V447.344h-183.926z"/>
      <path stroke="#ACD3EF" stroke-width="2" d="M1198.685 551.25h183.926V447.344h-183.926z"/>
      <path d="M1410.406 577.507H1170.89c-6.745 0-12.213-5.468-12.213-12.213h263.942c0 6.745-5.468 12.213-12.213 12.213" fill="#FFF"/>
      <path d="M1410.406 577.507H1170.89c-6.745 0-12.213-5.468-12.213-12.213h263.942c0 6.745-5.468 12.213-12.213 12.213z" stroke="#5E63B6" stroke-width="3"/>
      <path d="M1306.59 568.658h-34.475a3.364 3.364 0 01-3.364-3.364h41.204a3.364 3.364 0 01-3.364 3.364" fill="#11324D"/>
      <path d="M1306.59 568.658h-34.475a3.364 3.364 0 01-3.364-3.364h41.204a3.364 3.364 0 01-3.364 3.364z" stroke="#5E63B6" stroke-width="3"/>
      <path d="M1275.426 510.106c-.19.095-.391.18-.604.256a4.701 4.701 0 01-.69.184c.248.057.478.122.69.192.213.071.415.158.604.263l6.376 3.223c.189.095.322.204.397.326a.764.764 0 01.115.412v1.82l-10.978-5.71v-1.05l10.978-5.696v1.803a.748.748 0 01-.115.42c-.075.12-.208.224-.397.32l-6.376 3.237zM1288.902 520.402c-.123.331-.315.577-.575.738a1.512 1.512 0 01-.803.241h-1.065l8.535-21.258c.113-.303.286-.535.518-.696.233-.16.5-.242.803-.242h1.08l-8.493 21.217zM1312.519 510.022v1.05l-10.978 5.71v-1.82c0-.15.038-.288.114-.412.076-.122.208-.23.397-.326l6.377-3.224c.189-.104.39-.19.604-.262.213-.07.437-.135.673-.192a5.202 5.202 0 01-1.277-.44l-6.377-3.238c-.19-.095-.321-.2-.397-.32a.755.755 0 01-.114-.419v-1.803l10.978 5.695z" fill="#9452BA"/>
      <path stroke="#ACD3EF" stroke-width="2" d="M1248.062 535.07h87.731v-49.03h-87.731zM1248.062 486.035h87.731v-9.084h-87.731z"/>
    </g>
    <path d="M827.967 520.848a3.514 3.514 0 00-6.968 0h-.034v-.78c0-1.933-1.516-3.59-3.453-3.627a3.514 3.514 0 00-3.583 3.509v-.99c0-1.934-1.515-3.59-3.452-3.627a3.514 3.514 0 00-3.583 3.51v-13.217c0-1.933-1.516-3.59-3.453-3.625a3.513 3.513 0 00-3.583 3.508V531.633l-5.967-5.954c-1.52-1.515-3.993-1.655-5.583-.212a3.977 3.977 0 00-.14 5.765l10.687 10.758a3.422 3.422 0 002.43 1.01h23.296a3.415 3.415 0 003.419-3.411v-.967l-.033-17.774z"/>
    <path d="M827.967 520.848a3.514 3.514 0 00-6.968 0h-.034v-.78c0-1.933-1.516-3.59-3.453-3.627a3.514 3.514 0 00-3.583 3.509v-.99c0-1.934-1.515-3.59-3.452-3.627a3.514 3.514 0 00-3.583 3.51v-13.217c0-1.933-1.516-3.59-3.453-3.625a3.513 3.513 0 00-3.583 3.508V531.633l-5.967-5.954c-1.52-1.515-3.993-1.655-5.583-.212a3.977 3.977 0 00-.14 5.765l10.687 10.758a3.422 3.422 0 002.43 1.01h23.296a3.415 3.415 0 003.419-3.411v-.967l-.033-17.774z" stroke="#9452BA" stroke-width="2"/>
    <g>
      <path d="M221.217 653H104.783C98.827 653 94 648.168 94 642.207v-74.414C94 561.83 98.827 557 104.783 557h116.434c5.955 0 10.783 4.831 10.783 10.793v74.414c0 5.96-4.828 10.793-10.783 10.793" fill="#FFF"/>
      <path d="M221.217 653H104.783C98.827 653 94 648.168 94 642.207v-74.414C94 561.83 98.827 557 104.783 557h116.434c5.955 0 10.783 4.831 10.783 10.793v74.414c0 5.96-4.828 10.793-10.783 10.793z" stroke="#5E63B6" stroke-width="3"/>
      <path fill="#FFF" d="M103 645h114v-80H103z"/>
      <path stroke="#ACD3EF" stroke-width="2" d="M103 645h114v-80H103z"/>
      <path d="M228 605.5a3.5 3.5 0 11-7.001 0 3.5 3.5 0 017.001 0z" stroke="#5E63B6" stroke-width="2"/>
      <g fill="#9452BA">
        <path d="M126.666 617.97c0-1.345-.023-2.482-.07-3.411-.047-.93-.186-1.724-.417-2.385a4.341 4.341 0 00-1.062-1.69c-.476-.463-1.144-.916-2.003-1.357v-.453a9.869 9.869 0 001.619-1.027 4.6 4.6 0 001.098-1.237c.278-.463.481-.992.609-1.584.127-.591.191-1.282.191-2.071 0-1.648.053-3.1.157-4.352.105-1.254.383-2.304.836-3.152.452-.847 1.131-1.485 2.037-1.915.905-.43 2.147-.644 3.725-.644h.488a6.925 6.925 0 01.139 1.392c0 .256-.012.494-.035.714a5.784 5.784 0 01-.104.645c-.883 0-1.579.092-2.089.278-.512.187-.9.493-1.167.923-.267.43-.441.98-.522 1.654-.082.673-.122 1.497-.122 2.472v.209c0 1.277-.047 2.356-.14 3.238-.092.883-.255 1.619-.487 2.21-.232.593-.539 1.08-.923 1.464a5.355 5.355 0 01-1.41.992 6.091 6.091 0 011.41 1.027c.384.383.691.87.923 1.462.232.592.395 1.33.487 2.212.093.882.14 1.96.14 3.238v.244c0 .952.04 1.764.122 2.437.081.673.255 1.219.522 1.637.267.418.655.726 1.167.923.51.196 1.206.296 2.089.296.046.209.081.423.104.643a6.91 6.91 0 010 1.41 7.329 7.329 0 01-.104.698c-1.393 0-2.548-.14-3.465-.418-.917-.28-1.654-.71-2.211-1.29-.557-.58-.952-1.323-1.184-2.228-.232-.904-.348-1.973-.348-3.203M194.83 599.83c0 1.346.024 2.483.07 3.412.048.928.187 1.724.418 2.385a4.33 4.33 0 001.062 1.688c.476.465 1.144.917 2.003 1.36v.452a9.935 9.935 0 00-1.62 1.026 4.609 4.609 0 00-1.096 1.237 5.165 5.165 0 00-.61 1.585c-.127.591-.191 1.282-.191 2.071 0 1.648-.052 3.098-.157 4.352-.105 1.254-.383 2.304-.836 3.152-.452.846-1.131 1.485-2.037 1.915-.905.43-2.147.644-3.725.644h-.488a6.925 6.925 0 01-.139-1.392c0-.256.012-.494.035-.714.023-.222.058-.436.104-.645.883 0 1.579-.092 2.089-.278.512-.187.9-.494 1.167-.923.267-.43.44-.98.522-1.654.082-.674.122-1.497.122-2.472v-.209c0-1.277.047-2.356.14-3.238.092-.883.255-1.619.487-2.21.232-.594.54-1.08.923-1.464a5.355 5.355 0 011.41-.992 6.091 6.091 0 01-1.41-1.027c-.383-.383-.691-.87-.923-1.463-.232-.592-.395-1.329-.487-2.21-.093-.883-.14-1.963-.14-3.24v-.243c0-.952-.04-1.764-.122-2.437-.081-.674-.255-1.219-.522-1.637-.267-.418-.655-.726-1.167-.923-.51-.197-1.206-.296-2.09-.296a5.766 5.766 0 01-.103-.644 6.882 6.882 0 010-1.41c.023-.232.058-.464.104-.697 1.393 0 2.548.14 3.465.418.917.28 1.654.708 2.21 1.288.558.581.953 1.324 1.185 2.23.232.904.348 1.972.348 3.203M141.002 611.352c-.059-.408-.109-.81-.153-1.204a10.82 10.82 0 01-.065-1.203c0-.408.021-.824.065-1.248.044-.422.094-.838.153-1.247a16.39 16.39 0 013.633-.131c.409.029.817.072 1.225.13.059.41.11.818.154 1.226a11.459 11.459 0 010 2.45c-.044.41-.095.819-.154 1.227-.408.058-.809.102-1.203.13a16.383 16.383 0 01-2.429 0 17.579 17.579 0 01-1.226-.13M158.393 611.352c-.059-.408-.109-.81-.153-1.204a10.819 10.819 0 01-.066-1.203c0-.408.022-.824.066-1.248.044-.422.094-.838.153-1.247a16.383 16.383 0 013.633-.131c.41.029.817.072 1.225.13.06.41.11.818.154 1.226a11.723 11.723 0 010 2.45c-.044.41-.095.819-.154 1.227-.408.058-.809.102-1.203.13a16.41 16.41 0 01-2.429 0 17.579 17.579 0 01-1.226-.13M175.784 611.352c-.06-.408-.11-.81-.153-1.204a10.82 10.82 0 01-.065-1.203c0-.408.02-.824.065-1.248.044-.422.094-.838.153-1.247a16.39 16.39 0 013.633-.131c.409.029.817.072 1.226.13.058.41.109.818.153 1.226a11.459 11.459 0 010 2.45c-.044.41-.095.819-.153 1.227-.41.058-.81.102-1.204.13a16.383 16.383 0 01-2.43 0 17.579 17.579 0 01-1.225-.13"/>
      </g>
    </g>
    <path d="M760.735 629.531c.267.231.438.409.497.466.004.01 0-.01 0 0 0 .002.001-.001.001-.001-6.477-3.476-10.887-.83-15.894-1.455a1.761 1.761 0 00-.237-.051 3.555 3.555 0 01-.335-.066c-1.318-.328-2.555-1.43-3.663-3.006l-.017-.025c-.095-.13-.184-.266-.273-.4 0 0-.001-.005-.004-.006a21.3 21.3 0 01-.483-.786l-.05-.082a8.318 8.318 0 00-.126-.228c-.044-.079-.088-.155-.13-.232l-.124-.236c-.044-.081-.085-.162-.128-.243-.03-.055-.058-.115-.089-.174-1.117-2.22-2.024-4.888-2.673-7.546 0 0-.015-.026 0 0 2.434 1.316 4.966 2.398 7.103 2.995 2.575.72 5.798 1.023 8.893.879.948-2.924 1.496-6.086 1.469-8.74-.025-2.22-.402-4.905-1.06-7.594.201.108.4.22.602.331l.178.104c.142.08.285.16.425.245a42.895 42.895 0 01.79.472c.176.11.351.22.525.331a.46.46 0 01.052.033c.203.126.402.259.6.39.017.009.031.02.047.03.18.12.353.239.529.359.037.024.07.05.107.074.16.11.317.222.475.335.03.023.058.046.09.067a32.467 32.467 0 01.542.398c.563.429 1.1.864 1.606 1.304l.02.015c.84.74 1.587 1.494 2.2 2.247.09.11.176.22.26.33.002.005.007.007.01.01v.003c.076.1.15.2.22.297v.003c.004.003.006.008.008.011.077.106.151.213.22.32l.026.044c.001.002.003.001.003.003a8.963 8.963 0 01.291.479c.005.008.008.017.016.025.087.156.168.31.24.468.053.107.1.216.144.324.019.047.035.092.052.137.026.067.048.133.073.2.016.048.029.097.044.149.02.06.037.124.054.186.013.049.024.096.034.147.015.062.028.123.04.186l.023.144c.01.064.015.13.025.191a5.03 5.03 0 01.017.347v.106a2.974 2.974 0 01-.022.316 1.96 1.96 0 00-.01.191c-.68 4.97-4.394 8.554-2.736 15.645" fill="#9452BA"/>
    <g transform="translate(874 561)">
      <path d="M30 61h0c0 21.54 17.57 39 39.246 39H235" stroke="#5E63B6" stroke-width="5"/>
      <path d="M61 30.5C61 47.345 47.344 61 30.5 61 13.655 61 0 47.345 0 30.5S13.655 0 30.5 0C47.344 0 61 13.655 61 30.5" fill="#FFF"/>
      <path d="M61 30.5C61 47.345 47.344 61 30.5 61 13.655 61 0 47.345 0 30.5S13.655 0 30.5 0C47.344 0 61 13.655 61 30.5z" stroke="#5E63B6" stroke-width="5"/>
      <ellipse fill="#E1F2FF" fill-rule="nonzero" cx="23.685" cy="37.5" rx="12.685" ry="13.5"/>
      <path d="M46 31c0 8.837-7.163 16-16 16s-16-7.163-16-16 7.163-16 16-16 16 7.163 16 16z" stroke="#5E63B6" stroke-width="2" fill="#FFF"/>
      <path d="M255 94v12h-18.865a1.126 1.126 0 01-1.135-1.115v-9.771c0-.616.51-1.114 1.135-1.114H255z" stroke="#5E63B6" stroke-width="5" fill="#5E63B6"/>
      <path d="M272 98.922v2.155c0 .51-1.04.923-2.326.923H255v-4h14.674c1.285 0 2.326.412 2.326.922z" stroke="#5E63B6" stroke-width="3" fill="#5E63B6"/>
    </g>
    <g transform="translate(990 454)">
      <path fill="#11324D" d="M.087 24.54h219.589"/>
      <path stroke="#5E63B6" stroke-width="5" d="M.087 23.305h219.589"/>
      <path d="M266.756 23.683c0 12.91-10.467 23.377-23.378 23.377S220 36.593 220 23.682C220 10.773 230.467.306 243.378.306s23.378 10.466 23.378 23.378z" stroke="#5E63B6" stroke-width="4" fill="#FFF"/>
      <ellipse fill="#E1F2FF" fill-rule="nonzero" cx="240.685" cy="25.5" rx="12.685" ry="13.5"/>
      <path d="M254.615 23.613c0 6.245-5.062 11.307-11.308 11.307-6.245 0-11.307-5.063-11.307-11.308 0-6.244 5.062-11.307 11.307-11.307 6.246 0 11.308 5.063 11.308 11.308" stroke="#5E63B6" stroke-width="2" fill="#FFF"/>
    </g>
    <g>
      <path d="M389.502 362h-84.004c-2.484 0-4.498 2.024-4.498 4.52v46.586c0 2.496 2.014 4.52 4.498 4.52h64.84L383.648 431v-13.373h5.854c2.483 0 4.498-2.025 4.498-4.52V366.52c0-2.496-2.015-4.52-4.498-4.52" fill="#FFF"/>
      <path d="M389.502 362h-84.004c-2.484 0-4.498 2.024-4.498 4.52v46.586c0 2.496 2.014 4.52 4.498 4.52h64.84L383.648 431v-13.373h5.854c2.483 0 4.498-2.025 4.498-4.52V366.52c0-2.496-2.015-4.52-4.498-4.52zM319 378h3" stroke="#4992C7" stroke-width="2"/>
      <path stroke="#4992C7" stroke-width="2" stroke-dasharray="5.708,5.708" d="M328 378h43"/>
      <path stroke="#4992C7" stroke-width="2" d="M374 378h3M319 384h2"/>
      <path stroke="#4992C7" stroke-width="2" stroke-dasharray="4.106,3.079" d="M324 384h49"/>
      <path stroke="#4992C7" stroke-width="2" d="M375 384h2M319 390h6"/>
      <path stroke="#4992C7" stroke-width="2" stroke-dasharray="11.344,2.836" d="M328 390h41"/>
      <path stroke="#4992C7" stroke-width="2" d="M371 390h6M319 396h3"/>
      <path stroke="#4992C7" stroke-width="2" stroke-dasharray="5.708,5.708" d="M328 396h43"/>
      <path stroke="#4992C7" stroke-width="2" d="M374 396h3"/>
      <path stroke="#4992C7" stroke-width="2" stroke-dasharray="12,5" d="M319 401h57"/>
      <g>
        <path d="M421.808 501H362.19a3.2 3.2 0 01-3.191-3.21v-33.082a3.2 3.2 0 013.191-3.211h46.017l9.445-9.497v9.497h4.155a3.202 3.202 0 013.192 3.21v33.083c0 1.773-1.43 3.21-3.192 3.21" fill="#FFF"/>
        <path d="M421.808 501H362.19a3.2 3.2 0 01-3.191-3.21v-33.082a3.2 3.2 0 013.191-3.211h46.017l9.445-9.497v9.497h4.155a3.202 3.202 0 013.192 3.21v33.083c0 1.773-1.43 3.21-3.192 3.21zM371 489h3" stroke="#4992C7" stroke-width="2"/>
        <path stroke="#4992C7" stroke-width="2" stroke-dasharray="6.902,6.902" d="M381 489h24"/>
        <path stroke="#4992C7" stroke-width="2" d="M409 489h3M371 485h2"/>
        <path stroke="#4992C7" stroke-width="2" stroke-dasharray="3.843,2.882" d="M376 485h32"/>
        <path stroke="#4992C7" stroke-width="2" d="M410 485h2M371 481h6"/>
        <path stroke="#4992C7" stroke-width="2" stroke-dasharray="10.368,2.592" d="M380 481h25"/>
        <path stroke="#4992C7" stroke-width="2" d="M406 481h6M371 477h3"/>
        <path stroke="#4992C7" stroke-width="2" stroke-dasharray="6.902,6.902" d="M381 477h24"/>
        <path stroke="#4992C7" stroke-width="2" d="M409 477h3"/>
        <path stroke="#4992C7" stroke-width="2" stroke-dasharray="12,5" d="M371 473h41"/>
      </g>
    </g>
    <g>
      <path d="M208 560.5c0-12.978 10.522-23.5 23.5-23.5s23.5 10.522 23.5 23.5-10.522 23.5-23.5 23.5-23.5-10.522-23.5-23.5" fill="#FFF"/>
      <g transform="translate(208 536)">
        <ellipse fill="#E1F2FF" fill-rule="nonzero" cx="20.685" cy="25.5" rx="12.685" ry="13.5"/>
        <path d="M0 23.5C0 10.522 10.522 0 23.5 0S47 10.522 47 23.5 36.478 47 23.5 47 0 36.478 0 23.5z" stroke="#5E63B6" stroke-width="5"/>
        <path d="M12 23.5C12 17.149 17.148 12 23.5 12S35 17.149 35 23.5 29.852 35 23.5 35 12 29.851 12 23.5" stroke="#5E63B6" stroke-width="2" fill="#FFF"/>
        <path fill="#11324D" d="M335.49 23.529H33.849"/>
        <path stroke="#5E63B6" stroke-width="5" d="M298 24.5H45.5"/>
      </g>
    </g>
    <g>
      <path d="M697 509.5c0 16.845-13.656 30.5-30.5 30.5S636 526.345 636 509.5s13.656-30.5 30.5-30.5 30.5 13.655 30.5 30.5z" stroke="#5E63B6" stroke-width="5" fill="#FFF"/>
      <path d="M682 512.5c0 10.217-8.283 18.5-18.5 18.5s-18.5-8.283-18.5-18.5 8.283-18.5 18.5-18.5 18.5 8.283 18.5 18.5" fill="#E1F2FF"/>
      <path d="M683 509c0 8.836-7.163 16-16 16s-16-7.164-16-16 7.163-16 16-16 16 7.164 16 16" fill="#FFF"/>
      <path d="M683 509c0 8.836-7.163 16-16 16s-16-7.164-16-16 7.163-16 16-16 16 7.164 16 16z" stroke="#5E63B6" stroke-width="2"/>
      <path d="M312 450v-12h18.865c.626 0 1.135.498 1.135 1.115v9.771c0 .615-.51 1.114-1.135 1.114H312zM303 444.848v-2.695c0-.637.552-1.153 1.231-1.153H312v5h-7.769c-.68 0-1.231-.516-1.231-1.152z" stroke="#5E63B6" stroke-width="2" fill="#5E63B6"/>
      <path d="M635 509h-64.13c-18.073 0-32.724-14.552-32.724-32.5 0-17.95-14.651-32.5-32.724-32.5H332" stroke="#5E63B6" stroke-width="5"/>
    </g>
    <g transform="translate(718 302)">
      <path d="M62.065 88.147c0 16.93-13.725 30.654-30.654 30.654-16.93 0-30.655-13.724-30.655-30.654S14.48 57.493 31.41 57.493s30.655 13.724 30.655 30.654" fill="#FFF"/>
      <path d="M63.065 87.147c0 16.93-13.725 30.654-30.654 30.654-16.93 0-30.655-13.724-30.655-30.654S15.48 56.493 32.41 56.493s30.655 13.724 30.655 30.654z" stroke="#5E63B6" stroke-width="4"/>
      <ellipse fill="#E1F2FF" fill-rule="nonzero" cx="28.01" cy="91.99" rx="16.01" ry="16.011"/>
      <path d="M48.42 87.147c0 8.843-7.168 16.01-16.01 16.01-8.842 0-16.01-7.167-16.01-16.01 0-8.843 7.168-16.01 16.01-16.01 8.842 0 16.01 7.168 16.01 16.01" fill="#FFF"/>
      <path d="M48.42 87.147c0 8.843-7.168 16.01-16.01 16.01-8.842 0-16.01-7.167-16.01-16.01 0-8.843 7.168-16.01 16.01-16.01 8.842 0 16.01 7.168 16.01 16.01z" stroke="#5E63B6" stroke-width="2"/>
      <path d="M366.35.455h9.527c.935 0 1.692.758 1.692 1.691v20.13c0 .934-.757 1.691-1.692 1.691h-9.526a4.075 4.075 0 01-4.075-4.075V4.53A4.075 4.075 0 01366.35.455" fill="#5E63B6"/>
      <path d="M366.35.455h9.527c.935 0 1.692.758 1.692 1.691v20.13c0 .934-.757 1.691-1.692 1.691h-9.526a4.075 4.075 0 01-4.075-4.075V4.53A4.075 4.075 0 01366.35.455z" stroke="#375D81" stroke-width="2"/>
      <path d="M386.085 9.762h-8.517V6.775h8.517c.575 0 1.042.466 1.042 1.042v.903c0 .576-.467 1.042-1.042 1.042zM386.085 18.125h-8.517v-2.986h8.517c.575 0 1.042.465 1.042 1.041v.904c0 .575-.467 1.041-1.042 1.041z" stroke="#5E63B6" stroke-width="2" fill="#5E63B6"/>
      <path d="M63.065 87.147h253.072c12.39 0 22.433-10.044 22.433-22.434V34.93c0-12.111 9.819-21.93 21.93-21.93" stroke="#5E63B6" stroke-width="5"/>
    </g>
    <g fill="#FFF" fill-rule="nonzero" stroke="#375D81" stroke-linecap="round" stroke-width="2">
      <path d="M362 588v10.12M367.084 593H357"/>
    </g>
    <g fill="#FFF" fill-rule="nonzero" stroke="#375D81" stroke-linecap="round" stroke-width="2">
      <path d="M626 188v10.12M631.084 193H621"/>
    </g>
    <g fill="#FFF" fill-rule="nonzero" stroke="#375D81" stroke-linecap="round" stroke-width="2">
      <path d="M1085 420v10.12M1090.084 425H1080"/>
    </g>
    <g fill="#FFF" fill-rule="nonzero" stroke="#375D81" stroke-linecap="round" stroke-width="2">
      <path d="M344 287v10.12M349.084 292H339"/>
    </g>
    <g fill="#FFF" fill-rule="nonzero" stroke="#375D81" stroke-linecap="round" stroke-width="2">
      <path d="M1015 206v10.12M1020.084 211H1010"/>
    </g>
    <g fill="#FFF" fill-rule="nonzero" stroke="#375D81" stroke-linecap="round" stroke-width="2">
      <path d="M1296 346v10.12M1301.084 351H1291"/>
    </g>
    <g fill="#FFF" fill-rule="nonzero" stroke="#375D81" stroke-linecap="round" stroke-width="2">
      <path d="M1120.5 528.61v6.747M1124 532h-7"/>
    </g>
    <g fill="#FFF" fill-rule="nonzero" stroke="#375D81" stroke-linecap="round" stroke-width="2">
      <path d="M453.5 378.61v6.747M457 382h-7"/>
    </g>
    <g fill="#FFF" fill-rule="nonzero" stroke="#375D81" stroke-linecap="round" stroke-width="2">
      <path d="M131 421v10.12M136.084 426H126"/>
    </g>
    <g stroke="#9ACDED" stroke-linecap="round" stroke-width="5">
      <path fill="#FFF" fill-rule="nonzero" d="M286 817h75"/>
      <path d="M1271.5 778h-23M993 778h234.5"/>
      <path fill="#FFF" fill-rule="nonzero" d="M508 817h187M717 817h38M493 817h-15M249 817h12M916 817h46"/>
    </g>
    <path d="M913 778h-53.844c12.843-43.9-9.802-90.697-50.58-104.523-40.776-13.827-84.243 10.553-97.086 54.453-14.65-3.551-30.012-.068-42.087 9.545-12.075 9.612-19.67 24.404-20.809 40.525h-46.171c-1.793-34.654-26.525-62.872-58.555-66.808-8.763-45.558-41.546-81.338-83.74-91.394-42.193-10.057-85.94 7.483-111.746 44.802-29.887-8.118-61.547 1.001-83.675 24.101-22.129 23.1-31.57 56.888-24.955 89.299H185" stroke="#ACD3EF" stroke-width="5" fill="#FFF" fill-rule="nonzero" stroke-linecap="round"/>
    <g transform="rotate(60 80.351 1443.48)">
      <path d="M32.627 30.579C27.447 21.28 0 2.934 0 2.934" stroke="#ACD3EF" stroke-width="2"/>
      <path d="M60.922 107.283H9.071a1.08 1.08 0 01-1.068-1.092V48.037a5.519 5.519 0 011.601-3.88l23.06-23.328a3.261 3.261 0 014.659 0l23.076 23.328A5.519 5.519 0 0162 48.037v58.154c0 .292-.114.57-.316.776a1.055 1.055 0 01-.762.316z" stroke="#5E63B6" stroke-width="2" fill="#FFF" fill-rule="nonzero"/>
      <ellipse fill="#EFEFF6" fill-rule="nonzero" cx="34.004" cy="64.996" rx="13.195" ry="13.495"/>
      <ellipse stroke="#5E63B6" stroke-width="2" fill="#FFF" fill-rule="nonzero" cx="35.605" cy="62.267" rx="13.195" ry="13.495"/>
      <path stroke="#ACD3EF" stroke-width="2" stroke-linecap="round" d="M20.275 87.692h29.709M20.275 95.077h29.709"/>
      <ellipse stroke="#375D81" stroke-width="2" fill="#FFF" fill-rule="nonzero" cx="35.215" cy="34.039" rx="4.269" ry="4.366"/>
      <path d="M3.201.206s1.116 4.977 2.63 6.68c3.026 3.393 7.012 6.886 10.71 12.845 6.557 10.575 10.415 20.807 16.23 15.148.78-.759 1.27-2.821.369-3.82" stroke="#ACD3EF" stroke-width="2"/>
    </g>
    <g transform="rotate(15 -1760.769 4843.197)">
      <path d="M32.627 29.446C27.447 20.492 0 2.826 0 2.826" stroke="#ACD3EF" stroke-width="2"/>
      <path d="M60.922 103.31H9.071a1.06 1.06 0 01-1.068-1.052v-56a5.216 5.216 0 011.601-3.736l23.06-22.464a3.35 3.35 0 014.659 0l23.076 22.464A5.216 5.216 0 0162 46.258v56c0 .28-.114.55-.316.747a1.076 1.076 0 01-.762.304z" stroke="#5E63B6" stroke-width="2" fill="#FFF" fill-rule="nonzero"/>
      <ellipse fill="#EFEFF6" fill-rule="nonzero" cx="34.004" cy="62.588" rx="13.195" ry="12.995"/>
      <ellipse stroke="#5E63B6" stroke-width="2" fill="#FFF" fill-rule="nonzero" cx="35.605" cy="59.961" rx="13.195" ry="12.995"/>
      <path stroke="#ACD3EF" stroke-width="2" stroke-linecap="round" d="M20.275 84.444h29.709M20.275 91.556h29.709"/>
      <ellipse stroke="#375D81" stroke-width="2" fill="#FFF" fill-rule="nonzero" cx="35.215" cy="32.778" rx="4.269" ry="4.204"/>
      <path d="M3.201.198s1.116 4.793 2.63 6.432C8.858 9.9 12.844 13.262 16.542 19c6.557 10.184 10.415 20.036 16.23 14.587.78-.73 1.27-2.717.369-3.678" stroke="#ACD3EF" stroke-width="2"/>
    </g>
    <g transform="rotate(-60 1165.077 -590.279)">
      <path d="M32.627 30.579C27.447 21.28 0 2.934 0 2.934" stroke="#ACD3EF" stroke-width="2"/>
      <path d="M60.922 107.283H9.071a1.08 1.08 0 01-1.068-1.092V48.037a5.519 5.519 0 011.601-3.88l23.06-23.328a3.261 3.261 0 014.659 0l23.076 23.328A5.519 5.519 0 0162 48.037v58.154c0 .292-.114.57-.316.776a1.055 1.055 0 01-.762.316z" stroke="#5E63B6" stroke-width="2" fill="#FFF" fill-rule="nonzero"/>
      <ellipse fill="#EFEFF6" fill-rule="nonzero" cx="34.004" cy="64.996" rx="13.195" ry="13.495"/>
      <ellipse stroke="#5E63B6" stroke-width="2" fill="#FFF" fill-rule="nonzero" cx="35.605" cy="62.267" rx="13.195" ry="13.495"/>
      <path stroke="#ACD3EF" stroke-width="2" stroke-linecap="round" d="M20.275 87.692h29.709M20.275 95.077h29.709"/>
      <ellipse stroke="#375D81" stroke-width="2" fill="#FFF" fill-rule="nonzero" cx="35.215" cy="34.039" rx="4.269" ry="4.366"/>
      <path d="M3.201.206s1.116 4.977 2.63 6.68c3.026 3.393 7.012 6.886 10.71 12.845 6.557 10.575 10.415 20.807 16.23 15.148.78-.759 1.27-2.821.369-3.82" stroke="#ACD3EF" stroke-width="2"/>
    </g>
    <g fill="#FFF" fill-rule="nonzero" stroke="#375D81" stroke-linecap="round" stroke-width="2">
      <path d="M778 274v10.12M783.084 279H773"/>
    </g>
  </g>
</svg>
