<svg width="45" height="45" viewBox="0 0 130 130" xmlns="http://www.w3.org/2000/svg" xmlns:xlink="http://www.w3.org/1999/xlink">
  <defs>
    <path d="M64 0c35.346 0 64 28.654 64 64 0 35.347-28.654 64-64 64-35.346 0-64-28.653-64-64C0 28.654 28.654 0 64 0Z" id="a"/>
  </defs>
  <g fill="none" fill-rule="evenodd">
    <path d="M65 1c35.346 0 64 28.654 64 64 0 35.347-28.654 64-64 64-35.346 0-64-28.653-64-64C1 29.654 29.654 1 65 1Z" fill="#E1F2FF" fill-rule="nonzero"/>
    <g transform="translate(1 1)">
      <mask id="b" fill="#fff">
        <use xlink:href="#a"/>
      </mask>
      <use fill="#E1F2FF" fill-rule="nonzero" xlink:href="#a"/>
      <path d="M56.7 31.331c0-.796 4.107-1.432 7.793-1.321 3.273.098 6.125.873 6.84 1.321 1.52.952 2.694 119.007 0 122.38-2.694 3.374-11.717 2.705-14.633 0-1.333-1.237-.269-26.535 0-53.874.32-32.43 0-67.69 0-68.506Z" stroke="#5563B6" stroke-width="3" fill="#FFF" mask="url(#b)"/>
    </g>
    <path fill="#E1F2FF" d="m59.327 81.959 12.946-1.784v4.207l-12.946 1.719zM59.881 57.917l12-1.821v3.647l-12 1.529z"/>
    <path d="m23.407 35.03 77.321 10.16a1 1 0 0 1 .87.991v14.533a1 1 0 0 1-1.115.994L20.211 52.46a1 1 0 0 1-.533-.232L9.072 43.205a1 1 0 0 1 .22-1.665l13.557-6.422a1 1 0 0 1 .558-.088Z" stroke="#5563B6" stroke-width="3" fill="#FFF"/>
    <path d="m27.746 65.689 78.793-10.853a1 1 0 0 1 .666.142l13.233 8.27a1 1 0 0 1 .14 1.59l-10.75 9.71a1 1 0 0 1-.553.25l-80.27 9.45a1 1 0 0 1-1.117-1.017c.088-3.877.078-6.7-.029-8.47-.107-1.776-.428-4.42-.965-7.93a1 1 0 0 1 .852-1.142Z" stroke="#5563B6" stroke-width="3" fill="#FFF"/>
    <circle fill="#E1F2FF" cx="64.012" cy="49.633" r="2.33"/>
    <circle fill="#E1F2FF" cx="65.682" cy="71.587" r="2.33"/>
    <circle fill="#9452BA" cx="64.012" cy="48.633" r="2.33"/>
    <circle fill="#9452BA" cx="65.682" cy="70.587" r="2.33"/>
    <path d="M103.48 71.434c.13.087.216.156.245.178.002.004-.001-.005 0 0-3.038-1.18-4.836.222-7.073.218a.781.781 0 0 0-.107-.01 1.576 1.576 0 0 1-.151-.01c-.599-.074-1.202-.492-1.775-1.126l-.01-.01c-.048-.052-.094-.107-.14-.161 0 0-.001-.002-.003-.002a9.444 9.444 0 0 1-.255-.32l-.026-.034a3.689 3.689 0 0 0-.068-.093l-.07-.095-.067-.097-.07-.1-.048-.073c-.612-.916-1.155-2.041-1.584-3.176 0 0-.008-.01 0 0 1.142.448 2.315.787 3.288.934 1.172.178 2.607.137 3.961-.093.26-1.338.33-2.76.174-3.926-.131-.976-.442-2.137-.877-3.285l.283.113.084.036c.067.028.134.055.2.085l.093.04a19.01 19.01 0 0 1 .28.125l.25.118a.204.204 0 0 1 .024.011c.096.045.191.092.286.14.007.002.014.007.022.01l.252.13.05.026c.077.04.152.081.228.122a13.96 13.96 0 0 1 1.08.658l.01.005c.41.28.78.572 1.09.87l.132.131.005.005c.04.04.077.08.113.12l.004.005c.04.043.078.086.114.13.005.005.01.01.014.017l.002.001a3.974 3.974 0 0 1 .154.195c.002.003.004.007.008.01a3.045 3.045 0 0 1 .212.328l.03.058.043.084c.01.02.018.04.027.063a.999.999 0 0 1 .057.142c.01.026.02.052.028.08l.018.062.02.082a2.228 2.228 0 0 1 .026.152l.007.047c.005.047.007.094.008.14 0 .032.002.06.005.085-.03 2.224-1.471 4.002-.358 7.033" fill="#9452BA"/>
  </g>
</svg>
