<svg width="45" height="45" xmlns="http://www.w3.org/2000/svg">
  <g fill="none" fill-rule="evenodd">
    <path d="M22.5 0C34.926 0 45 10.074 45 22.5 45 34.927 34.926 45 22.5 45S0 34.927 0 22.5C0 10.074 10.074 0 22.5 0z" fill="#E1F2FF" fill-rule="nonzero"/>
    <path d="M34.5 20.5v12.757c0 .342-.137.651-.356.875a1.216 1.216 0 01-.871.368h0-22.546c-.34 0-.648-.14-.871-.368a1.247 1.247 0 01-.356-.875h0V20.5h25z" stroke="#5563B6" fill="#FFF" fill-rule="nonzero"/>
    <path d="M32.76 13.5a1.5 1.5 0 011.002.384h0l1.24 1.113a1.5 1.5 0 01.498 1.116h0V19c0 .414-.168.79-.44 1.06-.27.272-.646.44-1.06.44h0-24c-.414 0-.79-.168-1.06-.44A1.495 1.495 0 018.5 19h0v-2.887a1.5 1.5 0 01.498-1.116h0l1.24-1.113a1.5 1.5 0 011.002-.384h0z" stroke="#5563B6" fill="#FFF" fill-rule="nonzero" stroke-linejoin="round"/>
    <path stroke="#5563B6" stroke-linecap="round" d="M9 16h26.474"/>
    <path fill="#E1F2FF" fill-rule="nonzero" d="M10 21h24v2H10z"/>
    <path fill="#9452BA" fill-rule="nonzero" d="M20 16h4v19h-4z"/>
    <path fill="#754093" fill-rule="nonzero" d="M20 21h4v2h-4zM20 14h4v2h-4z"/>
    <path d="M31.395 31.913c.05.043.082.076.092.086.001.002 0-.001 0 0-1.199-.643-2.016-.154-2.943-.27a.326.326 0 00-.044-.009.658.658 0 01-.062-.012c-.244-.06-.473-.265-.678-.557l-.003-.004c-.018-.024-.034-.05-.05-.074l-.001-.001a3.944 3.944 0 01-.09-.146l-.01-.015a1.54 1.54 0 00-.023-.042l-.024-.043-.022-.044-.024-.045-.017-.032a6.748 6.748 0 01-.495-1.398s-.003-.004 0 0a6.7 6.7 0 001.316.555c.477.134 1.073.19 1.647.163.175-.542.277-1.127.272-1.619A6.46 6.46 0 0030.039 27l.112.061.033.02.078.045.037.021a7.943 7.943 0 01.11.066l.097.062a.085.085 0 01.01.006c.037.023.074.048.11.072l.01.006.097.066.02.014c.03.02.059.04.088.062l.017.012a6.014 6.014 0 01.398.315l.003.003a3.586 3.586 0 01.456.477l.001.002.041.056.002.002c.014.02.028.04.04.06l.006.008a1.66 1.66 0 01.054.089l.003.005a1.272 1.272 0 01.071.146l.01.026.013.037.008.027.01.035a.71.71 0 01.014.062l.004.026.005.035.002.025v.06a.55.55 0 01-.003.058.363.363 0 00-.002.035c-.126.92-.814 1.584-.507 2.897" fill="#9452BA"/>
    <path d="M30.708 8.418C30.23 7.53 29.236 7 28.05 7c-2.7 0-4.613 2.642-5.553 4.31-.942-1.666-2.855-4.293-5.549-4.293C15.24 7.017 14 8.12 14 9.616 14 12.269 16.794 14 22.409 14S31 11.775 31 9.638a2.557 2.557 0 00-.292-1.22zM16 9.998c0-.579.512-.998 1.219-.998 1.702 0 3.049 2.358 3.781 4-1.96-.175-3.137-.732-3.808-1.213-.88-.63-1.192-1.337-1.192-1.79zm13.292-.163c-.443 1.07-2.865 2.903-5.792 3.165.739-1.642 2.813-4.61 4.498-4.61.652 0 1.163.14 1.294.455.087.21.087.54 0 .99z" fill="#9452BA" fill-rule="nonzero"/>
  </g>
</svg>
