<?xml version="1.0" encoding="UTF-8"?>
<svg width="256px" height="256px" viewBox="0 0 256 256" version="1.1" xmlns="http://www.w3.org/2000/svg" xmlns:xlink="http://www.w3.org/1999/xlink">
    <!-- Generator: Sketch 46.2 (44496) - http://www.bohemiancoding.com/sketch -->
    <title>illustration-assets</title>
    <desc>Created with Sketch.</desc>
    <defs></defs>
    <g id="256x256" stroke="none" stroke-width="1" fill="none" fill-rule="evenodd">
        <g id="illustration-assets">
            <g id="Asset" transform="translate(3.000000, 23.000000)">
                <polygon id="Shape" stroke="#375D81" stroke-width="2" fill="#FFFFFF" fill-rule="nonzero" points="145.77 105.95 189.47 105.95 213.42 77.29 169.72 77.29"></polygon>
                <polygon id="Shape" stroke="#375D81" stroke-width="2" fill="#FFFFFF" fill-rule="nonzero" points="145.77 105.95 58.37 105.95 34.42 77.29 121.82 77.29"></polygon>
                <path d="M20.36,208.9 C20.36,151.705391 66.7253913,105.34 123.92,105.34 C181.114609,105.34 227.48,151.705391 227.48,208.9 L20.36,208.9 Z" id="Shape" fill="#E1F2FF" fill-rule="nonzero"></path>
                <path d="M15.83,200.11 L51.83,200.11" id="Shape" stroke="#375D81" stroke-width="2" fill="#FFFFFF" fill-rule="nonzero" stroke-linecap="round" stroke-linejoin="round"></path>
                <path d="M71.71,140.16 L71.71,144.09" id="Shape" stroke="#375D81" stroke-linecap="round"></path>
                <path d="M73.68,142.12 L69.74,142.12" id="Shape" stroke="#375D81" stroke-linecap="round"></path>
                <path d="M208.11,167.38 L208.11,171.31" id="Shape" stroke="#375D81" stroke-linecap="round"></path>
                <path d="M210.08,169.35 L206.14,169.35" id="Shape" stroke="#375D81" stroke-linecap="round"></path>
                <rect id="Rectangle-path" stroke="#9ACDED" stroke-width="2" fill="#FFFFFF" fill-rule="nonzero" transform="translate(101.167660, 86.688817) rotate(-16.960000) translate(-101.167660, -86.688817) " x="69.1676597" y="40.2888175" width="64" height="92.8" rx="2.25"></rect>
                <polygon id="Shape" fill="#E1F2FF" fill-rule="nonzero" points="85.8 128.74 139.69 116.32 116.84 41.36 62.71 55.19"></polygon>
                <circle id="Oval" fill="#FFFFFF" fill-rule="nonzero" transform="translate(94.421449, 70.825110) rotate(-16.960000) translate(-94.421449, -70.825110) " cx="94.4214489" cy="70.8251104" r="12.3"></circle>
                <circle id="Oval" stroke="#9ACDED" stroke-width="2" fill="#FFFFFF" fill-rule="nonzero" transform="translate(95.121317, 68.013128) rotate(-16.960000) translate(-95.121317, -68.013128) " cx="95.1213167" cy="68.0131283" r="12.3"></circle>
                <path d="M99.82,72.93 L100.01,73.18 L100.01,73.18 C98.7,70.07 100.11,68.18 100.01,65.87 C100.007307,65.8333828 100.007307,65.7966172 100.01,65.76 C100.012452,65.7100301 100.012452,65.6599699 100.01,65.61 C99.826692,64.8856355 99.3949248,64.248602 98.79,63.81 L98.79,63.81 L98.62,63.67 L98.62,63.67 L98.28,63.42 L98.28,63.42 L98.18,63.35 L98.08,63.28 L97.98,63.21 L97.87,63.14 L97.79,63.14 C96.7338661,62.4988242 95.6104531,61.9756827 94.44,61.58 L94.44,61.58 C94.9129188,62.6621616 95.2682885,63.7919691 95.5,64.95 C95.7103989,66.3052158 95.7103989,67.6847842 95.5,69.04 C94.1624985,69.3426412 92.7863063,69.4370858 91.42,69.32 C90.2502541,69.1421568 89.1034465,68.8370121 88,68.41 L88.13,68.7 L88.13,68.79 L88.22,68.99 L88.22,69.08 L88.32,69.28 L88.32,69.36 L88.45,69.61 L88.45,69.61 L88.6,69.9 L88.6,69.9 L88.74,70.16 L88.74,70.21 L88.87,70.44 L88.87,70.44 L89.03,70.7 L89.03,70.7 C89.2033333,70.9733333 89.38,71.2366667 89.56,71.49 L89.56,71.49 C89.8394901,71.8814098 90.1505271,72.249303 90.49,72.59 L90.63,72.72 L90.63,72.72 L90.76,72.83 L90.76,72.83 L90.9,72.94 L90.9,72.94 L91.08,73.07 L91.08,73.07 L91.08,73.07 L91.28,73.2 L91.42,73.28 L91.48,73.28 L91.57,73.28 L91.64,73.28 L91.72,73.28 L91.79,73.28 L91.87,73.28 L91.93,73.28 L92.02,73.28 L92.46,73.28 C94.77,73.19 96.59,71.66 99.77,72.73" id="Fill-7" fill="#9ACDED" fill-rule="nonzero"></path>
                <polygon id="Shape" fill="#9ACDED" fill-rule="nonzero" points="90.07 95.2 88.23 94.22 85.54 99.27 82.4 97.6 81.42 99.44 86.38 102.09 86.39 102.07 86.41 102.08"></polygon>
                <path d="M93.95,96.13 L124.29,86.88" id="Shape" stroke="#9ACDED" stroke-width="2" fill="#FFFFFF" fill-rule="nonzero" stroke-linecap="round" stroke-linejoin="round"></path>
                <polygon id="Shape" fill="#9ACDED" fill-rule="nonzero" points="92.92 104.54 91.08 103.56 88.39 108.61 85.25 106.93 84.26 108.78 89.23 111.42 89.24 111.41 89.25 111.42"></polygon>
                <path d="M96.93,105.91 L127.27,96.66" id="Shape" stroke="#9ACDED" stroke-width="2" fill="#FFFFFF" fill-rule="nonzero" stroke-linecap="round" stroke-linejoin="round"></path>
                <polygon id="Shape" fill="#9ACDED" fill-rule="nonzero" points="95.77 113.87 93.92 112.89 91.23 117.94 88.09 116.27 87.11 118.11 92.08 120.76 92.08 120.74 92.1 120.75"></polygon>
                <path d="M100.01,116.03 L130.36,106.77" id="Shape" stroke="#9ACDED" stroke-width="2" fill="#FFFFFF" fill-rule="nonzero" stroke-linecap="round" stroke-linejoin="round"></path>
                <path d="M172.87,104.57 L172.87,108.51" id="Shape" stroke="#375D81" fill="#FFFFFF" fill-rule="nonzero" stroke-linecap="round" stroke-linejoin="round"></path>
                <path d="M174.84,106.54 L170.9,106.54" id="Shape" stroke="#375D81" fill="#FFFFFF" fill-rule="nonzero" stroke-linecap="round" stroke-linejoin="round"></path>
                <path d="M242.22,200.07 L249.19,200.07" id="Shape" stroke="#375D81" stroke-width="2" fill="#FFFFFF" fill-rule="nonzero" stroke-linecap="round" stroke-linejoin="round"></path>
                <path d="M0,200.07 L8.97,200.07" id="Shape" stroke="#375D81" stroke-width="2" fill="#FFFFFF" fill-rule="nonzero" stroke-linecap="round" stroke-linejoin="round"></path>
                <path d="M91.23,209.19 L158.42,209.19" id="Shape" stroke="#375D81" stroke-width="2" fill="#FFFFFF" fill-rule="nonzero" stroke-linecap="round" stroke-linejoin="round"></path>
                <path d="M167.04,209.19 L176.18,209.19" id="Shape" stroke="#375D81" stroke-width="2" fill="#FFFFFF" fill-rule="nonzero" stroke-linecap="round" stroke-linejoin="round"></path>
                <path d="M83.35,209.11 L78.35,209.19" id="Shape" stroke="#375D81" stroke-width="2" fill="#FFFFFF" fill-rule="nonzero" stroke-linecap="round" stroke-linejoin="round"></path>
                <path d="M58.27,200.11 L235.17,200.11" id="Shape" stroke="#375D81" stroke-width="2" fill="#FFFFFF" fill-rule="nonzero" stroke-linecap="round" stroke-linejoin="round"></path>
                <rect id="Rectangle-path" stroke="#9ACDED" stroke-width="2" fill="#FFFFFF" fill-rule="nonzero" transform="translate(154.034366, 103.050600) rotate(19.540000) translate(-154.034366, -103.050600) " x="121.494366" y="55.8705999" width="65.08" height="94.36" rx="2.25"></rect>
                <polygon id="Shape" fill="#E1F2FF" fill-rule="nonzero" points="116.06 128.13 167.63 150.57 194.28 75.48 141.66 54.04"></polygon>
                <circle id="Oval" fill="#FFFFFF" fill-rule="nonzero" transform="translate(158.129925, 86.011903) rotate(-70.460000) translate(-158.129925, -86.011903) " cx="158.129925" cy="86.011903" r="12.51"></circle>
                <circle id="Oval" stroke="#9ACDED" stroke-width="2" fill="#FFFFFF" fill-rule="nonzero" transform="translate(160.407433, 84.133842) rotate(-70.460000) translate(-160.407433, -84.133842) " cx="160.407433" cy="84.1338424" r="12.51"></circle>
                <path d="M161.27,91 C161.27,91.16 161.27,91.28 161.27,91.32 L161.27,91.32 C162.08,87.99 164.37,87.32 165.72,85.32 L165.78,85.22 L165.86,85.08 C166.148304,84.3766962 166.180161,83.5944177 165.95,82.87 L165.95,82.87 L165.89,82.65 L165.89,82.65 C165.89,82.51 165.81,82.38 165.77,82.24 L165.77,82.24 L165.77,82.13 L165.77,82.01 L165.77,81.89 L165.77,81.77 L165.77,81.69 C165.292727,80.5273693 164.689102,79.4207236 163.97,78.39 L163.97,78.39 C163.702904,79.5619679 163.310652,80.7018439 162.8,81.79 C162.154106,83.0272086 161.320946,84.157203 160.33,85.14 C159.051579,84.5786345 157.867603,83.8230488 156.82,82.9 C155.948796,82.0705854 155.170845,81.1484446 154.5,80.15 L154.43,80.46 L154.43,80.55 L154.43,80.77 L154.43,80.87 L154.43,81.1 L154.43,81.19 L154.43,81.48 L154.43,81.48 L154.38,81.81 L154.38,81.81 L154.38,82.11 L154.38,82.17 L154.38,82.44 L154.38,82.49 C154.38,82.59 154.38,82.7 154.38,82.8 L154.38,82.8 C154.38,83.1333333 154.38,83.4666667 154.38,83.8 L154.38,83.8 C154.373101,84.2919096 154.406546,84.7835566 154.48,85.27 L154.48,85.46 L154.48,85.46 L154.48,85.63 L154.48,85.63 L154.48,85.81 L154.48,85.81 L154.48,85.81 L154.48,85.81 L154.54,86.03 L154.54,86.03 L154.54,86.03 L154.63,86.26 L154.7,86.41 L154.7,86.47 L154.7,86.56 L154.7,86.62 L154.7,86.7 L154.7,86.76 L154.75,86.83 L154.75,86.88 L154.81,86.95 L154.81,86.95 L154.88,87.02 L154.88,87.02 L155,87.11 L155.07,87.17 C157.01,88.5 159.42,88.34 161.38,91.17" id="Fill-7-2" fill="#9452BA" fill-rule="nonzero"></path>
                <polygon id="Shape" fill="#9ACDED" fill-rule="nonzero" points="139.83 103.3 138.92 101.38 133.67 103.88 132.11 100.62 130.19 101.53 132.65 106.7 132.67 106.69 132.68 106.71"></polygon>
                <path d="M142.44,106.4 L172.84,117.19" id="Shape" stroke="#9ACDED" stroke-width="2" fill="#FFFFFF" fill-rule="nonzero" stroke-linecap="round" stroke-linejoin="round"></path>
                <polygon id="Shape" fill="#9ACDED" fill-rule="nonzero" points="136.51 112.65 135.6 110.74 130.35 113.24 128.79 109.97 126.88 110.89 129.34 116.05 129.35 116.04 129.36 116.06"></polygon>
                <path d="M138.96,116.2 L169.36,126.99" id="Shape" stroke="#9ACDED" stroke-width="2" fill="#FFFFFF" fill-rule="nonzero" stroke-linecap="round" stroke-linejoin="round"></path>
                <polygon id="Shape" fill="#9ACDED" fill-rule="nonzero" points="133.19 122.01 132.28 120.09 127.03 122.59 125.47 119.33 123.56 120.24 126.02 125.41 126.03 125.4 126.04 125.41"></polygon>
                <path d="M135.37,126.33 L165.77,137.12" id="Shape" stroke="#9ACDED" stroke-width="2" fill="#FFFFFF" fill-rule="nonzero" stroke-linecap="round" stroke-linejoin="round"></path>
                <rect id="Rectangle-path" stroke="#9ACDED" stroke-width="2" fill="#FFFFFF" fill-rule="nonzero" transform="translate(142.817809, 83.766201) rotate(16.060000) translate(-142.817809, -83.766201) " x="110.382809" y="36.7362014" width="64.87" height="94.06" rx="2.25"></rect>
                <polygon id="Shape" fill="#E1F2FF" fill-rule="nonzero" points="159.66 126.31 104.85 114.58 126.82 38.25 181.9 51.41"></polygon>
                <rect id="Rectangle-path" fill="#FFFFFF" fill-rule="nonzero" transform="translate(146.023706, 68.047038) rotate(15.830000) translate(-146.023706, -68.047038) " x="130.963706" y="57.9570385" width="30.12" height="20.18" rx="8.47"></rect>
                <rect id="Rectangle-path" stroke="#9ACDED" stroke-width="2" fill="#FFFFFF" fill-rule="nonzero" transform="translate(148.651342, 66.185000) rotate(15.830000) translate(-148.651342, -66.185000) " x="133.591342" y="56.0950004" width="30.12" height="20.18" rx="8.47"></rect>
                <path d="M143.8,61.64 C144.171506,61.7386151 144.525643,61.8937607 144.85,62.1 C145.104562,62.2635348 145.322477,62.4780443 145.49,62.73 C145.637287,62.9620428 145.726472,63.2261686 145.75,63.5 C145.773853,63.7864735 145.743316,64.0748738 145.66,64.35 C145.582611,64.6392485 145.450195,64.9108694 145.27,65.15 C145.096674,65.3714777 144.874123,65.5495189 144.62,65.67 C144.341218,65.8012821 144.038063,65.8728131 143.73,65.88 C143.350503,65.8870553 142.972341,65.8330322 142.61,65.72 L141.73,65.47 L141.09,67.69 L139.92,67.35 L141.74,61.04 L143.8,61.64 Z M142.89,64.81 C143.080981,64.8686956 143.280285,64.8957199 143.48,64.89 C143.643644,64.8854721 143.804215,64.8444754 143.95,64.77 C144.084809,64.6973525 144.201132,64.5947143 144.29,64.47 C144.38957,64.3306532 144.464023,64.1749783 144.51,64.01 C144.555799,63.8543879 144.572744,63.6917103 144.56,63.53 C144.545299,63.3812985 144.49746,63.2377818 144.42,63.11 C144.335115,62.9774653 144.222535,62.8648852 144.09,62.78 C143.91978,62.6727949 143.73436,62.5918844 143.54,62.54 L142.66,62.29 L142,64.56 L142.89,64.81 Z" id="Shape" fill="#9ACDED" fill-rule="nonzero"></path>
                <path d="M151.84,67.37 C151.719273,67.8080125 151.515588,68.2187783 151.24,68.58 C150.726818,69.2529865 149.953249,69.6779046 149.11,69.75 C148.647969,69.7862421 148.183242,69.7353596 147.74,69.6 L145.34,68.91 L147.16,62.6 L149.56,63.29 C150.008318,63.4127488 150.429152,63.6197716 150.8,63.9 C151.134976,64.1537071 151.414108,64.4736877 151.62,64.84 C151.824824,65.196539 151.954168,65.5913776 152,66 C152.036749,66.4627354 151.98239,66.928186 151.84,67.37 L151.84,67.37 Z M150.64,67.02 C150.738519,66.6961889 150.782453,66.3582375 150.77,66.02 C150.761018,65.7389423 150.692869,65.4629376 150.57,65.21 C150.451437,64.9687712 150.280635,64.7569772 150.07,64.59 C149.835081,64.4089849 149.566554,64.2764213 149.28,64.2 L148.05,63.85 L146.77,68.29 L148,68.64 C148.281269,68.7268761 148.576903,68.757459 148.87,68.73 C149.136233,68.7002242 149.392463,68.6113979 149.62,68.47 C149.858558,68.3210069 150.063008,68.123372 150.22,67.89 C150.408037,67.6184754 150.549946,67.3177635 150.64,67 L150.64,67.02 Z" id="Shape" fill="#9ACDED" fill-rule="nonzero"></path>
                <polygon id="Shape" fill="#9ACDED" fill-rule="nonzero" points="154.69 65.79 154.15 67.66 156.51 68.34 156.24 69.28 153.88 68.6 153.14 71.17 152 70.83 153.82 64.52 157.82 65.67 157.55 66.6"></polygon>
                <path d="M126.15,86.27 L157.05,95.17" id="Shape" stroke="#9ACDED" stroke-width="2" fill="#FFFFFF" fill-rule="nonzero" stroke-linecap="round" stroke-linejoin="round"></path>
                <path d="M123.28,96.23 L154.18,105.13" id="Shape" stroke="#9ACDED" stroke-width="2" fill="#FFFFFF" fill-rule="nonzero" stroke-linecap="round" stroke-linejoin="round"></path>
                <path d="M120.32,106.53 L151.22,115.43" id="Shape" stroke="#9ACDED" stroke-width="2" fill="#FFFFFF" fill-rule="nonzero" stroke-linecap="round" stroke-linejoin="round"></path>
                <rect id="Rectangle-path" stroke="#9ACDED" stroke-width="2" fill="#FFFFFF" fill-rule="nonzero" transform="translate(117.861221, 141.936804) rotate(27.800000) translate(-117.861221, -141.936804) " x="81.4712208" y="97.7268036" width="72.78" height="88.42" rx="2.25"></rect>
                <polygon id="Shape" fill="#E1F2FF" fill-rule="nonzero" points="129.75 186.69 72.54 160.67 107.36 94.61 164.64 122.05"></polygon>
                <ellipse id="Oval" fill="#FFFFFF" fill-rule="nonzero" transform="translate(123.670453, 126.541191) rotate(-62.200000) translate(-123.670453, -126.541191) " cx="123.670453" cy="126.541191" rx="11.72" ry="13.99"></ellipse>
                <ellipse id="Oval" stroke="#9ACDED" stroke-width="2" fill="#FFFFFF" fill-rule="nonzero" transform="translate(126.274257, 125.240314) rotate(-62.200000) translate(-126.274257, -125.240314) " cx="126.274257" cy="125.240314" rx="11.72" ry="13.99"></ellipse>
                <path d="M126.65,132 C126.65,132.16 126.65,132.27 126.65,132.31 L126.65,132.31 C127.79,129.31 130.32,129.13 131.93,127.58 L132,127.5 L132.1,127.39 C132.472766,126.760085 132.573816,126.00582 132.38,125.3 L132.38,125.3 C132.38,125.23 132.38,125.15 132.38,125.08 L132.38,125.08 C132.38,124.94 132.32,124.8 132.28,124.66 L132.28,124.66 L132.28,124.54 L132.28,124.42 L132.28,124.3 L132.28,124.17 L132.28,124.08 C131.85029,122.84418 131.29048,121.657519 130.61,120.54 L130.61,120.54 C130.227139,121.601771 129.709576,122.610009 129.07,123.54 C128.259383,124.596699 127.267263,125.500781 126.14,126.21 C124.818582,125.408528 123.608219,124.436876 122.54,123.32 C121.678391,122.354609 120.914653,121.306144 120.26,120.19 L120.16,120.47 L120.16,120.56 L120.09,120.76 L120.09,120.85 L120.03,121.06 L120.03,121.14 L119.95,121.4 L119.95,121.4 L119.87,121.71 L119.87,121.71 L119.8,121.98 L119.8,122 L119.74,122.25 L119.74,122.25 L119.68,122.54 L119.68,122.54 C119.626667,122.846667 119.583333,123.15 119.55,123.45 L119.55,123.45 C119.506601,123.922339 119.506601,124.397661 119.55,124.87 L119.55,125.06 L119.55,125.06 L119.55,125.23 L119.55,125.23 C119.55,125.29 119.55,125.35 119.55,125.41 L119.55,125.41 L119.55,125.41 L119.55,125.41 L119.6,125.63 L119.6,125.63 L119.6,125.63 C119.6,125.71 119.6,125.79 119.68,125.87 L119.74,126.03 L119.74,126.1 L119.74,126.19 L119.74,126.26 L119.74,126.34 L119.74,126.4 L119.79,126.48 L119.79,126.54 L119.85,126.62 L119.85,126.67 L119.92,126.75 L119.92,126.75 L120.04,126.86 L120.11,126.93 C122.11,128.62 124.71,128.98 126.59,132.08" id="Fill-7-3" fill="#9ACDED" fill-rule="nonzero"></path>
                <polygon id="Shape" fill="#9ACDED" fill-rule="nonzero" points="102.54 139.13 101.71 137.1 95.84 138.37 94.43 134.92 92.28 135.38 94.52 140.84 94.54 140.84 94.55 140.86"></polygon>
                <path d="M105.29,142.95 L137.2,159.77" id="Shape" stroke="#9ACDED" stroke-width="2" fill="#FFFFFF" fill-rule="nonzero" stroke-linecap="round" stroke-linejoin="round"></path>
                <polygon id="Shape" fill="#9ACDED" fill-rule="nonzero" points="98.2 147.36 97.37 145.33 91.5 146.6 90.09 143.14 87.95 143.6 90.18 149.07 90.2 149.06 90.21 149.08"></polygon>
                <path d="M100.55,151.28 L132.47,168.1" id="Shape" stroke="#9ACDED" stroke-width="2" fill="#FFFFFF" fill-rule="nonzero" stroke-linecap="round" stroke-linejoin="round"></path>
                <polygon id="Shape" fill="#9ACDED" fill-rule="nonzero" points="93.86 155.59 93.03 153.56 87.17 154.82 85.75 151.37 83.61 151.83 85.85 157.3 85.86 157.29 85.87 157.31"></polygon>
                <path d="M95.86,160.19 L127.77,177.01" id="Shape" stroke="#9ACDED" stroke-width="2" fill="#FFFFFF" fill-rule="nonzero" stroke-linecap="round" stroke-linejoin="round"></path>
                <rect id="Rectangle-path" stroke="#9ACDED" stroke-width="2" fill="#FFFFFF" fill-rule="nonzero" transform="translate(89.610514, 98.731430) rotate(-18.030000) translate(-89.610514, -98.731430) " x="60.9505144" y="75.6364296" width="57.32" height="46.19" rx="2.25"></rect>
                <rect id="Rectangle-path" stroke="#9ACDED" stroke-width="2" fill="#E1F2FF" fill-rule="nonzero" transform="translate(89.404396, 98.076799) rotate(-18.030000) translate(-89.404396, -98.076799) " x="65.8793963" y="82.3217987" width="47.05" height="31.51" rx="2.25"></rect>
                <path d="M63.63,94.91 L62.71,92.07 C62.4078806,91.1367675 62.9177064,90.1350045 63.85,89.83 L105.21,76.37 C106.143233,76.0678806 107.144996,76.5777064 107.45,77.51 L108.35,80.28 L63.63,94.91 Z" id="Shape" stroke="#9ACDED" stroke-width="2" fill="#9ACDED" fill-rule="nonzero"></path>
                <path d="M115.21,101.39 L116.1,104.11 C116.402119,105.043233 115.892294,106.044996 114.96,106.35 L73.6,119.8 C72.6667675,120.102119 71.6650045,119.592294 71.36,118.66 L70.41,115.76 L115.21,101.39 Z" id="Shape" stroke="#9ACDED" stroke-width="2" fill="#9ACDED" fill-rule="nonzero"></path>
                <path d="M94.89,94.56 L85.74,92.56 C85.2885526,92.4621149 84.8192238,92.6130926 84.5095201,92.9558314 C84.1998164,93.2985702 84.0970162,93.7807485 84.24,94.22 L87.1,103.13 C87.2402705,103.571086 87.6061005,103.903216 88.0586489,104.000338 C88.5111973,104.09746 88.9810932,103.944687 89.29,103.6 L95.58,96.67 C95.8805693,96.3273677 95.9780227,95.8515562 95.8363574,95.4183476 C95.694692,94.985139 95.3349374,94.658841 94.89,94.56 Z" id="Shape" stroke="#9ACDED" stroke-width="2" fill="#FFFFFF" fill-rule="nonzero"></path>
                <path d="M144.27,172.67 L149.27,172.27 C150.980824,172.13354 152.433315,170.962816 152.93,169.32 C154.33,164.64 153.55,160.51 153.48,156.93 C153.34,150.29 152.04,146.99 150.61,141.55 L143.17,142.32 C143.17,142.32 144.02,145.01 145.11,153.21 C145.45,155.75 142.06,166.32 142.66,171.32 C142.754006,172.125608 143.460339,172.717875 144.27,172.67 L144.27,172.67 Z" id="Shape" stroke="#52267D" stroke-width="2" fill="#9452BA" fill-rule="nonzero"></path>
                <path d="M127.92,150.24 L121.38,143.93 L117.69,144.37 C117.69,144.37 117.62,150.06 117.6,152.45 C117.36353,157.885366 116.731862,163.29632 115.71,168.64 C115.471116,169.720038 115.357036,170.823935 115.37,171.93 C115.404863,172.734273 115.767997,173.489068 116.374661,174.018246 C116.981325,174.547423 117.778444,174.804686 118.58,174.73 L122.98,174.38 C125.545971,174.187615 127.656403,172.282878 128.11,169.75 C129.45,161.87 127.92,150.24 127.92,150.24 Z" id="Shape" stroke="#52267D" stroke-width="2" fill="#9452BA" fill-rule="nonzero"></path>
                <polyline id="Shape" stroke="#52267D" stroke-width="0.5" points="119.87 155.6 118.95 156.55 119.97 157.33 121.46 156.61 121.1 155.96 119.84 156.37 119.87 156.59 120.2 156.55"></polyline>
                <path d="M117.5,125.61 C121.86,125.17 125.71,121.84 134.58,120.71 C134.644312,120.172175 134.764975,119.642599 134.94,119.13 C136.27,115.51 137.74,105.27 135.75,98.78 L134.17,93.64 C133.649434,91.9547993 133.31412,90.2178736 133.17,88.46 L133.17,88.46 C133.09768,87.7451578 133.09768,87.0248422 133.17,86.31 C133.17,86.1366667 133.196667,85.9633333 133.25,85.79 C133.338853,85.2746227 133.465869,84.766558 133.63,84.27 C133.683333,84.1033333 133.74,83.94 133.8,83.78 C133.926667,83.46 134.066667,83.1466667 134.22,82.84 C134.373333,82.5333333 134.54,82.2366667 134.72,81.95 C135.271177,81.0812163 135.944778,80.2964709 136.72,79.62 C136.973333,79.3933333 137.24,79.18 137.52,78.98 C139.092189,77.8325059 140.950216,77.1405031 142.89,76.98 L144.63,76.84 C147.443155,76.6082151 150.232573,77.5080276 152.38,79.34 C152.64,79.56 152.886667,79.7933333 153.12,80.04 C153.551111,80.485083 153.942593,80.9669076 154.29,81.48 C154.42,81.67 154.55,81.87 154.67,82.07 L154.92,82.52 C155.401881,83.4641979 155.738986,84.475513 155.92,85.52 C155.984867,85.8774061 156.031593,86.2378677 156.06,86.6 L156.06,86.6 C156.118033,87.3017195 155.894414,87.9976851 155.438504,88.5342706 C154.982594,89.0708561 154.33188,89.4039408 153.63,89.46 L142.77,90.33 L145.17,99.62 C147.88,109.14 147.82,115.62 146.67,120.1 C146.41,121.1 144.79,124.65 144.79,124.65 C150.91,132.78 159.53,135.85 168.52,136.23 C176.16,136.55 191.94,128.33 182.88,121.03 C173.82,113.73 184.39,117.87 185.97,118.76 C187.55,119.65 196.81,126.44 188.29,138.18 C184.69,143.18 180.52,147.73 169.95,151.83 C168.25,152.49 158.83,153.94 153.84,155.83 C138.99,161.41 126.26,157.66 118.53,148.19 C110.8,138.72 115.78,125.78 117.5,125.61 Z" id="Shape" stroke="#52267D" stroke-width="2" fill="#9452BA" fill-rule="nonzero"></path>
                <path d="M125.77,110.43 C125.22,99.18 115.6,91.07 105.32,90 C103.19,89.78 102.45,89.18 100.15,89.36 L98.39,89.5 C92.4599908,89.9779548 88.0382302,95.1694956 88.51,101.1 C88.6321177,102.575632 89.9238068,103.675132 91.4,103.56 L109.54,102.09 L111,102 L109.52,102.12 C113.65,103.49 116.52,108.4 117.2,111.12 C118.135379,114.352071 118.0021,117.799785 116.82,120.95 C116.181802,122.74228 116.040135,124.673783 116.41,126.54 L116.52,126.54 C116.683028,127.58078 116.927103,128.607235 117.25,129.61 C118.86,128.29 121.36,126.29 121.82,126 C122.82,125.37 125.07,123.92 126.08,123.23 C132.54,118.85 126.08,116.83 125.77,110.43 Z" id="Shape" stroke="#52267D" stroke-width="2" fill="#9452BA" fill-rule="nonzero"></path>
                <path d="M121.06,123.86 C120.83,122.13 120.5,121.27 120.63,120.54 C121.42,116.39 121.68,115.08 121.34,110.78 C120.893744,106.39811 118.259078,102.540206 114.34,100.53 C112.596715,100.43553 110.882145,101.003481 109.54,102.12 C113.67,103.49 116.54,108.4 117.22,111.12 C118.155379,114.352071 118.0221,117.799785 116.84,120.95 C116.201802,122.74228 116.060135,124.673783 116.43,126.54 C116.43,126.54 121.43,127.99 121.04,123.87" id="Shape" stroke="#52267D" fill="#F3E3FF" fill-rule="nonzero"></path>
                <path d="M92.9,91.8 C92.8530269,90.623781 93.4982936,89.5287829 94.55,89 L96.1,88.22 C96.1,88.22 97.4,90.48 96.19,91.22 C95.1997408,91.8053272 94.0307185,92.0114163 92.9,91.8 L92.9,91.8 Z" id="Shape" stroke="#52267D" fill="#FFFFFF" fill-rule="nonzero"></path>
                <path d="M97.47,90.11 C97.4436516,88.5298015 98.5958638,87.1762734 100.16,86.95 C100.69,86.84 102.09,86.76 102.09,86.76 C102.09,86.76 102.95,89.41 101.46,89.76 C100.152139,90.05779 98.8097322,90.175545 97.47,90.11 Z" id="Shape" stroke="#52267D" fill="#FFFFFF" fill-rule="nonzero"></path>
                <path d="M103.2,89.89 C103.2,89.89 103.35,87 106,87.6 C106.681613,87.7511316 107.303952,88.0988071 107.79,88.6 C107.79,88.6 107.46,90.8 106.42,90.6 C105.328555,90.4546209 104.251375,90.2171061 103.2,89.89 Z" id="Shape" stroke="#52267D" fill="#FFFFFF" fill-rule="nonzero"></path>
                <path d="M111.7,103.06 C111.7,103.06 117.38,99.36 115.81,94.06 C117.231063,95.0675262 118.568717,96.1878108 119.81,97.41 C119.9,98.47 120.43,102.68 114.81,105.98 C113.837815,104.940192 112.79895,103.964795 111.7,103.06 L111.7,103.06 Z" id="Shape" stroke="#52267D" fill="#FFFFFF" fill-rule="nonzero"></path>
                <path d="M93.67,91.22 C93.6468058,90.6174865 93.9796435,90.0575359 94.52,89.79 L95.32,89.39 C95.32,89.39 95.99,90.56 95.32,90.92 C94.822116,91.2101754 94.2381612,91.316349 93.67,91.22 L93.67,91.22 Z" id="Shape" fill="#F3E3FF" fill-rule="nonzero"></path>
                <path d="M98.65,89.43 C98.6352238,88.6316569 99.2113058,87.9446257 100,87.82 C100.27,87.76 101,87.72 101,87.72 C101,87.72 101.44,89.07 100.68,89.27 C100.013736,89.4152487 99.3307926,89.4690767 98.65,89.43 L98.65,89.43 Z" id="Shape" fill="#F3E3FF" fill-rule="nonzero"></path>
                <path d="M104.1,89.62 C104.1,89.62 104.18,88.1 105.56,88.4 C105.92293,88.4825322 106.253412,88.6703854 106.51,88.94 C106.51,88.94 106.33,90.11 105.79,90.02 C105.216455,89.9342482 104.651132,89.800444 104.1,89.62 L104.1,89.62 Z" id="Shape" fill="#F3E3FF" fill-rule="nonzero"></path>
                <path d="M102.789595,96.0084602 L103.269595,96.0084602 C104.639261,96.0084602 105.749595,97.118794 105.749595,98.4884602 L105.749595,98.4884602 C105.749595,99.1461971 105.48831,99.7769948 105.02322,100.242085 C104.55813,100.707175 103.927332,100.96846 103.269595,100.96846 L97.829595,100.96846 L97.829595,100.96846 C97.829595,98.2070365 100.068171,95.9684602 102.829595,95.9684602 L102.789595,96.0084602 Z" id="Shape" fill="#F3E3FF" fill-rule="nonzero" opacity="0.3" transform="translate(101.789595, 98.468460) rotate(-4.590000) translate(-101.789595, -98.468460) "></path>
                <path d="M101.863963,97.0055373 L102.863963,97.0055373 C103.968532,97.0055373 104.863963,97.9009678 104.863963,99.0055373 L104.863963,99.0055373 C104.863963,100.110107 103.968532,101.005537 102.863963,101.005537 L98.003963,101.005537 L98.003963,101.005537 C98.003963,99.971193 98.4148547,98.9792128 99.1462466,98.2478209 C99.8776384,97.516429 100.869619,97.1055373 101.903963,97.1055373 L101.863963,97.0055373 Z" id="Shape" stroke="#52267D" fill="#FFFFFF" fill-rule="nonzero" transform="translate(101.433963, 99.005537) rotate(-4.590000) translate(-101.433963, -99.005537) "></path>
                <circle id="Oval" fill="#52267D" fill-rule="nonzero" transform="translate(99.923172, 98.935799) rotate(-4.590000) translate(-99.923172, -98.935799) " cx="99.923172" cy="98.9357993" r="1.09"></circle>
                <path d="M91.1,102.8 L91.1,102.8 C91.4028027,102.707669 91.6642861,102.513323 91.84,102.25 L92.17,101.76 L91.37,102 L90.9,102.14 C90.8117196,102.165382 90.7374652,102.225403 90.6941408,102.306401 C90.6508164,102.387399 90.6421087,102.48248 90.67,102.57 L90.67,102.57 C90.6953815,102.65828 90.7554031,102.732535 90.8364009,102.775859 C90.9173987,102.819184 91.0124801,102.827891 91.1,102.8 L91.1,102.8 Z" id="Shape" fill="#52267D" fill-rule="nonzero"></path>
                <path d="M112.71,103.09 C112.71,103.09 117.09,100.26 116.62,95.31 C117.642627,95.8573023 118.554751,96.5897139 119.31,97.47 C119.227766,98.7695063 118.829575,100.029299 118.15,101.14 C116.61,103.09 114.9,103.8 112.71,103.09 Z" id="Shape" fill="#EAF3FB" fill-rule="nonzero"></path>
                <path d="M117,101.87 C116.028818,103.017763 114.905047,104.027139 113.66,104.87" id="Shape" stroke="#52267D" fill="#FFFFFF" fill-rule="nonzero"></path>
                <path d="M136.46,119.71 L135.28,117.78 C130.72,108.78 129.7,103.29 130.95,94.21 L131.69,88.89 C131.931217,87.1439918 131.981513,85.3769018 131.84,83.62 L131.84,83.62 C131.367382,77.7674065 126.24312,73.4039526 120.39,73.87 L118.68,74.01 C115.90546,74.2318338 113.332828,75.5472569 111.528534,77.6666456 C109.72424,79.7860343 108.836222,82.5356157 109.06,85.31 L109.06,85.61 C109.171509,86.9846503 110.375175,88.0093319 111.75,87.9 L122.6,87 L121.71,96.55 C118.71,122.2 120.03,132.4 129.77,129.55" id="Shape" stroke="#52267D" stroke-width="2" fill="#9452BA" fill-rule="nonzero"></path>
                <path d="M113.54,75.68 C113.626391,74.5349171 114.305334,73.5183989 115.33,73 C115.789822,72.8426908 116.282759,72.8082196 116.76,72.9 C116.76,72.9 117.95,74.46 116.76,75.14 C115.787219,75.7032865 114.643321,75.8951204 113.54,75.68 L113.54,75.68 Z" id="Shape" stroke="#52267D" fill="#FFFFFF" fill-rule="nonzero"></path>
                <path d="M117.84,74.73 C117.807027,72.9377817 119.115304,71.4021645 120.89,71.15 C121.348769,71.0670384 121.813804,71.023546 122.28,71.02 C122.28,71.02 124.06,73.94 122.37,74.37 C120.883493,74.6960927 119.359352,74.8172165 117.84,74.73 Z" id="Shape" stroke="#52267D" fill="#FFFFFF" fill-rule="nonzero"></path>
                <path d="M123.72,74.92 C123.72,74.92 123.94,72.12 126.48,72.75 C127.137998,72.9099283 127.735475,73.2572985 128.2,73.75 C128.2,73.75 127.82,75.9 126.81,75.75 C125.75862,75.5601504 124.725002,75.282512 123.72,74.92 L123.72,74.92 Z" id="Shape" stroke="#52267D" fill="#FFFFFF" fill-rule="nonzero"></path>
                <path d="M117.7,125.26 C118.196471,124.814404 118.778212,124.474204 119.41,124.26" id="Shape" stroke="#52267D" fill="#F3E3FF" fill-rule="nonzero"></path>
                <path d="M121.28,124.91 C118.93,117.85 121.02,103.83 121.34,100.4 L122.58,86.64 L123.58,86.56 C124.225136,86.57203 124.836944,86.848797 125.271926,87.3253852 C125.706907,87.8019734 125.92679,88.4364506 125.88,89.08 L125.16,101 C124.91,105 125.8,123.54 133.04,126.94 C134.59,127.67 136.94,126.94 137.81,126.41 C140.98,124.57 141.59,120.41 142.05,117.03 C142.99,110.03 141.4,104.78 140.64,99.44 L139.75,92.75 C139.567935,91.4885121 140.41617,90.3089341 141.67,90.08 L142.91,89.98 L146.23,103.37 C147.23,107.18 150.01,120.44 142.62,127.37 C142.49,127.5 144.62,127.79 144.07,128.9 C142.07,133.29 135.2,134.51 134.07,136.41 C129.64,143.73 135.49,158.11 135.49,158.11 C132.15123,157.056104 128.984426,155.519867 126.09,153.55 C117.49,147.01 115.64,136.67 115.35,133.61 C115.01,129.95 115.79,127.61 116.87,126.14" id="Shape" stroke="#52267D" fill="#F3E3FF" fill-rule="nonzero"></path>
                <path d="M186.87,125.69 C187.48861,124.809066 187.58783,123.664226 187.13,122.69 C186.881142,122.310203 186.536103,122.003118 186.13,121.8 C186.13,121.8 184.38,122.25 184.85,123.42 C185.223831,124.397774 185.942267,125.205125 186.87,125.69 L186.87,125.69 Z" id="Shape" stroke="#52267D" fill="#FFFFFF" fill-rule="nonzero"></path>
                <path d="M186.35,124 C186.564184,123.690763 186.598435,123.291176 186.44,122.95 C186.355441,122.818953 186.238279,122.712129 186.1,122.64 C186.1,122.64 185.49,122.8 185.65,123.21 C185.779917,123.549443 186.028662,123.83017 186.35,124 L186.35,124 Z" id="Shape" fill="#F3E3FF" fill-rule="nonzero"></path>
                <path d="M178.27,135.48 C177.540777,133.979489 178.042238,132.170802 179.44,131.26 C179.794135,131.011823 180.168832,130.794365 180.56,130.61 C180.56,130.61 183.21,132.38 181.94,133.41 C180.816386,134.263521 179.581691,134.959929 178.27,135.48 L178.27,135.48 Z" id="Shape" stroke="#52267D" fill="#FFFFFF" fill-rule="nonzero"></path>
                <path d="M179.09,134.47 C178.683307,133.637898 178.962409,132.633134 179.74,132.13 C179.936054,131.992589 180.143473,131.872153 180.36,131.77 C180.36,131.77 181.83,132.77 181.13,133.32 C180.505548,133.794452 179.819201,134.181363 179.09,134.47 Z" id="Shape" fill="#F3E3FF" fill-rule="nonzero"></path>
                <path d="M185.51,126.76 C185.51,126.76 187.51,128.26 185.84,129.87 C185.393793,130.28935 184.833721,130.567647 184.23,130.67 C184.23,130.67 182.79,129.36 183.41,128.67 C184.055527,127.975901 184.757976,127.337008 185.51,126.76 L185.51,126.76 Z" id="Shape" stroke="#52267D" fill="#FFFFFF" fill-rule="nonzero"></path>
                <path d="M185.33,127.94 C185.33,127.94 186.22,128.6 185.47,129.32 C185.27259,129.503497 185.025767,129.62517 184.76,129.67 C184.76,129.67 184.12,129.09 184.4,128.79 C184.685743,128.481217 184.996829,128.196892 185.33,127.94 L185.33,127.94 Z" id="Shape" fill="#F3E3FF" fill-rule="nonzero"></path>
                <path d="M169.38,137.5 C168.938799,136.186596 169.627065,134.76122 170.93,134.29 C173.28,133.22 173.99,133.9 173.99,133.9 C173.99,133.9 175.51,136.04 174.37,136.9 C173.23,137.76 169.38,137.5 169.38,137.5 Z" id="Shape" stroke="#52267D" fill="#FFFFFF" fill-rule="nonzero"></path>
                <path d="M170.47,136.91 C170.242747,136.225804 170.602,135.485122 171.28,135.24 C172.5,134.69 172.87,135.04 172.87,135.04 C172.87,135.04 173.66,136.16 173.07,136.58 C172.235311,136.867894 171.350145,136.980242 170.47,136.91 L170.47,136.91 Z" id="Shape" fill="#F3E3FF" fill-rule="nonzero"></path>
                <path d="M122.31,90 C125.353593,91.1150492 128.722616,90.9232573 131.62,89.47 C131.38,91.18 130.9,94.63 130.9,94.63 C130.9,94.63 126,96.58 121.9,94.45 C122.13,92.17 122.31,90 122.31,90 Z" id="Shape" stroke="#52267D" fill="#FFFFFF" fill-rule="nonzero"></path>
                <path d="M150.41,77.86 C150.155582,76.7124341 149.309962,75.786822 148.19,75.43 C147.496464,75.3136015 146.792281,75.2733626 146.09,75.31 C146.09,75.31 145.82,77.31 147.09,77.79 C148.151095,78.2174494 149.331831,78.2423445 150.41,77.86 Z" id="Shape" stroke="#52267D" fill="#FFFFFF" fill-rule="nonzero"></path>
                <path d="M145.67,77.29 C145.452723,75.7416921 144.113184,74.5996495 142.55,74.63 C142.145124,74.6221601 141.740319,74.6489241 141.34,74.71 C141.34,74.71 140.21,77.47 141.73,77.6 C143.051321,77.6764714 144.376897,77.5721749 145.67,77.29 L145.67,77.29 Z" id="Shape" stroke="#52267D" fill="#FFFFFF" fill-rule="nonzero"></path>
                <path d="M140.31,77.91 C140.31,77.91 139.64,75.16 137.21,76.19 C136.574591,76.4677175 136.035366,76.9269284 135.66,77.51 C135.66,77.51 136.38,79.58 137.36,79.24 C138.378901,78.8802049 139.365717,78.4353016 140.31,77.91 Z" id="Shape" stroke="#52267D" fill="#FFFFFF" fill-rule="nonzero"></path>
                <path d="M114.46,75.14 C114.504584,74.5082349 114.887033,73.9498587 115.46,73.68 C115.704724,73.5977732 115.966613,73.5805436 116.22,73.63 C116.22,73.63 116.85,74.47 116.22,74.83 C115.691903,75.1475539 115.064815,75.258007 114.46,75.14 L114.46,75.14 Z" id="Shape" fill="#F3E3FF" fill-rule="nonzero"></path>
                <path d="M118.87,74.15 C118.848307,73.025704 119.667102,72.0611547 120.78,71.9 C121.067184,71.8485457 121.358248,71.8217813 121.65,71.82 C121.65,71.82 122.77,73.65 121.7,73.92 C120.771505,74.1249377 119.819402,74.2023171 118.87,74.15 L118.87,74.15 Z" id="Shape" fill="#F3E3FF" fill-rule="nonzero"></path>
                <path d="M124.77,74.55 C124.77,74.55 124.9,72.93 126.36,73.3 C126.745536,73.3962188 127.093672,73.6051004 127.36,73.9 C127.36,73.9 127.14,75.14 126.56,75.03 C125.950893,74.9206365 125.352102,74.7600668 124.77,74.55 Z" id="Shape" fill="#F3E3FF" fill-rule="nonzero"></path>
                <path d="M149.46,77.46 C149.323731,76.8530887 148.873848,76.3650807 148.28,76.18 C147.913291,76.1196158 147.541081,76.0994963 147.17,76.12 C147.17,76.12 147.03,77.17 147.71,77.43 C148.270301,77.652352 148.892407,77.6630167 149.46,77.46 L149.46,77.46 Z" id="Shape" fill="#F3E3FF" fill-rule="nonzero"></path>
                <path d="M144.53,76.94 C144.408675,76.0826703 143.66567,75.4513308 142.8,75.47 C142.577074,75.450928 142.352926,75.450928 142.13,75.47 C142.13,75.47 141.51,76.99 142.35,77.07 C143.079193,77.1265209 143.812692,77.0827801 144.53,76.94 L144.53,76.94 Z" id="Shape" fill="#F3E3FF" fill-rule="nonzero"></path>
                <path d="M139.3,77.8 C139.3,77.8 138.93,76.29 137.61,76.86 C137.262058,77.0112389 136.966408,77.2616722 136.76,77.58 C136.76,77.58 137.16,78.71 137.69,78.53 C138.246162,78.3321802 138.784722,78.0879882 139.3,77.8 L139.3,77.8 Z" id="Shape" fill="#F3E3FF" fill-rule="nonzero"></path>
                <path d="M134.23,93.85 C137.371456,94.0176907 140.518177,93.6387308 143.53,92.73 C144.17,95.17 144.61,97.01 144.61,97.01 C144.61,97.01 141.61,99.4 135.7,98.63 C134.76,95.51 134.23,93.85 134.23,93.85 Z" id="Shape" stroke="#52267D" fill="#FFFFFF" fill-rule="nonzero"></path>
                <path d="M139.145667,83.3487665 L144.595667,83.3487665 C145.25514,83.3487611 145.887458,83.6114184 146.352837,84.0786737 C146.818216,84.5459289 147.078326,85.1792987 147.075667,85.8387665 L147.075667,85.8387665 C147.075667,86.4965034 146.814382,87.1273011 146.349292,87.5923913 C145.884202,88.0574815 145.253404,88.3187665 144.595667,88.3187665 L144.075667,88.3187665 C141.314243,88.3187665 139.075667,86.0801903 139.075667,83.3187665 L139.075667,83.3187665 L139.145667,83.3487665 Z" id="Shape" fill="#F3E3FF" fill-rule="nonzero" opacity="0.3" transform="translate(143.075677, 85.818767) rotate(175.410000) translate(-143.075677, -85.818767) "></path>
                <path d="M140.093728,84.2613255 L144.853728,84.2613255 C146.008003,84.2613255 146.943728,85.1970504 146.943728,86.3513255 L146.943728,86.3513255 C146.943728,87.3509609 146.133364,88.1613255 145.133728,88.1613255 L144.003728,88.1613255 C141.849818,88.1613255 140.103728,86.4152361 140.103728,84.2613255 L140.103728,84.2613255 L140.093728,84.2613255 Z" id="Shape" stroke="#52267D" fill="#FFFFFF" fill-rule="nonzero" transform="translate(143.518728, 86.211326) rotate(175.410000) translate(-143.518728, -86.211326) "></path>
                <circle id="Oval" fill="#52267D" fill-rule="nonzero" transform="translate(145.207146, 86.643656) rotate(-30.520000) translate(-145.207146, -86.643656) " cx="145.207146" cy="86.6436565" r="1.09"></circle>
                <path d="M121.910589,80.3959817 L122.390589,80.3959817 C123.760255,80.3959817 124.870589,81.5063155 124.870589,82.8759817 L124.870589,82.8759817 C124.870589,84.2456478 123.760255,85.3559817 122.390589,85.3559817 L116.990589,85.3559817 L116.990589,85.3559817 C117.011963,82.6410828 119.195952,80.4393373 121.910589,80.3959817 L121.910589,80.3959817 Z" id="Shape" fill="#F3E3FF" fill-rule="nonzero" opacity="0.3" transform="translate(120.930589, 82.875982) rotate(-4.590000) translate(-120.930589, -82.875982) "></path>
                <path d="M121.003439,81.3951749 L122.003439,81.3951749 C123.108009,81.3951749 124.003439,82.2906054 124.003439,83.3951749 L124.003439,83.3951749 C124.003439,84.4997444 123.108009,85.3951749 122.003439,85.3951749 L117.113439,85.3951749 L117.113439,85.3951749 C117.086509,84.3453474 117.484104,83.3290243 118.216265,82.5761602 C118.948425,81.8232962 119.953269,81.3975223 121.003439,81.3951749 L121.003439,81.3951749 Z" id="Shape" stroke="#52267D" fill="#FFFFFF" fill-rule="nonzero" transform="translate(120.557797, 83.395175) rotate(-4.590000) translate(-120.557797, -83.395175) "></path>
                <circle id="Oval" fill="#52267D" fill-rule="nonzero" transform="translate(119.161868, 83.442984) rotate(-54.810000) translate(-119.161868, -83.442984) " cx="119.161868" cy="83.4429837" r="1.09"></circle>
                <path d="M153.81,88.58 L153.81,88.58 C153.496377,88.5388599 153.206652,88.3904641 152.99,88.16 L152.59,87.73 L153.41,87.84 L153.9,87.9 C154.084422,87.9258703 154.213715,88.0952881 154.19,88.28 L154.19,88.28 C154.179994,88.3704374 154.134157,88.453091 154.062741,88.5094719 C153.991325,88.5658529 153.90029,88.5912564 153.81,88.58 Z" id="Shape" fill="#52267D" fill-rule="nonzero"></path>
                <path d="M111.54,86.86 L111.54,86.86 C111.842803,86.767669 112.104286,86.5733232 112.28,86.31 L112.61,85.82 L111.81,86.06 L111.34,86.2 C111.25172,86.2253815 111.177465,86.2854031 111.134141,86.3664009 C111.090816,86.4473987 111.082109,86.5424801 111.11,86.63 L111.11,86.63 C111.135382,86.7182804 111.195403,86.7925348 111.276401,86.8358592 C111.357399,86.8791836 111.45248,86.8878913 111.54,86.86 Z" id="Shape" fill="#52267D" fill-rule="nonzero"></path>
                <path d="M122.83,90.66 C125.517824,91.4547197 128.399647,91.2777035 130.97,90.16 C130.865787,91.3954445 130.69218,92.6240509 130.45,93.84 C129.09516,94.0271813 127.724912,94.0774349 126.36,93.99 C124,93.72 123,92.74 122.83,90.66 Z" id="Shape" fill="#EAF3FB" fill-rule="nonzero"></path>
                <path d="M128.71,93.28 C126.483305,93.6047289 124.211012,93.3816186 122.09,92.63" id="Shape" stroke="#52267D" fill="#FFFFFF" fill-rule="nonzero"></path>
                <path d="M141.85,93.78 C139.696817,94.544848 137.409976,94.8613304 135.13,94.71 C135.452414,95.7336724 135.839869,96.7357114 136.29,97.71 C136.29,97.71 141,96.72 141.85,93.78 Z" id="Shape" fill="#EAF3FB" fill-rule="nonzero"></path>
                <path d="M142.62,127.41 C142.62,127.41 142.42,127.58 142.12,127.79" id="Shape" stroke="#52267D" stroke-width="0.5" fill="#F3E3FF" fill-rule="nonzero"></path>
                <path d="M142.31,95.11 C139.882243,95.7212781 137.3828,96.0004891 134.88,95.94" id="Shape" stroke="#52267D" fill="#FFFFFF" fill-rule="nonzero"></path>
                <path d="M142.36,169.89 C141.61502,169.475436 140.67939,169.661715 140.15,170.33 C139.06,171.33 138.31,172.93 138.84,173.03 C139.639513,173.179951 140.462191,173.152643 141.25,172.95 C142.08,172.73 142.83,172.83 143.03,171.05 C143.069064,170.561753 142.802441,170.100136 142.36,169.89 Z" id="Shape" stroke="#52267D" stroke-width="0.5" fill="#FFFFFF" fill-rule="nonzero"></path>
                <path d="M142.17,170.2 C141.704024,169.939404 141.117558,170.058397 140.79,170.48 C140.11,171.13 139.64,172.1 139.98,172.16 C140.473985,172.269685 140.986015,172.269685 141.48,172.16 C141.99,172.02 142.48,172.09 142.59,170.98 C142.64179,170.655057 142.469791,170.33563 142.17,170.2 L142.17,170.2 Z" id="Shape" fill="#EAF3FB" fill-rule="nonzero"></path>
                <path d="M143.72,169.77 C144.22,169.66 145.04,170.7 144.98,171.04 C144.92,171.38 144.98,172.49 144.15,172.68 C143.55,172.82 141.42,173.21 140.91,172.78 C140.4,172.35 141.13,170.33 143.72,169.77 Z" id="Shape" stroke="#52267D" stroke-width="0.5" fill="#FFFFFF" fill-rule="nonzero"></path>
                <path d="M143.89,170.06 C144.19,170 144.67,170.61 144.63,170.81 C144.59,171.01 144.63,171.67 144.14,171.81 C143.65,171.95 142.53,172.13 142.23,171.87 C141.93,171.61 142.36,170.39 143.89,170.06 Z" id="Shape" fill="#EAF3FB" fill-rule="nonzero"></path>
                <path d="M145.88,169.81 C145.88,169.81 145.42,169.62 144.6,170.18 C143.78,170.74 142.78,171.47 143.16,172.32 C143.54,173.17 145.92,172.65 146.44,172.42 C146.955678,172.191025 147.239671,171.631391 147.12,171.08 C146.982286,170.455048 146.501482,169.962611 145.88,169.81 L145.88,169.81 Z" id="Shape" stroke="#52267D" stroke-width="0.5" fill="#FFFFFF" fill-rule="nonzero"></path>
                <path d="M146.07,170.1 C146.07,170.1 145.8,169.99 145.31,170.32 C144.82,170.65 144.24,171.08 144.45,171.58 C144.66,172.08 146.08,171.77 146.39,171.64 C146.695654,171.501389 146.862504,171.16769 146.79,170.84 C146.705744,170.47893 146.428626,170.194115 146.07,170.1 Z" id="Shape" fill="#EAF3FB" fill-rule="nonzero"></path>
                <path d="M133.54,142.9 C134.159655,147.702753 134.236807,152.55999 133.77,157.38 C133.1,165.68 130.96,168.44 131.3,170.55 C131.57,172.18 132.38,173.64 134.03,173.55 L138.95,173.15 C141.243549,172.961536 143.162053,171.332618 143.72,169.1 C144.30119,166.713874 144.636274,164.274459 144.72,161.82 C144.721592,158.260935 144.51457,154.704837 144.1,151.17" id="Shape" stroke="#52267D" stroke-width="2" fill="#9452BA" fill-rule="nonzero"></path>
                <path d="M159.09,144.57 C157.604919,146.197224 156.87827,148.377172 157.09,150.57 C157.33,153.39 159.26,156.85 158.6,161.57 C158.01,165.82 156.23,166.7 157.09,170.41 C157.259029,171.075623 157.885909,171.520369 158.57,171.46 L164.06,171.02 C166.585757,170.814406 168.59375,168.814867 168.81,166.29 C169.160066,160.315711 168.466356,154.326116 166.76,148.59" id="Shape" stroke="#52267D" stroke-width="2" fill="#9452BA" fill-rule="nonzero"></path>
                <polyline id="Shape" stroke="#52267D" stroke-width="0.5" points="160.67 150.7 160.97 150.44 162.04 150.6 160.94 151.43 159.49 150.85 160.84 149.58 161.52 149.75"></polyline>
                <path d="M132.4,170.7 C131.65502,170.285436 130.71939,170.471715 130.19,171.14 C129.1,172.14 128.35,173.74 128.88,173.84 C129.679513,173.989951 130.502191,173.962643 131.29,173.76 C132.12,173.54 132.87,173.64 133.07,171.86 C133.109064,171.371753 132.842441,170.910136 132.4,170.7 L132.4,170.7 Z" id="Shape" stroke="#52267D" fill="#FFFFFF" fill-rule="nonzero"></path>
                <path d="M132.2,171 C131.734024,170.739404 131.147558,170.858397 130.82,171.28 C130.14,171.93 129.67,172.9 130.01,172.96 C130.503985,173.069685 131.016015,173.069685 131.51,172.96 C132.02,172.82 132.51,172.89 132.62,171.78 C132.67179,171.455057 132.499791,171.13563 132.2,171 Z" id="Shape" fill="#EAF3FB" fill-rule="nonzero"></path>
                <polyline id="Shape" stroke="#52267D" stroke-width="0.5" points="138.76 155.58 136.85 156.35 137.26 158.14 139.28 158.13 140.13 156.97 138.87 156.4 137.9 156.77 138.59 157.42"></polyline>
                <g id="Group" opacity="0.3" transform="translate(90.000000, 82.000000)" stroke="#F3E3FF" stroke-width="0.25">
                    <path d="M1.92,17.12 C1.9531371,17.4182338 2.22176624,17.6331371 2.52,17.6 C2.81823375,17.5668629 3.03313707,17.2982338 3,17" id="Shape"></path>
                    <path d="M0.85,17.2 C0.845145663,17.4067465 0.958794241,17.5981072 1.14265759,17.6927748 C1.32652093,17.7874424 1.54830217,17.7687879 1.71376867,17.6447374 C1.87923517,17.5206869 1.95932159,17.3130308 1.92,17.11" id="Shape"></path>
                    <path d="M1.43,17.69 C1.42514566,17.8967465 1.53879424,18.0881072 1.72265759,18.1827748 C1.90652093,18.2774424 2.12830217,18.2587879 2.29376867,18.1347374 C2.45923517,18.0106869 2.53932159,17.8030308 2.5,17.6" id="Shape"></path>
                    <path d="M22.35,15 C22.6027307,15.1584589 22.9231658,15.1610511 23.178427,15.0067017 C23.4336882,14.8523523 23.5802434,14.5673839 23.5573189,14.2699676 C23.5343944,13.9725512 23.3458996,13.7134081 23.07,13.6" id="Shape"></path>
                    <path d="M22.69,16 C23.0694922,16.1559896 23.5052317,15.995501 23.6928821,15.6306251 C23.8805326,15.2657492 23.7576239,14.8179558 23.41,14.6" id="Shape"></path>
                    <path d="M49.13,30.88 C49.1921933,31.2492635 49.5270553,31.5092099 49.9002081,31.4778963 C50.2733609,31.4465828 50.5602175,31.1344643 50.56,30.76" id="Shape"></path>
                    <path d="M47.7,31 C47.7621933,31.3692635 48.0970553,31.6292099 48.4702081,31.5978963 C48.8433609,31.5665828 49.1302175,31.2544643 49.13,30.88" id="Shape"></path>
                    <path d="M48.48,31.65 C48.4801577,31.9215426 48.6330743,32.1698998 48.8754685,32.2922944 C49.1178627,32.414689 49.4085,32.3902999 49.6271061,32.2292199 C49.8457123,32.06814 49.9550994,31.7977712 49.91,31.53" id="Shape"></path>
                    <path d="M31.39,78 C31.4521933,78.3692635 31.7870553,78.6292099 32.1602081,78.5978963 C32.5333609,78.5665828 32.8202175,78.2544643 32.82,77.88" id="Shape"></path>
                    <path d="M30,78.1 C30.0001577,78.3715426 30.1530743,78.6198998 30.3954685,78.7422944 C30.6378627,78.864689 30.9285,78.8402999 31.1471061,78.6792199 C31.3657123,78.51814 31.4750994,78.2477712 31.43,77.98" id="Shape"></path>
                    <path d="M30.73,78.76 C30.7921933,79.1292635 31.1270553,79.3892099 31.5002081,79.3578963 C31.8733609,79.3265828 32.1602175,79.0144643 32.16,78.64" id="Shape"></path>
                    <path d="M46.19,8.14 C46.255437,8.54765255 46.6237424,8.83616663 47.0352054,8.80209645 C47.4466685,8.76802626 47.7625038,8.42286359 47.76,8.01" id="Shape"></path>
                    <path d="M45.47,9 C45.535437,9.40765255 45.9037424,9.69616663 46.3152054,9.66209645 C46.7266685,9.62802626 47.0425038,9.28286359 47.04,8.87" id="Shape"></path>
                    <path d="M37.25,22.85 C37.4095117,23.2619512 37.8204261,23.5204307 38.2608255,23.4858444 C38.7012248,23.451258 39.0667516,23.1318015 39.16,22.7" id="Shape"></path>
                    <path d="M36.37,23.88 C36.2797485,24.297924 36.4651813,24.7269924 36.831407,24.9476382 C37.1976327,25.168284 37.6636216,25.131688 37.9909136,24.8565774 C38.3182056,24.5814669 38.4343852,24.1287117 38.28,23.73" id="Shape"></path>
                    <path d="M21.44,0.18 C21.4578633,0.408649986 21.5963529,0.610401343 21.8033013,0.709256284 C22.0102496,0.808111226 22.2542162,0.789051333 22.4433013,0.659256283 C22.6323863,0.529461233 22.7378633,0.308649984 22.72,0.08" id="Shape"></path>
                    <path d="M20.85,0.87 C20.8678633,1.09864998 21.0063529,1.30040132 21.2133013,1.39925626 C21.4202496,1.49811119 21.6642162,1.4790513 21.8533013,1.34925626 C22.0423863,1.21946122 22.1478633,0.998649978 22.13,0.77" id="Shape"></path>
                    <path d="M86.83,59.84 C87.1170406,59.9916766 87.4694238,59.9385492 87.6989865,59.7089865 C87.9285492,59.4794238 87.9816766,59.1270406 87.83,58.84" id="Shape"></path>
                    <path d="M86.83,60.89 C87.1170406,61.0416766 87.4694238,60.9885492 87.6989865,60.7589865 C87.9285492,60.5294238 87.9816766,60.1770406 87.83,59.89" id="Shape"></path>
                    <path d="M56.74,52 C56.8674317,52.3102347 57.1618425,52.5195944 57.4967178,52.5381126 C57.8315932,52.5566309 58.147293,52.3810098 58.3081545,52.0867174 C58.469016,51.792425 58.4463902,51.4318737 58.25,51.16" id="Shape"></path>
                    <path d="M55.23,52.87 C55.3574317,53.1802347 55.6518425,53.3895944 55.9867178,53.4081126 C56.3215932,53.4266309 56.637293,53.2510098 56.7981545,52.9567174 C56.959016,52.662425 56.9363902,52.3018737 56.74,52.03" id="Shape"></path>
                    <path d="M56.41,53.2 C56.6681734,53.5574036 57.1528886,53.6651749 57.5381822,53.4508394 C57.9234757,53.2365039 58.087521,52.7678327 57.92,52.36" id="Shape"></path>
                    <path d="M54.89,54 C55.0174317,54.3102347 55.3118425,54.5195944 55.6467178,54.5381126 C55.9815932,54.5566309 56.297293,54.3810098 56.4581545,54.0867174 C56.619016,53.792425 56.5963902,53.4318737 56.4,53.16" id="Shape"></path>
                    <path d="M57.59,53.54 C57.8481734,53.8974036 58.3328886,54.0051749 58.7181822,53.7908394 C59.1034757,53.5765039 59.267521,53.1078327 59.1,52.7" id="Shape"></path>
                    <path d="M37.85,5.37 C37.8886599,5.85048772 38.3095123,6.20865991 38.79,6.16999997 C39.2704877,6.13134004 39.6286599,5.71048772 39.59,5.23" id="Shape"></path>
                    <path d="M40.2,38.34 C40.2386599,38.8204877 40.6595123,39.1786599 41.14,39.14 C41.6204877,39.10134 41.9786599,38.6804877 41.94,38.2" id="Shape"></path>
                    <path d="M48.62,19.39 C48.6396496,19.6257953 48.7836019,19.8331962 48.9976314,19.9340768 C49.2116609,20.0349574 49.4632515,20.0139915 49.6576314,19.8790768 C49.8520113,19.7441621 49.9596496,19.5157953 49.94,19.28" id="Shape"></path>
                    <path d="M63.14,3.11 C63.1620914,3.38614237 63.4038576,3.59209139 63.68,3.57 C63.9561424,3.54790861 64.1620914,3.30614237 64.14,3.03" id="Shape"></path>
                    <path d="M73.12,75.65 C73.1985984,75.9518895 73.4322824,76.1889151 73.7330256,76.2717915 C74.0337687,76.354668 74.3558809,76.2708045 74.5780256,76.0517915 C74.8001703,75.8327786 74.8885985,75.5118894 74.81,75.21" id="Shape"></path>
                    <path d="M49.55,84 C49.7095117,84.4119512 50.1204261,84.6704307 50.5608255,84.6358444 C51.0012248,84.601258 51.3667516,84.2818015 51.46,83.85" id="Shape"></path>
                    <path d="M48.67,85 C48.8295117,85.4119512 49.2404261,85.6704307 49.6808255,85.6358444 C50.1212248,85.601258 50.4867516,85.2818015 50.58,84.85" id="Shape"></path>
                </g>
                <path d="M133.76,170.57 C134.26,170.46 135.08,171.5 135.02,171.84 C134.96,172.18 135.02,173.29 134.19,173.48 C133.59,173.62 131.46,174.01 130.95,173.58 C130.44,173.15 131.17,171.13 133.76,170.57 Z" id="Shape" stroke="#52267D" fill="#FFFFFF" fill-rule="nonzero"></path>
                <path d="M133.92,170.86 C134.22,170.8 134.7,171.41 134.66,171.61 C134.62,171.81 134.66,172.47 134.17,172.61 C133.68,172.75 132.56,172.93 132.26,172.67 C131.96,172.41 132.39,171.19 133.92,170.86 Z" id="Shape" fill="#EAF3FB" fill-rule="nonzero"></path>
                <path d="M135.6,171 C135.6,171 135.2,170.83 134.47,171.33 C133.74,171.83 132.86,172.47 133.19,173.22 C133.52,173.97 135.63,173.51 136.09,173.31 C136.548362,173.107352 136.79962,172.609025 136.69,172.12 C136.567323,171.570784 136.145684,171.13754 135.6,171 Z" id="Shape" stroke="#52267D" fill="#FFFFFF" fill-rule="nonzero"></path>
                <path d="M135.77,171.23 C135.77,171.23 135.53,171.13 135.1,171.42 C134.67,171.71 134.1,172.1 134.34,172.54 C134.58,172.98 135.79,172.71 136.06,172.59 C136.327801,172.469083 136.473947,172.176791 136.41,171.89 C136.337678,171.567194 136.090429,171.312218 135.77,171.23 L135.77,171.23 Z" id="Shape" fill="#EAF3FB" fill-rule="nonzero"></path>
                <path d="M115.4,172.8 C115.4,172.8 115,172.63 114.27,173.13 C113.54,173.63 112.66,174.27 112.99,175.02 C113.32,175.77 115.43,175.31 115.89,175.11 C116.348362,174.907352 116.59962,174.409025 116.49,173.92 C116.367323,173.370784 115.945684,172.93754 115.4,172.8 Z" id="Shape" stroke="#52267D" fill="#FFFFFF" fill-rule="nonzero"></path>
                <path d="M115.57,173.06 C115.57,173.06 115.33,172.96 114.9,173.25 C114.47,173.54 113.9,173.93 114.14,174.37 C114.38,174.81 115.59,174.54 115.86,174.42 C116.127801,174.299083 116.273947,174.006791 116.21,173.72 C116.137678,173.397194 115.890429,173.142218 115.57,173.06 L115.57,173.06 Z" id="Shape" fill="#EAF3FB" fill-rule="nonzero"></path>
                <path d="M117.7,172.07 C118.2,171.96 119.02,173 118.96,173.34 C118.9,173.68 118.96,174.79 118.13,174.98 C117.53,175.12 115.4,175.51 114.89,175.08 C114.38,174.65 115.11,172.63 117.7,172.07 Z" id="Shape" stroke="#52267D" fill="#FFFFFF" fill-rule="nonzero"></path>
                <path d="M117.86,172.37 C118.16,172.31 118.64,172.92 118.6,173.12 C118.56,173.32 118.6,173.98 118.11,174.12 C117.62,174.26 116.5,174.44 116.2,174.18 C115.9,173.92 116.33,172.7 117.86,172.37 Z" id="Shape" fill="#EAF3FB" fill-rule="nonzero"></path>
                <path d="M159,168.55 C158.25502,168.135436 157.31939,168.321715 156.79,168.99 C155.7,169.99 154.95,171.59 155.48,171.69 C156.279513,171.839951 157.102191,171.812643 157.89,171.61 C158.72,171.39 159.47,171.49 159.67,169.71 C159.709064,169.221753 159.442441,168.760136 159,168.55 Z" id="Shape" stroke="#52267D" stroke-width="0.5" fill="#FFFFFF" fill-rule="nonzero"></path>
                <path d="M158.85,168.86 C158.384024,168.599404 157.797558,168.718397 157.47,169.14 C156.79,169.79 156.32,170.76 156.66,170.82 C157.153985,170.929685 157.666015,170.929685 158.16,170.82 C158.67,170.68 159.16,170.75 159.27,169.64 C159.32179,169.315057 159.149791,168.99563 158.85,168.86 L158.85,168.86 Z" id="Shape" fill="#EAF3FB" fill-rule="nonzero"></path>
                <path d="M160.4,168.43 C160.9,168.32 161.72,169.36 161.66,169.7 C161.6,170.04 161.66,171.15 160.83,171.34 C160.23,171.48 158.1,171.87 157.59,171.44 C157.08,171.01 157.81,169 160.4,168.43 Z" id="Shape" stroke="#52267D" stroke-width="0.5" fill="#FFFFFF" fill-rule="nonzero"></path>
                <path d="M160.57,168.72 C160.87,168.66 161.35,169.27 161.31,169.47 C161.27,169.67 161.31,170.33 160.82,170.47 C160.33,170.61 159.21,170.79 158.91,170.53 C158.61,170.27 159,169.05 160.57,168.72 Z" id="Shape" fill="#EAF3FB" fill-rule="nonzero"></path>
                <path d="M162.24,168.82 C162.24,168.82 161.84,168.65 161.11,169.15 C160.38,169.65 159.5,170.29 159.83,171.04 C160.16,171.79 162.27,171.33 162.73,171.13 C163.188362,170.927352 163.43962,170.429025 163.33,169.94 C163.207323,169.390784 162.785684,168.95754 162.24,168.82 L162.24,168.82 Z" id="Shape" stroke="#52267D" stroke-width="0.5" fill="#FFFFFF" fill-rule="nonzero"></path>
                <path d="M162.41,169.09 C162.41,169.09 162.17,168.99 161.74,169.28 C161.31,169.57 160.74,169.96 160.98,170.4 C161.22,170.84 162.43,170.57 162.7,170.45 C162.967801,170.329083 163.113947,170.036791 163.05,169.75 C162.977678,169.427194 162.730429,169.172218 162.41,169.09 L162.41,169.09 Z" id="Shape" fill="#EAF3FB" fill-rule="nonzero"></path>
                <path d="M124.38,172 C124.503425,171.857152 124.700342,171.802015 124.88,171.86 C125.48,172.09 127.02,172.75 126.8,173.86 C126.63,174.7 126.11,174.49 125.15,174.59 L124.43,174.66 C124.279867,174.674463 124.133916,174.605328 124.05,174.48 L124.05,174.48 C123.600133,173.703315 123.722791,172.722051 124.35,172.08 L124.38,172 Z" id="Shape" stroke="#52267D" fill="#FFFFFF" fill-rule="nonzero"></path>
                <path d="M124.48,172.24 C124.569291,172.13781 124.710797,172.098503 124.84,172.14 C125.28,172.31 126.39,172.79 126.23,173.57 C126.11,174.18 125.73,174.03 125.03,174.1 L124.5,174.15 C124.389822,174.161697 124.282166,174.111714 124.22,174.02 L124.22,174.02 C123.885715,173.454744 123.976207,172.734926 124.44,172.27 L124.48,172.24 Z" id="Shape" fill="#EAF3FB" fill-rule="nonzero"></path>
                <path d="M121,172 C120.290603,171.525634 119.34188,171.635754 118.76,172.26 C117.59,173.26 116.7,174.69 117.23,174.84 C118.014124,175.059271 118.836838,175.103649 119.64,174.97 C120.48,174.82 121.22,174.97 121.57,173.23 C121.657972,172.740876 121.430058,172.249061 121,172 L121,172 Z" id="Shape" stroke="#52267D" fill="#FFFFFF" fill-rule="nonzero"></path>
                <path d="M120.74,172.26 C120.300082,171.96542 119.711483,172.033172 119.35,172.42 C118.62,173.01 118.07,173.93 118.35,174.03 C118.838109,174.16619 119.350175,174.1935 119.85,174.11 C120.37,174.02 120.85,174.11 121.05,173.03 C121.116843,172.733842 120.993401,172.427229 120.74,172.26 L120.74,172.26 Z" id="Shape" fill="#EAF3FB" fill-rule="nonzero"></path>
                <rect id="Rectangle-path" stroke="#9ACDED" stroke-width="2" fill="#FFFFFF" fill-rule="nonzero" transform="translate(152.641463, 101.298600) rotate(7.250000) translate(-152.641463, -101.298600) " x="124.106463" y="76.5086001" width="57.07" height="49.58" rx="2.25"></rect>
                <rect id="Rectangle-path" stroke="#9ACDED" stroke-width="2" fill="#E1F2FF" fill-rule="nonzero" transform="translate(152.963763, 98.842981) rotate(7.250000) translate(-152.963763, -98.842981) " x="129.543763" y="83.1579806" width="46.84" height="31.37" rx="2.25"></rect>
                <path d="M128.41,106.17 C128.41,105.89 134.71,101.86 138.09,99.7 C139.311912,98.9303437 140.908773,99.140457 141.89,100.2 L147.41,106.2 C147.704062,106.524338 148.194849,106.576 148.55,106.32 L159.82,98.24 C160.951857,97.437951 162.486001,97.516519 163.53,98.43 L175.29,108.79 L174.56,114.53 C174.477819,115.173768 174.142556,115.758273 173.628358,116.154243 C173.114161,116.550212 172.4634,116.725018 171.82,116.64 L129.49,111.08 C128.9662,111.010149 128.494747,110.726412 128.187779,110.296277 C127.88081,109.866142 127.765762,109.328054 127.87,108.81 L128.41,106.17 Z" id="Shape" fill="#9ACDED" fill-rule="nonzero"></path>
                <circle id="Oval" stroke="#9ACDED" stroke-width="1.99699775" fill="#FFFFFF" fill-rule="nonzero" transform="translate(168.693800, 92.403600) rotate(-82.519114) translate(-168.693800, -92.403600) " cx="168.6938" cy="92.4036" r="3.19519639"></circle>
                <rect id="Rectangle-path" stroke="#375D81" stroke-width="2" fill="#FFFFFF" fill-rule="nonzero" x="102.15" y="105.85" width="87.4" height="94.16"></rect>
                <polygon id="Shape" fill="#E1F2FF" fill-rule="nonzero" points="188.51 160.02 102.07 120.28 102.15 105.85 188.51 105.85"></polygon>
                <rect id="Rectangle-path" stroke="#375D81" stroke-width="2" fill="#FFFFFF" fill-rule="nonzero" x="58.36" y="105.95" width="43.7" height="94.16"></rect>
                <polygon id="Shape" fill="#E1F2FF" fill-rule="nonzero" points="59.35 139.48 101.12 120.28 101.04 105.85 58.37 105.85"></polygon>
                <polygon id="Shape" stroke="#375D81" stroke-width="2" fill="#FFFFFF" fill-rule="nonzero" points="102.07 105.95 58.37 105.95 34.42 134.61 78.12 134.61"></polygon>
                <polygon id="Shape" stroke="#375D81" stroke-width="2" fill="#FFFFFF" fill-rule="nonzero" points="102.07 105.95 189.47 105.95 213.42 134.61 126.01 134.61"></polygon>
                <path d="M207.25,46.57 L207.25,53.57" id="Shape" stroke="#375D81" stroke-width="2" stroke-linecap="round" stroke-linejoin="round"></path>
                <path d="M210.75,50.07 L203.75,50.07" id="Shape" stroke="#375D81" stroke-width="2" stroke-linecap="round" stroke-linejoin="round"></path>
                <path d="M51.12,36.08 L51.12,43.08" id="Shape" stroke="#375D81" stroke-width="2" stroke-linecap="round" stroke-linejoin="round"></path>
                <path d="M54.62,39.58 L47.62,39.58" id="Shape" stroke="#375D81" stroke-width="2" stroke-linecap="round" stroke-linejoin="round"></path>
                <path d="M171.8,0.5 L171.8,4.44" id="Shape" stroke="#375D81" stroke-linecap="round"></path>
                <path d="M173.76,2.47 L169.83,2.47" id="Shape" stroke="#375D81" stroke-linecap="round"></path>
                <path d="M19.41,159.37 L19.41,163.31" id="Shape" stroke="#375D81" stroke-linecap="round"></path>
                <path d="M21.38,161.34 L17.44,161.34" id="Shape" stroke="#375D81" stroke-linecap="round"></path>
                <path d="M69.05,161.17 L89.27,161.17" id="Shape" stroke="#9ACDED" stroke-width="2" stroke-linecap="round"></path>
                <path d="M69.05,168.44 L89.27,168.44" id="Shape" stroke="#9ACDED" stroke-width="2" stroke-linecap="round"></path>
                <path d="M69.05,175.7 L89.27,175.7" id="Shape" stroke="#9ACDED" stroke-width="2" stroke-linecap="round"></path>
                <path d="M200.51,129.4 L180.13,129.4" id="Shape" stroke="#E1F2FF" stroke-width="2" stroke-linecap="round"></path>
                <path d="M58.22,129.4 L44.83,129.4" id="Shape" stroke="#E1F2FF" stroke-width="2" stroke-linecap="round"></path>
                <path d="M184.01,195.97 L184.01,181.72" id="Shape" stroke="#E1F2FF" stroke-width="2" stroke-linecap="round"></path>
                <text id="ASSET" fill="#375D81" font-family="Lato-Black, Lato" font-size="18" font-weight="700">
                    <tspan x="121.84" y="165.05">ASSET</tspan>
                </text>
            </g>
        </g>
    </g>
</svg>