<svg width="326" height="232" xmlns="http://www.w3.org/2000/svg">
    <g id="Page-1" fill="none" fill-rule="evenodd">
        <g id="end-user_1_6">
            <ellipse id="Oval-3" fill="#E1F2FF" cx="164" cy="130.5" rx="86" ry="82.5"/>
            <g id="Group-4" transform="translate(73 20)" stroke="#375D81" stroke-linecap="round">
                <g id="Group-2">
                    <path d="M172 157v5.79M174.03 160H168M45.69 0v5.79M49.14 3.3H43.1" id="Shape" stroke-width="2" stroke-linejoin="round"/>
                    <path d="M99.14 5.79v3.26M100.81 7.44h-3.4" id="Shape"/>
                    <path d="M157 29v3.26M158.4 31H155" id="Shape" stroke-linejoin="round"/>
                    <path d="M1.72 35.56v3.26M3.4 37.22H0" id="Shape"/>
                    <path d="M9.48 131.5v6.71M13.04 134.8h-7" id="Shape" stroke-width="2" fill="#FFF" fill-rule="nonzero"/>
                </g>
            </g>
            <g id="Group-19" transform="scale(-1 1) rotate(-60 72.36 214.16)">
                <path d="M14.84 23.48C15.52 15.58 19.1 0 19.1 0" id="Shape" stroke="#9ACDED" stroke-width="2"/>
                <path d="M27.4 64.3H1.45c-.3 0-.53-.26-.53-.58V33a3 3 0 0 1 .8-2.05l11.53-12.33a1.57 1.57 0 0 1 2.33 0l11.54 12.33a3 3 0 0 1 .8 2.05v30.72a.6.6 0 0 1-.15.41c-.1.1-.24.17-.39.17z" id="Shape" stroke="#375D81" stroke-width="2" fill="#FFF" fill-rule="nonzero"/>
                <ellipse id="Oval" stroke="#375D81" fill="#FFF" fill-rule="nonzero" cx="15.13" cy="25.35" rx="2.13" ry="2.35"/>
                <path d="M17.5 3.21s.75 2.73.65 3.82c-.19 2.16-.66 4.5-.5 8.09.3 6.36 1.36 12.18-1.7 10-.4-.28-.93-1.09-.96-1.93" id="Shape" stroke="#9ACDED" stroke-width="2"/>
                <text id="1.6" transform="scale(1 -1) rotate(89.5 62.46 0)" font-family="Lato-Heavy, Lato" font-size="14" font-weight="600" fill="#9452BA">
                    <tspan x="6.64" y="52.1">1.6</tspan>
                </text>
            </g>
            <g id="Group" transform="translate(100 61)">
                <path d="M113.47 78H2.53A2.56 2.56 0 0 1 0 75.42V2.58A2.56 2.56 0 0 1 2.53 0h110.94c1.4 0 2.53 1.16 2.53 2.58v72.84a2.56 2.56 0 0 1-2.53 2.58" id="Fill-381" fill="#FFF"/>
                <path d="M113.47 78H2.53A2.56 2.56 0 0 1 0 75.42V2.58A2.56 2.56 0 0 1 2.53 0h110.94c1.4 0 2.53 1.16 2.53 2.58v72.84a2.56 2.56 0 0 1-2.53 2.58z" id="Stroke-382" stroke="#375D81" stroke-width="2"/>
                <path id="Fill-383" fill="#FFF" d="M7 67h102V8H7z"/>
                <path d="M107 72a1 1 0 1 1-2 0 1 1 0 0 1 2 0z" id="Stroke-385" stroke="#375D81" stroke-width="2"/>
                <path id="Stroke-386" stroke="#375D81" stroke-width="2" fill="#FFF" d="M76 94H41l3.78-16h27.44z"/>
                <path d="M78.36 96H37.64c-.35 0-.64-.34-.64-.76v-1.48c0-.42.29-.76.64-.76h40.72c.35 0 .64.34.64.76v1.48c0 .42-.29.76-.64.76z" id="Stroke-387" stroke="#375D81" stroke-width="2" fill="#FFF"/>
                <g id="Group-17" transform="translate(7 7)">
                    <path id="Rectangle-2" fill="#F1F4F9" d="M5.77.49h18.04v58.26H5.77z"/>
                    <path d="M4.33 10.7c0 .74-.6 1.35-1.32 1.35-.73 0-1.33-.6-1.33-1.36 0-.74.6-1.35 1.33-1.35.73 0 1.32.6 1.32 1.35zM4.33 17.82c0 .75-.6 1.36-1.32 1.36-.73 0-1.33-.61-1.33-1.36 0-.74.6-1.35 1.33-1.35.73 0 1.32.6 1.32 1.35zM4.33 24.95c0 .75-.6 1.35-1.32 1.35-.73 0-1.33-.6-1.33-1.35 0-.74.6-1.35 1.33-1.35.73 0 1.32.6 1.32 1.35zM4.33 32.08c0 .75-.6 1.35-1.32 1.35-.73 0-1.33-.6-1.33-1.35 0-.75.6-1.35 1.33-1.35.73 0 1.32.6 1.32 1.35z" id="Stroke-385" fill="#D9DDE2"/>
                    <path id="Stroke-384" stroke="#9ACDED" d="M.17 58.92h101.66V.22H.17z"/>
                </g>
                <path d="M41.1 20.5h59.8M41.1 25.5h59.8M41.1 30.5h59.8M41.1 35.5h59.8" id="Line" stroke="#F1F4F9" stroke-width="2" stroke-linecap="square"/>
                <path d="M77 49.6a.86.86 0 0 0-1.7 0h-.02v-.2a.88.88 0 0 0-.84-.88.86.86 0 0 0-.87.86v-.24a.88.88 0 0 0-.84-.89.86.86 0 0 0-.88.86v-3.23a.88.88 0 0 0-.84-.88.86.86 0 0 0-.87.86v6.37l-1.46-1.45a1 1 0 0 0-1.36-.06.97.97 0 0 0-.03 1.41l2.6 2.62c.16.16.37.25.6.25h5.68c.46 0 .83-.37.83-.83V49.6z" id="Fill-463"/>
                <path d="M77 49.6a.86.86 0 0 0-1.7 0h-.02v-.2a.88.88 0 0 0-.84-.88.86.86 0 0 0-.87.86v-.24a.88.88 0 0 0-.84-.89.86.86 0 0 0-.88.86v-3.23a.88.88 0 0 0-.84-.88.86.86 0 0 0-.87.86v6.37l-1.46-1.45a1 1 0 0 0-1.36-.06.97.97 0 0 0-.03 1.41l2.6 2.62c.16.16.37.25.6.25h5.68c.46 0 .83-.37.83-.83V49.6z" id="Stroke-464" stroke="#9452BA"/>
                <path d="M59.4 73.91l.09.09c-1.2-.64-2.02-.15-2.95-.27l-.04-.01-.06-.01c-.25-.06-.47-.27-.68-.56l-.05-.08-.1-.14v-.02l-.03-.04-.02-.04-.02-.05-.03-.04-.01-.04c-.21-.4-.38-.9-.5-1.4a5.43 5.43 0 0 0 2.96.72 5.31 5.31 0 0 0 .08-3.02l.11.06.03.02.08.05a1.03 1.03 0 0 1 .12.06l.03.02.1.06v.01l.12.07.1.07.02.02.1.06v.01a6.01 6.01 0 0 1 .4.32 3.59 3.59 0 0 1 .46.48l.05.06.04.06a1.66 1.66 0 0 1 .06.1 1.27 1.27 0 0 1 .07.15l.01.02.02.04v.03l.01.03.01.03v.03l.01.03v.06l.01.04v.11c-.13.92-.82 1.59-.51 2.9M10.64 11.95l.05.05c-.72-.39-1.2-.1-1.76-.16H8.9a.4.4 0 0 1-.04-.02c-.14-.03-.28-.15-.4-.33l-.04-.05a2.37 2.37 0 0 1-.05-.08v-.01l-.02-.03-.01-.02-.02-.03-.01-.03-.01-.02a4.05 4.05 0 0 1-.3-.84c.27.15.55.27.79.34.29.08.64.11.99.1A3.19 3.19 0 0 0 9.82 9l.07.04h.02l.05.04a.62.62 0 0 1 .07.04h.02l.05.04.08.05.06.04.01.01.05.04h.01a3.6 3.6 0 0 1 .24.2 2.15 2.15 0 0 1 .28.28l.02.04.03.04a1 1 0 0 1 .04.05.76.76 0 0 1 .04.1v.01l.01.02v.02l.01.02v.02l.01.02v.05l.01.02v.07c-.08.55-.5.95-.3 1.74" id="Fill-583" fill="#9452BA"/>
            </g>
            <g id="Groups" transform="translate(172 113)">
                <path id="Shape" stroke="#375D81" stroke-width="2" fill="#FFF" fill-rule="nonzero" d="M57 33h21.96L91 18H69.04zM57 33H12.26L0 18h44.74z"/>
                <rect id="Rectangle-path" stroke="#9ACDED" fill="#FFF" fill-rule="nonzero" transform="rotate(-24.42 33.5 29)" x="17" y="5" width="33" height="48" rx="2.25"/>
                <path id="Shape" fill="#E1F2FF" fill-rule="nonzero" d="M28.56 52L55 41.99 38.47 5 12 15.75z"/>
                <circle id="Oval" fill="#FFF" fill-rule="nonzero" transform="rotate(-24.42 29 21)" cx="29" cy="21" r="6"/>
                <circle id="Oval" stroke="#9ACDED" fill="#FFF" fill-rule="nonzero" transform="rotate(-24.42 29 19)" cx="29" cy="19" r="6"/>
                <path d="M31.88 21.13l.12.13c-.95-1.68-.3-2.9-.5-4.2V17v-.09c-.16-.4-.45-.73-.81-.94l-.1-.07-.24-.1-.06-.03-.09-.07-.06-.03-.06-.03h-.05a9.19 9.19 0 0 0-1.96-.64c.34.58.62 1.2.83 1.85.22.76.32 1.56.3 2.35-.72.27-1.47.43-2.23.47-.66 0-1.32-.07-1.97-.22l.09.16v.05l.07.1.03.06.07.1.02.06.1.13.1.16.1.14.08.12.11.14a7.74 7.74 0 0 0 .95 1l.09.06.08.06.08.05.1.07.13.06.08.03H27.88c1.28-.23 2.17-1.24 4.01-.86" id="Fill-7" fill="#9ACDED" fill-rule="nonzero"/>
                <path id="Shape" fill="#9ACDED" fill-rule="nonzero" d="M29 34.37l-.98-.37-1 2.66-1.66-.62-.36.98 2.63.98v-.01z"/>
                <path d="M30 35l15-7" id="Shape" stroke="#9ACDED" stroke-width="2" fill="#FFF" fill-rule="nonzero" stroke-linecap="round" stroke-linejoin="round"/>
                <path id="Shape" fill="#9ACDED" fill-rule="nonzero" d="M30 38.37l-.98-.37-1 2.67-1.66-.63-.36.97 2.62.99h.02z"/>
                <path d="M33 39l15-7" id="Shape" stroke="#9ACDED" stroke-width="2" fill="#FFF" fill-rule="nonzero" stroke-linecap="round" stroke-linejoin="round"/>
                <path id="Shape" fill="#9ACDED" fill-rule="nonzero" d="M33 43.36l-.97-.36-1 2.67-1.67-.63-.36.97 2.63.99v-.01z"/>
                <path d="M35 44l15-7" id="Shape" stroke="#9ACDED" stroke-width="2" fill="#FFF" fill-rule="nonzero" stroke-linecap="round" stroke-linejoin="round"/>
                <rect id="Rectangle-path" stroke="#9ACDED" fill="#FFF" fill-rule="nonzero" transform="rotate(19.54 62 30.5)" x="45" y="6" width="34" height="49" rx="2.25"/>
                <path id="Shape" fill="#E1F2FF" fill-rule="nonzero" d="M43 44.38L69.37 56 83 17.1 56.1 6z"/>
                <circle id="Oval" fill="#FFF" fill-rule="nonzero" transform="rotate(-70.46 63.5 21.5)" cx="63.5" cy="21.5" r="6.5"/>
                <circle id="Oval" stroke="#9ACDED" stroke-width="2" fill="#FFF" fill-rule="nonzero" transform="rotate(-70.46 65.5 21.5)" cx="65.5" cy="21.5" r="6.5"/>
                <path d="M65.53 25.83V26c.41-1.8 1.58-2.17 2.27-3.25l.04-.05.04-.08c.14-.38.16-.8.04-1.2l-.03-.11c0-.08-.04-.15-.06-.23v-.29a9.46 9.46 0 0 0-.92-1.79 9.44 9.44 0 0 1-.6 1.84 7.33 7.33 0 0 1-1.26 1.81 6.9 6.9 0 0 1-2.99-2.7l-.03.17V20.67l-.03.18v1.08c0 .27.01.53.05.8V23.01l.03.12.05.12.03.08v.19l.03.04v.03l.03.03.04.04.06.05.03.03c1 .72 2.23.64 3.23 2.17" id="Fill-7-2" fill="#9452BA" fill-rule="nonzero"/>
                <path id="Shape" fill="#9ACDED" fill-rule="nonzero" d="M54 31.32l-.47-.95-2.73 1.24L50 30l-1 .45L50.28 33v-.01l.01.01z"/>
                <path d="M56 33l16 6" id="Shape" stroke="#9ACDED" stroke-width="2" fill="#FFF" fill-rule="nonzero" stroke-linecap="round" stroke-linejoin="round"/>
                <path id="Shape" fill="#9ACDED" fill-rule="nonzero" d="M53 35.32l-.47-.94-2.73 1.23L49 34l-1 .45L49.28 37v-.01.01z"/>
                <path d="M54 38l16 6" id="Shape" stroke="#9ACDED" stroke-width="2" fill="#FFF" fill-rule="nonzero" stroke-linecap="round" stroke-linejoin="round"/>
                <path id="Shape" fill="#9ACDED" fill-rule="nonzero" d="M51 40.32l-.47-.95-2.73 1.24L47 39l-1 .45L47.28 42z"/>
                <path d="M53 43l16 6" id="Shape" stroke="#9ACDED" stroke-width="2" fill="#FFF" fill-rule="nonzero" stroke-linecap="round" stroke-linejoin="round"/>
                <rect id="Rectangle-path" stroke="#9ACDED" fill="#FFF" fill-rule="nonzero" transform="rotate(19.84 53.5 36)" x="36" y="10" width="35" height="52" rx="2.25"/>
                <path id="Shape" fill="#E1F2FF" fill-rule="nonzero" d="M33 50.55L61.18 63 76 21.9 47.25 10z"/>
                <circle id="Oval" fill="#FFF" fill-rule="nonzero" transform="rotate(-70.16 56 27)" cx="56" cy="27" r="7"/>
                <circle id="Oval" stroke="#9ACDED" fill="#FFF" fill-rule="nonzero" transform="rotate(-70.16 58 27)" cx="58" cy="27" r="7"/>
                <path d="M59.17 30.83V31c.48-1.81 1.82-2.18 2.6-3.22l.04-.06.04-.07c.17-.38.2-.8.07-1.2l-.04-.12c0-.07-.04-.15-.07-.23v-.3a9.15 9.15 0 0 0-1.03-1.8 8.81 8.81 0 0 1-2.25 3.63 7.95 7.95 0 0 1-2.03-1.23c-.5-.45-.95-.96-1.34-1.5l-.04.16v.06l-.03.12V25.47l-.03.16-.03.18v.54a4.58 4.58 0 0 0 .02 1.31V27.95l.04.12c0 .04.03.09.05.12l.04.08v.12l.02.04v.03l.04.04v.03l.03.04.04.03.07.05.04.04c1.1.73 2.52.64 3.65 2.18" id="Fill-7-3" fill="#9ACDED" fill-rule="nonzero"/>
                <path id="Shape" fill="#9ACDED" fill-rule="nonzero" d="M46 36.34l-.47-.94-2.73 1.21L42 35l-1 .45L42.26 38h.01z"/>
                <path d="M48 38l16 6" id="Shape" stroke="#9ACDED" stroke-width="2" fill="#FFF" fill-rule="nonzero" stroke-linecap="round" stroke-linejoin="round"/>
                <path id="Shape" fill="#9ACDED" fill-rule="nonzero" d="M44 41.34l-.47-.95-2.73 1.22L40 40l-1 .44L40.26 43h.01z"/>
                <path d="M46 43l16 6" id="Shape" stroke="#9ACDED" stroke-width="2" fill="#FFF" fill-rule="nonzero" stroke-linecap="round" stroke-linejoin="round"/>
                <path id="Shape" fill="#9ACDED" fill-rule="nonzero" d="M42 46.34l-.47-.95-2.73 1.22L38 45l-1 .44L38.27 48z"/>
                <path d="M44 49l16 6" id="Shape" stroke="#9ACDED" stroke-width="2" fill="#FFF" fill-rule="nonzero" stroke-linecap="round" stroke-linejoin="round"/>
                <path d="M38 43l19 4M37 48l19 4" id="Shape" stroke="#9ACDED" stroke-width="2" stroke-linecap="round"/>
                <rect id="Rectangle-path" stroke="#9ACDED" fill="#FFF" fill-rule="nonzero" transform="rotate(21.58 33 47)" x="18" y="29" width="30" height="36" rx="2.25"/>
                <path id="Shape" fill="#E1F2FF" fill-rule="nonzero" d="M40.59 66L16 57.83 27.31 29 52 37.75z"/>
                <ellipse id="Oval" fill="#FFF" fill-rule="nonzero" transform="rotate(-68.42 35 42)" cx="35" cy="42" rx="5" ry="6"/>
                <ellipse id="Oval" stroke="#9ACDED" stroke-width="2" fill="#FFF" fill-rule="nonzero" transform="rotate(-68.42 36 41)" cx="36" cy="41" rx="5" ry="6"/>
                <path d="M36.05 42.88V43c.32-1.29 1.28-1.47 1.83-2.18v-.03l.04-.05c.1-.28.1-.6 0-.88l-.03-.09-.06-.17v-.22a7.74 7.74 0 0 0-.79-1.38 4.57 4.57 0 0 1-1.5 2.53 6.8 6.8 0 0 1-2.51-2.22l-.03.12v1.25c0 .2.02.4.05.58V40.48l.03.09.04.1.03.05v.13l.02.03.04.03.05.04h.03c.83.6 1.85.64 2.7 1.83" id="Fill-7-5" fill="#9ACDED" fill-rule="nonzero"/>
                <path id="Shape" fill="#9ACDED" fill-rule="nonzero" d="M26 47.13l-.4-.66-2.14.64-.68-1.11-.78.24L23.06 48h.01z"/>
                <path d="M28 49l14 6" id="Shape" stroke="#9ACDED" stroke-width="2" fill="#FFF" fill-rule="nonzero" stroke-linecap="round" stroke-linejoin="round"/>
                <path id="Shape" fill="#9ACDED" fill-rule="nonzero" d="M25 51.13l-.4-.66-2.14.64-.68-1.11-.78.23L22.06 52h.01z"/>
                <path d="M26 52l14 6" id="Shape" stroke="#9ACDED" stroke-width="2" fill="#FFF" fill-rule="nonzero" stroke-linecap="round" stroke-linejoin="round"/>
                <path id="Shape" fill="#9ACDED" fill-rule="nonzero" d="M24 54.12l-.4-.65-2.14.64-.68-1.11-.78.23L21.06 55h.01z"/>
                <path d="M25 57l14 6" id="Shape" stroke="#9ACDED" stroke-width="2" fill="#FFF" fill-rule="nonzero" stroke-linecap="round" stroke-linejoin="round"/>
                <path id="Rectangle-path" stroke="#375D81" stroke-width="2" fill="#FFF" fill-rule="nonzero" d="M34 33h45v49H34z"/>
                <path id="Shape" fill="#E1F2FF" fill-rule="nonzero" d="M78 61L34 40.46l.04-7.46H78z"/>
                <path id="Rectangle-path" stroke="#375D81" stroke-width="2" fill="#FFF" fill-rule="nonzero" d="M12 33h22v49H12z"/>
                <path id="Shape" fill="#E1F2FF" fill-rule="nonzero" d="M11.5 50L33 40.3l-.04-7.3H11z"/>
                <path id="Shape" stroke="#375D81" stroke-width="2" fill="#FFF" fill-rule="nonzero" d="M34 33H12.04L0 48h21.96zM35 33h44.74L92 48H47.25z"/>
                <path d="M17 62h11M17 65h11M17 69h11" id="Shape" stroke="#9ACDED" stroke-linecap="round"/>
                <path d="M86 45H75M12 45H5M77 79v-7" id="Shape" stroke="#E1F2FF" stroke-width="2" stroke-linecap="round"/>
            </g>
        </g>
    </g>
</svg>
