<?xml version="1.0" encoding="UTF-8"?>
<svg width="256px" height="256px" viewBox="0 0 256 256" version="1.1" xmlns="http://www.w3.org/2000/svg" xmlns:xlink="http://www.w3.org/1999/xlink">
    <!-- Generator: Sketch 46.2 (44496) - http://www.bohemiancoding.com/sketch -->
    <title>illustration-project</title>
    <desc>Created with Sketch.</desc>
    <defs></defs>
    <g id="256x256" stroke="none" stroke-width="1" fill="none" fill-rule="evenodd">
        <g id="illustration-project">
            <g id="Project" transform="translate(3.000000, 29.000000)">
                <path d="M20.2,196.56 C20.2000012,139.365392 66.5653922,93.0000022 123.76,93.0000022 C180.954608,93.0000022 227.319999,139.365392 227.32,196.56 L20.2,196.56 Z" id="Shape" fill="#E1F2FF" fill-rule="nonzero"></path>
                <path d="M175.94,186 L180.94,186 C182.656421,186.004453 184.200238,184.956722 184.83,183.36 C186.6,178.81 186.16,174.63 186.37,171.05 C186.76,164.42 185.73,161.05 184.74,155.49 L177.27,155.66 C177.27,155.66 177.91,158.41 178.33,166.66 C178.46,169.22 174.24,179.48 174.44,184.51 C174.461236,185.327818 175.122058,185.984235 175.94,186 Z" id="Shape" stroke="#52267D" stroke-width="2" fill="#9452BA" fill-rule="nonzero"></path>
                <path d="M161.44,162.36 L155.44,155.54 L151.73,155.69 C151.73,155.69 151.21,161.36 151,163.69 C150.329804,169.093456 149.266993,174.440932 147.82,179.69 C147.495612,180.750054 147.294287,181.843916 147.22,182.95 C147.203488,183.750597 147.514253,184.523291 148.080481,185.089519 C148.646709,185.655747 149.419403,185.966512 150.22,185.95 L154.63,185.95 C157.200301,185.962264 159.453775,184.235149 160.11,181.75 C162,174.07 161.44,162.36 161.44,162.36 Z" id="Shape" stroke="#52267D" stroke-width="2" fill="#9452BA" fill-rule="nonzero"></path>
                <polyline id="Shape" stroke="#52267D" stroke-width="0.5" points="152.99 167.06 152 167.93 152.95 168.79 154.49 168.19 154.18 167.51 152.9 167.82 152.91 168.05 153.24 168.03"></polyline>
                <path d="M153,137 C157.38,136.91 161.48,133.89 170.42,133.48 C170.529077,132.950956 170.693308,132.434803 170.91,131.94 C172.53,128.44 174.81,118.35 173.34,111.72 L172.18,106.47 C171.800332,104.749206 171.609205,102.99218 171.61,101.23 L171.61,101.23 C171.61112,100.51108 171.684827,99.7941106 171.83,99.09 C171.863333,98.9166667 171.903333,98.7466667 171.95,98.58 C172.079898,98.0749986 172.247022,97.580312 172.45,97.1 C172.516667,96.94 172.586667,96.7833333 172.66,96.63 C172.806667,96.3233333 172.97,96.0233333 173.15,95.73 C173.33,95.4366667 173.52,95.1533333 173.72,94.88 C174.332991,94.0604015 175.060402,93.3329906 175.88,92.72 C176.153333,92.5133333 176.436667,92.3233333 176.73,92.15 C178.393495,91.1391014 180.303434,90.6062562 182.25,90.61 L184,90.61 C186.822048,90.6075072 189.528593,91.7304355 191.52,93.73 C191.76,93.97 191.99,94.2233333 192.21,94.49 C192.606307,94.9617546 192.960968,95.4669796 193.27,96 C193.39,96.2 193.5,96.41 193.6,96.62 C193.7,96.83 193.75,96.93 193.81,97.09 C194.220793,98.0620305 194.483708,99.0900972 194.59,100.14 C194.62509,100.502254 194.641778,100.866055 194.64,101.23 L194.64,101.23 C194.64,102.693555 193.453555,103.88 191.99,103.88 L181.11,103.88 L182.76,113.33 C184.69,123.04 184.11,129.53 182.61,133.86 C182.28,134.86 180.37,138.25 180.37,138.25 C185.82,146.84 194.17,150.6 203.1,151.69 C210.69,152.62 227.1,145.69 218.63,137.69 C210.16,129.69 220.39,134.69 221.89,135.69 C223.39,136.69 232.08,144.21 222.65,155.23 C218.65,159.89 214.14,164.12 203.28,167.37 C201.54,167.89 192.03,168.58 186.9,170.05 C171.65,174.43 159.26,169.67 152.31,159.6 C145.36,149.53 151.3,137 153,137 Z" id="Shape" stroke="#52267D" stroke-width="2" fill="#9452BA" fill-rule="nonzero"></path>
                <path d="M162.48,122.5 C162.83,111.24 153.89,102.39 143.74,100.5 C141.63,100.11 140.95,99.5 138.64,99.5 L136.87,99.5 C130.91637,99.5 126.09,104.32637 126.09,110.28 C126.09,111.765646 127.294354,112.97 128.78,112.97 L147,112.97 C151,114.67 153.5,119.79 153.94,122.54 C154.610523,125.834469 154.200197,129.25736 152.77,132.3 C151.992344,134.03625 151.698645,135.950472 151.92,137.84 L152.02,137.84 C152.098491,138.890915 152.258979,139.93409 152.5,140.96 C154.21,139.77 156.86,137.96 157.34,137.73 C158.34,137.18 160.75,135.92 161.81,135.31 C168.56,131.43 162.29,128.91 162.48,122.5 Z" id="Shape" stroke="#52267D" stroke-width="2" fill="#9452BA" fill-rule="nonzero"></path>
                <path d="M156.71,135.51 C156.62,133.77 156.36,132.88 156.55,132.17 C157.67,128.1 158.04,126.81 158.04,122.5 C157.944966,118.100493 155.630707,114.047716 151.89,111.73 C150.160572,111.49658 148.406808,111.925199 146.98,112.93 C150.98,114.63 153.48,119.75 153.92,122.5 C154.590523,125.794469 154.180197,129.21736 152.75,132.26 C151.972344,133.99625 151.678645,135.910472 151.9,137.8 C151.9,137.8 156.82,139.65 156.71,135.51" id="Shape" stroke="#52267D" fill="#F3E3FF" fill-rule="nonzero"></path>
                <path d="M131.22,101.3 C131.27859,100.134186 132.008089,99.1082061 133.09,98.67 L134.7,98 C134.7,98 135.81,100.36 134.55,100.95 C133.519279,101.466996 132.335687,101.591397 131.22,101.3 L131.22,101.3 Z" id="Shape" stroke="#52267D" fill="#FFFFFF" fill-rule="nonzero"></path>
                <path d="M135.9,100 C135.968446,98.3952289 137.236939,97.1008486 138.84,97 C139.38,96.93 140.78,97 140.78,97 C140.78,97 141.43,99.71 139.91,100 C138.579583,100.182793 137.230417,100.182793 135.9,100 L135.9,100 Z" id="Shape" stroke="#52267D" fill="#FFFFFF" fill-rule="nonzero"></path>
                <path d="M141.64,100.23 C141.64,100.23 142.02,97.39 144.57,98.17 C145.238251,98.3814039 145.82949,98.7848376 146.27,99.33 C146.27,99.33 145.76,101.5 144.75,101.25 C143.686594,100.997709 142.646267,100.656509 141.64,100.23 Z" id="Shape" stroke="#52267D" fill="#FFFFFF" fill-rule="nonzero"></path>
                <path d="M149.05,114 C149.05,114 155.05,110.76 153.87,105.31 C155.188542,106.427036 156.415776,107.647582 157.54,108.96 C157.54,110.03 157.74,114.26 151.89,117.1 C151.010622,116.006979 150.062006,114.971518 149.05,114 L149.05,114 Z" id="Shape" stroke="#52267D" fill="#FFFFFF" fill-rule="nonzero"></path>
                <path d="M132,100.79 C132.030466,100.177158 132.424113,99.6417972 133,99.43 L133.83,99.09 C133.83,99.09 134.41,100.31 133.75,100.62 C133.207527,100.890313 132.584358,100.950849 132,100.79 Z" id="Shape" fill="#F3E3FF" fill-rule="nonzero"></path>
                <path d="M137.13,99.4 C137.179056,98.5927649 137.822765,97.9490561 138.63,97.9 C138.9,97.9 139.63,97.9 139.63,97.9 C139.63,97.9 139.96,99.28 139.18,99.42 C138.498965,99.5070721 137.809207,99.5003428 137.13,99.4 L137.13,99.4 Z" id="Shape" fill="#F3E3FF" fill-rule="nonzero"></path>
                <path d="M142.55,100 C142.55,100 142.75,98.49 144.11,98.91 C144.46451,99.0235276 144.777602,99.2392132 145.01,99.53 C145.01,99.53 144.74,100.68 144.2,100.53 C143.63615,100.399772 143.084216,100.222484 142.55,100 Z" id="Shape" fill="#F3E3FF" fill-rule="nonzero"></path>
                <path d="M140.54,106.17 L141,106.17 C142.369666,106.17 143.48,107.280334 143.48,108.65 L143.48,108.65 C143.48,110.019666 142.369666,111.13 141,111.13 L135.55,111.13 L135.55,111.13 C135.571931,108.388104 137.798022,106.175396 140.54,106.17 L140.54,106.17 Z" id="Shape" fill="#F3E3FF" fill-rule="nonzero" opacity="0.3"></path>
                <path d="M139.57,107.14 L140.57,107.14 C141.674569,107.14 142.57,108.035431 142.57,109.14 L142.57,109.14 C142.57,110.244569 141.674569,111.14 140.57,111.14 L135.68,111.14 L135.68,111.14 C135.68,110.105656 136.090892,109.113675 136.822284,108.382284 C137.553675,107.650892 138.545656,107.24 139.58,107.24 L139.57,107.14 Z" id="Shape" stroke="#52267D" fill="#FFFFFF" fill-rule="nonzero"></path>
                <circle id="Oval" fill="#52267D" fill-rule="nonzero" cx="137.65" cy="109.97" r="1.09"></circle>
                <path d="M128.53,112.12 L128.53,112.12 C128.838762,112.05159 129.114349,111.878465 129.31,111.63 L129.68,111.17 L128.87,111.34 L128.39,111.44 C128.300695,111.459083 128.222821,111.513288 128.173915,111.59041 C128.125009,111.667531 128.109183,111.761084 128.13,111.85 L128.13,111.85 C128.146931,111.939011 128.198691,112.017582 128.27379,112.068274 C128.34889,112.118966 128.441116,112.137585 128.53,112.12 Z" id="Shape" fill="#52267D" fill-rule="nonzero"></path>
                <path d="M150.06,114.14 C150.06,114.14 154.65,111.67 154.58,106.69 C155.555342,107.314766 156.406392,108.114957 157.09,109.05 C156.903181,110.336876 156.405482,111.558815 155.64,112.61 C153.94,114.46 152.18,115 150.06,114.14 Z" id="Shape" fill="#EAF3FB" fill-rule="nonzero"></path>
                <path d="M154.4,113.27 C153.339688,114.335318 152.138539,115.25048 150.83,115.99" id="Shape" stroke="#52267D" fill="#FFFFFF" fill-rule="nonzero"></path>
                <path d="M172.4,132.61 L171.4,130.61 C167.58,121.23 166.99,115.72 168.97,106.77 L170.13,101.52 C170.509668,99.799206 170.700795,98.0421802 170.7,96.28 L170.7,96.28 C170.702709,93.4459374 169.574654,90.7279028 167.565981,88.7286156 C165.557307,86.7293284 162.834019,85.6140171 160,85.63 L158.28,85.63 C152.486533,85.63 147.79,90.326533 147.79,96.12 L147.79,96.42 C147.79,97.8007119 148.909288,98.92 150.29,98.92 L161.2,98.92 L159.55,108.37 C154.55,133.7 155.01,143.97 164.94,141.86" id="Shape" stroke="#52267D" stroke-width="2" fill="#9452BA" fill-rule="nonzero"></path>
                <path d="M153.08,86.89 C153.240979,85.7357627 154.002328,84.7536221 155.08,84.31 C155.548572,84.1857691 156.041428,84.1857691 156.51,84.31 C156.51,84.31 157.57,85.96 156.33,86.55 C155.323476,87.0527867 154.168791,87.1735845 153.08,86.89 L153.08,86.89 Z" id="Shape" stroke="#52267D" fill="#FFFFFF" fill-rule="nonzero"></path>
                <path d="M157.44,86.28 C157.572097,84.5070782 158.995283,83.1052614 160.77,83 C161.23249,82.9604653 161.69751,82.9604653 162.16,83 C162.16,83 163.7,86 162,86.28 C160.487167,86.4887495 158.952833,86.4887495 157.44,86.28 L157.44,86.28 Z" id="Shape" stroke="#52267D" fill="#FFFFFF" fill-rule="nonzero"></path>
                <path d="M163.28,86.94 C163.28,86.94 163.72,84.16 166.21,84.99 C166.857128,85.2152937 167.42389,85.6255877 167.84,86.17 C167.84,86.17 167.29,88.28 166.3,88.01 C165.26517,87.7384539 164.254958,87.3805309 163.28,86.94 Z" id="Shape" stroke="#52267D" fill="#FFFFFF" fill-rule="nonzero"></path>
                <path d="M153.25,136.64 C153.782155,136.234884 154.391176,135.942282 155.04,135.78" id="Shape" stroke="#52267D" fill="#F3E3FF" fill-rule="nonzero"></path>
                <path d="M156.85,136.58 C155.07,129.36 158.28,115.58 158.85,112.15 L161.18,98.53 L162.18,98.53 C162.820721,98.5939917 163.407117,98.9180875 163.802177,99.4265614 C164.197237,99.9350352 164.366349,100.583341 164.27,101.22 L162.63,113 C162.06,117 161.46,135.51 168.41,139.49 C169.89,140.34 172.3,139.78 173.21,139.35 C176.51,137.77 177.46,133.65 178.21,130.35 C179.71,123.48 178.54,118.09 178.21,112.7 L177.86,105.96 C177.777986,104.689788 178.713967,103.581623 179.98,103.45 L181.22,103.45 L183.46,117.07 C184.13,120.95 185.86,134.39 177.94,140.7 C177.8,140.81 179.87,141.28 179.27,142.34 C176.89,146.55 169.98,147.22 168.68,149.02 C163.68,155.96 168.36,170.76 168.36,170.76 C165.117864,169.441131 162.085836,167.655604 159.36,165.46 C151.36,158.25 150.29,147.8 150.25,144.73 C150.25,141.05 151.17,138.73 152.36,137.41" id="Shape" stroke="#52267D" fill="#F3E3FF" fill-rule="nonzero"></path>
                <path d="M222.17,142.6 C222.868778,141.764854 223.060148,140.616634 222.67,139.6 C222.464118,139.192664 222.153474,138.847504 221.77,138.6 C221.77,138.6 219.99,138.91 220.36,140.11 C220.634514,141.135337 221.2794,142.0225 222.17,142.6 L222.17,142.6 Z" id="Shape" stroke="#52267D" fill="#FFFFFF" fill-rule="nonzero"></path>
                <path d="M221.79,140.84 C222.016259,140.559015 222.084078,140.182246 221.97,139.84 C221.8951,139.70049 221.784719,139.58321 221.65,139.5 C221.65,139.5 221.03,139.61 221.16,140.03 C221.268243,140.365668 221.491304,140.652461 221.79,140.84 L221.79,140.84 Z" id="Shape" fill="#F3E3FF" fill-rule="nonzero"></path>
                <path d="M212.81,151.67 C212.205846,150.11523 212.852979,148.353828 214.32,147.56 C214.693306,147.340289 215.084735,147.152939 215.49,147 C215.49,147 217.99,149 216.65,149.9 C215.45668,150.662306 214.164708,151.257825 212.81,151.67 Z" id="Shape" stroke="#52267D" fill="#FFFFFF" fill-rule="nonzero"></path>
                <path d="M213.71,150.74 C213.372259,149.876941 213.733052,148.897647 214.55,148.46 C214.757415,148.338291 214.974877,148.234579 215.2,148.15 C215.2,148.15 216.58,149.24 215.84,149.76 C215.178008,150.182263 214.461365,150.511986 213.71,150.74 Z" id="Shape" fill="#F3E3FF" fill-rule="nonzero"></path>
                <path d="M220.73,143.56 C220.73,143.56 222.61,145.21 220.81,146.69 C220.331514,147.073011 219.750525,147.306102 219.14,147.36 C219.14,147.36 217.81,145.94 218.48,145.36 C219.177709,144.697406 219.930412,144.095244 220.73,143.56 Z" id="Shape" stroke="#52267D" fill="#FFFFFF" fill-rule="nonzero"></path>
                <path d="M220.45,144.73 C220.45,144.73 221.28,145.46 220.45,146.12 C220.238286,146.290738 219.98084,146.395108 219.71,146.42 C219.71,146.42 219.12,145.79 219.42,145.52 C219.739985,145.227547 220.084595,144.963235 220.45,144.73 L220.45,144.73 Z" id="Shape" fill="#F3E3FF" fill-rule="nonzero"></path>
                <path d="M203.79,153 C203.453199,151.651636 204.25815,150.281885 205.6,149.92 C208.03,149.04 208.68,149.77 208.68,149.77 C208.68,149.77 210.02,152.03 208.82,152.77 C207.62,153.51 203.79,153 203.79,153 Z" id="Shape" stroke="#52267D" fill="#FFFFFF" fill-rule="nonzero"></path>
                <path d="M204.93,152.47 C204.758043,151.770068 205.174895,151.060533 205.87,150.87 C207.13,150.41 207.47,150.79 207.47,150.79 C207.47,150.79 208.17,151.96 207.54,152.34 C206.688157,152.562096 205.799697,152.606349 204.93,152.47 L204.93,152.47 Z" id="Shape" fill="#F3E3FF" fill-rule="nonzero"></path>
                <path d="M160.68,101.86 C163.624806,103.212131 166.99728,103.28812 170,102.07 C169.63,103.76 168.86,107.15 168.86,107.15 C168.86,107.15 163.86,108.7 159.92,106.25 C160.32,104 160.68,101.86 160.68,101.86 Z" id="Shape" stroke="#52267D" fill="#FFFFFF" fill-rule="nonzero"></path>
                <path d="M189.66,92 C189.501779,90.8399017 188.7407,89.8504994 187.66,89.4 C186.979281,89.2279518 186.281819,89.1307095 185.58,89.11 C185.58,89.11 185.15,91.11 186.4,91.66 C187.41041,92.1617201 188.567808,92.2824303 189.66,92 Z" id="Shape" stroke="#52267D" fill="#FFFFFF" fill-rule="nonzero"></path>
                <path d="M185,91.07 C184.906616,89.5086897 183.66131,88.2633842 182.1,88.17 C181.697399,88.1356174 181.292601,88.1356174 180.89,88.17 C180.89,88.17 179.55,90.83 181.05,91.09 C182.361446,91.2630451 183.690373,91.2563163 185,91.07 L185,91.07 Z" id="Shape" stroke="#52267D" fill="#FFFFFF" fill-rule="nonzero"></path>
                <path d="M179.58,91.25 C179.58,91.25 179.13,88.45 176.63,89.25 C175.977066,89.489933 175.409861,89.9179465 175,90.48 C175,90.48 175.56,92.6 176.55,92.34 C177.588656,92.061883 178.602197,91.6972757 179.58,91.25 L179.58,91.25 Z" id="Shape" stroke="#52267D" fill="#FFFFFF" fill-rule="nonzero"></path>
                <path d="M154,86.42 C154.079066,85.7778735 154.505959,85.2317589 155.11,85 C155.362233,84.9325346 155.627767,84.9325346 155.88,85 C155.88,85 156.45,85.88 155.78,86.19 C155.235888,86.4852741 154.601295,86.5672721 154,86.42 L154,86.42 Z" id="Shape" fill="#F3E3FF" fill-rule="nonzero"></path>
                <path d="M158.51,85.79 C158.578642,84.6653834 159.475383,83.7686422 160.6,83.7 C160.889473,83.6752682 161.180527,83.6752682 161.47,83.7 C161.47,83.7 162.47,85.61 161.36,85.8 C160.413993,85.9267108 159.455094,85.9233463 158.51,85.79 L158.51,85.79 Z" id="Shape" fill="#F3E3FF" fill-rule="nonzero"></path>
                <path d="M164.36,86.66 C164.36,86.66 164.62,85.06 166.05,85.54 C166.423638,85.6688115 166.750736,85.9054358 166.99,86.22 C166.99,86.22 166.67,87.44 166.1,87.28 C165.503643,87.1224828 164.921591,86.9150851 164.36,86.66 L164.36,86.66 Z" id="Shape" fill="#F3E3FF" fill-rule="nonzero"></path>
                <path d="M188.74,91.54 C188.65334,90.9251224 188.245572,90.4030263 187.67,90.17 C187.309884,90.0801216 186.941033,90.0298237 186.57,90.02 C186.57,90.02 186.34,91.02 187,91.37 C187.540135,91.6360023 188.158593,91.6964264 188.74,91.54 Z" id="Shape" fill="#F3E3FF" fill-rule="nonzero"></path>
                <path d="M183.87,90.62 C183.816224,89.7596027 183.130397,89.0737763 182.27,89.02 C182.047074,89.000928 181.822926,89.000928 181.6,89.02 C181.6,89.02 180.86,90.49 181.69,90.63 C182.413719,90.7261555 183.147194,90.7227909 183.87,90.62 Z" id="Shape" fill="#F3E3FF" fill-rule="nonzero"></path>
                <path d="M178.58,91.06 C178.58,91.06 178.34,89.53 177,90 C176.642814,90.1238449 176.329865,90.3498639 176.1,90.65 C176.1,90.65 176.4,91.81 176.95,91.65 C177.508612,91.4984232 178.053788,91.3010893 178.58,91.06 L178.58,91.06 Z" id="Shape" fill="#F3E3FF" fill-rule="nonzero"></path>
                <path d="M172.25,106.65 C175.367901,107.069286 178.534925,106.944094 181.61,106.28 C182.05,108.76 182.34,110.63 182.34,110.63 C182.34,110.63 179.18,112.78 173.34,111.53 C172.64,108.35 172.25,106.65 172.25,106.65 Z" id="Shape" stroke="#52267D" fill="#FFFFFF" fill-rule="nonzero"></path>
                <path d="M177.73,96.91 L183.18,96.91 C184.549666,96.91 185.66,98.0203338 185.66,99.39 L185.66,99.39 C185.66,100.759666 184.549666,101.87 183.18,101.87 L182.7,101.87 C179.938576,101.87 177.7,99.6314237 177.7,96.87 L177.7,96.87 L177.73,96.91 Z" id="Shape" fill="#F3E3FF" fill-rule="nonzero" opacity="0.3" transform="translate(181.680000, 99.370000) rotate(180.000000) translate(-181.680000, -99.370000) "></path>
                <path d="M178.69,97.84 L183.45,97.84 C184.604275,97.84 185.54,98.7757249 185.54,99.93 L185.54,99.93 C185.54,100.929635 184.729635,101.74 183.73,101.74 L182.6,101.74 C180.446089,101.74 178.7,99.9939105 178.7,97.84 L178.7,97.84 L178.69,97.84 Z" id="Shape" stroke="#52267D" fill="#FFFFFF" fill-rule="nonzero" transform="translate(182.115000, 99.790000) rotate(-180.000000) translate(-182.115000, -99.790000) "></path>
                <circle id="Oval" fill="#52267D" fill-rule="nonzero" cx="183.19" cy="99.5" r="1.09"></circle>
                <path d="M160.86,92.16 L161.34,92.16 C161.997737,92.16 162.628535,92.421285 163.093625,92.8863752 C163.558715,93.3514654 163.82,93.9822631 163.82,94.64 L163.82,94.64 C163.82,96.0096662 162.709666,97.12 161.34,97.12 L155.9,97.12 L155.9,97.12 C155.921756,94.3897301 158.12973,92.1817562 160.86,92.16 L160.86,92.16 Z" id="Shape" fill="#F3E3FF" fill-rule="nonzero" opacity="0.3"></path>
                <path d="M159.89,93.13 L160.89,93.13 C161.994569,93.13 162.89,94.0254305 162.89,95.13 L162.89,95.13 C162.89,96.2345695 161.994569,97.13 160.89,97.13 L156,97.13 L156,97.13 C156,94.9760895 157.746089,93.23 159.9,93.23 L159.89,93.13 Z" id="Shape" stroke="#52267D" fill="#FFFFFF" fill-rule="nonzero"></path>
                <circle id="Oval" fill="#52267D" fill-rule="nonzero" cx="160.65" cy="95.88" r="1.09"></circle>
                <path d="M192.19,103 L192.19,103 C191.881238,102.93159 191.605651,102.758465 191.41,102.51 L191,102 L191.81,102.17 L192.29,102.27 C192.379305,102.289083 192.457179,102.343288 192.506085,102.42041 C192.554991,102.497531 192.570817,102.591084 192.55,102.68 L192.55,102.68 C192.544849,102.770231 192.503985,102.854697 192.436436,102.914741 C192.368887,102.974784 192.280212,103.005463 192.19,103 Z" id="Shape" fill="#52267D" fill-rule="nonzero"></path>
                <path d="M150.18,97.87 L150.18,97.87 C150.488762,97.8015898 150.764349,97.628465 150.96,97.38 L151.33,96.92 L150.52,97.09 L150.04,97.19 C149.950695,97.2090828 149.872821,97.2632884 149.823915,97.3404096 C149.775009,97.4175308 149.759183,97.5110836 149.78,97.6 L149.78,97.6 C149.796931,97.6890108 149.848691,97.7675817 149.92379,97.8182738 C149.99889,97.8689658 150.091116,97.8875855 150.18,97.87 L150.18,97.87 Z" id="Shape" fill="#52267D" fill-rule="nonzero"></path>
                <path d="M161.14,102.56 C163.754794,103.565341 166.639983,103.618442 169.29,102.71 C169.08831,103.934237 168.817882,105.146153 168.48,106.34 C167.114081,106.417501 165.743829,106.357197 164.39,106.16 C162.06,105.7 161.14,104.65 161.14,102.56 Z" id="Shape" fill="#EAF3FB" fill-rule="nonzero"></path>
                <path d="M166.79,105.64 C164.544009,105.788438 162.295706,105.386832 160.24,104.47" id="Shape" stroke="#52267D" fill="#FFFFFF" fill-rule="nonzero"></path>
                <path d="M179.85,107.19 C177.640295,107.781315 175.332934,107.91404 173.07,107.58 C173.309597,108.635339 173.616899,109.674154 173.99,110.69 C173.99,110.69 178.76,110.05 179.85,107.19 Z" id="Shape" fill="#EAF3FB" fill-rule="nonzero"></path>
                <path d="M177.92,140.77 C177.92,140.77 177.7,140.93 177.39,141.11" id="Shape" stroke="#52267D" stroke-width="0.5" fill="#F3E3FF" fill-rule="nonzero"></path>
                <path d="M180.2,108.55 C177.731835,108.963884 175.218953,109.041255 172.73,108.78" id="Shape" stroke="#52267D" fill="#FFFFFF" fill-rule="nonzero"></path>
                <path d="M174.26,183.11 C173.548243,182.638124 172.599244,182.752512 172.02,183.38 C170.85,184.38 170.02,185.82 170.5,185.97 C171.284863,186.185939 172.107568,186.226904 172.91,186.09 C173.75,185.94 174.49,186.09 174.83,184.34 C174.917972,183.850876 174.690058,183.359061 174.26,183.11 L174.26,183.11 Z" id="Shape" stroke="#52267D" stroke-width="0.5" fill="#FFFFFF" fill-rule="nonzero"></path>
                <path d="M174,183.39 C173.557723,183.097909 172.968847,183.16993 172.61,183.56 C171.88,184.16 171.34,185.08 171.66,185.17 C172.148847,185.30286 172.660905,185.326756 173.16,185.24 C173.68,185.14 174.16,185.24 174.36,184.15 C174.412628,183.84605 174.268522,183.541827 174,183.39 L174,183.39 Z" id="Shape" fill="#EAF3FB" fill-rule="nonzero"></path>
                <path d="M175.63,183.09 C176.14,183.02 176.87,184.09 176.79,184.46 C176.71,184.83 176.65,185.91 175.79,186.03 C175.18,186.12 173.02,186.34 172.55,185.87 C172.08,185.4 173,183.44 175.63,183.09 Z" id="Shape" stroke="#52267D" stroke-width="0.5" fill="#FFFFFF" fill-rule="nonzero"></path>
                <path d="M175.77,183.39 C176.07,183.39 176.5,184 176.45,184.2 C176.4,184.4 176.37,185.05 175.88,185.12 C175.39,185.19 174.25,185.31 173.97,185.03 C173.69,184.75 174.22,183.6 175.77,183.39 Z" id="Shape" fill="#EAF3FB" fill-rule="nonzero"></path>
                <path d="M177.77,183.3 C177.77,183.3 177.33,183.07 176.46,183.57 C175.59,184.07 174.55,184.71 174.85,185.57 C175.15,186.43 177.58,186.12 178.11,185.93 C178.643936,185.740508 178.970239,185.200854 178.89,184.64 C178.796404,184.019134 178.364405,183.502278 177.77,183.3 L177.77,183.3 Z" id="Shape" stroke="#52267D" stroke-width="0.5" fill="#FFFFFF" fill-rule="nonzero"></path>
                <path d="M177.94,183.61 C177.94,183.61 177.68,183.47 177.17,183.77 C176.66,184.07 176.04,184.45 176.17,184.96 C176.3,185.47 177.78,185.28 178.1,185.18 C178.412458,185.065731 178.603668,184.749819 178.56,184.42 C178.516929,184.056969 178.279189,183.746373 177.94,183.61 Z" id="Shape" fill="#EAF3FB" fill-rule="nonzero"></path>
                <path d="M167.64,155.49 C167.873015,160.326303 167.561052,165.173468 166.71,169.94 C165.38,178.16 163.02,180.74 163.2,182.87 C163.33,184.52 164.03,186.03 165.69,186.03 L170.63,186.03 C172.93296,186.025512 174.976658,184.553084 175.71,182.37 C176.484109,180.037329 177.016897,177.631404 177.3,175.19 C177.58516,171.640886 177.661958,168.078105 177.53,164.52" id="Shape" stroke="#52267D" stroke-width="2" fill="#9452BA" fill-rule="nonzero"></path>
                <path d="M193,159.21 C191.387745,160.701302 190.479897,162.80388 190.5,165 C190.5,167.83 192.16,171.43 191.12,176.13 C190.19,180.32 188.35,181.06 188.9,184.82 C189.013569,185.502292 189.608384,185.999387 190.3,185.99 L195.81,185.99 C198.348343,185.990038 200.514279,184.154069 200.93,181.65 C201.756362,175.72182 201.543172,169.694973 200.3,163.84" id="Shape" stroke="#52267D" stroke-width="2" fill="#9452BA" fill-rule="nonzero"></path>
                <polyline id="Shape" stroke="#52267D" stroke-width="0.5" points="194.05 165.44 194.37 165.21 195.42 165.44 194.26 166.19 192.86 165.5 194.31 164.34 194.97 164.56"></polyline>
                <path d="M164.27,183.11 C163.558243,182.638124 162.609244,182.752512 162.03,183.38 C160.86,184.38 160.03,185.82 160.51,185.97 C161.294863,186.185939 162.117568,186.226904 162.92,186.09 C163.76,185.94 164.5,186.09 164.84,184.34 C164.927972,183.850876 164.700058,183.359061 164.27,183.11 L164.27,183.11 Z" id="Shape" stroke="#52267D" fill="#FFFFFF" fill-rule="nonzero"></path>
                <path d="M164,183.39 C163.557723,183.097909 162.968847,183.16993 162.61,183.56 C161.88,184.16 161.34,185.08 161.66,185.17 C162.148847,185.30286 162.660905,185.326756 163.16,185.24 C163.68,185.14 164.16,185.24 164.36,184.15 C164.412628,183.84605 164.268522,183.541827 164,183.39 L164,183.39 Z" id="Shape" fill="#EAF3FB" fill-rule="nonzero"></path>
                <polyline id="Shape" stroke="#52267D" stroke-width="0.5" points="171.82 168.55 169.86 169.16 170.12 170.98 172.13 171.13 173.07 170.05 171.86 169.38 170.87 169.67 171.5 170.37"></polyline>
                <g id="Group" opacity="0.3" transform="translate(128.000000, 93.000000)" stroke="#F3E3FF" stroke-width="0.25">
                    <path d="M1.65,15.52 C1.62141424,15.7286 1.71667985,15.9347926 1.89405584,16.0482336 C2.07143184,16.1616747 2.29856816,16.1616747 2.47594416,16.0482336 C2.65332015,15.9347926 2.74858576,15.7286 2.72,15.52" id="Shape"></path>
                    <path d="M0.58,15.52 C0.551414237,15.7286 0.646679852,15.9347926 0.824055845,16.0482336 C1.00143184,16.1616747 1.22856816,16.1616747 1.40594416,16.0482336 C1.58332015,15.9347926 1.67858576,15.7286 1.65,15.52" id="Shape"></path>
                    <path d="M1.12,16.05 C1.15664397,16.3174035 1.38509738,16.5166856 1.655,16.5166856 C1.92490262,16.5166856 2.15335603,16.3174035 2.19,16.05" id="Shape"></path>
                    <path d="M22.18,15 C22.5471707,15.1937117 23.0016337,15.0701917 23.2202335,14.7172715 C23.4388333,14.3643513 23.3469853,13.9024447 23.01,13.66" id="Shape"></path>
                    <path d="M22.44,16.1 C22.6796938,16.2724481 22.9955506,16.296827 23.258868,16.1632029 C23.5221855,16.0295789 23.6890018,15.760261 23.6913443,15.4649883 C23.6936867,15.1697155 23.5311643,14.8977849 23.27,14.76" id="Shape"></path>
                    <path d="M47.61,33 C47.61,33.397645 47.932355,33.72 48.33,33.72 C48.727645,33.72 49.05,33.397645 49.05,33" id="Shape"></path>
                    <path d="M46.17,33 C46.17,33.397645 46.492355,33.72 46.89,33.72 C47.287645,33.72 47.61,33.397645 47.61,33" id="Shape"></path>
                    <path d="M46.89,33.73 C46.89,34.127645 47.212355,34.45 47.61,34.45 C48.007645,34.45 48.33,34.127645 48.33,33.73" id="Shape"></path>
                    <path d="M26.15,78.54 C26.15,78.937645 26.472355,79.26 26.87,79.26 C27.267645,79.26 27.59,78.937645 27.59,78.54" id="Shape"></path>
                    <path d="M24.71,78.54 C24.71,78.937645 25.032355,79.26 25.43,79.26 C25.827645,79.26 26.15,78.937645 26.15,78.54" id="Shape"></path>
                    <path d="M25.43,79.26 C25.43,79.657645 25.752355,79.98 26.15,79.98 C26.547645,79.98 26.87,79.657645 26.87,79.26" id="Shape"></path>
                    <path d="M46.5,10.11 C46.5,10.546305 46.853695,10.9 47.29,10.9 C47.726305,10.9 48.08,10.546305 48.08,10.11" id="Shape"></path>
                    <path d="M45.71,10.9 C45.71,11.336305 46.063695,11.69 46.5,11.69 C46.936305,11.69 47.29,11.336305 47.29,10.9" id="Shape"></path>
                    <path d="M36.4,24.06 C36.2807821,24.4687471 36.4334561,24.908158 36.7804334,25.1549248 C37.1274106,25.4016917 37.5925894,25.4016917 37.9395666,25.1549248 C38.2865439,24.908158 38.4392179,24.4687471 38.32,24.06" id="Shape"></path>
                    <path d="M35.44,25 C35.5644444,25.4266667 35.9555556,25.72 36.4,25.72 C36.8444444,25.72 37.2355556,25.4266667 37.36,25" id="Shape"></path>
                    <path d="M22.47,0.2 C22.47,0.55346224 22.7565378,0.84 23.11,0.84 C23.4634622,0.84 23.75,0.55346224 23.75,0.2" id="Shape"></path>
                    <path d="M21.82,0.84 C21.82,1.19346224 22.1065378,1.48 22.46,1.48 C22.8134622,1.48 23.1,1.19346224 23.1,0.84" id="Shape"></path>
                    <path d="M82.87,64.9 C83.0486328,65.1018551 83.3213847,65.1930774 83.5855127,65.1393044 C83.8496407,65.0855314 84.0650175,64.8949325 84.1505127,64.6393044 C84.2360079,64.3836763 84.1786328,64.1018551 84,63.9" id="Shape"></path>
                    <path d="M82.78,65.94 C82.9586328,66.1418551 83.2313847,66.2330774 83.4955127,66.1793044 C83.7596407,66.1255313 83.9750175,65.9349324 84.0605127,65.6793044 C84.1460079,65.4236763 84.0886328,65.1418551 83.91,64.94" id="Shape"></path>
                    <path d="M53.5,54.7 C53.6150206,55.0032641 53.889189,55.2173664 54.2112885,55.2554558 C54.5333879,55.2935453 54.8499326,55.149297 55.0325157,54.8812257 C55.2150989,54.6131543 55.2334018,54.2657739 55.08,53.98" id="Shape"></path>
                    <path d="M51.92,55.42 C52.1368651,55.8240004 52.6300598,55.9903371 53.0473061,55.8001995 C53.4645525,55.6100619 53.6626053,55.1287264 53.5,54.7" id="Shape"></path>
                    <path d="M53.07,55.85 C53.2868651,56.2540004 53.7800598,56.4203371 54.1973061,56.2301995 C54.6145525,56.0400619 54.8126053,55.5587264 54.65,55.13" id="Shape"></path>
                    <path d="M51.5,56.57 C51.6150206,56.8732641 51.889189,57.0873664 52.2112885,57.1254558 C52.5333879,57.1635453 52.8499326,57.019297 53.0325157,56.7512257 C53.2150989,56.4831543 53.2334018,56.1357739 53.08,55.85" id="Shape"></path>
                    <path d="M54.22,56.28 C54.4368651,56.6840004 54.9300598,56.8503371 55.3473061,56.6601995 C55.7645525,56.4700619 55.9626053,55.9887264 55.8,55.56" id="Shape"></path>
                    <path d="M38.41,6.69 C38.41,7.17324916 38.8017508,7.565 39.285,7.565 C39.7682492,7.565 40.16,7.17324916 40.16,6.69" id="Shape"></path>
                    <path d="M38.11,39.74 C38.11,40.2232492 38.5017508,40.615 38.985,40.615 C39.4682492,40.615 39.86,40.2232492 39.86,39.74" id="Shape"></path>
                    <path d="M48,21.52 C48,21.8872694 48.2977306,22.185 48.665,22.185 C49.0322694,22.185 49.33,21.8872694 49.33,21.52" id="Shape"></path>
                    <path d="M63.8,6.46 C63.8,6.73614237 64.0238576,6.96 64.3,6.96 C64.5761424,6.96 64.8,6.73614237 64.8,6.46" id="Shape"></path>
                    <path d="M67.93,79.56 C68.0128427,80.0349649 68.4650351,80.3528427 68.94,80.27 C69.4149649,80.1871573 69.7328427,79.7349649 69.65,79.26" id="Shape"></path>
                    <path d="M43.77,86 C43.8944444,86.4266667 44.2855556,86.72 44.73,86.72 C45.1744444,86.72 45.5655556,86.4266667 45.69,86" id="Shape"></path>
                    <path d="M42.81,87 C42.9344444,87.4266667 43.3255556,87.72 43.77,87.72 C44.2144444,87.72 44.6055556,87.4266667 44.73,87" id="Shape"></path>
                </g>
                <path d="M165.63,183.09 C166.14,183.02 166.87,184.09 166.79,184.46 C166.71,184.83 166.65,185.91 165.79,186.03 C165.18,186.12 163.02,186.34 162.55,185.87 C162.08,185.4 163,183.44 165.63,183.09 Z" id="Shape" stroke="#52267D" fill="#FFFFFF" fill-rule="nonzero"></path>
                <path d="M165.77,183.39 C166.07,183.39 166.5,184 166.45,184.2 C166.4,184.4 166.37,185.05 165.88,185.12 C165.39,185.19 164.25,185.31 163.97,185.03 C163.69,184.75 164.22,183.6 165.77,183.39 Z" id="Shape" fill="#EAF3FB" fill-rule="nonzero"></path>
                <path d="M167.44,183.63 C167.44,183.63 167.05,183.43 166.28,183.87 C165.51,184.31 164.59,184.87 164.86,185.65 C165.13,186.43 167.27,186.13 167.75,185.97 C168.222554,185.803324 168.511483,185.325963 168.44,184.83 C168.359855,184.273328 167.973094,183.809215 167.44,183.63 Z" id="Shape" stroke="#52267D" fill="#FFFFFF" fill-rule="nonzero"></path>
                <path d="M167.58,183.9 C167.58,183.9 167.35,183.78 166.9,184.04 C166.45,184.3 165.9,184.64 166.06,185.09 C166.22,185.54 167.49,185.38 167.77,185.28 C168.048753,185.182765 168.220281,184.902464 168.18,184.61 C168.131513,184.27839 167.89888,184.003108 167.58,183.9 L167.58,183.9 Z" id="Shape" fill="#EAF3FB" fill-rule="nonzero"></path>
                <path d="M147.16,183.84 C147.16,183.84 146.77,183.64 146,184.08 C145.23,184.52 144.31,185.08 144.58,185.86 C144.85,186.64 146.99,186.34 147.47,186.18 C147.942554,186.013324 148.231483,185.535963 148.16,185.04 C148.079855,184.483328 147.693094,184.019215 147.16,183.84 L147.16,183.84 Z" id="Shape" stroke="#52267D" fill="#FFFFFF" fill-rule="nonzero"></path>
                <path d="M147.3,184.12 C147.3,184.12 147.07,184 146.62,184.26 C146.17,184.52 145.62,184.86 145.78,185.31 C145.94,185.76 147.21,185.6 147.49,185.5 C147.768753,185.402765 147.940281,185.122464 147.9,184.83 C147.851513,184.49839 147.61888,184.223108 147.3,184.12 L147.3,184.12 Z" id="Shape" fill="#EAF3FB" fill-rule="nonzero"></path>
                <path d="M149.5,183.3 C150.01,183.23 150.74,184.3 150.66,184.67 C150.58,185.04 150.52,186.12 149.66,186.24 C149.05,186.33 146.89,186.55 146.42,186.08 C145.95,185.61 146.87,183.65 149.5,183.3 Z" id="Shape" stroke="#52267D" fill="#FFFFFF" fill-rule="nonzero"></path>
                <path d="M149.64,183.61 C149.94,183.61 150.37,184.22 150.32,184.42 C150.27,184.62 150.24,185.27 149.75,185.34 C149.26,185.41 148.12,185.53 147.84,185.25 C147.56,184.97 148.09,183.82 149.64,183.61 Z" id="Shape" fill="#EAF3FB" fill-rule="nonzero"></path>
                <path d="M191,183.11 C190.288243,182.638124 189.339244,182.752512 188.76,183.38 C187.59,184.38 186.76,185.82 187.24,185.97 C188.024863,186.185939 188.847568,186.226904 189.65,186.09 C190.49,185.94 191.23,186.09 191.57,184.34 C191.657972,183.850876 191.430058,183.359061 191,183.11 L191,183.11 Z" id="Shape" stroke="#52267D" stroke-width="0.5" fill="#FFFFFF" fill-rule="nonzero"></path>
                <path d="M190.78,183.39 C190.337723,183.097909 189.748847,183.16993 189.39,183.56 C188.66,184.16 188.12,185.08 188.44,185.17 C188.928847,185.30286 189.440905,185.326756 189.94,185.24 C190.46,185.14 190.94,185.24 191.14,184.15 C191.192628,183.84605 191.048522,183.541827 190.78,183.39 L190.78,183.39 Z" id="Shape" fill="#EAF3FB" fill-rule="nonzero"></path>
                <path d="M192.36,183.09 C192.87,183.02 193.6,184.09 193.52,184.46 C193.44,184.83 193.38,185.91 192.52,186.03 C191.91,186.12 189.75,186.34 189.28,185.87 C188.81,185.4 189.73,183.44 192.36,183.09 Z" id="Shape" stroke="#52267D" stroke-width="0.5" fill="#FFFFFF" fill-rule="nonzero"></path>
                <path d="M192.5,183.39 C192.8,183.39 193.23,184 193.18,184.2 C193.13,184.4 193.1,185.05 192.61,185.12 C192.12,185.19 190.98,185.31 190.7,185.03 C190.42,184.75 191,183.6 192.5,183.39 Z" id="Shape" fill="#EAF3FB" fill-rule="nonzero"></path>
                <path d="M194.17,183.63 C194.17,183.63 193.78,183.43 193.01,183.87 C192.24,184.31 191.32,184.87 191.59,185.65 C191.86,186.43 194,186.13 194.48,185.97 C194.952554,185.803324 195.241483,185.325963 195.17,184.83 C195.089855,184.273328 194.703094,183.809215 194.17,183.63 Z" id="Shape" stroke="#52267D" stroke-width="0.5" fill="#FFFFFF" fill-rule="nonzero"></path>
                <path d="M194.31,183.9 C194.31,183.9 194.08,183.78 193.63,184.04 C193.18,184.3 192.63,184.64 192.79,185.09 C192.95,185.54 194.22,185.38 194.5,185.28 C194.778753,185.182765 194.950281,184.902464 194.91,184.61 C194.861513,184.27839 194.62888,184.003108 194.31,183.9 L194.31,183.9 Z" id="Shape" fill="#EAF3FB" fill-rule="nonzero"></path>
                <path d="M156.17,183.78 C156.304432,183.647159 156.505356,183.607762 156.68,183.68 C157.26,183.96 158.74,184.74 158.43,185.8 C158.19,186.62 157.69,186.38 156.73,186.39 L156,186.39 C155.847156,186.394472 155.704524,186.313519 155.63,186.18 L155.63,186.18 C155.242596,185.3696 155.442993,184.400332 156.12,183.81 L156.17,183.78 Z" id="Shape" stroke="#52267D" fill="#FFFFFF" fill-rule="nonzero"></path>
                <path d="M156.25,184 C156.347971,183.904263 156.493826,183.876669 156.62,183.93 C157.04,184.13 158.11,184.7 157.89,185.47 C157.72,186.07 157.35,185.89 156.65,185.9 L156.12,185.9 C156.009197,185.90373 155.90537,185.846048 155.85,185.75 L155.85,185.75 C155.563379,185.163602 155.70701,184.457756 156.2,184.03 L156.25,184 Z" id="Shape" fill="#EAF3FB" fill-rule="nonzero"></path>
                <path d="M152.76,183.46 C152.091476,182.932477 151.139371,182.966329 150.51,183.54 C149.27,184.4 148.27,185.8 148.77,185.99 C149.533666,186.270216 150.349517,186.379452 151.16,186.31 C152.01,186.23 152.74,186.45 153.22,184.73 C153.348086,184.252093 153.164425,183.745029 152.76,183.46 Z" id="Shape" stroke="#52267D" fill="#FFFFFF" fill-rule="nonzero"></path>
                <path d="M152.52,183.73 C152.116514,183.386581 151.523486,183.386581 151.12,183.73 C150.35,184.26 149.72,185.13 150.04,185.25 C150.516006,185.425065 151.024678,185.493344 151.53,185.45 C152.06,185.4 152.53,185.54 152.81,184.45 C152.859511,184.174235 152.746825,183.894463 152.52,183.73 L152.52,183.73 Z" id="Shape" fill="#EAF3FB" fill-rule="nonzero"></path>
                <path d="M16.98,187.56 L52.98,187.56" id="Shape" stroke="#375D81" stroke-width="2" fill="#FFFFFF" fill-rule="nonzero" stroke-linecap="round" stroke-linejoin="round"></path>
                <path d="M62.32,187.56 L236.32,187.56" id="Shape" stroke="#375D81" stroke-width="2" fill="#FFFFFF" fill-rule="nonzero" stroke-linecap="round" stroke-linejoin="round"></path>
                <rect id="Rectangle-path" stroke="#9ACDED" stroke-width="2" fill="#FFFFFF" fill-rule="nonzero" x="38.8" y="42.02" width="170.54" height="129.3"></rect>
                <polygon id="Shape" fill="#EFEFF6" fill-rule="nonzero" points="197.24 151.26 50.22 159.69 50.22 58.64 198.95 53.02"></polygon>
                <path d="M176.07,0 L176.07,7" id="Shape" stroke="#375D81" stroke-width="2" stroke-linecap="round" stroke-linejoin="round"></path>
                <path d="M179.57,3.5 L172.57,3.5" id="Shape" stroke="#375D81" stroke-width="2" stroke-linecap="round" stroke-linejoin="round"></path>
                <path d="M19.17,140.64 L19.17,144.57" id="Shape" stroke="#375D81" stroke-linecap="round"></path>
                <path d="M21.14,142.6 L17.2,142.6" id="Shape" stroke="#375D81" stroke-linecap="round"></path>
                <path d="M238.29,173.84 L238.29,177.78" id="Shape" stroke="#375D81" stroke-linecap="round" stroke-linejoin="round"></path>
                <path d="M240.26,175.81 L236.32,175.81" id="Shape" stroke="#375D81" stroke-linecap="round" stroke-linejoin="round"></path>
                <path d="M232.34,73.83 L232.34,77.77" id="Shape" stroke="#375D81" stroke-linecap="round"></path>
                <path d="M234.31,75.8 L230.37,75.8" id="Shape" stroke="#375D81" stroke-linecap="round"></path>
                <path d="M243.17,187.32 L250.14,187.32" id="Shape" stroke="#375D81" stroke-width="2" fill="#FFFFFF" fill-rule="nonzero" stroke-linecap="round" stroke-linejoin="round"></path>
                <path d="M0,187.32 L8.97,187.32" id="Shape" stroke="#375D81" stroke-width="2" fill="#FFFFFF" fill-rule="nonzero" stroke-linecap="round" stroke-linejoin="round"></path>
                <path d="M13.04,71.74 L13.04,79.86" id="Shape" stroke="#375D81" stroke-width="2" fill="#FFFFFF" fill-rule="nonzero" stroke-linecap="round"></path>
                <path d="M17.1,75.8 L8.97,75.8" id="Shape" stroke="#375D81" stroke-width="2" fill="#FFFFFF" fill-rule="nonzero" stroke-linecap="round"></path>
                <path d="M92.38,196.64 L159.57,196.64" id="Shape" stroke="#375D81" stroke-width="2" fill="#FFFFFF" fill-rule="nonzero" stroke-linecap="round" stroke-linejoin="round"></path>
                <path d="M168.19,196.64 L177.33,196.64" id="Shape" stroke="#375D81" stroke-width="2" fill="#FFFFFF" fill-rule="nonzero" stroke-linecap="round" stroke-linejoin="round"></path>
                <path d="M84.5,196.56 L79.5,196.64" id="Shape" stroke="#375D81" stroke-width="2" fill="#FFFFFF" fill-rule="nonzero" stroke-linecap="round" stroke-linejoin="round"></path>
                <rect id="Rectangle-path" stroke="#375D81" stroke-width="2" fill="#FFFFFF" fill-rule="nonzero" stroke-linecap="round" stroke-linejoin="round" x="60.88" y="73.86" width="19.88" height="69.9" rx="9.1"></rect>
                <rect id="Rectangle-path" stroke="#375D81" stroke-width="2" fill="#FFFFFF" fill-rule="nonzero" stroke-linecap="round" stroke-linejoin="round" x="87.05" y="73.86" width="19.88" height="69.9" rx="9.1"></rect>
                <rect id="Rectangle-path" stroke="#375D81" stroke-width="2" fill="#FFFFFF" fill-rule="nonzero" stroke-linecap="round" stroke-linejoin="round" x="113.22" y="73.86" width="19.88" height="69.9" rx="9.1"></rect>
                <rect id="Rectangle-path" fill="#67B373" fill-rule="nonzero" x="116.95" y="100.1" width="12.54" height="40.09" rx="5.74"></rect>
                <rect id="Rectangle-path" fill="#F9B53F" fill-rule="nonzero" x="90.72" y="110.69" width="12.54" height="29.5" rx="5.74"></rect>
                <rect id="Rectangle-path" fill="#D4604F" fill-rule="nonzero" x="64.55" y="84.83" width="12.54" height="55.36" rx="5.74"></rect>
                <rect id="Rectangle-path" fill="#D4604F" fill-rule="nonzero" x="158.01" y="114.5" width="8.03" height="8.03" rx="1"></rect>
                <rect id="Rectangle-path" fill="#F9B53F" fill-rule="nonzero" x="158.01" y="124.9" width="8.03" height="8.03" rx="1"></rect>
                <rect id="Rectangle-path" fill="#67B373" fill-rule="nonzero" x="158.01" y="135.3" width="8.03" height="8.03" rx="1"></rect>
                <path d="M169.62,118.33 L187.75,118.33" id="Shape" stroke="#375D81" stroke-width="2" fill="#FFFFFF" fill-rule="nonzero" stroke-linecap="round"></path>
                <path d="M158.43,96.03 L187.75,96.03" id="Shape" stroke="#375D81" stroke-width="2" fill="#FFFFFF" fill-rule="nonzero" stroke-linecap="round"></path>
                <path d="M158.43,90.51 L187.75,90.51" id="Shape" stroke="#375D81" stroke-width="2" fill="#FFFFFF" fill-rule="nonzero" stroke-linecap="round"></path>
                <rect id="Rectangle-path" stroke="#375D81" stroke-width="2" stroke-linecap="round" stroke-linejoin="round" x="32.4" y="33.77" width="183.33" height="8.25" rx="3.77"></rect>
                <path d="M169.62,128.73 L187.75,128.73" id="Shape" stroke="#375D81" stroke-width="2" fill="#FFFFFF" fill-rule="nonzero" stroke-linecap="round"></path>
                <path d="M169.62,139.31 L187.75,139.31" id="Shape" stroke="#375D81" stroke-width="2" fill="#FFFFFF" fill-rule="nonzero" stroke-linecap="round"></path>
                <path d="M32.4,171.54 L215.74,171.54" id="Shape" stroke="#375D81" stroke-width="2" fill="#FFFFFF" fill-rule="nonzero" stroke-linecap="round"></path>
                <path d="M208.17,37.9 L141.58,37.9" id="Shape" stroke="#E1F2FF" stroke-width="2" fill="#FFFFFF" fill-rule="nonzero" stroke-linecap="round"></path>
                <path d="M38.46,37.9 L60.88,37.9" id="Shape" stroke="#E1F2FF" stroke-width="2" fill="#FFFFFF" fill-rule="nonzero" stroke-linecap="round"></path>
                <path d="M121.07,172.62 L121.07,179" id="Shape" stroke="#375D81" stroke-width="2"></path>
                <circle id="Oval" stroke="#375D81" stroke-width="2" fill="#FFFFFF" fill-rule="nonzero" cx="121.07" cy="179" r="1.92"></circle>
            </g>
        </g>
    </g>
</svg>