<?xml version="1.0" encoding="UTF-8"?>
<svg width="256px" height="256px" viewBox="0 0 256 256" version="1.1" xmlns="http://www.w3.org/2000/svg" xmlns:xlink="http://www.w3.org/1999/xlink">
    <!-- Generator: Sketch 46.2 (44496) - http://www.bohemiancoding.com/sketch -->
    <title>illustration-draft</title>
    <desc>Created with Sketch.</desc>
    <defs></defs>
    <g id="256x256" stroke="none" stroke-width="1" fill="none" fill-rule="evenodd">
        <g id="illustration-draft">
            <g id="Draft" transform="translate(24.000000, 46.000000)">
                <path d="M223.53,185.29 L230.5,185.29" id="Shape" stroke="#375D81" stroke-width="2" fill="#FFFFFF" fill-rule="nonzero" stroke-linecap="round" stroke-linejoin="round"></path>
                <path d="M20.2,194.53 C20.2000012,137.335392 66.5653922,90.9700022 123.76,90.9700022 C180.954608,90.9700022 227.319999,137.335392 227.32,194.53 L20.2,194.53 Z" id="Shape" fill="#E1F2FF" fill-rule="nonzero"></path>
                <path d="M162.22,185.16 L167.22,185.16 C168.936421,185.164453 170.480238,184.116722 171.11,182.52 C172.88,177.97 172.44,173.79 172.65,170.21 C173.04,163.58 172.01,160.21 171.02,154.65 L163.55,154.82 C163.55,154.82 164.19,157.57 164.61,165.82 C164.74,168.38 160.52,178.64 160.72,183.67 C160.741236,184.487818 161.402058,185.144235 162.22,185.16 Z" id="Shape" stroke="#52267D" fill="#9452BA" fill-rule="nonzero"></path>
                <path d="M147.73,161.49 L141.73,154.67 L138.02,154.82 C138.02,154.82 137.5,160.49 137.29,162.82 C136.619804,168.223456 135.556993,173.570932 134.11,178.82 C133.785612,179.880054 133.584287,180.973916 133.51,182.08 C133.493488,182.880597 133.804253,183.653291 134.370481,184.219519 C134.936709,184.785747 135.709403,185.096512 136.51,185.08 L140.92,185.08 C143.490301,185.092264 145.743775,183.365149 146.4,180.88 C148.32,173.2 147.73,161.49 147.73,161.49 Z" id="Shape" stroke="#52267D" fill="#9452BA" fill-rule="nonzero"></path>
                <polyline id="Shape" stroke="#52267D" stroke-width="0.25" points="139.28 166.19 138.28 167.06 139.23 167.92 140.78 167.32 140.47 166.64 139.19 166.95 139.2 167.18 139.53 167.16"></polyline>
                <path d="M139.31,136.1 C143.69,136.01 147.79,132.99 156.73,132.58 C156.839077,132.050956 157.003308,131.534803 157.22,131.04 C158.84,127.54 161.12,117.45 159.65,110.82 L158.49,105.57 C158.110332,103.849206 157.919205,102.09218 157.92,100.33 L157.92,100.33 C157.92112,99.6110802 157.994827,98.8941106 158.14,98.19 C158.173333,98.0166667 158.213333,97.8466667 158.26,97.68 C158.389898,97.1749986 158.557022,96.680312 158.76,96.2 C158.826667,96.04 158.896667,95.8833333 158.97,95.73 C159.116667,95.4233333 159.28,95.1233333 159.46,94.83 C159.64,94.5366667 159.82,94.26 160,94 C160.612991,93.1804015 161.340402,92.4529906 162.16,91.84 C162.433333,91.6333333 162.716667,91.4433333 163.01,91.27 C164.673495,90.2591014 166.583434,89.7262562 168.53,89.73 L170.27,89.73 C173.092048,89.7275072 175.798593,90.8504355 177.79,92.85 C178.03,93.09 178.26,93.3433333 178.48,93.61 C178.873808,94.0885094 179.225139,94.6004485 179.53,95.14 C179.65,95.34 179.76,95.55 179.86,95.76 C179.96,95.97 180.01,96.07 180.07,96.23 C180.480793,97.2020305 180.743708,98.2300972 180.85,99.28 C180.88509,99.6422539 180.901778,100.006055 180.9,100.37 L180.9,100.37 C180.9,101.833555 179.713555,103.02 178.25,103.02 L167.39,103.02 L169.04,112.47 C170.97,122.18 170.39,128.67 168.89,133 C168.56,134 166.65,137.39 166.65,137.39 C172.1,145.98 180.45,149.74 189.38,150.83 C196.97,151.76 213.38,144.83 204.91,136.83 C196.44,128.83 206.67,133.83 208.17,134.83 C209.67,135.83 218.36,143.35 208.93,154.37 C204.93,159.03 200.42,163.26 189.56,166.51 C187.82,167.03 178.31,167.72 173.18,169.19 C157.93,173.57 145.54,168.81 138.59,158.74 C131.64,148.67 137.58,136.14 139.31,136.1 Z" id="Shape" stroke="#52267D" stroke-width="2" fill="#9452BA" fill-rule="nonzero"></path>
                <path d="M148.77,121.63 C149.12,110.37 140.18,101.52 130.03,99.63 C127.92,99.24 127.24,98.63 124.93,98.63 L123.16,98.63 C117.20637,98.63 112.38,103.45637 112.38,109.41 C112.38,110.895646 113.584354,112.1 115.07,112.1 L133.27,112.1 C137.27,113.8 139.77,118.92 140.21,121.67 C140.861455,124.959137 140.437213,128.370605 139,131.4 C138.222344,133.13625 137.928645,135.050472 138.15,136.94 L138.25,136.94 C138.328491,137.990915 138.488979,139.03409 138.73,140.06 C140.44,138.87 143.09,137.06 143.57,136.83 C144.57,136.28 146.98,135.02 148.04,134.41 C154.84,130.56 148.57,128 148.77,121.63 Z" id="Shape" stroke="#52267D" fill="#9452BA" fill-rule="nonzero"></path>
                <path d="M143,134.64 C142.91,132.9 142.65,132.01 142.84,131.3 C143.96,127.23 144.33,125.94 144.33,121.63 C144.234966,117.230493 141.920707,113.177716 138.18,110.86 C136.450572,110.62658 134.696808,111.055199 133.27,112.06 C137.27,113.76 139.77,118.88 140.21,121.63 C140.87031,124.931957 140.445889,128.358893 139,131.4 C138.222344,133.13625 137.928645,135.050472 138.15,136.94 C138.15,136.94 143.07,138.79 142.96,134.65" id="Shape" stroke="#52267D" stroke-width="0.5" fill="#F3E3FF" fill-rule="nonzero"></path>
                <path d="M117.5,100.43 C117.55859,99.2641861 118.288089,98.2382061 119.37,97.8 L120.98,97.15 C120.98,97.15 122.09,99.51 120.83,100.1 C119.796778,100.610293 118.613281,100.727576 117.5,100.43 Z" id="Shape" stroke="#52267D" stroke-width="0.5" fill="#FFFFFF" fill-rule="nonzero"></path>
                <path d="M122.19,99.11 C122.287892,97.5286041 123.548604,96.2678917 125.13,96.17 C125.67,96.1 127.07,96.17 127.07,96.17 C127.07,96.17 127.72,98.88 126.2,99.17 C124.866849,99.3329076 123.51768,99.3127205 122.19,99.11 L122.19,99.11 Z" id="Shape" stroke="#52267D" stroke-width="0.5" fill="#FFFFFF" fill-rule="nonzero"></path>
                <path d="M127.92,99.36 C127.92,99.36 128.3,96.52 130.85,97.3 C131.518251,97.5114039 132.10949,97.9148376 132.55,98.46 C132.55,98.46 132.04,100.63 131.03,100.38 C129.966594,100.127709 128.926267,99.7865089 127.92,99.36 Z" id="Shape" stroke="#52267D" stroke-width="0.5" fill="#FFFFFF" fill-rule="nonzero"></path>
                <path d="M135.34,113.16 C135.34,113.16 141.34,109.92 140.16,104.47 C141.478542,105.587036 142.705776,106.807582 143.83,108.12 C143.83,109.19 144.03,113.42 138.18,116.26 C137.300622,115.166979 136.352006,114.131518 135.34,113.16 L135.34,113.16 Z" id="Shape" stroke="#52267D" stroke-width="0.5" fill="#FFFFFF" fill-rule="nonzero"></path>
                <path d="M118.06,100.13 C118.088149,99.4490997 118.515649,98.8490309 119.15,98.6 L120.09,98.22 C120.09,98.22 120.74,99.59 120,99.94 C119.397712,100.23629 118.708328,100.303807 118.06,100.13 L118.06,100.13 Z" id="Shape" fill="#F3E3FF" fill-rule="nonzero"></path>
                <path d="M123,98.76 C123.040679,97.8053359 123.805336,97.0406785 124.76,97 C125.08,97 125.9,97 125.9,97 C125.9,97 126.28,98.59 125.39,98.74 C124.598127,98.8576168 123.79373,98.8643482 123,98.76 Z" id="Shape" fill="#F3E3FF" fill-rule="nonzero"></path>
                <path d="M128.55,99.27 C128.55,99.27 128.77,97.59 130.29,98.05 C130.683774,98.1769825 131.031526,98.4169314 131.29,98.74 C131.29,98.74 130.99,100.02 130.39,99.88 C129.760644,99.7286313 129.14514,99.5245782 128.55,99.27 Z" id="Shape" fill="#F3E3FF" fill-rule="nonzero"></path>
                <path d="M124,105.3 L128.54,105.3 C129.246924,105.3 129.82,105.873076 129.82,106.58 L129.82,109 C129.82,109.706924 129.246924,110.28 128.54,110.28 L121.89,110.28 L121.89,107.4 C121.89,106.240202 122.830202,105.3 123.99,105.3 L124,105.3 Z" id="Shape" fill="#F3E3FF" fill-rule="nonzero" opacity="0.3"></path>
                <path d="M124,106.27 L127.82,106.27 C128.372285,106.27 128.82,106.717715 128.82,107.27 L128.82,109.16 C128.82,109.712285 128.372285,110.16 127.82,110.16 L122,110.16 L122,108.27 C122,107.165431 122.895431,106.27 124,106.27 Z" id="Shape" stroke="#52267D" stroke-width="0.5" fill="#FFFFFF" fill-rule="nonzero"></path>
                <circle id="Oval" fill="#52267D" fill-rule="nonzero" cx="123.93" cy="108.17" r="1.09"></circle>
                <path d="M114.82,111.25 L114.82,111.25 C115.128762,111.18159 115.404349,111.008465 115.6,110.76 L115.97,110.3 L115.16,110.47 L114.68,110.57 C114.590695,110.589083 114.512821,110.643288 114.463915,110.72041 C114.415009,110.797531 114.399183,110.891084 114.42,110.98 L114.42,110.98 C114.436931,111.069011 114.488691,111.147582 114.56379,111.198274 C114.63889,111.248966 114.731116,111.267585 114.82,111.25 L114.82,111.25 Z" id="Shape" fill="#52267D" fill-rule="nonzero"></path>
                <path d="M136.35,113.27 C136.35,113.27 140.94,110.8 140.87,105.82 C141.845342,106.444766 142.696392,107.244957 143.38,108.18 C143.193181,109.466876 142.695482,110.688815 141.93,111.74 C140.23,113.59 138.46,114.15 136.35,113.27 Z" id="Shape" fill="#EAF3FB" fill-rule="nonzero"></path>
                <path d="M140.69,112.4 C139.629688,113.465318 138.428539,114.38048 137.12,115.12" id="Shape" stroke="#52267D" stroke-width="0.5" fill="#FFFFFF" fill-rule="nonzero"></path>
                <path d="M158.68,131.74 L157.68,129.74 C153.86,120.36 153.27,114.85 155.25,105.9 L156.41,100.65 C156.797117,98.9266823 156.994955,97.1662553 157,95.4 L157,95.4 C157,89.5236903 152.23631,84.76 146.36,84.76 L144.64,84.76 C138.846533,84.76 134.15,89.456533 134.15,95.25 L134.15,95.55 C134.15,96.9307119 135.269288,98.05 136.65,98.05 L147.52,98.05 L145.87,107.5 C140.87,132.83 141.33,143.1 151.26,140.99" id="Shape" stroke="#52267D" fill="#9452BA" fill-rule="nonzero"></path>
                <path d="M139.36,86 C139.520979,84.8457627 140.282328,83.8636221 141.36,83.42 C141.828572,83.2957691 142.321428,83.2957691 142.79,83.42 C142.79,83.42 143.85,85.07 142.61,85.66 C141.603476,86.1627867 140.448791,86.2835845 139.36,86 L139.36,86 Z" id="Shape" stroke="#52267D" stroke-width="0.5" fill="#FFFFFF" fill-rule="nonzero"></path>
                <path d="M143.72,85.41 C143.828031,83.6175449 145.257545,82.1880308 147.05,82.08 C147.51249,82.0404653 147.97751,82.0404653 148.44,82.08 C148.44,82.08 149.98,85.13 148.26,85.43 C146.752828,85.6302803 145.225349,85.6235513 143.72,85.41 L143.72,85.41 Z" id="Shape" stroke="#52267D" stroke-width="0.5" fill="#FFFFFF" fill-rule="nonzero"></path>
                <path d="M149.57,86.07 C149.57,86.07 150.01,83.29 152.5,84.12 C153.147128,84.3452937 153.71389,84.7555877 154.13,85.3 C154.13,85.3 153.58,87.41 152.59,87.14 C151.55517,86.8684539 150.544958,86.5105309 149.57,86.07 L149.57,86.07 Z" id="Shape" stroke="#52267D" stroke-width="0.5" fill="#FFFFFF" fill-rule="nonzero"></path>
                <path d="M139.54,135.77 C140.072155,135.364884 140.681176,135.072282 141.33,134.91" id="Shape" stroke="#52267D" stroke-width="0.5" fill="#F3E3FF" fill-rule="nonzero"></path>
                <path d="M143.14,135.71 C141.36,128.49 144.57,114.71 145.14,111.28 L147.47,97.66 L148.47,97.66 C149.110721,97.7239917 149.697117,98.0480875 150.092177,98.5565614 C150.487237,99.0650352 150.656349,99.713341 150.56,100.35 L148.87,112.16 C148.3,116.16 147.7,134.67 154.65,138.65 C156.13,139.5 158.54,138.94 159.45,138.51 C162.75,136.93 163.7,132.81 164.45,129.51 C165.95,122.64 164.78,117.25 164.45,111.86 L164.1,105.12 C164.017986,103.849788 164.953967,102.741623 166.22,102.61 L167.46,102.61 L169.7,116.23 C170.37,120.11 172.1,133.55 164.18,139.86 C164.04,139.97 166.11,140.44 165.51,141.5 C163.13,145.71 156.22,146.38 154.92,148.18 C149.92,155.12 154.6,169.92 154.6,169.92 C151.357864,168.601131 148.325836,166.815604 145.6,164.62 C137.6,157.41 136.53,146.96 136.49,143.89 C136.49,140.21 137.41,137.89 138.6,136.57" id="Shape" stroke="#52267D" stroke-width="0.5" fill="#F3E3FF" fill-rule="nonzero"></path>
                <path d="M208.45,141.73 C209.148778,140.894854 209.340148,139.746634 208.95,138.73 C208.744118,138.322664 208.433474,137.977504 208.05,137.73 C208.05,137.73 206.27,138.04 206.64,139.24 C206.914514,140.265337 207.5594,141.1525 208.45,141.73 L208.45,141.73 Z" id="Shape" stroke="#52267D" fill="#FFFFFF" fill-rule="nonzero"></path>
                <path d="M208.08,140 C208.306259,139.719015 208.374078,139.342246 208.26,139 C208.1851,138.86049 208.074719,138.74321 207.94,138.66 C207.94,138.66 207.32,138.77 207.45,139.19 C207.558243,139.525668 207.781304,139.812461 208.08,140 L208.08,140 Z" id="Shape" fill="#F3E3FF" fill-rule="nonzero"></path>
                <path d="M199.09,150.8 C198.485846,149.24523 199.132979,147.483828 200.6,146.69 C200.973306,146.470289 201.364735,146.282939 201.77,146.13 C201.77,146.13 204.27,148.13 202.93,149.03 C201.73668,149.792306 200.444708,150.387825 199.09,150.8 L199.09,150.8 Z" id="Shape" stroke="#52267D" fill="#FFFFFF" fill-rule="nonzero"></path>
                <path d="M200,149.87 C199.662259,149.006941 200.023052,148.027647 200.84,147.59 C201.047415,147.468291 201.264877,147.364579 201.49,147.28 C201.49,147.28 202.87,148.37 202.13,148.89 C201.468008,149.312263 200.751365,149.641986 200,149.87 L200,149.87 Z" id="Shape" fill="#F3E3FF" fill-rule="nonzero"></path>
                <path d="M207,142.69 C207,142.69 208.88,144.34 207.08,145.82 C206.601514,146.203011 206.020525,146.436102 205.41,146.49 C205.41,146.49 204.08,145.07 204.75,144.49 C205.447709,143.827406 206.200412,143.225244 207,142.69 L207,142.69 Z" id="Shape" stroke="#52267D" fill="#FFFFFF" fill-rule="nonzero"></path>
                <path d="M206.74,143.86 C206.74,143.86 207.57,144.59 206.74,145.25 C206.528286,145.420738 206.27084,145.525108 206,145.55 C206,145.55 205.41,144.92 205.71,144.65 C206.029985,144.357547 206.374595,144.093235 206.74,143.86 L206.74,143.86 Z" id="Shape" fill="#F3E3FF" fill-rule="nonzero"></path>
                <path d="M190.07,152.1 C189.733199,150.751636 190.53815,149.381885 191.88,149.02 C194.31,148.14 194.96,148.87 194.96,148.87 C194.96,148.87 196.3,151.13 195.1,151.87 C193.9,152.61 190.07,152.1 190.07,152.1 Z" id="Shape" stroke="#52267D" fill="#FFFFFF" fill-rule="nonzero"></path>
                <path d="M191.21,151.6 C191.038043,150.900068 191.454895,150.190533 192.15,150 C193.41,149.54 193.75,149.92 193.75,149.92 C193.75,149.92 194.45,151.09 193.82,151.47 C192.968157,151.692096 192.079697,151.736349 191.21,151.6 L191.21,151.6 Z" id="Shape" fill="#F3E3FF" fill-rule="nonzero"></path>
                <path d="M147,101 C149.944806,102.352131 153.31728,102.42812 156.32,101.21 C155.95,102.9 155.18,106.29 155.18,106.29 C155.18,106.29 150.18,107.84 146.24,105.39 C146.61,103.14 147,101 147,101 Z" id="Shape" stroke="#52267D" stroke-width="0.5" fill="#FFFFFF" fill-rule="nonzero"></path>
                <path d="M175.94,91.15 C175.781779,89.9899017 175.0207,89.0004994 173.94,88.55 C173.259281,88.3779518 172.561819,88.2807095 171.86,88.26 C171.86,88.26 171.43,90.26 172.68,90.81 C173.69041,91.3117201 174.847808,91.4324303 175.94,91.15 L175.94,91.15 Z" id="Shape" stroke="#52267D" stroke-width="0.5" fill="#FFFFFF" fill-rule="nonzero"></path>
                <path d="M171.26,90.2 C171.166616,88.6386897 169.92131,87.3933842 168.36,87.3 C167.957399,87.2656174 167.552601,87.2656174 167.15,87.3 C167.15,87.3 165.81,89.96 167.31,90.22 C168.621446,90.3930451 169.950373,90.3863163 171.26,90.2 L171.26,90.2 Z" id="Shape" stroke="#52267D" stroke-width="0.5" fill="#FFFFFF" fill-rule="nonzero"></path>
                <path d="M165.87,90.38 C165.87,90.38 165.42,87.58 162.92,88.38 C162.264864,88.6056228 161.690889,89.019581 161.27,89.57 C161.27,89.57 161.83,91.69 162.82,91.43 C163.864239,91.1659015 164.884483,90.81467 165.87,90.38 Z" id="Shape" stroke="#52267D" stroke-width="0.5" fill="#FFFFFF" fill-rule="nonzero"></path>
                <path d="M140.2,85.63 C140.289563,84.9767314 140.720062,84.4205124 141.33,84.17 C141.595413,84.0996153 141.874587,84.0996153 142.14,84.17 C142.14,84.17 142.74,85.1 142.04,85.43 C141.471159,85.717407 140.817307,85.7884779 140.2,85.63 Z" id="Shape" fill="#F3E3FF" fill-rule="nonzero"></path>
                <path d="M144.64,85 C144.708992,83.8202543 145.650254,82.8789915 146.83,82.81 C147.132785,82.7842041 147.437215,82.7842041 147.74,82.81 C147.74,82.81 148.74,84.81 147.62,85.01 C146.630812,85.1418573 145.628281,85.1384931 144.64,85 Z" id="Shape" fill="#F3E3FF" fill-rule="nonzero"></path>
                <path d="M150.37,85.9 C150.37,85.9 150.65,84.13 152.23,84.66 C152.628289,84.8090587 152.975383,85.0693794 153.23,85.41 C153.23,85.41 152.88,86.75 152.23,86.58 C151.592543,86.4042816 150.97048,86.1768609 150.37,85.9 L150.37,85.9 Z" id="Shape" fill="#F3E3FF" fill-rule="nonzero"></path>
                <path d="M175.15,90.75 C175.051979,90.0987905 174.613404,89.5496187 174,89.31 C173.620306,89.2146203 173.231336,89.1609692 172.84,89.15 C172.84,89.15 172.6,90.25 173.3,90.57 C173.873684,90.8549896 174.532139,90.9190555 175.15,90.75 L175.15,90.75 Z" id="Shape" fill="#F3E3FF" fill-rule="nonzero"></path>
                <path d="M170.28,89.83 C170.225932,88.9255032 169.504497,88.2040682 168.6,88.15 C168.367089,88.1301421 168.132911,88.1301421 167.9,88.15 C167.9,88.15 167.12,89.69 167.99,89.84 C168.750227,89.9409701 169.520684,89.9376056 170.28,89.83 Z" id="Shape" fill="#F3E3FF" fill-rule="nonzero"></path>
                <path d="M165.08,90.27 C165.08,90.27 164.82,88.62 163.34,89.11 C162.944161,89.2380722 162.595825,89.4819076 162.34,89.81 C162.34,89.81 162.67,91.07 163.26,90.91 C163.883675,90.7485219 164.492525,90.5344208 165.08,90.27 Z" id="Shape" fill="#F3E3FF" fill-rule="nonzero"></path>
                <path d="M158.54,105.78 C161.657901,106.199286 164.824925,106.074094 167.9,105.41 C168.34,107.89 168.63,109.76 168.63,109.76 C168.63,109.76 165.47,111.91 159.63,110.66 C158.93,107.48 158.54,105.78 158.54,105.78 Z" id="Shape" stroke="#52267D" stroke-width="0.5" fill="#FFFFFF" fill-rule="nonzero"></path>
                <path d="M163.97,96 L170.62,96 C171.326924,96 171.9,96.5730755 171.9,97.28 L171.9,99.68 C171.9,100.386924 171.326924,100.96 170.62,100.96 L166.08,100.96 C164.920202,100.96 163.98,100.019798 163.98,98.86 L163.98,96 L163.97,96 Z" id="Shape" fill="#F3E3FF" fill-rule="nonzero" opacity="0.3" transform="translate(167.935000, 98.480000) rotate(180.000000) translate(-167.935000, -98.480000) "></path>
                <path d="M164.96,96.95 L170.8,96.95 C171.352285,96.95 171.8,97.3977153 171.8,97.95 L171.8,99.84 C171.8,100.392285 171.352285,100.84 170.8,100.84 L166.96,100.84 C165.855431,100.84 164.96,99.9445695 164.96,98.84 L164.96,96.95 Z" id="Shape" stroke="#52267D" stroke-width="0.5" fill="#FFFFFF" fill-rule="nonzero" transform="translate(168.380000, 98.895000) rotate(-180.000000) translate(-168.380000, -98.895000) "></path>
                <circle id="Oval" fill="#52267D" fill-rule="nonzero" cx="169.85" cy="99.72" r="1.09"></circle>
                <path d="M144.28,91.29 L148.82,91.29 C149.526924,91.29 150.1,91.8630755 150.1,92.57 L150.1,95 C150.1,95.7069245 149.526924,96.28 148.82,96.28 L142.17,96.28 L142.17,93.39 C142.169994,92.8313084 142.392615,92.2956441 142.788607,91.901529 C143.184599,91.5074139 143.721315,91.2873396 144.28,91.29 L144.28,91.29 Z" id="Shape" fill="#F3E3FF" fill-rule="nonzero" opacity="0.3"></path>
                <path d="M144.29,92.26 L148.11,92.26 C148.662285,92.26 149.11,92.7077153 149.11,93.26 L149.11,95.15 C149.11,95.7022847 148.662285,96.15 148.11,96.15 L142.27,96.15 L142.27,94.28 C142.27,93.1754305 143.165431,92.28 144.27,92.28 L144.29,92.26 Z" id="Shape" stroke="#52267D" stroke-width="0.5" fill="#FFFFFF" fill-rule="nonzero"></path>
                <circle id="Oval" fill="#52267D" fill-rule="nonzero" cx="144.25" cy="95.01" r="1.09"></circle>
                <path d="M178.48,102.1 L178.48,102.1 C178.171238,102.03159 177.895651,101.858465 177.7,101.61 L177.33,101.15 L178.14,101.32 L178.62,101.42 C178.709305,101.439083 178.787179,101.493288 178.836085,101.57041 C178.884991,101.647531 178.900817,101.741084 178.88,101.83 L178.88,101.83 C178.863069,101.919011 178.811309,101.997582 178.73621,102.048274 C178.66111,102.098966 178.568884,102.117585 178.48,102.1 L178.48,102.1 Z" id="Shape" fill="#52267D" fill-rule="nonzero"></path>
                <path d="M136.47,97 L136.47,97 C136.778762,96.9315898 137.054349,96.758465 137.25,96.51 L137.62,96.05 L136.81,96.22 L136.33,96.32 C136.240695,96.3390828 136.162821,96.3932884 136.113915,96.4704096 C136.065009,96.5475308 136.049183,96.6410836 136.07,96.73 L136.07,96.73 C136.086931,96.8190108 136.138691,96.8975817 136.21379,96.9482738 C136.28889,96.9989658 136.381116,97.0175855 136.47,97 L136.47,97 Z" id="Shape" fill="#52267D" fill-rule="nonzero"></path>
                <path d="M147.43,101.69 C150.044794,102.695341 152.929983,102.748442 155.58,101.84 C155.37831,103.064237 155.107882,104.276153 154.77,105.47 C153.404081,105.547501 152.033829,105.487197 150.68,105.29 C148.35,104.83 147.43,103.78 147.43,101.69 Z" id="Shape" fill="#EAF3FB" fill-rule="nonzero"></path>
                <path d="M153.08,104.77 C150.834009,104.918438 148.585706,104.516832 146.53,103.6" id="Shape" stroke="#52267D" stroke-width="0.5" fill="#FFFFFF" fill-rule="nonzero"></path>
                <path d="M166.14,106.32 C163.930295,106.911315 161.622934,107.04404 159.36,106.71 C159.599597,107.765339 159.906899,108.804154 160.28,109.82 C160.28,109.82 165,109.18 166.14,106.32 Z" id="Shape" fill="#EAF3FB" fill-rule="nonzero"></path>
                <path d="M164.21,139.9 C164.21,139.9 163.99,140.06 163.68,140.24" id="Shape" stroke="#52267D" stroke-width="0.5" fill="#F3E3FF" fill-rule="nonzero"></path>
                <path d="M166.49,107.68 C164.021835,108.093884 161.508953,108.171255 159.02,107.91" id="Shape" stroke="#52267D" stroke-width="0.5" fill="#FFFFFF" fill-rule="nonzero"></path>
                <path d="M160.55,182.24 C159.838243,181.768124 158.889244,181.882512 158.31,182.51 C157.14,183.51 156.31,184.95 156.79,185.1 C157.574863,185.315939 158.397568,185.356904 159.2,185.22 C160.04,185.07 160.78,185.22 161.12,183.47 C161.207972,182.980876 160.980058,182.489061 160.55,182.24 Z" id="Shape" stroke="#52267D" stroke-width="0.5" fill="#FFFFFF" fill-rule="nonzero"></path>
                <path d="M160.33,182.52 C159.887723,182.227909 159.298847,182.29993 158.94,182.69 C158.21,183.29 157.67,184.21 157.99,184.3 C158.478847,184.43286 158.990905,184.456756 159.49,184.37 C160.01,184.27 160.49,184.37 160.69,183.28 C160.742628,182.97605 160.598522,182.671827 160.33,182.52 L160.33,182.52 Z" id="Shape" fill="#EAF3FB" fill-rule="nonzero"></path>
                <path d="M161.91,182.22 C162.42,182.15 163.15,183.22 163.07,183.59 C162.99,183.96 162.93,185.04 162.07,185.16 C161.46,185.25 159.3,185.47 158.83,185 C158.36,184.53 159.28,182.57 161.91,182.22 Z" id="Shape" stroke="#52267D" stroke-width="0.5" fill="#FFFFFF" fill-rule="nonzero"></path>
                <path d="M162.05,182.52 C162.35,182.52 162.78,183.13 162.73,183.33 C162.68,183.53 162.65,184.18 162.16,184.25 C161.67,184.32 160.53,184.44 160.25,184.16 C159.97,183.88 160.5,182.73 162.05,182.52 Z" id="Shape" fill="#EAF3FB" fill-rule="nonzero"></path>
                <path d="M164.06,182.43 C164.06,182.43 163.62,182.2 162.75,182.7 C161.88,183.2 160.84,183.84 161.14,184.7 C161.44,185.56 163.87,185.25 164.4,185.06 C164.933936,184.870508 165.260239,184.330854 165.18,183.77 C165.086404,183.149134 164.654405,182.632278 164.06,182.43 Z" id="Shape" stroke="#52267D" stroke-width="0.5" fill="#FFFFFF" fill-rule="nonzero"></path>
                <path d="M164.22,182.74 C164.22,182.74 163.96,182.6 163.45,182.9 C162.94,183.2 162.32,183.58 162.45,184.09 C162.58,184.6 164.06,184.41 164.38,184.31 C164.692458,184.195731 164.883668,183.879819 164.84,183.55 C164.796929,183.186969 164.559189,182.876373 164.22,182.74 Z" id="Shape" fill="#EAF3FB" fill-rule="nonzero"></path>
                <path d="M153.92,154.62 C154.153015,159.456303 153.841052,164.303468 152.99,169.07 C151.66,177.29 149.3,179.87 149.48,182 C149.61,183.65 150.31,185.16 151.97,185.16 L156.91,185.16 C159.21664,185.159802 161.265483,183.686567 162,181.5 C162.774109,179.167329 163.306897,176.761404 163.59,174.32 C163.87516,170.770886 163.951958,167.208105 163.82,163.65" id="Shape" stroke="#52267D" fill="#9452BA" fill-rule="nonzero"></path>
                <path d="M179.25,158.34 C177.638418,159.846005 176.740824,161.964617 176.78,164.17 C176.78,167 178.44,170.6 177.4,175.3 C176.47,179.49 174.63,180.23 175.18,183.99 C175.293569,184.672292 175.888384,185.169387 176.58,185.16 L182.09,185.16 C184.628343,185.160038 186.794279,183.324069 187.21,180.82 C188.036362,174.89182 187.823172,168.864973 186.58,163.01" id="Shape" stroke="#52267D" fill="#9452BA" fill-rule="nonzero"></path>
                <polyline id="Shape" stroke="#52267D" stroke-width="0.25" points="180.34 164.57 180.66 164.34 181.71 164.57 180.54 165.32 179.14 164.63 180.6 163.47 181.26 163.69"></polyline>
                <path d="M150.55,182.24 C149.838243,181.768124 148.889244,181.882512 148.31,182.51 C147.14,183.51 146.31,184.95 146.79,185.1 C147.574863,185.315939 148.397568,185.356904 149.2,185.22 C150.04,185.07 150.78,185.22 151.12,183.47 C151.207972,182.980876 150.980058,182.489061 150.55,182.24 Z" id="Shape" stroke="#52267D" stroke-width="0.5" fill="#FFFFFF" fill-rule="nonzero"></path>
                <path d="M150.33,182.52 C149.887723,182.227909 149.298847,182.29993 148.94,182.69 C148.21,183.29 147.67,184.21 147.99,184.3 C148.478847,184.43286 148.990905,184.456756 149.49,184.37 C150.01,184.27 150.49,184.37 150.69,183.28 C150.742628,182.97605 150.598522,182.671827 150.33,182.52 L150.33,182.52 Z" id="Shape" fill="#EAF3FB" fill-rule="nonzero"></path>
                <polyline id="Shape" stroke="#52267D" stroke-width="0.25" points="158.11 167.68 156.14 168.29 156.4 170.11 158.42 170.26 159.36 169.18 158.15 168.51 157.15 168.8 157.79 169.5"></polyline>
                <g id="Group" opacity="0.3" transform="translate(114.000000, 92.000000)" stroke="#F3E3FF" stroke-width="0.25">
                    <path d="M1.94,15.65 C1.91141424,15.8586 2.00667985,16.0647926 2.18405584,16.1782336 C2.36143184,16.2916747 2.58856816,16.2916747 2.76594416,16.1782336 C2.94332015,16.0647926 3.03858576,15.8586 3.01,15.65" id="Shape"></path>
                    <path d="M0.87,15.65 C0.906643974,15.9174035 1.13509738,16.1166856 1.405,16.1166856 C1.67490262,16.1166856 1.90335603,15.9174035 1.94,15.65" id="Shape"></path>
                    <path d="M1.4,16.18 C1.37141424,16.3886 1.46667985,16.5947926 1.64405584,16.7082336 C1.82143184,16.8216747 2.04856816,16.8216747 2.22594416,16.7082336 C2.40332015,16.5947926 2.49858576,16.3886 2.47,16.18" id="Shape"></path>
                    <path d="M22.47,15.14 C22.7096938,15.3124481 23.0255506,15.336827 23.288868,15.2032029 C23.5521855,15.0695789 23.7190018,14.800261 23.7213443,14.5049883 C23.7236867,14.2097155 23.5611643,13.9377849 23.3,13.8" id="Shape"></path>
                    <path d="M22.72,16.23 C23.0871707,16.4237117 23.5416337,16.3001917 23.7602335,15.9472715 C23.9788333,15.5943513 23.8869853,15.1324447 23.55,14.89" id="Shape"></path>
                    <path d="M47.9,33.14 C47.9,33.537645 48.222355,33.86 48.62,33.86 C49.017645,33.86 49.34,33.537645 49.34,33.14" id="Shape"></path>
                    <path d="M46.46,33.14 C46.46,33.537645 46.782355,33.86 47.18,33.86 C47.577645,33.86 47.9,33.537645 47.9,33.14" id="Shape"></path>
                    <path d="M47.18,33.86 C47.18,34.257645 47.502355,34.58 47.9,34.58 C48.297645,34.58 48.62,34.257645 48.62,33.86" id="Shape"></path>
                    <path d="M26.43,78.67 C26.4300001,79.067645 26.752355,79.3899999 27.15,79.3899999 C27.547645,79.3899999 27.8699999,79.067645 27.87,78.67" id="Shape"></path>
                    <path d="M25,78.67 C25,79.067645 25.322355,79.39 25.72,79.39 C26.117645,79.39 26.44,79.067645 26.44,78.67" id="Shape"></path>
                    <path d="M25.71,79.39 C25.7100001,79.787645 26.032355,80.1099999 26.43,80.1099999 C26.827645,80.1099999 27.1499999,79.787645 27.15,79.39" id="Shape"></path>
                    <path d="M46.78,10.24 C46.78,10.676305 47.133695,11.03 47.57,11.03 C48.006305,11.03 48.36,10.676305 48.36,10.24" id="Shape"></path>
                    <path d="M46,11 C46,11.436305 46.353695,11.79 46.79,11.79 C47.226305,11.79 47.58,11.436305 47.58,11" id="Shape"></path>
                    <path d="M36.69,24.19 C36.5707821,24.5987471 36.7234561,25.038158 37.0704334,25.2849248 C37.4174106,25.5316917 37.8825894,25.5316917 38.2295666,25.2849248 C38.5765439,25.038158 38.7292179,24.5987471 38.61,24.19" id="Shape"></path>
                    <path d="M35.73,25.14 C35.8544444,25.5666667 36.2455556,25.86 36.69,25.86 C37.1344444,25.86 37.5255556,25.5666667 37.65,25.14" id="Shape"></path>
                    <path d="M22.75,0.33 C22.75,0.68346224 23.0365378,0.97 23.39,0.97 C23.7434622,0.97 24.03,0.68346224 24.03,0.33" id="Shape"></path>
                    <path d="M22.11,1 C22.11,1.35346224 22.3965378,1.64 22.75,1.64 C23.1034622,1.64 23.39,1.35346224 23.39,1" id="Shape"></path>
                    <path d="M83.16,65 C83.3386328,65.2018551 83.6113847,65.2930774 83.8755127,65.2393044 C84.1396407,65.1855313 84.3550175,64.9949324 84.4405127,64.7393044 C84.5260079,64.4836763 84.4686328,64.2018551 84.29,64" id="Shape"></path>
                    <path d="M83.07,66.07 C83.2486328,66.2718551 83.5213847,66.3630774 83.7855127,66.3093044 C84.0496407,66.2555313 84.2650175,66.0649324 84.3505127,65.8093044 C84.4360079,65.5536763 84.3786328,65.2718551 84.2,65.07" id="Shape"></path>
                    <path d="M53.79,54.83 C53.9050206,55.1332641 54.179189,55.3473664 54.5012885,55.3854558 C54.8233879,55.4235453 55.1399326,55.279297 55.3225157,55.0112257 C55.5050989,54.7431543 55.5234018,54.3957739 55.37,54.11" id="Shape"></path>
                    <path d="M52.21,55.55 C52.4268651,55.9540004 52.9200598,56.1203371 53.3373061,55.9301995 C53.7545525,55.7400619 53.9526053,55.2587264 53.79,54.83" id="Shape"></path>
                    <path d="M53.36,56 C53.4750206,56.3032641 53.749189,56.5173664 54.0712885,56.5554558 C54.3933879,56.5935453 54.7099326,56.449297 54.8925157,56.1812257 C55.0750989,55.9131543 55.0934018,55.5657739 54.94,55.28" id="Shape"></path>
                    <path d="M51.78,56.7 C51.9968651,57.1040004 52.4900598,57.2703371 52.9073061,57.0801995 C53.3245525,56.8900619 53.5226053,56.4087264 53.36,55.98" id="Shape"></path>
                    <path d="M54.51,56.41 C54.7268651,56.8140004 55.2200598,56.9803371 55.6373061,56.7901995 C56.0545525,56.6000619 56.2526053,56.1187264 56.09,55.69" id="Shape"></path>
                    <path d="M38.69,6.82 C38.69,7.30324916 39.0817508,7.695 39.565,7.695 C40.0482492,7.695 40.44,7.30324916 40.44,6.82" id="Shape"></path>
                    <path d="M38.39,39.87 C38.39,40.3532492 38.7817508,40.745 39.265,40.745 C39.7482492,40.745 40.14,40.3532492 40.14,39.87" id="Shape"></path>
                    <path d="M48.3,21.65 C48.3,22.0172694 48.5977306,22.315 48.965,22.315 C49.3322694,22.315 49.63,22.0172694 49.63,21.65" id="Shape"></path>
                    <path d="M64.08,6.59 C64.08,6.86614237 64.3038576,7.09 64.58,7.09 C64.8561424,7.09 65.08,6.86614237 65.08,6.59" id="Shape"></path>
                    <path d="M68.22,79.69 C68.2735898,79.9972484 68.4870239,80.2525679 68.7799038,80.3597819 C69.0727837,80.466996 69.4006138,80.4098163 69.6399039,80.2097819 C69.8791939,80.0097475 69.9935899,79.6972484 69.94,79.39" id="Shape"></path>
                    <path d="M44.06,86.13 C43.9407821,86.5387471 44.0934561,86.978158 44.4404334,87.2249248 C44.7874106,87.4716917 45.2525894,87.4716917 45.5995666,87.2249248 C45.9465439,86.978158 46.0992179,86.5387471 45.98,86.13" id="Shape"></path>
                    <path d="M43.1,87.09 C43.2244444,87.5166667 43.6155556,87.81 44.06,87.81 C44.5044444,87.81 44.8955556,87.5166667 45.02,87.09" id="Shape"></path>
                </g>
                <path d="M151.92,182.22 C152.43,182.15 153.16,183.22 153.08,183.59 C153,183.96 152.94,185.04 152.08,185.16 C151.47,185.25 149.31,185.47 148.84,185 C148.37,184.53 149.29,182.57 151.92,182.22 Z" id="Shape" stroke="#52267D" stroke-width="0.5" fill="#FFFFFF" fill-rule="nonzero"></path>
                <path d="M152.06,182.52 C152.36,182.52 152.79,183.13 152.74,183.33 C152.69,183.53 152.66,184.18 152.17,184.25 C151.68,184.32 150.54,184.44 150.26,184.16 C149.98,183.88 150.51,182.73 152.06,182.52 Z" id="Shape" fill="#EAF3FB" fill-rule="nonzero"></path>
                <path d="M153.72,182.76 C153.72,182.76 153.33,182.56 152.56,183 C151.79,183.44 150.87,184 151.14,184.78 C151.41,185.56 153.55,185.26 154.03,185.1 C154.502554,184.933324 154.791483,184.455963 154.72,183.96 C154.639855,183.403328 154.253094,182.939215 153.72,182.76 Z" id="Shape" stroke="#52267D" stroke-width="0.5" fill="#FFFFFF" fill-rule="nonzero"></path>
                <path d="M153.87,183 C153.87,183 153.64,182.88 153.19,183.14 C152.74,183.4 152.19,183.74 152.35,184.19 C152.51,184.64 153.78,184.48 154.06,184.38 C154.338753,184.282765 154.510281,184.002464 154.47,183.71 C154.421513,183.37839 154.18888,183.103108 153.87,183 L153.87,183 Z" id="Shape" fill="#EAF3FB" fill-rule="nonzero"></path>
                <path d="M133.44,183 C133.44,183 133.05,182.8 132.28,183.24 C131.51,183.68 130.59,184.24 130.86,185.02 C131.13,185.8 133.27,185.5 133.75,185.34 C134.222554,185.173324 134.511483,184.695963 134.44,184.2 C134.359855,183.643328 133.973094,183.179215 133.44,183 L133.44,183 Z" id="Shape" stroke="#52267D" stroke-width="0.5" fill="#FFFFFF" fill-rule="nonzero"></path>
                <path d="M133.59,183.25 C133.59,183.25 133.36,183.13 132.91,183.39 C132.46,183.65 131.91,183.99 132.07,184.44 C132.23,184.89 133.5,184.73 133.78,184.63 C134.058753,184.532765 134.230281,184.252464 134.19,183.96 C134.141513,183.62839 133.90888,183.353108 133.59,183.25 L133.59,183.25 Z" id="Shape" fill="#EAF3FB" fill-rule="nonzero"></path>
                <path d="M135.79,182.43 C136.3,182.36 137.03,183.43 136.95,183.8 C136.87,184.17 136.81,185.25 135.95,185.37 C135.34,185.46 133.18,185.68 132.71,185.21 C132.24,184.74 133.16,182.78 135.79,182.43 Z" id="Shape" stroke="#52267D" stroke-width="0.5" fill="#FFFFFF" fill-rule="nonzero"></path>
                <path d="M135.93,182.74 C136.23,182.74 136.66,183.35 136.61,183.55 C136.56,183.75 136.53,184.4 136.04,184.47 C135.55,184.54 134.41,184.66 134.13,184.38 C133.85,184.1 134.38,182.95 135.93,182.74 Z" id="Shape" fill="#EAF3FB" fill-rule="nonzero"></path>
                <path d="M177.28,182.24 C176.568243,181.768124 175.619244,181.882512 175.04,182.51 C173.87,183.51 173.04,184.95 173.52,185.1 C174.304863,185.315939 175.127568,185.356904 175.93,185.22 C176.77,185.07 177.51,185.22 177.85,183.47 C177.937972,182.980876 177.710058,182.489061 177.28,182.24 L177.28,182.24 Z" id="Shape" stroke="#52267D" stroke-width="0.5" fill="#FFFFFF" fill-rule="nonzero"></path>
                <path d="M177.06,182.52 C176.617723,182.227909 176.028847,182.29993 175.67,182.69 C174.94,183.29 174.4,184.21 174.72,184.3 C175.208847,184.43286 175.720905,184.456756 176.22,184.37 C176.74,184.27 177.22,184.37 177.42,183.28 C177.472628,182.97605 177.328522,182.671827 177.06,182.52 L177.06,182.52 Z" id="Shape" fill="#EAF3FB" fill-rule="nonzero"></path>
                <path d="M178.65,182.22 C179.16,182.15 179.89,183.22 179.81,183.59 C179.73,183.96 179.67,185.04 178.81,185.16 C178.2,185.25 176.04,185.47 175.57,185 C175.1,184.53 176,182.57 178.65,182.22 Z" id="Shape" stroke="#52267D" stroke-width="0.5" fill="#FFFFFF" fill-rule="nonzero"></path>
                <path d="M178.79,182.52 C179.09,182.52 179.52,183.13 179.47,183.33 C179.42,183.53 179.39,184.18 178.9,184.25 C178.41,184.32 177.27,184.44 176.99,184.16 C176.71,183.88 177.24,182.73 178.79,182.52 Z" id="Shape" fill="#EAF3FB" fill-rule="nonzero"></path>
                <path d="M180.45,182.76 C180.45,182.76 180.06,182.56 179.29,183 C178.52,183.44 177.6,184 177.87,184.78 C178.14,185.56 180.28,185.26 180.76,185.1 C181.232554,184.933324 181.521483,184.455963 181.45,183.96 C181.369855,183.403328 180.983094,182.939215 180.45,182.76 L180.45,182.76 Z" id="Shape" stroke="#52267D" stroke-width="0.5" fill="#FFFFFF" fill-rule="nonzero"></path>
                <path d="M180.6,183 C180.6,183 180.37,182.88 179.92,183.14 C179.47,183.4 178.92,183.74 179.08,184.19 C179.24,184.64 180.51,184.48 180.79,184.38 C181.068753,184.282765 181.240281,184.002464 181.2,183.71 C181.151513,183.37839 180.91888,183.103108 180.6,183 L180.6,183 Z" id="Shape" fill="#EAF3FB" fill-rule="nonzero"></path>
                <path d="M142.46,182.91 C142.594432,182.777159 142.795356,182.737762 142.97,182.81 C143.55,183.09 145.03,183.87 144.72,184.93 C144.48,185.75 143.98,185.51 143.02,185.52 L142.29,185.52 C142.137156,185.524472 141.994524,185.443519 141.92,185.31 L141.92,185.31 C141.532596,184.4996 141.732993,183.530332 142.41,182.94 L142.46,182.91 Z" id="Shape" stroke="#52267D" stroke-width="0.5" fill="#FFFFFF" fill-rule="nonzero"></path>
                <path d="M142.53,183.14 C142.627971,183.044263 142.773826,183.016669 142.9,183.07 C143.32,183.27 144.39,183.84 144.17,184.61 C144,185.21 143.63,185.03 142.93,185.04 L142.4,185.04 C142.289197,185.04373 142.18537,184.986048 142.13,184.89 L142.13,184.89 C141.843379,184.303602 141.98701,183.597756 142.48,183.17 L142.53,183.14 Z" id="Shape" fill="#EAF3FB" fill-rule="nonzero"></path>
                <path d="M139,182.59 C138.331476,182.062477 137.379371,182.096329 136.75,182.67 C135.51,183.53 134.51,184.93 135.01,185.12 C135.773666,185.400216 136.589517,185.509452 137.4,185.44 C138.25,185.36 138.98,185.58 139.46,183.86 C139.588086,183.382093 139.404425,182.875029 139,182.59 L139,182.59 Z" id="Shape" stroke="#52267D" stroke-width="0.5" fill="#FFFFFF" fill-rule="nonzero"></path>
                <path d="M138.81,182.86 C138.406514,182.516581 137.813486,182.516581 137.41,182.86 C136.64,183.39 136.01,184.26 136.33,184.38 C136.806006,184.555065 137.314678,184.623344 137.82,184.58 C138.35,184.53 138.82,184.67 139.1,183.58 C139.149511,183.304235 139.036825,183.024463 138.81,182.86 L138.81,182.86 Z" id="Shape" fill="#EAF3FB" fill-rule="nonzero"></path>
                <path d="M16.98,185.53 L52.98,185.53" id="Shape" stroke="#375D81" stroke-width="2" fill="#FFFFFF" fill-rule="nonzero" stroke-linecap="round" stroke-linejoin="round"></path>
                <path d="M192.32,185.53 L236.32,185.53" id="Shape" stroke="#375D81" stroke-width="2" fill="#FFFFFF" fill-rule="nonzero" stroke-linecap="round" stroke-linejoin="round"></path>
                <rect id="Rectangle-path" stroke="#375D81" stroke-width="2" fill="#FFFFFF" fill-rule="nonzero" x="59.44" y="0" width="128.64" height="186.53" rx="2.25"></rect>
                <path d="M203.98,32.54 L203.98,39.54" id="Shape" stroke="#375D81" stroke-width="2" stroke-linecap="round" stroke-linejoin="round"></path>
                <path d="M207.48,36.04 L200.48,36.04" id="Shape" stroke="#375D81" stroke-width="2" stroke-linecap="round" stroke-linejoin="round"></path>
                <path d="M39.73,152.82 L39.73,156.76" id="Shape" stroke="#375D81" stroke-linecap="round"></path>
                <path d="M41.7,154.79 L37.76,154.79" id="Shape" stroke="#375D81" stroke-linecap="round"></path>
                <path d="M214.73,92.82 L214.73,96.76" id="Shape" stroke="#375D81" stroke-linecap="round" stroke-linejoin="round"></path>
                <path d="M216.7,94.79 L212.76,94.79" id="Shape" stroke="#375D81" stroke-linecap="round" stroke-linejoin="round"></path>
                <path d="M45.73,52.82 L45.73,56.76" id="Shape" stroke="#375D81" stroke-linecap="round"></path>
                <path d="M47.7,54.79 L43.76,54.79" id="Shape" stroke="#375D81" stroke-linecap="round"></path>
                <path d="M23.42,91.42 L23.42,99.54" id="Shape" stroke="#375D81" stroke-width="2" fill="#FFFFFF" fill-rule="nonzero" stroke-linecap="round"></path>
                <path d="M27.48,95.48 L19.35,95.48" id="Shape" stroke="#375D81" stroke-width="2" fill="#FFFFFF" fill-rule="nonzero" stroke-linecap="round"></path>
                <path d="M0,185.29 L8.97,185.29" id="Shape" stroke="#375D81" stroke-width="2" fill="#FFFFFF" fill-rule="nonzero" stroke-linecap="round" stroke-linejoin="round"></path>
                <path d="M92.38,194.61 L159.57,194.61" id="Shape" stroke="#375D81" stroke-width="2" fill="#FFFFFF" fill-rule="nonzero" stroke-linecap="round" stroke-linejoin="round"></path>
                <path d="M168.19,194.61 L177.33,194.61" id="Shape" stroke="#375D81" stroke-width="2" fill="#FFFFFF" fill-rule="nonzero" stroke-linecap="round" stroke-linejoin="round"></path>
                <path d="M84.5,194.53 L79.5,194.61" id="Shape" stroke="#375D81" stroke-width="2" fill="#FFFFFF" fill-rule="nonzero" stroke-linecap="round" stroke-linejoin="round"></path>
                <circle id="Oval" fill="#EFEFF6" fill-rule="nonzero" cx="120.73" cy="82.87" r="33.43"></circle>
                <circle id="Oval" stroke="#375D81" stroke-width="2" fill="#FFFFFF" fill-rule="nonzero" stroke-dasharray="50" cx="124.79" cy="76.11" r="33.43"></circle>
                <path d="M133.52,91.07 C133.66,91.49 133.78,91.77 133.82,91.86 L133.82,91.86 C132.88,82.75 138.04,78.95 139.7,72.86 C139.709028,72.7588759 139.725743,72.658586 139.75,72.56 C139.783532,72.4247629 139.810233,72.287923 139.83,72.15 C140.08,70.48 139.39,68.53 138.09,66.5 L138.09,66.5 L137.75,65.99 L137.75,65.99 C137.54,65.68 137.31,65.37 137.07,65.06 L137,65 L136.8,64.75 L136.59,64.49 L136.38,64.24 L136.16,63.98 L136,63.8 C133.762794,61.2999269 131.257776,59.0531238 128.53,57.1 L128.53,57.1 C128.903544,60.2875533 128.933717,63.5060036 128.62,66.7 C128.100728,70.3912648 127.014598,73.9802156 125.4,77.34 C121.682321,77.0657893 118.029278,76.2191468 114.57,74.83 C111.634492,73.5173094 108.851292,71.8876281 106.27,69.97 C106.27,70.26 106.33,70.54 106.37,70.82 L106.37,71.07 C106.37,71.27 106.42,71.47 106.45,71.68 C106.48,71.89 106.45,71.87 106.45,71.96 C106.45,72.05 106.51,72.37 106.54,72.57 L106.54,72.82 C106.54,73.08 106.63,73.33 106.67,73.58 C106.66854,73.6033105 106.66854,73.6266895 106.67,73.65 C106.72,73.94 106.78,74.24 106.84,74.53 C106.838762,74.5533169 106.838762,74.5766831 106.84,74.6 C106.89,74.86 106.95,75.12 107,75.38 L107,75.54 L107.16,76.25 L107.16,76.39 C107.23,76.66 107.29,76.93 107.36,77.2 L107.36,77.2 C107.586667,78.0533333 107.836667,78.8766667 108.11,79.67 L108.11,79.67 C108.527143,80.9136703 109.045546,82.1210478 109.66,83.28 L109.92,83.74 L109.92,83.74 L109.92,83.74 L110.16,84.14 L110.16,84.14 L110.43,84.54 L110.43,84.54 L110.43,84.59 L110.43,84.59 L110.79,85.08 L110.85,85.16 L110.85,85.16 C110.99,85.33 111.13,85.5 111.28,85.66 L111.59,85.98 L111.72,86.11 L111.92,86.29 L112.07,86.41 L112.26,86.56 L112.41,86.67 L112.61,86.81 L112.76,86.9 L112.97,87.02 L113.12,87.1 L113.37,87.21 L113.49,87.26 L113.87,87.39 L114.1,87.47 C120.18,89.08 126.1,86.53 133.53,91.84" id="Fill-7" fill="#9452BA" fill-rule="nonzero"></path>
                <path d="M73.87,117.42 C73.9990932,108.314113 79.2541261,100.060074 87.45,96.09" id="Shape" stroke="#E1F2FF" stroke-width="2" stroke-linecap="round" stroke-linejoin="round"></path>
                <polygon id="Shape" fill="#E1F2FF" fill-rule="nonzero" points="85.84 106.68 83.93 106.08 86.88 96.67 77.28 94.41 77.74 92.46 89.44 95.22"></polygon>
                <path d="M95.16,25.33 C104.220245,26.2367605 111.994137,32.1764937 115.25,40.68" id="Shape" stroke="#E1F2FF" stroke-width="2" stroke-linecap="round" stroke-linejoin="round"></path>
                <polygon id="Shape" fill="#E1F2FF" fill-rule="nonzero" points="104.84 38.18 105.6 36.33 114.72 40.07 117.79 30.7 119.69 31.32 115.95 42.74"></polygon>
                <path d="M76.29,17.75 L86.51,27.97" id="Shape" stroke="#9ACDED" stroke-width="2" stroke-linecap="round" stroke-linejoin="round"></path>
                <path d="M86.51,17.75 L76.29,27.97" id="Shape" stroke="#9ACDED" stroke-width="2" stroke-linecap="round" stroke-linejoin="round"></path>
                <path d="M165.41,18.69 C165.627709,18.5009326 165.858262,18.3271829 166.1,18.17 C166.352927,18.0052593 166.620771,17.8646416 166.9,17.75 C167.203792,17.6272024 167.51853,17.5334505 167.84,17.47 C168.19576,17.4007059 168.557565,17.3672054 168.92,17.37 C169.412025,17.3647942 169.901662,17.439084 170.37,17.59 C170.77721,17.7215724 171.154427,17.9322701 171.48,18.21 C171.791783,18.4852769 172.037827,18.8270039 172.2,19.21 C172.373451,19.6140211 172.458682,20.0504062 172.45,20.49 C172.458923,20.8883496 172.394519,21.2849444 172.26,21.66 C172.144057,21.9691271 171.982245,22.2590414 171.78,22.52 C171.593038,22.7552069 171.378122,22.9667648 171.14,23.15 L170.48,23.65 C170.288716,23.7895711 170.108207,23.9433385 169.94,24.11 C169.799887,24.2457822 169.702557,24.4195867 169.66,24.61 L169.44,25.89 L167.76,25.89 L167.59,24.45 C167.54469,24.1979423 167.583333,23.9379802 167.7,23.71 C167.815972,23.4925135 167.968149,23.2963742 168.15,23.13 C168.351774,22.9459792 168.56558,22.7756021 168.79,22.62 C169.021197,22.4577484 169.241657,22.2807122 169.45,22.09 C169.653516,21.9068528 169.828754,21.6945448 169.97,21.46 C170.114096,21.2075461 170.186696,20.9206061 170.18,20.63 C170.195249,20.2702719 170.044022,19.9235563 169.77,19.69 C169.467954,19.4467443 169.087416,19.3222692 168.7,19.34 C168.419341,19.3340883 168.139431,19.3711848 167.87,19.45 C167.673065,19.5124124 167.482266,19.5927487 167.3,19.69 L166.89,19.93 C166.796096,19.9966083 166.685011,20.0347937 166.57,20.04 C166.358331,20.0496428 166.159946,19.9368356 166.06,19.75 L165.41,18.69 Z M167.08,29.15 C167.078391,28.9578127 167.115814,28.767299 167.19,28.59 C167.262067,28.4207049 167.367497,28.2676611 167.5,28.14 C168.077379,27.5824745 168.992621,27.5824745 169.57,28.14 C169.701888,28.2681818 169.807228,28.421094 169.88,28.59 C170.109478,29.1272748 169.986466,29.7502683 169.57,30.16 C169.438144,30.2895969 169.281759,30.3915871 169.11,30.46 C168.928761,30.5327061 168.735279,30.5700448 168.54,30.57 C168.344674,30.5705448 168.151097,30.5331879 167.97,30.46 C167.623144,30.3233715 167.345707,30.0531411 167.2,29.71 C167.123437,29.5365966 167.082624,29.3495357 167.08,29.16 L167.08,29.15 Z" id="Shape" fill="#9ACDED" fill-rule="nonzero"></path>
                <circle id="Oval" fill="#9ACDED" fill-rule="nonzero" cx="74.18" cy="124.02" r="1.73"></circle>
                <circle id="Oval" fill="#9ACDED" fill-rule="nonzero" cx="79.44" cy="124.02" r="1.73"></circle>
                <circle id="Oval" fill="#9ACDED" fill-rule="nonzero" cx="84.7" cy="124.02" r="1.73"></circle>
                <circle id="Oval" stroke="#E1F2FF" stroke-width="2" cx="149.11" cy="44.44" r="12.16"></circle>
                <path d="M150.07,91.36 C150.07,91.36 170.67,102.29 160.13,124.71" id="Shape" stroke="#E1F2FF" stroke-width="2" stroke-linecap="round" stroke-linejoin="round"></path>
                <polygon id="Shape" fill="#E1F2FF" fill-rule="nonzero" points="155 115.39 156.88 114.69 160.29 123.95 169.27 119.87 170.1 121.69 159.16 126.66"></polygon>
                <path d="M165.9,65.42 L176.62,65.42" id="Shape" stroke="#E1F2FF" stroke-width="2" fill="#FFFFFF" fill-rule="nonzero" stroke-linecap="round" stroke-linejoin="round"></path>
                <path d="M165.9,69.45 L176.62,69.45" id="Shape" stroke="#E1F2FF" stroke-width="2" fill="#FFFFFF" fill-rule="nonzero" stroke-linecap="round" stroke-linejoin="round"></path>
                <path d="M165.9,73.48 L171.72,73.48" id="Shape" stroke="#E1F2FF" stroke-width="2" fill="#FFFFFF" fill-rule="nonzero" stroke-linecap="round" stroke-linejoin="round"></path>
                <path d="M165.9,77.45 L174.17,77.45" id="Shape" stroke="#E1F2FF" stroke-width="2" fill="#FFFFFF" fill-rule="nonzero" stroke-linecap="round" stroke-linejoin="round"></path>
                <path d="M165.9,81.48 L176.62,81.48" id="Shape" stroke="#E1F2FF" stroke-width="2" fill="#FFFFFF" fill-rule="nonzero" stroke-linecap="round" stroke-linejoin="round"></path>
                <path d="M73.61,39.44 L86.73,39.44" id="Shape" stroke="#E1F2FF" stroke-width="2" fill="#FFFFFF" fill-rule="nonzero" stroke-linecap="round" stroke-linejoin="round"></path>
                <path d="M73.61,43.47 L83.73,43.47" id="Shape" stroke="#E1F2FF" stroke-width="2" fill="#FFFFFF" fill-rule="nonzero" stroke-linecap="round" stroke-linejoin="round"></path>
                <path d="M73.61,47.5 L80.73,47.5" id="Shape" stroke="#E1F2FF" stroke-width="2" fill="#FFFFFF" fill-rule="nonzero" stroke-linecap="round" stroke-linejoin="round"></path>
                <path d="M73.61,51.76 L86.73,51.76" id="Shape" stroke="#E1F2FF" stroke-width="2" fill="#FFFFFF" fill-rule="nonzero" stroke-linecap="round" stroke-linejoin="round"></path>
                <path d="M73.61,55.79 L86.73,55.79" id="Shape" stroke="#E1F2FF" stroke-width="2" fill="#FFFFFF" fill-rule="nonzero" stroke-linecap="round" stroke-linejoin="round"></path>
                <path d="M73.61,59.82 L80.73,59.82" id="Shape" stroke="#E1F2FF" stroke-width="2" fill="#FFFFFF" fill-rule="nonzero" stroke-linecap="round" stroke-linejoin="round"></path>
                <rect id="Rectangle-path" fill="#E1F2FF" fill-rule="nonzero" x="91.7" y="135.55" width="8.33" height="8.33" rx="2"></rect>
                <rect id="Rectangle-path" fill="#E1F2FF" fill-rule="nonzero" x="91.7" y="149.14" width="8.33" height="8.33" rx="2"></rect>
                <rect id="Rectangle-path" fill="#E1F2FF" fill-rule="nonzero" x="91.7" y="162.73" width="8.33" height="8.33" rx="2"></rect>
                <path d="M109.5,141.16 C111.11,140.04 112.7,138.83 114.36,137.79 C115.214155,137.008693 116.242756,136.442963 117.36,136.14 C118.48,135.213333 119.306667,135.463333 119.84,136.89 C121.2,137.89 121.52,140.65 123.19,141.24 C124.110601,141.479266 125.090124,141.267778 125.83,140.67 C126.45,140.28 126.74,139.44 127.32,139.08 C128.94,138.08 130.32,138.74 131.84,139.29 C133.36,139.84 133.49,140.29 135.09,140.15 C135.65,140.15 136.09,139.41 136.58,139.26 C138.38,138.72 139.01,139.37 140.4,139.88 C144.75,141.48 148.01,140.29 152.63,139.23 C154.04,138.91 153.44,136.74 152.03,137.06 C150.62,137.38 148.94,137.92 147.4,138.12 C144.75,138.46 142.58,137.6 140.27,136.76 C139.08,136.33 138.69,135.88 137.27,135.99 C136.72,135.99 136.27,136.65 135.77,136.85 C132.63,138.16 133.77,137.51 131.61,136.31 C130.524209,135.51372 129.123614,135.283384 127.84,135.69 C126.66,136.12 125.74,138.32 124.84,138.53 C123,138.96 121.18,134.29 119.78,133.53 C116.27,131.63 110.96,137.43 108.38,139.22 C107.2,140.04 108.32,141.99 109.52,141.16 L109.5,141.16 Z" id="Shape" fill="#9ACDED" fill-rule="nonzero"></path>
                <path d="M109.76,168.82 C115.06,166.07 118.14,165.3 123.76,167.61 C126.58,168.78 127.68,167.3 130.96,167.46 C133.68,167.59 135.8,168.46 138.5,167.46 C141.66,166.33 141.14,165.35 145.8,165.74 C148.26,165.95 150.89,166.92 153.31,167.47 C154.72,167.8 155.31,165.63 153.91,165.3 C150.15,164.43 145.3,162.3 141.41,163.52 C138.22,164.52 136.49,165.98 132.81,165.44 C131.31543,165.146656 129.792123,165.025866 128.27,165.08 C126.39,165.21 126.07,165.62 123.92,164.87 C122.725161,164.337218 121.473866,163.941366 120.19,163.69 C116.03,163.16 112.26,164.97 108.66,166.83 C107.37,167.5 108.51,169.44 109.8,168.77 L109.76,168.82 Z" id="Shape" fill="#9ACDED" fill-rule="nonzero"></path>
                <path d="M110.49,154.48 C112.370537,154.296997 114.233246,153.962579 116.06,153.48 C118.42,152.95 119.99,152.53 122.35,153.48 C123.35,153.9 124.03,154.4 124.92,154.77 C126.92,155.61 127.31,155.35 129.02,154.21 C130.58,153.21 130.2,152.76 132.19,153.85 C133.19,154.42 133.99,155.48 135.25,155.64 C137.8,155.97 138.61,153.38 140.3,152.07 L138.7,152.07 C141.47,154.79 144,153.5 147.58,153.43 C148.980098,153.521031 150.386021,153.450567 151.77,153.22 C152.86,152.97 153.19,151.74 154.14,152.55 C155.09,153.36 156.84,151.9 155.73,150.96 C155.077485,150.302428 154.246585,149.850474 153.34,149.66 C152.84854,149.537478 152.334407,149.747989 152.07,150.18 C150.9,151.84 141.34,151.52 140.28,150.48 C139.833348,150.059645 139.136652,150.059645 138.69,150.48 C137.33,151.53 136.75,153.22 134.54,152.83 C133.25,152.61 132.38,150.69 130.97,150.43 C129.56,150.17 129.36,150.87 128.21,151.33 C127.06,151.79 127.09,152.33 124.85,151.76 C123.65,151.43 123.33,150.85 122,150.58 C118.15,149.79 114.25,151.95 110.47,152.19 C109.03,152.28 109.02,154.53 110.47,154.44 L110.49,154.48 Z" id="Shape" fill="#9ACDED" fill-rule="nonzero"></path>
            </g>
        </g>
    </g>
</svg>