<svg xmlns="http://www.w3.org/2000/svg" width="252" height="208">
    <defs>
        <linearGradient id="a" x1="13.64%" x2="100.21%" y1="80.78%" y2="36.56%">
            <stop stop-color="#5C257E" offset="4%"/>
            <stop stop-color="#8C5099" offset="97%"/>
        </linearGradient>
        <linearGradient id="b" x1="98.73%" x2="-2.27%" y1="146.79%" y2="10.72%">
            <stop stop-color="#5C257E" offset="4%"/>
            <stop stop-color="#FFF" offset="100%"/>
        </linearGradient>
        <linearGradient id="c" x1="41377%" x2="41377%" y1="36839%" y2="34902%">
            <stop stop-color="#5C257E" offset="4%"/>
            <stop stop-color="#FFF" offset="100%"/>
        </linearGradient>
        <linearGradient id="d" x1="25.14%" x2="68.22%" y1="12.57%" y2="106.54%">
            <stop stop-color="#4E256F" offset="23%"/>
            <stop stop-color="#5C257E" offset="84%"/>
        </linearGradient>
        <linearGradient id="e" x1="42387%" x2="42387%" y1="35250%" y2="36758%">
            <stop stop-color="#4E256F" offset="23%"/>
            <stop stop-color="#5C257E" offset="84%"/>
        </linearGradient>
    </defs>
    <g fill="none" fill-rule="evenodd">
        <path fill="#E1F2FF" fill-rule="nonzero" d="M23 205.56C23 148.36 69.37 102 126.56 102c57.2 0 103.56 46.37 103.56 103.56H23z"/>
        <g fill="#FFF" fill-rule="nonzero" stroke="#375D81" stroke-width="2" stroke-linecap="round" stroke-linejoin="round">
            <path d="M18 197h36M60 197h176.9M244 197h6.97M1 197h8.97M93 207h67.2M169 207h9.14M85 206l-5 .08"/>
        </g>
        <g stroke="#375D81" stroke-linecap="round">
            <path stroke-width="2" d="M204 14v7M207 17h-7M78 1v7M82 5h-7" stroke-linejoin="round"/>
            <path d="M40.73 165.68v3.94M42.7 167.65h-3.94"/>
            <path d="M215.73 105.68v3.94M217.7 107.65h-3.94" stroke-linejoin="round"/>
            <path d="M46.73 65.68v3.94M48.7 67.65h-3.94"/>
            <path fill="#FFF" fill-rule="nonzero" stroke-width="2" d="M24.42 104.28v8.12M28.48 108.34h-8.13"/>
        </g>
        <g transform="translate(110 68)">
            <path fill="#9452BA" fill-rule="nonzero" stroke="#52267D" stroke-width="2" d="M61.88 128h6.24c2.14 0 4.07-1.3 4.85-3.3 2.2-5.66 1.66-10.86 1.92-15.32.48-8.26-.8-12.46-2.04-19.38l-9.32.2s.8 3.44 1.32 13.7c.16 3.2-5.1 15.98-4.85 22.24.04 1.02.86 1.84 1.88 1.86zM44.9 98.52L37.33 90l-4.66.2-.92 9.98c-.85 6.76-2.18 13.44-4 20-.4 1.32-.67 2.7-.76 4.07-.02 1 .37 1.97 1.08 2.67.72.7 1.7 1.1 2.7 1.08h5.54c3.24 0 6.07-2.14 6.9-5.25 2.4-9.6 1.67-24.23 1.67-24.23z"/>
            <path stroke="#52267D" stroke-width=".5" d="M34.2 104l-1.2 1.02 1.14.98 1.86-.68-.37-.8-1.54.36v.26h.4"/>
            <path fill="#9452BA" fill-rule="nonzero" stroke="#52267D" stroke-width="2" d="M34 66.78c5.44-.1 10.54-3.87 21.67-4.38.13-.66.34-1.3.6-1.92 2.02-4.36 4.86-16.93 3.03-25.2l-1.44-6.53c-.48-2.14-.7-4.33-.7-6.52 0-.9.08-1.8.26-2.67l.15-.63c.16-.63.37-1.25.62-1.85.08-.2.16-.4.25-.58l.6-1.12c.24-.37.47-.72.72-1.06.77-1.02 1.67-1.93 2.7-2.7.33-.25.68-.5 1.05-.7C65.6 9.66 67.96 9 70.4 9h2.15c3.5 0 6.88 1.4 9.36 3.9.3.28.6.6.87.93.5.6.92 1.24 1.3 1.9.15.26.3.52.4.78.14.27.2.4.27.6.5 1.2.84 2.5.97 3.8.06.45.08.9.08 1.35 0 .88-.35 1.72-.97 2.34-.6.6-1.45.95-2.32.95H68.93l2.05 11.77c2.4 12.1 1.68 20.18-.18 25.57-.4 1.24-2.8 5.46-2.8 5.46 6.8 10.7 17.18 15.38 28.3 16.74 9.43 1.16 29.85-7.47 19.3-17.44-10.53-9.96 2.2-3.73 4.07-2.5 1.86 1.26 12.68 10.62.94 24.35-4.96 5.8-10.57 11.08-24.1 15.13-2.15.65-13.98 1.5-20.37 3.34-18.97 5.45-34.4-.48-43.03-13.02-8.65-12.54-1.26-28.13.9-28.17z"/>
            <path fill="#9452BA" fill-rule="nonzero" stroke="#52267D" stroke-width="2" d="M44.97 48.3c.46-13.87-10.66-24.76-23.14-27.07-2.6-.48-3.45-1.23-6.3-1.23h-2.2C5.95 20 0 25.94 0 33.26c0 1.83 1.5 3.3 3.32 3.3H25.8c4.94 2.1 8.03 8.4 8.58 11.78.82 4.05.32 8.26-1.45 12-.96 2.14-1.32 4.5-1.05 6.82H32c.1 1.3.3 2.58.6 3.84 2.1-1.46 5.38-3.7 5.98-3.97 1.23-.68 4.2-2.23 5.52-2.98 8.37-4.8.63-7.9.87-15.76z"/>
            <path fill="#F3E3FF" fill-rule="nonzero" stroke="#52267D" d="M38.32 64.65c-.1-2.16-.44-3.27-.2-4.15 1.4-5.06 1.88-6.67 1.88-12.02-.13-5.5-3.07-10.53-7.8-13.4-2.2-.3-4.4.24-6.2 1.5 5.05 2.1 8.2 8.47 8.75 11.88.85 4.1.33 8.35-1.47 12.14-.98 2.15-1.35 4.53-1.07 6.88 0 0 6.3 2.3 6.12-2.83"/>
            <path fill="#FFF" fill-rule="nonzero" stroke="#52267D" d="M7 21.8c.07-1.34 1-2.54 2.38-3.04l2.05-.76s1.4 2.74-.2 3.43c-1.3.6-2.8.73-4.23.38z"/>
            <path fill="#FFF" fill-rule="nonzero" stroke="#52267D" d="M12 20.78c.12-2.04 1.65-3.65 3.54-3.74.64-.1 2.3 0 2.3 0s.76 3.45-1.03 3.82c-1.6.2-3.2.2-4.8-.08zM20 20.7s.5-3.5 3.8-2.53c.86.26 1.63.76 2.2 1.43 0 0-.66 2.68-1.97 2.38-1.38-.32-2.73-.74-4.03-1.27zM29 38.06s7.77-4.13 6.24-11.06c1.7 1.42 3.3 2.97 4.76 4.64 0 1.37.26 6.75-7.32 10.36-1.14-1.4-2.37-2.7-3.68-3.94z"/>
            <path fill="#F3E3FF" fill-rule="nonzero" d="M8 21.9c.04-.68.62-1.28 1.45-1.52l1.2-.38s.85 1.36-.1 1.7c-.8.3-1.7.38-2.55.2zM14 19.9c.06-1.02.8-1.84 1.75-1.9h1.17s.38 1.75-.53 1.92c-.8.1-1.6.1-2.4-.02zM21 20.36s.24-1.77 1.9-1.27c.43.12.82.37 1.1.7 0 0-.33 1.36-1 1.18-.68-.15-1.35-.36-2-.62z"/>
            <path fill="#F3E3FF" fill-rule="nonzero" d="M18.27 28.05h.6c1.73 0 3.13 1.33 3.13 2.97 0 1.65-1.4 2.98-3.13 2.98H12c0-3.3 2.82-6 6.3-6l-.03.05z" opacity=".3"/>
            <path fill="#FFF" fill-rule="nonzero" stroke="#52267D" d="M17.1 30h1.3c1.43 0 2.6 1.12 2.6 2.5S19.83 35 18.4 35H12c-.03-1.3.5-2.6 1.44-3.53.96-.94 2.28-1.47 3.65-1.47z"/>
            <circle cx="14.5" cy="33.5" r="1.5" fill="#52267D" fill-rule="nonzero"/>
            <path fill="#52267D" fill-rule="nonzero" d="M3.52 35.95c.4-.07.75-.24 1-.5L5 35l-1.04.17-.6.1c-.13.02-.23.07-.3.15-.05.08-.08.17-.05.26.03.1.1.17.2.22.1.05.2.07.32.05z"/>
            <path fill="#EAF3FB" fill-rule="nonzero" d="M30 38.48s5.88-3.14 5.8-9.48c1.24.8 2.32 1.8 3.2 3-.24 1.64-.88 3.2-1.86 4.54-2.17 2.34-4.44 3.06-7.14 1.94z"/>
            <path fill="#FFF" fill-rule="nonzero" stroke="#52267D" d="M35 37c-1.2 1.17-2.53 2.18-4 3"/>
            <path fill="#9452BA" fill-rule="nonzero" stroke="#52267D" stroke-width="2" d="M58 61.2l-1.26-2.47C51.9 47.1 51.17 40.28 53.67 29.2l1.44-6.52c.5-2.14.73-4.3.73-6.5C55.83 8.9 49.8 3 42.4 3h-2.17C32.93 3 27 8.83 27 16v.37c0 1.7 1.4 3.1 3.16 3.1h13.7l-2.08 11.7c-6.32 31.4-5.74 44.1 6.8 41.5"/>
            <path fill="#FFF" fill-rule="nonzero" stroke="#52267D" d="M34 4.8c.2-1.65 1.2-3.04 2.6-3.67.6-.17 1.24-.17 1.85 0 0 0 1.38 2.34-.23 3.18-1.3.72-2.8.9-4.22.5z"/>
            <path fill="#FFF" fill-rule="nonzero" stroke="#52267D" d="M39 3.8c.14-2.02 2-3.64 4.35-3.77.6-.04 1.22-.04 1.82 0 0 0 2 3.46-.23 3.8-1.97.23-3.97.22-5.94-.02zM47 4.63s.58-3.47 3.85-2.44c.85.27 1.6.8 2.15 1.47 0 0-.72 2.64-2.02 2.3-1.36-.34-2.7-.8-3.98-1.34z"/>
            <path fill="#F3E3FF" fill-rule="nonzero" stroke="#52267D" d="M34 65.86c.6-.4 1.28-.7 2-.86M38.2 66.38C36 57.4 40 40.25 40.7 35.98L43.6 19h1.25c.8.08 1.53.48 2.02 1.12.5.63.7 1.44.58 2.23l-2.1 14.7c-.7 4.98-1.45 28 7.17 32.97 1.84 1.06 4.83.36 5.96-.18 4.1-1.96 5.27-7.1 6.2-11.2 1.86-8.55.4-15.26 0-21.97l-.4-8.36c-.1-1.55 1.06-2.9 2.6-3.08h1.55l2.78 16.96c.84 4.82 3 21.55-6.84 29.4-.17.14 2.4.73 1.65 2.05-2.94 5.24-11.52 6.07-13.13 8.3-6.2 8.65-.4 27.07-.4 27.07-4.02-1.64-7.78-3.86-11.17-6.6-9.92-8.97-11.25-21.98-11.3-25.8 0-4.58 1.14-7.47 2.62-9.1"/>
            <path fill="#FFF" fill-rule="nonzero" stroke="#52267D" d="M120.18 74c.82-1.04 1.04-2.48.6-3.75-.25-.5-.62-.94-1.07-1.25 0 0-2.07.4-1.64 1.9.32 1.27 1.08 2.38 2.12 3.1z"/>
            <path fill="#F3E3FF" fill-rule="nonzero" d="M119.65 72c.22-.42.3-.98.18-1.5-.08-.2-.2-.38-.32-.5 0 0-.6.16-.48.8.1.5.33.92.63 1.2z"/>
            <path fill="#FFF" fill-rule="nonzero" stroke="#52267D" d="M108.3 85c-.8-2 .06-4.26 2.03-5.28.5-.28 1.03-.52 1.58-.72 0 0 3.37 2.57 1.57 3.73-1.6.98-3.34 1.74-5.17 2.27z"/>
            <path fill="#F3E3FF" fill-rule="nonzero" d="M109.15 83c-.4-1 .03-2.13 1.02-2.64.25-.14.52-.26.8-.36 0 0 1.66 1.26.77 1.86-.8.5-1.68.88-2.6 1.14z"/>
            <path fill="#FFF" fill-rule="nonzero" stroke="#52267D" d="M117.96 75s2.28 2.17.1 4.12c-.6.5-1.3.8-2.03.88 0 0-1.6-1.87-.8-2.63.84-.87 1.76-1.67 2.73-2.37z"/>
            <path fill="#F3E3FF" fill-rule="nonzero" d="M117.5 76s1.12.86 0 1.64c-.28.2-.63.33-1 .36 0 0-.8-.75-.4-1.07.45-.34.9-.65 1.4-.93z"/>
            <path fill="#FFF" fill-rule="nonzero" stroke="#52267D" d="M97.1 86.77c-.42-1.83.58-3.7 2.26-4.18 3.03-1.2 3.84-.2 3.84-.2s1.67 3.05.18 4.06c-1.5 1-6.28.3-6.28.3z"/>
            <path fill="#F3E3FF" fill-rule="nonzero" d="M98.05 85.92c-.23-.74.34-1.48 1.3-1.68 1.73-.48 2.2-.1 2.2-.1s.95 1.24.1 1.64c-1.18.24-2.4.28-3.6.14z"/>
            <path fill="#FFF" fill-rule="nonzero" stroke="#52267D" d="M42.98 23c3.8 1.64 8.15 1.73 12.02.25l-1.47 6.16S47.08 31.3 42 28.33c.53-2.7.98-5.32.98-5.32zM79 10.8c-.2-1.52-1.1-2.83-2.4-3.42-.83-.22-1.67-.35-2.5-.38 0 0-.53 2.63.97 3.36 1.22.66 2.6.82 3.93.44zM74 9.8c-.12-2.02-1.72-3.64-3.73-3.77-.52-.04-1.04-.04-1.56 0 0 0-1.72 3.47.22 3.8 1.68.23 3.4.22 5.08-.02zM67 9.6s-.6-3.4-3.85-2.43c-.86.3-1.6.84-2.15 1.54 0 0 .73 2.6 2.02 2.27 1.37-.35 2.7-.8 3.98-1.36z"/>
            <path fill="#F3E3FF" fill-rule="nonzero" d="M35 3.9c.12-.82.72-1.52 1.55-1.83.37-.1.76-.1 1.12 0 0 0 .83 1.16-.14 1.58-.78.36-1.68.45-2.53.25zM41 2.86c.08-1.53 1.14-2.74 2.48-2.83.34-.04.7-.04 1.03 0 0 0 1.2 2.6-.12 2.84-1.12.18-2.26.17-3.38 0zM48 4.3s.3-1.72 1.93-1.2c.42.14.8.4 1.07.73 0 0-.37 1.33-1.02 1.15-.68-.17-1.34-.4-1.98-.67zM79 9.9c-.12-.77-.67-1.42-1.45-1.7-.5-.13-1-.2-1.5-.2 0 0-.3 1.25.6 1.68.72.33 1.56.4 2.35.2zM72 8.9c-.06-1-.86-1.82-1.86-1.88-.26-.03-.53-.03-.8 0 0 0-.85 1.73.12 1.9.84.1 1.7.1 2.54 0zM66 9.32s-.3-1.75-1.92-1.22c-.43.14-.8.4-1.08.74 0 0 .36 1.33 1.02 1.14.68-.16 1.34-.4 1.98-.66z"/>
            <path fill="#FFF" fill-rule="nonzero" stroke="#52267D" d="M58 28.46c4.02.52 8.1.36 12.06-.46.57 3.08.94 5.4.94 5.4s-4.07 2.67-11.6 1.12c-.9-3.95-1.4-6.06-1.4-6.06z"/>
            <path fill="#F3E3FF" fill-rule="nonzero" d="M74.96 22.95h-6.84c-1.73 0-3.12-1.33-3.12-2.97 0-1.65 1.4-2.98 3.12-2.98h.6C72.2 17 75 19.7 75 23l-.04-.05z" opacity=".3"/>
            <path fill="#FFF" fill-rule="nonzero" stroke="#52267D" d="M75 23h-6.25C67.23 23 66 21.8 66 20.32c0-1.28 1.06-2.32 2.38-2.32h1.5C72.7 18 75 20.24 75 23z"/>
            <circle cx="71.5" cy="20.5" r="1.5" fill="#52267D" fill-rule="nonzero"/>
            <path fill="#F3E3FF" fill-rule="nonzero" d="M43.25 11.05h.6c.83 0 1.63.3 2.22.85.6.56.93 1.33.93 2.12 0 1.65-1.4 2.98-3.1 2.98H37c0-3.3 2.8-6 6.25-6v.05z" opacity=".3"/>
            <path fill="#FFF" fill-rule="nonzero" stroke="#52267D" d="M43.06 12h1.32c1.45 0 2.62 1.12 2.62 2.5S45.83 17 44.38 17H38c-.03-1.3.48-2.57 1.43-3.5.96-.95 2.26-1.5 3.63-1.5z"/>
            <circle cx="43.5" cy="15.5" r="1.5" fill="#52267D" fill-rule="nonzero"/>
            <path fill="#52267D" fill-rule="nonzero" d="M82.48 23.95c-.4-.07-.75-.24-1-.5L81 23l1.04.17.6.1c.13.02.23.07.3.15.05.08.08.17.05.26-.03.1-.1.17-.2.22-.1.05-.2.07-.32.05zM30.52 17.95c.4-.07.75-.24 1-.5L32 17l-1.04.17-.6.1c-.13.02-.23.07-.3.15-.05.08-.08.17-.05.26.03.1.1.17.2.22.1.05.2.07.32.05z"/>
            <path fill="#EAF3FB" fill-rule="nonzero" d="M44 24c3.2 1.32 6.75 1.4 10 .2-.25 1.6-.58 3.2-1 4.76-1.67.1-3.35.02-5-.24-2.87-.54-4-1.93-4-4.72z"/>
            <path fill="#FFF" fill-rule="nonzero" stroke="#52267D" d="M51 26.97c-2.74.14-5.5-.2-8-.97"/>
            <path fill="#EAF3FB" fill-rule="nonzero" d="M67 30c-2.6.68-5.33.83-8 .45.28 1.2.65 2.4 1.1 3.55 0 0 5.6-.73 6.9-4z"/>
            <path fill="#F3E3FF" fill-rule="nonzero" stroke="#52267D" stroke-width=".5" d="M64.53 71s-.22.16-.53.34"/>
            <path fill="#FFF" fill-rule="nonzero" stroke="#52267D" d="M67 31c-2.97.4-6 .5-9 .23"/>
            <path fill="#FFF" fill-rule="nonzero" stroke="#52267D" stroke-width=".5" d="M60.2 123.35c-.94-.57-2.2-.43-2.98.32-1.57 1.2-2.68 2.9-2.03 3.1 1.03.25 2.13.3 3.2.14 1.13-.17 2.12 0 2.58-2.08.1-.6-.2-1.18-.77-1.47z"/>
            <path fill="#EAF3FB" fill-rule="nonzero" d="M59.6 124.26c-.47-.42-1.1-.32-1.48.24-.78.87-1.36 2.2-1.02 2.33.52.2 1.07.22 1.6.1.56-.15 1.07 0 1.3-1.58.04-.43-.1-.87-.4-1.1z"/>
            <path fill="#FFF" fill-rule="nonzero" stroke="#52267D" stroke-width=".5" d="M61.66 124c.6-.1 1.42 1.3 1.33 1.8-.1.47-.17 1.87-1.15 2.03-.7.12-3.18.4-3.72-.2-.53-.62.52-3.16 3.53-3.63z"/>
            <path fill="#EAF3FB" fill-rule="nonzero" d="M62.2 124c.35 0 .85.67.8.9-.06.2-.1.93-.67 1-.58.08-1.92.2-2.25-.1-.32-.3.3-1.57 2.12-1.8z"/>
            <path fill="#FFF" fill-rule="nonzero" stroke="#52267D" stroke-width=".5" d="M64.62 124.07s-.53-.3-1.6.38c-1.05.7-2.32 1.57-1.96 2.76.37 1.2 3.33.77 3.98.5.65-.26 1.04-1 .95-1.78-.13-.85-.65-1.57-1.38-1.85z"/>
            <path fill="#EAF3FB" fill-rule="nonzero" d="M65.22 124.04s-.32-.16-.96.18c-.63.35-1.4.8-1.24 1.4.16.58 2 .36 2.4.24.4-.13.63-.5.57-.88-.06-.42-.36-.78-.78-.94z"/>
            <path fill="#9452BA" fill-rule="nonzero" stroke="#52267D" stroke-width="2" d="M51.56 90c.3 6.02-.1 12.05-1.16 17.98-1.66 10.23-4.6 13.44-4.4 16.1.17 2.04 1.05 3.92 3.13 3.92h6.17c2.88 0 5.44-1.84 6.35-4.55.97-2.9 1.64-5.9 2-8.94.35-4.42.44-8.86.27-13.3M83.3 94c-2.06 1.85-3.2 4.46-3.14 7.17 0 3.5 2.1 7.9.78 13.7-1.18 5.15-3.5 6.06-2.8 10.7.13.83.9 1.44 1.76 1.43h7c3.2 0 5.95-2.26 6.47-5.34 1.05-7.3.78-14.7-.8-21.9"/>
            <path stroke="#52267D" stroke-width=".5" d="M84.4 101.2l.38-.26 1.22.26-1.36.8-1.64-.75 1.7-1.25.78.24"/>
            <path fill="#FFF" fill-rule="nonzero" stroke="#52267D" d="M48.2 123.35c-.94-.57-2.2-.43-2.98.32-1.57 1.2-2.68 2.9-2.03 3.1 1.03.25 2.13.3 3.2.14 1.13-.17 2.12 0 2.58-2.08.1-.6-.2-1.18-.77-1.47z"/>
            <path fill="#EAF3FB" fill-rule="nonzero" d="M47.6 124.26c-.47-.42-1.1-.32-1.48.24-.78.87-1.36 2.2-1.02 2.33.52.2 1.07.22 1.6.1.56-.15 1.07 0 1.3-1.58.04-.43-.1-.87-.4-1.1z"/>
            <path stroke="#52267D" stroke-width=".5" d="M57.45 106l-2.45.72.32 2.1 2.5.18 1.18-1.26-1.5-.78-1.25.34.8.82"/>
            <g stroke="#F3E3FF" stroke-width=".25" opacity=".3">
                <path d="M4.24 30.78c-.03.25.1.5.3.65.23.14.5.14.73 0 .23-.14.34-.4.3-.65"/>
                <path d="M2.9 30.78c-.03.25.1.5.3.65.24.14.52.14.74 0 .22-.14.34-.4.3-.65"/>
                <path d="M3.57 31.44c.05.33.33.58.67.58s.62-.25.67-.58M29.85 30.16c.3.2.7.24 1.02.08.33-.17.53-.5.54-.87 0-.36-.2-.7-.52-.87"/>
                <path d="M30.16 31.5c.3.22.7.25 1.02.08.33-.16.54-.5.54-.86 0-.37-.2-.7-.53-.87M61.56 52.4c0 .5.4.9.9.9s.9-.4.9-.9M59.76 52.4c0 .5.4.9.9.9s.9-.4.9-.9"/>
                <path d="M60.6 53.3c0 .5.4.88.9.88s.9-.4.9-.9M34.8 108.64c0 .5.4.9.88.9.5 0 .9-.4.9-.9M33 108.64c0 .5.4.9.9.9s.9-.4.9-.9M33.9 109.57c0 .5.4.9.9.9.48 0 .88-.4.88-.9M60.16 24.1c0 .53.44.97 1 .97.53 0 .97-.44.97-.98M59.18 25.07c0 .53.44.97.98.97.55 0 1-.44 1-.97M47.58 41.33c-.15.5.04 1.05.47 1.35.44.3 1.02.3 1.45 0 .43-.3.62-.84.47-1.35"/>
                <path d="M46.38 42.52c.16.52.65.9 1.2.9.55 0 1.04-.38 1.2-.9M30.2 11.84c0 .44.35.8.8.8.43 0 .8-.36.8-.8M29.44 12.64c0 .44.35.8.8.8.43 0 .8-.36.8-.8M105.5 91.82c.35.38.94.42 1.33.08.4-.34.43-.93.1-1.32"/>
                <path d="M105.42 93.1c.34.4.94.43 1.33.08.4-.34.42-.93.08-1.3M68.9 79.2c.28.5.9.72 1.4.48.53-.23.78-.83.58-1.36M66.93 80.1c.27.5.9.7 1.4.47.53-.23.78-.83.57-1.36M68.37 80.63c.27.5.88.7 1.4.47.52-.23.77-.83.57-1.36"/>
                <path d="M66.4 81.52c.27.5.88.7 1.4.47.52-.24.77-.84.57-1.37M69.8 81.15c.15.38.5.64.9.7.4.04.8-.14 1-.47.24-.33.26-.76.07-1.12M50.07 19.86c0 .6.5 1.08 1.1 1.08.6 0 1.1-.48 1.1-1.08M49.7 60.7c0 .6.5 1.1 1.1 1.1.6 0 1.08-.5 1.08-1.1M62.06 38.2c0 .44.37.8.83.8.45 0 .82-.36.82-.8M81.74 19.6c0 .33.28.6.62.6.34 0 .62-.27.62-.6M86.9 109.88c.1.58.67.98 1.26.87.6-.1 1-.66.88-1.24M56.77 117.9c.16.53.64.9 1.2.9.55 0 1.04-.37 1.2-.9M55.62 119.08c.16.53.65.9 1.2.9.55 0 1.04-.37 1.2-.9"/>
            </g>
            <path fill="#FFF" fill-rule="nonzero" stroke="#52267D" d="M49.66 124c.6-.1 1.42 1.3 1.33 1.8-.1.47-.17 1.87-1.15 2.03-.7.12-3.18.4-3.72-.2-.53-.62.52-3.16 3.53-3.63z"/>
            <path fill="#EAF3FB" fill-rule="nonzero" d="M49.2 124c.35 0 .85.67.8.9-.06.2-.1.93-.67 1-.58.08-1.92.2-2.25-.1-.32-.3.3-1.57 2.12-1.8z"/>
            <path fill="#FFF" fill-rule="nonzero" stroke="#52267D" d="M51.6 124.05s-.52-.23-1.58.28c-1.06.5-2.32 1.17-1.95 2.07.37.9 3.3.56 3.97.38.65-.2 1.04-.75.95-1.33-.12-.65-.66-1.2-1.4-1.4z"/>
            <path fill="#EAF3FB" fill-rule="nonzero" d="M52.16 125.04s-.32-.16-.95.18c-.62.34-1.38.8-1.16 1.38.22.6 2 .38 2.38.25.4-.12.63-.5.57-.88-.08-.44-.4-.8-.84-.93z"/>
            <path fill="#FFF" fill-rule="nonzero" stroke="#52267D" d="M26.6 125.05s-.52-.23-1.58.28c-1.06.5-2.32 1.17-1.95 2.07.37.9 3.3.56 3.97.38.65-.2 1.04-.75.95-1.33-.12-.65-.66-1.2-1.4-1.4z"/>
            <path fill="#EAF3FB" fill-rule="nonzero" d="M27.16 125.04s-.32-.16-.95.18c-.62.34-1.38.8-1.16 1.38.22.6 2 .38 2.38.25.4-.12.63-.5.57-.88-.08-.44-.4-.8-.84-.93z"/>
            <path fill="#FFF" fill-rule="nonzero" stroke="#52267D" d="M28.66 124c.6-.1 1.42 1.3 1.33 1.8-.1.47-.17 1.87-1.15 2.03-.7.12-3.18.4-3.7-.2-.55-.62.48-3.17 3.5-3.63z"/>
            <path fill="#EAF3FB" fill-rule="nonzero" d="M29.2 124c.35 0 .85.67.8.9-.06.2-.1.93-.67 1-.58.08-1.92.2-2.25-.1-.32-.3.3-1.57 2.12-1.8z"/>
            <path fill="#FFF" fill-rule="nonzero" stroke="#52267D" stroke-width=".5" d="M81.2 123.35c-.94-.57-2.2-.43-2.98.32-1.57 1.2-2.68 2.9-2.03 3.1 1.03.25 2.13.3 3.2.14 1.13-.17 2.12 0 2.58-2.08.1-.6-.2-1.18-.77-1.47z"/>
            <path fill="#EAF3FB" fill-rule="nonzero" d="M80.6 124.26c-.47-.42-1.1-.32-1.48.24-.78.87-1.36 2.2-1.02 2.33.52.2 1.07.22 1.6.1.56-.15 1.07 0 1.3-1.58.04-.43-.1-.87-.4-1.1z"/>
            <path fill="#FFF" fill-rule="nonzero" stroke="#52267D" stroke-width=".5" d="M82.66 124c.6-.1 1.42 1.3 1.33 1.8-.1.47-.17 1.87-1.15 2.03-.7.12-3.18.4-3.72-.2-.53-.62.52-3.16 3.53-3.63z"/>
            <path fill="#EAF3FB" fill-rule="nonzero" d="M83.2 124c.35 0 .85.67.8.9-.06.2-.1.93-.67 1-.58.08-1.92.2-2.25-.1-.32-.3.3-1.57 2.12-1.8z"/>
            <path fill="#FFF" fill-rule="nonzero" stroke="#52267D" stroke-width=".5" d="M85.6 124.05s-.52-.23-1.58.28c-1.06.5-2.32 1.17-1.95 2.07.37.9 3.3.56 3.97.38.65-.2 1.04-.75.95-1.33-.12-.65-.66-1.2-1.4-1.4z"/>
            <path fill="#EAF3FB" fill-rule="nonzero" d="M85.16 125.04s-.32-.16-.95.18c-.62.34-1.38.8-1.16 1.38.22.6 2 .38 2.38.25.4-.12.63-.5.57-.88-.08-.44-.4-.8-.84-.93z"/>
            <path fill="#FFF" fill-rule="nonzero" stroke="#52267D" d="M37.97 124.15c.18-.15.44-.2.67-.1.76.3 2.7 1.14 2.3 2.28-.3.9-.97.63-2.23.64h-.96c-.2 0-.38-.08-.48-.22-.5-.88-.25-1.93.64-2.57l.07-.03z"/>
            <path fill="#EAF3FB" fill-rule="nonzero" d="M37.74 125.1c.13-.1.33-.13.5-.07.57.2 2.02.76 1.72 1.53-.23.6-.73.4-1.68.42h-.72c-.15 0-.3-.05-.36-.15-.4-.58-.2-1.28.47-1.7l.07-.03z"/>
            <path fill="#FFF" fill-rule="nonzero" stroke="#52267D" d="M33.35 124.46c-.87-.65-2.1-.6-2.92.1-1.6 1.06-2.9 2.8-2.26 3.02 1 .35 2.05.48 3.1.4 1.1-.1 2.05.17 2.68-1.95.16-.6-.07-1.22-.6-1.57z"/>
            <path fill="#EAF3FB" fill-rule="nonzero" d="M33.58 124.26c-.56-.35-1.4-.35-1.95 0-1.08.53-1.96 1.4-1.5 1.53.65.16 1.36.23 2.07.2.74-.06 1.4.08 1.78-1.02.07-.27-.08-.56-.4-.72z"/>
        </g>
        <g fill-rule="nonzero">
            <path fill="#1D1D1B" d="M165.46 51.6c.04-.34-.08-.67-.32-.9-.28-.17-.6-.26-.93-.24-.22 0-.46.02-.7.06-.2.04-.42.1-.63.16-.15-.26-.22-.56-.2-.85.25-.1.53-.15.8-.18.28-.05.56-.07.85-.07.6-.04 1.17.13 1.63.5.4.4.6.98.55 1.56v3.45l-.92.17c-.36.06-.73.1-1.1.1-.32 0-.64-.04-.95-.1-.26-.06-.5-.17-.72-.32-.2-.14-.35-.33-.45-.55-.12-.25-.17-.53-.16-.8-.02-.3.05-.56.17-.8.13-.25.3-.45.52-.6.2-.16.46-.27.73-.34.3-.08.58-.1.88-.1h.58l.37.02v-.2zm0 1.03l-.4-.04h-.43c-.35-.03-.7.06-1 .24-.25.18-.4.46-.36.76 0 .17.03.35.12.5.06.12.16.2.28.28.12.07.26.1.4.12l.4.02c.17 0 .34 0 .5-.03.17-.02.32-.05.48-.1v-1.77zM168.06 47.35l.27-.04h.52l.27.05v7.88c-.1 0-.18.02-.27.03h-.54c-.1 0-.18-.02-.27-.03v-7.88zm1.1 5.02l2-2.66.3-.02H172.03c.1 0 .2 0 .3.03l-2.02 2.6 2.3 2.93c-.1 0-.18.02-.28.03h-.6c-.1 0-.2 0-.3-.03l-2.3-2.86zM174.2 52.73c-.02.5.15.96.48 1.32.36.3.84.46 1.3.42.5 0 1-.08 1.46-.26.07.13.12.26.14.4.04.15.06.3.07.46-.25.1-.5.18-.78.23-.3.04-.6.06-.92.06-.44 0-.88-.06-1.3-.2-.67-.26-1.2-.8-1.38-1.5-.1-.38-.17-.76-.16-1.15 0-.38.06-.76.16-1.14.1-.33.25-.65.46-.92.22-.27.5-.5.8-.65.38-.17.77-.25 1.17-.24.33 0 .67.06 1 .2.27.12.5.3.7.53.2.22.36.5.45.8.1.32.16.67.15 1v.33c0 .1 0 .2-.02.28l-3.77.03zm2.75-.8c0-.2-.03-.38-.08-.57-.05-.17-.13-.33-.24-.46-.1-.14-.24-.26-.4-.33-.18-.1-.37-.13-.57-.13-.38-.02-.75.13-1 .4-.26.32-.4.7-.43 1.1h2.72zM179.4 49.7l.23-.02h.45c.08 0 .15.02.22.03l.07.44c.02.16.03.3.03.47.08-.12.17-.25.28-.36.1-.12.24-.23.38-.33.15-.1.32-.17.5-.22.2-.07.4-.1.6-.1.52-.03 1.03.16 1.4.55.33.46.5 1.03.45 1.6v3.5c-.08.02-.17.03-.26.03h-.53c-.08 0-.17 0-.25-.03v-3.2c.02-.4-.06-.8-.24-1.13-.16-.25-.45-.4-.74-.36-.2 0-.4.03-.58.1-.17.08-.33.2-.46.34-.15.17-.26.37-.33.58-.1.28-.14.58-.13.87v2.8c-.1 0-.18.02-.26.03h-.53c-.1 0-.17-.02-.26-.03V49.7zM186.4 52.73c-.02.5.15.96.48 1.32.36.3.84.46 1.3.42.5 0 1-.1 1.47-.26.06.13.1.26.14.4l.05.46c-.25.1-.5.18-.78.23-.3.04-.6.06-.92.06-.44 0-.88-.06-1.3-.2-.33-.13-.63-.34-.88-.6-.24-.26-.4-.58-.5-.92-.12-.37-.18-.76-.17-1.15 0-.4.05-.78.15-1.15.1-.34.25-.66.47-.93.22-.27.5-.48.8-.63.37-.17.77-.25 1.17-.24.33 0 .67.06 1 .2.26.12.5.3.7.53.2.22.37.5.47.8.1.33.15.67.15 1v.33c0 .1 0 .2-.03.28l-3.8.03zm2.74-.8c0-.2-.02-.38-.07-.57-.06-.17-.14-.32-.24-.46-.1-.14-.24-.26-.4-.33-.18-.1-.38-.13-.57-.13-.38-.02-.75.13-1 .4-.26.32-.4.7-.44 1.1h2.72zM193.83 55.34c-.38 0-.77-.07-1.12-.22-.3-.14-.58-.35-.8-.6-.22-.28-.37-.6-.46-.93-.2-.76-.2-1.55 0-2.3.1-.33.24-.65.46-.92.22-.25.5-.45.8-.6.73-.3 1.54-.3 2.27 0 .3.16.57.37.8.64.2.27.36.58.45.92.2.75.2 1.54 0 2.28-.1.34-.25.65-.46.93-.22.26-.5.47-.8.6-.36.14-.74.2-1.13.2zm0-.85c.44.02.86-.2 1.1-.55.26-.45.4-.96.36-1.48.02-.52-.1-1.03-.36-1.48-.25-.38-.67-.58-1.1-.55-.43-.03-.85.17-1.1.54-.25.44-.37.95-.34 1.47-.03.52.1 1.04.35 1.5.24.36.65.56 1.08.54z"/>
            <path fill="url(#a)" d="M117.07 33.08l.08.23c0 .04 0 0 0 0-.18-2.6 1.32-3.62 1.85-5.33v-.08l.03-.13c.04-.58-.12-1.15-.46-1.62l-.1-.15c-.05-.1-.1-.18-.18-.27v-.03l-.06-.08-.06-.07-.06-.08-.06-.07-.04-.06c-.6-.73-1.3-1.4-2.06-1.97.07.9.05 1.82-.07 2.73-.18 1.04-.52 2.06-1 3-1.06-.1-2.1-.4-3.06-.8-.83-.42-1.6-.9-2.3-1.48v.25c-.02.02-.02.05 0 .07v.5l.04.23c0 .08 0 .17.03.25 0 0 0 .16.05.23v.05l.04.2v.04c0 .08.02.16.04.23.06.24.12.46.2.7.1.36.23.7.4 1.05l.06.13c.02.04.04.08.07.1l.07.13.1.15v.03l.1.15.1.1.04.03c0 .03.03.04.05.06l.04.04.06.04.04.03.05.05.05.02.06.04h.04l.07.03h.03c.03.03.07.05.1.05l.07.03c1.7.52 3.42-.15 5.48 1.43" transform="translate(41 23)"/>
            <g opacity=".8">
                <path fill="url(#b)" d="M6.42 3c-.18 1.04-.52 2.06-1 3 1.92.23 3.8-.06 4.12-1.2C9.9 3.6 8.3 1.7 6.5.3c.07.9.04 1.8-.08 2.7z" opacity=".51" transform="translate(150.484 46.098)"/>
                <path fill="url(#c)" d="M2.35 5.17c-.82-.4-1.6-.9-2.3-1.47C.2 6 .9 8.37 2.1 8.76c1.12.35 2.4-1.04 3.3-2.77-1.07-.13-2.1-.4-3.07-.83z" opacity=".51" transform="translate(150.484 46.098)"/>
            </g>
            <g opacity=".7">
                <path fill="url(#d)" d="M3.9 7.34C2.17 6.68.8 5.37.03 3.7.1 5.02.4 6.32.92 7.53l.07.13c0 .04.03.08.05.1 0 .05.04.08.07.12l.07.1c0 .03.02.05.03.07l.04.04.07.1c.2.26.47.46.78.58l.07.02c1.7.52 3.4-.15 5.47 1.43-1-1.27-2.3-2.27-3.78-2.9z" transform="translate(150.484 46.098)"/>
                <path fill="url(#e)" d="M9.54 4.8C9.9 3.55 8.3 1.66 6.5.25c.95 1.56 1.27 3.43.86 5.22-.3 1.58-.2 3.2.3 4.73C7.5 7.6 9 6.6 9.53 4.88c0-.02 0-.05.02-.08z" transform="translate(150.484 46.098)"/>
            </g>
            <path fill="#677687" d="M50.64 40.32c0 1 .18 1.72.53 2.13.35.42 1.03.68 2.04.78l.12.2-.2.17h-7.2l-.18-.18.1-.2c1-.1 1.7-.35 2.04-.77.36-.4.53-1.12.53-2.13V28.2c-1.02-.35-2.1-.5-3.2-.47-1.93 0-3.2.9-3.78 2.7H41l.64-3.77h.28c.04.16.18.23.42.23h14.32c.25 0 .4-.08.43-.24h.28l.63 3.78-.36.03c-.63-1.85-1.9-2.77-3.83-2.77-1.07-.04-2.15.12-3.17.46v12.16zM71.9 40.37c-.03 1.72.47 2.66 1.52 2.84l.18.22-.1.18h-5.1l-.1-.18.1-.2c.62-.07 1.14-.47 1.34-1.04.16-.6.23-1.2.2-1.8l.12-4.27c.05-2.64-.9-3.96-2.86-3.96-1 0-1.95.38-2.7 1.05-.78.6-1.32 1.48-1.52 2.46v4.7c-.02.6.05 1.2.2 1.76.14.57.62 1 1.2 1.1l.17.2-.08.18h-4.85l-.1-.18.1-.2c.6-.07 1.12-.47 1.32-1.04.15-.6.2-1.2.2-1.8V28.35c0-.4-.03-.8-.12-1.2-.13-.35-.46-.6-.85-.64l-.46-.07-.1-.27.08-.1 3.08-.93H63V34c.57-.8 1.3-1.47 2.16-1.95.82-.48 1.76-.74 2.7-.73 1.17-.08 2.3.37 3.1 1.22.73.93 1.1 2.1 1.02 3.27l-.08 4.57zM87.3 39.84c-.43 1.22-1.24 2.26-2.32 2.97-1.06.74-2.32 1.13-3.6 1.12-1.65.05-3.2-.64-4.28-1.88-1.08-1.22-1.66-2.8-1.6-4.45-.06-1.7.58-3.32 1.76-4.52 1.2-1.2 2.82-1.83 4.5-1.76 1.28 0 2.53.45 3.55 1.24 1.05.7 1.75 1.8 1.94 3.04 0 .25-.46.38-1.32.38H77.6c-.04.37-.05.75-.05 1.13v.22c-.06 1.4.36 2.8 1.2 3.92.88 1.1 2.23 1.7 3.64 1.62.97 0 1.93-.3 2.72-.88.8-.54 1.42-1.33 1.75-2.24.07-.03.16-.03.23 0 .08 0 .14.05.2.1zm-9.57-4.55h7.16c-.06-.94-.42-1.83-1.05-2.5-.64-.65-1.53-1-2.43-.94-1.93 0-3.16 1.13-3.7 3.43zM117.3 43.16l.07.23-.12.2h-7.58l-.13-.2.06-.24c1.36-.1 2.06-.42 2.1-.95l.03-.4c0-.54-.13-1.07-.36-1.56l-2.5-5.96h-7.3l-2.2 5.13c-.32.67-.53 1.38-.6 2.1 0 .93.75 1.47 2.26 1.66l.07.23-.13.2h-6.3l-.14-.2.07-.24c1.3-.27 2.43-1.52 3.4-3.72l6.75-15.17.12-.9.17-.27c.2-.06.42-.1.63-.1h.2c.3 0 .6.03.88.1l.47.82 7.13 16.44c.76 1.78 1.75 2.72 2.96 2.8zm-8.8-9.96l-3.24-7.3-3.24 7.3h6.47zM118.5 26.44l.07-.1 3.05-.93h.22v11.26c1.44-.9 2.83-1.9 4.16-2.97.46-.4.7-.7.7-.98v-.1c-.06-.24-.37-.4-.92-.46-.05-.05-.1-.12-.1-.2 0-.07.05-.14.1-.2h4.93c.1.05.14.13.14.22 0 .08-.06.15-.13.18-1 .04-2.12.5-3.36 1.4l-3.92 2.84c1.24.36 2.36 1.07 3.2 2.06l2.48 2.97c.65.9 1.6 1.54 2.7 1.8l.04.13c0 .1-.04.17-.1.23h-4.75v-.27c.5 0 .75-.08.75-.24 0-.17-.1-.23-.3-.4-.48-.7-1.23-1.74-2.24-3.13-.96-1.3-1.84-2.1-2.72-2.48-.42.03-.62.34-.62.92v2.4c-.03.57.04 1.16.2 1.73.2.56.7.96 1.3 1.04l.2.2-.1.18h-5.05l-.1-.18.1-.22c.62-.05 1.16-.43 1.4-1 .2-.57.27-1.17.23-1.78V28.6c.02-.4 0-.8-.1-1.17-.13-.37-.47-.63-.86-.65l-.46-.08-.1-.26zM140.68 41.62c-1.03 1.56-2.38 2.34-4.05 2.34-.93.04-1.85-.2-2.65-.68-.8-.48-1.3-1.37-1.25-2.3 0-1.97 1.67-3.1 5.03-3.45.94-.12 1.87-.33 2.77-.65V35.4c0-2.14-.97-3.22-2.9-3.22-.73 0-1.46.2-2.08.6-.66.36-1.07 1.05-1.07 1.8l-.76-.37c-.34-.16-.55-.33-.6-.5.16-.53.85-1.05 2.1-1.55.83-.38 1.73-.6 2.65-.68 1.15-.06 2.3.27 3.23.93.92.7 1.43 1.8 1.36 2.97v5.38c0 1.45.28 2.17.83 2.17.25 0 .5-.08.7-.24l.07.27c-1.18.53-1.97.8-2.37.8-.57 0-.92-.68-1.04-2.05l.02-.08zm-.13-1.93v-2.25c-.1.05-.8.24-2.1.57-2.48.2-3.7 1.13-3.7 2.77-.03.65.24 1.28.73 1.7.52.45 1.18.68 1.85.66.88 0 1.72-.38 2.28-1.05.6-.66.95-1.52.95-2.4zM156.1 41.43c-1.36 1.66-2.9 2.48-4.6 2.48-1.53.05-3-.56-4.04-1.68-1.05-1.13-1.6-2.62-1.58-4.16-.07-1.76.6-3.47 1.85-4.72 1.24-1.25 2.95-1.92 4.7-1.85 1.36 0 2.66.46 3.7 1.3v-4.16c.03-.4-.02-.8-.13-1.2-.16-.37-.52-.6-.92-.63l-.53-.1-.1-.27.1-.1 3.18-.92h.23v14.37c0 1.64.3 2.6.93 2.9l.7-.06c0 .17-.08.32-.2.4l-3 .73-.3-2.3zm.04-2.16v-3.2c-.08-1.06-.5-2.05-1.23-2.82-.75-.74-1.78-1.13-2.84-1.1-1.3-.05-2.5.6-3.17 1.72-.66 1.1-1 2.37-.93 3.65-.03 1.3.3 2.55.96 3.65.6 1.15 1.8 1.87 3.12 1.85 1.04 0 2.04-.4 2.8-1.12.8-.64 1.28-1.6 1.3-2.63zM172.75 39.9c-.42 1.2-1.2 2.2-2.26 2.9-1.06.74-2.3 1.12-3.57 1.1-1.6.05-3.14-.63-4.2-1.84-1.07-1.2-1.64-2.77-1.6-4.38-.04-1.66.6-3.27 1.76-4.45 1.15-1.17 2.74-1.8 4.4-1.76 1.27.02 2.5.45 3.5 1.23 1.04.7 1.73 1.78 1.9 3 0 .24-.43.36-1.3.36h-8.2c-.04.38-.05.75-.05 1.12v.2c-.06 1.4.36 2.76 1.2 3.87.86 1.1 2.2 1.7 3.6 1.62.95 0 1.9-.3 2.67-.87.8-.53 1.4-1.3 1.72-2.2.08-.04.16-.05.24-.04.07.03.12.07.17.13zm-9.42-4.5h7.04c-.04-.9-.4-1.78-1.02-2.45-.63-.64-1.5-.97-2.4-.93-1.9 0-3.1 1.13-3.62 3.4zM194.78 40.42c-.04 1.68.5 2.6 1.6 2.77l.2.2-.1.18h-5.17l-.1-.18.1-.2c.6-.06 1.13-.44 1.36-1 .18-.6.26-1.2.24-1.8l.05-4.3c.06-.9-.14-1.8-.57-2.6-.47-.8-1.34-1.26-2.26-1.2-.92 0-1.78.42-2.4 1.1-.64.65-1.1 1.48-1.26 2.38v4.62c0 1.7.44 2.63 1.33 2.77l.14.2-.07.2h-5l-.1-.2.12-.2c.6-.04 1.13-.4 1.4-.96.2-.58.27-1.2.23-1.82V36.1c0-2.52-.9-3.8-2.66-3.8-.93.04-1.8.45-2.43 1.14-.7.65-1.2 1.5-1.4 2.44v4.54c-.03.58.03 1.17.18 1.74.17.56.65.97 1.22 1.05l.2.2-.12.2h-4.98l-.1-.2.1-.2c.62-.04 1.16-.43 1.4-1 .18-.58.26-1.18.22-1.78v-5.55c0-1.1-.3-1.72-.88-1.82l-.47-.08-.1-.26.1-.1 2.88-1h.24v2.62c.55-.75 1.24-1.38 2.03-1.87.77-.54 1.67-.84 2.6-.87 1.94 0 3.17.94 3.7 2.82.48-.84 1.18-1.54 2-2.03.83-.5 1.77-.78 2.72-.8 1.12-.07 2.2.38 2.94 1.23.7.92 1.04 2.05.97 3.2l-.1 4.52zM207.03 32.24l-.18-.24.1-.26 1.93.08 1.95-.08.16.24-.12.2c-.88.37-1.67 1.34-2.37 2.9l-4.86 11.1c-.9 2.04-2.17 3.06-3.8 3.06-.33.02-.63-.18-.74-.5.13-.6.43-1.15.86-1.58l.37.2c.14.08.3.12.46.1.7-.06 1.32-.42 1.74-.98.45-.55.7-1.24.7-1.96l.36-1.6-3.98-8.22c-.23-.52-.5-1.02-.84-1.5-.32-.47-.8-.8-1.37-.96l-.18-.24.1-.26 2.36.08 2.3-.08.16.24-.1.2c-.64.15-1 .37-1.07.7V33c.04.5.2 1 .44 1.43l3.5 7 2.9-6.37c.26-.52.4-1.08.44-1.65 0-.12-.02-.26-.08-.38-.2-.44-.64-.74-1.13-.78zM138.55 52.07c.3-.5.84-.8 1.4-.8.5 0 .96.2 1.3.55.33.35.5.82.5 1.3.02.56-.2 1.1-.6 1.46-.38.4-.9.6-1.46.58-.53.02-1.04-.15-1.45-.47l-.12.33h-.34c.15-.23.22-.5.2-.78v-3.87c0-.12-.02-.24-.04-.36-.05-.12-.16-.2-.28-.2h-.15l-.04-.1v-.02l.96-.28h.07l.02 2.65zm0 .62v.9c-.02.34.1.68.3.96.23.26.57.4.92.38.4.02.8-.18 1-.53.23-.32.34-.7.33-1.1.02-.42-.1-.83-.3-1.18-.22-.35-.6-.57-1.02-.55-.3 0-.6.1-.8.33-.24.2-.4.5-.43.8zM145.17 51.52l-.06-.08.04-.08.6.03.6-.04.06.07-.03.07c-.35.2-.6.52-.74.9l-1.52 3.45c-.27.65-.67.97-1.17.97-.1 0-.2-.06-.23-.16.04-.2.13-.36.27-.5l.1.07.15.03c.2-.02.4-.13.54-.3.14-.18.22-.4.22-.6l.1-.5-1.23-2.58c-.07-.16-.16-.32-.26-.46-.1-.15-.26-.26-.43-.3l-.06-.08.05-.08.73.03.72-.04.05.07-.04.07c-.2.04-.3.1-.32.2v.05c0 .16.06.32.14.46l1.1 2.2.9-2c.1-.15.14-.33.15-.5v-.12c-.07-.16-.23-.26-.4-.26z"/>
        </g>
        <g>
            <g fill-rule="nonzero">
                <path fill="#FFF" stroke="#375D81" d="M145.5 85.5c3-2 5-2.24 5 2l-14.24 71.42H111V112.7l34.5-27.2z"/>
                <path fill="#FFF" stroke="#375D81" d="M151 87.5c3.23-1.7 5.5-3.24 5.5 1l-8.3 73.37-38.2.02v-48.45l41-25.95z"/>
                <path fill="#FFF" stroke="#375D81" d="M107.56 114.87L156.5 89c3.4-1.7 5.1-3.24 5.1 1v76.02l-54.02.02-.02-51.17z"/>
                <path fill="#FFF" stroke="#375D81" d="M115 114.87C81.7 97.17 63.88 87.9 61.5 87c-3.5 1-8.52 2.24-9.5 4l1.53 75.02 61.44.02.03-51.17z"/>
                <path fill="#D9DDE2" d="M108 113.15c-4 0-8-1.15-8-1.15l.5 88.5 1.1.35c2.52.77 4.65 1.15 6.4 1.15 1.98 0 4.32-.33 7-1l1-89s-4 1.15-8 1.15z"/>
                <path fill="#FFF" stroke="#375D81" d="M108 115.15c-4 0-8-1.15-8-1.15l.5 88.5 1.1.35c2.52.77 4.65 1.15 6.4 1.15 1.98 0 4.32-.33 7-1l1-89s-4 1.15-8 1.15z"/>
                <path fill="#FFF" stroke="#375D81" d="M116 112.73l48-21.23c3.4-1.7 3.7-1.74 3.7 2.5v75.02c0 4.24-.3 4.28-3.7 5.98l-48.5 26 .5-88.27zM100.7 112.73L52.5 91.5c-3.4-1.7-3.5.5-3.5 2v75.52c0 4.24.1 4.28 3.5 5.98l48.2 25.76v-88.03z"/>
            </g>
            <g fill-rule="nonzero" transform="translate(134 122)">
                <ellipse cx="8" cy="12" fill="#EFEFF6" rx="8" ry="9"/>
                <ellipse cx="9" cy="9" fill="#FFF" stroke="#375D81" stroke-width="2" rx="8" ry="9"/>
                <path fill="#9452BA" d="M11.5 13.77l.08.23c-.23-2.62 1-3.7 1.4-5.44v-.08c0-.04 0-.08.02-.12.02-.6-.13-1.16-.42-1.63l-.08-.14c-.05-.1-.1-.2-.16-.28l-.02-.02-.04-.08-.05-.07-.05-.08-.06-.07-.03-.06c-.55-.72-1.15-1.37-1.8-1.94.1.92.1 1.84.03 2.76-.13 1.06-.4 2.1-.77 3.05-.9-.07-1.76-.3-2.58-.7-.7-.4-1.36-.86-1.98-1.4 0 .07 0 .16.02.24V8c0 .07 0 .13.02.2.02.04 0 .04 0 .07l.02.17v.07c0 .1.02.16.04.23v.02c0 .08.02.17.04.25l.03.23v.04l.04.2v.04c0 .1.04.17.06.25.05.24.1.48.18.7.1.37.22.7.37 1.05l.07.13.06.1.06.13.08.14v.02l.1.14.07.1.04.03.03.04.04.04.05.04.03.03.05.04.03.02.06.03.02.02.06.04h.03l.1.04.05.02c1.45.47 2.87-.27 4.64 1.26"/>
            </g>
            <path stroke="#E1F2FF" d="M83.5 102.5l20 10M61.5 89.48l26 13.02" stroke-linecap="round"/>
            <path stroke="#9ACDED" d="M133.5 163.5l23-11M133.5 169.5l23-11" stroke-linecap="round"/>
        </g>
    </g>
</svg>