<svg width="60" height="60" viewBox="0 0 130 130" xmlns="http://www.w3.org/2000/svg">
  <g fill="none" fill-rule="evenodd">
    <path d="M65 1c35.346 0 64 28.654 64 64 0 35.347-28.654 64-64 64-35.346 0-64-28.653-64-64C1 29.654 29.654 1 65 1z" fill="#E1F2FF" fill-rule="nonzero"/>
    <path d="M98 62v33a2 2 0 01-2 2H34a2 2 0 01-2-2V62h66zM94.586 45H35.414L31 49.414V61h68V49.414L94.586 45z" stroke="#5563B6" stroke-width="2" fill="#FFF" fill-rule="nonzero"/>
    <path stroke="#5563B6" stroke-width="2" stroke-linecap="square" d="M32.5 49.5h66"/>
    <path fill="#9452BA" fill-rule="nonzero" d="M60 46h10v52H60z"/>
    <path fill="#E1F2FF" fill-rule="nonzero" d="M33 62h64v2H33z"/>
    <path fill="#754093" fill-rule="nonzero" d="M60 46h10v3H60z"/>
    <path d="M89.14 31.839c-1.404-2.41-4.328-3.849-7.816-3.849-7.94 0-13.568 7.172-16.333 11.699-2.769-4.522-8.395-11.653-16.318-11.653-5.024 0-8.671 2.993-8.671 7.054 0 7.201 8.216 11.9 24.731 11.9s25.266-6.04 25.266-11.841c-.003-1.153-.259-2.282-.859-3.31zm-40.322 7.444c-2.809-1.418-3.809-3.008-3.809-4.025 0-1.301 1.637-2.244 3.895-2.244 5.439 0 9.743 5.305 12.082 8.998-6.265-.394-10.025-1.647-12.168-2.729zm35.79-2.815c-1.418 2.405-6.248 4.954-15.607 5.544 2.362-3.693 6.695-8.998 12.081-8.998 2.084 0 3.272.758 3.691 1.468.333.564.278 1.233-.165 1.986z" fill="#9452BA" fill-rule="nonzero"/>
    <path fill="#754093" fill-rule="nonzero" d="M60 62h10v2H60z"/>
    <path d="M91.428 90.774c.128.111.211.197.24.224.001.006-.001-.004 0 0 0 .001 0 0 0 0-3.119-1.674-5.242-.4-7.653-.7a.848.848 0 00-.114-.025 1.712 1.712 0 01-.161-.032c-.635-.158-1.23-.688-1.764-1.447l-.008-.012c-.046-.062-.089-.128-.132-.193 0 0 0-.002-.002-.003-.078-.12-.156-.248-.232-.378l-.024-.04a4.006 4.006 0 00-.06-.11l-.064-.111-.06-.114-.06-.117c-.015-.026-.029-.055-.043-.084-.538-1.069-.975-2.353-1.288-3.633 0 0-.007-.012 0 0 1.172.634 2.392 1.155 3.42 1.442 1.24.347 2.792.493 4.282.423.457-1.407.72-2.93.707-4.208-.012-1.068-.193-2.361-.51-3.656.097.052.193.106.29.16l.086.05c.068.038.137.076.204.118a20.65 20.65 0 01.38.227c.085.053.17.105.253.16.01.004.018.01.026.015.097.06.193.124.289.188l.022.015c.086.057.17.114.254.172l.052.035.229.162.043.032a15.634 15.634 0 01.261.192c.271.206.53.416.773.628l.01.007c.405.356.764.72 1.06 1.082.042.053.084.106.124.159l.005.005c.037.049.073.097.106.144v.001l.004.006c.037.05.073.102.106.154l.013.021.001.001a4.316 4.316 0 01.14.23c.003.005.004.009.008.013a3.307 3.307 0 01.185.382l.025.065.035.097c.008.023.014.046.021.071.01.03.018.06.026.09l.017.07.019.09.011.07c.004.03.007.062.012.092l.005.063.003.104v.05c0 .052-.005.103-.01.153a.944.944 0 00-.006.092c-.327 2.393-2.115 4.118-1.317 7.532" fill="#9452BA"/>
  </g>
</svg>
