<svg width="45" height="45" xmlns="http://www.w3.org/2000/svg">
  <g fill="none" fill-rule="evenodd">
    <path d="M22.5 0C34.926 0 45 10.074 45 22.5 45 34.927 34.926 45 22.5 45S0 34.927 0 22.5C0 10.074 10.074 0 22.5 0z" fill="#E1F2FF" fill-rule="nonzero"/>
    <g fill-rule="nonzero">
      <path d="M18.322 31.033c1.27.84 1.632 2.568.807 3.86-.826 1.293-3.591 3.333-4.862 2.493-1.271-.84-.565-4.24.26-5.532a2.714 2.714 0 013.795-.82z" fill="#9452BA"/>
      <path d="M14.527 31.854c.498 2.165 2.61 3.152 4.763 2.729.684-1.615.321-2.802-1.089-3.563-1.41-.761-2.634-.483-3.674.834z" fill="#754093"/>
      <path d="M22.802 22.326c4.387 2.693 6.204 7.409 3.497 11.35l-1.279 1.861c-2.707 3.94-2.079-4.334-6.467-7.027-4.387-2.694-12.128 1.214-9.42-2.727l1.278-1.861c2.708-3.94 8.003-4.29 12.39-1.596z" stroke="#5E63B6" fill="#FFF"/>
      <path d="M31.546 8.778c1.25.87 2.248 7.876-2.627 15.931-3.175 5.245-5.438 7.329-5.438 7.329-2.325 2.55-3.927 1.496-6.033.031-2.12-1.476-3.681-2.602-2.43-5.92 0 0 .868-3.09 4.028-8.31 4.871-8.048 11.245-9.934 12.5-9.061z" stroke="#5E63B6" fill="#FFF"/>
      <path d="M26.572 10.29c.5 1.158 1.343 2.222 2.567 3.059 1.06.725 2.2 1.13 3.273 1.234.445-3.174-.115-5.394-.76-5.836-.629-.43-2.614-.048-5.08 1.543z" stroke="#5563B6"/>
      <path d="M23.572 30.583c-3.05 2.238-2.587.762-4.56-.923-1.987-1.698-3.708-.991-2.7-4.565.248-.953.446-1.687.593-2.201-.897 1.689-1.333 3.189-1.333 3.189-1.54 3.468.436 4.292 1.967 5.489 1.531 1.197 3.3 2.768 5.722 0 0 0 1.028-1.185 1.74-1.99l-1.43 1z" fill="#E1F2FF"/>
      <path d="M21.348 24.659c.587.44.03 2.637-1.81 5.917-1.839 3.28-3.115 4.353-3.702 3.913-.585-.441-.258-2.229 1.58-5.509 1.84-3.28 3.347-4.762 3.932-4.321h0z" stroke="#5563B6" fill="#FFF"/>
    </g>
    <path d="M26.456 21.416c.032.057.05.099.057.112 0 .003 0-.001 0 0-.907-1.015-1.842-.834-2.674-1.26a.326.326 0 00-.038-.023.658.658 0 01-.054-.033c-.209-.14-.354-.41-.447-.755l-.001-.006c-.009-.028-.015-.058-.022-.087a3.944 3.944 0 01-.035-.168l-.003-.018a1.54 1.54 0 00-.008-.047l-.008-.049-.007-.049-.006-.05-.005-.036a6.748 6.748 0 01.013-1.483s-.001-.005 0 0a6.7 6.7 0 001.046.971c.403.289.944.546 1.492.717.35-.449.646-.965.81-1.428.135-.388.24-.88.296-1.389l.084.096.024.03c.02.022.04.045.058.069.01.01.018.021.027.032a7.943 7.943 0 01.08.1c.025.03.048.06.071.09a.085.085 0 01.007.01c.028.035.054.07.08.106l.006.008.07.096.014.02.061.088a6.014 6.014 0 01.277.45l.003.004a3.586 3.586 0 01.265.604v.002l.02.066v.003c.007.024.014.047.019.07a1.66 1.66 0 01.022.112l.001.005a1.272 1.272 0 01.017.162v.067l-.001.028-.003.036c0 .01-.002.018-.003.028a.71.71 0 01-.005.035l-.005.026-.008.035-.006.024a.931.931 0 01-.013.038l-.007.018a.55.55 0 01-.023.054.363.363 0 00-.014.032c-.433.822-1.307 1.21-1.467 2.55" fill="#9452BA"/>
  </g>
</svg>
