<svg width="326" height="232" xmlns="http://www.w3.org/2000/svg">
    <g id="Page-1" fill="none" fill-rule="evenodd">
        <g id="admin_1_6">
            <ellipse id="Oval-3" fill="#E1F2FF" cx="164" cy="130.5" rx="86" ry="82.5"/>
            <g id="Group-19" transform="rotate(-60 181 -128.48)">
                <path d="M27.84 18.48C23.55 12.27.84 0 .84 0" id="Shape" stroke="#9ACDED" stroke-width="2"/>
                <path d="M40.4 59.3H14.45c-.3 0-.53-.26-.53-.58V28a3 3 0 0 1 .8-2.05l11.53-12.33a1.57 1.57 0 0 1 2.33 0l11.54 12.33a3 3 0 0 1 .8 2.05v30.72a.6.6 0 0 1-.15.41c-.1.1-.24.17-.39.17z" id="Shape" stroke="#375D81" stroke-width="2" fill="#FFF" fill-rule="nonzero"/>
                <ellipse id="Oval" stroke="#375D81" fill="#FFF" fill-rule="nonzero" cx="28.13" cy="20.35" rx="2.13" ry="2.35"/>
                <path d="M3 0s.9 2.95 2.14 3.96c2.45 2.02 5.7 4.09 8.7 7.62 5.32 6.27 8.46 12.34 13.18 8.99.63-.45 1.04-1.45.3-2.27" id="Shape" stroke="#9ACDED" stroke-width="2"/>
                <text id="1.6" transform="rotate(89.5 29.47 40.6)" font-family="Lato-Heavy, Lato" font-size="14" font-weight="600" fill="#9452BA">
                    <tspan x="19.64" y="47.1">1.4</tspan>
                </text>
            </g>
            <g id="Group-4" transform="translate(73 20)" stroke="#375D81" stroke-linecap="round">
                <g id="Group-2">
                    <path d="M137.93 147.21V153M140.52 150.52h-6.04M45.69 0v5.79M49.14 3.3H43.1" id="Shape" stroke-width="2" stroke-linejoin="round"/>
                    <path d="M99.14 5.79v3.26M100.81 7.44h-3.4" id="Shape"/>
                    <path d="M157 29v3.26M158.4 31H155" id="Shape" stroke-linejoin="round"/>
                    <path d="M1.72 35.56v3.26M3.4 37.22H0" id="Shape"/>
                    <path d="M9.48 131.5v6.71M13.04 134.8h-7" id="Shape" stroke-width="2" fill="#FFF" fill-rule="nonzero"/>
                </g>
            </g>
            <g id="Group" transform="translate(73 69)">
                <path d="M50.08 103.51h5a4.17 4.17 0 0 0 3.89-2.64c1.77-4.55 1.33-8.73 1.54-12.31.39-6.63-.64-10-1.63-15.56l-7.47.17s.64 2.75 1.06 11c.13 2.56-4.09 12.82-3.89 17.85.02.82.68 1.47 1.5 1.49zM35.59 79.85l-6-6.82-3.71.15-.73 8c-.67 5.4-1.73 10.75-3.18 16a14.45 14.45 0 0 0-.6 3.26 2.94 2.94 0 0 0 3 3h4.41a5.64 5.64 0 0 0 5.48-4.2c1.92-7.68 1.33-19.39 1.33-19.39z" id="Shape" stroke="#1A4D77" fill="#7FC0E9" fill-rule="nonzero"/>
                <path id="Shape" stroke="#1A4D77" stroke-width=".5" d="M27.14 84.54l-1 .88.95.85 1.55-.59-.31-.68-1.28.3.01.23.33-.01"/>
                <path d="M27.17 54.46c4.38-.09 8.48-3.11 17.42-3.52.1-.53.27-1.05.49-1.54 1.62-3.5 3.9-13.59 2.43-20.22l-1.16-5.25a24.27 24.27 0 0 1-.57-5.24 10.68 10.68 0 0 1 5.12-9.08 10.59 10.59 0 0 1 5.52-1.54h1.74a10.6 10.6 0 0 1 9.59 6.03c.1.21.15.31.21.47a10.57 10.57 0 0 1 .83 4.14 2.65 2.65 0 0 1-2.65 2.65H55.25l1.65 9.45c1.93 9.71 1.35 16.2-.15 20.53-.33 1-2.24 4.39-2.24 4.39 5.45 8.59 13.8 12.35 22.73 13.44 7.59.93 24-6 15.53-14s1.76-3 3.26-2c1.5 1 10.19 8.52.76 19.54-4 4.66-8.51 8.89-19.37 12.14-1.74.52-11.25 1.21-16.38 2.68-15.25 4.38-27.64-.38-34.59-10.45-6.95-10.07-1.01-22.59.72-22.62z" id="Shape" stroke="#1A4D77" fill="#7FC0E9" fill-rule="nonzero"/>
                <path d="M36.63 40C37 28.73 28 19.88 17.89 18c-2.11-.39-2.79-1-5.1-1H11A10.78 10.78 0 0 0 .22 27.78c0 1.49 1.2 2.69 2.69 2.69h18.2c4 1.7 6.5 6.82 6.94 9.57.67 3.3.26 6.72-1.17 9.76a10.55 10.55 0 0 0-.85 5.54h.1c.08 1.05.24 2.1.48 3.12 1.71-1.19 4.36-3 4.84-3.23 1-.55 3.41-1.81 4.47-2.42 6.78-3.89.51-6.42.71-12.81z" id="Shape" stroke="#1A4D77" fill="#7FC0E9" fill-rule="nonzero"/>
                <path d="M30.86 53c-.09-1.74-.35-2.63-.16-3.34 1.12-4.07 1.49-5.36 1.49-9.67A13 13 0 0 0 26 29.21a6.92 6.92 0 0 0-4.91 1.2c4 1.7 6.5 6.82 6.94 9.57.67 3.3.26 6.72-1.17 9.76a10.55 10.55 0 0 0-.85 5.54S31 57.14 30.86 53" id="Shape" stroke="#1A4D77" fill="#E1F2FF" fill-rule="nonzero"/>
                <path d="M5.36 18.79a3 3 0 0 1 1.87-2.63l1.61-.65s1.11 2.36-.15 2.95a4.75 4.75 0 0 1-3.33.33zM10 17.47c.1-1.6 1.4-2.87 3-2.94.54-.07 1.94 0 1.94 0s.65 2.71-.87 3c-1.35.17-2.72.15-4.07-.06zM15.78 17.71s.38-2.84 2.93-2.06c.67.21 1.26.61 1.7 1.16 0 0-.51 2.17-1.52 1.92-1.06-.25-2.1-.6-3.11-1.02zM23.2 31.52s6-3.24 4.82-8.69a32.46 32.46 0 0 1 3.67 3.65c0 1.07.2 5.3-5.65 8.14a32.79 32.79 0 0 0-2.84-3.1z" id="Shape" stroke="#1A4D77" fill="#FFF" fill-rule="nonzero"/>
                <path d="M6.18 18.27c.03-.61.42-1.15 1-1.36l.83-.34s.58 1.22-.08 1.53c-.54.27-1.17.33-1.75.17zM11.28 16.89c.05-.8.7-1.45 1.5-1.5h1s.33 1.38-.45 1.52c-.68.09-1.37.08-2.05-.02zM16.7 17.51s.2-1.51 1.56-1.09c.35.11.67.33.9.62 0 0-.27 1.15-.81 1-.56-.13-1.12-.3-1.65-.53z" id="Shape" fill="#E1F2FF" fill-rule="nonzero"/>
                <path d="M14.69 23.65h.48a2.48 2.48 0 1 1 0 4.96H9.72a5 5 0 0 1 5-5l-.03.04z" id="Shape" fill="#F3E3FF" fill-rule="nonzero" opacity=".3"/>
                <path d="M13.72 24.62h1a2 2 0 1 1 0 4h-4.9a3.9 3.9 0 0 1 3.9-4z" id="Shape" stroke="#1A4D77" fill="#FFF" fill-rule="nonzero"/>
                <circle id="Oval" fill="#1A4D77" fill-rule="nonzero" cx="11.79" cy="27.46" r="1.09"/>
                <path d="M2.68 29.6c.3-.07.58-.24.78-.49l.37-.46-.81.17-.48.1a.34.34 0 0 0-.26.41.34.34 0 0 0 .4.27z" id="Shape" fill="#1A4D77" fill-rule="nonzero"/>
                <path d="M24.21 31.63s4.59-2.47 4.52-7.45a9.37 9.37 0 0 1 2.51 2.36 8 8 0 0 1-1.45 3.56c-1.7 1.84-3.47 2.41-5.58 1.53z" id="Shape" fill="#EAF3FB" fill-rule="nonzero"/>
                <path d="M28.55 30.75A16.47 16.47 0 0 1 25 33.47" id="Shape" stroke="#1A4D77" fill="#FFF" fill-rule="nonzero"/>
                <path d="M46.54 50.1l-1-2c-3.82-9.38-4.41-14.89-2.43-23.84L44.25 19c.38-1.72.57-3.48.57-5.24 0-5.88-4.76-10.64-10.64-10.64h-1.71A10.49 10.49 0 0 0 22 13.61v.3a2.5 2.5 0 0 0 2.5 2.5h10.85l-1.65 9.45c-5 25.33-4.54 35.6 5.39 33.49" id="Shape" stroke="#1A4D77" fill="#7FC0E9" fill-rule="nonzero"/>
                <path d="M27.22 4.37a3.28 3.28 0 0 1 2-2.58c.47-.12.96-.12 1.43 0 0 0 1.06 1.65-.18 2.24-1 .5-2.16.62-3.25.34zM31.58 3.77A3.55 3.55 0 0 1 34.91.44c.46-.04.93-.04 1.39 0 0 0 1.54 3.05-.18 3.35-1.5.2-3.03.2-4.54-.02zM37.43 4.43s.44-2.78 2.93-1.95A3.5 3.5 0 0 1 42 3.66s-.55 2.11-1.54 1.84a19.12 19.12 0 0 1-3.03-1.07z" id="Shape" stroke="#1A4D77" fill="#FFF" fill-rule="nonzero"/>
                <path d="M27.4 54.12c.53-.4 1.14-.7 1.79-.86" id="Shape" stroke="#1A4D77" fill="#1A4D77" fill-rule="nonzero"/>
                <path d="M31 54.07c-1.78-7.22 1.43-21 2-24.43L35.35 16h1a2.35 2.35 0 0 1 2.09 2.69L36.75 30.5c-.57 4-1.17 22.51 5.78 26.49 1.48.85 3.89.29 4.8-.14 3.3-1.58 4.25-5.7 5-9 1.5-6.87.33-12.26 0-17.65L52 23.48A2.37 2.37 0 0 1 54.11 21h1.24l2.24 13.62c.67 3.88 2.4 17.32-5.52 23.63-.14.11 1.93.58 1.33 1.64-2.38 4.21-9.29 4.88-10.59 6.68-5 6.94-.32 21.74-.32 21.74a35.93 35.93 0 0 1-9-5.3c-8-7.21-9.07-17.66-9.11-20.73 0-3.68.92-6 2.11-7.32" id="Shape" stroke="#1A4D77" fill="#E1F2FF" fill-rule="nonzero"/>
                <path d="M96.31 60.09a3 3 0 0 0 .5-3c-.2-.4-.52-.75-.9-1 0 0-1.78.31-1.41 1.51a4.29 4.29 0 0 0 1.81 2.49z" id="Shape" stroke="#1A4D77" fill="#FFF" fill-rule="nonzero"/>
                <path d="M95.94 58.33c.23-.28.3-.66.18-1a.9.9 0 0 0-.32-.34s-.62.11-.49.53c.1.34.33.62.63.81z" id="Shape" fill="#E1F2FF" fill-rule="nonzero"/>
                <path d="M87 69.16a3.31 3.31 0 0 1 1.51-4.11c.37-.22.76-.4 1.17-.56 0 0 2.5 2 1.16 2.9-1.2.76-2.49 1.36-3.84 1.77z" id="Shape" stroke="#1A4D77" fill="#FFF" fill-rule="nonzero"/>
                <path d="M87.86 68.23c-.34-.86.02-1.84.84-2.28.2-.12.42-.23.65-.31 0 0 1.38 1.09.64 1.61-.66.42-1.38.75-2.13.98z" id="Shape" fill="#E1F2FF" fill-rule="nonzero"/>
                <path d="M94.87 61s1.88 1.65.08 3.13c-.48.38-1.06.62-1.67.67 0 0-1.33-1.42-.66-2a17 17 0 0 1 2.25-1.8z" id="Shape" stroke="#1A4D77" fill="#FFF" fill-rule="nonzero"/>
                <path d="M94.6 62.22s.83.73 0 1.39c-.21.17-.47.28-.74.3 0 0-.59-.63-.29-.9.32-.3.66-.56 1.03-.79z" id="Shape" fill="#E1F2FF" fill-rule="nonzero"/>
                <path d="M77.93 70.46a2.55 2.55 0 0 1 1.81-3.08c2.43-.88 3.08-.15 3.08-.15s1.34 2.26.14 3c-1.2.74-5.03.23-5.03.23z" id="Shape" stroke="#1A4D77" fill="#FFF" fill-rule="nonzero"/>
                <path d="M79.07 70c-.17-.7.24-1.4.94-1.6 1.26-.46 1.6-.08 1.6-.08s.7 1.17.07 1.55c-.85.22-1.74.27-2.61.13z" id="Shape" fill="#E1F2FF" fill-rule="nonzero"/>
                <path d="M34.82 19.34a11.75 11.75 0 0 0 9.32.21L43 24.63s-5 1.55-8.94-.9c.41-2.23.76-4.39.76-4.39zM63.8 9.5a3.3 3.3 0 0 0-2-2.6 9.65 9.65 0 0 0-2.08-.29s-.43 2 .82 2.55c1.01.5 2.17.62 3.26.34zM59.12 8.55a3.09 3.09 0 0 0-2.9-2.9c-.4-.03-.8-.03-1.21 0 0 0-1.34 2.66.16 2.92 1.31.17 2.64.17 3.95-.02zM53.73 8.74s-.45-2.8-2.95-2c-.66.24-1.24.68-1.65 1.26 0 0 .56 2.12 1.55 1.86 1.05-.29 2.07-.66 3.05-1.12z" id="Shape" stroke="#1A4D77" fill="#FFF" fill-rule="nonzero"/>
                <path d="M28.18 3.91c.09-.62.5-1.14 1.07-1.38.25-.07.52-.07.77 0 0 0 .57.88-.1 1.19-.54.27-1.16.34-1.74.19zM32.66 3.28a2.23 2.23 0 0 1 2.09-2.09c.29-.02.58-.02.87 0 0 0 1 1.91-.11 2.1-.95.13-1.9.12-2.85-.01zM38.51 4.15s.26-1.6 1.69-1.12a2 2 0 0 1 .94.68s-.32 1.22-.89 1.06a11 11 0 0 1-1.74-.62zM62.89 9a1.74 1.74 0 0 0-1.07-1.37 5.1 5.1 0 0 0-1.1-.15s-.23 1 .43 1.35c.54.27 1.16.33 1.74.17zM58 8.11a1.71 1.71 0 0 0-1.6-1.6 3.93 3.93 0 0 0-.67 0s-.74 1.47.09 1.61A8 8 0 0 0 58 8.11zM52.73 8.55s-.24-1.53-1.61-1.07c-.36.12-.67.35-.9.65 0 0 .3 1.16.85 1 .57-.15 1.12-.34 1.66-.58z" id="Shape" fill="#E1F2FF" fill-rule="nonzero"/>
                <path d="M46.4 24.14c3.12.42 6.28.3 9.36-.37.44 2.48.73 4.35.73 4.35s-3.16 2.15-9 .9c-.7-3.18-1.09-4.88-1.09-4.88z" id="Shape" stroke="#1A4D77" fill="#FFF" fill-rule="nonzero"/>
                <path d="M51.87 14.41h5.45a2.48 2.48 0 1 1 0 4.96h-.48a5 5 0 0 1-5-5l.03.04z" id="Shape" fill="#F3E3FF" fill-rule="nonzero" opacity=".3" transform="rotate(-180 55.82 16.87)"/>
                <path d="M52.83 15.32h4.76c1.15 0 2.09.94 2.09 2.09 0 1-.81 1.81-1.81 1.81h-1.14a3.9 3.9 0 0 1-3.9-3.9z" id="Shape" stroke="#1A4D77" fill="#FFF" fill-rule="nonzero" transform="rotate(-180 56.26 17.27)"/>
                <circle id="Oval" fill="#1A4D77" fill-rule="nonzero" cx="57.33" cy="16.98" r="1.09"/>
                <path d="M35 9.65h.48a2.48 2.48 0 1 1 .04 4.96H30a5 5 0 0 1 5-5v.04z" id="Shape" fill="#F3E3FF" fill-rule="nonzero" opacity=".3"/>
                <path d="M34 10.62h1a2 2 0 1 1 0 4h-4.86a3.9 3.9 0 0 1 3.86-4z" id="Shape" stroke="#1A4D77" fill="#FFF" fill-rule="nonzero"/>
                <circle id="Oval" fill="#1A4D77" fill-rule="nonzero" cx="34.8" cy="13.36" r="1.09"/>
                <path d="M66.34 20.45c-.3-.07-.58-.24-.78-.49l-.37-.46.81.17.48.1a.34.34 0 0 1 .26.41.34.34 0 0 1-.4.27zM24.33 15.36c.3-.07.58-.24.78-.49l.37-.46-.81.17-.48.1a.34.34 0 0 0-.26.41.34.34 0 0 0 .4.27z" id="Shape" fill="#1A4D77" fill-rule="nonzero"/>
                <path d="M35.29 20c2.61 1 5.5 1.06 8.15.15-.2 1.22-.47 2.44-.81 3.63-1.37.08-2.74.02-4.09-.18-2.33-.41-3.25-1.47-3.25-3.6z" id="Shape" fill="#EAF3FB" fill-rule="nonzero"/>
                <path d="M40.93 23.13c-2.24.16-4.5-.23-6.55-1.13" id="Shape" stroke="#1A4D77" fill="#FFF" fill-rule="nonzero"/>
                <path d="M54 24.68c-2.21.6-4.52.72-6.78.39.24 1.06.55 2.1.92 3.11 0 0 4.76-.64 5.86-3.5z" id="Shape" fill="#EAF3FB" fill-rule="nonzero"/>
                <path d="M52.07 58.26s-.22.16-.53.34" id="Shape" stroke="#52267D" stroke-width=".5" fill="#F3E3FF" fill-rule="nonzero"/>
                <path d="M54.35 26c-2.47.41-4.98.5-7.47.23" id="Shape" stroke="#1A4D77" fill="#FFF" fill-rule="nonzero"/>
                <path d="M48.41 100.59a1.74 1.74 0 0 0-2.24.27c-1.17 1-2 2.44-1.52 2.59.78.22 1.6.26 2.41.12.84-.15 1.58 0 1.92-1.75.09-.49-.14-.98-.57-1.23z" id="Shape" stroke="#52267D" stroke-width=".5" fill="#FFF" fill-rule="nonzero"/>
                <path d="M48.19 100.88a1.08 1.08 0 0 0-1.39.17c-.73.6-1.27 1.52-.95 1.61.49.13 1 .16 1.5.07.52-.1 1 0 1.2-1.09.05-.3-.1-.6-.36-.76z" id="Shape" fill="#EAF3FB" fill-rule="nonzero"/>
                <path d="M49.77 100.57c.51-.07 1.24 1 1.16 1.37-.08.37-.14 1.45-1 1.57-.61.09-2.77.31-3.24-.16-.47-.47.45-2.42 3.08-2.78z" id="Shape" stroke="#1A4D77" stroke-width=".5" fill="#FFF" fill-rule="nonzero"/>
                <path d="M49.91 100.88c.3 0 .73.61.68.81-.05.2-.08.85-.57.92-.49.07-1.63.19-1.91-.09s.25-1.43 1.8-1.64z" id="Shape" fill="#EAF3FB" fill-rule="nonzero"/>
                <path d="M51.92 100.79s-.44-.23-1.31.27c-.87.5-1.91 1.14-1.61 2 .3.86 2.73.55 3.26.36.53-.19.86-.73.78-1.29a1.68 1.68 0 0 0-1.12-1.34z" id="Shape" stroke="#1A4D77" stroke-width=".5" fill="#FFF" fill-rule="nonzero"/>
                <path d="M52.08 101.1s-.26-.14-.77.16c-.51.3-1.13.68-1 1.19.13.51 1.61.32 1.93.22.31-.11.5-.43.46-.76a1 1 0 0 0-.62-.81z" id="Shape" fill="#EAF3FB" fill-rule="nonzero"/>
                <path d="M41.78 73c.23 4.84-.08 9.68-.93 14.45-1.33 8.22-3.69 10.8-3.51 12.93.13 1.65.83 3.16 2.49 3.16h4.94c2.3 0 4.35-1.48 5.08-3.66.77-2.33 1.3-4.74 1.59-7.18.28-3.56.36-7.13.22-10.7M67.11 76.69a7.79 7.79 0 0 0-2.47 5.83c0 2.83 1.66 6.43.62 11.13-.93 4.19-2.77 4.93-2.22 8.69.11.68.7 1.18 1.4 1.17h5.51c2.54 0 4.7-1.84 5.12-4.34.83-5.93.61-11.96-.63-17.81" id="Shape" stroke="#1A4D77" fill="#7FC0E9" fill-rule="nonzero"/>
                <path id="Shape" stroke="#52267D" stroke-width=".5" d="M68.19 82.93l.33-.24 1.04.24-1.16.74-1.4-.69 1.46-1.16.66.22"/>
                <path d="M38.41 100.59a1.74 1.74 0 0 0-2.24.27c-1.17 1-2 2.44-1.52 2.59.78.22 1.6.26 2.41.12.84-.15 1.58 0 1.92-1.75.09-.49-.14-.98-.57-1.23z" id="Shape" stroke="#1A4D77" fill="#FFF" fill-rule="nonzero"/>
                <path d="M38.19 100.88a1.08 1.08 0 0 0-1.39.17c-.73.6-1.27 1.52-.95 1.61.49.13 1 .16 1.5.07.52-.1 1 0 1.2-1.09.05-.3-.1-.6-.36-.76z" id="Shape" fill="#EAF3FB" fill-rule="nonzero"/>
                <path id="Shape" stroke="#1A4D77" stroke-width=".5" d="M45.97 86.03l-1.97.62.26 1.82 2.02.15.94-1.09-1.21-.67-1 .29.64.71"/>
                <g opacity=".3" id="Shape" stroke="#F3E3FF" stroke-width=".25">
                    <path d="M3.8 26a.54.54 0 1 0 1.07 0M2.73 26a.54.54 0 1 0 1.07 0M3.26 26.54a.54.54 0 0 0 1.07 0M24.33 25.5a.79.79 0 1 0 .83-1.34M24.58 26.59a.79.79 0 1 0 .83-1.34M49.76 43.5a.72.72 0 0 0 1.44 0M48.32 43.5a.72.72 0 0 0 1.44 0M49 44.22a.72.72 0 0 0 1.44 0M28.29 89a.72.72 0 0 0 1.44 0M26.86 89a.72.72 0 0 0 1.44 0M27.57 89.75a.72.72 0 0 0 1.44 0M48.64 20.59a.79.79 0 1 0 1.58 0M47.85 21.38a.79.79 0 1 0 1.58 0M38.55 34.54a1 1 0 1 0 1.92 0M37.59 35.5a1 1 0 0 0 1.92 0M24.61 10.68a.64.64 0 0 0 1.28 0M24 11.33a.64.64 0 0 0 1.28 0M85 75.39a.75.75 0 0 0 1.13-1M84.93 76.43a.75.75 0 0 0 1.13-1M55.65 65.19a.87.87 0 0 0 1.58-.72M54.07 65.91a.87.87 0 0 0 1.58-.72M55.22 66.34a.87.87 0 0 0 1.58-.72M53.64 67.06a.87.87 0 0 0 1.58-.72M56.37 66.76a.87.87 0 1 0 1.58-.72M40.55 17.17a.87.87 0 1 0 1.75 0M40.25 50.22a.87.87 0 1 0 1.75 0M50.16 32a.66.66 0 1 0 1.33 0M65.94 16.95a.5.5 0 1 0 1 0M70.08 90a.87.87 0 1 0 1.72-.3M45.92 96.49a1 1 0 0 0 1.92 0M45 97.45a1 1 0 0 0 1.92 0"/>
                </g>
                <path d="M39.78 100.57c.51-.07 1.24 1 1.16 1.37-.08.37-.14 1.45-1 1.57-.61.09-2.77.31-3.24-.16-.47-.47.45-2.42 3.08-2.78z" id="Shape" stroke="#1A4D77" fill="#FFF" fill-rule="nonzero"/>
                <path d="M39.92 100.88c.3 0 .73.61.68.81-.05.2-.08.85-.57.92-.49.07-1.63.19-1.91-.09s.25-1.43 1.8-1.64z" id="Shape" fill="#EAF3FB" fill-rule="nonzero"/>
                <path d="M41.58 101.12s-.39-.2-1.16.24c-.77.44-1.69 1-1.42 1.78s2.41.48 2.89.32c.47-.17.76-.64.69-1.14a1.49 1.49 0 0 0-1-1.2z" id="Shape" stroke="#1A4D77" fill="#FFF" fill-rule="nonzero"/>
                <path d="M41.73 101.39s-.23-.12-.68.14c-.45.26-1 .6-.84 1.05.16.45 1.43.29 1.71.19.28-.1.45-.38.41-.67a.88.88 0 0 0-.6-.71z" id="Shape" fill="#EAF3FB" fill-rule="nonzero"/>
                <path d="M21.3 101.33s-.39-.2-1.16.24c-.77.44-1.69 1-1.42 1.78s2.41.48 2.89.32c.47-.17.76-.64.69-1.14a1.49 1.49 0 0 0-1-1.2z" id="Shape" stroke="#1A4D77" fill="#FFF" fill-rule="nonzero"/>
                <path d="M21.45 101.6s-.23-.12-.68.14c-.45.26-1 .6-.84 1.05.16.45 1.43.29 1.71.19.28-.1.45-.38.41-.67a.88.88 0 0 0-.6-.71z" id="Shape" fill="#EAF3FB" fill-rule="nonzero"/>
                <path d="M23.65 100.79c.51-.07 1.24 1 1.16 1.37-.08.37-.14 1.45-1 1.57-.61.09-2.77.31-3.24-.16-.47-.47.43-2.43 3.08-2.78z" id="Shape" stroke="#1A4D77" fill="#FFF" fill-rule="nonzero"/>
                <path d="M23.79 101.09c.3 0 .73.61.68.81-.05.2-.08.85-.57.92-.49.07-1.63.19-1.91-.09s.25-1.43 1.8-1.64z" id="Shape" fill="#EAF3FB" fill-rule="nonzero"/>
                <path d="M65.14 100.59a1.74 1.74 0 0 0-2.24.27c-1.17 1-2 2.44-1.52 2.59.78.22 1.6.26 2.41.12.84-.15 1.58 0 1.92-1.75.09-.49-.14-.98-.57-1.23z" id="Shape" stroke="#1A4D77" stroke-width=".5" fill="#FFF" fill-rule="nonzero"/>
                <path d="M64.92 100.88a1.08 1.08 0 0 0-1.39.17c-.73.6-1.27 1.52-.95 1.61.49.13 1 .16 1.5.07.52-.1 1 0 1.2-1.09.05-.3-.1-.6-.36-.76z" id="Shape" fill="#EAF3FB" fill-rule="nonzero"/>
                <path d="M66.51 100.57c.51-.07 1.24 1 1.16 1.37-.08.37-.14 1.45-1 1.57-.61.09-2.77.31-3.24-.16-.47-.47.45-2.42 3.08-2.78z" id="Shape" stroke="#1A4D77" stroke-width=".5" fill="#FFF" fill-rule="nonzero"/>
                <path d="M66.65 100.88c.3 0 .73.61.68.81-.05.2-.08.85-.57.92-.49.07-1.63.19-1.91-.09s.25-1.43 1.8-1.64z" id="Shape" fill="#EAF3FB" fill-rule="nonzero"/>
                <path d="M68.31 101.12s-.39-.2-1.16.24c-.77.44-1.69 1-1.42 1.78s2.41.48 2.89.32c.47-.17.76-.64.69-1.14a1.49 1.49 0 0 0-1-1.2z" id="Shape" stroke="#1A4D77" stroke-width=".5" fill="#FFF" fill-rule="nonzero"/>
                <path d="M68.46 101.39s-.23-.12-.68.14c-.45.26-1 .6-.84 1.05.16.45 1.43.29 1.71.19.28-.1.45-.38.41-.67a.88.88 0 0 0-.6-.71z" id="Shape" fill="#EAF3FB" fill-rule="nonzero"/>
                <path d="M30.32 101.26a.47.47 0 0 1 .51-.1c.58.28 2.06 1.06 1.75 2.12-.24.82-.74.58-1.7.59h-.73a.41.41 0 0 1-.37-.21 2 2 0 0 1 .49-2.37l.05-.03z" id="Shape" stroke="#1A4D77" fill="#FFF" fill-rule="nonzero"/>
                <path d="M30.39 101.5c.1-.1.24-.12.37-.07.42.2 1.49.77 1.27 1.54-.17.6-.54.42-1.24.43h-.53a.3.3 0 0 1-.27-.15c-.29-.59-.14-1.3.35-1.72l.05-.03z" id="Shape" fill="#EAF3FB" fill-rule="nonzero"/>
                <path d="M26.91 100.95a1.74 1.74 0 0 0-2.25.08c-1.24.86-2.24 2.26-1.74 2.45.76.28 1.58.39 2.39.32.85-.08 1.58.14 2.06-1.58.13-.48-.06-.98-.46-1.27z" id="Shape" stroke="#1A4D77" fill="#FFF" fill-rule="nonzero"/>
                <path d="M26.67 101.21c-.4-.34-1-.34-1.4 0-.77.53-1.4 1.4-1.08 1.52.48.18.98.24 1.49.2.53-.05 1 .09 1.28-1a.73.73 0 0 0-.29-.72z" id="Shape" fill="#EAF3FB" fill-rule="nonzero"/>
            </g>
            <g id="Group" transform="translate(141 86)" fill-rule="nonzero">
                <path d="M6.07 45h78.86A6 6 0 0 1 91 50.91v56.18a5.99 5.99 0 0 1-6.07 5.91H6.07A5.99 5.99 0 0 1 0 107.09V50.9A6 6 0 0 1 6.07 45z" id="Shape" stroke="#375D81" stroke-width="2" fill="#FFF"/>
                <path d="M6.8 45h75.4a5.9 5.9 0 0 1 5.8 6v6c0 3.31-2.6 6-5.8 6H6.8A5.9 5.9 0 0 1 1 57v-6c0-3.31 2.6-6 5.8-6z" id="Shape" fill="#EEF4F9"/>
                <path d="M6.07 41h78.86A6.03 6.03 0 0 1 91 47v6c0 3.31-2.72 6-6.07 6H6.07A6.03 6.03 0 0 1 0 53v-6c0-3.31 2.72-6 6.07-6z" id="Shape" stroke="#375D81" stroke-width="2" fill="#FFF"/>
                <path d="M18.85 48C15.07 48 12 49.34 12 51s3.07 3 6.85 3c3.79 0 6.85-1.34 6.85-3s-3.06-3-6.85-3zm53.3 0c-3.79 0-6.85 1.34-6.85 3s3.06 3 6.85 3c3.78 0 6.85-1.34 6.85-3s-3.07-3-6.85-3z" id="Shape" fill="#9ACDED"/>
                <path d="M45.5 71C52.96 71 59 76.82 59 84s-6.04 13-13.5 13S32 91.18 32 84s6.04-13 13.5-13z" id="Shape" stroke="#1A4D77" stroke-width="2"/>
                <path d="M45 80c.55 0 1 .67 1 1.5v6c0 .83-.45 1.5-1 1.5s-1-.67-1-1.5v-6c0-.83.45-1.5 1-1.5z" id="Shape" fill="#BDD3E9"/>
                <path d="M45 0C27.33 0 13 13.97 13 31.2v17.83c0 1.64 2.39 2.97 5.33 2.97 2.95 0 5.34-1.33 5.34-2.97V31.2c0-11.49 9.55-20.8 21.33-20.8 11.78 0 21.33 9.31 21.33 20.8v17.83c0 1.64 2.4 2.97 5.34 2.97S77 50.67 77 49.03V31.2C77 13.97 62.67 0 45 0z" id="Shape" stroke="#375D81" stroke-width="2" fill="#FFF"/>
                <path d="M45 5C30.09 5 18 16.06 18 29.7V50c2.69-.2 4.76-1.4 4.76-2.87V29.7c0-11.23 9.96-20.34 22.24-20.34 12.28 0 22.24 9.1 22.24 20.34v17.43c0 1.47 2.07 2.67 4.76 2.87V29.7C72 16.06 59.91 5 45 5z" id="Shape" fill="#EEF4F9"/>
            </g>
        </g>
    </g>
</svg>
