<?xml version="1.0" encoding="UTF-8"?>
<svg width="256px" height="256px" viewBox="0 0 256 256" version="1.1" xmlns="http://www.w3.org/2000/svg" xmlns:xlink="http://www.w3.org/1999/xlink">
    <!-- Generator: Sketch 46.2 (44496) - http://www.bohemiancoding.com/sketch -->
    <title>illustration-groups</title>
    <desc>Created with Sketch.</desc>
    <defs></defs>
    <g id="256x256" stroke="none" stroke-width="1" fill="none" fill-rule="evenodd">
        <g id="illustration-groups">
            <g id="Groups" transform="translate(-15.000000, 33.000000)">
                <polygon id="Shape" stroke="#375D81" stroke-width="2" fill="#FFFFFF" fill-rule="nonzero" points="145.77 105.95 189.47 105.95 213.42 77.29 169.72 77.29"></polygon>
                <polygon id="Shape" stroke="#375D81" stroke-width="2" fill="#FFFFFF" fill-rule="nonzero" points="145.77 105.95 58.37 105.95 34.42 77.29 121.82 77.29"></polygon>
                <path d="M20.36,208.9 C20.36,151.705391 66.7253913,105.34 123.92,105.34 C181.114609,105.34 227.48,151.705391 227.48,208.9 L20.36,208.9 Z" id="Shape" fill="#E1F2FF" fill-rule="nonzero"></path>
                <path d="M15.83,200.11 L51.83,200.11" id="Shape" stroke="#375D81" stroke-width="2" fill="#FFFFFF" fill-rule="nonzero" stroke-linecap="round" stroke-linejoin="round"></path>
                <path d="M71.71,140.16 L71.71,144.09" id="Shape" stroke="#375D81" stroke-linecap="round"></path>
                <path d="M73.68,142.12 L69.74,142.12" id="Shape" stroke="#375D81" stroke-linecap="round"></path>
                <path d="M208.11,167.38 L208.11,171.31" id="Shape" stroke="#375D81" stroke-linecap="round"></path>
                <path d="M210.08,169.35 L206.14,169.35" id="Shape" stroke="#375D81" stroke-linecap="round"></path>
                <rect id="Rectangle-path" stroke="#9ACDED" stroke-width="2" fill="#FFFFFF" fill-rule="nonzero" transform="translate(100.164947, 98.698440) rotate(-24.420000) translate(-100.164947, -98.698440) " x="68.1649465" y="52.2984401" width="64" height="92.8" rx="2.25"></rect>
                <polygon id="Shape" fill="#E1F2FF" fill-rule="nonzero" points="90.39 142.38 142.22 123.06 109.82 51.71 57.94 72.45"></polygon>
                <circle id="Oval" fill="#FFFFFF" fill-rule="nonzero" transform="translate(91.423377, 83.841135) rotate(-24.420000) translate(-91.423377, -83.841135) " cx="91.4233768" cy="83.8411353" r="12.3"></circle>
                <circle id="Oval" stroke="#9ACDED" stroke-width="2" fill="#FFFFFF" fill-rule="nonzero" transform="translate(91.753199, 80.952353) rotate(-24.420000) translate(-91.753199, -80.952353) " cx="91.7531986" cy="80.9523525" r="12.3"></circle>
                <path d="M97,85.22 L97.22,85.44 L97.22,85.44 C95.52,82.53 96.67,80.44 96.31,78.19 C96.3073075,78.1533828 96.3073075,78.1166172 96.31,78.08 C96.3124525,78.0300301 96.3124525,77.9799699 96.31,77.93 C96.0357642,77.234756 95.5261234,76.6578709 94.87,76.3 L94.87,76.3 L94.68,76.18 L94.68,76.18 L94.27,76 L94.27,76 L94.16,75.95 L94,75.83 L93.89,75.78 L93.78,75.73 L93.7,75.73 C92.5708231,75.2322992 91.3904187,74.8600694 90.18,74.62 L90.18,74.62 C90.7896634,75.6303185 91.2891878,76.7031226 91.67,77.82 C92.0580782,79.137434 92.2402278,80.5069293 92.21,81.88 C90.9261484,82.3537198 89.5770064,82.6269211 88.21,82.69 C87.0266908,82.6952767 85.8463493,82.5712067 84.69,82.32 L84.85,82.59 L84.85,82.67 L84.97,82.86 L85.03,82.95 L85.15,83.14 L85.2,83.22 L85.36,83.46 L85.36,83.46 L85.55,83.73 L85.55,83.73 L85.72,83.97 L85.72,83.97 L85.88,84.18 L85.88,84.18 L86.07,84.42 L86.07,84.42 C86.2766667,84.6733333 86.4866667,84.9133333 86.7,85.14 L86.7,85.14 C87.0283273,85.5024201 87.3862275,85.8369063 87.77,86.14 L87.93,86.25 L87.93,86.25 L88.07,86.35 L88.07,86.35 L88.22,86.45 L88.22,86.45 L88.41,86.56 L88.41,86.56 L88.41,86.56 L88.63,86.66 L88.78,86.72 L88.84,86.72 L88.93,86.72 L89,86.72 L89.09,86.72 L89.16,86.72 L89.25,86.72 L89.85,86.72 C92.13,86.33 93.73,84.58 97.03,85.23" id="Fill-7" fill="#9ACDED" fill-rule="nonzero"></path>
                <polygon id="Shape" fill="#9ACDED" fill-rule="nonzero" points="90.27 108.57 88.31 107.83 86.3 113.19 82.97 111.94 82.24 113.9 87.51 115.88 87.51 115.86 87.53 115.86"></polygon>
                <path d="M94.23,108.99 L123.12,95.87" id="Shape" stroke="#9ACDED" stroke-width="2" fill="#FFFFFF" fill-rule="nonzero" stroke-linecap="round" stroke-linejoin="round"></path>
                <polygon id="Shape" fill="#9ACDED" fill-rule="nonzero" points="94.31 117.46 92.35 116.72 90.34 122.08 87.01 120.83 86.28 122.78 91.54 124.76 91.55 124.75 91.57 124.75"></polygon>
                <path d="M98.46,118.3 L127.35,105.18" id="Shape" stroke="#9ACDED" stroke-width="2" fill="#FFFFFF" fill-rule="nonzero" stroke-linecap="round" stroke-linejoin="round"></path>
                <polygon id="Shape" fill="#9ACDED" fill-rule="nonzero" points="98.34 126.34 96.39 125.61 94.37 130.97 91.04 129.72 90.31 131.67 95.58 133.65 95.58 133.63 95.6 133.64"></polygon>
                <path d="M102.83,127.92 L131.72,114.81" id="Shape" stroke="#9ACDED" stroke-width="2" fill="#FFFFFF" fill-rule="nonzero" stroke-linecap="round" stroke-linejoin="round"></path>
                <path d="M172.87,104.57 L172.87,108.51" id="Shape" stroke="#375D81" fill="#FFFFFF" fill-rule="nonzero" stroke-linecap="round" stroke-linejoin="round"></path>
                <path d="M174.84,106.54 L170.9,106.54" id="Shape" stroke="#375D81" fill="#FFFFFF" fill-rule="nonzero" stroke-linecap="round" stroke-linejoin="round"></path>
                <path d="M242.22,200.07 L249.19,200.07" id="Shape" stroke="#375D81" stroke-width="2" fill="#FFFFFF" fill-rule="nonzero" stroke-linecap="round" stroke-linejoin="round"></path>
                <path d="M91.23,209.19 L158.42,209.19" id="Shape" stroke="#375D81" stroke-width="2" fill="#FFFFFF" fill-rule="nonzero" stroke-linecap="round" stroke-linejoin="round"></path>
                <path d="M167.04,209.19 L176.18,209.19" id="Shape" stroke="#375D81" stroke-width="2" fill="#FFFFFF" fill-rule="nonzero" stroke-linecap="round" stroke-linejoin="round"></path>
                <path d="M83.35,209.11 L78.35,209.19" id="Shape" stroke="#375D81" stroke-width="2" fill="#FFFFFF" fill-rule="nonzero" stroke-linecap="round" stroke-linejoin="round"></path>
                <path d="M122.77,160.16 L127.5,158.6 C129.12999,158.063558 130.264941,156.58336 130.36,154.87 C130.61,149.99 128.88,146.16 127.96,142.7 C126.25,136.29 124.2,133.39 121.53,128.44 L114.53,130.95 C114.53,130.95 116,133.36 118.99,141.07 C119.92,143.46 119.13,154.53 120.9,159.24 C121.185828,159.989417 122.001878,160.390896 122.77,160.16 Z" id="Shape" stroke="#52267D" stroke-width="2" fill="#9452BA" fill-rule="nonzero"></path>
                <path d="M101.58,142.23 L93.73,137.64 L90.26,139 C90.26,139 91.55,144.55 92.09,146.87 C93.1483149,152.207671 93.8167472,157.615288 94.09,163.05 C94.1138409,164.156963 94.2648317,165.257518 94.54,166.33 C94.7556842,167.110028 95.2833707,167.766651 95.9987102,168.145138 C96.7140497,168.523624 97.5537732,168.590498 98.32,168.33 L102.51,166.95 C104.957168,166.156588 106.557334,163.807758 106.4,161.24 C105.82,153.17 101.58,142.23 101.58,142.23 Z" id="Shape" stroke="#52267D" stroke-width="2" fill="#9452BA" fill-rule="nonzero"></path>
                <polyline id="Shape" stroke="#52267D" stroke-width="0.5" points="95.03 149.35 94.36 150.49 95.53 151 96.81 149.95 96.31 149.41 95.19 150.1 95.27 150.31 95.58 150.19"></polyline>
                <path d="M85.62,120.77 C89.75,119.31 92.7,115.16 101.06,111.96 C101.003259,111.421491 101.003259,110.878509 101.06,110.34 C101.5,106.51 100.5,96.21 97.06,90.34 L94.31,85.72 C93.3922105,84.2322853 92.6378335,82.64977 92.06,81 L92.06,81 C91.8330302,80.3176092 91.6755644,79.6140386 91.59,78.9 C91.59,78.7266667 91.59,78.55 91.59,78.37 C91.5515384,77.8507112 91.5515384,77.3292888 91.59,76.81 C91.59,76.6366667 91.6066667,76.4666667 91.64,76.3 C91.6866667,75.96 91.7466667,75.6266667 91.82,75.3 C91.8933333,74.9733333 91.9866667,74.64 92.1,74.3 C92.423762,73.3291661 92.8851284,72.4098009 93.47,71.57 C93.6633333,71.29 93.8733333,71.02 94.1,70.76 C95.3606398,69.2809701 97.0039592,68.1773514 98.85,67.57 L100.51,67.02 C103.188612,66.1310421 106.111139,66.3469924 108.63,67.62 C108.936667,67.7733333 109.233333,67.94 109.52,68.12 C110.043796,68.4400444 110.538969,68.8047331 111,69.21 C111.17,69.37 111.34,69.53 111.51,69.7 L111.86,70.08 C112.555783,70.8735123 113.128805,71.7667522 113.56,72.73 C113.706555,73.0566377 113.836717,73.3903862 113.95,73.73 L113.95,73.73 C114.17101,74.398327 114.117034,75.1271252 113.799982,75.7556027 C113.482929,76.3840802 112.928854,76.8605894 112.26,77.08 L101.92,80.5 L106.42,89 C111.3,97.61 112.79,104 112.73,108.54 C112.73,109.54 111.98,113.41 111.98,113.41 C119.85,119.86 128.98,120.8 137.77,119.04 C145.27,117.54 158.66,105.82 148.12,100.87 C137.58,95.92 148.84,97.44 150.59,97.93 C152.34,98.42 162.94,102.82 157.45,116.24 C155.13,121.91 152.17,127.35 142.86,133.85 C141.37,134.85 132.55,138.53 128.15,141.54 C115.05,150.48 101.79,149.85 92.03,142.48 C82.27,135.11 84,121.35 85.62,120.77 Z" id="Shape" stroke="#52267D" stroke-width="2" fill="#9452BA" fill-rule="nonzero"></path>
                <path d="M90.06,104.06 C86.86,93.26 75.6,87.66 65.36,89.06 C63.24,89.35 62.36,88.94 60.19,89.66 L58.51,90.21 C52.8625,92.0794724 49.7969,98.1703946 51.66,103.82 C52.1262698,105.2263 53.6419063,105.990825 55.05,105.53 L72.33,99.8 L73.73,99.34 L72.33,99.81 C76.67,100.17 80.64,104.25 81.92,106.72 C83.608395,109.633727 84.3099219,113.015087 83.92,116.36 C83.7254589,118.253477 84.0468113,120.164315 84.85,121.89 L84.96,121.89 C85.3660582,122.862752 85.8475243,123.80228 86.4,124.7 C87.65,123.04 89.6,120.5 89.98,120.11 C90.8,119.26 92.65,117.32 93.46,116.41 C98.63,110.64 91.88,110.21 90.06,104.06 Z" id="Shape" stroke="#52267D" stroke-width="2" fill="#9452BA" fill-rule="nonzero"></path>
                <path d="M88.67,118.23 C88.04,116.61 87.51,115.84 87.47,115.11 C87.26,110.89 87.2,109.55 85.85,105.46 C84.3800924,101.310788 80.9103416,98.1872599 76.63,97.16 C74.9130395,97.4799545 73.3805635,98.4373055 72.34,99.84 C76.68,100.2 80.65,104.28 81.93,106.75 C83.618395,109.663727 84.3199219,113.045087 83.93,116.39 C83.7354589,118.283477 84.0568113,120.194315 84.86,121.92 C84.86,121.92 90.11,122.13 88.71,118.23" id="Shape" stroke="#52267D" fill="#F3E3FF" fill-rule="nonzero"></path>
                <path d="M53.72,93.75 C53.4114194,92.6259581 53.7818676,91.4249259 54.67,90.67 L56,89.54 C56,89.54 57.8,91.43 56.79,92.39 C55.966367,93.201972 54.8747792,93.6855418 53.72,93.75 L53.72,93.75 Z" id="Shape" stroke="#52267D" fill="#FFFFFF" fill-rule="nonzero"></path>
                <path d="M57.75,91 C57.3491655,89.4687738 58.1506863,87.8785908 59.62,87.29 C60.11,87.05 61.45,86.65 61.45,86.65 C61.45,86.65 62.92,89.02 61.55,89.75 C60.3460681,90.3375264 59.0676149,90.7580702 57.75,91 L57.75,91 Z" id="Shape" stroke="#52267D" fill="#FFFFFF" fill-rule="nonzero"></path>
                <path d="M63.28,89.46 C63.28,89.46 62.75,86.64 65.42,86.58 C66.1284606,86.5673095 66.8246731,86.7657301 67.42,87.15 C67.42,87.15 67.62,89.37 66.58,89.45 C65.4822564,89.5465239 64.3783084,89.5498692 63.28,89.46 Z" id="Shape" stroke="#52267D" fill="#FFFFFF" fill-rule="nonzero"></path>
                <path d="M74.65,100.24 C74.65,100.24 79.29,95.3 76.5,90.48 C78.1026583,91.1287894 79.6509178,91.9045911 81.13,92.8 C81.46,93.8 82.98,97.8 78.32,102.3 C77.1420414,101.535453 75.9161837,100.847369 74.65,100.24 L74.65,100.24 Z" id="Shape" stroke="#52267D" fill="#FFFFFF" fill-rule="nonzero"></path>
                <path d="M54.33,93 C54.1613732,92.4166853 54.3536471,91.7888522 54.82,91.4 L55.51,90.82 C55.51,90.82 56.44,91.82 55.92,92.29 C55.4942906,92.7126063 54.9288379,92.9651041 54.33,93 Z" id="Shape" fill="#F3E3FF" fill-rule="nonzero"></path>
                <path d="M58.74,90.09 C58.5416329,89.2970535 58.9728344,88.4820826 59.74,88.2 C59.99,88.08 60.67,87.87 60.67,87.87 C60.67,87.87 61.42,89.08 60.72,89.45 C60.092896,89.7541789 59.4265007,89.9695794 58.74,90.09 L58.74,90.09 Z" id="Shape" fill="#F3E3FF" fill-rule="nonzero"></path>
                <path d="M64.08,89 C64.08,89 63.8,87.5 65.22,87.47 C65.5748892,87.4741241 65.9214462,87.5780912 66.22,87.77 C66.22,87.77 66.32,88.95 65.77,88.99 C65.2078812,89.0393974 64.642664,89.0427419 64.08,89 L64.08,89 Z" id="Shape" fill="#F3E3FF" fill-rule="nonzero"></path>
                <path d="M64.9222613,95.6330412 L65.4022613,95.6330412 C66.7719274,95.6330412 67.8822613,96.7433751 67.8822613,98.1130412 L67.8822613,98.1130412 C67.8822613,99.4827074 66.7719274,100.593041 65.4022613,100.593041 L59.9922613,100.593041 L59.9922613,100.593041 C59.9922613,97.8316175 62.2308375,95.5930412 64.9922613,95.5930412 L64.9222613,95.6330412 Z" id="Shape" fill="#F3E3FF" fill-rule="nonzero" opacity="0.3" transform="translate(63.937261, 98.093041) rotate(-18.290000) translate(-63.937261, -98.093041) "></path>
                <path d="M64.133865,96.7075162 L65.133865,96.7075162 C66.2384345,96.7075162 67.133865,97.6029467 67.133865,98.7075162 L67.133865,98.7075162 C67.133865,99.8120857 66.2384345,100.707516 65.133865,100.707516 L60.233865,100.707516 L60.233865,100.707516 C60.233865,99.6731719 60.6447567,98.6811916 61.3761486,97.9497997 C62.1075405,97.2184078 63.0995207,96.8075162 64.133865,96.8075162 L64.133865,96.7075162 Z" id="Shape" stroke="#52267D" fill="#FFFFFF" fill-rule="nonzero" transform="translate(63.683865, 98.707516) rotate(-18.290000) translate(-63.683865, -98.707516) "></path>
                <circle id="Oval" fill="#52267D" fill-rule="nonzero" transform="translate(62.549592, 99.966358) rotate(-18.290000) translate(-62.549592, -99.966358) " cx="62.5495923" cy="99.9663577" r="1.09"></circle>
                <path d="M54.57,104.86 L54.57,104.86 C54.8428821,104.698715 55.0513931,104.447795 55.16,104.15 L55.36,103.6 L54.64,104.02 L54.22,104.27 C54.1411373,104.315843 54.0840029,104.391451 54.0614369,104.479835 C54.0388709,104.568218 54.0527662,104.661963 54.1,104.74 L54.1,104.74 C54.1458425,104.818863 54.2214515,104.875997 54.309835,104.898563 C54.3982184,104.921129 54.4919626,104.907234 54.57,104.86 Z" id="Shape" fill="#52267D" fill-rule="nonzero"></path>
                <path d="M75.64,100 C75.64,100 79.22,96.21 77.64,91.51 C78.7459099,91.814564 79.7864968,92.3196046 80.71,93 C80.9371159,94.2820858 80.8478665,95.6002307 80.45,96.84 C79.43,99.11 77.93,100.2 75.64,100 Z" id="Shape" fill="#EAF3FB" fill-rule="nonzero"></path>
                <path d="M79.49,97.83 C78.8323793,99.1740329 77.9946725,100.422182 77,101.54" id="Shape" stroke="#52267D" fill="#FFFFFF" fill-rule="nonzero"></path>
                <path d="M102.65,110.55 L101,109 C94.43,101.29 92.14,96.25 91.21,87.12 L90.66,81.78 C90.4819297,80.0251379 90.1130842,78.2949173 89.56,76.62 L89.56,76.62 C87.7144335,71.0427315 81.6979854,68.0166013 76.12,69.86 L74.49,70.4 C68.9895119,72.2173275 66.0033923,78.1492741 67.82,83.65 L67.91,83.94 C68.3430136,85.2469924 69.7513066,85.957845 71.06,85.53 L81.38,82.12 L82.78,91.61 C85.94,117.24 89.64,126.84 98.41,121.72" id="Shape" stroke="#52267D" stroke-width="2" fill="#9452BA" fill-rule="nonzero"></path>
                <path d="M70,73.2 C69.7717057,72.0720991 70.1511987,70.9070555 71,70.13 C71.4103397,69.8660692 71.8827169,69.7143568 72.37,69.69 C72.37,69.69 73.89,70.93 72.9,71.87 C72.1204309,72.6414603 71.0932656,73.1125396 70,73.2 Z" id="Shape" stroke="#52267D" fill="#FFFFFF" fill-rule="nonzero"></path>
                <path d="M73.9,71.26 C73.4361403,69.5276848 74.3371055,67.721464 76,67.05 C76.4263523,66.8626065 76.8679647,66.7120568 77.32,66.6 C77.32,66.6 79.74,69.01 78.2,69.83 C76.8383911,70.5000545 75.3917105,70.9811599 73.9,71.26 L73.9,71.26 Z" id="Shape" stroke="#52267D" fill="#FFFFFF" fill-rule="nonzero"></path>
                <path d="M79.66,70 C79.66,70 79.21,67.23 81.83,67.23 C82.5159519,67.240769 83.1836144,67.452891 83.75,67.84 C83.75,67.84 83.89,70.02 82.87,70.08 C81.7996496,70.1433869 80.7258641,70.1166259 79.66,70 L79.66,70 Z" id="Shape" stroke="#52267D" fill="#FFFFFF" fill-rule="nonzero"></path>
                <path d="M85.73,120.38 C86.1080507,119.827701 86.5946008,119.358163 87.16,119" id="Shape" stroke="#52267D" fill="#F3E3FF" fill-rule="nonzero"></path>
                <path d="M89.13,119.2 C85.13,112.9 83.89,98.78 83.38,95.37 L81.33,81.71 L82.33,81.39 C82.9589006,81.249278 83.617996,81.3730046 84.1530463,81.7322257 C84.6880967,82.0914468 85.0521459,82.654637 85.16,83.29 L87.23,95 C87.94,99 93.23,116.74 101.03,118.34 C102.7,118.68 104.82,117.4 105.54,116.7 C108.18,114.17 107.79,109.96 107.44,106.58 C106.71,99.58 103.91,94.83 101.9,89.82 L99.46,83.53 C99.0148035,82.3621094 99.553086,81.0492252 100.69,80.53 L101.87,80.14 L108.27,92.37 C110.13,95.84 115.99,108.06 110.44,116.53 C110.34,116.68 112.44,116.47 112.21,117.67 C111.27,122.42 104.92,125.22 104.21,127.34 C101.64,135.51 110.73,148.08 110.73,148.08 C107.237177,147.844659 103.797497,147.100125 100.52,145.87 C90.62,141.55 86.37,131.95 85.37,129.04 C84.17,125.56 84.37,123.09 85.08,121.42" id="Shape" stroke="#52267D" fill="#F3E3FF" fill-rule="nonzero"></path>
                <path d="M153,104.42 C153.401127,103.41047 153.225176,102.262963 152.54,101.42 C152.21478,101.112586 151.814923,100.895422 151.38,100.79 C151.38,100.79 149.79,101.64 150.52,102.67 C151.10579,103.536057 151.987698,104.158372 153,104.42 L153,104.42 Z" id="Shape" stroke="#52267D" fill="#FFFFFF" fill-rule="nonzero"></path>
                <path d="M152.13,102.87 C152.249645,102.531097 152.189414,102.154653 151.97,101.87 C151.85498,101.761996 151.713588,101.686127 151.56,101.65 C151.56,101.65 151,101.95 151.26,102.31 C151.474406,102.59394 151.782762,102.792422 152.13,102.87 Z" id="Shape" fill="#F3E3FF" fill-rule="nonzero"></path>
                <path d="M147,116 C145.935146,114.713704 145.995175,112.835667 147.14,111.62 C147.423811,111.29407 147.734942,110.992975 148.07,110.72 C148.07,110.72 151.07,111.81 150.07,113.11 C149.182802,114.208414 148.149952,115.180705 147,116 L147,116 Z" id="Shape" stroke="#52267D" fill="#FFFFFF" fill-rule="nonzero"></path>
                <path d="M147.56,114.8 C146.966977,114.086779 147.001351,113.042672 147.64,112.37 C147.798709,112.188763 147.97268,112.021482 148.16,111.87 C148.16,111.87 149.82,112.47 149.27,113.19 C148.776216,113.802255 148.200864,114.343961 147.56,114.8 Z" id="Shape" fill="#F3E3FF" fill-rule="nonzero"></path>
                <path d="M152,105.78 C152,105.78 154.3,106.78 153.05,108.73 C152.717281,109.242923 152.24076,109.646401 151.68,109.89 C151.68,109.89 149.98,108.96 150.42,108.16 C150.878959,107.323742 151.407491,106.527599 152,105.78 L152,105.78 Z" id="Shape" stroke="#52267D" fill="#FFFFFF" fill-rule="nonzero"></path>
                <path d="M152.08,107 C152.08,107 153.08,107.43 152.55,108.3 C152.401105,108.526164 152.188965,108.703527 151.94,108.81 C151.94,108.81 151.19,108.4 151.38,108.04 C151.58406,107.674503 151.818202,107.326634 152.08,107 L152.08,107 Z" id="Shape" fill="#F3E3FF" fill-rule="nonzero"></path>
                <path d="M138.84,120 C138.098305,118.826462 138.431666,117.275222 139.59,116.51 C141.59,114.92 142.47,115.4 142.47,115.4 C142.47,115.4 144.47,117.12 143.54,118.19 C142.61,119.26 138.84,120 138.84,120 Z" id="Shape" stroke="#52267D" fill="#FFFFFF" fill-rule="nonzero"></path>
                <path d="M139.77,119.2 C139.383112,118.588279 139.556426,117.77948 140.16,117.38 C141.22,116.55 141.66,116.8 141.66,116.8 C141.66,116.8 142.66,117.7 142.22,118.25 C141.4777,118.732458 140.643508,119.055921 139.77,119.2 L139.77,119.2 Z" id="Shape" fill="#F3E3FF" fill-rule="nonzero"></path>
                <path d="M81.87,85 C85.0879102,85.3597294 88.3116419,84.3756048 90.78,82.28 C90.96,84 91.3,87.46 91.3,87.46 C91.3,87.46 87,90.51 82.53,89.41 C82.21,87.19 81.87,85 81.87,85 Z" id="Shape" stroke="#52267D" fill="#FFFFFF" fill-rule="nonzero"></path>
                <path d="M106.29,66.59 C105.770093,65.5380022 104.730643,64.8412282 103.56,64.76 C102.85821,64.810821 102.164083,64.9382453 101.49,65.14 C101.49,65.14 101.7,67.14 103.07,67.31 C104.195112,67.4679419 105.339307,67.2120972 106.29,66.59 Z" id="Shape" stroke="#52267D" fill="#FFFFFF" fill-rule="nonzero"></path>
                <path d="M101.55,67.16 C100.970258,65.7099062 99.39968,64.9203261 97.89,65.32 C97.4934649,65.4099374 97.1053756,65.5337245 96.73,65.69 C96.73,65.69 96.29,68.64 97.8,68.41 C99.1010736,68.1659808 100.36273,67.7454288 101.55,67.16 Z" id="Shape" stroke="#52267D" fill="#FFFFFF" fill-rule="nonzero"></path>
                <path d="M96.49,69 C96.49,69 95.19,66.48 93.08,68.06 C92.529581,68.4808887 92.1156228,69.0548643 91.89,69.71 C91.89,69.71 93.08,71.55 93.95,70.99 C94.8508396,70.3988823 95.7004873,69.7332134 96.49,69 L96.49,69 Z" id="Shape" stroke="#52267D" fill="#FFFFFF" fill-rule="nonzero"></path>
                <path d="M70.72,72.46 C70.6110918,71.8473156 70.8357348,71.2228842 71.31,70.82 C71.5291556,70.6810779 71.7807909,70.6017956 72.04,70.59 C72.04,70.59 72.85,71.25 72.32,71.75 C71.8901731,72.1725104 71.3216856,72.4247768 70.72,72.46 Z" id="Shape" fill="#F3E3FF" fill-rule="nonzero"></path>
                <path d="M74.77,70.45 C74.4826025,69.3603564 75.0533007,68.2275418 76.1,67.81 C76.3645949,67.6902048 76.6389217,67.5931868 76.92,67.52 C76.92,67.52 78.44,69.03 77.47,69.52 C76.6167475,69.9519742 75.7082834,70.2648896 74.77,70.45 Z" id="Shape" fill="#F3E3FF" fill-rule="nonzero"></path>
                <path d="M80.6,69.44 C80.6,69.44 80.34,67.84 81.85,67.84 C82.2612279,67.8389178 82.6627934,67.9646253 83,68.2 C83,68.2 83.08,69.46 82.49,69.49 C81.8597326,69.5276062 81.2273975,69.5108778 80.6,69.44 Z" id="Shape" fill="#F3E3FF" fill-rule="nonzero"></path>
                <path d="M105.27,66.43 C105.00354,65.8585797 104.448813,65.476009 103.82,65.43 C103.450481,65.4568766 103.08499,65.5239391 102.73,65.63 C102.73,65.63 102.84,66.69 103.56,66.78 C104.15358,66.8744011 104.761244,66.7500254 105.27,66.43 L105.27,66.43 Z" id="Shape" fill="#F3E3FF" fill-rule="nonzero"></path>
                <path d="M100.36,67.08 C100.033819,66.29658 99.1824444,65.8708925 98.36,66.08 C98.1413586,66.1283126 97.9272462,66.1952228 97.72,66.28 C97.72,66.28 97.48,67.91 98.31,67.78 C99.0219097,67.6406893 99.7115639,67.4051976 100.36,67.08 Z" id="Shape" fill="#F3E3FF" fill-rule="nonzero"></path>
                <path d="M95.48,69.16 C95.48,69.16 94.77,67.78 93.61,68.65 C93.3098639,68.8798646 93.0838449,69.192814 92.96,69.55 C92.96,69.55 93.61,70.55 94.09,70.25 C94.5830164,69.9262004 95.0479822,69.5615869 95.48,69.16 Z" id="Shape" fill="#F3E3FF" fill-rule="nonzero"></path>
                <path d="M94.36,85.95 C97.4516971,85.3691135 100.419085,84.2559201 103.13,82.66 C104.33,84.87 105.19,86.56 105.19,86.56 C105.19,86.56 102.86,89.56 96.92,90.24 C95.26,87.44 94.36,85.95 94.36,85.95 Z" id="Shape" stroke="#52267D" fill="#FFFFFF" fill-rule="nonzero"></path>
                <path d="M97.0296271,73.6218487 L102.479627,73.6218487 C103.149407,73.602936 103.798339,73.8558477 104.27868,74.3230036 C104.759022,74.7901594 105.029894,75.4318019 105.029627,76.1018487 L105.029627,76.1018487 C105.029627,77.4715149 103.919293,78.5818487 102.549627,78.5818487 L102.029627,78.5818487 C99.2682033,78.5818487 97.0296271,76.3432724 97.0296271,73.5818487 L97.0296271,73.5818487 L97.0296271,73.6218487 Z" id="Shape" fill="#F3E3FF" fill-rule="nonzero" opacity="0.3" transform="translate(101.029627, 76.081849) rotate(161.710000) translate(-101.029627, -76.081849) "></path>
                <path d="M98.1445281,74.3874549 L102.904528,74.3874549 C104.058803,74.3874549 104.994528,75.3231798 104.994528,76.4774549 L104.994528,76.4774549 C104.994528,76.9574968 104.803832,77.4178774 104.464391,77.7573182 C104.12495,78.0967591 103.66457,78.2874549 103.184528,78.2874549 L102.054528,78.2874549 C101.020184,78.2874549 100.028203,77.8765633 99.2968116,77.1451714 C98.5654197,76.4137795 98.1545281,75.4217993 98.1545281,74.3874549 L98.1545281,74.3874549 L98.1445281,74.3874549 Z" id="Shape" stroke="#52267D" fill="#FFFFFF" fill-rule="nonzero" transform="translate(101.569528, 76.337455) rotate(161.710000) translate(-101.569528, -76.337455) "></path>
                <circle id="Oval" fill="#52267D" fill-rule="nonzero" transform="translate(102.494169, 75.723578) rotate(-18.290000) translate(-102.494169, -75.723578) " cx="102.494169" cy="75.7235776" r="1.09"></circle>
                <path d="M79.8463851,76.0039913 L80.3263851,76.0039913 C81.6960513,76.0039913 82.8063851,77.1143251 82.8063851,78.4839913 L82.8063851,78.4839913 C82.8063851,79.8536575 81.6960513,80.9639913 80.3263851,80.9639913 L74.8763851,80.9639913 L74.8763851,80.9639913 C74.8982102,78.2298554 77.1122108,76.0203095 79.8463851,76.0039913 Z" id="Shape" fill="#F3E3FF" fill-rule="nonzero" opacity="0.3" transform="translate(78.841385, 78.483991) rotate(-18.290000) translate(-78.841385, -78.483991) "></path>
                <path d="M78.7417236,77.3479997 L79.7410233,77.3479997 C80.8448194,77.3479997 81.7396228,78.2428031 81.7396228,79.3465992 L81.7396228,79.3465992 C81.7396228,80.4503952 80.8448194,81.3451987 79.7410233,81.3451987 L74.8644405,81.3451987 L74.8644405,81.3451987 C74.8375641,80.2978331 75.2335231,79.2837572 75.9629998,78.5317194 C76.6924764,77.7796815 77.6940252,77.3530278 78.7417236,77.3479997 Z" id="Shape" stroke="#52267D" stroke-width="0.999299755" fill="#FFFFFF" fill-rule="nonzero" transform="translate(78.301390, 79.346599) rotate(-18.072322) translate(-78.301390, -79.346599) "></path>
                <circle id="Oval" fill="#52267D" fill-rule="nonzero" transform="translate(79.964708, 79.360202) rotate(-18.290000) translate(-79.964708, -79.360202) " cx="79.9647076" cy="79.3602023" r="1.09"></circle>
                <path d="M112.14,76.19 L112.14,76.19 C111.823554,76.2234118 111.505347,76.1456278 111.24,75.97 L110.75,75.65 L111.58,75.56 L112.07,75.51 C112.16029,75.4987436 112.251325,75.5241471 112.322741,75.5805281 C112.394157,75.636909 112.439994,75.7195626 112.45,75.81 L112.45,75.81 C112.461191,75.9018671 112.43445,75.9943266 112.375949,76.0660374 C112.317448,76.1377483 112.232243,76.1825133 112.14,76.19 Z" id="Shape" fill="#52267D" fill-rule="nonzero"></path>
                <path d="M70.65,84.54 L70.65,84.54 C70.9228821,84.3787152 71.1313931,84.1277952 71.24,83.83 L71.44,83.28 L70.72,83.7 L70.3,83.95 C70.2211373,83.9958425 70.1640029,84.0714515 70.1414369,84.159835 C70.1188709,84.2482184 70.1327662,84.3419626 70.18,84.42 L70.18,84.42 C70.2258425,84.4988627 70.3014515,84.5559971 70.389835,84.5785631 C70.4782184,84.6011291 70.5719626,84.5872338 70.65,84.54 Z" id="Shape" fill="#52267D" fill-rule="nonzero"></path>
                <path d="M82.53,85.55 C85.3303534,85.6837146 88.0883454,84.8269315 90.32,83.13 C90.5126298,84.3554178 90.6361583,85.5907034 90.69,86.83 C89.4162547,87.3524816 88.0928217,87.7444858 86.74,88 C84.39,88.25 83.18,87.53 82.53,85.55 Z" id="Shape" fill="#EAF3FB" fill-rule="nonzero"></path>
                <path d="M88.86,86.7 C86.7725221,87.5448059 84.510428,87.8674719 82.27,87.64" id="Shape" stroke="#52267D" fill="#FFFFFF" fill-rule="nonzero"></path>
                <path d="M101.75,84.08 C99.8391799,85.3349567 97.6918221,86.1857324 95.44,86.58 C95.998991,87.5054185 96.6169336,88.3939197 97.29,89.24 C97.29,89.24 101.61,87.14 101.75,84.08 Z" id="Shape" fill="#EAF3FB" fill-rule="nonzero"></path>
                <path d="M110.45,116.57 C110.45,116.57 110.29,116.79 110.06,117.06" id="Shape" stroke="#52267D" stroke-width="0.5" fill="#F3E3FF" fill-rule="nonzero"></path>
                <path d="M102.5,85.26 C100.292702,86.4249052 97.9380427,87.2860378 95.5,87.82" id="Shape" stroke="#52267D" fill="#FFFFFF" fill-rule="nonzero"></path>
                <path d="M120.26,157.91 C119.439035,157.71416 118.595907,158.135724 118.26,158.91 C117.45,160.19 117.08,161.91 117.63,161.85 C118.444958,161.806957 119.240449,161.585039 119.96,161.2 C120.71,160.79 121.47,160.71 121.24,158.93 C121.175899,158.410189 120.776833,157.994834 120.26,157.91 L120.26,157.91 Z" id="Shape" stroke="#52267D" stroke-width="0.5" fill="#FFFFFF" fill-rule="nonzero"></path>
                <path d="M120.15,158.25 C119.639244,158.108388 119.101206,158.358342 118.88,158.84 C118.38,159.63 118.15,160.68 118.49,160.67 C118.996818,160.64461 119.491847,160.508051 119.94,160.27 C120.41,160.01 120.88,159.97 120.73,158.86 C120.685156,158.554454 120.452898,158.310183 120.15,158.25 L120.15,158.25 Z" id="Shape" fill="#EAF3FB" fill-rule="nonzero"></path>
                <path d="M121.55,157.46 C122.01,157.24 123.05,158.05 123.08,158.4 C123.11,158.75 123.4,159.82 122.66,160.19 C122.11,160.46 120.13,161.36 119.54,161.06 C118.95,160.76 119.17,158.62 121.55,157.46 Z" id="Shape" stroke="#52267D" stroke-width="0.5" fill="#FFFFFF" fill-rule="nonzero"></path>
                <path d="M121.79,157.71 C122.06,157.58 122.68,158.06 122.69,158.26 C122.7,158.46 122.88,159.1 122.44,159.32 C122,159.54 120.95,160.01 120.6,159.83 C120.25,159.65 120.38,158.39 121.79,157.71 Z" id="Shape" fill="#EAF3FB" fill-rule="nonzero"></path>
                <path d="M123.66,157 C123.66,157 123.17,156.92 122.5,157.66 C121.83,158.4 121.04,159.34 121.6,160.08 C122.16,160.82 124.36,159.74 124.81,159.4 C125.259185,159.053649 125.401485,158.43841 125.15,157.93 C124.867836,157.364382 124.292072,157.005013 123.66,157 Z" id="Shape" stroke="#52267D" stroke-width="0.5" fill="#FFFFFF" fill-rule="nonzero"></path>
                <path d="M123.92,157.23 C123.92,157.23 123.63,157.23 123.23,157.62 C122.83,158.01 122.37,158.62 122.7,159.05 C123.03,159.48 124.33,158.85 124.6,158.65 C124.86344,158.443419 124.946781,158.080884 124.8,157.78 C124.63219,157.446901 124.292949,157.234875 123.92,157.23 Z" id="Shape" fill="#EAF3FB" fill-rule="nonzero"></path>
                <path d="M105.31,133.77 C107.04754,138.285115 108.271897,142.981282 108.96,147.77 C110.28,155.99 108.85,159.18 109.68,161.15 C110.33,162.67 111.46,163.89 113.03,163.37 L117.72,161.82 C119.907509,161.094745 121.388344,159.054572 121.4,156.75 C121.403704,154.294452 121.155742,151.844989 120.66,149.44 C119.816878,145.981759 118.771752,142.575917 117.53,139.24" id="Shape" stroke="#52267D" stroke-width="2" fill="#9452BA" fill-rule="nonzero"></path>
                <path d="M130.52,129.34 C129.458258,131.2776 129.269238,133.574916 130,135.66 C130.9,138.34 133.59,141.25 134.08,146.04 C134.51,150.31 132.99,151.59 134.7,154.98 C135.021991,155.588461 135.738557,155.872544 136.39,155.65 L141.62,153.92 C144.027181,153.124149 145.507056,150.705611 145.12,148.2 C144.04311,142.312687 141.948439,136.658091 138.93,131.49" id="Shape" stroke="#52267D" stroke-width="2" fill="#9452BA" fill-rule="nonzero"></path>
                <polyline id="Shape" stroke="#52267D" stroke-width="0.5" points="133.51 134.93 133.74 134.6 134.81 134.5 133.94 135.57 132.4 135.35 133.41 133.79 134.11 133.8"></polyline>
                <path d="M110.78,161 C109.959035,160.80416 109.115907,161.225724 108.78,162 C107.97,163.28 107.6,165 108.15,164.94 C108.964958,164.896957 109.760449,164.675039 110.48,164.29 C111.23,163.88 111.99,163.8 111.76,162.02 C111.695899,161.500189 111.296833,161.084834 110.78,161 L110.78,161 Z" id="Shape" stroke="#52267D" fill="#FFFFFF" fill-rule="nonzero"></path>
                <path d="M110.66,161.38 C110.149244,161.238388 109.611206,161.488342 109.39,161.97 C108.89,162.76 108.66,163.81 109,163.8 C109.506818,163.77461 110.001847,163.638051 110.45,163.4 C110.92,163.14 111.39,163.1 111.24,161.99 C111.195156,161.684454 110.962898,161.440183 110.66,161.38 L110.66,161.38 Z" id="Shape" fill="#EAF3FB" fill-rule="nonzero"></path>
                <polyline id="Shape" stroke="#52267D" stroke-width="0.5" points="113.38 144.85 111.7 146.05 112.53 147.7 114.48 147.21 115.04 145.88 113.68 145.63 112.82 146.21 113.65 146.69"></polyline>
                <g id="Group" opacity="0.3" transform="translate(53.000000, 72.000000)" stroke="#F3E3FF" stroke-width="0.25">
                    <path d="M1.5,29.09 C1.63056127,29.3088118 1.89630983,29.4065834 2.13755088,29.3245614 C2.37879193,29.2425395 2.52987059,29.0030466 2.5,28.75" id="Shape"></path>
                    <path d="M0.48,29.42 C0.505817643,29.6387124 0.661866983,29.8198324 0.874355902,29.8777127 C1.08684482,29.9355929 1.31319256,29.8586347 1.44636452,29.6832297 C1.57953649,29.5078248 1.59284627,29.2691227 1.48,29.08" id="Shape"></path>
                    <path d="M1.16,29.76 C1.29056127,29.9788118 1.55630983,30.0765834 1.79755088,29.9945614 C2.03879193,29.9125395 2.18987059,29.6730466 2.16,29.42" id="Shape"></path>
                    <path d="M20.84,22.17 C21.2652592,22.2721726 21.6928273,22.0102592 21.7949999,21.585 C21.8971726,21.1597408 21.6352592,20.7321727 21.21,20.63" id="Shape"></path>
                    <path d="M21.42,23.12 C21.8452592,23.2221726 22.2728273,22.9602592 22.3749999,22.535 C22.4771726,22.1097408 22.2152592,21.6821727 21.79,21.58" id="Shape"></path>
                    <path d="M50.63,31.28 C50.6893109,31.5483283 50.896189,31.7594948 51.1632441,31.8242978 C51.4302992,31.8891008 51.7109525,31.7962376 51.8866494,31.5849358 C52.0623462,31.373634 52.1024423,31.080748 51.99,30.83" id="Shape"></path>
                    <path d="M49.26,31.73 C49.3193109,31.9983283 49.526189,32.2094948 49.7932441,32.2742978 C50.0602992,32.3391008 50.3409525,32.2462376 50.5166494,32.0349358 C50.6923462,31.823634 50.7324423,31.530748 50.62,31.28" id="Shape"></path>
                    <path d="M50.17,32.18 C50.3210897,32.5169323 50.7025794,32.6849458 51.0531451,32.5689498 C51.4037109,32.4529537 51.6096966,32.090555 51.53,31.73" id="Shape"></path>
                    <path d="M44.54,81.24 C44.6910897,81.5769323 45.0725794,81.7449458 45.4231451,81.6289498 C45.7737109,81.5129537 45.9796966,81.150555 45.9,80.79" id="Shape"></path>
                    <path d="M43.17,81.7 C43.3210897,82.0369323 43.7025794,82.2049458 44.0531451,82.0889498 C44.4037109,81.9729537 44.6096966,81.610555 44.53,81.25" id="Shape"></path>
                    <path d="M44.08,82.15 C44.1393109,82.4183283 44.346189,82.6294948 44.6132441,82.6942978 C44.8802992,82.7591008 45.1609525,82.6662376 45.3366494,82.4549358 C45.5123462,82.243634 45.5524423,81.950748 45.44,81.7" id="Shape"></path>
                    <path d="M42.38,9.88 C42.5180712,10.2942136 42.9657864,10.5180712 43.38,10.38 C43.7942135,10.2419288 44.0180712,9.79421356 43.88,9.38" id="Shape"></path>
                    <path d="M41.88,10.88 C42.0180712,11.2942135 42.4657864,11.5180711 42.88,11.3799999 C43.2942135,11.2419288 43.5180712,10.7942136 43.38,10.38" id="Shape"></path>
                    <path d="M37.18,26.29 C37.1920544,26.7171871 37.4742422,27.0895017 37.882272,27.2165678 C38.2903018,27.3436339 38.7339836,27.1973652 38.9864492,26.8525533 C39.2389149,26.5077414 39.2443599,26.0406029 39,25.69" id="Shape"></path>
                    <path d="M36.57,27.5 C36.822766,27.8626639 37.2836604,28.0163351 37.703493,27.8779287 C38.1233256,27.7395224 38.4024691,27.3418826 38.39,26.9" id="Shape"></path>
                    <path d="M16.45,8 C16.5214531,8.21793202 16.7037439,8.38118974 16.9282051,8.42827554 C17.1526663,8.47536133 17.385197,8.39912176 17.5382051,8.22827553 C17.6912132,8.0574293 17.7414531,7.81793202 17.67,7.6" id="Shape"></path>
                    <path d="M16,8.82 C16.0714531,9.03793201 16.2537439,9.20118972 16.4782051,9.24827551 C16.7026663,9.2953613 16.935197,9.21912173 17.0882051,9.04827551 C17.2412132,8.87742928 17.2914531,8.63793201 17.22,8.42" id="Shape"></path>
                    <path d="M94.11,50.49 C94.3355185,50.6495839 94.6311532,50.6702538 94.8766843,50.5436045 C95.1222155,50.4169552 95.2767505,50.1640796 95.2774479,49.8878096 C95.2781452,49.6115396 95.1248887,49.3578872 94.88,49.23" id="Shape"></path>
                    <path d="M94.36,51.5 C94.7051499,51.6802462 95.1309359,51.5621824 95.3339783,51.2299312 C95.5370207,50.89768 95.4478492,50.4649199 95.13,50.24" id="Shape"></path>
                    <path d="M63,50 C63.202243,50.2591122 63.5332524,50.3821216 63.8556274,50.3179675 C64.1780024,50.2538133 64.4366988,50.0134497 64.5243328,49.6966506 C64.6119668,49.3798516 64.5135752,49.0407091 64.27,48.82" id="Shape"></path>
                    <path d="M61.76,51.2 C61.9617005,51.4708255 62.3018971,51.6004722 62.6326831,51.5325737 C62.963469,51.4646752 63.2250856,51.2114979 63.3037901,50.8831152 C63.3824947,50.5547326 63.2640687,50.2104692 63,50" id="Shape"></path>
                    <path d="M63,51.25 C63.202243,51.5091122 63.5332524,51.6321216 63.8556274,51.5679675 C64.1780024,51.5038133 64.4366988,51.2634497 64.5243328,50.9466506 C64.6119668,50.6298516 64.5135752,50.2907091 64.27,50.07" id="Shape"></path>
                    <path d="M61.71,52.42 C61.912243,52.6791122 62.2432524,52.8021216 62.5656274,52.7379675 C62.8880024,52.6738133 63.1466988,52.4334497 63.2343328,52.1166506 C63.3219668,51.7998516 63.2235752,51.4607091 62.98,51.24" id="Shape"></path>
                    <path d="M64.21,51.29 C64.5446109,51.5931986 65.0555647,51.5900071 65.3863619,51.2826522 C65.7171591,50.9752973 65.7578309,50.4659548 65.48,50.11" id="Shape"></path>
                    <path d="M33.63,9.17 C33.728248,9.46653045 33.9772301,9.68812118 34.283157,9.75130111 C34.5890839,9.81448104 34.9054781,9.70965163 35.113157,9.4763011 C35.3208359,9.24295058 35.388248,8.91653044 35.29,8.62" id="Shape"></path>
                    <path d="M43.71,40.65 C43.808248,40.9465304 44.0572301,41.1681212 44.363157,41.2313011 C44.6690839,41.294481 44.9854781,41.1896516 45.193157,40.9563011 C45.4008359,40.7229506 45.468248,40.3965304 45.37,40.1" id="Shape"></path>
                    <path d="M47.41,20.24 C47.5259798,20.5879394 47.9020606,20.7759798 48.25,20.66 C48.5979394,20.5440202 48.7859798,20.1679394 48.67,19.82" id="Shape"></path>
                    <path d="M57.66,1 C57.770714,1.22261076 58.0281719,1.33005685 58.2642859,1.25218947 C58.5003999,1.17432209 58.6434319,0.934799547 58.6,0.69" id="Shape"></path>
                    <path d="M84.53,69.1 C84.6782652,69.3750945 84.9620291,69.5501938 85.2744005,69.5593396 C85.586772,69.5684854 85.8802943,69.4102883 86.0444005,69.1443396 C86.2085068,68.8783909 86.2182652,68.5450945 86.07,68.27" id="Shape"></path>
                    <path d="M63.61,82.8 C63.6220544,83.2271871 63.9042422,83.5995017 64.312272,83.7265678 C64.7203018,83.8536339 65.1639836,83.7073652 65.4164492,83.3625533 C65.6689149,83.0177414 65.6743599,82.5506029 65.43,82.2" id="Shape"></path>
                    <path d="M63,84 C63.0120544,84.4271871 63.2942422,84.7995017 63.702272,84.9265678 C64.1103018,85.0536339 64.5539836,84.9073652 64.8064492,84.5625533 C65.0589149,84.2177414 65.0643599,83.7506029 64.82,83.4" id="Shape"></path>
                </g>
                <path d="M112.07,160.6 C112.53,160.38 113.57,161.19 113.6,161.54 C113.63,161.89 113.92,162.96 113.18,163.33 C112.63,163.6 110.65,164.5 110.06,164.2 C109.47,163.9 109.68,161.76 112.07,160.6 Z" id="Shape" stroke="#52267D" fill="#FFFFFF" fill-rule="nonzero"></path>
                <path d="M112.3,160.85 C112.57,160.72 113.19,161.2 113.2,161.4 C113.21,161.6 113.39,162.24 112.95,162.46 C112.51,162.68 111.46,163.15 111.11,162.97 C110.76,162.79 110.89,161.53 112.3,160.85 Z" id="Shape" fill="#EAF3FB" fill-rule="nonzero"></path>
                <path d="M113.95,160.55 C113.95,160.55 113.52,160.48 112.95,161.14 C112.38,161.8 111.66,162.63 112.16,163.28 C112.66,163.93 114.6,162.98 115,162.68 C115.397832,162.37405 115.523534,161.829343 115.3,161.38 C115.046637,160.867125 114.522018,160.544581 113.95,160.55 Z" id="Shape" stroke="#52267D" fill="#FFFFFF" fill-rule="nonzero"></path>
                <path d="M114.17,160.76 C114.17,160.76 113.91,160.76 113.56,161.11 C113.21,161.46 112.8,161.99 113.09,162.38 C113.38,162.77 114.54,162.2 114.77,162.02 C115.007133,161.839868 115.082705,161.516588 114.95,161.25 C114.803073,160.952766 114.501549,160.763347 114.17,160.76 L114.17,160.76 Z" id="Shape" fill="#EAF3FB" fill-rule="nonzero"></path>
                <path d="M94.76,167.12 C94.76,167.12 94.33,167.05 93.76,167.71 C93.19,168.37 92.47,169.2 92.97,169.85 C93.47,170.5 95.41,169.55 95.81,169.25 C96.2078322,168.94405 96.3335338,168.399343 96.11,167.95 C95.8566372,167.437125 95.332018,167.114581 94.76,167.12 L94.76,167.12 Z" id="Shape" stroke="#52267D" fill="#FFFFFF" fill-rule="nonzero"></path>
                <path d="M95,167.33 C95,167.33 94.74,167.33 94.39,167.68 C94.04,168.03 93.63,168.56 93.92,168.95 C94.21,169.34 95.37,168.77 95.6,168.59 C95.8371326,168.409868 95.9127046,168.086588 95.78,167.82 C95.633073,167.522766 95.3315489,167.333347 95,167.33 Z" id="Shape" fill="#EAF3FB" fill-rule="nonzero"></path>
                <path d="M96.82,165.87 C97.28,165.65 98.32,166.46 98.35,166.81 C98.38,167.16 98.67,168.23 97.93,168.6 C97.38,168.87 95.4,169.77 94.81,169.47 C94.22,169.17 94.43,167 96.82,165.87 Z" id="Shape" stroke="#52267D" fill="#FFFFFF" fill-rule="nonzero"></path>
                <path d="M97,166.11 C97.27,165.98 97.89,166.46 97.9,166.66 C97.91,166.86 98.09,167.5 97.65,167.72 C97.21,167.94 96.16,168.41 95.81,168.23 C95.46,168.05 95.64,166.8 97,166.11 Z" id="Shape" fill="#EAF3FB" fill-rule="nonzero"></path>
                <path d="M136.15,152.66 C135.329035,152.46416 134.485907,152.885724 134.15,153.66 C133.34,154.94 132.97,156.66 133.52,156.6 C134.334958,156.556957 135.130449,156.335039 135.85,155.95 C136.6,155.54 137.36,155.46 137.13,153.68 C137.065899,153.160189 136.666833,152.744834 136.15,152.66 Z" id="Shape" stroke="#52267D" stroke-width="0.5" fill="#FFFFFF" fill-rule="nonzero"></path>
                <path d="M136,153 C135.489244,152.858388 134.951206,153.108342 134.73,153.59 C134.23,154.38 134,155.43 134.34,155.42 C134.846818,155.39461 135.341847,155.258051 135.79,155.02 C136.26,154.76 136.73,154.72 136.58,153.61 C136.535156,153.304454 136.302898,153.060183 136,153 L136,153 Z" id="Shape" fill="#EAF3FB" fill-rule="nonzero"></path>
                <path d="M137.44,152.21 C137.9,151.99 138.94,152.8 138.97,153.15 C139,153.5 139.29,154.57 138.55,154.94 C138,155.21 136.02,156.11 135.43,155.81 C134.84,155.51 135.06,153.37 137.44,152.21 Z" id="Shape" stroke="#52267D" stroke-width="0.5" fill="#FFFFFF" fill-rule="nonzero"></path>
                <path d="M137.68,152.46 C137.95,152.33 138.57,152.81 138.58,153.01 C138.59,153.21 138.77,153.85 138.33,154.07 C137.89,154.29 136.84,154.76 136.49,154.58 C136.14,154.4 136.27,153.14 137.68,152.46 Z" id="Shape" fill="#EAF3FB" fill-rule="nonzero"></path>
                <path d="M139.33,152.16 C139.33,152.16 138.9,152.09 138.33,152.75 C137.76,153.41 137.04,154.24 137.54,154.89 C138.04,155.54 139.98,154.59 140.38,154.29 C140.777832,153.98405 140.903534,153.439343 140.68,152.99 C140.426637,152.477125 139.902018,152.154581 139.33,152.16 Z" id="Shape" stroke="#52267D" stroke-width="0.5" fill="#FFFFFF" fill-rule="nonzero"></path>
                <path d="M139.55,152.37 C139.55,152.37 139.29,152.37 138.94,152.72 C138.59,153.07 138.18,153.6 138.47,153.99 C138.76,154.38 139.92,153.81 140.15,153.63 C140.387133,153.449868 140.462705,153.126588 140.33,152.86 C140.183073,152.562766 139.881549,152.373347 139.55,152.37 L139.55,152.37 Z" id="Shape" fill="#EAF3FB" fill-rule="nonzero"></path>
                <path d="M103.3,164.22 C103.386971,164.054626 103.563641,163.956476 103.75,163.97 C104.39,164.05 106.03,164.33 106.08,165.43 C106.08,166.29 105.56,166.21 104.65,166.53 L103.96,166.77 C103.817174,166.81754 103.659783,166.78299 103.55,166.68 L103.55,166.68 C102.929347,166.033158 102.814918,165.052344 103.27,164.28 L103.3,164.22 Z" id="Shape" stroke="#52267D" fill="#FFFFFF" fill-rule="nonzero"></path>
                <path d="M103.45,164.42 C103.513816,164.299119 103.643818,164.228209 103.78,164.24 C104.25,164.3 105.44,164.5 105.47,165.3 C105.47,165.92 105.09,165.87 104.47,166.1 L103.97,166.27 C103.866549,166.306324 103.751522,166.283319 103.67,166.21 L103.67,166.21 C103.212748,165.740203 103.130537,165.02085 103.47,164.46 L103.45,164.42 Z" id="Shape" fill="#EAF3FB" fill-rule="nonzero"></path>
                <path d="M100,165 C99.1976734,164.703601 98.2989051,165.034279 97.88,165.78 C96.97,166.98 96.46,168.63 97,168.65 C97.8134127,168.675253 98.6224528,168.521638 99.37,168.2 C100.15,167.85 100.91,167.84 100.83,166.05 C100.797785,165.561769 100.467603,165.144068 100,165 Z" id="Shape" stroke="#52267D" fill="#FFFFFF" fill-rule="nonzero"></path>
                <path d="M99.82,165.32 C99.3218335,165.132968 98.7616691,165.336664 98.5,165.8 C97.93,166.55 97.61,167.57 97.95,167.59 C98.4579093,167.606484 98.9632148,167.510886 99.43,167.31 C99.92,167.1 100.43,167.09 100.34,165.97 C100.31928,165.666054 100.111985,165.406934 99.82,165.32 Z" id="Shape" fill="#EAF3FB" fill-rule="nonzero"></path>
                <path d="M58.27,200.11 L235.17,200.11" id="Shape" stroke="#375D81" stroke-width="2" fill="#FFFFFF" fill-rule="nonzero" stroke-linecap="round" stroke-linejoin="round"></path>
                <rect id="Rectangle-path" stroke="#9ACDED" stroke-width="2" fill="#FFFFFF" fill-rule="nonzero" transform="translate(155.036774, 103.055065) rotate(19.540000) translate(-155.036774, -103.055065) " x="122.496774" y="55.8750647" width="65.08" height="94.36" rx="2.25"></rect>
                <polygon id="Shape" fill="#E1F2FF" fill-rule="nonzero" points="117.06 128.13 168.63 150.57 195.28 75.48 142.66 54.04"></polygon>
                <circle id="Oval" fill="#FFFFFF" fill-rule="nonzero" transform="translate(159.134390, 86.009495) rotate(-70.460000) translate(-159.134390, -86.009495) " cx="159.13439" cy="86.0094948" r="12.51"></circle>
                <circle id="Oval" stroke="#9ACDED" stroke-width="2" fill="#FFFFFF" fill-rule="nonzero" transform="translate(161.401898, 84.141434) rotate(-70.460000) translate(-161.401898, -84.141434) " cx="161.401898" cy="84.1414342" r="12.51"></circle>
                <path d="M162.27,91 C162.27,91.16 162.27,91.28 162.27,91.32 L162.27,91.32 C163.08,87.99 165.37,87.32 166.72,85.32 L166.78,85.22 L166.86,85.08 C167.148304,84.3766962 167.180161,83.5944177 166.95,82.87 L166.95,82.87 L166.89,82.65 L166.89,82.65 C166.89,82.51 166.81,82.38 166.77,82.24 L166.77,82.24 L166.77,82.13 L166.77,82.01 L166.77,81.89 L166.77,81.77 L166.77,81.69 C166.292727,80.5273693 165.689102,79.4207236 164.97,78.39 L164.97,78.39 C164.702904,79.5619679 164.310652,80.7018439 163.8,81.79 C163.154106,83.0272086 162.320946,84.157203 161.33,85.14 C160.051579,84.5786345 158.867603,83.8230488 157.82,82.9 C156.948796,82.0705854 156.170845,81.1484446 155.5,80.15 L155.43,80.46 L155.43,80.55 L155.43,80.77 L155.43,80.87 L155.43,81.1 L155.43,81.19 L155.43,81.48 L155.43,81.48 L155.38,81.81 L155.38,81.81 L155.38,82.11 L155.38,82.17 L155.38,82.44 L155.38,82.49 C155.38,82.59 155.38,82.7 155.38,82.8 L155.38,82.8 C155.38,83.1333333 155.38,83.4666667 155.38,83.8 L155.38,83.8 C155.373101,84.2919096 155.406546,84.7835566 155.48,85.27 L155.48,85.46 L155.48,85.46 L155.48,85.63 L155.48,85.63 L155.48,85.81 L155.48,85.81 L155.48,85.81 L155.48,85.81 L155.54,86.03 L155.54,86.03 L155.54,86.03 L155.63,86.26 L155.7,86.41 L155.7,86.47 L155.7,86.56 L155.7,86.62 L155.7,86.7 L155.7,86.76 L155.75,86.83 L155.75,86.88 L155.81,86.95 L155.81,86.95 L155.88,87.02 L155.88,87.02 L156,87.11 L156.07,87.17 C158.01,88.5 160.42,88.34 162.38,91.17" id="Fill-7-2" fill="#9452BA" fill-rule="nonzero"></path>
                <polygon id="Shape" fill="#9ACDED" fill-rule="nonzero" points="140.83 103.3 139.92 101.38 134.67 103.88 133.11 100.62 131.19 101.53 133.65 106.7 133.67 106.69 133.68 106.71"></polygon>
                <path d="M143.44,106.4 L173.84,117.19" id="Shape" stroke="#9ACDED" stroke-width="2" fill="#FFFFFF" fill-rule="nonzero" stroke-linecap="round" stroke-linejoin="round"></path>
                <polygon id="Shape" fill="#9ACDED" fill-rule="nonzero" points="137.51 112.65 136.6 110.74 131.35 113.24 129.79 109.97 127.88 110.89 130.34 116.05 130.35 116.04 130.36 116.06"></polygon>
                <path d="M139.96,116.2 L170.36,126.99" id="Shape" stroke="#9ACDED" stroke-width="2" fill="#FFFFFF" fill-rule="nonzero" stroke-linecap="round" stroke-linejoin="round"></path>
                <polygon id="Shape" fill="#9ACDED" fill-rule="nonzero" points="134.19 122.01 133.28 120.09 128.03 122.59 126.47 119.33 124.56 120.24 127.02 125.41 127.03 125.4 127.04 125.41"></polygon>
                <path d="M136.37,126.33 L166.77,137.12" id="Shape" stroke="#9ACDED" stroke-width="2" fill="#FFFFFF" fill-rule="nonzero" stroke-linecap="round" stroke-linejoin="round"></path>
                <rect id="Rectangle-path" stroke="#9ACDED" stroke-width="2" fill="#FFFFFF" fill-rule="nonzero" transform="translate(139.820186, 113.318655) rotate(19.840000) translate(-139.820186, -113.318655) " x="105.410186" y="63.4236548" width="68.82" height="99.79" rx="2.25"></rect>
                <polygon id="Shape" fill="#E1F2FF" fill-rule="nonzero" points="99.51 139.63 153.92 163.65 182.52 84.39 127.01 61.42"></polygon>
                <circle id="Oval" fill="#FFFFFF" fill-rule="nonzero" transform="translate(144.225877, 95.301960) rotate(-70.160000) translate(-144.225877, -95.301960) " cx="144.225877" cy="95.3019598" r="13.23"></circle>
                <circle id="Oval" stroke="#9ACDED" stroke-width="2" fill="#FFFFFF" fill-rule="nonzero" transform="translate(146.654143, 93.336994) rotate(-70.160000) translate(-146.654143, -93.336994) " cx="146.654143" cy="93.3369936" r="13.23"></circle>
                <path d="M147.53,100.6 C147.53,100.77 147.53,100.9 147.53,100.94 L147.53,100.94 C148.4,97.42 150.84,96.7 152.27,94.67 L152.33,94.57 L152.42,94.43 C152.730142,93.6870795 152.769081,92.8587387 152.53,92.09 L152.53,92.09 L152.47,91.86 L152.47,91.86 C152.47,91.72 152.39,91.57 152.34,91.42 L152.34,91.42 L152.34,91.3 L152.34,91.17 L152.34,91.05 L152.34,90.92 L152.34,90.83 C151.843442,89.5979857 151.212991,88.4242736 150.46,87.33 L150.46,87.33 C150.101134,88.5523524 149.611644,89.7324929 149,90.85 C148.310374,92.1550988 147.423243,93.3458112 146.37,94.38 C145.017993,93.782746 143.766525,92.9799177 142.66,92 C141.745638,91.1148121 140.930797,90.132308 140.23,89.07 L140.15,89.4 L140.15,89.5 L140.1,89.74 L140.1,89.85 L140.1,90.09 L140.1,90.19 L140.05,90.49 L140.05,90.49 L139.99,90.84 L139.99,90.84 L139.99,91.15 L139.99,91.21 L139.99,91.5 L139.99,91.56 C139.99,91.67 139.99,91.78 139.99,91.89 L139.99,91.89 C139.99,92.2366667 139.973333,92.57 139.94,92.89 L139.94,92.89 C139.927614,93.4082576 139.957715,93.9266588 140.03,94.44 L140.03,94.64 L140.03,94.64 L140.03,94.82 L140.03,94.82 L140.03,95.01 L140.03,95.01 L140.03,95.01 L140.03,95.01 L140.1,95.24 L140.1,95.24 L140.1,95.24 C140.1,95.32 140.16,95.41 140.19,95.48 L140.26,95.64 L140.26,95.7 L140.26,95.79 L140.26,95.86 L140.31,95.94 L140.31,96 L140.37,96.08 L140.37,96.14 L140.43,96.21 L140.43,96.21 L140.51,96.28 L140.51,96.28 L140.63,96.38 L140.7,96.44 C142.7,97.86 145.3,97.7 147.35,100.68" id="Fill-7-3" fill="#9452BA" fill-rule="nonzero"></path>
                <polygon id="Shape" fill="#9ACDED" fill-rule="nonzero" points="124.79 113.5 123.84 111.47 118.27 114.08 116.64 110.62 114.61 111.58 117.18 117.06 117.2 117.05 117.21 117.06"></polygon>
                <path d="M127.53,116.8 L159.62,128.38" id="Shape" stroke="#9ACDED" stroke-width="2" fill="#FFFFFF" fill-rule="nonzero" stroke-linecap="round" stroke-linejoin="round"></path>
                <polygon id="Shape" fill="#9ACDED" fill-rule="nonzero" points="121.23 123.38 120.28 121.34 114.71 123.96 113.08 120.5 111.05 121.45 113.62 126.93 113.64 126.92 113.65 126.94"></polygon>
                <path d="M123.8,127.14 L155.89,138.72" id="Shape" stroke="#9ACDED" stroke-width="2" fill="#FFFFFF" fill-rule="nonzero" stroke-linecap="round" stroke-linejoin="round"></path>
                <polygon id="Shape" fill="#9ACDED" fill-rule="nonzero" points="117.67 133.25 116.71 131.21 111.14 133.83 109.52 130.37 107.48 131.32 110.06 136.8 110.08 136.79 110.08 136.81"></polygon>
                <path d="M119.94,137.84 L152.03,149.42" id="Shape" stroke="#9ACDED" stroke-width="2" fill="#FFFFFF" fill-rule="nonzero" stroke-linecap="round" stroke-linejoin="round"></path>
                <path d="M140.38,60.07 C136.53,47.07 107.22,16.45 107.22,16.45" id="Shape" stroke="#9ACDED" stroke-width="2"></path>
                <path d="M171.52,84.88 L149.14,49.39 C147.894831,47.4029934 145.284945,46.7839248 143.28,48 L107.52,70 C105.94941,70.9637536 104.829565,72.5156922 104.41,74.31 L87.73,145.89 C87.5533896,146.623679 87.9988598,147.363159 88.73,147.55 L154.03,162.76 C154.763679,162.93661 155.503159,162.49114 155.69,161.76 L172.4,90.12 C172.817905,88.3258928 172.501051,86.4391681 171.52,84.88 L171.52,84.88 Z M141.11,70.59 C138.93573,70.082512 137.281282,68.3152049 136.918169,66.11222 C136.555056,63.9092352 137.554791,61.7044447 139.451172,60.5259998 C141.347553,59.3475548 143.767093,59.4275471 145.581497,60.7286741 C147.395901,62.0298011 148.247827,64.2958093 147.74,66.47 C147.046674,69.4383807 144.078489,71.2828636 141.11,70.59 L141.11,70.59 Z" id="Shape" stroke="#9ACDED" stroke-width="2" fill="#FFFFFF" fill-rule="nonzero"></path>
                <path d="M110,77.82 L96.23,142.12 L148.88,155.45 L165.76,88.22 L151.76,65.45 L150,71.72 C149.095999,74.9292547 146.004169,77.0144421 142.69,76.65 L142.69,76.65 C136.257216,75.9395857 130.642795,71.9686862 127.83,66.14 L127.83,66.14 L110,77.82 Z" id="Shape" fill="#E1F2FF" fill-rule="nonzero"></path>
                <circle id="Oval" fill="#EFEFF6" fill-rule="nonzero" transform="translate(132.014515, 102.716064) rotate(-76.890000) translate(-132.014515, -102.716064) " cx="132.014515" cy="102.716064" r="17.06"></circle>
                <circle id="Oval" stroke="#9ACDED" stroke-width="2" fill="#FFFFFF" fill-rule="nonzero" transform="translate(134.814939, 99.823529) rotate(-76.890000) translate(-134.814939, -99.823529) " cx="134.814939" cy="99.8235288" r="17.06"></circle>
                <path d="M137,109 C137,109.22 137.05,109.38 137.06,109.43 L137.06,109.43 C137.65,104.79 140.65,103.5 142.18,100.69 C142.196412,100.641876 142.21647,100.595073 142.24,100.55 L142.33,100.35 C142.612806,99.3561938 142.538503,98.2947145 142.12,97.35 L142.12,97.35 L142,97 L142,97 C141.93,96.82 141.85,96.64 141.77,96.46 L141.77,96.4 L141.7,96.25 L141.63,96.1 L141.55,95.95 L141.47,95.79 L141.41,95.68 C140.586231,94.1799865 139.600329,92.7749088 138.47,91.49 L138.47,91.49 C138.285408,93.1170315 137.926686,94.7195459 137.4,96.27 C136.715648,98.0459449 135.761058,99.7055143 134.57,101.19 C132.754817,100.623501 131.037941,99.780242 129.48,98.69 C128.173715,97.6964221 126.979958,96.5630235 125.92,95.31 C125.92,95.46 125.92,95.6 125.92,95.74 L125.92,95.87 C125.92,95.97 125.92,96.08 125.92,96.18 C125.92,96.28 125.92,96.28 125.92,96.32 C125.92,96.36 125.92,96.53 125.92,96.63 L125.92,96.76 C125.92,96.89 125.92,97.02 125.92,97.15 C125.92,97.3 125.92,97.45 125.92,97.61 C125.92,97.75 125.92,97.88 125.92,98.02 C125.92,98.16 125.92,98.08 125.92,98.1 C125.92,98.12 125.92,98.35 125.92,98.47 C125.92,98.59 125.92,98.47 125.92,98.54 C125.92,98.61 125.92,98.82 125.92,98.96 L125.92,98.96 C125.92,99.4133333 125.946667,99.8533333 126,100.28 L126,100.28 C126.061076,100.955209 126.178145,101.624177 126.35,102.28 L126.43,102.54 L126.43,102.54 L126.5,102.76 L126.5,102.76 L126.59,102.99 L126.59,102.99 L126.59,102.99 L126.59,102.99 L126.71,103.27 L126.71,103.27 L126.71,103.27 C126.71,103.37 126.81,103.47 126.86,103.57 L126.98,103.77 L127.03,103.85 L127.11,103.96 L127.17,104.04 L127.25,104.14 L127.31,104.21 L127.39,104.3 L127.46,104.36 L127.55,104.44 L127.61,104.49 L127.72,104.57 L127.78,104.57 L127.95,104.68 L128.05,104.75 C130.89,106.25 134.13,105.67 137.2,109.17" id="Fill-7-4" fill="#9ACDED" fill-rule="nonzero"></path>
                <path d="M108.28,126.88 L145.69,135.59" id="Shape" stroke="#9ACDED" stroke-width="2" stroke-linecap="round"></path>
                <path d="M105.97,136.76 L143.39,145.47" id="Shape" stroke="#9ACDED" stroke-width="2" stroke-linecap="round"></path>
                <path d="M111.74,14 C111.74,14 111.74,20.45 113.14,23 C115.97,28.07 119.99,33.54 122.94,42 C128.16,57 130.08,70.68 139,65.42 C140.2,64.72 141.41,62.32 140.56,60.84" id="Shape" stroke="#9ACDED" stroke-width="2"></path>
                <path d="M115.51,26 C115.51,26 112,26.42 111.27,25 C110.54,23.58 118.18,20 115.51,26 Z" id="Shape" stroke="#9ACDED" stroke-width="2"></path>
                <rect id="Rectangle-path" stroke="#9ACDED" stroke-width="2" fill="#FFFFFF" fill-rule="nonzero" transform="translate(99.535224, 135.652052) rotate(21.580000) translate(-99.535224, -135.652052) " x="70.4702242" y="100.342052" width="58.13" height="70.62" rx="2.25"></rect>
                <polygon id="Shape" fill="#E1F2FF" fill-rule="nonzero" points="112.84 170.15 65.17 154.44 87.1 98.98 134.96 115.81"></polygon>
                <ellipse id="Oval" fill="#FFFFFF" fill-rule="nonzero" transform="translate(102.805930, 122.922865) rotate(-68.420000) translate(-102.805930, -122.922865) " cx="102.80593" cy="122.922865" rx="9.36" ry="11.18"></ellipse>
                <ellipse id="Oval" stroke="#9ACDED" stroke-width="2" fill="#FFFFFF" fill-rule="nonzero" transform="translate(104.775138, 121.656823) rotate(-68.420000) translate(-104.775138, -121.656823) " cx="104.775138" cy="121.656823" rx="9.36" ry="11.18"></ellipse>
                <path d="M105.65,127 C105.65,127.13 105.65,127.22 105.65,127.24 L105.65,127.24 C106.3,124.75 108.29,124.4 109.43,123.03 L109.43,122.96 L109.5,122.86 C109.729524,122.320046 109.729524,121.709954 109.5,121.17 L109.5,121.17 L109.45,121 L109.45,121 L109.33,120.67 L109.33,120.67 L109.33,120.58 L109.33,120.49 L109.33,120.4 L109.33,120.3 L109.33,120.23 C108.882225,119.288206 108.335836,118.396553 107.7,117.57 L107.7,117.57 C107.475834,118.446137 107.139735,119.289747 106.7,120.08 C106.146524,120.991477 105.435469,121.79734 104.6,122.46 C103.479979,121.932842 102.434311,121.260387 101.49,120.46 C100.722644,119.767329 100.025899,119.000239 99.41,118.17 L99.35,118.4 L99.35,118.47 L99.35,118.64 L99.35,118.72 L99.35,118.89 L99.35,118.96 L99.35,119.18 L99.35,119.18 L99.35,119.43 L99.35,119.43 L99.35,119.65 L99.35,119.65 L99.35,119.85 L99.35,119.85 C99.35,119.93 99.35,120.01 99.35,120.08 L99.35,120.08 C99.35,120.333333 99.35,120.58 99.35,120.82 L99.35,120.82 C99.3520294,121.199238 99.3888504,121.57749 99.46,121.95 L99.46,122.1 L99.46,122.1 L99.46,122.23 L99.46,122.23 L99.46,122.37 L99.46,122.37 L99.46,122.37 L99.46,122.37 L99.52,122.54 L99.52,122.54 L99.52,122.54 L99.6,122.72 L99.66,122.84 L99.66,122.84 L99.66,122.91 L99.66,122.96 L99.66,123.02 L99.66,123.02 L99.66,123.08 L99.66,123.08 L99.71,123.14 L99.71,123.14 L99.78,123.2 L99.78,123.2 L99.88,123.28 L99.94,123.28 C101.67,124.45 103.77,124.51 105.53,126.81" id="Fill-7-5" fill="#9ACDED" fill-rule="nonzero"></path>
                <polygon id="Shape" fill="#9ACDED" fill-rule="nonzero" points="87.12 134.75 86.29 133.21 81.74 134.72 80.32 132.1 78.66 132.66 80.91 136.8 80.92 136.79 80.93 136.81"></polygon>
                <path d="M89.64,137.54 L116.43,148.14" id="Shape" stroke="#9ACDED" stroke-width="2" fill="#FFFFFF" fill-rule="nonzero" stroke-linecap="round" stroke-linejoin="round"></path>
                <polygon id="Shape" fill="#9ACDED" fill-rule="nonzero" points="84.39 141.66 83.56 140.12 79.01 141.63 77.59 139.01 75.93 139.56 78.17 143.71 78.19 143.7 78.2 143.72"></polygon>
                <path d="M86.6,144.56 L113.39,155.16" id="Shape" stroke="#9ACDED" stroke-width="2" fill="#FFFFFF" fill-rule="nonzero" stroke-linecap="round" stroke-linejoin="round"></path>
                <polygon id="Shape" fill="#9ACDED" fill-rule="nonzero" points="81.66 148.56 80.83 147.03 76.28 148.54 74.86 145.92 73.2 146.47 75.44 150.61 75.46 150.61 75.47 150.62"></polygon>
                <path d="M83.64,152.04 L110.44,162.64" id="Shape" stroke="#9ACDED" stroke-width="2" fill="#FFFFFF" fill-rule="nonzero" stroke-linecap="round" stroke-linejoin="round"></path>
                <rect id="Rectangle-path" stroke="#375D81" stroke-width="2" fill="#FFFFFF" fill-rule="nonzero" x="102.15" y="105.85" width="87.4" height="94.16"></rect>
                <polygon id="Shape" fill="#E1F2FF" fill-rule="nonzero" points="188.51 160.02 102.07 120.28 102.15 105.85 188.51 105.85"></polygon>
                <rect id="Rectangle-path" stroke="#375D81" stroke-width="2" fill="#FFFFFF" fill-rule="nonzero" x="58.36" y="105.95" width="43.7" height="94.16"></rect>
                <polygon id="Shape" fill="#E1F2FF" fill-rule="nonzero" points="59.35 139.48 101.12 120.28 101.04 105.85 58.37 105.85"></polygon>
                <polygon id="Shape" stroke="#375D81" stroke-width="2" fill="#FFFFFF" fill-rule="nonzero" points="102.07 105.95 58.37 105.95 34.42 134.61 78.12 134.61"></polygon>
                <polygon id="Shape" stroke="#375D81" stroke-width="2" fill="#FFFFFF" fill-rule="nonzero" points="102.07 105.95 189.47 105.95 213.42 134.61 126.01 134.61"></polygon>
                <path d="M207.25,46.57 L207.25,53.57" id="Shape" stroke="#375D81" stroke-width="2" stroke-linecap="round" stroke-linejoin="round"></path>
                <path d="M210.75,50.07 L203.75,50.07" id="Shape" stroke="#375D81" stroke-width="2" stroke-linecap="round" stroke-linejoin="round"></path>
                <path d="M51.12,36.08 L51.12,43.08" id="Shape" stroke="#375D81" stroke-width="2" stroke-linecap="round" stroke-linejoin="round"></path>
                <path d="M54.62,39.58 L47.62,39.58" id="Shape" stroke="#375D81" stroke-width="2" stroke-linecap="round" stroke-linejoin="round"></path>
                <path d="M171.8,0.5 L171.8,4.44" id="Shape" stroke="#375D81" stroke-linecap="round"></path>
                <path d="M173.76,2.47 L169.83,2.47" id="Shape" stroke="#375D81" stroke-linecap="round"></path>
                <path d="M19.41,159.37 L19.41,163.31" id="Shape" stroke="#375D81" stroke-linecap="round"></path>
                <path d="M21.38,161.34 L17.44,161.34" id="Shape" stroke="#375D81" stroke-linecap="round"></path>
                <circle id="Oval" fill="#EFEFF6" fill-rule="nonzero" cx="145.13" cy="162.59" r="17.63"></circle>
                <circle id="Oval" stroke="#375D81" stroke-width="2" fill="#FFFFFF" fill-rule="nonzero" cx="149.28" cy="159.27" r="17.63"></circle>
                <path d="M154.93,168.16 C155.01,168.39 155.08,168.55 155.1,168.6 L155.1,168.6 C154.58,163.6 157.42,161.5 158.34,158.17 C158.336151,158.116736 158.336151,158.063264 158.34,158.01 C158.343869,157.933382 158.343869,157.856618 158.34,157.78 C158.383112,156.657945 158.028998,155.55665 157.34,154.67 L157.34,154.67 L157.16,154.39 L157.16,154.39 L156.79,153.88 L156.79,153.83 L156.68,153.69 L156.57,153.55 L156.45,153.41 L156.33,153.26 L156.24,153.16 C155.008746,151.786676 153.630496,150.552622 152.13,149.48 L152.13,149.48 C152.318884,151.234932 152.318884,153.005068 152.13,154.76 C151.845293,156.792828 151.248252,158.769472 150.36,160.62 C148.300594,160.473555 146.276448,160.008002 144.36,159.24 C142.743473,158.516033 141.21102,157.617351 139.79,156.56 C139.79,156.72 139.79,156.87 139.84,157.03 L139.84,157.17 C139.84,157.28 139.84,157.39 139.84,157.5 L139.84,157.65 L139.89,157.98 L139.89,158.12 L139.96,158.54 L139.96,158.54 C139.96,158.7 140.02,158.86 140.05,159.02 L140.05,159.02 L140.14,159.45 L140.14,159.54 L140.23,159.93 L140.23,160.01 L140.34,160.45 L140.34,160.45 C140.466667,160.923333 140.603333,161.376667 140.75,161.81 L140.75,161.81 C140.981065,162.499226 141.268711,163.16817 141.61,163.81 L141.75,164.06 L141.75,164.06 L141.88,164.28 L141.88,164.28 L142.03,164.5 L142.03,164.5 L142.03,164.5 L142.03,164.5 L142.23,164.77 L142.23,164.77 L142.23,164.77 L142.47,165.05 L142.64,165.23 L142.71,165.3 L142.82,165.4 L142.9,165.47 L143,165.55 L143.08,165.61 L143.19,165.69 L143.27,165.74 L143.39,165.81 L143.47,165.81 L143.61,165.87 L143.68,165.87 L143.89,165.94 L144.01,165.94 C147.36,166.82 150.62,165.42 154.7,168.35" id="Fill-7-6" fill="#9452BA" fill-rule="nonzero"></path>
                <path d="M69.05,161.17 L89.27,161.17" id="Shape" stroke="#9ACDED" stroke-width="2" stroke-linecap="round"></path>
                <path d="M69.05,168.44 L89.27,168.44" id="Shape" stroke="#9ACDED" stroke-width="2" stroke-linecap="round"></path>
                <path d="M69.05,175.7 L89.27,175.7" id="Shape" stroke="#9ACDED" stroke-width="2" stroke-linecap="round"></path>
                <path d="M200.51,129.4 L180.13,129.4" id="Shape" stroke="#E1F2FF" stroke-width="2" stroke-linecap="round"></path>
                <path d="M58.22,129.4 L44.83,129.4" id="Shape" stroke="#E1F2FF" stroke-width="2" stroke-linecap="round"></path>
                <path d="M184.01,195.97 L184.01,181.72" id="Shape" stroke="#E1F2FF" stroke-width="2" stroke-linecap="round"></path>
            </g>
        </g>
    </g>
</svg>