<svg width="256" height="256" viewBox="0 0 256 256" xmlns="http://www.w3.org/2000/svg" xmlns:xlink="http://www.w3.org/1999/xlink"><defs><path d="M53.484 33.092c-5.562-.158-11.81-.576-12.364-1.473-2.554 1.945-26.986 7.71-26.942 4.56.045-3.152-10.866-18.285-10.866-18.285L.057 5.32 1.58.537h51.904v32.554z" id="a"/><path d="M1.9.538L.056 6.318l3.255 12.577s10.91 15.133 10.866 18.284c-.044 3.15 24.388-2.615 26.942-4.56.59.95 7.596 1.364 13.385 1.498V.538H1.9z" id="c"/><path d="M39.424 16.654c-6.373 5.34-12.676 7.428-15.275 7.494-4.252.107-19.158-.12-20.03-1.53-.488.373-1.777.885-3.54 1.447V.445h38.844v16.21z" id="e"/><path d="M.582 25.373c2.272-.68 3.962-1.315 4.538-1.754.872 1.407 15.778 1.635 20.03 1.528 2.734-.07 9.57-2.376 16.274-8.36V.446H.582v24.928z" id="g"/><path d="M11.537 12.14C7.854 12.07 3.45 11.892.48 11.526V.62h11.057v11.52z" id="i"/><path d="M13.545 12.155C9.482 12.102 4.2 11.908.98 11.46V.12h12.565v12.035z" id="k"/><path d="M24.687 38.122c-5.824-.13-12.97-.54-13.567-1.503-1.048.798-5.78 2.24-10.995 3.444V.602h24.562v37.52z" id="m"/><path d="M26.686 39.142c-5.97-.104-13.936-.505-14.566-1.523-1.108.843-6.33 2.405-11.887 3.647V.6l26.453.002v38.54z" id="o"/><path d="M34.285 25.054c-5.226-.182-10.65-.602-11.165-1.435C21.243 25.05 7.554 28.54.442 29.04V.51h33.843v24.544z" id="q"/><path d="M.958 29.072c6.953-.368 21.242-3.99 23.162-5.453.532.858 6.29 1.278 11.664 1.45V.008H.958v29.064z" id="s"/><path d="M4.315 139.137c-1.448.146-2.847.054-4.004-.107V.112h4.005v139.025z" id="u"/><path d="M.31 139.864c1.52.29 3.758.538 6.004.133V.112H.31v139.752z" id="w"/></defs><g fill="none" fill-rule="evenodd"><path d="M26.994 215.192c0-57.193 46.364-103.558 103.558-103.558 57.193 0 103.558 46.365 103.558 103.558H26.994z" fill="#E1F2FF"/><path d="M32.61 227.004H54.94" fill="#FFF"/><path d="M54.942 228.004H32.61c-.554 0-1-.447-1-1 0-.553.446-1 1-1H54.94c.553 0 1 .447 1 1 0 .553-.447 1-1 1M247.22 217.04h-5c-.554 0-1-.446-1-1 0-.552.446-1 1-1h5c.552 0 1 .448 1 1 0 .554-.448 1-1 1" fill="#9ACDED"/><path d="M7 216.04h5.333" fill="#FFF"/><path d="M12.333 217.04H7c-.553 0-1-.446-1-1 0-.552.447-1 1-1h5.333c.553 0 1 .448 1 1 0 .554-.447 1-1 1" fill="#9ACDED"/><path d="M98.347 227.004h55.727" fill="#FFF"/><path d="M154.073 228.004H98.346c-.552 0-1-.447-1-1 0-.553.448-1 1-1h55.727c.553 0 1 .447 1 1 0 .553-.447 1-1 1" fill="#9ACDED"/><path d="M160.72 227.004h11.332" fill="#FFF"/><path d="M172.052 228.004H160.72c-.554 0-1-.447-1-1 0-.553.446-1 1-1h11.332c.553 0 1 .447 1 1 0 .553-.447 1-1 1" fill="#9ACDED"/><path d="M93.386 227.004h-4.334" fill="#FFF"/><path d="M93.386 228.004h-4.334c-.553 0-1-.447-1-1 0-.553.447-1 1-1h4.334c.553 0 1 .447 1 1 0 .553-.447 1-1 1" fill="#9ACDED"/><path d="M21.552 227.004h3.667" fill="#FFF"/><path d="M25.22 228.004H21.55c-.553 0-1-.447-1-1 0-.553.447-1 1-1h3.667c.552 0 1 .447 1 1 0 .553-.448 1-1 1" fill="#9ACDED"/><path d="M219.213 227.004h13.667" fill="#FFF"/><path d="M232.88 228.004h-13.667c-.553 0-1-.447-1-1 0-.553.447-1 1-1h13.667c.553 0 1 .447 1 1 0 .553-.447 1-1 1" fill="#9ACDED"/><g><g transform="translate(160 177.476)"><mask id="b" fill="#fff"><use xlink:href="#a"/></mask><path d="M49.495 46.945c-4.38-.09-8.484-3.105-17.42-3.518-.13-.584-.287-1.11-.486-1.544-1.618-3.5-3.9-13.593-2.435-20.222l1.16-5.244c.38-1.722.573-3.48.573-5.242 0-.734-.075-1.45-.217-2.143-.034-.172-.073-.344-.117-.514-.13-.51-.3-1.005-.5-1.482-.07-.158-.14-.316-.214-.47-.15-.31-.315-.612-.492-.905-.178-.293-.37-.576-.574-.85-.612-.82-1.34-1.547-2.16-2.16-.272-.203-.556-.394-.848-.572C24.158 1.1 22.27.538 20.25.538h-1.743c-2.938 0-5.597 1.19-7.522 3.115-.24.24-.47.493-.686.756-.395.476-.745.99-1.053 1.532-.115.203-.227.41-.328.62-.075.156-.147.314-.214.472-.202.477-.37.973-.5 1.482-.132.51-.227 1.034-.28 1.57-.037.36-.056.72-.056 1.088 0 .733.297 1.396.776 1.875.48.48 1.143.776 1.875.776h10.892l-1.648 9.452c-1.935 9.71-1.354 16.204.145 20.532.333.966 2.235 4.386 2.235 4.386C16.7 56.79 8.35 60.546-.58 61.634c-7.59.927-23.98-5.995-15.53-14.002 8.45-8.008-1.76-3.03-3.263-2.016-1.503 1.014-10.193 8.522-.762 19.54 3.988 4.657 8.506 8.893 19.375 12.14 1.743.52 11.255 1.21 16.375 2.68 15.246 4.377 27.64-.38 34.586-10.445 6.918-10.022 1.024-22.55-.705-22.585" fill="#9452BA" mask="url(#b)"/></g><g transform="translate(160 176.476)"><mask id="d" fill="#fff"><use xlink:href="#c"/></mask><path d="M-14.372 45.37c-1.407.46-3.65 1.54-4.442 2.075-1.088.733-4.027 3.503-4.563 7.457-.46 3.396.885 6.963 4.002 10.603 3.75 4.38 8.017 8.58 18.9 11.833.578.17 2.465.408 4.464.66 3.642.455 8.634 1.08 11.9 2.018 14.08 4.04 26.29.378 33.487-10.053 3.937-5.705 3.288-11.942 2.55-15.153-.785-3.413-2.116-5.493-2.597-5.87-1.942-.064-3.793-.642-5.93-1.307-2.826-.88-6.345-1.975-11.372-2.207l-.766-.035-.165-.747c-.122-.554-.262-1.006-.417-1.342-1.678-3.633-4.017-14-2.502-20.855l1.16-5.245c.365-1.65.55-3.34.55-5.026 0-.656-.067-1.31-.197-1.94-.03-.16-.066-.314-.105-.468-.12-.457-.27-.908-.455-1.343-.06-.142-.126-.287-.194-.428-.134-.28-.283-.552-.443-.818-.16-.263-.335-.52-.52-.768-.554-.742-1.213-1.402-1.957-1.958-.248-.185-.505-.36-.77-.52-1.5-.912-3.228-1.394-4.995-1.394h-1.744c-2.574 0-4.994 1.002-6.814 2.822-.217.218-.426.446-.622.686-.35.424-.67.892-.953 1.39-.105.183-.205.368-.297.56-.068.14-.133.285-.194.43-.183.432-.335.883-.453 1.34-.12.466-.205.945-.254 1.422-.034.324-.05.653-.05.986 0 .442.172.857.483 1.168.313.312.728.484 1.168.484H22.6L20.75 24.45c-1.66 8.318-1.622 15.05.104 20.033.222.644 1.446 2.934 2.165 4.227l.288.52-.318.5C17.96 57.668 10.07 62.34-.46 63.628c-5.487.67-15.92-2.646-18.437-7.994-.852-1.81-1.18-4.62 2.1-7.727 1.267-1.202 2-2.008 2.425-2.536zM26.51 83.582c-3.578 0-7.326-.54-11.172-1.644-3.117-.894-8.02-1.51-11.598-1.957-2.352-.294-4.05-.507-4.786-.726-11.396-3.405-16.054-8.017-19.85-12.45-3.5-4.09-5.004-8.185-4.463-12.17.612-4.516 3.818-7.76 5.427-8.847.062-.04 6.354-3.948 7.843-2.093.853 1.064.012 2.493-3.332 5.663-1.963 1.86-2.508 3.635-1.665 5.425 1.957 4.157 11.184 7.49 16.385 6.86C8.982 60.46 16.274 56.26 20.98 49.155c-.565-1.033-1.735-3.207-2.017-4.018-1.842-5.322-1.904-12.406-.18-21.054l1.44-8.257H10.52c-.974 0-1.89-.38-2.58-1.07-.69-.69-1.07-1.606-1.07-2.582 0-.4.02-.796.06-1.188.058-.577.16-1.155.306-1.72.14-.55.326-1.096.55-1.622.073-.174.15-.344.23-.513.112-.232.235-.458.36-.68.34-.6.727-1.163 1.15-1.677.238-.287.488-.562.75-.826 2.2-2.2 5.122-3.41 8.23-3.41h1.745c2.134 0 4.22.584 6.036 1.686.32.195.63.404.927.626.9.672 1.693 1.467 2.362 2.362.223.298.432.608.627.927.195.32.374.65.538.99.08.17.158.34.23.512.225.528.41 1.073.55 1.625.05.186.092.374.13.565.157.762.237 1.55.237 2.342 0 1.83-.2 3.665-.595 5.457l-1.16 5.247c-1.4 6.33.828 16.26 2.365 19.588.134.293.255.625.366 1.004 4.888.31 8.336 1.383 11.133 2.254 2.128.662 3.808 1.186 5.52 1.22.326.008 1.323.028 2.695 2.705 2.155 4.206 4.33 13.458-1.186 21.45-5.62 8.143-14.377 12.482-24.514 12.482z" fill="#52267D" mask="url(#d)"/></g><g transform="translate(197 186.476)"><mask id="f" fill="#fff"><use xlink:href="#e"/></mask><path d="M3.036 23.475c-.35-11.26 8.587-20.11 18.743-21.98 2.108-.387 2.794-1.05 5.1-1.05h1.767c5.952 0 10.777 4.826 10.777 10.777 0 1.483-1.203 2.687-2.687 2.687 0 0-18.12-.006-18.204-.015l-1.477.002c.002.002 1.48.003 1.48.005-4.006 1.7-6.5 6.82-6.94 9.573-.625 3.918-.167 7.15 1.17 9.765.89 1.74.99 3.84.854 5.537l-.104.036c-.062.908-.21 1.94-.48 3.12-1.706-1.19-4.36-2.98-4.845-3.234-1.046-.554-3.41-1.812-4.467-2.418-6.758-3.875-.49-6.403-.687-12.807" fill="#9452BA" mask="url(#f)"/></g><g transform="translate(196 185.476)"><mask id="h" fill="#fff"><use xlink:href="#g"/></mask><path d="M27.88 2.445c-1.273 0-1.965.218-2.842.493-.568.18-1.214.38-2.078.54-8.953 1.65-18.278 9.557-17.924 20.965.08 2.64-.836 4.67-1.572 6.3-1.183 2.62-1.672 3.704 1.757 5.67 1 .572 3.26 1.778 4.438 2.4.452.24 2.224 1.426 3.69 2.43.08-.52.138-1.02.17-1.5l.047-.664.096-.033c.047-1.325-.084-2.982-.785-4.353-1.478-2.89-1.904-6.382-1.265-10.378.4-2.513 2.29-6.572 5.3-8.98l-2.154-1.438 3.3-.002h1.062l.045-.046.473.05 18.1.008c.93 0 1.688-.757 1.688-1.687 0-5.39-4.386-9.775-9.776-9.775H27.88zM14.68 44.6l-1.216-.847c-1.92-1.34-4.355-2.968-4.74-3.17-.327-.174-3.24-1.713-4.497-2.435-5.005-2.87-3.776-5.593-2.585-8.227.685-1.517 1.462-3.238 1.394-5.414C2.648 11.98 12.826 3.31 22.6 1.51c.742-.135 1.3-.31 1.84-.48.956-.3 1.86-.585 3.44-.585h1.768c6.493 0 11.776 5.283 11.776 11.776 0 2.035-1.653 3.688-3.687 3.688-13.64-.004-17.078-.01-17.974-.014-3.643 1.66-5.82 6.484-6.18 8.738-.568 3.567-.208 6.646 1.073 9.152.83 1.625 1.155 3.668.96 6.072l-.05.64-.11.04c-.088.834-.237 1.713-.445 2.62l-.33 1.444z" fill="#52267D" mask="url(#h)"/></g><g transform="translate(204 198.476)"><mask id="j" fill="#fff"><use xlink:href="#i"/></mask><path d="M1.807 24.484c.09-1.738.354-2.63.16-3.34C.843 17.073.478 15.787.478 11.475.48 7.19 2.96 2.954 6.625.7c.202-.123 2.84-.31 4.91 1.2-4.005 1.7-6.5 6.822-6.94 9.574-.625 3.918-.166 7.15 1.17 9.765.89 1.74.992 3.838.854 5.536 0 0-4.916 1.846-4.813-2.292" fill="#F3E3FF" mask="url(#j)"/></g><g transform="translate(203 198.476)"><mask id="l" fill="#fff"><use xlink:href="#k"/></mask><path d="M3.307 24.504c-.02.873.208 1.487.68 1.823.836.597 2.36.32 3.158.08.085-1.432-.012-3.35-.824-4.94-1.428-2.796-1.837-6.185-1.217-10.07.443-2.773 2.752-7.49 6.404-9.544-1.69-.87-3.482-.752-3.694-.69C4.298 3.333 1.98 7.396 1.98 11.475c0 4.205.333 5.416 1.437 9.427l.032.11c.145.532.083 1.096-.003 1.876-.05.443-.107.97-.14 1.616m2.082 3.18c-.688 0-1.406-.132-1.98-.54-.762-.542-1.133-1.44-1.103-2.672v-.013c.035-.673.095-1.22.146-1.682.077-.694.126-1.153.03-1.5l-.03-.11C1.35 17.163.98 15.815.98 11.475c0-4.42 2.506-8.815 6.385-11.2.44-.27 3.298-.357 5.467 1.222l.713.52-.812.344C9.113 3.9 6.548 8.69 6.09 11.555c-.586 3.673-.21 6.854 1.12 9.458.985 1.923 1.037 4.218.91 5.805l-.027.316-.297.11c-.072.03-1.193.442-2.407.442" fill="#52267D" mask="url(#l)"/></g><path d="M231.303 188.752s.004-1.882-1.866-2.63c-.57-.228-1.613-.652-1.613-.652s-1.114 2.355.148 2.95c1.816.854 3.33.332 3.33.332" fill="#FFF"/><path d="M228.103 186.123c-.215.624-.432 1.604.08 1.845 1.1.514 2.06.478 2.57.398-.107-.502-.443-1.356-1.502-1.78l-1.147-.464zm2.025 3.288c-.645 0-1.474-.116-2.37-.538-.366-.172-.633-.468-.77-.856-.386-1.075.304-2.59.385-2.76l.202-.427 2.048.83c2.16.862 2.18 3.003 2.18 3.094v.355l-.337.116c-.038.012-.553.185-1.337.185z" fill="#52267D"/><path d="M226.62 187.43s-.053-2.565-2.937-2.94c-.54-.07-1.942-.036-1.942-.036s-.647 2.714.874 2.975c1.87.32 4.007 0 4.007 0" fill="#FFF"/><path d="M222.16 184.948c-.075.523-.114 1.33.16 1.744.092.14.21.216.378.244 1.247.214 2.632.128 3.352.057-.162-.647-.694-1.78-2.432-2.006-.305-.04-.977-.043-1.46-.04m2.332 3.125c-.62 0-1.303-.037-1.96-.15-.44-.076-.802-.31-1.045-.68-.66-.998-.276-2.71-.23-2.903l.09-.376.384-.01c.058 0 1.448-.033 2.016.04 2.62.34 3.353 2.39 3.375 3.425l.01.44-.435.064c-.06.008-1.012.148-2.205.148" fill="#52267D"/><path d="M220.885 187.674s-.38-2.844-2.935-2.062c-1.09.333-1.697 1.164-1.697 1.164s.508 2.165 1.525 1.92c1.774-.423 3.107-1.022 3.107-1.022" fill="#FFF"/><path d="M216.805 186.902c.15.49.424 1.104.71 1.28.063.036.102.037.146.03 1.162-.278 2.136-.635 2.643-.837-.108-.366-.34-.91-.792-1.2-.368-.234-.83-.262-1.413-.084-.63.193-1.075.586-1.292.812m.815 2.314c-.217 0-.43-.06-.63-.184-.82-.506-1.185-1.976-1.223-2.142l-.053-.223.135-.186c.028-.038.718-.968 1.955-1.346.87-.264 1.627-.195 2.25.203 1.105.71 1.317 2.208 1.325 2.27l.05.37-.34.154c-.056.026-1.396.624-3.196 1.054-.09.022-.183.032-.274.032" fill="#52267D"/><path d="M213.466 201.48s-5.955-3.237-4.822-8.686c-.79.652-2.906 2.638-3.672 3.655 0 1.065-.195 5.3 5.653 8.137 1.03-1.066 1.895-2.397 2.84-3.107" fill="#FFF"/><path d="M205.47 196.62c-.003 1.27.073 4.795 5.045 7.353.3-.33.59-.682.87-1.024.42-.51.823-.997 1.244-1.405-1.388-.937-4.697-3.587-4.628-7.515-.882.815-1.978 1.902-2.53 2.59zm5.264 8.575l-.326-.158c-3.958-1.92-5.955-4.775-5.936-8.49v-.168l.1-.233c.79-1.045 2.91-3.043 3.754-3.74l1.096-.902-.29 1.39c-1.044 5.027 4.517 8.115 4.573 8.145l.684.372-.624.468c-.528.396-1.053 1.032-1.608 1.706-.373.45-.757.917-1.172 1.348l-.252.26z" fill="#52267D"/><path d="M230.49 188.235s.003-.975-.965-1.36l-.834-.34s-.576 1.22.077 1.527c.94.443 1.724.173 1.724.173M225.39 186.85s-.027-1.31-1.498-1.5c-.274-.035-.99-.018-.99-.018s-.33 1.384.445 1.517c.953.162 2.043 0 2.043 0M219.966 187.47s-.2-1.51-1.557-1.095c-.58.178-.902.617-.902.617s.27 1.15.81 1.02c.94-.225 1.648-.542 1.648-.542M221.497 198.58h5.446c0-2.743-2.223-4.967-4.967-4.967h-.48c-1.37 0-2.48 1.112-2.48 2.484 0 1.37 1.11 2.482 2.48 2.482" fill="#F3E3FF"/><path d="M221.956 198.487h4.894c0-2.155-1.748-3.9-3.903-3.9h-.99c-1.078 0-1.952.872-1.952 1.95 0 1.077.874 1.95 1.95 1.95" fill="#FFF"/><path d="M221.956 195.085c-.8 0-1.45.65-1.45 1.45 0 .8.65 1.45 1.45 1.45h4.356c-.242-1.638-1.66-2.9-3.365-2.9h-.99zm5.394 3.9h-5.394c-1.352 0-2.45-1.098-2.45-2.45 0-1.35 1.098-2.45 2.45-2.45h.99c2.43 0 4.404 1.975 4.404 4.4v.5z" fill="#52267D"/><path d="M225.963 196.42c0 .603-.487 1.09-1.09 1.09-.6 0-1.09-.487-1.09-1.09 0-.602.49-1.09 1.09-1.09.603 0 1.09.488 1.09 1.09M233.986 199.566c-.31-.066-.587-.238-.783-.486l-.365-.46.813.175.48.102c.184.04.3.222.262.406-.04.185-.22.302-.406.263" fill="#52267D"/><path d="M212.46 201.587s-4.588-2.47-4.518-7.446c-1.97 1.437-2.505 2.365-2.505 2.365s.343 2.37 1.447 3.564c1.694 1.834 3.46 2.4 5.576 1.517" fill="#EAF3FB"/><path d="M208.116 200.713s1.81 1.84 3.574 2.724" fill="#FFF"/><path d="M211.467 203.884c-1.818-.91-3.63-2.743-3.707-2.82l.713-.7c.017.016 1.774 1.79 3.44 2.625l-.446.894z" fill="#52267D"/><g transform="translate(190 172.476)"><mask id="n" fill="#fff"><use xlink:href="#m"/></mask><path d="M.125 47.586l1.022-2.018c3.818-9.38 4.406-14.89 2.426-23.843l-1.16-5.245c-.38-1.722-.572-3.48-.572-5.242C1.84 5.363 6.605.602 12.48.602h1.717c5.794 0 10.492 4.697 10.492 10.49v.302c0 1.38-1.12 2.496-2.497 2.496H11.316l1.65 9.452c5.046 25.33 4.54 35.6-5.392 33.49" fill="#9452BA" mask="url(#n)"/></g><g transform="translate(189 171.476)"><mask id="p" fill="#fff"><use xlink:href="#o"/></mask><path d="M10.91 59.102c-.78 0-1.628-.097-2.544-.29l.416-1.96c2.415.518 4.13.226 5.252-.88 3.838-3.79 1.623-18.017-1.05-31.434L11.127 13.89H23.19c.825 0 1.496-.67 1.496-1.497v-.3c0-5.234-4.257-9.492-9.49-9.492l-1.72.002c-5.312 0-9.635 4.323-9.635 9.637 0 1.682.185 3.373.55 5.024l1.16 5.245c2.014 9.112 1.436 14.82-2.477 24.436l-1.057 2.093-1.783-.907 1.023-2.017C5 36.91 5.532 31.695 3.596 22.942l-1.16-5.245c-.395-1.792-.595-3.627-.595-5.457C1.84 5.822 7.06.603 13.478.603h1.718c6.336 0 11.49 5.155 11.49 11.49v.3c0 1.93-1.567 3.498-3.495 3.498h-9.684l1.444 8.28c4.037 20.262 4.176 29.584.49 33.224-1.158 1.142-2.652 1.71-4.53 1.71" fill="#52267D" mask="url(#p)"/></g><path d="M209.444 174.336s-.175-1.844-2.007-2.576c-.56-.224-1.434.013-1.434.013s-1.058 1.655.178 2.237c1.78.838 3.264.326 3.264.326" fill="#FFF"/><path d="M206.33 172.213c-.138.272-.315.73-.225 1.04.027.092.083.208.29.305 1.03.484 1.94.47 2.454.397-.163-.504-.574-1.32-1.598-1.73-.24-.096-.644-.06-.923-.012m1.965 2.777c-.635 0-1.448-.115-2.326-.528-.42-.197-.706-.52-.826-.932-.26-.9.366-1.913.438-2.026l.103-.162.187-.05c.106-.03 1.056-.274 1.75.004 2.093.836 2.31 2.905 2.32 2.993l.037.39-.373.13c-.037.01-.544.18-1.312.18" fill="#52267D"/><path d="M205.082 173.728s-.06-2.904-3.327-3.327c-.61-.078-1.392-.02-1.392-.02s-1.54 3.053.182 3.348c2.117.363 4.537 0 4.537 0" fill="#FFF"/><path d="M200.69 170.866c-.318.72-.604 1.73-.385 2.164.04.08.112.17.324.205 1.46.253 3.094.14 3.888.058-.165-.734-.75-2.127-2.827-2.396-.33-.044-.735-.042-1-.03m1.98 3.523c-.698 0-1.468-.042-2.21-.17-.61-.103-.907-.46-1.048-.74-.57-1.13.394-3.102.506-3.324l.126-.252.282-.02c.034-.003.84-.062 1.494.02 2.92.38 3.738 2.66 3.763 3.814l.008.44-.433.064c-.068.01-1.142.168-2.488.168" fill="#52267D"/><path d="M199.237 174.39s-.443-2.777-2.926-1.948c-1.06.354-1.633 1.18-1.633 1.18s.553 2.11 1.542 1.846c1.726-.46 3.017-1.08 3.017-1.08" fill="#FFF"/><path d="M195.233 173.736c.158.475.44 1.06.722 1.225.065.04.103.036.135.025 1.122-.3 2.063-.67 2.557-.88-.116-.353-.355-.874-.8-1.14-.364-.22-.813-.238-1.378-.048-.605.202-1.03.592-1.237.82m.816 2.254c-.206 0-.408-.055-.598-.165-.803-.467-1.19-1.81-1.258-2.074l-.06-.222.132-.19c.028-.04.682-.967 1.887-1.37.85-.284 1.593-.234 2.217.143 1.105.67 1.35 2.14 1.36 2.2l.06.368-.337.162c-.054.026-1.353.645-3.105 1.112-.1.026-.2.04-.3.04" fill="#52267D"/><path d="M209.267 224.085c-.62-.465-1.247-.732-1.787-.86" fill="#F3E3FF"/><path d="M208.967 224.486c-.635-.477-1.223-.685-1.604-.775l.233-.972c.68.162 1.36.49 1.97.947l-.6.8z" fill="#52267D"/><g transform="translate(178 185.476)"><mask id="r" fill="#fff"><use xlink:href="#q"/></mask><path d="M27.666 38.552c1.777-7.222-1.43-21.03-2.02-24.428L23.314.51H22.29c-1.296 0-2.277 1.408-2.094 2.693l1.693 11.81c.57 4 1.167 22.514-5.782 26.49-1.482.85-3.892.293-4.8-.14-3.302-1.578-4.25-5.696-4.975-9.015-1.498-6.87-.33-12.262 0-17.647l.35-6.736c.06-1.218-.908-2.51-2.124-2.51H3.316L1.08 19.07C.41 22.947-1.32 36.39 6.6 42.695c.143.114-1.926.577-1.327 1.637 2.383 4.212 9.29 4.878 10.588 6.682 5.008 6.944.32 21.74.32 21.74s5.556-2.218 8.998-5.303c8.047-7.21 9.068-17.656 9.105-20.732.045-3.68-.922-5.96-2.11-7.322" fill="#F3E3FF" mask="url(#r)"/></g><g transform="translate(177 185.476)"><mask id="t" fill="#fff"><use xlink:href="#s"/></mask><path d="M16.383 73.61l.32-1.008c.045-.145 4.554-14.637-.247-21.297-.416-.576-1.77-1.11-3.204-1.675-2.612-1.03-5.863-2.31-7.414-5.052-.226-.402-.19-.745-.12-.963.155-.48.6-.794 1.003-1.008C-.69 36.02.906 22.92 1.59 18.983l2.303-14.03H5.56c.648 0 1.28.287 1.774.808.57.602.888 1.435.847 2.23l-.348 6.736c-.076 1.245-.196 2.487-.318 3.745-.408 4.205-.83 8.553.307 13.77.662 3.027 1.565 7.172 4.705 8.67.85.407 3.065.886 4.336.16 6.504-3.724 6.2-21.336 5.534-25.986L20.7 3.274c-.117-.825.153-1.71.722-2.366.503-.58 1.167-.9 1.868-.9h1.446l2.405 14.03c.08.455.205 1.096.36 1.883 1.044 5.322 3.216 16.393 1.652 22.75l-.97-.238c1.51-6.143-.714-17.478-1.663-22.318-.158-.796-.285-1.445-.365-1.904L23.892 1.008h-.602c-.407 0-.803.198-1.112.555-.377.434-.563 1.035-.486 1.57l1.692 11.808c.483 3.384 1.43 22.73-6.027 26.997-1.703.975-4.328.322-5.264-.124-3.58-1.71-4.545-6.13-5.248-9.36-1.172-5.37-.742-9.797-.326-14.078.12-1.247.24-2.476.314-3.704l.35-6.732c.025-.517-.195-1.088-.574-1.488-.305-.32-.678-.497-1.05-.497H4.74L2.574 19.15c-.676 3.9-2.29 17.084 5.337 23.152l.22.174-.026.292c-.038.31-.282.422-.564.553-.217.1-.795.367-.87.602-.006.016-.02.06.04.164 1.375 2.432 4.444 3.642 6.91 4.614 1.71.674 3.06 1.206 3.647 2.02 4.376 6.07 1.666 17.624.69 21.155 1.727-.776 5.4-2.567 7.887-4.796 8.542-7.657 8.924-19.09 8.94-20.368.036-3.04-.65-5.457-1.99-6.988l.755-.658c1.522 1.744 2.274 4.32 2.233 7.657-.026 2.16-.595 13.325-9.27 21.1-3.47 3.108-8.918 5.303-9.15 5.395l-.98.39z" fill="#52267D" mask="url(#t)"/></g><path d="M140.352 230.052s-1.143-1.266-.5-2.966c.196-.518.902-.966.902-.966s1.783.312 1.408 1.514c-.54 1.73-1.81 2.418-1.81 2.418" fill="#FFF"/><path d="M140.86 226.66c-.202.155-.463.397-.54.603-.344.907-.078 1.663.155 2.087.363-.308.908-.902 1.208-1.864.06-.186.02-.287-.022-.354-.14-.23-.524-.394-.8-.473zm-.616 4.02l-.264-.292c-.055-.06-1.34-1.515-.597-3.478.248-.656 1.016-1.156 1.103-1.212l.163-.102.19.033c.123.02 1.216.23 1.674.98.212.35.255.754.124 1.173-.592 1.902-1.99 2.677-2.05 2.71l-.344.187z" fill="#52267D"/><path d="M140.73 228.293s-.4-.444-.175-1.04c.07-.183.317-.34.317-.34s.625.11.493.53c-.19.608-.634.85-.634.85" fill="#F3E3FF"/><path d="M201.843 189.305s-3.873 2.19-9.318.213c.374 1.69 1.134 5.084 1.134 5.084s5.044 1.547 8.936-.9c-.4-2.243-.753-4.397-.753-4.397" fill="#FFF"/><path d="M194.08 194.197c1.048.258 4.867 1.012 7.963-.748-.242-1.37-.46-2.668-.586-3.414-1.26.517-4.293 1.41-8.254.233l.878 3.927m3.216 1.394c-2.077 0-3.665-.473-3.783-.51l-.28-.085-.062-.283s-.76-3.396-1.134-5.085l-.196-.89.855.312c5.142 1.864 8.865-.16 8.903-.18l.622-.348.116.702s.353 2.152.752 4.39l.06.33-.286.18c-1.822 1.146-3.86 1.467-5.566 1.467" fill="#52267D"/><path d="M172.863 179.463s.177-1.857 2.022-2.596c.563-.224 2.083-.286 2.083-.286s.428 1.97-.817 2.555c-1.792.844-3.287.328-3.287.328" fill="#FFF"/><path d="M173.46 179.083c.516.073 1.435.09 2.48-.4.573-.27.62-1.074.59-1.576-.54.04-1.19.118-1.46.224-1.033.415-1.45 1.245-1.61 1.753m.562 1.036c-.775 0-1.284-.172-1.322-.184l-.372-.128.037-.393c.01-.088.23-2.17 2.335-3.012.624-.25 2.084-.315 2.248-.322l.42-.016.09.41c.02.097.493 2.366-1.094 3.113-.883.416-1.703.532-2.342.532" fill="#52267D"/><path d="M177.546 178.515s.053-2.53 2.9-2.9c.532-.07 1.213-.017 1.213-.017s1.343 2.66-.16 2.917c-1.845.316-3.954 0-3.954 0" fill="#FFF"/><path d="M178.117 178.078c.715.07 2.08.152 3.3-.057.18-.03.216-.103.236-.143.176-.348-.06-1.192-.32-1.795-.23-.004-.55-.006-.823.03-1.705.22-2.23 1.33-2.393 1.967m1.532 1.076c-1.18 0-2.12-.14-2.18-.147l-.433-.065.01-.44c.02-1.025.745-3.05 3.335-3.386.577-.075 1.285-.022 1.315-.02l.28.02.128.252c.16.32.94 1.962.442 2.954-.13.26-.403.586-.96.683-.652.11-1.326.147-1.938.147" fill="#52267D"/><path d="M182.94 178.7s.446-2.798 2.947-1.962c1.07.357 1.646 1.19 1.646 1.19s-.556 2.125-1.553 1.86c-1.74-.465-3.04-1.09-3.04-1.09" fill="#FFF"/><path d="M183.53 178.413c.496.212 1.445.588 2.58.89.03.01.07.014.14-.026.283-.165.568-.76.727-1.238-.208-.23-.636-.624-1.248-.828-.57-.19-1.025-.174-1.392.048-.45.27-.69.797-.808 1.153m2.62 1.896c-.1 0-.2-.014-.3-.04-1.764-.47-3.07-1.095-3.127-1.12l-.336-.163.06-.368c.01-.063.257-1.54 1.368-2.214.628-.38 1.38-.427 2.23-.143 1.214.405 1.872 1.34 1.9 1.38l.13.19-.06.222c-.068.265-.456 1.617-1.262 2.087-.192.11-.396.167-.602.167" fill="#52267D"/><path d="M208.484 173.87s-.093-.985-1.07-1.377c-.3-.12-.768.008-.768.008s-.565.885.096 1.195c.95.447 1.742.175 1.742.175M204.007 173.24s-.038-1.82-2.086-2.086c-.38-.05-.872-.012-.872-.012s-.966 1.913.114 2.098c1.327.228 2.845 0 2.845 0M198.16 174.11s-.257-1.603-1.69-1.124c-.612.205-.943.683-.943.683s.32 1.215.89 1.063c.997-.266 1.742-.623 1.742-.623M173.78 178.99s.093-.982 1.068-1.373c.298-.12 1.102-.15 1.102-.15s.226 1.04-.432 1.35c-.948.444-1.738.172-1.738.172M178.65 178.07s.03-1.4 1.605-1.605c.293-.038.67-.008.67-.008s.743 1.47-.087 1.612c-1.02.174-2.187 0-2.187 0M183.935 178.508s.244-1.53 1.612-1.072c.585.195.9.65.9.65s-.303 1.163-.85 1.018c-.95-.254-1.662-.596-1.662-.596" fill="#F3E3FF"/><path d="M190.27 194.1s-4.797.75-9.358-.37c-.446 2.478-.73 4.35-.73 4.35s3.163 2.148 9.008.902c.69-3.184 1.08-4.88 1.08-4.88" fill="#FFF"/><path d="M180.727 197.817c.836.436 3.615 1.604 8.042.74.396-1.83.687-3.136.853-3.87-1.456.156-4.875.39-8.312-.35-.284 1.606-.49 2.896-.583 3.48m4.917 2.056c-3.66 0-5.64-1.308-5.745-1.38l-.262-.177.048-.312s.286-1.876.732-4.363l.094-.522.518.127c4.408 1.082 9.116.37 9.16.362l.73-.113-.165.72s-.39 1.696-1.078 4.874l-.068.316-.317.067c-1.357.29-2.576.403-3.65.403" fill="#52267D"/><path d="M182.336 189.284h-5.445c0-2.743 2.224-4.966 4.967-4.966h.48c1.37 0 2.482 1.112 2.482 2.483 0 1.373-1.113 2.484-2.484 2.484" fill="#F3E3FF"/><path d="M181.74 189.19h-4.756c0-2.154 1.746-3.9 3.9-3.9h1.13c1.002 0 1.814.81 1.814 1.812 0 1.153-.936 2.088-2.09 2.088" fill="#FFF"/><path d="M177.52 188.69h4.22c.875 0 1.588-.712 1.588-1.588 0-.725-.59-1.313-1.314-1.313h-1.13c-1.704 0-3.12 1.26-3.362 2.9m4.218 1h-5.256v-.5c0-2.427 1.974-4.4 4.4-4.4h1.13c1.276 0 2.314 1.037 2.314 2.312 0 1.427-1.16 2.588-2.59 2.588" fill="#52267D"/><path d="M180.737 187.277c.263-.54.037-1.193-.504-1.456-.54-.263-1.193-.037-1.456.504-.264.542-.038 1.193.503 1.457.542.264 1.193.038 1.457-.503" fill="#52267D"/><path d="M201.18 184.576h5.444c0-2.743-2.223-4.967-4.966-4.967h-.48c-1.37 0-2.482 1.112-2.482 2.483 0 1.37 1.112 2.483 2.483 2.483" fill="#F3E3FF"/><path d="M201.638 184.482h4.893c0-2.154-1.746-3.9-3.9-3.9h-.993c-1.077 0-1.95.872-1.95 1.95 0 1.077.873 1.95 1.95 1.95" fill="#FFF"/><path d="M201.637 181.08c-.8 0-1.45.65-1.45 1.45 0 .8.65 1.45 1.45 1.45h4.356c-.242-1.638-1.658-2.9-3.364-2.9h-.993zm5.394 3.9l-5.392.002c-1.352 0-2.45-1.1-2.45-2.45s1.098-2.45 2.45-2.45h.99c2.428 0 4.403 1.974 4.403 4.4v.5z" fill="#52267D"/><path d="M204.775 182.057c0 .602-.488 1.09-1.09 1.09-.602 0-1.09-.488-1.09-1.09 0-.602.488-1.09 1.09-1.09.602 0 1.09.488 1.09 1.09M170.33 190.416c.31-.066.587-.238.783-.486l.365-.46-.812.175-.48.103c-.184.04-.3.22-.262.405.04.185.22.303.406.263M212.336 185.32c-.31-.065-.587-.237-.784-.485l-.365-.46.813.175.48.102c.184.04.3.222.26.406-.038.185-.22.302-.404.263" fill="#52267D"/><path d="M201.378 190.012s-4.06 1.73-8.15.148c.427 2.402.81 3.628.81 3.628s2.463.145 4.094-.176c2.33-.46 3.246-1.518 3.246-3.6" fill="#EAF3FB"/><path d="M195.73 193.09s3.694.31 6.553-1.174" fill="#FFF"/><path d="M196.595 193.62c-.525 0-.86-.027-.905-.03l.083-.997c.038.005 3.59.277 6.28-1.12l.46.888c-2.108 1.094-4.606 1.26-5.918 1.26" fill="#52267D"/><path d="M182.668 194.642s3.6 1.023 6.776.39c-.6 2.363-.918 3.104-.918 3.104s-4.764-.636-5.858-3.494" fill="#EAF3FB"/><path d="M182.32 196.003s3.624.687 7.47.228" fill="#FFF"/><path d="M186.98 196.89c-2.623 0-4.64-.374-4.75-.396l.185-.982c.035.007 3.598.664 7.317.223l.12.992c-.995.12-1.97.163-2.873.163" fill="#52267D"/><g fill="#F3E3FF"><path d="M232.33 196.624c-.363 0-.66-.297-.66-.66h.25c0 .225.184.41.41.41.228 0 .41-.185.41-.41h.25c0 .363-.295.66-.66.66"/><path d="M233.402 196.624c-.364 0-.66-.297-.66-.66h.25c0 .225.183.41.41.41.227 0 .41-.185.41-.41h.25c0 .363-.296.66-.66.66"/><path d="M232.866 197.16c-.364 0-.66-.296-.66-.66h.25c0 .226.183.41.41.41.227 0 .41-.184.41-.41h.25c0 .364-.296.66-.66.66M211.92 195.706c-.068 0-.14-.008-.208-.024-.238-.056-.44-.2-.57-.41-.128-.206-.168-.45-.114-.69.056-.237.202-.44.41-.568l.13.213c-.15.093-.255.24-.295.413-.04.173-.01.35.083.502.092.15.24.256.413.296.172.04.35.01.5-.083l.132.213c-.146.09-.312.138-.48.138"/><path d="M211.668 196.793c-.07 0-.142-.01-.212-.024-.237-.058-.438-.203-.567-.41-.13-.208-.17-.453-.116-.69.056-.238.202-.44.41-.57l.13.214c-.15.093-.255.24-.295.413-.042.172-.012.35.082.5.092.152.24.257.412.297.174.045.35.013.503-.082l.13.213c-.146.09-.31.138-.48.138M186.19 214.305c-.465 0-.844-.38-.844-.844h.25c0 .328.267.595.594.595.327 0 .594-.267.594-.594h.25c0 .466-.38.845-.844.845"/><path d="M186.91 215.024c-.466 0-.845-.38-.845-.844h.25c0 .327.267.594.594.594.326 0 .593-.267.593-.594h.25c0 .465-.38.844-.844.844M187.232 191.47c-.504 0-.914-.41-.914-.913h.25c0 .366.298.664.664.664.367 0 .665-.297.665-.663h.25c0 .504-.41.914-.915.914"/><path d="M188.023 192.26c-.505 0-.915-.41-.915-.914h.25c0 .367.298.665.665.665.366 0 .664-.297.664-.664h.25c0 .505-.41.915-.915.915M197.156 205.588c-.598 0-1.084-.486-1.084-1.085h.25c0 .46.374.835.834.835.46 0 .835-.375.835-.835h.25c0 .6-.485 1.085-1.084 1.085"/><path d="M198.116 206.547c-.6 0-1.085-.486-1.085-1.084h.25c0 .46.376.834.836.834.46 0 .834-.374.834-.834h.25c0 .598-.486 1.084-1.084 1.084M211.412 181.413c-.423 0-.767-.344-.767-.767h.25c0 .287.232.518.517.518.285 0 .517-.23.517-.517h.25c0 .423-.345.767-.768.767"/><path d="M212.054 182.055c-.423 0-.767-.344-.767-.767h.25c0 .286.232.517.517.517.285 0 .517-.23.517-.517h.25c0 .423-.343.767-.766.767M195.237 188.134c-.55 0-1-.448-1-1h.25c0 .413.337.75.75.75s.75-.337.75-.75h.25c0 .552-.448 1-1 1M195.54 221.186c-.55 0-1-.448-1-1h.25c0 .413.338.75.75.75.414 0 .75-.337.75-.75h.25c0 .552-.448 1-1 1M185.84 202.754c-.434 0-.787-.354-.787-.788h.25c0 .297.24.538.537.538.297 0 .538-.24.538-.538h.25c0 .434-.353.788-.788.788M170.227 187.532c-.343 0-.622-.28-.622-.622h.25c0 .205.167.372.372.372s.372-.167.372-.372h.25c0 .343-.28.622-.623.622"/></g></g><g><path d="M107.724 214.17c-.437 0-.838-.287-.962-.728-.15-.532.16-1.083.69-1.234.41-.115 1.618-.538 2.298-1.104.425-.353 1.054-.297 1.41.13.352.422.294 1.053-.13 1.407-1.132.943-2.845 1.44-3.036 1.494-.09.025-.18.037-.27.037" fill="#9ACDED"/><path d="M238.048 216.04H221.99c.6-2.046.933-4.207.933-6.448 0-12.71-10.305-23.015-23.016-23.015-10.13 0-18.725 6.548-21.8 15.64-1.083-.24-2.207-.373-3.364-.373-8.095 0-14.716 6.258-15.322 14.197l-13.716.037c-.536-9.607-7.946-17.377-17.404-18.44-3.06-14.837-16.194-25.992-31.937-25.992-10.71 0-20.21 5.162-26.155 13.132-2.066-.518-4.227-.797-6.454-.797-14.603 0-26.44 11.838-26.44 26.442 0 1.942.214 3.833.613 5.655h-16.26" fill="#FFF"/><path d="M144.76 217.08l-.054-.947c-.51-9.123-7.456-16.484-16.517-17.502l-.723-.08-.146-.71c-3.01-14.6-16.028-25.196-30.957-25.196-10.08 0-19.32 4.642-25.353 12.73l-.398.536-.647-.162c-2.027-.51-4.117-.767-6.21-.767-14.03 0-25.442 11.413-25.442 25.442 0 1.816.2 3.648.59 5.44l.266 1.215H21.665c-.553 0-1-.446-1-1 0-.553.447-1 1-1h15.047c-.266-1.542-.4-3.102-.4-4.655 0-15.13 12.31-27.44 27.44-27.44 2.037 0 4.07.226 6.054.672 6.42-8.276 16.06-13.01 26.556-13.01 15.634 0 29.298 10.93 32.764 26.093 9.37 1.38 16.55 8.918 17.5 18.34l11.894-.034c1.077-8.034 8.03-14.198 16.223-14.198.903 0 1.81.076 2.712.226 3.527-9.302 12.44-15.493 22.452-15.493 13.243 0 24.016 10.774 24.016 24.016 0 1.823-.213 3.65-.635 5.448h14.76c.553 0 1 .448 1 1 0 .555-.447 1-1 1h-17.39l.373-1.278c.593-2.028.893-4.102.893-6.17 0-12.14-9.876-22.015-22.016-22.015-9.446 0-17.827 6.012-20.853 14.96l-.288.85-.877-.194c-1.04-.232-2.1-.35-3.147-.35-7.463.002-13.756 5.832-14.325 13.275l-.07.92-15.59.042z" fill="#9ACDED"/><path d="M226.046 118.03c-.553 0-1-.447-1-1v-7c0-.553.447-1 1-1 .553 0 1 .447 1 1v7c0 .553-.447 1-1 1" fill="#375D81"/><path d="M229.546 114.53h-7c-.553 0-1-.447-1-1 0-.553.447-1 1-1h7c.553 0 1 .447 1 1 0 .553-.447 1-1 1M40.276 75.7c-.553 0-1-.448-1-1v-7c0-.554.447-1 1-1 .553 0 1 .446 1 1v7c0 .552-.447 1-1 1" fill="#375D81"/><path d="M43.776 72.2h-7c-.553 0-1-.448-1-1 0-.554.447-1 1-1h7c.553 0 1 .446 1 1 0 .552-.447 1-1 1M163.903 29.938c-.276 0-.5-.224-.5-.5V25.5c0-.276.224-.5.5-.5s.5.224.5.5v3.938c0 .276-.224.5-.5.5" fill="#375D81"/><path d="M165.872 27.97h-3.938c-.276 0-.5-.225-.5-.5 0-.277.224-.5.5-.5h3.938c.276 0 .5.223.5.5 0 .275-.224.5-.5.5M26.994 158.98c-.276 0-.5-.224-.5-.5v-3.937c0-.277.224-.5.5-.5s.5.223.5.5v3.937c0 .276-.224.5-.5.5" fill="#375D81"/><path d="M28.963 157.01h-3.938c-.276 0-.5-.223-.5-.5 0-.275.224-.5.5-.5h3.938c.276 0 .5.225.5.5 0 .277-.224.5-.5.5M203.318 159.45c-.276 0-.5-.223-.5-.5v-3.936c0-.277.224-.5.5-.5s.5.223.5.5v3.937c0 .277-.224.5-.5.5" fill="#375D81"/><path d="M205.287 157.482h-3.938c-.277 0-.5-.224-.5-.5s.223-.5.5-.5h3.937c.276 0 .5.224.5.5s-.224.5-.5.5" fill="#375D81"/><path d="M149.72 165.73c6.213 0 11.25 5.038 11.25 11.252 0 2.047-.555 3.96-1.51 5.614l.697 2.605.813 3.033-3.032-.813-2.605-.698c-1.653.956-3.567 1.51-5.614 1.51-6.215 0-11.252-5.036-11.252-11.25s5.037-11.25 11.25-11.25" fill="#FFF"/><path d="M153.38 177.554c0 .72.584 1.305 1.305 1.305.72 0 1.304-.586 1.304-1.306 0-.72-.585-1.306-1.305-1.306s-1.305.585-1.305 1.306M148.414 177.554c0 .72.584 1.305 1.305 1.305.72 0 1.303-.586 1.303-1.306 0-.72-.584-1.306-1.304-1.306-.722 0-1.306.585-1.306 1.306M143.448 177.554c0 .72.584 1.305 1.305 1.305.72 0 1.305-.586 1.305-1.306 0-.72-.585-1.306-1.305-1.306s-1.305.585-1.305 1.306" fill="#E1F2FF"/><path d="M185.636 146.706c-13.94 3.053-28.37 3.088-42.324.105l-21.66-4.63c-14.623-3.126-29.727-3.274-44.408-.433l-1.685.326V75.07c15.068-3.053 30.607-2.952 45.636.3l21.012 4.545c13.47 2.914 27.4 3.016 40.91.294l2.518-.507v67.003z" fill="#FFF"/><path d="M185.636 146.706h.01-.01zm-87.24-7.997c7.847 0 15.688.83 23.464 2.493l21.66 4.63c13.65 2.918 27.478 2.938 41.116.065V80.925l-1.32.265c-13.728 2.764-27.63 2.664-41.32-.297l-21.012-4.545c-14.717-3.185-29.66-3.337-44.425-.456v64.97l.494-.096c7.09-1.372 14.218-2.057 21.343-2.057zm65.84 11.328c-7.06 0-14.12-.75-21.133-2.25l-21.66-4.63c-14.574-3.113-29.38-3.26-44.008-.43l-1.686.328c-.294.06-.597-.02-.828-.21-.23-.19-.363-.473-.363-.772V75.07c0-.474.334-.885.8-.98 15.3-3.098 30.793-2.996 46.047.303l21.013 4.545c13.417 2.904 27.044 3.002 40.5.29l2.52-.505c.292-.06.597.016.83.207.23.19.366.473.366.773v67.003c0 .47-.327.876-.786.977-7.17 1.57-14.39 2.355-21.615 2.355z" fill="#375D81"/><path d="M81.616 139.862c-1.62.273-3.237.605-4.848.996l-1.3.316V76.362c2.07-.525 4.15-.954 6.236-1.287-.088 2.72-.088 53.986-.088 64.787" fill="#E1F2FF"/><path d="M145.394 114.588c0 9.735-7.893 17.63-17.63 17.63-9.734 0-17.627-7.895-17.627-17.63 0-9.736 7.892-17.63 17.63-17.63 9.734 0 17.627 7.894 17.627 17.63" fill="#EFEFF6"/><path d="M149.547 111.266c0 9.735-7.893 17.63-17.628 17.63-9.737 0-17.63-7.895-17.63-17.63 0-9.736 7.893-17.63 17.63-17.63 9.734 0 17.627 7.894 17.627 17.63" fill="#FFF"/><path d="M131.92 94.637c-9.17 0-16.63 7.46-16.63 16.63 0 9.168 7.46 16.628 16.63 16.628 9.168 0 16.627-7.46 16.627-16.63 0-9.168-7.46-16.628-16.628-16.628m0 35.258c-10.273 0-18.63-8.357-18.63-18.63 0-10.272 8.357-18.628 18.63-18.628 10.27 0 18.627 8.356 18.627 18.63 0 10.27-8.357 18.628-18.628 18.628" fill="#375D81"/><path d="M137.565 120.163c.078.23.146.386.166.438.008.007-.005 0 0 0 0 0 0 .002 0 0 .002.002 0 0 0 0-.52-5.012 2.324-7.102 3.238-10.431.004-.052.014-.106.03-.166.018-.075.034-.152.045-.23.136-.92-.242-1.993-.957-3.11-.003-.005-.008-.01-.01-.017-.06-.093-.122-.186-.186-.28 0 0-.003 0-.003-.003-.117-.17-.243-.34-.374-.513l-.04-.05-.11-.14c-.04-.05-.077-.1-.115-.145l-.118-.14c-.04-.05-.08-.097-.122-.147l-.09-.1c-1.123-1.293-2.584-2.573-4.11-3.686 0 0-.012-.015 0 0 .202 1.888.228 3.775.05 5.284-.218 1.82-.868 3.936-1.772 5.855-2.113-.172-4.274-.662-5.96-1.382-1.407-.6-3.02-1.55-4.564-2.676.017.156.037.31.055.467.005.047.01.093.017.14l.046.334c.006.052.014.102.022.153l.052.334.02.138c.025.14.05.28.073.42l.008.04c.028.163.06.323.09.484l.01.037.088.428.02.087c.028.13.06.26.09.39.006.023.013.05.018.076.038.148.075.297.114.444.125.472.26.927.41 1.362.002.007.004.01.005.017.25.728.535 1.398.855 1.985.046.085.094.17.142.25.004.003.004.007.005.01h.002c.043.076.088.15.132.22l.005.01.148.22v.002c.008.01.013.02.022.03 0 0-.002 0 0 0 .064.094.13.184.197.27l.034.04c.004.007.01.01.01.017.08.095.156.19.237.275.056.064.112.12.17.177l.073.07.108.097.083.067c.035.03.072.056.106.084.028.022.056.04.085.06.037.026.073.052.11.076l.085.052c.037.023.077.044.115.067l.08.04c.046.023.09.04.136.062.023.006.046.018.07.027.067.028.136.052.206.07.047.014.087.03.125.043 3.346.885 6.606-.516 10.694 2.406" fill="#9452BA"/><path d="M154.287 126.513v14.804" fill="#FFF"/><path d="M154.287 142.317c-.553 0-1-.447-1-1v-14.804c0-.552.447-1 1-1 .553 0 1 .448 1 1v14.804c0 .553-.447 1-1 1" fill="#E1F2FF"/><path d="M99.624 94.284v23.53" fill="#FFF"/><path d="M99.624 118.813c-.553 0-1-.447-1-1v-23.53c0-.552.447-1 1-1 .553 0 1 .448 1 1v23.53c0 .553-.447 1-1 1M79.935 202.476c1.832 3.37-15.012-.253-15.012-.253s1.642-4.3 5.815-4.68c4.217-.38 7.238 1.328 9.197 4.933" fill="#E1F2FF"/></g><g><g transform="translate(70 64.476)"><mask id="v" fill="#fff"><use xlink:href="#u"/></mask><path d="M2.503 150.405H2.12c-1 0-1.81-.81-1.81-1.81V1.922c0-1 .81-1.81 1.81-1.81h.383c1 0 1.812.81 1.812 1.81v146.67c0 1-.81 1.812-1.812 1.812" fill="#FFF" mask="url(#v)"/></g><g transform="translate(69 63.476)"><mask id="x" fill="#fff"><use xlink:href="#w"/></mask><path d="M3.12 2.112c-.446 0-.81.363-.81.81v146.672c0 .448.364.81.81.81h.383c.447 0 .81-.362.81-.81V2.924c0-.45-.363-.812-.81-.812H3.12zm.383 150.293H3.12c-1.55 0-2.81-1.26-2.81-2.81V2.922c0-1.55 1.26-2.81 2.81-2.81h.383c1.55 0 2.81 1.26 2.81 2.81v146.67c0 1.55-1.26 2.812-2.81 2.812z" fill="#375D81" mask="url(#x)"/></g></g><g fill="#9ACDED"><path d="M73.027 205.056c-4.697 0-7.865-2.022-8.056-2.146-.46-.303-.59-.922-.288-1.385.302-.46.92-.594 1.382-.29.242.154 6.02 3.792 13.45.334.502-.23 1.095-.016 1.328.484.233.5.016 1.096-.485 1.33-2.674 1.24-5.165 1.672-7.33 1.672M80.746 207.227c-.41 0-.796-.256-.94-.666-.186-.52.086-1.09.606-1.275.005-.002.57-.205 1.39-.635.487-.256 1.092-.07 1.35.422.256.488.067 1.093-.423 1.35-.958.5-1.624.74-1.65.748-.11.038-.224.057-.334.057"/></g></g></svg>