<?xml version="1.0" encoding="UTF-8"?>
<svg width="256px" height="256px" viewBox="0 0 256 256" version="1.1" xmlns="http://www.w3.org/2000/svg" xmlns:xlink="http://www.w3.org/1999/xlink">
    <!-- Generator: Sketch 46.2 (44496) - http://www.bohemiancoding.com/sketch -->
    <title>illustration-user-roles</title>
    <desc>Created with Sketch.</desc>
    <defs>
        <circle id="path-1" cx="91.23" cy="90.5" r="90.5"></circle>
    </defs>
    <g id="256x256" stroke="none" stroke-width="1" fill="none" fill-rule="evenodd">
        <g id="illustration-user-roles">
            <g id="User_Role" transform="translate(12.000000, 24.000000)">
                <circle id="Oval" fill="#E1F2FF" fill-rule="nonzero" cx="118.23" cy="103.5" r="90.5"></circle>
                <path d="M208.2,93.66 C208.55327,96.9281003 208.730193,100.212862 208.73,103.5 C208.720451,143.288236 182.727835,178.404264 144.67747,190.034979 C106.627104,201.665693 65.4433324,187.083223 43.19,154.1" id="Shape" stroke="#375D81" stroke-width="2" stroke-linecap="round" stroke-linejoin="round" stroke-dasharray="60"></path>
                <path d="M228.98,41.5 L228.98,48.5" id="Shape" stroke="#375D81" stroke-width="2" stroke-linecap="round" stroke-linejoin="round"></path>
                <path d="M232.48,45 L225.48,45" id="Shape" stroke="#375D81" stroke-width="2" stroke-linecap="round" stroke-linejoin="round"></path>
                <path d="M57.68,0 L57.68,7" id="Shape" stroke="#375D81" stroke-width="2" stroke-linecap="round" stroke-linejoin="round"></path>
                <path d="M61.18,3.5 L54.18,3.5" id="Shape" stroke="#375D81" stroke-width="2" stroke-linecap="round" stroke-linejoin="round"></path>
                <path d="M2.47,95.69 L2.47,99.63" id="Shape" stroke="#375D81" stroke-linecap="round"></path>
                <path d="M4.44,97.66 L0.5,97.66" id="Shape" stroke="#375D81" stroke-linecap="round"></path>
                <path d="M24.71,180.75 L24.71,184.68" id="Shape" stroke="#375D81" stroke-linecap="round"></path>
                <path d="M26.68,182.71 L22.74,182.71" id="Shape" stroke="#375D81" stroke-linecap="round"></path>
                <g id="Group-2" transform="translate(27.000000, 13.000000)">
                    <mask id="mask-2" fill="white">
                        <use xlink:href="#path-1"></use>
                    </mask>
                    <use id="Oval" fill="#E1F2FF" fill-rule="nonzero" xlink:href="#path-1"></use>
                    <g id="Group" mask="url(#mask-2)">
                        <g transform="translate(23.000000, 28.000000)">
                            <path d="M129.67,231.15 C120.67,212.85 107.25,159.79 114.12,124.54 L119.56,96.65 C121.34331,87.498733 122.124583,78.1804534 121.89,68.86 L121.89,68.86 C121.795795,65.0514352 121.316691,61.2621586 120.46,57.55 C120.246667,56.6366667 120.013333,55.7333333 119.76,54.84 C119.003438,52.1830905 118.050824,49.5859642 116.91,47.07 C116.53,46.2366667 116.133333,45.4166667 115.72,44.61 C114.886667,42.99 113.98,41.4166667 113,39.89 C112.02,38.3633333 110.973333,36.8933333 109.86,35.48 C106.509052,31.2290565 102.565543,27.4808704 98.15,24.35 C96.6766667,23.3033333 95.1566667,22.33 93.59,21.43 C84.6685877,16.3019478 74.5067033,13.7312021 64.22,14 L55,14.23 C40.0737598,14.5922001 25.9079036,20.8905356 15.64,31.73 C14.4,33.0633333 13.2233333,34.4266667 12.11,35.82 C10.0863926,38.4085918 8.29290182,41.1690953 6.75,44.07 C6.17,45.16 5.61,46.27 5.1,47.4 C4.72666667,48.2266667 4.37333333,49.0666667 4.04,49.92 C1.99475764,55.1202853 0.740817518,60.5978464 0.32,66.17 C0.172789936,68.0862364 0.122725809,70.0086989 0.17,71.93 L0.17,71.93 C0.256394122,75.6504801 1.82053358,79.1834659 4.51687269,81.7484594 C7.21321181,84.3134528 10.8198435,85.6993564 14.54,85.6 L72.12,84.15 L64.66,134.35 C55.72,185.95 59.66,220.21 68.16,242.9 C70.06,248 130.78,233.41 129.67,231.15 Z" id="Shape" stroke="#375D81" stroke-width="2" fill="#9ACDED" fill-rule="nonzero"></path>
                            <path d="M25.35,22.68 C26.0592847,16.5026238 30.0020919,11.1693581 35.7,8.68 C38.65,7.41 46.7,6.89 46.7,6.89 C46.7,6.89 49.22,17.24 42.7,20.5 C37.3731714,23.3090984 31.2061939,24.0839694 25.35,22.68 Z" id="Shape" stroke="#375D81" stroke-width="2" fill="#FFFFFF" fill-rule="nonzero"></path>
                            <path d="M50,17 C50,17 49.94,3.61 65,1.28 C67.1256438,1.01421946 69.2701129,0.930581818 71.41,1.03 C71.41,1.03 78.8,15 70.9,16.51 C61.18,18.43 50,17 50,17 Z" id="Shape" stroke="#375D81" stroke-width="2" fill="#FFFFFF" fill-rule="nonzero"></path>
                            <path d="M78.53,17.29 C78.53,17.29 80.53,2.44 93.86,6.53 C97.3463931,7.64247167 100.427931,9.75711587 102.72,12.61 C102.72,12.61 100.06,23.92 94.72,22.61 C89.1842291,21.2919263 83.7686214,19.512369 78.53,17.29 L78.53,17.29 Z" id="Shape" stroke="#375D81" stroke-width="2" fill="#FFFFFF" fill-rule="nonzero"></path>
                            <path d="M30.14,20 C30.516039,16.7354759 32.5993761,13.9170674 35.61,12.6 C37.5030054,12.0732285 39.4478581,11.754675 41.41,11.65 C41.41,11.65 42.74,17.12 39.3,18.85 C36.4870947,20.331274 33.2317728,20.7399661 30.14,20 L30.14,20 Z" id="Shape" stroke="none" fill="#E1F2FF" fill-rule="nonzero"></path>
                            <path d="M55.77,14.53 C55.77,14.53 55.77,7.13 64.04,5.84 C65.2171709,5.69212493 66.4048397,5.64528729 67.59,5.7 C67.59,5.7 71.71,13.38 67.34,14.24 C63.5145883,14.8636714 59.6218529,14.9612421 55.77,14.53 L55.77,14.53 Z" id="Shape" stroke="none" fill="#E1F2FF" fill-rule="nonzero"></path>
                            <path d="M83.77,16.15 C83.77,16.15 84.86,8.03 92.16,10.26 C94.065264,10.8707713 95.7485689,12.028913 97,13.59 C97,13.59 95.54,19.78 92.64,19.08 C89.6065583,18.3532424 86.6394749,17.3731348 83.77,16.15 Z" id="Shape" stroke="none" fill="#E1F2FF" fill-rule="nonzero"></path>
                            <path d="M119.33,97.76 C119.33,97.76 94.26,102.35 70.17,97.03 C68.17,110.2 66.92,120.13 66.92,120.13 C66.92,120.13 83.81,131.07 114.32,123.71 C117.51,106.79 119.33,97.76 119.33,97.76 Z" id="Shape" stroke="#375D81" stroke-width="2" fill="#FFFFFF" fill-rule="nonzero"></path>
                            <path d="M73.8761258,47.2778568 L76.4061258,47.2778568 C83.6576246,47.2778568 89.5361258,53.156358 89.5361258,60.4078568 L89.5361258,60.4078568 C89.5361258,67.6593555 83.6576246,73.5378568 76.4061258,73.5378568 L47.6061258,73.5378568 L47.6061258,73.5378568 C47.6116472,59.0332418 59.3715098,47.2778557 73.8761258,47.2778568 Z" id="Shape" stroke="none" fill="#E1F2FF" fill-rule="nonzero" opacity="0.3" transform="translate(68.571126, 60.407857) rotate(-1.440000) translate(-68.571126, -60.407857) "></path>
                            <path d="M68.7966634,52.46503 L74.1666634,52.46503 C79.7999678,52.46503 84.3666634,57.0317255 84.3666634,62.66503 L84.3666634,62.66503 C84.3666634,68.4308828 79.6925162,73.10503 73.9266634,73.10503 L48.1666634,73.10503 L48.1666634,73.10503 C48.1666621,61.7097769 57.4014116,52.470551 68.7966634,52.46503 L68.7966634,52.46503 Z" id="Shape" stroke="#375D81" stroke-width="2" fill="#FFFFFF" fill-rule="nonzero" transform="translate(66.266663, 62.785030) rotate(-1.440000) translate(-66.266663, -62.785030) "></path>
                            <circle id="Oval" stroke="none" fill="#375D81" fill-rule="nonzero" transform="translate(60.562782, 61.368971) rotate(-1.440000) translate(-60.562782, -61.368971) " cx="60.5627819" cy="61.3689713" r="5.76"></circle>
                            <path d="M13.41,80.93 L13.41,80.93 C15.0395689,80.53668 16.4818218,79.5893178 17.49,78.25 L19.36,75.77 L15.08,76.77 L12.56,77.38 C11.5922405,77.6167749 10.9977917,78.5911347 11.23,79.56 L11.23,79.56 C11.3348307,80.0322376 11.6243295,80.4428636 12.0338999,80.7002541 C12.4434703,80.9576447 12.9390287,81.0403803 13.41,80.93 L13.41,80.93 Z" id="Shape" stroke="none" fill="#375D81" fill-rule="nonzero"></path>
                            <path d="M79.21,101.63 C79.21,101.63 98.38,106.56 115.09,102.78 C112.23,115.36 110.65,119.32 110.65,119.32 C110.65,119.32 85.38,116.61 79.21,101.63 Z" id="Shape" stroke="none" fill="#E1F2FF" fill-rule="nonzero"></path>
                            <path d="M77.56,106.88 C77.56,106.88 92.67,110.55 112.95,107.61" id="Shape" stroke="#9ACDED" stroke-width="2" fill="none" stroke-linecap="round"></path>
                            <path d="M107,79.32 C107.102949,80.8517719 106.357928,82.3167095 105.059431,83.1357505 C103.760934,83.9547916 102.117951,83.9961121 100.779924,83.2433789 C99.4418974,82.4906456 98.6241798,81.0650104 98.65,79.53" id="Shape" stroke="#E1F2FF" stroke-width="1" fill="none" stroke-linecap="round"></path>
                            <path d="M111.26,83.39 C111.362949,84.9217719 110.617928,86.3867095 109.319431,87.2057505 C108.020934,88.0247916 106.377951,88.0661121 105.039924,87.3133789 C103.701897,86.5606456 102.88418,85.1350104 102.91,83.6" id="Shape" stroke="#E1F2FF" stroke-width="1" fill="none" stroke-linecap="round"></path>
                            <path d="M100.46,139.86 C100.586833,141.167412 99.9730542,142.436224 98.8692886,143.148342 C97.765523,143.860461 96.3565181,143.896693 95.2176121,143.242243 C94.0787062,142.587792 93.4005289,141.352202 93.46,140.04" id="Shape" stroke="#E1F2FF" stroke-width="1" fill="none" stroke-linecap="round"></path>
                            <path d="M15,62.33 C15.0358984,63.7825088 13.8875088,64.9891013 12.435,65.0249998 C10.9824912,65.0608984 9.77589859,63.9125088 9.74,62.46" id="Shape" stroke="#E1F2FF" stroke-width="1" fill="none" stroke-linecap="round"></path>
                        </g>
                    </g>
                </g>
                <path d="M179.22,49.76 L179.22,53.24" id="Shape" stroke="#375D81" stroke-linecap="round"></path>
                <path d="M180.96,51.5 L177.48,51.5" id="Shape" stroke="#375D81" stroke-linecap="round"></path>
                <circle id="Oval" stroke="#375D81" stroke-width="2" fill="#FFFFFF" fill-rule="nonzero" cx="184.57" cy="187.95" r="29.35"></circle>
                <path d="M197.56,193.4 L197.56,188.4 L193.62,187.61 C193.345137,186.592998 192.941894,185.615134 192.42,184.7 L194.65,181.36 L191.11,177.82 L187.77,180.05 C186.854866,179.528106 185.877002,179.124863 184.86,178.85 L184.07,174.91 L179.07,174.91 L178.28,178.85 C177.262998,179.124863 176.285134,179.528106 175.37,180.05 L172,177.83 L168.46,181.37 L170.69,184.71 C170.168106,185.625134 169.764863,186.602998 169.49,187.62 L165.55,188.41 L165.55,193.41 L169.49,194.2 C169.764863,195.217002 170.168106,196.194866 170.69,197.11 L168.46,200.45 L172,204 L175.34,201.77 C176.255134,202.291894 177.232998,202.695137 178.25,202.97 L179.04,206.91 L184.04,206.91 L184.83,202.97 C185.847002,202.695137 186.824866,202.291894 187.74,201.77 L191.08,204 L194.62,200.46 L192.39,197.12 C192.911894,196.204866 193.315137,195.227002 193.59,194.21 L197.56,193.4 Z" id="Shape" fill="#EFEFF6" fill-rule="nonzero"></path>
                <path d="M200.56,190.4 L200.56,185.4 L196.62,184.61 C196.345137,183.592998 195.941894,182.615134 195.42,181.7 L197.65,178.36 L194.11,174.82 L190.77,177.05 C189.854866,176.528106 188.877002,176.124863 187.86,175.85 L187.07,171.91 L182.07,171.91 L181.28,175.85 C180.262998,176.124863 179.285134,176.528106 178.37,177.05 L175,174.83 L171.46,178.37 L173.69,181.71 C173.168106,182.625134 172.764863,183.602998 172.49,184.62 L168.55,185.41 L168.55,190.41 L172.49,191.2 C172.764863,192.217002 173.168106,193.194866 173.69,194.11 L171.46,197.45 L175,201 L178.34,198.77 C179.255134,199.291894 180.232998,199.695137 181.25,199.97 L182.04,203.91 L187.04,203.91 L187.83,199.97 C188.847002,199.695137 189.824866,199.291894 190.74,198.77 L194.08,201 L197.62,197.46 L195.39,194.12 C195.911894,193.204866 196.315137,192.227002 196.59,191.21 L200.56,190.4 Z M184.56,192.07 C182.256973,192.07 180.39,190.203027 180.39,187.9 C180.39,185.596973 182.256973,183.73 184.56,183.73 C186.863027,183.73 188.73,185.596973 188.73,187.9 C188.730007,190.199128 186.869121,192.064487 184.57,192.07 L184.56,192.07 Z" id="Shape" stroke="#9ACDED" stroke-width="2" fill="#FFFFFF" fill-rule="nonzero" stroke-linecap="round" stroke-linejoin="round"></path>
                <path d="M176.52,184.8 C177.46314,182.366149 179.454881,180.488327 181.94,179.69" id="Shape" stroke="#E1F2FF" stroke-width="2" stroke-linecap="round" stroke-linejoin="round"></path>
                <path d="M192.23,183.94 C193.324384,186.062233 193.490572,188.543043 192.689031,190.792283 C191.887491,193.041524 190.189868,194.858144 188,195.81" id="Shape" stroke="#E1F2FF" stroke-width="2" stroke-linecap="round" stroke-linejoin="round"></path>
            </g>
        </g>
    </g>
</svg>