<?xml version="1.0" encoding="UTF-8"?>
<svg width="256px" height="256px" viewBox="0 0 256 256" version="1.1" xmlns="http://www.w3.org/2000/svg" xmlns:xlink="http://www.w3.org/1999/xlink">
    <!-- Generator: Sketch 59.1 (86144) - https://sketch.com -->
    <title>icon--app</title>
    <desc>Created with Sketch.</desc>
    <g id="icon--app" stroke="none" stroke-width="1" fill="none" fill-rule="evenodd">
        <g id="Group-4" transform="translate(3.000000, 24.000000)">
            <path d="M22,204.559998 C22,147.36539 68.3653922,101 125.56,101 C182.754608,101 229.12,147.36539 229.12,204.559998 L22,204.559998 Z" id="Shape" fill="#E1F2FF" fill-rule="nonzero"></path>
            <g id="Group-2" transform="translate(0.000000, 196.000000)" fill="#FFFFFF" fill-rule="nonzero" stroke="#5E63B6" stroke-linecap="round" stroke-linejoin="round" stroke-width="3">
                <line x1="17" y1="0" x2="53" y2="0" id="Shape"></line>
                <line x1="59" y1="0" x2="235.89" y2="0" id="Shape"></line>
                <line x1="243" y1="0" x2="249.97" y2="0" id="Shape"></line>
                <line x1="0" y1="0" x2="8.97" y2="0" id="Shape"></line>
                <line x1="92" y1="10" x2="159.19" y2="10" id="Shape"></line>
                <line x1="168" y1="10" x2="177.14" y2="10" id="Shape"></line>
                <line x1="84" y1="9" x2="79" y2="9.08" id="Shape"></line>
            </g>
            <g id="Group-2" transform="translate(19.000000, 0.000000)" stroke="#5E63B6" stroke-linecap="round">
                <line x1="184.98" y1="44.4" x2="184.98" y2="51.4" id="Shape" stroke-width="2" stroke-linejoin="round"></line>
                <line x1="188.48" y1="47.9" x2="181.48" y2="47.9" id="Shape" stroke-width="2" stroke-linejoin="round"></line>
                <line x1="58" y1="0" x2="58" y2="7" id="Shape" stroke-width="2" stroke-linejoin="round"></line>
                <line x1="62" y1="4" x2="55" y2="4" id="Shape" stroke-width="2" stroke-linejoin="round"></line>
                <line x1="20.73" y1="164.68" x2="20.73" y2="168.62" id="Shape"></line>
                <line x1="22.7" y1="166.65" x2="18.76" y2="166.65" id="Shape"></line>
                <line x1="195.73" y1="104.68" x2="195.73" y2="108.62" id="Shape" stroke-linejoin="round"></line>
                <line x1="197.7" y1="106.65" x2="193.76" y2="106.65" id="Shape" stroke-linejoin="round"></line>
                <line x1="26.73" y1="64.68" x2="26.73" y2="68.62" id="Shape"></line>
                <line x1="28.7" y1="66.65" x2="24.76" y2="66.65" id="Shape"></line>
                <line x1="4.42" y1="103.28" x2="4.42" y2="111.4" id="Shape" stroke-width="2" fill="#FFFFFF" fill-rule="nonzero"></line>
                <line x1="8.48" y1="107.34" x2="0.35" y2="107.34" id="Shape" stroke-width="2" fill="#FFFFFF" fill-rule="nonzero"></line>
            </g>
        </g>
        <g id="Group" transform="translate(44.000000, 26.000000)">
            <rect id="Rectangle-path" stroke="#5E63B6" stroke-width="2" fill="#FFFFFF" fill-rule="nonzero" x="0" y="0" width="116.18" height="116.18" rx="2"></rect>
            <path d="M14,12 L101.97,12 C103.074569,12 103.97,12.8954305 103.97,14 L103.97,101.97 C103.97,103.074569 103.074569,103.97 101.97,103.97 L14,103.97 C12.8954305,103.97 12,103.074569 12,101.97 L12,14 C12,12.8954305 12.8954305,12 14,12 Z" id="Rectangle-path" stroke="#E1F2FF" stroke-width="2" fill="#FFFFFF" fill-rule="nonzero" stroke-linecap="round" stroke-linejoin="round" stroke-dasharray="50"></path>
            <text id="O" fill="#5E63B6" font-family="Lato-Black, Lato" font-size="18" font-weight="700">
                <tspan x="51" y="96">O</tspan>
            </text>
            <text id="I" fill="#5E63B6" font-family="Lato-Black, Lato" font-size="18" font-weight="700">
                <tspan x="56" y="33">I</tspan>
            </text>
            <polygon id="Rectangle-path" stroke="#5E63B6" stroke-width="2" fill="#FFFFFF" fill-rule="nonzero" points="47 43 69 43 69 67 47 67"></polygon>
            <polygon id="Rectangle-path" stroke="#5E63B6" stroke-width="2" fill="#E1F2FF" fill-rule="nonzero" points="47 67 69 67 69 76.38 47 76.38"></polygon>
            <line x1="55" y1="47" x2="62.72" y2="47" id="Shape" stroke="#E1F2FF" stroke-width="2" fill="#FFFFFF" fill-rule="nonzero" stroke-linecap="round" stroke-linejoin="round" stroke-dasharray="50"></line>
        </g>
        <ellipse id="Oval-2" stroke="#5E63B6" stroke-width="4" fill="#FFFFFF" cx="96.5" cy="188.5" rx="31.5" ry="30.5"></ellipse>
        <ellipse id="Oval-2" stroke="#5E63B6" stroke-width="3" fill="#FFFFFF" cx="97" cy="188.5" rx="16" ry="15.5"></ellipse>
        <path d="M101.126796,196.366214 C101.191845,196.567864 101.256893,196.704466 101.269903,196.75 L101.269903,196.75 C100.814563,192.365728 103.299417,190.537864 104.099515,187.643204 C104.096012,187.595566 104.096012,187.547735 104.099515,187.500097 C104.115975,187.433594 104.129002,187.366288 104.138544,187.298447 C104.186325,186.321747 103.889309,185.359323 103.299417,184.579417 L103.299417,184.579417 L103.136796,184.338738 L103.136796,184.338738 C103.032718,184.189126 102.922136,184.039515 102.811553,183.889903 L102.779029,183.844369 L102.681456,183.720777 L102.583883,183.597184 L102.479806,183.473592 L102.375728,183.343495 L102.29767,183.252427 C101.221829,182.039333 100.015475,180.948596 98.7004854,180 L98.7004854,180 C98.8808645,181.533419 98.8961299,183.081769 98.7460194,184.618447 C98.4964599,186.394382 97.9742596,188.121154 97.1978641,189.737767 C95.4113577,189.604349 93.6561064,189.196253 91.9939806,188.527864 C90.5812718,187.895205 89.2419842,187.109955 88,186.186117 C88,186.322718 88,186.45932 88.045534,186.595922 L88.045534,186.719515 C88.045534,186.817087 88.045534,186.91466 88.0845631,187.012233 C88.1235922,187.109806 88.0845631,187.103301 88.0845631,187.148835 L88.1300971,187.441553 L88.1300971,187.558641 C88.1300971,187.682233 88.1691262,187.805825 88.1951456,187.922913 L88.1951456,187.955437 C88.1951456,188.098544 88.2471845,188.235146 88.2732039,188.378252 L88.2732039,188.378252 L88.3512621,188.755534 L88.3512621,188.833592 L88.4293204,189.171845 L88.4293204,189.236893 C88.4293204,189.36699 88.4943689,189.497087 88.5268932,189.627184 L88.5268932,189.627184 C88.6353074,190.039159 88.7545631,190.435955 88.8846602,190.817573 L88.8846602,190.817573 C89.0860771,191.415996 89.3362697,191.996878 89.6327184,192.554369 L89.7563107,192.775534 L89.7563107,192.775534 L89.8733981,192.964175 L89.8733981,192.964175 L90.0034951,193.15932 L90.0034951,193.15932 L90.0034951,193.15932 L90.0034951,193.15932 L90.1726214,193.393495 L90.1726214,193.432524 L90.1726214,193.432524 C90.2376699,193.517087 90.3092233,193.595146 90.3807767,193.673204 L90.5303883,193.82932 L90.5954369,193.887864 L90.6930097,193.972427 L90.7645631,194.030971 L90.8556311,194.102524 L90.9271845,194.154563 L91.0247573,194.219612 L91.0963107,194.265146 L91.2003883,194.323689 L91.2719417,194.362718 L91.3890291,194.414757 L91.4475728,194.414757 L91.6297087,194.473301 L91.7402913,194.51233 C94.6674757,195.286408 97.5166019,194.05699 101.094272,196.613398" id="Fill-7" fill="#9452BA" fill-rule="nonzero"></path>
        <path d="M123.5,174.189394 L144.225567,174.189394 C153.5,174.189394 157.729261,162.933394 157.729261,150.542394 L157.729261,111.042394 C157.729261,93.1626929 176.491552,96.1626929 180.5,96.1626929" id="Stroke-633" stroke="#5E63B6" stroke-width="5" transform="translate(152.000000, 135.081346) scale(-1, -1) translate(-152.000000, -135.081346) "></path>
        <path d="M128,197.313693 C142.366667,197.313693 151.193333,197.313693 154.48,197.313693 C174.8,197.557693 154.48,158.172662 172.79,158.172662 C186.17,157.781632 202.338639,158.172662 206.98,158.172662" id="Stroke-633" stroke="#5E63B6" stroke-width="5" transform="translate(167.490000, 177.656847) scale(-1, -1) translate(-167.490000, -177.656847) "></path>
        <path d="M202.517,92.987 L194,92.987 L194,90 L202.517,90 C203.092,90 203.559,90.466 203.559,91.042 L203.559,91.945 C203.559,92.521 203.092,92.987 202.517,92.987 Z" id="Stroke-630" stroke="#5E63B6" stroke-width="2" fill="#5E63B6"></path>
        <path d="M202.517,101.986 L194,101.986 L194,99 L202.517,99 C203.092,99 203.559,99.465 203.559,100.041 L203.559,100.945 C203.559,101.52 203.092,101.986 202.517,101.986 Z" id="Stroke-632" stroke="#5E63B6" stroke-width="2" fill="#5E63B6"></path>
        <path d="M183.075,84 L192.601,84 C193.536,84 194.293,84.758 194.293,85.691 L194.293,105.82 C194.293,106.755 193.536,107.512 192.601,107.512 L183.075,107.512 C180.824,107.512 179,105.687 179,103.437 L179,88.075 C179,85.825 180.824,84 183.075,84 Z" id="Stroke-628" stroke="#5E63B6" stroke-width="2" fill="#5E63B6"></path>
        <path d="M202.517,92.987 L194,92.987 L194,90 L202.517,90 C203.092,90 203.559,90.466 203.559,91.042 L203.559,91.945 C203.559,92.521 203.092,92.987 202.517,92.987 Z" id="Stroke-630" stroke="#5E63B6" stroke-width="2" fill="#5E63B6"></path>
        <path d="M202.517,101.986 L194,101.986 L194,99 L202.517,99 C203.092,99 203.559,99.465 203.559,100.041 L203.559,100.945 C203.559,101.52 203.092,101.986 202.517,101.986 Z" id="Stroke-632" stroke="#5E63B6" stroke-width="2" fill="#5E63B6"></path>
        <path d="M183.075,84 L192.601,84 C193.536,84 194.293,84.758 194.293,85.691 L194.293,105.82 C194.293,106.755 193.536,107.512 192.601,107.512 L183.075,107.512 C180.824,107.512 179,105.687 179,103.437 L179,88.075 C179,85.825 180.824,84 183.075,84 Z" id="Stroke-628" stroke="#5E63B6" stroke-width="2" fill="#5E63B6"></path>
        <path d="M222.517,154.987 L214,154.987 L214,152 L222.517,152 C223.092,152 223.559,152.466 223.559,153.042 L223.559,153.945 C223.559,154.521 223.092,154.987 222.517,154.987 Z" id="Stroke-630" stroke="#5E63B6" stroke-width="2" fill="#5E63B6"></path>
        <path d="M222.517,163.973 L214,163.973 L214,160.987 L222.517,160.987 C223.092,160.987 223.559,161.452 223.559,162.028 L223.559,162.932 C223.559,163.507 223.092,163.973 222.517,163.973 Z" id="Stroke-632" stroke="#5E63B6" stroke-width="2" fill="#5E63B6"></path>
        <path d="M206.664618,146 L212.893611,146 C213.505002,146 214,146.758 214,147.691 L214,167.82 C214,168.755 213.505002,169.512 212.893611,169.512 L206.664618,169.512 C205.192703,169.512 204,167.687 204,165.437 L204,150.075 C204,147.825 205.192703,146 206.664618,146 Z" id="Stroke-628" stroke="#5E63B6" stroke-width="2" fill="#5E63B6"></path>
    </g>
</svg>