<svg width="160" height="160" viewBox="0 0 260 260" xmlns="http://www.w3.org/2000/svg">
  <g fill="none" fill-rule="evenodd">
    <path d="M220 126v92.4c0 3.091-2.43 5.6-5.424 5.6H46.424C43.43 224 41 221.491 41 218.4V126h179z" stroke="#5563B6" stroke-width="4" fill="#FFF" fill-rule="nonzero"/>
    <path d="M210.598 82H49.402L37 94.438V127h186V94.438L210.598 82z" stroke="#5563B6" stroke-width="4" fill="#FFF" fill-rule="nonzero"/>
    <path stroke="#5563B6" stroke-width="4" stroke-linecap="square" d="M38 96l182.642-.5"/>
    <path fill="#9452BA" fill-rule="nonzero" d="M117 86h27v141h-27z"/>
    <path fill="#E1F2FF" fill-rule="nonzero" d="M43 129h174v5H43z"/>
    <path fill="#754093" fill-rule="nonzero" d="M117 86h27v8h-27z"/>
    <path d="M195.663 47.534C191.844 40.938 183.891 37 174.403 37c-21.599 0-36.908 19.629-44.429 32.018-7.532-12.376-22.836-31.892-44.387-31.892C71.92 37.126 62 45.317 62 56.432 62 76.14 84.349 89 129.272 89 174.196 89 198 72.47 198 56.593c-.008-3.156-.705-6.245-2.337-9.059zM85.981 67.907c-7.641-3.88-10.361-8.232-10.361-11.016 0-3.56 4.453-6.141 10.595-6.141 14.795 0 26.502 14.519 32.865 24.626-17.042-1.078-27.27-4.508-33.099-7.469zm97.355-7.704c-3.858 6.582-16.996 13.558-42.454 15.173 6.425-10.107 18.212-24.626 32.862-24.626 5.67 0 8.9 2.074 10.04 4.018.906 1.543.757 3.374-.448 5.435z" fill="#9452BA" fill-rule="nonzero"/>
    <path fill="#754093" fill-rule="nonzero" d="M117 129h27v5h-27z"/>
    <path d="M201.768 207.392c.345.3.568.53.644.604.006.014 0-.013 0 0 0 .002.002-.002.002-.002-8.398-4.505-14.114-1.076-20.604-1.885a2.283 2.283 0 00-.307-.067 4.609 4.609 0 01-.434-.085c-1.71-.425-3.313-1.853-4.75-3.897l-.022-.032c-.122-.168-.237-.344-.353-.52 0 0-.001-.005-.005-.006-.211-.325-.42-.67-.626-1.019-.02-.036-.044-.07-.065-.107-.053-.1-.108-.198-.164-.295l-.169-.3-.16-.306c-.057-.106-.11-.21-.166-.316-.038-.071-.075-.148-.114-.226-1.449-2.878-2.625-6.335-3.466-9.78 0 0-.02-.034 0 0 3.155 1.705 6.438 3.107 9.208 3.88 3.338.936 7.516 1.328 11.528 1.14 1.229-3.79 1.939-7.889 1.904-11.329-.033-2.877-.522-6.358-1.375-9.844.262.14.52.286.782.43l.23.134c.184.104.369.207.551.318.085.046.17.098.254.148a55.621 55.621 0 01.77.463c.228.143.456.285.68.43a.597.597 0 01.068.042c.263.164.521.335.779.506.02.011.039.027.06.04.232.154.457.308.685.464.048.03.092.066.139.095.207.143.41.29.616.435.038.03.076.06.117.088a42.092 42.092 0 01.702.515c.73.556 1.426 1.12 2.082 1.69.009.007.017.015.026.02 1.09.96 2.056 1.937 2.852 2.912.116.143.228.286.335.428.004.006.01.01.013.014v.003c.1.129.197.259.286.385l.002.004c.004.004.006.01.009.014.1.138.196.276.285.416l.035.056c.001.003.004.002.004.004.117.178.227.359.329.533a.92.92 0 00.048.087c.006.01.01.022.02.034.112.201.218.402.311.606.07.14.129.28.187.42l.067.177c.033.088.062.173.095.26.02.062.037.126.057.193.026.078.048.16.07.24.017.064.031.126.044.192.02.08.037.16.052.24l.03.188c.012.082.02.167.031.247.007.058.01.116.015.172.005.093.006.183.007.278 0 .042.002.09 0 .137 0 .14-.011.276-.027.41-.009.093-.014.173-.014.248-.88 6.442-5.696 11.088-3.546 20.28" fill="#9452BA"/>
  </g>
</svg>
