<svg xmlns="http://www.w3.org/2000/svg" width="256" height="256" xmlns:xlink="http://www.w3.org/1999/xlink">
  <defs>
    <path id="a" d="M43.88 35.1c-5.4 5-12.65 8.07-20.64 8.07C14.1 43.17 5.9 39.15.38 32.8V.38h43.5V35.1z"/>
    <path id="c" d="M44.9 35.12c-5.43 5.3-12.9 8.56-21.14 8.56C14.33 43.68 5.9 39.4.38 32.7V.38H44.9v34.74z"/>
    <path id="e" d="M1.06.48l-.64.2v-.2h.64z"/>
    <path id="g" d="M45.55 38.3c-5.77 6.8-14.32 11.1-23.87 11.1-8.33 0-15.9-3.3-21.54-8.64V.32h45.4V38.3z"/>
    <path id="i" d="M46.58 38.2C40.8 45.35 32.03 49.9 22.2 49.9c-8.6 0-16.38-3.47-22.06-9.12V.32h46.44V38.2z"/>
    <path id="k" d="M51.96 78.64c-2.65.42-5.36.64-8.13.64C25.5 79.28 9.43 69.7.37 55.3V1.28L.87.5h51.1v78.14z"/>
    <path id="m" d="M53 79.07c-2.82.47-5.7.72-8.65.72C25.67 79.8 9.33 69.84.37 55V2.6C.8 1.9 1.27 1.2 1.73.5H53v78.57z"/>
    <path id="o" d="M7 36h4v23H7z"/>
    <path id="p" d="M7 18h4v23H7z"/>
    <path id="q" d="M19.5 14.92c1.93 0 3.5-1.6 3.5-3.57 0-1.97-1.57-3.57-3.5-3.57"/>
    <path id="r" d="M5.43 6.5C2.43 6.5 0 8.94 0 12s2.43 5.5 5.43 5.5"/>
    <path id="s" d="M5.1 6.5h3.2V17.5H5.1z"/>
    <path id="t" d="M7.67 6.5L19.8 0v24L7.68 17.5z"/>
    <path id="u" d="M3 14h15c1.66 0 3 1.34 3 3v14c0 3.3-2.7 6-6 6H6c-3.3 0-6-2.7-6-6V17c0-1.66 1.34-3 3-3z"/>
    <path id="v" d="M20 16h1c2.76 0 5 2.24 5 5v5c0 2.76-2.24 5-5 5h-1V16z"/>
    <path id="w" d="M20 18h1c1.66 0 3 1.34 3 3v5c0 1.66-1.34 3-3 3h-1V18z"/>
    <path id="x" d="M3 22.5L6.05 20 9 22.5V29H3z"/>
  </defs>
  <g fill="none" fill-rule="evenodd">
    <path fill="#E1F2FF" d="M24 235.56C24 178.36 70.36 132 127.56 132s103.56 46.36 103.56 103.56H24z"/>
    <g transform="translate(63.517 114.6)">
      <mask id="b" fill="#fff">
        <use xlink:href="#a"/>
      </mask>
      <path fill="#9ACDED" d="M43.87 72.4c-3.03-6.07-7.53-23.66-5.22-35.35l1.82-9.26c.6-3.04.87-6.13.8-9.22-.05-1.3-.2-2.55-.5-3.75-.06-.3-.14-.6-.23-.9-.25-.9-.57-1.75-.95-2.58l-.4-.82c-.3-.53-.6-1.05-.92-1.56-.33-.5-.68-1-1.06-1.46-1.12-1.4-2.45-2.65-3.93-3.68-.5-.35-1.02-.67-1.54-.97C28.86 1.2 25.48.3 21.9.4l-3.1.07C13.58.6 8.92 2.8 5.58 6.27c-.4.42-.8.88-1.18 1.35-.68.85-1.28 1.77-1.8 2.73-.2.37-.38.73-.55 1.1l-.36.84c-.35.84-.62 1.7-.84 2.6-.2.9-.35 1.84-.42 2.78-.05.63-.07 1.27-.05 1.9.02 1.3.58 2.44 1.45 3.27.87.82 2.06 1.3 3.37 1.28l19.33-.48-2.5 16.65c-3 17.1-1.68 28.48 1.17 36 .64 1.68 21.03-3.14 20.65-3.9" mask="url(#b)"/>
    </g>
    <g transform="translate(63 114.088)">
      <mask id="d" fill="#fff">
        <use xlink:href="#c"/>
      </mask>
      <path fill="#375D81" d="M24.2 76.56c.47.2 3.08.2 9.97-1.25 4.88-1.02 8.55-2.07 9.58-2.52-3.07-6.5-7.38-23.73-5.1-35.32l1.83-9.25c.6-2.98.85-6.05.78-9.1-.03-1.23-.2-2.46-.47-3.65l-.24-.87c-.24-.85-.55-1.7-.93-2.5l-.38-.8c-.27-.52-.57-1.03-.9-1.52-.3-.5-.66-.97-1.02-1.42-1.1-1.38-2.38-2.6-3.82-3.6-.47-.33-.97-.65-1.48-.94-2.9-1.65-6.23-2.47-9.6-2.4l-3.1.1c-4.9.1-9.46 2.1-12.84 5.63-.4.4-.8.86-1.16 1.3-.65.83-1.23 1.73-1.75 2.67-.22.4-.4.75-.54 1.08l-.34.8c-.34.83-.6 1.7-.8 2.56-.22.88-.36 1.8-.43 2.7-.05.6-.06 1.23-.05 1.85.03 1.1.5 2.12 1.3 2.9.82.75 1.88 1.17 3 1.13l19.95-.5-2.6 17.25c-2.6 14.8-2.22 26.8 1.12 35.68m.78 1.1c-.25 0-.45 0-.62-.03-.23-.03-.9-.12-1.1-.64-3.44-9.05-3.84-21.26-1.2-36.28l2.4-16.04-18.7.47c-1.4.03-2.74-.47-3.75-1.42-1-.95-1.58-2.24-1.6-3.6-.03-.67 0-1.33.04-1.98.07-.95.22-1.9.44-2.84.2-.9.5-1.8.84-2.68l.37-.86c.15-.35.33-.7.56-1.14.54-1 1.16-1.94 1.85-2.8.4-.5.8-.96 1.23-1.4C9.3 2.72 14.13.6 19.3.47L22.4.4c3.57-.1 7.06.78 10.13 2.52.54.3 1.07.64 1.58 1 1.53 1.06 2.9 2.33 4.04 3.78.4.48.75 1 1.1 1.5.33.52.64 1.07.93 1.6.14.3.28.57.4.85.4.86.73 1.75 1 2.65l.23.92c.3 1.26.46 2.55.5 3.85.07 3.13-.2 6.27-.8 9.33l-1.83 9.25c-2.28 11.6 2.16 28.98 5.18 35.04.1.18.08.4-.05.58-.87 1.2-15.6 4.38-19.82 4.38" mask="url(#d)"/>
    </g>
    <path fill="#FFF" d="M72.36 117.86s.23-3.27 3.48-4.65c1-.4 3.68-.58 3.68-.58s.85 3.43-1.34 4.52c-3.14 1.55-5.82.72-5.82.72"/>
    <path fill="#375D81" d="M72.95 117.46c.84.15 2.8.3 5-.78 1.4-.7 1.28-2.65 1.15-3.5-.9.06-2.44.24-3.06.5-2.25.96-2.9 2.92-3.1 3.78m1.27 1.13c-1.17 0-1.93-.24-2-.26l-.38-.12.03-.4c0-.15.3-3.6 3.78-5.07 1.04-.45 3.57-.62 3.86-.64l.42-.02.1.42c.04.16.92 3.84-1.6 5.1-1.6.8-3.1 1-4.2 1"/>
    <path fill="#FFF" d="M80.63 116s-.02-4.46 5.02-5.23c.94-.14 2.16-.08 2.16-.08s2.5 4.6-.14 5.1c-3.27.65-7.03.2-7.03.2"/>
    <path fill="#375D81" d="M81.2 115.53c1.1.1 3.9.26 6.36-.22.44-.08.6-.3.67-.46.4-.8-.2-2.56-.74-3.65-.42-.02-1.16-.02-1.77.08-3.65.56-4.4 3.17-4.54 4.25m2.5 1.13c-1.73 0-3.04-.16-3.13-.17l-.45-.06V116c0-.06.04-4.9 5.45-5.73 1-.15 2.2-.1 2.26-.1l.3.02.13.25c.18.32 1.7 3.2.9 4.83-.25.55-.74.9-1.4 1.03-1.38.28-2.83.36-4.06.36"/>
    <path fill="#FFF" d="M90.22 116.07s.67-4.92 5.14-3.57c1.92.58 2.98 2.02 2.98 2.02s-.9 3.75-2.67 3.32c-3.1-.73-5.45-1.77-5.45-1.77"/>
    <path fill="#375D81" d="M90.8 115.76c.78.32 2.68 1.04 5 1.6.17.03.34 0 .5-.1.73-.44 1.26-1.87 1.47-2.62-.33-.38-1.22-1.25-2.56-1.65-1.1-.35-2.04-.28-2.77.18-1.04.66-1.47 1.94-1.62 2.58m5.14 2.63c-.13 0-.26-.03-.4-.06-3.12-.74-5.44-1.76-5.53-1.8l-.35-.16.06-.38c.02-.1.37-2.54 2.17-3.68 1-.63 2.23-.74 3.65-.3 2.05.6 3.2 2.13 3.24 2.2l.14.18-.06.23c-.06.28-.67 2.7-1.98 3.5-.3.17-.6.26-.92.26"/>
    <path fill="#E1F2FF" d="M73.97 116.98s.12-1.72 1.83-2.45c.53-.22 1.95-.3 1.95-.3s.45 1.8-.7 2.37c-1.67.83-3.08.38-3.08.38M82.58 115.15s0-2.45 2.77-2.88c.52-.08 1.2-.04 1.2-.04s1.38 2.54-.1 2.83c-1.8.35-3.87.1-3.87.1M91.98 115.7s.36-2.7 2.8-1.96c1.06.32 1.64 1.1 1.64 1.1s-.5 2.06-1.46 1.82c-1.7-.4-2.98-.97-2.98-.97"/>
    <path fill="#FFF" d="M103.92 142.76s-8.42 1.52-16.5-.24c-.68 4.37-1.1 7.66-1.1 7.66s5.67 3.63 15.9 1.2l1.7-8.62"/>
    <path fill="#375D81" d="M86.88 149.9c1.22.65 6.45 2.97 14.9 1.05.74-3.82 1.25-6.4 1.5-7.57-2.2.3-8.9 1.06-15.44-.25-.5 3.27-.85 5.88-.96 6.78m8.47 2.83c-5.9 0-9.13-2-9.3-2.12l-.28-.16.04-.32c0-.04.43-3.35 1.1-7.68l.08-.54.54.12c7.9 1.72 16.22.25 16.3.24l.76-.14-.15.74c0 .03-.63 3.06-1.7 8.6l-.05.33-.32.07c-2.64.63-4.98.86-7 .86"/>
    <path fill="#E1F2FF" d="M89.62 134.66l-9.67.24c-.12-4.8 3.73-8.8 8.6-8.93l.85-.02c2.43-.06 4.45 1.84 4.52 4.25.06 2.4-1.87 4.4-4.3 4.46"/>
    <path fill="#FFF" d="M88.76 134.52l-8.65.2c-.08-3.77 2.94-6.9 6.77-7l1.8-.05c1.9-.04 3.46 1.43 3.5 3.3.05 1.9-1.48 3.5-3.4 3.55"/>
    <path fill="#375D81" d="M88.75 128.18h-.07l-1.8.05c-1.7.04-3.3.74-4.5 1.97-1.05 1.1-1.66 2.5-1.74 4l8.1-.2c.8 0 1.55-.34 2.1-.9.55-.58.84-1.33.82-2.12-.02-.76-.34-1.48-.9-2-.55-.52-1.26-.8-2-.8zm-9.14 7.08v-.5c-.05-1.98.67-3.84 2.04-5.27 1.37-1.43 3.22-2.24 5.2-2.3l1.8-.04c1.07 0 2.07.36 2.83 1.07.76.72 1.2 1.7 1.22 2.73.02 1.06-.37 2.07-1.1 2.84-.75.77-1.75 1.2-2.83 1.23l-9.16.23z"/>
    <path fill="#375D81" d="M82.25 130.74c.03 1.05.92 1.9 1.98 1.86 1.07-.02 1.92-.9 1.9-1.96-.04-1.05-.92-1.9-2-1.86-1.06.03-1.9.9-1.88 1.96M68.35 137.18c.55-.13 1.03-.45 1.37-.9l.63-.8-1.44.33-.83.2c-.33.1-.53.4-.45.74.08.32.4.52.73.44"/>
    <path fill="#E1F2FF" d="M90.45 144.05s6.43 1.63 12.05.38c-.96 4.17-1.5 5.5-1.5 5.5s-8.48-.92-10.55-5.88"/>
    <path fill="#9ACDED" d="M96.4 146.92c-3.9 0-6.48-.6-6.63-.64-.28-.07-.45-.34-.38-.62.06-.27.33-.44.6-.37.06 0 5.08 1.17 11.7.22.28-.04.54.15.6.43.03.28-.17.54-.45.58-2 .3-3.83.4-5.44.4"/>
    <path fill="#E1F2FF" d="M97.54 178.4c-.83 0-1.5-.64-1.53-1.46 0-.14.1-.26.26-.27.14 0 .26.1.26.25.02.55.47.98 1.02.98h.03c.27 0 .52-.1.7-.3.2-.2.3-.46.3-.73-.02-.14.1-.26.24-.26h.02c.14 0 .25.12.26.26.02.84-.66 1.53-1.5 1.55h-.04"/>
    <path fill="#E1F2FF" d="M100.1 178.35c-.84 0-1.52-.65-1.54-1.48 0-.14.1-.26.25-.26h.02c.14 0 .25.12.25.26.02.55.5 1.02 1.05.98.27 0 .52-.12.7-.3.2-.2.3-.46.3-.73 0-.13.1-.25.24-.25.15 0 .26.1.27.25 0 .4-.14.8-.43 1.08-.28.3-.66.46-1.07.47h-.04"/>
    <path fill="#E1F2FF" d="M98.85 179.64c-.83 0-1.52-.65-1.54-1.47 0-.15.12-.26.27-.27.14 0 .26.1.26.25 0 .55.47.98 1.02.98h.02c.28 0 .53-.12.72-.3.17-.2.27-.46.27-.73 0-.14.1-.26.25-.26.14 0 .26.1.26.25.02.82-.65 1.52-1.5 1.54h-.03M98.37 138.32c-.9 0-1.64-.7-1.66-1.6 0-.14.12-.26.26-.26.15 0 .26.1.27.25 0 .63.55 1.14 1.17 1.1.63 0 1.13-.53 1.1-1.15 0-.14.12-.26.26-.26.15 0 .27.1.27.24.02.9-.7 1.66-1.62 1.68h-.03"/>
    <path fill="#E1F2FF" d="M99.8 139.67c-.42 0-.83-.16-1.14-.45-.32-.3-.5-.7-.5-1.15-.02-.14.1-.26.24-.26.14 0 .26.12.26.26 0 .3.14.58.36.8.22.2.5.3.82.3.3 0 .6-.13.8-.35.2-.2.32-.5.3-.8 0-.14.12-.26.26-.26.15 0 .26.1.27.25 0 .43-.15.84-.46 1.16-.3.32-.7.5-1.15.5h-.04"/>
    <g transform="translate(94.552 155.985)">
      <mask id="f" fill="#fff">
        <use xlink:href="#e"/>
      </mask>
      <path fill="#E1F2FF" d="M1.85 2.2c-.37 0-.72-.15-1-.4C.6 1.53.44 1.18.43.8c0-.14.1-.26.25-.26.16 0 .26.1.27.25 0 .23.1.46.28.62.18.17.42.27.66.25.5 0 .9-.43.9-.93 0-.14.1-.25.24-.26.15 0 .27.1.27.25 0 .78-.62 1.44-1.4 1.45h-.05" mask="url(#f)"/>
    </g>
    <path fill="#E1F2FF" d="M68 132.16c-.28 0-.56-.1-.77-.3-.22-.22-.35-.5-.36-.8 0-.14.1-.26.25-.26s.26.1.27.25c0 .16.06.3.18.43.12.1.28.16.45.17.16 0 .32-.07.43-.2.12-.1.18-.27.18-.43 0-.15.1-.26.25-.27.13 0 .25.1.25.25 0 .3-.1.6-.3.8-.22.23-.5.35-.8.36H68"/>
    <g>
      <g transform="translate(130.51 106.172)">
        <mask id="h" fill="#fff">
          <use xlink:href="#g"/>
        </mask>
        <path fill="#9ACDED" d="M.14 77.4C3.3 70.9 8 52.07 5.6 39.56l-1.9-9.9c-.63-3.25-.9-6.56-.83-9.87.04-1.4.2-2.73.5-4.02l.25-.96c.27-.95.6-1.88 1-2.76l.4-.88c.3-.57.62-1.13.97-1.67.33-.53.7-1.05 1.1-1.56C8.25 6.44 9.64 5.1 11.2 4c.5-.38 1.04-.72 1.6-1.04C15.8 1.2 19.34.23 23.1.33L26.3.4c5.45.15 10.32 2.5 13.8 6.2.44.47.85.96 1.24 1.46.7.92 1.33 1.9 1.88 2.93.2.38.4.77.58 1.17l.37.9c.34.9.63 1.84.85 2.8.22.96.37 1.95.45 2.96.05.67.07 1.36.05 2.05-.04 1.37-.62 2.6-1.53 3.48-.9.88-2.15 1.4-3.5 1.37l-20.2-.52 2.6 17.83c3.15 18.32 1.77 30.48-1.2 38.54C21.03 83.37-.26 78.2.13 77.4" mask="url(#h)"/>
      </g>
      <g transform="translate(130 105.655)">
        <mask id="j" fill="#fff">
          <use xlink:href="#i"/>
        </mask>
        <path fill="#375D81" d="M1.28 77.8c2.48 1.25 18.88 4.93 20.5 4.03 3.48-9.5 3.87-22.34 1.16-38.2l-2.7-18.43 20.8.53c1.17.03 2.3-.4 3.14-1.23.85-.82 1.34-1.93 1.37-3.12 0-.67 0-1.34-.05-2-.07-.96-.22-1.93-.44-2.88-.2-.92-.5-1.84-.83-2.73l-.37-.87c-.15-.35-.33-.7-.56-1.15-.54-1.02-1.15-1.98-1.83-2.85-.38-.5-.78-.97-1.2-1.42-3.54-3.76-8.32-5.9-13.45-6.04l-3.23-.08c-3.54-.1-7 .8-10.04 2.56-.53.3-1.06.65-1.56 1-1.5 1.1-2.85 2.4-4 3.86-.38.5-.74 1-1.07 1.53-.34.53-.65 1.08-.93 1.64-.14.28-.28.56-.4.85-.4.85-.72 1.76-.98 2.67-.1.3-.16.63-.24.94-.3 1.28-.45 2.6-.48 3.92-.08 3.26.2 6.55.8 9.75l1.9 9.9C9 52.4 4.5 70.87 1.3 77.8m19.64 5.17c-4.4 0-19.76-3.4-20.67-4.68-.13-.2-.15-.42-.05-.6C3.36 71.2 8 52.6 5.6 40.16l-1.9-9.9c-.63-3.28-.9-6.64-.83-9.98.04-1.4.2-2.78.52-4.12.06-.34.15-.66.24-1 .27-.96.6-1.9 1.02-2.82l.43-.9c.3-.58.6-1.16.97-1.7.35-.56.73-1.1 1.13-1.62 1.2-1.55 2.62-2.9 4.2-4.05.54-.4 1.1-.75 1.65-1.08C16.25 1.16 19.9.24 23.6.32l3.25.1C32.25.54 37.28 2.8 41 6.76c.45.48.88.98 1.27 1.5.72.9 1.37 1.92 1.93 3 .24.45.43.84.6 1.2.13.3.26.6.38.92.36.93.66 1.9.88 2.87.23 1 .38 2.02.46 3.04.05.7.07 1.4.05 2.1-.04 1.47-.64 2.84-1.7 3.85-1.04 1-2.42 1.54-3.86 1.5l-19.58-.5 2.53 17.23c2.75 16.05 2.33 29.1-1.25 38.8-.2.53-.9.62-1.13.65-.18.03-.4.04-.65.04" mask="url(#j)"/>
      </g>
      <path fill="#FFF" d="M167.23 109.57s-.24-3.5-3.63-4.97c-1.03-.45-3.85-.64-3.85-.64s-.88 3.68 1.4 4.84c3.28 1.66 6.08.77 6.08.77"/>
      <path fill="#375D81" d="M160.17 104.52c-.13.92-.26 3.06 1.2 3.8 2.34 1.2 4.42 1 5.3.85-.2-.92-.87-3.05-3.27-4.1-.66-.28-2.28-.47-3.23-.55m5.13 5.8c-1.16 0-2.7-.2-4.38-1.06-2.6-1.33-1.7-5.25-1.66-5.42l.1-.42.43.03c.28.02 2.92.2 4 .67 3.64 1.58 3.93 5.26 3.94 5.4l.03.42-.4.12c-.05.02-.85.27-2.07.27"/>
      <path fill="#FFF" d="M158.6 107.57s0-4.76-5.25-5.6c-.98-.14-2.25-.07-2.25-.07s-2.6 4.93.16 5.48c3.4.68 7.33.2 7.33.2"/>
      <path fill="#375D81" d="M151.42 102.4c-.57 1.17-1.2 3.07-.8 3.95.1.18.26.43.74.52 2.6.52 5.54.33 6.68.23-.14-1.14-.9-4-4.77-4.6-.64-.1-1.43-.1-1.85-.1m3.97 5.86c-1.3 0-2.8-.1-4.24-.37-.68-.15-1.18-.53-1.45-1.1-.8-1.74.77-4.8.95-5.15l.14-.25.28-.02c.05 0 1.33-.07 2.35.1 5.63.88 5.67 6.04 5.67 6.1v.44l-.45.06c-.1 0-1.45.18-3.26.18"/>
      <path fill="#FFF" d="M148.58 107.66s-.7-5.27-5.37-3.82c-2 .62-3.1 2.15-3.1 2.15s.94 4 2.8 3.55c3.24-.78 5.68-1.9 5.68-1.9"/>
      <path fill="#375D81" d="M140.66 106.12c.22.8.78 2.35 1.54 2.83.2.12.38.15.58.1 2.44-.6 4.43-1.37 5.22-1.7-.16-.7-.6-2.1-1.7-2.8-.8-.5-1.77-.58-2.94-.22-1.4.44-2.35 1.4-2.7 1.8m1.95 3.98c-.32 0-.63-.1-.93-.27-1.36-.85-2-3.43-2.06-3.72l-.05-.22.14-.2c.04-.06 1.22-1.68 3.36-2.34 1.47-.46 2.74-.35 3.78.33 1.87 1.2 2.24 3.8 2.25 3.92l.04.37-.35.16c-.1.04-2.53 1.14-5.8 1.93-.12.03-.26.05-.4.05"/>
      <path fill="#E1F2FF" d="M165.55 108.63s-.13-1.84-1.92-2.62c-.54-.23-2.03-.33-2.03-.33s-.47 1.94.74 2.56c1.73.88 3.2.4 3.2.4M156.56 106.68s0-2.63-2.9-3.1c-.54-.07-1.24-.04-1.24-.04s-1.44 2.73.1 3.03c1.87.38 4.04.1 4.04.1M146.75 107.25s-.38-2.88-2.94-2.1c-1.1.35-1.7 1.2-1.7 1.2s.52 2.2 1.53 1.94c1.78-.44 3.12-1.05 3.12-1.05"/>
      <path fill="#FFF" d="M134.28 136.22s8.8 1.63 17.23-.26c.72 4.68 1.16 8.2 1.16 8.2s-5.93 3.9-16.62 1.27c-1.12-6-1.76-9.2-1.76-9.2"/>
      <path fill="#375D81" d="M136.48 145c8.9 2.1 14.38-.44 15.63-1.1-.12-.96-.48-3.78-1-7.32-6.88 1.42-13.93.6-16.18.27.24 1.23.78 4 1.56 8.16m6.75 1.86c-2.12 0-4.56-.25-7.3-.92l-.33-.08-.06-.33c-1.1-5.94-1.76-9.17-1.76-9.2l-.15-.75.74.13c.1.03 8.8 1.6 17.03-.24l.54-.12.08.54c.7 4.63 1.14 8.18 1.14 8.22l.04.32-.27.18c-.18.12-3.55 2.26-9.7 2.26"/>
      <path fill="#E1F2FF" d="M149.2 127.55l10.1.26c.13-5.14-3.88-9.42-8.97-9.55l-.9-.02c-2.53-.06-4.64 1.97-4.7 4.55-.07 2.57 1.94 4.7 4.48 4.77"/>
      <path fill="#FFF" d="M150.1 127.4l9.04.23c.1-4.04-3.06-7.4-7.05-7.5l-1.9-.06c-1.97-.05-3.6 1.53-3.66 3.53-.05 2.05 1.55 3.75 3.57 3.8"/>
      <path fill="#375D81" d="M150.12 126.88l8.5.22c-.08-1.63-.72-3.15-1.84-4.35-1.24-1.3-2.9-2.06-4.7-2.1l-1.9-.06c-1.67-.05-3.1 1.3-3.13 3.02-.02.85.3 1.66.87 2.27.58.6 1.36.96 2.2.98zm9.5 1.28l-9.53-.24c-2.3-.06-4.13-2-4.07-4.33.06-2.26 1.88-4.04 4.08-4.04h.12l1.88.05c2.07.06 4 .92 5.42 2.44s2.18 3.5 2.13 5.6l-.02.52z"/>
      <path fill="#375D81" d="M156.9 123.36c-.03 1.13-.95 2.02-2.07 2-1.1-.04-2-.98-1.97-2.1.03-1.14.96-2.03 2.07-2 1.12.03 2 .97 1.97 2.1M171.42 130.25c-.57-.14-1.08-.48-1.43-.95l-.67-.88 1.5.36.88.22c.35.08.56.43.48.77-.08.35-.42.56-.76.48"/>
      <path fill="#E1F2FF" d="M148.34 137.6s-6.72 1.75-12.58.4c1 4.47 1.56 5.88 1.56 5.88s8.86-.97 11.02-6.28"/>
      <path fill="#9ACDED" d="M142.12 140.64c-1.68 0-3.6-.1-5.68-.4-.27-.05-.47-.3-.43-.6.05-.28.3-.48.6-.43 6.9 1.02 12.15-.23 12.2-.25.28-.06.56.1.62.4.07.26-.1.54-.37.6-.16.05-2.85.7-6.93.7"/>
      <path fill="#E1F2FF" d="M140.94 174.36h-.04c-.88-.02-1.57-.76-1.55-1.65 0-.13.12-.24.26-.24.15 0 .26.13.26.27 0 .3.1.57.3.78.2.22.46.34.75.35.3 0 .57-.1.78-.3.2-.2.33-.48.34-.77 0-.14.1-.25.25-.25s.26.12.26.27c0 .43-.2.82-.5 1.12-.3.3-.68.44-1.1.44"/>
      <path fill="#E1F2FF" d="M138.27 174.3h-.04c-.42-.02-.82-.2-1.1-.5-.3-.32-.45-.72-.44-1.15 0-.14.1-.26.24-.26.15 0 .26.12.26.26 0 .3.1.57.3.78.2.2.46.33.75.34.28 0 .56-.1.77-.3.2-.2.32-.47.33-.76 0-.15.12-.26.26-.26.15 0 .26.13.26.27 0 .43-.18.83-.5 1.12-.3.3-.68.45-1.1.45"/>
      <path fill="#E1F2FF" d="M139.57 175.68h-.04c-.42 0-.82-.2-1.1-.5-.3-.3-.46-.72-.44-1.15 0-.14.1-.25.24-.25.15 0 .26.12.26.26 0 .3.1.57.3.78.2.2.46.33.75.34.3.02.56-.1.76-.3.22-.2.34-.47.35-.76 0-.14.12-.25.25-.25.15 0 .26.12.26.26 0 .44-.2.84-.5 1.14-.3.28-.68.44-1.1.44M140.07 131.45h-.04c-.95-.02-1.7-.82-1.68-1.78 0-.14.1-.26.27-.25.14 0 .25.12.24.26 0 .68.52 1.24 1.18 1.26.32.02.63-.12.87-.34.24-.23.37-.53.38-.86 0-.14.1-.26.26-.25.14 0 .26.1.25.26-.02.46-.2.9-.54 1.2-.32.32-.74.5-1.2.5"/>
      <path fill="#E1F2FF" d="M138.57 132.9h-.04c-.46 0-.9-.2-1.2-.54-.32-.34-.5-.78-.48-1.25 0-.13.13-.23.26-.24.16 0 .27.12.26.27 0 .32.1.63.34.87.22.24.52.37.84.38h.03c.65 0 1.2-.53 1.2-1.2 0-.13.15-.24.27-.24.14 0 .25.12.25.26-.03.95-.8 1.7-1.73 1.7M142.12 152.7h-.03c-.83-.02-1.48-.7-1.46-1.54 0-.14.12-.25.25-.25.14 0 .25.13.25.27 0 .54.4 1 .95 1 .52.05.98-.4 1-.95 0-.14.1-.25.25-.25s.26.12.26.26c0 .82-.68 1.47-1.48 1.47M171.77 124.86h-.03c-.65-.02-1.16-.57-1.15-1.22 0-.14.13-.26.26-.25.14 0 .25.1.24.25 0 .37.3.68.65.7.17 0 .35-.07.48-.2.13-.12.2-.28.2-.46 0-.16.12-.25.27-.27.14 0 .25.13.25.27 0 .32-.14.6-.37.83-.22.2-.5.33-.8.33"/>
    </g>
    <g>
      <g transform="translate(84.515 79.633)">
        <mask id="l" fill="#fff">
          <use xlink:href="#k"/>
        </mask>
        <path fill="#9ACDED" d="M51.96 86.55c-3.6-7.25-8.93-28.28-6.2-42.25l2.17-11.05c.7-3.63 1.02-7.32.93-11.02-.04-1.54-.24-3.04-.57-4.48l-.3-1.07c-.3-1.06-.67-2.1-1.12-3.08-.15-.33-.3-.66-.48-.98-.33-.64-.7-1.26-1.08-1.87-.4-.6-.8-1.18-1.25-1.74-1.34-1.68-2.9-3.17-4.66-4.4-.58-.42-1.2-.8-1.8-1.16C34.14 1.47 30.13.4 25.9.5L22.2.6C16.02.74 10.5 3.37 6.54 7.5c-.5.5-.96 1.05-1.4 1.62-.8 1.02-1.52 2.1-2.14 3.26l-.66 1.32c-.15.33-.3.67-.42 1-.4 1-.73 2.06-.98 3.14-.25 1.07-.42 2.18-.5 3.3-.06.75-.08 1.5-.06 2.28.04 1.54.7 2.9 1.73 3.9 1.05.97 2.46 1.56 4 1.52l22.94-.57-2.97 19.88c-3.56 20.46-2 34.03 1.4 43.03.75 2 24.93-3.75 24.5-4.65" mask="url(#l)"/>
      </g>
      <g transform="translate(84 79.12)">
        <mask id="n" fill="#fff">
          <use xlink:href="#m"/>
        </mask>
        <path fill="#375D81" d="M28.44 91.5c1.64 1.03 20.76-3.17 23.4-4.55-3.63-7.65-8.8-28.35-6.07-42.24l2.17-11.04c.7-3.58 1-7.25.92-10.9-.04-1.48-.23-2.95-.56-4.38l-.27-1.05c-.3-1.02-.67-2.04-1.1-3-.15-.33-.3-.65-.47-.96-.32-.63-.68-1.24-1.06-1.83-.38-.58-.8-1.16-1.22-1.7-1.3-1.65-2.84-3.1-4.56-4.32-.57-.4-1.17-.78-1.77-1.13C34.38 2.4 30.42 1.4 26.42 1.5l-3.67.1c-5.85.14-11.3 2.54-15.32 6.76-.48.5-.94 1.04-1.37 1.58-.78 1-1.48 2.06-2.1 3.2-.25.48-.45.9-.63 1.3-.15.3-.3.63-.42.96-.38 1-.7 2.02-.94 3.06-.25 1.06-.4 2.15-.5 3.23-.05.75-.07 1.5-.05 2.24.04 1.35.6 2.6 1.58 3.53 1 .93 2.26 1.42 3.63 1.4l23.55-.6-3.06 20.5C24 66.5 24.45 80.87 28.43 91.5m1.22 1.15c-.35 0-.67 0-.93-.05-.44-.06-1.05-.2-1.24-.7-4.07-10.8-4.55-25.36-1.42-43.3l2.87-19.27-22.32.56c-1.64 0-3.17-.57-4.36-1.68C1.1 27.1.42 25.6.37 23.97c0-.78 0-1.56.07-2.33.1-1.14.26-2.28.52-3.4.25-1.08.6-2.15 1-3.2.13-.34.28-.68.43-1 .18-.43.4-.86.66-1.36.64-1.2 1.38-2.32 2.2-3.35.44-.57.92-1.12 1.42-1.65C10.9 3.26 16.6.75 22.72.58L26.4.5c4.2-.1 8.33.93 11.96 3 .64.37 1.26.77 1.86 1.2 1.8 1.26 3.4 2.78 4.77 4.5.44.57.87 1.18 1.27 1.8.4.6.77 1.25 1.1 1.9l.5 1c.45 1.02.84 2.08 1.15 3.15.1.36.2.73.28 1.1.35 1.5.55 3.04.58 4.58.1 3.73-.22 7.47-.93 11.13L46.78 44.9c-2.72 13.9 2.56 34.68 6.15 41.94.1.2.08.42-.06.6-.7.97-9.14 2.9-10.83 3.27-2.18.5-9.02 1.95-12.38 1.95" mask="url(#n)"/>
      </g>
      <path fill="#FFF" d="M94.92 83.56s.28-3.9 4.13-5.55c1.17-.5 4.37-.7 4.37-.7s1 4.1-1.6 5.4c-3.72 1.86-6.9.86-6.9.86"/>
      <path fill="#375D81" d="M95.5 83.17c.95.18 3.38.43 6.1-.93 1.75-.87 1.55-3.38 1.4-4.4-1.08.1-2.98.3-3.75.64-2.8 1.2-3.55 3.7-3.75 4.7m1.62 1.16c-1.38 0-2.28-.27-2.35-.3l-.4-.1.04-.42c.02-.17.35-4.23 4.44-5.98 1.24-.53 4.4-.74 4.54-.75l.44-.04.1.42c.04.2 1.07 4.52-1.86 5.98-1.88.94-3.63 1.18-4.94 1.18"/>
      <path fill="#FFF" d="M104.74 81.32s-.03-5.3 5.95-6.23c1.1-.18 2.54-.1 2.54-.1s2.97 5.5-.17 6.12c-3.88.76-8.33.2-8.33.2"/>
      <path fill="#375D81" d="M105.28 80.87c1.25.1 4.67.34 7.7-.26.42-.07.7-.27.86-.6.54-1.13-.38-3.43-.9-4.5-.48 0-1.4-.02-2.17.1-4.5.7-5.34 4.03-5.5 5.27m3.1 1.16c-2.04 0-3.6-.18-3.7-.2l-.45-.05v-.45c0-.06.05-5.76 6.4-6.74 1.15-.2 2.6-.12 2.65-.12l.3.02.13.25c.2.38 1.98 3.78 1.07 5.7-.3.6-.85 1.02-1.6 1.17-1.63.32-3.34.4-4.8.4"/>
      <path fill="#FFF" d="M116.1 81.43s.8-5.9 6.1-4.27c2.28.7 3.54 2.4 3.54 2.4s-1.06 4.5-3.17 4c-3.7-.9-6.46-2.13-6.46-2.13"/>
      <path fill="#375D81" d="M116.7 81.12c.86.36 3.16 1.25 6 1.93.23.06.45.02.7-.13.88-.55 1.53-2.33 1.78-3.23-.38-.44-1.47-1.55-3.12-2.05-1.35-.4-2.5-.33-3.4.24-1.3.82-1.8 2.47-1.97 3.22m6.2 2.98c-.15 0-.3-.02-.45-.06-3.7-.88-6.44-2.1-6.56-2.15l-.36-.16.06-.38c0-.12.42-3 2.52-4.33 1.16-.74 2.6-.86 4.24-.36 2.4.73 3.74 2.52 3.8 2.6l.13.2-.06.22c-.08.3-.8 3.16-2.3 4.1-.34.2-.7.3-1.04.3"/>
      <path fill="#E1F2FF" d="M96.83 82.52s.14-2.07 2.18-2.94c.63-.26 2.32-.37 2.32-.37s.53 2.18-.84 2.86c-1.97 1-3.65.46-3.65.46M107.04 80.33s0-2.93 3.3-3.44c.6-.1 1.4-.07 1.4-.07s1.65 3.04-.1 3.4c-2.13.4-4.6.1-4.6.1M118.2 80.97s.43-3.2 3.33-2.33c1.24.38 1.93 1.32 1.93 1.32s-.58 2.45-1.73 2.17c-2.02-.48-3.54-1.16-3.54-1.16"/>
      <path fill="#FFF" d="M132.36 113.32s-10 1.82-19.58-.3c-.8 5.23-1.3 9.16-1.3 9.16s6.73 4.34 18.88 1.43c1.27-6.7 2-10.28 2-10.28"/>
      <path fill="#375D81" d="M112.03 121.9c1.36.74 7.65 3.65 17.88 1.28l1.8-9.24c-2.44.36-10.58 1.32-18.5-.3-.6 4.04-1.03 7.25-1.17 8.27m10.16 3.23c-7 0-10.8-2.38-11-2.52l-.27-.16.04-.32c0-.04.5-4 1.3-9.17l.08-.54.54.13c9.36 2.06 19.26.3 19.36.28l.75-.12-.14.74c0 .04-.74 3.65-2 10.28l-.06.33-.32.07c-3.13.75-5.9 1.03-8.3 1.03"/>
      <path fill="#E1F2FF" d="M116 103.63l-12.08.3-.03-1.18c-.13-5.1 3.9-9.33 9.04-9.46l2.78-.08c2.56-.07 4.7 1.95 4.76 4.5l.03 1.18c.07 2.54-1.95 4.66-4.5 4.73"/>
      <path fill="#FFF" d="M114.38 103.47l-10.26.26c-.12-4.52 3.47-8.27 8-8.38l2.14-.06c2.24-.06 4.1 1.7 4.17 3.94.05 2.28-1.76 4.17-4.05 4.23"/>
      <path fill="#375D81" d="M114.36 95.8h-.1l-2.12.06c-2.06.05-3.97.9-5.4 2.38-1.3 1.36-2.03 3.1-2.1 4.96l9.73-.24c2-.05 3.6-1.72 3.54-3.7-.04-1.93-1.62-3.46-3.54-3.46zm-10.74 8.45l-.02-.5c-.06-2.33.8-4.54 2.4-6.22 1.6-1.68 3.78-2.64 6.1-2.7l2.15-.05c2.52-.07 4.63 1.93 4.7 4.44.06 2.56-2 4.7-4.56 4.76l-10.78.27z"/>
      <path fill="#375D81" d="M106.65 98.95c.04 1.27 1.1 2.26 2.36 2.23 1.27-.03 2.28-1.08 2.24-2.34-.03-1.26-1.08-2.26-2.35-2.23-1.28.04-2.28 1.1-2.25 2.35M90.17 106.65c.65-.16 1.22-.53 1.62-1.06l.74-1-1.7.4-1 .25c-.4.1-.63.48-.54.87.1.38.48.62.87.53"/>
      <path fill="#E1F2FF" d="M116.38 114.85s7.63 1.96 14.3.46c-1.15 5-1.78 6.57-1.78 6.57s-10.07-1.08-12.52-7.02"/>
      <path fill="#9ACDED" d="M123.45 118.2c-4.63 0-7.68-.73-7.85-.77-.28-.07-.45-.34-.38-.62.06-.26.34-.43.62-.37.06.02 6.02 1.42 13.9.3.28-.06.54.14.58.42.04.28-.15.54-.43.58-2.37.34-4.54.46-6.45.46"/>
      <path fill="#E1F2FF" d="M124.8 155.87c-.97 0-1.76-.76-1.78-1.72 0-.14.1-.26.25-.26s.26.1.26.24c.02.7.6 1.25 1.3 1.22.68-.02 1.23-.6 1.22-1.28 0-.14.1-.26.25-.26.14 0 .26.1.26.25.02.97-.75 1.78-1.73 1.8h-.04"/>
      <path fill="#E1F2FF" d="M127.82 155.8c-.46 0-.9-.18-1.22-.5-.35-.3-.54-.75-.55-1.22 0-.14.1-.26.25-.26.14 0 .26.1.26.24 0 .34.15.65.4.88.23.23.56.36.9.34.68 0 1.23-.6 1.2-1.28 0-.14.12-.26.26-.26.15 0 .26.1.27.25 0 .96-.76 1.77-1.74 1.8h-.04"/>
      <path fill="#E1F2FF" d="M126.34 157.34c-.96 0-1.75-.76-1.77-1.72 0-.14.1-.26.25-.26s.26.1.27.25c0 .34.13.65.38.88.24.23.56.36.9.35.7-.02 1.24-.6 1.22-1.28 0-.15.1-.26.25-.27.14 0 .26.1.26.25.02.47-.15.92-.47 1.26-.33.33-.77.53-1.24.54h-.06M125.77 107.96c-1.03 0-1.9-.82-1.92-1.86 0-.14.1-.26.25-.26s.26.1.27.25c0 .36.16.7.43.97.28.25.64.4 1 .38.38 0 .73-.16 1-.43.25-.28.4-.63.38-1 0-.14.1-.26.25-.27.13 0 .26.1.26.25 0 .5-.18 1-.53 1.37-.36.37-.83.58-1.35.6h-.05"/>
      <path fill="#E1F2FF" d="M127.48 109.58c-1.04 0-1.9-.83-1.92-1.87 0-.13.1-.25.25-.25h.02c.13 0 .25.1.25.25.02.77.68 1.4 1.44 1.36.4 0 .74-.16 1-.43s.4-.63.38-1c0-.14.1-.26.25-.26s.27.1.27.25c.03 1.05-.8 1.93-1.87 1.96h-.05M123.44 131.68c-.9 0-1.63-.7-1.65-1.6 0-.14.1-.26.24-.26.16 0 .26.1.27.25.02.62.54 1.14 1.17 1.1.63-.02 1.13-.54 1.1-1.16 0-.13.12-.25.26-.25.16 0 .26.1.27.25 0 .44-.15.85-.46 1.17-.3.32-.7.5-1.15.5h-.06M89.76 100.6c-.7 0-1.28-.56-1.3-1.26 0-.15.1-.26.25-.27.17 0 .27.1.28.25 0 .44.38.78.8.77.44-.02.8-.38.77-.82 0-.14.1-.26.26-.26.16.02.27.1.27.25.02.72-.55 1.3-1.27 1.33h-.04"/>
    </g>
    <g transform="translate(27 154)">
      <g transform="rotate(-27 9 47.5)">
        <use fill="#FFF" xlink:href="#o"/>
        <path stroke="#415263" d="M7.5 36.5h3v22h-3z"/>
      </g>
      <g transform="rotate(36 9 29.5)">
        <use fill="#FFF" xlink:href="#p"/>
        <path stroke="#415263" d="M7.5 18.5h3v22h-3z"/>
      </g>
      <g transform="rotate(-13 28.165 -17.22)">
        <use fill="#F8B43F" xlink:href="#q"/>
        <path stroke="#415263" d="M20 14.38c1.4-.25 2.5-1.5 2.5-3.03 0-1.52-1.1-2.78-2.5-3.02v6.05z"/>
      </g>
      <g transform="rotate(-13 28.165 -17.22)">
        <use fill="#FFF" xlink:href="#r"/>
        <path stroke="#415263" d="M4.93 7C2.43 7.28.5 9.4.5 12s1.94 4.73 4.43 5V7z"/>
      </g>
      <g transform="rotate(-13 28.165 -17.22)">
        <use fill="#FFF" xlink:href="#s"/>
        <path stroke="#415263" d="M5.6 7h2.2V17H5.6z"/>
      </g>
      <g transform="rotate(-13 28.165 -17.22)">
        <use fill="#FFF" xlink:href="#t"/>
        <path stroke="#415263" d="M8.17 6.8v10.4l11.14 5.97V.83L8.18 6.8z"/>
      </g>
      <path fill="#FFF" stroke="#415263" d="M28 66c0-5.52-5.82-10-13-10S2 60.48 2 66"/>
      <circle cx="3.5" cy="37.5" r="3.5" fill="#FFF" stroke="#415263"/>
      <circle cx="3.5" cy="37.5" r="1.5" fill="#FFF" stroke="#415263"/>
    </g>
    <g>
      <path fill="#FFF" stroke="#4A6286" d="M77.95 218.25c-3.28 0-5.95-2.43-5.95-5.43v-55.4c0-3 2.67-5.42 5.95-5.42h88.1c3.3 0 5.95 2.43 5.95 5.43v55.4c0 3-2.66 5.42-5.95 5.42h-88.1z"/>
      <path fill="#EFEFF6" d="M78.55 154.58c-2.14 0-3.88 1.75-3.88 3.9v53.95c0 2.16 1.74 3.9 3.88 3.9h13.43c2.74-32.4 24.96-52.9 54.7-61.75H78.54z"/>
      <path fill="#9452BA" d="M130.9 186.54l.05-.16c0-.07.04-.14.04-.2.17-.88-.13-1.94-.77-3.04l-.18-.3-.35-.5c0-.03-.02-.04-.04-.07l-.1-.13-.1-.15c-.03-.06-.07-.1-.1-.14l-.1-.15c-.04-.02-.07-.07-.1-.1-1-1.3-2.34-2.58-3.75-3.72.1 1.8.05 3.63-.2 5.05-.3 1.73-1.03 3.73-1.98 5.52-2.02-.27-4.05-.84-5.64-1.6-1.32-.66-2.82-1.65-4.24-2.8l.03.45.02.14v.32l.02.14.04.32v.14c.03.13.04.27.06.4l.07.52c0 .17.03.3.05.43l.02.1.06.38.02.07.08.43c.1.45.2.9.32 1.3.2.73.45 1.4.73 1.96l.12.25c.05.08.07.16.12.23.04.1.08.16.12.23l.2.3.03.06c.07.1.14.2.22.28l.14.18.07.07c.04.03.1.06.1.1l.1.08c.02.03.04.06.1.1.02 0 .04.03.06.05l.1.07c.03.02.06.03.07.06.03.04.07.06.12.1.03 0 .05.02.07.03l.13.06s.04 0 .06.02l.2.08c.04 0 .08.03.1.04 3.17 1 6.43-.16 10.2 2.83-.25-4.82 2.57-6.68 3.6-9.83z"/>
    </g>
    <g fill="#375D81">
      <path d="M11.97 220H3c-.55 0-1-.45-1-1s.45-1 1-1h8.97c.56 0 1 .45 1 1s-.44 1-1 1M252.97 220H244c-.55 0-1-.45-1-1s.45-1 1-1h8.97c.56 0 1 .45 1 1s-.44 1-1 1M161.42 228.72h-67.2c-.54 0-1-.45-1-1s.46-1 1-1h67.2c.55 0 1 .45 1 1s-.45 1-1 1M179.18 228.72h-9.14c-.56 0-1-.45-1-1s.44-1 1-1h9.14c.55 0 1 .45 1 1s-.45 1-1 1M81.35 228.72c-.55 0-1-.44-1-1 0-.54.43-1 .98-1l5-.08c.57 0 1 .44 1.02 1 0 .54-.43 1-1 1l-5 .08zM237.9 220H20c-.55 0-1-.45-1-1s.45-1 1-1h217.9c.55 0 1 .45 1 1s-.45 1-1 1"/>
    </g>
    <g>
      <g transform="translate(177 182)">
        <use fill="#FFF" xlink:href="#u"/>
        <path stroke="#375D81" d="M3 14.5C1.62 14.5.5 15.62.5 17v14c0 3.04 2.46 5.5 5.5 5.5h9c3.04 0 5.5-2.46 5.5-5.5V17c0-1.38-1.12-2.5-2.5-2.5H3z"/>
      </g>
      <path stroke="#375D81" d="M190 199h3.33c.92 0 1.67.67 1.67 1.5v3.5"/>
      <g transform="translate(177 182)">
        <use fill="#FFF" xlink:href="#v"/>
        <path stroke="#375D81" d="M20.5 16.5v14h.5c2.5 0 4.5-2 4.5-4.5v-5c0-2.5-2-4.5-4.5-4.5h-.5z"/>
      </g>
      <g transform="translate(177 182)">
        <use fill="#E1F2FF" xlink:href="#w"/>
        <path stroke="#375D81" d="M20.5 18.5v10h.5c1.38 0 2.5-1.12 2.5-2.5v-5c0-1.38-1.12-2.5-2.5-2.5h-.5z"/>
      </g>
      <g transform="translate(177 182)">
        <use fill="#EFEFF6" xlink:href="#x"/>
        <path stroke="#375D81" d="M3.5 22.74v5.76h5v-5.77l-2.45-2.08-2.55 2.1z"/>
      </g>
      <path stroke="#375D81" d="M183 202.75v-6.5" stroke-linecap="square"/>
      <path fill="#375D81" d="M182.34 187c.04-1.22.8-2.33 2.24-3.37-.5 1.67-.6 2.76-.3 3.28.87 1.67 2.16 1.7 2.14 3.6 0 1.2-.74 2.1-2.2 2.68.5-1.38.6-2.33.3-2.88-.83-1.6-2.2-2.52-2.18-3.3zM187.27 186.5c-.03-1.45.8-2.75 2.48-3.9-.47 1.98-.52 3.3-.15 3.96 1.2 2.07 2.77 2.2 2.88 4.5.07 1.46-.76 2.5-2.48 3.1.5-1.63.55-2.8.16-3.47-1.12-2-2.87-3.23-2.9-4.2z"/>
    </g>
    <g fill="#375D81">
      <path fill-rule="nonzero" d="M234.7 174.97v3.93c0 .28.22.5.5.5s.5-.22.5-.5v-3.93c0-.28-.22-.5-.5-.5s-.5.22-.5.5z"/>
      <path fill-rule="nonzero" d="M237.17 176.43h-3.94c-.28 0-.5.23-.5.5 0 .28.22.5.5.5h3.94c.27 0 .5-.22.5-.5 0-.27-.23-.5-.5-.5zM224.37 111.14v3.94c0 .28.22.5.5.5.27 0 .5-.22.5-.5v-3.94c0-.27-.23-.5-.5-.5-.28 0-.5.23-.5.5z"/>
      <path fill-rule="nonzero" d="M226.84 112.6h-3.94c-.28 0-.5.24-.5.5 0 .3.22.5.5.5h3.94c.27 0 .5-.2.5-.5 0-.26-.23-.5-.5-.5z"/>
      <path d="M189.85 53c-.56 0-1-.45-1-1v-7c0-.55.44-1 1-1 .55 0 1 .45 1 1v7c0 .55-.45 1-1 1"/>
      <path d="M193.35 49.5h-7c-.56 0-1-.45-1-1s.44-1 1-1h7c.55 0 1 .45 1 1s-.45 1-1 1M43.83 83.13c-.56 0-1-.44-1-1v-7c0-.55.44-1 1-1 .55 0 1 .45 1 1v7c0 .56-.45 1-1 1"/>
      <path d="M47.33 79.63h-7c-.56 0-1-.44-1-1 0-.55.44-1 1-1h7c.55 0 1 .45 1 1 0 .56-.45 1-1 1M84.53 87.6c-.28 0-.5-.22-.5-.5v-3.94c0-.27.22-.5.5-.5.27 0 .5.23.5.5v3.94c0 .28-.23.5-.5.5"/>
      <path d="M86.5 85.63h-3.94c-.28 0-.5-.22-.5-.5 0-.27.22-.5.5-.5h3.94c.27 0 .5.23.5.5 0 .28-.23.5-.5.5M21.4 200.38c-.27 0-.5-.22-.5-.5v-3.94c0-.27.23-.5.5-.5.3 0 .5.23.5.5v3.94c0 .28-.2.5-.5.5"/>
      <path d="M23.38 198.4h-3.94c-.28 0-.5-.2-.5-.5 0-.26.22-.5.5-.5h3.94c.27 0 .5.24.5.5 0 .3-.23.5-.5.5"/>
    </g>
  </g>
</svg>