<svg xmlns="http://www.w3.org/2000/svg" width="256" height="256" xmlns:xlink="http://www.w3.org/1999/xlink">
  <defs>
    <rect id="a" width="52" height="16" rx="3"/>
    <path id="b" d="M32 11h14c1.66 0 3 1.34 3 3v1H29v-1c0-1.66 1.34-3 3-3z"/>
    <path id="c" d="M3 15h48v4H3z"/>
    <rect id="d" width="52" height="16" rx="3"/>
    <path id="e" d="M32 11h14c1.66 0 3 1.34 3 3v1H29v-1c0-1.66 1.34-3 3-3z"/>
    <path id="f" d="M3 15h48v4H3z"/>
    <rect id="g" width="52" height="16" rx="3"/>
    <path id="h" d="M32 11h14c1.66 0 3 1.34 3 3v1H29v-1c0-1.66 1.34-3 3-3z"/>
    <path id="i" d="M3 15h48v4H3z"/>
    <rect id="j" width="52" height="16" rx="3"/>
    <path id="k" d="M32 11h14c1.66 0 3 1.34 3 3v1H29v-1c0-1.66 1.34-3 3-3z"/>
    <path id="l" d="M3 15h46v4H3z"/>
    <path id="m" d="M19 0h87c4.42 0 8 3.58 8 8v60H11V8c0-4.42 3.58-8 8-8z"/>
    <path id="n" d="M20 5h84c2.2 0 4 1.8 4 4v55H16V9c0-2.2 1.8-4 4-4z"/>
    <path id="o" d="M2 63h119c1.1 0 2 .9 2 2v5H0v-5c0-1.1.9-2 2-2z"/>
    <path id="p" d="M2 7h21l-1.8 25H3.8z"/>
    <path id="q" d="M2.54 14h19.93l-.8 11H3.37z"/>
    <path id="r" d="M1.82 3h22.36L26 9H0z"/>
    <path id="s" d="M4.8 0l15.3 1.78L21 4H3z"/>
  </defs>
  <g fill="none" fill-rule="evenodd">
    <path fill="#E1F2FF" d="M24 232.56C24 175.36 70.36 129 127.56 129s103.56 46.37 103.56 103.56H24zM105.58 61.05h18.5v-7.38h-18.5"/>
    <path stroke="#5A749A" d="M105.58 61.05h18.5v-7.38h-18.5z" stroke-linejoin="round"/>
    <path stroke="#375D81" d="M121.15 210.75h-12.28V61.05h12.28z"/>
    <path stroke="#375D81" d="M53.6 53.67h88.65" stroke-linecap="round" stroke-linejoin="round"/>
    <path stroke="#375D81" d="M59.44 78h6.92V53.67h-6.92z" stroke-linejoin="round"/>
    <path fill="#5A749A" d="M58.4 78h9l-4.5 6.87"/>
    <path stroke="#375D81" d="M58.4 78h9l-4.5 6.87z" stroke-linejoin="round"/>
    <path stroke="#375D81" d="M66.2 89.82c0 1.83-1.47 3.3-3.3 3.3-1.83 0-3.3-1.47-3.3-3.3 0-1.83 1.47-3.3 3.3-3.3V84.87l3.3 4.94zM55.92 53.67l58.9-14.75 25.83 14.75z" stroke-linecap="round" stroke-linejoin="round"/>
    <path stroke="#375D81" d="M121.02 61.86l-11.67 8.1 11.67 8.12-11.67 8.1 11.67 8.12-11.67 8.12 11.67 8.1M121.02 110.53l-11.67 8.1 11.67 8.12-11.67 8.1 11.67 8.12-11.67 8.12 11.67 8.1M121.02 159.24l-11.67 8.1 11.67 8.1-11.67 8.13 11.67 8.1-11.67 8.12 11.67 8.1M105.58 61.05l7.38-7.38M111.15 61.05l7.38-7.38M116.7 61.05l7.4-7.38" stroke-linejoin="round"/>
    <path stroke="#375D81" d="M103.85 214.3h22.66v-6.47h-22.65z" stroke-linecap="round" stroke-linejoin="round"/>
    <g fill="#375D81">
      <path fill-rule="nonzero" d="M234.7 171.97v3.93c0 .28.22.5.5.5s.5-.22.5-.5v-3.93c0-.28-.22-.5-.5-.5s-.5.22-.5.5z"/>
      <path fill-rule="nonzero" d="M237.17 173.43h-3.94c-.28 0-.5.23-.5.5 0 .28.22.5.5.5h3.94c.27 0 .5-.22.5-.5 0-.27-.23-.5-.5-.5zM224.37 108.14v3.94c0 .28.22.5.5.5.27 0 .5-.22.5-.5v-3.94c0-.27-.23-.5-.5-.5-.28 0-.5.23-.5.5z"/>
      <path fill-rule="nonzero" d="M226.84 109.6h-3.94c-.28 0-.5.24-.5.5 0 .3.22.5.5.5h3.94c.27 0 .5-.2.5-.5 0-.26-.23-.5-.5-.5z"/>
      <path d="M189.85 50c-.56 0-1-.45-1-1v-7c0-.55.44-1 1-1 .55 0 1 .45 1 1v7c0 .55-.45 1-1 1"/>
      <path d="M193.35 46.5h-7c-.56 0-1-.45-1-1s.44-1 1-1h7c.55 0 1 .45 1 1s-.45 1-1 1M53.83 40.13c-.56 0-1-.44-1-1v-7c0-.55.44-1 1-1 .55 0 1 .45 1 1v7c0 .56-.45 1-1 1"/>
      <path d="M57.33 36.63h-7c-.56 0-1-.44-1-1 0-.55.44-1 1-1h7c.55 0 1 .45 1 1 0 .56-.45 1-1 1M84.53 44.6c-.28 0-.5-.22-.5-.5v-3.94c0-.27.22-.5.5-.5.27 0 .5.23.5.5v3.94c0 .28-.23.5-.5.5"/>
      <path d="M86.5 42.63h-3.94c-.28 0-.5-.22-.5-.5 0-.27.22-.5.5-.5h3.94c.27 0 .5.23.5.5 0 .28-.23.5-.5.5M21.4 197.38c-.27 0-.5-.22-.5-.5v-3.94c0-.27.23-.5.5-.5.3 0 .5.23.5.5v3.94c0 .28-.2.5-.5.5"/>
      <path d="M23.38 195.4h-3.94c-.28 0-.5-.2-.5-.5 0-.26.22-.5.5-.5h3.94c.27 0 .5.24.5.5 0 .3-.23.5-.5.5"/>
    </g>
    <g fill="#375D81">
      <path d="M11.97 217H3c-.55 0-1-.45-1-1s.45-1 1-1h8.97c.56 0 1 .45 1 1s-.44 1-1 1M252.97 217H244c-.55 0-1-.45-1-1s.45-1 1-1h8.97c.56 0 1 .45 1 1s-.44 1-1 1M161.42 225.72h-67.2c-.54 0-1-.45-1-1s.46-1 1-1h67.2c.55 0 1 .45 1 1s-.45 1-1 1M179.18 225.72h-9.14c-.56 0-1-.45-1-1s.44-1 1-1h9.14c.55 0 1 .45 1 1s-.45 1-1 1M81.35 225.72c-.55 0-1-.44-1-1 0-.54.43-1 .98-1l5-.08c.57 0 1 .44 1.02 1 0 .54-.43 1-1 1l-5 .08zM237.9 217H20c-.55 0-1-.45-1-1s.45-1 1-1h217.9c.55 0 1 .45 1 1s-.45 1-1 1"/>
    </g>
    <g>
      <g transform="translate(37 197)">
        <use fill="#FFF" xlink:href="#a"/>
        <rect width="51" height="15" x=".5" y=".5" stroke="#375D81" rx="3"/>
        <circle cx="7.5" cy="7.5" r="2.5" fill="#D9DDE2"/>
        <rect width="14" height="2" x="13" y="7" fill="#EFEFF6" rx="1"/>
        <use fill="#FFF" xlink:href="#b"/>
        <path stroke="#4A6286" d="M29.5 14.5h19V14c0-1.38-1.12-2.5-2.5-2.5H32c-1.38 0-2.5 1.12-2.5 2.5v.5z"/>
        <path fill="#EFEFF6" d="M30 13h18v2H30z"/>
        <g>
          <use fill="#EFEFF6" xlink:href="#c"/>
          <path stroke="#375D81" d="M3.5 15.5h47v3h-47z"/>
        </g>
        <path fill="#A1A9B7" d="M4 16h46v1H4z"/>
      </g>
      <g transform="translate(37 179)">
        <use fill="#FFF" xlink:href="#d"/>
        <rect width="51" height="15" x=".5" y=".5" stroke="#375D81" rx="3"/>
        <circle cx="7.5" cy="7.5" r="2.5" fill="#D9DDE2"/>
        <rect width="14" height="2" x="13" y="7" fill="#EFEFF6" rx="1"/>
        <use fill="#FFF" xlink:href="#e"/>
        <path stroke="#4A6286" d="M29.5 14.5h19V14c0-1.38-1.12-2.5-2.5-2.5H32c-1.38 0-2.5 1.12-2.5 2.5v.5z"/>
        <path fill="#EFEFF6" d="M30 13h18v2H30z"/>
        <g>
          <use fill="#EFEFF6" xlink:href="#f"/>
          <path stroke="#375D81" d="M3.5 15.5h47v3h-47z"/>
        </g>
        <path fill="#A1A9B7" d="M4 16h46v1H4z"/>
      </g>
      <g transform="translate(37 161)">
        <use fill="#FFF" xlink:href="#g"/>
        <rect width="51" height="15" x=".5" y=".5" stroke="#375D81" rx="3"/>
        <circle cx="7.5" cy="7.5" r="2.5" fill="#D9DDE2"/>
        <rect width="14" height="2" x="13" y="7" fill="#EFEFF6" rx="1"/>
        <use fill="#FFF" xlink:href="#h"/>
        <path stroke="#4A6286" d="M29.5 14.5h19V14c0-1.38-1.12-2.5-2.5-2.5H32c-1.38 0-2.5 1.12-2.5 2.5v.5z"/>
        <path fill="#EFEFF6" d="M30 13h18v2H30z"/>
        <g>
          <use fill="#EFEFF6" xlink:href="#i"/>
          <path stroke="#375D81" d="M3.5 15.5h47v3h-47z"/>
        </g>
        <path fill="#A1A9B7" d="M4 16h46v1H4z"/>
      </g>
      <g transform="rotate(10 -658.448 282.456)">
        <use fill="#FFF" xlink:href="#j"/>
        <rect width="51" height="15" x=".5" y=".5" stroke="#375D81" rx="3"/>
        <circle cx="7.5" cy="7.5" r="2.5" fill="#67B373"/>
        <rect width="14" height="2" x="13" y="7" fill="#EFEFF6" rx="1"/>
        <use fill="#FFF" xlink:href="#k"/>
        <path stroke="#4A6286" d="M29.5 14.5h19V14c0-1.38-1.12-2.5-2.5-2.5H32c-1.38 0-2.5 1.12-2.5 2.5v.5z"/>
        <path fill="#EFEFF6" d="M30 14h18v1H30z"/>
        <g>
          <use fill="#EFEFF6" xlink:href="#l"/>
          <path stroke="#375D81" d="M3.5 15.5h45v3h-45z"/>
        </g>
        <path fill="#A1A9B7" d="M4 16h44v1H4z"/>
      </g>
      <path fill="#9452BA" d="M142.94 195.3l-3.8-.05c-1.3 0-2.47-.83-2.93-2.06-1.3-3.5-.92-6.7-1.04-9.42-.24-5.07.58-7.65 1.4-11.88l5.68.2s-.5 2.1-.9 8.4c-.14 1.96 2.98 9.84 2.78 13.7-.03.62-.55 1.1-1.18 1.1"/>
      <path fill="#52267D" d="M141.33 172.84c-.2 1.15-.5 3.5-.76 7.62-.06.9.38 2.53 1.1 5.12.8 2.88 1.8 6.47 1.7 8.57-.02.22-.22.38-.42.4l-3.8-.06c-1-.02-1.88-.65-2.23-1.57-.95-2.56-.96-4.9-.97-7.2 0-.68 0-1.35-.03-2-.2-4.03.3-6.43.93-9.48l.32-1.56 4.16.14zm1.62 23.22c1.03 0 1.88-.8 1.93-1.83.13-2.36-.87-5.92-1.74-9.06-.54-1.93-1.1-3.92-1.05-4.6.38-6.18.88-8.26.88-8.28l.22-.92-7.28-.26-.12.64-.44 2.18c-.62 3.03-1.16 5.64-.97 9.87.02.63.03 1.28.03 1.95 0 2.3.02 4.9 1.07 7.7.56 1.52 2.02 2.55 3.64 2.57l3.8.04z"/>
      <path fill="#9452BA" d="M154.2 177.35l4.65-5.15 2.83.15.48 6.16c.25 3.2 1.5 9.5 2.27 12.25.25.9.4 1.74.43 2.5.05 1.27-1.02 2.3-2.3 2.3l-3.36-.04c-1.95-.02-3.68-1.35-4.13-3.26-1.43-5.94-.86-14.9-.86-14.9"/>
      <path fill="#52267D" d="M160.97 173.08l.43 5.5c.24 3.14 1.47 9.43 2.3 12.38.23.84.37 1.62.4 2.32 0 .38-.13.75-.4 1.04-.3.3-.7.46-1.1.46h-.03l-3.36-.04c-1.62-.02-3.02-1.12-3.4-2.68-1.24-5.2-.92-12.88-.85-14.4l4.23-4.68 1.8.1zm1.62 23.23c.82 0 1.62-.33 2.2-.92.56-.6.85-1.36.82-2.17-.04-.8-.2-1.7-.46-2.66-.8-2.82-2-9.08-2.24-12.1l-.48-6.15-.05-.68-3.87-.2-5.07 5.62v.27c-.04.38-.57 9.13.86 15.12.54 2.24 2.54 3.82 4.87 3.85l3.35.04h.04z"/>
      <path fill="#52267D" d="M161.06 181.7l-.22.2.02-.38.2.18zm-.3.28l-.18.15-.87-.35.1-.2.6.16v.22l.35.02zm-.1.6l.98-.88-.9-.8-.26.27.3.27-1.2-.3-.4.84 1.48.6z"/>
      <path fill="#9452BA" d="M160.86 158.04c-3.33-.1-6.43-2.46-13.23-2.86-.1-.44-.2-.85-.36-1.18-1.2-2.7-2.84-10.43-1.66-15.48l.94-4c.3-1.3.47-2.65.5-4 0-.55-.05-1.1-.15-1.63l-.1-.4c-.1-.4-.22-.78-.37-1.14l-.16-.37c-.1-.25-.23-.48-.36-.7-.12-.23-.27-.45-.42-.66-.46-.63-1-1.2-1.62-1.67-.2-.16-.42-.3-.64-.44-1.22-.76-2.65-1.2-4.2-1.23l-1.32-.02c-2.24-.03-4.28.86-5.76 2.3-.2.2-.36.38-.53.58-.3.36-.57.75-.8 1.16-.1.15-.18.3-.26.47-.06.1-.12.23-.17.35-.16.36-.3.74-.4 1.13-.1.4-.18.8-.22 1.2-.04.27-.05.55-.06.83 0 .57.2 1.07.57 1.45.36.37.86.6 1.42.6l8.28.1-1.34 7.22c-1.57 7.4-1.2 12.37-.1 15.7.26.73 1.68 3.36 1.68 3.36-4.24 6.5-10.63 9.3-17.45 10.05-5.8.64-18.2-4.8-11.7-10.85 6.52-6.04-1.3-2.33-2.46-1.57-1.15.76-7.84 6.42-.76 14.92 3 3.6 6.4 6.88 14.65 9.47 1.3.4 8.55 1.03 12.44 2.2 11.57 3.5 21.06-.02 26.45-7.65 5.35-7.6.98-17.22-.34-17.26"/>
      <path fill="#52267D" d="M160.73 158.8c.36.3 1.36 1.9 1.92 4.5.53 2.47.97 7.24-2.1 11.56-5.57 7.9-14.9 10.6-25.6 7.36-2.47-.75-6.27-1.27-9.05-1.66-1.5-.2-2.95-.4-3.4-.54-8.25-2.6-11.46-5.84-14.27-9.23-2.34-2.82-3.33-5.56-2.95-8.15.45-3 2.7-5.1 3.55-5.65.6-.4 2.33-1.2 3.4-1.54-.33.4-.9 1-1.87 1.9-2.53 2.35-2.3 4.5-1.67 5.9 1.85 4.1 9.78 6.74 13.96 6.28 8.03-.88 14.1-4.38 18-10.4l.24-.37-.2-.4c-.55-1-1.46-2.76-1.62-3.25-1.27-3.83-1.23-8.97.1-15.3l1.52-8.1-9.2-.13c-.34 0-.65-.15-.9-.4-.22-.23-.35-.55-.34-.88 0-.26 0-.5.04-.76.05-.36.1-.73.2-1.08.1-.35.22-.7.37-1.02l.15-.33.23-.43c.22-.37.47-.73.74-1.05.14-.18.3-.35.47-.5 1.38-1.36 3.2-2.1 5.13-2.1H139.02c1.35.03 2.66.4 3.8 1.12l.57.4c.55.44 1.05.95 1.47 1.52.13.18.26.38.38.6.12.2.23.4.33.62l.15.32c.13.34.24.68.33 1.03l.08.36c.1.5.13 1 .13 1.5-.02 1.28-.18 2.57-.47 3.82l-.93 4c-1.22 5.22.46 13.17 1.7 15.96.12.27.22.6.3 1.04l.13.57.58.05c3.83.22 6.5 1.1 8.64 1.8 1.62.52 3.03.98 4.5 1.05m-17.37 26.25c7.58 0 14.16-3.23 18.46-9.3 4.28-6.06 2.72-13.15 1.12-16.4-1.02-2.04-1.78-2.07-2.03-2.08-1.3-.04-2.6-.46-4.2-.98-2.13-.7-4.74-1.56-8.46-1.84-.1-.3-.17-.55-.27-.77-1.14-2.57-2.75-10.18-1.62-15l.93-4c.32-1.36.5-2.76.5-4.16.02-.6-.03-1.2-.15-1.8-.02-.14-.06-.3-.1-.43-.1-.4-.23-.83-.4-1.23-.05-.14-.1-.27-.17-.4-.12-.26-.25-.5-.4-.76-.14-.24-.3-.48-.46-.7-.5-.7-1.1-1.3-1.78-1.83-.23-.18-.46-.34-.7-.5-1.37-.85-2.96-1.32-4.58-1.34h-1.33c-2.37-.06-4.6.86-6.3 2.5-.2.2-.4.42-.57.64-.33.38-.63.8-.9 1.26-.1.18-.2.35-.28.52l-.18.4c-.17.4-.32.8-.43 1.23-.12.42-.2.86-.25 1.3-.04.3-.06.6-.07.92 0 .74.27 1.45.8 1.98.5.53 1.2.83 1.95.84l7.4.1-1.2 6.3c-1.38 6.58-1.4 12-.05 16.08.2.62 1.08 2.3 1.5 3.1-3.66 5.37-9.25 8.5-16.64 9.32-3.98.45-10.98-2.2-12.43-5.4-.62-1.37-.2-2.72 1.32-4.13 2.57-2.4 3.23-3.48 2.6-4.3-1.13-1.43-5.96 1.5-6 1.52-1.24.82-3.72 3.26-4.23 6.7-.45 3.05.66 6.2 3.3 9.35 2.84 3.43 6.34 7 15 9.7.55.18 1.84.36 3.63.6 2.72.38 6.45.9 8.82 1.6 3.04.93 6 1.38 8.83 1.38"/>
      <path fill="#9452BA" d="M153.8 146.9c-.16-8.62 6.73-15.3 14.5-16.62 1.6-.28 2.12-.78 3.88-.76l1.35.02c4.53.06 8.16 3.8 8.1 8.34 0 1.13-.94 2.04-2.07 2.02l-13.87-.18h-1.13 1.13c-3.07 1.26-5.02 5.15-5.38 7.25-.52 3-.2 5.46.8 7.47.66 1.34.7 2.95.6 4.24 0 0-.04 0-.1.03-.04.7-.17 1.5-.38 2.4-1.3-.94-3.3-2.33-3.66-2.53-.8-.43-2.58-1.4-3.38-1.9-5.12-3-.3-4.88-.4-9.78"/>
      <path fill="#52267D" d="M161 158.1l-.02.02-.1.53c-.04.36-.08.75-.15 1.14-1.1-.8-2.45-1.7-2.8-1.9-.88-.48-2.58-1.43-3.35-1.88-2.6-1.53-2.2-2.35-1.28-4.35.58-1.23 1.3-2.78 1.26-4.8-.16-8.7 7.02-14.67 13.85-15.84.67-.1 1.17-.26 1.6-.4.67-.2 1.2-.35 2.17-.34h1.35c4.1.06 7.4 3.45 7.35 7.57 0 .34-.14.66-.38.9-.26.24-.6.4-.93.37l-13.85-.18H165.13c-.15 0-.26-.03-.37-.02h-.17c-.33.02-.4.06-.57.23l-.54.54.26.28c-2.36 1.8-3.86 4.93-4.2 6.86-.52 3.05-.23 5.72.87 7.94.52 1.06.6 2.32.56 3.33zm.7 4.27l.28-1.1c.16-.7.3-1.36.36-2l.08-.02.05-.5c.17-1.83-.05-3.4-.67-4.65-.95-1.92-1.2-4.28-.73-7 .3-1.72 2-5.38 4.8-6.6.66 0 3.26.03 13.68.17.76 0 1.46-.28 2-.8.54-.53.84-1.23.85-1.98.06-4.98-3.9-9.06-8.86-9.13h-1.35c-1.22-.03-1.9.18-2.64.4-.4.13-.84.26-1.4.35-7.47 1.28-15.3 7.8-15.13 17.38.03 1.67-.57 2.98-1.1 4.13-.94 2-1.9 4.07 1.88 6.3.8.47 2.52 1.42 3.4 1.9.3.17 2.14 1.44 3.6 2.48l.9.67z"/>
      <path fill="#F3E3FF" d="M158.07 156.9c.08-1.34.3-2.02.15-2.56-.82-3.13-1.08-4.1-1.04-7.4.04-3.28 1.97-6.5 4.8-8.18.14-.1 2.15-.2 3.72.96-3.07 1.26-5.02 5.15-5.38 7.25-.52 3-.2 5.46.8 7.47.66 1.34.7 2.95.6 4.24 0 0-3.77 1.37-3.65-1.8"/>
      <path fill="#52267D" d="M161.35 158.4c-.6.17-1.77.37-2.4-.1-.36-.26-.53-.73-.5-1.4.03-.5.08-.9.12-1.23.07-.6.13-1.02.02-1.43l-.03-.1c-.8-3.06-1.05-4-1-7.2.03-3.12 1.84-6.2 4.6-7.85.1-.03 1.46-.1 2.74.58-2.8 1.53-4.6 5.1-4.96 7.23-.5 2.97-.23 5.56.83 7.7.6 1.23.66 2.7.58 3.8m-1.3.96c.9 0 1.74-.3 1.8-.32l.22-.08.02-.24c.1-1.2.1-2.97-.64-4.45-1-2-1.25-4.43-.77-7.23.37-2.2 2.37-5.82 5.14-6.96l.62-.26-.54-.4c-1.63-1.23-3.8-1.2-4.15-1-2.98 1.8-4.93 5.13-4.97 8.5-.04 3.32.23 4.36 1.03 7.42l.02.1c.07.26.03.6-.04 1.14-.03.35-.08.77-.1 1.28-.05.95.22 1.64.8 2.06.45.33 1.02.44 1.56.44"/>
      <path fill="#FFF" d="M177.82 131s.02-1.45-1.4-2.03l-1.22-.52s-.87 1.8.08 2.26c1.38.68 2.54.3 2.54.3"/>
      <path fill="#52267D" d="M177.4 130.7c-.4.04-1.13.06-1.95-.34-.1-.04-.15-.1-.2-.22-.1-.32.03-.83.16-1.2l.88.38c.8.33 1.04 1 1.12 1.37m-.43.78c.57 0 .94-.1.97-.12l.26-.1V131c0-.07 0-1.7-1.63-2.4l-1.22-.5-.33-.14-.16.32c-.06.13-.6 1.28-.32 2.1.1.3.3.54.58.67.7.34 1.35.43 1.85.43"/>
      <path fill="#FFF" d="M174.26 129.94s0-1.96-2.2-2.28c-.4-.06-1.48-.04-1.48-.04s-.52 2.06.63 2.28c1.43.26 3.06.04 3.06.04"/>
      <path fill="#52267D" d="M173.83 129.6c-.55.04-1.6.1-2.55-.08-.13-.02-.22-.08-.3-.2-.2-.3-.15-.92-.1-1.32.38 0 .9 0 1.12.04 1.32.2 1.72 1.06 1.83 1.56m-1.05.8c.84 0 1.5-.08 1.54-.1l.33-.03v-.34c0-.8-.55-2.36-2.54-2.64-.42-.08-1.4-.07-1.53-.07h-.3l-.06.3c-.03.14-.34 1.44.15 2.2.2.3.46.48.8.54.55.1 1.12.14 1.63.14"/>
      <path fill="#FFF" d="M169.9 130.07s-.27-2.18-2.22-1.6c-.84.24-1.3.87-1.3.87s.36 1.66 1.13 1.48c1.37-.3 2.4-.75 2.4-.75"/>
      <path fill="#52267D" d="M169.45 129.83c-.4.15-1.13.42-2.02.62-.02 0-.06 0-.1-.03-.23-.13-.43-.6-.54-.98.16-.17.5-.47.98-.6.45-.14.8-.1 1.08.07.34.24.5.66.6.93m-2.06 1.4c.07 0 .13-.02.2-.04 1.37-.32 2.4-.76 2.44-.78l.26-.1-.03-.3c0-.04-.15-1.2-1-1.74-.46-.32-1.04-.38-1.7-.18-.95.28-1.48.98-1.5 1l-.1.15.03.17c.03.13.3 1.26.9 1.65.17.1.33.15.5.15"/>
      <path fill="#FFF" d="M164.1 140.55s-4.5-2.54-3.58-6.7c-.6.5-2.24 2-2.83 2.77-.02.82-.2 4.05 4.2 6.27.8-.8 1.48-1.82 2.2-2.35"/>
      <path fill="#52267D" d="M163.47 140.6c-.33.3-.64.67-.96 1.05-.2.26-.43.52-.66.77-3.77-2-3.8-4.7-3.78-5.66.43-.52 1.28-1.34 1.96-1.96-.1 3 2.4 5.06 3.45 5.8zm-1.48 2.76l.18-.2c.32-.32.62-.68.9-1.02.44-.5.85-1 1.25-1.3l.48-.34-.5-.3c-.05 0-4.25-2.43-3.4-6.25l.22-1.07-.84.7c-.65.5-2.3 2.02-2.9 2.8l-.07.1v.14c-.05 2.9 1.45 5.1 4.44 6.62l.25.12z"/>
      <path fill="#F3E3FF" d="M177.2 130.6s.02-.76-.72-1.06l-.63-.27s-.45.93.04 1.17c.7.35 1.3.15 1.3.15M173.33 129.48s0-1-1.13-1.16c-.2-.03-.75-.02-.75-.02s-.26 1.05.33 1.16c.72.14 1.55.02 1.55.02M169.2 129.9s-.15-1.15-1.18-.85c-.44.13-.7.47-.7.47s.2.88.6.78c.73-.16 1.27-.4 1.27-.4M170.25 138.4l4.15.06c.03-2.1-1.64-3.82-3.73-3.84h-.37c-1.04-.02-1.9.82-1.9 1.87-.03 1.03.8 1.9 1.85 1.9"/>
      <path fill="#FFF" d="M170.6 138.34l3.73.05c.02-1.66-1.3-3-2.93-3.03h-.76c-.82-.02-1.5.64-1.5 1.46s.64 1.5 1.46 1.5"/>
      <path fill="#52267D" d="M170.62 135.74h.77c.68.02 1.33.3 1.82.8.4.4.64.9.7 1.46l-3.3-.04c-.62 0-1.1-.5-1.1-1.12 0-.3.12-.58.33-.78.2-.2.48-.32.77-.32zm4.1 3.03v-.38c0-.9-.33-1.75-.96-2.4-.62-.64-1.46-1-2.36-1l-.75-.02h-.03c-1.02 0-1.85.82-1.86 1.85-.02 1.03.8 1.88 1.84 1.9l4.1.04z"/>
      <path fill="#52267D" d="M173.68 136.8c0 .46-.38.83-.84.82-.46 0-.83-.38-.82-.84 0-.46.38-.83.84-.82.46 0 .82.38.82.84M179.76 139.28c-.24-.05-.44-.2-.6-.38l-.27-.35.6.14.38.07c.14.03.22.17.2.3-.04.15-.18.24-.32.2"/>
      <path fill="#EAF3FB" d="M163.34 140.62s-3.47-1.93-3.37-5.73c-1.52 1.06-1.93 1.77-1.93 1.77s.24 1.8 1.07 2.74c1.28 1.42 2.62 1.87 4.24 1.22"/>
      <path fill="#FFF" d="M160.04 139.9s1.36 1.43 2.7 2.12"/>
      <path fill="#52267D" d="M162.56 142.36l.35-.68c-1.25-.65-2.57-2.02-2.58-2.03l-.56.52c.06.06 1.42 1.48 2.8 2.2"/>
      <path fill="#9452BA" d="M146.15 154.52l.8-1.53c3-7.14 3.5-11.35 2.07-18.2l-.83-4.03c-.28-1.3-.4-2.66-.4-4 .06-4.5 3.73-8.1 8.2-8.03l1.32.02c4.4.05 7.94 3.68 7.9 8.1v.24c-.03 1.06-.9 1.9-1.94 1.9l-8.28-.12 1.16 7.24c3.6 19.4 3.12 27.24-4.42 25.54"/>
      <path fill="#52267D" d="M153.6 162.65c1.38 0 2.5-.42 3.37-1.26 2.84-2.76 2.83-9.88-.06-25.42l-1-6.32 7.37.1c.7-.02 1.38-.27 1.9-.77.5-.5.8-1.17.8-1.9v-.22c.03-2.34-.85-4.56-2.5-6.24-1.62-1.68-3.8-2.62-6.14-2.65l-1.3-.03c-2.37-.05-4.62.87-6.3 2.53-1.7 1.66-2.66 3.88-2.7 6.25 0 1.4.13 2.8.4 4.18l.85 4.02c1.4 6.7.93 10.68-2.04 17.74l-.77 1.47 1.35.7.8-1.53c3.1-7.36 3.6-11.72 2.15-18.7l-.83-4.02c-.27-1.26-.4-2.56-.37-3.85.02-1.96.8-3.8 2.2-5.18 1.42-1.38 3.27-2.14 5.23-2.1l1.3.02c4 .05 7.2 3.34 7.15 7.34v.23c0 .3-.13.58-.35.8-.22.2-.53.32-.8.32l-9.2-.1 1.3 8.12c1.92 10.3 3.47 21.2.5 24.05-.85.82-2.16 1.03-4 .6l-.33 1.5c.73.17 1.4.25 2.02.25"/>
      <path fill="#FFF" d="M161.3 119.77s-.1-1.4-1.5-2c-.42-.17-1.1 0-1.1 0s-.82 1.26.12 1.72c1.35.64 2.48.27 2.48.27"/>
      <path fill="#52267D" d="M160.85 119.47c-.4.05-1.08.06-1.86-.33-.17-.07-.2-.16-.23-.23-.07-.23.07-.58.18-.78.22-.04.53-.06.7 0 .78.34 1.1.96 1.2 1.35m-.38.8c.56 0 .93-.13.95-.14l.3-.1-.04-.3c0-.06-.15-1.64-1.73-2.3-.53-.22-1.26-.04-1.34-.02l-.13.04-.08.13c-.07.08-.55.85-.36 1.54.08.33.3.58.6.73.7.34 1.34.43 1.83.43"/>
      <path fill="#FFF" d="M158 119.26s-.03-2.22-2.52-2.57c-.46-.08-1.06-.04-1.06-.04s-1.2 2.32.1 2.56c1.62.3 3.47.04 3.47.04"/>
      <path fill="#52267D" d="M157.56 118.92c-.6.06-1.85.13-2.96-.08-.16-.03-.22-.1-.25-.16-.16-.33.07-1.1.32-1.65.2 0 .5 0 .76.03 1.6.23 2.02 1.3 2.13 1.86m-1.25.82c.96 0 1.7-.1 1.74-.1l.33-.05v-.34c0-.88-.6-2.63-2.83-2.95-.5-.06-1.12-.02-1.14-.02h-.22l-.1.2c-.08.17-.83 1.67-.4 2.54.1.2.32.5.78.57.62.1 1.28.14 1.85.14"/>
      <path fill="#FFF" d="M153.53 119.7s-.3-2.12-2.2-1.5c-.82.25-1.27.88-1.27.88s.4 1.62 1.16 1.43c1.32-.33 2.3-.8 2.3-.8"/>
      <path fill="#52267D" d="M153.08 119.5c-.38.14-1.1.42-1.96.64-.02 0-.05 0-.1-.03-.2-.1-.42-.57-.54-.93.16-.17.5-.46.95-.6.43-.15.78-.13 1.06.04.32.22.5.62.58.9m-2 1.4c.1 0 .16 0 .23-.02 1.35-.34 2.35-.8 2.4-.82l.25-.12-.05-.3c0-.03-.18-1.16-1-1.68-.48-.3-1.05-.34-1.7-.13-.92.3-1.43 1-1.45 1.03l-.1.14.04.17c.04.2.32 1.24.93 1.6.15.1.3.13.46.13"/>
      <path fill="#F3E3FF" d="M160.7 157.78c-.48-.36-.95-.57-1.36-.68"/>
      <path fill="#52267D" d="M160.46 158.08l.46-.6c-.46-.36-.97-.62-1.5-.75l-.17.74c.28.08.73.24 1.2.6"/>
      <path fill="#F3E3FF" d="M157.95 157.7c1.42-5.5-.9-16.08-1.3-18.68L155 128.6l-.78-.02c-1 0-1.75 1.05-1.62 2.04l1.17 9.04c.4 3.06.68 17.2-4.65 20.2-1.14.62-2.97.17-3.66-.17-2.5-1.25-3.18-4.4-3.7-6.95-1.08-5.26-.14-9.37.17-13.48l.33-5.14c.06-.93-.67-1.93-1.6-1.94l-.94-.02-1.84 10.38c-.55 2.96-2 13.2 3.98 18.1.1.1-1.47.43-1.02 1.24 1.77 3.24 7.02 3.82 8 5.2 3.75 5.36.03 16.62.03 16.62s4.26-1.64 6.9-3.96c6.2-5.43 7.1-13.4 7.14-15.76.08-2.8-.63-4.56-1.53-5.6"/>
      <path fill="#52267D" d="M148.26 184.37l.75-.3c.18-.06 4.36-1.68 7.03-4.02 6.68-5.86 7.22-14.4 7.26-16.04.06-2.54-.5-4.5-1.64-5.86l-.58.5c1 1.18 1.5 3.03 1.45 5.35-.02.97-.42 9.7-7 15.47-1.92 1.68-4.73 3-6.06 3.6.78-2.7 2.96-11.5-.32-16.18-.44-.64-1.46-1.06-2.76-1.6-1.88-.76-4.2-1.7-5.23-3.58-.04-.08-.03-.12-.03-.13.06-.2.5-.38.67-.46.23-.1.4-.18.44-.4l.03-.23-.17-.13c-5.75-4.7-4.4-14.77-3.84-17.74l1.77-10.07h.63c.28 0 .57.15.8.4.28.3.44.75.42 1.14l-.33 5.15c-.07.93-.18 1.87-.28 2.82-.36 3.27-.73 6.64.1 10.76.52 2.47 1.2 5.86 3.92 7.2.7.35 2.7.88 4 .15 5.72-3.2 5.2-17.98 4.85-20.57l-1.17-9.03c-.06-.4.1-.87.38-1.2.24-.26.53-.4.84-.4h.47l1.6 10.1.26 1.47c.68 3.7 2.26 12.4 1.05 17.06l.74.2c1.25-4.84-.3-13.32-1.04-17.4l-.26-1.44-1.7-10.75h-1.12c-.53 0-1.03.24-1.4.67-.45.5-.66 1.17-.58 1.8l1.18 9.04c.46 3.57.52 17.03-4.47 19.8-.97.55-2.66.17-3.3-.15-2.38-1.18-3.03-4.35-3.5-6.67-.82-4-.45-7.32-.1-10.53.1-.96.2-1.9.28-2.85l.34-5.15c.03-.6-.2-1.24-.63-1.7-.36-.4-.84-.64-1.33-.64h-1.27l-1.9 10.7c-.55 3-1.9 12.98 3.7 18.1-.32.15-.66.38-.78.75-.06.16-.1.43.08.74 1.16 2.1 3.62 3.1 5.6 3.92 1.1.44 2.1.86 2.43 1.3 3.6 5.15.02 16.17-.02 16.28l-.24.77z"/>
      <path fill="#FFF" d="M108.13 161.68s-.86-.98-.35-2.27c.15-.4.7-.72.7-.72s1.35.25 1.06 1.17c-.43 1.3-1.4 1.83-1.4 1.83"/>
      <path fill="#52267D" d="M108.55 159.1c.2.05.5.18.6.36.04.05.07.13.02.27-.23.73-.66 1.18-.94 1.4-.17-.32-.36-.9-.1-1.58.07-.16.27-.34.42-.46zm-.5 3.05l.26-.14c.06 0 1.13-.6 1.6-2.04.1-.3.07-.63-.1-.9-.33-.57-1.16-.74-1.25-.76l-.15-.03-.12.08c-.07.04-.66.42-.85.92-.6 1.5.38 2.6.42 2.66l.2.22z"/>
      <path fill="#F3E3FF" d="M108.44 160.34s-.3-.35-.13-.8c.07-.14.26-.26.26-.26s.47.1.37.4c-.15.48-.5.66-.5.66"/>
      <path fill="#FFF" d="M115.18 168.7s.85-1.9-1.1-3.16c-.38-.24-.9-.44-.9-.44s-1.92 1.48-.9 2.2c1.24.88 2.9 1.4 2.9 1.4"/>
      <path fill="#52267D" d="M113.25 165.54c.17.08.42.2.6.32 1.23.8 1.2 1.83 1.08 2.35-.54-.2-1.6-.6-2.43-1.2-.12-.1-.14-.16-.14-.22 0-.33.48-.9.9-1.24zm2.14 3.62l.12-.3c.35-.76.52-2.5-1.24-3.64-.4-.26-.94-.47-.96-.48l-.2-.08-.17.14c-.23.17-1.37 1.1-1.35 2 0 .22.1.55.45.8 1.28.92 2.94 1.44 3.02 1.46l.32.1z"/>
      <path fill="#F3E3FF" d="M114.5 167.97s.47-1.04-.62-1.75c-.2-.13-.5-.24-.5-.24s-1.05.82-.5 1.22c.7.5 1.62.77 1.62.77"/>
      <path fill="#FFF" d="M109.22 162.42s-1.45 1.24-.1 2.4c.6.48 1.28.52 1.28.52s1.02-1.07.52-1.55c-.88-.85-1.7-1.38-1.7-1.38"/>
      <path fill="#52267D" d="M109.27 162.92c.3.22.84.62 1.38 1.14.03.25-.2.62-.4.87-.2-.04-.56-.15-.87-.4-.3-.26-.45-.52-.45-.8 0-.32.2-.62.34-.8zm1.28 2.8l.12-.12c.13-.13.78-.85.77-1.5 0-.23-.1-.43-.26-.6-.9-.84-1.72-1.38-1.75-1.4l-.24-.15-.23.18c-.03.03-.8.7-.8 1.6 0 .5.25.97.72 1.37.66.57 1.44.62 1.48.62h.17z"/>
      <path fill="#F3E3FF" d="M109.42 163.32s-.64.55-.04 1.06c.26.2.56.23.56.23s.45-.46.23-.68c-.4-.37-.75-.6-.75-.6"/>
      <path fill="#FFF" d="M122.04 169.78s.5-1.68-1.35-2.37c-1.85-.7-2.35-.14-2.35-.14s-1.05 1.72-.14 2.28c.92.57 3.84.24 3.84.24"/>
      <path fill="#52267D" d="M121.72 169.43c-1.1.1-2.78.12-3.3-.2-.47-.3 0-1.34.22-1.7.12-.07.62-.25 1.92.23 1.1.42 1.2 1.25 1.16 1.67m-1.44.83c.86 0 1.64-.1 1.8-.1l.25-.03.07-.24c.2-.7.14-2.2-1.57-2.85-2-.75-2.65-.17-2.76-.04-.5.82-1.03 2.26-.06 2.87.5.3 1.43.4 2.28.4"/>
      <path fill="#F3E3FF" d="M121.18 169.38s.25-.87-.7-1.23c-.96-.36-1.22-.07-1.22-.07s-.55.9-.08 1.18c.48.3 2 .12 2 .12"/>
      <path fill="#FFF" d="M155.37 131.13s-2.97 1.64-7.1.08l.8 3.9s3.84 1.23 6.83-.6l-.53-3.37"/>
      <path fill="#52267D" d="M155.48 134.3c-2.38 1.3-5.28.7-6.07.5-.1-.54-.4-1.94-.62-3 3 .92 5.32.27 6.3-.1l.4 2.6m-3.5 1.6c1.27 0 2.77-.25 4.12-1.08l.22-.13-.04-.26c-.3-1.72-.53-3.36-.53-3.37l-.1-.53-.46.26c-.04 0-2.9 1.52-6.8.05l-.65-.25.15.68.8 3.9.06.22.2.06c.1.03 1.37.43 3.02.43"/>
      <path fill="#FFF" d="M133.4 123.33s.14-1.4 1.55-1.96c.43-.17 1.6-.2 1.6-.2s.3 1.5-.66 1.94c-1.38.64-2.5.23-2.5.23"/>
      <path fill="#52267D" d="M136.2 121.57c.02.38-.02 1-.46 1.2-.8.36-1.5.34-1.9.28.13-.4.45-1.02 1.25-1.32.2-.08.7-.13 1.1-.16m-1.9 2.28c.5 0 1.1-.1 1.75-.4 1.22-.54.88-2.28.87-2.35l-.07-.32h-.32c-.12 0-1.24.05-1.72.23-1.6.64-1.8 2.23-1.8 2.3l-.02.3.28.1c.03 0 .43.15 1.05.15"/>
      <path fill="#FFF" d="M136.96 122.65s.07-1.93 2.24-2.18c.4-.05.92 0 .92 0s1 2.04-.14 2.22c-1.4.22-3.02-.05-3.02-.05"/>
      <path fill="#52267D" d="M139.87 120.83c.2.47.36 1.1.23 1.38-.02.04-.05.1-.18.1-.94.16-1.98.1-2.52.03.13-.5.54-1.33 1.84-1.48.2-.03.46-.03.63-.02m-1.17 2.34c.43 0 .9-.03 1.34-.1.42-.07.63-.32.73-.5.4-.76-.18-2.03-.3-2.27l-.1-.2-.2-.02c-.03 0-.57-.04-1 0-2 .24-2.56 1.78-2.6 2.56v.34l.33.05c.05 0 .84.14 1.8.14"/>
      <path fill="#FFF" d="M141.07 122.85s.37-2.14 2.27-1.47c.8.28 1.24.92 1.24.92s-.45 1.62-1.2 1.4c-1.32-.36-2.3-.85-2.3-.85"/>
      <path fill="#52267D" d="M144.15 122.38c-.12.37-.35.82-.56.94-.07.03-.1.03-.12.02-.86-.24-1.58-.54-1.96-.7.1-.28.28-.68.63-.88.28-.17.63-.17 1.06-.02.47.16.8.47.95.64m-.64 1.73c.17 0 .32-.03.46-.1.62-.36.93-1.4.98-1.6l.05-.17-.1-.14c-.03-.04-.52-.76-1.44-1.1-.65-.2-1.22-.18-1.7.1-.86.5-1.06 1.63-1.07 1.68l-.05.28.25.13c.04 0 1.03.5 2.37.87.08.03.16.04.24.04"/>
      <path fill="#F3E3FF" d="M160.58 119.4s-.06-.75-.8-1.06c-.23-.1-.6 0-.6 0s-.43.67.07.9c.72.36 1.33.16 1.33.16M157.17 118.88s0-1.4-1.57-1.62c-.3-.04-.66 0-.66 0s-.76 1.44.07 1.6c1 .18 2.17.02 2.17.02M152.7 119.5s-.17-1.24-1.27-.9c-.47.16-.72.52-.72.52s.24.94.68.83c.76-.2 1.33-.46 1.33-.46M134.1 122.98s.07-.75.82-1.04c.22-.1.84-.1.84-.1s.16.8-.35 1.02c-.7.34-1.3.12-1.3.12M137.8 122.32s.04-1.06 1.25-1.2c.22-.03.5 0 .5 0s.56 1.12-.07 1.22c-.78.13-1.67-.02-1.67-.02M141.83 122.7s.2-1.16 1.24-.8c.44.16.68.5.68.5s-.24.9-.66.78c-.73-.2-1.27-.47-1.27-.47"/>
      <path fill="#FFF" d="M146.5 134.7s-3.66.5-7.12-.4c-.36 1.9-.6 3.33-.6 3.33s2.4 1.67 6.86.77c.55-2.42.87-3.7.87-3.7"/>
      <path fill="#52267D" d="M145.32 138.08c-3.38.6-5.48-.3-6.12-.65l.48-2.65c2.6.6 5.22.45 6.33.35l-.68 2.95m-2.24.97c.78 0 1.66-.08 2.63-.27l.25-.05.06-.24c.56-2.43.88-3.72.88-3.72l.13-.55-.55.08c-.03 0-3.63.5-6.97-.36l-.4-.1-.07.4c-.36 1.9-.6 3.33-.6 3.33l-.03.23.2.14c.08.06 1.62 1.1 4.5 1.1"/>
      <path fill="#F3E3FF" d="M140.5 130.93l-4.14-.05c.03-2.1 1.74-3.78 3.83-3.75h.36c1.04.02 1.88.88 1.86 1.93 0 1.04-.87 1.88-1.9 1.87"/>
      <path fill="#FFF" d="M140.06 130.85l-3.63-.04c.02-1.64 1.37-2.96 3-2.94h.87c.77.02 1.38.65 1.37 1.42 0 .88-.74 1.58-1.6 1.57"/>
      <path fill="#52267D" d="M139.4 128.24h.04l.86.02c.26 0 .52.1.7.3.2.2.3.44.3.7-.02.34-.15.64-.38.86-.23.23-.53.35-.84.35l-3.23-.04c.2-1.24 1.27-2.2 2.55-2.2zm.68 3c.5 0 1-.2 1.37-.57.38-.37.6-.86.6-1.4 0-.46-.18-.9-.5-1.25-.33-.33-.77-.52-1.24-.53l-.85-.02h-.04c-1.82 0-3.33 1.48-3.35 3.32v.38l4 .05h.03z"/>
      <path fill="#52267D" d="M138.54 130.13c.2-.4.04-.9-.37-1.1-.4-.22-.9-.05-1.12.36-.2.4-.04.9.37 1.1.4.2.9.05 1.12-.37"/>
      <path fill="#F3E3FF" d="M154.9 127.5l4.16.06c.02-2.1-1.65-3.8-3.74-3.84h-.36c-1.05-.02-1.9.82-1.92 1.87 0 1.04.82 1.9 1.87 1.9"/>
      <path fill="#FFF" d="M155.26 127.44l3.73.05c0-1.65-1.3-3-2.95-3.03h-.75c-.82-.02-1.5.64-1.5 1.47-.02.82.64 1.5 1.46 1.5"/>
      <path fill="#52267D" d="M155.28 124.85h.77c1.3.02 2.36 1 2.53 2.25l-3.32-.04c-.3 0-.57-.12-.77-.33-.22-.2-.33-.5-.33-.8 0-.6.5-1.08 1.1-1.08zm4.08 3.03v-.38c.03-1.86-1.45-3.4-3.3-3.4l-.76-.02h-.02c-1.02 0-1.86.83-1.87 1.85 0 .5.2.97.54 1.33.35.36.82.56 1.3.57l4.12.05z"/>
      <path fill="#52267D" d="M157.95 126.63c-.36.3-.88.23-1.17-.12-.3-.35-.23-.88.12-1.16.36-.3.88-.24 1.17.12.3.35.23.88-.12 1.17M131.35 131.68c.24-.05.45-.18.6-.37l.28-.33-.62.12-.35.07c-.14.02-.23.16-.2.3.02.15.16.24.3.2M163.4 128.2c-.23-.06-.44-.2-.6-.4l-.26-.35.6.15.38.08c.14.03.23.17.2.3-.04.15-.18.24-.32.2"/>
      <path fill="#EAF3FB" d="M155 131.67s-3.1 1.28-6.2.03c.3 1.84.58 2.78.58 2.78s1.88.14 3.12-.1c1.78-.32 2.5-1.12 2.5-2.7"/>
      <path fill="#FFF" d="M150.68 133.97s2.8.27 5-.84"/>
      <path fill="#52267D" d="M151.48 134.38c1.03 0 2.83-.13 4.37-.9l-.34-.7c-2.06 1.05-4.76.8-4.8.8l-.06.77c.04 0 .36.03.84.03"/>
      <path fill="#EAF3FB" d="M140.7 135.03s2.74.8 5.17.36c-.48 1.8-.73 2.35-.73 2.35s-3.62-.53-4.43-2.72"/>
      <path fill="#F3E3FF" d="M141.86 160.7l.4.27"/>
      <path fill="#52267D" d="M142.16 161.13l.2-.32c-.22-.13-.38-.25-.4-.25l-.2.3s.16.13.4.28"/>
      <path fill="#FFF" d="M140.43 136.06s2.76.56 5.7.25"/>
      <path fill="#52267D" d="M144.23 136.8c.62 0 1.27-.04 1.93-.1l-.08-.77c-2.84.3-5.54-.24-5.57-.24l-.14.74c.1.02 1.75.35 3.87.35"/>
      <path fill="#FFF" d="M144.24 193.08s.74-.6 1.7.23c.9.75 1.54 1.9 1.14 2-.4.1-1.1.2-1.84.07-.64-.13-1.2 0-1.44-1.36-.12-.62.44-.92.44-.92"/>
      <path fill="#52267D" d="M144.9 193.07c.26 0 .57.08.92.38.78.66 1.25 1.5 1.2 1.7-.2.02-.92.2-1.74.03l-.26-.04c-.5-.08-.85-.13-1.04-1.16-.08-.48.34-.72.35-.73l.03-.02c.02 0 .22-.16.55-.16m1.1 2.56c.55 0 .98-.1 1.13-.14.13-.05.22-.15.25-.28.1-.47-.6-1.46-1.3-2.06-1-.83-1.8-.33-1.94-.24-.24.13-.64.53-.53 1.12.24 1.3.8 1.4 1.36 1.47.08.03.16.04.25.05.28.06.55.08.8.08"/>
      <path fill="#EAF3FB" d="M144.4 193.3s.47-.36 1.07.14c.54.47.95 1.18.7 1.24-.25.07-.68.13-1.14.04-.4-.07-.75 0-.9-.84-.07-.4.28-.58.28-.58"/>
      <path fill="#FFF" d="M143.2 193.06c-.38-.06-.95.78-.9 1.03.07.25.1 1.1.73 1.2.46.07 2.1.27 2.47-.1.33-.3-.3-1.85-2.3-2.14"/>
      <path fill="#52267D" d="M143.18 193.25c1.4.2 2.02 1.03 2.17 1.48.07.2.04.32 0 .35-.22.22-1.47.16-2.3.03-.36-.05-.46-.48-.52-.9l-.03-.15c0-.1.15-.4.4-.64.13-.12.22-.15.28-.15m1.27 2.36c.5 0 .97-.05 1.18-.25.16-.15.2-.42.08-.73-.22-.73-1.08-1.55-2.47-1.75-.26-.05-.52.17-.7.35-.2.22-.47.65-.4.92 0 .03 0 .08.02.13.06.36.18 1.1.85 1.22.12 0 .8.1 1.45.1"/>
      <path fill="#EAF3FB" d="M143.1 193.3c-.23-.04-.57.45-.53.6.03.15.05.65.42.7.26.06 1.23.17 1.45-.04.2-.2-.18-1.1-1.36-1.27"/>
      <path fill="#FFF" d="M141.57 193.2s.33-.17 1 .22c.57.34 1.44.9 1.2 1.55-.24.66-2.08.4-2.5.25-.4-.15-.65-.6-.58-1 .16-.85.87-1.02.87-1.02"/>
      <path fill="#52267D" d="M141.78 193.35c.14 0 .36.04.68.23.66.4 1.3.85 1.13 1.33-.18.46-1.78.3-2.26.14-.3-.1-.52-.47-.46-.78.14-.7.7-.87.73-.88h.05s.05-.03.13-.03m.83 2.24c.6 0 1.2-.13 1.35-.56.3-.85-.78-1.48-1.3-1.8-.65-.37-1.05-.26-1.15-.22-.12.03-.82.28-1 1.17-.1.48.23 1.02.7 1.2.2.07.8.2 1.4.2"/>
      <path fill="#EAF3FB" d="M141.44 193.43s.2-.1.58.13c.35.2.86.53.72.92-.14.4-1.23.24-1.47.15-.25-.1-.4-.35-.35-.6.1-.5.52-.6.52-.6"/>
      <path fill="#9452BA" d="M149.56 172.05s-.43 4.28.57 11.04c.93 6.3 2.7 8.28 2.55 9.9-.12 1.27-.66 2.4-1.92 2.4l-3.77-.05c-1.76-.02-3.3-1.17-3.84-2.84-.44-1.34-.9-3.18-1.15-5.5-.24-3.14-.13-6.3-.06-8.15"/>
      <path fill="#52267D" d="M150.78 196.16c1.5 0 2.48-1.15 2.66-3.08.08-.87-.24-1.72-.68-2.9-.57-1.54-1.35-3.65-1.88-7.2-.97-6.57-.57-10.82-.57-10.86l-1.5-.15c-.02.18-.43 4.46.57 11.24.56 3.7 1.4 6 1.97 7.5.38 1.04.63 1.72.58 2.23-.07.78-.33 1.7-1.14 1.7l-3.78-.04c-1.42-.03-2.68-.96-3.12-2.33-.52-1.62-.9-3.4-1.1-5.35-.27-3.3-.13-6.74-.08-8.03l-1.52-.08c-.08 2.08-.17 5.2.07 8.25.23 2.06.62 3.96 1.18 5.67.65 2 2.48 3.35 4.55 3.38l3.77.04h.03z"/>
      <path fill="#9452BA" d="M130.22 174.64c1.23 1.1 1.86 2.86 1.83 4.48-.04 2.17-1.33 4.9-.58 8.5.67 3.22 2.07 3.8 1.6 6.66-.08.52-.55.9-1.07.88l-4.2-.05c-1.92 0-3.56-1.44-3.85-3.35-.78-5.1-.07-9.92.65-13.6"/>
      <path fill="#52267D" d="M132.02 195.93c.9 0 1.67-.65 1.8-1.52.32-1.94-.14-3-.67-4.2-.32-.7-.68-1.53-.93-2.73-.47-2.23-.1-4.12.23-5.8.18-.88.35-1.73.36-2.53.05-1.96-.75-3.9-2.07-5.07l-1 1.14c.98.9 1.6 2.4 1.56 3.9-.03.68-.17 1.42-.34 2.3-.34 1.7-.76 3.85-.24 6.38.3 1.36.7 2.3 1.03 3.05.5 1.1.8 1.83.57 3.33-.02.14-.2.25-.3.24l-4.2-.05c-1.57-.02-2.88-1.17-3.12-2.72-.76-5.02-.05-9.77.65-13.34l-1.5-.3c-.72 3.7-1.45 8.6-.65 13.86.35 2.3 2.28 4 4.6 4l4.2.07h.02z"/>
      <path fill="#52267D" d="M129.16 180.18l1.44-.7-1.4-1.14-.62.2.12.35.4-.14.8.65-.7.35-.42-.27.27-.06.17.13.23-.3-.3-.24-1.34.3"/>
      <path fill="#FFF" d="M151.86 193.18s.74-.6 1.7.22c.88.75 1.54 1.9 1.14 2-.4.1-1.1.2-1.84.06-.64-.12-1.2 0-1.45-1.36-.1-.62.46-.92.46-.92"/>
      <path fill="#52267D" d="M154.4 195.07c-.3.07-.86.14-1.47.02l-.27-.06c-.48-.07-.72-.1-.88-1-.06-.35.25-.52.26-.52l.05-.04c.05-.04.53-.36 1.2.22.6.48 1 1.08 1.1 1.37m-.78.85c.54 0 .97-.1 1.17-.16.2-.05.34-.2.38-.4.14-.63-.74-1.7-1.37-2.25-.92-.77-1.8-.5-2.15-.24-.3.17-.74.62-.62 1.3.24 1.34.83 1.54 1.52 1.64.08 0 .16.02.23.04.3.06.58.08.84.08"/>
      <path fill="#EAF3FB" d="M152.02 193.4s.46-.37 1.06.14c.55.46.96 1.17.7 1.24-.24.07-.68.13-1.14.04-.4-.08-.75 0-.9-.84-.07-.4.28-.58.28-.58"/>
      <path fill="#52267D" d="M145.9 184.15l1.78-.1.27-1.7-1.65-.55-.12.36 1.34.44-.17 1.08-1.3.08-.48-.6.65-.34.4.12-.3.3.3.27.7-.75-1.14-.34-1.2.66"/>
      <g fill="#F3E3FF">
        <path d="M178.53 137.02c.28 0 .5-.23.5-.5h-.18c0 .08-.04.16-.1.22-.06.05-.13.1-.22.1-.17-.02-.3-.16-.3-.33h-.2c0 .14.05.27.14.36.1.1.22.16.36.16z"/>
        <path d="M179.35 137.03c.13 0 .26-.05.35-.15.1-.1.15-.22.15-.35h-.2c0 .08-.02.16-.08.22s-.14.1-.22.1c-.1 0-.17-.05-.22-.1-.06-.07-.1-.15-.1-.23h-.18c0 .13.04.26.14.35.08.1.2.16.34.16z"/>
        <path d="M178.94 137.43c.13 0 .25-.05.35-.14.08-.1.14-.23.14-.37h-.2c0 .08-.03.16-.1.22-.04.06-.12.1-.2.1-.18 0-.32-.15-.32-.33h-.2c0 .28.23.5.5.5h.02zM163 136.12c.12 0 .24-.03.35-.1l-.1-.17c-.1.07-.24.1-.38.06-.13-.02-.24-.1-.3-.22-.08-.1-.1-.25-.07-.38.04-.13.12-.24.23-.3l-.1-.18c-.16.1-.27.25-.3.43-.06.18-.03.37.07.53.13.22.36.34.6.34"/>
        <path d="M162.8 136.95c.1 0 .24-.03.35-.1l-.1-.17c-.1.07-.25.1-.38.06-.13-.03-.24-.1-.3-.23-.08-.1-.1-.24-.07-.37s.1-.25.23-.32l-.1-.15c-.16.1-.27.25-.32.43-.03.18 0 .37.1.53.12.23.35.35.6.35M143.2 150.08c.18 0 .34-.06.46-.18.13-.12.2-.28.2-.45h-.2c0 .12-.04.23-.13.3-.1.1-.2.14-.32.14-.24 0-.44-.22-.44-.47h-.2c0 .36.3.65.65.65z"/>
        <path d="M144.3 150.1c.36 0 .65-.3.65-.64h-.2c0 .25-.2.45-.44.45-.12 0-.23-.04-.32-.13-.08-.1-.13-.2-.12-.32h-.2c0 .17.07.33.2.45.1.13.27.2.44.2z"/>
        <path d="M143.75 150.64c.35 0 .64-.28.65-.64h-.2c0 .25-.2.45-.45.45s-.45-.2-.45-.46h-.2c0 .34.3.64.65.64zM159.13 185.08c.17 0 .33-.06.45-.18s.2-.28.2-.46h-.2c0 .12-.05.24-.13.32-.1.08-.2.13-.32.13-.13 0-.24-.06-.32-.15-.08-.08-.12-.2-.12-.32h-.2c0 .17.07.33.2.46.1.1.27.18.44.18z"/>
        <path d="M160.22 185.1c.36 0 .64-.3.65-.64h-.2c0 .24-.2.44-.45.44s-.45-.2-.45-.46h-.2c0 .36.3.65.65.65z"/>
        <path d="M159.67 185.64c.17 0 .33-.07.45-.2.12-.1.2-.27.2-.44h-.2c0 .12-.05.23-.13.32-.1.08-.22.14-.33.13-.13 0-.24-.05-.32-.14-.1-.08-.13-.2-.13-.3l-.2-.02c0 .18.07.34.2.46.1.13.27.2.44.2zM144.23 132.65c.38 0 .7-.3.7-.7h-.2c0 .28-.23.5-.5.5-.14 0-.27-.05-.37-.15-.1-.1-.14-.22-.14-.36h-.2c0 .2.08.36.2.5.14.13.3.2.5.2z"/>
        <path d="M144.82 133.26c.38 0 .7-.3.7-.7h-.2c0 .14-.05.27-.15.36-.1.1-.22.15-.35.15-.14 0-.27-.06-.36-.16-.1-.08-.15-.2-.15-.35h-.18c0 .2.07.36.2.5.13.13.3.2.5.2zM151.65 143.53c.22 0 .43-.08.58-.24.16-.16.25-.37.25-.6h-.2c0 .36-.28.64-.63.64s-.64-.3-.63-.65h-.2c0 .45.37.82.82.83z"/>
        <path d="M152.38 144.27c.2 0 .42-.08.57-.24.16-.15.25-.36.25-.58h-.2c0 .17-.06.33-.18.45s-.28.18-.44.18c-.18 0-.34-.07-.46-.2-.12-.1-.18-.27-.18-.45h-.2c0 .22.1.43.25.6.14.15.34.24.57.24zM162.74 125.2c.32 0 .58-.26.6-.58h-.2c0 .1-.05.2-.12.27-.08.06-.17.1-.28.1-.22 0-.4-.18-.4-.4h-.18c0 .16.06.3.16.42.1.1.26.17.42.17z"/>
        <path d="M163.22 125.7c.32 0 .6-.27.6-.6h-.2c0 .12-.04.2-.12.3-.07.06-.17.1-.28.1-.1 0-.2-.04-.28-.12-.07-.08-.1-.18-.1-.28h-.2c0 .32.26.6.58.6zM116.17 173.76h.04c.2 0 .35-.1.47-.22l-.15-.13c-.08.1-.2.16-.32.17-.1 0-.24-.03-.34-.1-.1-.1-.15-.2-.16-.33 0-.13.03-.25.12-.34l-.15-.13c-.1.13-.17.3-.16.48.02.18.1.34.24.45.12.1.27.16.43.16"/>
        <path d="M116.22 174.56c.2 0 .37-.08.5-.23l-.14-.12c-.17.2-.47.22-.66.06-.2-.17-.22-.47-.05-.67l-.14-.13c-.24.27-.2.7.06.93.12.1.27.16.42.16M138.47 166.44c.08 0 .17-.02.25-.05.2-.08.35-.2.43-.4l-.17-.08c-.13.28-.47.4-.75.27-.28-.14-.4-.48-.27-.76l-.17-.08c-.2.37-.03.83.35 1 .1.05.2.08.32.08"/>
        <path d="M139.66 167c.3 0 .56-.16.7-.43l-.2-.08c-.05.12-.16.23-.3.28-.15.05-.3.04-.44-.02-.28-.14-.4-.47-.27-.76l-.17-.08c-.18.38-.02.83.36 1 .1.06.2.08.32.08"/>
        <path d="M138.78 167.32c.1 0 .18-.02.26-.05.2-.06.34-.2.43-.4l-.17-.07c-.07.14-.18.24-.32.3-.15.05-.3.04-.44-.03-.13-.06-.24-.17-.3-.32-.04-.14-.03-.3.03-.43l-.17-.08c-.1.18-.1.4-.03.58.07.2.2.34.4.43.1.05.2.07.3.07"/>
        <path d="M139.98 167.88c.08 0 .17 0 .25-.04.2-.07.35-.2.43-.4l-.17-.07c-.14.28-.48.4-.76.27s-.4-.47-.27-.76l-.17-.08c-.18.38-.02.83.36 1 .1.06.2.08.32.08M137.9 167.64c.3 0 .56-.17.7-.44l-.18-.08c-.14.28-.47.4-.76.27-.13-.07-.24-.2-.3-.33-.04-.14-.03-.3.03-.43l-.18-.1c-.08.2-.1.4-.03.6.06.18.2.34.38.42.1.05.22.08.32.08M150.36 130.17c.4 0 .75-.33.76-.75h-.2c0 .3-.25.56-.56.56-.32 0-.58-.26-.57-.58h-.2c0 .42.33.77.75.77zM150.27 155.43c.42 0 .76-.33.76-.75h-.2c0 .3-.25.56-.56.56-.32 0-.57-.26-.57-.58h-.2c0 .42.34.77.76.77zM143.06 141.26c.32 0 .6-.27.6-.6h-.2c0 .22-.18.4-.4.4-.12 0-.22-.04-.3-.12-.07-.08-.1-.18-.1-.3h-.2c0 .17.05.32.17.43.1.12.26.18.42.2zM131.3 129.47c.13 0 .25-.04.34-.13.1-.1.14-.2.14-.34h-.2c0 .08-.02.15-.08.2-.05.05-.12.08-.2.08-.15 0-.28-.13-.28-.3h-.2c0 .27.22.5.48.5zM127.18 185.46c.15 0 .3-.05.43-.13.18-.12.3-.3.33-.5l-.2-.03c-.02.15-.1.28-.23.37-.12.08-.28.12-.43.1-.15-.04-.28-.12-.36-.25-.08-.13-.1-.28-.08-.43l-.2-.04c-.03.2 0 .4.13.57.1.17.3.28.5.32h.13M145.45 190.8c.22 0 .42-.1.57-.24.16-.16.25-.36.25-.58h-.2c0 .16-.06.32-.18.44-.13.12-.28.18-.45.18-.18 0-.34-.07-.46-.2-.13-.1-.2-.27-.2-.44h-.18c0 .2.08.42.24.58.15.16.36.25.58.25z"/>
        <path d="M146.17 191.54c.45 0 .82-.37.83-.82h-.2c0 .34-.28.62-.63.62-.18 0-.34-.07-.46-.2-.1-.1-.17-.27-.17-.44h-.2c0 .22.1.43.25.6.15.14.36.23.58.24z"/>
      </g>
      <path fill="#FFF" d="M150.82 193.15c-.4-.05-.96.78-.9 1.04.06.25.1 1.1.72 1.2.46.07 2.1.26 2.47-.1.35-.32-.28-1.85-2.28-2.15"/>
      <path fill="#52267D" d="M150.78 193.53c1.17.18 1.68.8 1.85 1.05.17.26.2.45.18.5-.14.1-1.18.1-2.1-.06-.24-.04-.32-.4-.37-.74 0-.07-.02-.13-.03-.18.02-.1.33-.52.48-.57m1.26 2.37c.55 0 1.08-.07 1.34-.32.2-.2.25-.54.13-.93-.22-.72-1.05-1.64-2.63-1.88-.28-.04-.57.1-.85.4-.22.25-.55.74-.47 1.1l.03.13c.06.37.2 1.24 1 1.37.27.05.87.13 1.46.13"/>
      <path fill="#EAF3FB" d="M150.7 193.38c-.22-.03-.56.46-.52.62.04.15.06.65.42.7.28.05 1.25.17 1.46-.04.2-.2-.17-1.1-1.35-1.28"/>
      <path fill="#FFF" d="M149.44 193.55s.3-.15.88.2c.5.3 1.28.78 1.07 1.37-.23.58-1.86.34-2.22.2-.36-.12-.58-.5-.5-.86.14-.76.76-.9.76-.9"/>
      <path fill="#52267D" d="M149.63 193.9c.08 0 .24.02.5.17.25.15 1 .6.9.92-.15.18-1.3.12-1.72-.03-.18-.06-.3-.3-.26-.44.1-.48.46-.6.5-.6l.04-.03h.05m.73 1.97c.6 0 1.2-.13 1.38-.62.33-.92-.76-1.56-1.23-1.84-.62-.36-1.03-.27-1.18-.2-.33.08-.88.42-1.03 1.18-.1.55.22 1.12.75 1.3.14.06.72.2 1.3.2"/>
      <path fill="#EAF3FB" d="M149.33 193.76s.17-.1.52.1c.3.2.75.48.63.82-.13.35-1.1.2-1.3.13-.22-.06-.35-.3-.3-.5.08-.45.45-.54.45-.54"/>
      <path fill="#FFF" d="M164.9 193.9s.28-.14.86.2c.52.3 1.28.8 1.07 1.37-.2.6-1.84.35-2.2.22-.36-.14-.58-.54-.52-.88.16-.76.8-.9.8-.9"/>
      <path fill="#52267D" d="M165.08 194.26c.08 0 .24.02.5.17.24.15 1 .6.9.92-.15.2-1.3.13-1.72-.02-.2-.07-.3-.3-.27-.44.08-.5.44-.6.48-.62l.05-.02h.05m.73 1.97c.6 0 1.2-.13 1.4-.63.32-.9-.78-1.55-1.24-1.83-.63-.37-1.04-.28-1.2-.23-.32.1-.87.44-1.02 1.2-.1.54.23 1.12.76 1.3.13.06.72.2 1.3.2"/>
      <path fill="#EAF3FB" d="M164.77 194.12s.18-.1.52.1c.3.2.75.48.63.82-.13.35-1.1.2-1.3.13-.22-.08-.36-.3-.32-.52.1-.44.47-.53.47-.53"/>
      <path fill="#FFF" d="M163.1 193.47c-.38-.06-.95.78-.9 1.04.07.26.1 1.1.73 1.2.46.1 2.1.28 2.47-.07.33-.33-.3-1.86-2.3-2.16"/>
      <path fill="#52267D" d="M163.07 193.85c1.16.18 1.68.8 1.85 1.05.16.25.2.45.18.5-.15.1-1.2.08-2.1-.06-.25-.04-.33-.4-.4-.75 0-.08 0-.13-.02-.18.03-.1.33-.52.5-.57m1.25 2.37c.54 0 1.08-.07 1.33-.32.2-.2.26-.54.13-.93-.24-.72-1.07-1.65-2.64-1.88-.28-.05-.58.1-.86.4-.2.23-.55.72-.46 1.1 0 .03 0 .07.02.12.06.37.2 1.24 1 1.37.28.04.88.12 1.47.12"/>
      <path fill="#EAF3FB" d="M163 193.7c-.24-.03-.57.46-.53.6.03.17.05.67.42.73.26.04 1.23.15 1.44-.06.2-.2-.17-1.1-1.35-1.27"/>
      <path fill="#FFF" d="M131.5 192.92s.73-.6 1.7.23c.88.74 1.53 1.88 1.13 2-.4.1-1.1.2-1.84.06-.65-.12-1.2 0-1.45-1.35-.12-.63.44-.93.44-.93"/>
      <path fill="#52267D" d="M132.16 192.9c.25 0 .56.1.9.4.8.65 1.26 1.5 1.2 1.68-.18.03-.9.2-1.73.04l-.26-.04c-.5-.08-.85-.13-1.04-1.17-.08-.47.35-.7.35-.7l.03-.03c.03 0 .23-.16.56-.16m1.1 2.57c.53 0 .97-.1 1.12-.15.13-.03.22-.13.25-.26.1-.47-.6-1.46-1.3-2.06-1-.83-1.8-.33-1.94-.24-.24.13-.65.53-.54 1.12.23 1.3.8 1.4 1.35 1.47l.26.04c.27.05.54.07.8.07"/>
      <path fill="#EAF3FB" d="M131.66 193.14s.46-.36 1.06.14c.54.47.95 1.17.7 1.24-.25.07-.68.13-1.14.04-.4-.07-.75 0-.9-.84-.07-.4.28-.58.28-.58"/>
      <path fill="#FFF" d="M130.45 192.9c-.38-.06-.95.78-.9 1.03.07.26.1 1.1.73 1.2.46.08 2.1.28 2.47-.08.33-.32-.3-1.86-2.3-2.15"/>
      <path fill="#52267D" d="M130.43 193.08c1.4.2 2.02 1.04 2.17 1.5.07.2.04.3 0 .33-.22.24-1.47.18-2.3.05-.36-.06-.46-.5-.52-.9 0-.06-.02-.12-.03-.16 0-.1.15-.42.4-.65.13-.13.22-.16.28-.17m1.27 2.37c.5 0 .97-.06 1.18-.26.16-.16.2-.43.08-.74-.23-.73-1.1-1.55-2.48-1.75-.27-.04-.52.18-.7.36-.2.22-.47.65-.4.92 0 .03 0 .08.02.13.06.37.18 1.12.85 1.23.12.02.8.12 1.45.12"/>
      <path fill="#EAF3FB" d="M130.34 193.13c-.22-.04-.56.46-.52.6.03.16.05.66.42.72.27.05 1.24.16 1.46-.05.2-.2-.18-1.1-1.36-1.27"/>
      <path fill="#FFF" d="M129.08 193.3s.3-.16.87.2c.52.3 1.28.77 1.07 1.36-.2.6-1.84.35-2.2.22-.36-.13-.6-.53-.52-.88.15-.75.78-.9.78-.9"/>
      <path fill="#52267D" d="M129.27 193.45c.1 0 .3.04.6.2.56.34 1.12.74.97 1.14-.13.38-1.55.24-1.96.1-.26-.1-.44-.4-.4-.66.13-.62.62-.76.64-.76h.04c0-.02.04-.03.1-.03m.73 1.98c.53 0 1.06-.1 1.2-.5.28-.77-.7-1.34-1.15-1.6-.58-.35-.94-.26-1.04-.22-.1.05-.73.26-.88 1.06-.1.45.2.94.64 1.1.17.06.7.17 1.23.17"/>
      <path fill="#EAF3FB" d="M128.96 193.5s.18-.1.52.1c.3.2.76.48.63.83-.1.35-1.08.2-1.3.13-.2-.08-.34-.32-.3-.52.1-.45.46-.54.46-.54"/>
      <path fill="#FFF" d="M158.02 193.77c-.12-.1-.27-.13-.4-.08-.43.2-1.56.78-1.34 1.6.17.62.56.44 1.3.46l.54.02c.12 0 .22-.06.3-.16.3-.53.15-1.37-.36-1.82l-.04-.03z"/>
      <path fill="#52267D" d="M157.8 194.04l-.03.02.04.03c.38.3.5.95.28 1.32l-.5-.04h-.44c-.43.02-.44.02-.5-.2-.13-.5.85-1 1.15-1.14zm.34 2.12c.24 0 .46-.13.6-.34.4-.7.22-1.74-.43-2.3l-.03-.04c-.23-.2-.54-.25-.8-.14-1.64.76-1.68 1.6-1.56 2.05.23.78.8.76 1.26.75H158.15z"/>
      <path fill="#EAF3FB" d="M157.96 193.95c-.1-.08-.2-.1-.28-.06-.33.14-1.15.57-.98 1.15.12.46.4.33.93.35h.4c.1 0 .16-.03.2-.1.25-.4.13-1-.24-1.33l-.04-.02z"/>
      <path fill="#FFF" d="M160.62 193.56s.7-.65 1.7.08c.95.67 1.7 1.75 1.3 1.9-.38.13-1.07.3-1.8.2-.66-.06-1.22.1-1.57-1.22-.16-.62.37-.96.37-.96"/>
      <path fill="#52267D" d="M163.3 195.23c-.3.1-.84.2-1.45.14-.1 0-.18 0-.27-.02-.48-.03-.73-.05-.96-.93-.1-.32.16-.5.2-.54l.06-.04c.04-.04.5-.4 1.23.1.63.44 1.07 1 1.2 1.3m-1.08.92c.72 0 1.3-.18 1.55-.27.2-.08.32-.25.35-.45.08-.63-.9-1.64-1.57-2.12-.98-.7-1.83-.37-2.17-.07-.28.2-.68.68-.5 1.36.35 1.3.96 1.45 1.65 1.5h.24c.15.03.3.04.45.04"/>
      <path fill="#EAF3FB" d="M160.8 193.77s.43-.4 1.07.04c.58.43 1.05 1.1.8 1.2-.23.08-.66.18-1.13.13-.4-.05-.75.06-.97-.77-.1-.38.23-.6.23-.6"/>
      <g>
        <g transform="translate(66 146)">
          <use fill="#FFF" xlink:href="#m"/>
          <path stroke="#4A6286" d="M11.5 67.5h102V8c0-4.14-3.36-7.5-7.5-7.5H19c-4.14 0-7.5 3.36-7.5 7.5v59.5z"/>
        </g>
        <g transform="translate(66 146)">
          <use fill="#5A749A" xlink:href="#n"/>
          <path stroke="#4A6286" d="M16.5 63.5h91V9c0-1.93-1.57-3.5-3.5-3.5H20c-1.93 0-3.5 1.57-3.5 3.5v54.5z"/>
        </g>
        <g transform="translate(89 159)">
          <rect width="69" height="3.06" fill="#ACE9D8" rx="1.53"/>
          <rect width="34.5" height="3.06" y="7.13" fill="#ACE9D8" rx="1.53"/>
          <rect width="44.65" height="3.06" y="28.54" fill="#ACE9D8" rx="1.53"/>
          <rect width="23.34" height="3.06" y="14.27" fill="#D9DDE2" rx="1.53"/>
          <rect width="23.34" height="3.06" y="35.67" fill="#D9DDE2" rx="1.53"/>
          <rect width="12.18" height="3.06" y="42.81" fill="#D9DDE2" rx="1.53"/>
          <rect width="58.02" height="3.06" y="21.4" fill="#FFA18D" rx="1.53"/>
          <rect width="29.01" height="3.06" y="49.94" fill="#FFA18D" rx="1.53"/>
        </g>
        <g transform="translate(66 146)">
          <use fill="#EFEFF6" xlink:href="#o"/>
          <path stroke="#375D81" d="M.5 69.5h122V65c0-.83-.67-1.5-1.5-1.5H2c-.83 0-1.5.67-1.5 1.5v4.5z"/>
        </g>
      </g>
    </g>
    <g>
      <g transform="translate(195 184)">
        <use fill="#FFF" xlink:href="#p"/>
        <path stroke="#375D81" d="M2.54 7.5l1.7 24h16.5l1.72-24H2.54z"/>
      </g>
      <g transform="translate(195 184)">
        <use fill="#E1F2FF" xlink:href="#q"/>
        <path stroke="#375D81" d="M3.08 14.5l.74 10h17.4l.7-10H3.1z"/>
      </g>
      <g transform="translate(195 184)">
        <use fill="#FFF" xlink:href="#r"/>
        <path stroke="#375D81" d="M2.2 3.5l-1.53 5h24.66l-1.53-5H2.2z"/>
      </g>
      <g transform="translate(195 184)">
        <use fill="#FFF" xlink:href="#s"/>
        <path stroke="#375D81" d="M5.1.54L3.78 3.5h16.5l-.52-1.26L5.1.54z"/>
      </g>
      <g stroke="#4A6286" stroke-linecap="round">
        <path d="M203 169c-.67.56-1 1.26-1 2.1 0 1.27 1 1.48 1 2.9 0 1.43-1 1.56-1 2.8 0 .83.33 1.56 1 2.2M207 169c-.67.56-1 1.26-1 2.1 0 1.27 1 1.48 1 2.9 0 1.43-1 1.56-1 2.8 0 .83.33 1.56 1 2.2M211 169c-.67.56-1 1.26-1 2.1 0 1.27 1 1.48 1 2.9 0 1.43-1 1.56-1 2.8 0 .83.33 1.56 1 2.2"/>
      </g>
    </g>
    <path fill="#9ACDED" d="M165 93.8V92.5l7.86-.02c.7-5.3 5.3-9.38 10.7-9.38.6 0 1.2.05 1.8.15C187.7 77.1 193.58 73 200.2 73c8.73 0 15.85 7.1 15.85 15.86 0 1.2-.14 2.4-.42 3.6h9.75c.36 0 .66.3.66.66 0 .36-.3.66-.66.66h-11.5l.26-.85c.4-1.33.6-2.7.6-4.07 0-8.02-6.53-14.54-14.55-14.54-6.25 0-11.8 3.97-13.78 9.88l-.2.56-.57-.13c-.7-.15-1.4-.23-2.08-.23-4.93 0-9.1 3.85-9.46 8.77l-.04.6-9.06.04zM133 77.8v-.62h3.7c.34-2.5 2.5-4.43 5.05-4.43.28 0 .57.03.85.07 1.1-2.9 3.87-4.82 6.98-4.82 4.13 0 7.48 3.35 7.48 7.48 0 .56-.07 1.13-.2 1.7h4.6c.17 0 .3.13.3.3 0 .17-.13.3-.3.3h-5.42l.12-.38c.18-.63.28-1.28.28-1.92 0-3.78-3.08-6.86-6.86-6.86-2.94 0-5.54 1.87-6.5 4.66l-.08.26-.27-.06c-.32-.07-.65-.1-.98-.1-2.32 0-4.28 1.8-4.46 4.13l-.03.3H133z"/>
    <path stroke="#375D81" d="M62.5 91.5v15.02" stroke-linecap="square"/>
    <path stroke="#375D81" d="M62.5 106.5l-19 11M62.5 106.5l24 18" stroke-linecap="round"/>
    <circle cx="62.5" cy="106.5" r="1.5" fill="#FFF" stroke="#375D81"/>
  </g>
</svg>