<svg width="90" height="76" xmlns="http://www.w3.org/2000/svg">
  <g fill="none" fill-rule="evenodd">
    <path d="M42.099 62c9.094 0 20.378-1.614 25.89-8.394C72.539 48.009 78 31.308 78 23.332 78 5.694 59.733 4.1 43.353 1.572c-9.411-1.452-22.055-3.77-27.57 3.15-4.433 5.565-3.744 17.481-3.744 25.342C12.039 47.702 25.497 62 42.099 62z" fill="#9093CC"/>
    <path d="M41.465 38.973c1.752-.157 2.662-.782 2.52-2.02-.14-1.23-1.173-1.681-2.246-1.463-.779.158-2.014.393-3.226-.29-2.53-1.426-2.532-6.075-.568-8.02 1.303-1.289 2.552-.92 3.474-.84 1.063.093 2.295-.273 2.343-1.518.037-.984-.97-1.683-1.914-1.762-3.372-.283-7.498.236-8.627 6.037-.451 2.317-.37 5.028 1.783 7.607 1.533 1.834 4.59 2.437 6.461 2.27zm7.24.026c1.714-.023 4.143-.305 6.044-.77a1.68 1.68 0 001.247-1.771c-.077-1.228-.979-1.586-1.489-1.572-1.49.04-5.577.624-5.577.624l-.069-3.143s3.009-.192 4.304-.49c1.593-.368 1.364-3.231-.826-3.212-1.042.01-3.419.153-3.419.153l-.054-2.178s3.83-.06 5.038-.148c.982-.073 2.092-.587 1.904-2.014-.153-1.17-1.435-1.422-2.459-1.44-1.148-.019-4.027-.132-5.835.151-.602.094-1.447.97-1.471 1.991L46 34.62c.11 2.955.015 4.417 2.704 4.38z" fill="#FFF" fill-rule="nonzero"/>
  </g>
</svg>
