<svg width="1470" height="938" xmlns="http://www.w3.org/2000/svg">
  <g fill="none" fill-rule="evenodd">
    <path d="M357 778c0-225.884 186.026-409 415.5-409S1188 552.116 1188 778H357z" fill="#E1F2FF" fill-rule="nonzero"/>
    <g transform="matrix(-1 0 0 1 529 196)">
      <path d="M89.632 186h8.735c2.998.008 5.695-1.915 6.795-4.846 3.092-8.351 2.323-16.023 2.69-22.594.682-12.17-1.118-18.355-2.847-28.56l-13.05.312s1.119 5.048 1.852 20.19c.227 4.699-7.144 23.53-6.795 32.763.037 1.501 1.192 2.706 2.62 2.735h0zM64.845 142.559L53.94 130l-6.742.276s-.945 10.441-1.327 14.732a208.937 208.937 0 01-5.78 29.463 26.925 26.925 0 00-1.09 6.003 5.452 5.452 0 001.564 3.94A5.307 5.307 0 0044.453 186h8.015c4.671.022 8.767-3.158 9.96-7.734 3.489-14.143 2.417-35.706 2.417-35.706z" stroke="#52267D" stroke-width="2" fill="#9452BA" fill-rule="nonzero"/>
      <path stroke="#52267D" stroke-width=".5" d="M49.6 150l-1.6 1.526L49.52 153l2.48-1.023-.496-1.18-2.048.52.016.4.528-.018"/>
      <path d="M49.207 96.522c7.866-.162 15.228-5.599 31.282-6.337.196-.953.49-1.882.88-2.773 2.909-6.301 7.003-24.468 4.363-36.405l-2.083-9.452a43.807 43.807 0 01-1.023-9.434h0c.002-1.295.134-2.586.395-3.853.06-.312.131-.618.215-.918.234-.91.534-1.8.898-2.665a17.704 17.704 0 011.257-2.467c.323-.528.665-1.038 1.024-1.53a19.24 19.24 0 013.878-3.889c.491-.372 1-.714 1.527-1.026A18.98 18.98 0 01101.732 13h3.125a19.01 19.01 0 0113.504 5.617 19.195 19.195 0 013.125 4.123c.215.36.412.739.592 1.117s.27.558.377.846a19.07 19.07 0 011.4 5.491c.064.652.093 1.307.09 1.963h0a4.778 4.778 0 01-1.393 3.373 4.752 4.752 0 01-3.365 1.398H99.63l2.963 17.014c3.466 17.482 2.424 29.167-.27 36.963-.592 1.8-4.022 7.904-4.022 7.904 9.787 15.466 24.781 22.235 40.817 24.198 13.63 1.674 43.097-10.803 27.888-25.206-15.21-14.404 3.16-5.402 5.854-3.601 2.693 1.8 18.298 15.34 1.364 35.18-7.182 8.39-15.281 16.006-34.783 21.858-3.124.936-20.201 2.178-29.414 4.825-27.384 7.886-49.633-.684-62.114-18.815-12.48-18.13-1.813-40.672 1.293-40.726z" stroke="#52267D" stroke-width="2" fill="#9452BA" fill-rule="nonzero"/>
      <path d="M65.586 70.052c.667-20.116-15.545-35.912-33.757-39.267-3.8-.696-5.025-1.785-9.186-1.785h-3.225C8.694 29 0 37.614 0 48.24c0 2.652 2.17 4.802 4.846 4.802H37.63c7.205 3.034 11.708 12.173 12.501 17.081a27.648 27.648 0 01-2.108 17.42 18.676 18.676 0 00-1.53 9.888h.18c.14 1.876.43 3.738.864 5.569 3.08-2.124 7.854-5.355 8.718-5.765 1.802-.982 6.143-3.23 8.052-4.32 12.213-6.942.92-11.458 1.28-22.863z" stroke="#52267D" stroke-width="2" fill="#9452BA" fill-rule="nonzero"/>
      <path d="M56.484 94.125c-.17-3.146-.662-4.755-.303-6.04C58.3 80.728 59 78.396 59 70.604c-.19-7.975-4.6-15.314-11.71-19.49-3.273-.423-6.59.352-9.29 2.169 7.568 3.074 12.297 12.33 13.13 17.303 1.268 5.956.492 12.144-2.214 17.645a18.318 18.318 0 00-1.608 10.017s9.44 3.363 9.176-4.122" stroke="#52267D" fill="#F3E3FF" fill-rule="nonzero"/>
      <path d="M10 31.72c.104-2.034 1.403-3.823 3.33-4.587L16.195 26s1.976 4.115-.267 5.144a8.619 8.619 0 01-5.929.575z" stroke="#52267D" fill="#FFF" fill-rule="nonzero"/>
      <path d="M17 29.67c.179-3.06 2.473-5.48 5.317-5.61.957-.134 3.438 0 3.438 0s1.152 5.171-1.542 5.725A24.264 24.264 0 0117 29.67h0zM29 30.071s.739-5.266 5.695-3.82A6.96 6.96 0 0138 28.402s-.991 4.024-2.955 3.56A39.23 39.23 0 0129 30.073h0zM42 55.215S53.306 49.17 51.083 39a60.877 60.877 0 016.915 6.81c0 1.997.377 9.89-10.646 15.19A61.412 61.412 0 0042 55.215h0z" stroke="#52267D" fill="#FFF" fill-rule="nonzero"/>
      <path d="M11 31.852c.059-1.028.821-1.926 1.936-2.282l1.608-.57s1.123 2.047-.155 2.567a5.435 5.435 0 01-3.389.285zM21 28.847c.076-1.532 1.079-2.754 2.335-2.847h1.557s.514 2.62-.7 2.885A9.613 9.613 0 0121 28.847zM30 30.045s.325-2.653 2.537-1.915A3.08 3.08 0 0134 29.22s-.439 2.02-1.317 1.756A15.945 15.945 0 0130 30.045z" fill="#F3E3FF" fill-rule="nonzero"/>
      <path d="M25.774 40.072h.848c2.418 0 4.378 1.999 4.378 4.464C31 47.001 29.04 49 26.622 49H17c0-4.97 3.952-9 8.827-9l-.053.072z" fill="#F3E3FF" fill-rule="nonzero" opacity=".3"/>
      <path d="M24.349 44h1.884C28.313 44 30 45.567 30 47.5h0c0 1.933-1.687 3.5-3.767 3.5h-9.23 0c-.051-1.84.7-3.621 2.083-4.94C20.47 44.742 22.367 44 24.35 44h0z" stroke="#52267D" fill="#FFF" fill-rule="nonzero"/>
      <circle fill="#52267D" fill-rule="nonzero" cx="20" cy="49" r="2"/>
      <path d="M4.787 51.993c.594-.071 1.124-.252 1.501-.512L7 51l-1.559.178-.923.104a.792.792 0 00-.416.158c-.094.08-.125.178-.085.27.033.094.132.176.277.23.144.052.322.072.493.053z" fill="#52267D" fill-rule="nonzero"/>
      <path d="M44 55.277S52.488 50.875 52.358 42A17.084 17.084 0 0157 46.206a13.976 13.976 0 01-2.681 6.344c-3.144 3.28-6.417 4.295-10.319 2.727z" fill="#EAF3FB" fill-rule="nonzero"/>
      <path d="M51 53a27.765 27.765 0 01-6 4" stroke="#52267D" fill="#FFF" fill-rule="nonzero"/>
      <path d="M84 87.985l-1.834-3.576c-7.005-16.768-8.087-26.618-4.456-42.618l2.09-9.403a42.342 42.342 0 001.046-9.367h0C80.846 12.516 72.111 4 61.335 4h-3.136C47.59 4.02 39 12.41 39 22.753v.536c0 2.468 2.052 4.47 4.584 4.47H63.48l-3.025 16.893c-9.169 45.281-8.325 63.64 9.884 59.869" stroke="#52267D" stroke-width="2" fill="#9452BA" fill-rule="nonzero"/>
      <path d="M49 6.68c.293-2.452 1.676-4.54 3.634-5.482a4.362 4.362 0 012.6 0s1.925 3.507-.328 4.76c-1.83 1.069-3.927 1.326-5.906.723z" stroke="#52267D" fill="#FFF" fill-rule="nonzero"/>
      <path d="M56 5.719C56.202 2.668 58.872.234 62.22.05a16.718 16.718 0 012.596 0s2.876 5.192-.336 5.703c-2.815.34-5.668.329-8.48-.034zM67 6.948s.867-5.215 5.77-3.658A6.89 6.89 0 0176 5.504s-1.083 3.958-3.033 3.451A38.919 38.919 0 0167 6.948z" stroke="#52267D" fill="#FFF" fill-rule="nonzero"/>
      <path d="M49 95a10.167 10.167 0 013-1M55.735 96.443c-3.155-12.98 2.535-37.754 3.546-43.92L63.447 28h1.772a4.151 4.151 0 012.876 1.612c.7.914 1 2.08.83 3.224l-2.997 21.232c-1.01 7.192-2.074 40.47 10.247 47.624 2.623 1.529 6.895.522 8.509-.251 5.85-2.84 7.534-10.248 8.863-16.18 2.66-12.352.585-22.042 0-31.732l-.585-12.081c-.116-2.257 1.525-4.214 3.74-4.459h2.199l3.97 24.486c1.188 6.976 4.255 31.138-9.785 42.483-.248.197 3.422 1.042 2.358 2.948-4.22 7.569-16.469 8.773-18.773 12.01-8.864 12.476-.567 39.084-.567 39.084a63.502 63.502 0 01-15.955-9.528c-14.181-12.963-16.078-31.75-16.149-37.27 0-6.615 1.63-10.786 3.74-13.16" stroke="#52267D" fill="#F3E3FF" fill-rule="nonzero"/>
      <path d="M173.907 107c1.092-1.462 1.391-3.47.782-5.25a4.364 4.364 0 00-1.407-1.75s-2.781.543-2.203 2.642c.429 1.795 1.437 3.347 2.828 4.358h0z" stroke="#52267D" fill="#FFF" fill-rule="nonzero"/>
      <path d="M172.734 105c.257-.63.334-1.473.204-2.239a2.063 2.063 0 00-.362-.761s-.703.246-.556 1.187c.123.751.376 1.393.714 1.813z" fill="#F3E3FF" fill-rule="nonzero"/>
      <path d="M156.455 123c-1.22-2.663.086-5.68 3.047-7.04a16.644 16.644 0 012.36-.96s5.045 3.426 2.341 4.968a34.203 34.203 0 01-7.748 3.032h0z" stroke="#52267D" fill="#FFF" fill-rule="nonzero"/>
      <path d="M158.204 119c-.546-1.333.037-2.845 1.358-3.521a6.951 6.951 0 011.05-.479s2.232 1.683 1.035 2.486a14.234 14.234 0 01-3.443 1.514z" fill="#F3E3FF" fill-rule="nonzero"/>
      <path d="M170.436 108s3.42 3.04.146 5.766a5.618 5.618 0 01-3.038 1.234s-2.42-2.616-1.2-3.684a30.994 30.994 0 014.092-3.316z" stroke="#52267D" fill="#FFF" fill-rule="nonzero"/>
      <path d="M170.254 110s1.678 1.296 0 2.467a3.013 3.013 0 01-1.496.533s-1.193-1.118-.586-1.598c.647-.519 1.344-.988 2.082-1.402z" fill="#F3E3FF" fill-rule="nonzero"/>
      <path d="M140.137 125.675c-.601-2.561.835-5.163 3.228-5.85 4.335-1.672 5.495-.285 5.495-.285s2.39 4.292.25 5.698c-2.141 1.405-8.973.437-8.973.437z" stroke="#52267D" fill="#FFF" fill-rule="nonzero"/>
      <path d="M142.08 124.878c-.355-1.102.504-2.22 1.937-2.52 2.596-.724 3.297-.126 3.297-.126s1.442 1.843.144 2.441c-1.755.35-3.586.42-5.378.205z" fill="#F3E3FF" fill-rule="nonzero"/>
      <path d="M61.357 33A21.579 21.579 0 0078 33.364c-.66 2.927-2.036 8.798-2.036 8.798S67.036 44.847 60 40.604C60.732 36.74 61.357 33 61.357 33zM114 15.705c-.267-2.29-1.55-4.243-3.372-5.133A14.06 14.06 0 00107.12 10s-.725 3.948 1.383 5.034c1.704.99 3.655 1.229 5.497.671h0zM107 15.717c-.18-3.05-2.585-5.484-5.6-5.667a13.569 13.569 0 00-2.336 0s-2.588 5.198.309 5.706a27.75 27.75 0 007.627-.04h0zM97 13.915s-.88-5.113-5.772-3.653A6.853 6.853 0 0088 12.563s1.096 3.871 3.033 3.397A39.444 39.444 0 0097 13.915z" stroke="#52267D" fill="#FFF" fill-rule="nonzero"/>
      <path d="M51 5.846A3.467 3.467 0 0153.072 3.1a2.81 2.81 0 011.49 0s1.104 1.75-.193 2.367A4.705 4.705 0 0151 5.846zM59 3.814c.122-2.034 1.717-3.656 3.717-3.78a8.936 8.936 0 011.547 0s1.779 3.455-.195 3.799c-1.683.229-3.388.223-5.069-.019zM70 5.968s.395-2.603 2.57-1.822A3.06 3.06 0 0174 5.252s-.487 1.985-1.354 1.724A16.027 16.027 0 0170 5.968zM114 13.84c-.157-1.148-.895-2.124-1.938-2.56a8.967 8.967 0 00-1.992-.28s-.416 1.869.779 2.523c.978.497 2.098.61 3.151.318zM104 12.859c-.084-1.524-1.15-2.738-2.487-2.834a5.363 5.363 0 00-1.04 0s-1.151 2.604.139 2.852c1.125.17 2.265.164 3.388-.018zM95 12.98s-.382-2.62-2.566-1.832c-.569.212-1.068.599-1.434 1.113 0 0 .478 1.987 1.355 1.713.906-.251 1.79-.584 2.645-.993z" fill="#F3E3FF" fill-rule="nonzero"/>
      <path d="M84 40.656A48.785 48.785 0 00100.698 40 397.458 397.458 0 01102 47.712s-5.637 3.812-16.056 1.596A1114.717 1114.717 0 0084 40.656z" stroke="#52267D" fill="#FFF" fill-rule="nonzero"/>
      <path d="M107.947 32.928h-9.585c-2.41 0-4.362-1.999-4.362-4.464C94 25.999 95.953 24 98.362 24h.844c4.857 0 8.794 4.03 8.794 9l-.053-.072z" fill="#F3E3FF" fill-rule="nonzero" opacity=".3"/>
      <path d="M108 33h-9.034C96.776 33 95 31.32 95 29.249h0C95 27.455 96.538 26 98.435 26h2.164c4.087 0 7.401 3.134 7.401 7h0z" stroke="#52267D" fill="#FFF" fill-rule="nonzero"/>
      <circle fill="#52267D" fill-rule="nonzero" cx="103" cy="30" r="2"/>
      <path d="M61.75 16.08h.84c1.163-.021 2.285.492 3.114 1.424.83.933 1.296 2.207 1.296 3.536 0 2.74-1.943 4.96-4.34 4.96H53c0-5.523 3.918-10 8.75-10v.08z" fill="#F3E3FF" fill-rule="nonzero" opacity=".3"/>
      <path d="M62.316 17h1.895C66.303 17 68 18.567 68 20.5h0c0 1.933-1.697 3.5-3.79 3.5h-9.208 0c-.05-1.828.695-3.599 2.07-4.915 1.375-1.316 3.264-2.067 5.244-2.085h0z" stroke="#52267D" fill="#FFF" fill-rule="nonzero"/>
      <circle fill="#52267D" fill-rule="nonzero" cx="62" cy="23" r="2"/>
      <path d="M120.213 33.993c-.594-.071-1.124-.252-1.501-.512L118 33l1.559.178.923.104c.172.02.322.077.416.158.094.08.125.178.085.27-.033.094-.132.176-.277.23a1.123 1.123 0 01-.493.053zM44.787 24.993c.594-.071 1.124-.252 1.501-.512L47 24l-1.559.178-.923.104a.792.792 0 00-.416.158c-.094.08-.125.178-.085.27.033.094.132.176.277.23.144.052.322.072.493.053z" fill="#52267D" fill-rule="nonzero"/>
      <path d="M64 35a19.258 19.258 0 0014 .275 64.312 64.312 0 01-1.391 6.665c-2.347.142-4.7.032-7.026-.33C65.58 40.856 64 38.91 64 35z" fill="#EAF3FB" fill-rule="nonzero"/>
      <path d="M74 38.97c-3.766.138-7.542-.195-11-.97" stroke="#52267D" fill="#FFF" fill-rule="nonzero"/>
      <path d="M96 44a25.78 25.78 0 01-11 .669c.389 1.809.887 3.59 1.493 5.331 0 0 7.722-1.097 9.507-6z" fill="#EAF3FB" fill-rule="nonzero"/>
      <path d="M93 103s-.415.47-1 1" stroke="#52267D" stroke-width=".5" fill="#F3E3FF" fill-rule="nonzero"/>
      <path d="M97 45a32.22 32.22 0 01-13 .603" stroke="#52267D" fill="#FFF" fill-rule="nonzero"/>
      <path d="M86.82 178.52c-1.428-.846-3.332-.641-4.493.483-2.347 1.792-4.012 4.371-3.05 4.64 1.575.387 3.225.46 4.835.215 1.684-.269 3.169 0 3.85-3.135.177-.876-.28-1.758-1.143-2.204h0z" stroke="#52267D" stroke-width=".5" fill="#FFF" fill-rule="nonzero"/>
      <path d="M85.471 179.344c-.63-.562-1.47-.423-1.982.327-1.041 1.154-1.811 2.923-1.355 3.096a3.704 3.704 0 002.14.135c.741-.193 1.425 0 1.71-2.097.076-.584-.13-1.17-.513-1.461z" fill="#EAF3FB" fill-rule="nonzero"/>
      <path d="M89.13 179.006c.818-.136 1.989 1.952 1.86 2.675-.128.722-.224 2.83-1.604 3.064-.978.176-4.443.605-5.197-.312-.754-.918.722-4.724 4.94-5.427z" stroke="#52267D" stroke-width=".5" fill="#FFF" fill-rule="nonzero"/>
      <path d="M89.93 179c.469 0 1.142 1.007 1.064 1.338-.079.33-.125 1.404-.892 1.52-.767.115-2.552.313-2.99-.15-.438-.462.391-2.361 2.817-2.708z" fill="#EAF3FB" fill-rule="nonzero"/>
      <path d="M93.07 179.11s-.75-.477-2.235.559c-1.483 1.035-3.257 2.36-2.745 4.142.512 1.781 4.655 1.14 5.56.746.91-.393 1.466-1.51 1.33-2.672-.16-1.286-.897-2.357-1.91-2.776z" stroke="#52267D" stroke-width=".5" fill="#FFF" fill-rule="nonzero"/>
      <path d="M93.962 179.057s-.43-.244-1.276.279c-.845.522-1.872 1.185-1.657 2.073.215.89 2.668.558 3.198.384.518-.2.835-.75.763-1.325a1.733 1.733 0 00-1.028-1.411z" fill="#EAF3FB" fill-rule="nonzero"/>
      <path d="M74.036 130c.421 8.868-.142 17.756-1.68 26.496-2.401 15.073-6.664 19.804-6.338 23.71.234 3.025 1.499 5.794 4.497 5.794h8.921c4.16-.008 7.85-2.708 9.175-6.711a66.765 66.765 0 002.871-13.166c.512-6.526.644-13.078.398-19.62M119.599 136c-2.937 2.695-4.572 6.487-4.5 10.434 0 5.065 3.024 11.508 1.13 19.92-1.695 7.498-5.048 8.823-4.046 15.552.207 1.22 1.291 2.11 2.551 2.094h10.039c4.625 0 8.57-3.286 9.328-7.768a90.587 90.587 0 00-1.148-31.874" stroke="#52267D" stroke-width="2" fill="#9452BA" fill-rule="nonzero"/>
      <path stroke="#52267D" stroke-width=".5" d="M120.86 146.8l.515-.39 1.625.39-1.813 1.2-2.187-1.119 2.281-1.881 1.031.357"/>
      <path d="M70.82 178.52c-1.428-.846-3.332-.641-4.493.483-2.347 1.792-4.012 4.371-3.05 4.64 1.575.387 3.225.46 4.835.215 1.684-.269 3.169 0 3.85-3.135.177-.876-.28-1.758-1.143-2.204z" stroke="#52267D" fill="#FFF" fill-rule="nonzero"/>
      <path d="M69.471 179.344c-.63-.562-1.47-.423-1.982.327-1.041 1.154-1.811 2.923-1.355 3.096a3.704 3.704 0 002.14.135c.741-.193 1.425 0 1.71-2.097.076-.584-.13-1.17-.513-1.461z" fill="#EAF3FB" fill-rule="nonzero"/>
      <path stroke="#52267D" stroke-width=".5" d="M82.67 154l-3.67.958.484 2.81 3.764.232L85 156.317l-2.255-1.035-1.863.448 1.193 1.096"/>
      <g opacity=".3" stroke="#F3E3FF" stroke-width=".25">
        <path d="M6.113 44.386c-.051.372.12.74.44.941.32.203.73.203 1.05 0a.958.958 0 00.44-.941"/>
        <path d="M4.184 44.386c-.052.372.12.74.44.941.32.203.73.203 1.05 0a.958.958 0 00.44-.941"/>
        <path d="M5.14 45.348a.97.97 0 00.964.832.97.97 0 00.965-.832M43.131 43.495c.432.307 1.002.35 1.477.113.474-.239.775-.719.78-1.245a1.406 1.406 0 00-.76-1.256"/>
        <path d="M43.582 45.437c.432.308 1.002.351 1.476.113.475-.238.776-.718.78-1.244a1.406 1.406 0 00-.76-1.257M88.984 75.573a1.29 1.29 0 001.299 1.283 1.29 1.29 0 001.298-1.283"/>
        <path d="M86.388 75.573a1.29 1.29 0 001.298 1.283 1.29 1.29 0 001.298-1.283"/>
        <path d="M87.614 76.856a1.29 1.29 0 001.298 1.283 1.29 1.29 0 001.299-1.283M50.271 156.658a1.29 1.29 0 001.299 1.283 1.29 1.29 0 001.298-1.283"/>
        <path d="M47.693 156.658a1.29 1.29 0 001.298 1.283 1.29 1.29 0 001.298-1.283M48.973 157.995a1.29 1.29 0 001.298 1.283 1.29 1.29 0 001.299-1.283M86.965 34.745c0 .777.638 1.408 1.424 1.408.787 0 1.425-.63 1.425-1.408M85.54 36.153c0 .777.638 1.408 1.425 1.408s1.424-.63 1.424-1.408M68.771 59.605c-.215.728.06 1.512.686 1.951a1.82 1.82 0 002.09 0c.626-.44.901-1.223.686-1.95"/>
        <path d="M67.04 61.316a1.8 1.8 0 001.731 1.283 1.8 1.8 0 001.731-1.283M43.636 17.084c0 .63.517 1.14 1.154 1.14.637 0 1.154-.51 1.154-1.14M42.536 18.243c0 .63.517 1.14 1.154 1.14.637 0 1.154-.51 1.154-1.14M152.526 132.404a1.372 1.372 0 001.92.115 1.334 1.334 0 00.118-1.897"/>
        <path d="M152.4 134.257a1.372 1.372 0 001.92.116 1.334 1.334 0 00.118-1.898M99.605 114.226a1.578 1.578 0 002.032.678 1.544 1.544 0 00.817-1.96M96.756 115.51a1.578 1.578 0 002.033.677 1.544 1.544 0 00.816-1.96M98.83 116.276a1.578 1.578 0 002.032.677 1.544 1.544 0 00.816-1.96M95.98 117.559a1.578 1.578 0 002.033.677 1.544 1.544 0 00.816-1.96M100.903 117.024c.207.54.702.922 1.283.99.58.068 1.151-.19 1.48-.667.33-.478.363-1.097.086-1.606M72.378 28.65c0 .861.706 1.56 1.577 1.56.872 0 1.578-.699 1.578-1.56M71.837 87.548c0 .862.706 1.56 1.577 1.56.872 0 1.578-.698 1.578-1.56M89.706 55.079c0 .654.536 1.185 1.199 1.185.662 0 1.199-.53 1.199-1.185M118.159 28.258c0 .492.403.891.901.891a.896.896 0 00.902-.891M125.624 158.44c.15.846.964 1.413 1.82 1.265a1.558 1.558 0 001.281-1.8M82.06 170.006a1.8 1.8 0 001.731 1.283 1.8 1.8 0 001.731-1.283M80.402 171.717a1.8 1.8 0 001.73 1.283 1.8 1.8 0 001.732-1.283"/>
      </g>
      <path d="M71.13 179.006c.818-.136 1.989 1.952 1.86 2.675-.128.722-.224 2.83-1.604 3.064-.978.176-4.443.605-5.197-.312-.754-.918.722-4.724 4.94-5.427z" stroke="#52267D" fill="#FFF" fill-rule="nonzero"/>
      <path d="M69.93 179c.469 0 1.142 1.007 1.064 1.338-.079.33-.125 1.404-.892 1.52-.767.115-2.552.313-2.99-.15-.438-.462.391-2.361 2.817-2.708z" fill="#EAF3FB" fill-rule="nonzero"/>
      <path d="M75.056 179.07s-.75-.31-2.232.373c-1.481.682-3.25 1.551-2.731 2.762.519 1.21 4.636.745 5.559.496.909-.258 1.465-1 1.327-1.769-.154-.863-.898-1.584-1.923-1.862z" stroke="#52267D" fill="#FFF" fill-rule="nonzero"/>
      <path d="M74.875 181.055s-.427-.237-1.263.276c-.835.514-1.856 1.185-1.56 2.074.298.888 2.656.572 3.176.375.517-.192.836-.746.761-1.323-.09-.655-.522-1.199-1.114-1.402z" fill="#EAF3FB" fill-rule="nonzero"/>
      <path d="M38.056 181.07s-.75-.31-2.232.373c-1.481.682-3.25 1.551-2.731 2.762.519 1.21 4.636.745 5.559.496.909-.258 1.465-1 1.327-1.769-.154-.863-.898-1.584-1.923-1.862h0z" stroke="#52267D" fill="#FFF" fill-rule="nonzero"/>
      <path d="M38.875 181.055s-.427-.237-1.263.276c-.835.514-1.856 1.185-1.56 2.074.298.888 2.656.572 3.176.375.517-.192.836-.746.761-1.323-.09-.655-.522-1.199-1.114-1.402z" fill="#EAF3FB" fill-rule="nonzero"/>
      <path d="M41.13 179.006c.818-.136 1.989 1.952 1.86 2.675-.128.722-.224 2.83-1.603 3.064-.979.176-4.442.605-5.196-.312-.754-.918.69-4.743 4.94-5.427z" stroke="#52267D" fill="#FFF" fill-rule="nonzero"/>
      <path d="M41.93 179c.469 0 1.142 1.007 1.064 1.338-.079.33-.125 1.404-.892 1.52-.767.115-2.552.313-2.99-.15-.438-.462.391-2.361 2.817-2.708z" fill="#EAF3FB" fill-rule="nonzero"/>
      <path d="M117.82 178.52c-1.428-.846-3.332-.641-4.493.483-2.347 1.792-4.012 4.371-3.05 4.64 1.575.387 3.225.46 4.835.215 1.684-.269 3.169 0 3.85-3.135.177-.876-.28-1.758-1.143-2.204z" stroke="#52267D" stroke-width=".5" fill="#FFF" fill-rule="nonzero"/>
      <path d="M115.471 179.344c-.63-.562-1.47-.423-1.982.327-1.041 1.154-1.811 2.923-1.355 3.096a3.704 3.704 0 002.14.135c.741-.193 1.425 0 1.71-2.097.076-.584-.13-1.17-.513-1.461z" fill="#EAF3FB" fill-rule="nonzero"/>
      <path d="M120.13 179.006c.818-.136 1.989 1.952 1.86 2.675-.128.722-.224 2.83-1.604 3.064-.978.176-4.443.605-5.197-.312-.754-.918.722-4.724 4.94-5.427z" stroke="#52267D" stroke-width=".5" fill="#FFF" fill-rule="nonzero"/>
      <path d="M120.93 179c.469 0 1.142 1.007 1.064 1.338-.079.33-.125 1.404-.892 1.52-.767.115-2.552.313-2.99-.15-.438-.462.391-2.361 2.817-2.708z" fill="#EAF3FB" fill-rule="nonzero"/>
      <path d="M123.056 179.07s-.75-.31-2.232.373c-1.481.682-3.25 1.551-2.731 2.762.519 1.21 4.636.745 5.559.496.909-.258 1.465-1 1.327-1.769-.154-.863-.898-1.584-1.923-1.862z" stroke="#52267D" stroke-width=".5" fill="#FFF" fill-rule="nonzero"/>
      <path d="M121.875 181.055s-.427-.237-1.263.276c-.835.514-1.856 1.185-1.56 2.074.298.888 2.656.572 3.176.375.517-.192.836-.746.761-1.323-.09-.655-.522-1.199-1.114-1.402z" fill="#EAF3FB" fill-rule="nonzero"/>
      <path d="M54.453 179.196c.266-.192.662-.249 1.007-.144 1.146.404 4.069 1.53 3.457 3.06-.474 1.184-1.462.837-3.358.852h-1.442c-.302.006-.583-.11-.73-.304h0c-.766-1.17-.37-2.569.967-3.42l.099-.044z" stroke="#52267D" fill="#FFF" fill-rule="nonzero"/>
      <path d="M53.986 181.144a.713.713 0 01.668-.104c.758.298 2.69 1.147 2.293 2.293-.307.894-.975.626-2.239.64h-.956a.574.574 0 01-.488-.223c-.517-.873-.258-1.924.632-2.561l.09-.045z" fill="#EAF3FB" fill-rule="nonzero"/>
      <path d="M48.026 179.692c-1.302-.976-3.156-.913-4.382.148-2.414 1.59-4.361 4.18-3.388 4.53 1.487.519 3.076.72 4.654.592 1.655-.147 3.077.26 4.012-2.922.249-.883-.109-1.821-.896-2.348h0z" stroke="#52267D" fill="#FFF" fill-rule="nonzero"/>
      <path d="M49.369 179.388c-.845-.517-2.086-.517-2.93 0-1.612.8-2.93 2.11-2.26 2.291a9.87 9.87 0 003.118.302c1.11-.075 2.093.136 2.679-1.507.104-.416-.132-.838-.607-1.086z" fill="#EAF3FB" fill-rule="nonzero"/>
    </g>
    <g stroke-width="2">
      <path stroke="#4992C7" d="M946.985 522.674L655.69 668.936l-16.154-32.173 291.296-146.261z"/>
      <path stroke="#9ACDED" d="M647.463 633.782l7.301 14.54M654.578 630.21l4.971 9.899M660.662 627.155l4.971 9.899M666.746 624.101l4.97 9.899M672.83 621.046l4.97 9.899M679.635 617.629l7.301 14.539M686.75 614.056l4.971 9.899M692.834 611.001l4.971 9.899M698.918 607.946l4.971 9.899M705.002 604.892l4.971 9.899M711.808 601.475l7.3 14.539M718.923 597.902l4.97 9.899M725.006 594.848l4.971 9.898M731.09 591.793l4.971 9.898M737.174 588.738l4.971 9.898M743.98 585.32l7.301 14.54M751.095 581.748l4.971 9.899M757.179 578.693l4.971 9.899M763.263 575.639l4.97 9.899M769.347 572.584l4.97 9.899M776.152 569.167l7.3 14.539M783.267 565.595l4.971 9.898M789.351 562.54l4.971 9.898M795.435 559.484l4.971 9.899M801.519 556.43l4.971 9.899M808.324 553.013l7.3 14.54M815.44 549.44l4.97 9.899M821.523 546.386l4.97 9.899M827.606 543.331l4.971 9.899M833.69 540.276l4.971 9.899M840.496 536.859l7.301 14.539M847.611 533.286l4.971 9.899M853.695 530.231l4.971 9.899M859.779 527.177l4.97 9.899M865.863 524.122l4.97 9.899M872.669 520.705l7.3 14.539M879.783 517.133l4.971 9.899M885.867 514.078l4.971 9.898M891.951 511.023l4.971 9.898M898.035 507.969l4.971 9.898M904.841 504.551l7.3 14.54M911.956 500.979l4.97 9.899M918.04 497.924l4.97 9.899M924.123 494.869l4.971 9.899"/>
      <path d="M936.752 516.191a3.116 3.116 0 11-5.57 2.795 3.116 3.116 0 015.57-2.795z" stroke="#4992C7"/>
    </g>
    <g fill="#9ACDED">
      <path d="M611 675.856L626 667v2.898l-12.032 7.042L626 684.16V687l-15-8.777zM586 675.856L601 667v2.898l-12.032 7.042L601 684.16V687l-15-8.777zM562 675.856L577 667v2.898l-12.032 7.042L577 684.16V687l-15-8.777zM538 675.856L553 667v2.898l-12.032 7.042L553 684.16V687l-15-8.777zM513 675.856L528 667v2.898l-12.032 7.042L528 684.16V687l-15-8.777z"/>
    </g>
    <path d="M761.455 700h-461.91C293.72 700 289 695.281 289 689.461V392.54c0-5.821 4.721-10.539 10.545-10.539h461.91c5.825 0 10.545 4.718 10.545 10.539V689.46c0 5.82-4.72 10.539-10.545 10.539" fill="#FFF"/>
    <path d="M761.455 700h-461.91C293.72 700 289 695.281 289 689.461V392.54c0-5.821 4.721-10.539 10.545-10.539h461.91c5.825 0 10.545 4.718 10.545 10.539V689.46c0 5.82-4.72 10.539-10.545 10.539z" stroke="#5E63B6" stroke-width="3"/>
    <path fill="#FFF" d="M320 651h423V412H320z"/>
    <path d="M737 676.5a5.5 5.5 0 11-11 0 5.5 5.5 0 0111 0z" stroke="#375D81" stroke-width="2"/>
    <path stroke="#5E63B6" stroke-width="3" fill="#FFF" d="M605 764H461l15.568-63h112.865z"/>
    <path d="M615.336 774h-168.67c-1.473 0-2.666-1.25-2.666-2.794v-5.412c0-1.542 1.193-2.794 2.665-2.794h168.67c1.473 0 2.665 1.252 2.665 2.794v5.412c0 1.544-1.192 2.794-2.664 2.794z" stroke="#5E63B6" stroke-width="3" fill="#FFF"/>
    <path fill="#F1F4F9" d="M343 413h75v237h-75z"/>
    <path d="M337 454.5a5.5 5.5 0 11-11 0 5.5 5.5 0 0111 0zM337 483.5a5.5 5.5 0 11-11 0 5.5 5.5 0 0111 0zM337 512.5a5.5 5.5 0 11-11 0 5.5 5.5 0 0111 0zM337 541.5a5.5 5.5 0 11-11 0 5.5 5.5 0 0111 0z" fill="#D9DDE2"/>
    <path stroke="#ACD3EF" stroke-width="2" d="M319.697 650.678h422.607V411.931H319.697z"/>
    <path stroke="#F1F4F9" stroke-width="2" stroke-linecap="square" d="M459.445 465h248.11M459.445 485h248.11M459.445 505h248.11M459.445 526h248.11"/>
    <path d="M608.967 580.848a3.514 3.514 0 00-6.968 0h-.034v-.78c0-1.933-1.516-3.59-3.453-3.627a3.514 3.514 0 00-3.583 3.509v-.99c0-1.934-1.515-3.59-3.452-3.627a3.514 3.514 0 00-3.583 3.51v-13.217c0-1.933-1.516-3.59-3.453-3.625a3.513 3.513 0 00-3.583 3.508V591.633l-5.967-5.954c-1.52-1.515-3.993-1.655-5.583-.212a3.977 3.977 0 00-.14 5.765l10.687 10.758a3.422 3.422 0 002.43 1.01h23.296a3.415 3.415 0 003.419-3.411v-.967l-.033-17.774z"/>
    <path d="M608.967 580.848a3.514 3.514 0 00-6.968 0h-.034v-.78c0-1.933-1.516-3.59-3.453-3.627a3.514 3.514 0 00-3.583 3.509v-.99c0-1.934-1.515-3.59-3.452-3.627a3.514 3.514 0 00-3.583 3.51v-13.217c0-1.933-1.516-3.59-3.453-3.625a3.513 3.513 0 00-3.583 3.508V591.633l-5.967-5.954c-1.52-1.515-3.993-1.655-5.583-.212a3.977 3.977 0 00-.14 5.765l10.687 10.758a3.422 3.422 0 002.43 1.01h23.296a3.415 3.415 0 003.419-3.411v-.967l-.033-17.774z" stroke="#9452BA" stroke-width="2"/>
    <path d="M541.735 689.531c.267.231.438.409.497.466.004.01 0-.01 0 0 0 .002.001-.001.001-.001-6.477-3.476-10.887-.83-15.894-1.455a1.761 1.761 0 00-.237-.051 3.555 3.555 0 01-.335-.066c-1.318-.328-2.555-1.43-3.663-3.006l-.017-.025c-.095-.13-.184-.266-.273-.4 0 0-.001-.005-.004-.006a21.3 21.3 0 01-.483-.786l-.05-.082a8.318 8.318 0 00-.126-.228c-.044-.079-.088-.155-.13-.232l-.124-.236c-.044-.081-.085-.162-.128-.243-.03-.055-.058-.115-.089-.174-1.117-2.22-2.024-4.888-2.673-7.546 0 0-.015-.026 0 0 2.434 1.316 4.966 2.398 7.103 2.995 2.575.72 5.798 1.023 8.893.879.948-2.924 1.496-6.086 1.469-8.74-.025-2.22-.402-4.905-1.06-7.594.201.108.4.22.602.331l.178.104c.142.08.285.16.425.245a42.895 42.895 0 01.79.472c.176.11.351.22.525.331a.46.46 0 01.052.033c.203.126.402.259.6.39.017.009.031.02.047.03.18.12.353.239.529.359.037.024.07.05.107.074.16.11.317.222.475.335.03.023.058.046.09.067a32.467 32.467 0 01.542.398c.563.429 1.1.864 1.606 1.304l.02.015c.84.74 1.587 1.494 2.2 2.247.09.11.176.22.26.33.002.005.007.007.01.01v.003c.076.1.15.2.22.297v.003c.004.003.006.008.008.011.077.106.151.213.22.32l.026.044c.001.002.003.001.003.003a8.963 8.963 0 01.291.479c.005.008.008.017.016.025.087.156.168.31.24.468.053.107.1.216.144.324.019.047.035.092.052.137.026.067.048.133.073.2.016.048.029.097.044.149.02.06.037.124.054.186.013.049.024.096.034.147.015.062.028.123.04.186l.023.144c.01.064.015.13.025.191a5.03 5.03 0 01.017.347v.106a2.974 2.974 0 01-.022.316 1.96 1.96 0 00-.01.191c-.68 4.97-4.394 8.554-2.736 15.645M335.428 431.774c.128.111.211.197.24.224.001.006-.001-.004 0 0 0 .001 0 0 0 0-3.119-1.674-5.242-.4-7.653-.7a.848.848 0 00-.114-.025 1.712 1.712 0 01-.161-.032c-.635-.158-1.23-.688-1.764-1.447l-.008-.012c-.046-.062-.089-.128-.132-.193 0 0 0-.002-.002-.003-.078-.12-.156-.248-.232-.378l-.024-.04a4.006 4.006 0 00-.06-.11l-.064-.111-.06-.114-.06-.117c-.015-.026-.029-.055-.043-.084-.538-1.069-.975-2.353-1.288-3.633 0 0-.007-.012 0 0 1.172.634 2.392 1.155 3.42 1.442 1.24.347 2.792.493 4.282.423.457-1.407.72-2.93.707-4.208-.012-1.068-.193-2.361-.51-3.656.097.052.193.106.29.16l.086.05c.068.038.137.076.204.118a20.65 20.65 0 01.38.227c.085.053.17.105.253.16.01.004.018.01.026.015.097.06.193.124.289.188l.022.015c.086.057.17.114.254.172l.052.035.229.162.043.032a15.634 15.634 0 01.261.192c.271.206.53.416.773.628l.01.007c.405.356.764.72 1.06 1.082.042.053.084.106.124.159l.005.005c.037.049.073.097.106.144v.001l.004.006c.037.05.073.102.106.154l.013.021.001.001a4.316 4.316 0 01.14.23c.003.005.004.009.008.013a3.307 3.307 0 01.185.382l.025.065.035.097c.008.023.014.046.021.071.01.03.018.06.026.09l.017.07.019.09.011.07c.004.03.007.062.012.092l.005.063.003.104v.05c0 .052-.005.103-.01.153a.944.944 0 00-.006.092c-.327 2.393-2.115 4.118-1.317 7.532" fill="#9452BA"/>
    <g stroke="#9ACDED" stroke-width="2">
      <path d="M1199 774h-64V299h64z"/>
      <path d="M1150 316h32l-14.373 19zM1187 326v29l-15-13.025zM1183 368h-32l14.373-19zM1146 357v-29l15 13.025zM1150 377h32l-14.373 19zM1187 387v29l-15-13.025zM1183 428h-32l14.373-19zM1146 418v-29l15 13.025zM1150 437h32l-14.373 19zM1187 448v29l-15-13.025zM1183 489h-32l14.373-19zM1146 478v-29l15 13.025zM1150 498h32l-14.373 19zM1187 509v29l-15-13.025zM1183 550h-32l14.373-19zM1146 539v-29l15 13.025zM1150 559h32l-14.373 19zM1187 569v29l-15-13.025zM1183 611h-32l14.373-19zM1146 600v-29l15 13.024zM1150 620h32l-14.373 19zM1187 630v29l-15-13.025zM1183 671h-32l14.373-19zM1146 661v-29l15 13.025zM1150 680h32l-14.373 19zM1187 691v29l-15-13.025zM1183 732h-32l14.373-19zM1146 721v-29l15 13.025zM1082.058 760.88L1135 709.51V693l-73.069 75.403c-2.118 2.186-.39 5.597 2.834 5.597H1135v-8.41l-50.361.521c-3.042.031-4.648-3.224-2.581-5.23zM1251.942 760.88L1199 709.51V693l73.068 75.403c2.12 2.186.39 5.597-2.834 5.597H1199v-8.41l50.36.521c3.042.031 4.649-3.224 2.582-5.23zM1164.891 127L1138 235h56zM1096.59 249H799.41c-8.51 0-15.41-6.269-15.41-14h328c0 7.731-6.898 14-15.41 14zM1191 222h175.224L1392 241h-176.549zM1394.496 258h-74.993c-4.144 0-7.503-3.042-7.503-6.796v-.41c0-3.752 3.359-6.794 7.503-6.794h74.993c4.144 0 7.504 3.042 7.504 6.795v.41c0 3.753-3.36 6.795-7.504 6.795zM1384.516 272h-72.032c-4.134 0-7.484-3.042-7.484-6.796v-.408c0-3.754 3.35-6.796 7.484-6.796h72.032c4.134 0 7.484 3.042 7.484 6.796v.408c0 3.754-3.35 6.796-7.484 6.796z"/>
      <path d="M1166 127l165 95h-18.668c-1.1 0-146.332-88.748-146.332-88.748V127zM949 203l217-76v6.212L968.852 203zM784 234l36.353-31h279.803L1131 234z"/>
      <path d="M820.038 216L808 231h29zM875.038 216L863 231h29zM930.038 216L918 231h29zM985.038 216L973 231h29zM1040.038 216L1028 231h29zM1095.038 216L1083 231h29zM822 210l21.823 17L872 210zM877 210l21.823 17L927 210zM932 210l21.823 17L982 210zM987 210l21.823 17L1037 210zM1042 210l21.823 17L1092 210zM1191 222l42.491 19 23.23-19 25.397 19 26.42-19 24.066 19 17.035-19L1388 241M1197.834 300h-66.16c-7.123 0-13.088-4.92-13.8-11.384l-4.823-43.68c-.588-5.32 3.99-9.936 9.85-9.936h81.033c7.11 0 12.68 5.583 12.011 12.041l-4.303 41.498c-.673 6.498-6.653 11.461-13.808 11.461zM1000 329l-101 17M1028 263h-41v-14h41zM996 262v26M1018 262v27M1014 314.5c0 3.59-3.134 6.5-7 6.5s-7-2.91-7-6.5 3.134-6.5 7-6.5 7 2.91 7 6.5z"/>
      <path d="M1012.677 308h-11.353c-5.702 0-10.324-4.153-10.324-9.275v-6.61c0-2.272 2.052-4.115 4.582-4.115h22.836c2.53 0 4.582 1.843 4.582 4.116v6.609c0 5.122-4.621 9.275-10.323 9.275zM1006.402 320.271l1.643 2.008c.98 1.196.837 2.854-.334 3.904-1.31 1.173-3.437 1.173-4.747 0l-1.923-1.723-3.041.12 3.265 2.924c2.227 1.995 5.838 1.995 8.065 0 1.99-1.782 2.23-4.598.567-6.63l-.715-.874-2.78.271z"/>
      <path d="M1101 373l-93.464-44.226c-.699-2.409-3.426-3.255-5.536-2.514M1156 281h33.47c4.159 0 7.53-2.973 7.53-6.64V251h-32.914c-4.467 0-8.086 3.193-8.086 7.13V281z"/>
    </g>
    <g>
      <path d="M897 711.819V691.18l-15.851-1.237a57.493 57.493 0 00-8.426-20.324l10.338-12.089-14.593-14.593-12.089 10.34a57.463 57.463 0 00-20.323-8.426L834.82 629h-20.637l-1.237 15.852a57.46 57.46 0 00-20.324 8.426l-12.09-10.34-14.592 14.593 10.339 12.09a57.495 57.495 0 00-8.427 20.323L752 691.181v20.638l15.851 1.237a57.495 57.495 0 008.427 20.324l-10.34 12.089 14.594 14.593 12.089-10.34a57.46 57.46 0 0020.324 8.426L814.182 774h20.637l1.237-15.852a57.476 57.476 0 0020.324-8.426l12.088 10.34 14.593-14.593-10.338-12.09a57.493 57.493 0 008.426-20.323L897 711.819z" stroke="#5E63B6" stroke-width="3" fill="#FFF"/>
      <path d="M844 709c0 13.254-10.746 24-24 24s-24-10.746-24-24c0-13.255 10.746-24 24-24s24 10.745 24 24z" fill="#E1F2FF"/>
      <path d="M849 702c0 13.254-10.746 24-24 24s-24-10.746-24-24c0-13.255 10.746-24 24-24s24 10.745 24 24z" stroke="#5E63B6" stroke-width="3" fill="#E1F2FF"/>
      <path d="M792 690.273C797.01 676.688 810.077 667 825.407 667 845.064 667 861 682.93 861 702.58c0 11.033-5.024 20.894-12.91 27.42" stroke="#9ACDED" stroke-width="3"/>
      <path d="M872 717.969C865.32 736.082 847.898 749 827.458 749 801.248 749 780 727.76 780 701.56c0-14.712 6.698-27.858 17.213-36.56" stroke="#9ACDED" stroke-width="3"/>
      <path d="M792 658.122v-11.244l-8.636-.674a31.32 31.32 0 00-4.591-11.074l5.632-6.585-7.95-7.95-6.586 5.632a31.289 31.289 0 00-11.073-4.59l-.674-8.637h-11.244l-.674 8.636a31.289 31.289 0 00-11.073 4.591l-6.586-5.632-7.95 7.95 5.632 6.585a31.32 31.32 0 00-4.59 11.074l-8.637.674v11.244l8.636.674a31.307 31.307 0 004.591 11.073l-5.632 6.586 7.95 7.95 6.586-5.632a31.307 31.307 0 0011.073 4.59l.674 8.637h11.244l.674-8.636a31.307 31.307 0 0011.073-4.591l6.586 5.632 7.95-7.95-5.632-6.586a31.307 31.307 0 004.59-11.073l8.637-.674zM327 742.122v-11.244l-8.636-.674a31.32 31.32 0 00-4.591-11.074l5.632-6.585-7.95-7.95-6.586 5.632a31.289 31.289 0 00-11.073-4.59l-.674-8.637h-11.244l-.674 8.636a31.289 31.289 0 00-11.073 4.591l-6.586-5.632-7.95 7.95 5.632 6.585a31.32 31.32 0 00-4.59 11.074l-8.637.674v11.244l8.636.674a31.307 31.307 0 004.591 11.073l-5.632 6.586 7.95 7.95 6.586-5.632a31.307 31.307 0 0011.073 4.59l.674 8.637h11.244l.674-8.636a31.307 31.307 0 0011.073-4.591l6.586 5.632 7.95-7.95-5.632-6.586a31.307 31.307 0 004.59-11.073l8.637-.674z" fill="#FFF"/>
      <path d="M734 646.56c2.76-7.332 9.956-12.56 18.398-12.56 10.826 0 19.602 8.596 19.602 19.202 0 5.955-2.766 11.276-7.11 14.798" stroke="#9ACDED" stroke-width="3"/>
      <path d="M792 658.122v-11.244l-8.636-.674a31.32 31.32 0 00-4.591-11.074l5.632-6.585-7.95-7.95-6.586 5.632a31.289 31.289 0 00-11.073-4.59l-.674-8.637h-11.244l-.674 8.636a31.289 31.289 0 00-11.073 4.591l-6.586-5.632-7.95 7.95 5.632 6.585a31.32 31.32 0 00-4.59 11.074l-8.637.674v11.244l8.636.674a31.307 31.307 0 004.591 11.073l-5.632 6.586 7.95 7.95 6.586-5.632a31.307 31.307 0 0011.073 4.59l.674 8.637h11.244l.674-8.636a31.307 31.307 0 0011.073-4.591l6.586 5.632 7.95-7.95-5.632-6.586a31.307 31.307 0 004.59-11.073l8.637-.674z" stroke="#5E63B6" stroke-width="3"/>
      <path d="M761 660c0 7.18-5.82 13-13 13s-13-5.82-13-13 5.82-13 13-13 13 5.82 13 13z" fill="#E1F2FF"/>
      <path d="M765 653c0 7.18-5.82 13-13 13s-13-5.82-13-13 5.82-13 13-13 13 5.82 13 13z" stroke="#5E63B6" stroke-width="3" fill="#FFF"/>
      <path d="M327 741.122v-11.244l-8.636-.674a31.32 31.32 0 00-4.591-11.074l5.632-6.585-7.95-7.95-6.586 5.632a31.289 31.289 0 00-11.073-4.59l-.674-8.637h-11.244l-.674 8.636a31.289 31.289 0 00-11.073 4.591l-6.586-5.632-7.95 7.95 5.632 6.585a31.32 31.32 0 00-4.59 11.074l-8.637.674v11.244l8.636.674a31.307 31.307 0 004.591 11.073l-5.632 6.586 7.95 7.95 6.586-5.632a31.307 31.307 0 0011.073 4.59l.674 8.637h11.244l.674-8.636a31.307 31.307 0 0011.073-4.591l6.586 5.632 7.95-7.95-5.632-6.586a31.307 31.307 0 004.59-11.073l8.637-.674z" stroke="#5E63B6" stroke-width="3"/>
      <path d="M297 741c0 7.18-5.82 13-13 13s-13-5.82-13-13 5.82-13 13-13 13 5.82 13 13z" fill="#E1F2FF"/>
      <path d="M300 736c0 7.18-5.82 13-13 13s-13-5.82-13-13 5.82-13 13-13 13 5.82 13 13z" stroke="#5E63B6" stroke-width="3" fill="#FFF"/>
      <path d="M269 729.56c2.76-7.332 9.956-12.56 18.398-12.56 10.826 0 19.602 8.596 19.602 19.202 0 5.955-2.766 11.276-7.11 14.798" stroke="#9ACDED" stroke-width="3"/>
    </g>
    <g>
      <path d="M280.502 356h-84.004c-2.484 0-4.498 2.024-4.498 4.52v46.586c0 2.496 2.014 4.52 4.498 4.52h64.84L274.648 425v-13.373h5.854c2.483 0 4.498-2.025 4.498-4.52V360.52c0-2.496-2.015-4.52-4.498-4.52" fill="#FFF"/>
      <path d="M280.502 356h-84.004c-2.484 0-4.498 2.024-4.498 4.52v46.586c0 2.496 2.014 4.52 4.498 4.52h64.84L274.648 425v-13.373h5.854c2.483 0 4.498-2.025 4.498-4.52V360.52c0-2.496-2.015-4.52-4.498-4.52zM210 372h3" stroke="#4992C7" stroke-width="2"/>
      <path stroke="#4992C7" stroke-width="2" stroke-dasharray="5.708,5.708" d="M219 372h43"/>
      <path stroke="#4992C7" stroke-width="2" d="M265 372h3M210 378h2"/>
      <path stroke="#4992C7" stroke-width="2" stroke-dasharray="4.106,3.079" d="M215 378h49"/>
      <path stroke="#4992C7" stroke-width="2" d="M266 378h2M210 384h6"/>
      <path stroke="#4992C7" stroke-width="2" stroke-dasharray="11.344,2.836" d="M219 384h41"/>
      <path stroke="#4992C7" stroke-width="2" d="M262 384h6M210 390h3"/>
      <path stroke="#4992C7" stroke-width="2" stroke-dasharray="5.708,5.708" d="M219 390h43"/>
      <path stroke="#4992C7" stroke-width="2" d="M265 390h3"/>
      <path stroke="#4992C7" stroke-width="2" stroke-dasharray="12,5" d="M210 395h57"/>
      <g>
        <path d="M312.808 495H253.19a3.2 3.2 0 01-3.191-3.21v-33.082a3.2 3.2 0 013.191-3.211h46.017l9.445-9.497v9.497h4.155a3.202 3.202 0 013.192 3.21v33.083c0 1.773-1.43 3.21-3.192 3.21" fill="#FFF"/>
        <path d="M312.808 495H253.19a3.2 3.2 0 01-3.191-3.21v-33.082a3.2 3.2 0 013.191-3.211h46.017l9.445-9.497v9.497h4.155a3.202 3.202 0 013.192 3.21v33.083c0 1.773-1.43 3.21-3.192 3.21zM262 483h3" stroke="#4992C7" stroke-width="2"/>
        <path stroke="#4992C7" stroke-width="2" stroke-dasharray="6.902,6.902" d="M272 483h24"/>
        <path stroke="#4992C7" stroke-width="2" d="M300 483h3M262 479h2"/>
        <path stroke="#4992C7" stroke-width="2" stroke-dasharray="3.843,2.882" d="M267 479h32"/>
        <path stroke="#4992C7" stroke-width="2" d="M301 479h2M262 475h6"/>
        <path stroke="#4992C7" stroke-width="2" stroke-dasharray="10.368,2.592" d="M271 475h25"/>
        <path stroke="#4992C7" stroke-width="2" d="M297 475h6M262 471h3"/>
        <path stroke="#4992C7" stroke-width="2" stroke-dasharray="6.902,6.902" d="M272 471h24"/>
        <path stroke="#4992C7" stroke-width="2" d="M300 471h3"/>
        <path stroke="#4992C7" stroke-width="2" stroke-dasharray="12,5" d="M262 467h41"/>
      </g>
    </g>
    <g fill="#FFF" fill-rule="nonzero" stroke="#5E63B6" stroke-linecap="round" stroke-width="2">
      <path d="M265 575v10.12M270.084 580H260"/>
    </g>
    <g fill="#FFF" fill-rule="nonzero" stroke="#5E63B6" stroke-linecap="round" stroke-width="2">
      <path d="M626 188v10.12M631.084 193H621"/>
    </g>
    <g fill="#FFF" fill-rule="nonzero" stroke="#5E63B6" stroke-linecap="round" stroke-width="2">
      <path d="M1234 458v10.12M1239.084 463H1229"/>
    </g>
    <g fill="#FFF" fill-rule="nonzero" stroke="#5E63B6" stroke-linecap="round" stroke-width="2">
      <path d="M254 315v10.12M259.084 320H249"/>
    </g>
    <g fill="#FFF" fill-rule="nonzero" stroke="#5E63B6" stroke-linecap="round" stroke-width="2">
      <path d="M1074 175v10.12M1079.084 180H1069"/>
    </g>
    <g fill="#FFF" fill-rule="nonzero" stroke="#5E63B6" stroke-linecap="round" stroke-width="2">
      <path d="M1296 346v10.12M1301.084 351H1291"/>
    </g>
    <g fill="#FFF" fill-rule="nonzero" stroke="#5E63B6" stroke-linecap="round" stroke-width="2">
      <path d="M1225.5 566.61v6.747M1229 570h-7"/>
    </g>
    <g fill="#FFF" fill-rule="nonzero" stroke="#5E63B6" stroke-linecap="round" stroke-width="2">
      <path d="M555.5 350.61v6.747M559 354h-7"/>
    </g>
    <g fill="#FFF" fill-rule="nonzero" stroke="#5E63B6" stroke-linecap="round" stroke-width="2">
      <path d="M131 421v10.12M136.084 426H126"/>
    </g>
    <g stroke="#ACD3EF" stroke-linecap="round" stroke-width="5">
      <path fill="#FFF" fill-rule="nonzero" d="M286 817h75"/>
      <path d="M1271.5 778h-23M462.5 778h765M206 779h234.5"/>
      <path fill="#FFF" fill-rule="nonzero" d="M508 817h187M717 817h38M493 817h-15M249 817h12M916 817h46"/>
    </g>
    <g fill="#FFF" fill-rule="nonzero" stroke="#5E63B6" stroke-linecap="round" stroke-width="2">
      <path d="M778 274v10.12M783.084 279H773"/>
    </g>
    <g transform="translate(924 632)">
      <rect width="215" height="61.583" rx="3" fill="#FFF" fill-rule="nonzero"/>
      <path d="M5 .5h205a4.5 4.5 0 014.5 4.5v52a4.5 4.5 0 01-4.5 4.5H5A4.5 4.5 0 01.5 57V5A4.5 4.5 0 015 .5z" stroke="#5E63B6" stroke-width="3"/>
      <ellipse fill="#81CCCC" fill-rule="nonzero" cx="31.5" cy="28.5" rx="10.5" ry="9.5"/>
      <path d="M55 27h56a1 1 0 011 1v6a1 1 0 01-1 1H55a1 1 0 01-1-1v-6a1 1 0 011-1z" fill="#EFEFF6" fill-rule="nonzero"/>
      <path d="M132.41 42h57.91c6.867 0 12.41 5.158 12.41 11.547v3.849H120v-3.85C120 47.159 125.543 42 132.41 42z" fill="#FFF" fill-rule="nonzero"/>
      <path d="M120.5 62.5V59c0-6.362 5.341-11.5 11.895-11.5h58.21c6.554 0 11.895 5.138 11.895 11.5v3.5h-82z" stroke="#5E63B6" stroke-width="3"/>
      <path fill="#EFEFF6" fill-rule="nonzero" d="M124 54h74v8h-74z"/>
      <path d="M10.571 61.424h197.678V70.5H10.57v-9.076z" fill="#D9DDE2" stroke="#5E63B6" stroke-width="3"/>
      <path fill="#A1A9B7" fill-rule="nonzero" d="M14 63h190v4H14z"/>
    </g>
    <g transform="translate(924 560)">
      <rect width="215" height="61.583" rx="3" fill="#FFF" fill-rule="nonzero"/>
      <path d="M5 .5h205a4.5 4.5 0 014.5 4.5v52a4.5 4.5 0 01-4.5 4.5H5A4.5 4.5 0 01.5 57V5A4.5 4.5 0 015 .5z" stroke="#5E63B6" stroke-width="3"/>
      <ellipse fill="#D9DDE2" fill-rule="nonzero" cx="31.5" cy="28.5" rx="10.5" ry="9.5"/>
      <path d="M55 27h56a1 1 0 011 1v6a1 1 0 01-1 1H55a1 1 0 01-1-1v-6a1 1 0 011-1z" fill="#EFEFF6" fill-rule="nonzero"/>
      <path d="M132.41 42h57.91c6.867 0 12.41 5.158 12.41 11.547v3.849H120v-3.85C120 47.159 125.543 42 132.41 42z" fill="#FFF" fill-rule="nonzero"/>
      <path d="M120.5 62.5V59c0-6.362 5.341-11.5 11.895-11.5h58.21c6.554 0 11.895 5.138 11.895 11.5v3.5h-82z" stroke="#5E63B6" stroke-width="3"/>
      <path fill="#EFEFF6" fill-rule="nonzero" d="M124 54h74v8h-74z"/>
      <path d="M10.571 61.424h197.678V70.5H10.57v-9.076z" fill="#D9DDE2" stroke="#5E63B6" stroke-width="3"/>
      <path fill="#A1A9B7" fill-rule="nonzero" d="M14 63h190v4H14z"/>
    </g>
    <g transform="translate(924 704)">
      <rect width="215" height="61.583" rx="3" fill="#FFF" fill-rule="nonzero"/>
      <path d="M5 .5h205a4.5 4.5 0 014.5 4.5v52a4.5 4.5 0 01-4.5 4.5H5A4.5 4.5 0 01.5 57V5A4.5 4.5 0 015 .5z" stroke="#5E63B6" stroke-width="3"/>
      <ellipse fill="#D9DDE2" fill-rule="nonzero" cx="31.5" cy="28.5" rx="10.5" ry="9.5"/>
      <path d="M55 27h56a1 1 0 011 1v6a1 1 0 01-1 1H55a1 1 0 01-1-1v-6a1 1 0 011-1z" fill="#EFEFF6" fill-rule="nonzero"/>
      <path d="M132.41 42h57.91c6.867 0 12.41 5.158 12.41 11.547v3.849H120v-3.85C120 47.159 125.543 42 132.41 42z" fill="#FFF" fill-rule="nonzero"/>
      <path d="M120.5 62.5V59c0-6.362 5.341-11.5 11.895-11.5h58.21c6.554 0 11.895 5.138 11.895 11.5v3.5h-82z" stroke="#5E63B6" stroke-width="3"/>
      <path fill="#EFEFF6" fill-rule="nonzero" d="M124 54h74v8h-74z"/>
      <path d="M10.571 61.424h197.678V70.5H10.57v-9.076z" fill="#D9DDE2" stroke="#5E63B6" stroke-width="3"/>
      <path fill="#A1A9B7" fill-rule="nonzero" d="M14 63h190v4H14z"/>
    </g>
    <g transform="rotate(5 -3442.45 10003.51)">
      <rect width="269.289" height="82.858" rx="3" fill="#FFF" fill-rule="nonzero"/>
      <path d="M5.59 1.09H263.7a4.5 4.5 0 014.5 4.5v71.679a4.5 4.5 0 01-4.5 4.5H5.59a4.5 4.5 0 01-4.5-4.5V5.589a4.5 4.5 0 014.5-4.5z" stroke="#5E63B6" stroke-width="3"/>
      <circle fill="#81CCCC" fill-rule="nonzero" cx="38.84" cy="38.84" r="12.947"/>
      <path d="M68.322 36.25h70.501a1 1 0 011 1v8.358a1 1 0 01-1 1h-70.5a1 1 0 01-1-1V37.25a1 1 0 011-1z" fill="#EFEFF6" fill-rule="nonzero"/>
      <path d="M165.716 56.965h72.501c8.597 0 15.536 6.94 15.536 15.536v5.179H150.18V72.5c0-8.596 6.94-15.535 15.536-15.535z" fill="#FFF" fill-rule="nonzero"/>
      <path d="M151.317 81.642v-4.089c0-7.975 6.472-14.446 14.447-14.446h72.5c7.976 0 14.447 6.471 14.447 14.446v4.09H151.317z" stroke="#5E63B6" stroke-width="3"/>
      <path fill="#EFEFF6" fill-rule="nonzero" d="M155.359 72.5h93.215v5.18H155.36zM15.969 80.134h238.217v20.714H15.969z"/>
      <path d="M17.058 81.223h236.038v18.536H17.058V81.223z" stroke="#5E63B6" stroke-width="3"/>
      <path fill="#A1A9B7" fill-rule="nonzero" d="M20.715 82.858h227.86v5.179H20.714z"/>
    </g>
  </g>
</svg>
