<svg xmlns="http://www.w3.org/2000/svg" width="256" height="256" xmlns:xlink="http://www.w3.org/1999/xlink">
    <defs>
        <path id="a" d="M0 0h34v24H0z"/>
        <path id="c" d="M122.02 4H125c4.42 0 8 3.58 8 8v3c0 4.42-3.58 8-8 8h-13l2.13-12.36c.67-3.84 4-6.64 7.9-6.64z"/>
        <path id="d" d="M122.02 39H125c4.42 0 8 3.58 8 8v3c0 4.42-3.58 8-8 8h-13l2.13-12.36c.67-3.84 4-6.64 7.9-6.64z"/>
        <rect id="e" width="10" height="6" x="124" y="28" rx="3"/>
        <path id="f" d="M50 85h30l-1.72 22.3c-.16 2.1-1.9 3.7-3.98 3.7H55.7c-2.1 0-3.82-1.6-3.98-3.7L50 85z"/>
    </defs>
    <g fill="none" fill-rule="evenodd">
        <path fill="#E1F2FF" d="M27 204.1c0-57.18 46.36-103.54 103.55-103.54 57.2 0 103.56 46.36 103.56 103.55H27z"/>
        <path fill="#9ACDED" d="M38.6 216.93c-.54 0-1-.45-1-1 0-.56.46-1 1-1h68.34c.56 0 1 .44 1 1 0 .55-.44 1-1 1H38.6zM247.22 205.96h-5c-.55 0-1-.44-1-1 0-.55.45-1 1-1h5c.55 0 1 .45 1 1 0 .56-.45 1-1 1M12.33 205.96H7c-.55 0-1-.44-1-1 0-.55.45-1 1-1h5.33c.56 0 1 .45 1 1 0 .56-.44 1-1 1"/>
        <path fill="#FFF" d="M98.35 215.93h55.72"/>
        <path fill="#9ACDED" d="M147.35 216.93c-.55 0-1-.45-1-1 0-.56.45-1 1-1h77.72c.56 0 1 .44 1 1 0 .55-.44 1-1 1h-77.72z"/>
        <path fill="#FFF" d="M160.72 215.93h11.33"/>
        <path fill="#9ACDED" d="M137.05 216.93h-11.33c-.55 0-1-.45-1-1 0-.56.45-1 1-1h11.33c.56 0 1 .44 1 1 0 .55-.44 1-1 1"/>
        <path fill="#FFF" d="M93.4 215.93h-4.35"/>
        <path fill="#9ACDED" d="M118.4 216.93h-4.35c-.55 0-1-.45-1-1 0-.56.45-1 1-1h4.34c.54 0 1 .44 1 1 0 .55-.46 1-1 1"/>
        <path fill="#FFF" d="M21.55 215.93h3.67"/>
        <path fill="#9ACDED" d="M31.22 216.93h-3.67c-.55 0-1-.45-1-1 0-.56.45-1 1-1h3.67c.55 0 1 .44 1 1 0 .55-.45 1-1 1"/>
        <path fill="#FFF" d="M219.2 215.93h13.68"/>
        <path fill="#9ACDED" d="M244.88 216.93H231.2c-.54 0-1-.45-1-1 0-.56.46-1 1-1h13.68c.55 0 1 .44 1 1 0 .55-.45 1-1 1"/>
        <path fill="#FFF" d="M236.05 204.96H220c.6-2.04.92-4.2.92-6.45 0-12.7-10.3-23-23-23-10.14 0-18.74 6.55-21.8 15.64-1.1-.24-2.22-.37-3.38-.37-8.1 0-14.7 6.25-15.32 14.2l-13.72.03c-.53-9.6-7.94-17.38-17.4-18.44-3.06-14.84-16.2-26-31.94-26-10.7 0-20.2 5.17-26.15 13.14-2.06-.52-4.22-.8-6.45-.8-14.6 0-26.44 11.84-26.44 26.44 0 1.95.23 3.84.63 5.66H19.67"/>
        <path fill="#9ACDED" d="M142.76 206l-.05-.94c-.5-9.13-7.45-16.5-16.5-17.5l-.73-.1-.15-.7c-3-14.6-16.03-25.2-30.96-25.2-10.08 0-19.32 4.65-25.35 12.74l-.4.53-.64-.16c-2.02-.5-4.1-.77-6.2-.77-14.03 0-25.45 11.42-25.45 25.44 0 1.82.2 3.65.6 5.45l.27 1.2h-17.5c-.56 0-1-.45-1-1s.44-1 1-1H34.7c-.25-1.54-.4-3.1-.4-4.66 0-15.13 12.32-27.44 27.45-27.44 2.04 0 4.07.23 6.06.68 6.43-8.28 16.07-13 26.56-13 15.64 0 29.3 10.92 32.77 26.08 9.37 1.38 16.55 8.92 17.5 18.34l11.9-.03c1.07-8.04 8.02-14.2 16.2-14.2.92 0 1.82.07 2.73.22 3.52-9.3 12.44-15.5 22.45-15.5 13.25 0 24.02 10.77 24.02 24 0 1.84-.2 3.67-.63 5.46h14.75c.55 0 1 .45 1 1 0 .56-.45 1-1 1h-17.4l.38-1.28c.6-2.02.9-4.1.9-6.17 0-12.12-9.88-22-22.02-22-9.44 0-17.82 6-20.85 14.96l-.28.85-.88-.18c-1.05-.24-2.1-.35-3.16-.35-7.46 0-13.75 5.83-14.32 13.27l-.07.92-15.6.04z"/>
        <g fill="#375D81">
            <path d="M218.18 106.95c-.55 0-1-.45-1-1v-7c0-.55.45-1 1-1s1 .45 1 1v7c0 .55-.45 1-1 1"/>
            <path d="M221.68 103.45h-7c-.55 0-1-.45-1-1s.45-1 1-1h7c.55 0 1 .45 1 1s-.45 1-1 1M53.18 56.95c-.55 0-1-.45-1-1v-7c0-.55.45-1 1-1s1 .45 1 1v7c0 .55-.45 1-1 1"/>
            <path d="M56.68 53.45h-7c-.55 0-1-.45-1-1s.45-1 1-1h7c.55 0 1 .45 1 1s-.45 1-1 1M36.28 122.4c-.27 0-.5-.22-.5-.5v-3.93c0-.28.23-.5.5-.5.28 0 .5.22.5.5v3.93c0 .28-.22.5-.5.5"/>
            <path d="M38.25 120.44H34.3c-.26 0-.5-.23-.5-.5 0-.28.24-.5.5-.5h3.95c.28 0 .5.22.5.5 0 .27-.22.5-.5.5M222.28 166.4c-.27 0-.5-.22-.5-.5v-3.93c0-.28.23-.5.5-.5.28 0 .5.22.5.5v3.93c0 .28-.22.5-.5.5"/>
            <path d="M224.25 164.44h-3.94c-.26 0-.5-.23-.5-.5 0-.28.24-.5.5-.5h3.95c.28 0 .5.22.5.5 0 .27-.22.5-.5.5"/>
        </g>
        <g transform="translate(114 103)">
            <mask id="b" fill="#fff">
                <use xlink:href="#a"/>
            </mask>
            <g mask="url(#b)">
                <path fill="#9452BA" d="M21.53 40.18l1.85-.02c.63 0 1.2-.4 1.43-1 .65-1.67.46-3.2.52-4.53.12-2.44-.28-3.68-.67-5.7l-2.78.08s.25 1.02.44 4.06c.08.94-1.44 4.74-1.35 6.6.02.3.27.53.58.52"/>
                <path fill="#52267D" d="M22.32 29.37c.1.55.24 1.68.37 3.67 0 .43-.2 1.22-.55 2.46-.4 1.4-.88 3.1-.83 4.13 0 .1.1.18.2.18h1.85c.5-.02.92-.32 1.1-.76.46-1.23.46-2.37.47-3.46v-.96c.1-1.95-.14-3.1-.44-4.57l-.16-.75-2.02.07zm-.8 11.18c-.5 0-.9-.4-.94-.88-.06-1.14.43-2.85.85-4.37.27-.92.54-1.88.5-2.22-.18-2.97-.42-3.97-.42-3.98l-.1-.44 3.55-.12.06.3.22 1.06c.3 1.45.57 2.7.48 4.75-.02.3-.02.6-.02.93 0 1.1 0 2.36-.52 3.72-.28.72-1 1.22-1.78 1.23l-1.85.02z"/>
                <path fill="#9452BA" d="M16.04 31.54l-2.27-2.48-1.38.07-.24 2.97c-.12 1.54-.73 4.56-1.1 5.9-.13.42-.2.83-.22 1.2-.02.6.5 1.1 1.12 1.1l1.64-.02c.95 0 1.8-.65 2.02-1.57.7-2.85.42-7.16.42-7.16"/>
                <path fill="#52267D" d="M12.74 29.48l-.2 2.64c-.13 1.52-.72 4.55-1.13 5.97-.1.4-.17.77-.18 1.1 0 .2.06.37.2.5.13.15.33.23.53.23l1.65-.02c.8 0 1.47-.53 1.66-1.28.6-2.5.45-6.2.4-6.93l-2.05-2.26-.86.04zm-.8 11.2c-.4 0-.78-.17-1.06-.46-.28-.28-.42-.65-.4-1.04 0-.4.1-.83.22-1.3.38-1.35.98-4.36 1.1-5.8L12 29.1l.03-.32 1.88-.1 2.47 2.7v.14c.02.18.28 4.4-.42 7.27-.26 1.07-1.24 1.83-2.38 1.85l-1.63.02h-.02z"/>
                <path fill="#52267D" d="M12.7 33.63l.1.1v-.18l-.1.08zm.15.14l.08.07.43-.17-.05-.1-.28.08v.1l-.17.02zm.04.28l-.5-.42.46-.4.12.15-.14.13.58-.14.2.4-.73.3z"/>
                <path fill="#9452BA" d="M12.8 22.24c1.62-.05 3.13-1.18 6.44-1.37.05-.22.1-.4.18-.57.58-1.3 1.38-5.02.8-7.46l-.45-1.92c-.15-.63-.23-1.28-.23-1.93 0-.28.02-.54.07-.8l.05-.18c.04-.2.1-.38.18-.55l.07-.18.18-.34.2-.32c.23-.3.5-.57.8-.8.1-.08.2-.15.32-.22.6-.36 1.3-.58 2.04-.6h.64c1.1 0 2.1.42 2.8 1.12.1.08.2.17.27.27.15.18.28.37.4.57l.12.23c.03.05.06.1.08.17.08.17.15.35.2.54.05.2.1.4.1.6.02.12.03.25.03.4 0 .26-.1.5-.28.68-.17.18-.42.3-.7.3l-4.03.05.65 3.47c.77 3.56.58 5.95.05 7.55-.12.36-.8 1.62-.8 1.62 2.05 3.14 5.17 4.48 8.5 4.84 2.8.32 8.87-2.3 5.7-5.2-3.18-2.92.63-1.13 1.2-.77.56.37 3.82 3.1.37 7.2-1.46 1.72-3.12 3.3-7.14 4.54-.65.2-4.18.5-6.07 1.07-5.64 1.68-10.27-.02-12.9-3.7-2.6-3.64-.48-8.28.16-8.3"/>
                <path fill="#52267D" d="M12.86 22.6c-.18.15-.66.92-.94 2.18-.26 1.18-.47 3.48 1.02 5.56 2.72 3.8 7.27 5.1 12.48 3.54 1.2-.36 3.06-.6 4.4-.8.75-.1 1.45-.2 1.67-.26 4-1.24 5.58-2.8 6.95-4.44 1.14-1.35 1.63-2.67 1.44-3.92-.23-1.45-1.33-2.45-1.74-2.72-.3-.2-1.14-.58-1.66-.74.16.2.44.48.9.92 1.24 1.13 1.14 2.16.83 2.83-.9 1.98-4.78 3.25-6.8 3.03-3.93-.43-6.88-2.1-8.8-5l-.1-.2.1-.18c.26-.48.7-1.33.78-1.57.63-1.84.6-4.3-.04-7.36l-.74-3.9 4.5-.06c.15 0 .3-.06.42-.18.1-.1.17-.27.17-.43v-.37L27.6 8c-.06-.16-.12-.33-.2-.48 0-.06-.03-.1-.06-.16l-.1-.2c-.12-.2-.24-.36-.37-.5-.08-.1-.15-.18-.24-.26-.67-.65-1.56-1-2.5-1H23.43c-.66 0-1.3.2-1.85.54-.1.06-.2.12-.3.2-.26.2-.5.44-.7.72-.08.1-.14.2-.2.3-.06.08-.1.18-.16.3l-.07.15c-.06.17-.12.33-.16.5 0 .06-.02.12-.03.17-.04.24-.07.48-.06.72 0 .6.1 1.23.23 1.84l.46 1.92c.58 2.52-.24 6.34-.84 7.7-.06.1-.1.27-.15.48l-.05.28h-.28c-1.87.12-3.17.54-4.22.88-.8.25-1.47.47-2.2.5m8.48 12.65c-3.7 0-6.9-1.56-9-4.48-2.08-2.92-1.32-6.33-.54-7.9.5-.98.86-1 .98-1 .63-.02 1.26-.22 2.04-.47 1.04-.34 2.3-.75 4.13-.88.04-.14.08-.27.13-.37.55-1.24 1.34-4.9.8-7.22L19.4 11c-.14-.65-.23-1.33-.24-2 0-.3.03-.58.08-.86 0-.07.03-.14.05-.2.04-.22.1-.42.18-.6l.1-.2c.05-.13.1-.25.18-.37l.23-.34c.24-.34.53-.63.86-.88.1-.1.22-.17.34-.24.67-.4 1.44-.63 2.23-.64h.65c1.16-.03 2.25.4 3.07 1.2l.28.3c.16.2.3.4.44.62l.14.25.1.2c.08.18.15.38.2.6.06.2.1.4.13.62l.03.43c0 .36-.14.7-.4.96-.24.25-.58.4-.94.4l-3.6.05.57 3.03c.67 3.16.68 5.77.02 7.74-.1.3-.53 1.1-.73 1.48 1.77 2.6 4.5 4.1 8.1 4.5 1.93.2 5.34-1.06 6.05-2.6.3-.66.1-1.3-.64-2-1.25-1.14-1.57-1.66-1.26-2.06.55-.7 2.9.7 2.93.73.6.4 1.8 1.57 2.05 3.22.22 1.47-.32 2.98-1.6 4.5-1.4 1.65-3.1 3.37-7.3 4.67-.28.1-.9.18-1.78.3-1.33.18-3.15.42-4.3.77-1.5.43-2.93.65-4.3.65"/>
                <path fill="#9452BA" d="M16.24 16.87c.07-4.14-3.3-7.36-7.07-8-.78-.13-1.04-.37-1.9-.36l-.65.02c-2.2.03-3.98 1.82-3.95 4 0 .56.45 1 1 1l6.77-.1H11h-.56c1.5.6 2.44 2.48 2.62 3.5.25 1.43.1 2.62-.4 3.6-.3.63-.34 1.4-.28 2.03h.04c.02.35.08.73.2 1.16.62-.44 1.6-1.1 1.77-1.2l1.64-.9c2.5-1.47.15-2.37.2-4.73"/>
                <path fill="#52267D" d="M12.73 22.28l.06.25c0 .18.02.36.06.55.54-.37 1.2-.82 1.36-.9l1.63-.9c1.27-.75 1.08-1.14.63-2.1-.28-.6-.63-1.34-.6-2.3.06-4.2-3.44-7.08-6.77-7.64-.3-.06-.55-.13-.76-.2-.33-.1-.6-.17-1.06-.16h-.66c-2 .03-3.6 1.67-3.58 3.65 0 .16.07.32.2.44.1.1.27.2.43.17 2.28-.03 6.62-.08 6.75-.1h.56c.16 0 .2.04.28.1l.26.27-.12.14c1.15.87 1.88 2.38 2.04 3.3.26 1.48.12 2.76-.42 3.83-.25.5-.3 1.12-.27 1.6zm-.35 2.05l-.13-.53c-.08-.34-.14-.66-.18-.96l-.04-.02-.02-.23c-.08-.9.04-1.65.34-2.25.46-.93.58-2.07.35-3.37-.15-.83-.98-2.6-2.34-3.2l-6.68.1c-.37 0-.7-.14-.97-.4-.25-.24-.4-.58-.4-.94-.04-2.4 1.9-4.36 4.3-4.4h.67c.6 0 .92.1 1.28.2.2.06.4.12.7.17 3.62.63 7.44 3.77 7.36 8.38 0 .8.3 1.43.55 2 .46.95.93 1.95-.92 3.02-.38.23-1.22.68-1.66.92-.14.08-1.04.7-1.74 1.2l-.45.3z"/>
                <path fill="#F3E3FF" d="M14.15 21.7c-.04-.65-.14-.98-.07-1.24.4-1.5.53-1.98.5-3.57 0-1.58-.95-3.13-2.33-3.94-.07-.05-1.05-.1-1.8.46 1.48.6 2.43 2.48 2.6 3.5.26 1.43.1 2.62-.38 3.6-.32.63-.35 1.4-.3 2.03 0 0 1.84.66 1.78-.86"/>
                <path fill="#52267D" d="M12.55 22.4c.3.1.87.2 1.17-.03.18-.13.26-.35.25-.67l-.06-.6c-.03-.3-.05-.5 0-.7v-.03c.4-1.48.52-1.93.5-3.47-.02-1.5-.9-3-2.24-3.78-.06 0-.72-.05-1.34.28 1.36.74 2.24 2.46 2.42 3.48.25 1.43.1 2.68-.4 3.7-.3.6-.33 1.3-.3 1.83m.65.48c-.46 0-.86-.15-.9-.16l-.1-.04v-.1c-.06-.6-.05-1.44.3-2.15.48-.97.6-2.14.37-3.5-.18-1.04-1.15-2.8-2.5-3.34l-.3-.13.25-.2c.8-.6 1.86-.57 2.03-.47 1.45.86 2.4 2.47 2.42 4.1.02 1.6-.1 2.1-.5 3.56v.05c-.04.13-.02.3 0 .56.03.16.05.37.07.6v.02c.02.45-.12.78-.4 1-.22.15-.5.2-.75.2"/>
                <path fill="#FFF" d="M4.53 9.22s0-.7.68-.98L5.8 8s.43.86-.04 1.08c-.67.32-1.23.14-1.23.14"/>
                <path fill="#52267D" d="M4.73 9.07c.2.03.55.04.95-.15.05-.03.08-.06.1-.1.05-.17-.02-.4-.08-.58l-.42.17c-.4.17-.5.5-.55.67m.2.4c-.27 0-.45-.07-.46-.08l-.13-.05v-.13c0-.03 0-.82.8-1.15l.6-.24.15-.07.07.15c.03.08.3.63.16 1.03-.05.14-.15.25-.3.32-.33.16-.65.2-.9.2"/>
                <path fill="#FFF" d="M6.26 8.7s0-.93 1.08-1.08c.2-.03.72-.03.72-.03s.25 1-.3 1.1c-.7.12-1.5 0-1.5 0"/>
                <path fill="#52267D" d="M6.47 8.55c.27.02.78.04 1.24-.04.08 0 .12-.03.15-.08.1-.15.08-.45.05-.64-.17 0-.42 0-.54.02-.64.1-.83.5-.9.75m.52.4c-.4 0-.73-.06-.75-.06l-.16-.03V8.7c0-.37.27-1.13 1.24-1.27.22-.03.7-.02.76-.02h.14l.04.15c.02.07.17.7-.07 1.07-.1.13-.23.22-.4.25-.26.05-.54.07-.8.07"/>
                <path fill="#FFF" d="M8.4 8.77S8.5 7.73 9.46 8c.4.12.64.42.64.42s-.17.8-.55.72C8.9 9 8.4 8.77 8.4 8.77"/>
                <path fill="#52267D" d="M8.6 8.66c.2.07.56.2 1 .3l.04-.02c.1-.06.2-.3.26-.47-.08-.08-.25-.22-.48-.3-.22-.05-.4-.04-.53.05-.17.1-.26.3-.3.44m1 .67h-.1c-.66-.16-1.16-.38-1.18-.4L8.2 8.9v-.15c0-.02.08-.57.5-.84.22-.14.5-.17.82-.07.46.13.72.47.73.48l.06.08v.08c-.03.06-.16.6-.46.8-.07.04-.15.07-.24.07"/>
                <path fill="#FFF" d="M11.2 13.82s2.2-1.22 1.76-3.22c.3.24 1.1.96 1.38 1.33 0 .4.1 1.95-2.06 3.02-.4-.4-.72-.87-1.07-1.13"/>
                <path fill="#52267D" d="M11.52 13.84c.16.15.3.32.47.5.1.13.2.26.32.38 1.83-.96 1.84-2.26 1.84-2.73-.2-.26-.62-.65-.96-.95.05 1.45-1.17 2.44-1.68 2.8zm.72 1.33l-.1-.1c-.15-.15-.3-.32-.43-.48-.2-.26-.4-.5-.6-.63l-.23-.17.25-.14c.02 0 2.07-1.18 1.66-3.02l-.1-.5.4.32c.3.25 1.1.98 1.4 1.36l.05.04v.07c.02 1.4-.7 2.46-2.17 3.18l-.12.07z"/>
                <path fill="#F3E3FF" d="M4.82 9.02s0-.35.36-.5l.3-.13s.23.44-.02.55c-.34.17-.64.07-.64.07M6.7 8.5s.02-.5.56-.57h.37s.13.5-.16.55c-.35.07-.76 0-.76 0M8.73 8.7s.07-.56.57-.42c.22.07.34.23.34.23s-.1.43-.3.4c-.35-.1-.6-.2-.6-.2M8.2 12.8h-2C6.17 11.8 7 11 8 10.97h.2c.5 0 .92.4.92.9s-.4.92-.9.93"/>
                <path fill="#FFF" d="M8.04 12.76l-1.8.02c-.02-.8.62-1.44 1.42-1.45h.36c.4 0 .73.3.74.7 0 .4-.32.72-.72.73"/>
                <path fill="#52267D" d="M8.03 11.5h-.37c-.34 0-.65.15-.9.4-.18.18-.3.43-.34.7l1.62-.03c.3 0 .54-.24.53-.54 0-.14-.06-.27-.16-.37-.1-.1-.22-.15-.37-.15zm-2 1.47v-.2c0-.42.17-.83.47-1.14.3-.3.72-.48 1.15-.5h.37c.5 0 .92.4.92.9s-.4.9-.9.9l-2 .04z"/>
                <path fill="#52267D" d="M6.54 12.02c0 .22.2.4.4.4.24 0 .42-.2.4-.4 0-.24-.17-.4-.4-.4-.22 0-.4.17-.4.4"/>
                <path fill="#EAF3FB" d="M11.58 13.85s1.7-.93 1.65-2.76c.74.5.94.85.94.85s-.12.87-.52 1.32c-.62.68-1.28.9-2.07.58"/>
                <path fill="#FFF" d="M13.2 13.5s-.67.7-1.32 1.03"/>
                <path fill="#52267D" d="M11.96 14.7l-.17-.33c.6-.32 1.25-.98 1.26-1l.27.27c-.03.03-.7.7-1.37 1.05"/>
                <path fill="#9452BA" d="M19.97 20.55l-.4-.74c-1.46-3.42-1.7-5.45-1-8.75l.4-1.94c.13-.62.2-1.27.2-1.92-.04-2.16-1.83-3.9-4-3.86h-.65c-2.15.03-3.87 1.78-3.85 3.9v.13c0 .5.43.9.94.9l4.05-.05-.57 3.5c-1.75 9.33-1.52 13.1 2.16 12.28"/>
                <path fill="#52267D" d="M16.34 24.46c-.68 0-1.22-.2-1.65-.6-1.4-1.33-1.4-4.76.02-12.24l.5-3.04-3.6.04c-.34 0-.68-.12-.93-.36s-.4-.57-.4-.9v-.12c0-1.13.42-2.2 1.2-3 .8-.8 1.88-1.27 3.02-1.28h.63c1.15-.04 2.25.4 3.08 1.2.82.8 1.3 1.87 1.3 3.02 0 .67-.06 1.35-.2 2l-.4 1.94c-.68 3.23-.46 5.15 1 8.55l.36.7-.66.35-.4-.74c-1.5-3.55-1.75-5.64-1.04-9l.4-1.94c.13-.6.2-1.23.2-1.85-.03-.96-.4-1.85-1.1-2.5-.68-.67-1.58-1.03-2.54-1h-.63c-1.95.02-3.5 1.6-3.5 3.53l.02.1c0 .16.06.3.16.4.12.1.27.15.4.15l4.5-.05-.65 3.92c-.93 4.95-1.7 10.2-.24 11.57.43.4 1.07.5 1.96.3l.16.72c-.35.08-.68.12-.98.12"/>
                <path fill="#FFF" d="M12.58 3.8s.05-.67.73-.94c.22-.1.54 0 .54 0s.4.6-.05.82c-.67.32-1.22.13-1.22.13"/>
                <path fill="#52267D" d="M12.8 3.67c.2.02.52.03.9-.16.08-.02.1-.07.1-.1.04-.1-.02-.28-.08-.38-.1-.02-.25-.03-.34 0-.38.16-.53.46-.58.65m.18.38c-.27 0-.45-.06-.46-.06l-.14-.06V3.8c0-.03.1-.8.86-1.1.26-.12.6-.03.65-.02l.06.02.04.05c.03.05.26.42.17.75-.04.15-.15.27-.3.34-.34.17-.65.2-.9.2"/>
                <path fill="#FFF" d="M14.2 3.57s0-1.07 1.2-1.24c.24-.03.53 0 .53 0s.6 1.1-.05 1.22c-.8.14-1.7.02-1.7.02"/>
                <path fill="#52267D" d="M14.4 3.4c.3.03.9.07 1.45-.03.07-.02.1-.05.12-.08.07-.17-.04-.54-.16-.8h-.36c-.78.12-.98.64-1.04.9m.6.4c-.45 0-.8-.04-.83-.05L14 3.73v-.16c0-.43.3-1.27 1.4-1.42.23-.04.53-.02.54-.02h.1l.06.1c.04.08.4.8.2 1.22-.05.1-.16.24-.4.28-.3.06-.6.07-.9.07"/>
                <path fill="#FFF" d="M16.37 3.8s.15-1.04 1.08-.74c.4.12.6.42.6.42s-.2.78-.56.7c-.65-.17-1.13-.4-1.13-.4"/>
                <path fill="#52267D" d="M16.6 3.68c.17.07.52.2.94.3 0 0 .03.02.05 0 .1-.06.2-.28.25-.45-.08-.08-.24-.23-.46-.3-.22-.06-.4-.06-.52.03-.17.1-.25.3-.3.42m.97.68h-.1c-.65-.18-1.14-.4-1.16-.4l-.14-.06.02-.14c0-.02.1-.56.5-.82.23-.14.5-.16.82-.06.45.14.7.48.7.5l.06.07-.02.08c-.03.1-.16.6-.46.77-.07.04-.15.06-.23.06M13 22.26l-.24-.3c.23-.16.48-.3.73-.35l.08.37c-.14.03-.36.1-.6.3"/>
                <path fill="#F3E3FF" d="M14.2 22.08c-.68-2.65.44-7.75.65-9l.8-5.02h.38c.48 0 .85.5.8.98l-.58 4.35c-.2 1.47-.33 8.28 2.27 9.7.55.32 1.44.1 1.78-.06 1.22-.6 1.55-2.12 1.8-3.34.53-2.54.07-4.52-.08-6.5l-.16-2.47c-.03-.45.33-.93.78-.94h.46l.9 5c.26 1.4.97 6.35-1.95 8.7-.05.05.72.2.5.6-.86 1.56-3.42 1.84-3.9 2.5-1.82 2.6 0 8 0 8s-2.1-.78-3.38-1.9c-3.02-2.62-3.45-6.46-3.48-7.6-.04-1.34.3-2.18.74-2.7"/>
                <path fill="#52267D" d="M18.94 34.92l-.37-.14c-.1-.03-2.12-.82-3.42-1.94-3.26-2.82-3.52-6.93-3.54-7.72-.02-1.23.24-2.18.8-2.83l.28.23c-.5.57-.73 1.46-.7 2.58 0 .48.2 4.68 3.4 7.46.95.8 2.32 1.45 2.96 1.73-.37-1.3-1.43-5.54.16-7.8.22-.3.72-.5 1.35-.76.9-.37 2.04-.83 2.54-1.73v-.05c-.02-.08-.24-.18-.32-.2-.1-.06-.2-.1-.2-.22l-.03-.1.1-.07c2.8-2.26 2.13-7.1 1.86-8.54l-.85-4.85h-.3c-.15 0-.28.08-.4.2-.14.14-.2.36-.2.55l.16 2.47.14 1.35c.18 1.57.36 3.2-.05 5.18-.26 1.2-.6 2.83-1.92 3.47-.34.17-1.32.42-1.95.07-2.8-1.53-2.53-8.66-2.37-9.9l.58-4.35c.02-.2-.05-.42-.2-.58-.1-.13-.25-.2-.4-.2h-.23l-.77 4.87-.13.72c-.33 1.78-1.1 5.96-.5 8.2l-.37.1c-.6-2.33.15-6.4.5-8.37l.13-.7.83-5.17h.53c.27 0 .5.1.7.32.2.23.32.56.28.86l-.57 4.35c-.22 1.73-.25 8.2 2.18 9.55.48.26 1.3.07 1.62-.08 1.16-.57 1.47-2.1 1.7-3.2.4-1.94.23-3.53.05-5.08-.05-.47-.1-.93-.13-1.38l-.16-2.48c-.02-.3.1-.6.3-.82.18-.2.42-.3.66-.3l.62-.02.92 5.16c.27 1.44.92 6.25-1.8 8.7.15.1.32.2.38.37.03.08.04.2-.04.36-.57 1-1.77 1.5-2.73 1.88-.54.22-1.04.42-1.2.63-1.75 2.5 0 7.8 0 7.85l.14.37z"/>
                <path fill="#FFF" d="M38.5 24s.42-.48.17-1.1c-.08-.2-.34-.35-.34-.35s-.66.12-.52.56c.22.64.7.9.7.9"/>
                <path fill="#52267D" d="M38.3 22.75c-.1.03-.25.1-.3.17-.02.03-.03.07 0 .13.1.36.3.57.45.68.08-.15.18-.43.05-.76-.03-.08-.13-.17-.2-.22zm.24 1.47l-.13-.07s-.53-.3-.76-.98c-.05-.16-.04-.3.04-.43.16-.28.57-.36.62-.37l.07-.02.06.04c.03 0 .32.2.4.43.3.72-.17 1.26-.2 1.28l-.1.12z"/>
                <path fill="#FFF" d="M35.06 27.37s-.4-.9.54-1.52c.18-.1.44-.2.44-.2s.93.7.44 1.05c-.6.43-1.42.67-1.42.67"/>
                <path fill="#52267D" d="M36 25.85l-.3.16c-.6.4-.57.9-.52 1.14.27-.1.78-.3 1.2-.6.05-.03.06-.06.06-.1 0-.15-.24-.42-.44-.6zm-1.04 1.75l-.07-.15c-.17-.37-.26-1.2.6-1.75.2-.13.46-.23.47-.23l.1-.04.08.06c.1.08.67.53.66.96 0 .1-.03.27-.2.4-.64.43-1.45.68-1.48.7l-.16.04z"/>
                <path fill="#F3E3FF" d="M35.4 27.02s-.24-.5.3-.84l.23-.12s.52.4.25.6c-.34.23-.8.36-.8.36"/>
                <path fill="#FFF" d="M37.97 24.35s.7.6.04 1.15c-.27.24-.6.25-.6.25s-.5-.5-.26-.74c.43-.4.83-.65.83-.65"/>
                <path fill="#52267D" d="M37.94 24.6c-.15.1-.4.3-.67.54 0 .12.1.3.2.42.1-.02.27-.07.42-.2.14-.12.2-.24.2-.38 0-.15-.08-.3-.16-.4zm-.62 1.34l-.06-.06c-.06-.06-.38-.4-.37-.72 0-.1.03-.2.1-.28.45-.42.85-.67.87-.68l.1-.08.12.1s.38.33.38.76c0 .25-.12.47-.35.66-.33.27-.7.3-.73.3h-.08z"/>
                <path fill="#F3E3FF" d="M37.87 24.78s.3.27.02.5c-.14.12-.28.12-.28.12s-.22-.22-.12-.33l.37-.3"/>
                <path fill="#FFF" d="M31.72 27.9s-.24-.82.66-1.15c.9-.33 1.14-.07 1.14-.07s.5.83.07 1.1c-.46.27-1.88.1-1.88.1"/>
                <path fill="#52267D" d="M31.88 27.72c.53.05 1.35.06 1.6-.1.23-.13 0-.63-.1-.8-.06-.04-.3-.13-.94.1-.54.2-.58.6-.56.8m.7.4c-.43 0-.8-.04-.88-.04l-.12-.02-.04-.12c-.1-.33-.07-1.05.77-1.36.98-.36 1.3-.08 1.35-.02.25.4.5 1.08.03 1.38-.24.14-.7.18-1.1.18"/>
                <path fill="#F3E3FF" d="M32.14 27.7s-.13-.42.34-.6c.47-.16.6-.03.6-.03s.26.43.03.57c-.22.15-.96.06-.96.06"/>
                <path fill="#FFF" d="M15.47 9.3s1.45.77 3.46.02l-.4 1.88s-1.86.6-3.32-.3c.15-.82.27-1.6.27-1.6"/>
                <path fill="#52267D" d="M15.4 10.8c1.17.64 2.6.35 2.98.25l.3-1.45c-1.46.45-2.6.14-3.06-.05l-.2 1.26m1.7.78c-.62 0-1.35-.12-2-.52L15 11v-.12l.27-1.62.03-.26.23.12s1.4.74 3.3.03l.32-.12-.07.33-.38 1.87-.03.1-.1.04c-.05.02-.67.2-1.48.2"/>
                <path fill="#FFF" d="M26.2 5.53s-.1-.68-.78-.94c-.2-.1-.77-.1-.77-.1s-.15.72.3.93c.68.3 1.24.1 1.24.1"/>
                <path fill="#52267D" d="M24.8 4.68c0 .2.03.48.24.58.4.17.73.16.92.13-.06-.2-.22-.5-.6-.64-.1-.04-.35-.07-.55-.08m.93 1.1c-.23 0-.52-.04-.84-.2-.6-.25-.44-1.1-.43-1.13l.03-.15h.15c.06 0 .6.03.84.1.78.3.87 1.08.87 1.1l.02.16-.15.04c-.02 0-.2.08-.52.08"/>
                <path fill="#FFF" d="M24.44 5.2s-.03-.93-1.1-1.05c-.2-.02-.44 0-.44 0s-.48.98.07 1.07c.7.1 1.47-.02 1.47-.02"/>
                <path fill="#52267D" d="M23.03 4.33c-.1.22-.18.53-.12.66.02 0 .04.03.1.04.46.07.96.04 1.23 0-.06-.23-.27-.63-.9-.7-.1-.02-.22-.02-.3 0m.57 1.1c-.2 0-.44 0-.65-.04-.2-.03-.32-.15-.36-.24-.2-.36.08-.97.14-1.1l.04-.08h.1c.02 0 .28-.04.5 0 .96.1 1.24.84 1.25 1.22v.16l-.16.03c-.02 0-.4.05-.87.05"/>
                <path fill="#FFF" d="M22.44 5.3s-.18-1.03-1.1-.7c-.4.12-.6.43-.6.43s.2.78.58.68c.64-.17 1.12-.4 1.12-.4"/>
                <path fill="#52267D" d="M20.94 5.07c.06.18.17.4.27.46h.07c.42-.1.77-.26.95-.34-.04-.14-.14-.33-.3-.43-.14-.08-.3-.08-.52 0-.23.07-.4.22-.46.3m.3.83c-.06 0-.14-.02-.2-.05-.3-.17-.46-.67-.5-.77V5l.04-.07s.25-.36.7-.52c.3-.1.6-.08.83.06.42.24.52.78.52.8l.03.14-.13.06c-.02 0-.5.25-1.15.43h-.12"/>
                <path fill="#F3E3FF" d="M12.93 3.64s.03-.36.4-.5c.1-.06.28 0 .28 0s.22.3-.02.43c-.35.16-.65.07-.65.07M14.6 3.4s0-.68.76-.8h.32s.37.7-.03.77c-.5.1-1.06.02-1.06.02M16.77 3.68s.08-.6.62-.42c.22.07.34.24.34.24s-.1.45-.32.4c-.37-.1-.65-.22-.65-.22M25.84 5.36s-.04-.36-.4-.5c-.1-.04-.4-.05-.4-.05s-.1.4.16.5c.35.16.64.06.64.06M24.03 5.04s-.02-.5-.6-.58h-.25s-.27.55.04.6c.38.05.8-.02.8-.02M22.07 5.23s-.1-.56-.6-.4c-.22.1-.34.26-.34.26s.12.4.33.36c.35-.1.6-.23.6-.23"/>
                <path fill="#FFF" d="M19.8 11s1.78.25 3.46-.18c.18.9.3 1.6.3 1.6s-1.17.8-3.35.37l-.4-1.8"/>
                <path fill="#52267D" d="M20.37 12.63c1.65.3 2.67-.15 2.98-.3l-.23-1.3c-1.27.3-2.55.23-3.1.18.08.28.2.76.35 1.43m1.1.47c-.4 0-.82-.04-1.3-.13l-.1-.03-.04-.1-.42-1.8-.05-.26.27.03c0 .02 1.77.26 3.4-.16l.2-.05.03.18.3 1.6v.12l-.1.06c-.03.03-.78.54-2.2.54"/>
                <path fill="#F3E3FF" d="M22.7 9.2l2.04-.04c-.02-1-.85-1.8-1.87-1.8h-.18c-.52 0-.93.42-.92.93 0 .5.43.9.93.9"/>
                <path fill="#FFF" d="M22.94 9.15l1.76-.02c0-.8-.67-1.43-1.47-1.42l-.4.02c-.4 0-.68.3-.68.67 0 .42.36.76.8.75"/>
                <path fill="#52267D" d="M23.25 7.9h-.43c-.13 0-.25.05-.35.15-.1.1-.14.2-.13.34 0 .15.06.3.17.4.12.1.27.17.43.17l1.57-.02c-.1-.6-.62-1.05-1.25-1.05zm-.32 1.43c-.26 0-.5-.1-.68-.27-.18-.17-.28-.4-.3-.67 0-.23.1-.45.26-.6.17-.17.38-.26.6-.27h.45c.9 0 1.63.7 1.64 1.6v.18l-1.96.03z"/>
                <path fill="#52267D" d="M23.68 8.8c-.1-.2-.02-.43.18-.53.2-.1.44-.02.54.18.1.2.02.43-.18.53-.2.1-.44.02-.54-.17"/>
                <path fill="#F3E3FF" d="M15.7 7.54l-2.03.03c0-1 .8-1.84 1.82-1.85h.17c.5 0 .93.4.93.9s-.4.92-.9.92"/>
                <path fill="#FFF" d="M15.52 7.5l-1.8.03c-.02-.8.62-1.44 1.42-1.45h.37c.4 0 .73.3.74.7 0 .4-.32.73-.72.73"/>
                <path fill="#52267D" d="M15.5 6.26h-.36c-.63 0-1.15.48-1.24 1.1l1.62-.03c.15 0 .28-.06.38-.16.1-.1.16-.24.15-.38 0-.3-.24-.54-.54-.54zm-1.98 1.46v-.18c0-.9.7-1.63 1.6-1.64h.38c.5 0 .92.4.92.88 0 .24-.08.47-.25.64-.17.17-.4.27-.64.27l-2 .02z"/>
                <path fill="#52267D" d="M14.2 7.12c.2.14.44.1.58-.06.14-.17.12-.43-.06-.57-.17-.15-.43-.12-.57.05-.14.18-.1.43.06.57"/>
                <path fill="#EAF3FB" d="M15.65 9.54s1.5.62 3.02.02c-.14.9-.28 1.34-.28 1.34s-.92.06-1.53-.05c-.87-.15-1.2-.54-1.22-1.3"/>
                <path fill="#52267D" d="M17.36 10.85c-.5 0-1.37-.06-2.12-.44l.16-.32c1 .5 2.33.4 2.34.4l.04.35c-.02 0-.18.02-.42.02"/>
                <path fill="#EAF3FB" d="M22.62 11.16s-1.34.4-2.52.17c.24.87.36 1.14.36 1.14s1.76-.25 2.16-1.3"/>
                <path fill="#52267D" d="M20.9 12c-.3 0-.62 0-.94-.04l.04-.36c1.38.14 2.7-.12 2.7-.12l.1.36c-.06 0-.87.17-1.9.17"/>
                <path fill="#FFF" d="M20.9 39.1s-.37-.27-.84.12c-.43.36-.74.9-.55.96.2.05.55.1.9.03.32-.05.6 0 .7-.64.07-.3-.2-.45-.2-.45"/>
                <path fill="#52267D" d="M20.57 39.1c-.12 0-.27.05-.45.2-.38.3-.6.72-.57.8.08.02.44.1.84.02.03 0 .07 0 .12-.02.25-.03.4-.06.5-.56.04-.23-.16-.34-.17-.34-.02-.02-.12-.1-.28-.1m-.53 1.24c-.27 0-.48-.05-.55-.07-.08-.02-.12-.06-.14-.13-.05-.22.3-.7.64-1 .48-.4.88-.15.94-.1.12.06.32.25.26.54-.1.62-.4.67-.66.7l-.12.02c-.13.03-.26.04-.38.04"/>
                <path fill="#EAF3FB" d="M20.8 39.22s-.2-.18-.5.07c-.27.2-.47.55-.35.58.12.04.34.07.56.02.2-.03.38 0 .45-.4.03-.2-.14-.28-.14-.28"/>
                <path fill="#FFF" d="M21.4 39.1c.2-.03.47.38.44.5-.03.12-.05.53-.35.58-.24.04-1.04.13-1.22-.04-.16-.16.15-.9 1.12-1.04"/>
                <path fill="#52267D" d="M21.4 39.2c-.67.1-.97.5-1.05.7-.03.1 0 .16 0 .17.1.1.72.08 1.12.02.18-.04.23-.25.26-.44 0-.03 0-.06.02-.08 0-.04-.08-.2-.2-.3-.06-.07-.1-.1-.14-.1m-.6 1.15c-.25 0-.48-.03-.58-.12-.08-.07-.1-.2-.04-.35.1-.35.53-.74 1.2-.84.14 0 .26.1.34.18.1.1.24.3.2.44v.07c-.03.16-.1.52-.42.57-.06 0-.4.06-.7.06"/>
                <path fill="#EAF3FB" d="M21.45 39.2c.12 0 .28.23.26.3 0 .08-.02.32-.2.35-.13.02-.6.08-.7-.02-.1-.1.08-.53.65-.62"/>
                <path fill="#FFF" d="M22.2 39.17s-.16-.08-.5.1c-.27.17-.7.43-.57.75.1.32 1 .2 1.2.12.2-.07.33-.3.3-.47-.1-.42-.43-.5-.43-.5"/>
                <path fill="#52267D" d="M22.1 39.24c-.07 0-.18.02-.34.1-.32.2-.63.42-.55.65.1.2.88.14 1.1.05.16-.05.26-.22.23-.37-.07-.34-.34-.42-.35-.42h-.02s-.03-.02-.07-.02m-.4 1.08c-.3 0-.6-.06-.66-.27-.15-.4.38-.7.63-.85.32-.2.5-.14.56-.12.06.02.4.14.5.57.03.23-.12.5-.36.58-.1.03-.4.1-.68.1"/>
                <path fill="#EAF3FB" d="M22.26 39.28s-.1-.05-.28.07c-.17.1-.42.25-.35.44.07.18.6.1.72.06.1-.04.2-.17.16-.28-.03-.25-.24-.3-.24-.3"/>
                <path fill="#9452BA" d="M18.3 28.98s.2 2.07-.28 5.32c-.45 3.03-1.3 4-1.24 4.78.06.6.32 1.16.94 1.15l1.83-.02c.86 0 1.6-.56 1.87-1.36.22-.65.44-1.54.56-2.65.12-1.53.07-3.05.04-3.94"/>
                <path fill="#52267D" d="M17.7 40.6c-.72 0-1.2-.56-1.3-1.5-.03-.4.13-.82.34-1.4.28-.73.66-1.74.92-3.45.47-3.16.28-5.2.27-5.23l.74-.07c0 .08.2 2.15-.28 5.4-.28 1.8-.7 2.9-.96 3.62-.2.5-.3.83-.3 1.07.05.38.17.82.57.82l1.85-.02c.7 0 1.3-.46 1.52-1.12.26-.78.44-1.64.54-2.57.14-1.6.07-3.25.05-3.87l.74-.03c.03 1 .07 2.5-.05 3.97-.1 1-.3 1.9-.57 2.73-.32.96-1.2 1.6-2.22 1.62l-1.84.03z"/>
                <path fill="#9452BA" d="M27.73 30.24c-.6.52-.9 1.37-.9 2.15.03 1.03.66 2.35.3 4.1-.33 1.53-1.02 1.8-.8 3.2.05.24.28.42.53.42l2.05-.03c.95-.02 1.74-.7 1.9-1.63.37-2.46.02-4.77-.33-6.55"/>
                <path fill="#52267D" d="M26.85 40.48c-.43 0-.8-.3-.88-.73-.15-.94.07-1.44.33-2.02.16-.35.34-.74.46-1.32.22-1.06.04-1.97-.12-2.77-.08-.44-.17-.84-.17-1.23-.02-.94.37-1.88 1-2.44l.5.55c-.48.44-.77 1.15-.76 1.9.02.3.1.67.17 1.08.17.83.37 1.86.1 3.08-.12.65-.33 1.1-.5 1.47-.23.53-.38.88-.27 1.6 0 .07.1.12.16.12l2.04-.03c.77 0 1.4-.56 1.52-1.3.37-2.42.03-4.7-.3-6.43l.7-.15c.37 1.78.72 4.14.33 6.68-.17 1.1-1.1 1.9-2.24 1.93l-2.03.02h-.02z"/>
                <path fill="#52267D" d="M28.25 32.9l-.7-.33.68-.56.3.1-.06.18-.2-.06-.38.3.33.17.2-.14-.13-.02-.08.06-.1-.15.14-.1.65.12"/>
                <path fill="#FFF" d="M17.18 39.16s-.36-.28-.83.1c-.43.37-.75.92-.55.97.2.05.54.1.9.03.3-.06.58 0 .7-.65.06-.3-.22-.44-.22-.44"/>
                <path fill="#52267D" d="M15.94 40.07c.15.03.42.07.72 0h.13c.22-.05.34-.06.42-.5.03-.16-.12-.25-.12-.25h-.03c-.03-.04-.27-.2-.6.1-.28.22-.47.5-.53.65m.38.4c-.26 0-.47-.04-.57-.06-.1-.02-.17-.1-.2-.2-.05-.3.37-.8.68-1.07.45-.38.88-.25 1.05-.12.15.1.36.3.3.64-.1.64-.4.73-.74.78-.03 0-.07 0-.1.02-.15.03-.3.04-.42.04"/>
                <path fill="#EAF3FB" d="M17.1 39.27s-.22-.18-.5.06c-.28.23-.48.57-.36.6.12.03.34.06.56.02.2-.04.37 0 .44-.4.03-.2-.14-.28-.14-.28"/>
                <path fill="#52267D" d="M20.1 34.8l-.88-.04-.13-.82.8-.26.05.18-.65.2.08.53.63.02.25-.28-.32-.17-.2.06.15.15-.14.12-.34-.36.55-.16.6.3"/>
                <g fill="#F3E3FF">
                    <path d="M11.75 11.7c-.06 0-.12-.03-.17-.06l.05-.08c.05.03.12.04.18.03.08-.03.13-.07.16-.12.04-.06.05-.12.03-.2-.02-.05-.06-.1-.12-.14l.05-.08c.08.05.13.12.15.2.02.1 0 .2-.04.26-.06.1-.17.17-.3.17"/>
                    <path d="M11.85 12.1c-.06 0-.12-.03-.17-.06l.04-.08c.06.03.13.04.2.03.06-.03.1-.07.14-.12.04-.06.05-.13.03-.2-.02-.05-.06-.1-.12-.14l.05-.08c.08.05.13.12.15.2.02.1 0 .2-.04.26-.06.1-.17.17-.3.17M34.58 29.8h-.02c-.1 0-.17-.03-.22-.1l.07-.06c.05.05.1.08.16.08s.12-.02.17-.05c.05-.04.07-.1.08-.16 0-.05 0-.1-.05-.15l.07-.06c.06.05.1.13.08.22 0 .08-.04.16-.1.2-.07.07-.14.1-.22.1"/>
                    <path d="M34.55 30.2c-.1 0-.18-.04-.24-.1l.08-.07c.08.1.23.1.32.02.1-.08.1-.23.02-.32l.08-.06c.1.13.1.33-.04.45-.06.05-.13.08-.2.08M23.7 26.28c-.03 0-.07 0-.12-.02-.1-.03-.16-.1-.2-.18l.08-.04c.06.13.23.2.37.13.13-.07.2-.23.13-.37l.08-.04c.1.2 0 .4-.17.5l-.16.02"/>
                    <path d="M23.13 26.56c-.14 0-.27-.08-.34-.2l.08-.05c.03.07.08.12.15.15.07.02.15.02.2 0 .15-.08.2-.24.15-.37l.08-.04c.1.18 0 .4-.18.48-.05.03-.1.04-.15.04"/>
                    <path d="M23.56 26.7h-.13c-.1-.05-.17-.1-.2-.2l.08-.04c.04.07.1.12.16.14.07.03.15.02.2 0 .08-.04.13-.1.15-.16.04-.07.04-.15 0-.2l.1-.05c.03.08.04.18 0 .27-.03.1-.1.16-.2.2-.04.03-.1.04-.14.04"/>
                    <path d="M22.97 26.98c-.04 0-.08 0-.12-.02-.1-.03-.17-.1-.2-.2l.07-.03c.07.14.23.2.37.13.13-.06.2-.22.12-.36l.1-.04c.07.18 0 .4-.2.5l-.15.02M23.98 26.86c-.13 0-.27-.08-.33-.2l.08-.05c.07.15.23.2.37.14.07-.03.12-.08.14-.15.03-.08.02-.15 0-.22l.08-.04c.04.1.04.2 0 .28-.02.1-.1.17-.18.2-.05.03-.1.04-.16.04"/>
                </g>
                <path fill="#FFF" d="M17.7 39.15c.18-.03.45.37.42.5-.03.12-.04.53-.35.58-.22.03-1.02.13-1.2-.04-.16-.17.14-.9 1.12-1.05"/>
                <path fill="#52267D" d="M17.7 39.33c-.56.1-.8.38-.9.5-.08.13-.1.22-.08.25.07.04.58.04 1.02-.03.12-.02.16-.2.2-.36v-.1c0-.05-.16-.24-.23-.27m-.6 1.14c-.27 0-.54-.03-.66-.15-.1-.1-.12-.26-.06-.45.1-.35.52-.8 1.28-.9.14-.03.28.04.42.2.1.1.27.34.22.52v.05c-.04.18-.1.6-.5.66-.13.03-.42.07-.7.07"/>
                <path fill="#EAF3FB" d="M17.74 39.26c.1-.02.28.22.26.3-.02.07-.03.3-.2.34-.14.02-.6.07-.72-.03-.1-.1.1-.53.66-.6"/>
                <path fill="#FFF" d="M18.36 39.34s-.14-.07-.43.1c-.25.14-.62.37-.52.65.1.28.9.16 1.1.1.16-.06.27-.26.24-.42-.08-.37-.38-.44-.38-.44"/>
                <path fill="#52267D" d="M18.27 39.5c-.04 0-.12.02-.24.1-.13.06-.5.28-.44.43.06.1.62.07.82 0 .1-.04.15-.14.14-.22-.05-.22-.23-.28-.25-.28h-.03m-.36.94c-.28 0-.58-.07-.66-.3-.16-.44.37-.75.6-.9.3-.16.5-.12.58-.1.16.05.43.2.5.58.05.26-.1.54-.37.63-.07.02-.35.1-.64.1"/>
                <path fill="#EAF3FB" d="M18.42 39.44s-.1-.04-.26.05c-.15.08-.37.22-.3.4.06.15.53.08.63.05.1-.04.16-.15.14-.25-.04-.22-.22-.26-.22-.26"/>
                <path fill="#FFF" d="M10.83 39.5s-.14-.06-.43.1c-.25.15-.62.38-.52.67.1.28.9.16 1.08.1.17-.06.28-.25.25-.42-.07-.36-.37-.44-.37-.44"/>
                <path fill="#52267D" d="M10.74 39.68c-.04 0-.12 0-.24.08-.13.07-.5.3-.44.44.07.1.63.07.83 0 .1-.04.14-.14.12-.22-.04-.23-.22-.3-.24-.3h-.02-.02m-.36.95c-.3 0-.6-.06-.67-.3-.15-.44.38-.75.6-.88.3-.18.52-.14.6-.1.15.03.42.2.5.56.04.27-.12.55-.38.64-.07.03-.35.1-.64.1"/>
                <path fill="#EAF3FB" d="M10.9 39.6s-.1-.03-.27.07c-.15.08-.37.22-.3.4.05.15.53.1.63.05.1-.04.17-.15.15-.25-.03-.22-.2-.26-.2-.26"/>
                <path fill="#FFF" d="M11.7 39.3c.2-.03.46.38.43.5-.02.12-.04.53-.35.58-.22.04-1.02.13-1.2-.04-.16-.16.14-.9 1.12-1.04"/>
                <path fill="#52267D" d="M11.72 39.48c-.57.1-.82.38-.9.5-.1.13-.1.23-.1.25.08.04.6.04 1.04-.03.1-.02.15-.2.18-.36v-.08c0-.05-.15-.25-.22-.28m-.62 1.14c-.26 0-.52-.03-.65-.15-.1-.1-.12-.26-.06-.45.1-.34.5-.8 1.27-.9.14-.02.28.05.42.2.1.1.26.34.22.52 0 .02 0 .04-.02.06-.02.18-.1.6-.5.66-.12.02-.4.06-.7.06"/>
                <path fill="#EAF3FB" d="M11.75 39.4c.1 0 .28.23.26.3 0 .08-.02.32-.2.35-.13.02-.6.08-.7-.03-.1-.1.08-.52.65-.6"/>
                <path fill="#FFF" d="M27.1 39.04s-.35-.3-.82.1c-.43.36-.75.9-.55.96.2.06.53.1.9.04.3-.06.58 0 .7-.66.05-.3-.22-.44-.22-.44"/>
                <path fill="#52267D" d="M26.78 39.03c-.12 0-.27.04-.44.2-.38.3-.6.7-.58.8.1 0 .44.1.84.02l.13-.02c.25-.04.42-.07.5-.56.05-.24-.16-.35-.16-.35h-.02c0-.02-.1-.1-.27-.1m-.52 1.24c-.27 0-.48-.05-.56-.07-.06-.02-.1-.07-.12-.13-.05-.23.3-.7.64-1 .48-.4.88-.16.94-.1.1.05.3.24.26.53-.1.63-.4.67-.66.7l-.12.03-.38.03"/>
                <path fill="#EAF3FB" d="M27.03 39.14s-.22-.17-.52.07c-.25.23-.45.57-.33.6.12.04.33.07.56.03.2-.04.36 0 .44-.4.03-.2-.14-.3-.14-.3"/>
                <path fill="#FFF" d="M27.62 39.02c.18-.02.46.38.43.5-.03.13-.04.54-.35.58-.22.04-1.02.13-1.2-.04-.16-.15.14-.9 1.12-1.04"/>
                <path fill="#52267D" d="M27.63 39.1c-.7.1-1 .5-1.06.73-.03.1-.02.15 0 .17.1.1.72.08 1.12 0 .17-.02.2-.23.25-.42v-.08c0-.04-.06-.2-.18-.3-.07-.07-.1-.08-.14-.1M27 40.26c-.23 0-.46-.02-.57-.12-.07-.07-.1-.2-.04-.36.1-.34.52-.74 1.2-.84.13-.02.26.08.34.17.1.1.23.3.2.44v.07c-.04.18-.1.54-.42.6-.06 0-.4.05-.7.05"/>
                <path fill="#EAF3FB" d="M27.67 39.14c.1-.02.27.22.26.3-.02.06-.03.3-.2.33-.14.02-.6.08-.72-.02-.1-.1.1-.53.67-.6"/>
                <path fill="#FFF" d="M28.3 39.22s-.16-.08-.44.1c-.25.13-.62.37-.52.65.1.28.9.17 1.07.1.2-.06.3-.25.27-.42-.08-.36-.38-.43-.38-.43"/>
                <path fill="#52267D" d="M28.2 39.3c-.06 0-.16 0-.3.1-.27.15-.54.34-.47.54.06.18.75.12.95.05.13-.06.22-.2.2-.33-.07-.3-.3-.36-.3-.37h-.03-.06m-.36.94c-.26 0-.52-.05-.6-.24-.12-.37.35-.64.57-.77.3-.17.47-.12.52-.1.06.02.36.12.44.5.04.22-.1.46-.32.53-.08.03-.34.08-.6.08"/>
                <path fill="#EAF3FB" d="M28.34 39.3s-.08-.03-.25.07c-.16.1-.38.22-.32.4.06.16.53.1.64.05.1-.03.17-.15.15-.25-.05-.2-.23-.26-.23-.26"/>
                <path fill="#FFF" d="M14.18 39.44c.06-.05.13-.06.2-.03.2.1.75.4.65.78-.1.3-.28.2-.63.22h-.27c-.06 0-.1 0-.14-.06-.17-.26-.1-.67.16-.88l.02-.02z"/>
                <path fill="#52267D" d="M14.3 39.57l-.02.03c-.18.16-.24.46-.13.64l.24-.02h.2c.22 0 .22 0 .25-.1.07-.24-.4-.48-.56-.55zm-.18 1.03c-.12 0-.22-.07-.3-.17-.2-.33-.1-.84.22-1.1l.02-.02c.1-.1.26-.12.38-.06.8.36.82.77.77 1-.1.37-.38.36-.6.35H14.13z"/>
                <path fill="#EAF3FB" d="M14.2 39.53c.05-.04.1-.05.14-.03.16.08.56.28.48.56-.06.22-.2.16-.45.17h-.2c-.04 0-.08 0-.1-.05-.12-.2-.06-.48.12-.64z"/>
                <path fill="#FFF" d="M12.9 39.34s-.32-.3-.83.04c-.45.32-.82.84-.63.9.2.08.53.16.9.12.3-.04.58.04.75-.6.07-.3-.2-.46-.2-.46"/>
                <path fill="#52267D" d="M11.6 40.15c.14.04.4.1.7.07h.14c.24-.03.36-.04.47-.46.05-.16-.07-.25-.1-.26v-.02c-.04-.02-.26-.2-.62.05-.3.2-.5.48-.58.62m.53.44c-.35 0-.63-.1-.75-.14-.1-.03-.16-.1-.17-.2-.03-.3.44-.8.77-1.03.48-.33.9-.17 1.06-.03.13.1.33.33.24.65-.17.63-.47.7-.8.72h-.12c-.08.02-.15.02-.22.02"/>
                <path fill="#EAF3FB" d="M12.82 39.44s-.2-.2-.52.03c-.28.2-.5.52-.4.56.13.05.33.1.56.07.2-.02.37.03.47-.37.05-.18-.1-.3-.1-.3"/>
            </g>
        </g>
        <g transform="translate(64 37)">
            <use fill="#E1F2FF" xlink:href="#c"/>
            <path stroke="#375D81" stroke-width="2" d="M113.2 22H125c3.87 0 7-3.13 7-7v-3c0-3.87-3.13-7-7-7h-2.98c-3.4 0-6.32 2.45-6.9 5.8L113.2 22z"/>
            <g transform="matrix(1 0 0 -1 0 97)">
                <use fill="#E1F2FF" xlink:href="#d"/>
                <path stroke="#375D81" stroke-width="2" d="M113.2 57H125c3.87 0 7-3.13 7-7v-3c0-3.87-3.13-7-7-7h-2.98c-3.4 0-6.32 2.45-6.9 5.8L113.2 57z"/>
            </g>
            <use fill="#E1F2FF" xlink:href="#e"/>
            <rect width="8" height="4" x="125" y="29" stroke="#375D81" stroke-width="2" rx="2"/>
            <ellipse cx="63.5" cy="31.5" fill="#FFF" stroke="#375D81" stroke-width="2" rx="63.5" ry="31.5"/>
            <ellipse cx="58.5" cy="34.5" fill="#E1F2FF" rx="53.5" ry="26.5"/>
            <path stroke="#375D81" d="M47 1c-5.52 0-10 13.88-10 31 0 17.12 3.48 30 9 30l4.65 24M84 1c5.52 0 10 13.88 10 31 0 17.12-4.48 30-10 30l-4.46 23.8"/>
            <path fill="#9452BA" d="M28.72 30.3c0-.02 0-.06.03-.1 0-.05.03-.1.03-.14.1-.58-.1-1.28-.5-2-.06-.07-.1-.13-.13-.2-.07-.1-.14-.23-.23-.34l-.02-.04-.07-.1-.07-.1c0-.02-.04-.05-.06-.07-.03-.02-.05-.06-.08-.1-.02 0-.04-.04-.05-.06-.67-.86-1.56-1.7-2.5-2.46.08 1.2.04 2.4-.12 3.34-.2 1.14-.68 2.46-1.3 3.65-1.35-.18-2.7-.56-3.75-1.07-.87-.43-1.86-1.08-2.8-1.84l.02.3v.08c.02.07.02.15.03.22v.1l.03.2v.1l.04.26.04.34.05.3.02.05c0 .1.02.17.04.26v.05l.06.3c.06.3.14.58.22.86.13.47.3.9.48 1.3l.08.15.08.17c.02.06.05.1.08.15l.12.2.03.04.15.18.1.12.05.05.07.08.05.05.06.06c.02 0 .04.02.05.03l.07.05c.02 0 .04.02.04.04l.08.04c.02 0 .04.02.05.03l.1.03.02.02.12.05c.03 0 .06.03.07.04 2.1.66 4.24-.1 6.73 1.87-.16-3.2 1.7-4.42 2.4-6.5z"/>
            <ellipse cx="63.5" cy="32" stroke="#375D81" rx="63.5" ry="15"/>
        </g>
        <g transform="translate(64 37)">
            <use fill="#FFF" xlink:href="#f"/>
            <path stroke="#375D81" stroke-width="2" d="M51.08 86l1.63 21.23c.13 1.56 1.44 2.77 3 2.77h18.6c1.56 0 2.87-1.2 3-2.77L78.9 86H51.08z"/>
        </g>
        <path fill="#E1F2FF" d="M118.34 143.5h21.32c.32.72 0 1.56-.72 1.88-.2.08-.38.12-.58.12h-18.72c-.78 0-1.42-.64-1.42-1.42 0-.2.04-.4.12-.58z"/>
        <path stroke="#E1F2FF" stroke-width="2" d="M129.5 126v14M133.5 126v14M137.5 126v14M125.5 126v14M121.5 126v14" stroke-linecap="round"/>
        <path fill="#FFF" d="M74 181v34H46v-45h6v-18h6v-18h10v-6h8v6h10v47H74zm0 0h28v34H74v-34zm14-23h8v23h-8v-23z"/>
        <path fill="#375D81" d="M75 128h-6v4h-2v-6h10v6h-2v-4zm13 29h8v2h-8v21h-2v-48h2v25zm-44 11h2v47h-2v-47zm6-18h2v18h-2v-18zm2 0h10v2H52v-2zm24 30h25v2H76v-2zm-18-48h28v2H58v-2zm4 18h2v18h-2v-18zm34 7h2v23h-2v-23zm5 23h2v35h-2v-35zm-45-48h2v18h-2v-18zm-10 36h28v2H46v-2zm4 6h9v2h-9v-2zm12-36h9v2h-9v-2zm11 0h9v2h-9v-2zm-23 47h9v2h-9v-2zm11-11h9v2h-9v-2zm23 12h9v2h-9v-2zm0 11h9v2h-9v-2zm-23-12h9v2h-9v-2zm-11-9h2v5h-2v-5zm12-36h2v5h-2v-5zm11 0h2v5h-2v-5zm-2-29h2v15h-2v-15zm-21 76h2v5h-2v-5zm11-11h2v5h-2v-5zm23 12h2v5h-2v-5zm0 11h2v5h-2v-5zm-23-12h2v5h-2v-5zm-4-11h2v5h-2v-5zm12-36h2v5h-2v-5zm11 0h2v5h-2v-5zm-23 47h2v5h-2v-5zm11-11h2v5h-2v-5zm23 12h2v5h-2v-5zm0 11h2v5h-2v-5zm-23-12h2v5h-2v-5zm-18-6h9v2h-9v-2zm12-36h9v2h-9v-2zm11 0h9v2h-9v-2zm-23 47h9v2h-9v-2zm11-11h9v2h-9v-2zm23 12h9v2h-9v-2zm0 11h9v2h-9v-2zm-23-12h9v2h-9v-2zm13-24h2v47h-2v-47z"/>
        <path fill="#FFF" d="M213 200v-41h-22v56h32v-15h-10zm-42-51h20v66h-20v-66zm-20 45h20v21h-20v-21z"/>
        <path fill="#375D81" d="M169 149h2v66h-2v-66zm-19 47h2v19h-2v-19zm0-2h19v2h-19v-2zm62-33h2v39h-2v-39zm-21-12h2v66h-2v-66zm2 10h21v2h-21v-2zm-22-10h20v2h-20v-2zm5 23h9v2h-9v-2zm0 12h9v2h-9v-2zm0-24h9v2h-9v-2zm22 12h9v2h-9v-2zm0 12h9v2h-9v-2zm3 16h22v2h-22v-2zm-25-4h9v2h-9v-2zm-20 3h9v2h-9v-2zm20-25h2v5h-2v-5zm0 12h2v5h-2v-5zm0-24h2v5h-2v-5zm22 12h2v5h-2v-5zm0 12h2v5h-2v-5zm3 16h2v13h-2v-13zm-25-4h2v5h-2v-5zm-20 3h2v5h-2v-5zm27-27h2v5h-2v-5zm0 12h2v5h-2v-5zm0-24h2v5h-2v-5zm22 12h2v5h-2v-5zm0 12h2v5h-2v-5zm16 16h2v13h-2v-13zm-38-4h2v5h-2v-5zm-20 3h2v5h-2v-5zm13-22h9v2h-9v-2zm0 12h9v2h-9v-2zm0-24h9v2h-9v-2zm22 12h9v2h-9v-2zm0 12h9v2h-9v-2zm-22 12h9v2h-9v-2zm-20 3h9v2h-9v-2z"/>
        <path fill="#E1F2FF" d="M178 162h5v5h-5zM178 174h5v5h-5zM178 186h5v5h-5zM178 198h5v5h-5zM158 201h5v5h-5zM86 199h5v5h-5zM86 188h5v5h-5zM63 187h5v5h-5zM52 187h5v5h-5zM52 176h5v5h-5zM63 176h5v5h-5zM64 140h5v5h-5zM75 140h5v5h-5zM193 161h3v54h-3zM166 196h3v19h-3zM76 182h3v33h-3zM88 159h3v21h-3zM64 150l3 3v15h-3M200 200h1v15h-1zM200 186h5v5h-5z"/>
    </g>
</svg>