<svg width="150" height="150" viewBox="0 0 260 260" xmlns="http://www.w3.org/2000/svg">
  <g fill="none" fill-rule="evenodd">
    <path d="M239 123v111.257c0 3.722-2.919 6.743-6.515 6.743H30.515C26.92 241 24 237.98 24 234.257V123h215z" stroke="#5563B6" stroke-width="5" fill="#FFF" fill-rule="nonzero"/>
    <path d="M227.606 70.5H33.394L18.5 85.423V124.5h224V85.423L227.606 70.5z" stroke="#5563B6" stroke-width="5" fill="#FFF" fill-rule="nonzero"/>
    <path stroke="#5563B6" stroke-width="5" stroke-linecap="square" d="M19 87l220.567-.5"/>
    <path fill="#9452BA" fill-rule="nonzero" d="M115 75h33v170h-33z"/>
    <path fill="#E1F2FF" fill-rule="nonzero" d="M26 127h210v10H26z"/>
    <path fill="#754093" fill-rule="nonzero" d="M115 75h33v10h-33z"/>
    <path d="M210.182 28.762C205.577 20.772 195.986 16 184.544 16 158.5 16 140.04 39.78 130.97 54.791c-9.083-14.994-27.537-38.638-53.526-38.638-16.48 0-28.443 9.924-28.443 23.39C49 63.418 75.95 79 130.123 79 184.295 79 213 58.973 213 39.738c-.01-3.823-.85-7.567-2.818-10.976zM77.918 53.445c-9.214-4.702-12.494-9.974-12.494-13.346 0-4.314 5.37-7.44 12.776-7.44 17.841 0 31.96 17.59 39.632 29.835-20.55-1.306-32.884-5.461-39.914-9.049zm117.398-9.334c-4.65 7.975-20.494 16.427-51.194 18.383 7.748-12.245 21.961-29.835 39.628-29.835 6.836 0 10.733 2.513 12.108 4.867 1.092 1.87.912 4.088-.542 6.585z" fill="#9452BA" fill-rule="nonzero"/>
    <path fill="#754093" fill-rule="nonzero" d="M115 127h33v10h-33z"/>
    <path d="M220.768 225.392c.345.3.568.53.644.604.006.014 0-.013 0 0 0 .002.002-.002.002-.002-8.398-4.505-14.114-1.076-20.604-1.885a2.283 2.283 0 00-.307-.067 4.609 4.609 0 01-.434-.085c-1.71-.425-3.313-1.853-4.75-3.897l-.022-.032c-.122-.168-.237-.344-.353-.52 0 0-.001-.005-.005-.006-.211-.325-.42-.67-.626-1.019-.02-.036-.044-.07-.065-.107-.053-.1-.108-.198-.164-.295l-.169-.3-.16-.306c-.057-.106-.11-.21-.166-.316-.038-.071-.075-.148-.114-.226-1.449-2.878-2.625-6.335-3.466-9.78 0 0-.02-.034 0 0 3.155 1.705 6.438 3.107 9.208 3.88 3.338.936 7.516 1.328 11.528 1.14 1.229-3.79 1.939-7.889 1.904-11.329-.033-2.877-.522-6.358-1.375-9.844.262.14.52.286.782.43l.23.134c.184.104.369.207.551.318.085.046.17.098.254.148a55.621 55.621 0 01.77.463c.228.143.456.285.68.43a.597.597 0 01.068.042c.263.164.521.335.779.506.02.011.039.027.06.04.232.154.457.308.685.464.048.03.092.066.139.095.207.143.41.29.616.435.038.03.076.06.117.088a42.092 42.092 0 01.702.515c.73.556 1.426 1.12 2.082 1.69.009.007.017.015.026.02 1.09.96 2.056 1.937 2.852 2.912.116.143.228.286.335.428.004.006.01.01.013.014v.003c.1.129.197.259.286.385l.002.004c.004.004.006.01.009.014.1.138.196.276.285.416l.035.056c.001.003.004.002.004.004.117.178.227.359.329.533a.92.92 0 00.048.087c.006.01.01.022.02.034.112.201.218.402.311.606.07.14.129.28.187.42l.067.177c.033.088.062.173.095.26.02.062.037.126.057.193.026.078.048.16.07.24.017.064.031.126.044.192.02.08.037.16.052.24l.03.188c.012.082.02.167.031.247.007.058.01.116.015.172.005.093.006.183.007.278 0 .042.002.09 0 .137 0 .14-.011.276-.027.41-.009.093-.014.173-.014.248-.88 6.442-5.696 11.088-3.546 20.28" fill="#9452BA"/>
  </g>
</svg>
