<svg width="345" height="256" xmlns="http://www.w3.org/2000/svg">
  <g fill="none" fill-rule="evenodd">
    <path d="M77 205.56C77 148.365 123.365 102 180.56 102s103.56 46.365 103.56 103.56H77z" fill="#E1F2FF" fill-rule="nonzero"/>
    <g stroke="#5E63B6" stroke-linecap="round">
      <path stroke-width="2" stroke-linejoin="round" d="M132 28v7M136 32h-7"/>
      <path d="M94.73 192.68v3.94M96.7 194.65h-3.94"/>
      <path stroke-linejoin="round" d="M269.73 132.68v3.94M271.7 134.65h-3.94"/>
      <path d="M100.73 92.68v3.94M102.7 94.65h-3.94"/>
      <path stroke-width="2" fill="#FFF" fill-rule="nonzero" d="M78.42 131.28v8.12M82.48 135.34h-8.13"/>
      <path stroke-width="2" stroke-linejoin="round" d="M172 69v7M176 73h-7"/>
      <path d="M184.73 112.68v3.94M186.7 114.65h-3.94"/>
      <path stroke-width="2" stroke-linejoin="round" d="M258.98 51.4v7M262.48 54.9h-7"/>
    </g>
    <path d="M283.997 163.998a42 42 0 11-42-41.998c23.196 0 41.999 18.803 42 41.998" fill="#E0F2FF" fill-rule="nonzero"/>
    <path d="M293.997 156a41.999 41.999 0 01-71.698 29.697 42 42 0 0129.7-71.697c23.195 0 41.998 18.805 41.998 42" fill="#FFF" fill-rule="nonzero"/>
    <path d="M293.997 156a41.999 41.999 0 01-71.698 29.697 42 42 0 0129.7-71.697c23.195 0 41.998 18.805 41.998 42z" stroke="#5E63B5" stroke-width="4"/>
    <path d="M265.662 176.968c.185.54.347.905.394 1.027.016.014-.014-.006 0 0-1.232-11.775 5.525-16.682 7.698-24.502.013-.13.036-.26.07-.386a5.23 5.23 0 00.108-.536c.323-2.164-.574-4.683-2.273-7.306a.356.356 0 00-.028-.043c-.138-.218-.291-.436-.438-.654 0 0-.006-.004-.006-.009-.28-.398-.578-.8-.89-1.203-.032-.041-.063-.085-.096-.125-.088-.11-.179-.22-.265-.33-.086-.109-.18-.23-.272-.339-.09-.108-.184-.22-.278-.329-.093-.108-.192-.227-.29-.34-.066-.078-.14-.157-.21-.24A59.807 59.807 0 00259.11 133c.488 4.12.527 8.278.117 12.406a46.388 46.388 0 01-4.207 13.752 47.855 47.855 0 01-14.167-3.246 57.87 57.87 0 01-10.857-6.287c.04.368.085.733.128 1.1.013.11.03.218.045.328.034.262.066.522.107.785.015.12.033.24.053.36a47.15 47.15 0 00.173 1.104c.055.33.111.659.175.986a46.169 46.169 0 00.252 1.32c.07.34.14.672.214 1.008l.044.204c.068.306.14.61.213.914a104.738 104.738 0 00.31 1.225 48.284 48.284 0 00.987 3.234 30.847 30.847 0 002.033 4.664c.112.199.227.396.34.588.005.006.005.016.012.023.102.173.21.346.313.512l.005.004a17.909 17.909 0 00.36.54c.016.024.032.045.05.067a.009.009 0 000 .007c.152.218.31.43.465.634.03.033.055.065.081.097.007.012.02.023.028.039.18.225.366.443.558.647.132.145.267.28.403.414.058.058.116.109.175.163.085.08.17.154.257.23.063.058.13.104.197.158.081.069.166.133.25.197.066.05.131.096.2.141.087.062.172.12.259.177.066.04.135.083.203.123.091.054.186.104.276.155l.193.099c.107.05.212.095.322.14.05.02.105.048.16.066.161.065.326.12.493.166.112.032.207.066.297.101 7.957 2.077 15.705-1.213 25.422 5.65" fill="#9452BA" fill-rule="nonzero"/>
    <g>
      <path d="M126.388 190.936l-6.876-.085c-2.363-.03-4.49-1.499-5.32-3.71-2.36-6.297-1.68-12.047-1.909-16.977-.424-9.13 1.063-13.788 2.522-21.401l10.318.366s-.925 3.782-1.653 15.148c-.225 3.517 5.427 17.726 5.067 24.657a2.117 2.117 0 01-2.149 2.002" fill="#9452BA"/>
      <path d="M123.47 150.45c-.341 2.075-.902 6.3-1.378 13.74-.104 1.628.69 4.566 1.995 9.224 1.457 5.191 3.267 11.655 3.07 15.449-.02.396-.394.68-.751.697l-6.876-.087c-1.795-.024-3.42-1.153-4.044-2.814-1.728-4.612-1.745-8.854-1.76-12.956-.006-1.243-.009-2.446-.064-3.601-.338-7.278.56-11.617 1.699-17.11.188-.904.38-1.835.574-2.81l7.535.267zm2.948 41.864a3.49 3.49 0 003.498-3.31c.221-4.243-1.58-10.666-3.168-16.33-.973-3.475-1.98-7.064-1.9-8.31.713-11.116 1.607-14.87 1.617-14.908l.402-1.643-13.196-.47-.223 1.162c-.266 1.393-.536 2.688-.792 3.93-1.13 5.456-2.106 10.17-1.753 17.792.053 1.121.057 2.285.06 3.487.016 4.14.034 8.838 1.937 13.91 1.02 2.718 3.67 4.568 6.595 4.603l6.876.087h.047z" fill="#52267D"/>
      <path d="M146.814 158.589l8.42-9.285 5.123.267s.62 7.82.873 11.095c.447 5.77 2.7 17.097 4.11 22.072.458 1.62.717 3.13.777 4.497.1 2.301-1.845 4.176-4.156 4.147l-6.09-.076c-3.549-.044-6.67-2.445-7.5-5.887-2.58-10.713-1.557-26.83-1.557-26.83" fill="#9452BA"/>
      <path d="M159.075 150.884c.184 2.322.587 7.409.778 9.888.44 5.677 2.652 17.03 4.158 22.34.426 1.507.67 2.915.726 4.182a2.5 2.5 0 01-.726 1.87c-.52.535-1.247.84-1.997.84h-.035l-6.091-.075c-2.96-.037-5.499-2.023-6.174-4.83-2.26-9.379-1.69-23.221-1.548-25.948l7.651-8.438 3.258.17zm2.939 41.874a5.575 5.575 0 003.981-1.677 5.235 5.235 0 001.501-3.906c-.065-1.481-.342-3.098-.828-4.812-1.44-5.083-3.64-16.368-4.06-21.805-.254-3.274-.875-11.096-.875-11.096l-.096-1.203-6.988-.365-9.182 10.127-.032.48c-.04.668-1.006 16.45 1.591 27.241.973 4.034 4.603 6.89 8.827 6.942l6.09.074h.07z" fill="#52267D"/>
      <path d="M159.24 166.422l-.41.36.04-.69.37.33zm-.576.504l-.299.263-1.585-.63.162-.342 1.098.275-.025.396.649.038zm-.16 1.06l1.774-1.558-1.642-1.474-.461.511.538.485-2.154-.537-.718 1.513 2.663 1.06z" fill="#52267D"/>
      <path d="M158.878 123.771c-6.047-.2-11.66-4.424-23.994-5.146-.168-.805-.375-1.537-.645-2.134-2.172-4.853-5.148-18.79-3.009-27.893l1.692-7.205c.555-2.364.85-4.781.882-7.208a14.698 14.698 0 00-.417-3.667 14.446 14.446 0 00-1.614-3.957 14.84 14.84 0 00-.776-1.179 14.858 14.858 0 00-4.107-3.815 14.662 14.662 0 00-7.588-2.216l-2.409-.03a14.657 14.657 0 00-10.44 4.162 14.637 14.637 0 00-2.44 3.12 14.05 14.05 0 00-1.485 3.528 14.575 14.575 0 00-.508 3.656 3.66 3.66 0 003.615 3.698l15.038.187-2.44 12.99c-2.84 13.339-2.15 22.293-.155 28.28.445 1.336 3.012 6.079 3.012 6.079-7.669 11.74-19.264 16.769-31.613 18.116-10.498 1.144-33.006-8.672-21.2-19.556 11.804-10.882-2.38-4.2-4.473-2.83-2.092 1.369-14.223 11.56-1.39 26.895 5.425 6.485 11.59 12.397 26.542 17.056 2.4.747 15.521 1.864 22.567 3.977 20.975 6.291 38.173-.049 47.938-13.788 9.725-13.685 1.805-31.041-.583-31.12" fill="#9452BA"/>
      <path d="M158.633 125.14c.66.527 2.46 3.415 3.483 8.128.963 4.435 1.753 13.038-3.781 20.826-10.124 14.242-27.04 19.082-46.414 13.265-4.497-1.347-11.38-2.296-16.406-2.989-2.752-.378-5.354-.736-6.147-.982-14.973-4.666-20.793-10.527-25.894-16.624-4.24-5.066-6.037-10.004-5.341-14.673.809-5.437 4.914-9.198 6.43-10.19 1.101-.722 4.22-2.17 6.17-2.781-.596.719-1.623 1.817-3.394 3.45-4.582 4.223-4.178 8.1-3.034 10.607 3.387 7.408 17.75 12.151 25.322 11.33 14.563-1.59 25.538-7.892 32.62-18.734l.448-.686-.39-.72c-.97-1.793-2.62-4.97-2.916-5.859-2.297-6.892-2.23-16.166.196-27.56l2.748-14.632-16.679-.21a2.255 2.255 0 01-1.603-.685 2.247 2.247 0 01-.65-1.616c.006-.459.034-.913.085-1.358a13.043 13.043 0 011.72-5.153c.401-.68.853-1.32 1.339-1.894.274-.323.566-.635.871-.93a13.24 13.24 0 019.46-3.772l2.408.03a13.32 13.32 0 017.93 2.737 13.486 13.486 0 012.667 2.729 13.46 13.46 0 011.562 2.795 13.192 13.192 0 01.743 2.498c.169.877.247 1.78.238 2.682a32.08 32.08 0 01-.847 6.91l-1.691 7.203c-2.213 9.415.838 23.734 3.093 28.77.206.46.392 1.083.554 1.855l.215 1.031 1.055.062c6.94.405 11.777 1.975 15.664 3.237 2.939.953 5.487 1.78 8.166 1.903m-31.498 47.318c13.742 0 25.665-5.812 33.452-16.77 7.754-10.913 4.913-23.694 2.01-29.526-1.844-3.706-3.221-3.751-3.673-3.767-2.363-.078-4.676-.829-7.602-1.778-3.846-1.246-8.59-2.786-15.331-3.299-.148-.526-.31-.986-.49-1.39-2.065-4.61-4.97-18.324-2.927-27.016l1.692-7.204c.577-2.456.886-4.98.92-7.505a16.2 16.2 0 00-.459-4.015 15.788 15.788 0 00-1.765-4.326 16.168 16.168 0 00-5.339-5.463 16.103 16.103 0 00-8.305-2.425l-2.408-.03c-4.308-.093-8.35 1.565-11.42 4.553-.37.355-.72.731-1.053 1.124a16.208 16.208 0 00-1.617 2.286 16.1 16.1 0 00-.508.933 15.856 15.856 0 00-1.569 5.293 16.336 16.336 0 00-.103 1.635 4.98 4.98 0 001.432 3.575 5.016 5.016 0 003.545 1.518l13.396.168-2.136 11.379c-2.523 11.848-2.563 21.605-.11 28.968.374 1.123 1.952 4.135 2.714 5.568-6.621 9.703-16.762 15.363-30.154 16.823-7.198.805-19.877-3.973-22.507-9.731-1.134-2.48-.35-4.915 2.393-7.442 4.674-4.309 5.858-6.262 4.698-7.744-2.021-2.574-10.78 2.693-10.865 2.75-2.24 1.465-6.722 5.877-7.646 12.086-.816 5.479 1.187 11.147 5.954 16.842 5.162 6.17 11.515 12.604 27.191 17.488 1.011.316 3.353.638 6.593 1.084 4.936.68 11.695 1.612 15.987 2.898 5.509 1.653 10.885 2.46 16.01 2.46" fill="#52267D"/>
      <path d="M146.067 103.678c-.288-15.514 12.206-27.547 26.264-29.946 2.918-.499 3.876-1.398 7.062-1.36l2.439.032c8.22.103 14.797 6.832 14.693 15.029a3.704 3.704 0 01-3.756 3.652s-25.02-.32-25.137-.333c-.002.001-2.037-.023-2.039-.022.003.003 2.041.029 2.044.032-5.562 2.272-9.095 9.282-9.748 13.064-.934 5.387-.356 9.845 1.443 13.469 1.201 2.413 1.304 5.304 1.085 7.642l-.145.046a27.71 27.71 0 01-.716 4.288c-2.335-1.666-5.97-4.176-6.634-4.537-1.435-.778-4.678-2.552-6.128-3.406-9.266-5.454-.564-8.826-.727-17.65" fill="#9452BA"/>
      <path d="M159.106 123.907l-.018.004-.192.96c-.054.661-.142 1.35-.264 2.06-2.005-1.406-4.43-3.07-5.051-3.407-1.61-.873-4.704-2.57-6.085-3.381-4.702-2.767-4.007-4.252-2.328-7.84 1.046-2.233 2.346-5.012 2.28-8.65-.291-15.718 12.723-26.448 25.115-28.564 1.195-.205 2.088-.472 2.877-.708 1.215-.365 2.183-.648 3.936-.63l2.438.03c7.445.095 13.425 6.21 13.33 13.634a2.309 2.309 0 01-.702 1.634c-.446.434-1.041.723-1.654.66-8.474-.11-24.627-.32-25.103-.332l-.597-.018-.011.01-.449-.005c-.262-.004-.464-.027-.667-.007l-.319-.004-.001.009c-.586.019-.732.101-1.025.393l-.976.974.489.49c-4.273 3.25-7 8.885-7.601 12.373-.952 5.49-.424 10.306 1.567 14.315.943 1.897 1.097 4.18 1.011 6zm1.308 7.67l.483-1.98c.303-1.242.524-2.448.66-3.595l.15-.05.085-.888c.31-3.308-.102-6.128-1.222-8.381-1.725-3.474-2.171-7.72-1.32-12.622.534-3.1 3.623-9.702 8.682-11.927 1.215.02 5.935.087 24.82.33 1.365-.019 2.644-.497 3.618-1.443a5.04 5.04 0 001.537-3.571c.113-8.943-7.09-16.31-16.057-16.424l-2.44-.03c-2.2-.03-3.438.348-4.764.746-.749.225-1.522.456-2.55.633-13.526 2.308-27.73 14.073-27.41 31.329.055 3-1.047 5.355-2.02 7.434-1.69 3.608-3.435 7.338 3.427 11.377 1.414.831 4.542 2.546 6.17 3.43.525.286 3.862 2.57 6.488 4.447l1.663 1.186z" fill="#52267D"/>
      <path d="M153.809 121.696c.152-2.393.536-3.619.279-4.597-1.48-5.629-1.962-7.406-1.887-13.343.075-5.904 3.576-11.694 8.676-14.733.28-.166 3.927-.377 6.76 1.739-5.563 2.272-9.094 9.282-9.749 13.064-.933 5.387-.356 9.845 1.445 13.469 1.2 2.413 1.302 5.304 1.084 7.642 0 0-6.82 2.457-6.608-3.241" fill="#F3E3FF"/>
      <path d="M159.767 124.42c-1.109.316-3.215.672-4.36-.164-.646-.473-.953-1.323-.908-2.525.058-.893.146-1.618.222-2.229.131-1.071.228-1.844.034-2.575l-.041-.163c-1.457-5.54-1.896-7.212-1.823-13 .07-5.619 3.345-11.172 8.341-14.149.2-.04 2.664-.168 4.984 1.062-5.08 2.766-8.35 9.223-9.01 13.033-.923 5.342-.416 10.016 1.507 13.89 1.094 2.2 1.195 4.844 1.054 6.82m-2.353 1.728c1.64 0 3.139-.529 3.238-.563l.412-.15.041-.434c.203-2.187.17-5.351-1.153-8.014-1.793-3.606-2.258-7.994-1.382-13.043.68-3.94 4.301-10.49 9.33-12.545l1.126-.462-.975-.727c-2.965-2.213-6.911-2.146-7.527-1.778-5.399 3.216-8.937 9.227-9.014 15.315-.074 5.975.414 7.838 1.869 13.367l.041.161c.124.477.047 1.106-.069 2.06-.079.634-.173 1.39-.23 2.317l-.002.018c-.064 1.695.432 2.94 1.475 3.699.813.592 1.842.78 2.82.78" fill="#52267D"/>
      <path d="M189.608 75.024s.038-2.592-2.53-3.654c-.784-.325-2.216-.927-2.216-.927s-1.578 3.226.153 4.065c2.493 1.21 4.593.516 4.593.516" fill="#FFF"/>
      <path d="M188.855 74.478a6.226 6.226 0 01-3.538-.59.645.645 0 01-.348-.403c-.2-.577.034-1.496.266-2.138l1.577.659c1.449.599 1.9 1.78 2.043 2.472m-.785 1.433c1.029 0 1.704-.215 1.755-.233l.467-.153.007-.492c.001-.124.011-3.071-2.958-4.3-.782-.322-2.21-.925-2.21-.925l-.602-.252-.287.585c-.113.233-1.094 2.307-.58 3.793.187.537.55.95 1.051 1.194a7.677 7.677 0 003.357.783" fill="#52267D"/>
      <path d="M183.168 73.12s-.03-3.532-4.006-4.098c-.742-.105-2.682-.083-2.682-.083s-.94 3.726 1.154 4.112c2.577.474 5.534.069 5.534.069" fill="#FFF"/>
      <path d="M182.387 72.509c-1.001.085-2.918.179-4.628-.136a.722.722 0 01-.52-.343c-.37-.576-.3-1.685-.19-2.404.665.002 1.594.02 2.015.079 2.395.34 3.11 1.911 3.323 2.804m-1.906 1.463c1.522 0 2.703-.16 2.781-.171l.601-.081-.006-.606c-.01-1.427-.987-4.26-4.6-4.773-.77-.109-2.576-.092-2.785-.09l-.532.005-.13.515c-.067.264-.625 2.615.269 4.002.33.513.824.845 1.43.955 1.001.185 2.05.244 2.972.244" fill="#52267D"/>
      <path d="M175.242 73.36s-.475-3.925-4.016-2.892a4.922 4.922 0 00-2.364 1.573s.664 2.992 2.071 2.673c2.458-.555 4.309-1.355 4.309-1.355" fill="#FFF"/>
      <path d="M174.444 72.937c-.706.267-2.057.743-3.663 1.107-.047.007-.102.015-.2-.045-.392-.247-.762-1.095-.958-1.776.302-.306.925-.84 1.796-1.093.812-.236 1.449-.19 1.957.144.615.405.924 1.16 1.068 1.663m-3.717 2.49c.12 0 .238-.014.358-.041 2.494-.562 4.354-1.361 4.432-1.394l.472-.206-.062-.51c-.011-.086-.276-2.153-1.791-3.15-.855-.562-1.898-.671-3.105-.317-1.713.497-2.682 1.765-2.722 1.82l-.19.251.069.31c.051.229.53 2.263 1.653 2.971.277.176.579.266.886.266" fill="#52267D"/>
      <path d="M164.758 92.244s-8.167-4.563-6.508-12.046c-1.104.884-4.056 3.582-5.133 4.97-.018 1.469-.362 7.3 7.664 11.306 1.439-1.45 2.658-3.269 3.977-4.23" fill="#FFF"/>
      <path d="M163.6 92.318c-.587.555-1.152 1.222-1.74 1.914-.395.467-.801.945-1.221 1.394-6.822-3.608-6.864-8.466-6.836-10.213.776-.94 2.308-2.417 3.54-3.524-.163 5.407 4.36 9.115 6.258 10.429zm-2.68 4.996l.351-.356c.582-.587 1.122-1.223 1.644-1.837.777-.918 1.515-1.784 2.25-2.321l.866-.63-.934-.526c-.08-.044-7.7-4.41-6.173-11.297l.424-1.913-1.53 1.227c-1.18.944-4.142 3.661-5.247 5.086l-.142.181-.003.23c-.092 5.252 2.616 9.22 8.046 11.932l.449.224z" fill="#52267D"/>
      <path d="M188.499 74.297s.019-1.342-1.311-1.892c-.406-.168-1.146-.48-1.146-.48s-.818 1.67.079 2.104c1.29.627 2.378.268 2.378.268M181.476 72.3s-.015-1.803-2.042-2.09c-.378-.054-1.367-.042-1.367-.042s-.48 1.9.59 2.097c1.313.24 2.82.035 2.82.035M173.977 73.06s-.253-2.08-2.13-1.533c-.805.235-1.255.834-1.255.834s.352 1.588 1.1 1.418c1.303-.293 2.285-.719 2.285-.719M175.899 88.389l7.519.094c.047-3.777-2.984-6.878-6.77-6.926l-.664-.008a3.424 3.424 0 00-3.47 3.377 3.424 3.424 0 003.385 3.463" fill="#F3E3FF"/>
      <path d="M176.534 88.27l6.757.083c.037-2.968-2.345-5.403-5.321-5.442l-1.368-.015a2.69 2.69 0 00-2.728 2.652 2.692 2.692 0 002.66 2.721" fill="#FFF"/>
      <path d="M176.566 83.584h.028l1.368.017a4.671 4.671 0 013.304 1.413 4.636 4.636 0 011.292 2.64l-6.017-.074a2.001 2.001 0 01-1.976-2.023 1.986 1.986 0 01.604-1.405 1.994 1.994 0 011.397-.568zm7.405 5.466l.01-.688a6.014 6.014 0 00-1.727-4.31 6.038 6.038 0 00-4.276-1.828l-1.369-.017h-.043a3.382 3.382 0 00-3.382 3.332 3.382 3.382 0 003.342 3.418l7.445.093z" fill="#52267D"/>
      <path d="M182.102 85.493a1.502 1.502 0 01-1.523 1.482 1.503 1.503 0 01-1.486-1.52 1.506 1.506 0 013.01.038M193.127 89.963a1.887 1.887 0 01-1.073-.683l-.497-.64 1.121.255.659.149a.47.47 0 11-.21.919" fill="#52267D"/>
      <path d="M163.368 92.374s-6.293-3.48-6.11-10.333c-2.746 1.944-3.5 3.214-3.5 3.214s.432 3.268 1.936 4.933c2.307 2.558 4.734 3.365 7.674 2.186" fill="#EAF3FB"/>
      <path d="M157.385 91.097s2.465 2.564 4.887 3.812" fill="#FFF"/>
      <path d="M161.956 95.52l.634-1.224c-2.294-1.18-4.683-3.651-4.705-3.676l-.999.953c.104.109 2.574 2.662 5.07 3.948" fill="#52267D"/>
      <path d="M132.206 117.432l1.447-2.76c5.433-12.855 6.343-20.432 3.762-32.797l-1.51-7.245a33.277 33.277 0 01-.698-7.228c.1-8.09 6.76-14.567 14.871-14.465l2.371.029c8.001.102 14.406 6.65 14.305 14.63l-.005.416a3.442 3.442 0 01-3.491 3.394l-15.014-.189 2.113 13.048c6.528 34.974 5.65 49.108-8.025 46.03" fill="#9452BA"/>
      <path d="M145.694 132.086c2.52 0 4.541-.754 6.125-2.275 5.152-4.949 5.125-17.788-.105-45.797l-1.845-11.4 13.372.169c1.274-.01 2.506-.468 3.431-1.366a4.777 4.777 0 001.457-3.389l.006-.414a15.7 15.7 0 00-4.506-11.25 15.789 15.789 0 00-11.162-4.774l-2.37-.03c-4.281-.103-8.347 1.56-11.422 4.551a15.9 15.9 0 00-4.85 11.273 34.895 34.895 0 00.728 7.526l1.51 7.244c2.522 12.084 1.695 19.259-3.684 31.983l-1.396 2.657 2.446 1.275 1.447-2.759c5.618-13.28 6.517-21.133 3.892-33.716l-1.51-7.244a32.04 32.04 0 01-.671-6.93 13.18 13.18 0 014.014-9.338c2.547-2.473 5.91-3.847 9.46-3.768l2.371.03c7.227.091 13.032 6.029 12.941 13.235l-.006.416a2.045 2.045 0 01-.622 1.45c-.395.384-.961.574-1.47.583l-16.655-.208 2.374 14.664c3.462 18.558 6.275 38.19.908 43.342-1.567 1.507-3.942 1.875-7.266 1.126l-.607 2.687c1.325.299 2.544.447 3.665.447" fill="#52267D"/>
      <path d="M159.675 54.79s-.208-2.542-2.726-3.582c-.768-.318-1.98-.004-1.98-.004s-1.49 2.258.207 3.082c2.443 1.183 4.5.504 4.5.504" fill="#FFF"/>
      <path d="M158.86 54.256c-.71.088-1.963.098-3.381-.59-.283-.136-.36-.298-.394-.422-.12-.433.131-1.06.327-1.43.404-.07.955-.104 1.272.03 1.409.582 1.963 1.714 2.175 2.412m-.693 1.416c1.01 0 1.677-.212 1.726-.228l.515-.171-.044-.539c-.01-.121-.276-2.975-3.148-4.162-.956-.398-2.272-.075-2.418-.036l-.259.067-.146.222c-.102.153-.982 1.539-.64 2.781.158.57.545 1.02 1.122 1.299a7.532 7.532 0 003.292.767" fill="#52267D"/>
      <path d="M153.663 53.878s-.032-4-4.536-4.64c-.841-.12-1.923-.051-1.923-.051s-2.18 4.176.194 4.611c2.916.538 6.265.08 6.265.08" fill="#FFF"/>
      <path d="M152.897 53.268c-1.1.097-3.361.224-5.374-.146-.293-.055-.39-.177-.445-.29-.296-.603.116-1.99.566-2.973a8.616 8.616 0 011.385.06c2.89.41 3.662 2.34 3.868 3.349m-2.27 1.482c1.714 0 3.042-.178 3.13-.19l.603-.082-.006-.606c-.014-1.59-1.102-4.745-5.13-5.316-.902-.127-2.018-.058-2.062-.057l-.39.025-.179.346c-.159.301-1.523 3.001-.755 4.567.189.389.592.886 1.435 1.04 1.13.207 2.314.273 3.354.273" fill="#52267D"/>
      <path d="M145.581 54.687s-.563-3.83-4.006-2.732a4.816 4.816 0 00-2.277 1.6s.728 2.913 2.098 2.567a26.516 26.516 0 004.185-1.435" fill="#FFF"/>
      <path d="M144.77 54.284c-.686.281-1.99.776-3.544 1.171-.049.011-.1.015-.187-.038-.382-.229-.767-1.051-.976-1.699.29-.308.882-.84 1.722-1.107.782-.25 1.405-.218 1.909.094.602.374.922 1.092 1.077 1.58m-3.6 2.553c.13 0 .263-.015.395-.05 2.426-.612 4.23-1.442 4.305-1.477l.468-.215-.074-.509c-.014-.086-.326-2.11-1.84-3.052-.854-.531-1.883-.611-3.061-.237-1.671.535-2.59 1.803-2.628 1.857l-.185.258.077.308c.091.364.6 2.22 1.702 2.879.266.158.552.238.842.238" fill="#52267D"/>
      <path d="M158.568 123.304c-.848-.65-1.71-1.03-2.453-1.217" fill="#F3E3FF"/>
      <path d="M158.147 123.85l.841-1.092c-.837-.642-1.773-1.104-2.705-1.338l-.337 1.334c.523.132 1.33.43 2.201 1.097" fill="#52267D"/>
      <path d="M153.597 123.163c2.578-9.914-1.609-28.988-2.363-33.678l-2.987-18.792-1.412-.017c-1.791-.023-3.171 1.9-2.939 3.675l2.132 16.293c.72 5.518 1.22 31.028-8.442 36.386-2.061 1.143-5.378.334-6.625-.279-4.533-2.23-5.773-7.918-6.715-12.502-1.948-9.486-.244-16.893.308-24.303l.597-9.274c.108-1.675-1.207-3.473-2.888-3.493l-1.715-.02-3.324 18.712c-.995 5.329-3.618 23.816 7.213 32.634.195.16-2.67.761-1.86 2.231 3.216 5.843 12.74 6.88 14.503 9.387 6.794 9.65.062 29.948.062 29.948s7.712-2.96 12.518-7.149c11.236-9.793 12.828-24.163 12.933-28.397.124-5.066-1.17-8.225-2.79-10.122" fill="#F3E3FF"/>
      <path d="M136.028 171.235l1.361-.522c.32-.123 7.883-3.052 12.726-7.271 12.118-10.563 13.095-25.926 13.167-28.9.113-4.596-.88-8.158-2.952-10.585l-1.053.893c1.82 2.132 2.73 5.472 2.624 9.658-.043 1.76-.765 17.496-12.695 27.895-3.474 3.028-8.577 5.433-10.974 6.47 1.407-4.846 5.35-20.712-.587-29.147-.797-1.132-2.652-1.888-5-2.845-3.388-1.382-7.604-3.1-9.463-6.477-.079-.143-.06-.203-.051-.227.108-.32.91-.677 1.213-.81.39-.175.729-.325.785-.75l.053-.382-.307-.263c-10.425-8.487-7.972-26.62-6.972-31.975l3.223-18.144 1.128.015c.515.007 1.029.255 1.443.702.518.557.81 1.346.765 2.058l-.598 9.272c-.124 1.684-.31 3.372-.5 5.087-.649 5.89-1.318 11.98.206 19.402.916 4.457 2.17 10.561 7.084 12.98 1.288.63 4.901 1.577 7.268.261 10.366-5.746 9.4-32.409 8.79-37.075l-2.132-16.293c-.097-.737.17-1.562.697-2.153.43-.48.97-.745 1.526-.745h.021l.833.011 2.896 18.218c.102.637.268 1.539.47 2.645 1.227 6.679 4.098 22.324 1.905 30.752l1.338.347c2.269-8.724-.537-24.004-1.884-31.348a127.43 127.43 0 01-.465-2.613l-3.08-19.365-1.995-.024h-.04c-.956 0-1.862.428-2.556 1.206-.797.895-1.184 2.108-1.036 3.247l2.132 16.292c.839 6.418.952 30.681-8.09 35.695-1.764.979-4.819.28-5.986-.292-4.31-2.121-5.485-7.844-6.342-12.025-1.48-7.207-.824-13.19-.187-18.974.19-1.73.378-3.434.506-5.14l.597-9.28c.07-1.093-.352-2.245-1.13-3.082-.674-.726-1.542-1.132-2.44-1.143l-2.299-.03-3.426 19.29c-1.01 5.403-3.436 23.418 6.68 32.62-.56.287-1.18.711-1.403 1.368-.1.3-.156.773.149 1.33 2.095 3.802 6.56 5.623 10.15 7.086 1.97.803 3.83 1.562 4.394 2.362 6.518 9.261.038 29.138-.029 29.336l-.458 1.382z" fill="#52267D"/>
      <path d="M63.304 130.33s-1.556-1.763-.64-4.094c.28-.71 1.263-1.314 1.263-1.314s2.455.46 1.918 2.108c-.775 2.373-2.541 3.3-2.541 3.3" fill="#FFF"/>
      <path d="M64.062 125.666c.384.116.915.35 1.102.666.055.093.106.231.023.484a5.498 5.498 0 01-1.7 2.55c-.316-.59-.668-1.636-.18-2.877.11-.283.474-.612.755-.823zm-.917 5.526l.48-.253c.082-.043 2.025-1.087 2.877-3.696.186-.574.135-1.133-.152-1.614-.619-1.042-2.127-1.352-2.295-1.383l-.263-.05-.226.14c-.122.074-1.19.75-1.545 1.649-1.058 2.69.689 4.714.765 4.8l.359.407z" fill="#52267D"/>
      <path d="M63.857 127.914s-.547-.618-.225-1.437c.098-.249.443-.46.443-.46s.86.162.673.739c-.273.833-.891 1.158-.891 1.158" fill="#F3E3FF"/>
      <path d="M76.07 142.982s1.543-3.393-2.01-5.692c-.663-.428-1.603-.793-1.603-.793s-3.481 2.676-1.647 3.972c2.253 1.591 5.26 2.513 5.26 2.513" fill="#FFF"/>
      <path d="M72.573 137.292c.312.138.76.348 1.111.576 2.213 1.432 2.155 3.297 1.946 4.235-.982-.354-2.898-1.12-4.42-2.197-.21-.147-.24-.27-.243-.38-.013-.596.866-1.592 1.606-2.234zm3.876 6.526l.25-.551c.62-1.36.942-4.48-2.262-6.555-.714-.461-1.689-.84-1.73-.857l-.364-.142-.309.239c-.413.32-2.481 1.991-2.448 3.603.01.413.159 1.005.826 1.476 2.315 1.635 5.329 2.57 5.457 2.608l.58.179z" fill="#52267D"/>
      <path d="M74.84 141.682s.854-1.881-1.116-3.155c-.367-.239-.888-.44-.888-.44s-1.932 1.484-.914 2.201c1.25.883 2.918 1.394 2.918 1.394" fill="#F3E3FF"/>
      <path d="M65.278 131.672s-2.624 2.243-.16 4.306a4.294 4.294 0 002.288.95s1.856-1.928.943-2.793c-1.593-1.511-3.07-2.463-3.07-2.463" fill="#FFF"/>
      <path d="M65.373 132.573a24.224 24.224 0 012.5 2.06c.04.453-.363 1.106-.737 1.56-.369-.077-1.01-.268-1.574-.742-.541-.453-.805-.918-.808-1.419-.003-.578.338-1.117.619-1.459zm2.313 5.06l.218-.228c.238-.245 1.414-1.53 1.388-2.697a1.494 1.494 0 00-.467-1.073 23.996 23.996 0 00-3.172-2.54l-.432-.28-.392.334c-.06.051-1.464 1.27-1.456 2.889.004.917.442 1.747 1.3 2.466 1.216 1.02 2.634 1.11 2.695 1.112l.318.018z" fill="#52267D"/>
      <path d="M65.636 133.289s-1.163.993-.07 1.908a1.91 1.91 0 001.013.42s.821-.854.417-1.237c-.704-.67-1.36-1.091-1.36-1.091" fill="#F3E3FF"/>
      <path d="M88.506 144.93s.894-3.024-2.441-4.272c-3.335-1.248-4.248-.256-4.248-.256s-1.892 3.088-.249 4.11c1.644 1.022 6.938.419 6.938.419" fill="#FFF"/>
      <path d="M87.921 144.298c-2.002.185-5.027.228-5.988-.37-.83-.517.033-2.393.408-3.055.215-.112 1.139-.446 3.481.43 2.026.757 2.168 2.252 2.099 2.995m-2.598 1.502c1.564 0 2.976-.153 3.26-.185l.457-.052.128-.437c.373-1.259.254-3.949-2.86-5.111-3.593-1.347-4.795-.303-4.999-.079-.916 1.47-1.861 4.068-.106 5.16.892.555 2.58.704 4.12.704" fill="#52267D"/>
      <path d="M86.943 144.222s.464-1.575-1.27-2.222c-1.735-.649-2.21-.134-2.21-.134s-.983 1.606-.128 2.138c.855.532 3.608.218 3.608.218" fill="#F3E3FF"/>
      <path d="M148.92 75.274s-5.385 2.95-12.87.134c.486 2.332 1.479 7.02 1.479 7.02s6.938 2.218 12.354-1.086c-.512-3.094-.963-6.068-.963-6.068" fill="#FFF"/>
      <path d="M149.124 80.986c-4.31 2.369-9.566 1.263-11.006.892-.206-.974-.74-3.491-1.145-5.425 5.45 1.693 9.653.51 11.402-.18.16 1.031.438 2.822.749 4.713m-6.357 2.867c2.308 0 5.024-.428 7.477-1.922l.396-.243-.076-.457a508.777 508.777 0 01-.96-6.06l-.149-.97-.866.47c-.052.028-5.228 2.754-12.296.092l-1.176-.442.257 1.227c.487 2.333 1.479 7.023 1.479 7.023l.083.393.382.12c.166.053 2.466.77 5.45.77" fill="#52267D"/>
      <path d="M109.075 61.22s.275-2.555 2.836-3.54c.782-.3 2.884-.358 2.884-.358s.555 2.717-1.175 3.502c-2.49 1.131-4.545.396-4.545.396" fill="#FFF"/>
      <path d="M114.18 58.039c.032.691-.048 1.797-.846 2.158-1.447.658-2.72.618-3.43.51.23-.699.816-1.832 2.255-2.385.373-.142 1.273-.237 2.02-.283m-3.423 4.104c.867 0 1.965-.154 3.15-.691 2.204-1.002 1.592-4.135 1.566-4.267l-.116-.568-.58.015c-.228.007-2.244.072-3.113.404-2.922 1.124-3.262 3.989-3.274 4.11l-.058.538.51.184c.055.019.794.275 1.915.275" fill="#52267D"/>
      <path d="M115.558 59.994s.117-3.484 4.055-3.943c.735-.087 1.674-.003 1.674-.003s1.81 3.688-.27 4.015c-2.552.404-5.46-.069-5.46-.069" fill="#FFF"/>
      <path d="M120.83 56.71c.347.836.658 2.001.41 2.478-.03.053-.083.155-.33.194-1.694.268-3.573.13-4.555.022.235-.876.98-2.394 3.338-2.668.377-.047.824-.04 1.136-.026m-2.12 4.206c.772 0 1.61-.045 2.417-.172.772-.123 1.155-.569 1.34-.921.705-1.359-.341-3.635-.558-4.077l-.171-.349-.389-.036c-.037-.002-1.016-.086-1.815.004-3.581.42-4.618 3.196-4.665 4.606l-.021.606.6.097c.085.015 1.516.242 3.262.242" fill="#52267D"/>
      <path d="M123.002 60.34s.664-3.844 4.105-2.65c1.468.51 2.253 1.668 2.253 1.668s-.805 2.916-2.178 2.533a26.552 26.552 0 01-4.18-1.551" fill="#FFF"/>
      <path d="M128.59 59.503c-.229.657-.632 1.469-1.028 1.693-.094.054-.147.046-.194.032a27.286 27.286 0 01-3.547-1.27c.168-.488.51-1.21 1.135-1.574.516-.302 1.147-.314 1.925-.043.84.29 1.423.844 1.71 1.162m-1.162 3.112c.278 0 .554-.075.812-.22 1.123-.633 1.683-2.488 1.784-2.854l.084-.305-.178-.263c-.037-.055-.93-1.355-2.597-1.934-1.171-.403-2.211-.354-3.084.16-1.548.91-1.914 2.938-1.93 3.023l-.086.507.461.229c.076.036 1.871.919 4.302 1.596.143.04.288.06.432.06" fill="#52267D"/>
      <path d="M158.359 54.133s-.112-1.359-1.457-1.915c-.41-.17-1.058-.003-1.058-.003s-.795 1.207.112 1.648c1.304.632 2.403.27 2.403.27M152.187 53.187s-.021-2.508-2.845-2.909c-.525-.076-1.204-.032-1.204-.032s-1.368 2.619.121 2.891c1.828.336 3.928.05 3.928.05M144.096 54.283s-.324-2.209-2.311-1.577a2.794 2.794 0 00-1.314.923s.419 1.682 1.21 1.483c1.381-.35 2.415-.829 2.415-.829M110.35 60.582s.144-1.35 1.5-1.872c.412-.16 1.522-.188 1.522-.188s.294 1.436-.621 1.85c-1.316.599-2.402.21-2.402.21M117.09 59.398s.066-1.925 2.242-2.18c.408-.047.927-.001.927-.001s1.001 2.038-.148 2.219c-1.413.223-3.02-.038-3.02-.038M124.38 60.095s.365-2.102 2.245-1.449a2.664 2.664 0 011.234.912s-.442 1.596-1.192 1.386a14.448 14.448 0 01-2.287-.849" fill="#F3E3FF"/>
      <path d="M132.855 81.68s-6.637.946-12.916-.674c-.656 3.406-1.083 5.98-1.083 5.98s4.332 3.013 12.423 1.397c1.008-4.373 1.576-6.703 1.576-6.703" fill="#FFF"/>
      <path d="M130.708 87.792c-6.128 1.113-9.943-.546-11.092-1.16.137-.803.446-2.576.866-4.785 4.735 1.08 9.458.818 11.471.628-.24 1.008-.664 2.8-1.245 5.317m-4.07 1.759c1.417 0 3.01-.14 4.777-.492l.437-.088.1-.433a606.865 606.865 0 011.574-6.695l.24-.988-1.009.142c-.065.011-6.576.91-12.645-.658l-.712-.183-.14.72c-.658 3.417-1.085 5.997-1.085 5.997l-.071.428.357.248c.147.102 2.954 2.002 8.177 2.002" fill="#52267D"/>
      <path d="M121.984 74.909l-7.518-.095c.047-3.779 3.155-6.802 6.943-6.755l.66.01a3.426 3.426 0 013.388 3.462 3.427 3.427 0 01-3.473 3.378" fill="#F3E3FF"/>
      <path d="M121.162 74.769l-6.566-.083c.037-2.967 2.48-5.341 5.455-5.306l1.559.021a2.498 2.498 0 012.472 2.528 2.878 2.878 0 01-2.92 2.84" fill="#FFF"/>
      <path d="M119.984 70.069h.059l1.558.02a1.811 1.811 0 011.79 1.833 2.163 2.163 0 01-.66 1.537 2.179 2.179 0 01-1.53.62h-.02l-5.835-.072a4.7 4.7 0 014.638-3.938zm1.216 5.388a3.564 3.564 0 003.573-3.52 3.164 3.164 0 00-.906-2.263 3.18 3.18 0 00-2.248-.962l-1.558-.02h-.076c-3.317 0-6.038 2.669-6.079 5.987l-.008.689 7.257.09h-.002.047z" fill="#52267D"/>
      <path d="M118.413 73.476a1.498 1.498 0 00-.669-2.014 1.507 1.507 0 00-2.02.667 1.504 1.504 0 002.689 1.347" fill="#52267D"/>
      <path d="M148.086 68.75l7.517.093c.049-3.777-2.984-6.878-6.77-6.925l-.662-.008a3.424 3.424 0 00-3.472 3.377 3.424 3.424 0 003.387 3.462" fill="#F3E3FF"/>
      <path d="M148.72 68.628l6.758.086c.036-2.968-2.347-5.404-5.321-5.442l-1.37-.017a2.692 2.692 0 00-2.727 2.653 2.69 2.69 0 002.66 2.72" fill="#FFF"/>
      <path d="M148.754 63.943h.025l1.369.018a4.702 4.702 0 014.597 4.054l-6.018-.076a1.993 1.993 0 01-1.407-.602 1.978 1.978 0 01-.57-1.418 2.005 2.005 0 012.004-1.976zm7.405 5.467l.008-.688c.04-3.342-2.651-6.095-6.001-6.138l-1.37-.018h-.04a3.386 3.386 0 00-3.386 3.335c-.011.9.33 1.752.96 2.398a3.356 3.356 0 002.382 1.018l7.447.093z" fill="#52267D"/>
      <path d="M153.593 67.156a1.506 1.506 0 01-2.117-.22 1.498 1.498 0 01.22-2.11 1.506 1.506 0 012.117.22 1.498 1.498 0 01-.22 2.11M105.386 76.26c.43-.085.815-.316 1.091-.657l.511-.625-1.125.226-.663.134a.47.47 0 10.186.923M163.478 69.97a1.883 1.883 0 01-1.073-.684l-.497-.639 1.12.255.659.149a.47.47 0 11-.209.918" fill="#52267D"/>
      <path d="M148.266 76.24s-5.634 2.313-11.259.065c.55 3.314 1.057 5.01 1.057 5.01s3.4.24 5.656-.173c3.225-.59 4.51-2.034 4.546-4.902" fill="#EAF3FB"/>
      <path d="M140.416 80.383s5.093.488 9.066-1.504" fill="#FFF"/>
      <path d="M141.874 81.127c1.87 0 5.13-.234 7.918-1.634l-.62-1.228c-3.75 1.878-8.642 1.436-8.69 1.432l-.133 1.372c.07.007.642.058 1.525.058" fill="#52267D"/>
      <path d="M122.35 82.294s4.954 1.471 9.35.652c-.87 3.246-1.322 4.26-1.322 4.26s-6.567-.956-8.028-4.912" fill="#EAF3FB"/>
      <path d="M124.435 128.575s.299.219.721.482" fill="#F3E3FF"/>
      <path d="M124.975 129.348l.364-.584a11.31 11.31 0 01-.698-.467l-.41.555s.307.226.744.496" fill="#52267D"/>
      <path d="M121.847 84.163s4.991 1.008 10.312.442" fill="#FFF"/>
      <path d="M128.733 85.467c1.113 0 2.295-.05 3.498-.177l-.145-1.37c-5.148.545-10.053-.422-10.101-.432l-.275 1.35c.161.032 3.176.63 7.023.63" fill="#52267D"/>
      <path d="M128.753 186.94s1.343-1.062 3.087.405c1.596 1.342 2.782 3.397 2.057 3.592-.725.197-2 .38-3.332.119-1.158-.228-2.187-.016-2.624-2.448-.203-1.132.812-1.668.812-1.668" fill="#FFF"/>
      <path d="M129.962 186.913c.444 0 1.015.156 1.656.696 1.41 1.184 2.259 2.719 2.147 3.037-.326.058-1.645.363-3.133.073-.16-.032-.317-.055-.47-.079-.93-.138-1.547-.228-1.88-2.092-.156-.864.603-1.286.634-1.304l.05-.032c.026-.02.4-.299.996-.299m1.972 4.617c.993 0 1.773-.183 2.053-.26a.62.62 0 00.453-.481c.19-.848-1.102-2.635-2.378-3.708-1.784-1.501-3.255-.598-3.49-.434-.432.237-1.164.946-.97 2.02.42 2.353 1.457 2.508 2.458 2.655.143.02.29.041.44.072.503.099.99.136 1.434.136" fill="#52267D"/>
      <path d="M129.052 187.337s.834-.661 1.92.252c.992.835 1.732 2.114 1.28 2.235a4.758 4.758 0 01-2.074.073c-.72-.14-1.361-.008-1.632-1.522-.127-.705.506-1.038.506-1.038" fill="#EAF3FB"/>
      <path d="M126.87 186.892c-.7-.102-1.728 1.404-1.619 1.867.11.466.17 1.997 1.304 2.178.834.132 3.811.48 4.471-.16.606-.587-.533-3.354-4.155-3.885" fill="#FFF"/>
      <path d="M126.82 187.232c2.547.373 3.676 1.864 3.942 2.683.118.368.066.573.024.616-.426.41-2.697.303-4.178.064-.664-.104-.848-.893-.966-1.623a4.296 4.296 0 00-.056-.29c-.012-.153.271-.735.713-1.155.249-.236.417-.287.522-.295m2.302 4.267c.896 0 1.766-.109 2.143-.474.282-.273.337-.755.152-1.322-.421-1.302-1.976-2.782-4.498-3.151-.477-.079-.947.304-1.248.63-.367.398-.871 1.168-.757 1.657.015.062.03.145.043.244.108.649.33 2 1.543 2.194.223.035 1.447.222 2.622.222" fill="#52267D"/>
      <path d="M126.163 186.746c-.7-.102-1.729 1.404-1.62 1.867.11.466.17 1.996 1.304 2.176.834.133 3.811.48 4.471-.158.607-.588-.533-3.355-4.155-3.885" fill="#FFF"/>
      <path d="M126.1 187.433c2.108.318 3.045 1.425 3.351 1.888.303.459.351.813.326.902-.273.163-2.161.153-3.821-.115-.44-.068-.581-.728-.684-1.338a5.199 5.199 0 00-.056-.314c.048-.191.6-.932.884-1.023m2.278 4.266c.992 0 1.964-.131 2.42-.572.38-.37.468-.98.241-1.68-.422-1.3-1.926-2.966-4.776-3.383-.511-.077-1.042.183-1.554.74-.384.418-.994 1.302-.837 1.968.013.056.024.13.039.22.11.672.369 2.245 1.825 2.478.492.077 1.579.229 2.642.229" fill="#52267D"/>
      <path d="M125.96 187.164c-.412-.06-1.018.829-.954 1.103.064.274.1 1.176.767 1.282.494.079 2.25.284 2.639-.092.359-.347-.314-1.98-2.451-2.293" fill="#EAF3FB"/>
      <path d="M123.663 187.461s.538-.271 1.59.347c.931.546 2.32 1.417 1.938 2.477-.382 1.056-3.336.625-3.992.392-.656-.233-1.06-.953-.936-1.578.272-1.361 1.4-1.638 1.4-1.638" fill="#FFF"/>
      <path d="M124.012 188.09c.14 0 .432.042.892.312.456.267 1.841 1.081 1.637 1.65-.261.354-2.352.245-3.11-.023-.347-.124-.544-.522-.49-.795.175-.879.824-1.085.897-1.108l.088-.028a.456.456 0 01.086-.007m1.322 3.56c1.08.002 2.184-.244 2.506-1.133.592-1.644-1.39-2.806-2.236-3.303-1.135-.666-1.883-.511-2.16-.41-.586.167-1.586.79-1.858 2.16-.195.981.411 2.017 1.38 2.361.241.085 1.295.325 2.368.325" fill="#52267D"/>
      <path d="M123.456 187.835s.32-.16.944.205c.55.324 1.372.84 1.146 1.467-.225.627-1.976.37-2.364.233-.387-.14-.627-.565-.554-.935.16-.806.828-.97.828-.97M126.669 187.311c-.413-.06-1.02.828-.955 1.102.063.274.1 1.176.767 1.284.494.078 2.25.282 2.639-.094.359-.347-.314-1.98-2.451-2.292" fill="#EAF3FB"/>
      <path d="M123.9 187.15s.609-.307 1.8.392c1.052.617 2.622 1.604 2.19 2.8-.431 1.196-3.773.707-4.515.444-.74-.264-1.197-1.078-1.058-1.784.307-1.538 1.583-1.852 1.583-1.852" fill="#FFF"/>
      <path d="M124.295 187.428c.239 0 .65.07 1.23.412 1.184.694 2.352 1.52 2.04 2.384-.295.821-3.206.543-4.074.237-.562-.2-.946-.837-.835-1.392.258-1.292 1.286-1.573 1.328-1.586l.062-.022a.753.753 0 01.249-.033m1.498 4.035c1.08 0 2.142-.226 2.423-1.004.546-1.518-1.403-2.663-2.34-3.214-1.19-.697-1.907-.493-2.09-.42-.226.063-1.485.499-1.807 2.11-.175.884.398 1.861 1.28 2.175.355.127 1.454.353 2.534.353" fill="#52267D"/>
      <path d="M123.667 187.574s.361-.184 1.066.23c.624.367 1.552.95 1.296 1.66-.255.707-2.233.418-2.673.261-.438-.156-.709-.636-.626-1.055.181-.912.937-1.096.937-1.096" fill="#EAF3FB"/>
      <path d="M138.381 149.02s-.779 7.728 1.04 19.915c1.693 11.342 4.904 14.935 4.627 17.867-.214 2.27-1.202 4.34-3.488 4.313l-6.822-.087a7.404 7.404 0 01-6.954-5.124c-.796-2.433-1.612-5.74-2.07-9.914-.455-5.675-.27-11.36-.134-14.698" fill="#9452BA"/>
      <path d="M140.608 192.491c2.69 0 4.488-2.073 4.815-5.562.146-1.555-.428-3.095-1.225-5.227-1.036-2.774-2.457-6.573-3.41-12.97-1.769-11.846-1.04-19.5-1.033-19.575l-2.748-.274c-.033.32-.776 8.04 1.047 20.255.999 6.682 2.537 10.801 3.556 13.526.693 1.856 1.15 3.082 1.063 4.008-.132 1.4-.599 3.064-2.071 3.064h-.023l-6.824-.086a6.033 6.033 0 01-5.659-4.172c-.951-2.916-1.628-6.159-2.01-9.64-.474-5.953-.223-12.156-.126-14.489l-2.76-.113c-.153 3.737-.305 9.341.136 14.863.407 3.708 1.124 7.136 2.134 10.231a8.797 8.797 0 008.25 6.076l6.823.085h.065z" fill="#52267D"/>
      <path d="M103.338 153.7c2.234 1.969 3.367 5.16 3.312 8.079-.072 3.896-2.402 8.83-1.046 15.324 1.207 5.785 3.743 6.836 2.91 12.003-.15.932-1.001 1.593-1.947 1.582l-7.602-.096c-3.5-.043-6.463-2.61-6.99-6.06-1.414-9.214-.138-17.877 1.174-24.52" fill="#9452BA"/>
      <path d="M106.592 192.065c1.623 0 3.03-1.17 3.285-2.74.567-3.515-.267-5.392-1.235-7.566-.58-1.303-1.236-2.778-1.685-4.936-.84-4.016-.166-7.424.426-10.43.32-1.616.62-3.144.648-4.589.066-3.523-1.38-7.024-3.778-9.137l-1.83 2.066c1.808 1.592 2.899 4.28 2.846 7.02-.022 1.201-.288 2.548-.596 4.108-.612 3.101-1.374 6.96-.422 11.524.511 2.445 1.263 4.133 1.866 5.491.885 1.99 1.47 3.305 1.033 6.011-.039.24-.347.45-.566.423l-7.602-.095a5.758 5.758 0 01-5.644-4.892c-1.388-9.054-.105-17.606 1.167-24.045l-2.711-.533c-1.315 6.658-2.638 15.517-1.185 24.995a8.504 8.504 0 008.338 7.23l7.602.095h.043z" fill="#52267D"/>
      <path fill="#52267D" d="M101.41 163.686l2.61-1.242-2.552-2.087-1.097.35.21.656.739-.236 1.42 1.163-1.277.609-.736-.484.485-.102.32.234.41-.553-.567-.418-2.414.509z"/>
      <path d="M142.554 187.112s1.342-1.062 3.086.407c1.596 1.34 2.783 3.395 2.058 3.59-.725.197-2 .382-3.333.119-1.158-.226-2.187-.015-2.623-2.446-.203-1.133.812-1.67.812-1.67" fill="#FFF"/>
      <path d="M147.163 190.527a7.028 7.028 0 01-2.664.027c-.166-.033-.327-.057-.485-.082-.867-.126-1.303-.191-1.593-1.81-.113-.632.45-.938.456-.942l.1-.063c.108-.08.982-.652 2.218.387 1.036.87 1.76 1.949 1.968 2.483m-1.418 1.521c.982 0 1.765-.174 2.133-.274a.965.965 0 00.7-.737c.248-1.123-1.34-3.077-2.492-4.045-1.675-1.41-3.26-.936-3.91-.458-.544.312-1.338 1.127-1.114 2.368.43 2.4 1.5 2.75 2.75 2.933.138.022.278.04.422.068a7.743 7.743 0 001.51.145" fill="#52267D"/>
      <path d="M142.852 187.51s.834-.66 1.92.252c.992.834 1.732 2.113 1.28 2.236a4.78 4.78 0 01-2.074.073c-.72-.14-1.361-.01-1.632-1.523-.127-.704.506-1.039.506-1.039" fill="#EAF3FB"/>
      <path fill="#52267D" d="M131.749 170.838l3.237-.194.477-3.07-2.985-.97-.213.653 2.428.79-.304 1.944-2.335.14-.892-1.055 1.178-.632.708.215-.515.557.508.468 1.262-1.364-2.036-.618-2.18 1.17z"/>
      <g fill="#F3E3FF">
        <path d="M190.903 85.883c.497 0 .906-.4.913-.898l-.345-.005a.56.56 0 01-.172.398.56.56 0 01-.396.16h-.007a.567.567 0 01-.56-.572l-.344-.006a.904.904 0 00.258.648c.17.175.398.272.64.275h.013z"/>
        <path d="M192.384 85.902a.905.905 0 00.911-.898l-.345-.006a.566.566 0 01-.566.56h-.004a.565.565 0 01-.564-.573l-.345-.006a.907.907 0 00.9.923h.013z"/>
        <path d="M191.635 86.63c.24 0 .464-.091.636-.258a.902.902 0 00.276-.64l-.345-.005a.565.565 0 01-.568.558h-.007a.567.567 0 01-.56-.573l-.346-.003c-.005.502.4.915.902.92h.012zM162.742 84.264c.222 0 .446-.058.65-.18l-.178-.297a.915.915 0 01-1.26-.308.91.91 0 01.31-1.257l-.178-.296a1.259 1.259 0 00.656 2.338"/>
        <path d="M162.372 85.757c.223 0 .446-.058.65-.18l-.177-.297a.914.914 0 11-.95-1.565l-.179-.296a1.259 1.259 0 00.656 2.338M126.887 109.435a1.16 1.16 0 001.166-1.146l-.346-.005a.818.818 0 01-.82.807h-.007a.82.82 0 01-.813-.828l-.345-.004a1.165 1.165 0 001.15 1.176h.015z"/>
        <path d="M128.87 109.46c.636 0 1.158-.51 1.168-1.146l-.346-.006a.823.823 0 01-.821.809h-.01a.81.81 0 01-.576-.247.81.81 0 01-.233-.581l-.345-.004a1.16 1.16 0 001.149 1.176h.015z"/>
        <path d="M127.866 110.437c.637 0 1.157-.51 1.166-1.146l-.346-.005a.82.82 0 01-.82.807h-.007a.82.82 0 01-.812-.828l-.345-.004a1.165 1.165 0 001.149 1.176h.015zM155.736 172.515a1.16 1.16 0 001.166-1.147l-.346-.005a.818.818 0 01-.82.809h-.01a.814.814 0 01-.577-.247.81.81 0 01-.233-.582l-.346-.004c-.004.31.114.603.332.825.218.223.508.347.819.351h.015z"/>
        <path d="M157.72 172.54c.636 0 1.158-.511 1.167-1.146l-.346-.006a.82.82 0 01-.821.807h-.01a.819.819 0 01-.81-.827l-.344-.005a1.165 1.165 0 001.149 1.177h.015z"/>
        <path d="M156.715 173.518c.307 0 .595-.117.815-.33.222-.216.346-.506.35-.818l-.345-.005a.813.813 0 01-.247.575c-.154.152-.369.255-.583.233a.81.81 0 01-.575-.246.81.81 0 01-.234-.582l-.345-.004a1.16 1.16 0 001.149 1.176h.015zM128.723 78.006c.689 0 1.255-.555 1.264-1.243l-.345-.006a.92.92 0 01-.92.905h-.006a.914.914 0 01-.91-.927l-.344-.006a1.262 1.262 0 001.246 1.277h.015z"/>
        <path d="M129.801 79.107c.688 0 1.253-.554 1.262-1.243l-.345-.005a.91.91 0 01-.917.903h-.008a.914.914 0 01-.91-.925l-.345-.006a1.26 1.26 0 001.247 1.275h.016zM142.184 97.62c.394 0 .765-.15 1.047-.425a1.47 1.47 0 00.451-1.05l-.345-.003a1.151 1.151 0 01-1.153 1.134h-.014a1.155 1.155 0 01-1.138-1.165l-.345-.003a1.5 1.5 0 001.48 1.512h.017z"/>
        <path d="M143.495 98.957c.392 0 .763-.15 1.045-.425.286-.279.446-.65.45-1.05l-.345-.003a1.145 1.145 0 01-1.15 1.134h-.015a1.15 1.15 0 01-1.138-1.163l-.346-.005c-.005.4.147.778.427 1.063.28.285.652.445 1.052.45h.02zM162.286 64.572a1.06 1.06 0 001.058-1.043l-.345-.005a.712.712 0 01-.724.703.714.714 0 01-.706-.72l-.345-.003a1.057 1.057 0 001.047 1.068h.015z"/>
        <path d="M163.157 65.468a1.06 1.06 0 001.06-1.045l-.344-.002a.71.71 0 01-.715.702h-.009a.716.716 0 01-.704-.72l-.346-.006a1.06 1.06 0 001.046 1.07h.012zM77.867 152.119l.085-.003c.317-.022.607-.165.817-.406l-.261-.226a.847.847 0 01-1.279-1.11l-.26-.226a1.17 1.17 0 00-.29.863c.021.318.168.608.408.816.218.19.493.292.78.292"/>
        <path d="M77.968 153.554c.335 0 .666-.14.902-.41l-.26-.225a.846.846 0 11-1.279-1.11l-.262-.226a1.191 1.191 0 00.9 1.97M118.286 138.913c.156 0 .313-.028.464-.082.345-.122.62-.373.776-.702l-.312-.149c-.242.51-.852.732-1.363.49a1.02 1.02 0 01-.49-1.36l-.313-.148a1.368 1.368 0 001.238 1.95"/>
        <path d="M120.45 139.93c.514 0 1.007-.291 1.24-.783l-.312-.149a1.013 1.013 0 01-.58.527c-.26.092-.538.08-.781-.038a1.02 1.02 0 01-.49-1.359l-.314-.147a1.368 1.368 0 001.237 1.949"/>
        <path d="M118.858 140.501a1.358 1.358 0 001.24-.784l-.312-.148a1.015 1.015 0 01-.58.527c-.26.093-.539.08-.782-.037a1.015 1.015 0 01-.529-.578 1.003 1.003 0 01.037-.781l-.312-.148a1.36 1.36 0 00.655 1.818c.186.089.384.131.583.131"/>
        <path d="M121.023 141.52c.156 0 .314-.028.464-.082.346-.122.62-.373.777-.702l-.313-.149c-.24.51-.854.731-1.363.49a1.02 1.02 0 01-.49-1.36l-.312-.148a1.368 1.368 0 001.237 1.95M117.263 141.072c.516 0 1.009-.291 1.242-.783l-.312-.149a1.025 1.025 0 01-1.89-.09 1.003 1.003 0 01.037-.78l-.314-.147a1.366 1.366 0 001.237 1.949M139.836 73.547a1.38 1.38 0 001.381-1.358l-.345-.005a1.036 1.036 0 01-1.036 1.019h-.012a1.034 1.034 0 01-1.022-1.044l-.345-.006a1.38 1.38 0 001.361 1.394h.018zM139.681 119.074a1.38 1.38 0 001.381-1.358l-.345-.005a1.036 1.036 0 01-1.036 1.019h-.012a1.035 1.035 0 01-1.022-1.046l-.346-.005a1.38 1.38 0 001.362 1.395h.018zM126.601 93.522c.595 0 1.081-.478 1.09-1.07l-.346-.006a.744.744 0 01-.744.731h-.008a.738.738 0 01-.732-.75l-.345-.004c-.004.289.105.563.309.771.202.208.474.324.764.328h.012zM105.303 72.286a.856.856 0 00.86-.847l-.345-.003a.51.51 0 01-.514.505h-.007a.516.516 0 01-.506-.519l-.346-.003a.86.86 0 00.848.867h.01zM97.828 173.201c.275 0 .545-.084.776-.242.305-.208.51-.522.576-.883l-.34-.062a1.02 1.02 0 01-.43.661 1.04 1.04 0 01-1.44-.268 1.021 1.021 0 01-.163-.773l-.34-.065a1.36 1.36 0 00.219 1.032c.207.304.522.51.883.576.087.016.173.024.259.024M130.938 182.812a1.48 1.48 0 001.044-.424 1.48 1.48 0 00.453-1.05l-.345-.005a1.152 1.152 0 01-1.152 1.135h-.015a1.157 1.157 0 01-.812-.347 1.14 1.14 0 01-.326-.817l-.345-.006a1.492 1.492 0 001.478 1.514h.02z"/>
        <path d="M132.246 184.15c.818 0 1.486-.658 1.497-1.473l-.345-.006a1.152 1.152 0 01-1.152 1.135h-.01a1.16 1.16 0 01-.817-.347 1.14 1.14 0 01-.326-.817l-.345-.005a1.492 1.492 0 001.478 1.514h.02z"/>
      </g>
      <path d="M140.67 187.065c-.7-.102-1.728 1.405-1.619 1.868.11.465.17 1.996 1.304 2.176.834.132 3.811.48 4.471-.158.606-.588-.533-3.356-4.155-3.886" fill="#FFF"/>
      <path d="M140.608 187.752c2.108.319 3.045 1.426 3.351 1.889.303.458.35.812.326.902-.273.162-2.161.153-3.821-.116-.44-.067-.581-.727-.684-1.337a5.199 5.199 0 00-.056-.314c.048-.192.6-.933.884-1.024m2.278 4.266c.992 0 1.964-.13 2.42-.571.38-.37.468-.981.241-1.68-.422-1.3-1.926-2.966-4.777-3.384-.51-.077-1.04.184-1.553.74-.384.419-.994 1.303-.837 1.968.012.057.024.131.039.22.11.673.368 2.246 1.825 2.478.492.078 1.579.23 2.642.23" fill="#52267D"/>
      <path d="M140.469 187.483c-.413-.06-1.02.83-.955 1.104.064.274.1 1.176.767 1.282.494.079 2.25.284 2.639-.092.359-.347-.314-1.98-2.451-2.294" fill="#EAF3FB"/>
      <path d="M138.17 187.78s.54-.27 1.592.348c.93.545 2.318 1.417 1.937 2.476-.382 1.057-3.336.626-3.992.393-.656-.233-1.06-.953-.937-1.579.272-1.36 1.4-1.637 1.4-1.637M121.524 187.86s.538-.271 1.59.347c.931.546 2.319 1.418 1.938 2.477-.383 1.056-3.337.625-3.992.393-.656-.233-1.061-.954-.937-1.579.272-1.36 1.4-1.638 1.4-1.638" fill="#FFF"/>
      <path d="M138.52 188.41c.14 0 .432.042.892.312.456.267 1.84 1.08 1.636 1.65-.26.354-2.351.245-3.11-.024-.346-.124-.544-.522-.49-.795.176-.878.825-1.085.898-1.107l.088-.029a.456.456 0 01.086-.007m1.322 3.56c1.08.002 2.184-.243 2.506-1.133.592-1.643-1.39-2.806-2.236-3.303-1.135-.665-1.883-.51-2.16-.409-.587.167-1.586.79-1.858 2.16-.195.98.411 2.016 1.38 2.36.24.086 1.295.326 2.368.326M121.873 188.49c.14 0 .432.041.892.311.456.267 1.84 1.081 1.636 1.65-.26.354-2.351.245-3.11-.023-.346-.124-.544-.522-.49-.795.176-.879.825-1.085.898-1.107l.088-.03a.456.456 0 01.086-.006m1.321 3.56c1.082.002 2.185-.243 2.507-1.133.592-1.643-1.39-2.806-2.236-3.303-1.135-.665-1.884-.511-2.16-.41-.587.168-1.587.79-1.859 2.16-.194.981.412 2.017 1.381 2.361.24.086 1.294.325 2.367.325" fill="#52267D"/>
      <path d="M137.964 188.155s.32-.16.944.205c.55.324 1.372.84 1.146 1.467-.225.626-1.976.369-2.364.233-.387-.14-.627-.565-.554-.936.16-.805.828-.97.828-.97M121.317 188.234s.32-.16.943.206c.55.323 1.373.84 1.147 1.466-.226.627-1.977.37-2.365.233-.386-.139-.627-.565-.553-.935.16-.806.828-.97.828-.97" fill="#EAF3FB"/>
      <path d="M105.268 187.112s1.342-1.062 3.086.407c1.597 1.34 2.783 3.395 2.058 3.59-.725.197-2 .382-3.332.119-1.159-.226-2.188-.015-2.624-2.446-.203-1.133.812-1.67.812-1.67" fill="#FFF"/>
      <path d="M109.877 190.527a7.028 7.028 0 01-2.664.027c-.165-.033-.327-.057-.484-.082-.867-.126-1.304-.191-1.594-1.81-.113-.632.45-.938.456-.942l.1-.063c.108-.08.983-.652 2.218.387 1.036.87 1.76 1.949 1.968 2.483m-1.418 1.521c.982 0 1.765-.174 2.134-.274a.965.965 0 00.698-.737c.249-1.123-1.34-3.077-2.49-4.045-1.676-1.41-3.26-.936-3.91-.458-.544.312-1.338 1.127-1.115 2.368.431 2.4 1.5 2.75 2.75 2.933.138.022.279.04.422.068a7.743 7.743 0 001.511.145" fill="#52267D"/>
      <path d="M105.566 187.51s.834-.66 1.92.252c.992.834 1.732 2.113 1.28 2.236a4.78 4.78 0 01-2.073.073c-.721-.14-1.362-.01-1.633-1.523-.127-.704.506-1.039.506-1.039" fill="#EAF3FB"/>
      <path d="M103.385 187.065c-.7-.102-1.729 1.405-1.62 1.868.11.465.17 1.996 1.304 2.176.834.132 3.811.48 4.471-.158.607-.588-.533-3.356-4.155-3.886" fill="#FFF"/>
      <path d="M103.322 187.752c2.109.319 3.045 1.426 3.351 1.889.303.458.351.812.326.902-.273.162-2.16.153-3.82-.116-.44-.067-.582-.727-.684-1.337a5.199 5.199 0 00-.057-.314c.048-.192.6-.933.884-1.024m2.278 4.266c.992 0 1.964-.13 2.42-.571.381-.37.468-.981.241-1.68-.422-1.3-1.926-2.966-4.776-3.384-.511-.077-1.041.184-1.554.74-.384.419-.994 1.303-.837 1.968.013.057.024.131.039.22.11.673.369 2.246 1.826 2.478.491.078 1.578.23 2.641.23" fill="#52267D"/>
      <path d="M103.183 187.483c-.413-.06-1.02.83-.954 1.104.063.274.1 1.176.766 1.282.494.079 2.251.284 2.64-.092.358-.347-.314-1.98-2.452-2.294" fill="#EAF3FB"/>
      <path d="M100.885 187.78s.539-.27 1.59.348c.932.545 2.32 1.417 1.938 2.476-.382 1.057-3.336.626-3.992.393-.656-.233-1.06-.953-.936-1.579.272-1.36 1.4-1.637 1.4-1.637" fill="#FFF"/>
      <path d="M101.234 188.41c.14 0 .432.042.892.312.456.267 1.841 1.08 1.637 1.65-.261.354-2.352.245-3.11-.024-.347-.124-.544-.522-.49-.795.175-.878.824-1.085.897-1.107l.089-.029a.456.456 0 01.085-.007m1.322 3.56c1.081.002 2.184-.243 2.506-1.133.593-1.643-1.389-2.806-2.236-3.303-1.135-.665-1.883-.51-2.16-.409-.586.167-1.586.79-1.858 2.16-.195.98.411 2.016 1.38 2.36.241.086 1.295.326 2.368.326" fill="#52267D"/>
      <path d="M100.679 188.155s.319-.16.943.205c.55.324 1.373.84 1.146 1.467-.225.626-1.976.369-2.364.233-.387-.14-.627-.565-.554-.936.16-.805.829-.97.829-.97" fill="#EAF3FB"/>
      <path d="M166.167 188.426s.54-.271 1.593.347c.93.546 2.318 1.418 1.937 2.477-.383 1.056-3.336.625-3.992.393-.656-.235-1.06-.954-.937-1.579.272-1.36 1.4-1.638 1.4-1.638" fill="#FFF"/>
      <path d="M166.518 189.056c.14 0 .434.041.892.311.456.267 1.84 1.081 1.636 1.65-.26.356-2.351.247-3.11-.023-.346-.124-.544-.522-.49-.795.176-.879.823-1.087.898-1.107l.088-.03a.407.407 0 01.086-.006m1.321 3.56c1.082 0 2.185-.243 2.507-1.133.592-1.643-1.39-2.806-2.236-3.303-1.138-.668-1.885-.51-2.161-.41-.586.167-1.585.79-1.857 2.16-.194.978.411 2.016 1.38 2.361.24.086 1.294.325 2.367.325" fill="#52267D"/>
      <path d="M165.962 188.8s.318-.16.944.206c.55.323 1.372.84 1.146 1.466-.225.626-1.976.37-2.364.232-.388-.138-.627-.563-.556-.934.162-.806.83-.97.83-.97" fill="#EAF3FB"/>
      <path d="M162.939 187.638c-.702-.102-1.73 1.405-1.62 1.87.109.463.17 1.995 1.304 2.175.834.133 3.811.48 4.471-.16.606-.586-.533-3.353-4.155-3.885" fill="#FFF"/>
      <path d="M162.874 188.325c2.109.32 3.046 1.426 3.352 1.889.302.458.352.812.327.902-.272.161-2.163.15-3.823-.114-.436-.068-.58-.728-.682-1.338a4.074 4.074 0 00-.058-.314c.05-.193.602-.934.884-1.025m2.279 4.267c.991 0 1.965-.13 2.422-.574.378-.366.467-.976.24-1.673-.421-1.302-1.924-2.97-4.777-3.389-.5-.069-1.04.182-1.552.739-.385.418-.996 1.303-.84 1.97.013.057.025.133.04.221.111.672.37 2.245 1.826 2.478.492.077 1.577.228 2.64.228" fill="#52267D"/>
      <path d="M162.736 188.058c-.412-.06-1.019.828-.954 1.102.062.274.1 1.176.767 1.283.494.079 2.25.283 2.639-.093.359-.347-.314-1.98-2.452-2.292" fill="#EAF3FB"/>
      <path d="M153.721 188.177c-.217-.187-.479-.242-.696-.143-.81.37-2.858 1.422-2.457 2.884.313 1.14 1.013.808 2.343.848l1.002.031a.567.567 0 00.51-.286c.59-.955.297-2.471-.633-3.274l-.069-.06z" fill="#FFF"/>
      <path d="M153.313 188.66l-.042.039.07.06c.67.58.908 1.72.494 2.392l-.902-.073a12.748 12.748 0 00-.808.007c-.783.024-.79.026-.89-.348-.256-.93 1.527-1.825 2.078-2.077zm.62 3.825c.44 0 .842-.228 1.078-.615.761-1.232.409-3.135-.769-4.154l-.07-.06c-.42-.362-.97-.458-1.431-.249-2.979 1.358-3.058 2.897-2.84 3.693.391 1.423 1.441 1.39 2.268 1.362.213-.007.454-.014.72-.007l1.002.03h.042z" fill="#52267D"/>
      <path d="M153.613 188.503c-.157-.138-.348-.176-.505-.105-.59.269-2.077 1.033-1.786 2.095.228.83.736.587 1.702.619l.73.02c.15.006.285-.07.369-.206.43-.694.215-1.796-.46-2.38l-.05-.043z" fill="#EAF3FB"/>
      <path d="M158.435 187.8s1.245-1.171 3.11.144c1.702 1.2 3.061 3.147 2.355 3.404a7.684 7.684 0 01-3.308.4c-1.176-.128-2.184.17-2.824-2.216-.299-1.111.667-1.731.667-1.731" fill="#FFF"/>
      <path d="M163.318 190.813c-.546.158-1.539.373-2.653.252-.166-.018-.33-.03-.49-.04-.874-.054-1.314-.08-1.74-1.672-.155-.578.29-.916.38-.978l.085-.065c.088-.079.914-.74 2.245.195 1.107.78 1.919 1.792 2.173 2.308m-1.976 1.665a8.4 8.4 0 002.795-.484.964.964 0 00.635-.793c.152-1.14-1.598-2.953-2.83-3.82-1.79-1.26-3.325-.655-3.934-.125-.514.357-1.235 1.236-.909 2.453.634 2.357 1.73 2.613 2.99 2.69.14.01.282.018.427.035.284.03.56.044.826.044" fill="#52267D"/>
      <path d="M158.765 188.17s.776-.728 1.935.089c1.06.748 1.904 1.96 1.466 2.121-.439.158-1.22.34-2.059.248-.732-.08-1.359.105-1.758-1.38-.186-.692.416-1.077.416-1.077" fill="#EAF3FB"/>
    </g>
    <g fill="#FFF" fill-rule="nonzero" stroke="#ACD3EF" stroke-linecap="round" stroke-width="3">
      <path stroke-linejoin="round" d="M141 240h85M237 240h12M133 240l-6 .08"/>
      <path d="M252 209c-1.017-21.524-15.053-39.05-33.231-41.496-4.974-28.297-23.578-50.52-47.524-56.766-23.946-6.246-48.773 4.648-63.418 27.827-16.961-5.042-34.929.622-47.487 14.97C47.78 167.883 42.423 188.869 46.178 209"/>
      <path d="M324 227h-20.931c4.992-15.27-3.81-31.547-19.662-36.356-15.851-4.81-32.749 3.67-37.741 18.94-5.696-1.235-11.667-.023-16.361 3.32-4.694 3.344-7.647 8.489-8.09 14.096h-17.948c-.696-12.054-10.31-21.868-22.762-23.238-3.407-15.846-16.15-28.291-32.553-31.789-16.402-3.498-33.408 2.603-43.44 15.584-11.618-2.824-23.925.348-32.527 8.383-8.602 8.034-12.273 19.787-9.7 31.06H41"/>
    </g>
  </g>
</svg>
