<svg xmlns="http://www.w3.org/2000/svg" width="1470" height="938" xmlns:xlink="http://www.w3.org/1999/xlink">
    <defs>
        <path id="a" d="M.07.92h194.68V7H.07z"/>
        <path id="b" d="M.07.92h194.68V7H.07z"/>
        <path id="c" d="M.07.92h194.68V7H.07z"/>
    </defs>
    <g fill="none" fill-rule="evenodd">
        <path fill="#E1F2FF" fill-rule="nonzero" d="M357 778c0-225.88 186.03-409 415.5-409S1188 552.12 1188 778H357z"/>
        <g transform="matrix(-1 0 0 1 529 196)">
            <path fill="#9452BA" fill-rule="nonzero" stroke="#52267D" stroke-width="2" d="M89.63 186h8.74c3 0 5.7-1.9 6.8-4.85 3.08-8.35 2.32-16.02 2.68-22.6.68-12.16-1.12-18.34-2.85-28.55l-13.04.3s1.1 5.06 1.85 20.2c.23 4.7-7.14 23.53-6.8 32.77.05 1.5 1.2 2.7 2.63 2.73zM64.84 142.56L53.94 130l-6.74.28L45.87 145c-1.22 9.96-3.15 19.8-5.78 29.47-.6 1.95-.96 3.97-1.1 6-.03 1.48.54 2.9 1.56 3.94 1.03 1.06 2.44 1.63 3.9 1.6h8c4.68.02 8.77-3.16 9.97-7.74 3.5-14.14 2.4-35.7 2.4-35.7z"/>
            <path stroke="#52267D" stroke-width=".5" d="M49.6 150l-1.6 1.53 1.52 1.47 2.48-1.02-.5-1.18-2.04.52v.4l.54-.02"/>
            <path fill="#9452BA" fill-rule="nonzero" stroke="#52267D" stroke-width="2" d="M49.2 96.52c7.87-.16 15.24-5.6 31.3-6.34.18-.95.48-1.88.87-2.77 2.9-6.3 7-24.46 4.36-36.4l-2.08-9.45c-.68-3.1-1.03-6.26-1.02-9.43 0-1.3.13-2.58.4-3.85.05-.3.12-.62.2-.92.24-.9.54-1.8.9-2.67l.38-.84c.27-.55.57-1.1.9-1.62.3-.53.66-1.04 1-1.53 1.12-1.5 2.42-2.8 3.9-3.9.48-.37 1-.72 1.52-1.03 3-1.82 6.42-2.78 9.9-2.77h3.14c5.06 0 9.92 2.02 13.5 5.62.43.43.84.9 1.24 1.37.7.85 1.34 1.77 1.9 2.74.2.36.4.74.58 1.12.18.37.27.55.37.84.74 1.75 1.2 3.6 1.4 5.5.07.65.1 1.3.1 1.96 0 1.26-.5 2.48-1.4 3.37-.9.9-2.1 1.4-3.36 1.4H99.62l2.96 17c3.46 17.5 2.42 29.18-.28 36.98-.6 1.8-4.02 7.9-4.02 7.9 9.8 15.47 24.78 22.24 40.82 24.2 13.63 1.68 43.1-10.8 27.9-25.2-15.22-14.4 3.15-5.4 5.84-3.6 2.7 1.8 18.3 15.34 1.37 35.18-7.2 8.4-15.3 16-34.8 21.86-3.1.93-20.2 2.18-29.4 4.82-27.4 7.9-49.64-.68-62.12-18.8-12.47-18.14-1.8-40.68 1.3-40.74z"/>
            <path fill="#9452BA" fill-rule="nonzero" stroke="#52267D" stroke-width="2" d="M65.6 70.05c.65-20.1-15.56-35.9-33.77-39.27-3.8-.7-5.03-1.78-9.2-1.78h-3.2C8.68 29 0 37.6 0 48.24c0 2.65 2.17 4.8 4.85 4.8h32.78c7.2 3.04 11.7 12.17 12.5 17.08 1.2 5.88.47 12-2.1 17.42-1.4 3.1-1.94 6.52-1.54 9.9h.17c.14 1.87.43 3.73.87 5.56 3.08-2.12 7.85-5.35 8.72-5.77 1.8-.98 6.14-3.23 8.05-4.3 12.22-6.96.93-11.47 1.3-22.88z"/>
            <path fill="#F3E3FF" fill-rule="nonzero" stroke="#52267D" d="M56.48 94.12c-.17-3.14-.66-4.75-.3-6.03C58.3 80.72 59 78.4 59 70.6c-.2-7.97-4.6-15.3-11.7-19.5-3.28-.4-6.6.37-9.3 2.18 7.57 3.08 12.3 12.33 13.13 17.3 1.27 5.96.5 12.15-2.2 17.65-1.5 3.14-2.04 6.6-1.62 10.02 0 0 9.45 3.36 9.18-4.13"/>
            <path fill="#FFF" fill-rule="nonzero" stroke="#52267D" d="M10 31.72c.1-2.03 1.4-3.82 3.33-4.6L16.2 26s1.97 4.1-.27 5.14c-1.84.9-3.95 1.1-5.93.58z"/>
            <path fill="#FFF" fill-rule="nonzero" stroke="#52267D" d="M17 29.67c.18-3.06 2.47-5.48 5.32-5.6.95-.14 3.44 0 3.44 0s1.15 5.16-1.55 5.7c-2.38.34-4.8.3-7.2-.1zM29 30.07s.74-5.26 5.7-3.82c1.3.4 2.44 1.14 3.3 2.15 0 0-1 4.03-2.95 3.56-2.07-.47-4.1-1.1-6.05-1.9zM42 55.22S53.3 49.17 51.08 39c2.5 2.08 4.8 4.36 6.92 6.8 0 2 .38 9.9-10.65 15.2-1.66-2.04-3.44-3.97-5.35-5.78z"/>
            <path fill="#F3E3FF" fill-rule="nonzero" d="M11 31.85c.06-1.03.82-1.92 1.94-2.28l1.6-.57s1.13 2.05-.15 2.57c-1.06.45-2.27.55-3.4.28zM21 28.85c.08-1.54 1.08-2.76 2.34-2.85h1.55s.5 2.62-.7 2.88c-1.07.17-2.14.16-3.2-.03zM30 30.04s.33-2.65 2.54-1.9c.57.2 1.08.57 1.46 1.08 0 0-.44 2.02-1.32 1.76-.9-.23-1.8-.54-2.68-.94z"/>
            <path fill="#F3E3FF" fill-rule="nonzero" d="M25.77 40.07h.85c2.42 0 4.38 2 4.38 4.47C31 47 29.04 49 26.62 49H17c0-4.97 3.95-9 8.83-9l-.06.07z" opacity=".3"/>
            <path fill="#FFF" fill-rule="nonzero" stroke="#52267D" d="M24.35 44h1.88C28.3 44 30 45.57 30 47.5S28.3 51 26.23 51H17c-.05-1.84.7-3.62 2.1-4.94 1.37-1.32 3.27-2.06 5.25-2.06z"/>
            <circle cx="20" cy="49" r="2" fill="#52267D" fill-rule="nonzero"/>
            <path fill="#52267D" fill-rule="nonzero" d="M4.8 52c.58-.08 1.1-.26 1.5-.52L7 51l-1.56.18-.92.1c-.17.02-.32.08-.42.16-.1.08-.12.18-.08.27.03.1.13.2.27.24.14.05.32.07.5.05z"/>
            <path fill="#EAF3FB" fill-rule="nonzero" d="M44 55.28s8.5-4.4 8.36-13.28c1.8 1.1 3.38 2.54 4.64 4.2-.35 2.3-1.27 4.48-2.68 6.35-3.15 3.28-6.42 4.3-10.32 2.73z"/>
            <path fill="#FFF" fill-rule="nonzero" stroke="#52267D" d="M51 53c-1.78 1.56-3.8 2.9-6 4"/>
            <path fill="#9452BA" fill-rule="nonzero" stroke="#52267D" stroke-width="2" d="M84 87.98l-1.83-3.57c-7-16.76-8.1-26.6-4.46-42.6l2.1-9.4c.7-3.1 1.05-6.23 1.05-9.38C80.85 12.52 72.1 4 61.33 4H58.2C47.6 4.02 39 12.4 39 22.75v.54c0 2.46 2.05 4.46 4.58 4.46h19.9l-3.03 16.9c-9.16 45.27-8.32 63.63 9.9 59.86"/>
            <path fill="#FFF" fill-rule="nonzero" stroke="#52267D" d="M49 6.68c.3-2.45 1.68-4.54 3.63-5.48.86-.27 1.75-.27 2.6 0 0 0 1.93 3.5-.32 4.76C53.1 7.03 51 7.28 49 6.68z"/>
            <path fill="#FFF" fill-rule="nonzero" stroke="#52267D" d="M56 5.72c.2-3.05 2.87-5.5 6.22-5.67.86-.07 1.73-.07 2.6 0 0 0 2.87 5.2-.34 5.7-2.82.34-5.67.33-8.48-.03zM67 6.95s.87-5.22 5.77-3.66c1.28.4 2.4 1.18 3.23 2.2 0 0-1.08 3.96-3.03 3.46-2.05-.5-4.04-1.18-5.97-2z"/>
            <path fill="#F3E3FF" fill-rule="nonzero" stroke="#52267D" d="M49 95c.9-.47 1.9-.8 3-1M55.74 96.44c-3.16-12.98 2.53-37.75 3.54-43.92L63.45 28h1.77c1.14.12 2.17.7 2.87 1.6.7.93 1 2.1.82 3.24l-3 21.23c-1 7.2-2.07 40.47 10.25 47.62 2.63 1.52 6.9.5 8.5-.26 5.86-2.84 7.55-10.25 8.88-16.18 2.66-12.35.58-22.04 0-31.73l-.6-12.08c-.1-2.26 1.54-4.22 3.75-4.46h2.2l3.97 24.48c1.2 6.97 4.26 31.13-9.78 42.48-.26.2 3.4 1.04 2.34 2.95-4.22 7.57-16.46 8.78-18.77 12.02C67.8 131.4 76.1 158 76.1 158c-5.74-2.37-11.12-5.58-15.95-9.53C45.97 135.5 44.07 116.72 44 111.2c0-6.6 1.63-10.78 3.74-13.16"/>
            <path fill="#FFF" fill-rule="nonzero" stroke="#52267D" d="M173.9 107c1.1-1.46 1.4-3.47.8-5.25-.33-.7-.82-1.32-1.42-1.75 0 0-2.78.54-2.2 2.64.43 1.8 1.44 3.35 2.83 4.36z"/>
            <path fill="#F3E3FF" fill-rule="nonzero" d="M172.73 105c.26-.63.34-1.47.2-2.24-.08-.3-.2-.57-.35-.76 0 0-.7.25-.56 1.2.12.74.38 1.38.7 1.8z"/>
            <path fill="#FFF" fill-rule="nonzero" stroke="#52267D" d="M156.45 123c-1.2-2.66.1-5.68 3.05-7.04.75-.38 1.54-.7 2.36-.96 0 0 5.05 3.43 2.34 4.97-2.4 1.3-5 2.32-7.75 3.03z"/>
            <path fill="#F3E3FF" fill-rule="nonzero" d="M158.2 119c-.54-1.33.04-2.85 1.36-3.52.34-.2.7-.35 1.05-.48 0 0 2.24 1.68 1.05 2.5-1.07.64-2.23 1.15-3.45 1.5z"/>
            <path fill="#FFF" fill-rule="nonzero" stroke="#52267D" d="M170.44 108s3.42 3.04.14 5.77c-.87.7-1.93 1.13-3.04 1.23 0 0-2.42-2.62-1.2-3.68 1.27-1.22 2.64-2.33 4.1-3.32z"/>
            <path fill="#F3E3FF" fill-rule="nonzero" d="M170.25 110s1.68 1.3 0 2.47c-.42.3-.94.5-1.5.53 0 0-1.18-1.12-.58-1.6.65-.52 1.35-1 2.08-1.4z"/>
            <path fill="#FFF" fill-rule="nonzero" stroke="#52267D" d="M140.14 125.67c-.6-2.56.83-5.16 3.23-5.85 4.33-1.67 5.5-.28 5.5-.28s2.38 4.3.24 5.7c-2.13 1.4-8.96.43-8.96.43z"/>
            <path fill="#F3E3FF" fill-rule="nonzero" d="M142.08 124.88c-.35-1.1.5-2.22 1.94-2.52 2.6-.73 3.3-.13 3.3-.13s1.44 1.84.14 2.44c-1.76.35-3.6.42-5.38.2z"/>
            <path fill="#FFF" fill-rule="nonzero" stroke="#52267D" d="M61.36 33c5.26 2.34 11.28 2.47 16.64.36-.66 2.93-2.04 8.8-2.04 8.8S67.04 44.86 60 40.6c.73-3.86 1.36-7.6 1.36-7.6zM114 15.7c-.27-2.3-1.55-4.24-3.37-5.13-1.15-.34-2.33-.53-3.5-.57 0 0-.73 3.95 1.37 5.03 1.7 1 3.66 1.23 5.5.68zM107 15.72c-.18-3.05-2.58-5.5-5.6-5.67-.78-.07-1.56-.07-2.34 0 0 0-2.58 5.2.3 5.7 2.54.34 5.1.33 7.64-.03zM97 13.9s-.88-5.1-5.77-3.64c-1.3.45-2.43 1.25-3.23 2.3 0 0 1.1 3.87 3.03 3.4 2.05-.52 4.05-1.2 5.97-2.05z"/>
            <path fill="#F3E3FF" fill-rule="nonzero" d="M51 5.85c.17-1.23.95-2.28 2.07-2.75.5-.13 1-.13 1.5 0 0 0 1.1 1.75-.2 2.37-1.04.54-2.24.67-3.37.38zM59 3.8C59.12 1.8 60.72.17 62.72.04c.5-.04 1.03-.04 1.54 0 0 0 1.78 3.46-.2 3.8-1.67.23-3.38.23-5.06-.02zM70 5.97s.4-2.6 2.57-1.82c.57.2 1.07.6 1.43 1.1 0 0-.5 2-1.35 1.73-.9-.26-1.8-.6-2.65-1zM114 13.84c-.16-1.15-.9-2.12-1.94-2.56-.65-.17-1.32-.26-2-.28 0 0-.4 1.87.8 2.52.97.5 2.1.6 3.14.32zM104 12.86c-.08-1.52-1.15-2.74-2.5-2.83-.33-.04-.68-.04-1.03 0 0 0-1.15 2.6.14 2.85 1.14.17 2.28.16 3.4-.02zM95 12.98s-.38-2.62-2.57-1.83c-.56.2-1.06.6-1.43 1.1 0 0 .48 2 1.35 1.72.9-.25 1.8-.58 2.65-1z"/>
            <path fill="#FFF" fill-rule="nonzero" stroke="#52267D" d="M84 40.66c5.56.74 11.2.52 16.7-.66.78 4.4 1.3 7.7 1.3 7.7s-5.64 3.82-16.06 1.6C84.7 43.68 84 40.67 84 40.67z"/>
            <path fill="#F3E3FF" fill-rule="nonzero" d="M107.95 32.93h-9.6c-2.4 0-4.35-2-4.35-4.47C94 26 95.95 24 98.36 24h.85c4.86 0 8.8 4.03 8.8 9l-.05-.07z" opacity=".3"/>
            <path fill="#FFF" fill-rule="nonzero" stroke="#52267D" d="M108 33h-9.03c-2.2 0-3.97-1.68-3.97-3.75 0-1.8 1.54-3.25 3.44-3.25h2.16c4.1 0 7.4 3.13 7.4 7z"/>
            <circle cx="103" cy="30" r="2" fill="#52267D" fill-rule="nonzero"/>
            <path fill="#F3E3FF" fill-rule="nonzero" d="M61.75 16.08h.84c1.15-.02 2.28.5 3.1 1.42.83.94 1.3 2.2 1.3 3.54 0 2.74-1.94 4.96-4.34 4.96H53c0-5.52 3.92-10 8.75-10v.08z" opacity=".3"/>
            <path fill="#FFF" fill-rule="nonzero" stroke="#52267D" d="M62.32 17h1.9C66.3 17 68 18.57 68 20.5S66.3 24 64.2 24H55c-.05-1.83.7-3.6 2.07-4.9 1.38-1.33 3.27-2.08 5.25-2.1z"/>
            <circle cx="62" cy="23" r="2" fill="#52267D" fill-rule="nonzero"/>
            <path fill="#52267D" fill-rule="nonzero" d="M120.2 34c-.58-.08-1.1-.26-1.5-.52L118 33l1.56.18.92.1c.17.02.32.08.42.16.1.08.12.18.08.27-.03.1-.13.2-.27.24-.14.05-.32.07-.5.05zM44.8 25c.58-.08 1.1-.26 1.5-.52L47 24l-1.56.18-.92.1c-.17.02-.32.08-.42.16-.1.08-.12.18-.08.27.03.1.13.2.27.24.14.05.32.07.5.05z"/>
            <path fill="#EAF3FB" fill-rule="nonzero" d="M64 35c4.5 1.85 9.45 1.94 14 .28-.35 2.24-.8 4.47-1.4 6.66-2.34.14-4.7.03-7.02-.33-4-.74-5.58-2.7-5.58-6.6z"/>
            <path fill="#FFF" fill-rule="nonzero" stroke="#52267D" d="M74 38.97c-3.77.14-7.54-.2-11-.97"/>
            <path fill="#EAF3FB" fill-rule="nonzero" d="M96 44c-3.6 1-7.33 1.24-11 .67.4 1.8.9 3.6 1.5 5.33 0 0 7.72-1.1 9.5-6z"/>
            <path fill="#F3E3FF" fill-rule="nonzero" stroke="#52267D" stroke-width=".5" d="M93 103s-.42.47-1 1"/>
            <path fill="#FFF" fill-rule="nonzero" stroke="#52267D" d="M97 45c-4.3 1.1-8.67 1.3-13 .6"/>
            <path fill="#FFF" fill-rule="nonzero" stroke="#52267D" stroke-width=".5" d="M86.82 178.52c-1.43-.85-3.33-.64-4.5.48-2.34 1.8-4 4.37-3.04 4.64 1.57.4 3.22.46 4.83.22 1.7-.27 3.18 0 3.86-3.14.18-.87-.28-1.75-1.14-2.2z"/>
            <path fill="#EAF3FB" fill-rule="nonzero" d="M85.47 179.34c-.63-.56-1.47-.42-1.98.33-1.05 1.15-1.82 2.92-1.37 3.1.7.25 1.43.3 2.14.13.74-.2 1.43 0 1.7-2.1.1-.58-.12-1.16-.5-1.46z"/>
            <path fill="#FFF" fill-rule="nonzero" stroke="#52267D" stroke-width=".5" d="M89.13 179c.82-.13 2 1.96 1.86 2.68-.14.72-.23 2.83-1.6 3.07-1 .17-4.46.6-5.2-.32-.77-.9.7-4.72 4.93-5.42z"/>
            <path fill="#EAF3FB" fill-rule="nonzero" d="M89.93 179c.47 0 1.14 1 1.06 1.34-.08.33-.13 1.4-.9 1.52-.77.1-2.55.3-3-.15-.43-.45.4-2.35 2.83-2.7z"/>
            <path fill="#FFF" fill-rule="nonzero" stroke="#52267D" stroke-width=".5" d="M93.07 179.1s-.75-.47-2.23.57c-1.5 1.03-3.26 2.36-2.75 4.14.5 1.8 4.65 1.15 5.55.76.9-.4 1.47-1.5 1.33-2.68-.16-1.28-.9-2.35-1.9-2.77z"/>
            <path fill="#EAF3FB" fill-rule="nonzero" d="M93.96 179.06s-.43-.25-1.27.28c-.86.52-1.9 1.18-1.67 2.07.2.9 2.67.57 3.2.4.52-.2.83-.76.76-1.33-.08-.63-.48-1.18-1.04-1.4z"/>
            <path fill="#9452BA" fill-rule="nonzero" stroke="#52267D" stroke-width="2" d="M74.04 130c.42 8.87-.15 17.76-1.68 26.5-2.4 15.07-6.67 19.8-6.34 23.7.23 3.03 1.5 5.8 4.5 5.8h8.92c4.16 0 7.85-2.7 9.17-6.7 1.4-4.3 2.37-8.7 2.88-13.18.5-6.52.65-13.07.4-19.62M119.6 136c-2.94 2.7-4.57 6.5-4.5 10.43 0 5.07 3.02 11.5 1.13 19.92-1.7 7.5-5.05 8.83-4.05 15.56.2 1.23 1.3 2.12 2.55 2.1h10.04c4.63 0 8.57-3.3 9.33-7.77 1.5-10.6 1.12-21.4-1.15-31.87"/>
            <path stroke="#52267D" stroke-width=".5" d="M120.86 146.8l.52-.4 1.62.4-1.8 1.2-2.2-1.12 2.28-1.88 1.03.36"/>
            <path fill="#FFF" fill-rule="nonzero" stroke="#52267D" d="M70.82 178.52c-1.43-.85-3.33-.64-4.5.48-2.34 1.8-4 4.37-3.04 4.64 1.57.4 3.22.46 4.83.22 1.7-.27 3.18 0 3.86-3.14.18-.87-.28-1.75-1.14-2.2z"/>
            <path fill="#EAF3FB" fill-rule="nonzero" d="M69.47 179.34c-.63-.56-1.47-.42-1.98.33-1.05 1.15-1.82 2.92-1.37 3.1.7.25 1.43.3 2.14.13.74-.2 1.43 0 1.7-2.1.1-.58-.12-1.16-.5-1.46z"/>
            <path stroke="#52267D" stroke-width=".5" d="M82.67 154l-3.67.96.48 2.8 3.77.24 1.75-1.68-2.25-1.04-1.87.45 1.2 1.1"/>
            <g stroke="#F3E3FF" stroke-width=".25" opacity=".3">
                <path d="M6.1 44.4c-.04.36.13.73.45.93.32.2.73.2 1.05 0 .32-.2.5-.57.44-.94"/>
                <path d="M4.18 44.4c-.05.36.12.73.44.93.32.2.73.2 1.05 0 .32-.2.5-.57.44-.94"/>
                <path d="M5.14 45.35c.07.47.48.83.96.83.5 0 .9-.36.97-.83M43.13 43.5c.43.3 1 .35 1.48.1.48-.23.78-.7.8-1.24 0-.52-.3-1-.77-1.25"/>
                <path d="M43.58 45.44c.43.3 1 .35 1.48.1.47-.23.77-.7.78-1.23 0-.52-.3-1-.76-1.25M88.98 75.57c0 .7.6 1.3 1.3 1.3.72 0 1.3-.6 1.3-1.3M86.4 75.57c0 .7.57 1.3 1.3 1.3.7 0 1.28-.6 1.28-1.3"/>
                <path d="M87.6 76.86c0 .7.6 1.28 1.3 1.28.73 0 1.3-.58 1.3-1.28M50.27 156.66c0 .7.58 1.28 1.3 1.28.72 0 1.3-.57 1.3-1.28"/>
                <path d="M47.7 156.66c0 .7.57 1.28 1.3 1.28.7 0 1.3-.57 1.3-1.28M48.97 158c0 .7.58 1.28 1.3 1.28.72 0 1.3-.58 1.3-1.3M86.96 34.74c0 .78.64 1.4 1.43 1.4.78 0 1.4-.62 1.4-1.4M85.54 36.15c0 .78.64 1.4 1.42 1.4.8 0 1.43-.62 1.43-1.4M68.77 59.6c-.2.73.06 1.52.7 1.96.6.44 1.45.44 2.08 0 .62-.44.9-1.23.68-1.95"/>
                <path d="M67.04 61.32c.22.76.93 1.28 1.73 1.28.8 0 1.5-.52 1.73-1.28M43.64 17.08c0 .63.5 1.14 1.15 1.14.63 0 1.14-.5 1.14-1.14M42.54 18.24c0 .63.5 1.14 1.15 1.14.63 0 1.14-.5 1.14-1.14M152.53 132.4c.5.56 1.35.6 1.92.12.56-.5.6-1.34.1-1.9"/>
                <path d="M152.4 134.26c.5.55 1.36.6 1.92.1.56-.48.62-1.33.12-1.9M99.6 114.23c.4.72 1.3 1 2.04.67.75-.34 1.1-1.2.8-1.96M96.76 115.5c.4.73 1.28 1.03 2.03.7.74-.35 1.1-1.2.8-1.97M98.83 116.28c.4.72 1.28 1 2.03.67.75-.34 1.1-1.2.82-1.96"/>
                <path d="M95.98 117.56c.4.72 1.28 1.02 2.03.68.77-.34 1.12-1.2.83-1.96M100.9 117.02c.2.54.7.93 1.3 1 .57.06 1.14-.2 1.47-.67.33-.48.36-1.1.08-1.6M72.38 28.65c0 .86.7 1.56 1.58 1.56.87 0 1.57-.7 1.57-1.55M71.84 87.55c0 .86.7 1.56 1.57 1.56.9 0 1.6-.7 1.6-1.55M89.7 55.08c0 .65.54 1.18 1.2 1.18.67 0 1.2-.53 1.2-1.18M118.16 28.26c0 .5.4.9.9.9s.9-.4.9-.9M125.62 158.44c.15.85.97 1.4 1.82 1.27.86-.14 1.43-.95 1.3-1.8M82.06 170c.22.77.93 1.3 1.73 1.3.8 0 1.5-.53 1.72-1.3M80.4 171.72c.23.76.93 1.28 1.73 1.28.8 0 1.5-.52 1.73-1.28"/>
            </g>
            <path fill="#FFF" fill-rule="nonzero" stroke="#52267D" d="M71.13 179c.82-.13 2 1.96 1.86 2.68-.14.72-.23 2.83-1.6 3.07-1 .17-4.46.6-5.2-.32-.77-.9.7-4.72 4.93-5.42z"/>
            <path fill="#EAF3FB" fill-rule="nonzero" d="M69.93 179c.47 0 1.14 1 1.06 1.34-.08.33-.13 1.4-.9 1.52-.77.1-2.55.3-3-.15-.43-.45.4-2.35 2.83-2.7z"/>
            <path fill="#FFF" fill-rule="nonzero" stroke="#52267D" d="M75.06 179.07s-.75-.3-2.24.37c-1.48.7-3.25 1.55-2.73 2.76.5 1.22 4.63.75 5.55.5.9-.26 1.47-1 1.33-1.77-.15-.86-.9-1.58-1.92-1.86z"/>
            <path fill="#EAF3FB" fill-rule="nonzero" d="M74.88 181.05s-.43-.23-1.27.28c-.82.5-1.84 1.2-1.55 2.07.3.9 2.66.58 3.18.38.52-.2.83-.75.76-1.32-.1-.66-.53-1.2-1.12-1.4z"/>
            <path fill="#FFF" fill-rule="nonzero" stroke="#52267D" d="M38.06 181.07s-.75-.3-2.24.37c-1.48.7-3.25 1.55-2.73 2.76.5 1.22 4.63.75 5.55.5.9-.26 1.47-1 1.33-1.77-.15-.86-.9-1.58-1.92-1.86z"/>
            <path fill="#EAF3FB" fill-rule="nonzero" d="M38.88 181.05s-.43-.23-1.27.28c-.82.5-1.84 1.2-1.55 2.07.3.9 2.66.58 3.18.38.52-.2.83-.75.76-1.32-.1-.66-.53-1.2-1.12-1.4z"/>
            <path fill="#FFF" fill-rule="nonzero" stroke="#52267D" d="M41.13 179c.82-.13 2 1.96 1.86 2.68-.14.72-.23 2.83-1.6 3.07-1 .17-4.46.6-5.2-.32-.76-.9.68-4.74 4.93-5.42z"/>
            <path fill="#EAF3FB" fill-rule="nonzero" d="M41.93 179c.47 0 1.14 1 1.06 1.34-.08.33-.13 1.4-.9 1.52-.77.1-2.55.3-3-.15-.43-.45.4-2.35 2.83-2.7z"/>
            <path fill="#FFF" fill-rule="nonzero" stroke="#52267D" stroke-width=".5" d="M117.82 178.52c-1.43-.85-3.33-.64-4.5.48-2.34 1.8-4 4.37-3.04 4.64 1.57.4 3.22.46 4.83.22 1.7-.27 3.18 0 3.86-3.14.18-.87-.28-1.75-1.14-2.2z"/>
            <path fill="#EAF3FB" fill-rule="nonzero" d="M115.47 179.34c-.63-.56-1.47-.42-1.98.33-1.05 1.15-1.82 2.92-1.37 3.1.7.25 1.43.3 2.14.13.74-.2 1.43 0 1.7-2.1.1-.58-.12-1.16-.5-1.46z"/>
            <path fill="#FFF" fill-rule="nonzero" stroke="#52267D" stroke-width=".5" d="M120.13 179c.82-.13 2 1.96 1.86 2.68-.14.72-.23 2.83-1.6 3.07-1 .17-4.46.6-5.2-.32-.77-.9.7-4.72 4.93-5.42z"/>
            <path fill="#EAF3FB" fill-rule="nonzero" d="M120.93 179c.47 0 1.14 1 1.06 1.34-.08.33-.13 1.4-.9 1.52-.77.1-2.55.3-3-.15-.43-.45.4-2.35 2.83-2.7z"/>
            <path fill="#FFF" fill-rule="nonzero" stroke="#52267D" stroke-width=".5" d="M123.06 179.07s-.75-.3-2.24.37c-1.48.7-3.25 1.55-2.73 2.76.5 1.22 4.63.75 5.55.5.9-.26 1.47-1 1.33-1.77-.15-.86-.9-1.58-1.92-1.86z"/>
            <path fill="#EAF3FB" fill-rule="nonzero" d="M121.88 181.05s-.43-.23-1.27.28c-.82.5-1.84 1.2-1.55 2.07.3.9 2.66.58 3.18.38.52-.2.83-.75.76-1.32-.1-.66-.53-1.2-1.12-1.4z"/>
            <path fill="#FFF" fill-rule="nonzero" stroke="#52267D" d="M54.45 179.2c.27-.2.67-.25 1-.15 1.16.4 4.08 1.53 3.47 3.06-.48 1.2-1.46.85-3.36.86h-1.44c-.3 0-.6-.1-.73-.3-.78-1.17-.38-2.57.95-3.42l.1-.04z"/>
            <path fill="#EAF3FB" fill-rule="nonzero" d="M54 181.14c.16-.14.43-.18.65-.1.76.3 2.7 1.15 2.3 2.3-.3.9-.98.62-2.24.63h-.95c-.2 0-.4-.08-.5-.22-.5-.87-.24-1.92.65-2.56l.1-.06z"/>
            <path fill="#FFF" fill-rule="nonzero" stroke="#52267D" d="M48.03 179.7c-1.3-.98-3.16-.92-4.4.14-2.4 1.6-4.35 4.18-3.37 4.53 1.48.52 3.07.72 4.65.6 1.67-.16 3.1.25 4.02-2.93.25-.88-.1-1.82-.9-2.35z"/>
            <path fill="#EAF3FB" fill-rule="nonzero" d="M49.37 179.4c-.85-.53-2.1-.53-2.93 0-1.6.8-2.93 2.1-2.26 2.28 1 .26 2.06.37 3.12.3 1.1-.07 2.1.14 2.68-1.5.1-.42-.14-.84-.6-1.1z"/>
        </g>
        <g stroke-width="2">
            <path stroke="#4992C7" d="M947 522.67L655.7 668.94l-16.16-32.18 291.3-146.26z"/>
            <path stroke="#9ACDED" d="M647.46 633.78l7.3 14.54M654.58 630.2l4.97 9.9M660.66 627.16l4.97 9.9M666.75 624.1l4.97 9.9M672.83 621.05l4.97 9.9M679.63 617.63l7.3 14.54M686.75 614.06l4.97 9.9M692.83 611l4.98 9.9M698.92 607.95l4.97 9.9M705 604.9l4.97 9.9M711.8 601.47l7.3 14.54M718.92 597.9l4.97 9.9M725 594.85l4.98 9.9M731.1 591.8l4.96 9.9M737.17 588.74l4.97 9.9M743.98 585.32l7.3 14.54M751.1 581.75l4.97 9.9M757.18 578.7l4.97 9.9M763.26 575.64l4.97 9.9M769.35 572.58l4.97 9.9M776.15 569.17l7.3 14.54M783.27 565.6l4.97 9.9M789.35 562.54l4.97 9.9M795.43 559.48l4.98 9.9M801.52 556.43l4.97 9.9M808.32 553l7.3 14.55M815.44 549.44l4.97 9.9M821.52 546.4l4.97 9.88M827.6 543.33l4.98 9.9M833.7 540.28l4.96 9.9M840.5 536.86l7.3 14.54M847.6 533.3l4.98 9.9M853.7 530.23l4.97 9.9M859.78 527.18l4.97 9.9M865.86 524.12l4.97 9.9M872.67 520.7l7.3 14.54M879.78 517.13l4.97 9.9M885.87 514.08l4.97 9.9M891.95 511.02l4.97 9.9M898.04 507.97l4.97 9.9M904.84 504.55l7.3 14.54M911.96 500.98l4.97 9.9M918.04 497.92l4.97 9.9M924.12 494.87l4.97 9.9"/>
            <path stroke="#4992C7" d="M936.75 516.2c.77 1.53.15 3.4-1.4 4.17-1.52.78-3.4.16-4.17-1.38-.77-1.55-.15-3.42 1.4-4.2 1.53-.77 3.4-.15 4.17 1.4z"/>
        </g>
        <g fill="#9ACDED">
            <path d="M611 675.86l15-8.86v2.9l-12.03 7.04 12.03 7.22V687l-15-8.78M586 675.86l15-8.86v2.9l-12.03 7.04 12.03 7.22V687l-15-8.78M562 675.86l15-8.86v2.9l-12.03 7.04 12.03 7.22V687l-15-8.78M538 675.86l15-8.86v2.9l-12.03 7.04 12.03 7.22V687l-15-8.78M513 675.86l15-8.86v2.9l-12.03 7.04 12.03 7.22V687l-15-8.78"/>
        </g>
        <path fill="#FFF" d="M761.46 700H299.54c-5.82 0-10.54-4.72-10.54-10.54V392.54c0-5.82 4.72-10.54 10.54-10.54h461.92c5.82 0 10.54 4.72 10.54 10.54v296.92c0 5.82-4.72 10.54-10.54 10.54"/>
        <path stroke="#375D81" stroke-width="3" d="M761.46 700H299.54c-5.82 0-10.54-4.72-10.54-10.54V392.54c0-5.82 4.72-10.54 10.54-10.54h461.92c5.82 0 10.54 4.72 10.54 10.54v296.92c0 5.82-4.72 10.54-10.54 10.54z"/>
        <path fill="#FFF" d="M320 651h423V412H320"/>
        <path stroke="#375D81" stroke-width="2" d="M737 676.5c0 3.04-2.46 5.5-5.5 5.5s-5.5-2.46-5.5-5.5 2.46-5.5 5.5-5.5 5.5 2.46 5.5 5.5z"/>
        <path fill="#FFF" stroke="#375D81" stroke-width="3" d="M605 764H461l15.57-63h112.86z"/>
        <path fill="#FFF" stroke="#375D81" stroke-width="3" d="M615.34 774H446.67c-1.48 0-2.67-1.25-2.67-2.8v-5.4c0-1.55 1.2-2.8 2.67-2.8h168.67c1.47 0 2.66 1.25 2.66 2.8v5.4c0 1.55-1.2 2.8-2.66 2.8z"/>
        <path fill="#F1F4F9" d="M343 413h75v237h-75z"/>
        <path fill="#D9DDE2" d="M337 454.5c0 3.04-2.46 5.5-5.5 5.5s-5.5-2.46-5.5-5.5 2.46-5.5 5.5-5.5 5.5 2.46 5.5 5.5zM337 483.5c0 3.04-2.46 5.5-5.5 5.5s-5.5-2.46-5.5-5.5 2.46-5.5 5.5-5.5 5.5 2.46 5.5 5.5zM337 512.5c0 3.04-2.46 5.5-5.5 5.5s-5.5-2.46-5.5-5.5 2.46-5.5 5.5-5.5 5.5 2.46 5.5 5.5zM337 541.5c0 3.04-2.46 5.5-5.5 5.5s-5.5-2.46-5.5-5.5 2.46-5.5 5.5-5.5 5.5 2.46 5.5 5.5z"/>
        <path stroke="#9ACDED" stroke-width="2" d="M319.7 650.68h422.6V411.93H319.7z"/>
        <path stroke="#F1F4F9" stroke-width="2" d="M459.44 465h248.12M459.44 485h248.12M459.44 505h248.12M459.44 526h248.12" stroke-linecap="square"/>
        <path d="M608.97 580.85c-.23-1.72-1.7-3.05-3.5-3.05-1.77 0-3.24 1.33-3.47 3.05h-.04v-.78c0-1.94-1.5-3.6-3.45-3.63-1.96-.04-3.57 1.55-3.57 3.5v-.98c0-1.93-1.52-3.6-3.45-3.63-1.98-.03-3.6 1.55-3.6 3.5v-13.2c0-1.94-1.5-3.6-3.44-3.63-1.97-.04-3.58 1.55-3.58 3.5V591.64l-5.97-5.95c-1.53-1.52-4-1.66-5.6-.2-1.7 1.53-1.74 4.15-.13 5.75L579.85 602c.65.64 1.52 1 2.43 1h23.3c1.9 0 3.42-1.53 3.42-3.4v-.98l-.03-17.77z"/>
        <path stroke="#9452BA" stroke-width="2" d="M608.97 580.85c-.23-1.72-1.7-3.05-3.5-3.05-1.77 0-3.24 1.33-3.47 3.05h-.04v-.78c0-1.94-1.5-3.6-3.45-3.63-1.96-.04-3.57 1.55-3.57 3.5v-.98c0-1.93-1.52-3.6-3.45-3.63-1.98-.03-3.6 1.55-3.6 3.5v-13.2c0-1.94-1.5-3.6-3.44-3.63-1.97-.04-3.58 1.55-3.58 3.5V591.64l-5.97-5.95c-1.53-1.52-4-1.66-5.6-.2-1.7 1.53-1.74 4.15-.13 5.75L579.85 602c.65.64 1.52 1 2.43 1h23.3c1.9 0 3.42-1.53 3.42-3.4v-.98l-.03-17.77z"/>
        <path fill="#9452BA" d="M541.74 689.53c.26.23.43.4.5.47-6.48-3.48-10.9-.83-15.9-1.46l-.24-.05-.33-.08c-1.32-.32-2.56-1.43-3.67-3v-.03l-.3-.4-.47-.8-.05-.08c-.04-.08-.1-.15-.13-.23-.04-.1-.1-.16-.13-.24l-.12-.24c-.05-.08-.1-.16-.13-.24l-.1-.17c-1.1-2.2-2-4.88-2.66-7.54 0 0 0-.03 0 0 2.44 1.32 4.97 2.4 7.1 3 2.58.72 5.8 1.02 8.9.87.95-2.92 1.5-6.08 1.47-8.74-.02-2.23-.4-4.9-1.06-7.6l.6.33.2.1c.13.1.28.16.42.25.06.04.13.08.2.1l.4.27.2.1.5.33c.03 0 .05.02.06.04.2.12.4.25.6.4.02 0 .03 0 .05.02l.53.35.1.07c.17.1.32.22.48.33l.1.07.53.4c.57.43 1.1.86 1.6 1.3.02 0 .02 0 .03.02.84.73 1.6 1.48 2.2 2.23.1.1.18.23.26.33v.02c.1.1.16.2.23.3l.22.33c0 .02 0 .04.02.05.1.14.18.28.26.42 0 .02.03.04.04.06v.03c.1.16.18.3.25.47.05.1.1.2.14.32l.05.14.06.2.05.14.06.18c0 .05.03.1.04.15 0 .06.02.12.04.2 0 .03 0 .08.02.13 0 .06 0 .13.02.2v.12c.02.08.02.15.02.22v.1c0 .1 0 .22-.02.32v.2c-.7 4.96-4.4 8.55-2.75 15.64M335.43 431.77l.24.23c-3.12-1.68-5.24-.4-7.65-.7l-.12-.03-.16-.03c-.64-.16-1.23-.7-1.76-1.45v-.02c-.06-.06-.1-.13-.14-.2-.08-.1-.16-.24-.24-.37 0 0 0-.02-.02-.03l-.06-.1-.07-.12-.06-.12-.07-.1c0-.04-.02-.07-.04-.1-.55-1.07-.98-2.35-1.3-3.63 1.18.63 2.4 1.15 3.42 1.44 1.24.35 2.8.5 4.3.42.44-1.4.7-2.93.7-4.2-.02-1.07-.2-2.37-.52-3.66l.3.16.08.05c.07.05.13.1.2.13.03 0 .07.03.1.05l.2.12.08.05.26.16c0 .02 0 .02.02.03.1.06.2.12.3.2l.27.17.06.04.23.16.03.03.26.2c.26.2.52.4.76.62.42.37.78.73 1.07 1.1.05.05.1.1.13.15.04.06.08.1.1.15.05.06.1.1.12.16v.03l.14.2v.03c.02 0 .02 0 .02.02l.12.22.07.16c0 .02 0 .04.02.06 0 .04.02.07.04.1v.07c.02.02.02.05.03.08 0 .03 0 .05.02.07 0 .03 0 .06.02.1v.06l.02.1v.37l-.02.1c-.32 2.4-2.1 4.1-1.3 7.53"/>
        <g stroke="#9ACDED" stroke-width="2">
            <path d="M1199 774h-64V299h64z"/>
            <path d="M1150 316h32l-14.37 19zM1187 326v29l-15-13.03zM1183 368h-32l14.37-19zM1146 357v-29l15 13.03zM1150 377h32l-14.37 19zM1187 387v29l-15-13.03zM1183 428h-32l14.37-19zM1146 418v-29l15 13.03zM1150 437h32l-14.37 19zM1187 448v29l-15-13.03zM1183 489h-32l14.37-19zM1146 478v-29l15 13.02zM1150 498h32l-14.37 19zM1187 509v29l-15-13.03zM1183 550h-32l14.37-19zM1146 539v-29l15 13.03zM1150 559h32l-14.37 19zM1187 569v29l-15-13.03zM1183 611h-32l14.37-19zM1146 600v-29l15 13.02zM1150 620h32l-14.37 19zM1187 630v29l-15-13.03zM1183 671h-32l14.37-19zM1146 661v-29l15 13.03zM1150 680h32l-14.37 19zM1187 691v29l-15-13.03zM1183 732h-32l14.37-19zM1146 721v-29l15 13.03zM1082.06 760.88L1135 709.5V693l-73.07 75.4c-2.12 2.2-.4 5.6 2.84 5.6H1135v-8.4l-50.36.5c-3.04.04-4.65-3.2-2.58-5.22zM1251.94 760.88L1199 709.5V693l73.07 75.4c2.12 2.2.4 5.6-2.84 5.6H1199v-8.4l50.36.5c3.04.04 4.65-3.2 2.58-5.22zM1164.9 127L1138 235h56zM1096.6 249H799.4c-8.5 0-15.4-6.27-15.4-14h328c0 7.73-6.9 14-15.4 14zM1191 222h175.22l25.78 19h-176.55zM1394.5 258h-75c-4.14 0-7.5-3.04-7.5-6.8v-.4c0-3.76 3.36-6.8 7.5-6.8h75c4.14 0 7.5 3.04 7.5 6.8v.4c0 3.76-3.36 6.8-7.5 6.8zM1384.52 272h-72.04c-4.13 0-7.48-3.04-7.48-6.8v-.4c0-3.76 3.35-6.8 7.48-6.8h72.04c4.13 0 7.48 3.04 7.48 6.8v.4c0 3.76-3.35 6.8-7.48 6.8z"/>
            <path d="M1166 127l165 95h-18.67c-1.1 0-146.33-88.75-146.33-88.75V127zM949 203l217-76v6.2L968.85 203zM784 234l36.35-31h279.8l30.85 31z"/>
            <path d="M820.04 216L808 231h29zM875.04 216L863 231h29zM930.04 216L918 231h29zM985.04 216L973 231h29zM1040.04 216L1028 231h29zM1095.04 216L1083 231h29zM822 210l21.82 17L872 210zM877 210l21.82 17L927 210zM932 210l21.82 17L982 210zM987 210l21.82 17 28.18-17zM1042 210l21.82 17 28.18-17zM1191 222l42.5 19 23.22-19 25.4 19 26.42-19 24.06 19 17.04-19 38.36 19M1197.83 300h-66.16c-7.12 0-13.08-4.92-13.8-11.38l-4.82-43.68c-.6-5.32 4-9.94 9.85-9.94h81.03c7.1 0 12.68 5.58 12.02 12.04l-4.3 41.5c-.68 6.5-6.66 11.46-13.82 11.46zM1000 329l-101 17M1028 263h-41v-14h41zM996 262v26M1018 262v27M1014 314.5c0 3.6-3.13 6.5-7 6.5s-7-2.9-7-6.5 3.13-6.5 7-6.5 7 2.9 7 6.5z"/>
            <path d="M1012.68 308h-11.36c-5.7 0-10.32-4.15-10.32-9.28v-6.6c0-2.28 2.05-4.12 4.58-4.12h22.84c2.53 0 4.58 1.84 4.58 4.12v6.6c0 5.13-4.62 9.28-10.32 9.28zM1006.4 320.27l1.64 2c.98 1.2.84 2.86-.33 3.9-1.3 1.2-3.43 1.2-4.74 0l-1.92-1.7-3.04.1 3.26 2.93c2.23 2 5.84 2 8.07 0 2-1.78 2.23-4.6.57-6.63l-.72-.87-2.78.27z"/>
            <path d="M1101 373l-93.46-44.23c-.7-2.4-3.43-3.25-5.54-2.5M1156 281h33.47c4.16 0 7.53-2.97 7.53-6.64V251h-32.9c-4.48 0-8.1 3.2-8.1 7.13V281z"/>
        </g>
        <g>
            <path fill="#FFF" stroke="#375D81" stroke-width="3" d="M897 711.82v-20.64l-15.85-1.24c-1.5-7.38-4.4-14.25-8.43-20.32l10.34-12.1-14.6-14.58-12.08 10.34c-6.07-4.02-12.94-6.93-20.32-8.43L834.82 629h-20.64l-1.24 15.85c-7.38 1.5-14.25 4.4-20.32 8.43l-12.1-10.34-14.58 14.6 10.34 12.08c-4.02 6.07-6.93 12.94-8.43 20.32L752 691.18v20.64l15.85 1.24c1.5 7.38 4.4 14.25 8.43 20.32l-10.34 12.1 14.6 14.58 12.08-10.34c6.07 4.02 12.94 6.93 20.32 8.43l1.24 15.85h20.64l1.24-15.85c7.38-1.5 14.25-4.4 20.32-8.43l12.1 10.34 14.58-14.6-10.34-12.08c4.02-6.07 6.93-12.94 8.43-20.32l15.85-1.24z"/>
            <path fill="#F1F4F9" d="M844 704c0 13.25-10.75 24-24 24s-24-10.75-24-24c0-13.26 10.75-24 24-24s24 10.74 24 24z"/>
            <path fill="#E1F2FF" stroke="#375D81" stroke-width="3" d="M849 702c0 13.25-10.75 24-24 24s-24-10.75-24-24c0-13.26 10.75-24 24-24s24 10.74 24 24z"/>
            <path stroke="#9ACDED" stroke-width="3" d="M792 690.27c5-13.58 18.08-23.27 33.4-23.27 19.66 0 35.6 15.93 35.6 35.58 0 11.03-5.02 20.9-12.9 27.42"/>
            <path stroke="#9ACDED" stroke-width="3" d="M872 717.97c-6.68 18.1-24.1 31.03-44.54 31.03-26.2 0-47.46-21.24-47.46-47.44 0-14.7 6.7-27.86 17.2-36.56"/>
            <path fill="#FFF" d="M792 658.12v-11.24l-8.64-.68c-.8-4.02-2.4-7.76-4.6-11.07l5.65-6.6-7.94-7.94-6.6 5.63c-3.3-2.2-7.04-3.78-11.06-4.6l-.68-8.63h-11.24l-.68 8.64c-4.02.8-7.76 2.4-11.07 4.6l-6.6-5.65-7.94 7.94 5.63 6.6c-2.2 3.3-3.78 7.04-4.6 11.06l-8.63.68v11.24l8.64.68c.8 4.02 2.4 7.76 4.6 11.07l-5.65 6.6 7.94 7.94 6.6-5.63c3.3 2.2 7.04 3.78 11.06 4.6l.68 8.63h11.24l.68-8.64c4.02-.8 7.76-2.4 11.07-4.6l6.6 5.65 7.94-7.94-5.63-6.6c2.2-3.3 3.78-7.04 4.6-11.06l8.63-.68zM327 742.12v-11.24l-8.64-.68c-.8-4.02-2.4-7.76-4.6-11.07l5.65-6.6-7.94-7.94-6.6 5.63c-3.3-2.2-7.04-3.78-11.06-4.6l-.68-8.63h-11.24l-.68 8.64c-4.02.8-7.76 2.4-11.07 4.6l-6.6-5.65-7.94 7.94 5.63 6.6c-2.2 3.3-3.78 7.04-4.6 11.06l-8.63.68v11.24l8.64.68c.8 4.02 2.4 7.76 4.6 11.07l-5.65 6.6 7.94 7.94 6.6-5.63c3.3 2.2 7.04 3.78 11.06 4.6l.68 8.63h11.24l.68-8.64c4.02-.8 7.76-2.4 11.07-4.6l6.6 5.65 7.94-7.94-5.63-6.6c2.2-3.3 3.78-7.04 4.6-11.06l8.63-.68z"/>
            <path stroke="#9ACDED" stroke-width="3" d="M734 646.56c2.76-7.33 9.96-12.56 18.4-12.56 10.82 0 19.6 8.6 19.6 19.2 0 5.96-2.77 11.28-7.1 14.8"/>
            <path stroke="#375D81" stroke-width="3" d="M792 658.12v-11.24l-8.64-.68c-.8-4.02-2.4-7.76-4.6-11.07l5.65-6.6-7.94-7.94-6.6 5.63c-3.3-2.2-7.04-3.78-11.06-4.6l-.68-8.63h-11.24l-.68 8.64c-4.02.8-7.76 2.4-11.07 4.6l-6.6-5.65-7.94 7.94 5.63 6.6c-2.2 3.3-3.78 7.04-4.6 11.06l-8.63.68v11.24l8.64.68c.8 4.02 2.4 7.76 4.6 11.07l-5.65 6.6 7.94 7.94 6.6-5.63c3.3 2.2 7.04 3.78 11.06 4.6l.68 8.63h11.24l.68-8.64c4.02-.8 7.76-2.4 11.07-4.6l6.6 5.65 7.94-7.94-5.63-6.6c2.2-3.3 3.78-7.04 4.6-11.06l8.63-.68z"/>
            <path fill="#F1F4F9" d="M762 657c0 7.18-5.82 13-13 13s-13-5.82-13-13 5.82-13 13-13 13 5.82 13 13z"/>
            <path fill="#FFF" stroke="#375D81" stroke-width="3" d="M765 653c0 7.18-5.82 13-13 13s-13-5.82-13-13 5.82-13 13-13 13 5.82 13 13z"/>
            <path stroke="#375D81" stroke-width="3" d="M327 741.12v-11.24l-8.64-.68c-.8-4.02-2.4-7.76-4.6-11.07l5.65-6.6-7.94-7.94-6.6 5.63c-3.3-2.2-7.04-3.78-11.06-4.6l-.68-8.63h-11.24l-.68 8.64c-4.02.8-7.76 2.4-11.07 4.6l-6.6-5.65-7.94 7.94 5.63 6.6c-2.2 3.3-3.78 7.04-4.6 11.06l-8.63.68v11.24l8.64.68c.8 4.02 2.4 7.76 4.6 11.07l-5.65 6.6 7.94 7.94 6.6-5.63c3.3 2.2 7.04 3.78 11.06 4.6l.68 8.63h11.24l.68-8.64c4.02-.8 7.76-2.4 11.07-4.6l6.6 5.65 7.94-7.94-5.63-6.6c2.2-3.3 3.78-7.04 4.6-11.06l8.63-.68z"/>
            <path fill="#F1F4F9" d="M297 741c0 7.18-5.82 13-13 13s-13-5.82-13-13 5.82-13 13-13 13 5.82 13 13z"/>
            <path fill="#FFF" stroke="#375D81" stroke-width="3" d="M300 736c0 7.18-5.82 13-13 13s-13-5.82-13-13 5.82-13 13-13 13 5.82 13 13z"/>
            <path stroke="#9ACDED" stroke-width="3" d="M269 729.56c2.76-7.33 9.96-12.56 18.4-12.56 10.82 0 19.6 8.6 19.6 19.2 0 5.96-2.77 11.28-7.1 14.8"/>
        </g>
        <g>
            <path fill="#FFF" d="M280.5 356h-84c-2.5 0-4.5 2.02-4.5 4.52v46.6c0 2.48 2 4.5 4.5 4.5h64.84l13.3 13.38v-13.37h5.86c2.5 0 4.5-2.03 4.5-4.52v-46.58c0-2.5-2-4.52-4.5-4.52"/>
            <path stroke="#4992C7" stroke-width="2" d="M280.5 356h-84c-2.5 0-4.5 2.02-4.5 4.52v46.6c0 2.48 2 4.5 4.5 4.5h64.84l13.3 13.38v-13.37h5.86c2.5 0 4.5-2.03 4.5-4.52v-46.58c0-2.5-2-4.52-4.5-4.52zM210 372h3"/>
            <path stroke="#4992C7" stroke-width="2" d="M219 372h43" stroke-dasharray="5.71 5.71"/>
            <path stroke="#4992C7" stroke-width="2" d="M265 372h3M210 378h2"/>
            <path stroke="#4992C7" stroke-width="2" d="M215 378h49" stroke-dasharray="4.11 3.08"/>
            <path stroke="#4992C7" stroke-width="2" d="M266 378h2M210 384h6"/>
            <path stroke="#4992C7" stroke-width="2" d="M219 384h41" stroke-dasharray="11.34 2.84"/>
            <path stroke="#4992C7" stroke-width="2" d="M262 384h6M210 390h3"/>
            <path stroke="#4992C7" stroke-width="2" d="M219 390h43" stroke-dasharray="5.71 5.71"/>
            <path stroke="#4992C7" stroke-width="2" d="M265 390h3"/>
            <path stroke="#4992C7" stroke-width="2" d="M210 395h57" stroke-dasharray="12 5"/>
            <g>
                <path fill="#FFF" d="M312.8 495h-59.6c-1.77 0-3.2-1.44-3.2-3.2v-33.1c0-1.77 1.43-3.2 3.2-3.2h46l9.45-9.5v9.5h4.16c1.77 0 3.2 1.43 3.2 3.2v33.1c0 1.76-1.43 3.2-3.2 3.2"/>
                <path stroke="#4992C7" stroke-width="2" d="M312.8 495h-59.6c-1.77 0-3.2-1.44-3.2-3.2v-33.1c0-1.77 1.43-3.2 3.2-3.2h46l9.45-9.5v9.5h4.16c1.77 0 3.2 1.43 3.2 3.2v33.1c0 1.76-1.43 3.2-3.2 3.2zM262 483h3"/>
                <path stroke="#4992C7" stroke-width="2" d="M272 483h24" stroke-dasharray="6.9 6.9"/>
                <path stroke="#4992C7" stroke-width="2" d="M300 483h3M262 479h2"/>
                <path stroke="#4992C7" stroke-width="2" d="M267 479h32" stroke-dasharray="3.84 2.88"/>
                <path stroke="#4992C7" stroke-width="2" d="M301 479h2M262 475h6"/>
                <path stroke="#4992C7" stroke-width="2" d="M271 475h25" stroke-dasharray="10.37 2.59"/>
                <path stroke="#4992C7" stroke-width="2" d="M297 475h6M262 471h3"/>
                <path stroke="#4992C7" stroke-width="2" d="M272 471h24" stroke-dasharray="6.9 6.9"/>
                <path stroke="#4992C7" stroke-width="2" d="M300 471h3"/>
                <path stroke="#4992C7" stroke-width="2" d="M262 467h41" stroke-dasharray="12 5"/>
            </g>
        </g>
        <g fill="#FFF" fill-rule="nonzero" stroke="#375D81" stroke-width="2" stroke-linecap="round">
            <path d="M265 575v10.12M270.08 580H260"/>
        </g>
        <g fill="#FFF" fill-rule="nonzero" stroke="#375D81" stroke-width="2" stroke-linecap="round">
            <path d="M626 188v10.12M631.08 193H621"/>
        </g>
        <g fill="#FFF" fill-rule="nonzero" stroke="#375D81" stroke-width="2" stroke-linecap="round">
            <path d="M1234 458v10.12M1239.08 463H1229"/>
        </g>
        <g fill="#FFF" fill-rule="nonzero" stroke="#375D81" stroke-width="2" stroke-linecap="round">
            <path d="M254 315v10.12M259.08 320H249"/>
        </g>
        <g fill="#FFF" fill-rule="nonzero" stroke="#375D81" stroke-width="2" stroke-linecap="round">
            <path d="M1074 175v10.12M1079.08 180H1069"/>
        </g>
        <g fill="#FFF" fill-rule="nonzero" stroke="#375D81" stroke-width="2" stroke-linecap="round">
            <path d="M1296 346v10.12M1301.08 351H1291"/>
        </g>
        <g fill="#FFF" fill-rule="nonzero" stroke="#375D81" stroke-width="2" stroke-linecap="round">
            <path d="M1225.5 566.6v6.76M1229 570h-7"/>
        </g>
        <g fill="#FFF" fill-rule="nonzero" stroke="#375D81" stroke-width="2" stroke-linecap="round">
            <path d="M555.5 350.6v6.76M559 354h-7"/>
        </g>
        <g fill="#FFF" fill-rule="nonzero" stroke="#375D81" stroke-width="2" stroke-linecap="round">
            <path d="M131 421v10.12M136.08 426H126"/>
        </g>
        <g stroke="#9ACDED" stroke-width="5" stroke-linecap="round">
            <path fill="#FFF" fill-rule="nonzero" d="M286 817h75"/>
            <path d="M1271.5 778h-23M462.5 778h765M206 779h234.5"/>
            <path fill="#FFF" fill-rule="nonzero" d="M508 817h187M717 817h38M493 817h-15M249 817h12M916 817h46"/>
        </g>
        <g fill="#FFF" fill-rule="nonzero" stroke="#375D81" stroke-width="2" stroke-linecap="round">
            <path d="M778 274v10.12M783.08 279H773"/>
        </g>
        <g transform="translate(924 632)">
            <rect width="215" height="61.58" fill="#FFF" fill-rule="nonzero" rx="3"/>
            <rect width="214" height="61" x=".5" y=".5" stroke="#375D81" stroke-width="3" rx="3"/>
            <ellipse cx="31.5" cy="28.5" fill="#D9DDE2" fill-rule="nonzero" rx="10.5" ry="9.5"/>
            <rect width="58" height="8" x="54" y="27" fill="#EFEFF6" fill-rule="nonzero" rx="1"/>
            <path fill="#FFF" fill-rule="nonzero" d="M132.4 42h57.92c6.87 0 12.4 5.16 12.4 11.55v3.85H120v-3.85c0-6.4 5.54-11.55 12.4-11.55z"/>
            <path stroke="#4A6286" stroke-width="3" d="M120.5 62.5V59c0-6.36 5.34-11.5 11.9-11.5h58.2c6.56 0 11.9 5.14 11.9 11.5v3.5h-82z"/>
            <path fill="#EFEFF6" fill-rule="nonzero" d="M124 54h74v8h-74"/>
            <g transform="translate(12 62)">
                <use fill="#D9DDE2" xlink:href="#a"/>
                <path stroke="#375D81" stroke-width="3" d="M-1.43-.58h197.68V8.5H-1.43V-.58z"/>
            </g>
            <path fill="#A1A9B7" fill-rule="nonzero" d="M14 63h190v4H14"/>
        </g>
        <g transform="translate(924 560)">
            <rect width="215" height="61.58" fill="#FFF" fill-rule="nonzero" rx="3"/>
            <rect width="214" height="61" x=".5" y=".5" stroke="#375D81" stroke-width="3" rx="3"/>
            <ellipse cx="31.5" cy="28.5" fill="#D9DDE2" fill-rule="nonzero" rx="10.5" ry="9.5"/>
            <rect width="58" height="8" x="54" y="27" fill="#EFEFF6" fill-rule="nonzero" rx="1"/>
            <path fill="#FFF" fill-rule="nonzero" d="M132.4 42h57.92c6.87 0 12.4 5.16 12.4 11.55v3.85H120v-3.85c0-6.4 5.54-11.55 12.4-11.55z"/>
            <path stroke="#4A6286" stroke-width="3" d="M120.5 62.5V59c0-6.36 5.34-11.5 11.9-11.5h58.2c6.56 0 11.9 5.14 11.9 11.5v3.5h-82z"/>
            <path fill="#EFEFF6" fill-rule="nonzero" d="M124 54h74v8h-74"/>
            <g transform="translate(12 62)">
                <use fill="#D9DDE2" xlink:href="#b"/>
                <path stroke="#375D81" stroke-width="3" d="M-1.43-.58h197.68V8.5H-1.43V-.58z"/>
            </g>
            <path fill="#A1A9B7" fill-rule="nonzero" d="M14 63h190v4H14"/>
        </g>
        <g transform="translate(924 704)">
            <rect width="215" height="61.58" fill="#FFF" fill-rule="nonzero" rx="3"/>
            <rect width="214" height="61" x=".5" y=".5" stroke="#375D81" stroke-width="3" rx="3"/>
            <ellipse cx="31.5" cy="28.5" fill="#D9DDE2" fill-rule="nonzero" rx="10.5" ry="9.5"/>
            <rect width="58" height="8" x="54" y="27" fill="#EFEFF6" fill-rule="nonzero" rx="1"/>
            <path fill="#FFF" fill-rule="nonzero" d="M132.4 42h57.92c6.87 0 12.4 5.16 12.4 11.55v3.85H120v-3.85c0-6.4 5.54-11.55 12.4-11.55z"/>
            <path stroke="#4A6286" stroke-width="3" d="M120.5 62.5V59c0-6.36 5.34-11.5 11.9-11.5h58.2c6.56 0 11.9 5.14 11.9 11.5v3.5h-82z"/>
            <path fill="#EFEFF6" fill-rule="nonzero" d="M124 54h74v8h-74"/>
            <g transform="translate(12 62)">
                <use fill="#D9DDE2" xlink:href="#c"/>
                <path stroke="#375D81" stroke-width="3" d="M-1.43-.58h197.68V8.5H-1.43V-.58z"/>
            </g>
            <path fill="#A1A9B7" fill-rule="nonzero" d="M14 63h190v4H14"/>
        </g>
        <g transform="rotate(5 -3442.45 10003.51)">
            <rect width="269.29" height="82.86" fill="#FFF" fill-rule="nonzero" rx="3"/>
            <rect width="267.11" height="80.68" x="1.09" y="1.09" stroke="#375D81" stroke-width="3" rx="3"/>
            <circle cx="38.84" cy="38.84" r="12.95" fill="#67B373" fill-rule="nonzero"/>
            <rect width="72.5" height="10.36" x="67.32" y="36.25" fill="#EFEFF6" fill-rule="nonzero" rx="1"/>
            <path fill="#FFF" fill-rule="nonzero" d="M165.72 56.96h72.5c8.6 0 15.53 6.94 15.53 15.54v5.18H150.18V72.5c0-8.6 6.94-15.54 15.54-15.54z"/>
            <path stroke="#4A6286" stroke-width="3" d="M151.32 81.64v-4.1c0-7.96 6.47-14.43 14.44-14.43h72.5c7.98 0 14.45 6.48 14.45 14.45v4.1H151.33z"/>
            <path fill="#EFEFF6" fill-rule="nonzero" d="M155.36 72.5h93.2v5.18h-93.2M15.97 80.13H254.2v20.7H15.96"/>
            <path stroke="#375D81" stroke-width="3" d="M17.06 81.22H253.1v18.54H17.06V81.22z"/>
            <path fill="#A1A9B7" fill-rule="nonzero" d="M20.7 82.86h227.87v5.18H20.7"/>
        </g>
    </g>
</svg>