<svg width="90" height="75" xmlns="http://www.w3.org/2000/svg">
  <g fill="none" fill-rule="evenodd">
    <path d="M42.187 60c8.819 0 19.76-1.562 25.105-8.123C71.705 46.46 77 30.297 77 22.579 77 5.511 59.286 3.97 43.403 1.522 34.277.116 22.016-2.127 16.67 4.57c-4.299 5.385-3.632 16.917-3.632 24.524C13.037 46.163 26.088 60 42.187 60z" fill="#5563B6"/>
    <path d="M36.705 37c1.716-.02 4.42-.35 6.311-.801.547-.131.98-.908.984-1.433.006-.99-.587-1.32-1.094-1.381-1.363-.164-6.107.425-6.107.425l.064-2.64s3.009-.168 4.305-.43c1.593-.323 1.365-2.839-.827-2.822-1.042.008-3.42.134-3.42.134L37 26.138s4.409.2 5.568-.13c1.032-.294 1.767-.948 1.245-2.016-.461-.944-1.487-.925-2.46-.895-1.148.034-4.03-.24-5.837.008-.603.083-1.316.853-1.34 1.75-.063 2.356-.16 6.84-.175 7.925.11 2.597.015 4.252 2.705 4.22zm11 0c1.716-.02 4.42-.35 6.311-.801.547-.131.98-.908.984-1.433.006-.99-.587-1.32-1.094-1.381-1.363-.164-6.107.425-6.107.425l.064-2.64s3.009-.168 4.305-.43c1.593-.323 1.365-2.839-.827-2.822-1.042.008-3.42.134-3.42.134L48 26.138s4.409.2 5.568-.13c1.032-.294 1.767-.948 1.245-2.016-.461-.944-1.487-.925-2.46-.895-1.148.034-4.03-.24-5.837.008-.603.083-1.316.853-1.34 1.75-.063 2.356-.16 6.84-.175 7.925.11 2.597.015 4.252 2.705 4.22z" fill="#FFF" fill-rule="nonzero"/>
  </g>
</svg>
