<svg xmlns="http://www.w3.org/2000/svg" width="163.211" height="159.813" viewBox="0 0 163.211 159.813">
  <title>Akeneo_Icon_Onboarder</title>
  <g>
    <path d="M143.823,87.9A71.912,71.912,0,1,1,71.911,15.99,71.913,71.913,0,0,1,143.823,87.9" fill="#e0f2ff"/>
    <path d="M161.2,74.35A72.349,72.349,0,1,1,88.853,2,72.349,72.349,0,0,1,161.2,74.35" fill="#fff"/>
    <path d="M161.2,74.35A72.349,72.349,0,1,1,88.853,2,72.349,72.349,0,0,1,161.2,74.35Z" fill="none" stroke="#5e63b5" stroke-miterlimit="10" stroke-width="4"/>
    <path d="M111.884,110.646c.317.936.594,1.572.676,1.783.027.024-.025-.01,0,0h0s0,0,0,0c-2.115-20.451,9.48-28.973,13.209-42.556a4.436,4.436,0,0,1,.118-.67,9.18,9.18,0,0,0,.186-.931c.555-3.759-.985-8.134-3.9-12.689a.619.619,0,0,0-.047-.074c-.238-.379-.5-.758-.753-1.137,0,0-.01-.007-.01-.015-.48-.691-.992-1.389-1.527-2.089-.055-.072-.107-.149-.164-.218-.151-.191-.307-.382-.455-.572s-.31-.4-.466-.589-.316-.384-.477-.572-.33-.394-.5-.592c-.111-.134-.238-.272-.359-.414a103.03,103.03,0,0,0-16.772-15.03h0a100.646,100.646,0,0,1,.2,21.547,81.29,81.29,0,0,1-7.218,23.885,81.284,81.284,0,0,1-24.31-5.638A99.014,99.014,0,0,1,50.686,63.156c.069.639.146,1.273.22,1.909.022.191.052.379.077.57.059.455.114.908.183,1.364.027.208.057.418.091.626.067.458.134.912.208,1.365.03.18.06.366.09.552.094.574.19,1.144.3,1.713a.907.907,0,0,0,.027.168c.116.664.243,1.32.374,1.974a1.416,1.416,0,0,0,.032.151c.119.589.238,1.166.366,1.75.025.119.052.235.075.354.118.532.242,1.06.366,1.587.03.1.055.2.079.31.149.606.3,1.213.453,1.809a.01.01,0,0,1,0,.008q.765,2.882,1.674,5.553a.477.477,0,0,1,.02.065,53.917,53.917,0,0,0,3.488,8.1c.193.346.389.688.585,1.022.007.01.007.027.019.04h0c.176.3.359.6.537.889l.008.007a.353.353,0,0,1,.019.03c.2.312.4.619.6.908v0c.027.042.055.077.084.116a.015.015,0,0,0,0,.013c.262.378.534.745.8,1.1.052.057.094.114.139.169.012.02.032.039.047.067.31.391.629.77.958,1.124.226.252.458.487.691.72.1.1.2.188.3.282.146.139.292.268.441.4.109.1.223.181.339.275.139.119.285.231.428.342.114.087.226.166.344.245.149.107.295.208.444.307.113.069.232.144.349.213.156.094.319.181.473.27.111.059.222.116.331.171.184.086.364.166.552.245.085.032.181.082.275.114a7.677,7.677,0,0,0,.847.287c.191.057.354.116.508.176,13.654,3.607,26.949-2.107,43.622,9.812" fill="#4ca8e0"/>
  </g>
</svg>
