<?xml version="1.0" encoding="UTF-8"?>
<svg width="256px" height="256px" viewBox="0 0 256 256" version="1.1" xmlns="http://www.w3.org/2000/svg" xmlns:xlink="http://www.w3.org/1999/xlink">
    <!-- Generator: Sketch 46.2 (44496) - http://www.bohemiancoding.com/sketch -->
    <title>illustration-locale</title>
    <desc>Created with Sketch.</desc>
    <defs>
        <rect id="path-1" x="20" y="0" width="87" height="47"></rect>
    </defs>
    <g id="256x256" stroke="none" stroke-width="1" fill="none" fill-rule="evenodd">
        <g id="illustration-locale">
            <g id="Local" transform="translate(8.000000, 4.000000)">
                <path d="M20,190.19 C20,132.995391 66.3653913,86.63 123.56,86.63 C180.754609,86.63 227.12,132.995391 227.12,190.19 L20,190.19 Z" id="Shape" fill="#E1F2FF" fill-rule="nonzero"></path>
                <path d="M25.61,202 L47.94,202" id="Shape" stroke="#9ACDED" stroke-width="2" fill="#FFFFFF" fill-rule="nonzero" stroke-linecap="round"></path>
                <path d="M235.22,191.04 L240.22,191.04" id="Shape" stroke="#9ACDED" stroke-width="2" stroke-linecap="round"></path>
                <path d="M0,191.04 L5.33,191.04" id="Shape" stroke="#9ACDED" stroke-width="2" fill="#FFFFFF" fill-rule="nonzero" stroke-linecap="round"></path>
                <path d="M91.35,202 L147.07,202" id="Shape" stroke="#9ACDED" stroke-width="2" fill="#FFFFFF" fill-rule="nonzero" stroke-linecap="round"></path>
                <path d="M153.72,202 L165.05,202" id="Shape" stroke="#9ACDED" stroke-width="2" fill="#FFFFFF" fill-rule="nonzero" stroke-linecap="round"></path>
                <path d="M86.39,202 L82.05,202" id="Shape" stroke="#9ACDED" stroke-width="2" fill="#FFFFFF" fill-rule="nonzero" stroke-linecap="round"></path>
                <path d="M14.55,202 L18.22,202" id="Shape" stroke="#9ACDED" stroke-width="2" fill="#FFFFFF" fill-rule="nonzero" stroke-linecap="round"></path>
                <path d="M212.21,202 L225.88,202" id="Shape" stroke="#9ACDED" stroke-width="2" fill="#FFFFFF" fill-rule="nonzero" stroke-linecap="round"></path>
                <g id="Group-2" transform="translate(128.000000, 135.000000)">
                    <mask id="mask-2" fill="white">
                        <use xlink:href="#path-1"></use>
                    </mask>
                    <g id="Rectangle"></g>
                    <g id="Group" mask="url(#mask-2)">
                        <g transform="translate(0.000000, 10.000000)">
                            <path d="M51.58,103.48 L46.58,103.48 C44.8635785,103.484453 43.3197625,102.436722 42.69,100.84 C40.92,96.29 41.36,92.11 41.15,88.53 C40.76,81.9 41.79,78.53 42.78,72.97 L50.25,73.14 C50.25,73.14 49.61,75.89 49.19,84.14 C49.06,86.7 53.28,96.96 53.08,101.99 C53.0587639,102.807818 52.3979418,103.464235 51.58,103.48 Z" id="Shape" stroke="#52267D" stroke-width="2" fill="#9452BA" fill-rule="nonzero"></path>
                            <path d="M66.08,79.81 L72.08,72.99 L75.79,73.14 C75.79,73.14 76.31,78.81 76.52,81.14 C77.1901962,86.5434563 78.253007,91.8909321 79.7,97.14 C80.0243883,98.2000536 80.2257126,99.2939155 80.3,100.4 C80.3165125,101.200597 80.0057473,101.973291 79.4395191,102.539519 C78.8732908,103.105747 78.1005974,103.416512 77.3,103.4 L72.89,103.4 C70.3196989,103.412264 68.0662253,101.685149 67.41,99.2 C65.48,91.52 66.08,79.81 66.08,79.81 Z" id="Shape" stroke="#52267D" stroke-width="2" fill="#9452BA" fill-rule="nonzero"></path>
                            <polyline id="Shape" stroke="#52267D" stroke-width="0.5" fill="none" points="74.53 84.51 75.52 85.38 74.57 86.23 73.03 85.64 73.34 84.96 74.62 85.27 74.61 85.5 74.28 85.48"></polyline>
                            <path d="M74.5,54.42 C70.12,54.33 66.02,51.31 57.08,50.9 C56.9709228,50.3709561 56.8066922,49.8548027 56.59,49.36 C54.97,45.86 52.69,35.77 54.16,29.14 L55.32,23.89 C55.6996678,22.169206 55.8907947,20.4121802 55.89,18.65 L55.89,18.65 C55.8888803,17.9310802 55.8151731,17.2141106 55.67,16.51 C55.6366667,16.3366667 55.5966667,16.1666667 55.55,16 C55.4201022,15.4949986 55.2529784,15.000312 55.05,14.52 C54.9833333,14.36 54.9133333,14.2033333 54.84,14.05 C54.6933333,13.7433333 54.53,13.4433333 54.35,13.15 C54.17,12.8566667 53.98,12.5733333 53.78,12.3 C53.1670094,11.4804015 52.4395985,10.7529906 51.62,10.14 C51.3466667,9.93333333 51.0633333,9.74333333 50.77,9.57 C49.1065047,8.5591014 47.1965659,8.02625616 45.25,8.03 L43.51,8.03 C40.6879523,8.02750717 37.9814069,9.15043555 35.99,11.15 C35.75,11.39 35.52,11.6433333 35.3,11.91 C34.9061919,12.3885094 34.5548611,12.9004485 34.25,13.44 C34.13,13.64 34.02,13.85 33.92,14.06 C33.82,14.27 33.77,14.37 33.71,14.53 C33.2992074,15.5020305 33.0362919,16.5300972 32.93,17.58 C32.8949098,17.9422539 32.8782217,18.3060549 32.88,18.67 L32.88,18.67 C32.88,20.1335546 34.0664454,21.32 35.53,21.32 L46.42,21.32 L44.77,30.77 C42.84,40.48 43.42,46.97 44.92,51.3 C45.25,52.3 47.16,55.69 47.16,55.69 C41.71,64.28 33.36,68.04 24.43,69.13 C16.84,70.06 0.43,63.13 8.9,55.13 C17.37,47.13 7.14,52.13 5.64,53.13 C4.14,54.13 -4.55,61.65 4.88,72.67 C8.88,77.33 13.39,81.56 24.25,84.81 C25.99,85.33 35.5,86.02 40.63,87.49 C55.88,91.87 68.27,87.11 75.22,77.04 C82.17,66.97 76.23,54.46 74.5,54.42 Z" id="Shape" stroke="#52267D" stroke-width="2" fill="#9452BA" fill-rule="nonzero"></path>
                            <path d="M65,40 C64.65,28.74 73.59,19.89 83.74,18 C85.85,17.61 86.53,17 88.84,17 L90.61,17 C96.5636296,17 101.39,21.8263704 101.39,27.78 C101.39,29.265646 100.185646,30.47 98.7,30.47 L80.5,30.47 C76.5,32.17 74,37.29 73.56,40.04 C72.8894773,43.3344685 73.2998034,46.7573595 74.73,49.8 C75.5076564,51.5362498 75.8013548,53.4504723 75.58,55.34 L75.48,55.34 C75.4015094,56.3909148 75.2410209,57.4340898 75,58.46 C73.29,57.27 70.64,55.46 70.16,55.23 C69.16,54.68 66.75,53.42 65.69,52.81 C59,48.88 65.23,46.35 65,40 Z" id="Shape" stroke="#52267D" stroke-width="2" fill="#9452BA" fill-rule="nonzero"></path>
                            <path d="M70.81,53 C70.9,51.26 71.16,50.37 70.97,49.66 C69.85,45.59 69.48,44.3 69.48,39.99 C69.5750339,35.5904926 71.8892932,31.5377165 75.63,29.22 C77.3594282,28.9865805 79.1131919,29.4151989 80.54,30.42 C76.54,32.12 74.04,37.24 73.6,39.99 C72.9294773,43.2844685 73.3398034,46.7073595 74.77,49.75 C75.5476564,51.4862498 75.8413548,53.4004723 75.62,55.29 C75.62,55.29 70.7,57.14 70.81,53" id="Shape" stroke="#52267D" stroke-width="1" fill="#F3E3FF" fill-rule="nonzero"></path>
                            <path d="M96.3,18.75 C96.2414096,17.5841861 95.5119105,16.5582061 94.43,16.12 L92.82,15.47 C92.82,15.47 91.71,17.83 92.97,18.42 C94.003222,18.9302927 95.1867189,19.0475762 96.3,18.75 L96.3,18.75 Z" id="Shape" stroke="#52267D" stroke-width="1" fill="#FFFFFF" fill-rule="nonzero"></path>
                            <path d="M91.62,17.43 C91.5221083,15.8486041 90.2613959,14.5878917 88.68,14.49 C88.14,14.42 86.74,14.49 86.74,14.49 C86.74,14.49 86.09,17.2 87.61,17.49 C88.9431512,17.6529076 90.2923195,17.6327205 91.62,17.43 L91.62,17.43 Z" id="Shape" stroke="#52267D" stroke-width="1" fill="#FFFFFF" fill-rule="nonzero"></path>
                            <path d="M85.89,17.67 C85.89,17.67 85.51,14.83 82.96,15.61 C82.2917489,15.8214039 81.7005099,16.2248376 81.26,16.77 C81.26,16.77 81.77,18.94 82.78,18.69 C83.8434063,18.4377092 84.8837328,18.0965089 85.89,17.67 L85.89,17.67 Z" id="Shape" stroke="#52267D" stroke-width="1" fill="#FFFFFF" fill-rule="nonzero"></path>
                            <path d="M78.47,31.48 C78.47,31.48 72.47,28.24 73.65,22.79 C72.3314581,23.9070357 71.1042241,25.1275817 69.98,26.44 C69.98,27.51 69.78,31.74 75.63,34.58 C76.5093783,33.4869787 77.4579943,32.4515175 78.47,31.48 L78.47,31.48 Z" id="Shape" stroke="#52267D" stroke-width="1" fill="#FFFFFF" fill-rule="nonzero"></path>
                            <path d="M95.49,18.23 C95.4595344,17.6171576 95.0658871,17.0817972 94.49,16.87 L93.66,16.53 C93.66,16.53 93.08,17.75 93.74,18.06 C94.2824732,18.3303129 94.9056425,18.3908494 95.49,18.23 L95.49,18.23 Z" id="Shape" stroke="none" fill="#F3E3FF" fill-rule="nonzero"></path>
                            <path d="M90.39,16.85 C90.3409439,16.0427649 89.6972351,15.3990561 88.89,15.35 C88.62,15.35 87.89,15.35 87.89,15.35 C87.89,15.35 87.56,16.73 88.34,16.87 C89.021035,16.9570721 89.7107935,16.9503428 90.39,16.85 L90.39,16.85 Z" id="Shape" stroke="none" fill="#F3E3FF" fill-rule="nonzero"></path>
                            <path d="M85,17.47 C85,17.47 84.8,15.96 83.44,16.38 C83.0854901,16.4935276 82.7723981,16.7092132 82.54,17 C82.54,17 82.81,18.15 83.35,18 C83.9138496,17.8697717 84.4657839,17.6924837 85,17.47 L85,17.47 Z" id="Shape" stroke="none" fill="#F3E3FF" fill-rule="nonzero"></path>
                            <path d="M84.03,23.66 L89.48,23.66 C90.8496662,23.66 91.96,24.7703338 91.96,26.14 L91.96,26.14 C91.96,27.5096662 90.8496662,28.62 89.48,28.62 L89.03,28.62 C86.2685763,28.62 84.03,26.3814237 84.03,23.62 L84.03,23.62 L84.03,23.66 Z" id="Shape" stroke="none" fill="#F3E3FF" fill-rule="nonzero" opacity="0.3" transform="translate(87.995000, 26.120000) rotate(180.000000) translate(-87.995000, -26.120000) "></path>
                            <path d="M84.98,24.49 L89.87,24.49 C90.9745695,24.49 91.87,25.3854305 91.87,26.49 L91.87,26.49 C91.87,27.5945695 90.9745695,28.49 89.87,28.49 L88.87,28.49 C87.8356557,28.49 86.8436754,28.0791083 86.1122836,27.3477164 C85.3808917,26.6163246 84.97,25.6243443 84.97,24.59 L84.97,24.59 L84.98,24.49 Z" id="Shape" stroke="#52267D" stroke-width="1" fill="#FFFFFF" fill-rule="nonzero" transform="translate(88.420000, 26.490000) rotate(180.000000) translate(-88.420000, -26.490000) "></path>
                            <circle id="Oval" stroke="none" fill="#52267D" fill-rule="nonzero" cx="89.87" cy="26.42" r="1.09"></circle>
                            <path d="M99,29.57 L99,29.57 C98.6912375,29.5015898 98.4156511,29.328465 98.22,29.08 L97.85,28.62 L98.66,28.79 L99.14,28.89 C99.2293047,28.9090828 99.3071787,28.9632884 99.3560849,29.0404096 C99.404991,29.1175308 99.4208174,29.2110836 99.4,29.3 L99.4,29.3 C99.3830686,29.3890108 99.3313092,29.4675817 99.2562098,29.5182738 C99.1811104,29.5689658 99.0888839,29.5875855 99,29.57 Z" id="Shape" stroke="none" fill="#52267D" fill-rule="nonzero"></path>
                            <path d="M77.46,31.59 C77.46,31.59 72.87,29.12 72.94,24.14 C71.9646576,24.7647662 71.1136077,25.5649566 70.43,26.5 C70.6168187,27.7868762 71.1145185,29.0088151 71.88,30.06 C73.58,31.9 75.34,32.47 77.46,31.59 Z" id="Shape" stroke="none" fill="#EAF3FB" fill-rule="nonzero"></path>
                            <path d="M73.12,30.71 C74.1803117,31.7753182 75.3814613,32.6904798 76.69,33.43" id="Shape" stroke="#52267D" stroke-width="1" fill="#FFFFFF" fill-rule="nonzero"></path>
                            <path d="M55.13,50.06 L56.13,48.06 C59.95,38.68 60.54,33.17 58.56,24.22 L57.41,19 C57.0303322,17.279206 56.8392053,15.5221802 56.84,13.76 L56.84,13.76 C56.84,7.88369026 61.6036903,3.12 67.48,3.12 L69.2,3.12 C74.993467,3.12 79.69,7.81653297 79.69,13.61 L79.69,13.91 C79.69,14.5730412 79.4266079,15.208926 78.957767,15.677767 C78.488926,16.1466079 77.8530412,16.41 77.19,16.41 L66.32,16.41 L67.97,25.86 C72.97,51.19 72.51,61.46 62.58,59.35" id="Shape" stroke="#52267D" stroke-width="2" fill="#9452BA" fill-rule="nonzero"></path>
                            <path d="M74.44,4.34 C74.2790214,3.1857627 73.5176721,2.20362213 72.44,1.76 C71.9714277,1.63576912 71.4785723,1.63576912 71.01,1.76 C71.01,1.76 69.95,3.41 71.19,4 C72.1965243,4.50278675 73.3512092,4.62358455 74.44,4.34 L74.44,4.34 Z" id="Shape" stroke="#52267D" stroke-width="1" fill="#FFFFFF" fill-rule="nonzero"></path>
                            <path d="M70.08,3.73 C69.9719692,1.93754488 68.5424551,0.508030752 66.75,0.4 C66.28751,0.360465345 65.82249,0.360465345 65.36,0.4 C65.36,0.4 63.82,3.45 65.54,3.75 C67.047172,3.95028029 68.574651,3.9435513 70.08,3.73 Z" id="Shape" stroke="#52267D" stroke-width="1" fill="#FFFFFF" fill-rule="nonzero"></path>
                            <path d="M64.24,4.39 C64.24,4.39 63.8,1.61 61.31,2.44 C60.6628718,2.66529367 60.0961098,3.07558765 59.68,3.62 C59.68,3.62 60.23,5.73 61.22,5.46 C62.2548298,5.18845392 63.2650423,4.83053095 64.24,4.39 L64.24,4.39 Z" id="Shape" stroke="#52267D" stroke-width="1" fill="#FFFFFF" fill-rule="nonzero"></path>
                            <path d="M74.27,54.08 C73.7378446,53.674884 73.1288243,53.382282 72.48,53.22" id="Shape" stroke="#52267D" stroke-width="1" fill="#F3E3FF" fill-rule="nonzero"></path>
                            <path d="M70.67,54 C72.45,46.78 69.24,33 68.67,29.57 L66.31,16 L65.31,16 C64.6692794,16.0639917 64.0828826,16.3880875 63.687823,16.8965614 C63.2927634,17.4050352 63.1236512,18.053341 63.22,18.69 L64.91,30.5 C65.48,34.5 66.08,53.01 59.13,56.99 C57.65,57.84 55.24,57.28 54.33,56.85 C51.03,55.27 50.08,51.15 49.33,47.85 C47.83,40.98 49,35.59 49.33,30.2 L49.68,23.46 C49.7620135,22.1897879 48.8260333,21.0816227 47.56,20.95 L46.32,20.95 L44.08,34.57 C43.41,38.45 41.68,51.89 49.6,58.2 C49.74,58.31 47.67,58.78 48.27,59.84 C50.65,64.05 57.56,64.72 58.86,66.52 C63.86,73.46 59.18,88.26 59.18,88.26 C62.422136,86.9411315 65.4541638,85.155604 68.18,82.96 C76.18,75.75 77.25,65.3 77.29,62.23 C77.29,58.55 76.37,56.23 75.18,54.91" id="Shape" stroke="#52267D" stroke-width="1" fill="#F3E3FF" fill-rule="nonzero"></path>
                            <path d="M5.35,60.05 C4.651222,59.2148538 4.459852,58.0666338 4.85,57.05 C5.05588213,56.642664 5.36652645,56.2975037 5.75,56.05 C5.75,56.05 7.53,56.36 7.16,57.56 C6.88548575,58.5853373 6.24060024,59.4725003 5.35,60.05 Z" id="Shape" stroke="#52267D" stroke-width="1" fill="#FFFFFF" fill-rule="nonzero"></path>
                            <path d="M5.73,58.29 C5.5037407,58.009015 5.43592222,57.6322457 5.55,57.29 C5.62489983,57.1504898 5.73528103,57.0332098 5.87,56.95 C5.87,56.95 6.49,57.06 6.36,57.48 C6.25175667,57.8156685 6.02869572,58.1024611 5.73,58.29 L5.73,58.29 Z" id="Shape" stroke="none" fill="#F3E3FF" fill-rule="nonzero"></path>
                            <path d="M14.71,69.12 C15.3200571,67.5624081 14.6720997,65.7944713 13.2,65 C12.8266942,64.7802892 12.4352652,64.5929386 12.03,64.44 C12.03,64.44 9.53,66.44 10.87,67.34 C12.0627707,68.1057938 13.3547665,68.7046877 14.71,69.12 Z" id="Shape" stroke="#52267D" stroke-width="1" fill="#FFFFFF" fill-rule="nonzero"></path>
                            <path d="M13.81,68.19 C14.1477408,67.3269411 13.7869483,66.3476472 12.97,65.91 C12.762585,65.7882914 12.545123,65.6845788 12.32,65.6 C12.32,65.6 10.94,66.69 11.68,67.21 C12.3419923,67.6322625 13.0586353,67.9619856 13.81,68.19 L13.81,68.19 Z" id="Shape" stroke="none" fill="#F3E3FF" fill-rule="nonzero"></path>
                            <path d="M6.79,61 C6.79,61 4.91,62.65 6.71,64.13 C7.18848575,64.513011 7.76947477,64.7461024 8.38,64.8 C8.38,64.8 9.71,63.38 9.04,62.8 C8.34229147,62.1374062 7.58958847,61.5352438 6.79,61 Z" id="Shape" stroke="#52267D" stroke-width="1" fill="#FFFFFF" fill-rule="nonzero"></path>
                            <path d="M7.07,62.18 C7.07,62.18 6.24,62.91 7.07,63.57 C7.28171385,63.7407377 7.53915967,63.8451076 7.81,63.87 C7.81,63.87 8.4,63.24 8.1,62.97 C7.78001472,62.6775474 7.43540466,62.4132349 7.07,62.18 Z" id="Shape" stroke="none" fill="#F3E3FF" fill-rule="nonzero"></path>
                            <path d="M23.73,70.42 C24.0668007,69.0716358 23.2618496,67.7018847 21.92,67.34 C19.49,66.46 18.84,67.19 18.84,67.19 C18.84,67.19 17.5,69.45 18.7,70.19 C19.9,70.93 23.73,70.42 23.73,70.42 Z" id="Shape" stroke="#52267D" stroke-width="1" fill="#FFFFFF" fill-rule="nonzero"></path>
                            <path d="M22.6,69.92 C22.7719569,69.2200684 22.3551048,68.5105328 21.66,68.32 C20.4,67.86 20.06,68.24 20.06,68.24 C20.06,68.24 19.36,69.41 19.99,69.79 C20.8418431,70.0120963 21.7303033,70.0563491 22.6,69.92 Z" id="Shape" stroke="none" fill="#F3E3FF" fill-rule="nonzero"></path>
                            <path d="M66.84,19.3 C63.8951936,20.6521313 60.5227198,20.7281205 57.52,19.51 C57.89,21.2 58.66,24.59 58.66,24.59 C58.66,24.59 63.66,26.14 67.6,23.69 C67.2,21.46 66.84,19.3 66.84,19.3 Z" id="Shape" stroke="#52267D" stroke-width="1" fill="#FFFFFF" fill-rule="nonzero"></path>
                            <path d="M37.86,9.46 C38.0182214,8.29990167 38.7793,7.31049941 39.86,6.86 C40.5407187,6.68795184 41.2381812,6.59070946 41.94,6.57 C41.94,6.57 42.37,8.57 41.12,9.12 C40.1095903,9.62172009 38.9521922,9.74243032 37.86,9.46 Z" id="Shape" stroke="#52267D" stroke-width="1" fill="#FFFFFF" fill-rule="nonzero"></path>
                            <path d="M42.55,8.51 C42.6433842,6.94868972 43.8886897,5.70338423 45.45,5.61 C45.8526006,5.57561744 46.2573994,5.57561744 46.66,5.61 C46.66,5.61 48,8.27 46.5,8.53 C45.1885536,8.70304505 43.8596268,8.69631631 42.55,8.51 L42.55,8.51 Z" id="Shape" stroke="#52267D" stroke-width="1" fill="#FFFFFF" fill-rule="nonzero"></path>
                            <path d="M47.94,8.7 C47.94,8.7 48.39,5.9 50.89,6.7 C51.5451357,6.92562282 52.1191113,7.33958097 52.54,7.89 C52.54,7.89 51.98,10.01 50.99,9.75 C49.9457613,9.48590155 48.9255174,9.13467005 47.94,8.7 Z" id="Shape" stroke="#52267D" stroke-width="1" fill="#FFFFFF" fill-rule="nonzero"></path>
                            <path d="M73.49,3.87 C73.404713,3.25220107 72.997086,2.72647656 72.42,2.49 C72.1677667,2.42253456 71.9022333,2.42253456 71.65,2.49 C71.65,2.49 71.08,3.37 71.75,3.68 C72.287894,3.95181907 72.9061189,4.01932638 73.49,3.87 L73.49,3.87 Z" id="Shape" stroke="none" fill="#F3E3FF" fill-rule="nonzero"></path>
                            <path d="M69,3.24 C68.9313578,2.1153834 68.0346166,1.21864224 66.91,1.15 C66.6205273,1.12526822 66.3294727,1.12526822 66.04,1.15 C66.04,1.15 65.04,3.06 66.15,3.25 C67.0960069,3.37671083 68.0549056,3.37334627 69,3.24 Z" id="Shape" stroke="none" fill="#F3E3FF" fill-rule="nonzero"></path>
                            <path d="M63.16,4.11 C63.16,4.11 62.9,2.51 61.47,2.99 C61.096362,3.11881148 60.7692637,3.35543575 60.53,3.67 C60.53,3.67 60.85,4.89 61.42,4.73 C62.016357,4.57248283 62.5984086,4.36508513 63.16,4.11 L63.16,4.11 Z" id="Shape" stroke="none" fill="#F3E3FF" fill-rule="nonzero"></path>
                            <path d="M38.78,9 C38.8666596,8.38512239 39.274428,7.86302635 39.85,7.63 C40.210116,7.54012163 40.5789675,7.4898237 40.95,7.48 C40.95,7.48 41.18,8.48 40.52,8.83 C39.979865,9.09600231 39.3614068,9.15642639 38.78,9 Z" id="Shape" stroke="none" fill="#F3E3FF" fill-rule="nonzero"></path>
                            <path d="M43.65,8.07 C43.7037763,7.20960275 44.3896027,6.52377628 45.25,6.47 C45.4729262,6.45092797 45.6970738,6.45092797 45.92,6.47 C45.92,6.47 46.66,7.94 45.83,8.08 C45.1062812,8.17615549 44.3728062,8.17279092 43.65,8.07 Z" id="Shape" stroke="none" fill="#F3E3FF" fill-rule="nonzero"></path>
                            <path d="M48.94,8.51 C48.94,8.51 49.18,6.98 50.55,7.44 C50.907186,7.56384485 51.2201354,7.78986388 51.45,8.09 C51.45,8.09 51.15,9.25 50.6,9.09 C50.0314773,8.94324156 49.4762122,8.74923325 48.94,8.51 L48.94,8.51 Z" id="Shape" stroke="none" fill="#F3E3FF" fill-rule="nonzero"></path>
                            <path d="M55.27,24.1 C52.1520989,24.5192858 48.9850752,24.3940936 45.91,23.73 C45.47,26.21 45.18,28.08 45.18,28.08 C45.18,28.08 48.34,30.23 54.18,28.98 C54.88,25.8 55.27,24.1 55.27,24.1 Z" id="Shape" stroke="#52267D" stroke-width="1" fill="#FFFFFF" fill-rule="nonzero"></path>
                            <path d="M46.86,14.32 L47.34,14.32 C48.7096662,14.32 49.82,15.4303338 49.82,16.8 L49.82,16.8 C49.82,18.1696662 48.7096662,19.28 47.34,19.28 L41.89,19.28 L41.89,19.28 C41.9118251,16.5458641 44.1258257,14.3363182 46.86,14.32 Z" id="Shape" stroke="none" fill="#F3E3FF" fill-rule="nonzero" opacity="0.3"></path>
                            <path d="M45.89,15.29 L47,15.29 C47.9996354,15.29 48.81,16.1003646 48.81,17.1 L48.81,17.1 C48.81,18.2542751 47.8742751,19.19 46.72,19.19 L42,19.19 L42,19.19 C41.9999929,17.0399887 43.7399958,15.2955128 45.89,15.29 L45.89,15.29 Z" id="Shape" stroke="#52267D" stroke-width="1" fill="#FFFFFF" fill-rule="nonzero"></path>
                            <circle id="Oval" stroke="none" fill="#52267D" fill-rule="nonzero" transform="translate(44.761934, 16.813331) rotate(-64.070000) translate(-44.761934, -16.813331) " cx="44.7619342" cy="16.8133309" r="1.09"></circle>
                            <path d="M63.72,9.65 L69.17,9.65 C70.5396662,9.65 71.65,10.7603338 71.65,12.13 L71.65,12.13 C71.65,13.4996662 70.5396662,14.61 69.17,14.61 L68.69,14.61 C65.9285763,14.61 63.69,12.3714237 63.69,9.61 L63.69,9.61 L63.72,9.65 Z" id="Shape" stroke="none" fill="#F3E3FF" fill-rule="nonzero" opacity="0.3" transform="translate(67.670000, 12.110000) rotate(180.000000) translate(-67.670000, -12.110000) "></path>
                            <path d="M64.65,10.48 L69.54,10.48 C70.6445695,10.48 71.54,11.3754305 71.54,12.48 L71.54,12.48 C71.54,13.5845695 70.6445695,14.48 69.54,14.48 L68.54,14.48 C66.3860895,14.48 64.64,12.7339105 64.64,10.58 L64.64,10.58 L64.65,10.48 Z" id="Shape" stroke="#52267D" stroke-width="1" fill="#FFFFFF" fill-rule="nonzero" transform="translate(68.090000, 12.480000) rotate(-180.000000) translate(-68.090000, -12.480000) "></path>
                            <circle id="Oval" stroke="none" fill="#52267D" fill-rule="nonzero" cx="68.69" cy="12.06" r="1.09"></circle>
                            <path d="M35.33,20.42 L35.33,20.42 C35.6387625,20.3515898 35.9143489,20.178465 36.11,19.93 L36.48,19.47 L35.67,19.64 L35.19,19.74 C35.1006953,19.7590828 35.0228213,19.8132884 34.9739151,19.8904096 C34.925009,19.9675308 34.9091826,20.0610836 34.93,20.15 L34.93,20.15 C34.9469314,20.2390108 34.9986908,20.3175817 35.0737902,20.3682738 C35.1488896,20.4189658 35.2411161,20.4375855 35.33,20.42 L35.33,20.42 Z" id="Shape" stroke="none" fill="#52267D" fill-rule="nonzero"></path>
                            <path d="M77.34,15.32 L77.34,15.32 C77.0312375,15.2515898 76.7556511,15.078465 76.56,14.83 L76.19,14.37 L77,14.54 L77.48,14.64 C77.5693047,14.6590828 77.6471787,14.7132884 77.6960849,14.7904096 C77.744991,14.8675308 77.7608174,14.9610836 77.74,15.05 L77.74,15.05 C77.7230686,15.1390108 77.6713092,15.2175817 77.5962098,15.2682738 C77.5211104,15.3189658 77.4288839,15.3375855 77.34,15.32 Z" id="Shape" stroke="none" fill="#52267D" fill-rule="nonzero"></path>
                            <path d="M66.38,20 C63.7652063,21.0053406 60.8800167,21.0584423 58.23,20.15 C58.43169,21.3742369 58.7021176,22.5861531 59.04,23.78 C60.4059187,23.8575011 61.7761707,23.7971966 63.13,23.6 C65.46,23.15 66.38,22.09 66.38,20 Z" id="Shape" stroke="none" fill="#EAF3FB" fill-rule="nonzero"></path>
                            <path d="M60.73,23.09 C62.975991,23.2384375 65.2242938,22.8368323 67.28,21.92" id="Shape" stroke="#52267D" stroke-width="1" fill="#FFFFFF" fill-rule="nonzero"></path>
                            <path d="M47.67,24.64 C49.8797055,25.2313153 52.1870662,25.3640396 54.45,25.03 C54.210403,26.0853386 53.9031006,27.1241544 53.53,28.14 C53.53,28.14 48.76,27.5 47.67,24.64 Z" id="Shape" stroke="none" fill="#EAF3FB" fill-rule="nonzero"></path>
                            <path d="M49.6,58.22 C49.6,58.22 49.82,58.38 50.13,58.56" id="Shape" stroke="#52267D" stroke-width="0.5" fill="#F3E3FF" fill-rule="nonzero"></path>
                            <path d="M47.32,26 C49.7881652,26.4138843 52.3010474,26.4912555 54.79,26.23" id="Shape" stroke="#52267D" stroke-width="1" fill="#FFFFFF" fill-rule="nonzero"></path>
                            <path d="M53.26,100.55 C53.9717567,100.078124 54.9207559,100.192512 55.5,100.82 C56.67,101.82 57.5,103.26 57.02,103.41 C56.2351372,103.625939 55.4124318,103.666904 54.61,103.53 C53.77,103.38 53.03,103.53 52.69,101.78 C52.6020278,101.290876 52.8299423,100.799061 53.26,100.55 L53.26,100.55 Z" id="Shape" stroke="#52267D" stroke-width="0.5" fill="#FFFFFF" fill-rule="nonzero"></path>
                            <path d="M53.48,100.84 C53.922277,100.547909 54.5111528,100.61993 54.87,101.01 C55.6,101.61 56.14,102.53 55.82,102.62 C55.3311532,102.75286 54.8190955,102.776756 54.32,102.69 C53.8,102.59 53.32,102.69 53.12,101.6 C53.0673724,101.29605 53.2114781,100.991827 53.48,100.84 L53.48,100.84 Z" id="Shape" stroke="none" fill="#EAF3FB" fill-rule="nonzero"></path>
                            <path d="M51.9,100.54 C51.39,100.47 50.66,101.54 50.74,101.91 C50.82,102.28 50.88,103.36 51.74,103.48 C52.35,103.57 54.51,103.79 54.98,103.32 C55.45,102.85 54.52,100.89 51.9,100.54 Z" id="Shape" stroke="#52267D" stroke-width="0.5" fill="#FFFFFF" fill-rule="nonzero"></path>
                            <path d="M51.75,100.84 C51.45,100.84 51.02,101.45 51.07,101.65 C51.12,101.85 51.15,102.5 51.64,102.57 C52.13,102.64 53.27,102.76 53.55,102.48 C53.83,102.2 53.3,101 51.75,100.84 Z" id="Shape" stroke="none" fill="#EAF3FB" fill-rule="nonzero"></path>
                            <path d="M49.75,100.75 C49.75,100.75 50.19,100.52 51.06,101.02 C51.93,101.52 52.97,102.16 52.67,103.02 C52.37,103.88 49.94,103.57 49.41,103.38 C48.876064,103.190508 48.5497614,102.650854 48.63,102.09 C48.7235957,101.469134 49.1555948,100.952278 49.75,100.75 L49.75,100.75 Z" id="Shape" stroke="#52267D" stroke-width="0.5" fill="#FFFFFF" fill-rule="nonzero"></path>
                            <path d="M49.58,101.06 C49.58,101.06 49.84,100.92 50.35,101.22 C50.86,101.52 51.48,101.9 51.35,102.41 C51.22,102.92 49.74,102.73 49.42,102.63 C49.1075415,102.515731 48.9163316,102.199819 48.96,101.87 C49.0030713,101.506969 49.2408109,101.196373 49.58,101.06 Z" id="Shape" stroke="none" fill="#EAF3FB" fill-rule="nonzero"></path>
                            <path d="M59.89,72.94 C59.6569854,77.7763027 59.9689483,82.6234676 60.82,87.39 C62.15,95.61 64.51,98.19 64.33,100.32 C64.2,101.97 63.5,103.48 61.84,103.48 L56.9,103.48 C54.5970402,103.475512 52.5533418,102.003084 51.82,99.82 C51.0458914,97.4873287 50.513103,95.0814038 50.23,92.64 C49.9460119,89.100848 49.8692141,85.548118 50,82" id="Shape" stroke="#52267D" stroke-width="2" fill="#9452BA" fill-rule="nonzero"></path>
                            <path d="M34.55,76.65 C36.1615824,78.1560048 37.0591763,80.2746171 37.02,82.48 C37.02,85.31 35.36,88.91 36.4,93.61 C37.33,97.8 39.17,98.54 38.62,102.3 C38.5064307,102.982292 37.9116157,103.479387 37.22,103.47 L31.71,103.47 C29.1716567,103.470038 27.005721,101.634069 26.59,99.13 C25.7636378,93.2018204 25.9768277,87.1749732 27.22,81.32" id="Shape" stroke="#52267D" stroke-width="2" fill="#9452BA" fill-rule="nonzero"></path>
                            <polyline id="Shape" stroke="#52267D" stroke-width="0.5" fill="none" points="33.47 82.89 33.15 82.66 32.1 82.89 33.26 83.63 34.66 82.94 33.21 81.78 32.55 82"></polyline>
                            <path d="M63.25,100.55 C63.9617567,100.078124 64.9107559,100.192512 65.49,100.82 C66.66,101.82 67.49,103.26 67.01,103.41 C66.2251372,103.625939 65.4024318,103.666904 64.6,103.53 C63.76,103.38 63.02,103.53 62.68,101.78 C62.5920278,101.290876 62.8199423,100.799061 63.25,100.55 L63.25,100.55 Z" id="Shape" stroke="#52267D" stroke-width="1" fill="#FFFFFF" fill-rule="nonzero"></path>
                            <path d="M63.47,100.84 C63.912277,100.547909 64.5011528,100.61993 64.86,101.01 C65.59,101.61 66.13,102.53 65.81,102.62 C65.3211532,102.75286 64.8090955,102.776756 64.31,102.69 C63.79,102.59 63.31,102.69 63.11,101.6 C63.0573724,101.29605 63.2014781,100.991827 63.47,100.84 L63.47,100.84 Z" id="Shape" stroke="none" fill="#EAF3FB" fill-rule="nonzero"></path>
                            <polyline id="Shape" stroke="#52267D" stroke-width="0.5" fill="none" points="55.7 86 57.66 86.61 57.41 88.43 55.39 88.58 54.45 87.49 55.66 86.82 56.66 87.11 56.02 87.82"></polyline>
                            <g id="Group" opacity="0.3" stroke="none" stroke-width="1" fill="none" fill-rule="evenodd" transform="translate(15.000000, 10.000000)">
                                <path d="M82.87,16 C82.833356,16.2674035 82.6049026,16.4666856 82.335,16.4666856 C82.0650974,16.4666856 81.836644,16.2674035 81.8,16" id="Shape" stroke="#F3E3FF" stroke-width="0.25"></path>
                                <path d="M83.94,16 C83.9685858,16.2086 83.8733201,16.4147926 83.6959442,16.5282336 C83.5185682,16.6416747 83.2914318,16.6416747 83.1140558,16.5282336 C82.9366799,16.4147926 82.8414142,16.2086 82.87,16" id="Shape" stroke="#F3E3FF" stroke-width="0.25"></path>
                                <path d="M83.4,16.5 C83.4285858,16.7086 83.3333201,16.9147926 83.1559442,17.0282336 C82.9785682,17.1416747 82.7514318,17.1416747 82.5740558,17.0282336 C82.3966799,16.9147926 82.3014142,16.7086 82.33,16.5" id="Shape" stroke="#F3E3FF" stroke-width="0.25"></path>
                                <path d="M62.34,15.46 C62.1003062,15.6324481 61.7844494,15.656827 61.521132,15.5232029 C61.2578145,15.3895789 61.0909982,15.120261 61.0886557,14.8249883 C61.0863133,14.5297155 61.2488357,14.2577849 61.51,14.12" id="Shape" stroke="#F3E3FF" stroke-width="0.25"></path>
                                <path d="M62.08,16.55 C61.8403062,16.7224481 61.5244494,16.746827 61.261132,16.6132029 C60.9978145,16.4795789 60.8309982,16.210261 60.8286557,15.9149883 C60.8263133,15.6197155 60.9888357,15.3477849 61.25,15.21" id="Shape" stroke="#F3E3FF" stroke-width="0.25"></path>
                                <path d="M36.91,33.46 C36.91,33.857645 36.587645,34.18 36.19,34.18 C35.792355,34.18 35.47,33.857645 35.47,33.46" id="Shape" stroke="#F3E3FF" stroke-width="0.25"></path>
                                <path d="M38.35,33.46 C38.35,33.857645 38.027645,34.18 37.63,34.18 C37.232355,34.18 36.91,33.857645 36.91,33.46" id="Shape" stroke="#F3E3FF" stroke-width="0.25"></path>
                                <path d="M37.63,34.18 C37.63,34.577645 37.307645,34.9 36.91,34.9 C36.512355,34.9 36.19,34.577645 36.19,34.18" id="Shape" stroke="#F3E3FF" stroke-width="0.25"></path>
                                <path d="M58.37,79 C58.37,79.397645 58.047645,79.72 57.65,79.72 C57.252355,79.72 56.93,79.397645 56.93,79" id="Shape" stroke="#F3E3FF" stroke-width="0.25"></path>
                                <path d="M59.81,79 C59.81,79.397645 59.487645,79.72 59.09,79.72 C58.692355,79.72 58.37,79.397645 58.37,79" id="Shape" stroke="#F3E3FF" stroke-width="0.25"></path>
                                <path d="M59.09,79.71 C59.09,80.107645 58.767645,80.43 58.37,80.43 C57.972355,80.43 57.65,80.107645 57.65,79.71" id="Shape" stroke="#F3E3FF" stroke-width="0.25"></path>
                                <path d="M38,10.56 C38,10.996305 37.646305,11.35 37.21,11.35 C36.773695,11.35 36.42,10.996305 36.42,10.56" id="Shape" stroke="#F3E3FF" stroke-width="0.25"></path>
                                <path d="M38.81,11.35 C38.81,11.786305 38.456305,12.14 38.02,12.14 C37.583695,12.14 37.23,11.786305 37.23,11.35" id="Shape" stroke="#F3E3FF" stroke-width="0.25"></path>
                                <path d="M48.12,24.5 C47.9955556,24.9266667 47.6044444,25.22 47.16,25.22 C46.7155556,25.22 46.3244444,24.9266667 46.2,24.5" id="Shape" stroke="#F3E3FF" stroke-width="0.25"></path>
                                <path d="M49.08,25.46 C49.1992179,25.8687471 49.0465439,26.308158 48.6995666,26.5549248 C48.3525894,26.8016917 47.8874106,26.8016917 47.5404334,26.5549248 C47.1934561,26.308158 47.0407821,25.8687471 47.16,25.46" id="Shape" stroke="#F3E3FF" stroke-width="0.25"></path>
                                <path d="M62.05,0.65 C62.05,1.00346224 61.7634622,1.29 61.41,1.29 C61.0565378,1.29 60.77,1.00346224 60.77,0.65" id="Shape" stroke="#F3E3FF" stroke-width="0.25"></path>
                                <path d="M62.7,1.29 C62.7,1.64346224 62.4134622,1.93 62.06,1.93 C61.7065378,1.93 61.42,1.64346224 61.42,1.29" id="Shape" stroke="#F3E3FF" stroke-width="0.25"></path>
                                <path d="M1.65,65.35 C1.37385761,65.6620408 0.897040925,65.6911423 0.585000075,65.4149999 C0.272959224,65.1388576 0.243857701,64.6620409 0.52,64.35" id="Shape" stroke="#F3E3FF" stroke-width="0.25"></path>
                                <path d="M1.74,66.39 C1.46385763,66.7020409 0.987040884,66.7311424 0.675,66.455 C0.362959116,66.1788576 0.333857625,65.7020409 0.61,65.39" id="Shape" stroke="#F3E3FF" stroke-width="0.25"></path>
                                <path d="M31,55.15 C30.8849794,55.4532641 30.610811,55.6673664 30.2887115,55.7054558 C29.9666121,55.7435453 29.6500674,55.599297 29.4674843,55.3312257 C29.2849011,55.0631543 29.2665982,54.7157739 29.42,54.43" id="Shape" stroke="#F3E3FF" stroke-width="0.25"></path>
                                <path d="M32.6,55.87 C32.4849794,56.1732641 32.210811,56.3873664 31.8887115,56.4254558 C31.5666121,56.4635453 31.2500674,56.319297 31.0674843,56.0512257 C30.8849011,55.7831543 30.8665982,55.4357739 31.02,55.15" id="Shape" stroke="#F3E3FF" stroke-width="0.25"></path>
                                <path d="M31.45,56.3 C31.3349794,56.6032641 31.060811,56.8173664 30.7387115,56.8554558 C30.4166121,56.8935453 30.1000674,56.749297 29.9174843,56.4812257 C29.7349011,56.2131543 29.7165982,55.8657739 29.87,55.58" id="Shape" stroke="#F3E3FF" stroke-width="0.25"></path>
                                <path d="M33,57 C32.8849794,57.3032641 32.610811,57.5173664 32.2887115,57.5554558 C31.9666121,57.5935453 31.6500674,57.449297 31.4674843,57.1812257 C31.2849011,56.9131543 31.2665982,56.5657739 31.42,56.28" id="Shape" stroke="#F3E3FF" stroke-width="0.25"></path>
                                <path d="M30.3,56.73 C30.0831349,57.1340004 29.5899402,57.3003371 29.1726939,57.1101995 C28.7554475,56.9200619 28.5573947,56.4387264 28.72,56.01" id="Shape" stroke="#F3E3FF" stroke-width="0.25"></path>
                                <path d="M46.11,7.13 C46.11,7.61324916 45.7182492,8.005 45.235,8.005 C44.7517508,8.005 44.36,7.61324916 44.36,7.13" id="Shape" stroke="#F3E3FF" stroke-width="0.25"></path>
                                <path d="M46.42,40.19 C46.42,40.6732492 46.0282492,41.065 45.545,41.065 C45.0617508,41.065 44.67,40.6732492 44.67,40.19" id="Shape" stroke="#F3E3FF" stroke-width="0.25"></path>
                                <path d="M36.5,22 C36.5,22.3672694 36.2022694,22.665 35.835,22.665 C35.4677306,22.665 35.17,22.3672694 35.17,22" id="Shape" stroke="#F3E3FF" stroke-width="0.25"></path>
                                <path d="M20.72,6.91 C20.72,7.18614237 20.4961424,7.41 20.22,7.41 C19.9438576,7.41 19.72,7.18614237 19.72,6.91" id="Shape" stroke="#F3E3FF" stroke-width="0.25"></path>
                                <path d="M16.59,80 C16.5364102,80.3072484 16.3229761,80.5625679 16.0300962,80.6697819 C15.7372163,80.776996 15.4093862,80.7198163 15.1700962,80.5197819 C14.9308061,80.3197475 14.8164101,80.0072484 14.87,79.7" id="Shape" stroke="#F3E3FF" stroke-width="0.25"></path>
                                <path d="M40.75,86.45 C40.8692179,86.8587471 40.7165439,87.298158 40.3695666,87.5449248 C40.0225894,87.7916917 39.5574106,87.7916917 39.2104334,87.5449248 C38.8634561,87.298158 38.7107821,86.8587471 38.83,86.45" id="Shape" stroke="#F3E3FF" stroke-width="0.25"></path>
                                <path d="M41.71,87.41 C41.8292179,87.8187471 41.6765439,88.258158 41.3295666,88.5049248 C40.9825894,88.7516917 40.5174106,88.7516917 40.1704334,88.5049248 C39.8234561,88.258158 39.6707821,87.8187471 39.79,87.41" id="Shape" stroke="#F3E3FF" stroke-width="0.25"></path>
                            </g>
                            <path d="M61.89,100.54 C61.38,100.47 60.65,101.54 60.73,101.91 C60.81,102.28 60.87,103.36 61.73,103.48 C62.34,103.57 64.5,103.79 64.97,103.32 C65.44,102.85 64.52,100.89 61.89,100.54 Z" id="Shape" stroke="#52267D" stroke-width="1" fill="#FFFFFF" fill-rule="nonzero"></path>
                            <path d="M61.75,100.84 C61.45,100.84 61.02,101.45 61.07,101.65 C61.12,101.85 61.15,102.5 61.64,102.57 C62.13,102.64 63.27,102.76 63.55,102.48 C63.83,102.2 63.3,101 61.75,100.84 Z" id="Shape" stroke="none" fill="#EAF3FB" fill-rule="nonzero"></path>
                            <path d="M60.09,101.08 C60.09,101.08 60.48,100.88 61.25,101.32 C62.02,101.76 62.94,102.32 62.67,103.1 C62.4,103.88 60.26,103.58 59.78,103.42 C59.3074455,103.253324 59.0185165,102.775963 59.09,102.28 C59.1701449,101.723328 59.556906,101.259215 60.09,101.08 L60.09,101.08 Z" id="Shape" stroke="#52267D" stroke-width="1" fill="#FFFFFF" fill-rule="nonzero"></path>
                            <path d="M59.94,101.35 C59.94,101.35 60.17,101.23 60.62,101.49 C61.07,101.75 61.62,102.09 61.46,102.54 C61.3,102.99 60.03,102.83 59.75,102.73 C59.471247,102.632765 59.2997195,102.352464 59.34,102.06 C59.3884867,101.72839 59.6211198,101.453108 59.94,101.35 L59.94,101.35 Z" id="Shape" stroke="none" fill="#EAF3FB" fill-rule="nonzero"></path>
                            <path d="M80.36,101.29 C80.36,101.29 80.75,101.09 81.52,101.53 C82.29,101.97 83.21,102.53 82.94,103.31 C82.67,104.09 80.53,103.79 80.05,103.63 C79.5774455,103.463324 79.2885165,102.985963 79.36,102.49 C79.4401449,101.933328 79.826906,101.469215 80.36,101.29 L80.36,101.29 Z" id="Shape" stroke="#52267D" stroke-width="1" fill="#FFFFFF" fill-rule="nonzero"></path>
                            <path d="M80.22,101.57 C80.22,101.57 80.45,101.45 80.9,101.71 C81.35,101.97 81.9,102.31 81.74,102.76 C81.58,103.21 80.31,103.05 80.03,102.95 C79.751247,102.852765 79.5797195,102.572464 79.62,102.28 C79.6684867,101.94839 79.9011198,101.673108 80.22,101.57 L80.22,101.57 Z" id="Shape" stroke="none" fill="#EAF3FB" fill-rule="nonzero"></path>
                            <path d="M78,100.75 C77.49,100.68 76.76,101.75 76.84,102.12 C76.92,102.49 76.98,103.57 77.84,103.69 C78.45,103.78 80.61,104 81.08,103.53 C81.55,103.06 80.65,101.1 78,100.75 Z" id="Shape" stroke="#52267D" stroke-width="1" fill="#FFFFFF" fill-rule="nonzero"></path>
                            <path d="M77.88,101.06 C77.58,101.06 77.15,101.67 77.2,101.87 C77.25,102.07 77.28,102.72 77.77,102.79 C78.26,102.86 79.4,102.98 79.68,102.7 C79.96,102.42 79.43,101.26 77.88,101.06 Z" id="Shape" stroke="none" fill="#EAF3FB" fill-rule="nonzero"></path>
                            <path d="M36.52,100.55 C37.2317567,100.078124 38.1807559,100.192512 38.76,100.82 C39.93,101.82 40.76,103.26 40.28,103.41 C39.4951372,103.625939 38.6724318,103.666904 37.87,103.53 C37.03,103.38 36.29,103.53 35.95,101.78 C35.8620278,101.290876 36.0899423,100.799061 36.52,100.55 L36.52,100.55 Z" id="Shape" stroke="#52267D" stroke-width="0.5" fill="#FFFFFF" fill-rule="nonzero"></path>
                            <path d="M36.74,100.84 C37.182277,100.547909 37.7711528,100.61993 38.13,101.01 C38.86,101.61 39.4,102.53 39.08,102.62 C38.5911532,102.75286 38.0790955,102.776756 37.58,102.69 C37.06,102.59 36.58,102.69 36.38,101.6 C36.3273724,101.29605 36.4714781,100.991827 36.74,100.84 L36.74,100.84 Z" id="Shape" stroke="none" fill="#EAF3FB" fill-rule="nonzero"></path>
                            <path d="M35.16,100.54 C34.65,100.47 33.92,101.54 34,101.91 C34.08,102.28 34.14,103.36 35,103.48 C35.61,103.57 37.77,103.79 38.24,103.32 C38.71,102.85 37.79,100.89 35.16,100.54 Z" id="Shape" stroke="#52267D" stroke-width="0.5" fill="#FFFFFF" fill-rule="nonzero"></path>
                            <path d="M35,100.84 C34.7,100.84 34.27,101.45 34.32,101.65 C34.37,101.85 34.4,102.5 34.89,102.57 C35.38,102.64 36.52,102.76 36.8,102.48 C37.08,102.2 36.57,101 35,100.84 Z" id="Shape" stroke="none" fill="#EAF3FB" fill-rule="nonzero"></path>
                            <path d="M33.36,101.08 C33.36,101.08 33.75,100.88 34.52,101.32 C35.29,101.76 36.21,102.32 35.94,103.1 C35.67,103.88 33.53,103.58 33.05,103.42 C32.5774455,103.253324 32.2885165,102.775963 32.36,102.28 C32.4401449,101.723328 32.826906,101.259215 33.36,101.08 L33.36,101.08 Z" id="Shape" stroke="#52267D" stroke-width="0.5" fill="#FFFFFF" fill-rule="nonzero"></path>
                            <path d="M33.21,101.35 C33.21,101.35 33.44,101.23 33.89,101.49 C34.34,101.75 34.89,102.09 34.73,102.54 C34.57,102.99 33.3,102.83 33.02,102.73 C32.741247,102.632765 32.5697195,102.352464 32.61,102.06 C32.6584867,101.72839 32.8911198,101.453108 33.21,101.35 L33.21,101.35 Z" id="Shape" stroke="none" fill="#EAF3FB" fill-rule="nonzero"></path>
                            <path d="M71.35,101.22 C71.2155679,101.087159 71.0146435,101.047762 70.84,101.12 C70.26,101.4 68.78,102.18 69.09,103.24 C69.33,104.06 69.83,103.82 70.79,103.83 L71.52,103.83 C71.6728435,103.834472 71.8154757,103.753519 71.89,103.62 L71.89,103.62 C72.2774043,102.8096 72.0770072,101.840332 71.4,101.25 L71.35,101.22 Z" id="Shape" stroke="#52267D" stroke-width="1" fill="#FFFFFF" fill-rule="nonzero"></path>
                            <path d="M71.27,101.46 C71.1720286,101.364263 71.0261736,101.336669 70.9,101.39 C70.48,101.59 69.41,102.16 69.63,102.93 C69.8,103.53 70.17,103.35 70.87,103.36 L71.4,103.36 C71.5108026,103.36373 71.6146301,103.306048 71.67,103.21 L71.67,103.21 C71.9566212,102.623602 71.8129897,101.917756 71.32,101.49 L71.27,101.46 Z" id="Shape" stroke="none" fill="#EAF3FB" fill-rule="nonzero"></path>
                            <path d="M74.76,100.91 C75.4290854,100.390916 76.3747162,100.42891 77,101 C78.24,101.86 79.24,103.26 78.74,103.45 C77.9763342,103.730216 77.1604833,103.839452 76.35,103.77 C75.5,103.69 74.77,103.91 74.29,102.19 C74.1593426,101.706834 74.3477202,101.193806 74.76,100.91 L74.76,100.91 Z" id="Shape" stroke="#52267D" stroke-width="1" fill="#FFFFFF" fill-rule="nonzero"></path>
                            <path d="M75,101.17 C75.4034862,100.826581 75.9965138,100.826581 76.4,101.17 C77.17,101.7 77.8,102.57 77.48,102.69 C77.0039945,102.865065 76.4953222,102.933344 75.99,102.89 C75.46,102.84 74.99,102.98 74.71,101.89 C74.6604888,101.614235 74.7731746,101.334463 75,101.17 L75,101.17 Z" id="Shape" stroke="none" fill="#EAF3FB" fill-rule="nonzero"></path>
                        </g>
                    </g>
                </g>
                <path d="M100.72,188.17 C101.679165,187.896115 102.582857,187.456116 103.39,186.87" id="Shape" stroke="#9ACDED" stroke-width="2" stroke-linecap="round"></path>
                <path d="M231,191 L215,191 C218.816288,178.882873 212.087127,165.966288 199.97,162.15 C187.852873,158.333712 174.936288,165.062873 171.12,177.18 C166.764961,176.196343 162.197437,177.156298 158.606836,179.809886 C155.016235,182.463475 152.757932,186.548062 152.42,191 L138.7,191 C138.167327,181.434973 130.818044,173.646423 121.3,172.56 C118.69587,159.985187 108.954177,150.109481 96.4161149,147.333797 C83.8780532,144.558114 70.8783232,149.399309 63.21,159.7 C54.3290356,157.459196 44.9210184,159.976187 38.34537,166.352203 C31.7697217,172.728219 28.963972,182.054193 30.93,191 L14.67,191" id="Shape" stroke="#9ACDED" stroke-width="2" fill="#FFFFFF" fill-rule="nonzero" stroke-linecap="round"></path>
                <path d="M219.05,85.03 L219.05,92.03" id="Shape" stroke="#375D81" stroke-width="2" stroke-linecap="round" stroke-linejoin="round"></path>
                <path d="M222.55,88.53 L215.55,88.53" id="Shape" stroke="#375D81" stroke-width="2" stroke-linecap="round" stroke-linejoin="round"></path>
                <path d="M33.28,42.7 L33.28,49.7" id="Shape" stroke="#375D81" stroke-width="2" stroke-linecap="round" stroke-linejoin="round"></path>
                <path d="M36.78,46.2 L29.78,46.2" id="Shape" stroke="#375D81" stroke-width="2" stroke-linecap="round" stroke-linejoin="round"></path>
                <path d="M156.9,0.5 L156.9,4.44" id="Shape" stroke="#375D81" stroke-linecap="round"></path>
                <path d="M158.87,2.47 L154.93,2.47" id="Shape" stroke="#375D81" stroke-linecap="round"></path>
                <path d="M19.99,129.54 L19.99,133.48" id="Shape" stroke="#375D81" stroke-linecap="round"></path>
                <path d="M21.96,131.51 L18.03,131.51" id="Shape" stroke="#375D81" stroke-linecap="round"></path>
                <path d="M196.32,130.01 L196.32,133.95" id="Shape" stroke="#375D81" stroke-linecap="round"></path>
                <path d="M198.29,131.98 L194.35,131.98" id="Shape" stroke="#375D81" stroke-linecap="round"></path>
                <path d="M142.72,140.73 C146.73981,140.725831 150.455837,142.868699 152.465759,146.34995 C154.475681,149.831201 154.473485,154.120809 152.46,157.6 L153.16,160.2 L153.97,163.2 L150.97,162.39 L148.37,161.69 C144.272382,164.048751 139.137192,163.593752 135.518145,160.551273 C131.899098,157.508794 130.568554,152.528147 132.188188,148.086192 C133.807822,143.644237 138.031979,140.688955 142.76,140.69 L142.72,140.73 Z" id="Shape" fill="#FFFFFF" fill-rule="nonzero"></path>
                <circle id="Oval" fill="#E1F2FF" fill-rule="nonzero" cx="147.68" cy="152.55" r="1.3"></circle>
                <circle id="Oval" fill="#E1F2FF" fill-rule="nonzero" cx="142.72" cy="152.55" r="1.3"></circle>
                <circle id="Oval" fill="#E1F2FF" fill-rule="nonzero" cx="137.75" cy="152.55" r="1.3"></circle>
                <path d="M178.64,121.71 L178.64,121.71 C164.701808,124.760261 150.272452,124.794357 136.32,121.81 L114.66,117.18 C100.035938,114.054094 84.9318474,113.907848 70.25,116.75 L68.56,117.08 L68.56,50.08 L68.56,50.08 C83.630658,47.0255767 99.1707971,47.1277249 114.2,50.38 L135.2,54.93 C148.671159,57.8431648 162.598896,57.9418948 176.11,55.22 L178.63,54.71 L178.64,121.71 Z" id="Shape" stroke="#375D81" stroke-width="2" fill="#FFFFFF" fill-rule="nonzero" stroke-linecap="round" stroke-linejoin="round"></path>
                <path d="M74.62,114.86 C73,115.133333 71.3833333,115.466667 69.77,115.86 L68.47,116.18 L68.47,51.36 L68.47,51.36 C70.5366667,50.8333333 72.6133333,50.4033333 74.7,50.07 C74.62,52.79 74.62,104.06 74.62,114.86 Z" id="Shape" fill="#E1F2FF" fill-rule="nonzero"></path>
                <circle id="Oval" fill="#EFEFF6" fill-rule="nonzero" cx="120.77" cy="89.59" r="17.63"></circle>
                <circle id="Oval" stroke="#375D81" stroke-width="2" fill="#FFFFFF" fill-rule="nonzero" cx="124.92" cy="86.27" r="17.63"></circle>
                <path d="M130.57,95.16 C130.65,95.39 130.72,95.55 130.74,95.6 L130.74,95.6 C130.22,90.6 133.06,88.5 133.98,85.17 C133.976151,85.1167361 133.976151,85.0632639 133.98,85.01 C133.983869,84.9333822 133.983869,84.8566178 133.98,84.78 C134.023112,83.657945 133.668998,82.5566498 132.98,81.67 L132.98,81.67 L132.8,81.39 L132.8,81.39 L132.43,80.88 L132.43,80.83 L132.32,80.69 L132.21,80.55 L132.09,80.41 L131.97,80.26 L131.88,80.16 C130.648746,78.7866758 129.270496,77.5526221 127.77,76.48 L127.77,76.48 C127.958884,78.2349322 127.958884,80.0050678 127.77,81.76 C127.485293,83.7928277 126.888252,85.7694715 126,87.62 C123.940594,87.4735555 121.916448,87.0080019 120,86.24 C118.383473,85.5160328 116.85102,84.6173511 115.43,83.56 C115.43,83.72 115.43,83.87 115.48,84.03 L115.48,84.17 C115.48,84.28 115.48,84.39 115.48,84.5 L115.48,84.65 L115.53,84.98 L115.53,85.12 L115.6,85.54 L115.6,85.54 C115.6,85.7 115.66,85.86 115.69,86.02 L115.69,86.02 L115.78,86.45 L115.78,86.54 L115.87,86.93 L115.87,87.01 L115.98,87.45 L115.98,87.45 C116.106667,87.9233333 116.243333,88.3766667 116.39,88.81 L116.39,88.81 C116.621065,89.4992258 116.908711,90.1681705 117.25,90.81 L117.39,91.06 L117.39,91.06 L117.52,91.28 L117.52,91.28 L117.67,91.5 L117.67,91.5 L117.67,91.5 L117.67,91.5 L117.87,91.77 L117.87,91.77 L117.87,91.77 L118.11,92.05 L118.28,92.23 L118.35,92.3 L118.46,92.4 L118.54,92.47 L118.64,92.55 L118.72,92.61 L118.83,92.69 L118.91,92.74 L119.03,92.81 L119.11,92.81 L119.25,92.87 L119.32,92.87 L119.53,92.94 L119.65,92.94 C123,93.82 126.26,92.42 130.34,95.35" id="Fill-7" fill="#9452BA" fill-rule="nonzero"></path>
                <path d="M147.29,101.51 L147.29,116.32" id="Shape" stroke="#E1F2FF" stroke-width="2" fill="#FFFFFF" fill-rule="nonzero" stroke-linecap="round" stroke-linejoin="round"></path>
                <path d="M92.62,69.28 L92.62,92.81" id="Shape" stroke="#E1F2FF" stroke-width="2" fill="#FFFFFF" fill-rule="nonzero" stroke-linecap="round" stroke-linejoin="round"></path>
                <path d="M72.94,177.48 C74.77,180.85 57.94,177.23 57.94,177.23 C57.94,177.23 59.58,172.93 63.75,172.55 C67.5632125,171.998967 71.2901595,173.998297 72.94,177.48 Z" id="Shape" fill="#E1F2FF" fill-rule="nonzero"></path>
                <rect id="Rectangle-path" stroke="#375D81" stroke-width="2" fill="#FFFFFF" fill-rule="nonzero" stroke-linecap="round" stroke-linejoin="round" x="63.31" y="39.59" width="4" height="150.29" rx="1.81"></rect>
                <path d="M58.52,177.07 C62.9674771,179.569956 68.3607748,179.719562 72.94,177.47" id="Shape" stroke="#9ACDED" stroke-width="2" stroke-linecap="round"></path>
                <path d="M73.75,181.23 C74.2710106,181.033006 74.7787367,180.802525 75.27,180.54" id="Shape" stroke="#9ACDED" stroke-width="2" stroke-linecap="round"></path>
            </g>
        </g>
    </g>
</svg>