<?xml version="1.0" encoding="UTF-8" standalone="no"?>
<svg width="256px" height="256px" viewBox="0 0 256 256" version="1.1" xmlns="http://www.w3.org/2000/svg" xmlns:xlink="http://www.w3.org/1999/xlink">
    <!-- Generator: Sketch 49.3 (51167) - http://www.bohemiancoding.com/sketch -->
    <title>helpcenter-using@2x</title>
    <desc>Created with Sketch.</desc>
    <defs>
        <path d="M43.8761646,35.1017557 C38.4839342,40.1069531 31.2258186,43.1731387 23.2427586,43.1731387 C14.1009721,43.1731387 5.90979262,39.1525022 0.382504635,32.8037555 L0.382504635,0.383856811 L43.8761646,0.383856811 L43.8761646,35.1017557 Z" id="path-1"></path>
        <path d="M44.911168,35.120567 C39.4703308,40.4161737 32.001485,43.6840876 23.76,43.6840876 C14.3284765,43.6840876 5.90877129,39.4045547 0.382287484,32.7040967 L0.382287484,0.383932827 L44.911168,0.383932827 L44.911168,35.120567 Z" id="path-3"></path>
        <path d="M1.05662044,0.482489051 C0.845022227,0.546592191 0.632432752,0.608456354 0.418880331,0.668053567 L0.418880331,0.482489051 L1.05662044,0.482489051 Z" id="path-5"></path>
        <path d="M45.5544462,38.2967066 C39.7831369,45.0914638 31.2301785,49.3944828 21.6843696,49.3944828 C13.348439,49.3944828 5.76944127,46.1129142 0.138852538,40.7560569 L0.138852538,0.318837434 L45.5544462,0.318837434 L45.5544462,38.2967066 Z" id="path-7"></path>
        <path d="M46.5761291,38.1970367 C40.80523,45.3472028 32.0268285,49.9117241 22.1952391,49.9117241 C13.6041931,49.9117241 5.81711965,46.4262216 0.138270023,40.7756727 L0.138270023,0.31972447 L46.5761291,0.31972447 L46.5761291,38.1970367 Z" id="path-9"></path>
        <path d="M51.962853,78.6396651 C49.3142751,79.0600145 46.5980027,79.2783735 43.8304854,79.2783735 C25.5060744,79.2783735 9.42855675,69.7060176 0.372096984,55.312276 L0.372096984,1.27291864 C0.536749375,1.01123118 0.70372248,0.751137436 0.872987609,0.492665945 L51.962853,0.492665945 L51.962853,78.6396651 Z" id="path-11"></path>
        <path d="M44.3450485,79.7904217 C25.6683307,79.7904217 9.32573472,69.8464495 0.372118871,54.9888052 L0.372119521,2.6204843 C0.806351915,1.89991863 1.2579636,1.19091071 1.72637796,0.494034285 L52.9921209,0.494034285 L52.9921209,79.0673426 C50.1811168,79.5428066 47.2921381,79.7904217 44.3450485,79.7904217 Z" id="path-13"></path>
        <rect id="path-15" x="7" y="36" width="4" height="23"></rect>
        <rect id="path-16" x="7" y="18" width="4" height="23"></rect>
        <path d="M19.4861111,14.9189189 C21.4267784,14.9189189 23,13.3216645 23,11.3513514 C23,9.38103819 21.4267784,7.78378378 19.4861111,7.78378378" id="path-17"></path>
        <path d="M5.43055556,6.48648649 C2.43134254,6.48648649 0,8.95497057 0,12 C0,15.0450294 2.43134254,17.5135135 5.43055556,17.5135135" id="path-18"></path>
        <rect id="path-19" x="5.11111111" y="6.48648649" width="3.19444444" height="11.027027"></rect>
        <polygon id="path-20" points="7.66666667 6.48648649 19.8055556 0 19.8055556 24 7.66666667 17.5135135"></polygon>
        <path d="M3,14 L18,14 C19.6568542,14 21,15.3431458 21,17 L21,31 C21,34.3137085 18.3137085,37 15,37 L6,37 C2.6862915,37 4.05812251e-16,34.3137085 0,31 L0,17 C-2.02906125e-16,15.3431458 1.34314575,14 3,14 Z" id="path-21"></path>
        <path d="M20,16 L21,16 C23.7614237,16 26,18.2385763 26,21 L26,26 C26,28.7614237 23.7614237,31 21,31 L20,31 L20,16 Z" id="path-22"></path>
        <path d="M20,18 L21,18 C22.6568542,18 24,19.3431458 24,21 L24,26 C24,27.6568542 22.6568542,29 21,29 L20,29 L20,18 Z" id="path-23"></path>
        <polygon id="path-24" points="3 22.5 6.05311888 20 9 22.5 9 29 3 29"></polygon>
    </defs>
    <g id="helpcenter-using" stroke="none" stroke-width="1" fill="none" fill-rule="evenodd">
        <g id="Group-8" transform="translate(2.000000, 44.000000)">
            <g id="Group-5" transform="translate(0.000000, 30.000000)">
                <path d="M22,161.558 C22,104.365 68.364,58 125.558,58 C182.751,58 229.116,104.365 229.116,161.558 L22,161.558 Z" id="Fill-1" fill-opacity="0.0975147192" fill="#9452BA"></path>
                <g id="Group-4">
                    <g id="Group-6" transform="translate(61.000000, 0.000000)">
                        <g id="Group-118" transform="translate(0.000000, 36.000000)">
                            <g id="Group-60" transform="translate(0.517241, 4.598540)">
                                <mask id="mask-2" fill="white">
                                    <use xlink:href="#path-1"></use>
                                </mask>
                                <g id="Clip-59"></g>
                                <path d="M43.871069,72.4060584 C40.8436552,66.3349635 36.3415862,48.7368613 38.6479655,37.0453285 L40.4738276,27.7940876 C41.0727931,24.7590511 41.3350345,21.6683212 41.2564138,18.5765693 C41.2238276,17.2889781 41.0593448,16.0345985 40.7774483,14.8267153 C40.7065862,14.5247445 40.6279655,14.2253285 40.5431379,13.9294891 C40.2876207,13.040438 39.966931,12.18 39.5877931,11.3522628 C39.461069,11.0758394 39.3281379,10.8035036 39.1879655,10.5347445 C38.9091724,9.99773723 38.6045172,9.47605839 38.2765862,8.97124088 C37.9476207,8.46591241 37.5953793,7.97744526 37.2208966,7.50788321 C36.0964138,6.09868613 34.7712414,4.85350365 33.2898621,3.81576642 C32.7964138,3.46934307 32.2848621,3.14591241 31.7577931,2.84751825 C28.8591724,1.20430657 25.4815862,0.300948905 21.8965862,0.389854015 L18.7993448,0.46649635 C13.5845172,0.595766423 8.91641379,2.8010219 5.58434483,6.26218978 C5.16796552,6.6949635 4.77227586,7.14715328 4.39882759,7.61722628 C3.72124138,8.4720438 3.12124138,9.38868613 2.60037931,10.3528467 C2.40486207,10.7151095 2.21710345,11.0814599 2.04537931,11.4570073 C1.91968966,11.7318978 1.8002069,12.0108759 1.68796552,12.2929197 C1.35072414,13.1385401 1.07503448,14.0143066 0.864517241,14.9135766 C0.654517241,15.8138686 0.510206897,16.7381752 0.437275862,17.6813869 C0.389172414,18.310365 0.372103448,18.9470073 0.388655172,19.5913139 C0.421241379,20.8753285 0.977793103,22.0249635 1.85141379,22.8455474 C2.72451724,23.6661314 3.91468966,24.1571533 5.21503448,24.1254745 L24.5500345,23.6451825 L22.0455517,40.2959854 C19.044,57.4117518 20.366069,68.7757664 23.2196897,76.3015328 C23.8564138,77.9794891 44.2455517,73.1561314 43.871069,72.4060584" id="Fill-58" fill="#D6BDE4" mask="url(#mask-2)"></path>
                            </g>
                            <g id="Group-63" transform="translate(0.000000, 4.087591)">
                                <mask id="mask-4" fill="white">
                                    <use xlink:href="#path-3"></use>
                                </mask>
                                <g id="Clip-62"></g>
                                <path d="M24.1916379,76.5550146 C24.6737069,76.7685912 27.2837069,76.7634818 34.1728448,75.3093212 C39.0468103,74.280781 42.7171552,73.2282263 43.7459483,72.7750146 C40.6761207,66.2946496 36.3711207,49.0501241 38.6578448,37.4582263 L40.4831897,28.2074964 C41.0738793,25.2153796 41.3340517,22.151219 41.2564655,19.100854 C41.225431,17.8694672 41.0687069,16.6416569 40.790431,15.4521679 C40.7216379,15.1588832 40.6456034,14.8676423 40.5628448,14.5794672 C40.3181897,13.7277153 40.0052586,12.8851606 39.6333621,12.0737737 C39.5102586,11.8050146 39.3814655,11.540854 39.245431,11.2797591 C38.9759483,10.760635 38.6780172,10.2491752 38.3583621,9.75815328 C38.0381897,9.26610949 37.6926724,8.78735036 37.3316379,8.33516058 C36.2361207,6.96172993 34.9497414,5.75384672 33.5081897,4.74318978 C33.0292241,4.40749635 32.5280172,4.09121898 32.0180172,3.80151095 C29.1121552,2.15472263 25.7930172,1.3290292 22.4268103,1.41180292 L19.3300862,1.48844526 C14.4235345,1.60954015 9.85887931,3.61143796 6.47663793,7.12523358 C6.07525862,7.54267883 5.68732759,7.98567153 5.32318966,8.44348175 C4.67405172,9.26253285 4.08543103,10.1577153 3.57387931,11.1039927 C3.35456897,11.5101971 3.18336207,11.8515109 3.03387931,12.1780073 C2.9112931,12.4452336 2.79594828,12.7165474 2.68681034,12.9904161 C2.35784483,13.8145766 2.08887931,14.6724599 1.88612069,15.5395401 C1.68025862,16.4224599 1.54008621,17.3283723 1.47025862,18.231219 C1.42318966,18.8433358 1.40715517,19.4682263 1.42267241,20.0895401 C1.45112069,21.1952336 1.91353448,22.2237737 2.72508621,22.9861095 C3.53560345,23.7484453 4.59646552,24.1689562 5.71939655,24.1255255 L25.6693966,23.6304161 L23.0743966,40.8826058 C20.4773276,55.691438 20.8543966,67.6885182 24.1916379,76.5550146 M24.9773276,77.6642847 C24.7347414,77.6642847 24.5273276,77.6530438 24.3587069,77.631073 C24.1342241,77.6019489 23.4499138,77.5120219 23.2528448,76.991365 C19.8225,67.9455255 19.4185345,55.7420219 22.0528448,40.7196131 L24.4652586,24.6824599 L5.74525862,25.1474234 C4.36112069,25.1796131 3.02353448,24.6773504 2.01181034,23.7264745 C1.00060345,22.7766204 0.42387931,21.4936277 0.388189655,20.1150876 C0.372155172,19.4600511 0.388706897,18.7999051 0.43887931,18.1530438 C0.512844828,17.1996131 0.660258621,16.2431168 0.878017241,15.3101241 C1.09215517,14.3934818 1.37715517,13.4865474 1.7237069,12.6164015 C1.83905172,12.3272044 1.96163793,12.0400511 2.09094828,11.7574964 C2.24974138,11.410562 2.4312931,11.0498321 2.66094828,10.6231898 C3.20094828,9.62428467 3.82267241,8.6790292 4.50905172,7.8129708 C4.89284483,7.32961314 5.3025,6.86158394 5.72715517,6.42063504 C9.29974138,2.71012409 14.1214655,0.595306569 19.3037069,0.466547445 L22.400431,0.389905109 C25.9735345,0.302532847 29.4618103,1.17523358 32.5326724,2.91552555 C33.0716379,3.22107299 33.6007759,3.55523358 34.1066379,3.90983212 C35.6288793,4.97618248 36.9871552,6.25253285 38.1442241,7.70260584 C38.525431,8.18034307 38.8900862,8.68618248 39.2283621,9.20581752 C39.5666379,9.72494161 39.8816379,10.2655255 40.1656034,10.8127518 C40.3088793,11.0876423 40.4459483,11.3681533 40.5762931,11.6522409 C40.9688793,12.5091022 41.2988793,13.4001971 41.5580172,14.3004891 C41.645431,14.6050146 41.7256034,14.9120949 41.7985345,15.2222409 C42.0918103,16.4786642 42.2578448,17.7749416 42.2909483,19.0747956 C42.3700862,22.1997591 42.1037069,25.3385182 41.4985345,28.4031898 L39.6731897,37.6539197 C37.385431,49.2504161 41.8290517,66.6272774 44.8523276,72.691219 C44.9475,72.8818029 44.9262931,73.1025328 44.795431,73.2828978 C43.9306034,74.4739197 29.195431,77.6637737 24.9773276,77.6642847" id="Fill-61" fill="#9452BA" mask="url(#mask-4)"></path>
                            </g>
                            <path d="M9.36186207,7.85635036 C9.36186207,7.85635036 9.59151724,4.59036496 12.8356552,3.21437956 C13.8256552,2.79437956 16.523069,2.62065693 16.523069,2.62065693 C16.523069,2.62065693 17.3692759,6.05270073 15.183931,7.13540146 C12.0385862,8.69430657 9.36186207,7.85635036 9.36186207,7.85635036" id="Fill-64" fill="#FFFFFF"></path>
                            <path d="M9.94727586,7.46312409 C10.7883103,7.60772263 12.7558966,7.76662774 14.9521034,6.67881752 C16.3398621,5.99108029 16.2255517,4.03414599 16.0983103,3.16553285 C15.1874483,3.24370803 13.6605517,3.42049635 13.0398621,3.68414599 C10.7934828,4.63706569 10.1329655,6.5960438 9.94727586,7.46312409 M11.211931,8.59436496 C10.0331379,8.59436496 9.26606897,8.36239416 9.20555172,8.34348905 L8.81762069,8.22188321 L8.84555172,7.82078832 C8.85641379,7.67465693 9.1377931,4.22728467 12.6312414,2.7450219 C13.6729655,2.30254015 16.2043448,2.12932847 16.4888276,2.11042336 L16.9222759,2.08283212 L17.0257241,2.49976642 C17.064,2.65611679 17.9402069,6.34159124 15.4155517,7.59188321 C13.8131379,8.38640876 12.3281379,8.59436496 11.211931,8.59436496" id="Fill-66" fill="#9452BA"></path>
                            <path d="M17.6342069,5.98617518 C17.6342069,5.98617518 17.6145517,1.54449635 22.6540345,0.771430657 C23.5938621,0.627343066 24.8067931,0.689167883 24.8067931,0.689167883 C24.8067931,0.689167883 27.3102414,5.29435036 24.6557586,5.81143066 C21.3935172,6.44807299 17.6342069,5.98617518 17.6342069,5.98617518" id="Fill-68" fill="#FFFFFF"></path>
                            <path d="M18.1898276,5.52810949 C19.3003448,5.62365693 22.0944828,5.79073723 24.5560345,5.30993431 C25.0034483,5.22256204 25.1565517,5.00183212 25.2325862,4.84241606 C25.6231034,4.02694161 25.0246552,2.27591971 24.4856897,1.19015328 C24.0822414,1.183 23.3384483,1.183 22.7332759,1.27650365 C19.0841379,1.8359927 18.3408621,4.45307299 18.1898276,5.52810949 M20.6984483,6.66088321 C18.9687931,6.66088321 17.6617241,6.50453285 17.5706897,6.49329197 L17.1191379,6.43759854 L17.117069,5.9879635 C17.117069,5.93993431 17.157931,1.09716058 22.575,0.266357664 C23.5562069,0.115627737 24.7825862,0.176430657 24.8337931,0.178474453 L25.1244828,0.19380292 L25.2625862,0.447744526 C25.437931,0.769642336 26.9508621,3.64270803 26.1682759,5.27876642 C25.9060345,5.82650365 25.4177586,6.18365693 24.7556897,6.31292701 C23.3798276,6.58168613 21.9310345,6.66088321 20.6984483,6.66088321" id="Fill-70" fill="#9452BA"></path>
                            <path d="M27.2187931,6.0700219 C27.2187931,6.0700219 27.8865517,1.14549635 32.3648276,2.50053285 C34.2781034,3.07943796 35.34,4.51622628 35.34,4.51622628 C35.34,4.51622628 34.4472414,8.26659124 32.6653448,7.8440365 C29.5551724,7.10673723 27.2187931,6.0700219 27.2187931,6.0700219" id="Fill-72" fill="#FFFFFF"></path>
                            <path d="M27.8077759,5.76212409 C28.5831207,6.07686861 30.4762241,6.79986131 32.7862241,7.34708759 C32.9693276,7.3910292 33.1363966,7.35986131 33.3143276,7.25205109 C34.0322586,6.81570073 34.5603621,5.38964234 34.7729483,4.64008029 C34.4367414,4.26453285 33.5450172,3.39183212 32.2136379,2.98869343 C31.0995,2.653 30.1627759,2.71584672 29.4293276,3.18132117 C28.3938103,3.83686861 27.9634655,5.12445985 27.8077759,5.76212409 M32.9403621,8.38737956 C32.8084655,8.38737956 32.676569,8.37154015 32.5446724,8.34088321 C29.4231207,7.6010292 27.1043276,6.57964234 27.006569,6.53621168 L26.6548448,6.37986131 L26.7060517,6.00227007 C26.7200172,5.89905839 27.0691552,3.46183212 28.8707069,2.32139416 C29.8710517,1.68679562 31.097431,1.58307299 32.5167414,2.01175912 C34.5707069,2.63409489 35.7101897,4.15059124 35.7577759,4.2149708 L35.8984655,4.40453285 L35.8436379,4.63292701 C35.7784655,4.90577372 35.1707069,7.32256204 33.8569138,8.12168613 C33.5672586,8.2979635 33.2558793,8.38737956 32.9403621,8.38737956" id="Fill-74" fill="#9452BA"></path>
                            <path d="M10.9686724,6.98313869 C10.9686724,6.98313869 11.0897069,5.25715328 12.8048793,4.52956204 C13.3283276,4.30781022 14.7538448,4.21532847 14.7538448,4.21532847 C14.7538448,4.21532847 15.2017759,6.02970803 14.0462586,6.60248175 C12.3833276,7.42613139 10.9686724,6.98313869 10.9686724,6.98313869" id="Fill-76" fill="#AF7FCB"></path>
                            <path d="M19.5758793,5.15440146 C19.5758793,5.15440146 19.5650172,2.69878102 22.3513966,2.27111679 C22.8707069,2.19191971 23.541569,2.22615328 23.541569,2.22615328 C23.541569,2.22615328 24.9257069,4.77221168 23.4582931,5.05834307 C21.6541552,5.40987591 19.5758793,5.15440146 19.5758793,5.15440146" id="Fill-78" fill="#AF7FCB"></path>
                            <path d="M28.9776207,5.69278832 C28.9776207,5.69278832 29.3433103,2.99906569 31.7929655,3.74045255 C32.8403793,4.05672993 33.4212414,4.84256934 33.4212414,4.84256934 C33.4212414,4.84256934 32.9324483,6.89505109 31.9579655,6.66359124 C30.2562414,6.25994161 28.9776207,5.69278832 28.9776207,5.69278832" id="Fill-80" fill="#AF7FCB"></path>
                            <path d="M40.9181379,32.7611241 C40.9181379,32.7611241 32.499,34.2832409 24.4114138,32.5189343 C23.7379655,36.8860146 23.319,40.1806131 23.319,40.1806131 C23.319,40.1806131 28.9900345,43.8109051 39.234,41.3701022 C40.3067586,35.7557956 40.9181379,32.7611241 40.9181379,32.7611241" id="Fill-82" fill="#FFFFFF"></path>
                            <path d="M23.8759655,39.905927 C25.0976897,40.5466569 30.3342414,42.8735182 38.7880345,40.9487737 C39.5194138,37.1284088 40.0309655,34.5501606 40.2657931,33.3795766 C38.0711379,33.6907445 31.379069,34.4403066 24.8406207,33.1307445 C24.3425172,36.3977518 23.9938966,39.005635 23.8759655,39.905927 M32.3509655,42.7314745 C26.4430345,42.7314745 23.2159655,40.7239562 23.0375172,40.6095036 L22.7654483,40.4352701 L22.8057931,40.1169489 C22.8094138,40.0842482 23.2335517,36.765635 23.9002759,32.4424964 L23.9830345,31.9024234 L24.5230345,32.0199416 C32.4176897,33.7423504 40.7421724,32.2738832 40.8254483,32.2585547 L41.5764828,32.1231533 L41.4254483,32.8619854 C41.4192414,32.8916204 40.8021724,35.9189927 39.7423448,41.4648321 L39.6802759,41.7892847 L39.3554483,41.866438 C36.7159655,42.4954161 34.3754483,42.7314745 32.3509655,42.7314745" id="Fill-84" fill="#9452BA"></path>
                            <path d="M26.6182241,24.6617664 L16.9499483,24.9019124 C16.8273621,20.0913285 20.6761552,16.0931533 25.5459828,15.9725693 L26.3963276,15.9516204 C28.8315,15.8913285 30.854431,17.7920584 30.9165,20.1976058 C30.9775345,22.6026423 29.0528793,24.6014745 26.6182241,24.6617664" id="Fill-86" fill="#AF7FCB"></path>
                            <path d="M25.7585172,24.5195693 L17.1117931,24.7341679 C17.0161034,20.9546788 20.0388621,17.8138759 23.8654138,17.7188394 L25.6664483,17.6743869 C27.5569655,17.6273796 29.1278276,19.103 29.1748966,20.9705182 C29.2240345,22.8824891 27.6940345,24.4715401 25.7585172,24.5195693" id="Fill-88" fill="#FFFFFF"></path>
                            <path d="M25.7544828,18.1841095 C25.7296552,18.1841095 25.7043103,18.1841095 25.6794828,18.1851314 L23.8784483,18.2300949 C22.1663793,18.2725036 20.5727586,18.9709708 19.3924138,20.1967372 C18.3315517,21.298854 17.7186207,22.7080511 17.6363793,24.2102409 L25.7451724,24.0084161 C26.5432759,23.989 27.2860345,23.6635255 27.8358621,23.0917737 C28.3867241,22.5205328 28.677931,21.7714818 28.6577586,20.9835985 C28.6386207,20.2166642 28.317931,19.5033796 27.7551724,18.9750584 C27.2105172,18.4630876 26.502931,18.1841095 25.7544828,18.1841095 Z M16.6075862,25.2576861 L16.5946552,24.7472482 C16.545,22.7826496 17.2727586,20.9166642 18.642931,19.4931606 C20.0136207,18.068635 21.8637931,17.2577591 23.852069,17.2081971 L25.6536207,17.1632336 C26.7103448,17.159146 27.7055172,17.5168102 28.4684483,18.2346934 C29.2313793,18.9510438 29.6658621,19.9182701 29.6922414,20.9575401 C29.7196552,22.018781 29.3265517,23.0268832 28.5858621,23.7958613 C27.8451724,24.5653504 26.8453448,25.0037445 25.7715517,25.0303139 L16.6075862,25.2576861 Z" id="Fill-90" fill="#9452BA"></path>
                            <path d="M19.2511034,20.7393139 C19.278,21.7949343 20.1661034,22.6293139 21.2342069,22.6022336 C22.3028276,22.5761752 23.1469655,21.6988759 23.120069,20.6437664 C23.0936897,19.588146 22.2055862,18.7537664 21.1369655,18.7803358 C20.0683448,18.8069051 19.2242069,19.6842044 19.2511034,20.7393139" id="Fill-92" fill="#52267D"></path>
                            <path d="M5.35225862,27.1780876 C5.89898276,27.0483066 6.38312069,26.7345839 6.72191379,26.2910803 L7.34984483,25.4694745 L5.91346552,25.8107883 L5.06777586,26.0126131 C4.74139655,26.0897664 4.54122414,26.413708 4.61984483,26.7356058 C4.69794828,27.0580146 5.02587931,27.2557518 5.35225862,27.1780876" id="Fill-94" fill="#9452BA"></path>
                            <path d="M27.4471552,34.0459562 C27.4471552,34.0459562 33.8842241,35.6825255 39.4952586,34.428146 C38.5352586,38.6020876 38.004569,39.9157372 38.004569,39.9157372 C38.004569,39.9157372 29.5176724,39.0118686 27.4471552,34.0459562" id="Fill-96" fill="#F6F0F9"></path>
                            <path d="M33.4120862,36.9195328 C29.4934655,36.9195328 26.9191552,36.3171241 26.7691552,36.2813577 C26.4919138,36.2149343 26.3217414,35.9385109 26.3889828,35.6646423 C26.4562241,35.3902628 26.732431,35.2190949 27.0132931,35.2885839 C27.0639828,35.3003358 32.0801897,36.468365 38.6998448,35.5225985 C38.9807069,35.4791679 39.2445,35.6748613 39.2853621,35.9543504 C39.3267414,36.2338394 39.1307069,36.4928905 38.8482931,36.5332555 C36.8589828,36.818365 35.0217414,36.9195328 33.4120862,36.9195328" id="Fill-98" fill-opacity="0.522956295" fill="#9452BA"></path>
                            <g id="Group-102" transform="translate(32.586207, 66.423358)" fill="#E1F2FF">
                                <path d="M1.95377586,1.99142336 C1.12463793,1.99142336 0.440327586,1.33587591 0.41912069,0.512737226 C0.4155,0.371715328 0.528258621,0.254708029 0.671534483,0.251131387 L0.677741379,0.251131387 C0.817913793,0.251131387 0.932741379,0.36149635 0.936362069,0.499963504 C0.950327586,1.04565693 1.40446552,1.48047445 1.95377586,1.48047445 C1.96256897,1.48047445 1.97084483,1.48047445 1.97963793,1.4799635 C2.25118966,1.47332117 2.50412069,1.36244526 2.69187931,1.16777372 C2.87912069,0.97310219 2.97843103,0.718138686 2.9717069,0.449379562 C2.96808621,0.308357664 3.08084483,0.191350365 3.22360345,0.187773723 L3.23032759,0.187773723 C3.36998276,0.187773723 3.48532759,0.298138686 3.48894828,0.436605839 C3.51015517,1.2730292 2.83877586,1.9699635 1.99256897,1.99091241 C1.97963793,1.99091241 1.96618966,1.99142336 1.95377586,1.99142336" id="Fill-100"></path>
                            </g>
                            <g id="Group-105" transform="translate(35.172414, 66.423358)" fill="#E1F2FF">
                                <path d="M1.91943103,1.9280146 C1.0902931,1.9280146 0.4065,1.27246715 0.385293103,0.449328467 C0.381672414,0.308306569 0.494431034,0.19129927 0.637189655,0.187722628 L0.643913793,0.187722628 C0.784086207,0.187722628 0.898913793,0.298087591 0.902534483,0.436554745 C0.917017241,0.990934307 1.38615517,1.45487591 1.9452931,1.41655474 C2.21684483,1.40991241 2.46977586,1.2990365 2.65753448,1.10436496 C2.84477586,0.909693431 2.94408621,0.654729927 2.93736207,0.385970803 C2.93374138,0.244948905 3.0465,0.127941606 3.18925862,0.124364964 L3.19391379,0.124364964 C3.33563793,0.124364964 3.45098276,0.234729927 3.45460345,0.37319708 C3.46443103,0.778379562 3.31443103,1.16312409 3.03201724,1.45640876 C2.74960345,1.74969343 2.36839655,1.91728467 1.95822414,1.92750365 C1.9452931,1.92750365 1.93184483,1.9280146 1.91943103,1.9280146" id="Fill-103"></path>
                            </g>
                            <g id="Group-108" transform="translate(34.137931, 67.445255)" fill="#E1F2FF">
                                <path d="M1.71031034,2.198 C0.881172414,2.198 0.196862069,1.5429635 0.175655172,0.719824818 C0.172034483,0.57880292 0.284793103,0.46179562 0.428068966,0.458218978 L0.434275862,0.458218978 C0.574448276,0.458218978 0.689275862,0.568583942 0.692896552,0.707051095 C0.706862069,1.25223358 1.161,1.68705109 1.71031034,1.68705109 C1.71910345,1.68705109 1.72737931,1.68705109 1.73617241,1.68654015 C2.00772414,1.67989781 2.26065517,1.56953285 2.44789655,1.37486131 C2.63513793,1.18018978 2.73444828,0.925226277 2.72772414,0.656467153 C2.72410345,0.515445255 2.83686207,0.398437956 2.97962069,0.394861314 L2.98634483,0.394861314 C3.126,0.394861314 3.24134483,0.505226277 3.24496552,0.643693431 C3.26617241,1.47960584 2.59531034,2.17654015 1.74910345,2.19748905 C1.73617241,2.19748905 1.72272414,2.198 1.71031034,2.198" id="Fill-106"></path>
                            </g>
                            <path d="M35.369431,28.3202628 C34.4725345,28.3202628 33.7318448,27.6110657 33.708569,26.7204818 C33.7049483,26.5794599 33.8177069,26.4619416 33.9604655,26.458365 L33.9671897,26.458365 C34.1073621,26.458365 34.2221897,26.5687299 34.2258103,26.707708 C34.2418448,27.3305547 34.7787414,27.838438 35.3983966,27.8088029 C36.0283966,27.7929635 36.528569,27.2733285 36.5130517,26.6509927 C36.509431,26.5099708 36.6227069,26.3929635 36.7649483,26.3893869 L36.7716724,26.3893869 C36.9113276,26.3893869 37.0266724,26.4997518 37.0302931,26.638219 C37.0530517,27.5425985 36.3268448,28.2967591 35.4113276,28.3197518 C35.3973621,28.3202628 35.3833966,28.3202628 35.369431,28.3202628" id="Fill-109" fill="#52267D"></path>
                            <path d="M36.8059655,29.6704453 C36.3782069,29.6704453 35.9732069,29.5110292 35.6618276,29.2182555 C35.3401034,28.9162847 35.157,28.5090584 35.1461379,28.0706642 C35.1425172,27.9296423 35.2557931,27.8121241 35.3980345,27.8085474 L35.4047586,27.8085474 C35.544931,27.8085474 35.6597586,27.9189124 35.6633793,28.0578905 C35.6711379,28.3598613 35.7968276,28.6398613 36.0187241,28.8483285 C36.2395862,29.0562847 36.5245862,29.1702263 36.8354483,29.1589854 C37.1406207,29.1513212 37.4251034,29.0266496 37.6356207,28.8079635 C37.8461379,28.5892774 37.9583793,28.302635 37.9501034,28.0006642 C37.9464828,27.8596423 38.0592414,27.742635 38.202,27.7390584 C38.3473448,27.7400803 38.4642414,27.8473796 38.4673448,27.9878905 C38.4782069,28.4257737 38.3163103,28.8421971 38.0106207,29.1600073 C37.7044138,29.4778175 37.2916552,29.6586934 36.8483793,29.6699343 C36.8344138,29.6704453 36.819931,29.6704453 36.8059655,29.6704453" id="Fill-111" fill="#52267D"></path>
                            <g id="Group-115" transform="translate(31.551724, 45.985401)">
                                <mask id="mask-6" fill="white">
                                    <use xlink:href="#path-5"></use>
                                </mask>
                                <g id="Clip-114"></g>
                                <path d="M1.85275862,2.18548175 C1.48344828,2.18548175 1.1337931,2.04752555 0.864827586,1.79511679 C0.587068966,1.5340219 0.428793103,1.18146715 0.418965517,0.802854015 C0.415344828,0.661832117 0.527586207,0.544313869 0.670862069,0.540737226 C0.834310345,0.542781022 0.932586207,0.649058394 0.936206897,0.790080292 C0.941896552,1.03227007 1.0437931,1.25810949 1.2212069,1.42467883 C1.39913793,1.59175912 1.63706897,1.68577372 1.87758621,1.6740219 C2.38344828,1.66175912 2.78534483,1.24431387 2.77241379,0.744605839 C2.7687931,0.603072993 2.88206897,0.486065693 3.02482759,0.482489051 L3.03103448,0.482489051 C3.1712069,0.482489051 3.28603448,0.592854015 3.28965517,0.731321168 C3.30931034,1.51358394 2.68189655,2.16555474 1.89051724,2.1849708 C1.87810345,2.1849708 1.86517241,2.18548175 1.85275862,2.18548175" id="Fill-113" fill="#E1F2FF" mask="url(#mask-6)"></path>
                            </g>
                            <path d="M5.01077586,22.1593942 C4.7175,22.1593942 4.43974138,22.0495401 4.22560345,21.8492482 C4.00525862,21.641292 3.87905172,21.361292 3.8712931,21.0603431 C3.86767241,20.9188102 3.98094828,20.8018029 4.12318966,20.7982263 L4.12991379,20.7982263 C4.26956897,20.7982263 4.38491379,20.9085912 4.38853448,21.0470584 C4.39267241,21.2120949 4.46146552,21.3648686 4.5825,21.4788102 C4.70301724,21.5922409 4.86439655,21.6433358 5.02784483,21.6479343 C5.19439655,21.6438467 5.34956897,21.5758905 5.46491379,21.4563285 C5.58025862,21.3372774 5.64077586,21.180927 5.63663793,21.0164015 C5.63301724,20.8748686 5.7462931,20.7578613 5.88853448,20.7542847 L5.89525862,20.7542847 C6.03491379,20.7542847 6.15025862,20.8646496 6.15387931,21.0031168 C6.16163793,21.3045766 6.04991379,21.590708 5.83991379,21.8083723 C5.62939655,22.0270584 5.34543103,22.151219 5.0412931,22.1588832 C5.03094828,22.1588832 5.02112069,22.1593942 5.01077586,22.1593942" id="Fill-116" fill="#52267D"></path>
                        </g>
                        <g id="Group-178" transform="translate(67.000000, 27.000000)">
                            <g id="Group-121" transform="translate(0.510870, 5.172414)">
                                <mask id="mask-8" fill="white">
                                    <use xlink:href="#path-7"></use>
                                </mask>
                                <g id="Clip-120"></g>
                                <path d="M0.144167391,77.3993276 C3.30491739,70.9017414 8.00645,52.0679483 5.5977,39.5553621 L3.69164565,29.6543276 C3.06685217,26.4060517 2.79251522,23.0988103 2.87476522,19.7900172 C2.90899348,18.411569 3.08013478,17.0693276 3.37490652,15.7762241 C3.44898261,15.4529483 3.53021087,15.1327759 3.61961304,14.8157069 C3.88628696,13.8650172 4.22039565,12.9438103 4.6173413,12.0577759 C4.74965652,11.762431 4.88810217,11.4707069 5.0337,11.1831207 C5.32540652,10.6084655 5.64367826,10.0498448 5.98647174,9.50932759 C6.32926522,8.96881034 6.69760217,8.44639655 7.08892826,7.94363793 C8.26290652,6.43536207 9.64583043,5.10346552 11.1927435,3.99191379 C11.7087217,3.62156897 12.2425804,3.27553448 12.792787,2.95587931 C15.8202,1.19777586 19.3462217,0.230534483 23.0903848,0.325189655 L26.3231674,0.407431034 C31.769037,0.546568966 36.6432435,2.90622414 40.1227761,6.6107069 C40.5570152,7.07363793 40.9703087,7.55777586 41.3601022,8.06053448 C42.0681674,8.97553448 42.6944935,9.95622414 43.2380587,10.9881207 C43.4424065,11.3755345 43.6390913,11.7676034 43.8178957,12.1700172 C43.9497,12.4643276 44.0738413,12.7627759 44.1913413,13.0643276 C44.5433304,13.9695 44.8319717,14.9067414 45.0506239,15.8698448 C45.2702978,16.8329483 45.4210043,17.8219138 45.496613,18.831569 C45.5477,19.5045 45.5650696,20.1862241 45.5482109,20.8757069 C45.5139826,22.2500172 44.932613,23.4805345 44.0207109,24.3582931 C43.1088087,25.236569 41.865863,25.7626034 40.5084826,25.7279483 L20.3184065,25.2138103 L22.9340587,43.0348448 C26.0682435,61.352431 24.6878739,73.5138103 21.7079717,81.5688103 C21.0438413,83.3641552 -0.246647826,78.2020862 0.144167391,77.3993276" id="Fill-119" fill="#D6BDE4" mask="url(#mask-8)"></path>
                            </g>
                            <g id="Group-124" transform="translate(0.000000, 4.655172)">
                                <mask id="mask-10" fill="white">
                                    <use xlink:href="#path-9"></use>
                                </mask>
                                <g id="Clip-123"></g>
                                <path d="M1.28264022,77.7887586 C3.76495543,79.0461724 20.1597815,82.7294483 21.7664663,81.8341034 C25.2582598,72.3385862 25.653162,59.4892759 22.9414663,43.6399655 L20.2348793,25.1987586 L41.0323793,25.7278966 C42.2145315,25.758931 43.3266946,25.3223793 44.1793359,24.501 C45.032488,23.6796207 45.5188359,22.5711724 45.5479554,21.3794483 C45.5648141,20.7142759 45.5474446,20.043931 45.4984011,19.388069 C45.4253467,18.4197931 45.279238,17.448931 45.0636511,16.5034138 C44.8531728,15.5765172 44.5711728,14.6568621 44.2268467,13.7708276 C44.112412,13.4775517 43.9918467,13.1873793 43.8636185,12.9003103 C43.708825,12.5532414 43.5289989,12.1875517 43.2980859,11.748931 C42.7626946,10.7325517 42.1470967,9.77306897 41.468662,8.89737931 C41.0921511,8.41013793 40.6860098,7.9347931 40.2635207,7.48375862 C36.7262598,3.71875862 31.9521837,1.57272414 26.8210098,1.44186207 L23.5882272,1.35962069 C20.0576076,1.26858621 16.597488,2.15565517 13.5578141,3.92151724 C13.0265098,4.23031034 12.5018467,4.57013793 11.9991511,4.93117241 C10.4910641,6.01375862 9.14645543,7.30944828 8.000575,8.781 C7.61895543,9.27134483 7.25777065,9.78496552 6.92672717,10.3063448 C6.59261848,10.833931 6.2799663,11.3822069 5.99898804,11.9372069 C5.85747717,12.2170345 5.72209674,12.5004828 5.59335761,12.7885862 C5.20611848,13.6534138 4.87916196,14.5570345 4.6216837,15.4741034 C4.534325,15.7834138 4.45565109,16.0958276 4.38361848,16.4103103 C4.09344457,17.6837586 3.92945543,18.9996207 3.89624891,20.3206552 C3.81502065,23.583931 4.08680326,26.8653103 4.7039337,30.0727241 L6.60998804,39.9737586 C9.00085761,52.3947931 4.487325,70.8846207 1.28264022,77.7887586 M20.9194446,82.9678966 C16.519325,82.9684138 1.15594457,79.5634138 0.253748913,78.291 C0.123477174,78.1073793 0.102020652,77.8823793 0.196531522,77.6884138 C3.35574891,71.1954828 7.99750978,52.5887586 5.60715109,40.1713448 L3.70109674,30.2708276 C3.06966196,26.9894483 2.79174891,23.6325517 2.87450978,20.2942759 C2.90975978,18.903931 3.08192283,17.5192759 3.3879337,16.1775517 C3.46405326,15.8449655 3.54783587,15.5165172 3.63877065,15.1911724 C3.91055326,14.2249655 4.25436848,13.2732414 4.66255326,12.3613448 C4.79844457,12.0582414 4.9404663,11.7592759 5.09015109,11.463931 C5.38594457,10.881 5.71494457,10.3027241 6.0669337,9.7472069 C6.41585761,9.19789655 6.79645543,8.65789655 7.19799891,8.14117241 C8.40416196,6.59151724 9.82080326,5.22755172 11.4075641,4.08755172 C11.9373359,3.70686207 12.4895859,3.34944828 13.048988,3.02462069 C16.2516293,1.16462069 19.8977054,0.239793103 23.6142815,0.325137931 L26.8470641,0.40737931 C32.2510424,0.545482759 37.2785098,2.80531034 41.0037707,6.771 C41.4492489,7.24582759 41.875825,7.74651724 42.2727707,8.25858621 C42.987988,9.18186207 43.6362815,10.1925517 44.1997707,11.2622069 C44.441412,11.7215172 44.6309446,12.1068621 44.7944228,12.4746207 C44.9298033,12.7761724 45.0575207,13.0823793 45.177575,13.3922069 C45.5408033,14.3258276 45.8376185,15.2941034 46.0593359,16.2706552 C46.2866728,17.2668621 46.4404446,18.2894483 46.517075,19.308931 C46.5691837,19.9999655 46.5870641,20.7054828 46.5696946,21.4053103 C46.532912,22.8737586 45.9341728,24.2392759 44.883825,25.2504828 C43.8324554,26.2622069 42.4546402,26.7913448 41.006325,26.7623793 L21.4241837,26.2637586 L23.9504337,43.4754828 C26.6984011,59.5347931 26.2774446,72.5904828 22.6972707,82.2670345 C22.4975207,82.8075517 21.7966076,82.9016897 21.5667163,82.9327241 C21.3904663,82.9565172 21.1733467,82.9678966 20.9194446,82.9678966" id="Fill-122" fill="#9452BA" mask="url(#mask-10)"></path>
                            </g>
                            <path d="M37.2291087,8.56732759 C37.2291087,8.56732759 36.989,5.07232759 33.6014239,3.59974138 C32.5679348,3.14974138 29.7515109,2.96353448 29.7515109,2.96353448 C29.7515109,2.96353448 28.8677065,6.63698276 31.1502717,7.79612069 C34.4341413,9.46422414 37.2291087,8.56732759 37.2291087,8.56732759" id="Fill-125" fill="#FFFFFF"></path>
                            <path d="M30.1712413,3.51512069 C30.0379043,4.43787931 29.9050783,6.58494828 31.378937,7.33391379 C33.7085022,8.51632759 35.7923391,8.32805172 36.6551978,8.16977586 C36.4733283,7.24960345 35.8015348,5.11908621 33.399937,4.07477586 C32.7424478,3.78874138 31.120437,3.59839655 30.1712413,3.51512069 M35.2962848,9.32787931 C34.1350783,9.32787931 32.5896978,9.10598276 30.9211978,8.25822414 C28.3050348,6.92994828 29.2154043,3.0077069 29.2552522,2.84115517 L29.3569152,2.41908621 L29.7850239,2.44753448 C30.08235,2.46718966 32.7199696,2.65339655 33.803013,3.12408621 C37.4352957,4.70374138 37.7280239,8.37563793 37.7387522,8.53132759 L37.7663391,8.93736207 L37.383187,9.06046552 C37.3208609,9.08063793 36.5228826,9.32787931 35.2962848,9.32787931" id="Fill-127" fill="#9452BA"></path>
                            <path d="M28.5917348,6.56601724 C28.5917348,6.56601724 28.6116587,1.81256897 23.3497022,0.984982759 C22.3683217,0.830844828 21.1018761,0.897051724 21.1018761,0.897051724 C21.1018761,0.897051724 18.4882674,5.82532759 21.2592239,6.3792931 C24.666213,7.05998276 28.5917348,6.56601724 28.5917348,6.56601724" id="Fill-129" fill="#FFFFFF"></path>
                            <path d="M21.4191261,1.4042069 C20.85155,2.57006897 20.2165391,4.46886207 20.6308543,5.35489655 C20.7131043,5.53075862 20.8781152,5.77541379 21.3583326,5.87162069 C23.9561043,6.39144828 26.9048435,6.20472414 28.0445935,6.10231034 C27.8959304,4.96437931 27.1357565,2.10403448 23.2715391,1.49627586 C22.6278435,1.39489655 21.8365065,1.39593103 21.4191261,1.4042069 M25.3926696,7.25834483 C24.1068109,7.25834483 22.5961696,7.17351724 21.1606261,6.88696552 C20.4791261,6.75041379 19.9764304,6.37334483 19.7066913,5.79662069 C18.8954304,4.05868966 20.4699304,0.996103448 20.6518,0.652655172 L20.7882022,0.395586207 L21.0753109,0.380586207 C21.1299739,0.379034483 22.406637,0.313862069 23.4283761,0.473689655 C29.0591804,1.3592069 29.1026043,6.51610345 29.1026043,6.56782759 L29.1005609,7.023 L28.6545717,7.07937931 C28.55955,7.09127586 27.19655,7.25834483 25.3926696,7.25834483" id="Fill-131" fill="#9452BA"></path>
                            <path d="M18.5833913,6.65544828 C18.5833913,6.65544828 17.8860543,1.3857931 13.2095543,2.83562069 C11.2115435,3.45527586 10.1029565,4.99251724 10.1029565,4.99251724 C10.1029565,4.99251724 11.0358043,9.00631034 12.8958804,8.55424138 C16.1439891,7.76544828 18.5833913,6.65544828 18.5833913,6.65544828" id="Fill-133" fill="#FFFFFF"></path>
                            <path d="M10.6629207,5.11784483 C10.8836163,5.91956897 11.4404641,7.47077586 12.2037033,7.94560345 C12.396812,8.06612069 12.5791924,8.09922414 12.7768989,8.05112069 C15.2163011,7.45836207 17.2066489,6.67681034 18.0010511,6.34422414 C17.840638,5.66456897 17.3859641,4.24732759 16.2875946,3.53663793 C15.514138,3.03698276 14.5291815,2.96715517 13.3592902,3.33025862 C11.9487793,3.76784483 11.0087793,4.71905172 10.6629207,5.11784483 M12.6098446,9.1062931 C12.2849315,9.1062931 11.9651272,9.01163793 11.6672902,8.82594828 C10.305312,7.97663793 9.6733663,5.40181034 9.60593152,5.11060345 L9.55177935,4.87939655 L9.69073587,4.6875 C9.73977935,4.61922414 10.923975,3.00336207 13.0599207,2.3412931 C14.5327576,1.88353448 15.8048228,1.99474138 16.8429098,2.6687069 C18.7121815,3.88163793 19.0754098,6.47663793 19.0897141,6.58681034 L19.1402902,6.96905172 L18.7928989,7.12732759 C18.6912359,7.17336207 16.2717576,8.26577586 13.0149641,9.05715517 C12.8800946,9.09025862 12.7442033,9.1062931 12.6098446,9.1062931" id="Fill-135" fill="#9452BA"></path>
                            <path d="M35.5513109,7.63282759 C35.5513109,7.63282759 35.4246152,5.78575862 33.6340174,5.00731034 C33.0878978,4.76937931 31.5992239,4.67058621 31.5992239,4.67058621 C31.5992239,4.67058621 31.1317783,6.61231034 32.3379413,7.22524138 C34.0738761,8.10713793 35.5513109,7.63282759 35.5513109,7.63282759" id="Fill-137" fill-opacity="0.576681386" fill="#9452BA"></path>
                            <path d="M26.5637359,5.676 C26.5637359,5.676 26.574975,3.04789655 23.6660837,2.59013793 C23.1235402,2.50531034 22.423138,2.54151724 22.423138,2.54151724 C22.423138,2.54151724 20.977888,5.26634483 22.5099859,5.57306897 C24.3940728,5.94910345 26.5637359,5.676 26.5637359,5.676" id="Fill-139" fill-opacity="0.576681386" fill="#9452BA"></path>
                            <path d="M16.7464576,6.25236207 C16.7464576,6.25236207 16.3653489,3.36874138 13.8064033,4.16218966 C12.7131424,4.50098276 12.1072511,5.34201724 12.1072511,5.34201724 C12.1072511,5.34201724 12.6170989,7.53822414 13.6347511,7.29098276 C15.4120663,6.85960345 16.7464576,6.25236207 16.7464576,6.25236207" id="Fill-141" fill-opacity="0.576681386" fill="#9452BA"></path>
                            <path d="M4.27853261,35.2213966 C4.27853261,35.2213966 13.070087,36.8496724 21.5147609,34.9622586 C22.2177174,39.6360517 22.6560435,43.1620862 22.6560435,43.1620862 C22.6560435,43.1620862 16.7340435,47.046569 6.03694565,44.4345 C4.9166087,38.4262241 4.27853261,35.2213966 4.27853261,35.2213966" id="Fill-143" fill="#FFFFFF"></path>
                            <path d="M6.47767283,44.007931 C15.3928576,46.0944828 20.8606946,43.5625862 22.1056837,42.8855172 C21.9846076,41.9394828 21.6172924,39.117931 21.0905859,35.582069 C14.2173467,36.9977586 7.17194457,36.1774138 4.92258587,35.847931 C5.16473804,37.0825862 5.70319457,39.8637931 6.47767283,44.007931 M13.2262598,45.8622414 C11.1133033,45.8622414 8.67236848,45.6103448 5.91724891,44.9368966 L5.59642283,44.8587931 L5.53511848,44.5303448 C4.42806413,38.595 3.78436848,35.3555172 3.77772717,35.3234483 L3.62906413,34.5755172 L4.37033587,34.7125862 C4.4571837,34.7291379 13.162912,36.2994828 21.4047707,34.457069 L21.9381185,34.3381034 L22.0198576,34.8843103 C22.715662,39.5115517 23.158075,43.0618966 23.1626728,43.097069 L23.2025207,43.4193103 L22.9338033,43.5956897 C22.7483576,43.7172414 19.3842815,45.8622414 13.2262598,45.8622414" id="Fill-145" fill="#9452BA"></path>
                            <path d="M19.2104837,26.5530517 L29.306288,26.8101207 C29.4340054,21.6615 25.4155054,17.3828793 20.3303098,17.253569 L19.4419076,17.2313276 C16.8998207,17.1666724 14.7868641,19.2009828 14.7230054,21.7752931 C14.6586359,24.3490862 16.6678859,26.4883966 19.2104837,26.5530517" id="Fill-147" fill-opacity="0.576681386" fill="#9452BA"></path>
                            <path d="M20.1080304,26.4010345 L29.1371391,26.6301724 C29.2372696,22.5858621 26.0800957,19.2243103 22.0850957,19.122931 L20.2040739,19.0748276 C18.2300739,19.0246552 16.5896717,20.6043103 16.5406283,22.6024138 C16.4895413,24.6486207 18.0870304,26.3493103 20.1080304,26.4010345" id="Fill-149" fill="#FFFFFF"></path>
                            <path d="M20.1209554,25.8837931 L28.6202924,26.1 C28.5405967,24.4732759 27.8963902,22.9463793 26.7765641,21.7546552 C25.5387272,20.4367241 23.8681837,19.6856897 22.0719663,19.6401724 L20.1914554,19.592069 C18.5106946,19.5465517 17.0930315,20.9053448 17.0511402,22.6158621 C17.0296837,23.4672414 17.337738,24.2762069 17.917575,24.8932759 C18.4969011,25.5103448 19.2800641,25.8625862 20.1209554,25.8837931 Z M29.6348793,27.1603448 L20.0949011,26.9182759 C17.7954772,26.8598276 15.9716728,24.9175862 16.0294011,22.5894828 C16.0855967,20.3446552 17.9073576,18.5565517 20.1132924,18.5565517 C20.1480315,18.5565517 20.1822598,18.557069 20.2169989,18.5575862 L22.0980207,18.6056897 C24.1665315,18.657931 26.091488,19.5232759 27.517325,21.0418966 C28.943162,22.5594828 29.6997598,24.5493103 29.6476511,26.6436207 L29.6348793,27.1603448 Z" id="Fill-151" fill="#9452BA"></path>
                            <path d="M26.9034641,22.3555345 C26.8748554,23.4851897 25.948138,24.3779483 24.831888,24.3489828 C23.7166598,24.3210517 22.8348989,23.3822586 22.8629967,22.2526034 C22.8910946,21.1229483 23.8183228,20.2307069 24.934062,20.2586379 C26.0492902,20.2870862 26.931562,21.2253621 26.9034641,22.3555345" id="Fill-153" fill="#52267D"></path>
                            <path d="M41.4163489,29.2463793 C40.8451967,29.1067241 40.3399467,28.7715517 39.9854033,28.2967241 L39.3304685,27.4174138 L40.8298707,27.7831034 L41.7131641,27.9982759 C42.0534033,28.0815517 42.2628598,28.4281034 42.1811207,28.7725862 C42.0988707,29.117069 41.756588,29.3291379 41.4163489,29.2463793" id="Fill-155" fill="#9452BA"></path>
                            <path d="M18.3449174,36.5963276 C18.3449174,36.5963276 11.6234065,38.3477069 5.76424348,37.0054655 C6.76656957,41.4723621 7.32086304,42.8782241 7.32086304,42.8782241 C7.32086304,42.8782241 16.1834283,41.9104655 18.3449174,36.5963276" id="Fill-157" fill="#F6F0F9"></path>
                            <path d="M12.1167022,39.6422069 C10.436963,39.6422069 8.5206913,39.5335862 6.44400652,39.228931 C6.16558261,39.188069 5.97196304,38.9258276 6.01232174,38.6428966 C6.05216957,38.3599655 6.3116913,38.1608276 6.59113696,38.2058276 C13.5103543,39.2206552 18.752387,37.9673793 18.8050065,37.9544483 C19.0829196,37.8861724 19.355213,38.0578966 19.4216261,38.3356552 C19.4880391,38.6128966 19.319963,38.8927241 19.0456261,38.9599655 C18.8898109,38.9982414 16.2041696,39.6422069 12.1167022,39.6422069" id="Fill-159" fill-opacity="0.522956295" fill="#9452BA"></path>
                            <g id="Group-163" transform="translate(9.195652, 71.379310)" fill="#E1F2FF">
                                <path d="M1.74364891,1.98408621 C1.7303663,1.98408621 1.71657283,1.98408621 1.70277935,1.98356897 C0.827148913,1.96132759 0.132877174,1.22218966 0.154844565,0.335637931 C0.157909783,0.195465517 0.271833696,0.0837413793 0.410279348,0.0837413793 L0.416409783,0.0837413793 C0.557920652,0.087362069 0.668779348,0.205810345 0.66571413,0.349086207 C0.658051087,0.639775862 0.763290217,0.917017241 0.962018478,1.12805172 C1.159725,1.33908621 1.42793152,1.45908621 1.71555109,1.46632759 C2.00010543,1.47822414 2.27699674,1.36701724 2.48492065,1.16632759 C2.6938663,0.965637931 2.81289891,0.69512069 2.81954022,0.403396552 C2.8231163,0.263224138 2.93704022,0.1515 3.074975,0.1515 L3.0816163,0.1515 C3.22312717,0.15512069 3.33398587,0.273568966 3.33040978,0.416844828 C3.32019239,0.846155172 3.14445326,1.24546552 2.83742065,1.54184483 C2.54009457,1.82736207 2.15285543,1.98408621 1.74364891,1.98408621" id="Fill-161"></path>
                            </g>
                            <g id="Group-166" transform="translate(6.641304, 71.379310)" fill="#E1F2FF">
                                <path d="M1.63340326,1.91643103 C1.62012065,1.91643103 1.60632717,1.91643103 1.5925337,1.91591379 C1.16851196,1.90556897 0.773609783,1.72763793 0.481392391,1.41625862 C0.189175,1.10539655 0.0338706522,0.697293103 0.044598913,0.267465517 C0.0476641304,0.127293103 0.161588043,0.0155689655 0.300033696,0.0155689655 L0.30616413,0.0155689655 C0.447675,0.0191896552 0.558533696,0.138155172 0.555468478,0.280913793 C0.547805435,0.571603448 0.653044565,0.848844828 0.851772826,1.05987931 C1.04999022,1.27091379 1.31768587,1.39143103 1.60530543,1.39867241 C1.89343587,1.41367241 2.16675109,1.29987931 2.374675,1.09867241 C2.58310978,0.897982759 2.70214239,0.627465517 2.7087837,0.335741379 C2.71235978,0.195568966 2.8262837,0.0838448276 2.96421848,0.0838448276 L2.97085978,0.0838448276 C3.11237065,0.0874655172 3.22322935,0.205913793 3.21965326,0.349189655 C3.20943587,0.7785 3.03420761,1.17781034 2.727175,1.47418966 C2.42933804,1.7597069 2.04260978,1.91643103 1.63340326,1.91643103" id="Fill-164"></path>
                            </g>
                            <g id="Group-169" transform="translate(7.663043, 72.413793)" fill="#E1F2FF">
                                <path d="M1.91029457,2.26494828 C1.89701196,2.26494828 1.88321848,2.26494828 1.869425,2.26443103 C1.44540326,2.25408621 1.05050109,2.07615517 0.758283696,1.76477586 C0.466577174,1.45391379 0.311272826,1.04581034 0.322001087,0.615982759 C0.325066304,0.475810345 0.438990217,0.364086207 0.57743587,0.364086207 L0.583566304,0.364086207 C0.725077174,0.367706897 0.83593587,0.486672414 0.832870652,0.629431034 C0.825207609,0.920637931 0.930446739,1.19736207 1.129175,1.40839655 C1.32688152,1.61994828 1.59457717,1.73994828 1.88219674,1.74718966 C2.17799022,1.76684483 2.44364239,1.64839655 2.6515663,1.44718966 C2.86000109,1.24598276 2.97954457,0.975465517 2.98618587,0.683741379 C2.98976196,0.543568966 3.10368587,0.431844828 3.24162065,0.431844828 L3.24570761,0.431844828 C3.38977283,0.435465517 3.50063152,0.553913793 3.49705543,0.697189655 C3.48683804,1.1265 3.31109891,1.52581034 3.0040663,1.82218966 C2.70674022,2.10822414 2.31950109,2.26494828 1.91029457,2.26494828" id="Fill-167"></path>
                            </g>
                            <path d="M10.0736837,30.4536207 C10.0593793,30.4536207 10.0440533,30.4536207 10.029238,30.4531034 C9.08208587,30.4287931 8.329575,29.6281034 8.353075,28.6686207 C8.35716196,28.5258621 8.447075,28.4141379 8.61515109,28.4167241 C8.75564022,28.4198276 8.86752065,28.5387931 8.86394457,28.6815517 C8.84759674,29.3560345 9.37634674,29.9187931 10.0420098,29.9358621 C10.3577272,29.9581034 10.671912,29.8241379 10.9058902,29.5996552 C11.1398685,29.3741379 11.2732054,29.0694828 11.2808685,28.7425862 C11.2844446,28.6003448 11.3912163,28.485 11.5429446,28.4906897 C11.6839446,28.4943103 11.7953141,28.6127586 11.791738,28.7560345 C11.7804989,29.2210345 11.5904554,29.6534483 11.2573685,29.9741379 C10.9355207,30.2844828 10.5166076,30.4536207 10.0736837,30.4536207" id="Fill-170" fill="#52267D"></path>
                            <path d="M8.5720337,31.8987414 C8.55772935,31.8987414 8.54291413,31.8987414 8.52860978,31.8982241 C8.06933804,31.8868448 7.64225109,31.6939138 7.32551196,31.3571897 C7.00877283,31.0204655 6.84069674,30.5782241 6.85244674,30.1137414 C6.85602283,29.9709828 6.97505543,29.868569 7.11401196,29.8618448 C7.25552283,29.8649483 7.36689239,29.9839138 7.3633163,30.1266724 C7.35463152,30.453569 7.47315326,30.7639138 7.69538152,31.0008103 C7.91812065,31.2377069 8.21902283,31.3727069 8.54138152,31.3809828 C8.55159891,31.3815 8.56130543,31.3815 8.5720337,31.3815 C9.22441413,31.3815 9.76389239,30.8523621 9.78024022,30.1877069 C9.7838163,30.0454655 9.91919674,29.9399483 10.0423163,29.9358103 C10.1833163,29.939431 10.2946859,30.0578793 10.2911098,30.2011552 C10.2676098,31.1461552 9.5002837,31.8987414 8.5720337,31.8987414" id="Fill-172" fill="#52267D"></path>
                            <path d="M12.1231902,51.6983793 C12.1109293,51.6983793 12.0976467,51.6978621 12.0853859,51.6978621 C11.2669728,51.6771724 10.6181685,50.9861379 10.6386033,50.1575172 C10.6421793,50.0168276 10.7555924,49.9051034 10.894038,49.9051034 L10.9001685,49.9051034 C11.0411685,49.9087241 11.1530489,50.0276897 11.1494728,50.1704483 C11.1356793,50.714069 11.5612337,51.1671724 12.0981576,51.1806207 C12.6233315,51.2168276 13.0831141,50.7626897 13.0958859,50.2201034 C13.099462,50.0794138 13.2133859,49.9676897 13.3513207,49.9676897 L13.357962,49.9676897 C13.4984511,49.9713103 13.6103315,50.0902759 13.6067554,50.2330345 C13.5863207,51.0487241 12.9242337,51.6983793 12.1231902,51.6983793" id="Fill-174" fill="#52267D"></path>
                            <path d="M41.7720674,23.8602931 C41.7613391,23.8602931 41.7516326,23.8597759 41.7409043,23.8597759 C41.0921,23.8432241 40.5771435,23.2949483 40.5934913,22.6380517 C40.5970674,22.4952931 40.7258065,22.3820172 40.8555674,22.3856379 C40.9965674,22.3892586 41.107937,22.5082241 41.1043609,22.6509828 C41.0951652,23.0228793 41.3863609,23.3327069 41.754187,23.3425345 C41.9248174,23.3456379 42.1010674,23.2820172 42.2298065,23.1573621 C42.3590565,23.0327069 42.4326217,22.8651207 42.4372196,22.6851207 C42.4407957,22.5423621 42.5485891,22.4523621 42.6987848,22.4327069 C42.8402957,22.4363276 42.9516652,22.5552931 42.9480891,22.6980517 C42.9399152,23.0161552 42.8096435,23.3120172 42.5823065,23.5318448 C42.3616109,23.7439138 42.075013,23.8602931 41.7720674,23.8602931" id="Fill-176" fill="#52267D"></path>
                        </g>
                        <g id="Group-235" transform="translate(21.000000, 0.000000)">
                            <g id="Group-181" transform="translate(0.514563, 5.632530)">
                                <mask id="mask-12" fill="white">
                                    <use xlink:href="#path-11"></use>
                                </mask>
                                <g id="Clip-180"></g>
                                <path d="M51.9568262,86.5531446 C48.3656903,79.2989578 43.0260689,58.2706747 45.762001,44.2999518 L47.926768,33.2463675 C48.6373796,29.6195301 48.9486903,25.9261265 48.8555544,22.2322108 C48.8164476,20.692994 48.6219427,19.1942289 48.2864476,17.7507651 C48.2030883,17.3902831 48.110467,17.0323614 48.0090981,16.6785361 C47.7060204,15.6170602 47.3262728,14.5883554 46.8760301,13.5985663 C46.7257777,13.2693193 46.5678068,12.9436566 46.4021175,12.6226024 C46.0712534,11.981006 45.7100301,11.3573313 45.3205058,10.7541386 C44.9309816,10.1504337 44.5126417,9.5666988 44.0680592,9.00549398 C42.7348262,7.32136747 41.1633505,5.83386747 39.4056029,4.59368675 C38.8200301,4.17995181 38.2133602,3.79386747 37.588166,3.43696988 C34.1498553,1.47377711 30.143467,0.393355422 25.8911175,0.499861446 L22.2176515,0.59203012 C16.0320883,0.746668675 10.4943602,3.38166867 6.54251553,7.51696988 C6.04853495,8.03413855 5.5792534,8.5743494 5.13672913,9.13657831 C4.33195243,10.1576024 3.62031165,11.2528735 3.00283592,12.4049819 C2.77076796,12.8376627 2.54796214,13.2759759 2.34419515,13.7245301 C2.19497184,14.0532651 2.05398155,14.3866084 1.92070971,14.7230241 C1.52037961,15.7338072 1.19311748,16.7799217 0.943554369,17.8552229 C0.694505825,18.9310361 0.523670874,20.035012 0.437224272,21.1620301 C0.380107767,21.9137169 0.360039806,22.6746205 0.379078641,23.4442289 C0.418185437,24.9788373 1.07785534,26.3526627 2.11418544,27.3332349 C3.15000097,28.3132952 4.56196214,28.9001024 6.10410777,28.8616988 L29.0392146,28.2882048 L26.0681272,48.1843494 C22.507865,68.6365783 24.0757388,82.2145602 27.4610495,91.2081747 C28.215399,93.2128434 52.4003796,87.4492289 51.9568262,86.5531446" id="Fill-179" fill="#D6BDE4" mask="url(#mask-12)"></path>
                            </g>
                            <g id="Group-184" transform="translate(0.000000, 5.120482)">
                                <mask id="mask-14" fill="white">
                                    <use xlink:href="#path-13"></use>
                                </mask>
                                <g id="Clip-183"></g>
                                <path d="M28.4366612,91.4861145 C30.0770883,92.532741 49.2023699,88.3344578 51.845166,86.9524398 C48.2066903,79.2983434 43.050768,58.6044277 45.7712631,44.7140964 L47.9365447,33.66 C48.6389233,30.0751506 48.9476612,26.4068373 48.8555544,22.7569578 C48.8179913,21.2802108 48.6312049,19.8065361 48.2998262,18.3784337 C48.2180107,18.0256325 48.1279621,17.6764157 48.0286515,17.3312952 C47.7363796,16.3056627 47.3638359,15.2933434 46.9218262,14.321988 C46.7751757,14.0004217 46.6213214,13.6824398 46.4587194,13.3685542 C46.1355738,12.7428313 45.7800107,12.1288855 45.4023214,11.5431024 C45.0236029,10.9562952 44.612467,10.3817771 44.1786903,9.83439759 C42.8742728,8.18662651 41.3413893,6.73599398 39.6227485,5.52295181 C39.0520981,5.12048193 38.4546903,4.74003012 37.8464767,4.39286145 C34.383467,2.41533133 30.4187583,1.4153012 26.4185447,1.52436747 L22.7450786,1.6160241 C16.8986126,1.76195783 11.4601951,4.165 7.43013689,8.38222892 C6.94696214,8.88710843 6.48539903,9.41963855 6.0562534,9.96445783 C5.28286505,10.9460542 4.58151553,12.0208434 3.97124369,13.1581024 C3.71087476,13.6440361 3.5065932,14.0526506 3.32752524,14.4469277 C3.18190388,14.768494 3.04400097,15.0941566 2.9138165,15.4223795 C2.52171942,16.4147289 2.20063204,17.4439458 1.9598165,18.4823795 C1.7143699,19.539759 1.54816602,20.6268373 1.4648068,21.7128916 C1.40871942,22.450753 1.38968058,23.2014157 1.40820485,23.9438855 C1.44216602,25.2915964 2.00201068,26.5456024 2.98328252,27.4739458 C3.96506893,28.4028012 5.23501068,28.8902711 6.60529223,28.8615964 L30.1527291,28.273253 L27.0921078,48.7715663 C24.0052437,66.5032831 24.4585738,80.8703313 28.4366612,91.4861145 M29.6623505,92.6520482 C29.3078165,92.6520482 28.9929039,92.6361747 28.7258456,92.6008434 C28.288467,92.5429819 27.6848845,92.4078012 27.493467,91.8998494 C23.4304767,81.1058735 22.9539913,66.5406627 26.0758456,48.609247 L28.9548262,29.3270482 L6.63153495,29.8856928 C4.9864767,29.9148795 3.45513689,29.3331928 2.27421456,28.2159036 C1.09329223,27.0991265 0.420758252,25.5911446 0.379078641,23.969488 C0.360039806,23.1921988 0.380107767,22.4072289 0.438767961,21.6355723 C0.526243689,20.4978012 0.700166019,19.3600301 0.95693301,18.2524699 C1.20906893,17.1643675 1.54507864,16.086506 1.95621456,15.0475602 C2.09257379,14.7029518 2.23716602,14.3624398 2.38999126,14.0260241 C2.57832136,13.610241 2.79237961,13.1816566 3.06355437,12.6762651 C3.70161262,11.4862651 4.43589417,10.3607831 5.24633107,9.33259036 C5.69554466,8.76216867 6.17923398,8.20506024 6.68453495,7.67611446 C10.9034379,3.26072289 16.5981078,0.74503012 22.7193505,0.591927711 L26.3923019,0.500271084 C30.6060592,0.403493976 34.7318262,1.43424699 38.3589816,3.50496988 C38.9954961,3.8685241 39.6206903,4.26638554 40.2180981,4.6878012 C42.0175252,5.95768072 43.621933,7.47641566 44.9865544,9.20048193 C45.4409136,9.7739759 45.8721175,10.3761446 46.2678165,10.9895783 C46.6640301,11.6025 47.0360592,12.2456325 47.3746417,12.9005422 C47.543933,13.2292771 47.7055058,13.5621084 47.8588456,13.8995482 C48.322467,14.916988 48.7119913,15.9769277 49.0186709,17.0506928 C49.1226126,17.4127108 49.2172922,17.7788253 49.3027097,18.1475 C49.6500398,19.6426807 49.8450592,21.1854819 49.8846806,22.7313554 C49.9783311,26.4554819 49.6629039,30.1985542 48.9461175,33.8561145 L46.7813505,44.9102108 C44.0634282,58.7887651 49.3413019,79.5835542 52.9329524,86.8392771 L52.9329524,86.8387651 C53.0291757,87.0333434 53.0070495,87.2596687 52.8737777,87.4445181 C52.1811757,88.4051205 43.731535,90.3288855 42.0447971,90.705241 C39.858933,91.1921988 33.0214184,92.6520482 29.6623505,92.6520482" id="Fill-182" fill="#9452BA" mask="url(#mask-14)"></path>
                            </g>
                            <path d="M15.0450534,4.01287048 C16.2187718,3.51106325 19.4183252,3.30317169 19.4183252,3.30317169 C19.4183252,3.30317169 20.4227524,7.40416566 17.8303835,8.69811145 C14.0987718,10.5609428 10.924432,9.55937651 10.924432,9.55937651 C10.924432,9.55937651 11.1966359,5.65756928 15.0450534,4.01287048 Z" id="Fill-185" fill="#FFFFFF"></path>
                            <path d="M11.5022864,9.16837651 C12.4506262,9.34861747 14.8788495,9.59798494 17.5998592,8.24054518 C19.3452573,7.36903916 19.1528107,4.85590663 18.9968981,3.84870783 C17.924034,3.93882831 16.016034,4.15491265 15.2477913,4.48364759 C12.456801,5.67620783 11.6978204,8.16988253 11.5022864,9.16837651 M13.1200728,10.3440392 C11.7379563,10.3440392 10.8395291,10.0700934 10.7685194,10.0475633 L10.3831117,9.92569578 L10.4108981,9.52373795 C10.422733,9.35168976 10.7520534,5.29063554 14.841801,3.54250301 C16.0824126,3.01253313 19.2505777,2.80105723 19.3843641,2.79235241 L19.815568,2.76418976 L19.917966,3.18253313 C19.962733,3.36584639 20.986199,7.6957259 18.0609078,9.15608735 C16.1755485,10.0972319 14.4301505,10.3440392 13.1200728,10.3440392" id="Fill-187" fill="#9452BA"></path>
                            <path d="M20.7362757,7.32469578 C20.7362757,7.32469578 20.7131204,2.01782831 26.6908,1.09409337 C27.8058583,0.921533133 29.2445767,0.99578012 29.2445767,0.99578012 C29.2445767,0.99578012 32.2141204,6.49825 29.0655087,7.11680422 C25.194965,7.87668373 20.7362757,7.32469578 20.7362757,7.32469578" id="Fill-189" fill="#FFFFFF"></path>
                            <path d="M21.2840282,6.86615663 C22.5287563,6.97880723 25.9536883,7.20615663 28.9659408,6.61422892 C29.4033194,6.52820482 29.6806689,6.33311446 29.8391544,6.00028313 C30.3753291,4.87121687 29.4588922,2.57058434 28.9252903,1.49733133 C28.4606398,1.48606627 27.5277369,1.48299398 26.7697854,1.60025301 C22.2550087,2.29766265 21.4332515,5.62853614 21.2840282,6.86615663 M24.3729505,8.03260241 C22.326533,8.03260241 20.7807854,7.84621687 20.6732417,7.83290361 L20.2235136,7.77709036 L20.2219699,7.32648795 C20.2219699,7.26913855 20.2698243,1.56799398 26.6118146,0.587933735 C27.7659796,0.410253012 29.2103583,0.481939759 29.2710767,0.483987952 L29.5607757,0.498837349 L29.6981641,0.753325301 C29.9034748,1.13377711 31.6776883,4.52609639 30.769999,6.43757229 C30.4725816,7.06278313 29.9178825,7.47139759 29.1645621,7.61937952 C27.5400864,7.93838554 25.8296786,8.03260241 24.3729505,8.03260241" id="Fill-191" fill="#9452BA"></path>
                            <path d="M32.1054447,7.42521084 C32.1054447,7.42521084 32.8978718,1.54075301 38.2097068,3.16036145 C40.4789301,3.85162651 41.7390951,5.5685241 41.7390951,5.5685241 C41.7390951,5.5685241 40.6796097,10.0494578 38.5668136,9.54509036 C34.8768816,8.66436747 32.1054447,7.42521084 32.1054447,7.42521084" id="Fill-193" fill="#FFFFFF"></path>
                            <path d="M32.6888049,7.11618976 C33.5579019,7.47513554 35.8600573,8.37224398 38.6865524,9.04712349 C38.9314845,9.10549699 39.1532612,9.06504518 39.3873874,8.92115964 C40.2827272,8.37326807 40.929533,6.58519578 41.1760087,5.69218373 C40.7983194,5.25899096 39.7100184,4.15296687 38.0593,3.64962349 C36.7090864,3.23947289 35.5698437,3.31935241 34.6734748,3.89028614 C33.3726592,4.72031627 32.8596398,6.37320783 32.6888049,7.11618976 M38.8985524,10.0973343 C38.7493291,10.0973343 38.5985621,10.0789006 38.4462515,10.0430572 C34.7522029,9.16131024 32.0095816,7.94365964 31.8943194,7.89245482 L31.5444165,7.73576807 L31.5953583,7.35736446 C31.6118243,7.23549699 32.0198728,4.36700301 34.1182612,3.02850904 C35.2801447,2.2875753 36.7080573,2.16775602 38.3603194,2.67058735 C40.7659019,3.40384036 42.0986204,5.19088855 42.1547078,5.26667169 L42.2941544,5.45664157 L42.2401252,5.68552711 C42.1634553,6.00760542 41.4518146,8.85817771 39.9276786,9.79317771 C39.5973291,9.99543675 39.2525718,10.0973343 38.8985524,10.0973343" id="Fill-195" fill="#9452BA"></path>
                            <path d="M12.8299107,8.51628313 C12.8299107,8.51628313 12.9739883,6.45375301 15.0080563,5.58429518 C15.6286194,5.31905422 17.3205029,5.2094759 17.3205029,5.2094759 C17.3205029,5.2094759 17.8510175,7.3769759 16.4807359,8.06107229 C14.5084155,9.04574096 12.8299107,8.51628313 12.8299107,8.51628313" id="Fill-197" fill-opacity="0.576681386" fill="#9452BA"></path>
                            <path d="M23.0397689,6.33111747 C23.0397689,6.33111747 23.0269049,3.39708133 26.3314291,2.88605723 C26.9483903,2.79132831 27.7439049,2.83229217 27.7439049,2.83229217 C27.7439049,2.83229217 29.3853612,5.87385843 27.6445942,6.21590663 C25.5050408,6.63681024 23.0397689,6.33111747 23.0397689,6.33111747" id="Fill-199" fill-opacity="0.576681386" fill="#9452BA"></path>
                            <path d="M34.1917922,6.97465964 C34.1917922,6.97465964 34.6255689,3.75541265 37.5313068,4.64125602 C38.7729476,5.01965964 39.4624621,5.95875602 39.4624621,5.95875602 C39.4624621,5.95875602 38.8825495,8.41044277 37.7268408,8.13496084 C35.7076951,7.65261145 34.1917922,6.97465964 34.1917922,6.97465964" id="Fill-201" fill-opacity="0.576681386" fill="#9452BA"></path>
                            <path d="M48.3553476,39.3186958 C48.3553476,39.3186958 38.3687068,41.1369789 28.7751922,39.0299006 C27.9765903,44.2476717 27.4795223,48.1842982 27.4795223,48.1842982 C27.4795223,48.1842982 34.2064058,52.5218584 46.357299,49.6052319 C47.6303282,42.8968886 48.3553476,39.3186958 48.3553476,39.3186958" id="Fill-203" fill="#FFFFFF"></path>
                            <path d="M28.0331408,47.9110181 C29.3859272,48.6371024 35.675432,51.5475843 45.9136942,49.1834578 C46.817267,44.4285783 47.4404029,41.2738494 47.7059175,39.9399639 C45.2550534,40.2989096 37.1198107,41.2615602 29.2017136,39.643488 C28.5898981,43.6794518 28.1653835,46.8935783 28.0331408,47.9110181 M38.1890728,51.1343614 C31.2146845,51.1343614 27.4094903,48.749753 27.1995485,48.6140602 L26.9288883,48.4394518 L26.9690243,48.1204458 C26.9736553,48.0815301 27.4758689,44.1177651 28.2667524,38.9527349 L28.3490825,38.4115 L28.8862864,38.5297831 C38.2621408,40.5887289 48.1649078,38.8329157 48.2626748,38.814994 L49.0098204,38.6793012 L48.8600825,39.4197229 C48.8523641,39.4555663 48.1206553,43.0726747 46.8630631,49.7001145 L46.8013155,50.0252651 L46.4781699,50.1025843 C43.3527136,50.853247 40.5843641,51.1343614 38.1890728,51.1343614" id="Fill-205" fill="#9452BA"></path>
                            <path d="M31.9858087,29.6262892 L19.9249641,29.9278855 L19.8946049,28.7481265 C19.7659641,23.6511988 23.8135175,19.4160482 28.9354786,19.2880361 L31.722867,19.2178855 C34.2838476,19.1538795 36.4120806,21.1677651 36.476401,23.7162289 L36.5057311,24.895988 C36.5700515,27.4439398 34.5467893,29.5617711 31.9858087,29.6262892" id="Fill-207" fill-opacity="0.576681386" fill="#9452BA"></path>
                            <path d="M30.3788282,29.4707801 L20.1168961,29.7273163 C20.0026631,25.2115633 23.5896825,21.45825 28.1276146,21.3450873 L30.258935,21.2913223 C32.5039738,21.235509 34.3697796,23.0010512 34.4263816,25.2356295 C34.4840126,27.5173163 32.6717214,29.4134307 30.3788282,29.4707801" id="Fill-209" fill="#FFFFFF"></path>
                            <path d="M30.3617447,21.8020392 C30.3313854,21.8020392 30.3020553,21.8025512 30.2716961,21.8035753 L28.1408903,21.8568283 C26.0831524,21.9080331 24.1689777,22.7534247 22.7503272,24.2378524 C21.4510553,25.5978524 20.7100845,27.3444488 20.6349583,29.2021596 L30.3658612,28.9589367 C32.3711136,28.908756 33.9621427,27.2440873 33.9117155,25.2481235 C33.8633466,23.329991 32.2795214,21.8020392 30.3617447,21.8020392 Z M19.6150942,30.2518584 L19.6022301,29.7403223 C19.5440845,27.4192078 20.3972301,25.2143283 22.0047252,23.53225 C23.612735,21.8496596 25.7826476,20.8911054 28.1146476,20.8327319 L30.2454534,20.7794789 C32.7740165,20.7144488 34.8775505,22.7093886 34.9408417,25.2225211 C35.0051621,27.782762 32.9644049,29.9185151 30.3921039,29.9830331 L19.6150942,30.2518584 Z" id="Fill-211" fill="#9452BA"></path>
                            <path d="M22.6543612,24.9538494 C22.6862641,26.2155361 23.7390602,27.2119819 25.0064291,27.180747 C26.2743126,27.148488 27.2756524,26.1003253 27.2442641,24.8391506 C27.2118466,23.5779759 26.1590505,22.5810181 24.8916816,22.6132771 C23.6243126,22.644512 22.6224583,23.6926747 22.6543612,24.9538494" id="Fill-213" fill="#52267D"></path>
                            <path d="M6.16770777,32.6475783 C6.81657184,32.4919157 7.39082427,32.1176084 7.79269806,31.5876386 L8.53727087,30.6060422 L6.83406699,31.0141446 L5.83066893,31.2542952 C5.44423204,31.3469759 5.20598932,31.7340843 5.29912524,32.1191446 C5.39226117,32.5036928 5.78127087,32.7407711 6.16770777,32.6475783" id="Fill-215" fill="#9452BA"></path>
                            <path d="M32.3767738,40.8538675 C32.3767738,40.8538675 40.0118612,42.8093795 46.6672204,41.3111265 C45.5295214,46.2979639 44.8996961,47.8679036 44.8996961,47.8679036 C44.8996961,47.8679036 34.8317544,46.7874819 32.3767738,40.8538675" id="Fill-217" fill="#F6F0F9"></path>
                            <path d="M39.4505243,44.1896566 C34.8153398,44.1896566 31.7727282,43.4722771 31.5957184,43.4292651 C31.3199126,43.3626988 31.1506214,43.0856807 31.2175146,42.8112229 C31.2844078,42.536253 31.5571262,42.3652289 31.8385922,42.4338434 C31.897767,42.4481807 37.8641262,43.8501687 45.7379709,42.7154699 C46.0184078,42.6668253 46.2798058,42.8685723 46.3209709,43.1486627 C46.3616214,43.428753 46.1666019,43.6883614 45.8856505,43.7288133 C43.5310097,44.0683012 41.3559515,44.1896566 39.4505243,44.1896566" id="Fill-219" fill-opacity="0.522956295" fill="#9452BA"></path>
                            <path d="M40.7901893,81.8722048 C39.8336165,81.8722048 39.042733,81.1102771 39.0190631,80.1537711 C39.0154612,80.0119337 39.1276359,79.8946747 39.2696553,79.8910904 L39.2763447,79.8910904 C39.4152767,79.8910904 39.5300243,80.0016928 39.5336262,80.1404578 C39.5506068,80.8296747 40.1346359,81.3939518 40.8215777,81.3596446 C41.513665,81.3422349 42.063733,80.7672048 42.0462379,80.077988 C42.0431505,79.9366627 42.1553252,79.8188916 42.2973447,79.8153072 L42.3035194,79.8153072 C42.442966,79.8153072 42.5577136,79.9259096 42.560801,80.0651867 C42.5849854,81.0365422 41.8100534,81.8471145 40.8344417,81.8716928 C40.820034,81.8722048 40.8045971,81.8722048 40.7901893,81.8722048" id="Fill-221" fill="#52267D"></path>
                            <path d="M43.8157689,81.7962169 C43.3593515,81.7962169 42.9281476,81.6246807 42.5962544,81.3107952 C42.2535553,80.9861566 42.0580214,80.5483554 42.046701,80.0782952 C42.043099,79.9364578 42.1552738,79.8191988 42.2972932,79.8156145 L42.3039825,79.8156145 C42.4429146,79.8156145 42.5576621,79.9262169 42.5612641,80.0649819 C42.5689825,80.3988373 42.7079146,80.7096506 42.9507883,80.9395602 C43.1946913,81.170494 43.5173223,81.2995301 43.8481864,81.2836566 C44.5413029,81.266247 45.0913709,80.6912169 45.0733612,80.002 C45.0702738,79.8606747 45.181934,79.7429036 45.324468,79.7393193 C45.4690602,79.7321506 45.5848369,79.8483855 45.5879243,79.9891988 C45.6126233,80.9605542 44.8382058,81.7711265 43.861565,81.7957048 C43.8461282,81.7962169 43.8306913,81.7962169 43.8157689,81.7962169" id="Fill-223" fill="#52267D"></path>
                            <path d="M42.3409282,83.3403494 C41.3848699,83.3403494 40.594501,82.5789337 40.5708311,81.6224277 C40.5672291,81.4805904 40.6794039,81.3633313 40.8214233,81.359747 L40.8281126,81.359747 C40.9670447,81.359747 41.0817922,81.4703494 41.0853942,81.6091145 C41.0936272,81.9429699 41.2325592,82.2537831 41.475433,82.4836928 C41.7188214,82.7146265 42.0440252,82.8411024 42.3728311,82.8277892 C43.0659476,82.8103795 43.615501,82.2358614 43.5974913,81.5461325 C43.5944039,81.4048072 43.7060641,81.2870361 43.8485981,81.2834518 C43.9859864,81.2778193 44.108967,81.3925181 44.1120544,81.5333313 C44.1244039,82.0044157 43.9509961,82.4514337 43.6252777,82.7924578 C43.2990447,83.1334819 42.8590932,83.3280602 42.3862097,83.3398373 C42.3712874,83.3403494 42.3558505,83.3403494 42.3409282,83.3403494" id="Fill-225" fill="#52267D"></path>
                            <path d="M41.7725932,33.9626717 C40.7357485,33.9626717 39.879001,33.136738 39.8532728,32.0993283 C39.8496709,31.958003 39.9613311,31.8402319 40.103865,31.8371596 L40.1105544,31.8371596 C40.2494864,31.8371596 40.364234,31.94725 40.3678359,32.0865271 C40.3770981,32.4598102 40.5319816,32.808003 40.8041854,33.0655633 C41.0763893,33.3231235 41.4360689,33.4690572 41.8086126,33.4501114 C42.1842437,33.4403825 42.533632,33.2867681 42.7924573,33.0153825 C43.0512825,32.744509 43.1886709,32.3901717 43.1788942,32.0163765 C43.1758068,31.8750512 43.287467,31.7572801 43.430001,31.7542078 C43.5627583,31.7465271 43.6903699,31.862762 43.6934573,32.0035753 C43.7068359,32.5140873 43.5190204,32.9984849 43.1655155,33.3686958 C42.8120107,33.7389066 42.3350107,33.9493584 41.8219913,33.9621596 C41.8050107,33.9626717 41.7890592,33.9626717 41.7725932,33.9626717" id="Fill-227" fill="#52267D"></path>
                            <path d="M43.4775466,35.5763404 C42.4407019,35.5763404 41.5839544,34.7504066 41.5582262,33.7124849 C41.5546243,33.5711596 41.6662845,33.4533886 41.8088184,33.4503163 L41.8155078,33.4503163 C41.9544398,33.4503163 42.0691874,33.5604066 42.0727893,33.6996837 C42.0923427,34.4713404 42.7514981,35.0883584 43.513566,35.0637801 C43.8891971,35.0540512 44.2385854,34.9004367 44.4974107,34.6290512 C44.7562359,34.3581777 44.8936243,34.0033283 44.8838476,33.6295331 C44.8807602,33.4882078 44.9924204,33.3704367 45.1349544,33.3673645 L45.1390709,33.3673645 C45.2805757,33.3673645 45.3953233,33.4774548 45.3984107,33.6167319 C45.425168,34.6700151 44.585401,35.5492018 43.5269447,35.5758283 C43.5099641,35.5763404 43.4940126,35.5763404 43.4775466,35.5763404" id="Fill-229" fill="#52267D"></path>
                            <path d="M39.4444524,57.6829458 C38.5516854,57.6829458 37.8143165,56.9717108 37.7911612,56.0786988 C37.7875592,55.9373735 37.899734,55.8196024 38.0417534,55.8160181 C38.1966369,55.8093614 38.3021223,55.9250843 38.3057243,56.0658976 C38.3211612,56.6905964 38.8377825,57.2098133 39.473268,57.1703855 C40.101035,57.154512 40.599132,56.633247 40.5831806,56.0085482 C40.5795786,55.8672229 40.6917534,55.7499639 40.8337728,55.7463795 C40.9855689,55.7392108 41.0941417,55.8554458 41.0977437,55.995747 C41.1085495,56.4350843 40.9474913,56.8524036 40.6428699,57.1708976 C40.3382485,57.4893916 39.9276272,57.6711687 39.486132,57.6824337 C39.4722388,57.6829458 39.4583456,57.6829458 39.4444524,57.6829458" id="Fill-231" fill="#52267D"></path>
                            <path d="M5.76470194,26.6015181 C5.06026505,26.6015181 4.47880874,26.0403133 4.46079903,25.3357349 C4.45719709,25.1944096 4.56937184,25.0766386 4.71139126,25.0735663 C4.87296408,25.0725422 4.97176019,25.1821205 4.97536214,25.3229337 C4.9856534,25.7556145 5.35562427,26.101247 5.7847699,26.0889578 C6.22060485,26.0782048 6.5658767,25.7166988 6.55455631,25.283506 C6.55095437,25.1416687 6.66312913,25.0244096 6.80514854,25.0208253 C6.95540097,25.0366988 7.06551748,25.1293795 7.06911942,25.2701928 C7.08712913,25.9860361 6.5169932,26.5830843 5.79763398,26.601006 C5.78682816,26.601006 5.77550777,26.6015181 5.76470194,26.6015181" id="Fill-233" fill="#52267D"></path>
                        </g>
                    </g>
                    <g id="Group-5-Copy" transform="translate(25.000000, 80.000000)">
                        <g id="Rectangle-8" transform="translate(9.000000, 47.500000) rotate(-27.000000) translate(-9.000000, -47.500000) ">
                            <use fill="#FFFFFF" fill-rule="evenodd" xlink:href="#path-15"></use>
                            <rect stroke="#52267D" stroke-width="1" x="7.5" y="36.5" width="3" height="22"></rect>
                        </g>
                        <g id="Rectangle-8-Copy" transform="translate(9.000000, 29.500000) rotate(36.000000) translate(-9.000000, -29.500000) ">
                            <use fill="#FFFFFF" fill-rule="evenodd" xlink:href="#path-16"></use>
                            <rect stroke="#52267D" stroke-width="1" x="7.5" y="18.5" width="3" height="22"></rect>
                        </g>
                        <g id="Group" transform="translate(18.500000, 15.000000) rotate(-13.000000) translate(-18.500000, -15.000000) translate(7.000000, 3.000000)">
                            <g id="Oval-4">
                                <use fill="#F8B43F" fill-rule="evenodd" xlink:href="#path-17"></use>
                                <path stroke="#9452BA" stroke-width="1" d="M19.9861111,14.3768753 C21.4115121,14.1345305 22.5,12.8735116 22.5,11.3513514 C22.5,9.82919113 21.4115121,8.56817223 19.9861111,8.32582738 L19.9861111,14.3768753 Z"></path>
                            </g>
                            <g id="Oval-3">
                                <use fill="#FFFFFF" fill-rule="evenodd" xlink:href="#path-18"></use>
                                <path stroke="#52267D" stroke-width="1" d="M4.93055556,7.01195742 C2.44367595,7.26671859 0.5,9.40125372 0.5,12 C0.5,14.5987463 2.44367595,16.7332814 4.93055556,16.9880426 L4.93055556,7.01195742 Z"></path>
                            </g>
                            <g id="Rectangle-9">
                                <use fill="#FFFFFF" fill-rule="evenodd" xlink:href="#path-19"></use>
                                <rect stroke="#52267D" stroke-width="1" x="5.61111111" y="6.98648649" width="2.19444444" height="10.027027"></rect>
                            </g>
                            <g id="Rectangle-9-Copy">
                                <use fill="#FFFFFF" fill-rule="evenodd" xlink:href="#path-20"></use>
                                <path stroke="#52267D" stroke-width="1" d="M8.16666667,6.786216 L8.16666667,17.213784 L19.3055556,23.1659146 L19.3055556,0.834085375 L8.16666667,6.786216 Z"></path>
                            </g>
                        </g>
                        <path d="M28,66 C28,60.4771525 22.1797017,56 15,56 C7.82029825,56 2,60.4771525 2,66" id="Oval" stroke="#52267D" fill="#FFFFFF"></path>
                        <circle id="Oval-2" stroke="#52267D" fill="#FFFFFF" cx="3.5" cy="37.5" r="3.5"></circle>
                        <circle id="Oval-2" stroke="#52267D" fill="#FFFFFF" cx="3.5" cy="37.5" r="1.5"></circle>
                    </g>
                    <g id="Group-59-Copy" transform="translate(70.000000, 78.000000)">
                        <path d="M5.95238095,66.25 C2.66547619,66.25 0,63.8185881 0,60.8178911 L0,5.43210889 C0,2.43141194 2.66547619,0 5.95238095,0 L94.047619,0 C97.3357143,0 100,2.43141194 100,5.43210889 L100,60.8178911 C100,63.8185881 97.3357143,66.25 94.047619,66.25 L5.95238095,66.25 Z" id="Fill-53" stroke="#52267D" fill="#FFFFFF"></path>
                        <path d="M6.54968309,2.58333333 C4.40514859,2.58333333 2.66666667,4.3296108 2.66666667,6.48625232 L2.66666667,60.4304143 C2.66666667,62.5859407 4.40514859,64.3333333 6.54968309,64.3333333 L19.9760445,64.3333333 C22.7230012,31.9246092 44.9449495,11.4407292 74.6666667,2.58333333 L6.54968309,2.58333333 Z" id="Fill-57" fill-opacity="0.0920516304" fill="#9452BA"></path>
                        <path d="M59.0516472,38.2175873 C59.0721593,38.1790096 59.112385,38.1344191 59.1526107,38.0898285 C59.1996737,38.0323788 59.259613,37.9817754 59.2937999,37.9174793 C59.8456805,37.2212359 60.0546949,36.1447507 59.9880689,34.8722207 C59.9715496,34.7479741 59.961069,34.6434331 59.9574258,34.5260329 C59.9425035,34.3366566 59.9215424,34.1275747 59.8877051,33.9116464 C59.8816663,33.8919408 59.8756274,33.8722351 59.876426,33.8396703 C59.8711857,33.7873998 59.8530692,33.7282829 59.8478289,33.6760125 C59.8425887,33.623742 59.8313096,33.5517659 59.8260693,33.4994954 C59.820829,33.4472249 59.8027125,33.388108 59.7974722,33.3358375 C59.7793558,33.2767207 59.7809528,33.211591 59.7628364,33.1524741 C59.7507587,33.1130628 59.7455184,33.0607923 59.7334408,33.0213811 C59.4209194,31.4036748 58.8182843,29.6482069 58.0760571,27.9999586 C57.3441086,29.6561206 56.4636845,31.2498314 55.600479,32.4073399 C54.5550599,33.814353 52.9934448,35.2602995 51.3344099,36.4235209 C49.6540161,35.2661241 48.1043309,33.831837 47.036655,32.4229127 C46.1589278,31.2469437 45.2710697,29.6862093 44.5228036,28.0182554 C44.4673061,28.1536941 44.4049712,28.301992 44.3494737,28.4374307 C44.3289615,28.4760084 44.3213256,28.5214325 44.3008135,28.5600102 C44.2658281,28.6568712 44.2111291,28.759745 44.1761437,28.856606 C44.1556316,28.8951837 44.1411583,28.953467 44.1206462,28.9920447 C44.0856607,29.0889057 44.043838,29.1986259 44.0088525,29.2954869 C43.9883404,29.3340646 43.9807045,29.3794887 43.9601924,29.4180664 C43.9115322,29.5406458 43.8560347,29.6760845 43.8202507,29.8055104 C43.7502799,29.9992324 43.6947824,30.134671 43.6453237,30.2898154 C43.5890276,30.4578189 43.5403674,30.5803984 43.5045835,30.7098242 C43.4909087,30.7355427 43.4901102,30.7681075 43.4764354,30.793826 C43.4406515,30.9232518 43.3988287,31.0329721 43.3630447,31.1623979 C43.34937,31.1881164 43.3554088,31.207822 43.341734,31.2335405 C43.2991127,31.3758255 43.2564914,31.5181106 43.2207074,31.6475365 C43.0988822,32.0940974 42.9967706,32.5346454 42.9143726,32.9691806 C42.7724843,33.7019788 42.6836979,34.3970328 42.6745644,35.0354707 C42.6721687,35.1331653 42.6766105,35.2180006 42.6742148,35.3156952 C42.6718192,35.4133897 42.6633847,35.4913787 42.6678264,35.576214 C42.6654308,35.6739086 42.6698725,35.7587439 42.6743143,35.8435793 C42.6839963,35.9806851 42.6944768,36.085226 42.7049574,36.189767 C42.7101977,36.2420375 42.7033603,36.2548967 42.7162365,36.2617431 C42.7395933,36.3731305 42.7561127,36.497377 42.7794694,36.6087644 C42.8036247,36.6875869 42.8149038,36.759563 42.8390591,36.8383855 C42.8511368,36.8777968 42.8571756,36.8975024 42.8692533,36.9369136 C42.8813309,36.9763249 42.9062848,37.0225825 42.9115251,37.074853 C42.9236027,37.1142643 42.9296415,37.1339699 42.9417192,37.1733812 C42.9537968,37.2127924 42.9658745,37.2522037 42.9908283,37.2984613 C43.0097434,37.3250133 43.021821,37.3644246 43.0278599,37.3841302 C43.0399375,37.4235415 43.0648914,37.4697991 43.0838064,37.4963511 C43.1027214,37.5229032 43.1216364,37.5494552 43.1208379,37.58202 C43.1329155,37.6214313 43.1647068,37.6548297 43.1896606,37.7010874 C43.2085756,37.7276394 43.2274907,37.7541914 43.2335295,37.773897 C43.2653207,37.8072954 43.2902746,37.8535531 43.3220658,37.8869515 C43.3281046,37.9066571 43.353857,37.9203499 43.3598959,37.9400556 C43.3977259,37.9931596 43.4484322,38.05311 43.4930996,38.0933549 C43.5248908,38.1267533 43.556682,38.1601517 43.5755971,38.1867037 C45.9381794,40.5150681 49.3710352,40.9547929 51.3702876,45.3332539 C53.3373055,40.9193821 56.6923556,40.542485 59.0516472,38.2175873 Z" id="Shape" fill="#9452BA" transform="translate(51.333293, 36.666606) rotate(-27.000000) translate(-51.333293, -36.666606) "></path>
                    </g>
                    <g id="Group-4-Copy" transform="translate(0.000000, 144.000000)" fill="#52267D">
                        <g id="Group-3">
                            <g id="Group-2">
                                <path d="M9.973,2 L1,2 C0.448,2 0,1.553 0,1 C0,0.447 0.448,0 1,0 L9.973,0 C10.526,0 10.973,0.447 10.973,1 C10.973,1.553 10.526,2 9.973,2" id="Fill-18"></path>
                                <path d="M250.973,2 L242,2 C241.448,2 241,1.553 241,1 C241,0.447 241.448,0 242,0 L250.973,0 C251.526,0 251.973,0.447 251.973,1 C251.973,1.553 251.526,2 250.973,2" id="Fill-18-Copy"></path>
                                <path d="M159.417,10.719 L92.23,10.719 C91.678,10.719 91.23,10.272 91.23,9.719 C91.23,9.166 91.678,8.719 92.23,8.719 L159.417,8.719 C159.97,8.719 160.417,9.166 160.417,9.719 C160.417,10.272 159.97,10.719 159.417,10.719" id="Fill-23"></path>
                                <path d="M177.1768,10.719 L168.0358,10.719 C167.4838,10.719 167.0358,10.272 167.0358,9.719 C167.0358,9.166 167.4838,8.719 168.0358,8.719 L177.1768,8.719 C177.7298,8.719 178.1768,9.166 178.1768,9.719 C178.1768,10.272 177.7298,10.719 177.1768,10.719" id="Fill-27"></path>
                                <path d="M79.3486,10.719 C78.8026,10.719 78.3576,10.282 78.3486,9.734 C78.3406,9.182 78.7816,8.728 79.3336,8.719 L84.3336,8.644 C84.9046,8.635 85.3396,9.076 85.3486,9.629 C85.3566,10.181 84.9156,10.635 84.3636,10.644 L79.3636,10.719 L79.3486,10.719 Z" id="Fill-31"></path>
                                <path d="M235.894,2 L18,2 C17.448,2 17,1.553 17,1 C17,0.447 17.448,0 18,0 L235.894,0 C236.447,0 236.894,0.447 236.894,1 C236.894,1.553 236.447,2 235.894,2" id="Fill-47"></path>
                            </g>
                        </g>
                    </g>
                    <g id="Group-7" transform="translate(175.000000, 108.000000)">
                        <g id="Rectangle">
                            <use fill="#FFFFFF" fill-rule="evenodd" xlink:href="#path-21"></use>
                            <path stroke="#52267D" stroke-width="1" d="M3,14.5 C1.61928813,14.5 0.5,15.6192881 0.5,17 L0.5,31 C0.5,34.0375661 2.96243388,36.5 6,36.5 L15,36.5 C18.0375661,36.5 20.5,34.0375661 20.5,31 L20.5,17 C20.5,15.6192881 19.3807119,14.5 18,14.5 L3,14.5 Z"></path>
                        </g>
                        <path d="M13,17 L16.3333333,17 C17.2538079,17 18,17.6715729 18,18.5 L18,22" id="Rectangle-7" stroke="#9452BA"></path>
                        <g id="Rectangle-10">
                            <use fill="#FFFFFF" fill-rule="evenodd" xlink:href="#path-22"></use>
                            <path stroke="#52267D" stroke-width="1" d="M20.5,16.5 L20.5,30.5 L21,30.5 C23.4852814,30.5 25.5,28.4852814 25.5,26 L25.5,21 C25.5,18.5147186 23.4852814,16.5 21,16.5 L20.5,16.5 Z"></path>
                        </g>
                        <g id="Rectangle-10">
                            <use fill="#E2D0EC" fill-rule="evenodd" xlink:href="#path-23"></use>
                            <path stroke="#52267D" stroke-width="1" d="M20.5,18.5 L20.5,28.5 L21,28.5 C22.3807119,28.5 23.5,27.3807119 23.5,26 L23.5,21 C23.5,19.6192881 22.3807119,18.5 21,18.5 L20.5,18.5 Z"></path>
                        </g>
                        <g id="Rectangle-11">
                            <use fill="#EFEFF6" fill-rule="evenodd" xlink:href="#path-24"></use>
                            <path stroke="#9452BA" stroke-width="1" d="M3.5,22.7368199 L3.5,28.5 L8.5,28.5 L8.5,22.7315104 L6.0474504,20.6508788 L3.5,22.7368199 Z"></path>
                        </g>
                        <path d="M6,20.75 L6,14.25" id="Line" stroke="#9452BA" stroke-linecap="square"></path>
                        <path d="M7.04186456,3.90213097 C7.92414805,3.08359148 9.24352653,2.82207219 11,3.1175731 C9.47692557,3.94709426 8.62860426,4.64563735 8.45503605,5.21320239 C7.9068099,7.00589243 8.80867922,7.93944818 7.45149218,9.2674242 C6.58904075,10.1113129 5.43854336,10.2261151 4,9.61183087 C5.31380817,8.98755368 6.06249707,8.38140453 6.24606667,7.79338344 C6.78121955,6.0791499 6.45932007,4.44258726 7.04186456,3.90213097 Z" id="Rectangle-12" fill="#9452BA" transform="translate(7.500000, 6.500000) rotate(-45.000000) translate(-7.500000, -6.500000) "></path>
                        <path d="M12.4764166,3.15988267 C13.4847406,2.10747476 14.9926018,1.77123567 17,2.15116542 C15.2593435,3.21769261 14.2898334,4.11581945 14.0914698,4.84554593 C13.4649256,7.15043313 14.4956334,8.35071909 12.9445625,10.0581168 C11.9589037,11.1431166 10.6440496,11.2907195 9,10.5009254 C10.5014951,9.6982833 11.3571395,8.91894869 11.5669333,8.16292157 C12.1785366,5.95890702 11.8106515,3.85475505 12.4764166,3.15988267 Z" id="Rectangle-12-Copy" fill="#9452BA" transform="translate(13.000000, 6.500000) rotate(-45.000000) translate(-13.000000, -6.500000) "></path>
                    </g>
                </g>
            </g>
            <g id="Group-9" transform="translate(16.000000, 0.000000)">
                <path d="M216.6992,130.9653 L216.6992,134.9033 C216.6992,135.179442 216.923058,135.4033 217.1992,135.4033 C217.475342,135.4033 217.6992,135.179442 217.6992,134.9033 L217.6992,130.9653 C217.6992,130.689158 217.475342,130.4653 217.1992,130.4653 C216.923058,130.4653 216.6992,130.689158 216.6992,130.9653 Z" id="Stroke-11" fill="#52267D" fill-rule="nonzero"></path>
                <path d="M219.168,132.434 L215.23,132.434 C214.953858,132.434 214.73,132.657858 214.73,132.934 C214.73,133.210142 214.953858,133.434 215.23,133.434 L219.168,133.434 C219.444142,133.434 219.668,133.210142 219.668,132.934 C219.668,132.657858 219.444142,132.434 219.168,132.434 Z" id="Stroke-13" fill="#52267D" fill-rule="nonzero"></path>
                <path d="M206.3672,67.143 L206.3672,71.081 C206.3672,71.3571424 206.591058,71.581 206.8672,71.581 C207.143342,71.581 207.3672,71.3571424 207.3672,71.081 L207.3672,67.143 C207.3672,66.8668576 207.143342,66.643 206.8672,66.643 C206.591058,66.643 206.3672,66.8668576 206.3672,67.143 Z" id="Stroke-17" fill="#52267D" fill-rule="nonzero"></path>
                <path d="M208.8359,68.6118 L204.8979,68.6118 C204.621758,68.6118 204.3979,68.8356576 204.3979,69.1118 C204.3979,69.3879424 204.621758,69.6118 204.8979,69.6118 L208.8359,69.6118 C209.112042,69.6118 209.3359,69.3879424 209.3359,69.1118 C209.3359,68.8356576 209.112042,68.6118 208.8359,68.6118 Z" id="Stroke-21" fill="#52267D" fill-rule="nonzero"></path>
                <path d="M171.8467,9.0004 C171.2937,9.0004 170.8467,8.5534 170.8467,8.0004 L170.8467,1.0004 C170.8467,0.4474 171.2937,0.0004 171.8467,0.0004 C172.3997,0.0004 172.8467,0.4474 172.8467,1.0004 L172.8467,8.0004 C172.8467,8.5534 172.3997,9.0004 171.8467,9.0004" id="Fill-404" fill="#52267D"></path>
                <path d="M175.3467,5.5004 L168.3467,5.5004 C167.7937,5.5004 167.3467,5.0534 167.3467,4.5004 C167.3467,3.9474 167.7937,3.5004 168.3467,3.5004 L175.3467,3.5004 C175.8997,3.5004 176.3467,3.9474 176.3467,4.5004 C176.3467,5.0534 175.8997,5.5004 175.3467,5.5004" id="Fill-405" fill="#52267D"></path>
                <path d="M25.8262,39.1323 C25.2732,39.1323 24.8262,38.6853 24.8262,38.1323 L24.8262,31.1323 C24.8262,30.5793 25.2732,30.1323 25.8262,30.1323 C26.3792,30.1323 26.8262,30.5793 26.8262,31.1323 L26.8262,38.1323 C26.8262,38.6853 26.3792,39.1323 25.8262,39.1323" id="Fill-406" fill="#52267D"></path>
                <path d="M29.3262,35.6323 L22.3262,35.6323 C21.7732,35.6323 21.3262,35.1853 21.3262,34.6323 C21.3262,34.0793 21.7732,33.6323 22.3262,33.6323 L29.3262,33.6323 C29.8792,33.6323 30.3262,34.0793 30.3262,34.6323 C30.3262,35.1853 29.8792,35.6323 29.3262,35.6323" id="Fill-407" fill="#52267D"></path>
                <path d="M66.5264,43.601 C66.2504,43.601 66.0264,43.377 66.0264,43.101 L66.0264,39.164 C66.0264,38.887 66.2504,38.664 66.5264,38.664 C66.8024,38.664 67.0264,38.887 67.0264,39.164 L67.0264,43.101 C67.0264,43.377 66.8024,43.601 66.5264,43.601" id="Fill-408" fill="#52267D"></path>
                <path d="M68.4951,41.6323 L64.5571,41.6323 C64.2811,41.6323 64.0581,41.4083 64.0581,41.1323 C64.0581,40.8563 64.2811,40.6323 64.5571,40.6323 L68.4951,40.6323 C68.7711,40.6323 68.9951,40.8563 68.9951,41.1323 C68.9951,41.4083 68.7711,41.6323 68.4951,41.6323" id="Fill-409" fill="#52267D"></path>
                <path d="M3.4092,156.3813 C3.1332,156.3813 2.9092,156.1573 2.9092,155.8813 L2.9092,151.9443 C2.9092,151.6673 3.1332,151.4443 3.4092,151.4443 C3.6852,151.4443 3.9092,151.6673 3.9092,151.9443 L3.9092,155.8813 C3.9092,156.1573 3.6852,156.3813 3.4092,156.3813" id="Fill-410" fill="#9452BA"></path>
                <path d="M5.3779,154.4125 L1.4399,154.4125 C1.1639,154.4125 0.9409,154.1885 0.9409,153.9125 C0.9409,153.6365 1.1639,153.4125 1.4399,153.4125 L5.3779,153.4125 C5.6539,153.4125 5.8779,153.6365 5.8779,153.9125 C5.8779,154.1885 5.6539,154.4125 5.3779,154.4125" id="Fill-411" fill="#9452BA"></path>
            </g>
        </g>
    </g>
</svg>