<svg width="326" height="232" xmlns="http://www.w3.org/2000/svg">
    <g id="Page-1" fill="none" fill-rule="evenodd">
        <g id="tools_1_6">
            <g id="Group-19" transform="rotate(-60 147.98 -144.35)">
                <path d="M16.84 16.48C14.24 11.45.52 1.53.52 1.53" id="Shape" stroke="#9ACDED" stroke-width="2"/>
                <path d="M29.4 57.3H3.45c-.3 0-.53-.26-.53-.58V26a3 3 0 0 1 .8-2.05l11.53-12.33a1.57 1.57 0 0 1 2.33 0l11.54 12.33a3 3 0 0 1 .8 2.05v30.72a.6.6 0 0 1-.15.41c-.1.1-.24.17-.39.17z" id="Shape" stroke="#375D81" stroke-width="2" fill="#FFF" fill-rule="nonzero"/>
                <ellipse id="Oval" stroke="#375D81" fill="#FFF" fill-rule="nonzero" cx="17.13" cy="18.35" rx="2.13" ry="2.35"/>
                <path d="M1.5.13S2.06 2.8 2.82 3.7c1.5 1.82 3.5 3.68 5.35 6.87 3.28 5.65 5.21 11.12 8.12 8.1.39-.41.64-1.3.18-2.05" id="Shape" stroke="#9ACDED" stroke-width="2"/>
            </g>
            <ellipse id="Oval-3" fill="#E1F2FF" cx="164" cy="130.5" rx="86" ry="82.5"/>
            <g id="Group-4" transform="translate(73 20)" stroke="#375D81" stroke-linecap="round">
                <g id="Group-2">
                    <path d="M137.93 147.21V153M140.52 150.52h-6.04M45.69 0v5.79M49.14 3.3H43.1" id="Shape" stroke-width="2" stroke-linejoin="round"/>
                    <path d="M99.14 5.79v3.26M100.81 7.44h-3.4" id="Shape"/>
                    <path d="M173.28 75.26v3.26M174.95 76.91h-3.4" id="Shape" stroke-linejoin="round"/>
                    <path d="M1.72 35.56v3.26M3.4 37.22H0" id="Shape"/>
                    <path d="M9.48 131.5v6.71M13.04 134.8h-7" id="Shape" stroke-width="2" fill="#FFF" fill-rule="nonzero"/>
                </g>
            </g>
            <g id="Group-9" transform="rotate(-27 241.71 -115.98)" stroke="#375D81" stroke-width="2">
                <path d="M159.96.98C172.69.98.13 104.42.13 99.12V.98c0-.98 147.1 0 159.83 0zM80.38 24.7c-.04 0-55.53.13-55.93 0-.4-.14-.48 32.58 0 32.58S80.42 24.7 80.38 24.7z" id="Combined-Shape" fill="#FFF"/>
                <path d="M6.89.98v9.22" id="Stroke-228"/>
                <path d="M11.2.98v6.03" id="Stroke-230"/>
                <path d="M16.36.98v6.03" id="Stroke-232"/>
                <path d="M20.66.98v6.03" id="Stroke-234"/>
                <path d="M24.97.98v6.03" id="Stroke-236"/>
                <path d="M29.27.98v9.22" id="Stroke-238"/>
                <path d="M34.44.98v6.03" id="Stroke-240"/>
                <path d="M38.74.98v6.03" id="Stroke-242"/>
                <path d="M43.05.98v6.03" id="Stroke-244"/>
                <path d="M48.21.98v6.03" id="Stroke-246"/>
                <path d="M52.52.98v9.22" id="Stroke-248"/>
                <path d="M56.82.98v6.03" id="Stroke-250"/>
                <path d="M61.99.98v6.03" id="Stroke-252"/>
                <path d="M66.3.98v6.03" id="Stroke-254"/>
                <path d="M70.6.98v6.03" id="Stroke-256"/>
                <path d="M74.9.98v9.22" id="Stroke-258"/>
                <path d="M80.07.98v6.03" id="Stroke-260"/>
                <path d="M84.37.98v6.03" id="Stroke-262"/>
                <path d="M88.68.98v6.03" id="Stroke-264"/>
                <path d="M93.84.98v6.03" id="Stroke-266"/>
                <path d="M98.15.98v9.22" id="Stroke-268"/>
                <path d="M102.45.98v6.03" id="Stroke-270"/>
                <path d="M107.62.98v6.03" id="Stroke-272"/>
                <path d="M111.93.98v6.03" id="Stroke-274"/>
                <path d="M116.23.98v6.03" id="Stroke-276"/>
                <path d="M120.53.98v9.22" id="Stroke-278"/>
                <path d="M124.84.98v6.03" id="Stroke-280"/>
                <path d="M130 .98v6.03" id="Stroke-282"/>
                <path d="M134.31.98v6.03" id="Stroke-284"/>
                <path d="M139.48.98v6.03" id="Stroke-286"/>
            </g>
            <g id="Group-2" transform="translate(140 105)">
                <path d="M99 50.93V40.3l-8.56-.64a28.93 28.93 0 0 0-4.56-10.48l5.59-6.24-7.88-7.52-6.54 5.33c-3.28-2.07-6.99-3.57-10.98-4.35l-.66-8.17H54.26l-.67 8.17c-4 .78-7.7 2.28-10.98 4.35l-6.53-5.33-7.89 7.52 5.59 6.24a28.93 28.93 0 0 0-4.56 10.48l-8.56.64v10.64l8.56.64c.81 3.8 2.39 7.35 4.56 10.48l-5.59 6.24 7.89 7.52 6.53-5.33c3.28 2.07 6.99 3.57 10.98 4.34l.67 8.18H65.4l.66-8.18c4-.77 7.7-2.27 10.98-4.34l6.54 5.33 7.88-7.52-5.59-6.24a28.93 28.93 0 0 0 4.56-10.48l8.56-.64z" id="Stroke-294" stroke="#375D81" stroke-width="2" fill="#FFF"/>
                <path d="M70.6 46.84c0 6.8-5.79 12.33-12.92 12.33s-12.91-5.52-12.91-12.33c0-6.8 5.78-12.33 12.9-12.33 7.14 0 12.92 5.52 12.92 12.33z" id="Stroke-288" fill="#F1F4F9"/>
                <path d="M73.17 46.02c0 6.8-5.78 12.33-12.9 12.33-7.14 0-12.92-5.52-12.92-12.33 0-6.8 5.78-12.33 12.91-12.33s12.91 5.52 12.91 12.33z" id="Stroke-288" stroke="#375D81" stroke-width="2" fill="#FFF"/>
                <path d="M42.18 40.08a19.08 19.08 0 0 1 17.93-12.14c10.54 0 19.09 8.31 19.09 18.57 0 5.75-2.7 10.9-6.93 14.3" id="Stroke-290" stroke="#9ACDED" stroke-width="2"/>
                <path d="M85.23 54.58a25.3 25.3 0 0 1-23.76 16.1c-13.98 0-25.31-11.02-25.31-24.6 0-7.63 3.57-14.45 9.18-18.96" id="Stroke-292" stroke="#9ACDED" stroke-width="2"/>
                <path d="M42.18 23.47v-5.85l-4.6-.35a16.06 16.06 0 0 0-2.46-5.76l3-3.42-4.24-4.14-3.51 2.93a16.95 16.95 0 0 0-5.92-2.39L24.1 0h-6l-.36 4.5a16.95 16.95 0 0 0-5.91 2.38L8.3 3.95 4.06 8.09l3 3.42a16.06 16.06 0 0 0-2.45 5.76L0 17.62v5.85l4.61.35c.44 2.1 1.28 4.04 2.45 5.76l-3 3.42 4.24 4.14 3.52-2.93a16.96 16.96 0 0 0 5.91 2.39l.36 4.49h6l.36-4.5a16.96 16.96 0 0 0 5.92-2.38l3.51 2.93L38.13 33l-3.01-3.42a16.06 16.06 0 0 0 2.45-5.76l4.61-.35z" id="Fill-296" fill="#FFF"/>
                <path d="M42.18 23.47v-5.85l-4.6-.35a16.06 16.06 0 0 0-2.46-5.76l3-3.42-4.24-4.14-3.51 2.93a16.95 16.95 0 0 0-5.92-2.39L24.1 0h-6l-.36 4.5a16.95 16.95 0 0 0-5.91 2.38L8.3 3.95 4.06 8.09l3 3.42a16.06 16.06 0 0 0-2.45 5.76L0 17.62v5.85l4.61.35c.44 2.1 1.28 4.04 2.45 5.76l-3 3.42 4.24 4.14 3.52-2.93a16.96 16.96 0 0 0 5.91 2.39l.36 4.49h6l.36-4.5a16.96 16.96 0 0 0 5.92-2.38l3.51 2.93L38.13 33l-3.01-3.42a16.06 16.06 0 0 0 2.45-5.76l4.61-.35z" id="Stroke-298" stroke="#375D81" stroke-width="2"/>
                <path d="M25.83 23.01c0 3.63-3.09 6.57-6.9 6.57-3.8 0-6.88-2.94-6.88-6.57 0-3.63 3.09-6.57 6.89-6.57s6.89 2.94 6.89 6.57z" id="Stroke-302" fill="#F1F4F9"/>
                <path d="M27.55 20.54c0 3.64-3.09 6.58-6.89 6.58s-6.89-2.94-6.89-6.58c0-3.63 3.09-6.57 6.9-6.57 3.8 0 6.88 2.94 6.88 6.57z" id="Stroke-302" stroke="#9ACDED" stroke-width="2" fill="#FFF"/>
                <path d="M11.2 17.06c1.5-3.72 5.4-6.38 10-6.38 5.88 0 10.65 4.37 10.65 9.75 0 3.02-1.5 5.72-3.86 7.51" id="Stroke-304" stroke="#9ACDED" stroke-width="2"/>
            </g>
            <path d="M180.36 200.08c-6.18-1.43-12.24-4.95-18.2-10.56-5.95-5.61-9.34-10.78-10.16-15.52M180.65 205.54a53.73 53.73 0 0 1-10.69-3.24A42.57 42.57 0 0 1 161 197M209 101c6.35.17 13.05 2.4 20.09 6.7 7.04 4.3 11.47 8.69 13.3 13.16M205 93c4.07.27 7.75.86 11.05 1.79 3.3.92 6.51 2.27 9.65 4.05" id="Shape" stroke="#375D81" stroke-width="2" stroke-linecap="round" stroke-linejoin="round" fill-rule="nonzero"/>
            <text id="1.6" transform="rotate(30.5 242.27 59.45)" font-family="Lato-Heavy, Lato" font-size="14" font-weight="600" fill="#9452BA">
                <tspan x="232.45" y="65.95">1.5</tspan>
            </text>
        </g>
    </g>
</svg>
