<?xml version="1.0" encoding="UTF-8"?>
<svg width="256px" height="256px" viewBox="0 0 256 256" version="1.1" xmlns="http://www.w3.org/2000/svg" xmlns:xlink="http://www.w3.org/1999/xlink">
    <!-- Generator: Sketch 46.2 (44496) - http://www.bohemiancoding.com/sketch -->
    <title>illustration-views</title>
    <desc>Created with Sketch.</desc>
    <defs></defs>
    <g id="256x256" stroke="none" stroke-width="1" fill="none" fill-rule="evenodd">
        <g id="illustration-views">
            <g id="Views" transform="translate(3.000000, 30.000000)">
                <path d="M20.2,195.53 C20.2000012,138.335392 66.5653922,91.9700022 123.76,91.9700022 C180.954608,91.9700022 227.319999,138.335392 227.32,195.53 L20.2,195.53 Z" id="Shape" fill="#E1F2FF" fill-rule="nonzero"></path>
                <path d="M16.98,186.53 L52.98,186.53" id="Shape" stroke="#375D81" stroke-width="2" fill="#FFFFFF" fill-rule="nonzero" stroke-linecap="round" stroke-linejoin="round"></path>
                <path d="M192.32,186.53 L236.32,186.53" id="Shape" stroke="#375D81" stroke-width="2" fill="#FFFFFF" fill-rule="nonzero" stroke-linecap="round" stroke-linejoin="round"></path>
                <path d="M162.22,186.16 L167.22,186.16 C168.936421,186.164453 170.480238,185.116722 171.11,183.52 C172.88,178.97 172.44,174.79 172.65,171.21 C173.04,164.58 172.01,161.21 171.02,155.65 L163.55,155.82 C163.55,155.82 164.19,158.57 164.61,166.82 C164.74,169.38 160.52,179.64 160.72,184.67 C160.741236,185.487818 161.402058,186.144235 162.22,186.16 L162.22,186.16 Z" id="Shape" stroke="#52267D" fill="#9452BA" fill-rule="nonzero"></path>
                <path d="M147.73,162.49 L141.73,155.67 L138.02,155.82 C138.02,155.82 137.5,161.49 137.29,163.82 C136.619804,169.223456 135.556993,174.570932 134.11,179.82 C133.785612,180.880054 133.584287,181.973916 133.51,183.08 C133.493488,183.880597 133.804253,184.653291 134.370481,185.219519 C134.936709,185.785747 135.709403,186.096512 136.51,186.08 L140.92,186.08 C143.490301,186.092264 145.743775,184.365149 146.4,181.88 C148.32,174.2 147.73,162.49 147.73,162.49 Z" id="Shape" stroke="#52267D" fill="#9452BA" fill-rule="nonzero"></path>
                <polyline id="Shape" stroke="#52267D" stroke-width="0.25" points="139.28 167.19 138.28 168.06 139.23 168.92 140.78 168.32 140.47 167.64 139.19 167.95 139.2 168.18 139.53 168.16"></polyline>
                <path d="M139.31,137.1 C143.69,137.01 147.79,133.99 156.73,133.58 C156.839077,133.050956 157.003308,132.534803 157.22,132.04 C158.84,128.54 161.12,118.45 159.65,111.82 L158.49,106.57 C158.110332,104.849206 157.919205,103.09218 157.92,101.33 L157.92,101.33 C157.92112,100.61108 157.994827,99.8941106 158.14,99.19 C158.173333,99.0166667 158.213333,98.8466667 158.26,98.68 C158.389898,98.1749986 158.557022,97.680312 158.76,97.2 C158.826667,97.04 158.896667,96.8833333 158.97,96.73 C159.116667,96.4233333 159.28,96.1233333 159.46,95.83 C159.64,95.5366667 159.82,95.26 160,95 C160.612991,94.1804015 161.340402,93.4529906 162.16,92.84 C162.433333,92.6333333 162.716667,92.4433333 163.01,92.27 C164.673495,91.2591014 166.583434,90.7262562 168.53,90.73 L170.27,90.73 C173.092048,90.7275072 175.798593,91.8504355 177.79,93.85 C178.03,94.09 178.26,94.3433333 178.48,94.61 C178.873808,95.0885094 179.225139,95.6004485 179.53,96.14 C179.65,96.34 179.76,96.55 179.86,96.76 C179.96,96.97 180.01,97.07 180.07,97.23 C180.480793,98.2020305 180.743708,99.2300972 180.85,100.28 C180.88509,100.642254 180.901778,101.006055 180.9,101.37 L180.9,101.37 C180.9,102.833555 179.713555,104.02 178.25,104.02 L167.39,104.02 L169.04,113.47 C170.97,123.18 170.39,129.67 168.89,134 C168.56,135 166.65,138.39 166.65,138.39 C172.1,146.98 180.45,150.74 189.38,151.83 C196.97,152.76 213.38,145.83 204.91,137.83 C196.44,129.83 206.67,134.83 208.17,135.83 C209.67,136.83 218.36,144.35 208.93,155.37 C204.93,160.03 200.42,164.26 189.56,167.51 C187.82,168.03 178.31,168.72 173.18,170.19 C157.93,174.57 145.54,169.81 138.59,159.74 C131.64,149.67 137.58,137.14 139.31,137.1 Z" id="Shape" stroke="#52267D" stroke-width="2" fill="#9452BA" fill-rule="nonzero"></path>
                <path d="M148.77,122.63 C149.12,111.37 140.18,102.52 130.03,100.63 C127.92,100.24 127.24,99.63 124.93,99.63 L123.16,99.63 C117.20637,99.63 112.38,104.45637 112.38,110.41 C112.38,111.895646 113.584354,113.1 115.07,113.1 L133.27,113.1 C137.27,114.8 139.77,119.92 140.21,122.67 C140.861455,125.959137 140.437213,129.370605 139,132.4 C138.222344,134.13625 137.928645,136.050472 138.15,137.94 L138.25,137.94 C138.328491,138.990915 138.488979,140.03409 138.73,141.06 C140.44,139.87 143.09,138.06 143.57,137.83 C144.57,137.28 146.98,136.02 148.04,135.41 C154.84,131.56 148.57,129 148.77,122.63 Z" id="Shape" stroke="#52267D" fill="#9452BA" fill-rule="nonzero"></path>
                <path d="M143,135.64 C142.91,133.9 142.65,133.01 142.84,132.3 C143.96,128.23 144.33,126.94 144.33,122.63 C144.234966,118.230493 141.920707,114.177716 138.18,111.86 C136.450572,111.62658 134.696808,112.055199 133.27,113.06 C137.27,114.76 139.77,119.88 140.21,122.63 C140.87031,125.931957 140.445889,129.358893 139,132.4 C138.222344,134.13625 137.928645,136.050472 138.15,137.94 C138.15,137.94 143.07,139.79 142.96,135.65" id="Shape" stroke="#52267D" stroke-width="0.5" fill="#F3E3FF" fill-rule="nonzero"></path>
                <path d="M117.5,101.43 C117.55859,100.264186 118.288089,99.2382061 119.37,98.8 L120.98,98.15 C120.98,98.15 122.09,100.51 120.83,101.1 C119.796778,101.610293 118.613281,101.727576 117.5,101.43 Z" id="Shape" stroke="#52267D" stroke-width="0.5" fill="#FFFFFF" fill-rule="nonzero"></path>
                <path d="M122.19,100.11 C122.287892,98.5286041 123.548604,97.2678917 125.13,97.17 C125.67,97.1 127.07,97.17 127.07,97.17 C127.07,97.17 127.72,99.88 126.2,100.17 C124.866849,100.332908 123.51768,100.312721 122.19,100.11 Z" id="Shape" stroke="#52267D" stroke-width="0.5" fill="#FFFFFF" fill-rule="nonzero"></path>
                <path d="M127.92,100.36 C127.92,100.36 128.3,97.52 130.85,98.3 C131.518251,98.5114039 132.10949,98.9148376 132.55,99.46 C132.55,99.46 132.04,101.63 131.03,101.38 C129.966594,101.127709 128.926267,100.786509 127.92,100.36 Z" id="Shape" stroke="#52267D" stroke-width="0.5" fill="#FFFFFF" fill-rule="nonzero"></path>
                <path d="M135.34,114.16 C135.34,114.16 141.34,110.92 140.16,105.47 C141.478542,106.587036 142.705776,107.807582 143.83,109.12 C143.83,110.19 144.03,114.42 138.18,117.26 C137.300622,116.166979 136.352006,115.131518 135.34,114.16 L135.34,114.16 Z" id="Shape" stroke="#52267D" stroke-width="0.5" fill="#FFFFFF" fill-rule="nonzero"></path>
                <path d="M118.06,101.13 C118.088149,100.4491 118.515649,99.8490309 119.15,99.6 L120.09,99.22 C120.09,99.22 120.74,100.59 120,100.94 C119.397712,101.23629 118.708328,101.303807 118.06,101.13 L118.06,101.13 Z" id="Shape" fill="#F3E3FF" fill-rule="nonzero"></path>
                <path d="M123,99.76 C123.040679,98.8053359 123.805336,98.0406785 124.76,98 C125.08,98 125.9,98 125.9,98 C125.9,98 126.28,99.59 125.39,99.74 C124.598127,99.8576168 123.79373,99.8643482 123,99.76 L123,99.76 Z" id="Shape" fill="#F3E3FF" fill-rule="nonzero"></path>
                <path d="M128.55,100.27 C128.55,100.27 128.77,98.59 130.29,99.05 C130.683774,99.1769825 131.031526,99.4169314 131.29,99.74 C131.29,99.74 130.99,101.02 130.39,100.88 C129.760644,100.728631 129.14514,100.524578 128.55,100.27 Z" id="Shape" fill="#F3E3FF" fill-rule="nonzero"></path>
                <path d="M124,106.3 L128.54,106.3 C129.246924,106.3 129.82,106.873076 129.82,107.58 L129.82,110 C129.82,110.706924 129.246924,111.28 128.54,111.28 L121.89,111.28 L121.89,108.4 C121.89,107.240202 122.830202,106.3 123.99,106.3 L124,106.3 Z" id="Shape" fill="#F3E3FF" fill-rule="nonzero" opacity="0.3"></path>
                <path d="M124,107.27 L127.82,107.27 C128.372285,107.27 128.82,107.717715 128.82,108.27 L128.82,110.16 C128.82,110.712285 128.372285,111.16 127.82,111.16 L122,111.16 L122,109.27 C122,108.165431 122.895431,107.27 124,107.27 Z" id="Shape" stroke="#52267D" stroke-width="0.5" fill="#FFFFFF" fill-rule="nonzero"></path>
                <circle id="Oval" fill="#52267D" fill-rule="nonzero" cx="123.93" cy="109.17" r="1.09"></circle>
                <path d="M114.82,112.25 L114.82,112.25 C115.128762,112.18159 115.404349,112.008465 115.6,111.76 L115.97,111.3 L115.16,111.47 L114.68,111.57 C114.590695,111.589083 114.512821,111.643288 114.463915,111.72041 C114.415009,111.797531 114.399183,111.891084 114.42,111.98 L114.42,111.98 C114.436931,112.069011 114.488691,112.147582 114.56379,112.198274 C114.63889,112.248966 114.731116,112.267585 114.82,112.25 L114.82,112.25 Z" id="Shape" fill="#52267D" fill-rule="nonzero"></path>
                <path d="M136.35,114.27 C136.35,114.27 140.94,111.8 140.87,106.82 C141.845342,107.444766 142.696392,108.244957 143.38,109.18 C143.193181,110.466876 142.695482,111.688815 141.93,112.74 C140.23,114.59 138.46,115.15 136.35,114.27 Z" id="Shape" fill="#EAF3FB" fill-rule="nonzero"></path>
                <path d="M140.69,113.4 C139.629688,114.465318 138.428539,115.38048 137.12,116.12" id="Shape" stroke="#52267D" stroke-width="0.5" fill="#FFFFFF" fill-rule="nonzero"></path>
                <path d="M158.68,132.74 L157.68,130.74 C153.86,121.36 153.27,115.85 155.25,106.9 L156.41,101.65 C156.797117,99.9266823 156.994955,98.1662553 157,96.4 L157,96.4 C157,90.5236903 152.23631,85.76 146.36,85.76 L144.64,85.76 C141.857879,85.76 139.189706,86.8651933 137.22245,88.8324499 C135.255193,90.7997065 134.15,93.467879 134.15,96.25 L134.15,96.55 C134.15,97.9307119 135.269288,99.05 136.65,99.05 L147.52,99.05 L145.87,108.5 C140.87,133.83 141.33,144.1 151.26,141.99" id="Shape" stroke="#52267D" fill="#9452BA" fill-rule="nonzero"></path>
                <path d="M139.36,87 C139.520979,85.8457627 140.282328,84.8636221 141.36,84.42 C141.828572,84.2957691 142.321428,84.2957691 142.79,84.42 C142.79,84.42 143.85,86.07 142.61,86.66 C141.603476,87.1627867 140.448791,87.2835845 139.36,87 Z" id="Shape" stroke="#52267D" stroke-width="0.5" fill="#FFFFFF" fill-rule="nonzero"></path>
                <path d="M143.72,86.41 C143.828031,84.6175449 145.257545,83.1880308 147.05,83.08 C147.51249,83.0404653 147.97751,83.0404653 148.44,83.08 C148.44,83.08 149.98,86.13 148.26,86.43 C146.752828,86.6302803 145.225349,86.6235513 143.72,86.41 L143.72,86.41 Z" id="Shape" stroke="#52267D" stroke-width="0.5" fill="#FFFFFF" fill-rule="nonzero"></path>
                <path d="M149.57,87.07 C149.57,87.07 150.01,84.29 152.5,85.12 C153.147128,85.3452937 153.71389,85.7555877 154.13,86.3 C154.13,86.3 153.58,88.41 152.59,88.14 C151.55517,87.8684539 150.544958,87.5105309 149.57,87.07 Z" id="Shape" stroke="#52267D" stroke-width="0.5" fill="#FFFFFF" fill-rule="nonzero"></path>
                <path d="M139.54,136.77 C140.072155,136.364884 140.681176,136.072282 141.33,135.91" id="Shape" stroke="#52267D" stroke-width="0.5" fill="#F3E3FF" fill-rule="nonzero"></path>
                <path d="M143.14,136.71 C141.36,129.49 144.57,115.71 145.14,112.28 L147.47,98.66 L148.47,98.66 C149.110721,98.7239917 149.697117,99.0480875 150.092177,99.5565614 C150.487237,100.065035 150.656349,100.713341 150.56,101.35 L148.87,113.16 C148.3,117.16 147.7,135.67 154.65,139.65 C156.13,140.5 158.54,139.94 159.45,139.51 C162.75,137.93 163.7,133.81 164.45,130.51 C165.95,123.64 164.78,118.25 164.45,112.86 L164.1,106.12 C164.017986,104.849788 164.953967,103.741623 166.22,103.61 L167.46,103.61 L169.7,117.23 C170.37,121.11 172.1,134.55 164.18,140.86 C164.04,140.97 166.11,141.44 165.51,142.5 C163.13,146.71 156.22,147.38 154.92,149.18 C149.92,156.12 154.6,170.92 154.6,170.92 C151.357864,169.601131 148.325836,167.815604 145.6,165.62 C137.6,158.41 136.53,147.96 136.49,144.89 C136.49,141.21 137.41,138.89 138.6,137.57" id="Shape" stroke="#52267D" stroke-width="0.5" fill="#F3E3FF" fill-rule="nonzero"></path>
                <path d="M208.45,142.73 C209.148778,141.894854 209.340148,140.746634 208.95,139.73 C208.744118,139.322664 208.433474,138.977504 208.05,138.73 C208.05,138.73 206.27,139.04 206.64,140.24 C206.914514,141.265337 207.5594,142.1525 208.45,142.73 L208.45,142.73 Z" id="Shape" stroke="#52267D" fill="#FFFFFF" fill-rule="nonzero"></path>
                <path d="M208.08,141 C208.306259,140.719015 208.374078,140.342246 208.26,140 C208.1851,139.86049 208.074719,139.74321 207.94,139.66 C207.94,139.66 207.32,139.77 207.45,140.19 C207.558243,140.525668 207.781304,140.812461 208.08,141 L208.08,141 Z" id="Shape" fill="#F3E3FF" fill-rule="nonzero"></path>
                <path d="M199.09,151.8 C198.485846,150.24523 199.132979,148.483828 200.6,147.69 C200.973306,147.470289 201.364735,147.282939 201.77,147.13 C201.77,147.13 204.27,149.13 202.93,150.03 C201.73668,150.792306 200.444708,151.387825 199.09,151.8 Z" id="Shape" stroke="#52267D" fill="#FFFFFF" fill-rule="nonzero"></path>
                <path d="M200,150.87 C199.662259,150.006941 200.023052,149.027647 200.84,148.59 C201.047415,148.468291 201.264877,148.364579 201.49,148.28 C201.49,148.28 202.87,149.37 202.13,149.89 C201.468008,150.312263 200.751365,150.641986 200,150.87 L200,150.87 Z" id="Shape" fill="#F3E3FF" fill-rule="nonzero"></path>
                <path d="M207,143.69 C207,143.69 208.88,145.34 207.08,146.82 C206.601514,147.203011 206.020525,147.436102 205.41,147.49 C205.41,147.49 204.08,146.07 204.75,145.49 C205.447709,144.827406 206.200412,144.225244 207,143.69 L207,143.69 Z" id="Shape" stroke="#52267D" fill="#FFFFFF" fill-rule="nonzero"></path>
                <path d="M206.74,144.86 C206.74,144.86 207.57,145.59 206.74,146.25 C206.528286,146.420738 206.27084,146.525108 206,146.55 C206,146.55 205.41,145.92 205.71,145.65 C206.029985,145.357547 206.374595,145.093235 206.74,144.86 L206.74,144.86 Z" id="Shape" fill="#F3E3FF" fill-rule="nonzero"></path>
                <path d="M190.07,153.1 C189.733199,151.751636 190.53815,150.381885 191.88,150.02 C194.31,149.14 194.96,149.87 194.96,149.87 C194.96,149.87 196.3,152.13 195.1,152.87 C193.9,153.61 190.07,153.1 190.07,153.1 Z" id="Shape" stroke="#52267D" fill="#FFFFFF" fill-rule="nonzero"></path>
                <path d="M191.21,152.6 C191.038043,151.900068 191.454895,151.190533 192.15,151 C193.41,150.54 193.75,150.92 193.75,150.92 C193.75,150.92 194.45,152.09 193.82,152.47 C192.968157,152.692096 192.079697,152.736349 191.21,152.6 L191.21,152.6 Z" id="Shape" fill="#F3E3FF" fill-rule="nonzero"></path>
                <path d="M147,102 C149.944806,103.352131 153.31728,103.42812 156.32,102.21 C155.95,103.9 155.18,107.29 155.18,107.29 C155.18,107.29 150.18,108.84 146.24,106.39 C146.61,104.14 147,102 147,102 Z" id="Shape" stroke="#52267D" stroke-width="0.5" fill="#FFFFFF" fill-rule="nonzero"></path>
                <path d="M175.94,92.15 C175.781779,90.9899017 175.0207,90.0004994 173.94,89.55 C173.259281,89.3779518 172.561819,89.2807095 171.86,89.26 C171.86,89.26 171.43,91.26 172.68,91.81 C173.69041,92.3117201 174.847808,92.4324303 175.94,92.15 L175.94,92.15 Z" id="Shape" stroke="#52267D" stroke-width="0.5" fill="#FFFFFF" fill-rule="nonzero"></path>
                <path d="M171.26,91.2 C171.166616,89.6386897 169.92131,88.3933842 168.36,88.3 C167.957399,88.2656174 167.552601,88.2656174 167.15,88.3 C167.15,88.3 165.81,90.96 167.31,91.22 C168.621446,91.3930451 169.950373,91.3863163 171.26,91.2 L171.26,91.2 Z" id="Shape" stroke="#52267D" stroke-width="0.5" fill="#FFFFFF" fill-rule="nonzero"></path>
                <path d="M165.87,91.38 C165.87,91.38 165.42,88.58 162.92,89.38 C162.264864,89.6056228 161.690889,90.019581 161.27,90.57 C161.27,90.57 161.83,92.69 162.82,92.43 C163.864239,92.1659015 164.884483,91.81467 165.87,91.38 Z" id="Shape" stroke="#52267D" stroke-width="0.5" fill="#FFFFFF" fill-rule="nonzero"></path>
                <path d="M140.2,86.63 C140.289563,85.9767314 140.720062,85.4205124 141.33,85.17 C141.595413,85.0996153 141.874587,85.0996153 142.14,85.17 C142.14,85.17 142.74,86.1 142.04,86.43 C141.471159,86.717407 140.817307,86.7884779 140.2,86.63 L140.2,86.63 Z" id="Shape" fill="#F3E3FF" fill-rule="nonzero"></path>
                <path d="M144.64,86 C144.708992,84.8202543 145.650254,83.8789915 146.83,83.81 C147.132785,83.7842041 147.437215,83.7842041 147.74,83.81 C147.74,83.81 148.74,85.81 147.62,86.01 C146.630812,86.1418573 145.628281,86.1384931 144.64,86 L144.64,86 Z" id="Shape" fill="#F3E3FF" fill-rule="nonzero"></path>
                <path d="M150.37,86.9 C150.37,86.9 150.65,85.13 152.23,85.66 C152.628289,85.8090587 152.975383,86.0693794 153.23,86.41 C153.23,86.41 152.88,87.75 152.23,87.58 C151.592543,87.4042816 150.97048,87.1768609 150.37,86.9 L150.37,86.9 Z" id="Shape" fill="#F3E3FF" fill-rule="nonzero"></path>
                <path d="M175.15,91.75 C175.051979,91.0987905 174.613404,90.5496187 174,90.31 C173.620306,90.2146203 173.231336,90.1609692 172.84,90.15 C172.84,90.15 172.6,91.25 173.3,91.57 C173.873684,91.8549896 174.532139,91.9190555 175.15,91.75 Z" id="Shape" fill="#F3E3FF" fill-rule="nonzero"></path>
                <path d="M170.28,90.83 C170.225932,89.9255032 169.504497,89.2040682 168.6,89.15 C168.367089,89.1301421 168.132911,89.1301421 167.9,89.15 C167.9,89.15 167.12,90.69 167.99,90.84 C168.750227,90.9409701 169.520684,90.9376056 170.28,90.83 L170.28,90.83 Z" id="Shape" fill="#F3E3FF" fill-rule="nonzero"></path>
                <path d="M165.08,91.27 C165.08,91.27 164.82,89.62 163.34,90.11 C162.944161,90.2380722 162.595825,90.4819076 162.34,90.81 C162.34,90.81 162.67,92.07 163.26,91.91 C163.883675,91.7485219 164.492525,91.5344208 165.08,91.27 L165.08,91.27 Z" id="Shape" fill="#F3E3FF" fill-rule="nonzero"></path>
                <path d="M158.54,106.78 C161.657901,107.199286 164.824925,107.074094 167.9,106.41 C168.34,108.89 168.63,110.76 168.63,110.76 C168.63,110.76 165.47,112.91 159.63,111.66 C158.93,108.48 158.54,106.78 158.54,106.78 Z" id="Shape" stroke="#52267D" stroke-width="0.5" fill="#FFFFFF" fill-rule="nonzero"></path>
                <path d="M163.97,97 L170.62,97 C171.326924,97 171.9,97.5730755 171.9,98.28 L171.9,100.68 C171.9,101.386924 171.326924,101.96 170.62,101.96 L166.08,101.96 C164.920202,101.96 163.98,101.019798 163.98,99.86 L163.98,97 L163.97,97 Z" id="Shape" fill="#F3E3FF" fill-rule="nonzero" opacity="0.3" transform="translate(167.935000, 99.480000) rotate(180.000000) translate(-167.935000, -99.480000) "></path>
                <path d="M164.96,97.95 L170.8,97.95 C171.352285,97.95 171.8,98.3977153 171.8,98.95 L171.8,100.84 C171.8,101.392285 171.352285,101.84 170.8,101.84 L166.96,101.84 C165.855431,101.84 164.96,100.944569 164.96,99.84 L164.96,97.95 Z" id="Shape" stroke="#52267D" stroke-width="0.5" fill="#FFFFFF" fill-rule="nonzero" transform="translate(168.380000, 99.895000) rotate(-180.000000) translate(-168.380000, -99.895000) "></path>
                <circle id="Oval" fill="#52267D" fill-rule="nonzero" cx="169.85" cy="100.72" r="1.09"></circle>
                <path d="M144.28,92.29 L148.82,92.29 C149.526924,92.29 150.1,92.8630755 150.1,93.57 L150.1,96 C150.1,96.7069245 149.526924,97.28 148.82,97.28 L142.17,97.28 L142.17,94.39 C142.169994,93.8313084 142.392615,93.2956441 142.788607,92.901529 C143.184599,92.5074139 143.721315,92.2873396 144.28,92.29 Z" id="Shape" fill="#F3E3FF" fill-rule="nonzero" opacity="0.3"></path>
                <path d="M144.29,93.26 L148.11,93.26 C148.662285,93.26 149.11,93.7077153 149.11,94.26 L149.11,96.15 C149.11,96.7022847 148.662285,97.15 148.11,97.15 L142.27,97.15 L142.27,95.28 C142.27,94.1754305 143.165431,93.28 144.27,93.28 L144.29,93.26 Z" id="Shape" stroke="#52267D" stroke-width="0.5" fill="#FFFFFF" fill-rule="nonzero"></path>
                <circle id="Oval" fill="#52267D" fill-rule="nonzero" cx="144.25" cy="96.01" r="1.09"></circle>
                <path d="M178.48,103.1 L178.48,103.1 C178.171238,103.03159 177.895651,102.858465 177.7,102.61 L177.33,102.15 L178.14,102.32 L178.62,102.42 C178.709305,102.439083 178.787179,102.493288 178.836085,102.57041 C178.884991,102.647531 178.900817,102.741084 178.88,102.83 L178.88,102.83 C178.863069,102.919011 178.811309,102.997582 178.73621,103.048274 C178.66111,103.098966 178.568884,103.117585 178.48,103.1 L178.48,103.1 Z" id="Shape" fill="#52267D" fill-rule="nonzero"></path>
                <path d="M136.47,98 L136.47,98 C136.778762,97.9315898 137.054349,97.758465 137.25,97.51 L137.62,97.05 L136.81,97.22 L136.33,97.32 C136.240695,97.3390828 136.162821,97.3932884 136.113915,97.4704096 C136.065009,97.5475308 136.049183,97.6410836 136.07,97.73 L136.07,97.73 C136.086931,97.8190108 136.138691,97.8975817 136.21379,97.9482738 C136.28889,97.9989658 136.381116,98.0175855 136.47,98 L136.47,98 Z" id="Shape" fill="#52267D" fill-rule="nonzero"></path>
                <path d="M147.43,102.69 C150.044794,103.695341 152.929983,103.748442 155.58,102.84 C155.37831,104.064237 155.107882,105.276153 154.77,106.47 C153.404081,106.547501 152.033829,106.487197 150.68,106.29 C148.35,105.83 147.43,104.78 147.43,102.69 Z" id="Shape" fill="#EAF3FB" fill-rule="nonzero"></path>
                <path d="M153.08,105.77 C150.834009,105.918438 148.585706,105.516832 146.53,104.6" id="Shape" stroke="#52267D" stroke-width="0.5" fill="#FFFFFF" fill-rule="nonzero"></path>
                <path d="M166.14,107.32 C163.930295,107.911315 161.622934,108.04404 159.36,107.71 C159.599597,108.765339 159.906899,109.804154 160.28,110.82 C160.28,110.82 165,110.18 166.14,107.32 Z" id="Shape" fill="#EAF3FB" fill-rule="nonzero"></path>
                <path d="M164.21,140.9 C164.21,140.9 163.99,141.06 163.68,141.24" id="Shape" stroke="#52267D" stroke-width="0.5" fill="#F3E3FF" fill-rule="nonzero"></path>
                <path d="M166.49,108.68 C164.021835,109.093884 161.508953,109.171255 159.02,108.91" id="Shape" stroke="#52267D" stroke-width="0.5" fill="#FFFFFF" fill-rule="nonzero"></path>
                <path d="M160.55,183.24 C159.838243,182.768124 158.889244,182.882512 158.31,183.51 C157.14,184.51 156.31,185.95 156.79,186.1 C157.574863,186.315939 158.397568,186.356904 159.2,186.22 C160.04,186.07 160.78,186.22 161.12,184.47 C161.207972,183.980876 160.980058,183.489061 160.55,183.24 L160.55,183.24 Z" id="Shape" stroke="#52267D" stroke-width="0.5" fill="#FFFFFF" fill-rule="nonzero"></path>
                <path d="M160.33,183.52 C159.887723,183.227909 159.298847,183.29993 158.94,183.69 C158.21,184.29 157.67,185.21 157.99,185.3 C158.478847,185.43286 158.990905,185.456756 159.49,185.37 C160.01,185.27 160.49,185.37 160.69,184.28 C160.742628,183.97605 160.598522,183.671827 160.33,183.52 L160.33,183.52 Z" id="Shape" fill="#EAF3FB" fill-rule="nonzero"></path>
                <path d="M161.91,183.22 C162.42,183.15 163.15,184.22 163.07,184.59 C162.99,184.96 162.93,186.04 162.07,186.16 C161.46,186.25 159.3,186.47 158.83,186 C158.36,185.53 159.28,183.57 161.91,183.22 Z" id="Shape" stroke="#52267D" stroke-width="0.5" fill="#FFFFFF" fill-rule="nonzero"></path>
                <path d="M162.05,183.52 C162.35,183.52 162.78,184.13 162.73,184.33 C162.68,184.53 162.65,185.18 162.16,185.25 C161.67,185.32 160.53,185.44 160.25,185.16 C159.97,184.88 160.5,183.73 162.05,183.52 Z" id="Shape" fill="#EAF3FB" fill-rule="nonzero"></path>
                <path d="M164.06,183.43 C164.06,183.43 163.62,183.2 162.75,183.7 C161.88,184.2 160.84,184.84 161.14,185.7 C161.44,186.56 163.87,186.25 164.4,186.06 C164.933936,185.870508 165.260239,185.330854 165.18,184.77 C165.086404,184.149134 164.654405,183.632278 164.06,183.43 Z" id="Shape" stroke="#52267D" stroke-width="0.5" fill="#FFFFFF" fill-rule="nonzero"></path>
                <path d="M164.22,183.74 C164.22,183.74 163.96,183.6 163.45,183.9 C162.94,184.2 162.32,184.58 162.45,185.09 C162.58,185.6 164.06,185.41 164.38,185.31 C164.692458,185.195731 164.883668,184.879819 164.84,184.55 C164.796929,184.186969 164.559189,183.876373 164.22,183.74 Z" id="Shape" fill="#EAF3FB" fill-rule="nonzero"></path>
                <path d="M153.92,155.62 C154.153015,160.456303 153.841052,165.303468 152.99,170.07 C151.66,178.29 149.3,180.87 149.48,183 C149.61,184.65 150.31,186.16 151.97,186.16 L156.91,186.16 C159.21664,186.159802 161.265483,184.686567 162,182.5 C162.774109,180.167329 163.306897,177.761404 163.59,175.32 C163.87516,171.770886 163.951958,168.208105 163.82,164.65" id="Shape" stroke="#52267D" fill="#9452BA" fill-rule="nonzero"></path>
                <path d="M179.25,159.34 C177.638418,160.846005 176.740824,162.964617 176.78,165.17 C176.78,168 178.44,171.6 177.4,176.3 C176.47,180.49 174.63,181.23 175.18,184.99 C175.293569,185.672292 175.888384,186.169387 176.58,186.16 L182.09,186.16 C184.628343,186.160038 186.794279,184.324069 187.21,181.82 C188.036362,175.89182 187.823172,169.864973 186.58,164.01" id="Shape" stroke="#52267D" fill="#9452BA" fill-rule="nonzero"></path>
                <polyline id="Shape" stroke="#52267D" stroke-width="0.25" points="180.34 165.57 180.66 165.34 181.71 165.57 180.54 166.32 179.14 165.63 180.6 164.47 181.26 164.69"></polyline>
                <path d="M150.55,183.24 C149.838243,182.768124 148.889244,182.882512 148.31,183.51 C147.14,184.51 146.31,185.95 146.79,186.1 C147.574863,186.315939 148.397568,186.356904 149.2,186.22 C150.04,186.07 150.78,186.22 151.12,184.47 C151.207972,183.980876 150.980058,183.489061 150.55,183.24 Z" id="Shape" stroke="#52267D" stroke-width="0.5" fill="#FFFFFF" fill-rule="nonzero"></path>
                <path d="M150.33,183.52 C149.887723,183.227909 149.298847,183.29993 148.94,183.69 C148.21,184.29 147.67,185.21 147.99,185.3 C148.478847,185.43286 148.990905,185.456756 149.49,185.37 C150.01,185.27 150.49,185.37 150.69,184.28 C150.742628,183.97605 150.598522,183.671827 150.33,183.52 L150.33,183.52 Z" id="Shape" fill="#EAF3FB" fill-rule="nonzero"></path>
                <polyline id="Shape" stroke="#52267D" stroke-width="0.25" points="158.11 168.68 156.14 169.29 156.4 171.11 158.42 171.26 159.36 170.18 158.15 169.51 157.15 169.8 157.79 170.5"></polyline>
                <g id="Group" opacity="0.3" transform="translate(114.000000, 93.000000)" stroke="#F3E3FF" stroke-width="0.25">
                    <path d="M1.94,15.65 C1.91141424,15.8586 2.00667985,16.0647926 2.18405584,16.1782336 C2.36143184,16.2916747 2.58856816,16.2916747 2.76594416,16.1782336 C2.94332015,16.0647926 3.03858576,15.8586 3.01,15.65" id="Shape"></path>
                    <path d="M0.87,15.65 C0.906643974,15.9174035 1.13509738,16.1166856 1.405,16.1166856 C1.67490262,16.1166856 1.90335603,15.9174035 1.94,15.65" id="Shape"></path>
                    <path d="M1.4,16.18 C1.37141424,16.3886 1.46667985,16.5947926 1.64405584,16.7082336 C1.82143184,16.8216747 2.04856816,16.8216747 2.22594416,16.7082336 C2.40332015,16.5947926 2.49858576,16.3886 2.47,16.18" id="Shape"></path>
                    <path d="M22.47,15.14 C22.7096938,15.3124481 23.0255506,15.336827 23.288868,15.2032029 C23.5521855,15.0695789 23.7190018,14.800261 23.7213443,14.5049883 C23.7236867,14.2097155 23.5611643,13.9377849 23.3,13.8" id="Shape"></path>
                    <path d="M22.72,16.23 C23.0871707,16.4237117 23.5416337,16.3001917 23.7602335,15.9472715 C23.9788333,15.5943513 23.8869853,15.1324447 23.55,14.89" id="Shape"></path>
                    <path d="M47.9,33.14 C47.9,33.537645 48.222355,33.86 48.62,33.86 C49.017645,33.86 49.34,33.537645 49.34,33.14" id="Shape"></path>
                    <path d="M46.46,33.14 C46.46,33.537645 46.782355,33.86 47.18,33.86 C47.577645,33.86 47.9,33.537645 47.9,33.14" id="Shape"></path>
                    <path d="M47.18,33.86 C47.18,34.257645 47.502355,34.58 47.9,34.58 C48.297645,34.58 48.62,34.257645 48.62,33.86" id="Shape"></path>
                    <path d="M26.43,78.67 C26.4300001,79.067645 26.752355,79.3899999 27.15,79.3899999 C27.547645,79.3899999 27.8699999,79.067645 27.87,78.67" id="Shape"></path>
                    <path d="M25,78.67 C25,79.067645 25.322355,79.39 25.72,79.39 C26.117645,79.39 26.44,79.067645 26.44,78.67" id="Shape"></path>
                    <path d="M25.71,79.39 C25.7100001,79.787645 26.032355,80.1099999 26.43,80.1099999 C26.827645,80.1099999 27.1499999,79.787645 27.15,79.39" id="Shape"></path>
                    <path d="M46.78,10.24 C46.78,10.676305 47.133695,11.03 47.57,11.03 C48.006305,11.03 48.36,10.676305 48.36,10.24" id="Shape"></path>
                    <path d="M46,11 C46,11.436305 46.353695,11.79 46.79,11.79 C47.226305,11.79 47.58,11.436305 47.58,11" id="Shape"></path>
                    <path d="M36.69,24.19 C36.5707821,24.5987471 36.7234561,25.038158 37.0704334,25.2849248 C37.4174106,25.5316917 37.8825894,25.5316917 38.2295666,25.2849248 C38.5765439,25.038158 38.7292179,24.5987471 38.61,24.19" id="Shape"></path>
                    <path d="M35.73,25.14 C35.8544444,25.5666667 36.2455556,25.86 36.69,25.86 C37.1344444,25.86 37.5255556,25.5666667 37.65,25.14" id="Shape"></path>
                    <path d="M22.75,0.33 C22.75,0.68346224 23.0365378,0.97 23.39,0.97 C23.7434622,0.97 24.03,0.68346224 24.03,0.33" id="Shape"></path>
                    <path d="M22.11,1 C22.11,1.35346224 22.3965378,1.64 22.75,1.64 C23.1034622,1.64 23.39,1.35346224 23.39,1" id="Shape"></path>
                    <path d="M83.16,65 C83.4361424,65.3120409 83.9129591,65.3411423 84.225,65.065 C84.5370408,64.7888576 84.5661423,64.3120409 84.29,64" id="Shape"></path>
                    <path d="M83.07,66.07 C83.3461424,66.3820409 83.8229591,66.4111423 84.135,66.135 C84.4470408,65.8588576 84.4761423,65.3820409 84.2,65.07" id="Shape"></path>
                    <path d="M53.79,54.83 C53.9050206,55.1332641 54.179189,55.3473664 54.5012885,55.3854558 C54.8233879,55.4235453 55.1399326,55.279297 55.3225157,55.0112257 C55.5050989,54.7431543 55.5234018,54.3957739 55.37,54.11" id="Shape"></path>
                    <path d="M52.21,55.55 C52.4268651,55.9540004 52.9200598,56.1203371 53.3373061,55.9301995 C53.7545525,55.7400619 53.9526053,55.2587264 53.79,54.83" id="Shape"></path>
                    <path d="M53.36,56 C53.4750206,56.3032641 53.749189,56.5173664 54.0712885,56.5554558 C54.3933879,56.5935453 54.7099326,56.449297 54.8925157,56.1812257 C55.0750989,55.9131543 55.0934018,55.5657739 54.94,55.28" id="Shape"></path>
                    <path d="M51.78,56.7 C51.9968651,57.1040004 52.4900598,57.2703371 52.9073061,57.0801995 C53.3245525,56.8900619 53.5226053,56.4087264 53.36,55.98" id="Shape"></path>
                    <path d="M54.51,56.41 C54.7268651,56.8140004 55.2200598,56.9803371 55.6373061,56.7901995 C56.0545525,56.6000619 56.2526053,56.1187264 56.09,55.69" id="Shape"></path>
                    <path d="M38.69,6.82 C38.69,7.30324916 39.0817508,7.695 39.565,7.695 C40.0482492,7.695 40.44,7.30324916 40.44,6.82" id="Shape"></path>
                    <path d="M38.39,39.87 C38.39,40.3532492 38.7817508,40.745 39.265,40.745 C39.7482492,40.745 40.14,40.3532492 40.14,39.87" id="Shape"></path>
                    <path d="M48.3,21.65 C48.3,22.0172694 48.5977306,22.315 48.965,22.315 C49.3322694,22.315 49.63,22.0172694 49.63,21.65" id="Shape"></path>
                    <path d="M64.08,6.59 C64.08,6.86614237 64.3038576,7.09 64.58,7.09 C64.8561424,7.09 65.08,6.86614237 65.08,6.59" id="Shape"></path>
                    <path d="M68.22,79.69 C68.2735898,79.9972484 68.4870239,80.2525679 68.7799038,80.3597819 C69.0727837,80.466996 69.4006138,80.4098163 69.6399038,80.2097819 C69.8791939,80.0097475 69.9935899,79.6972484 69.94,79.39" id="Shape"></path>
                    <path d="M44.06,86.13 C43.9407821,86.5387471 44.0934561,86.978158 44.4404334,87.2249248 C44.7874106,87.4716917 45.2525894,87.4716917 45.5995666,87.2249248 C45.9465439,86.978158 46.0992179,86.5387471 45.98,86.13" id="Shape"></path>
                    <path d="M43.1,87.09 C43.2244444,87.5166667 43.6155556,87.81 44.06,87.81 C44.5044444,87.81 44.8955556,87.5166667 45.02,87.09" id="Shape"></path>
                </g>
                <path d="M151.92,183.22 C152.43,183.15 153.16,184.22 153.08,184.59 C153,184.96 152.94,186.04 152.08,186.16 C151.47,186.25 149.31,186.47 148.84,186 C148.37,185.53 149.29,183.57 151.92,183.22 Z" id="Shape" stroke="#52267D" stroke-width="0.5" fill="#FFFFFF" fill-rule="nonzero"></path>
                <path d="M152.06,183.52 C152.36,183.52 152.79,184.13 152.74,184.33 C152.69,184.53 152.66,185.18 152.17,185.25 C151.68,185.32 150.54,185.44 150.26,185.16 C149.98,184.88 150.51,183.73 152.06,183.52 Z" id="Shape" fill="#EAF3FB" fill-rule="nonzero"></path>
                <path d="M153.72,183.76 C153.72,183.76 153.33,183.56 152.56,184 C151.79,184.44 150.87,185 151.14,185.78 C151.41,186.56 153.55,186.26 154.03,186.1 C154.502554,185.933324 154.791483,185.455963 154.72,184.96 C154.639855,184.403328 154.253094,183.939215 153.72,183.76 Z" id="Shape" stroke="#52267D" stroke-width="0.5" fill="#FFFFFF" fill-rule="nonzero"></path>
                <path d="M153.87,184 C153.87,184 153.64,183.88 153.19,184.14 C152.74,184.4 152.19,184.74 152.35,185.19 C152.51,185.64 153.78,185.48 154.06,185.38 C154.338753,185.282765 154.510281,185.002464 154.47,184.71 C154.421513,184.37839 154.18888,184.103108 153.87,184 L153.87,184 Z" id="Shape" fill="#EAF3FB" fill-rule="nonzero"></path>
                <path d="M133.44,184 C133.44,184 133.05,183.8 132.28,184.24 C131.51,184.68 130.59,185.24 130.86,186.02 C131.13,186.8 133.27,186.5 133.75,186.34 C134.222554,186.173324 134.511483,185.695963 134.44,185.2 C134.359855,184.643328 133.973094,184.179215 133.44,184 L133.44,184 Z" id="Shape" stroke="#52267D" stroke-width="0.5" fill="#FFFFFF" fill-rule="nonzero"></path>
                <path d="M133.59,184.25 C133.59,184.25 133.36,184.13 132.91,184.39 C132.46,184.65 131.91,184.99 132.07,185.44 C132.23,185.89 133.5,185.73 133.78,185.63 C134.058753,185.532765 134.230281,185.252464 134.19,184.96 C134.141513,184.62839 133.90888,184.353108 133.59,184.25 L133.59,184.25 Z" id="Shape" fill="#EAF3FB" fill-rule="nonzero"></path>
                <path d="M135.79,183.43 C136.3,183.36 137.03,184.43 136.95,184.8 C136.87,185.17 136.81,186.25 135.95,186.37 C135.34,186.46 133.18,186.68 132.71,186.21 C132.24,185.74 133.16,183.78 135.79,183.43 Z" id="Shape" stroke="#52267D" stroke-width="0.5" fill="#FFFFFF" fill-rule="nonzero"></path>
                <path d="M135.93,183.74 C136.23,183.74 136.66,184.35 136.61,184.55 C136.56,184.75 136.53,185.4 136.04,185.47 C135.55,185.54 134.41,185.66 134.13,185.38 C133.85,185.1 134.38,183.95 135.93,183.74 Z" id="Shape" fill="#EAF3FB" fill-rule="nonzero"></path>
                <path d="M177.28,183.24 C176.568243,182.768124 175.619244,182.882512 175.04,183.51 C173.87,184.51 173.04,185.95 173.52,186.1 C174.304863,186.315939 175.127568,186.356904 175.93,186.22 C176.77,186.07 177.51,186.22 177.85,184.47 C177.937972,183.980876 177.710058,183.489061 177.28,183.24 L177.28,183.24 Z" id="Shape" stroke="#52267D" stroke-width="0.5" fill="#FFFFFF" fill-rule="nonzero"></path>
                <path d="M177.06,183.52 C176.617723,183.227909 176.028847,183.29993 175.67,183.69 C174.94,184.29 174.4,185.21 174.72,185.3 C175.208847,185.43286 175.720905,185.456756 176.22,185.37 C176.74,185.27 177.22,185.37 177.42,184.28 C177.472628,183.97605 177.328522,183.671827 177.06,183.52 Z" id="Shape" fill="#EAF3FB" fill-rule="nonzero"></path>
                <path d="M178.65,183.22 C179.16,183.15 179.89,184.22 179.81,184.59 C179.73,184.96 179.67,186.04 178.81,186.16 C178.2,186.25 176.04,186.47 175.57,186 C175.1,185.53 176,183.57 178.65,183.22 Z" id="Shape" stroke="#52267D" stroke-width="0.5" fill="#FFFFFF" fill-rule="nonzero"></path>
                <path d="M178.79,183.52 C179.09,183.52 179.52,184.13 179.47,184.33 C179.42,184.53 179.39,185.18 178.9,185.25 C178.41,185.32 177.27,185.44 176.99,185.16 C176.71,184.88 177.24,183.73 178.79,183.52 Z" id="Shape" fill="#EAF3FB" fill-rule="nonzero"></path>
                <path d="M180.45,183.76 C180.45,183.76 180.06,183.56 179.29,184 C178.52,184.44 177.6,185 177.87,185.78 C178.14,186.56 180.28,186.26 180.76,186.1 C181.232554,185.933324 181.521483,185.455963 181.45,184.96 C181.369855,184.403328 180.983094,183.939215 180.45,183.76 Z" id="Shape" stroke="#52267D" stroke-width="0.5" fill="#FFFFFF" fill-rule="nonzero"></path>
                <path d="M180.6,184 C180.6,184 180.37,183.88 179.92,184.14 C179.47,184.4 178.92,184.74 179.08,185.19 C179.24,185.64 180.51,185.48 180.79,185.38 C181.068753,185.282765 181.240281,185.002464 181.2,184.71 C181.151513,184.37839 180.91888,184.103108 180.6,184 L180.6,184 Z" id="Shape" fill="#EAF3FB" fill-rule="nonzero"></path>
                <path d="M142.46,183.91 C142.594432,183.777159 142.795356,183.737762 142.97,183.81 C143.55,184.09 145.03,184.87 144.72,185.93 C144.48,186.75 143.98,186.51 143.02,186.52 L142.29,186.52 C142.137156,186.524472 141.994524,186.443519 141.92,186.31 L141.92,186.31 C141.532596,185.4996 141.732993,184.530332 142.41,183.94 L142.46,183.91 Z" id="Shape" stroke="#52267D" stroke-width="0.5" fill="#FFFFFF" fill-rule="nonzero"></path>
                <path d="M142.53,184.14 C142.627971,184.044263 142.773826,184.016669 142.9,184.07 C143.32,184.27 144.39,184.84 144.17,185.61 C144,186.21 143.63,186.03 142.93,186.04 L142.4,186.04 C142.289197,186.04373 142.18537,185.986048 142.13,185.89 L142.13,185.89 C141.843379,185.303602 141.98701,184.597756 142.48,184.17 L142.53,184.14 Z" id="Shape" fill="#EAF3FB" fill-rule="nonzero"></path>
                <path d="M139,183.59 C138.331476,183.062477 137.379371,183.096329 136.75,183.67 C135.51,184.53 134.51,185.93 135.01,186.12 C135.773666,186.400216 136.589517,186.509452 137.4,186.44 C138.25,186.36 138.98,186.58 139.46,184.86 C139.588086,184.382093 139.404425,183.875029 139,183.59 L139,183.59 Z" id="Shape" stroke="#52267D" stroke-width="0.5" fill="#FFFFFF" fill-rule="nonzero"></path>
                <path d="M138.81,183.86 C138.406514,183.516581 137.813486,183.516581 137.41,183.86 C136.64,184.39 136.01,185.26 136.33,185.38 C136.806006,185.555065 137.314678,185.623344 137.82,185.58 C138.35,185.53 138.82,185.67 139.1,184.58 C139.149511,184.304235 139.036825,184.024463 138.81,183.86 L138.81,183.86 Z" id="Shape" fill="#EAF3FB" fill-rule="nonzero"></path>
                <rect id="Rectangle-path" stroke="#375D81" stroke-width="2" fill="#FFFFFF" fill-rule="nonzero" x="59.44" y="0" width="128.64" height="186.53" rx="2.25"></rect>
                <polygon id="Shape" fill="#EFEFF6" fill-rule="nonzero" points="179.21 165.09 68.31 172.81 68.31 15.29 180.5 10.15"></polygon>
                <circle id="Oval" fill="#FFFFFF" fill-rule="nonzero" cx="120.12" cy="58.81" r="24.73"></circle>
                <circle id="Oval" stroke="#375D81" stroke-width="2" fill="#FFFFFF" fill-rule="nonzero" cx="123.12" cy="53.81" r="24.73"></circle>
                <path d="M129.27,66 C129.37,66.31 129.47,66.52 129.49,66.59 L129.49,66.59 C128.79,59.85 132.61,57.04 133.84,52.59 C133.834615,52.5167655 133.834615,52.4432345 133.84,52.37 C133.865304,52.2677643 133.885331,52.1642941 133.9,52.06 C133.973455,50.5585065 133.516849,49.0789595 132.61,47.88 L132.61,47.88 L132.36,47.51 L132.36,47.51 C132.2,47.28 132.03,47.05 131.86,46.82 L131.81,46.75 L131.66,46.56 L131.51,46.37 L131.35,46.18 L131.19,45.98 L131.07,45.84 C129.416096,43.9750934 127.561551,42.2982894 125.54,40.84 L125.54,40.84 C125.817299,43.1973453 125.840767,45.5776456 125.61,47.94 C125.226349,50.6701698 124.423563,53.3247591 123.23,55.81 C120.48358,55.6048941 117.785208,54.9775227 115.23,53.95 C113.058224,52.9774054 110.999319,51.77023 109.09,50.35 C109.09,50.56 109.09,50.77 109.16,50.98 L109.16,51.17 C109.16,51.32 109.16,51.47 109.22,51.62 C109.28,51.77 109.22,51.76 109.22,51.83 L109.29,52.28 L109.29,52.46 C109.29,52.65 109.35,52.84 109.39,53.02 L109.39,53.08 C109.39,53.3 109.47,53.51 109.51,53.73 L109.51,53.73 L109.63,54.31 L109.63,54.43 L109.75,54.95 L109.75,55.05 C109.75,55.25 109.85,55.45 109.9,55.65 L109.9,55.65 C110.066667,56.2833333 110.25,56.8933333 110.45,57.48 L110.45,57.48 C110.759641,58.3999633 111.144265,59.292961 111.6,60.15 L111.79,60.49 L111.79,60.49 L111.97,60.78 L111.97,60.78 L112.17,61.08 L112.17,61.08 L112.17,61.08 L112.17,61.08 L112.43,61.44 L112.43,61.5 L112.43,61.5 C112.53,61.63 112.64,61.75 112.75,61.87 L112.98,62.11 L113.08,62.2 L113.23,62.33 L113.34,62.42 L113.48,62.53 L113.59,62.61 L113.74,62.71 L113.85,62.78 L114.01,62.87 L114.12,62.93 L114.3,63.01 L114.39,63.01 L114.67,63.1 L114.84,63.16 C119.34,64.35 123.72,62.46 129.22,66.39" id="Fill-7" fill="#9452BA" fill-rule="nonzero"></path>
                <polygon id="Shape" fill="#9ACDED" fill-rule="nonzero" points="104.47 101.12 101.5 98.15 93.37 106.28 88.31 101.23 85.34 104.2 93.34 112.2 93.37 112.17 93.39 112.2"></polygon>
                <path d="M110.38,107.17 L162.28,107.17" id="Shape" stroke="#375D81" stroke-width="2" fill="#FFFFFF" fill-rule="nonzero" stroke-linecap="round" stroke-linejoin="round"></path>
                <polygon id="Shape" fill="#9ACDED" fill-rule="nonzero" points="104.47 120.74 101.5 117.77 93.37 125.9 88.31 120.85 85.34 123.82 93.34 131.81 93.37 131.79 93.39 131.81"></polygon>
                <path d="M110.38,127.73 L162.28,127.73" id="Shape" stroke="#375D81" stroke-width="2" fill="#FFFFFF" fill-rule="nonzero" stroke-linecap="round" stroke-linejoin="round"></path>
                <path d="M110.38,148.98 L162.28,148.98" id="Shape" stroke="#375D81" stroke-width="2" fill="#FFFFFF" fill-rule="nonzero" stroke-linecap="round" stroke-linejoin="round"></path>
                <path d="M203.98,33.54 L203.98,40.54" id="Shape" stroke="#375D81" stroke-width="2" stroke-linecap="round" stroke-linejoin="round"></path>
                <path d="M207.48,37.04 L200.48,37.04" id="Shape" stroke="#375D81" stroke-width="2" stroke-linecap="round" stroke-linejoin="round"></path>
                <path d="M39.73,153.82 L39.73,157.76" id="Shape" stroke="#375D81" stroke-linecap="round"></path>
                <path d="M41.7,155.79 L37.76,155.79" id="Shape" stroke="#375D81" stroke-linecap="round"></path>
                <path d="M214.73,93.82 L214.73,97.76" id="Shape" stroke="#375D81" stroke-linecap="round" stroke-linejoin="round"></path>
                <path d="M216.7,95.79 L212.76,95.79" id="Shape" stroke="#375D81" stroke-linecap="round" stroke-linejoin="round"></path>
                <path d="M45.73,53.82 L45.73,57.76" id="Shape" stroke="#375D81" stroke-linecap="round"></path>
                <path d="M47.7,55.79 L43.76,55.79" id="Shape" stroke="#375D81" stroke-linecap="round"></path>
                <path d="M23.42,92.42 L23.42,100.54" id="Shape" stroke="#375D81" stroke-width="2" fill="#FFFFFF" fill-rule="nonzero" stroke-linecap="round"></path>
                <path d="M27.48,96.48 L19.35,96.48" id="Shape" stroke="#375D81" stroke-width="2" fill="#FFFFFF" fill-rule="nonzero" stroke-linecap="round"></path>
                <path d="M243.17,186.29 L250.14,186.29" id="Shape" stroke="#375D81" stroke-width="2" fill="#FFFFFF" fill-rule="nonzero" stroke-linecap="round" stroke-linejoin="round"></path>
                <path d="M0,186.29 L8.97,186.29" id="Shape" stroke="#375D81" stroke-width="2" fill="#FFFFFF" fill-rule="nonzero" stroke-linecap="round" stroke-linejoin="round"></path>
                <path d="M92.38,195.61 L159.57,195.61" id="Shape" stroke="#375D81" stroke-width="2" fill="#FFFFFF" fill-rule="nonzero" stroke-linecap="round" stroke-linejoin="round"></path>
                <path d="M168.19,195.61 L177.33,195.61" id="Shape" stroke="#375D81" stroke-width="2" fill="#FFFFFF" fill-rule="nonzero" stroke-linecap="round" stroke-linejoin="round"></path>
                <path d="M84.5,195.53 L79.5,195.61" id="Shape" stroke="#375D81" stroke-width="2" fill="#FFFFFF" fill-rule="nonzero" stroke-linecap="round" stroke-linejoin="round"></path>
                <rect id="Rectangle-path" stroke="#375D81" stroke-width="2" fill="#FFFFFF" fill-rule="nonzero" x="88.47" y="142.29" width="11.74" height="11.74" rx="2"></rect>
            </g>
        </g>
    </g>
</svg>