<svg xmlns="http://www.w3.org/2000/svg" width="252" height="208">
    <defs>
        <linearGradient id="a" x1="13.64%" x2="100.21%" y1="80.78%" y2="36.56%">
            <stop stop-color="#5C257E" offset="4%"/>
            <stop stop-color="#8C5099" offset="97%"/>
        </linearGradient>
        <linearGradient id="b" x1="98.73%" x2="-2.27%" y1="146.79%" y2="10.72%">
            <stop stop-color="#5C257E" offset="4%"/>
            <stop stop-color="#FFF" offset="100%"/>
        </linearGradient>
        <linearGradient id="c" x1="41377%" x2="41377%" y1="36839%" y2="34902%">
            <stop stop-color="#5C257E" offset="4%"/>
            <stop stop-color="#FFF" offset="100%"/>
        </linearGradient>
        <linearGradient id="d" x1="25.14%" x2="68.22%" y1="12.57%" y2="106.54%">
            <stop stop-color="#4E256F" offset="23%"/>
            <stop stop-color="#5C257E" offset="84%"/>
        </linearGradient>
        <linearGradient id="e" x1="42387%" x2="42387%" y1="35250%" y2="36758%">
            <stop stop-color="#4E256F" offset="23%"/>
            <stop stop-color="#5C257E" offset="84%"/>
        </linearGradient>
    </defs>
    <g fill="none" fill-rule="evenodd">
        <path fill="#E1F2FF" fill-rule="nonzero" d="M23 205.56C23 148.36 69.37 102 126.56 102c57.2 0 103.56 46.37 103.56 103.56H23z"/>
        <g fill="#FFF" fill-rule="nonzero" stroke="#375D81" stroke-width="2" stroke-linecap="round" stroke-linejoin="round">
            <path d="M18 197h36M60 197h176.9M244 197h6.97M1 197h8.97M93 207h67.2M169 207h9.14M85 206l-5 .08"/>
        </g>
        <g stroke="#375D81" stroke-linecap="round">
            <path stroke-width="2" d="M199 25v7M202 28h-7M78 1v7M82 5h-7" stroke-linejoin="round"/>
            <path d="M40.73 165.68v3.94M42.7 167.65h-3.94"/>
            <path d="M215.73 105.68v3.94M217.7 107.65h-3.94" stroke-linejoin="round"/>
            <path d="M46.73 65.68v3.94M48.7 67.65h-3.94"/>
            <path fill="#FFF" fill-rule="nonzero" stroke-width="2" d="M24.42 104.28v8.12M28.48 108.34h-8.13"/>
        </g>
        <g transform="translate(126 92)">
            <path fill="#9452BA" fill-rule="nonzero" stroke="#52267D" stroke-width="2" d="M50.08 103.5h5c1.72 0 3.26-1.03 3.9-2.63 1.76-4.55 1.32-8.73 1.53-12.3.4-6.64-.63-10-1.62-15.57l-7.47.17s.65 2.75 1.07 11c.13 2.56-4.1 12.82-3.9 17.85.03.82.7 1.47 1.5 1.5zM35.6 79.85l-6-6.82-3.72.15-.73 8c-.67 5.4-1.73 10.75-3.18 16-.32 1.06-.53 2.15-.6 3.26-.02.8.3 1.57.86 2.14.57.57 1.34.88 2.14.86h4.4c2.58 0 4.83-1.7 5.5-4.2 1.9-7.68 1.32-19.4 1.32-19.4z"/>
            <path stroke="#52267D" stroke-width=".5" d="M27.14 84.54l-1 .88.95.85 1.54-.6-.3-.67-1.3.3.02.23h.33"/>
            <path fill="#9452BA" fill-rule="nonzero" stroke="#52267D" stroke-width="2" d="M27.17 54.46c4.38-.1 8.48-3.1 17.42-3.52.1-.53.26-1.05.48-1.54 1.62-3.5 3.9-13.6 2.43-20.22l-1.15-5.25c-.38-1.72-.57-3.48-.57-5.24 0-.73.07-1.45.22-2.15.03-.17.07-.34.12-.5.13-.52.3-1 .5-1.5l.2-.46c.16-.32.32-.62.5-.9.18-.3.37-.6.57-.86.6-.82 1.33-1.55 2.15-2.16.27-.2.56-.4.85-.57 1.66-1 3.57-1.53 5.52-1.53h1.74c2.82 0 5.53 1.12 7.52 3.12.24.23.47.48.7.75.38.48.74 1 1.04 1.53.12.2.23.4.33.62.1.2.15.3.2.47.42.97.68 2 .8 3.05.03.36.04.73.04 1.1 0 .7-.3 1.37-.8 1.86-.48.5-1.16.78-1.86.78h-10.9l1.66 9.45c1.93 9.72 1.35 16.2-.15 20.54-.33 1-2.24 4.4-2.24 4.4 5.46 8.58 13.8 12.34 22.74 13.43 7.6.93 24-6 15.53-14s1.76-3 3.26-2c1.5 1 10.2 8.52.76 19.54-4 4.67-8.52 8.9-19.38 12.15-1.74.52-11.25 1.2-16.38 2.68-15.25 4.38-27.64-.38-34.6-10.45-6.94-10.07-1-22.6.73-22.62z"/>
            <path fill="#9452BA" fill-rule="nonzero" stroke="#52267D" stroke-width="2" d="M36.63 40C37 28.73 28 19.88 17.9 18c-2.12-.4-2.8-1-5.1-1H11C5.05 17 .22 21.83.22 27.78c0 1.5 1.2 2.7 2.7 2.7h18.2c4 1.7 6.5 6.8 6.93 9.56.67 3.3.26 6.72-1.17 9.76-.78 1.74-1.07 3.65-.85 5.54h.1c.08 1.05.24 2.1.48 3.12 1.72-1.2 4.37-3 4.85-3.23 1-.55 3.4-1.8 4.47-2.42 6.78-3.88.5-6.4.7-12.8z"/>
            <path fill="#F3E3FF" fill-rule="nonzero" stroke="#52267D" d="M30.86 53c-.1-1.74-.35-2.63-.16-3.34 1.12-4.07 1.5-5.36 1.5-9.67-.1-4.42-2.44-8.48-6.2-10.8-1.73-.22-3.48.2-4.9 1.2 4 1.7 6.5 6.83 6.93 9.58.67 3.3.26 6.72-1.17 9.76-.78 1.74-1.07 3.65-.85 5.54 0 0 5 1.86 4.86-2.28"/>
            <path fill="#FFF" fill-rule="nonzero" stroke="#52267D" d="M5.36 18.8c.06-1.18.8-2.2 1.87-2.64l1.6-.65s1.12 2.37-.14 2.96c-1.04.5-2.23.63-3.34.33zM10 17.47c.1-1.6 1.4-2.87 3-2.94.54-.07 1.94 0 1.94 0s.65 2.7-.87 3c-1.35.17-2.72.15-4.07-.06zM15.78 17.7s.38-2.83 2.93-2.05c.68.2 1.27.6 1.7 1.16 0 0-.5 2.18-1.5 1.93-1.07-.25-2.1-.6-3.12-1.02zM23.2 31.52s6-3.24 4.82-8.7c1.32 1.13 2.55 2.35 3.67 3.66 0 1.07.2 5.3-5.66 8.14-.88-1.1-1.83-2.13-2.84-3.1z"/>
            <path fill="#F3E3FF" fill-rule="nonzero" d="M6.18 18.27c.03-.6.42-1.15 1-1.36l.83-.33s.6 1.22-.07 1.53c-.54.27-1.17.33-1.75.17zM11.28 16.9c.05-.82.7-1.46 1.5-1.5h1s.33 1.37-.45 1.5c-.68.1-1.37.1-2.05 0zM16.7 17.5s.2-1.5 1.56-1.08c.35.1.67.33.9.62 0 0-.27 1.15-.8 1-.57-.13-1.13-.3-1.66-.53z"/>
            <path fill="#F3E3FF" fill-rule="nonzero" d="M14.7 23.65h.47c1.37 0 2.48 1.1 2.48 2.48 0 1.37-1.1 2.48-2.48 2.48H9.72c0-2.75 2.24-5 5-5l-.03.05z" opacity=".3"/>
            <path fill="#FFF" fill-rule="nonzero" stroke="#52267D" d="M13.72 24.62h1c1.1 0 2 .9 2 2s-.9 2-2 2h-4.9c-.03-1.05.37-2.07 1.1-2.82.74-.76 1.75-1.18 2.8-1.18z"/>
            <circle cx="11.79" cy="27.46" r="1.09" fill="#52267D" fill-rule="nonzero"/>
            <path fill="#52267D" fill-rule="nonzero" d="M2.68 29.6c.3-.07.58-.24.78-.5l.37-.45-.8.17-.5.1c-.08.02-.16.07-.2.15-.05.08-.07.17-.05.26.02.1.07.17.14.22.08.05.17.07.26.05z"/>
            <path fill="#EAF3FB" fill-rule="nonzero" d="M24.2 31.63s4.6-2.47 4.53-7.45c.98.62 1.83 1.42 2.5 2.36-.18 1.3-.67 2.5-1.44 3.56-1.7 1.84-3.48 2.4-5.6 1.53z"/>
            <path fill="#FFF" fill-rule="nonzero" stroke="#52267D" d="M28.55 30.75C27.5 31.8 26.3 32.73 25 33.47"/>
            <path fill="#9452BA" fill-rule="nonzero" stroke="#52267D" stroke-width="2" d="M46.54 50.1l-1-2c-3.82-9.38-4.4-14.9-2.43-23.84L44.26 19c.38-1.72.57-3.48.57-5.24 0-5.88-4.76-10.64-10.64-10.64h-1.7c-5.8 0-10.48 4.7-10.48 10.5v.3c0 1.37 1.12 2.5 2.5 2.5h10.85l-1.65 9.44c-5 25.33-4.54 35.6 5.4 33.5"/>
            <path fill="#FFF" fill-rule="nonzero" stroke="#52267D" d="M27.22 4.37c.16-1.15.92-2.14 2-2.58.47-.13.96-.13 1.43 0 0 0 1.06 1.64-.18 2.23-1 .5-2.16.62-3.25.34zM31.58 3.77c.1-1.8 1.54-3.22 3.33-3.33.47-.04.94-.04 1.4 0 0 0 1.54 3.05-.18 3.35-1.5.2-3.03.18-4.54-.03zM37.43 4.43s.44-2.78 2.93-1.95c.65.22 1.22.63 1.64 1.18 0 0-.55 2.1-1.54 1.84-1.04-.27-2.05-.63-3.03-1.07z"/>
            <path fill="#F3E3FF" fill-rule="nonzero" stroke="#52267D" d="M27.4 54.12c.53-.4 1.14-.7 1.8-.86M31 54.07c-1.78-7.22 1.43-21 2-24.43L35.35 16h1c.64.06 1.23.4 1.62.9.4.5.57 1.15.47 1.8l-1.7 11.8c-.56 4-1.16 22.5 5.8 26.5 1.47.84 3.88.28 4.8-.15 3.3-1.58 4.24-5.7 5-9 1.5-6.87.32-12.26 0-17.65L52 23.48c-.07-1.26.86-2.34 2.1-2.48h1.25l2.24 13.62c.66 3.88 2.4 17.32-5.53 23.63-.14.1 1.93.58 1.33 1.64-2.38 4.2-9.3 4.87-10.6 6.67-5 6.94-.3 21.74-.3 21.74-3.25-1.3-6.28-3.1-9-5.3-8-7.2-9.08-17.65-9.12-20.72 0-3.68.92-6 2.1-7.32"/>
            <path fill="#FFF" fill-rule="nonzero" stroke="#52267D" d="M96.3 60.1c.7-.85.9-2 .5-3-.2-.42-.5-.76-.9-1 0 0-1.77.3-1.4 1.5.27 1.03.92 1.9 1.8 2.5z"/>
            <path fill="#F3E3FF" fill-rule="nonzero" d="M95.94 58.33c.23-.28.3-.66.18-1-.07-.14-.2-.26-.32-.34 0 0-.62.1-.5.52.12.34.34.62.64.8z"/>
            <path fill="#FFF" fill-rule="nonzero" stroke="#52267D" d="M87 69.16c-.6-1.55.04-3.32 1.5-4.1.38-.23.77-.42 1.18-.57 0 0 2.5 2 1.16 2.9-1.2.75-2.5 1.35-3.84 1.76z"/>
            <path fill="#F3E3FF" fill-rule="nonzero" d="M87.86 68.23c-.34-.86.02-1.84.84-2.28.2-.12.42-.23.65-.3 0 0 1.38 1.08.64 1.6-.67.42-1.4.75-2.14.98z"/>
            <path fill="#FFF" fill-rule="nonzero" stroke="#52267D" d="M94.87 61s1.88 1.65.08 3.13c-.48.38-1.06.62-1.67.67 0 0-1.33-1.42-.66-2 .7-.66 1.45-1.26 2.25-1.8z"/>
            <path fill="#F3E3FF" fill-rule="nonzero" d="M94.6 62.22s.83.73 0 1.4c-.2.16-.47.27-.74.3 0 0-.6-.64-.3-.9.33-.3.67-.57 1.04-.8z"/>
            <path fill="#FFF" fill-rule="nonzero" stroke="#52267D" d="M77.93 70.46c-.34-1.35.47-2.72 1.8-3.08 2.44-.88 3.1-.15 3.1-.15s1.33 2.26.13 3c-1.2.74-5.03.23-5.03.23z"/>
            <path fill="#F3E3FF" fill-rule="nonzero" d="M79.07 70c-.17-.7.24-1.4.94-1.6 1.27-.46 1.6-.08 1.6-.08s.7 1.17.08 1.55c-.85.22-1.74.27-2.6.13z"/>
            <path fill="#FFF" fill-rule="nonzero" stroke="#52267D" d="M34.82 19.34c2.94 1.35 6.32 1.43 9.32.2L43 24.65s-5 1.54-8.94-.9c.4-2.24.76-4.4.76-4.4zM63.8 9.5c-.16-1.16-.92-2.15-2-2.6-.68-.17-1.38-.27-2.08-.3 0 0-.43 2 .82 2.56 1 .5 2.17.62 3.26.34zM59.12 8.55c-.1-1.56-1.34-2.8-2.9-2.9-.4-.03-.8-.03-1.2 0 0 0-1.35 2.66.15 2.92 1.3.17 2.64.17 3.95-.02zM53.73 8.74s-.45-2.8-2.95-2c-.66.24-1.24.68-1.65 1.26 0 0 .56 2.12 1.55 1.86 1.05-.3 2.07-.66 3.05-1.12z"/>
            <path fill="#F3E3FF" fill-rule="nonzero" d="M28.18 3.9c.1-.6.5-1.13 1.07-1.37.25-.07.52-.07.77 0 0 0 .57.88-.1 1.2-.54.26-1.16.33-1.74.18zM32.66 3.28c.07-1.12.97-2.02 2.1-2.1h.86s1 1.92-.1 2.1c-.96.14-1.9.13-2.86 0zM38.5 4.15s.27-1.6 1.7-1.12c.37.13.7.37.94.68 0 0-.32 1.23-.9 1.07-.6-.16-1.17-.36-1.73-.62zM62.9 9c-.1-.6-.5-1.14-1.08-1.37-.36-.1-.73-.14-1.1-.15 0 0-.23 1 .43 1.35.54.27 1.16.33 1.74.17zM58 8.1c-.05-.85-.74-1.54-1.6-1.6h-.67S55 8 55.83 8.13c.7.1 1.45.1 2.17 0zM52.73 8.55s-.24-1.53-1.6-1.07c-.37.12-.68.35-.9.65 0 0 .3 1.16.84 1 .57-.15 1.12-.34 1.66-.58z"/>
            <path fill="#FFF" fill-rule="nonzero" stroke="#52267D" d="M46.4 24.14c3.12.42 6.28.3 9.36-.37.44 2.48.73 4.35.73 4.35s-3.17 2.15-9 .9c-.7-3.18-1.1-4.88-1.1-4.88z"/>
            <path fill="#F3E3FF" fill-rule="nonzero" d="M59.77 19.33h-5.45c-1.37 0-2.48-1.1-2.48-2.48 0-1.37 1.1-2.48 2.48-2.48h.48c2.76 0 5 2.24 5 5l-.03-.04z" opacity=".3"/>
            <path fill="#FFF" fill-rule="nonzero" stroke="#52267D" d="M59.68 19.22h-4.76c-1.15 0-2.1-.94-2.1-2.1 0-1 .82-1.8 1.82-1.8h1.14c2.15 0 3.9 1.75 3.9 3.9z"/>
            <circle cx="57.33" cy="16.98" r="1.09" fill="#52267D" fill-rule="nonzero"/>
            <path fill="#F3E3FF" fill-rule="nonzero" d="M35 9.65h.48c.66 0 1.3.25 1.78.7.47.48.74 1.12.74 1.78 0 1.37-1.1 2.48-2.48 2.48H30c0-2.75 2.24-5 5-5v.05z" opacity=".3"/>
            <path fill="#FFF" fill-rule="nonzero" stroke="#52267D" d="M34 10.62h1c1.1 0 2 .9 2 2s-.9 2-2 2h-4.86c-.03-1.04.37-2.06 1.1-2.8.72-.76 1.72-1.2 2.76-1.2z"/>
            <circle cx="34.8" cy="13.36" r="1.09" fill="#52267D" fill-rule="nonzero"/>
            <path fill="#52267D" fill-rule="nonzero" d="M66.34 20.45c-.3-.07-.58-.24-.78-.5l-.37-.45.8.17.48.1c.1.02.17.07.22.15.04.08.06.17.04.26-.02.1-.07.17-.14.22-.08.05-.17.07-.26.05zM24.33 15.36c.3-.07.58-.24.78-.5l.38-.45-.8.18-.5.1c-.08.02-.16.07-.2.15-.05.08-.07.17-.05.26.02.08.07.16.14.2.08.06.17.08.26.06z"/>
            <path fill="#EAF3FB" fill-rule="nonzero" d="M35.3 20c2.6 1 5.5 1.06 8.14.15-.2 1.22-.47 2.44-.8 3.63-1.38.08-2.75.02-4.1-.18-2.33-.4-3.25-1.47-3.25-3.6z"/>
            <path fill="#FFF" fill-rule="nonzero" stroke="#52267D" d="M40.93 23.13c-2.24.16-4.5-.23-6.55-1.13"/>
            <path fill="#EAF3FB" fill-rule="nonzero" d="M54 24.68c-2.2.6-4.52.72-6.78.4.24 1.05.55 2.08.92 3.1 0 0 4.76-.64 5.86-3.5z"/>
            <path fill="#F3E3FF" fill-rule="nonzero" stroke="#52267D" stroke-width=".5" d="M52.07 58.26s-.22.16-.53.34"/>
            <path fill="#FFF" fill-rule="nonzero" stroke="#52267D" d="M54.35 26c-2.47.4-4.98.5-7.47.23"/>
            <path fill="#FFF" fill-rule="nonzero" stroke="#52267D" stroke-width=".5" d="M48.4 100.6c-.7-.48-1.65-.37-2.23.26-1.17 1-2 2.44-1.52 2.6.78.2 1.6.25 2.4.1.85-.14 1.6 0 1.93-1.74.1-.5-.14-.98-.57-1.23z"/>
            <path fill="#EAF3FB" fill-rule="nonzero" d="M48.2 100.88c-.45-.3-1.04-.22-1.4.17-.73.6-1.27 1.52-.95 1.6.5.14 1 .17 1.5.08.52-.1 1 0 1.2-1.1.05-.3-.1-.6-.36-.75z"/>
            <path fill="#FFF" fill-rule="nonzero" stroke="#52267D" stroke-width=".5" d="M49.77 100.57c.5-.07 1.24 1 1.16 1.37-.08.37-.14 1.45-1 1.57-.6.1-2.77.32-3.24-.15-.48-.47.44-2.42 3.07-2.78z"/>
            <path fill="#EAF3FB" fill-rule="nonzero" d="M49.9 100.88c.3 0 .74.6.7.8-.06.2-.1.86-.58.93-.5.08-1.63.2-1.9-.08-.3-.28.24-1.43 1.8-1.64z"/>
            <path fill="#FFF" fill-rule="nonzero" stroke="#52267D" stroke-width=".5" d="M51.92 100.8s-.44-.24-1.3.26c-.88.5-1.92 1.14-1.62 2 .3.86 2.73.55 3.26.36.53-.2.86-.73.78-1.3-.1-.6-.53-1.13-1.12-1.33z"/>
            <path fill="#EAF3FB" fill-rule="nonzero" d="M52.08 101.1s-.26-.14-.77.16c-.5.3-1.12.68-1 1.2.14.5 1.62.3 1.94.2.3-.1.5-.42.46-.75-.04-.35-.28-.66-.62-.8z"/>
            <path fill="#9452BA" fill-rule="nonzero" stroke="#52267D" stroke-width="2" d="M41.78 73c.23 4.84-.08 9.68-.93 14.45-1.33 8.22-3.7 10.8-3.5 12.93.12 1.65.82 3.16 2.48 3.16h4.94c2.3 0 4.35-1.48 5.08-3.66.77-2.33 1.3-4.74 1.6-7.18.27-3.56.35-7.13.2-10.7M67.1 76.7c-1.6 1.5-2.5 3.6-2.46 5.82 0 2.83 1.66 6.43.62 11.13-.93 4.2-2.77 4.93-2.22 8.7.1.67.7 1.17 1.4 1.16h5.5c2.55 0 4.7-1.83 5.13-4.33.83-5.93.6-11.96-.63-17.8"/>
            <path stroke="#52267D" stroke-width=".5" d="M68.2 82.93l.32-.24 1.04.23-1.16.74-1.4-.7 1.46-1.15.66.22"/>
            <path fill="#FFF" fill-rule="nonzero" stroke="#52267D" d="M38.4 100.6c-.7-.48-1.65-.37-2.23.26-1.17 1-2 2.44-1.52 2.6.78.2 1.6.25 2.4.1.85-.14 1.6 0 1.93-1.74.1-.5-.14-.98-.57-1.23z"/>
            <path fill="#EAF3FB" fill-rule="nonzero" d="M38.2 100.88c-.45-.3-1.04-.22-1.4.17-.73.6-1.27 1.52-.95 1.6.5.14 1 .17 1.5.08.52-.1 1 0 1.2-1.1.05-.3-.1-.6-.36-.75z"/>
            <path stroke="#52267D" stroke-width=".5" d="M45.97 86.03l-1.97.62.26 1.82 2.02.15.94-1.1-1.2-.66-1 .3.63.7"/>
            <g stroke="#F3E3FF" stroke-width=".25" opacity=".3">
                <path d="M3.8 26c-.03.2.07.4.24.53.18.1.4.1.6 0 .16-.12.26-.32.23-.53"/>
                <path d="M2.73 26c-.03.2.07.4.24.53.18.1.4.1.6 0 .16-.12.26-.32.23-.53"/>
                <path d="M3.26 26.54c.04.27.27.47.53.47s.5-.2.53-.46M24.33 25.5c.24.17.56.2.82.06.26-.13.43-.4.43-.7 0-.3-.16-.56-.42-.7"/>
                <path d="M24.58 26.6c.24.16.56.2.82.05.26-.13.43-.4.43-.7 0-.3-.16-.56-.42-.7M49.76 43.5c0 .4.32.72.72.72.4 0 .72-.32.72-.72M48.32 43.5c0 .4.32.72.72.72.4 0 .72-.32.72-.72M49 44.22c0 .4.32.72.72.72.4 0 .72-.32.72-.72M28.3 89c0 .4.3.72.7.72.4 0 .73-.32.73-.72M26.86 89c0 .4.32.72.72.72.4 0 .72-.32.72-.72M27.57 89.75c0 .4.32.72.72.72.4 0 .7-.32.7-.72M48.64 20.6c0 .43.35.78.8.78.43 0 .78-.35.78-.8"/>
                <path d="M47.85 21.38c0 .44.35.8.8.8.43 0 .78-.36.78-.8M38.55 34.54c-.12.4.03.85.38 1.1.35.24.8.24 1.16 0 .34-.25.5-.7.37-1.1"/>
                <path d="M37.6 35.5c.1.43.5.72.95.72.44 0 .84-.3.96-.72M24.6 10.68c0 .35.3.64.65.64.35 0 .64-.3.64-.64M24 11.33c0 .35.3.64.64.64.35 0 .64-.3.64-.64M85 75.4c.28.3.75.33 1.06.05.32-.27.35-.75.07-1.06"/>
                <path d="M84.93 76.43c.28.3.75.34 1.06.06.3-.28.34-.76.06-1.07M55.65 65.2c.22.4.7.56 1.13.37.4-.2.6-.67.45-1.1M54.07 65.9c.22.4.7.58 1.13.4.4-.2.6-.68.45-1.1M55.22 66.34c.22.4.7.57 1.13.38.4-.2.6-.67.45-1.1"/>
                <path d="M53.64 67.06c.22.4.7.57 1.13.38.4-.2.6-.67.45-1.1M56.37 66.76c.12.3.4.52.7.56.33.03.65-.1.83-.38.2-.27.2-.6.05-.9M40.55 17.17c0 .48.4.88.88.88s.87-.4.87-.88M40.25 50.22c0 .48.4.88.88.88s.87-.4.87-.88M50.16 32c0 .37.3.66.67.66.36 0 .66-.3.66-.66M65.94 16.95c0 .28.22.5.5.5s.5-.22.5-.5M70.08 90c.08.47.54.8 1 .7.48-.07.8-.53.72-1M45.92 96.5c.12.42.52.7.96.7.44 0 .84-.28.96-.7M45 97.45c.12.43.52.72.96.72.44 0 .84-.3.96-.72"/>
            </g>
            <path fill="#FFF" fill-rule="nonzero" stroke="#52267D" d="M39.78 100.57c.5-.07 1.24 1 1.16 1.37-.08.37-.14 1.45-1 1.57-.6.1-2.77.32-3.24-.15-.47-.47.45-2.42 3.08-2.78z"/>
            <path fill="#EAF3FB" fill-rule="nonzero" d="M39.92 100.88c.3 0 .73.6.68.8-.05.2-.08.86-.57.93-.5.08-1.63.2-1.9-.08-.3-.28.24-1.43 1.8-1.64z"/>
            <path fill="#FFF" fill-rule="nonzero" stroke="#52267D" d="M41.58 101.12s-.4-.2-1.16.24c-.77.44-1.7 1-1.42 1.78.27.78 2.4.48 2.9.32.46-.17.75-.64.68-1.14-.08-.56-.47-1.02-1-1.2z"/>
            <path fill="#EAF3FB" fill-rule="nonzero" d="M41.73 101.4s-.23-.13-.68.13c-.45.26-1 .6-.84 1.05.17.45 1.44.3 1.72.2.28-.1.45-.4.4-.68-.04-.33-.27-.6-.6-.7z"/>
            <path fill="#FFF" fill-rule="nonzero" stroke="#52267D" d="M21.3 101.33s-.4-.2-1.16.24c-.77.44-1.7 1-1.42 1.78.27.78 2.4.48 2.9.32.46-.17.75-.64.68-1.14-.08-.56-.47-1.02-1-1.2z"/>
            <path fill="#EAF3FB" fill-rule="nonzero" d="M21.45 101.6s-.23-.12-.68.14c-.45.26-1 .6-.84 1.05.16.44 1.43.28 1.7.18.3-.1.46-.38.42-.67-.05-.32-.28-.6-.6-.7z"/>
            <path fill="#FFF" fill-rule="nonzero" stroke="#52267D" d="M23.65 100.8c.5-.08 1.24 1 1.16 1.36-.07.37-.13 1.45-1 1.57-.6.1-2.76.3-3.23-.16-.47-.47.43-2.43 3.08-2.78z"/>
            <path fill="#EAF3FB" fill-rule="nonzero" d="M23.8 101.1c.3 0 .72.6.67.8-.05.2-.08.85-.57.92-.5.07-1.63.2-1.9-.1-.3-.27.24-1.42 1.8-1.63z"/>
            <path fill="#FFF" fill-rule="nonzero" stroke="#52267D" stroke-width=".5" d="M65.14 100.6c-.7-.48-1.66-.37-2.24.26-1.17 1-2 2.44-1.52 2.6.78.2 1.6.25 2.4.1.85-.14 1.6 0 1.93-1.74.1-.5-.13-.98-.56-1.23z"/>
            <path fill="#EAF3FB" fill-rule="nonzero" d="M64.92 100.88c-.44-.3-1.03-.22-1.4.17-.72.6-1.26 1.52-.94 1.6.5.14 1 .17 1.5.08.52-.1 1 0 1.2-1.1.05-.3-.1-.6-.36-.75z"/>
            <path fill="#FFF" fill-rule="nonzero" stroke="#52267D" stroke-width=".5" d="M66.5 100.57c.52-.07 1.25 1 1.17 1.37-.08.37-.14 1.45-1 1.57-.6.1-2.77.32-3.24-.15-.47-.47.45-2.42 3.08-2.78z"/>
            <path fill="#EAF3FB" fill-rule="nonzero" d="M66.65 100.88c.3 0 .73.6.68.8-.05.2-.08.86-.57.93-.5.08-1.63.2-1.9-.08-.3-.28.24-1.43 1.8-1.64z"/>
            <path fill="#FFF" fill-rule="nonzero" stroke="#52267D" stroke-width=".5" d="M68.3 101.12s-.38-.2-1.15.24c-.77.44-1.7 1-1.42 1.78.27.78 2.4.48 2.9.32.46-.17.75-.64.68-1.14-.07-.56-.46-1.02-1-1.2z"/>
            <path fill="#EAF3FB" fill-rule="nonzero" d="M68.46 101.4s-.23-.13-.68.13c-.45.26-1 .6-.84 1.05.16.45 1.43.3 1.7.2.3-.1.46-.4.42-.68-.05-.33-.28-.6-.6-.7z"/>
            <path fill="#FFF" fill-rule="nonzero" stroke="#52267D" d="M30.32 101.26c.13-.13.34-.17.5-.1.6.28 2.07 1.06 1.76 2.12-.24.82-.74.58-1.7.6h-.73c-.15 0-.3-.1-.37-.22-.4-.8-.2-1.78.5-2.37l.04-.04z"/>
            <path fill="#EAF3FB" fill-rule="nonzero" d="M30.4 101.5c.1-.1.23-.12.36-.07.42.2 1.5.77 1.27 1.54-.17.6-.54.42-1.24.43h-.54c-.1 0-.2-.05-.27-.15-.3-.6-.15-1.3.34-1.72l.05-.03z"/>
            <path fill="#FFF" fill-rule="nonzero" stroke="#52267D" d="M26.9 100.95c-.66-.53-1.6-.5-2.24.08-1.24.86-2.24 2.26-1.74 2.45.76.28 1.58.4 2.4.32.84-.08 1.57.14 2.05-1.58.13-.48-.06-.98-.46-1.27z"/>
            <path fill="#EAF3FB" fill-rule="nonzero" d="M26.67 101.2c-.4-.33-1-.33-1.4 0-.77.54-1.4 1.4-1.08 1.53.47.18.97.24 1.48.2.53-.05 1 .1 1.28-1 .05-.28-.06-.56-.3-.72z"/>
        </g>
        <g fill-rule="nonzero">
            <path fill="#FFF" stroke="#375D81" d="M143.5 77.5c3-2 5-2.24 5 2l-14.24 71.42H109V104.7l34.5-27.2z"/>
            <path fill="#FFF" stroke="#375D81" d="M149 79.5c3.23-1.7 5.5-3.24 5.5 1l-8.3 73.37-38.2.02v-48.45l41-25.95z"/>
            <path fill="#FFF" stroke="#375D81" d="M105.56 106.87L154.5 81c3.4-1.7 5.1-3.24 5.1 1v76.02l-54.02.02-.02-51.17z"/>
            <path fill="#FFF" stroke="#375D81" d="M113 106.87C79.7 89.17 61.88 79.9 59.5 79c-3.5 1-8.52 2.24-9.5 4l1.53 75.02 61.44.02.03-51.17z"/>
            <path fill="#D9DDE2" d="M106 105.15c-4 0-8-1.15-8-1.15l.5 88.5 1.1.35c2.52.77 4.65 1.15 6.4 1.15 1.98 0 4.32-.33 7-1l1-89s-4 1.15-8 1.15z"/>
            <path fill="#FFF" stroke="#375D81" d="M106 107.15c-4 0-8-1.15-8-1.15l.5 88.5 1.1.35c2.52.77 4.65 1.15 6.4 1.15 1.98 0 4.32-.33 7-1l1-89s-4 1.15-8 1.15z"/>
            <path fill="#FFF" stroke="#375D81" d="M114 104.73l48-21.23c3.4-1.7 3.7-1.74 3.7 2.5v75.02c0 4.24-.3 4.28-3.7 5.98l-48.5 26 .5-88.27zM98.7 104.73L50.5 83.5c-3.4-1.7-3.5.5-3.5 2v75.52c0 4.24.1 4.28 3.5 5.98l48.2 25.76v-88.03z"/>
        </g>
        <g fill-rule="nonzero">
            <path fill="#1D1D1B" d="M165.46 57.6c.04-.34-.08-.67-.32-.9-.28-.17-.6-.26-.93-.24-.22 0-.46.02-.7.06-.2.04-.42.1-.63.16-.15-.26-.22-.56-.2-.85.25-.1.53-.15.8-.18.28-.05.56-.07.85-.07.6-.04 1.17.13 1.63.5.4.4.6.98.55 1.56v3.45l-.92.17c-.36.06-.73.1-1.1.1-.32 0-.64-.04-.95-.1-.26-.06-.5-.17-.72-.32-.2-.14-.35-.33-.45-.55-.12-.25-.17-.53-.16-.8-.02-.3.05-.56.17-.8.13-.25.3-.45.52-.6.2-.16.46-.27.73-.34.3-.08.58-.1.88-.1h.58l.37.02v-.2zm0 1.03l-.4-.04h-.43c-.35-.03-.7.06-1 .24-.25.18-.4.46-.36.76 0 .17.03.35.12.5.06.12.16.2.28.28.12.07.26.1.4.12l.4.02c.17 0 .34 0 .5-.03.17-.02.32-.05.48-.1v-1.77zM168.06 53.35l.27-.04h.52l.27.05v7.88c-.1 0-.18.02-.27.03h-.54c-.1 0-.18-.02-.27-.03v-7.88zm1.1 5.02l2-2.66.3-.02H172.03c.1 0 .2 0 .3.03l-2.02 2.6 2.3 2.93c-.1 0-.18.02-.28.03h-.6c-.1 0-.2 0-.3-.03l-2.3-2.86zM174.2 58.73c-.02.5.15.96.48 1.32.36.3.84.46 1.3.42.5 0 1-.08 1.46-.26.07.13.12.26.14.4.04.15.06.3.07.46-.25.1-.5.18-.78.23-.3.04-.6.06-.92.06-.44 0-.88-.06-1.3-.2-.67-.26-1.2-.8-1.38-1.5-.1-.38-.17-.76-.16-1.15 0-.38.06-.76.16-1.14.1-.33.25-.65.46-.92.22-.27.5-.5.8-.65.38-.17.77-.25 1.17-.24.33 0 .67.06 1 .2.27.12.5.3.7.53.2.22.36.5.45.8.1.32.16.67.15 1v.33c0 .1 0 .2-.02.28l-3.77.03zm2.75-.8c0-.2-.03-.38-.08-.57-.05-.17-.13-.33-.24-.46-.1-.14-.24-.26-.4-.33-.18-.1-.37-.13-.57-.13-.38-.02-.75.13-1 .4-.26.32-.4.7-.43 1.1h2.72zM179.4 55.7l.23-.02h.45c.08 0 .15.02.22.03l.07.44c.02.16.03.3.03.47.08-.12.17-.25.28-.36.1-.12.24-.23.38-.33.15-.1.32-.17.5-.22.2-.07.4-.1.6-.1.52-.03 1.03.16 1.4.55.33.46.5 1.03.45 1.6v3.5c-.08.02-.17.03-.26.03h-.53c-.08 0-.17 0-.25-.03v-3.2c.02-.4-.06-.8-.24-1.13-.16-.25-.45-.4-.74-.36-.2 0-.4.03-.58.1-.17.08-.33.2-.46.34-.15.17-.26.37-.33.58-.1.28-.14.58-.13.87v2.8c-.1 0-.18.02-.26.03h-.53c-.1 0-.17-.02-.26-.03V55.7zM186.4 58.73c-.02.5.15.96.48 1.32.36.3.84.46 1.3.42.5 0 1-.1 1.47-.26.06.13.1.26.14.4l.05.46c-.25.1-.5.18-.78.23-.3.04-.6.06-.92.06-.44 0-.88-.06-1.3-.2-.33-.13-.63-.34-.88-.6-.24-.26-.4-.58-.5-.92-.12-.37-.18-.76-.17-1.15 0-.4.05-.78.15-1.15.1-.34.25-.66.47-.93.22-.27.5-.48.8-.63.37-.17.77-.25 1.17-.24.33 0 .67.06 1 .2.26.12.5.3.7.53.2.22.37.5.47.8.1.33.15.67.15 1v.33c0 .1 0 .2-.03.28l-3.8.03zm2.74-.8c0-.2-.02-.38-.07-.57-.06-.17-.14-.32-.24-.46-.1-.14-.24-.26-.4-.33-.18-.1-.38-.13-.57-.13-.38-.02-.75.13-1 .4-.26.32-.4.7-.44 1.1h2.72zM193.83 61.34c-.38 0-.77-.07-1.12-.22-.3-.14-.58-.35-.8-.6-.22-.28-.37-.6-.46-.93-.2-.76-.2-1.55 0-2.3.1-.33.24-.65.46-.92.22-.25.5-.45.8-.6.73-.3 1.54-.3 2.27 0 .3.16.57.37.8.64.2.27.36.58.45.92.2.75.2 1.54 0 2.28-.1.34-.25.65-.46.93-.22.26-.5.47-.8.6-.36.14-.74.2-1.13.2zm0-.85c.44.02.86-.2 1.1-.55.26-.45.4-.96.36-1.48.02-.52-.1-1.03-.36-1.48-.25-.38-.67-.58-1.1-.55-.43-.03-.85.17-1.1.54-.25.44-.37.95-.34 1.47-.03.52.1 1.04.35 1.5.24.36.65.56 1.08.54z"/>
            <path fill="url(#a)" d="M117.07 33.08l.08.23c0 .04 0 0 0 0-.18-2.6 1.32-3.62 1.85-5.33v-.08l.03-.13c.04-.58-.12-1.15-.46-1.62l-.1-.15c-.05-.1-.1-.18-.18-.27v-.03l-.06-.08-.06-.07-.06-.08-.06-.07-.04-.06c-.6-.73-1.3-1.4-2.06-1.97.07.9.05 1.82-.07 2.73-.18 1.04-.52 2.06-1 3-1.06-.1-2.1-.4-3.06-.8-.83-.42-1.6-.9-2.3-1.48v.25c-.02.02-.02.05 0 .07v.5l.04.23c0 .08 0 .17.03.25 0 0 0 .16.05.23v.05l.04.2v.04c0 .08.02.16.04.23.06.24.12.46.2.7.1.36.23.7.4 1.05l.06.13c.02.04.04.08.07.1l.07.13.1.15v.03l.1.15.1.1.04.03c0 .03.03.04.05.06l.04.04.06.04.04.03.05.05.05.02.06.04h.04l.07.03h.03c.03.03.07.05.1.05l.07.03c1.7.52 3.42-.15 5.48 1.43" transform="translate(41 29)"/>
            <g opacity=".8">
                <path fill="url(#b)" d="M6.42 3c-.18 1.04-.52 2.06-1 3 1.92.23 3.8-.06 4.12-1.2C9.9 3.6 8.3 1.7 6.5.3c.07.9.04 1.8-.08 2.7z" opacity=".51" transform="translate(150.484 52.098)"/>
                <path fill="url(#c)" d="M2.35 5.17c-.82-.4-1.6-.9-2.3-1.47C.2 6 .9 8.37 2.1 8.76c1.12.35 2.4-1.04 3.3-2.77-1.07-.13-2.1-.4-3.07-.83z" opacity=".51" transform="translate(150.484 52.098)"/>
            </g>
            <g opacity=".7">
                <path fill="url(#d)" d="M3.9 7.34C2.17 6.68.8 5.37.03 3.7.1 5.02.4 6.32.92 7.53l.07.13c0 .04.03.08.05.1 0 .05.04.08.07.12l.07.1c0 .03.02.05.03.07l.04.04.07.1c.2.26.47.46.78.58l.07.02c1.7.52 3.4-.15 5.47 1.43-1-1.27-2.3-2.27-3.78-2.9z" transform="translate(150.484 52.098)"/>
                <path fill="url(#e)" d="M9.54 4.8C9.9 3.55 8.3 1.66 6.5.25c.95 1.56 1.27 3.43.86 5.22-.3 1.58-.2 3.2.3 4.73C7.5 7.6 9 6.6 9.53 4.88c0-.02 0-.05.02-.08z" transform="translate(150.484 52.098)"/>
            </g>
            <path fill="#677687" d="M50.64 46.32c0 1 .18 1.72.53 2.13.35.42 1.03.68 2.04.78l.12.2-.2.17h-7.2l-.18-.18.1-.2c1-.1 1.7-.35 2.04-.77.36-.4.53-1.12.53-2.13V34.2c-1.02-.35-2.1-.5-3.2-.47-1.93 0-3.2.9-3.78 2.7H41l.64-3.77h.28c.04.16.18.23.42.23h14.32c.25 0 .4-.08.43-.24h.28l.63 3.78-.36.03c-.63-1.85-1.9-2.77-3.83-2.77-1.07-.04-2.15.12-3.17.46v12.16zM71.9 46.37c-.03 1.72.47 2.66 1.52 2.84l.18.22-.1.18h-5.1l-.1-.18.1-.2c.62-.07 1.14-.47 1.34-1.04.16-.6.23-1.2.2-1.8l.12-4.27c.05-2.64-.9-3.96-2.86-3.96-1 0-1.95.38-2.7 1.05-.78.6-1.32 1.48-1.52 2.46v4.7c-.02.6.05 1.2.2 1.76.14.57.62 1 1.2 1.1l.17.2-.08.18h-4.85l-.1-.18.1-.2c.6-.07 1.12-.47 1.32-1.04.15-.6.2-1.2.2-1.8V34.35c0-.4-.03-.8-.12-1.2-.13-.35-.46-.6-.85-.64l-.46-.07-.1-.27.08-.1 3.08-.93H63V40c.57-.8 1.3-1.47 2.16-1.95.82-.48 1.76-.74 2.7-.73 1.17-.08 2.3.37 3.1 1.22.73.93 1.1 2.1 1.02 3.27l-.08 4.57zM87.3 45.84c-.43 1.22-1.24 2.26-2.32 2.97-1.06.74-2.32 1.13-3.6 1.12-1.65.05-3.2-.64-4.28-1.88-1.08-1.22-1.66-2.8-1.6-4.45-.06-1.7.58-3.32 1.76-4.52 1.2-1.2 2.82-1.83 4.5-1.76 1.28 0 2.53.45 3.55 1.24 1.05.7 1.75 1.8 1.94 3.04 0 .25-.46.38-1.32.38H77.6c-.04.37-.05.75-.05 1.13v.22c-.06 1.4.36 2.8 1.2 3.92.88 1.1 2.23 1.7 3.64 1.62.97 0 1.93-.3 2.72-.88.8-.54 1.42-1.33 1.75-2.24.07-.03.16-.03.23 0 .08 0 .14.05.2.1zm-9.57-4.55h7.16c-.06-.94-.42-1.83-1.05-2.5-.64-.65-1.53-1-2.43-.94-1.93 0-3.16 1.13-3.7 3.43zM117.3 49.16l.07.23-.12.2h-7.58l-.13-.2.06-.24c1.36-.1 2.06-.42 2.1-.95l.03-.4c0-.54-.13-1.07-.36-1.56l-2.5-5.96h-7.3l-2.2 5.13c-.32.67-.53 1.38-.6 2.1 0 .93.75 1.47 2.26 1.66l.07.23-.13.2h-6.3l-.14-.2.07-.24c1.3-.27 2.43-1.52 3.4-3.72l6.75-15.17.12-.9.17-.27c.2-.06.42-.1.63-.1h.2c.3 0 .6.03.88.1l.47.82 7.13 16.44c.76 1.78 1.75 2.72 2.96 2.8zm-8.8-9.96l-3.24-7.3-3.24 7.3h6.47zM118.5 32.44l.07-.1 3.05-.93h.22v11.26c1.44-.9 2.83-1.9 4.16-2.97.46-.4.7-.7.7-.98v-.1c-.06-.24-.37-.4-.92-.46-.05-.05-.1-.12-.1-.2 0-.07.05-.14.1-.2h4.93c.1.05.14.13.14.22 0 .08-.06.15-.13.18-1 .04-2.12.5-3.36 1.4l-3.92 2.84c1.24.36 2.36 1.07 3.2 2.06l2.48 2.97c.65.9 1.6 1.54 2.7 1.8l.04.13c0 .1-.04.17-.1.23h-4.75v-.27c.5 0 .75-.08.75-.24 0-.17-.1-.23-.3-.4-.48-.7-1.23-1.74-2.24-3.13-.96-1.3-1.84-2.1-2.72-2.48-.42.03-.62.34-.62.92v2.4c-.03.57.04 1.16.2 1.73.2.56.7.96 1.3 1.04l.2.2-.1.18h-5.05l-.1-.18.1-.22c.62-.05 1.16-.43 1.4-1 .2-.57.27-1.17.23-1.78V34.6c.02-.4 0-.8-.1-1.17-.13-.37-.47-.63-.86-.65l-.46-.08-.1-.26zM140.68 47.62c-1.03 1.56-2.38 2.34-4.05 2.34-.93.04-1.85-.2-2.65-.68-.8-.48-1.3-1.37-1.25-2.3 0-1.97 1.67-3.1 5.03-3.45.94-.12 1.87-.33 2.77-.65V41.4c0-2.14-.97-3.22-2.9-3.22-.73 0-1.46.2-2.08.6-.66.36-1.07 1.05-1.07 1.8l-.76-.37c-.34-.16-.55-.33-.6-.5.16-.53.85-1.05 2.1-1.55.83-.38 1.73-.6 2.65-.68 1.15-.06 2.3.27 3.23.93.92.7 1.43 1.8 1.36 2.97v5.38c0 1.45.28 2.17.83 2.17.25 0 .5-.08.7-.24l.07.27c-1.18.53-1.97.8-2.37.8-.57 0-.92-.68-1.04-2.05l.02-.08zm-.13-1.93v-2.25c-.1.05-.8.24-2.1.57-2.48.2-3.7 1.13-3.7 2.77-.03.65.24 1.28.73 1.7.52.45 1.18.68 1.85.66.88 0 1.72-.38 2.28-1.05.6-.66.95-1.52.95-2.4zM156.1 47.43c-1.36 1.66-2.9 2.48-4.6 2.48-1.53.05-3-.56-4.04-1.68-1.05-1.13-1.6-2.62-1.58-4.16-.07-1.76.6-3.47 1.85-4.72 1.24-1.25 2.95-1.92 4.7-1.85 1.36 0 2.66.46 3.7 1.3v-4.16c.03-.4-.02-.8-.13-1.2-.16-.37-.52-.6-.92-.63l-.53-.1-.1-.27.1-.1 3.18-.92h.23v14.37c0 1.64.3 2.6.93 2.9l.7-.06c0 .17-.08.32-.2.4l-3 .73-.3-2.3zm.04-2.16v-3.2c-.08-1.06-.5-2.05-1.23-2.82-.75-.74-1.78-1.13-2.84-1.1-1.3-.05-2.5.6-3.17 1.72-.66 1.1-1 2.37-.93 3.65-.03 1.3.3 2.55.96 3.65.6 1.15 1.8 1.87 3.12 1.85 1.04 0 2.04-.4 2.8-1.12.8-.64 1.28-1.6 1.3-2.63zM172.75 45.9c-.42 1.2-1.2 2.2-2.26 2.9-1.06.74-2.3 1.12-3.57 1.1-1.6.05-3.14-.63-4.2-1.84-1.07-1.2-1.64-2.77-1.6-4.38-.04-1.66.6-3.27 1.76-4.45 1.15-1.17 2.74-1.8 4.4-1.76 1.27.02 2.5.45 3.5 1.23 1.04.7 1.73 1.78 1.9 3 0 .24-.43.36-1.3.36h-8.2c-.04.38-.05.75-.05 1.12v.2c-.06 1.4.36 2.76 1.2 3.87.86 1.1 2.2 1.7 3.6 1.62.95 0 1.9-.3 2.67-.87.8-.53 1.4-1.3 1.72-2.2.08-.04.16-.05.24-.04.07.03.12.07.17.13zm-9.42-4.5h7.04c-.04-.9-.4-1.78-1.02-2.45-.63-.64-1.5-.97-2.4-.93-1.9 0-3.1 1.13-3.62 3.4zM194.78 46.42c-.04 1.68.5 2.6 1.6 2.77l.2.2-.1.18h-5.17l-.1-.18.1-.2c.6-.06 1.13-.44 1.36-1 .18-.6.26-1.2.24-1.8l.05-4.3c.06-.9-.14-1.8-.57-2.6-.47-.8-1.34-1.26-2.26-1.2-.92 0-1.78.42-2.4 1.1-.64.65-1.1 1.48-1.26 2.38v4.62c0 1.7.44 2.63 1.33 2.77l.14.2-.07.2h-5l-.1-.2.12-.2c.6-.04 1.13-.4 1.4-.96.2-.58.27-1.2.23-1.82V42.1c0-2.52-.9-3.8-2.66-3.8-.93.04-1.8.45-2.43 1.14-.7.65-1.2 1.5-1.4 2.44v4.54c-.03.58.03 1.17.18 1.74.17.56.65.97 1.22 1.05l.2.2-.12.2h-4.98l-.1-.2.1-.2c.62-.04 1.16-.43 1.4-1 .18-.58.26-1.18.22-1.78v-5.55c0-1.1-.3-1.72-.88-1.82l-.47-.08-.1-.26.1-.1 2.88-1h.24v2.62c.55-.75 1.24-1.38 2.03-1.87.77-.54 1.67-.84 2.6-.87 1.94 0 3.17.94 3.7 2.82.48-.84 1.18-1.54 2-2.03.83-.5 1.77-.78 2.72-.8 1.12-.07 2.2.38 2.94 1.23.7.92 1.04 2.05.97 3.2l-.1 4.52zM207.03 38.24l-.18-.24.1-.26 1.93.08 1.95-.08.16.24-.12.2c-.88.37-1.67 1.34-2.37 2.9l-4.86 11.1c-.9 2.04-2.17 3.06-3.8 3.06-.33.02-.63-.18-.74-.5.13-.6.43-1.15.86-1.58l.37.2c.14.08.3.12.46.1.7-.06 1.32-.42 1.74-.98.45-.55.7-1.24.7-1.96l.36-1.6-3.98-8.22c-.23-.52-.5-1.02-.84-1.5-.32-.47-.8-.8-1.37-.96l-.18-.24.1-.26 2.36.08 2.3-.08.16.24-.1.2c-.64.15-1 .37-1.07.7V39c.04.5.2 1 .44 1.43l3.5 7 2.9-6.37c.26-.52.4-1.08.44-1.65 0-.12-.02-.26-.08-.38-.2-.44-.64-.74-1.13-.78zM138.55 58.07c.3-.5.84-.8 1.4-.8.5 0 .96.2 1.3.55.33.35.5.82.5 1.3.02.56-.2 1.1-.6 1.46-.38.4-.9.6-1.46.58-.53.02-1.04-.15-1.45-.47l-.12.33h-.34c.15-.23.22-.5.2-.78v-3.87c0-.12-.02-.24-.04-.36-.05-.12-.16-.2-.28-.2h-.15l-.04-.1v-.02l.96-.28h.07l.02 2.65zm0 .62v.9c-.02.34.1.68.3.96.23.26.57.4.92.38.4.02.8-.18 1-.53.23-.32.34-.7.33-1.1.02-.42-.1-.83-.3-1.18-.22-.35-.6-.57-1.02-.55-.3 0-.6.1-.8.33-.24.2-.4.5-.43.8zM145.17 57.52l-.06-.08.04-.08.6.03.6-.04.06.07-.03.07c-.35.2-.6.52-.74.9l-1.52 3.45c-.27.65-.67.97-1.17.97-.1 0-.2-.06-.23-.16.04-.2.13-.36.27-.5l.1.07.15.03c.2-.02.4-.13.54-.3.14-.18.22-.4.22-.6l.1-.5-1.23-2.58c-.07-.16-.16-.32-.26-.46-.1-.15-.26-.26-.43-.3l-.06-.08.05-.08.73.03.72-.04.05.07-.04.07c-.2.04-.3.1-.32.2v.05c0 .16.06.32.14.46l1.1 2.2.9-2c.1-.15.14-.33.15-.5v-.12c-.07-.16-.23-.26-.4-.26z"/>
        </g>
        <g fill-rule="nonzero" transform="translate(132 114)">
            <ellipse cx="8" cy="12" fill="#EFEFF6" rx="8" ry="9"/>
            <ellipse cx="9" cy="9" fill="#FFF" stroke="#375D81" stroke-width="2" rx="8" ry="9"/>
            <path fill="#9452BA" d="M11.5 13.77l.08.23c-.23-2.62 1-3.7 1.4-5.44v-.08c0-.04 0-.08.02-.12.02-.6-.13-1.16-.42-1.63l-.08-.14c-.05-.1-.1-.2-.16-.28l-.02-.02-.04-.08-.05-.07-.05-.08-.06-.07-.03-.06c-.55-.72-1.15-1.37-1.8-1.94.1.92.1 1.84.03 2.76-.13 1.06-.4 2.1-.77 3.05-.9-.07-1.76-.3-2.58-.7-.7-.4-1.36-.86-1.98-1.4 0 .07 0 .16.02.24V8c0 .07 0 .13.02.2.02.04 0 .04 0 .07l.02.17v.07c0 .1.02.16.04.23v.02c0 .08.02.17.04.25l.03.23v.04l.04.2v.04c0 .1.04.17.06.25.05.24.1.48.18.7.1.37.22.7.37 1.05l.07.13.06.1.06.13.08.14v.02l.1.14.07.1.04.03.03.04.04.04.05.04.03.03.05.04.03.02.06.03.02.02.06.04h.03l.1.04.05.02c1.45.47 2.87-.27 4.64 1.26"/>
        </g>
        <path stroke="#E1F2FF" d="M81.5 94.5l20 10M59.5 81.48l26 13.02" stroke-linecap="round"/>
        <path stroke="#9ACDED" d="M131.5 155.5l23-11M131.5 161.5l23-11" stroke-linecap="round"/>
    </g>
</svg>