<?xml version="1.0" encoding="UTF-8"?>
<svg width="256px" height="256px" viewBox="0 0 256 256" version="1.1" xmlns="http://www.w3.org/2000/svg" xmlns:xlink="http://www.w3.org/1999/xlink">
    <!-- Generator: Sketch 46.2 (44496) - http://www.bohemiancoding.com/sketch -->
    <title>illustration-variant</title>
    <desc>Created with Sketch.</desc>
    <defs></defs>
    <g id="256x256" stroke="none" stroke-width="1" fill="none" fill-rule="evenodd">
        <g id="illustration-variant">
            <g id="Family_Variants" transform="translate(3.000000, 18.000000)">
                <path d="M5.33,219.62 C5.33,153.489424 58.9394241,99.88 125.07,99.88 C191.200576,99.88 244.81,153.489424 244.81,219.62 L5.33,219.62 Z" id="Shape" fill="#E1F2FF" fill-rule="nonzero"></path>
                <path d="M16.98,210.62 L52.98,210.62" id="Shape" stroke="#375D81" stroke-width="2" fill="#FFFFFF" fill-rule="nonzero" stroke-linecap="round" stroke-linejoin="round"></path>
                <path d="M169.43,210.25 L164.43,210.25 C162.713579,210.254453 161.169762,209.206722 160.54,207.61 C158.77,203.06 159.21,198.88 159,195.3 C158.61,188.67 159.64,185.3 160.63,179.74 L168.1,179.91 C168.1,179.91 167.46,182.66 167.04,190.91 C166.91,193.47 171.13,203.73 170.93,208.76 C170.908764,209.577818 170.247942,210.234235 169.43,210.25 L169.43,210.25 Z" id="Shape" stroke="#52267D" stroke-width="2" fill="#9452BA" fill-rule="nonzero"></path>
                <path d="M183.93,186.58 L189.93,179.76 L193.64,179.91 C193.64,179.91 194.16,185.58 194.37,187.91 C195.040196,193.313456 196.103007,198.660932 197.55,203.91 C197.874388,204.970054 198.075713,206.063916 198.15,207.17 C198.166512,207.970597 197.855747,208.743291 197.289519,209.309519 C196.723291,209.875747 195.950597,210.186512 195.15,210.17 L190.74,210.17 C188.169699,210.182264 185.916225,208.455149 185.26,205.97 C183.33,198.29 183.93,186.58 183.93,186.58 Z" id="Shape" stroke="#52267D" stroke-width="2" fill="#9452BA" fill-rule="nonzero"></path>
                <polyline id="Shape" stroke="#52267D" stroke-width="0.5" points="192.38 191.28 193.37 192.15 192.42 193.01 190.88 192.41 191.19 191.74 192.47 192.04 192.46 192.27 192.13 192.25"></polyline>
                <path d="M192.34,161.19 C187.96,161.1 183.86,158.08 174.92,157.67 C174.810923,157.140956 174.646692,156.624803 174.43,156.13 C172.81,152.63 170.53,142.54 172,135.91 L173.16,130.66 C173.539668,128.939206 173.730795,127.18218 173.73,125.42 L173.73,125.42 C173.72888,124.70108 173.655173,123.984111 173.51,123.28 C173.476667,123.106667 173.436667,122.936667 173.39,122.77 C173.260102,122.264999 173.092978,121.770312 172.89,121.29 C172.823333,121.13 172.753333,120.973333 172.68,120.82 C172.533333,120.513333 172.37,120.213333 172.19,119.92 C172.01,119.626667 171.82,119.343333 171.62,119.07 C171.007009,118.250402 170.279598,117.522991 169.46,116.91 C169.186667,116.703333 168.903333,116.513333 168.61,116.34 C166.946505,115.329101 165.036566,114.796256 163.09,114.8 L161.35,114.8 C158.527952,114.797507 155.821407,115.920436 153.83,117.92 C153.59,118.16 153.36,118.413333 153.14,118.68 C152.746192,119.158509 152.394861,119.670449 152.09,120.21 C151.97,120.41 151.86,120.62 151.76,120.83 C151.66,121.04 151.61,121.14 151.55,121.3 C151.139207,122.27203 150.876292,123.300097 150.77,124.35 C150.73491,124.712254 150.718222,125.076055 150.72,125.44 L150.72,125.44 C150.72,126.903555 151.906445,128.09 153.37,128.09 L164.26,128.09 L162.61,137.54 C160.68,147.25 161.26,153.74 162.76,158.07 C163.09,159.07 165,162.46 165,162.46 C159.55,171.05 151.2,174.81 142.27,175.9 C134.68,176.83 118.27,169.9 126.74,161.9 C135.21,153.9 124.98,158.9 123.48,159.9 C121.98,160.9 113.29,168.42 122.72,179.44 C126.72,184.1 131.23,188.33 142.09,191.58 C143.83,192.1 153.34,192.79 158.47,194.26 C173.72,198.64 186.11,193.88 193.06,183.81 C200.01,173.74 194.07,161.23 192.34,161.19 Z" id="Shape" stroke="#52267D" stroke-width="2" fill="#9452BA" fill-rule="nonzero"></path>
                <path d="M182.88,146.72 C182.53,135.46 191.47,126.61 201.62,124.72 C203.73,124.33 204.41,123.72 206.72,123.72 L208.49,123.72 C214.44363,123.72 219.27,128.54637 219.27,134.5 C219.27,135.985646 218.065646,137.19 216.58,137.19 L198.38,137.19 C194.38,138.89 191.88,144.01 191.44,146.76 C190.769477,150.054469 191.179803,153.47736 192.61,156.52 C193.387656,158.25625 193.681355,160.170472 193.46,162.06 L193.36,162.06 C193.281509,163.110915 193.121021,164.15409 192.88,165.18 C191.17,163.99 188.52,162.18 188.04,161.95 C187.04,161.4 184.63,160.14 183.57,159.53 C176.81,155.66 183.08,153.13 182.88,146.72 Z" id="Shape" stroke="#52267D" stroke-width="2" fill="#9452BA" fill-rule="nonzero"></path>
                <path d="M188.65,159.73 C188.74,157.99 189,157.1 188.81,156.39 C187.69,152.32 187.32,151.03 187.32,146.72 C187.431763,142.338397 189.743924,138.308094 193.47,136 C195.199428,135.76658 196.953192,136.195199 198.38,137.2 C194.38,138.9 191.88,144.02 191.44,146.77 C190.769477,150.064469 191.179803,153.48736 192.61,156.53 C193.387656,158.26625 193.681355,160.180472 193.46,162.07 C193.46,162.07 188.54,163.92 188.65,159.78" id="Shape" stroke="#52267D" fill="#F3E3FF" fill-rule="nonzero"></path>
                <path d="M214.15,125.53 C214.09141,124.364186 213.361911,123.338206 212.28,122.9 L210.67,122.25 C210.67,122.25 209.56,124.61 210.82,125.2 C211.853222,125.710293 213.036719,125.827576 214.15,125.53 L214.15,125.53 Z" id="Shape" stroke="#52267D" fill="#FFFFFF" fill-rule="nonzero"></path>
                <path d="M209.47,124.2 C209.372108,122.618604 208.111396,121.357892 206.53,121.26 C205.99,121.19 204.59,121.26 204.59,121.26 C204.59,121.26 203.94,123.97 205.46,124.26 C206.793151,124.422908 208.14232,124.402721 209.47,124.2 L209.47,124.2 Z" id="Shape" stroke="#52267D" fill="#FFFFFF" fill-rule="nonzero"></path>
                <path d="M203.73,124.45 C203.73,124.45 203.35,121.61 200.8,122.39 C200.131749,122.601404 199.54051,123.004838 199.1,123.55 C199.1,123.55 199.61,125.72 200.62,125.47 C201.683406,125.217709 202.723733,124.876509 203.73,124.45 Z" id="Shape" stroke="#52267D" fill="#FFFFFF" fill-rule="nonzero"></path>
                <path d="M196.31,138.25 C196.31,138.25 190.31,135.01 191.49,129.56 C190.171458,130.677036 188.944224,131.897582 187.82,133.21 C187.82,134.28 187.62,138.51 193.47,141.35 C194.349378,140.256979 195.297994,139.221518 196.31,138.25 Z" id="Shape" stroke="#52267D" fill="#FFFFFF" fill-rule="nonzero"></path>
                <path d="M213.6,125.22 C213.571851,124.5391 213.144351,123.939031 212.51,123.69 L211.57,123.31 C211.57,123.31 210.92,124.68 211.66,125.03 C212.262288,125.32629 212.951672,125.393807 213.6,125.22 L213.6,125.22 Z" id="Shape" fill="#F3E3FF" fill-rule="nonzero"></path>
                <path d="M208.62,123.85 C208.561433,122.925415 207.824585,122.188567 206.9,122.13 C206.58,122.13 205.76,122.13 205.76,122.13 C205.76,122.13 205.38,123.72 206.27,123.87 C207.050573,123.970646 207.841253,123.963917 208.62,123.85 L208.62,123.85 Z" id="Shape" fill="#F3E3FF" fill-rule="nonzero"></path>
                <path d="M203.1,124.36 C203.1,124.36 202.88,122.68 201.36,123.14 C200.966226,123.266982 200.618474,123.506931 200.36,123.83 C200.36,123.83 200.66,125.11 201.26,124.97 C201.889356,124.818631 202.50486,124.614578 203.1,124.36 L203.1,124.36 Z" id="Shape" fill="#F3E3FF" fill-rule="nonzero"></path>
                <path d="M201.89,130.43 L207.34,130.43 C208.709666,130.43 209.82,131.540334 209.82,132.91 L209.82,132.91 C209.82,134.279666 208.709666,135.39 207.34,135.39 L206.86,135.39 C204.098576,135.39 201.86,133.151424 201.86,130.39 L201.86,130.39 L201.89,130.43 Z" id="Shape" fill="#F3E3FF" fill-rule="nonzero" opacity="0.3" transform="translate(205.840000, 132.890000) rotate(180.000000) translate(-205.840000, -132.890000) "></path>
                <path d="M202.82,131.26 L207.71,131.26 C208.814569,131.26 209.71,132.155431 209.71,133.26 L209.71,133.26 C209.71,134.364569 208.814569,135.26 207.71,135.26 L206.71,135.26 C204.556089,135.26 202.81,133.513911 202.81,131.36 L202.81,131.36 L202.82,131.26 Z" id="Shape" stroke="#52267D" fill="#FFFFFF" fill-rule="nonzero" transform="translate(206.260000, 133.260000) rotate(180.000000) translate(-206.260000, -133.260000) "></path>
                <circle id="Oval" fill="#52267D" fill-rule="nonzero" cx="207.72" cy="133.26" r="1.09"></circle>
                <path d="M216.83,136.34 L216.83,136.34 C216.521238,136.27159 216.245651,136.098465 216.05,135.85 L215.68,135.39 L216.49,135.56 L216.97,135.66 C217.059305,135.679083 217.137179,135.733288 217.186085,135.81041 C217.234991,135.887531 217.250817,135.981084 217.23,136.07 L217.23,136.07 C217.213069,136.159011 217.161309,136.237582 217.08621,136.288274 C217.01111,136.338966 216.918884,136.357585 216.83,136.34 Z" id="Shape" fill="#52267D" fill-rule="nonzero"></path>
                <path d="M195.31,138.36 C195.31,138.36 190.72,135.89 190.79,130.91 C189.814658,131.534766 188.963608,132.334957 188.28,133.27 C188.466819,134.556876 188.964518,135.778815 189.73,136.83 C191.43,138.68 193.19,139.24 195.31,138.36 Z" id="Shape" fill="#EAF3FB" fill-rule="nonzero"></path>
                <path d="M191,137.49 C192.060312,138.555318 193.261461,139.47048 194.57,140.21" id="Shape" stroke="#52267D" fill="#FFFFFF" fill-rule="nonzero"></path>
                <path d="M173,156.83 L174,154.83 C177.82,145.45 178.41,139.94 176.43,130.99 L175.27,125.74 C174.890332,124.019206 174.699205,122.26218 174.7,120.5 L174.7,120.5 C174.7,114.62369 179.46369,109.86 185.34,109.86 L187,109.86 C189.782121,109.86 192.450294,110.965193 194.41755,112.93245 C196.384807,114.899706 197.49,117.567879 197.49,120.35 L197.49,120.65 C197.49,122.030712 196.370712,123.15 194.99,123.15 L184.16,123.15 L185.81,132.6 C190.81,157.93 190.35,168.2 180.42,166.09" id="Shape" stroke="#52267D" stroke-width="2" fill="#9452BA" fill-rule="nonzero"></path>
                <path d="M192.29,111.11 C192.129021,109.955763 191.367672,108.973622 190.29,108.53 C189.821428,108.405769 189.328572,108.405769 188.86,108.53 C188.86,108.53 187.8,110.18 189.04,110.77 C190.046524,111.272787 191.201209,111.393585 192.29,111.11 L192.29,111.11 Z" id="Shape" stroke="#52267D" fill="#FFFFFF" fill-rule="nonzero"></path>
                <path d="M187.93,110.5 C187.821969,108.707545 186.392455,107.278031 184.6,107.17 C184.13751,107.130465 183.67249,107.130465 183.21,107.17 C183.21,107.17 181.67,110.22 183.39,110.52 C184.897172,110.72028 186.424651,110.713551 187.93,110.5 Z" id="Shape" stroke="#52267D" fill="#FFFFFF" fill-rule="nonzero"></path>
                <path d="M182.08,111.16 C182.08,111.16 181.64,108.38 179.15,109.21 C178.502872,109.435294 177.93611,109.845588 177.52,110.39 C177.52,110.39 178.07,112.5 179.06,112.23 C180.09483,111.958454 181.105042,111.600531 182.08,111.16 L182.08,111.16 Z" id="Shape" stroke="#52267D" fill="#FFFFFF" fill-rule="nonzero"></path>
                <path d="M192.11,160.86 C191.577845,160.454884 190.968824,160.162282 190.32,160" id="Shape" stroke="#52267D" fill="#F3E3FF" fill-rule="nonzero"></path>
                <path d="M188.51,160.8 C190.29,153.58 187.08,139.8 186.51,136.37 L184.18,122.75 L183.18,122.75 C182.539279,122.813992 181.952883,123.138087 181.557823,123.646561 C181.162763,124.155035 180.993651,124.803341 181.09,125.44 L182.78,137.25 C183.35,141.25 183.95,159.76 177,163.74 C175.52,164.59 173.11,164.03 172.2,163.6 C168.9,162.02 167.95,157.9 167.2,154.6 C165.7,147.73 166.87,142.34 167.2,136.95 L167.55,130.21 C167.632014,128.939788 166.696033,127.831623 165.43,127.7 L164.19,127.7 L161.95,141.32 C161.28,145.2 159.55,158.64 167.47,164.95 C167.61,165.06 165.54,165.53 166.14,166.59 C168.52,170.8 175.43,171.47 176.73,173.27 C181.73,180.21 177.05,195.01 177.05,195.01 C180.292136,193.691131 183.324164,191.905604 186.05,189.71 C194.05,182.5 195.12,172.05 195.16,168.98 C195.16,165.3 194.24,162.98 193.05,161.66" id="Shape" stroke="#52267D" fill="#F3E3FF" fill-rule="nonzero"></path>
                <path d="M123.2,166.83 C122.501222,165.994854 122.309852,164.846634 122.7,163.83 C122.905882,163.422664 123.216526,163.077504 123.6,162.83 C123.6,162.83 125.38,163.14 125.01,164.34 C124.735486,165.365337 124.0906,166.2525 123.2,166.83 L123.2,166.83 Z" id="Shape" stroke="#52267D" fill="#FFFFFF" fill-rule="nonzero"></path>
                <path d="M123.58,165.07 C123.353741,164.789015 123.285922,164.412246 123.4,164.07 C123.4749,163.93049 123.585281,163.81321 123.72,163.73 C123.72,163.73 124.34,163.84 124.21,164.26 C124.101757,164.595668 123.878696,164.882461 123.58,165.07 L123.58,165.07 Z" id="Shape" fill="#F3E3FF" fill-rule="nonzero"></path>
                <path d="M132.56,175.89 C133.164154,174.33523 132.517021,172.573828 131.05,171.78 C130.676694,171.560289 130.285265,171.372939 129.88,171.22 C129.88,171.22 127.38,173.22 128.72,174.12 C129.91332,174.882306 131.205292,175.477825 132.56,175.89 L132.56,175.89 Z" id="Shape" stroke="#52267D" fill="#FFFFFF" fill-rule="nonzero"></path>
                <path d="M131.66,175 C131.997741,174.136941 131.636948,173.157647 130.82,172.72 C130.612585,172.598291 130.395123,172.494579 130.17,172.41 C130.17,172.41 128.79,173.5 129.53,174.02 C130.191992,174.442263 130.908635,174.771986 131.66,175 L131.66,175 Z" id="Shape" fill="#F3E3FF" fill-rule="nonzero"></path>
                <path d="M124.64,167.78 C124.64,167.78 122.76,169.43 124.56,170.91 C125.038486,171.293011 125.619475,171.526102 126.23,171.58 C126.23,171.58 127.56,170.16 126.89,169.58 C126.192291,168.917406 125.439588,168.315244 124.64,167.78 Z" id="Shape" stroke="#52267D" fill="#FFFFFF" fill-rule="nonzero"></path>
                <path d="M124.92,169 C124.92,169 124.09,169.73 124.92,170.39 C125.131714,170.560738 125.38916,170.665108 125.66,170.69 C125.66,170.69 126.25,170.06 125.95,169.79 C125.630015,169.497547 125.285405,169.233235 124.92,169 L124.92,169 Z" id="Shape" fill="#F3E3FF" fill-rule="nonzero"></path>
                <path d="M141.58,177.2 C141.916801,175.851636 141.11185,174.481885 139.77,174.12 C137.34,173.24 136.69,173.97 136.69,173.97 C136.69,173.97 135.35,176.23 136.55,176.97 C137.75,177.71 141.58,177.2 141.58,177.2 Z" id="Shape" stroke="#52267D" fill="#FFFFFF" fill-rule="nonzero"></path>
                <path d="M140.44,176.7 C140.611957,176.000068 140.195105,175.290533 139.5,175.1 C138.24,174.64 137.9,175.02 137.9,175.02 C137.9,175.02 137.2,176.19 137.83,176.57 C138.681843,176.792096 139.570303,176.836349 140.44,176.7 L140.44,176.7 Z" id="Shape" fill="#F3E3FF" fill-rule="nonzero"></path>
                <path d="M184.69,126.08 C181.745194,127.432131 178.37272,127.50812 175.37,126.29 C175.74,127.98 176.51,131.37 176.51,131.37 C176.51,131.37 181.51,132.92 185.45,130.47 C185,128.23 184.69,126.08 184.69,126.08 Z" id="Shape" stroke="#52267D" fill="#FFFFFF" fill-rule="nonzero"></path>
                <path d="M155.71,116.24 C155.868221,115.079902 156.6293,114.090499 157.71,113.64 C158.390719,113.467952 159.088181,113.370709 159.79,113.35 C159.79,113.35 160.22,115.35 158.97,115.9 C157.95959,116.40172 156.802192,116.52243 155.71,116.24 L155.71,116.24 Z" id="Shape" stroke="#52267D" fill="#FFFFFF" fill-rule="nonzero"></path>
                <path d="M160.39,115.29 C160.483384,113.72869 161.72869,112.483384 163.29,112.39 C163.692601,112.355617 164.097399,112.355617 164.5,112.39 C164.5,112.39 165.84,115.05 164.34,115.31 C163.028554,115.483045 161.699627,115.476316 160.39,115.29 L160.39,115.29 Z" id="Shape" stroke="#52267D" fill="#FFFFFF" fill-rule="nonzero"></path>
                <path d="M165.79,115.47 C165.79,115.47 166.24,112.67 168.74,113.47 C169.395136,113.695623 169.969111,114.109581 170.39,114.66 C170.39,114.66 169.83,116.78 168.84,116.52 C167.795761,116.255902 166.775517,115.90467 165.79,115.47 L165.79,115.47 Z" id="Shape" stroke="#52267D" fill="#FFFFFF" fill-rule="nonzero"></path>
                <path d="M191.45,110.73 C191.360437,110.076731 190.929938,109.520512 190.32,109.27 C190.054587,109.199615 189.775413,109.199615 189.51,109.27 C189.51,109.27 188.91,110.2 189.61,110.53 C190.178841,110.817407 190.832693,110.888478 191.45,110.73 Z" id="Shape" fill="#F3E3FF" fill-rule="nonzero"></path>
                <path d="M187,110.11 C186.931008,108.930254 185.989746,107.988992 184.81,107.92 C184.507215,107.894204 184.202785,107.894204 183.9,107.92 C183.9,107.92 182.9,109.92 184.02,110.12 C185.009188,110.251857 186.011719,110.248493 187,110.11 Z" id="Shape" fill="#F3E3FF" fill-rule="nonzero"></path>
                <path d="M181.28,111 C181.28,111 181,109.23 179.42,109.76 C179.021711,109.909059 178.674617,110.169379 178.42,110.51 C178.42,110.51 178.77,111.85 179.42,111.68 C180.057457,111.504282 180.67952,111.276861 181.28,111 L181.28,111 Z" id="Shape" fill="#F3E3FF" fill-rule="nonzero"></path>
                <path d="M156.51,115.84 C156.600937,115.189653 157.031576,114.637063 157.64,114.39 C158.019694,114.29462 158.408664,114.240969 158.8,114.23 C158.8,114.23 159.04,115.33 158.34,115.65 C157.773284,115.933361 157.122841,116.000894 156.51,115.84 L156.51,115.84 Z" id="Shape" fill="#F3E3FF" fill-rule="nonzero"></path>
                <path d="M161.38,114.92 C161.434068,114.015503 162.155503,113.294068 163.06,113.24 C163.292911,113.220142 163.527089,113.220142 163.76,113.24 C163.76,113.24 164.54,114.78 163.67,114.93 C162.909773,115.03097 162.139316,115.027606 161.38,114.92 L161.38,114.92 Z" id="Shape" fill="#F3E3FF" fill-rule="nonzero"></path>
                <path d="M166.57,115.36 C166.57,115.36 166.83,113.71 168.31,114.2 C168.705839,114.328072 169.054175,114.571908 169.31,114.9 C169.31,114.9 168.98,116.16 168.39,116 C167.766325,115.838522 167.157475,115.624421 166.57,115.36 L166.57,115.36 Z" id="Shape" fill="#F3E3FF" fill-rule="nonzero"></path>
                <path d="M173.12,130.87 C170.002099,131.289286 166.835075,131.164094 163.76,130.5 C163.32,132.98 163.03,134.85 163.03,134.85 C163.03,134.85 166.19,137 172.03,135.75 C172.73,132.57 173.12,130.87 173.12,130.87 Z" id="Shape" stroke="#52267D" fill="#FFFFFF" fill-rule="nonzero"></path>
                <path d="M161.84,121.09 L166.38,121.09 C167.086924,121.09 167.66,121.663076 167.66,122.37 L167.66,124.77 C167.66,125.476924 167.086924,126.05 166.38,126.05 L159.73,126.05 L159.73,123.19 C159.729994,122.631308 159.952615,122.095644 160.348607,121.701529 C160.744599,121.307414 161.281315,121.08734 161.84,121.09 Z" id="Shape" fill="#F3E3FF" fill-rule="nonzero" opacity="0.3"></path>
                <path d="M161.85,122.06 L165.67,122.06 C166.222285,122.06 166.67,122.507715 166.67,123.06 L166.67,125 C166.67,125.552285 166.222285,126 165.67,126 L159.83,126 L159.83,124.11 C159.816404,123.56747 160.023865,123.042708 160.404773,122.656142 C160.785681,122.269577 161.307329,122.054403 161.85,122.06 L161.85,122.06 Z" id="Shape" stroke="#52267D" fill="#FFFFFF" fill-rule="nonzero"></path>
                <circle id="Oval" fill="#52267D" fill-rule="nonzero" cx="161.81" cy="124.81" r="1.09"></circle>
                <path d="M181.55,116.43 L187.01,116.43 C188.379666,116.43 189.49,117.540334 189.49,118.91 L189.49,118.91 C189.49,120.279666 188.379666,121.39 187.01,121.39 L186.53,121.39 C183.768576,121.39 181.53,119.151424 181.53,116.39 L181.53,116.39 L181.55,116.43 Z" id="Shape" fill="#F3E3FF" fill-rule="nonzero" opacity="0.3" transform="translate(185.510000, 118.890000) rotate(180.000000) translate(-185.510000, -118.890000) "></path>
                <path d="M182.5,117.26 L187.39,117.26 C188.494569,117.26 189.39,118.155431 189.39,119.26 L189.39,119.26 C189.39,120.364569 188.494569,121.26 187.39,121.26 L186.39,121.26 C184.236089,121.26 182.49,119.513911 182.49,117.36 L182.49,117.36 L182.5,117.26 Z" id="Shape" stroke="#52267D" fill="#FFFFFF" fill-rule="nonzero" transform="translate(185.940000, 119.260000) rotate(180.000000) translate(-185.940000, -119.260000) "></path>
                <circle id="Oval" fill="#52267D" fill-rule="nonzero" cx="187.4" cy="120.1" r="1.09"></circle>
                <path d="M153.18,127.19 L153.18,127.19 C153.488762,127.12159 153.764349,126.948465 153.96,126.7 L154.33,126.24 L153.52,126.41 L153.04,126.51 C152.950695,126.529083 152.872821,126.583288 152.823915,126.66041 C152.775009,126.737531 152.759183,126.831084 152.78,126.92 L152.78,126.92 C152.796931,127.009011 152.848691,127.087582 152.92379,127.138274 C152.99889,127.188966 153.091116,127.207585 153.18,127.19 Z" id="Shape" fill="#52267D" fill-rule="nonzero"></path>
                <path d="M195.18,122.09 L195.18,122.09 C194.871238,122.02159 194.595651,121.848465 194.4,121.6 L194.03,121.14 L194.84,121.31 L195.32,121.41 C195.409305,121.429083 195.487179,121.483288 195.536085,121.56041 C195.584991,121.637531 195.600817,121.731084 195.58,121.82 L195.58,121.82 C195.563069,121.909011 195.511309,121.987582 195.43621,122.038274 C195.36111,122.088966 195.268884,122.107585 195.18,122.09 L195.18,122.09 Z" id="Shape" fill="#52267D" fill-rule="nonzero"></path>
                <path d="M184.23,126.79 C181.615206,127.795341 178.730017,127.848442 176.08,126.94 C176.28169,128.164237 176.552118,129.376153 176.89,130.57 C178.255919,130.647501 179.626171,130.587197 180.98,130.39 C183.31,129.93 184.23,128.87 184.23,126.79 Z" id="Shape" fill="#EAF3FB" fill-rule="nonzero"></path>
                <path d="M178.58,129.86 C180.825991,130.008438 183.074294,129.606832 185.13,128.69" id="Shape" stroke="#52267D" fill="#FFFFFF" fill-rule="nonzero"></path>
                <path d="M165.52,131.42 C167.729705,132.011315 170.037066,132.14404 172.3,131.81 C172.060403,132.865339 171.753101,133.904154 171.38,134.92 C171.38,134.92 166.61,134.27 165.52,131.42 Z" id="Shape" fill="#EAF3FB" fill-rule="nonzero"></path>
                <path d="M167.45,165 C167.45,165 167.67,165.16 167.98,165.34" id="Shape" stroke="#52267D" stroke-width="0.5" fill="#F3E3FF" fill-rule="nonzero"></path>
                <path d="M165.17,132.78 C167.638165,133.193884 170.151047,133.271255 172.64,133.01" id="Shape" stroke="#52267D" fill="#FFFFFF" fill-rule="nonzero"></path>
                <path d="M171.11,207.33 C171.821757,206.858124 172.770756,206.972512 173.35,207.6 C174.52,208.6 175.35,210.04 174.87,210.19 C174.085137,210.405939 173.262432,210.446904 172.46,210.31 C171.62,210.16 170.88,210.31 170.54,208.56 C170.452028,208.070876 170.679942,207.579061 171.11,207.33 L171.11,207.33 Z" id="Shape" stroke="#52267D" stroke-width="0.5" fill="#FFFFFF" fill-rule="nonzero"></path>
                <path d="M171.33,207.61 C171.772277,207.317909 172.361153,207.38993 172.72,207.78 C173.45,208.38 173.99,209.3 173.67,209.39 C173.181153,209.52286 172.669095,209.546756 172.17,209.46 C171.65,209.36 171.17,209.46 170.97,208.37 C170.917372,208.06605 171.061478,207.761827 171.33,207.61 L171.33,207.61 Z" id="Shape" fill="#EAF3FB" fill-rule="nonzero"></path>
                <path d="M169.74,207.31 C169.23,207.24 168.5,208.31 168.58,208.68 C168.66,209.05 168.72,210.13 169.58,210.25 C170.19,210.34 172.35,210.56 172.82,210.09 C173.29,209.62 172.37,207.66 169.74,207.31 Z" id="Shape" stroke="#52267D" stroke-width="0.5" fill="#FFFFFF" fill-rule="nonzero"></path>
                <path d="M169.6,207.62 C169.3,207.62 168.87,208.23 168.92,208.43 C168.97,208.63 169,209.28 169.49,209.35 C169.98,209.42 171.12,209.54 171.4,209.26 C171.68,208.98 171.15,207.82 169.6,207.62 Z" id="Shape" fill="#EAF3FB" fill-rule="nonzero"></path>
                <path d="M167.59,207.52 C167.59,207.52 168.03,207.29 168.9,207.79 C169.77,208.29 170.81,208.93 170.51,209.79 C170.21,210.65 167.78,210.34 167.25,210.15 C166.716064,209.960508 166.389761,209.420854 166.47,208.86 C166.563596,208.239134 166.995595,207.722278 167.59,207.52 Z" id="Shape" stroke="#52267D" stroke-width="0.5" fill="#FFFFFF" fill-rule="nonzero"></path>
                <path d="M167.43,207.83 C167.43,207.83 167.69,207.69 168.2,207.99 C168.71,208.29 169.33,208.67 169.2,209.18 C169.07,209.69 167.59,209.5 167.27,209.4 C166.957542,209.285731 166.766332,208.969819 166.81,208.64 C166.853071,208.276969 167.090811,207.966373 167.43,207.83 L167.43,207.83 Z" id="Shape" fill="#EAF3FB" fill-rule="nonzero"></path>
                <path d="M177.73,179.71 C177.496985,184.546303 177.808948,189.393468 178.66,194.16 C179.99,202.38 182.35,204.96 182.17,207.09 C182.04,208.74 181.34,210.25 179.68,210.25 L174.74,210.25 C172.43704,210.245512 170.393342,208.773084 169.66,206.59 C168.885891,204.257329 168.353103,201.851404 168.07,199.41 C167.78484,195.860886 167.708042,192.298105 167.84,188.74" id="Shape" stroke="#52267D" stroke-width="2" fill="#9452BA" fill-rule="nonzero"></path>
                <path d="M152.4,183.43 C154.011582,184.936005 154.909176,187.054617 154.87,189.26 C154.87,192.09 153.21,195.69 154.25,200.39 C155.18,204.58 157.02,205.32 156.47,209.08 C156.356431,209.762292 155.761616,210.259387 155.07,210.25 L149.56,210.25 C147.021657,210.250038 144.855721,208.414069 144.44,205.91 C143.613638,199.98182 143.826828,193.954973 145.07,188.1" id="Shape" stroke="#52267D" stroke-width="2" fill="#9452BA" fill-rule="nonzero"></path>
                <polyline id="Shape" stroke="#52267D" stroke-width="0.5" points="151.32 189.66 151 189.43 149.95 189.67 151.11 190.41 152.51 189.72 151.06 188.56 150.4 188.78"></polyline>
                <path d="M181.1,207.33 C181.811757,206.858124 182.760756,206.972512 183.34,207.6 C184.51,208.6 185.34,210.04 184.86,210.19 C184.075137,210.405939 183.252432,210.446904 182.45,210.31 C181.61,210.16 180.87,210.31 180.53,208.56 C180.442028,208.070876 180.669942,207.579061 181.1,207.33 L181.1,207.33 Z" id="Shape" stroke="#52267D" fill="#FFFFFF" fill-rule="nonzero"></path>
                <path d="M181.32,207.61 C181.762277,207.317909 182.351153,207.38993 182.71,207.78 C183.44,208.38 183.98,209.3 183.66,209.39 C183.171153,209.52286 182.659095,209.546756 182.16,209.46 C181.64,209.36 181.16,209.46 180.96,208.37 C180.907372,208.06605 181.051478,207.761827 181.32,207.61 Z" id="Shape" fill="#EAF3FB" fill-rule="nonzero"></path>
                <polyline id="Shape" stroke="#52267D" stroke-width="0.5" points="173.54 192.77 175.51 193.38 175.25 195.21 173.24 195.35 172.3 194.27 173.5 193.6 174.5 193.89 173.87 194.59"></polyline>
                <g id="Group" opacity="0.3" transform="translate(133.000000, 117.000000)" stroke="#F3E3FF" stroke-width="0.25">
                    <path d="M82.71,15.74 C82.7385858,15.9486 82.6433201,16.1547926 82.4659442,16.2682336 C82.2885682,16.3816747 82.0614318,16.3816747 81.8840558,16.2682336 C81.7066799,16.1547926 81.6114142,15.9486 81.64,15.74" id="Shape"></path>
                    <path d="M83.79,15.74 C83.8185858,15.9486 83.7233201,16.1547926 83.5459442,16.2682336 C83.3685682,16.3816747 83.1414318,16.3816747 82.9640558,16.2682336 C82.7866799,16.1547926 82.6914142,15.9486 82.72,15.74" id="Shape"></path>
                    <path d="M83.25,16.27 C83.213356,16.5374035 82.9849026,16.7366856 82.715,16.7366856 C82.4450974,16.7366856 82.216644,16.5374035 82.18,16.27" id="Shape"></path>
                    <path d="M62.18,15.23 C61.9403062,15.4024481 61.6244494,15.426827 61.361132,15.2932029 C61.0978145,15.1595789 60.9309982,14.890261 60.9286557,14.5949883 C60.9263133,14.2997155 61.0888357,14.0277849 61.35,13.89" id="Shape"></path>
                    <path d="M61.93,16.32 C61.5628293,16.5137117 61.1083663,16.3901917 60.8897665,16.0372715 C60.6711667,15.6843513 60.7630147,15.2224447 61.1,14.98" id="Shape"></path>
                    <path d="M36.76,33.23 C36.76,33.627645 36.437645,33.95 36.04,33.95 C35.642355,33.95 35.32,33.627645 35.32,33.23" id="Shape"></path>
                    <path d="M38.19,33.23 C38.19,33.627645 37.867645,33.95 37.47,33.95 C37.072355,33.95 36.75,33.627645 36.75,33.23" id="Shape"></path>
                    <path d="M37.48,34 C37.48,34.397645 37.157645,34.72 36.76,34.72 C36.362355,34.72 36.04,34.397645 36.04,34" id="Shape"></path>
                    <path d="M58.22,78.77 C58.22,79.167645 57.897645,79.49 57.5,79.49 C57.102355,79.49 56.78,79.167645 56.78,78.77" id="Shape"></path>
                    <path d="M59.66,78.77 C59.66,79.167645 59.337645,79.49 58.94,79.49 C58.542355,79.49 58.22,79.167645 58.22,78.77" id="Shape"></path>
                    <path d="M58.94,79.48 C58.94,79.877645 58.617645,80.2 58.22,80.2 C57.822355,80.2 57.5,79.877645 57.5,79.48" id="Shape"></path>
                    <path d="M37.87,10.33 C37.87,10.766305 37.516305,11.12 37.08,11.12 C36.643695,11.12 36.29,10.766305 36.29,10.33" id="Shape"></path>
                    <path d="M38.66,11.12 C38.66,11.556305 38.306305,11.91 37.87,11.91 C37.433695,11.91 37.08,11.556305 37.08,11.12" id="Shape"></path>
                    <path d="M48,24.28 C48.1192179,24.6887471 47.9665439,25.128158 47.6195666,25.3749248 C47.2725894,25.6216917 46.8074106,25.6216917 46.4604334,25.3749248 C46.1134561,25.128158 45.9607821,24.6887471 46.08,24.28" id="Shape"></path>
                    <path d="M48.92,25.24 C48.7955556,25.6666667 48.4044444,25.96 47.96,25.96 C47.5155556,25.96 47.1244444,25.6666667 47,25.24" id="Shape"></path>
                    <path d="M61.9,0.42 C61.9,0.77346224 61.6134622,1.06 61.26,1.06 C60.9065378,1.06 60.62,0.77346224 60.62,0.42" id="Shape"></path>
                    <path d="M62.54,1.06 C62.54,1.41346224 62.2534622,1.7 61.9,1.7 C61.5465378,1.7 61.26,1.41346224 61.26,1.06" id="Shape"></path>
                    <path d="M1.5,65.12 C1.32136721,65.3218551 1.0486153,65.4130774 0.784487283,65.3593044 C0.520359266,65.3055314 0.304982474,65.1149325 0.219487265,64.8593044 C0.133992055,64.6036763 0.191367187,64.3218551 0.37,64.12" id="Shape"></path>
                    <path d="M1.58,66.17 C1.30385762,66.4820408 0.827040904,66.5111423 0.515000037,66.235 C0.20295917,65.9588576 0.173857663,65.4820409 0.45,65.17" id="Shape"></path>
                    <path d="M30.87,54.92 C30.6531349,55.3240004 30.1599402,55.4903371 29.7426939,55.3001995 C29.3254475,55.1100619 29.1273947,54.6287264 29.29,54.2" id="Shape"></path>
                    <path d="M32.44,55.64 C32.3249794,55.9432641 32.050811,56.1573664 31.7287115,56.1954558 C31.4066121,56.2335453 31.0900674,56.089297 30.9074843,55.8212257 C30.7249011,55.5531543 30.7065982,55.2057739 30.86,54.92" id="Shape"></path>
                    <path d="M31.3,56.07 C31.1849794,56.3732641 30.910811,56.5873664 30.5887115,56.6254558 C30.2666121,56.6635453 29.9500674,56.519297 29.7674843,56.2512257 C29.5849011,55.9831543 29.5665982,55.6357739 29.72,55.35" id="Shape"></path>
                    <path d="M32.87,56.79 C32.6531349,57.1940004 32.1599402,57.3603371 31.7426939,57.1701995 C31.3254475,56.9800619 31.1273947,56.4987264 31.29,56.07" id="Shape"></path>
                    <path d="M30.15,56.5 C29.9331349,56.9040004 29.4399402,57.0703371 29.0226939,56.8801995 C28.6054475,56.6900619 28.4073947,56.2087264 28.57,55.78" id="Shape"></path>
                    <path d="M46,6.91 C46,7.39324916 45.6082492,7.785 45.125,7.785 C44.6417508,7.785 44.25,7.39324916 44.25,6.91" id="Shape"></path>
                    <path d="M46.26,40 C46.26,40.4832492 45.8682492,40.875 45.385,40.875 C44.9017508,40.875 44.51,40.4832492 44.51,40" id="Shape"></path>
                    <path d="M36.35,21.74 C36.35,21.9775816 36.2232518,22.1971162 36.0175,22.315907 C35.8117483,22.4346978 35.5582517,22.4346978 35.3525,22.315907 C35.1467482,22.1971162 35.02,21.9775816 35.02,21.74" id="Shape"></path>
                    <path d="M20.57,6.68 C20.57,6.95614237 20.3461424,7.18 20.07,7.18 C19.7938576,7.18 19.57,6.95614237 19.57,6.68" id="Shape"></path>
                    <path d="M16.43,79.78 C16.3764102,80.0872484 16.1629761,80.3425679 15.8700962,80.4497819 C15.5772163,80.556996 15.2493862,80.4998163 15.0100962,80.2997819 C14.7708061,80.0997475 14.6564101,79.7872484 14.71,79.48" id="Shape"></path>
                    <path d="M40.6,86.23 C40.7192179,86.6387471 40.5665439,87.078158 40.2195666,87.3249248 C39.8725894,87.5716917 39.4074106,87.5716917 39.0604334,87.3249248 C38.7134561,87.078158 38.5607821,86.6387471 38.68,86.23" id="Shape"></path>
                    <path d="M41.56,87.19 C41.4355556,87.6166667 41.0444444,87.91 40.6,87.91 C40.1555556,87.91 39.7644444,87.6166667 39.64,87.19" id="Shape"></path>
                </g>
                <path d="M179.74,207.31 C179.23,207.24 178.5,208.31 178.58,208.68 C178.66,209.05 178.72,210.13 179.58,210.25 C180.19,210.34 182.35,210.56 182.82,210.09 C183.29,209.62 182.36,207.66 179.74,207.31 Z" id="Shape" stroke="#52267D" fill="#FFFFFF" fill-rule="nonzero"></path>
                <path d="M179.59,207.62 C179.29,207.62 178.86,208.23 178.91,208.43 C178.96,208.63 178.99,209.28 179.48,209.35 C179.97,209.42 181.11,209.54 181.39,209.26 C181.67,208.98 181.15,207.82 179.59,207.62 Z" id="Shape" fill="#EAF3FB" fill-rule="nonzero"></path>
                <path d="M177.93,207.85 C177.93,207.85 178.32,207.65 179.09,208.09 C179.86,208.53 180.78,209.09 180.51,209.87 C180.24,210.65 178.1,210.35 177.62,210.19 C177.147446,210.023324 176.858517,209.545963 176.93,209.05 C177.010145,208.493328 177.396906,208.029215 177.93,207.85 Z" id="Shape" stroke="#52267D" fill="#FFFFFF" fill-rule="nonzero"></path>
                <path d="M177.79,208.13 C177.79,208.13 178.02,208.01 178.47,208.27 C178.92,208.53 179.47,208.87 179.31,209.32 C179.15,209.77 177.88,209.61 177.6,209.51 C177.321247,209.412765 177.149719,209.132464 177.19,208.84 C177.238487,208.50839 177.47112,208.233108 177.79,208.13 L177.79,208.13 Z" id="Shape" fill="#EAF3FB" fill-rule="nonzero"></path>
                <path d="M198.21,208.07 C198.21,208.07 198.6,207.87 199.37,208.31 C200.14,208.75 201.06,209.31 200.79,210.09 C200.52,210.87 198.38,210.57 197.9,210.41 C197.427446,210.243324 197.138517,209.765963 197.21,209.27 C197.290145,208.713328 197.676906,208.249215 198.21,208.07 L198.21,208.07 Z" id="Shape" stroke="#52267D" fill="#FFFFFF" fill-rule="nonzero"></path>
                <path d="M198.07,208.34 C198.07,208.34 198.3,208.22 198.75,208.48 C199.2,208.74 199.75,209.08 199.59,209.53 C199.43,209.98 198.16,209.82 197.88,209.72 C197.601247,209.622765 197.429719,209.342464 197.47,209.05 C197.518487,208.71839 197.75112,208.443108 198.07,208.34 Z" id="Shape" fill="#EAF3FB" fill-rule="nonzero"></path>
                <path d="M195.87,207.52 C195.36,207.45 194.63,208.52 194.71,208.89 C194.79,209.26 194.85,210.34 195.71,210.46 C196.32,210.55 198.48,210.77 198.95,210.3 C199.42,209.83 198.49,207.88 195.87,207.52 Z" id="Shape" stroke="#52267D" fill="#FFFFFF" fill-rule="nonzero"></path>
                <path d="M195.72,207.83 C195.42,207.83 194.99,208.44 195.04,208.64 C195.09,208.84 195.12,209.49 195.61,209.56 C196.1,209.63 197.24,209.75 197.52,209.47 C197.8,209.19 197.27,208 195.72,207.83 Z" id="Shape" fill="#EAF3FB" fill-rule="nonzero"></path>
                <path d="M154.37,207.33 C155.081757,206.858124 156.030756,206.972512 156.61,207.6 C157.78,208.6 158.61,210.04 158.13,210.19 C157.345137,210.405939 156.522432,210.446904 155.72,210.31 C154.88,210.16 154.14,210.31 153.8,208.56 C153.712028,208.070876 153.939942,207.579061 154.37,207.33 L154.37,207.33 Z" id="Shape" stroke="#52267D" stroke-width="0.5" fill="#FFFFFF" fill-rule="nonzero"></path>
                <path d="M154.59,207.61 C155.032277,207.317909 155.621153,207.38993 155.98,207.78 C156.71,208.38 157.25,209.3 156.93,209.39 C156.441153,209.52286 155.929095,209.546756 155.43,209.46 C154.91,209.36 154.43,209.46 154.23,208.37 C154.177372,208.06605 154.321478,207.761827 154.59,207.61 Z" id="Shape" fill="#EAF3FB" fill-rule="nonzero"></path>
                <path d="M153,207.31 C152.49,207.24 151.76,208.31 151.84,208.68 C151.92,209.05 151.98,210.13 152.84,210.25 C153.45,210.34 155.61,210.56 156.08,210.09 C156.55,209.62 155.63,207.66 153,207.31 Z" id="Shape" stroke="#52267D" stroke-width="0.5" fill="#FFFFFF" fill-rule="nonzero"></path>
                <path d="M152.86,207.62 C152.56,207.62 152.13,208.23 152.18,208.43 C152.23,208.63 152.26,209.28 152.75,209.35 C153.24,209.42 154.38,209.54 154.66,209.26 C154.94,208.98 154.42,207.82 152.86,207.62 Z" id="Shape" fill="#EAF3FB" fill-rule="nonzero"></path>
                <path d="M151.2,207.85 C151.2,207.85 151.59,207.65 152.36,208.09 C153.13,208.53 154.05,209.09 153.78,209.87 C153.51,210.65 151.37,210.35 150.89,210.19 C150.417446,210.023324 150.128517,209.545963 150.2,209.05 C150.280145,208.493328 150.666906,208.029215 151.2,207.85 L151.2,207.85 Z" id="Shape" stroke="#52267D" stroke-width="0.5" fill="#FFFFFF" fill-rule="nonzero"></path>
                <path d="M151.06,208.13 C151.06,208.13 151.29,208.01 151.74,208.27 C152.19,208.53 152.74,208.87 152.58,209.32 C152.42,209.77 151.15,209.61 150.87,209.51 C150.591247,209.412765 150.419719,209.132464 150.46,208.84 C150.508487,208.50839 150.74112,208.233108 151.06,208.13 L151.06,208.13 Z" id="Shape" fill="#EAF3FB" fill-rule="nonzero"></path>
                <path d="M189.2,208 C189.065568,207.867159 188.864644,207.827762 188.69,207.9 C188.11,208.18 186.63,208.96 186.94,210.02 C187.18,210.84 187.68,210.6 188.64,210.61 L189.37,210.61 C189.522844,210.614472 189.665476,210.533519 189.74,210.4 L189.74,210.4 C190.127404,209.5896 189.927007,208.620332 189.25,208.03 L189.2,208 Z" id="Shape" stroke="#52267D" fill="#FFFFFF" fill-rule="nonzero"></path>
                <path d="M189.12,208.24 C189.022029,208.144263 188.876174,208.116669 188.75,208.17 C188.33,208.37 187.26,208.94 187.48,209.71 C187.65,210.31 188.02,210.13 188.72,210.14 L189.25,210.14 C189.360803,210.14373 189.46463,210.086048 189.52,209.99 L189.52,209.99 C189.806621,209.403602 189.66299,208.697756 189.17,208.27 L189.12,208.24 Z" id="Shape" fill="#EAF3FB" fill-rule="nonzero"></path>
                <path d="M192.61,207.68 C193.278524,207.152477 194.230629,207.186329 194.86,207.76 C196.1,208.62 197.1,210.02 196.6,210.21 C195.836334,210.490216 195.020483,210.599452 194.21,210.53 C193.36,210.45 192.63,210.67 192.15,208.95 C192.021914,208.472093 192.205575,207.965029 192.61,207.68 L192.61,207.68 Z" id="Shape" stroke="#52267D" fill="#FFFFFF" fill-rule="nonzero"></path>
                <path d="M192.85,207.95 C193.253486,207.606581 193.846514,207.606581 194.25,207.95 C195.02,208.48 195.65,209.35 195.33,209.47 C194.853994,209.645065 194.345322,209.713344 193.84,209.67 C193.31,209.62 192.84,209.76 192.56,208.67 C192.510489,208.394235 192.623175,208.114463 192.85,207.95 L192.85,207.95 Z" id="Shape" fill="#EAF3FB" fill-rule="nonzero"></path>
                <rect id="Rectangle-path" stroke="#9ACDED" stroke-width="2" fill="#FFFFFF" fill-rule="nonzero" x="82.37" y="43.83" width="115.03" height="166.79" rx="2.25"></rect>
                <polygon id="Shape" fill="#E1F2FF" fill-rule="nonzero" points="91.45 191.46 190.61 198.36 190.61 57.5 90.3 52.9"></polygon>
                <circle id="Oval" fill="#FFFFFF" fill-rule="nonzero" cx="136.62" cy="96.42" r="22.12"></circle>
                <circle id="Oval" stroke="#9ACDED" stroke-width="2" fill="#FFFFFF" fill-rule="nonzero" cx="139.31" cy="91.95" r="22.12"></circle>
                <path d="M144.8,102.85 C144.89,103.13 144.98,103.31 145,103.38 L145,103.38 C144.38,97.38 147.79,94.84 148.89,90.84 C148.885018,90.7734264 148.885018,90.7065736 148.89,90.64 C148.911169,90.5508922 148.927856,90.4607791 148.94,90.37 C149.007379,89.0270153 148.600296,87.7031112 147.79,86.63 L147.79,86.63 L147.57,86.29 L147.57,86.29 C147.43,86.09 147.28,85.88 147.12,85.67 L147.12,85.61 L146.99,85.44 L146.85,85.27 L146.71,85.1 L146.56,84.93 L146.45,84.81 C144.970417,83.1569977 143.313826,81.6714315 141.51,80.38 L141.51,80.38 C141.757187,82.4884202 141.777302,84.6172854 141.57,86.73 C141.221946,89.158484 140.5036,91.5192462 139.44,93.73 C136.982259,93.5475703 134.56728,92.9876729 132.28,92.07 C130.338105,91.1999793 128.497164,90.1202292 126.79,88.85 C126.79,89.04 126.79,89.22 126.85,89.41 L126.85,89.58 C126.85,89.71 126.85,89.85 126.9,89.98 L126.9,90.16 L126.96,90.56 L126.96,90.72 C126.96,90.89 127.02,91.06 127.05,91.22 L127.05,91.22 C127.05,91.42 127.12,91.61 127.16,91.8 L127.16,91.8 L127.27,92.32 L127.27,92.42 L127.38,92.89 L127.38,92.98 L127.51,93.51 L127.51,93.51 C127.663333,94.0766667 127.826667,94.6233333 128,95.15 L128,95.15 C128.267598,95.9726046 128.602047,96.7719374 129,97.54 L129.17,97.84 L129.17,97.84 L129.33,98.1 L129.33,98.1 L129.51,98.37 L129.51,98.37 L129.51,98.37 L129.51,98.37 L129.75,98.69 L129.75,98.69 L129.75,98.69 L130.03,99.02 L130.23,99.23 L130.32,99.31 L130.45,99.43 L130.55,99.51 L130.68,99.61 L130.78,99.68 L130.91,99.77 L131.01,99.83 L131.15,99.91 L131.25,99.96 L131.41,100.03 L131.49,100.03 L131.74,100.11 L131.89,100.16 C135.89,101.22 139.83,99.54 144.75,103.05" id="Fill-7" fill="#9452BA" fill-rule="nonzero"></path>
                <path d="M111.55,139.66 L168.57,139.66" id="Shape" stroke="#9ACDED" stroke-width="2" fill="#FFFFFF" fill-rule="nonzero" stroke-linecap="round" stroke-linejoin="round"></path>
                <path d="M111.55,158.05 L168.57,158.05" id="Shape" stroke="#9ACDED" stroke-width="2" fill="#FFFFFF" fill-rule="nonzero" stroke-linecap="round" stroke-linejoin="round"></path>
                <path d="M111.55,177.05 L168.57,177.05" id="Shape" stroke="#9ACDED" stroke-width="2" fill="#FFFFFF" fill-rule="nonzero" stroke-linecap="round" stroke-linejoin="round"></path>
                <rect id="Rectangle-path" stroke="#9ACDED" stroke-width="2" fill="#FFFFFF" fill-rule="nonzero" x="55.69" y="34.24" width="121.65" height="176.39" rx="2.25"></rect>
                <polygon id="Shape" fill="#E1F2FF" fill-rule="nonzero" points="65.29 190.35 170.16 197.65 170.16 48.7 64.08 43.83"></polygon>
                <circle id="Oval" fill="#FFFFFF" fill-rule="nonzero" cx="113.06" cy="89.85" r="23.39"></circle>
                <circle id="Oval" stroke="#9ACDED" stroke-width="2" fill="#FFFFFF" fill-rule="nonzero" cx="115.9" cy="85.12" r="23.39"></circle>
                <path d="M121.71,96.65 C121.81,96.94 121.9,97.14 121.92,97.21 L121.92,97.21 C121.26,90.84 124.92,88.21 126.04,83.95 C126.034817,83.8800959 126.034817,83.8099041 126.04,83.74 C126.064926,83.6444183 126.084952,83.5476254 126.1,83.45 C126.180847,82.0141432 125.748414,80.596332 124.88,79.45 L124.88,79.45 L124.64,79.1 L124.64,79.1 C124.49,78.88 124.33,78.67 124.16,78.45 L124.11,78.38 L123.97,78.2 L123.82,78.02 L123.67,77.84 L123.52,77.66 L123.41,77.53 C121.84324,75.783253 120.089394,74.2138461 118.18,72.85 L118.18,72.85 C118.439927,75.0780834 118.460042,77.3276247 118.24,79.56 C117.880406,82.1404416 117.124853,84.6499588 116,87 C113.397763,86.8072615 110.840931,86.2135908 108.42,85.24 C106.368615,84.3212731 104.423743,83.1811757 102.62,81.84 C102.62,82.04 102.62,82.24 102.69,82.44 L102.69,82.62 C102.69,82.76 102.69,82.9 102.75,83.04 L102.75,83.24 L102.82,83.66 L102.82,83.83 C102.82,84.01 102.88,84.19 102.91,84.36 L102.91,84.41 C102.91,84.62 102.99,84.82 103.03,85.02 L103.03,85.02 L103.14,85.57 L103.14,85.68 L103.25,86.17 L103.25,86.27 L103.39,86.83 L103.39,86.83 C103.55,87.43 103.723333,88.0066667 103.91,88.56 L103.91,88.56 C104.203843,89.428381 104.568398,90.271205 105,91.08 L105.18,91.4 L105.18,91.4 L105.35,91.68 L105.35,91.68 L105.54,91.96 L105.54,91.96 L105.54,91.96 L105.54,91.96 L105.79,92.3 L105.79,92.35 L105.79,92.35 C105.89,92.47 105.99,92.59 106.09,92.7 L106.31,92.92 L106.4,93.01 L106.54,93.13 L106.65,93.22 L106.78,93.33 L106.89,93.41 L107.03,93.51 L107.14,93.58 L107.29,93.66 L107.39,93.71 L107.56,93.79 L107.65,93.79 L107.91,93.88 L108.07,93.93 C112.33,95.05 116.47,93.27 121.66,96.99" id="Fill-7-2" fill="#9452BA" fill-rule="nonzero"></path>
                <path d="M87.18,135.58 L147.48,135.58" id="Shape" stroke="#9ACDED" stroke-width="2" fill="#FFFFFF" fill-rule="nonzero" stroke-linecap="round" stroke-linejoin="round"></path>
                <path d="M87.18,155.02 L147.48,155.02" id="Shape" stroke="#9ACDED" stroke-width="2" fill="#FFFFFF" fill-rule="nonzero" stroke-linecap="round" stroke-linejoin="round"></path>
                <path d="M87.18,175.12 L147.48,175.12" id="Shape" stroke="#9ACDED" stroke-width="2" fill="#FFFFFF" fill-rule="nonzero" stroke-linecap="round" stroke-linejoin="round"></path>
                <rect id="Rectangle-path" stroke="#375D81" stroke-width="2" fill="#FFFFFF" fill-rule="nonzero" x="27.44" y="24.09" width="128.64" height="186.53" rx="2.25"></rect>
                <polygon id="Shape" fill="#EFEFF6" fill-rule="nonzero" points="147.21 189.19 36.31 196.91 36.31 39.38 148.5 34.24"></polygon>
                <circle id="Oval" fill="#FFFFFF" fill-rule="nonzero" cx="88.12" cy="82.9" r="24.73"></circle>
                <circle id="Oval" stroke="#375D81" stroke-width="2" fill="#FFFFFF" fill-rule="nonzero" cx="91.12" cy="77.9" r="24.73"></circle>
                <path d="M97.27,90.1 C97.37,90.41 97.47,90.62 97.49,90.69 L97.49,90.69 C96.79,83.95 100.61,81.14 101.84,76.69 C101.834615,76.6167655 101.834615,76.5432345 101.84,76.47 C101.865304,76.3677643 101.885331,76.2642941 101.9,76.16 C101.980189,74.6701145 101.538125,73.1989257 100.65,72 L100.65,72 L100.4,71.63 L100.4,71.63 C100.24,71.4 100.07,71.17 99.9,70.94 L99.85,70.87 L99.7,70.68 L99.55,70.49 L99.39,70.3 L99.23,70.1 L99.11,69.96 C97.4560959,68.0950934 95.6015507,66.4182894 93.58,64.96 L93.58,64.96 C93.8572992,67.3173453 93.8807669,69.6976456 93.65,72.06 C93.2663488,74.7901698 92.4635632,77.4447591 91.27,79.93 C88.5235798,79.7248941 85.8252083,79.0975227 83.27,78.07 C81.0982238,77.0974054 79.0393191,75.89023 77.13,74.47 C77.13,74.68 77.13,74.89 77.2,75.1 L77.2,75.29 C77.2,75.44 77.2,75.59 77.26,75.74 C77.32,75.89 77.26,75.88 77.26,75.95 L77.33,76.4 L77.33,76.58 C77.33,76.77 77.39,76.96 77.43,77.14 L77.43,77.2 C77.43,77.42 77.51,77.63 77.55,77.85 L77.55,77.85 L77.67,78.43 L77.67,78.55 L77.79,79.07 L77.79,79.17 C77.79,79.37 77.89,79.57 77.94,79.77 L77.94,79.77 C78.1066667,80.4033333 78.29,81.0133333 78.49,81.6 L78.49,81.6 C78.7996409,82.5199633 79.1842654,83.412961 79.64,84.27 L79.83,84.61 L79.83,84.61 L80.01,84.9 L80.01,84.9 L80.21,85.2 L80.21,85.2 L80.21,85.2 L80.21,85.2 L80.47,85.56 L80.47,85.62 L80.47,85.62 C80.57,85.75 80.68,85.87 80.79,85.99 L81.02,86.23 L81.12,86.32 L81.27,86.45 L81.38,86.54 L81.52,86.65 L81.63,86.73 L82,87 L82.11,87.07 L82.27,87.16 L82.38,87.22 L82.56,87.3 L82.65,87.3 L82.93,87.39 L83.1,87.45 C87.6,88.64 91.98,86.75 97.48,90.68" id="Fill-7-3" fill="#9452BA" fill-rule="nonzero"></path>
                <path d="M60.91,131.62 L124.68,131.62" id="Shape" stroke="#375D81" stroke-width="2" fill="#FFFFFF" fill-rule="nonzero" stroke-linecap="round" stroke-linejoin="round"></path>
                <path d="M60.38,151.82 L124.14,151.82" id="Shape" stroke="#375D81" stroke-width="2" fill="#FFFFFF" fill-rule="nonzero" stroke-linecap="round" stroke-linejoin="round"></path>
                <path d="M60.38,173.07 L124.14,173.07" id="Shape" stroke="#375D81" stroke-width="2" fill="#FFFFFF" fill-rule="nonzero" stroke-linecap="round" stroke-linejoin="round"></path>
                <path d="M229,37.45 L229,44.45" id="Shape" stroke="#375D81" stroke-width="2" stroke-linecap="round" stroke-linejoin="round"></path>
                <path d="M232.5,40.95 L225.5,40.95" id="Shape" stroke="#375D81" stroke-width="2" stroke-linecap="round" stroke-linejoin="round"></path>
                <path d="M10.22,166.98 L10.22,170.92" id="Shape" stroke="#375D81" stroke-linecap="round"></path>
                <path d="M12.19,168.95 L8.25,168.95" id="Shape" stroke="#375D81" stroke-linecap="round"></path>
                <path d="M238.29,148.27 L238.29,152.2" id="Shape" stroke="#375D81" stroke-linecap="round" stroke-linejoin="round"></path>
                <path d="M240.26,150.23 L236.32,150.23" id="Shape" stroke="#375D81" stroke-linecap="round" stroke-linejoin="round"></path>
                <path d="M114.78,0.5 L114.78,4.44" id="Shape" stroke="#375D81" stroke-linecap="round"></path>
                <path d="M116.75,2.47 L112.81,2.47" id="Shape" stroke="#375D81" stroke-linecap="round"></path>
                <path d="M12.19,62.4 L12.19,70.52" id="Shape" stroke="#375D81" stroke-width="2" fill="#FFFFFF" fill-rule="nonzero" stroke-linecap="round"></path>
                <path d="M16.25,66.46 L8.13,66.46" id="Shape" stroke="#375D81" stroke-width="2" fill="#FFFFFF" fill-rule="nonzero" stroke-linecap="round"></path>
                <path d="M92.38,219.7 L159.57,219.7" id="Shape" stroke="#375D81" stroke-width="2" fill="#FFFFFF" fill-rule="nonzero" stroke-linecap="round" stroke-linejoin="round"></path>
                <path d="M168.19,219.7 L177.33,219.7" id="Shape" stroke="#375D81" stroke-width="2" fill="#FFFFFF" fill-rule="nonzero" stroke-linecap="round" stroke-linejoin="round"></path>
                <path d="M84.5,219.62 L79.5,219.7" id="Shape" stroke="#375D81" stroke-width="2" fill="#FFFFFF" fill-rule="nonzero" stroke-linecap="round" stroke-linejoin="round"></path>
                <path d="M192.32,210.62 L236.32,210.62" id="Shape" stroke="#375D81" stroke-width="2" fill="#FFFFFF" fill-rule="nonzero" stroke-linecap="round" stroke-linejoin="round"></path>
                <path d="M243.17,210.38 L250.14,210.38" id="Shape" stroke="#375D81" stroke-width="2" fill="#FFFFFF" fill-rule="nonzero" stroke-linecap="round" stroke-linejoin="round"></path>
                <path d="M0,210.38 L8.97,210.38" id="Shape" stroke="#375D81" stroke-width="2" fill="#FFFFFF" fill-rule="nonzero" stroke-linecap="round" stroke-linejoin="round"></path>
                <rect id="Rectangle-path" stroke="#375D81" stroke-width="2" fill="#FFFFFF" fill-rule="nonzero" x="77.84" y="149.28" width="46.34" height="61.28" rx="2.25"></rect>
                <path d="M87.32,186.32 L115.32,186.32" id="Shape" stroke="#9ACDED" stroke-width="2" fill="#FFFFFF" fill-rule="nonzero" stroke-linecap="round" stroke-linejoin="round"></path>
                <path d="M87.32,192.43 L115.32,192.43" id="Shape" stroke="#9ACDED" stroke-width="2" fill="#FFFFFF" fill-rule="nonzero" stroke-linecap="round" stroke-linejoin="round"></path>
                <path d="M87.32,198.76 L115.32,198.76" id="Shape" stroke="#9ACDED" stroke-width="2" fill="#FFFFFF" fill-rule="nonzero" stroke-linecap="round" stroke-linejoin="round"></path>
                <rect id="Rectangle-path" stroke="#375D81" stroke-width="2" fill="#FFFFFF" fill-rule="nonzero" x="137.58" y="149.28" width="46.34" height="61.28" rx="2.25"></rect>
                <path d="M147.06,186.32 L175.06,186.32" id="Shape" stroke="#9ACDED" stroke-width="2" fill="#FFFFFF" fill-rule="nonzero" stroke-linecap="round" stroke-linejoin="round"></path>
                <path d="M147.06,192.43 L175.06,192.43" id="Shape" stroke="#9ACDED" stroke-width="2" fill="#FFFFFF" fill-rule="nonzero" stroke-linecap="round" stroke-linejoin="round"></path>
                <path d="M147.06,198.76 L175.06,198.76" id="Shape" stroke="#9ACDED" stroke-width="2" fill="#FFFFFF" fill-rule="nonzero" stroke-linecap="round" stroke-linejoin="round"></path>
                <rect id="Rectangle-path" stroke="#375D81" stroke-width="2" fill="#FFFFFF" fill-rule="nonzero" x="197.32" y="149.28" width="46.34" height="61.28" rx="2.25"></rect>
                <path d="M206.79,186.32 L234.79,186.32" id="Shape" stroke="#9ACDED" stroke-width="2" fill="#FFFFFF" fill-rule="nonzero" stroke-linecap="round" stroke-linejoin="round"></path>
                <path d="M206.79,192.43 L234.79,192.43" id="Shape" stroke="#9ACDED" stroke-width="2" fill="#FFFFFF" fill-rule="nonzero" stroke-linecap="round" stroke-linejoin="round"></path>
                <path d="M206.79,198.76 L234.79,198.76" id="Shape" stroke="#9ACDED" stroke-width="2" fill="#FFFFFF" fill-rule="nonzero" stroke-linecap="round" stroke-linejoin="round"></path>
                <circle id="Oval" fill="#EFEFF6" fill-rule="nonzero" cx="99.26" cy="169.46" r="9.84"></circle>
                <circle id="Oval" stroke="#9ACDED" stroke-width="2" fill="#FFFFFF" fill-rule="nonzero" cx="101.28" cy="167.47" r="9.84"></circle>
                <path d="M103.73,172.33 C103.73,172.45 103.81,172.54 103.82,172.56 L103.82,172.56 C103.54,169.88 105.06,168.76 105.55,166.98 C105.547747,166.950042 105.547747,166.919958 105.55,166.89 C105.551968,166.850024 105.551968,166.809976 105.55,166.77 C105.579452,166.17404 105.39898,165.586623 105.04,165.11 L105.04,165.11 L104.94,164.96 L104.94,164.96 L104.74,164.69 L104.74,164.69 L104.68,164.62 L104.62,164.54 L104.56,164.47 L104.49,164.39 L104.49,164.34 C103.832598,163.594309 103.094785,162.92357 102.29,162.34 L102.29,162.34 C102.391415,163.280608 102.391415,164.229392 102.29,165.17 C102.136244,166.255994 101.815806,167.311753 101.34,168.3 C100.2449,168.219106 99.168873,167.969495 98.15,167.56 C97.2870829,167.173486 96.4689092,166.693982 95.71,166.13 L95.71,166.38 L95.71,166.45 L95.71,166.63 L95.71,166.71 L95.71,166.89 L95.71,166.96 L95.71,167.18 L95.71,167.18 L95.71,167.44 L95.71,167.44 L95.71,167.67 L95.71,167.67 L95.71,167.88 L95.71,167.88 L95.77,168.12 L95.77,168.12 C95.8366667,168.373333 95.91,168.616667 95.99,168.85 L95.99,168.85 C96.1141122,169.215309 96.2679607,169.569829 96.45,169.91 L96.53,170.04 L96.53,170.04 L96.6,170.16 L96.6,170.16 L96.68,170.28 L96.68,170.28 L96.68,170.28 L96.68,170.28 L96.78,170.42 L96.78,170.42 L96.78,170.42 L96.91,170.57 L97,170.66 L97,170.66 L97.06,170.71 L97.06,170.71 L97.12,170.71 L97.12,170.71 L97.18,170.71 L97.18,170.71 L97.24,170.71 L97.24,170.71 L97.31,170.71 L97.31,170.71 L97.42,170.71 L97.49,170.71 C99.28,171.18 101.02,170.43 103.21,172" id="Fill-7-4" fill="#D4604F" fill-rule="nonzero"></path>
                <circle id="Oval" fill="#EFEFF6" fill-rule="nonzero" cx="159.73" cy="169.46" r="9.84"></circle>
                <circle id="Oval" stroke="#9ACDED" stroke-width="2" fill="#FFFFFF" fill-rule="nonzero" cx="161.76" cy="167.47" r="9.84"></circle>
                <path d="M164.21,172.33 C164.21,172.45 164.29,172.54 164.3,172.56 L164.3,172.56 C164.02,169.88 165.54,168.76 166.03,166.98 C166.027747,166.950042 166.027747,166.919958 166.03,166.89 C166.031968,166.850024 166.031968,166.809976 166.03,166.77 C166.059452,166.17404 165.87898,165.586623 165.52,165.11 L165.52,165.11 L165.42,164.96 L165.42,164.96 L165.22,164.69 L165.22,164.69 L165.16,164.62 L165.1,164.54 L165.04,164.47 L164.97,164.39 L164.97,164.34 C164.312598,163.594309 163.574785,162.92357 162.77,162.34 L162.77,162.34 C162.871415,163.280608 162.871415,164.229392 162.77,165.17 C162.616244,166.255994 162.295806,167.311753 161.82,168.3 C160.7249,168.219106 159.648873,167.969495 158.63,167.56 C157.767083,167.173486 156.948909,166.693982 156.19,166.13 L156.19,166.38 L156.19,166.45 L156.19,166.63 L156.19,166.71 L156.19,166.89 L156.19,166.96 L156.19,167.18 L156.19,167.18 L156.19,167.44 L156.19,167.44 L156.19,167.67 L156.19,167.67 L156.19,167.88 L156.19,167.88 L156.25,168.12 L156.25,168.12 C156.316667,168.373333 156.39,168.616667 156.47,168.85 L156.47,168.85 C156.594112,169.215309 156.747961,169.569829 156.93,169.91 L157.01,170.04 L157.01,170.04 L157.08,170.16 L157.08,170.16 L157.16,170.28 L157.16,170.28 L157.16,170.28 L157.16,170.28 L157.26,170.42 L157.26,170.42 L157.26,170.42 L157.39,170.57 L157.48,170.66 L157.48,170.66 L157.54,170.71 L157.54,170.71 L157.6,170.71 L157.6,170.71 L157.66,170.71 L157.66,170.71 L157.72,170.71 L157.72,170.71 L157.79,170.71 L157.79,170.71 L157.9,170.71 L157.97,170.71 C159.76,171.18 161.5,170.43 163.69,172" id="Fill-7-5" fill="#F9B53F" fill-rule="nonzero"></path>
                <circle id="Oval" fill="#EFEFF6" fill-rule="nonzero" cx="219.78" cy="169.46" r="9.84"></circle>
                <circle id="Oval" stroke="#9ACDED" stroke-width="2" fill="#FFFFFF" fill-rule="nonzero" cx="221.81" cy="167.47" r="9.84"></circle>
                <path d="M224.25,172.33 C224.25,172.45 224.33,172.54 224.34,172.56 L224.34,172.56 C224.06,169.88 225.58,168.76 226.07,166.98 C226.067747,166.950042 226.067747,166.919958 226.07,166.89 C226.071968,166.850024 226.071968,166.809976 226.07,166.77 C226.099452,166.17404 225.91898,165.586623 225.56,165.11 L225.56,165.11 L225.46,164.96 L225.46,164.96 L225.26,164.69 L225.26,164.69 L225.2,164.62 L225.14,164.54 L225.08,164.47 L225.01,164.39 L225.01,164.34 C224.352598,163.594309 223.614785,162.92357 222.81,162.34 L222.81,162.34 C222.911415,163.280608 222.911415,164.229392 222.81,165.17 C222.656244,166.255994 222.335806,167.311753 221.86,168.3 C220.7649,168.219106 219.688873,167.969495 218.67,167.56 C217.807083,167.173486 216.988909,166.693982 216.23,166.13 L216.23,166.38 L216.23,166.45 L216.23,166.63 L216.23,166.71 L216.23,166.89 L216.23,166.96 L216.23,167.18 L216.23,167.18 L216.23,167.44 L216.23,167.44 L216.23,167.67 L216.23,167.67 L216.23,167.88 L216.23,167.88 L216.29,168.12 L216.29,168.12 C216.356667,168.373333 216.43,168.616667 216.51,168.85 L216.51,168.85 C216.634112,169.215309 216.787961,169.569829 216.97,169.91 L217.05,170.04 L217.05,170.04 L217.12,170.16 L217.12,170.16 L217.2,170.28 L217.2,170.28 L217.2,170.28 L217.2,170.28 L217.3,170.42 L217.3,170.42 L217.3,170.42 L217.43,170.57 L217.52,170.66 L217.52,170.66 L217.58,170.71 L217.58,170.71 L217.64,170.71 L217.64,170.71 L217.7,170.71 L217.7,170.71 L217.76,170.71 L217.76,170.71 L217.83,170.71 L217.83,170.71 L217.94,170.71 L218.01,170.71 C219.8,171.18 221.54,170.43 223.73,172" id="Fill-7-6" fill="#67B373" fill-rule="nonzero"></path>
            </g>
        </g>
    </g>
</svg>