<svg width="60" height="60" viewBox="0 0 130 130" xmlns="http://www.w3.org/2000/svg">
  <g fill="none" fill-rule="evenodd">
    <path d="M65 1c35.346 0 64 28.654 64 64 0 35.347-28.654 64-64 64-35.346 0-64-28.653-64-64C1 29.654 29.654 1 65 1z" fill="#E1F2FF" fill-rule="nonzero"/>
    <g fill-rule="nonzero">
      <path d="M57.996 77.038a8.072 8.072 0 012.373 11.169c-2.428 3.741-10.57 9.642-14.31 7.212-3.741-2.43-1.662-12.267.767-16.006a8.072 8.072 0 0111.17-2.375z" fill="#9452BA"/>
      <path d="M49.082 77.194l.044.272c1.238 5.824 6.584 9.623 11.94 8.485l.205-.056c.83-3.33-.413-7.068-3.288-9.114-2.868-2.041-6.473-1.769-8.901.413z" fill="#754093"/>
      <path d="M68.97 55.569c11.587 7.525 16.386 20.7 9.236 31.712l-3.377 5.2c-7.15 11.01-5.491-12.11-17.08-19.635C46.16 65.32 25.714 76.24 32.866 65.23l3.377-5.201c7.151-11.01 21.137-11.983 32.726-4.46z" stroke="#5E63B6" stroke-width="2" fill="#FFF"/>
      <path d="M93.994 16.04c3.494 2.396 6.286 21.705-7.347 43.902-8.88 14.454-15.209 20.195-15.209 20.195-6.5 7.026-10.982 4.124-16.87.087-5.93-4.068-10.296-7.171-6.796-16.315 0 0 2.428-8.513 11.265-22.9C72.66 18.83 90.485 13.634 93.994 16.04z" stroke="#5E63B6" stroke-width="2" fill="#FFF"/>
      <path d="M78.944 20.264c1.489 3.313 3.99 6.358 7.626 8.751 3.15 2.074 6.537 3.234 9.721 3.53 1.323-9.08-.34-15.43-2.257-16.695-1.867-1.23-7.765-.136-15.09 4.414z" stroke="#5563B6" stroke-width="2"/>
      <path d="M72.075 77.073c-8.354 6.028-9.812 3.021-15.217-1.517-5.445-4.57-8.534-6.87-5.772-16.491.06-.325.294-1.18.698-2.564-2.2 4.935-2.911 7.32-2.911 7.32-4.217 9.337 1.754 12.232 5.95 15.455 4.195 3.223 9.472 7.451 16.108 0 0 0 1.952-2.141 3.9-4.308l-2.756 2.105z" fill="#E1F2FF"/>
      <path d="M65.31 63.474c1.654 1.074.084 6.428-5.109 14.423-5.192 7.995-8.795 10.61-10.45 9.536-1.654-1.074-.731-5.43 4.46-13.426 5.192-7.994 9.446-11.608 11.099-10.533h0z" stroke="#5563B6" stroke-width="2" fill="#FFF"/>
    </g>
    <path d="M78.676 52.165c.09.16.141.276.16.315 0 .006.001-.005 0 0-2.54-2.843-5.157-2.336-7.486-3.528a.913.913 0 00-.106-.067 1.843 1.843 0 01-.152-.092c-.584-.394-.992-1.15-1.252-2.114l-.004-.015c-.023-.08-.042-.162-.062-.244v-.003a11.044 11.044 0 01-.096-.469l-.01-.049a4.314 4.314 0 00-.021-.133l-.023-.136-.018-.137-.02-.141c-.004-.032-.007-.067-.012-.1-.15-1.28-.12-2.741.036-4.152 0 0-.003-.015 0 0 .952 1.073 1.995 2.05 2.93 2.72 1.127.807 2.644 1.526 4.177 2.005.98-1.257 1.808-2.7 2.266-3.998.381-1.086.674-2.462.83-3.888.079.088.156.178.235.268l.068.082c.055.064.11.128.164.195l.075.09a22.238 22.238 0 01.226.28l.197.254a.239.239 0 01.02.025c.076.098.15.198.223.297l.017.023.194.268c.014.019.026.038.04.055l.171.248c.01.016.02.033.032.049a16.837 16.837 0 01.194.29c.198.308.383.616.55.92.003.004.005.008.008.01.278.51.508 1.01.674 1.486.024.07.046.138.067.206 0 .003.003.005.003.007v.001c.02.063.038.125.055.184v.002l.001.007c.019.065.036.13.05.195l.006.026v.002a4.647 4.647 0 01.058.285 3.561 3.561 0 01.05.47v.185c0 .026-.003.052-.005.08a1.168 1.168 0 01-.016.178 1.987 1.987 0 01-.013.098l-.014.074-.023.098-.018.066c-.01.036-.022.07-.035.106l-.018.051c-.02.053-.043.102-.067.15a1.017 1.017 0 00-.04.092c-1.211 2.301-3.657 3.389-4.106 7.138" fill="#9452BA"/>
    <path stroke="#5E63B6" stroke-width="2" fill="#FFF" fill-rule="nonzero" stroke-linecap="round" stroke-linejoin="round" d="M25 108l14-25M35.784 104.406l4.067-8.312M38 117l6-13M57 100l-7 22"/>
  </g>
</svg>
