<?xml version="1.0" encoding="UTF-8"?>
<svg width="256px" height="256px" viewBox="0 0 256 256" version="1.1" xmlns="http://www.w3.org/2000/svg" xmlns:xlink="http://www.w3.org/1999/xlink">
    <!-- Generator: Sketch 46.2 (44496) - http://www.bohemiancoding.com/sketch -->
    <title>illustration-user-groups</title>
    <desc>Created with Sketch.</desc>
    <defs>
        <rect id="path-1" x="0" y="0" width="230" height="164"></rect>
    </defs>
    <g id="256x256" stroke="none" stroke-width="1" fill="none" fill-rule="evenodd">
        <g id="illustration-user-groups">
            <g id="User_Group" transform="translate(6.000000, 11.000000)">
                <path d="M238.3,41.5 L238.3,48.5" id="Shape" stroke="#375D81" stroke-width="2" stroke-linecap="round" stroke-linejoin="round"></path>
                <path d="M241.8,45 L234.8,45" id="Shape" stroke="#375D81" stroke-width="2" stroke-linecap="round" stroke-linejoin="round"></path>
                <path d="M67,0 L67,7" id="Shape" stroke="#375D81" stroke-width="2" stroke-linecap="round" stroke-linejoin="round"></path>
                <path d="M70.5,3.5 L63.5,3.5" id="Shape" stroke="#375D81" stroke-width="2" stroke-linecap="round" stroke-linejoin="round"></path>
                <path d="M34.03,180.75 L34.03,184.68" id="Shape" stroke="#375D81" stroke-linecap="round"></path>
                <path d="M36,182.71 L32.07,182.71" id="Shape" stroke="#375D81" stroke-linecap="round"></path>
                <path d="M20,189.31 C20,132.115391 66.3653913,85.75 123.56,85.75 C180.754609,85.75 227.12,132.115391 227.12,189.31 L20,189.31 Z" id="Shape" fill="#E1F2FF" fill-rule="nonzero"></path>
                <path d="M178.86,12.58 L178.86,16.52" id="Shape" stroke="#375D81" stroke-linecap="round"></path>
                <path d="M180.83,14.55 L176.9,14.55" id="Shape" stroke="#375D81" stroke-linecap="round"></path>
                <path d="M19.99,62.27 L19.99,66.21" id="Shape" stroke="#375D81" stroke-linecap="round"></path>
                <path d="M21.96,64.24 L18.03,64.24" id="Shape" stroke="#375D81" stroke-linecap="round"></path>
                <path d="M205.15,138.98 L205.15,142.91" id="Shape" stroke="#375D81" stroke-linecap="round"></path>
                <path d="M207.12,140.94 L203.18,140.94" id="Shape" stroke="#375D81" stroke-linecap="round"></path>
                <path d="M25.61,201.12 L47.94,201.12" id="Shape" stroke="#9ACDED" stroke-width="2" fill="#FFFFFF" fill-rule="nonzero" stroke-linecap="round"></path>
                <path d="M235.22,190.16 L240.22,190.16" id="Shape" stroke="#9ACDED" stroke-width="2" stroke-linecap="round"></path>
                <path d="M0,190.16 L5.33,190.16" id="Shape" stroke="#9ACDED" stroke-width="2" fill="#FFFFFF" fill-rule="nonzero" stroke-linecap="round"></path>
                <path d="M91.35,201.12 L147.07,201.12" id="Shape" stroke="#9ACDED" stroke-width="2" fill="#FFFFFF" fill-rule="nonzero" stroke-linecap="round"></path>
                <path d="M153.72,201.12 L165.05,201.12" id="Shape" stroke="#9ACDED" stroke-width="2" fill="#FFFFFF" fill-rule="nonzero" stroke-linecap="round"></path>
                <path d="M86.39,201.12 L82.05,201.12" id="Shape" stroke="#9ACDED" stroke-width="2" fill="#FFFFFF" fill-rule="nonzero" stroke-linecap="round"></path>
                <path d="M14.55,201.12 L18.22,201.12" id="Shape" stroke="#9ACDED" stroke-width="2" fill="#FFFFFF" fill-rule="nonzero" stroke-linecap="round"></path>
                <path d="M212.21,201.12 L225.88,201.12" id="Shape" stroke="#9ACDED" stroke-width="2" fill="#FFFFFF" fill-rule="nonzero" stroke-linecap="round"></path>
                <g id="Group-2" transform="translate(14.000000, 25.000000)">
                    <mask id="mask-2" fill="white">
                        <use xlink:href="#path-1"></use>
                    </mask>
                    <g id="Rectangle"></g>
                    <g id="Group" mask="url(#mask-2)">
                        <g transform="translate(5.000000, 71.000000)">
                            <path d="M84.82,149.63 C79,137.78 70.26,103.33 74.72,80.45 L78.25,62.34 C79.4039129,56.4124173 79.9102186,50.3769848 79.76,44.34 L79.76,44.34 C79.698112,41.8682472 79.3865282,39.4090804 78.83,37 C78.6966667,36.4066667 78.5466667,35.82 78.38,35.24 C77.886859,33.5301959 77.2685215,31.8590133 76.53,30.24 C76.2833333,29.7 76.0266667,29.1666667 75.76,28.64 C75.2533333,27.54 74.6666667,26.4966667 74,25.51 C73.3333333,24.5233333 72.6666667,23.5633333 72,22.63 C69.8255177,19.8688969 67.2661045,17.4340867 64.4,15.4 C63.4466667,14.7333333 62.4466667,14.1033333 61.4,13.51 C55.6060805,10.1848119 49.0078874,8.52055868 42.33,8.7 L36.33,8.85 C26.6492714,9.08780428 17.4620685,13.1722051 10.8,20.2 C9.99333333,21.0466667 9.23,21.93 8.51,22.85 C7.18556657,24.5306276 6.01106761,26.3241645 5,28.21 C4.62,28.92 4.26,29.64 3.93,30.37 C3.69,30.91 3.46,31.4566667 3.24,32.01 C1.91047286,35.385917 1.09473476,38.9421306 0.82,42.56 C0.726953423,43.8043515 0.696915037,45.0526133 0.73,46.3 L0.73,46.3 C0.860895281,51.3240716 5.03573071,55.2930738 10.06,55.17 L47.44,54.23 L42.6,86.82 C36.8,120.32 39.35,142.56 44.87,157.29 C46.12,160.56 85.54,151.12 84.82,149.63 Z" id="Shape" stroke="#375D81" stroke-width="2" fill="#9ACDED" fill-rule="nonzero"></path>
                            <path d="M17.1,14.32 C17.5638722,10.3128622 20.1233131,6.85457005 23.82,5.24 C25.73,4.42 30.95,4.08 30.95,4.08 C30.95,4.08 32.59,10.8 28.36,12.92 C24.9009254,14.7376349 20.898862,15.2352272 17.1,14.32 L17.1,14.32 Z" id="Shape" stroke="#375D81" stroke-width="2" fill="#FFFFFF" fill-rule="nonzero"></path>
                            <path d="M33.09,10.63 C33.09,10.63 33.09,1.94 42.8,0.42 C44.1795804,0.248301641 45.5713071,0.194773689 46.96,0.26 C46.96,0.26 51.8,9.26 46.67,10.26 C42.1813539,11.0016946 37.6123731,11.1261809 33.09,10.63 Z" id="Shape" stroke="#375D81" stroke-width="2" fill="#FFFFFF" fill-rule="nonzero"></path>
                            <path d="M51.62,10.83 C51.62,10.83 52.91,1.19 61.57,3.83 C63.8316452,4.55088945 65.8312971,5.9210857 67.32,7.77 C67.32,7.77 65.59,15.11 62.15,14.28 C58.5496769,13.4265661 55.0273187,12.2725171 51.62,10.83 L51.62,10.83 Z" id="Shape" stroke="#375D81" stroke-width="2" fill="#FFFFFF" fill-rule="nonzero"></path>
                            <path d="M20.21,12.63 C20.4568314,10.5130537 21.8081384,8.68593438 23.76,7.83 C24.9906847,7.48990007 26.25486,7.28535181 27.53,7.22 C27.53,7.22 28.4,10.77 26.16,11.89 C24.3321175,12.850328 22.21743,13.1133311 20.21,12.63 L20.21,12.63 Z" id="Shape" stroke="none" fill="#E1F2FF" fill-rule="nonzero"></path>
                            <path d="M36.85,9.04 C36.9601297,6.07418881 39.2631521,3.65537199 42.22,3.4 C42.9827064,3.3045769 43.7521692,3.27446749 44.52,3.31 C44.52,3.31 47.2,8.31 44.36,8.85 C41.8770381,9.25544394 39.3502875,9.31936972 36.85,9.04 L36.85,9.04 Z" id="Shape" stroke="none" fill="#E1F2FF" fill-rule="nonzero"></path>
                            <path d="M55,10.09 C55,10.09 55.71,4.82 60.44,6.27 C61.6794103,6.66488339 62.7750187,7.41615769 63.59,8.43 C63.59,8.43 62.65,12.43 60.76,11.99 C58.7902042,11.5190028 56.8634355,10.8834367 55,10.09 Z" id="Shape" stroke="none" fill="#E1F2FF" fill-rule="nonzero"></path>
                            <path d="M78.11,63.07 C78.11,63.07 61.83,66.07 46.2,62.6 C44.9,71.15 44.09,77.6 44.09,77.6 C44.09,77.6 55.09,84.7 74.86,79.93 C76.93,68.93 78.11,63.07 78.11,63.07 Z" id="Shape" stroke="#375D81" stroke-width="2" fill="#FFFFFF" fill-rule="nonzero"></path>
                            <path d="M48.5977986,30.2871764 L50.2477986,30.2871764 C54.9587875,30.2871764 58.7777986,34.1061875 58.7777986,38.8171764 L58.7777986,38.8171764 C58.7777986,43.5281653 54.9587875,47.3471764 50.2477986,47.3471764 L31.5477986,47.3471764 L31.5477986,47.3471764 C31.5451454,42.8235029 33.3403082,38.4841992 36.538091,35.2845408 C39.7358739,32.0848824 44.0741243,30.2871757 48.5977986,30.2871764 Z" id="Shape" stroke="none" fill="#E1F2FF" fill-rule="nonzero" opacity="0.3" transform="translate(45.162797, 38.817176) rotate(-1.440000) translate(-45.162797, -38.817176) "></path>
                            <path d="M45.3062203,33.6345203 L48.7862203,33.6345203 C52.4423453,33.6345203 55.4062203,36.5983953 55.4062203,40.2545203 L55.4062203,40.2545203 C55.4062203,43.9990109 52.3707109,47.0345203 48.6262203,47.0345203 L31.9062203,47.0345203 L31.9062203,47.0345203 C31.9062203,43.4806193 33.318002,40.0722769 35.8309894,37.5592894 C38.3439769,35.046302 41.7523193,33.6345203 45.3062203,33.6345203 L45.3062203,33.6345203 Z" id="Shape" stroke="#375D81" stroke-width="2" fill="#FFFFFF" fill-rule="nonzero" transform="translate(43.656220, 40.334520) rotate(-1.440000) translate(-43.656220, -40.334520) "></path>
                            <circle id="Oval" stroke="none" fill="#375D81" fill-rule="nonzero" transform="translate(39.965023, 39.437783) rotate(-1.440000) translate(-39.965023, -39.437783) " cx="39.965023" cy="39.4377827" r="3.74"></circle>
                            <path d="M9.35,52.14 L9.35,52.14 C10.4081871,51.8844006 11.3448335,51.2693951 12,50.4 L13.21,48.79 L10.43,49.46 L8.79,49.85 C8.48525282,49.921106 8.22169091,50.1113289 8.0582082,50.3781628 C7.89472548,50.6449966 7.84494846,50.9662004 7.92,51.27 L7.92,51.27 C7.99094623,51.576953 8.18268367,51.8423234 8.45183121,52.0060705 C8.72097875,52.1698176 9.04478935,52.2181023 9.35,52.14 Z" id="Shape" stroke="none" fill="#375D81" fill-rule="nonzero"></path>
                            <path d="M52.06,65.63 C52.06,65.63 64.5,68.83 75.35,66.38 C74.6211989,70.0180306 73.6592142,73.6054321 72.47,77.12 C72.47,77.12 56.07,75.3 52.06,65.63 Z" id="Shape" stroke="none" fill="#E1F2FF" fill-rule="nonzero"></path>
                            <path d="M51,68.98 C58.5806511,70.4741442 66.3636122,70.6365712 74,69.46" id="Shape" stroke="#9ACDED" stroke-width="2" fill="none" stroke-linecap="round"></path>
                            <path d="M68.24,129.81 C68.3161665,130.723967 67.879652,131.604888 67.1062988,132.097901 C66.3329456,132.590913 65.3500949,132.614837 64.5536712,132.160034 C63.7572475,131.705231 63.2783907,130.84659 63.31,129.93" id="Shape" stroke="#E1F2FF" stroke-width="1" fill="none" stroke-linecap="round"></path>
                            <path d="M73.18,129.69 C73.2561665,130.603967 72.819652,131.484888 72.0462988,131.977901 C71.2729456,132.470913 70.2900949,132.494837 69.4936712,132.040034 C68.6972475,131.585231 68.2183907,130.72659 68.25,129.81" id="Shape" stroke="#E1F2FF" stroke-width="1" fill="none" stroke-linecap="round"></path>
                            <path d="M70.77,132.22 C70.7249278,133.52698 69.6689408,134.572317 68.3615713,134.604139 C67.0542019,134.635962 65.948607,133.643239 65.84,132.34" id="Shape" stroke="#E1F2FF" stroke-width="1" fill="none" stroke-linecap="round"></path>
                            <path d="M70.09,51.09 C70.1286599,52.5866916 68.9466916,53.83134 67.45,53.8699999 C65.9533084,53.9086599 64.70866,52.7266916 64.67,51.23" id="Shape" stroke="#E1F2FF" stroke-width="1" fill="none" stroke-linecap="round"></path>
                            <path d="M72.87,53.74 C72.9086598,55.2366916 71.7266916,56.4813399 70.23,56.5199998 C68.7333084,56.5586598 67.48866,55.3766916 67.45,53.88" id="Shape" stroke="#E1F2FF" stroke-width="1" fill="none" stroke-linecap="round"></path>
                            <path d="M65.86,90.39 C65.932723,91.2350291 65.5303726,92.0505848 64.8155482,92.5070812 C64.1007239,92.9635777 63.1915849,92.9855568 62.4555362,92.5641364 C61.7194874,92.142716 61.2781966,91.3475561 61.31,90.5" id="Shape" stroke="#E1F2FF" stroke-width="1" fill="none" stroke-linecap="round"></path>
                            <path d="M10.4,40.07 C10.3592841,40.9658809 9.63337299,41.6781079 8.73687953,41.701769 C7.84038608,41.7254301 7.07791618,41.0524859 6.99,40.16" id="Shape" stroke="#E1F2FF" stroke-width="1" fill="none" stroke-linecap="round"></path>
                        </g>
                    </g>
                    <g id="Group" mask="url(#mask-2)">
                        <g transform="translate(136.000000, 58.000000)">
                            <path d="M0.28,158.63 C6.47,146.07 15.67,109.63 10.96,85.46 L7.23,66.32 C6.00596338,60.0402656 5.46946719,53.6459017 5.63,47.25 L5.63,47.25 C5.70087358,44.6362356 6.03591169,42.0363398 6.63,39.49 C6.77666667,38.8633333 6.93666667,38.2433333 7.11,37.63 C7.64365982,35.8062252 8.31216886,34.0246486 9.11,32.3 C9.37,31.7266667 9.64333333,31.1633333 9.93,30.61 C10.5033333,29.4966667 11.1233333,28.4166667 11.79,27.37 C12.4566667,26.3233333 13.1766667,25.3233333 13.95,24.37 C16.2384907,21.4546834 18.9324743,18.8819291 21.95,16.73 C22.9566667,16.0166667 24,15.35 25.08,14.73 C31.2046218,11.2130941 38.1799532,9.45196135 45.24,9.64 L51.57,9.8 C61.8080308,10.0487632 71.5248149,14.367334 78.57,21.8 C79.4233333,22.6933333 80.23,23.6266667 80.99,24.6 C82.3792017,26.3758653 83.6105525,28.2697363 84.67,30.26 C85.07,31.01 85.45,31.77 85.81,32.54 C86.07,33.1066667 86.3133333,33.6833333 86.54,34.27 C87.9457185,37.837858 88.8086408,41.5962891 89.1,45.42 C89.2016487,46.7507493 89.2350258,48.0858339 89.2,49.42 L89.2,49.42 C89.0636285,54.7312819 84.6514747,58.9286453 79.34,58.8 L39.82,57.8 L44.94,92.25 C51.07,127.66 48.37,151.18 42.54,166.75 C41.19,170.12 -0.48,160.14 0.28,158.63 Z" id="Shape" stroke="#375D81" stroke-width="2" fill="#9ACDED" fill-rule="nonzero"></path>
                            <path d="M71.87,15.51 C71.3763372,11.2761075 68.6737231,7.62186876 64.77,5.91 C62.77,5.04 57.23,4.68 57.23,4.68 C57.23,4.68 55.5,11.78 59.97,14.02 C63.6239451,15.9458084 67.8540391,16.4754588 71.87,15.51 Z" id="Shape" stroke="#375D81" stroke-width="2" fill="#FFFFFF" fill-rule="nonzero"></path>
                            <path d="M55,11.63 C55,11.63 55,2.44 44.74,0.84 C43.2808537,0.658098955 41.8088315,0.60122537 40.34,0.67 C40.34,0.67 35.22,10.2 40.65,11.27 C45.3946075,12.0430588 50.2225977,12.1641791 55,11.63 Z" id="Shape" stroke="#375D81" stroke-width="2" fill="#FFFFFF" fill-rule="nonzero"></path>
                            <path d="M35.38,11.82 C35.38,11.82 34,1.63 24.86,4.43 C22.4679595,5.19308518 20.3534268,6.64334853 18.78,8.6 C18.78,8.6 20.61,16.36 24.25,15.49 C28.0561663,14.5802912 31.7792409,13.3526467 35.38,11.82 Z" id="Shape" stroke="#375D81" stroke-width="2" fill="#FFFFFF" fill-rule="nonzero"></path>
                            <path d="M68.59,13.7 C68.3340669,11.4596011 66.9056087,9.52451631 64.84,8.62 C63.5344572,8.25766926 62.1930957,8.03969801 60.84,7.97 C60.84,7.97 59.93,11.72 62.29,12.91 C64.2242928,13.9299432 66.4637612,14.2107654 68.59,13.7 L68.59,13.7 Z" id="Shape" stroke="none" fill="#E1F2FF" fill-rule="nonzero"></path>
                            <path d="M51,9.92 C50.9052859,6.77141534 48.468201,4.19248957 45.33,3.92 C44.5240361,3.82091529 43.7110853,3.790806 42.9,3.83 C42.9,3.83 40.07,9.1 43.07,9.69 C45.6905249,10.1274385 48.3585268,10.2048207 51,9.92 L51,9.92 Z" id="Shape" stroke="none" fill="#E1F2FF" fill-rule="nonzero"></path>
                            <path d="M31.78,11.04 C31.78,11.04 31.03,5.47 26.03,7.04 C24.7202362,7.45660272 23.5620946,8.24956453 22.7,9.32 C22.7,9.32 23.7,13.57 25.7,13.09 C27.7805043,12.5781557 29.8143247,11.8924103 31.78,11.04 Z" id="Shape" stroke="none" fill="#E1F2FF" fill-rule="nonzero"></path>
                            <path d="M7.38,67.04 C7.38,67.04 24.59,70.19 41.12,66.54 C42.5,75.54 43.35,82.39 43.35,82.39 C43.35,82.39 31.76,89.9 10.82,84.85 C8.62,73.24 7.38,67.04 7.38,67.04 Z" id="Shape" stroke="#375D81" stroke-width="2" fill="#FFFFFF" fill-rule="nonzero"></path>
                            <path d="M27.8272845,32.4269182 L47.5972845,32.4269182 C52.5678473,32.4269182 56.5972845,36.4563555 56.5972845,41.4269182 L56.5972845,41.4269182 C56.5972845,46.397481 52.5678473,50.4269182 47.5972845,50.4269182 L45.8572845,50.4269182 C35.916159,50.4269182 27.8572845,42.3680437 27.8572845,32.4269182 L27.8572845,32.4269182 L27.8272845,32.4269182 Z" id="Shape" stroke="none" fill="#E1F2FF" fill-rule="nonzero" opacity="0.3" transform="translate(42.212285, 41.426918) rotate(-178.560000) translate(-42.212285, -41.426918) "></path>
                            <path d="M31.3693801,35.9472328 L49.0493801,35.9472328 C53.0092618,35.9472328 56.2193801,39.1573511 56.2193801,43.1172328 L56.2193801,43.1172328 C56.2193801,46.983226 53.0853734,50.1172328 49.2193801,50.1172328 L45.5393801,50.1172328 C37.7190281,50.1172328 31.3793801,43.7775848 31.3793801,35.9572328 L31.3793801,35.9572328 L31.3693801,35.9472328 Z" id="Shape" stroke="#375D81" stroke-width="2" fill="#FFFFFF" fill-rule="nonzero" transform="translate(43.794380, 43.032233) rotate(-178.560000) translate(-43.794380, -43.032233) "></path>
                            <circle id="Oval" stroke="none" fill="#375D81" fill-rule="nonzero" transform="translate(47.711459, 42.066115) rotate(-88.560000) translate(-47.711459, -42.066115) " cx="47.7114595" cy="42.0661147" r="3.96"></circle>
                            <path d="M80.07,55.49 L80.07,55.49 C78.9528315,55.2169348 77.9639477,54.5670969 77.27,53.65 L75.99,51.95 L78.93,52.66 L80.66,53.08 C80.9815155,53.1558865 81.2594593,53.3569296 81.4321756,53.6385323 C81.604892,53.920135 81.6581012,54.2590153 81.58,54.58 L81.58,54.58 C81.5020295,54.9018652 81.2985467,55.1791668 81.0148989,55.3501069 C80.731251,55.521047 80.39101,55.57142 80.07,55.49 Z" id="Shape" stroke="none" fill="#375D81" fill-rule="nonzero"></path>
                            <path d="M34.91,69.7 C34.91,69.7 21.75,73.09 10.28,70.49 C11.0360111,74.3336507 12.038073,78.1247852 13.28,81.84 C13.28,81.84 30.68,79.97 34.91,69.7 Z" id="Shape" stroke="none" fill="#E1F2FF" fill-rule="nonzero"></path>
                            <path d="M36,73.3 C27.9935996,74.8740639 19.7743937,75.043253 11.71,73.8" id="Shape" stroke="#9ACDED" stroke-width="2" fill="none" stroke-linecap="round"></path>
                            <path d="M17.8,137.63 C17.7641015,139.071463 18.9035368,140.269101 20.345,140.305 C21.7864632,140.340899 22.9841015,139.201463 23.02,137.76" id="Shape" stroke="#E1F2FF" stroke-width="1" fill="none" stroke-linecap="round"></path>
                            <path d="M12.59,137.48 C12.5541015,138.921463 13.6935368,140.119101 15.135,140.155 C16.5764632,140.190899 17.7741015,139.051463 17.81,137.61" id="Shape" stroke="#E1F2FF" stroke-width="1" fill="none" stroke-linecap="round"></path>
                            <path d="M15.13,140.15 C15.1067777,141.082463 15.5827826,141.956484 16.3787083,142.442826 C17.174634,142.929169 18.1695604,142.953947 18.9887084,142.507826 C19.8078564,142.061706 20.3267778,141.212463 20.35,140.28" id="Shape" stroke="#E1F2FF" stroke-width="1" fill="none" stroke-linecap="round"></path>
                            <path d="M15.85,54.39 C15.767044,55.4489398 16.2757319,56.4671068 17.1723034,57.0366634 C18.068875,57.60622 19.2067038,57.6340204 20.1300207,57.1089288 C21.0533375,56.5838371 21.6111421,55.5917276 21.58,54.53" id="Shape" stroke="#E1F2FF" stroke-width="1" fill="none" stroke-linecap="round"></path>
                            <path d="M12.91,57.18 C12.827044,58.2389398 13.3357319,59.2571068 14.2323034,59.8266634 C15.128875,60.39622 16.2667038,60.4240204 17.1900207,59.8989288 C18.1133375,59.3738371 18.6711421,58.3817276 18.64,57.32" id="Shape" stroke="#E1F2FF" stroke-width="1" fill="none" stroke-linecap="round"></path>
                            <path d="M20.32,95.93 C20.3639502,97.2046732 21.3934287,98.2243944 22.6684627,98.256204 C23.9434967,98.2880136 25.0225429,97.3208959 25.13,96.05" id="Shape" stroke="#E1F2FF" stroke-width="1" fill="none" stroke-linecap="round"></path>
                            <path d="M79,42.73 C78.9751472,43.726874 79.7631261,44.5551471 80.76,44.5799999 C81.756874,44.6048528 82.5851472,43.8168739 82.61,42.82" id="Shape" stroke="#E1F2FF" stroke-width="1" fill="none" stroke-linecap="round"></path>
                        </g>
                    </g>
                    <g id="Group" mask="url(#mask-2)">
                        <g transform="translate(46.000000, 1.000000)">
                            <path d="M101,178.98 C94,164.81 83.64,123.75 89,96.46 L93.21,74.87 C94.5891077,67.7866078 95.1926661,60.5740845 95.01,53.36 L95.01,53.36 C94.9390501,50.4137234 94.5705108,47.4821604 93.91,44.61 C93.75,43.9033333 93.57,43.2066667 93.37,42.52 C92.785667,40.4684725 92.0503259,38.4629968 91.17,36.52 C90.8766667,35.8533333 90.57,35.2166667 90.25,34.61 C89.5833333,33.3566667 88.8833333,32.14 88.15,30.96 C87.4166667,29.78 86.6066667,28.6433333 85.72,27.55 C83.1278455,24.2581115 80.0767547,21.3551974 76.66,18.93 C75.4666667,18.1166667 74.2466667,17.35 73,16.63 C66.0943148,12.665377 58.2300489,10.6794163 50.27,10.89 L43.13,11.07 C31.5904126,11.3656492 20.6437788,16.2452138 12.71,24.63 C11.75,25.6366667 10.8466667,26.69 10,27.79 C8.43350345,29.791749 7.04489048,31.9265323 5.85,34.17 C5.4,35.01 4.97,35.87 4.57,36.75 C4.28333333,37.4166667 4.01,38.0833333 3.75,38.75 C2.16751371,42.7726211 1.19673516,47.009665 0.87,51.32 C0.75804132,52.8038552 0.721327601,54.2924297 0.76,55.78 L0.76,55.78 C0.912706919,61.7746828 5.89527472,66.5110321 11.89,66.36 L56.46,65.24 L50.69,104.1 C43.77,144.04 46.82,170.56 53.4,188.1 C54.83,191.99 101.83,180.73 101,178.98 Z" id="Shape" stroke="#375D81" stroke-width="2" fill="#9ACDED" fill-rule="nonzero"></path>
                            <path d="M20.23,17.63 C20.779646,12.8536777 23.8262495,8.72933833 28.23,6.8 C30.51,5.8 36.73,5.41 36.73,5.41 C36.73,5.41 38.73,13.41 33.64,15.95 C29.5216049,18.1175784 24.7558309,18.7146329 20.23,17.63 L20.23,17.63 Z" id="Shape" stroke="#375D81" stroke-width="2" fill="#FFFFFF" fill-rule="nonzero"></path>
                            <path d="M39.3,13.25 C39.3,13.25 39.3,2.88 50.87,1.08 C52.5281245,0.873280029 54.2009692,0.809711931 55.87,0.89 C55.87,0.89 61.64,11.64 55.52,12.89 C50.1551194,13.749893 44.6977492,13.8710184 39.3,13.25 L39.3,13.25 Z" id="Shape" stroke="#375D81" stroke-width="2" fill="#FFFFFF" fill-rule="nonzero"></path>
                            <path d="M61.39,13.45 C61.39,13.45 62.93,1.96 73.25,5.12 C75.9485827,5.97904172 78.3344731,7.61368966 80.11,9.82 C80.11,9.82 78.05,18.57 73.94,17.59 C69.6482023,16.5635659 65.4501324,15.1787046 61.39,13.45 L61.39,13.45 Z" id="Shape" stroke="#375D81" stroke-width="2" fill="#FFFFFF" fill-rule="nonzero"></path>
                            <path d="M23.93,15.58 C24.2187261,13.0529007 25.83003,10.8702124 28.16,9.85 C29.6256318,9.44395104 31.1312226,9.19916679 32.65,9.12 C32.65,9.12 33.65,13.35 31.02,14.69 C28.8426738,15.8362587 26.3230851,16.15254 23.93,15.58 L23.93,15.58 Z" id="Shape" stroke="none" fill="#E1F2FF" fill-rule="nonzero"></path>
                            <path d="M43.78,11.31 C43.78,11.31 43.78,5.58 50.18,4.58 C51.088539,4.46542896 52.0052005,4.42862868 52.92,4.47 C52.92,4.47 56.11,10.41 52.73,11.08 C49.771084,11.5641265 46.7598765,11.6415095 43.78,11.31 Z" id="Shape" stroke="none" fill="#E1F2FF" fill-rule="nonzero"></path>
                            <path d="M65.45,12.57 C65.45,12.57 66.29,6.28 71.94,8.01 C73.4213051,8.49384631 74.726161,9.40550567 75.69,10.63 C75.69,10.63 74.56,15.42 72.32,14.88 C69.9692559,14.3040757 67.6711471,13.5313491 65.45,12.57 L65.45,12.57 Z" id="Shape" stroke="none" fill="#E1F2FF" fill-rule="nonzero"></path>
                            <path d="M93,75.74 C93,75.74 73.59,79.29 54.95,75.18 C53.4,85.37 52.43,93.06 52.43,93.06 C52.43,93.06 65.5,101.53 89.12,95.83 C91.56,82.72 93,75.74 93,75.74 Z" id="Shape" stroke="#375D81" stroke-width="2" fill="#FFFFFF" fill-rule="nonzero"></path>
                            <path d="M55.4930885,36.632327 L60.9130885,36.632327 C65.8836512,36.632327 69.9130885,40.6617642 69.9130885,45.632327 L69.9130885,47.932327 C69.9130885,52.9028897 65.8836512,56.932327 60.9130885,56.932327 L37.4630885,56.932327 L37.4630885,54.632327 C37.4630885,44.6912015 45.521963,36.632327 55.4630885,36.632327 L55.4930885,36.632327 Z" id="Shape" stroke="none" fill="#E1F2FF" fill-rule="nonzero" opacity="0.3" transform="translate(53.688088, 46.782327) rotate(-1.440000) translate(-53.688088, -46.782327) "></path>
                            <path d="M53.8601445,40.6267249 L58.0001445,40.6267249 C62.363194,40.6267249 65.9001445,44.1636754 65.9001445,48.5267249 L65.9001445,48.5267249 C65.9081155,50.6704833 65.0627789,52.7293165 63.5506591,54.2489407 C62.0385393,55.7685648 59.9839161,56.6240832 57.8401445,56.6267249 L37.8901445,56.6267249 L37.8901445,56.6267249 C37.8901445,47.7901689 45.0535885,40.6267249 53.8901445,40.6267249 L53.8601445,40.6267249 Z" id="Shape" stroke="#375D81" stroke-width="2" fill="#FFFFFF" fill-rule="nonzero" transform="translate(51.895172, 48.626725) rotate(-1.440000) translate(-51.895172, -48.626725) "></path>
                            <circle id="Oval" stroke="none" fill="#375D81" fill-rule="nonzero" transform="translate(47.494898, 47.567758) rotate(-1.440000) translate(-47.494898, -47.567758) " cx="47.4948977" cy="47.5677584" r="4.46"></circle>
                            <path d="M11,62.71 L11,62.71 C12.2554264,62.4000017 13.3648803,61.6650768 14.14,60.63 L15.59,58.71 L12.28,59.51 L10.33,59.98 C9.59123874,60.1759277 9.14614089,60.9281431 9.33,61.67 L9.33,61.67 C9.50822657,62.4152895 10.2525194,62.8788012 11,62.71 L11,62.71 Z" id="Shape" stroke="none" fill="#375D81" fill-rule="nonzero"></path>
                            <path d="M61.92,78.73 C61.92,78.73 76.76,82.55 89.69,79.62 C87.48,89.36 86.25,92.43 86.25,92.43 C86.25,92.43 66.69,90.32 61.92,78.73 Z" id="Shape" stroke="none" fill="#E1F2FF" fill-rule="nonzero"></path>
                            <path d="M60.64,82.79 C69.6678793,84.566772 78.9360178,84.7596467 88.03,83.36" id="Shape" stroke="#9ACDED" stroke-width="2" fill="none" stroke-linecap="round"></path>
                            <path d="M81.21,155.32 C81.2514214,156.943717 79.9687172,158.293579 78.345,158.335 C76.7212828,158.376421 75.3714214,157.093717 75.33,155.47" id="Shape" stroke="#E1F2FF" stroke-width="1" fill="none" stroke-linecap="round"></path>
                            <path d="M87.1,155.17 C87.1267949,156.220361 86.5911936,157.205229 85.6949519,157.753615 C84.7987102,158.302 83.6779885,158.33059 82.7549519,157.828615 C81.8319153,157.326639 81.2467949,156.370361 81.22,155.32" id="Shape" stroke="#E1F2FF" stroke-width="1" fill="none" stroke-linecap="round"></path>
                            <path d="M84.23,158.19 C84.2567949,159.240361 83.7211936,160.225229 82.8249519,160.773615 C81.9287102,161.322 80.8079885,161.35059 79.8849519,160.848615 C78.9619153,160.346639 78.3767949,159.390361 78.35,158.34" id="Shape" stroke="#E1F2FF" stroke-width="1" fill="none" stroke-linecap="round"></path>
                            <path d="M83.41,61.46 C83.2549357,63.0849039 81.911953,64.3387456 80.2802408,64.3820203 C78.6485286,64.425295 77.2409741,63.2444005 77,61.63" id="Shape" stroke="#E1F2FF" stroke-width="1" fill="none" stroke-linecap="round"></path>
                            <path d="M86.73,64.63 C86.7585813,65.7839679 86.169357,66.8655261 85.1842821,67.4672622 C84.1992072,68.0689982 82.9679381,68.0994941 81.954282,67.5472622 C80.9406259,66.9950303 80.2985812,65.9439679 80.27,64.79" id="Shape" stroke="#E1F2FF" stroke-width="1" fill="none" stroke-linecap="round"></path>
                            <path d="M78.37,108.32 C78.4086599,109.819453 77.2244531,111.06634 75.725,111.105 C74.2255469,111.14366 72.9786599,109.959453 72.94,108.46" id="Shape" stroke="#E1F2FF" stroke-width="1" fill="none" stroke-linecap="round"></path>
                            <path d="M12.24,48.31 C12.2676142,49.4338994 11.3788994,50.3673857 10.255,50.395 C9.13110055,50.4226142 8.19761426,49.5338994 8.17,48.41" id="Shape" stroke="#E1F2FF" stroke-width="1" fill="none" stroke-linecap="round"></path>
                        </g>
                    </g>
                </g>
                <path d="M231,190.16 L215,190.16 C218.816287,178.042873 212.087127,165.126288 199.97,161.31 C187.852873,157.493713 174.936288,164.222873 171.12,176.34 C166.766411,175.359673 162.201705,176.321209 158.613509,178.974438 C155.025314,181.627668 152.768413,185.710253 152.43,190.16 L138.71,190.16 C138.177327,180.594973 130.828044,172.806423 121.31,171.72 C118.70587,159.145187 108.964177,149.269481 96.4261149,146.493797 C83.8880532,143.718114 70.8883232,148.559309 63.22,158.86 C54.3390356,156.619196 44.9310184,159.136187 38.35537,165.512203 C31.7797217,171.888219 28.973972,181.214193 30.94,190.16 L14.67,190.16" id="Shape" stroke="#9ACDED" stroke-width="2" fill="#FFFFFF" fill-rule="nonzero" stroke-linecap="round"></path>
                <circle id="Oval" stroke="#375D81" stroke-width="2" fill="#FFFFFF" fill-rule="nonzero" cx="131.24" cy="200.95" r="29.35"></circle>
                <rect id="Rectangle-path" fill="#EFEFF6" fill-rule="nonzero" x="116.42" y="196" width="23.64" height="19.94" rx="2"></rect>
                <rect id="Rectangle-path" stroke="#9ACDED" stroke-width="2" fill="#FFFFFF" fill-rule="nonzero" x="119.42" y="193" width="23.64" height="19.94" rx="2"></rect>
                <circle id="Oval" fill="#9ACDED" fill-rule="nonzero" cx="131.24" cy="201.5" r="2.58"></circle>
                <path d="M129.74,200.91 L132.68,200.91 L132.68,205.82 C132.68,206.631859 132.021859,207.29 131.21,207.29 L131.21,207.29 C130.398141,207.29 129.74,206.631859 129.74,205.82 L129.74,200.91 L129.74,200.91 Z" id="Shape" fill="#9ACDED" fill-rule="nonzero"></path>
                <path d="M131.3,181.61 L131.3,181.61 C133.503949,181.61 135.61763,182.485515 137.176057,184.043943 C138.734485,185.60237 139.61,187.716051 139.61,189.92 L139.61,193 L123,193 L123,189.93 C122.997346,187.72605 123.870318,185.611315 125.42687,184.051012 C126.983422,182.490709 129.09605,181.612651 131.3,181.61 L131.3,181.61 Z" id="Shape" stroke="#9ACDED" stroke-width="2"></path>
                <path d="M139.62,198.93 L139.62,209.58" id="Shape" stroke="#E1F2FF" stroke-width="2" stroke-linecap="round"></path>
            </g>
        </g>
    </g>
</svg>