<svg width="287" height="227" viewBox="0 0 387 327" xmlns="http://www.w3.org/2000/svg">
  <g fill="none" fill-rule="evenodd">
    <path d="M275.961 215.322l-87.45 35.675a3.306 3.306 0 01-4.312-1.812l-52.603-129.43a3.313 3.313 0 011.823-4.313l87.451-35.674a3.302 3.302 0 014.31 1.811l52.604 129.43a3.315 3.315 0 01-1.823 4.313" fill="#FFF"/>
    <path d="M133.867 117.656c-.199.18-.357.4-.463.654a1.835 1.835 0 00-.011 1.411l52.62 129.477a1.841 1.841 0 002.4 1.01l87.487-35.692c.451-.187.81-.539 1.003-.992.192-.453.195-.955.01-1.41l-52.62-129.478a1.84 1.84 0 00-2.4-1.009l-87.486 35.691c-.201.082-.383.197-.54.338m144.537 98.702a4.802 4.802 0 01-1.4.876l-87.487 35.69a4.774 4.774 0 01-6.225-2.617L130.67 120.83c-.48-1.18-.47-2.48.027-3.655a4.741 4.741 0 012.604-2.574l87.488-35.692a4.74 4.74 0 013.656.02 4.73 4.73 0 012.568 2.597l52.62 129.478a4.738 4.738 0 01-.027 3.658 4.758 4.758 0 01-1.203 1.696" fill="#ACD3EF"/>
    <path fill="#E1F2FF" d="M186.524 234.776l83.005-27.304-46.578-114.566-83.182 29.558z"/>
    <path d="M210.349 134.608c4.06 9.973-.732 21.348-10.703 25.407-9.972 4.061-21.347-.73-25.408-10.701-4.059-9.974.733-21.349 10.703-25.41 9.972-4.059 21.347.734 25.408 10.704" fill="#FFF"/>
    <path d="M210.697 129.62c4.06 9.971-.73 21.347-10.703 25.408-9.973 4.06-21.346-.731-25.407-10.703-4.06-9.972.732-21.348 10.704-25.408 9.972-4.06 21.346.733 25.406 10.704" fill="#FFF"/>
    <path d="M180.022 124.032a17.987 17.987 0 00-4.54 6.404 17.93 17.93 0 00-.085 13.812c3.751 9.214 14.302 13.657 23.518 9.905a17.945 17.945 0 009.826-9.709 17.935 17.935 0 00.085-13.811 17.926 17.926 0 00-9.707-9.823 17.936 17.936 0 00-13.812-.082 18.077 18.077 0 00-5.285 3.304m26.123 29.025a20.91 20.91 0 01-6.118 3.828c-10.723 4.367-22.998-.804-27.364-11.525a20.862 20.862 0 01.1-16.07 20.87 20.87 0 0111.434-11.295c10.722-4.367 22.997.803 27.362 11.525 3.423 8.411.976 17.783-5.414 23.537" fill="#ACD3EF"/>
    <path d="M200.295 145.21c.167.191.296.317.336.36.008.002-.008 0 0 0 0 0 .001 0 0 0h-.002c-2.493-4.677-.55-7.84-.98-11.444a1.071 1.071 0 01-.036-.173 2.963 2.963 0 00-.048-.24c-.232-.951-1.025-1.845-2.165-2.65-.003-.004-.01-.007-.016-.012a10.548 10.548 0 00-.291-.198s-.004 0-.004-.002a14.014 14.014 0 00-.568-.351c-.019-.012-.039-.026-.06-.036-.055-.031-.11-.06-.164-.093a26.587 26.587 0 00-.168-.094l-.17-.091-.176-.093a7.975 7.975 0 00-.126-.064c-1.607-.813-3.539-1.479-5.466-1.956 0 0-.018-.012 0 0 .945 1.757 1.717 3.585 2.14 5.125.512 1.857.717 4.177.597 6.404-2.127.67-4.425 1.05-6.351 1.019-1.612-.026-3.559-.311-5.508-.795.077.145.159.29.237.434.024.044.05.085.075.13.058.103.116.204.177.306.025.048.051.095.081.141.061.103.12.204.183.306.025.04.05.081.073.123l.239.38a26.422 26.422 0 00.636.964c.08.116.16.23.241.344a18.2 18.2 0 00.333.453l.002.002c.31.408.622.797.938 1.164.005.005.01.008.01.012.535.61 1.08 1.15 1.622 1.595.08.064.159.128.238.187.004.002.005.007.009.008h.002c.071.055.144.108.215.16v.001l.01.006c.077.055.155.108.23.158.012.008.022.012.032.02.002 0 0 0 0 0 .102.069.203.129.3.186l.05.027.018.011c.111.063.224.123.337.174.078.04.157.072.235.106l.099.037c.05.02.096.037.145.054l.108.033.134.04c.037.008.07.017.107.024.046.012.09.021.137.03l.101.019c.048.004.095.01.141.016l.095.01.156.004c.023 0 .052.003.077 0 .078.002.155-.004.23-.013.051-.004.096-.007.138-.006 3.611-.468 6.23-3.127 11.371-1.902" fill="#ACD3EF"/>
    <g fill="#ACD3EF">
      <path d="M189.065 180.587l-3.01-1.231-3.606 8.316-5.125-2.095-1.317 3.037 8.11 3.316.011-.026.026.011zM241.848 163.811c-.123.11-.269.204-.432.269L194.71 182.9a1.494 1.494 0 01-1.934-.827 1.463 1.463 0 01.804-1.927l46.705-18.82a1.494 1.494 0 011.934.827 1.473 1.473 0 01-.371 1.658"/>
    </g>
    <path fill="#FFF" d="M194.053 182.182l46.303-18.816"/>
    <path fill="#ACD3EF" d="M194.429 195.513l-2.945-1.17-3.653 8.205-5.014-1.992-1.334 2.996 7.936 3.152.011-.025.027.01z"/>
    <path fill="#FFF" d="M201.057 196.705l46.303-18.816"/>
    <path d="M248.852 179.516a1.45 1.45 0 01-.43.268l-46.387 18.82a1.472 1.472 0 01-1.916-.811 1.459 1.459 0 01.805-1.913l46.387-18.821a1.472 1.472 0 011.541 2.457M200.435 209.967l-2.945-1.17-3.652 8.204-5.015-1.99-1.333 2.996 7.936 3.15.011-.025.027.01z" fill="#ACD3EF"/>
    <path fill="#FFF" d="M206.993 212.157l46.303-18.815"/>
    <path d="M254.789 194.967a1.45 1.45 0 01-.43.268l-46.388 18.821a1.472 1.472 0 01-1.915-.811c-.308-.75.045-1.61.804-1.913l46.388-18.821a1.472 1.472 0 011.54 2.456" fill="#ACD3EF"/>
    <g>
      <path d="M329.497 218.02l-83.394-33.429a3.152 3.152 0 01-1.752-4.097l49.53-123.546a3.15 3.15 0 014.097-1.751l83.393 33.43a3.148 3.148 0 011.752 4.094l-49.529 123.548a3.151 3.151 0 01-4.097 1.75" fill="#FFF"/>
      <path d="M297.41 56.685a1.736 1.736 0 00-.75.142 1.749 1.749 0 00-.94.96l-49.601 123.698a1.757 1.757 0 00.976 2.283l83.518 33.47c.432.17.911.167 1.343-.016.43-.184.765-.526.94-.961l49.602-123.697c.173-.435.169-.912-.017-1.343a1.752 1.752 0 00-.96-.939l-83.518-33.471a1.763 1.763 0 00-.593-.126m33.699 163.476a4.564 4.564 0 01-1.538-.327l-83.518-33.471a4.555 4.555 0 01-2.531-5.92l49.6-123.698a4.52 4.52 0 012.436-2.49 4.507 4.507 0 013.486-.04l83.519 33.471a4.515 4.515 0 012.49 2.436 4.518 4.518 0 01.042 3.483l-49.602 123.697a4.516 4.516 0 01-2.438 2.491 4.523 4.523 0 01-1.946.368" fill="#ACD3EF"/>
      <path fill="#E1F2FF" d="M255.359 171.805l74.803 36.238 43.823-109.416-76.412-34.809z"/>
      <path d="M338.586 118.48c-3.8 9.482-14.568 14.086-24.048 10.285-9.482-3.8-14.086-14.567-10.287-24.047 3.803-9.482 14.57-14.087 24.05-10.287 9.48 3.801 14.085 14.568 10.285 24.049" fill="#FFF"/>
      <path d="M342.224 115.879c-3.8 9.48-14.567 14.086-24.049 10.285s-14.085-14.567-10.285-24.048c3.8-9.48 14.568-14.087 24.05-10.286 9.48 3.802 14.084 14.569 10.284 24.049" fill="#FFF"/>
      <path d="M324.085 91.558a17.13 17.13 0 00-7.347 1.384 17.076 17.076 0 00-9.196 9.406c-3.526 8.794.763 18.819 9.56 22.345a17.09 17.09 0 0013.153-.15 17.08 17.08 0 009.196-9.406 17.073 17.073 0 00-.15-13.152 17.082 17.082 0 00-9.409-9.193 17.216 17.216 0 00-5.807-1.234m-1.306 37.167a19.914 19.914 0 01-6.724-1.424c-10.235-4.102-15.223-15.767-11.121-26a19.869 19.869 0 0110.699-10.943 19.876 19.876 0 0115.306-.173c10.234 4.101 15.224 15.764 11.12 25.997-3.219 8.028-11.095 12.83-19.28 12.543" fill="#ACD3EF"/>
      <path d="M324.298 119.466c-.012.241-.007.412-.008.468.004.007-.005-.006 0 0 0 0 0 .001 0 0l-.001-.002c1.38-4.841 4.784-5.72 6.863-8.468.024-.045.052-.091.09-.141.043-.063.086-.128.126-.196.467-.803.515-1.937.268-3.239l-.003-.02c-.02-.107-.044-.218-.068-.327 0 0-.003-.003-.001-.004-.046-.2-.098-.407-.156-.614-.005-.021-.01-.044-.017-.065l-.051-.171-.052-.176-.057-.174-.059-.18a7.588 7.588 0 00-.044-.126c-.559-1.616-1.437-3.346-2.436-4.944 0 0-.005-.02 0 0-.513 1.824-1.19 3.583-1.915 4.915-.874 1.607-2.26 3.327-3.809 4.77-1.89-.945-3.706-2.202-4.998-3.495-1.08-1.08-2.22-2.56-3.23-4.177l-.124.453-.034.138c-.028.109-.056.216-.082.326-.014.05-.027.1-.037.15l-.077.33-.03.132-.089.418a25.166 25.166 0 00-.186.991l-.015.087a38.48 38.48 0 00-.072.472c-.022.15-.042.302-.06.452v.003c-.058.483-.101.955-.127 1.414v.015c-.039.77-.022 1.499.054 2.16.012.096.024.192.039.285v.01l.002.002.041.252v.001l.003.01c.016.088.034.176.053.26.002.013.006.023.009.034v.001a5.248 5.248 0 00.097.376c.002.006.004.011.005.02.035.116.073.232.116.341.026.08.06.153.09.227l.043.09c.02.047.041.09.063.134l.052.093c.021.04.043.078.066.116.02.03.036.059.056.087.024.038.048.074.074.11.017.027.038.054.057.08.03.035.057.07.085.105l.059.069c.033.036.068.07.103.106.016.015.033.036.052.05.052.054.109.1.165.144.038.03.07.058.099.087 2.768 2.063 6.303 1.973 9 6.203" fill="#ACD3EF"/>
      <g fill="#ACD3EF">
        <path d="M292.775 135.677l-1.251-2.866-7.997 3.351-2.13-4.879-2.92 1.224 3.37 7.721.025-.01.01.025zM340.17 159.351a1.372 1.372 0 01-.476-.102l-44.576-18.194c-.721-.293-1.071-1.129-.78-1.866.287-.734 1.107-1.099 1.83-.798l44.577 18.194c.721.293 1.07 1.129.78 1.866-.226.576-.78.92-1.356.9"/>
      </g>
      <path fill="#FFF" d="M295.045 140.433l44.414 17.56"/>
      <path fill="#ACD3EF" d="M286.522 150.402l-1.212-2.884-7.78 3.383-2.064-4.91-2.842 1.236 3.267 7.77.024-.01.011.026z"/>
      <path fill="#FFF" d="M290.32 155.356l44.415 17.56"/>
      <path d="M335.347 174.834a1.404 1.404 0 01-.476-.1l-44.59-17.768a1.395 1.395 0 01-.783-1.818 1.405 1.405 0 011.831-.776l44.591 17.767a1.395 1.395 0 01.782 1.819c-.225.562-.78.896-1.355.876M281.485 163.35l-1.213-2.885-7.778 3.384-2.065-4.91-2.841 1.235 3.268 7.77.023-.01.012.026z" fill="#ACD3EF"/>
      <path fill="#FFF" d="M284.453 169.447l44.415 17.56"/>
      <path d="M328.648 190.07a1.404 1.404 0 01-.476-.1l-44.59-17.768a1.395 1.395 0 01-.783-1.819 1.402 1.402 0 011.83-.776l44.592 17.767a1.395 1.395 0 01.782 1.82c-.226.561-.78.896-1.355.876" fill="#ACD3EF"/>
    </g>
    <g>
      <path d="M221.536 58.309a5.52 5.52 0 11-5.666-9.475 5.52 5.52 0 015.666 9.475m31.797-10.842l-40.749-9.992a4.288 4.288 0 00-5.17 3.093l-10.472 40.629a6.898 6.898 0 00.76 5.263l37.742 63.098a1.38 1.38 0 001.892.475l57.54-34.418a1.378 1.378 0 00.477-1.89l-37.742-63.1a6.897 6.897 0 00-4.278-3.158" fill="#FFF"/>
      <path d="M221.023 57.45a4.528 4.528 0 001.558-6.198 4.526 4.526 0 00-6.199-1.56 4.527 4.527 0 00-1.558 6.2 4.527 4.527 0 006.199 1.559m2.218.804c-.356.345-.756.651-1.192.911l-.001.001a6.527 6.527 0 01-8.94-2.249c-1.845-3.085-.832-7.097 2.248-8.94a6.526 6.526 0 018.94 2.247 6.48 6.48 0 01.73 4.937 6.483 6.483 0 01-1.785 3.093m-13.965-18.972a3.266 3.266 0 00-.895 1.535l-10.47 40.628a5.933 5.933 0 00.65 4.5l37.74 63.098c.108.18.342.239.522.132l57.54-34.418a.376.376 0 00.132-.52l-37.742-63.1a5.94 5.94 0 00-3.658-2.7l-40.748-9.993a3.295 3.295 0 00-3.071.838m86.55 76.858c-.13.126-.277.236-.436.332l-57.54 34.418a2.36 2.36 0 01-1.802.266 2.36 2.36 0 01-1.462-1.086l-37.741-63.098a7.944 7.944 0 01-.872-6.026l10.471-40.629c.719-2.786 3.58-4.5 6.378-3.815l40.749 9.992a7.942 7.942 0 014.897 3.617l37.743 63.098a2.36 2.36 0 01.265 1.802 2.35 2.35 0 01-.65 1.129" fill="#ACD3EF"/>
      <path d="M204.21 85.085l34.736 55.856 47.136-26.99-34.56-60.082-25.858-6.683 3.087 5.728a6.818 6.818 0 01-1.834 8.629 18.794 18.794 0 01-17.993 2.76l-4.714 20.782z" fill="#E1F2FF"/>
      <path d="M251.96 78.975c4.838 8.087 2.203 18.565-5.884 23.402s-18.564 2.203-23.402-5.884c-4.838-8.088-2.203-18.566 5.885-23.402 8.087-4.839 18.565-2.204 23.402 5.884" fill="#E1F2FF"/>
      <path d="M251.967 74.952c4.837 8.088 2.202 18.566-5.885 23.402-8.088 4.838-18.564 2.203-23.402-5.884-4.838-8.087-2.204-18.565 5.884-23.402 8.087-4.838 18.565-2.203 23.403 5.884" fill="#FFF"/>
      <path d="M226.162 72.156c-5.249 5.07-6.527 13.275-2.625 19.801 4.549 7.6 14.43 10.086 22.03 5.54 7.605-4.552 10.088-14.43 5.542-22.031-4.548-7.601-14.43-10.086-22.032-5.54a16.077 16.077 0 00-2.915 2.23m23.738 24.53a18.136 18.136 0 01-3.306 2.526c-8.546 5.114-19.66 2.32-24.772-6.228-5.113-8.549-2.317-19.667 6.23-24.773 8.545-5.114 19.66-2.32 24.773 6.228a17.944 17.944 0 012.015 13.677 17.948 17.948 0 01-4.94 8.57" fill="#ACD3EF"/>
      <path d="M245.282 88.756c.171.146.3.237.341.27.007.001-.006 0 0 0h-.001c-2.8-3.744-1.532-6.76-2.39-9.847a1.046 1.046 0 01-.055-.144 1.926 1.926 0 00-.073-.203c-.33-.799-1.141-1.471-2.242-2.021l-.018-.008a7.4 7.4 0 00-.28-.134s-.002 0-.003-.003a12.044 12.044 0 00-.543-.229c-.018-.007-.037-.017-.057-.023-.05-.02-.104-.038-.154-.06l-.16-.06-.16-.054a5.86 5.86 0 00-.167-.058c-.037-.014-.078-.026-.118-.04-1.51-.495-3.282-.815-5.027-.974 0 0-.018-.009 0 0 1.059 1.405 1.978 2.895 2.553 4.18.695 1.55 1.185 3.547 1.38 5.503-1.764.87-3.718 1.508-5.401 1.738-1.408.192-3.144.204-4.91.043l.267.347.082.103c.063.082.127.163.194.243l.09.113a11.25 11.25 0 00.284.338c.085.102.17.201.257.301.008.01.016.021.025.03.1.115.2.227.303.34.007.01.016.017.024.025.092.102.183.2.276.3l.056.06a22.88 22.88 0 00.308.32c.1.1.199.2.3.298l.001.001c.324.316.65.612.975.889a12.148 12.148 0 001.638 1.184c.078.044.156.089.233.131.003.002.005.005.008.006.072.038.141.075.21.11h.002a.409.409 0 00.262.125v.002c.096.043.192.083.284.12l.048.017.016.007a4 4 0 00.538.167c.03.008.061.014.092.021.044.01.088.018.133.027.033.005.064.01.098.013.04.007.082.012.123.017.032.004.064.006.095.008.042.003.083.007.123.008l.093.001c.042 0 .083-.001.124-.003.03 0 .056-.003.085-.005.046-.004.09-.01.136-.016l.067-.01c.068-.011.134-.026.198-.044a1.24 1.24 0 01.12-.024c3.086-.89 5.013-3.556 9.658-3.176M270.679 102.605a.997.997 0 01-.182.14l-32.97 19.72a.999.999 0 01-1.37-.344.995.995 0 01.344-1.372l32.97-19.72a1 1 0 011.208 1.576M275.887 111.312a.997.997 0 01-.182.14l-32.97 19.72a.999.999 0 01-1.37-.345.996.996 0 01.345-1.371l32.968-19.721a1 1 0 011.209 1.577M215.381 60.055c-.477.46-1.02.818-1.629 1.076-4.111 1.74-10.325-1.645-18.192-5.93-2.372-1.293-4.825-2.629-7.408-3.93-5.905-2.972-11.098-4.348-15.68-5.562a130.4 130.4 0 01-4.38-1.212c-2.955-.89-7.21-5.27-7.685-5.765l1.443-1.385c1.193 1.244 4.742 4.608 6.82 5.235 1.362.413 2.796.792 4.313 1.194 4.678 1.24 9.978 2.643 16.068 5.709 2.612 1.315 5.08 2.659 7.465 3.959 7.101 3.868 13.234 7.209 16.456 5.845 1.164-.493 1.987-1.644 2.51-3.518.248-.891-.361-2.857-1.373-3.147l.551-1.923c2.276.654 3.237 3.85 2.749 5.606-.456 1.634-1.125 2.876-2.028 3.748" fill="#ACD3EF"/>
      <path d="M168.976 45.27c.48-.139 1.288-.736 1.99-1.475-.435-.991-.768-1.123-.771-1.123-.036.01-.289.148-.598.663-.413.69-.603 1.494-.62 1.934m3.061.287c-.967.934-2.537 2.104-3.972 1.627-.376-.124-1.232-.595-1.067-2.263.161-1.64 1.281-4.023 2.965-4.232 1.289-.16 2.33.84 3.098 2.97l.19.533-.357.438c-.135.164-.44.524-.857.927" fill="#ACD3EF"/>
      <path d="M213.209 52.116c-11.442-6.463-53.278-8.195-53.7-8.213l.08-1.998c1.74.069 42.743 1.77 54.604 8.468l-.984 1.743z" fill="#ACD3EF"/>
    </g>
    <g>
      <path d="M270.067 165.367L202.63 186.55c-1.59.499-3.3-.341-3.817-1.876l-17.321-51.367c-.517-1.536.353-3.185 1.943-3.684l67.436-21.183c1.591-.499 3.3.34 3.817 1.874l17.32 51.37c.518 1.535-.351 3.184-1.941 3.683" fill="#FFF"/>
      <path d="M251.806 109.593c-.172 0-.348.026-.521.08l-67.433 21.182c-.43.135-.778.422-.982.808-.204.387-.24.83-.1 1.243l17.321 51.367c.14.414.436.75.837.948.402.196.858.23 1.286.096l67.437-21.183c.884-.278 1.368-1.197 1.081-2.05l-17.322-51.368c-.23-.686-.894-1.123-1.604-1.123m-50.117 78.398c-.68 0-1.355-.155-1.98-.46a4.24 4.24 0 01-2.172-2.455l-17.323-51.37c-.744-2.213.514-4.596 2.807-5.316l67.434-21.183c2.293-.72 4.764.496 5.51 2.706l17.321 51.37c.745 2.213-.514 4.598-2.804 5.316l-67.437 21.183c-.446.14-.9.209-1.356.209" fill="#ACD3EF"/>
      <path d="M260.176 157.548L205.86 174.61c-1.59.499-3.299-.341-3.816-1.874l-11.22-33.281c-.52-1.536.35-3.185 1.94-3.684l54.317-17.061c1.591-.5 3.3.34 3.816 1.874l11.221 33.28c.518 1.535-.35 3.184-1.942 3.684" fill="#E1F2FF"/>
      <path d="M248.016 119.863c-.172 0-.348.026-.521.08l-54.315 17.062a1.656 1.656 0 00-.98.808c-.205.386-.24.827-.1 1.241l11.222 33.28c.286.853 1.236 1.323 2.124 1.043l54.315-17.062c.428-.134.776-.42.981-.808.203-.388.24-.828.1-1.24l-11.223-33.281c-.23-.686-.893-1.123-1.603-1.123m-43.09 56.187c-1.842 0-3.56-1.133-4.16-2.913l-11.22-33.28a4.066 4.066 0 01.26-3.221 4.31 4.31 0 012.544-2.097l54.315-17.062c2.29-.72 4.764.495 5.51 2.706l11.22 33.281a4.06 4.06 0 01-.26 3.218 4.305 4.305 0 01-2.543 2.099l-54.316 17.061a4.476 4.476 0 01-1.35.208" fill="#ACD3EF"/>
      <path d="M191.864 142.543l-1.241-3.678c-.408-1.21.277-2.508 1.53-2.9l55.539-17.447c1.254-.393 2.6.268 3.006 1.477l1.213 3.594-60.047 18.954z" fill="#ACD3EF"/>
      <path d="M248.428 119.701c-.106 0-.215.017-.321.05l-55.54 17.446c-.264.083-.479.26-.605.499a.971.971 0 00-.062.769l.825 2.443 57.494-18.148-.798-2.364a1.043 1.043 0 00-.993-.695zm-57.425 24.478l-1.657-4.912a3.455 3.455 0 01.223-2.745 3.659 3.659 0 012.169-1.79l55.539-17.447c1.962-.61 4.063.424 4.7 2.309l1.626 4.825-62.6 19.76zM261.126 150.931l1.192 3.524c.407 1.208-.276 2.507-1.53 2.9l-55.538 17.446c-1.253.394-2.6-.267-3.007-1.476l-1.27-3.764 60.153-18.63z" fill="#ACD3EF"/>
      <path d="M202.668 170.398l.853 2.526a.997.997 0 00.517.584c.248.123.529.145.795.06l55.54-17.445c.265-.082.48-.26.606-.5a.968.968 0 00.062-.767l-.776-2.298-57.597 17.84zm1.839 5.814c-.58 0-1.155-.131-1.687-.393a3.613 3.613 0 01-1.855-2.094l-1.685-5 62.708-19.421 1.606 4.749c.637 1.887-.435 3.92-2.39 4.536l-55.54 17.445c-.38.118-.77.178-1.157.178z" fill="#ACD3EF"/>
      <path d="M233.838 142.084l-12.284-2.565c-1.307-.274-2.428.92-2.02 2.149l3.84 11.55c.41 1.228 2.042 1.569 2.94.614l8.444-8.986c.897-.954.387-2.49-.92-2.762" fill="#FFF"/>
      <g>
        <path d="M301.31 219.494l-70.304-8.58c-1.666-.204-2.845-1.664-2.633-3.26l7.673-57.814c.213-1.598 1.736-2.727 3.401-2.523l70.306 8.58c1.665.204 2.844 1.663 2.632 3.261l-7.676 57.812c-.212 1.597-1.734 2.727-3.4 2.524" fill="#FFF"/>
        <path d="M301.48 218.211c.443.053.89-.06 1.25-.326a1.6 1.6 0 00.641-1.078l7.676-57.812a1.561 1.561 0 00-.34-1.199 1.7 1.7 0 00-1.124-.615l-70.306-8.581c-.913-.105-1.774.516-1.892 1.403l-7.674 57.813c-.119.887.54 1.702 1.464 1.814l70.304 8.581zm.217 2.6c-.185 0-.37-.011-.557-.034l-70.304-8.58a4.412 4.412 0 01-2.917-1.6 4.061 4.061 0 01-.884-3.107l7.674-57.813c.307-2.302 2.519-3.936 4.908-3.643l70.306 8.58c1.162.143 2.199.71 2.916 1.6a4.061 4.061 0 01.884 3.107l-7.675 57.812c-.282 2.123-2.176 3.679-4.351 3.679z" fill="#ACD3EF"/>
        <path d="M296.444 203.812l-56.621-6.912c-1.667-.203-2.845-1.663-2.632-3.26l4.573-34.457c.211-1.597 1.734-2.728 3.4-2.525l56.622 6.912c1.666.203 2.844 1.663 2.633 3.26l-4.576 34.457c-.212 1.597-1.734 2.728-3.4 2.525" fill="#E1F2FF"/>
        <path d="M296.613 202.529c.447.051.893-.061 1.25-.326a1.6 1.6 0 00.642-1.079l4.576-34.456c.119-.888-.54-1.703-1.465-1.815l-56.621-6.91a1.71 1.71 0 00-1.25.324 1.6 1.6 0 00-.644 1.078l-4.573 34.458c-.118.887.538 1.701 1.465 1.814l56.62 6.912zm.223 2.6c-.188 0-.374-.012-.562-.035l-56.62-6.91c-2.403-.294-4.107-2.405-3.802-4.707l4.574-34.456a4.153 4.153 0 011.667-2.798 4.516 4.516 0 013.241-.847l56.622 6.911c2.4.292 4.107 2.404 3.8 4.707l-4.574 34.456a4.152 4.152 0 01-1.668 2.797 4.478 4.478 0 01-2.678.882z" fill="#ACD3EF"/>
        <path d="M237.713 189.695c.049-.365 8.497-5.576 13.056-8.365 1.644-1.006 3.8-.732 5.12.645l7.442 7.753c.4.417 1.058.48 1.537.153l15.2-10.452c1.525-1.049 3.603-.95 5.01.24l15.858 13.393-.991 7.422c-.23 1.733-1.886 2.955-3.69 2.728l-57.078-7.195c-1.48-.188-2.484-1.539-2.184-2.94l.72-3.382z" fill="#ACD3EF"/>
        <path d="M296.58 172.147c-.311 2.267-2.48 3.862-4.845 3.565-2.364-.299-4.028-2.377-3.718-4.645.312-2.267 2.479-3.862 4.844-3.565 2.364.299 4.028 2.378 3.718 4.645" fill="#FFF"/>
        <path d="M292.297 168.76c-1.466 0-2.746 1.045-2.943 2.475-.213 1.557.935 2.991 2.557 3.195 1.632.206 3.119-.894 3.332-2.451.213-1.557-.934-2.99-2.557-3.194a3.064 3.064 0 00-.39-.025m.014 8.281c-.25 0-.499-.015-.75-.048-3.097-.39-5.286-3.124-4.879-6.094.408-2.97 3.257-5.074 6.356-4.679 1.5.19 2.834.928 3.756 2.08a5.232 5.232 0 011.123 4.015c-.197 1.44-.967 2.72-2.167 3.601-1 .737-2.2 1.125-3.439 1.125" fill="#ACD3EF"/>
      </g>
    </g>
    <g>
      <path d="M352 178v133.886c0 4.479-2.919 8.114-6.515 8.114h-201.97c-3.596 0-6.515-3.635-6.515-8.114V178h215z" stroke="#5563B6" stroke-width="5" fill="#FFF" fill-rule="nonzero"/>
      <path d="M138.556 100.838L78.542 285.544l9.59 18.777 37.164 12.075 69.22-213.036-37.165-12.076-18.795 9.554z" stroke="#5563B6" stroke-width="5" fill="#FFF" fill-rule="nonzero"/>
      <path stroke="#5563B6" stroke-width="5" stroke-linecap="square" d="M89.786 304.333l67.683-209.927"/>
      <path fill="#9452BA" fill-rule="nonzero" d="M108.039 209.323l10.197-31.385 45.651 14.833-10.197 31.385z"/>
      <path fill="#754093" fill-rule="nonzero" d="M108.039 209.323l10.197-31.385 9.511 3.09-10.198 31.385z"/>
      <path d="M93.477 104.511c-9.023 1.91-16.524 9.558-20.06 20.44-8.048 24.77 8.864 49.676 20.337 62.94-17.067 4.005-45.257 14.25-53.288 38.966-5.093 15.673.649 30.118 13.455 34.279 22.709 7.378 45.855-13.438 62.595-64.96 16.74-51.52 6.564-85.01-11.73-90.953-3.639-1.172-7.459-1.53-11.309-.712zM76.08 237.929c-7.319 7.31-13.346 8.8-16.554 7.759-4.102-1.333-5.417-7.407-3.128-14.45 5.513-16.969 26.605-24.96 40.622-28.473-7.593 19.141-15.355 29.587-20.94 35.164zm27.401-114.537c6.147 6.888 9.29 24.568 1.663 54.37-9.251-11.153-21.589-30.106-16.13-46.909 2.113-6.501 5.708-9.43 8.372-10.01 2.116-.461 4.17.396 6.095 2.55z" fill="#9452BA" fill-rule="nonzero"/>
      <path d="M331.768 303.392c.345.3.568.53.644.604.006.014 0-.013 0 0 0 .002.002-.002.002-.002-8.398-4.505-14.114-1.076-20.604-1.885a2.283 2.283 0 00-.307-.067 4.609 4.609 0 01-.434-.085c-1.71-.425-3.313-1.853-4.75-3.897l-.022-.032c-.122-.168-.237-.344-.353-.52 0 0-.001-.005-.005-.006-.211-.325-.42-.67-.626-1.019-.02-.036-.044-.07-.065-.107-.053-.1-.108-.198-.164-.295l-.169-.3-.16-.306c-.057-.106-.11-.21-.166-.316-.038-.071-.075-.148-.114-.226-1.449-2.878-2.625-6.335-3.466-9.78 0 0-.02-.034 0 0 3.155 1.705 6.438 3.107 9.208 3.88 3.338.936 7.516 1.328 11.528 1.14 1.229-3.79 1.939-7.889 1.904-11.329-.033-2.877-.522-6.358-1.375-9.844.262.14.52.286.782.43l.23.134c.184.104.369.207.551.318.085.046.17.098.254.148a55.621 55.621 0 01.77.463c.228.143.456.285.68.43a.597.597 0 01.068.042c.263.164.521.335.779.506.02.011.039.027.06.04.232.154.457.308.685.464.048.03.092.066.139.095.207.143.41.29.616.435.038.03.076.06.117.088a42.092 42.092 0 01.702.515c.73.556 1.426 1.12 2.082 1.69.009.007.017.015.026.02 1.09.96 2.056 1.937 2.852 2.912.116.143.228.286.335.428.004.006.01.01.013.014v.003c.1.129.197.259.286.385l.002.004c.004.004.006.01.009.014.1.138.196.276.285.416l.035.056c.001.003.004.002.004.004.117.178.227.359.329.533a.92.92 0 00.048.087c.006.01.01.022.02.034.112.201.218.402.311.606.07.14.129.28.187.42l.067.177c.033.088.062.173.095.26.02.062.037.126.057.193.026.078.048.16.07.24.017.064.031.126.044.192.02.08.037.16.052.24l.03.188c.012.082.02.167.031.247.007.058.01.116.015.172.005.093.006.183.007.278 0 .042.002.09 0 .137 0 .14-.011.276-.027.41-.009.093-.014.173-.014.248-.88 6.442-5.696 11.088-3.546 20.28" fill="#9452BA"/>
      <path fill="#9452BA" fill-rule="nonzero" d="M223 175h33v151h-33z"/>
    </g>
  </g>
</svg>
