<?xml version="1.0" encoding="UTF-8"?>
<svg width="256px" height="256px" viewBox="0 0 256 256" version="1.1" xmlns="http://www.w3.org/2000/svg" xmlns:xlink="http://www.w3.org/1999/xlink">
    <!-- Generator: Sketch 52.2 (67145) - http://www.bohemiancoding.com/sketch -->
    <title>Common/Illustrations/UserDefault</title>
    <desc>Created with Sketch.</desc>
    <defs>
        <polygon id="path-1" points="0.4795 0.0537 9.479 0.0537 9.479 2.0537 0.4795 2.0537"></polygon>
        <polygon id="path-3" points="0.6768 0.056 2.6768 0.056 2.6768 9.0557 0.6768 9.0557"></polygon>
        <path d="M0.471,90.556 C0.471,140.129 40.657,180.315 90.229,180.315 C139.802,180.315 179.988,140.129 179.988,90.556 C179.988,40.984 139.802,0.797 90.229,0.797 C40.657,0.797 0.471,40.984 0.471,90.556" id="path-5"></path>
        <path d="M0.471,90.556 C0.471,140.129 40.657,180.315 90.229,180.315 C139.802,180.315 179.988,140.129 179.988,90.556 C179.988,40.984 139.802,0.797 90.229,0.797 C40.657,0.797 0.471,40.984 0.471,90.556 Z" id="path-7"></path>
        <path d="M0.471,90.556 C0.471,140.129 40.657,180.315 90.229,180.315 C139.802,180.315 179.988,140.129 179.988,90.556 C179.988,40.984 139.802,0.797 90.229,0.797 C40.657,0.797 0.471,40.984 0.471,90.556" id="path-9"></path>
        <path d="M0.471,90.556 C0.471,140.129 40.657,180.315 90.229,180.315 C139.802,180.315 179.988,140.129 179.988,90.556 C179.988,40.984 139.802,0.797 90.229,0.797 C40.657,0.797 0.471,40.984 0.471,90.556" id="path-11"></path>
        <path d="M0.471,90.556 C0.471,140.129 40.657,180.315 90.229,180.315 C139.802,180.315 179.988,140.129 179.988,90.556 C179.988,40.984 139.802,0.797 90.229,0.797 C40.657,0.797 0.471,40.984 0.471,90.556" id="path-13"></path>
        <path d="M0.471,90.556 C0.471,140.129 40.657,180.315 90.229,180.315 C139.802,180.315 179.988,140.129 179.988,90.556 C179.988,40.984 139.802,0.797 90.229,0.797 C40.657,0.797 0.471,40.984 0.471,90.556" id="path-15"></path>
        <path d="M0.471,90.556 C0.471,140.129 40.657,180.315 90.229,180.315 C139.802,180.315 179.988,140.129 179.988,90.556 C179.988,40.984 139.802,0.797 90.229,0.797 C40.657,0.797 0.471,40.984 0.471,90.556" id="path-17"></path>
        <path d="M0.471,90.556 C0.471,140.129 40.657,180.315 90.229,180.315 C139.802,180.315 179.988,140.129 179.988,90.556 C179.988,40.984 139.802,0.797 90.229,0.797 C40.657,0.797 0.471,40.984 0.471,90.556" id="path-19"></path>
        <path d="M0.471,90.556 C0.471,140.129 40.657,180.315 90.229,180.315 C139.802,180.315 179.988,140.129 179.988,90.556 C179.988,40.984 139.802,0.797 90.229,0.797 C40.657,0.797 0.471,40.984 0.471,90.556" id="path-21"></path>
        <path d="M0.471,90.556 C0.471,140.129 40.657,180.315 90.229,180.315 C139.802,180.315 179.988,140.129 179.988,90.556 C179.988,40.984 139.802,0.797 90.229,0.797 C40.657,0.797 0.471,40.984 0.471,90.556" id="path-23"></path>
        <path d="M0.471,90.556 C0.471,140.129 40.657,180.315 90.229,180.315 C139.802,180.315 179.988,140.129 179.988,90.556 C179.988,40.984 139.802,0.797 90.229,0.797 C40.657,0.797 0.471,40.984 0.471,90.556" id="path-25"></path>
        <path d="M0.471,90.556 C0.471,140.129 40.657,180.315 90.229,180.315 C139.802,180.315 179.988,140.129 179.988,90.556 C179.988,40.984 139.802,0.797 90.229,0.797 C40.657,0.797 0.471,40.984 0.471,90.556" id="path-27"></path>
        <path d="M0.471,90.556 C0.471,140.129 40.657,180.315 90.229,180.315 C139.802,180.315 179.988,140.129 179.988,90.556 C179.988,40.984 139.802,0.797 90.229,0.797 C40.657,0.797 0.471,40.984 0.471,90.556" id="path-29"></path>
        <path d="M0.471,90.556 C0.471,140.129 40.657,180.315 90.229,180.315 C139.802,180.315 179.988,140.129 179.988,90.556 C179.988,40.984 139.802,0.797 90.229,0.797 C40.657,0.797 0.471,40.984 0.471,90.556" id="path-31"></path>
        <path d="M0.471,90.556 C0.471,140.129 40.657,180.315 90.229,180.315 C139.802,180.315 179.988,140.129 179.988,90.556 C179.988,40.984 139.802,0.797 90.229,0.797 C40.657,0.797 0.471,40.984 0.471,90.556" id="path-33"></path>
        <path d="M0.471,90.556 C0.471,140.129 40.657,180.315 90.229,180.315 C139.802,180.315 179.988,140.129 179.988,90.556 C179.988,40.984 139.802,0.797 90.229,0.797 C40.657,0.797 0.471,40.984 0.471,90.556 Z" id="path-35"></path>
        <path d="M0.471,90.556 C0.471,140.129 40.657,180.315 90.229,180.315 C139.802,180.315 179.988,140.129 179.988,90.556 C179.988,40.984 139.802,0.797 90.229,0.797 C40.657,0.797 0.471,40.984 0.471,90.556" id="path-37"></path>
        <path d="M0.471,90.556 C0.471,140.129 40.657,180.315 90.229,180.315 C139.802,180.315 179.988,140.129 179.988,90.556 C179.988,40.984 139.802,0.797 90.229,0.797 C40.657,0.797 0.471,40.984 0.471,90.556" id="path-39"></path>
        <path d="M0.471,90.556 C0.471,140.129 40.657,180.315 90.229,180.315 C139.802,180.315 179.988,140.129 179.988,90.556 C179.988,40.984 139.802,0.797 90.229,0.797 C40.657,0.797 0.471,40.984 0.471,90.556" id="path-41"></path>
        <path d="M0.471,90.556 C0.471,140.129 40.657,180.315 90.229,180.315 C139.802,180.315 179.988,140.129 179.988,90.556 C179.988,40.984 139.802,0.797 90.229,0.797 C40.657,0.797 0.471,40.984 0.471,90.556" id="path-43"></path>
        <path d="M0.471,90.556 C0.471,140.129 40.657,180.315 90.229,180.315 C139.802,180.315 179.988,140.129 179.988,90.556 C179.988,40.984 139.802,0.797 90.229,0.797 C40.657,0.797 0.471,40.984 0.471,90.556" id="path-45"></path>
        <path d="M0.471,90.556 C0.471,140.129 40.657,180.315 90.229,180.315 C139.802,180.315 179.988,140.129 179.988,90.556 C179.988,40.984 139.802,0.797 90.229,0.797 C40.657,0.797 0.471,40.984 0.471,90.556" id="path-47"></path>
        <path d="M0.471,90.556 C0.471,140.129 40.657,180.315 90.229,180.315 C139.802,180.315 179.988,140.129 179.988,90.556 C179.988,40.984 139.802,0.797 90.229,0.797 C40.657,0.797 0.471,40.984 0.471,90.556" id="path-49"></path>
        <path d="M0.471,90.556 C0.471,140.129 40.657,180.315 90.229,180.315 C139.802,180.315 179.988,140.129 179.988,90.556 C179.988,40.984 139.802,0.797 90.229,0.797 C40.657,0.797 0.471,40.984 0.471,90.556" id="path-51"></path>
    </defs>
    <g id="Common/Illustrations/UserDefault" stroke="none" stroke-width="1" fill="none" fill-rule="evenodd">
        <g id="Group-102" transform="translate(11.000000, 28.000000)">
            <g id="Group-23" transform="translate(0.000000, 0.944000)">
                <path d="M208.7295,108.5557 C208.7295,158.5377 168.2115,199.0557 118.2295,199.0557 C68.2485,199.0557 27.7295,158.5377 27.7295,108.5557 C27.7295,58.5747 68.2485,18.0557 118.2295,18.0557 C168.2115,18.0557 208.7295,58.5747 208.7295,108.5557" id="Fill-1" fill="#E1F2FF"></path>
                <path d="M199.9971,148.3906 C199.8531,148.3906 199.7071,148.3596 199.5681,148.2936 C199.0691,148.0566 198.8571,147.4596 199.0951,146.9606 C204.8241,134.9176 207.7291,121.9956 207.7291,108.5556 C207.7291,105.3026 207.5541,102.0286 207.2071,98.8226 C207.1471,98.2736 207.5451,97.7806 208.0941,97.7206 C208.6251,97.6616 209.1361,98.0576 209.1951,98.6076 C209.5501,101.8836 209.7291,105.2316 209.7291,108.5556 C209.7291,122.2956 206.7591,135.5056 200.9011,147.8206 C200.7291,148.1806 200.3711,148.3906 199.9971,148.3906 M100.4111,198.3016 C100.3471,198.3016 100.2801,198.2956 100.2141,198.2826 C83.6151,194.9676 68.2671,187.0806 55.8261,175.4746 C55.4231,175.0976 55.4001,174.4646 55.7771,174.0606 C56.1541,173.6576 56.7871,173.6356 57.1911,174.0116 C69.3591,185.3656 84.3711,193.0786 100.6061,196.3216 C101.1471,196.4296 101.4991,196.9556 101.3911,197.4976 C101.2961,197.9726 100.8781,198.3016 100.4111,198.3016 M130.2561,199.2626 C129.7621,199.2626 129.3321,198.8976 129.2661,198.3946 C129.1921,197.8466 129.5781,197.3436 130.1251,197.2716 C149.7661,194.6626 168.2541,185.3926 182.1831,171.1676 C182.5711,170.7736 183.2041,170.7666 183.5971,171.1526 C183.9921,171.5386 183.9981,172.1716 183.6121,172.5666 C169.3711,187.1106 150.4701,196.5876 130.3891,199.2536 C130.3441,199.2596 130.3001,199.2626 130.2561,199.2626" id="Fill-3" fill="#5E63B6"></path>
                <path d="M228.9795,50.5537 C228.4265,50.5537 227.9795,50.1067 227.9795,49.5537 L227.9795,42.5537 C227.9795,42.0007 228.4265,41.5537 228.9795,41.5537 C229.5325,41.5537 229.9795,42.0007 229.9795,42.5537 L229.9795,49.5537 C229.9795,50.1067 229.5325,50.5537 228.9795,50.5537" id="Fill-5" fill="#5E63B6"></path>
                <g id="Group-9" transform="translate(224.000000, 45.000000)">
                    <mask id="mask-2" fill="white">
                        <use xlink:href="#path-1"></use>
                    </mask>
                    <g id="Clip-8"></g>
                    <path d="M8.4795,2.0537 L1.4795,2.0537 C0.9265,2.0537 0.4795,1.6067 0.4795,1.0537 C0.4795,0.5007 0.9265,0.0537 1.4795,0.0537 L8.4795,0.0537 C9.0325,0.0537 9.4795,0.5007 9.4795,1.0537 C9.4795,1.6067 9.0325,2.0537 8.4795,2.0537" id="Fill-7" fill="#5E63B6" mask="url(#mask-2)"></path>
                </g>
                <g id="Group-12" transform="translate(56.000000, 0.000000)">
                    <mask id="mask-4" fill="white">
                        <use xlink:href="#path-3"></use>
                    </mask>
                    <g id="Clip-11"></g>
                    <path d="M1.6768,9.0557 C1.1238,9.0557 0.6768,8.6087 0.6768,8.0557 L0.6768,1.0557 C0.6768,0.5027 1.1238,0.0557 1.6768,0.0557 C2.2298,0.0557 2.6768,0.5027 2.6768,1.0557 L2.6768,8.0557 C2.6768,8.6087 2.2298,9.0557 1.6768,9.0557" id="Fill-10" fill="#5E63B6" mask="url(#mask-4)"></path>
                </g>
                <path d="M61.1768,5.5557 L54.1768,5.5557 C53.6238,5.5557 53.1768,5.1087 53.1768,4.5557 C53.1768,4.0027 53.6238,3.5557 54.1768,3.5557 L61.1768,3.5557 C61.7298,3.5557 62.1768,4.0027 62.1768,4.5557 C62.1768,5.1087 61.7298,5.5557 61.1768,5.5557" id="Fill-13" fill="#5E63B6"></path>
                <path d="M2.4687,101.1836 C2.1927,101.1836 1.9687,100.9596 1.9687,100.6836 L1.9687,96.7466 C1.9687,96.4696 2.1927,96.2466 2.4687,96.2466 C2.7447,96.2466 2.9687,96.4696 2.9687,96.7466 L2.9687,100.6836 C2.9687,100.9596 2.7447,101.1836 2.4687,101.1836" id="Fill-15" fill="#5E63B6"></path>
                <path d="M4.4375,99.2148 L0.4995,99.2148 C0.2235,99.2148 0.0005,98.9908 0.0005,98.7148 C0.0005,98.4388 0.2235,98.2148 0.4995,98.2148 L4.4375,98.2148 C4.7135,98.2148 4.9375,98.4388 4.9375,98.7148 C4.9375,98.9908 4.7135,99.2148 4.4375,99.2148" id="Fill-17" fill="#5E63B6"></path>
                <path d="M24.7109,186.2393 C24.4349,186.2393 24.2109,186.0153 24.2109,185.7393 L24.2109,181.8023 C24.2109,181.5253 24.4349,181.3023 24.7109,181.3023 C24.9869,181.3023 25.2109,181.5253 25.2109,181.8023 L25.2109,185.7393 C25.2109,186.0153 24.9869,186.2393 24.7109,186.2393" id="Fill-19" fill="#5E63B6"></path>
                <path d="M26.6797,184.2705 L22.7417,184.2705 C22.4657,184.2705 22.2427,184.0465 22.2427,183.7705 C22.2427,183.4945 22.4657,183.2705 22.7417,183.2705 L26.6797,183.2705 C26.9557,183.2705 27.1797,183.4945 27.1797,183.7705 C27.1797,184.0465 26.9557,184.2705 26.6797,184.2705" id="Fill-21" fill="#5E63B6"></path>
            </g>
            <g id="Group-96" transform="translate(28.000000, 18.944000)">
                <g id="Group-26">
                    <mask id="mask-6" fill="white">
                        <use xlink:href="#path-5"></use>
                    </mask>
                    <g id="Clip-25"></g>
                    <path d="M151.666,259.2051 C142.65,240.9021 129.242,187.8461 136.111,152.5981 L141.548,124.7061 C143.331,115.5561 144.113,106.2371 143.879,96.9181 L143.879,96.9171 C143.781,93.0341 143.293,89.2541 142.451,85.6111 C142.241,84.7001 142.009,83.7981 141.755,82.9051 C140.993,80.2271 140.039,77.6321 138.908,75.1361 C138.532,74.3041 138.136,73.4821 137.72,72.6721 C136.889,71.0531 135.981,69.4791 135.003,67.9571 C134.024,66.4341 132.976,64.9631 131.859,63.5461 C128.512,59.2961 124.566,55.5441 120.153,52.4141 C118.683,51.3711 117.16,50.3961 115.59,49.4961 C106.956,44.5421 96.898,41.8171 86.221,42.0861 L76.999,42.3171 C61.467,42.7081 47.563,49.3561 37.642,59.7911 C36.401,61.0951 35.223,62.4581 34.112,63.8761 C32.092,66.4531 30.306,69.2171 28.755,72.1231 C28.172,73.2151 27.611,74.3191 27.101,75.4521 C26.727,76.2811 26.372,77.1221 26.037,77.9721 C25.033,80.5211 24.21,83.1621 23.585,85.8751 C22.959,88.5881 22.529,91.3741 22.312,94.2181 C22.168,96.1131 22.118,98.0341 22.167,99.9761 C22.265,103.8481 23.922,107.3131 26.523,109.7871 C29.124,112.2611 32.669,113.7421 36.541,113.6451 L94.126,112.1981 L86.666,162.3981 C77.727,213.9991 81.664,248.2591 90.163,270.9491 C92.058,276.0081 152.78,261.4661 151.666,259.2051" id="Fill-24" fill="#ACD3EF" mask="url(#mask-6)"></path>
                </g>
                <g id="Group-29">
                    <mask id="mask-8" fill="white">
                        <use xlink:href="#path-7"></use>
                    </mask>
                    <g id="Clip-28"></g>
                    <path d="M150.7666,259.6426 C150.7676,259.6446 150.7686,259.6456 150.7686,259.6476 L150.7686,259.6466 C150.7686,259.6456 150.7676,259.6436 150.7666,259.6426 Z M95.2896,111.1686 L87.6556,162.5456 C79.8836,207.4056 81.0436,243.7516 91.0996,270.5986 C91.8556,271.3486 99.1426,271.6726 121.0316,267.0156 C135.6106,263.9136 147.9386,260.4166 150.4716,259.0346 C141.3446,239.9526 128.2836,187.5366 135.1296,152.4066 L140.5666,124.5146 C142.3326,115.4486 143.1116,106.1716 142.8786,96.9436 C142.7856,93.1916 142.3136,89.4556 141.4766,85.8366 C141.2726,84.9496 141.0416,84.0556 140.7926,83.1786 C140.0526,80.5766 139.1126,78.0086 137.9966,75.5486 C137.6316,74.7396 137.2396,73.9256 136.8296,73.1286 C136.0196,71.5496 135.1216,69.9926 134.1626,68.4976 C133.2046,67.0086 132.1656,65.5506 131.0746,64.1646 C127.7826,59.9856 123.9126,56.3066 119.5756,53.2296 C118.1276,52.2046 116.6206,51.2396 115.0926,50.3636 C106.3506,45.3476 96.3886,42.8256 86.2456,43.0856 L77.0246,43.3176 C62.2666,43.6886 48.5376,49.7836 38.3666,60.4806 C37.1486,61.7606 35.9816,63.1106 34.8996,64.4926 C32.9476,66.9826 31.1766,69.7076 29.6366,72.5936 C28.9756,73.8316 28.4586,74.8716 28.0126,75.8636 C27.6446,76.6776 27.2966,77.5036 26.9676,78.3386 C25.9756,80.8576 25.1656,83.4686 24.5596,86.0996 C23.9396,88.7846 23.5196,91.5406 23.3096,94.2936 C23.1666,96.1606 23.1196,98.0636 23.1666,99.9506 C23.2546,103.4286 24.6916,106.6646 27.2126,109.0626 C29.7326,111.4586 33.0126,112.7376 36.5156,112.6456 L95.2896,111.1686 Z M94.2566,272.9996 C93.4166,272.9996 92.6886,272.9616 92.0846,272.8816 C91.0616,272.7466 89.6516,272.4346 89.2266,271.2996 C79.0446,244.1166 77.8516,207.4186 85.6806,162.2276 L92.9616,113.2276 L36.5666,114.6456 C32.5366,114.7236 28.7426,113.2786 25.8336,110.5116 C22.9256,107.7466 21.2686,104.0136 21.1666,100.0006 C21.1186,98.0456 21.1676,96.0756 21.3156,94.1416 C21.5336,91.2886 21.9686,88.4326 22.6106,85.6506 C23.2396,82.9226 24.0786,80.2156 25.1066,77.6056 C25.4496,76.7366 25.8136,75.8736 26.1896,75.0406 C26.6556,74.0076 27.1906,72.9306 27.8726,71.6526 C29.4666,68.6636 31.3016,65.8396 33.3256,63.2586 C34.4466,61.8276 35.6556,60.4286 36.9166,59.1016 C47.4556,48.0186 61.6816,41.7026 76.9736,41.3176 L86.1956,41.0856 C96.7066,40.8396 107.0296,43.4316 116.0876,48.6286 C117.6696,49.5366 119.2336,50.5356 120.7316,51.5986 C125.2266,54.7866 129.2346,58.5976 132.6446,62.9266 C133.7766,64.3636 134.8526,65.8736 135.8436,67.4156 C136.8396,68.9646 137.7696,70.5796 138.6096,72.2146 C139.0346,73.0416 139.4406,73.8856 139.8196,74.7236 C140.9746,77.2736 141.9496,79.9346 142.7166,82.6316 C142.9756,83.5406 143.2136,84.4676 143.4256,85.3866 C144.2916,89.1356 144.7816,93.0066 144.8786,96.8916 C145.1146,106.2666 144.3246,115.6886 142.5296,124.8976 L137.0926,152.7886 C130.2566,187.8686 143.5306,240.4256 152.5636,258.7636 L152.5636,258.7626 C152.7566,259.1556 152.7096,259.6156 152.4396,259.9936 C150.2666,263.0206 107.8516,272.9986 94.2566,272.9996 Z" id="Fill-27" fill="#5E63B6" mask="url(#mask-8)"></path>
                </g>
                <g id="Group-32">
                    <mask id="mask-10" fill="white">
                        <use xlink:href="#path-9"></use>
                    </mask>
                    <g id="Clip-31"></g>
                    <path d="M47.3516,50.7324 C47.3516,50.7324 48.0366,40.8864 57.6976,36.7384 C60.6456,35.4714 68.6776,34.9474 68.6776,34.9474 C68.6776,34.9474 71.1996,45.2944 64.6906,48.5594 C55.3226,53.2594 47.3516,50.7324 47.3516,50.7324" id="Fill-30" fill="#FFFFFF" mask="url(#mask-10)"></path>
                </g>
                <g id="Group-35">
                    <mask id="mask-12" fill="white">
                        <use xlink:href="#path-11"></use>
                    </mask>
                    <g id="Clip-34"></g>
                    <path d="M48.457,49.9746 C50.648,50.4316 57.047,51.2756 64.242,47.6656 C68.971,45.2926 68.27,38.4026 67.867,36.0116 C65.736,36.1866 60.296,36.7096 58.092,37.6576 C50.616,40.8676 48.852,47.6096 48.457,49.9746 M52.863,52.4216 C49.444,52.4216 47.225,51.7416 47.049,51.6856 L46.3,51.4486 L46.353,50.6626 C46.384,50.2366 47.197,40.1596 57.303,35.8196 C60.373,34.4996 68.277,33.9716 68.612,33.9496 L69.45,33.8946 L69.649,34.7106 C69.76,35.1636 72.277,45.8716 65.139,49.4536 C60.449,51.8066 56.114,52.4216 52.863,52.4216" id="Fill-33" fill="#5E63B6" mask="url(#mask-12)"></path>
                </g>
                <g id="Group-38">
                    <mask id="mask-14" fill="white">
                        <use xlink:href="#path-13"></use>
                    </mask>
                    <g id="Clip-37"></g>
                    <path d="M71.9863,45.0938 C71.9863,45.0938 71.9283,31.7028 86.9373,29.3728 C89.7363,28.9388 93.3493,29.1248 93.3493,29.1248 C93.3493,29.1248 100.8033,43.0078 92.8993,44.5688 C83.1823,46.4878 71.9863,45.0938 71.9863,45.0938" id="Fill-36" fill="#FFFFFF" mask="url(#mask-14)"></path>
                </g>
                <g id="Group-41">
                    <mask id="mask-16" fill="white">
                        <use xlink:href="#path-15"></use>
                    </mask>
                    <g id="Clip-40"></g>
                    <path d="M73.0381,44.1992 C75.8991,44.4742 84.8561,45.1362 92.7061,43.5872 C93.8871,43.3542 94.6721,42.7952 95.1051,41.8782 C96.5241,38.8772 94.0741,32.7832 92.7291,30.1032 C91.6221,30.0672 89.1121,30.0472 87.0911,30.3612 C75.1751,32.2112 73.3241,41.2782 73.0381,44.1992 M81.1171,46.5892 C76.0011,46.5892 72.1341,46.1202 71.8631,46.0862 L70.9901,45.9772 L70.9861,45.0972 C70.9851,44.9552 71.1061,30.8182 86.7841,28.3852 C89.6531,27.9392 93.2501,28.1192 93.4011,28.1262 L93.9641,28.1552 L94.2301,28.6522 C94.4341,29.0292 99.1711,37.9562 96.9141,42.7312 C96.2001,44.2412 94.9151,45.1892 93.0931,45.5502 C89.0331,46.3512 84.7591,46.5892 81.1171,46.5892" id="Fill-39" fill="#5E63B6" mask="url(#mask-16)"></path>
                </g>
                <g id="Group-44">
                    <mask id="mask-18" fill="white">
                        <use xlink:href="#path-17"></use>
                    </mask>
                    <g id="Clip-43"></g>
                    <path d="M100.5322,45.3477 C100.5322,45.3477 102.5212,30.5007 115.8582,34.5857 C121.5562,36.3307 124.7192,40.6617 124.7192,40.6617 C124.7192,40.6617 122.0592,51.9687 116.7542,50.6957 C107.4902,48.4737 100.5322,45.3477 100.5322,45.3477" id="Fill-42" fill="#FFFFFF" mask="url(#mask-18)"></path>
                </g>
                <g id="Group-47">
                    <mask id="mask-20" fill="white">
                        <use xlink:href="#path-19"></use>
                    </mask>
                    <g id="Clip-46"></g>
                    <path d="M101.6602,44.7441 C103.6572,45.5811 109.6142,47.9551 116.9872,49.7231 C117.6712,49.8881 118.3172,49.7701 118.9702,49.3691 C121.3512,47.9021 123.0322,43.1351 123.6282,40.9001 C122.7592,39.8751 119.9342,36.8801 115.5652,35.5421 C112.0902,34.4761 109.1472,34.6921 106.8232,36.1831 C103.3252,38.4261 102.0412,42.9661 101.6602,44.7441 M117.5862,51.7971 C117.2342,51.7971 116.8792,51.7541 116.5202,51.6681 C107.2722,49.4501 100.1922,46.2911 100.1222,46.2601 L99.4422,45.9541 L99.5412,45.2151 C99.5812,44.9141 100.5882,37.8061 105.7432,34.5001 C108.5852,32.6791 112.0852,32.3851 116.1512,33.6301 C122.0992,35.4511 125.3892,39.8851 125.5262,40.0721 L125.7982,40.4431 L125.6922,40.8901 C125.6172,41.2101 123.8092,48.7371 120.0182,51.0721 C119.2362,51.5551 118.4212,51.7971 117.5862,51.7971" id="Fill-45" fill="#5E63B6" mask="url(#mask-20)"></path>
                </g>
                <g id="Group-50">
                    <mask id="mask-22" fill="white">
                        <use xlink:href="#path-21"></use>
                    </mask>
                    <g id="Clip-49"></g>
                    <path d="M52.1357,48.1006 C52.1357,48.1006 52.4977,42.8966 57.6047,40.7036 C59.1627,40.0336 63.4087,39.7556 63.4087,39.7556 C63.4087,39.7556 64.7417,45.2256 61.3017,46.9526 C56.3497,49.4366 52.1357,48.1006 52.1357,48.1006" id="Fill-48" fill="#E1F2FF" mask="url(#mask-22)"></path>
                </g>
                <g id="Group-53">
                    <mask id="mask-24" fill="white">
                        <use xlink:href="#path-23"></use>
                    </mask>
                    <g id="Clip-52"></g>
                    <path d="M77.7695,42.5869 C77.7695,42.5869 77.7385,35.1839 86.0355,33.8959 C87.5825,33.6549 89.5815,33.7589 89.5815,33.7589 C89.5815,33.7589 93.7025,41.4339 89.3325,42.2969 C83.9595,43.3579 77.7695,42.5869 77.7695,42.5869" id="Fill-51" fill="#E1F2FF" mask="url(#mask-24)"></path>
                </g>
                <g id="Group-56">
                    <mask id="mask-26" fill="white">
                        <use xlink:href="#path-25"></use>
                    </mask>
                    <g id="Clip-55"></g>
                    <path d="M105.7705,44.2109 C105.7705,44.2109 106.8585,36.0879 114.1565,38.3229 C117.2735,39.2779 119.0035,41.6479 119.0035,41.6479 C119.0035,41.6479 117.5485,47.8329 114.6455,47.1369 C109.5775,45.9209 105.7705,44.2109 105.7705,44.2109" id="Fill-54" fill="#E1F2FF" mask="url(#mask-26)"></path>
                </g>
                <g id="Group-59">
                    <mask id="mask-28" fill="white">
                        <use xlink:href="#path-27"></use>
                    </mask>
                    <g id="Clip-58"></g>
                    <path d="M141.3311,125.8174 C141.3311,125.8174 116.2571,130.4054 92.1701,125.0884 C90.1651,138.2544 88.9171,148.1874 88.9171,148.1874 C88.9171,148.1874 105.8081,159.1304 136.3151,151.7704 C139.5121,134.8454 141.3311,125.8174 141.3311,125.8174" id="Fill-57" fill="#FFFFFF" mask="url(#mask-28)"></path>
                </g>
                <g id="Group-62">
                    <mask id="mask-30" fill="white">
                        <use xlink:href="#path-29"></use>
                    </mask>
                    <g id="Clip-61"></g>
                    <path d="M89.9932,147.6572 C93.0462,149.3452 109.0872,157.1262 135.4532,150.9472 C137.8382,138.3322 139.4502,130.1472 140.0682,127.0342 C134.4582,127.8852 113.4012,130.5472 92.9992,126.2892 C91.3952,136.8962 90.2952,145.3092 89.9932,147.6572 M115.7952,155.3392 C98.3822,155.3392 88.8972,149.3662 88.3732,149.0262 L87.8472,148.6852 L87.9252,148.0622 C87.9372,147.9632 89.1972,137.9662 91.1812,124.9372 L91.3422,123.8812 L92.3862,124.1112 C115.9862,129.3212 140.9022,124.8792 141.1512,124.8342 L142.6022,124.5682 L142.3112,126.0142 C142.2932,126.1052 140.4562,135.2322 137.2982,151.9562 L137.1782,152.5912 L136.5502,152.7422 C128.7222,154.6312 121.7872,155.3392 115.7952,155.3392" id="Fill-60" fill="#5E63B6" mask="url(#mask-30)"></path>
                </g>
                <g id="Group-65">
                    <mask id="mask-32" fill="white">
                        <use xlink:href="#path-31"></use>
                    </mask>
                    <g id="Clip-64"></g>
                    <path d="M98.7432,101.3994 L69.9492,102.1234 C69.5842,87.6194 81.0462,75.5674 95.5492,75.2024 L98.0832,75.1384 C105.3352,74.9574 111.3612,80.6874 111.5432,87.9394 C111.7252,95.1904 105.9942,101.2164 98.7432,101.3994" id="Fill-63" fill="#E1F2FF" mask="url(#mask-32)"></path>
                </g>
                <g id="Group-68">
                    <mask id="mask-34" fill="white">
                        <use xlink:href="#path-33"></use>
                    </mask>
                    <g id="Clip-67"></g>
                    <path d="M96.1836,100.9697 L70.4316,101.6167 C70.1456,90.2227 79.1506,80.7537 90.5446,80.4677 L95.9096,80.3327 C101.5386,80.1917 106.2176,84.6407 106.3586,90.2707 C106.5036,96.0347 101.9486,100.8247 96.1836,100.9697" id="Fill-66" fill="#FFFFFF" mask="url(#mask-34)"></path>
                </g>
                <g id="Group-71">
                    <mask id="mask-36" fill="white">
                        <use xlink:href="#path-35"></use>
                    </mask>
                    <g id="Clip-70"></g>
                    <path d="M96.1719,81.3301 C96.0929,81.3301 96.0139,81.3311 95.9349,81.3331 L90.5699,81.4681 C85.3259,81.6001 80.4469,83.7651 76.8329,87.5661 C73.4479,91.1251 71.5509,95.7171 71.4309,100.5921 L96.1579,99.9701 C98.6799,99.9071 101.0259,98.8661 102.7629,97.0381 C104.4999,95.2111 105.4219,92.8161 105.3589,90.2961 C105.2979,87.8401 104.2829,85.5551 102.5029,83.8621 C100.7799,82.2241 98.5399,81.3301 96.1719,81.3301 Z M69.4569,102.6421 L69.4319,101.6421 C69.1329,89.7151 78.5929,79.7681 90.5199,79.4681 L95.8839,79.3331 C98.8939,79.2891 101.7149,80.3511 103.8819,82.4131 C106.0489,84.4741 107.2829,87.2561 107.3589,90.2451 C107.4359,93.3011 106.3179,96.2021 104.2119,98.4171 C102.1069,100.6311 99.2639,101.8921 96.2089,101.9701 L69.4569,102.6421 Z" id="Fill-69" fill="#5E63B6" mask="url(#mask-36)"></path>
                </g>
                <g id="Group-74">
                    <mask id="mask-38" fill="white">
                        <use xlink:href="#path-37"></use>
                    </mask>
                    <g id="Clip-73"></g>
                    <path d="M76.8027,89.5742 C76.8817,92.7562 79.5267,95.2702 82.7087,95.1912 C85.8917,95.1112 88.4067,92.4672 88.3257,89.2842 C88.2457,86.1022 85.6017,83.5872 82.4197,83.6672 C79.2377,83.7472 76.7227,86.3912 76.8027,89.5742" id="Fill-72" fill="#5E63B6" mask="url(#mask-38)"></path>
                </g>
                <g id="Group-77">
                    <mask id="mask-40" fill="white">
                        <use xlink:href="#path-39"></use>
                    </mask>
                    <g id="Clip-76"></g>
                    <path d="M35.4092,108.9854 C37.0382,108.5934 38.4792,107.6474 39.4892,106.3104 L41.3582,103.8344 L37.0812,104.8634 L34.5622,105.4704 C33.5922,105.7044 32.9942,106.6804 33.2272,107.6514 C33.4622,108.6224 34.4382,109.2194 35.4092,108.9854" id="Fill-75" fill="#5E63B6" mask="url(#mask-40)"></path>
                </g>
                <g id="Group-80">
                    <mask id="mask-42" fill="white">
                        <use xlink:href="#path-41"></use>
                    </mask>
                    <g id="Clip-79"></g>
                    <path d="M101.2129,129.6914 C101.2129,129.6914 120.3839,134.6244 137.0939,130.8434 C134.2359,143.4254 132.6549,147.3874 132.6549,147.3874 C132.6549,147.3874 107.3779,144.6614 101.2129,129.6914" id="Fill-78" fill="#E1F2FF" mask="url(#mask-42)"></path>
                </g>
                <g id="Group-83">
                    <mask id="mask-44" fill="white">
                        <use xlink:href="#path-43"></use>
                    </mask>
                    <g id="Clip-82"></g>
                    <path d="M119.1406,137.7949 C107.2916,137.7949 99.4306,135.9319 99.3216,135.9049 C98.7856,135.7749 98.4556,135.2339 98.5856,134.6979 C98.7166,134.1599 99.2596,133.8279 99.7926,133.9619 C99.9426,133.9979 114.9646,137.5489 134.8016,134.6769 C135.3426,134.5879 135.8566,134.9759 135.9346,135.5229 C136.0136,136.0689 135.6346,136.5759 135.0886,136.6549 C129.2926,137.4949 123.8956,137.7949 119.1406,137.7949" id="Fill-81" fill="#ACD3EF" mask="url(#mask-44)"></path>
                </g>
                <g id="Group-86">
                    <mask id="mask-46" fill="white">
                        <use xlink:href="#path-45"></use>
                    </mask>
                    <g id="Clip-85"></g>
                    <path d="M124.8037,112.1582 C123.5987,112.1582 122.4597,111.7042 121.5827,110.8702 C120.6777,110.0102 120.1617,108.8472 120.1307,107.5982 C120.1237,107.3222 120.3427,107.0932 120.6177,107.0862 L120.6307,107.0862 C120.9017,107.0862 121.1237,107.3022 121.1307,107.5732 C121.1557,108.5552 121.5607,109.4692 122.2727,110.1452 C122.9837,110.8222 123.9197,111.1822 124.8987,111.1572 C126.9257,111.1052 128.5327,109.4152 128.4817,107.3882 C128.4747,107.1122 128.6927,106.8832 128.9687,106.8762 C129.2687,106.8752 129.4747,107.0882 129.4817,107.3632 C129.5467,109.9412 127.5017,112.0922 124.9237,112.1572 C124.8837,112.1582 124.8437,112.1582 124.8037,112.1582" id="Fill-84" fill="#E1F2FF" mask="url(#mask-46)"></path>
                </g>
                <g id="Group-89">
                    <mask id="mask-48" fill="white">
                        <use xlink:href="#path-47"></use>
                    </mask>
                    <g id="Clip-88"></g>
                    <path d="M129.084,116.2285 C127.88,116.2285 126.74,115.7745 125.863,114.9415 C124.958,114.0805 124.442,112.9175 124.411,111.6695 C124.404,111.3935 124.623,111.1645 124.898,111.1575 L124.911,111.1575 C125.182,111.1575 125.404,111.3735 125.411,111.6445 C125.436,112.6255 125.841,113.5395 126.553,114.2155 C127.264,114.8925 128.2,115.2495 129.179,115.2275 C130.161,115.2035 131.074,114.7975 131.751,114.0855 C132.428,113.3745 132.787,112.4415 132.762,111.4595 C132.755,111.1835 132.973,110.9545 133.249,110.9475 C133.522,110.9915 133.755,111.1605 133.762,111.4345 C133.793,112.6835 133.337,113.8695 132.476,114.7755 C131.615,115.6805 130.453,116.1965 129.204,116.2275 C129.164,116.2285 129.124,116.2285 129.084,116.2285" id="Fill-87" fill="#E1F2FF" mask="url(#mask-48)"></path>
                </g>
                <g id="Group-92">
                    <mask id="mask-50" fill="white">
                        <use xlink:href="#path-49"></use>
                    </mask>
                    <g id="Clip-91"></g>
                    <path d="M118.9561,172.0049 C117.9241,172.0049 116.9481,171.6149 116.1981,170.9019 C115.4231,170.1649 114.9811,169.1699 114.9541,168.0999 C114.9471,167.8229 115.1651,167.5939 115.4411,167.5869 C115.7541,167.5899 115.9471,167.7989 115.9541,168.0739 C115.9751,168.8769 116.3061,169.6239 116.8881,170.1779 C117.4701,170.7319 118.2381,171.0419 119.0341,171.0039 C119.8371,170.9839 120.5841,170.6519 121.1371,170.0709 C121.6901,169.4889 121.9841,168.7269 121.9641,167.9239 C121.9571,167.6479 122.1751,167.4179 122.4511,167.4109 L122.4641,167.4109 C122.7341,167.4109 122.9571,167.6269 122.9641,167.8989 C122.9901,168.9679 122.6001,169.9839 121.8621,170.7599 C121.1241,171.5349 120.1291,171.9779 119.0601,172.0039 C119.0241,172.0049 118.9901,172.0049 118.9561,172.0049" id="Fill-90" fill="#E1F2FF" mask="url(#mask-50)"></path>
                </g>
                <g id="Group-95">
                    <mask id="mask-52" fill="white">
                        <use xlink:href="#path-51"></use>
                    </mask>
                    <g id="Clip-94"></g>
                    <path d="M34.3945,93.584 C33.5885,93.584 32.8275,93.28 32.2415,92.723 C31.6355,92.147 31.2905,91.369 31.2685,90.533 C31.2615,90.257 31.4795,90.027 31.7555,90.021 L31.7685,90.021 C32.0395,90.021 32.2615,90.236 32.2685,90.508 C32.2985,91.683 33.2845,92.65 34.4515,92.583 C35.0195,92.569 35.5485,92.334 35.9405,91.922 C36.3325,91.51 36.5405,90.97 36.5265,90.401 C36.5195,90.125 36.7385,89.896 37.0135,89.889 L37.0265,89.889 C37.2965,89.889 37.5195,90.105 37.5265,90.376 C37.5465,91.212 37.2415,92.005 36.6655,92.611 C36.0885,93.217 35.3115,93.563 34.4765,93.583 C34.4495,93.584 34.4215,93.584 34.3945,93.584" id="Fill-93" fill="#E1F2FF" mask="url(#mask-52)"></path>
                </g>
            </g>
            <g id="Group-101" transform="translate(176.000000, 50.944000)" fill="#5E63B6">
                <path d="M3.2197,4.7969 C2.9437,4.7969 2.7197,4.5729 2.7197,4.2969 L2.7197,0.8159 C2.7197,0.5389 2.9437,0.3159 3.2197,0.3159 C3.4957,0.3159 3.7197,0.5389 3.7197,0.8159 L3.7197,4.2969 C3.7197,4.5729 3.4957,4.7969 3.2197,4.7969" id="Fill-97"></path>
                <path d="M4.96,3.0557 L1.479,3.0557 C1.202,3.0557 0.979,2.8317 0.979,2.5557 C0.979,2.2797 1.202,2.0557 1.479,2.0557 L4.96,2.0557 C5.236,2.0557 5.46,2.2797 5.46,2.5557 C5.46,2.8317 5.236,3.0557 4.96,3.0557" id="Fill-99"></path>
            </g>
        </g>
    </g>
</svg>