<?xml version="1.0" encoding="UTF-8" standalone="no"?>
<svg width="243px" height="243px" viewBox="0 0 243 243" version="1.1" xmlns="http://www.w3.org/2000/svg" xmlns:xlink="http://www.w3.org/1999/xlink">
    <!-- Generator: Sketch 46.2 (44496) - http://www.bohemiancoding.com/sketch -->
    <title>soverflow</title>
    <desc>Created with Sketch.</desc>
    <defs></defs>
    <g id="Page-1" stroke="none" stroke-width="1" fill="none" fill-rule="evenodd">
        <g id="soverflow" fill-rule="nonzero">
            <g id="stackoverflow" transform="translate(18.000000, 17.000000)">
                <polygon id="Shape" fill="#ECEFF4" points="88.0316547 112.035599 88.0316547 79 99 79 99 123 0 123 0 79 10.9683453 79 10.9683453 112.035599"></polygon>
                <path d="M23.1369151,75.9985935 L76.8561525,87.2208158 L79.1299827,76.4247539 L25.4107452,65.2025316 L23.1369151,75.9985935 Z M30.2426343,50.4289733 L79.982669,73.583685 L84.5303293,63.6399437 L34.7902946,40.3431786 L30.2426343,50.4289733 Z M44.0277296,25.9957806 L86.2357019,61.0829817 L93.1993068,52.7018284 L50.9913345,17.6146273 L44.0277296,25.9957806 Z M71.3136915,0 L62.5025997,6.53445851 L95.1889081,50.5710267 L104,44.0365682 L71.3136915,0 Z M22,101 L76.8561525,101 L76.8561525,90.0618847 L22,90.0618847 L22,101 Z" id="Shape" fill="#F1F4F9"></path>
            </g>
        </g>
    </g>
</svg>