<svg xmlns="http://www.w3.org/2000/svg" width="204" height="199" xmlns:xlink="http://www.w3.org/1999/xlink">
  <defs>
    <ellipse id="b" cx="98" cy="95.5" rx="98" ry="95.5"/>
    <filter id="a" width="107.1%" height="107.3%" x="-3.6%" y="-2.6%" filterUnits="objectBoundingBox">
      <feOffset dy="2" in="SourceAlpha" result="shadowOffsetOuter1"/>
      <feGaussianBlur stdDeviation="2" in="shadowOffsetOuter1" result="shadowBlurOuter1"/>
      <feColorMatrix values="0 0 0 0 0 0 0 0 0 0 0 0 0 0 0 0 0 0 0.212267889 0" in="shadowBlurOuter1"/>
    </filter>
  </defs>
  <g fill="none" fill-rule="evenodd">
    <g transform="translate(4 2)">
      <use fill="#000" filter="url(#a)" xlink:href="#b"/>
      <use fill="#F1F4F9" xlink:href="#b"/>
    </g>
    <path fill="#FC0" d="M79.64 96.53L54.52 109l4.8-26.4L39 63.87l28.08-3.85L79.64 36 92.2 60.03l28.07 3.85-20.32 18.7 4.8 26.42M97.82 161l-14.1 7 2.7-14.83L75 142.67l15.77-2.17 7.05-13.5 7.06 13.5 15.77 2.16-11.42 10.5 2.7 14.84M155 116.34l-9.27 4.6 1.77-9.74-7.5-6.9 10.36-1.43L155 94l4.64 8.87L170 104.3l-7.5 6.9 1.77 9.75"/>
  </g>
</svg>